# https://github.com/mikedh/trimesh
v 0.05990537 -0.15042578 -0.01341736
v 0.05993458 -0.15042578 -0.01341736
v 0.05990537 -0.15042578 0.01838053
v 0.05990537 -0.14380125 -0.04107232
v 0.06069388 -0.14252913 -0.04785951
v 0.06760701 -0.15042578 -0.01220512
v 0.06014835 -0.15042578 0.01839385
v 0.07183806 -0.15042361 0.02018556
v 0.07183806 -0.14916663 0.01961274
v 0.07183806 -0.14130894 0.00332082
v 0.05990537 -0.14336207 0.00133595
v 0.05990537 -0.13182649 -0.04107232
v 0.06069388 -0.12838874 -0.04785951
v 0.06780910 -0.14222409 -0.04785951
v 0.06791189 -0.15042361 -0.01215850
v 0.07183806 -0.15042361 -0.01064653
v 0.06760701 -0.15042578 0.01829394
v 0.07183806 -0.13496567 -0.01203195
v 0.05990537 -0.14162264 -0.00352631
v 0.05990537 -0.13926880 -0.01151241
v 0.07183806 -0.12832600 -0.04137871
v 0.06880553 -0.12832600 -0.04333028
v 0.06183984 -0.12832600 -0.04785951
v 0.07147476 -0.14119860 -0.04785951
v 0.07183806 -0.14109044 -0.04785951
v 0.05990537 -0.14161615 -0.00354629
v 0.07183806 -0.12832600 -0.04785951
f 1 2 6
f 1 6 17
f 1 17 7
f 1 7 3
f 1 3 11
f 1 11 19
f 1 19 26
f 1 26 20
f 1 20 12
f 1 12 4
f 1 4 5
f 1 5 2
f 2 5 6
f 3 7 8
f 3 8 9
f 3 9 10
f 3 10 11
f 4 12 13
f 4 13 5
f 5 13 23
f 5 23 27
f 5 27 25
f 5 25 24
f 5 24 14
f 5 14 15
f 5 15 6
f 6 15 16
f 6 16 8
f 6 8 17
f 7 17 8
f 8 16 25
f 8 25 27
f 8 27 21
f 8 21 18
f 8 18 10
f 8 10 9
f 10 18 11
f 11 18 19
f 12 20 13
f 13 21 22
f 13 22 23
f 13 20 18
f 13 18 21
f 14 24 16
f 14 16 15
f 16 24 25
f 18 20 26
f 18 26 19
f 21 27 23
f 21 23 22

