# https://github.com/mikedh/trimesh
v -0.01347028 -0.14381527 -0.04107207
v -0.01347028 -0.14669865 -0.02748051
v -0.01347028 -0.13181733 -0.04107207
v 0.02002855 -0.14384107 -0.04107207
v -0.00391048 -0.14671800 -0.02748051
v -0.01347028 -0.14817259 -0.02012379
v -0.01347028 -0.13729219 -0.02012379
v 0.02563802 -0.13173186 -0.04107207
v 0.00406920 -0.14671961 -0.02748051
v 0.05990536 -0.14380398 -0.04107207
v 0.00406920 -0.14820484 -0.02012379
v -0.00391048 -0.14819033 -0.02012379
v 0.05990536 -0.13731477 -0.02012379
v 0.03361769 -0.13173025 -0.04107207
v 0.01142400 -0.14820323 -0.02012379
v 0.05194724 -0.14666317 -0.02748051
v 0.04396756 -0.14819033 -0.02012379
v 0.05990536 -0.13182539 -0.04107207
v 0.05990536 -0.14807099 -0.02012379
v 0.05930204 -0.14807905 -0.02012379
v 0.05194724 -0.14816936 -0.02012379
v 0.04396756 -0.13174960 -0.04107207
f 1 2 6
f 1 6 7
f 1 7 3
f 1 3 8
f 1 8 14
f 1 14 22
f 1 22 18
f 1 18 10
f 1 10 4
f 1 4 5
f 1 5 2
f 2 5 6
f 3 7 8
f 4 9 5
f 4 10 9
f 5 9 11
f 5 11 12
f 5 12 6
f 6 12 11
f 6 11 15
f 6 15 17
f 6 17 21
f 6 21 20
f 6 20 19
f 6 19 13
f 6 13 7
f 7 13 14
f 7 14 8
f 9 15 11
f 9 10 16
f 9 16 17
f 9 17 15
f 10 18 13
f 10 13 19
f 10 19 20
f 10 20 21
f 10 21 16
f 13 18 22
f 13 22 14
f 16 21 17

