# https://github.com/mikedh/trimesh
v -0.05978498 0.14451894 -0.03906690
v -0.06303804 0.14444595 -0.03906690
v -0.05975836 0.14444413 -0.03906690
v -0.05975836 0.14451711 -0.03907453
v -0.05978498 0.14397524 -0.04154813
v -0.06775595 0.14427993 -0.03906690
v -0.05978498 0.14257587 -0.04772705
v -0.05975836 0.13217091 -0.03906690
v -0.05975836 0.14397159 -0.04156084
v -0.05975836 0.14257587 -0.04772705
v -0.06775595 0.14385301 -0.04088183
v -0.06775595 0.13045591 -0.03906690
v -0.06775595 0.14217084 -0.04772705
v -0.06775595 0.12588196 -0.04631901
v -0.06548390 0.12588196 -0.04772705
v -0.05975836 0.12793996 -0.04771179
v -0.05975836 0.13417782 -0.04772705
v -0.06775595 0.12588196 -0.04772705
v -0.05978498 0.12793083 -0.04772705
f 1 2 6
f 1 6 12
f 1 12 8
f 1 8 3
f 1 3 4
f 1 4 5
f 1 5 2
f 2 5 7
f 2 7 6
f 3 8 16
f 3 16 17
f 3 17 10
f 3 10 9
f 3 9 4
f 4 9 5
f 5 9 10
f 5 10 7
f 6 7 11
f 6 11 13
f 6 13 18
f 6 18 14
f 6 14 12
f 7 10 17
f 7 17 19
f 7 19 15
f 7 15 18
f 7 18 13
f 7 13 11
f 8 12 14
f 8 14 15
f 8 15 16
f 14 18 15
f 15 19 16
f 16 19 17

