# https://github.com/mikedh/trimesh
v -0.09170752 0.03576973 0.07377801
v -0.09676165 0.03576973 0.07306253
v -0.09656356 0.02779644 0.07292996
v -0.09170752 0.02779644 0.07350024
v -0.08550447 0.01272552 0.07270479
v -0.08495359 0.03576973 0.07300150
v -0.08498189 0.10689338 0.07304570
v -0.09170752 0.07567309 0.07377380
v -0.09846900 0.04375225 0.06829404
v -0.09840674 0.03576973 0.06829404
v -0.09675598 0.09162889 0.07305411
v -0.09772569 0.02779644 0.06829404
v -0.09614286 0.02225661 0.07262482
v -0.09034730 0.01272552 0.07271741
v -0.08505358 0.01272552 0.07239124
v -0.08151248 0.01272552 0.06991650
v -0.08117102 0.02779644 0.06993754
v -0.08096349 0.03576973 0.06991019
v -0.08134458 0.10689338 0.07024689
v -0.08557050 0.10689338 0.07309830
v -0.09170752 0.09162889 0.07375066
v -0.09762759 0.04375225 0.06031428
v -0.09762004 0.03576973 0.06031428
v -0.09839353 0.09162889 0.06829404
v -0.09614474 0.01272552 0.05228191
v -0.09618058 0.01272552 0.05323309
v -0.09634094 0.01272552 0.06031428
v -0.09170752 0.09961142 0.07363913
v -0.09653526 0.09961142 0.07288997
v -0.09632586 0.01272552 0.06123389
v -0.09612964 0.01272552 0.06685675
v -0.09420345 0.01272552 0.07072037
v -0.09388085 0.01272552 0.07090345
v -0.07951083 0.01272552 0.06592452
v -0.07948819 0.10689338 0.06597924
v -0.08099179 0.10689338 0.06996911
v -0.09170752 0.10689338 0.07332978
v -0.09633151 0.02779644 0.05228191
v -0.09633151 0.02774113 0.05228191
v -0.09743327 0.09162889 0.06031428
v -0.09624284 0.01975861 0.05228191
v -0.09811621 0.09961142 0.06829404
v -0.09721631 0.10689338 0.06031428
v -0.09738799 0.09961142 0.06031428
v -0.09423553 0.01272552 0.05228191
v -0.09213577 0.10689338 0.07326455
v -0.09609758 0.10689338 0.07257011
v -0.07948631 0.01272552 0.06529321
v -0.07922218 0.10689338 0.06031428
v -0.07924482 0.10689338 0.06080881
v -0.09597683 0.10689338 0.05228191
v -0.09623718 0.10689338 0.07216396
v -0.09748609 0.10689338 0.06829404
v -0.07930897 0.01981392 0.05228191
v -0.07930708 0.01272552 0.05228823
v -0.07929387 0.01272552 0.06031428
v -0.07919766 0.10689338 0.05303949
v -0.07919766 0.10689338 0.05228191
v -0.07919577 0.10689338 0.05233453
f 1 2 3
f 1 3 4
f 1 4 5
f 1 5 6
f 1 6 7
f 1 7 8
f 1 8 2
f 2 9 10
f 2 10 3
f 2 8 11
f 2 11 9
f 3 10 12
f 3 12 13
f 3 13 14
f 3 14 4
f 4 14 5
f 5 14 33
f 5 33 32
f 5 32 31
f 5 31 30
f 5 30 27
f 5 27 26
f 5 26 25
f 5 25 45
f 5 45 55
f 5 55 56
f 5 56 48
f 5 48 34
f 5 34 16
f 5 16 15
f 5 15 6
f 6 15 16
f 6 16 17
f 6 17 18
f 6 18 19
f 6 19 7
f 7 19 36
f 7 36 35
f 7 35 50
f 7 50 49
f 7 49 57
f 7 57 59
f 7 59 58
f 7 58 51
f 7 51 43
f 7 43 53
f 7 53 52
f 7 52 47
f 7 47 46
f 7 46 37
f 7 37 20
f 7 20 21
f 7 21 8
f 8 21 11
f 9 22 23
f 9 23 10
f 9 11 24
f 9 24 22
f 10 23 25
f 10 25 26
f 10 26 27
f 10 27 12
f 11 21 28
f 11 28 29
f 11 29 24
f 12 27 30
f 12 30 31
f 12 31 13
f 13 31 32
f 13 32 33
f 13 33 14
f 16 34 18
f 16 18 17
f 18 34 35
f 18 35 36
f 18 36 19
f 20 37 28
f 20 28 21
f 22 38 39
f 22 39 23
f 22 24 40
f 22 40 38
f 23 39 41
f 23 41 25
f 24 29 42
f 24 42 43
f 24 43 44
f 24 44 40
f 25 41 39
f 25 39 38
f 25 38 51
f 25 51 58
f 25 58 54
f 25 54 45
f 28 37 46
f 28 46 29
f 29 46 47
f 29 47 42
f 34 48 49
f 34 49 50
f 34 50 35
f 38 40 51
f 40 44 51
f 42 47 52
f 42 52 53
f 42 53 43
f 43 51 44
f 45 54 55
f 48 56 49
f 49 56 57
f 54 58 55
f 55 58 59
f 55 59 56
f 56 59 57

