# https://github.com/mikedh/trimesh
v 0.07515610 0.15115661 -0.00844662
v 0.07846009 0.15014935 -0.00844662
v 0.07846009 0.14935072 -0.01131532
v 0.07846009 0.14855209 -0.01417872
v 0.07515610 0.14267482 -0.03545728
v 0.07515610 0.13359975 -0.00844662
v 0.07846009 0.12557432 -0.00844662
v 0.07846009 0.14125032 -0.03545728
v 0.07515610 0.12653919 -0.03545728
v 0.07515610 0.13218177 -0.01225392
v 0.07846009 0.12448556 -0.01159558
v 0.07846009 0.11785529 -0.03545728
v 0.07515610 0.12826032 -0.02747782
v 0.07846009 0.11978178 -0.02747782
f 1 2 3
f 1 3 4
f 1 4 5
f 1 5 9
f 1 9 13
f 1 13 10
f 1 10 6
f 1 6 7
f 1 7 2
f 2 7 11
f 2 11 14
f 2 14 12
f 2 12 8
f 2 8 4
f 2 4 3
f 4 8 5
f 5 8 12
f 5 12 9
f 6 10 7
f 7 10 11
f 9 12 13
f 10 13 14
f 10 14 11
f 12 14 13

