# https://github.com/mikedh/trimesh
v 0.08581087 0.10724737 -0.06815772
v 0.08777242 0.10975988 -0.07130023
v 0.08589207 0.10724737 -0.06815772
v 0.08135440 0.10724737 -0.06209816
v 0.08783292 0.10983338 -0.07139183
v 0.08799850 0.10983338 -0.07139183
v 0.09189772 0.10724737 -0.06748130
v 0.08810678 0.10975988 -0.07128261
v 0.08135440 0.10756890 -0.06210169
v 0.08774854 0.11558184 -0.07144820
v 0.08135440 0.10724737 -0.03546431
v 0.08897132 0.11558184 -0.07144820
v 0.09296129 0.11558184 -0.06939781
v 0.08810837 0.10976218 -0.07128261
v 0.09221615 0.10975988 -0.06806260
v 0.09668854 0.11558184 -0.06540978
v 0.09555651 0.10975988 -0.06393717
v 0.09581922 0.10724737 -0.05942069
v 0.08135440 0.11558184 -0.06214044
v 0.08774535 0.12028535 -0.07145172
v 0.09585584 0.10724737 -0.03546431
v 0.08135440 0.13070976 -0.03546431
v 0.08921173 0.12028535 -0.07145172
v 0.09692737 0.12180342 -0.06585720
v 0.09754194 0.11558184 -0.05939955
v 0.09588609 0.10998726 -0.06361305
v 0.09582877 0.10724737 -0.05939955
v 0.08135440 0.11560711 -0.06214044
v 0.08135440 0.12356034 -0.06186212
v 0.08135440 0.12444684 -0.06173529
v 0.08135440 0.13070976 -0.05945591
v 0.08705754 0.12798595 -0.06515260
v 0.09585425 0.10724737 -0.03979407
v 0.09760882 0.11558184 -0.04344389
v 0.09760244 0.11558184 -0.03546431
v 0.09378284 0.13070976 -0.03546431
v 0.08970213 0.12798595 -0.06515260
v 0.09211425 0.12370503 -0.06816476
v 0.09484323 0.12703285 -0.05939955
v 0.09750532 0.12304360 -0.05939955
v 0.09756742 0.12326638 -0.05142700
v 0.09758653 0.11558184 -0.05142700
v 0.08363279 0.13070976 -0.05908952
v 0.09761996 0.12356034 -0.03546431
v 0.09761996 0.12355805 -0.03546431
v 0.09591794 0.12766672 -0.03546431
v 0.09375578 0.13070976 -0.03650711
v 0.08772147 0.13070976 -0.05521775
v 0.09198529 0.13070976 -0.04254201
v 0.09535113 0.12725563 -0.05142700
v 0.09570140 0.12742098 -0.04526881
v 0.09586380 0.12757256 -0.03994908
f 1 2 3
f 1 3 7
f 1 7 18
f 1 18 27
f 1 27 33
f 1 33 21
f 1 21 11
f 1 11 4
f 1 4 2
f 2 5 6
f 2 6 3
f 2 4 5
f 3 6 8
f 3 8 7
f 4 9 10
f 4 10 5
f 4 11 22
f 4 22 31
f 4 31 30
f 4 30 29
f 4 29 28
f 4 28 19
f 4 19 9
f 5 10 12
f 5 12 6
f 6 12 13
f 6 13 14
f 6 14 8
f 7 8 14
f 7 14 15
f 7 15 16
f 7 16 17
f 7 17 18
f 9 19 10
f 10 20 23
f 10 23 12
f 10 19 20
f 11 21 35
f 11 35 45
f 11 45 44
f 11 44 46
f 11 46 36
f 11 36 22
f 12 23 13
f 13 15 14
f 13 23 24
f 13 24 16
f 13 16 15
f 16 24 25
f 16 25 26
f 16 26 17
f 17 26 18
f 18 26 27
f 19 28 20
f 20 28 29
f 20 29 30
f 20 30 31
f 20 31 32
f 20 32 37
f 20 37 23
f 21 33 34
f 21 34 35
f 22 36 47
f 22 47 49
f 22 49 48
f 22 48 43
f 22 43 31
f 23 37 38
f 23 38 24
f 24 38 37
f 24 37 39
f 24 39 40
f 24 40 25
f 25 40 41
f 25 41 42
f 25 42 27
f 25 27 26
f 27 42 34
f 27 34 33
f 31 43 37
f 31 37 32
f 34 42 44
f 34 44 45
f 34 45 35
f 36 46 47
f 37 43 48
f 37 48 39
f 39 48 49
f 39 49 47
f 39 47 50
f 39 50 40
f 40 50 51
f 40 51 52
f 40 52 46
f 40 46 41
f 41 46 44
f 41 44 42
f 46 52 47
f 47 52 51
f 47 51 50

