# https://github.com/mikedh/trimesh
v 0.09348330 0.14845164 0.01945933
v 0.09270825 0.15548705 0.01242990
v 0.09243030 0.14845164 0.02759361
v 0.09288179 0.14845164 0.00444774
v 0.09008458 0.16138501 0.01242990
v 0.09131553 0.15619315 0.02108858
v 0.09252589 0.14845164 -0.00358246
v 0.09230235 0.15548705 0.00444774
v 0.08967426 0.15338582 0.02838622
v 0.09210087 0.14845164 0.02838622
v 0.08387688 0.16299366 0.01242990
v 0.08943601 0.16082125 0.01887888
v 0.08973162 0.16112306 0.00444774
v 0.09217440 0.14845164 -0.00580818
v 0.09048460 0.15597818 -0.00397076
v 0.08896540 0.16047248 -0.00159693
v 0.08788298 0.15150525 0.03238931
v 0.08908747 0.14845164 0.03455498
v 0.08966102 0.14845164 0.03395051
v 0.07846041 0.16280861 0.01242990
v 0.08387688 0.16134088 0.01947534
v 0.08387688 0.16260787 0.00444774
v 0.07846041 0.16256089 0.00444774
v 0.09025958 0.15538028 -0.00580818
v 0.07846041 0.14845164 -0.00580818
v 0.08387688 0.16095365 -0.00217337
v 0.08781240 0.15150525 0.03238931
v 0.08513137 0.14845164 0.03508739
v 0.08387688 0.15836840 0.02346642
v 0.07846041 0.16113872 0.01897495
v 0.07846041 0.16202988 0.00231810
v 0.08369305 0.15617037 -0.00580818
v 0.07846041 0.15537885 -0.00580818
v 0.07846041 0.14845164 0.02752155
v 0.07846041 0.15925246 -0.00319016
v 0.07846041 0.16089101 -0.00194119
v 0.08340921 0.15615187 -0.00580818
v 0.08412396 0.14845164 0.03461102
v 0.07846041 0.15311534 0.02581623
v 0.08157528 0.14845164 0.03307384
v 0.07933105 0.15562514 -0.00580818
v 0.07846041 0.15555395 -0.00577615
v 0.07877954 0.14845164 0.02827013
f 1 2 3
f 1 3 10
f 1 10 19
f 1 19 18
f 1 18 28
f 1 28 38
f 1 38 40
f 1 40 43
f 1 43 34
f 1 34 25
f 1 25 14
f 1 14 7
f 1 7 4
f 1 4 2
f 2 5 6
f 2 6 3
f 2 4 7
f 2 7 8
f 2 8 5
f 3 9 10
f 3 6 9
f 5 11 12
f 5 12 6
f 5 8 13
f 5 13 11
f 6 12 9
f 7 14 8
f 8 14 15
f 8 15 16
f 8 16 13
f 9 17 18
f 9 18 19
f 9 19 10
f 9 12 17
f 11 20 21
f 11 21 12
f 11 13 22
f 11 22 23
f 11 23 20
f 12 21 17
f 13 16 22
f 14 24 15
f 14 25 33
f 14 33 41
f 14 41 37
f 14 37 32
f 14 32 24
f 15 24 16
f 16 24 26
f 16 26 22
f 17 27 28
f 17 28 18
f 17 21 29
f 17 29 27
f 20 30 21
f 20 23 31
f 20 31 36
f 20 36 35
f 20 35 42
f 20 42 33
f 20 33 25
f 20 25 34
f 20 34 39
f 20 39 30
f 21 30 29
f 22 26 31
f 22 31 23
f 24 32 26
f 26 35 36
f 26 36 31
f 26 32 37
f 26 37 35
f 27 29 30
f 27 30 28
f 28 30 38
f 30 39 40
f 30 40 38
f 33 42 41
f 34 43 39
f 35 37 41
f 35 41 42
f 39 43 40

