# https://github.com/mikedh/trimesh
v 0.07857584 -0.14576681 0.03075648
v 0.07857584 -0.13983335 0.02837094
v 0.07588707 -0.14595150 0.02251015
v 0.07588707 -0.14602186 0.02251732
v 0.07588707 -0.14798600 0.02270013
v 0.07588707 -0.15549371 0.02289728
v 0.07588707 -0.15582498 0.02275748
v 0.07828499 -0.15345336 0.02611445
v 0.07857584 -0.15330091 0.02639225
v 0.07857584 -0.13514872 0.02507492
v 0.07588707 -0.14317239 0.01593603
v 0.07588707 -0.16123663 0.01918186
v 0.07589444 -0.16148288 0.01902414
v 0.07857584 -0.16045391 0.02040958
v 0.07857584 -0.13297937 0.01926610
v 0.07589313 -0.14243657 0.01244823
v 0.07588707 -0.16261446 0.01244823
v 0.07588707 -0.16148581 0.01901160
v 0.07857584 -0.16150927 0.01906895
v 0.07857584 -0.13286797 0.01244823
v 0.07588707 -0.16278155 0.01244823
v 0.07589444 -0.16280208 0.01244823
v 0.07857584 -0.16238580 0.01469038
v 0.07857584 -0.16281381 0.01244823
f 1 2 3
f 1 3 4
f 1 4 5
f 1 5 6
f 1 6 7
f 1 7 8
f 1 8 9
f 1 9 14
f 1 14 19
f 1 19 23
f 1 23 24
f 1 24 20
f 1 20 15
f 1 15 10
f 1 10 2
f 2 10 3
f 3 10 11
f 3 11 17
f 3 17 21
f 3 21 18
f 3 18 12
f 3 12 7
f 3 7 6
f 3 6 5
f 3 5 4
f 7 12 8
f 8 12 13
f 8 13 9
f 9 13 14
f 10 15 11
f 11 15 16
f 11 16 17
f 12 18 13
f 13 18 19
f 13 19 14
f 15 20 16
f 16 20 24
f 16 24 22
f 16 22 21
f 16 21 17
f 18 21 22
f 18 22 19
f 19 22 23
f 22 24 23

