# https://github.com/mikedh/trimesh
v 0.09586568 -0.10030430 0.05836190
v 0.09586548 -0.08992892 0.05641851
v 0.09586548 -0.08568978 0.05492769
v 0.09586568 -0.09312079 0.05642206
v 0.09661635 -0.10030430 0.05836190
v 0.09586568 -0.10030430 0.07301628
v 0.09586548 -0.08992892 0.05836012
v 0.09586548 -0.08568978 0.05836012
v 0.09586568 -0.08568835 0.05836190
v 0.09649099 -0.08568835 0.05836190
v 0.09692154 -0.08568835 0.05971961
v 0.09703384 -0.09192903 0.06033191
v 0.09677527 -0.10030430 0.05960780
v 0.09668658 -0.10030430 0.07289738
v 0.09586568 -0.09997524 0.07301806
v 0.09586568 -0.08568835 0.07305533
v 0.09798217 -0.08568835 0.06829359
v 0.09777891 -0.10030430 0.06829359
v 0.09671021 -0.08568835 0.07292222
v 0.09653015 -0.08568835 0.07295062
v 0.09772939 -0.10030430 0.06852253
v 0.09772317 -0.08568835 0.06929634
f 1 2 3
f 1 3 4
f 1 4 5
f 1 5 13
f 1 13 18
f 1 18 21
f 1 21 14
f 1 14 6
f 1 6 7
f 1 7 2
f 2 7 8
f 2 8 3
f 3 5 4
f 3 8 16
f 3 16 9
f 3 9 10
f 3 10 11
f 3 11 5
f 5 11 12
f 5 12 13
f 6 14 15
f 6 15 7
f 7 15 16
f 7 16 8
f 9 16 20
f 9 20 19
f 9 19 22
f 9 22 17
f 9 17 11
f 9 11 10
f 11 17 12
f 12 17 18
f 12 18 13
f 14 19 20
f 14 20 16
f 14 16 15
f 14 21 17
f 14 17 22
f 14 22 19
f 17 21 18

