# https://github.com/mikedh/trimesh
v 0.07928295 0.11086904 0.06031376
v 0.07958189 0.11086904 0.06586267
v 0.07928859 0.11086904 0.05561544
v 0.07930551 0.00411670 0.06031559
v 0.07931491 0.00411670 0.06049264
v 0.07959504 0.00411670 0.06571482
v 0.08146762 0.06769360 0.06976333
v 0.08155223 0.10759769 0.06989111
v 0.08163683 0.11086904 0.06985277
v 0.07965709 0.00411670 0.06584624
v 0.07929235 0.11086904 0.05506602
v 0.07931303 0.00411670 0.05506602
v 0.08147515 0.05970860 0.06976516
v 0.08545719 0.06769360 0.07299046
v 0.08550607 0.08365315 0.07297404
v 0.08554179 0.10759769 0.07287730
v 0.08562639 0.11086904 0.07289372
v 0.08327628 0.11086904 0.07113413
v 0.08556248 0.00411670 0.07301602
v 0.08554555 0.01182996 0.07301236
v 0.08157290 0.00411670 0.06970492
v 0.09580900 0.11086904 0.05506602
v 0.09573191 0.00411670 0.05506602
v 0.08170263 0.00411670 0.06981444
v 0.09185516 0.06769360 0.07371146
v 0.09185516 0.11086904 0.07366947
v 0.08554931 0.09162769 0.07295396
v 0.08813820 0.11086904 0.07322045
v 0.09185516 0.00411670 0.07366400
v 0.09185516 0.05970860 0.07370963
v 0.09762330 0.11086904 0.06008194
v 0.09603274 0.05209986 0.05506602
v 0.09740896 0.00411670 0.06054922
v 0.09688441 0.11086904 0.07306165
v 0.09664189 0.00411670 0.07293023
v 0.09684117 0.05970860 0.07301602
v 0.09817604 0.11086904 0.06431846
v 0.09817981 0.00411670 0.06804025
v 0.09758193 0.11086904 0.07109215
v 0.09820425 0.00411670 0.06829397
v 0.09681485 0.05173405 0.07300324
v 0.09842422 0.06769360 0.06829397
v 0.09848814 0.11086904 0.06829397
f 1 2 9
f 1 9 18
f 1 18 17
f 1 17 28
f 1 28 26
f 1 26 34
f 1 34 39
f 1 39 43
f 1 43 37
f 1 37 31
f 1 31 22
f 1 22 11
f 1 11 3
f 1 3 4
f 1 4 5
f 1 5 6
f 1 6 2
f 2 7 8
f 2 8 9
f 2 6 10
f 2 10 7
f 3 11 12
f 3 12 4
f 4 12 23
f 4 23 33
f 4 33 38
f 4 38 40
f 4 40 35
f 4 35 29
f 4 29 19
f 4 19 24
f 4 24 21
f 4 21 10
f 4 10 6
f 4 6 5
f 7 13 8
f 7 10 13
f 8 14 15
f 8 15 16
f 8 16 17
f 8 17 18
f 8 18 9
f 8 13 19
f 8 19 20
f 8 20 14
f 10 21 13
f 11 22 32
f 11 32 23
f 11 23 12
f 13 21 24
f 13 24 19
f 14 25 26
f 14 26 15
f 14 20 19
f 14 19 25
f 15 27 16
f 15 26 28
f 15 28 27
f 16 27 17
f 17 27 28
f 19 29 30
f 19 30 25
f 22 31 32
f 23 32 33
f 25 34 26
f 25 30 34
f 29 35 36
f 29 36 34
f 29 34 30
f 31 37 33
f 31 33 32
f 33 37 38
f 34 36 39
f 35 40 41
f 35 41 36
f 36 41 40
f 36 40 42
f 36 42 39
f 37 43 42
f 37 42 38
f 38 42 40
f 39 42 43

