# https://github.com/mikedh/trimesh
v -0.09755337 -0.11579808 -0.06224601
v -0.09682665 -0.11564907 -0.06778879
v -0.09678144 -0.12138291 -0.06738424
v -0.09751785 -0.11783598 -0.06224601
v -0.09628403 -0.10781228 -0.06224601
v -0.09611608 -0.10781228 -0.06527186
v -0.09602241 -0.11816130 -0.07162376
v -0.09602241 -0.12030834 -0.07162376
v -0.09717871 -0.12208179 -0.06224601
v -0.08825132 -0.12805489 -0.06457821
v -0.09430412 -0.12465069 -0.06224601
v -0.08113752 -0.10781228 -0.06224601
v -0.09170890 -0.10781228 -0.06877155
v -0.09170890 -0.11339079 -0.07074353
v -0.09170890 -0.11738056 -0.07168195
v -0.09170890 -0.12099043 -0.07168195
v -0.08719031 -0.12805489 -0.06457821
v -0.08624072 -0.12925119 -0.06224601
v -0.08856301 -0.12817452 -0.06224601
v -0.09036043 -0.12733501 -0.06224601
v -0.08114074 -0.10781228 -0.06225617
v -0.08105515 -0.10781437 -0.06224601
v -0.08513126 -0.10781228 -0.06689470
v -0.08748261 -0.11825574 -0.07153416
v -0.08748261 -0.12092118 -0.07153416
v -0.08563835 -0.12925119 -0.06224601
v -0.08108099 -0.11587364 -0.06224601
v -0.08205157 -0.12367686 -0.06224601
v -0.08208064 -0.12384896 -0.06224601
v -0.08457410 -0.12813464 -0.06224601
f 1 2 3
f 1 3 4
f 1 4 9
f 1 9 11
f 1 11 20
f 1 20 19
f 1 19 18
f 1 18 26
f 1 26 30
f 1 30 29
f 1 29 28
f 1 28 27
f 1 27 22
f 1 22 12
f 1 12 5
f 1 5 6
f 1 6 2
f 2 7 8
f 2 8 3
f 2 6 7
f 3 9 4
f 3 8 10
f 3 10 11
f 3 11 9
f 5 12 21
f 5 21 23
f 5 23 13
f 5 13 6
f 6 13 7
f 7 13 14
f 7 14 15
f 7 15 16
f 7 16 8
f 8 16 10
f 10 17 26
f 10 26 18
f 10 18 19
f 10 19 20
f 10 20 11
f 10 16 17
f 12 22 21
f 13 23 24
f 13 24 14
f 14 24 15
f 15 24 25
f 15 25 16
f 16 25 17
f 17 25 26
f 21 22 23
f 22 27 25
f 22 25 24
f 22 24 23
f 25 27 28
f 25 28 29
f 25 29 30
f 25 30 26

