# https://github.com/mikedh/trimesh
v 0.09422375 -0.13366384 0.04427765
v 0.09419465 -0.13366384 0.03636303
v 0.09162143 -0.13366384 0.05196175
v 0.09120941 -0.14305673 0.03636303
v 0.09227086 -0.14063471 0.03636303
v 0.09262927 -0.13981450 0.03636303
v 0.09222798 -0.14305673 0.02861306
v 0.09259558 -0.14305673 0.02040205
v 0.09267982 -0.14305673 0.01565987
v 0.09280082 -0.14305673 0.00767938
v 0.09277325 -0.14305673 -0.00029013
v 0.09399707 -0.13366384 -0.01003796
v 0.08429233 -0.13366384 0.05423405
v 0.08968844 -0.13686192 0.04997486
v 0.08902217 -0.14305673 0.04159919
v 0.09256035 -0.14305673 -0.00827062
v 0.09376119 -0.13366384 -0.02602089
v 0.09394805 -0.13366384 -0.01807333
v 0.08387572 -0.13366384 0.05427796
v 0.08506124 -0.14305673 0.04193949
v 0.09200588 -0.14305673 -0.01624012
v 0.09261243 -0.13366384 -0.03394649
v 0.07950737 -0.13366384 0.05041395
v 0.07966819 -0.13614746 0.04882224
v 0.08082767 -0.14305673 0.04005140
v 0.08387726 -0.13684445 0.04993095
v 0.09018471 -0.14305673 -0.02449504
v 0.09090307 -0.13366384 -0.04001693
v 0.09016940 -0.14305673 -0.02456091
v 0.09015255 -0.14305673 -0.02462677
v 0.07938330 -0.13366384 0.04914059
v 0.07886100 -0.14305673 0.03372848
v 0.08053666 -0.14305673 0.03957937
v 0.08054738 -0.14305673 0.03961230
v 0.09012191 -0.13366384 -0.04145495
v 0.09010506 -0.14305673 -0.02479143
v 0.08963637 -0.14305673 -0.02640509
v 0.07897741 -0.13366384 0.04270790
v 0.07857611 -0.14305673 0.02962297
v 0.08010166 -0.13602608 -0.05571444
v 0.08164712 -0.13366384 -0.05659263
v 0.08454047 -0.14305673 -0.02734914
v 0.07857611 -0.14235145 -0.03251944
v 0.07857611 -0.13858142 -0.04850237
v 0.07857611 -0.13645917 -0.05621940
v 0.07874000 -0.13366384 0.03452982
v 0.07857611 -0.13983197 0.02837156
v 0.07857611 -0.14305673 -0.02517564
v 0.07857611 -0.13366384 -0.05786599
v 0.08392167 -0.14305673 -0.02734914
v 0.07857611 -0.13514794 0.02506740
v 0.07857611 -0.13366384 0.01962267
f 1 2 12
f 1 12 18
f 1 18 17
f 1 17 22
f 1 22 28
f 1 28 35
f 1 35 41
f 1 41 49
f 1 49 52
f 1 52 46
f 1 46 38
f 1 38 31
f 1 31 23
f 1 23 19
f 1 19 13
f 1 13 3
f 1 3 4
f 1 4 5
f 1 5 6
f 1 6 7
f 1 7 8
f 1 8 9
f 1 9 10
f 1 10 11
f 1 11 2
f 2 11 12
f 3 13 14
f 3 14 15
f 3 15 4
f 4 7 5
f 4 15 20
f 4 20 25
f 4 25 34
f 4 34 33
f 4 33 32
f 4 32 39
f 4 39 48
f 4 48 50
f 4 50 42
f 4 42 37
f 4 37 36
f 4 36 30
f 4 30 29
f 4 29 27
f 4 27 21
f 4 21 16
f 4 16 11
f 4 11 10
f 4 10 9
f 4 9 8
f 4 8 7
f 5 7 6
f 11 16 17
f 11 17 18
f 11 18 12
f 13 19 14
f 14 19 20
f 14 20 15
f 16 21 17
f 17 21 22
f 19 23 24
f 19 24 25
f 19 25 26
f 19 26 20
f 20 26 25
f 21 27 22
f 22 27 29
f 22 29 30
f 22 30 28
f 23 31 32
f 23 32 24
f 24 32 33
f 24 33 34
f 24 34 25
f 28 30 36
f 28 36 37
f 28 37 35
f 31 38 39
f 31 39 32
f 35 40 41
f 35 37 40
f 37 42 43
f 37 43 44
f 37 44 45
f 37 45 40
f 38 46 39
f 39 46 47
f 39 47 51
f 39 51 52
f 39 52 49
f 39 49 45
f 39 45 44
f 39 44 43
f 39 43 48
f 40 45 41
f 41 45 49
f 42 50 43
f 43 50 48
f 46 51 47
f 46 52 51

