# https://github.com/mikedh/trimesh
v 0.06364504 -0.06002237 -0.04881283
v 0.06364504 -0.07596725 -0.04881416
v 0.06364504 -0.06002237 -0.06238650
v 0.03596475 -0.06002237 -0.04882084
v 0.02800110 -0.09990918 -0.04881951
v 0.03598739 -0.10788983 -0.04881684
v 0.03598739 -0.11594163 -0.04881684
v 0.06364504 -0.09619254 -0.04883153
v 0.06364504 -0.08394789 -0.06235310
v 0.05993119 -0.09990918 -0.06234375
v 0.05202038 -0.11594163 -0.06234241
v 0.02800110 -0.09990918 -0.06240520
v 0.02002990 -0.06002237 -0.06245863
v 0.02798600 -0.06002237 -0.04882752
v -0.01347028 -0.10788983 -0.04900119
v -0.01347028 -0.11594163 -0.04900386
v 0.02800110 -0.10788983 -0.04882218
v 0.06364504 -0.11594163 -0.04887695
v 0.06364504 -0.10417319 -0.04884890
v 0.06364504 -0.09990918 -0.04883955
v 0.02793316 -0.11594163 -0.04883287
v 0.06364504 -0.09192853 -0.06233974
v 0.05993119 -0.10788983 -0.06232638
v 0.05999913 -0.11594163 -0.06230768
v 0.04396614 -0.11594163 -0.06235711
v 0.03598739 -0.11587047 -0.06236779
v -0.01347028 -0.09990918 -0.06244661
v 0.02002990 -0.09192853 -0.06242257
v -0.01347028 -0.06002237 -0.06242791
v -0.01347028 -0.06002237 -0.04901989
v -0.01347028 -0.11594163 -0.06236645
v 0.06364504 -0.11594163 -0.06228230
v 0.06364504 -0.09990918 -0.06232104
v 0.03605533 -0.11594163 -0.06236645
v -0.01347028 -0.10788983 -0.06241989
f 1 2 8
f 1 8 20
f 1 20 19
f 1 19 18
f 1 18 32
f 1 32 33
f 1 33 22
f 1 22 9
f 1 9 3
f 1 3 13
f 1 13 29
f 1 29 30
f 1 30 14
f 1 14 4
f 1 4 5
f 1 5 6
f 1 6 7
f 1 7 2
f 2 7 8
f 3 9 10
f 3 10 11
f 3 11 12
f 3 12 13
f 4 14 5
f 5 14 15
f 5 15 16
f 5 16 17
f 5 17 7
f 5 7 6
f 7 18 19
f 7 19 20
f 7 20 8
f 7 17 21
f 7 21 16
f 7 16 31
f 7 31 34
f 7 34 25
f 7 25 11
f 7 11 24
f 7 24 32
f 7 32 18
f 9 22 10
f 10 23 11
f 10 22 23
f 11 23 24
f 11 25 12
f 12 25 26
f 12 26 27
f 12 27 28
f 12 28 13
f 13 28 27
f 13 27 29
f 14 30 15
f 15 30 29
f 15 29 27
f 15 27 35
f 15 35 31
f 15 31 16
f 16 21 17
f 22 33 24
f 22 24 23
f 24 33 32
f 25 34 26
f 26 34 31
f 26 31 35
f 26 35 27

