# https://github.com/mikedh/trimesh
v -0.01347402 0.14864239 -0.01856973
v -0.01347402 0.13765291 -0.01856973
v -0.01347402 0.14410789 -0.03906123
v -0.01347782 0.15043307 -0.01373721
v -0.01347782 0.15043307 0.01843620
v -0.01347782 0.13922309 -0.01151073
v -0.01347402 0.13226664 -0.03906123
v -0.01347782 0.15006141 0.01828890
v -0.01347782 0.14729271 0.01241962
v -0.01347782 0.14324368 0.00117961
v -0.01347782 0.14168061 -0.00353395
v -0.05170545 0.14427327 -0.03906123
v -0.03583838 0.15043307 -0.01406580
v -0.01988393 0.15043307 0.01870247
v -0.05229059 0.13922131 -0.01151073
v -0.05170545 0.13229864 -0.03906123
v -0.01988393 0.14983381 0.01845886
v -0.01988393 0.14707399 0.01241962
v -0.05229059 0.14173395 -0.00353395
v -0.02786305 0.14708110 0.01241962
v -0.05229059 0.14883444 -0.01856973
v -0.05229059 0.15043307 -0.01428674
v -0.02691696 0.15043307 0.01879312
v -0.05229059 0.13910750 -0.01199795
v -0.05229059 0.13761912 -0.01856973
v -0.02786305 0.14975201 0.01852118
v -0.05229059 0.14317433 0.00069805
v -0.05229059 0.14732116 0.01241962
v -0.05229059 0.14327212 0.00098132
v -0.05229059 0.14979468 0.01852685
v -0.05229059 0.15043307 0.01879878
v -0.02786305 0.15043307 0.01880445
v -0.04381751 0.15043307 0.01880445
f 1 2 7
f 1 7 3
f 1 3 4
f 1 4 5
f 1 5 2
f 2 6 7
f 2 5 8
f 2 8 9
f 2 9 10
f 2 10 11
f 2 11 6
f 3 7 16
f 3 16 12
f 3 12 4
f 4 12 13
f 4 13 22
f 4 22 31
f 4 31 33
f 4 33 32
f 4 32 23
f 4 23 14
f 4 14 5
f 5 14 8
f 6 15 7
f 6 11 15
f 7 15 16
f 8 14 17
f 8 17 9
f 9 17 18
f 9 18 10
f 10 19 11
f 10 18 20
f 10 20 19
f 11 19 15
f 12 21 22
f 12 22 13
f 12 16 25
f 12 25 21
f 14 23 17
f 15 24 16
f 15 19 27
f 15 27 29
f 15 29 28
f 15 28 30
f 15 30 31
f 15 31 22
f 15 22 21
f 15 21 25
f 15 25 24
f 16 24 25
f 17 23 26
f 17 26 18
f 18 26 20
f 19 20 27
f 20 28 29
f 20 29 27
f 20 26 30
f 20 30 28
f 23 32 26
f 26 32 33
f 26 33 30
f 30 33 31

