# https://github.com/mikedh/trimesh
v 0.08107843 0.00410625 -0.03495475
v 0.08107843 0.00410625 -0.06234148
v 0.07935747 0.00410625 -0.03495475
v 0.08107843 -0.03608411 -0.03495475
v 0.08107843 0.00391348 -0.06234416
v 0.07857611 0.00410625 -0.06213196
v 0.07857611 0.00410625 -0.03742052
v 0.07933101 -0.00363204 -0.03495475
v 0.07940964 -0.03608411 -0.03495475
v 0.08107843 -0.03608411 -0.04969566
v 0.08107843 -0.00413954 -0.06237370
v 0.07857611 -0.00413954 -0.06216420
v 0.07857611 0.00384267 -0.03741783
v 0.07857611 -0.00413954 -0.03735068
v 0.07933101 -0.00413954 -0.03495475
v 0.07857611 -0.03608411 -0.03765152
v 0.07933959 -0.01211781 -0.03495475
v 0.07857611 -0.01211781 -0.03736680
v 0.08106373 -0.03608411 -0.06208630
v 0.08107843 -0.03606051 -0.06208899
v 0.08107843 -0.01212568 -0.06239519
v 0.07857611 -0.01211781 -0.06218568
v 0.07857611 -0.00602789 -0.03735068
v 0.07933885 -0.01161425 -0.03495475
v 0.07857611 -0.03608411 -0.06188485
v 0.08107843 -0.02012363 -0.06237102
v 0.07857611 -0.02009609 -0.06215614
f 1 2 6
f 1 6 7
f 1 7 3
f 1 3 8
f 1 8 15
f 1 15 24
f 1 24 17
f 1 17 9
f 1 9 4
f 1 4 10
f 1 10 20
f 1 20 26
f 1 26 21
f 1 21 11
f 1 11 5
f 1 5 2
f 2 5 6
f 3 7 8
f 4 9 16
f 4 16 25
f 4 25 19
f 4 19 10
f 5 11 12
f 5 12 6
f 6 12 22
f 6 22 27
f 6 27 25
f 6 25 16
f 6 16 18
f 6 18 23
f 6 23 14
f 6 14 13
f 6 13 7
f 7 13 8
f 8 13 14
f 8 14 23
f 8 23 15
f 9 17 18
f 9 18 16
f 10 19 20
f 11 21 22
f 11 22 12
f 15 23 18
f 15 18 24
f 17 24 18
f 19 25 20
f 20 25 26
f 21 26 22
f 22 26 27
f 25 27 26

