# https://github.com/mikedh/trimesh
v 0.07931162 0.00410625 0.05506420
v 0.07932144 0.00410625 0.04737599
v 0.09573327 0.00410625 0.05506420
v 0.07936728 0.09965805 0.05506420
v 0.09569562 0.00410625 0.04737599
v 0.07937874 0.09965805 0.04737599
v 0.09603282 0.05208792 0.05506420
v 0.09567924 0.09965805 0.05506420
v 0.09561540 0.09963934 0.04737599
v 0.08551066 0.09965805 0.04737599
v 0.09560722 0.09965805 0.05229298
f 1 2 5
f 1 5 3
f 1 3 7
f 1 7 8
f 1 8 4
f 1 4 2
f 2 4 6
f 2 6 10
f 2 10 9
f 2 9 5
f 3 5 7
f 4 8 11
f 4 11 10
f 4 10 6
f 5 9 7
f 7 9 8
f 8 9 11
f 9 10 11

