# https://github.com/mikedh/trimesh
v -0.01347028 -0.14817357 -0.02012174
v -0.01347028 -0.15042775 -0.01333251
v -0.01347028 -0.13729101 -0.02012174
v 0.00344433 -0.14820443 -0.02012174
v 0.01198423 -0.15042775 -0.01352714
v -0.01347028 -0.15042775 0.01839257
v -0.01347028 -0.13924171 -0.01151594
v -0.01189733 -0.13924171 -0.01151594
v 0.05990536 -0.13731415 -0.02012174
v 0.00406920 -0.14820443 -0.02012174
v 0.04383828 -0.15042775 -0.01364926
v 0.01996390 -0.15042775 -0.01356912
v -0.01347028 -0.15027730 0.01835059
v 0.01204887 -0.15042775 0.01886580
v -0.01347028 -0.13972135 -0.00994361
v 0.05990536 -0.14161806 -0.00353219
v 0.05990536 -0.13927386 -0.01148922
v 0.05990536 -0.13926614 -0.01151594
v 0.05990536 -0.14807198 -0.02012174
v 0.01142400 -0.14820315 -0.02012174
v 0.04396756 -0.15042775 -0.01364926
v -0.01347028 -0.14815813 0.01366033
v 0.01204887 -0.15003297 0.01873604
v 0.02002855 -0.15042775 0.01884672
v -0.01347028 -0.14176851 -0.00353219
v 0.02002855 -0.14718986 0.01242385
v 0.05990536 -0.14336430 0.00134506
v 0.05930204 -0.14807970 -0.02012174
v 0.05990536 -0.15042775 -0.01341265
v 0.04396756 -0.14819028 -0.02012174
v 0.05194724 -0.14816843 -0.02012174
v 0.05194724 -0.15042775 -0.01357675
v -0.01347028 -0.14761420 0.01242385
v 0.01204887 -0.14728630 0.01242385
v 0.02002855 -0.14996097 0.01868261
v 0.02738335 -0.15042775 0.01880474
v 0.02800104 -0.14997382 0.01864445
v -0.01347028 -0.14210798 -0.00255522
v 0.02800104 -0.14730044 0.01242385
v 0.05990536 -0.15042775 0.01839639
v 0.02800104 -0.15042775 0.01880092
v 0.03598789 -0.15042775 0.01871314
v 0.05152347 -0.15042775 0.01853378
v 0.03598789 -0.15011656 0.01860247
f 1 2 6
f 1 6 13
f 1 13 22
f 1 22 33
f 1 33 38
f 1 38 25
f 1 25 15
f 1 15 7
f 1 7 3
f 1 3 9
f 1 9 19
f 1 19 28
f 1 28 31
f 1 31 30
f 1 30 20
f 1 20 10
f 1 10 4
f 1 4 5
f 1 5 2
f 2 5 12
f 2 12 11
f 2 11 21
f 2 21 32
f 2 32 29
f 2 29 40
f 2 40 43
f 2 43 42
f 2 42 41
f 2 41 36
f 2 36 24
f 2 24 14
f 2 14 6
f 3 7 8
f 3 8 9
f 4 10 21
f 4 21 11
f 4 11 12
f 4 12 5
f 6 14 13
f 7 15 16
f 7 16 8
f 8 16 17
f 8 17 18
f 8 18 9
f 9 18 17
f 9 17 16
f 9 16 27
f 9 27 40
f 9 40 29
f 9 29 19
f 10 20 21
f 13 14 23
f 13 23 22
f 14 24 23
f 15 25 16
f 16 26 27
f 16 25 26
f 19 29 28
f 20 30 21
f 21 30 31
f 21 31 32
f 22 23 33
f 23 34 33
f 23 24 35
f 23 35 26
f 23 26 34
f 24 36 37
f 24 37 35
f 25 38 26
f 26 35 37
f 26 37 39
f 26 39 27
f 26 38 34
f 27 39 40
f 28 29 31
f 29 32 31
f 33 34 38
f 36 41 37
f 37 41 42
f 37 42 43
f 37 43 44
f 37 44 40
f 37 40 39
f 40 44 43

