# https://github.com/mikedh/trimesh
v -0.07412592 0.14445431 -0.03181322
v -0.07412592 0.14197494 -0.04189481
v -0.07865777 0.14135659 -0.03969157
v -0.07865777 0.14229899 -0.03340120
v -0.07865777 0.14248627 -0.03181322
v -0.07412592 0.12841277 -0.03181322
v -0.07412592 0.13958477 -0.05141973
v -0.07574729 0.13911803 -0.05141973
v -0.07865777 0.13860967 -0.04882389
v -0.07865777 0.11589407 -0.03181322
v -0.07412592 0.11408361 -0.04569482
v -0.07412592 0.13723324 -0.05753432
v -0.07574729 0.13699243 -0.05726184
v -0.07865777 0.13619869 -0.05627448
v -0.07865777 0.13777133 -0.05141973
v -0.07865777 0.11408361 -0.03546088
v -0.07412592 0.11408361 -0.06152769
v -0.07412592 0.13154319 -0.06041435
v -0.07574729 0.13154319 -0.06002175
v -0.07865777 0.13145995 -0.05903732
v -0.07865777 0.11408361 -0.06174450
v -0.07412592 0.11558193 -0.06153062
v -0.07412592 0.12356404 -0.06130502
v -0.07865777 0.12368891 -0.06124349
v -0.07865777 0.11558193 -0.06171813
f 1 2 3
f 1 3 4
f 1 4 5
f 1 5 10
f 1 10 6
f 1 6 11
f 1 11 17
f 1 17 22
f 1 22 23
f 1 23 18
f 1 18 12
f 1 12 7
f 1 7 2
f 2 7 3
f 3 7 8
f 3 8 9
f 3 9 15
f 3 15 14
f 3 14 20
f 3 20 24
f 3 24 25
f 3 25 21
f 3 21 16
f 3 16 10
f 3 10 5
f 3 5 4
f 6 10 11
f 7 12 13
f 7 13 8
f 8 13 14
f 8 14 15
f 8 15 9
f 10 16 11
f 11 16 21
f 11 21 17
f 12 18 19
f 12 19 13
f 13 19 20
f 13 20 14
f 17 21 22
f 18 23 24
f 18 24 19
f 19 24 20
f 21 25 22
f 22 25 23
f 23 25 24

