# https://github.com/mikedh/trimesh
v 0.08107843 -0.03608411 -0.03495475
v 0.08107843 -0.03608411 -0.04969404
v 0.07940964 -0.03608411 -0.03495475
v 0.08107843 -0.08530229 -0.03495475
v 0.08107843 -0.03637317 -0.06209063
v 0.08106373 -0.03608411 -0.06208796
v 0.07857611 -0.03608411 -0.03765233
v 0.07939299 -0.06000425 -0.03495475
v 0.07942875 -0.08530229 -0.03495475
v 0.08107843 -0.08530229 -0.06214666
v 0.08107843 -0.04404304 -0.06218135
v 0.07857611 -0.03608411 -0.06188517
v 0.07857611 -0.06000425 -0.03764165
v 0.07939201 -0.06798246 -0.03495475
v 0.07942556 -0.08394368 -0.03495475
v 0.07857611 -0.08530229 -0.03774305
v 0.08107843 -0.08416048 -0.06215200
v 0.07857611 -0.08530229 -0.06190118
v 0.07857611 -0.04810440 -0.06198123
v 0.07857611 -0.04404304 -0.06196522
v 0.07857611 -0.04008766 -0.06193054
v 0.08107843 -0.05189116 -0.06221070
v 0.07857611 -0.06798246 -0.03764432
v 0.07857611 -0.07017453 -0.03765233
v 0.07857611 -0.07596548 -0.03768168
v 0.07940719 -0.07596548 -0.03495475
v 0.08107843 -0.07614373 -0.06217334
v 0.07857611 -0.07998348 -0.06191719
v 0.07857611 -0.06000425 -0.06197323
v 0.07857611 -0.05607779 -0.06198390
v 0.07857611 -0.05202606 -0.06198657
v 0.08107843 -0.05216577 -0.06221070
v 0.08107843 -0.06015361 -0.06220803
f 1 2 6
f 1 6 12
f 1 12 7
f 1 7 3
f 1 3 8
f 1 8 14
f 1 14 26
f 1 26 15
f 1 15 9
f 1 9 4
f 1 4 10
f 1 10 17
f 1 17 27
f 1 27 33
f 1 33 32
f 1 32 22
f 1 22 11
f 1 11 5
f 1 5 2
f 2 5 6
f 3 7 8
f 4 9 16
f 4 16 18
f 4 18 10
f 5 11 6
f 6 11 12
f 7 12 21
f 7 21 20
f 7 20 19
f 7 19 31
f 7 31 30
f 7 30 29
f 7 29 28
f 7 28 18
f 7 18 16
f 7 16 25
f 7 25 24
f 7 24 23
f 7 23 13
f 7 13 8
f 8 13 14
f 9 15 16
f 10 18 17
f 11 19 20
f 11 20 21
f 11 21 12
f 11 22 19
f 13 23 14
f 14 23 24
f 14 24 25
f 14 25 26
f 15 26 16
f 16 26 25
f 17 18 28
f 17 28 29
f 17 29 30
f 17 30 27
f 19 22 31
f 22 32 31
f 27 30 33
f 30 31 33
f 31 32 33

