# https://github.com/mikedh/trimesh
v -0.07865777 0.14728616 0.02807311
v -0.07865777 0.14689093 0.02805132
v -0.07412592 0.15539519 0.02208292
v -0.07412592 0.15668315 0.02161543
v -0.07865777 0.15254959 0.02582481
v -0.07865777 0.14037674 0.02756006
v -0.07412592 0.14873453 0.02055170
v -0.07412592 0.16155368 0.01878277
v -0.07865777 0.15486048 0.02439659
v -0.07865777 0.13949795 0.02297035
v -0.07610572 0.13949795 0.00783642
v -0.07412592 0.14295731 0.00783642
v -0.07412592 0.14794176 0.02022882
v -0.07412592 0.16321827 0.01242811
v -0.07574729 0.16324617 0.01242811
v -0.07574729 0.16156066 0.01880060
v -0.07865777 0.16036569 0.02051208
v -0.07865777 0.13949795 0.00783642
v -0.07412592 0.16269053 0.00783642
v -0.07412592 0.16303693 0.01080576
v -0.07481483 0.16270216 0.00783642
v -0.07574729 0.16271379 0.00783642
v -0.07865777 0.16313458 0.01242811
v -0.07865777 0.16245804 0.01500920
v -0.07865777 0.16138630 0.01905613
v -0.07865777 0.16259986 0.00783642
v -0.07838185 0.16261149 0.00783642
f 1 2 3
f 1 3 4
f 1 4 5
f 1 5 9
f 1 9 17
f 1 17 25
f 1 25 24
f 1 24 23
f 1 23 26
f 1 26 18
f 1 18 10
f 1 10 6
f 1 6 2
f 2 6 3
f 3 7 13
f 3 13 12
f 3 12 19
f 3 19 20
f 3 20 14
f 3 14 8
f 3 8 4
f 3 6 7
f 4 8 5
f 5 8 9
f 6 10 11
f 6 11 12
f 6 12 13
f 6 13 7
f 8 14 15
f 8 15 16
f 8 16 17
f 8 17 9
f 10 18 11
f 11 18 26
f 11 26 27
f 11 27 22
f 11 22 21
f 11 21 19
f 11 19 12
f 14 20 15
f 15 20 21
f 15 21 22
f 15 22 23
f 15 23 24
f 15 24 16
f 16 24 25
f 16 25 17
f 19 21 20
f 22 27 23
f 23 27 26

