# https://github.com/mikedh/trimesh
v 0.08387617 -0.16284726 0.01243001
v 0.07857611 -0.16282045 0.01243001
v 0.07857611 -0.16228864 0.00713318
v 0.07857611 -0.16196390 0.00444946
v 0.08387617 -0.16188048 0.00444946
v 0.08857884 -0.16027462 -0.00127111
v 0.08924587 -0.16077962 0.00444946
v 0.08981264 -0.16131440 0.01243001
v 0.08933639 -0.16098966 0.01826976
v 0.08387617 -0.16156019 0.01915698
v 0.07857611 -0.16238844 0.01468557
v 0.07857611 -0.16065597 -0.00195529
v 0.08387617 -0.16059341 -0.00202591
v 0.09164664 -0.15577736 0.00444946
v 0.08946450 -0.15429962 -0.01005501
v 0.09006052 -0.15631513 -0.00377386
v 0.09232064 -0.15577736 0.01243001
v 0.09074008 -0.15608870 0.02071954
v 0.09071223 -0.14763044 0.03139264
v 0.08949932 -0.15363822 0.02676675
v 0.08768342 -0.14763044 0.03453101
v 0.08387617 -0.15841405 0.02314725
v 0.07857611 -0.16151104 0.01906428
v 0.07857611 -0.15579523 -0.00572044
v 0.07857889 -0.15565372 -0.00585286
v 0.08536203 -0.15447838 -0.01005501
v 0.09045322 -0.15417449 -0.00572044
v 0.09132774 -0.14940611 -0.01005501
v 0.09178868 -0.14779729 -0.01005501
v 0.09253370 -0.14779729 -0.00353109
v 0.09118291 -0.14978895 -0.01005501
v 0.09280246 -0.14779729 0.01243001
v 0.09271751 -0.14779729 0.02040615
v 0.09107430 -0.14845273 0.02900907
v 0.09276347 -0.14779729 0.00444946
v 0.09124976 -0.14763044 0.02894728
v 0.08363944 -0.14763044 0.03503863
v 0.07857611 -0.16045189 0.02040615
v 0.07857889 -0.15006454 -0.01005501
v 0.07857611 -0.14763044 -0.00572044
v 0.09180957 -0.14763044 -0.01005501
v 0.09230532 -0.14763044 -0.00572044
v 0.09253509 -0.14763044 -0.00369882
v 0.09276347 -0.14763044 0.00428173
v 0.09280107 -0.14763044 0.01226228
v 0.09271751 -0.14763044 0.02023841
v 0.09271473 -0.14763044 0.02040615
v 0.07857611 -0.14763044 0.02897376
v 0.07857611 -0.15330453 0.02639156
v 0.07857889 -0.14763044 -0.01005501
f 1 2 3
f 1 3 4
f 1 4 5
f 1 5 6
f 1 6 7
f 1 7 8
f 1 8 9
f 1 9 10
f 1 10 2
f 2 10 11
f 2 11 23
f 2 23 38
f 2 38 49
f 2 49 48
f 2 48 40
f 2 40 24
f 2 24 12
f 2 12 4
f 2 4 3
f 4 12 13
f 4 13 5
f 5 13 6
f 6 14 7
f 6 13 15
f 6 15 16
f 6 16 14
f 7 14 8
f 8 17 9
f 8 14 17
f 9 17 18
f 9 18 19
f 9 19 20
f 9 20 21
f 9 21 22
f 9 22 10
f 10 22 23
f 10 23 11
f 12 24 25
f 12 25 26
f 12 26 13
f 13 26 15
f 14 16 27
f 14 27 28
f 14 28 29
f 14 29 30
f 14 30 17
f 15 26 39
f 15 39 50
f 15 50 41
f 15 41 29
f 15 29 28
f 15 28 31
f 15 31 16
f 16 31 27
f 17 32 33
f 17 33 34
f 17 34 18
f 17 30 35
f 17 35 32
f 18 34 19
f 19 21 20
f 19 34 36
f 19 36 47
f 19 47 46
f 19 46 45
f 19 45 44
f 19 44 43
f 19 43 42
f 19 42 41
f 19 41 50
f 19 50 40
f 19 40 48
f 19 48 37
f 19 37 21
f 21 37 22
f 22 37 38
f 22 38 23
f 24 39 25
f 24 40 50
f 24 50 39
f 25 39 26
f 27 31 28
f 29 41 42
f 29 42 30
f 30 42 43
f 30 43 35
f 32 35 44
f 32 44 45
f 32 45 46
f 32 46 33
f 33 46 47
f 33 47 36
f 33 36 34
f 35 43 44
f 37 48 49
f 37 49 38

