# https://github.com/mikedh/trimesh
v -0.06775595 0.13045616 -0.03906690
v -0.06775595 0.14428024 -0.03906690
v -0.05170550 0.13229632 -0.03906690
v -0.05170550 0.13762598 -0.01857505
v -0.06775595 0.13596012 -0.01857505
v -0.06303634 0.14444536 -0.03906690
v -0.06775595 0.14914207 -0.01857505
v -0.05170550 0.14427474 -0.03906690
v -0.05170550 0.14762848 -0.01857505
v -0.05978414 0.14452058 -0.03906690
v -0.05978414 0.14919711 -0.01857505
v -0.05470475 0.14438482 -0.03906690
v -0.05170550 0.14881367 -0.01858508
v -0.05180448 0.14881917 -0.01857505
f 1 2 6
f 1 6 10
f 1 10 12
f 1 12 8
f 1 8 3
f 1 3 4
f 1 4 5
f 1 5 7
f 1 7 2
f 2 7 6
f 3 8 13
f 3 13 9
f 3 9 4
f 4 9 14
f 4 14 11
f 4 11 7
f 4 7 5
f 6 7 10
f 7 11 10
f 8 12 11
f 8 11 13
f 9 13 14
f 10 11 12
f 11 14 13

