# https://github.com/mikedh/trimesh
v -0.07819224 -0.11661639 -0.03620196
v -0.07819224 -0.10781228 -0.03839873
v -0.07819224 -0.14089799 -0.03620196
v -0.07412592 -0.12737171 -0.03620196
v -0.07412592 -0.10781228 -0.04641244
v -0.07819224 -0.10781228 -0.06193600
v -0.07819224 -0.13751388 -0.05398779
v -0.07574791 -0.13939733 -0.05141817
v -0.07447419 -0.14231397 -0.03620196
v -0.07412592 -0.14241559 -0.03620196
v -0.07412592 -0.10781228 -0.06178988
v -0.07412592 -0.10951280 -0.06178988
v -0.07819224 -0.11590841 -0.06191585
v -0.07574791 -0.13736483 -0.05735098
v -0.07819224 -0.13664329 -0.05652719
v -0.07412592 -0.13824558 -0.05614679
v -0.07412592 -0.13986481 -0.05141817
v -0.07412592 -0.14241559 -0.03639594
v -0.07412592 -0.11749714 -0.06176973
v -0.07412592 -0.12385548 -0.06167651
v -0.07819224 -0.12019360 -0.06185287
v -0.07819224 -0.13532555 -0.05792285
v -0.07412592 -0.13759857 -0.05759535
v -0.07412592 -0.12547132 -0.06162109
v -0.07819224 -0.12385548 -0.06175965
v -0.07819224 -0.13151801 -0.05999366
v -0.07412592 -0.13318804 -0.05999115
v -0.07412592 -0.13182966 -0.06068646
v -0.07819224 -0.12869961 -0.06104671
v -0.07574791 -0.13182966 -0.06035644
f 1 2 6
f 1 6 13
f 1 13 21
f 1 21 25
f 1 25 29
f 1 29 26
f 1 26 22
f 1 22 15
f 1 15 7
f 1 7 3
f 1 3 9
f 1 9 10
f 1 10 4
f 1 4 2
f 2 5 11
f 2 11 6
f 2 4 5
f 3 7 8
f 3 8 9
f 4 10 18
f 4 18 17
f 4 17 16
f 4 16 23
f 4 23 27
f 4 27 28
f 4 28 24
f 4 24 20
f 4 20 19
f 4 19 12
f 4 12 11
f 4 11 5
f 6 11 12
f 6 12 13
f 7 14 8
f 7 15 14
f 8 14 16
f 8 16 17
f 8 17 18
f 8 18 9
f 9 18 10
f 12 19 13
f 13 19 20
f 13 20 21
f 14 15 22
f 14 22 23
f 14 23 16
f 20 24 25
f 20 25 21
f 22 26 23
f 23 26 27
f 24 28 25
f 25 28 29
f 26 29 28
f 26 28 30
f 26 30 27
f 27 30 28

