# https://github.com/mikedh/trimesh
v 0.07846041 0.14753732 0.02793558
v 0.07565779 0.14762480 0.02131157
v 0.07565779 0.14666985 0.02041056
v 0.07846041 0.13956247 0.02040700
v 0.07846041 0.15311388 0.02581661
v 0.07565779 0.15548665 0.02220189
v 0.07565779 0.13830865 0.00431706
v 0.07846041 0.13376722 0.01242613
v 0.07846041 0.16113611 0.01897180
v 0.07565779 0.16104499 0.01873675
v 0.07565779 0.13447066 -0.00353203
v 0.07846041 0.12563929 -0.00353203
v 0.07846041 0.16280908 0.01242613
v 0.07565779 0.16272526 0.01242613
v 0.07565779 0.13268835 -0.00844662
v 0.07846041 0.12557368 -0.00844662
v 0.07846041 0.16256124 0.00444883
v 0.07565779 0.16255029 0.00468388
v 0.07565779 0.16272161 0.01219465
v 0.07565779 0.15088326 -0.00844662
v 0.07846041 0.15014700 -0.00844662
v 0.07589454 0.16253937 0.00444883
v 0.07846041 0.16202908 0.00231918
v 0.07565779 0.16253572 0.00444883
v 0.07846041 0.15555226 -0.00577565
v 0.07565779 0.15532264 -0.00568306
v 0.07846041 0.16089190 -0.00194370
v 0.07565779 0.16248834 0.00426720
v 0.07565779 0.16069144 -0.00195438
v 0.07565779 0.16085546 -0.00184042
v 0.07846041 0.15925174 -0.00319015
v 0.07565779 0.16091013 -0.00164811
f 1 2 3
f 1 3 4
f 1 4 8
f 1 8 12
f 1 12 16
f 1 16 21
f 1 21 25
f 1 25 31
f 1 31 27
f 1 27 23
f 1 23 17
f 1 17 13
f 1 13 9
f 1 9 5
f 1 5 6
f 1 6 2
f 2 6 10
f 2 10 14
f 2 14 19
f 2 19 18
f 2 18 24
f 2 24 28
f 2 28 32
f 2 32 30
f 2 30 29
f 2 29 26
f 2 26 20
f 2 20 15
f 2 15 11
f 2 11 7
f 2 7 3
f 3 7 8
f 3 8 4
f 5 9 10
f 5 10 6
f 7 11 12
f 7 12 8
f 9 13 14
f 9 14 10
f 11 15 12
f 12 15 16
f 13 17 18
f 13 18 19
f 13 19 14
f 15 20 21
f 15 21 16
f 17 22 18
f 17 23 22
f 18 22 24
f 20 25 21
f 20 26 25
f 22 23 24
f 23 27 28
f 23 28 24
f 25 26 29
f 25 29 30
f 25 30 31
f 27 32 28
f 27 31 30
f 27 30 32

