# https://github.com/mikedh/trimesh
v 0.07945998 -0.10030430 -0.03495475
v 0.07940918 -0.07545876 -0.03495475
v 0.09594218 -0.10030430 -0.03495475
v 0.07934034 -0.10030430 -0.01190730
v 0.07939443 -0.06797750 -0.03495475
v 0.09593726 -0.10030430 -0.02747098
v 0.09582582 -0.02010563 -0.03495475
v 0.09586515 0.00410625 0.05680923
v 0.09586515 0.00410625 0.07304358
v 0.07933871 -0.10030430 -0.01151341
v 0.07933379 -0.00414153 -0.03495475
v 0.09586515 0.00254255 0.07305422
v 0.09586515 -0.01212358 0.07309680
v 0.09586515 -0.02954918 0.07313938
v 0.09586515 -0.03606973 0.07315003
v 0.09586515 -0.04405178 0.07316067
v 0.09586515 -0.07738017 0.07308615
v 0.09586515 -0.10030430 0.07301164
v 0.09578649 0.00410625 -0.03495475
v 0.09201051 0.00410625 0.07363972
v 0.07931904 -0.10030430 -0.00352931
v 0.07933379 -0.00364073 -0.03495475
v 0.07920268 -0.10030430 0.05991771
v 0.09185482 -0.03606973 0.07379940
v 0.09185482 -0.09192365 0.07365037
v 0.09185482 -0.10030430 0.07359713
v 0.07935837 0.00410625 -0.03495475
v 0.09185482 0.00410625 0.07366101
v 0.07930265 -0.01212358 -0.00352931
v 0.07931412 -0.00414153 -0.00352931
v 0.07934362 0.00410625 -0.01151341
v 0.07920268 -0.10030430 0.06031159
v 0.07920268 -0.09990571 0.06031159
v 0.08576802 0.00410625 0.07303293
v 0.08556316 0.00410625 0.07301164
v 0.08544353 -0.03606973 0.07306486
v 0.08529111 -0.09192365 0.07304358
v 0.08540420 -0.10030430 0.07297970
v 0.07926496 -0.01212358 0.06031159
v 0.07930593 0.00410625 0.06031159
v 0.07953701 -0.10030430 0.06609208
v 0.07953701 -0.09990571 0.06609208
v 0.07955012 -0.07595955 0.06612401
v 0.07955504 -0.06797750 0.06613466
v 0.07957142 -0.01212358 0.06573013
v 0.08157086 0.00410625 0.06970090
v 0.08140041 -0.07595955 0.07011607
v 0.08132338 -0.08393138 0.07010542
v 0.08130208 -0.09192365 0.07009478
v 0.08141352 -0.10030430 0.07008413
v 0.07959273 0.00410625 0.06570884
f 1 2 5
f 1 5 11
f 1 11 22
f 1 22 27
f 1 27 19
f 1 19 7
f 1 7 3
f 1 3 6
f 1 6 18
f 1 18 26
f 1 26 38
f 1 38 50
f 1 50 41
f 1 41 32
f 1 32 23
f 1 23 21
f 1 21 10
f 1 10 4
f 1 4 2
f 2 4 5
f 3 7 8
f 3 8 9
f 3 9 6
f 4 10 5
f 5 10 11
f 6 9 12
f 6 12 13
f 6 13 14
f 6 14 15
f 6 15 16
f 6 16 17
f 6 17 18
f 7 19 8
f 8 19 27
f 8 27 31
f 8 31 40
f 8 40 51
f 8 51 46
f 8 46 35
f 8 35 34
f 8 34 28
f 8 28 20
f 8 20 9
f 9 20 12
f 10 21 11
f 11 21 23
f 11 23 22
f 12 20 24
f 12 24 13
f 13 24 14
f 14 24 15
f 15 24 16
f 16 24 17
f 17 24 25
f 17 25 18
f 18 25 26
f 20 28 24
f 22 29 30
f 22 30 31
f 22 31 27
f 22 23 29
f 23 32 33
f 23 33 29
f 24 28 34
f 24 34 35
f 24 35 36
f 24 36 37
f 24 37 25
f 25 37 26
f 26 37 38
f 29 33 39
f 29 39 30
f 30 39 40
f 30 40 31
f 32 41 42
f 32 42 33
f 33 42 43
f 33 43 44
f 33 44 45
f 33 45 39
f 35 46 47
f 35 47 48
f 35 48 36
f 36 48 37
f 37 48 49
f 37 49 50
f 37 50 38
f 39 45 51
f 39 51 40
f 41 50 49
f 41 49 43
f 41 43 42
f 43 49 44
f 44 49 48
f 44 48 51
f 44 51 45
f 46 51 48
f 46 48 47

