# https://github.com/mikedh/trimesh
v -0.09170890 -0.06796730 0.07370510
v -0.09170890 -0.05999123 0.07369252
v -0.09664110 -0.03607482 0.07298366
v -0.09665051 -0.05999123 0.07301721
v -0.09170890 -0.07595517 0.07370091
v -0.08489983 -0.10781227 0.07302770
v -0.08518786 -0.03607482 0.07294381
v -0.09170890 -0.04405089 0.07366106
v -0.09170890 -0.03607482 0.07364219
v -0.09659403 -0.02808695 0.07293123
v -0.09831654 -0.05202696 0.06829216
v -0.09837866 -0.05999123 0.06829216
v -0.09664863 -0.05202696 0.07300463
v -0.09836548 -0.06796730 0.06829216
v -0.09655262 -0.10781227 0.07290396
v -0.09662604 -0.06796730 0.07301512
v -0.09170890 -0.10781227 0.07364848
v -0.08486030 -0.10781227 0.07300044
v -0.08500713 -0.07595517 0.07298576
v -0.08539682 -0.00414694 0.07281169
v -0.08091078 -0.10781227 0.07024258
v -0.08151507 0.01272552 0.06991541
v -0.08541753 0.00384093 0.07277393
v -0.08550600 0.01272552 0.07270263
v -0.09170890 -0.02808695 0.07351426
v -0.09804922 -0.02808695 0.06829216
v -0.09816593 -0.03607482 0.06829216
v -0.09824689 -0.04405089 0.06829216
v -0.09170890 -0.00414694 0.07295639
v -0.09034596 0.01272552 0.07271731
v -0.09590315 -0.00414694 0.07242789
v -0.09639637 -0.02011088 0.07275925
v -0.09739975 -0.02011088 0.06031640
v -0.09762942 -0.05202696 0.06031640
v -0.09768401 -0.05999123 0.06031640
v -0.09769342 -0.06796730 0.06031640
v -0.09740728 -0.10781227 0.06039400
v -0.09826195 -0.07595517 0.06829216
v -0.09778002 -0.10781227 0.06829216
v -0.09658650 -0.07595517 0.07299834
v -0.08089572 -0.10781227 0.07020483
v -0.07951019 0.01272552 0.06592439
v -0.08101809 -0.07595517 0.07006222
v -0.08142659 0.00384093 0.06988815
v -0.08505420 0.01272552 0.07239014
v -0.09779508 -0.02011088 0.06829216
v -0.09726232 -0.01213481 0.06031640
v -0.09387944 0.01272552 0.07090111
v -0.09575631 0.00052544 0.07232722
v -0.09628342 -0.00414694 0.05228821
v -0.09614411 0.01272552 0.05228191
v -0.09657897 -0.10781227 0.05228821
v -0.09739975 -0.10781227 0.06031640
v -0.07944618 -0.10781227 0.06625155
v -0.07950077 0.00384093 0.06589922
v -0.07914686 -0.10781227 0.06031640
v -0.07929558 0.01272552 0.06031640
v -0.07944053 -0.10781227 0.06619283
v -0.09738657 -0.01213481 0.06829216
v -0.09632483 0.01272552 0.06123498
v -0.09633989 0.01272552 0.06031640
v -0.09617988 0.01272552 0.05323406
v -0.09420324 0.01272552 0.07072075
v -0.09613094 0.01272552 0.06685556
v -0.09622318 0.00270824 0.05228191
v -0.09423524 0.01272552 0.05228191
v -0.07915063 -0.10781227 0.05228821
v -0.07915063 -0.10775327 0.05228821
v -0.07930876 0.01272552 0.05228821
v -0.08006930 0.00270824 0.05228191
v -0.07930876 0.01187600 0.05228191
v -0.07930876 0.00272004 0.05228191
f 1 2 3
f 1 3 4
f 1 4 5
f 1 5 6
f 1 6 2
f 2 6 7
f 2 7 8
f 2 8 3
f 3 9 10
f 3 10 11
f 3 11 12
f 3 12 13
f 3 13 4
f 3 8 9
f 4 12 14
f 4 14 15
f 4 15 16
f 4 16 5
f 4 13 12
f 5 16 17
f 5 17 6
f 6 18 19
f 6 19 7
f 6 17 15
f 6 15 39
f 6 39 37
f 6 37 53
f 6 53 52
f 6 52 67
f 6 67 56
f 6 56 58
f 6 58 54
f 6 54 41
f 6 41 21
f 6 21 18
f 7 20 9
f 7 9 8
f 7 19 21
f 7 21 22
f 7 22 23
f 7 23 20
f 9 20 23
f 9 23 24
f 9 24 25
f 9 25 10
f 10 26 27
f 10 27 28
f 10 28 11
f 10 25 29
f 10 29 30
f 10 30 31
f 10 31 32
f 10 32 26
f 11 28 33
f 11 33 12
f 12 33 34
f 12 34 35
f 12 35 36
f 12 36 14
f 14 36 37
f 14 37 38
f 14 38 15
f 15 17 40
f 15 40 16
f 15 38 39
f 16 40 17
f 18 21 19
f 21 41 42
f 21 42 43
f 21 43 44
f 21 44 22
f 22 44 42
f 22 42 57
f 22 57 69
f 22 69 66
f 22 66 51
f 22 51 62
f 22 62 61
f 22 61 60
f 22 60 64
f 22 64 63
f 22 63 48
f 22 48 30
f 22 30 24
f 22 24 45
f 22 45 23
f 23 45 24
f 24 30 25
f 25 30 29
f 26 32 46
f 26 46 47
f 26 47 33
f 26 33 27
f 27 33 28
f 30 48 49
f 30 49 31
f 31 49 46
f 31 46 32
f 33 50 34
f 33 47 51
f 33 51 50
f 34 50 35
f 35 52 36
f 35 50 52
f 36 52 53
f 36 53 37
f 37 39 38
f 41 54 42
f 42 55 56
f 42 56 57
f 42 44 43
f 42 54 58
f 42 58 55
f 46 49 59
f 46 59 60
f 46 60 61
f 46 61 62
f 46 62 47
f 47 62 51
f 48 63 49
f 49 63 64
f 49 64 59
f 50 51 65
f 50 65 52
f 51 66 71
f 51 71 72
f 51 72 70
f 51 70 65
f 52 65 70
f 52 70 67
f 55 58 56
f 56 67 68
f 56 68 57
f 57 68 69
f 59 64 60
f 66 69 71
f 67 70 72
f 67 72 71
f 67 71 68
f 68 71 69

