# https://github.com/mikedh/trimesh
v -0.07412529 0.13336647 -0.01136690
v -0.06775720 0.13770325 -0.01136690
v -0.07412529 0.13445358 -0.00751308
v -0.07412529 0.15058503 -0.01136690
v -0.06775595 0.14796074 -0.01136690
v -0.06775595 0.14400386 -0.00728388
v -0.06775595 0.14037429 -0.00353482
v -0.06775595 0.14981645 0.01860258
v -0.07412529 0.14794321 0.02022990
v -0.06776717 0.15297260 -0.01136690
v -0.07412529 0.16010901 -0.00204830
v -0.06775595 0.15405095 -0.01011613
v -0.06775595 0.15548583 0.02089785
v -0.07412529 0.14873226 0.02054750
v -0.06776717 0.15804582 -0.00596762
v -0.06775595 0.15804290 -0.00597089
v -0.07412529 0.16063211 -0.00123301
v -0.06775595 0.16062627 -0.00198282
v -0.07412529 0.15539524 0.02208314
v -0.06775595 0.16153219 0.01870736
v -0.06776717 0.16152928 0.01871063
v -0.07412529 0.16197639 0.00314471
v -0.06776717 0.16062920 -0.00197627
v -0.06775595 0.16220434 0.00443805
v -0.07412529 0.15668400 0.02161492
v -0.06775595 0.16310735 0.01241419
v -0.06776717 0.16310735 0.01242402
v -0.07412529 0.16321547 0.01242402
v -0.07412529 0.16155558 0.01878267
v -0.07412529 0.16229786 0.00444787
v -0.06776717 0.16220727 0.00444787
v -0.07412529 0.16303430 0.01080325
f 1 2 3
f 1 3 9
f 1 9 14
f 1 14 19
f 1 19 25
f 1 25 29
f 1 29 28
f 1 28 32
f 1 32 30
f 1 30 22
f 1 22 17
f 1 17 11
f 1 11 4
f 1 4 10
f 1 10 5
f 1 5 2
f 2 5 6
f 2 6 7
f 2 7 3
f 3 7 8
f 3 8 9
f 4 11 10
f 5 10 12
f 5 12 16
f 5 16 18
f 5 18 24
f 5 24 26
f 5 26 20
f 5 20 13
f 5 13 8
f 5 8 7
f 5 7 6
f 8 13 9
f 9 13 14
f 10 11 15
f 10 15 16
f 10 16 12
f 11 17 18
f 11 18 15
f 13 19 14
f 13 20 21
f 13 21 19
f 15 18 16
f 17 22 23
f 17 23 18
f 18 23 24
f 19 21 25
f 20 26 27
f 20 27 28
f 20 28 29
f 20 29 21
f 21 29 25
f 22 30 23
f 23 30 31
f 23 31 24
f 24 31 26
f 26 28 27
f 26 31 32
f 26 32 28
f 30 32 31

