# https://github.com/mikedh/trimesh
v -0.06777484 -0.15014332 -0.01257540
v -0.06777546 -0.14467715 -0.03420255
v -0.06777484 -0.14758900 -0.01950966
v -0.06777484 -0.15014332 0.01876081
v -0.07412592 -0.15014332 -0.01182648
v -0.07055499 -0.14420980 -0.03420255
v -0.06777546 -0.13245258 -0.03420255
v -0.06777484 -0.14758900 0.01249464
v -0.06777484 -0.15005502 0.01872309
v -0.07412592 -0.14815974 0.02036641
v -0.07412592 -0.15014332 0.02084055
v -0.07412592 -0.14758900 -0.01676721
v -0.07412529 -0.14299940 -0.03420255
v -0.07344455 -0.14332892 -0.03420255
v -0.07232740 -0.14409349 -0.03326505
v -0.07182757 -0.14412795 -0.03352906
v -0.07182757 -0.14382428 -0.03420255
v -0.07412529 -0.12814297 -0.03420255
v -0.06777546 -0.13246981 -0.03410018
v -0.06777546 -0.13772276 -0.01200428
v -0.06777546 -0.14064968 -0.00354523
v -0.06777546 -0.13398604 -0.02654091
v -0.07412529 -0.13276272 -0.01276936
v -0.07412529 -0.14044292 0.00399788
v -0.07412592 -0.14787545 0.01964982
v -0.07412592 -0.14758900 0.01869615
f 1 2 3
f 1 3 8
f 1 8 9
f 1 9 4
f 1 4 11
f 1 11 5
f 1 5 2
f 2 6 17
f 2 17 14
f 2 14 13
f 2 13 18
f 2 18 7
f 2 7 3
f 2 5 6
f 3 7 8
f 4 9 10
f 4 10 11
f 5 11 10
f 5 10 25
f 5 25 26
f 5 26 12
f 5 12 13
f 5 13 14
f 5 14 15
f 5 15 16
f 5 16 6
f 6 16 17
f 7 18 19
f 7 19 8
f 8 20 21
f 8 21 9
f 8 19 22
f 8 22 20
f 9 21 23
f 9 23 24
f 9 24 10
f 10 24 23
f 10 23 25
f 12 18 13
f 12 26 18
f 14 17 16
f 14 16 15
f 18 26 23
f 18 23 22
f 18 22 19
f 20 22 23
f 20 23 21
f 23 26 25

