# https://github.com/mikedh/trimesh
v 0.07857611 -0.13366383 -0.05786515
v 0.07857611 -0.13163148 -0.05916263
v 0.08307617 -0.13129108 -0.05752976
v 0.08164677 -0.13366383 -0.05659416
v 0.07857611 -0.13366383 0.01962152
v 0.07857611 -0.12405684 -0.06157223
v 0.08307617 -0.11587450 -0.06511161
v 0.08307617 -0.11831533 -0.06419366
v 0.08307617 -0.12439976 -0.06159871
v 0.08307617 -0.13148020 -0.05740619
v 0.08307617 -0.13366383 -0.05320484
v 0.07866773 -0.13366383 0.02504092
v 0.07857611 -0.13297546 0.01925965
v 0.07857611 -0.11587450 -0.06188115
v 0.08307617 -0.11234184 -0.06505864
v 0.07857611 -0.11200900 -0.06187233
v 0.07857611 -0.10790396 -0.06185467
v 0.08307617 -0.13366383 0.02504092
v 0.07924742 -0.10790396 0.02504092
v 0.07857611 -0.10790396 -0.03786461
v 0.08307617 -0.10790396 -0.06490860
v 0.08307617 -0.10790396 0.02504092
f 1 2 3
f 1 3 4
f 1 4 11
f 1 11 18
f 1 18 12
f 1 12 5
f 1 5 13
f 1 13 20
f 1 20 17
f 1 17 16
f 1 16 14
f 1 14 6
f 1 6 2
f 2 6 7
f 2 7 8
f 2 8 9
f 2 9 3
f 3 10 4
f 3 9 8
f 3 8 7
f 3 7 15
f 3 15 21
f 3 21 22
f 3 22 18
f 3 18 11
f 3 11 10
f 4 10 11
f 5 12 13
f 6 14 7
f 7 14 16
f 7 16 17
f 7 17 15
f 12 18 22
f 12 22 19
f 12 19 13
f 13 19 20
f 15 17 21
f 17 20 19
f 17 19 22
f 17 22 21

