# https://github.com/mikedh/trimesh
v 0.07857544 -0.12421239 -0.00878839
v 0.07857611 -0.12622943 -0.02120685
v 0.07857544 -0.12027124 -0.01590939
v 0.07184097 -0.13495845 -0.01203727
v 0.07184097 -0.13668637 -0.01037244
v 0.07648996 -0.12920680 -0.00878839
v 0.07857544 -0.15036507 -0.00878839
v 0.07857611 -0.12622943 -0.03826491
v 0.07857544 -0.11870167 -0.02120396
v 0.07857611 -0.14479584 -0.02120685
v 0.07857479 -0.11826797 -0.02189644
v 0.07184031 -0.13159558 -0.02733817
v 0.07184031 -0.13315483 -0.02120685
v 0.07786798 -0.11587574 -0.03826491
v 0.07588667 -0.13224268 -0.00878839
v 0.07184097 -0.15059568 -0.01037244
v 0.07588667 -0.15102594 -0.00878839
v 0.07857544 -0.14979025 -0.01115725
v 0.07857611 -0.14234509 -0.03252599
v 0.07857479 -0.11587574 -0.03826491
v 0.07857611 -0.14079961 -0.03826491
v 0.07857479 -0.11586198 -0.03624518
v 0.07184031 -0.12964394 -0.03826491
v 0.07184031 -0.14640327 -0.02120685
v 0.07184031 -0.14392155 -0.03438126
v 0.07184031 -0.14311956 -0.03742240
v 0.07184031 -0.14282698 -0.03826491
f 1 2 3
f 1 3 4
f 1 4 5
f 1 5 6
f 1 6 15
f 1 15 17
f 1 17 7
f 1 7 10
f 1 10 2
f 2 8 9
f 2 9 3
f 2 10 19
f 2 19 21
f 2 21 8
f 3 9 11
f 3 11 4
f 4 12 13
f 4 13 5
f 4 11 14
f 4 14 12
f 5 15 6
f 5 13 24
f 5 24 16
f 5 16 17
f 5 17 15
f 7 17 18
f 7 18 19
f 7 19 10
f 8 20 9
f 8 21 27
f 8 27 23
f 8 23 14
f 8 14 20
f 9 20 22
f 9 22 11
f 11 22 14
f 12 23 27
f 12 27 26
f 12 26 25
f 12 25 24
f 12 24 13
f 12 14 23
f 14 22 20
f 16 24 25
f 16 25 26
f 16 26 17
f 17 26 18
f 18 26 21
f 18 21 19
f 21 26 27

