# https://github.com/mikedh/trimesh
v 0.07933376 0.11088159 -0.03544540
v 0.07846042 0.11786165 -0.03544540
v 0.09634252 0.11088159 -0.03544540
v 0.07930439 0.11088159 0.01569100
v 0.07846042 0.11978598 -0.02746563
v 0.07846042 0.13822373 -0.03544540
v 0.07930243 0.11088159 0.02039568
v 0.07929264 0.11088426 0.05232344
v 0.07929264 0.11088426 0.05306857
v 0.09634252 0.11088159 -0.02746563
v 0.09760163 0.11558135 -0.03544540
v 0.09764275 0.11558670 -0.01948585
v 0.09642084 0.11088426 0.03716101
v 0.07846042 0.12563392 -0.00353497
v 0.08666519 0.13822373 -0.03544540
v 0.07846042 0.13822373 0.01849821
v 0.07930635 0.11088159 0.02523034
v 0.09580401 0.11088426 0.05306857
v 0.07910466 0.12357042 0.05306857
v 0.07907529 0.12356507 0.05232344
v 0.07846042 0.13376216 0.01241591
v 0.09624461 0.11088159 0.02039568
v 0.09761534 0.12356239 -0.03544540
v 0.09825957 0.12356239 0.00444480
v 0.09846323 0.12356507 0.04434367
v 0.09766233 0.11558670 0.00444480
v 0.09763688 0.11556529 0.05306857
v 0.09621719 0.11088159 0.02523034
v 0.09766821 0.11558670 0.01241591
v 0.09766625 0.11558670 0.02039568
v 0.08969450 0.13822373 -0.03251689
v 0.08912467 0.13714246 -0.03544540
v 0.07900087 0.13154075 0.04434367
v 0.07908704 0.13822373 0.03636390
v 0.07940230 0.13071642 0.05306857
v 0.07935922 0.13123028 0.05202019
v 0.09591563 0.12766264 -0.03544540
v 0.09294899 0.13822373 -0.01948585
v 0.09319964 0.13822373 -0.01150608
v 0.09673219 0.13036848 0.04434367
v 0.09836728 0.12356507 0.05232344
v 0.09832224 0.12267115 0.05306857
v 0.09139811 0.13822373 -0.02775155
v 0.09311348 0.13165583 -0.03544540
v 0.09257693 0.13239988 -0.03544540
v 0.07941992 0.13822373 0.04371984
v 0.08387674 0.13448746 0.05306857
v 0.07958833 0.13606654 0.04915233
v 0.07950413 0.13822373 0.04516677
v 0.09372052 0.13822373 0.02994369
v 0.09531839 0.13435900 0.04434367
v 0.09660687 0.12952541 0.05232344
v 0.09669302 0.12901155 0.05306857
v 0.09828894 0.12360521 0.05306857
v 0.08548636 0.13441520 0.05306857
v 0.09013704 0.13670889 0.04994077
v 0.08387674 0.13681594 0.05014872
v 0.08387674 0.13822373 0.04833789
v 0.08153672 0.13822373 0.04726352
v 0.09374793 0.13822373 0.03838267
v 0.09213635 0.13822373 0.04404908
v 0.09655595 0.12933004 0.05306857
v 0.09237329 0.13318942 0.05306857
v 0.09242028 0.13350255 0.05248806
v 0.09140007 0.13822373 0.04570396
v 0.09069317 0.13822373 0.04661370
f 1 2 6
f 1 6 15
f 1 15 32
f 1 32 45
f 1 45 44
f 1 44 37
f 1 37 23
f 1 23 11
f 1 11 3
f 1 3 10
f 1 10 22
f 1 22 28
f 1 28 17
f 1 17 7
f 1 7 4
f 1 4 2
f 2 5 14
f 2 14 21
f 2 21 16
f 2 16 6
f 2 4 7
f 2 7 8
f 2 8 9
f 2 9 5
f 3 11 12
f 3 12 13
f 3 13 10
f 5 9 14
f 6 16 34
f 6 34 46
f 6 46 49
f 6 49 59
f 6 59 58
f 6 58 66
f 6 66 65
f 6 65 61
f 6 61 60
f 6 60 50
f 6 50 39
f 6 39 38
f 6 38 43
f 6 43 31
f 6 31 15
f 7 17 9
f 7 9 8
f 9 17 28
f 9 28 18
f 9 18 27
f 9 27 42
f 9 42 54
f 9 54 53
f 9 53 62
f 9 62 63
f 9 63 55
f 9 55 47
f 9 47 35
f 9 35 19
f 9 19 20
f 9 20 21
f 9 21 14
f 10 13 22
f 11 23 24
f 11 24 25
f 11 25 12
f 12 26 13
f 12 25 26
f 13 27 18
f 13 18 28
f 13 28 22
f 13 26 29
f 13 29 30
f 13 30 27
f 15 31 32
f 16 21 20
f 16 20 33
f 16 33 34
f 19 35 36
f 19 36 33
f 19 33 20
f 23 37 38
f 23 38 39
f 23 39 40
f 23 40 24
f 24 40 25
f 25 40 41
f 25 41 42
f 25 42 27
f 25 27 30
f 25 30 29
f 25 29 26
f 31 43 37
f 31 37 44
f 31 44 45
f 31 45 32
f 33 36 46
f 33 46 34
f 35 47 48
f 35 48 36
f 36 48 49
f 36 49 46
f 37 43 38
f 39 50 51
f 39 51 40
f 40 51 52
f 40 52 41
f 41 52 53
f 41 53 54
f 41 54 42
f 47 55 56
f 47 56 57
f 47 57 48
f 48 57 58
f 48 58 59
f 48 59 49
f 50 60 51
f 51 60 61
f 51 61 62
f 51 62 52
f 52 62 53
f 55 63 56
f 56 63 64
f 56 64 65
f 56 65 66
f 56 66 58
f 56 58 57
f 61 65 62
f 62 64 63
f 62 65 64

