# https://github.com/mikedh/trimesh
v 0.07565741 0.13268735 -0.00844662
v 0.07184068 0.13718469 -0.00844662
v 0.07565741 0.15088327 -0.00844662
v 0.07565741 0.13447271 -0.00353247
v 0.07184068 0.14017701 0.00076966
v 0.07184068 0.13862478 -0.00353247
v 0.07184068 0.13754176 -0.00700658
v 0.07184068 0.15276012 -0.00844662
v 0.07298514 0.15232927 -0.00844662
v 0.07565741 0.15532160 -0.00568054
v 0.07565741 0.13831197 0.00431576
v 0.07184068 0.14868182 0.01948122
v 0.07184068 0.14116265 0.00307373
v 0.07184068 0.15649314 -0.00588455
v 0.07565741 0.16085474 -0.00184042
v 0.07565741 0.14667218 0.02040825
v 0.07565741 0.14763127 0.02131428
v 0.07184068 0.15548390 0.02149428
v 0.07184068 0.16078097 -0.00197243
v 0.07565741 0.16090785 -0.00164842
v 0.07565741 0.15548685 0.02220231
v 0.07184068 0.16110852 0.01875220
v 0.07184068 0.16168101 0.00135767
v 0.07184068 0.16250731 0.00444777
v 0.07565741 0.16248664 0.00426776
v 0.07565741 0.16104360 0.01873420
v 0.07184068 0.16283486 0.01242501
v 0.07565741 0.16254862 0.00468177
v 0.07565741 0.16253387 0.00444777
v 0.07184068 0.16261354 0.00626582
v 0.07407617 0.16263124 0.00626582
v 0.07565741 0.16272568 0.01242501
v 0.07184068 0.16274338 0.00850089
f 1 2 8
f 1 8 9
f 1 9 3
f 1 3 10
f 1 10 15
f 1 15 20
f 1 20 25
f 1 25 29
f 1 29 28
f 1 28 32
f 1 32 26
f 1 26 21
f 1 21 17
f 1 17 16
f 1 16 11
f 1 11 4
f 1 4 5
f 1 5 6
f 1 6 7
f 1 7 2
f 2 7 6
f 2 6 5
f 2 5 13
f 2 13 12
f 2 12 18
f 2 18 22
f 2 22 27
f 2 27 33
f 2 33 30
f 2 30 24
f 2 24 23
f 2 23 19
f 2 19 14
f 2 14 8
f 3 9 10
f 4 11 12
f 4 12 13
f 4 13 5
f 8 14 9
f 9 14 10
f 10 14 15
f 11 16 12
f 12 16 17
f 12 17 18
f 14 19 15
f 15 19 20
f 17 21 18
f 18 21 22
f 19 23 20
f 20 23 24
f 20 24 25
f 21 26 22
f 22 26 27
f 24 28 29
f 24 29 25
f 24 30 31
f 24 31 28
f 26 32 27
f 27 32 31
f 27 31 33
f 28 31 32
f 30 33 31

