# https://github.com/mikedh/trimesh
v -0.07865927 0.14728399 0.02807043
v -0.07865927 0.14689033 0.02804766
v -0.07865927 0.15049458 0.02668099
v -0.07917864 0.14192041 0.03296768
v -0.07865927 0.14192041 0.02767562
v -0.07890995 0.15049458 0.02696951
v -0.08430473 0.14192041 0.04113735
v -0.08132965 0.14192041 0.03661214
v -0.07955990 0.14192041 0.03375732
v -0.07865927 0.15049458 -0.00907270
v -0.07865927 0.14192041 -0.03525209
v -0.08060914 0.15049458 0.02890562
v -0.08571872 0.14192041 0.04231421
v -0.07865927 0.15000858 -0.01150994
v -0.08582230 0.15049458 -0.01743978
v -0.08511380 0.14192041 -0.03411319
v -0.08785773 0.14361761 -0.03169114
v -0.08658933 0.15049458 -0.01743978
v -0.07865927 0.14616092 -0.02431110
v -0.08664187 0.15049458 0.03318028
v -0.08715974 0.14389712 0.04085642
v -0.08860975 0.14389712 0.04085642
v -0.08935278 0.14192041 0.04217754
v -0.08843263 0.14192041 -0.03294393
v -0.08885893 0.14459633 -0.02747723
v -0.08888145 0.15049458 -0.01717404
v -0.08793578 0.15049458 0.03335491
v -0.08856622 0.15049458 0.03335491
v -0.08994419 0.14693565 0.03568584
v -0.09327353 0.14750475 0.02838174
v -0.09209520 0.14192041 0.03614899
v -0.08907659 0.14192041 -0.03125077
v -0.08961997 0.15049458 -0.01528347
v -0.09163137 0.15049458 0.02838174
v -0.09371934 0.14192041 0.02838174
v -0.09301985 0.15049458 0.02063725
v -0.09399103 0.14750475 0.02040188
v -0.09089736 0.14192041 -0.02497167
v -0.09123810 0.15049458 -0.00879177
v -0.09271213 0.14192041 -0.00911826
v -0.09290727 0.15049458 0.01242203
v -0.09241943 0.15049458 -0.00053859
v -0.09233387 0.14192041 -0.01709811
v -0.09176497 0.14750475 -0.01150994
f 1 2 5
f 1 5 11
f 1 11 19
f 1 19 14
f 1 14 10
f 1 10 3
f 1 3 4
f 1 4 2
f 2 4 5
f 3 6 7
f 3 7 8
f 3 8 9
f 3 9 4
f 3 10 15
f 3 15 18
f 3 18 26
f 3 26 33
f 3 33 39
f 3 39 42
f 3 42 41
f 3 41 36
f 3 36 34
f 3 34 28
f 3 28 27
f 3 27 20
f 3 20 12
f 3 12 6
f 4 9 8
f 4 8 7
f 4 7 13
f 4 13 23
f 4 23 31
f 4 31 35
f 4 35 40
f 4 40 43
f 4 43 38
f 4 38 32
f 4 32 24
f 4 24 16
f 4 16 11
f 4 11 5
f 6 12 7
f 7 12 13
f 10 14 15
f 11 16 17
f 11 17 18
f 11 18 15
f 11 15 19
f 12 20 13
f 13 20 21
f 13 21 22
f 13 22 23
f 14 19 15
f 16 24 17
f 17 24 25
f 17 25 26
f 17 26 18
f 20 27 21
f 21 27 28
f 21 28 22
f 22 28 29
f 22 29 23
f 23 29 30
f 23 30 31
f 24 32 25
f 25 32 33
f 25 33 26
f 28 34 29
f 29 34 30
f 30 35 31
f 30 34 36
f 30 36 37
f 30 37 35
f 32 38 33
f 33 38 39
f 35 37 40
f 36 41 37
f 37 41 42
f 37 42 43
f 37 43 40
f 38 43 44
f 38 44 39
f 39 44 42
f 42 44 43

