# https://github.com/mikedh/trimesh
v -0.06294201 -0.12818753 -0.04796067
v -0.06294201 -0.14243539 -0.04796067
v -0.06294201 -0.13337799 -0.03420255
v -0.01347512 -0.12852175 -0.04796067
v -0.06294201 -0.14428364 -0.03825389
v -0.05978465 -0.14252229 -0.04796067
v -0.05978465 -0.14517936 -0.03420255
v -0.06294201 -0.14499720 -0.03420255
v -0.01347512 -0.13401468 -0.03420255
v -0.01347512 -0.14255238 -0.04796067
v -0.05179925 -0.14256741 -0.04796067
v -0.05179925 -0.14523784 -0.03420255
v -0.05852558 -0.14519272 -0.03420255
v -0.01347512 -0.14525622 -0.03420255
v -0.01599326 -0.14256407 -0.04796067
v -0.04381869 -0.14525790 -0.03420255
v -0.05054502 -0.14524453 -0.03420255
v -0.02396898 -0.14257911 -0.04796067
v -0.03458874 -0.14525790 -0.03420255
f 1 2 5
f 1 5 8
f 1 8 3
f 1 3 4
f 1 4 10
f 1 10 15
f 1 15 18
f 1 18 11
f 1 11 6
f 1 6 2
f 2 6 7
f 2 7 5
f 3 8 7
f 3 7 13
f 3 13 12
f 3 12 17
f 3 17 16
f 3 16 19
f 3 19 14
f 3 14 9
f 3 9 4
f 4 9 14
f 4 14 10
f 5 7 8
f 6 11 12
f 6 12 13
f 6 13 7
f 10 14 15
f 11 16 17
f 11 17 12
f 11 18 16
f 14 19 18
f 14 18 15
f 16 18 19

