# https://github.com/mikedh/trimesh
v -0.08658893 0.15049542 -0.01744142
v -0.08582039 0.15049542 -0.01744142
v -0.08888077 0.15049542 -0.01717557
v -0.08838304 0.15196740 -0.01621439
v -0.08705532 0.15196740 -0.01621439
v -0.08371537 0.15557183 -0.00644552
v -0.07865778 0.15244796 -0.00644552
v -0.07865778 0.15049542 -0.00908040
v -0.08962048 0.15049542 -0.01528551
v -0.08935343 0.15342647 -0.01151724
v -0.08996400 0.15509425 -0.00644552
v -0.07865778 0.15050934 -0.00644552
v -0.07865778 0.15049542 -0.00644874
v -0.09123905 0.15049542 -0.00879947
v -0.09078144 0.15308556 -0.00644552
v -0.09036896 0.15409985 -0.00644552
v -0.07899002 0.15049542 -0.00644552
v -0.09146473 0.15049542 -0.00644552
f 1 2 8
f 1 8 13
f 1 13 17
f 1 17 18
f 1 18 14
f 1 14 9
f 1 9 3
f 1 3 4
f 1 4 5
f 1 5 2
f 2 5 6
f 2 6 7
f 2 7 8
f 3 9 4
f 4 9 10
f 4 10 11
f 4 11 6
f 4 6 5
f 6 11 16
f 6 16 15
f 6 15 18
f 6 18 17
f 6 17 12
f 6 12 7
f 7 12 13
f 7 13 8
f 9 11 10
f 9 14 15
f 9 15 16
f 9 16 11
f 12 17 13
f 14 18 15

