# https://github.com/mikedh/trimesh
v 0.06364504 0.14235768 -0.04771261
v 0.06791274 0.14218070 -0.04771261
v 0.06364504 0.14164973 -0.05142280
v 0.06364504 0.12769308 -0.04771261
v 0.06978347 0.14167502 -0.04771261
v 0.06791274 0.14147275 -0.05142280
v 0.06791274 0.13816057 -0.05852795
v 0.06364504 0.14010743 -0.05472914
v 0.06364504 0.12706098 -0.04771552
v 0.06365948 0.12708626 -0.04771261
v 0.07184031 0.14111878 -0.04771261
v 0.07184031 0.14041083 -0.05142280
v 0.07184031 0.13927306 -0.05430931
v 0.07184031 0.13760433 -0.05791636
v 0.07184031 0.13489897 -0.05929206
v 0.07184031 0.13153622 -0.06095250
v 0.06791274 0.13153622 -0.06179797
v 0.06364504 0.13826171 -0.05855555
v 0.06364504 0.10524106 -0.04862636
v 0.06364585 -0.11594162 -0.04887913
v 0.06737206 0.12347069 -0.04771261
v 0.07183951 -0.11594162 -0.04820217
v 0.07183951 -0.02009074 -0.04798281
v 0.07183951 -0.01210105 -0.04796538
v 0.07184031 0.12046191 -0.04771261
v 0.07184031 0.12759195 -0.06150162
v 0.07184031 0.11962755 -0.06167449
v 0.06791274 0.12354653 -0.06195195
v 0.06364504 0.13153622 -0.06184155
v 0.06364504 0.13515180 -0.06007652
v 0.06364504 0.10524106 -0.06203476
v 0.06364585 -0.11594162 -0.06228172
v 0.06773786 0.12314200 -0.04771261
v 0.07183951 -0.11594162 -0.06192290
v 0.07184031 0.10524106 -0.04808740
v 0.07184031 0.11558214 -0.06167885
v 0.07183951 -0.01210105 -0.06225557
v 0.07183951 -0.00803036 -0.06224685
v 0.07183951 -0.00006597 -0.06222361
v 0.07183951 0.00789843 -0.06219746
v 0.07183951 0.04372558 -0.06206381
v 0.07183951 0.04779627 -0.06204347
v 0.06791274 0.05171526 -0.06234709
v 0.06364504 0.12354653 -0.06199408
v 0.06364504 0.12781950 -0.06191273
v 0.06364504 0.10759246 -0.06203476
v 0.06364585 -0.02009074 -0.06254030
v 0.06364585 -0.02378217 -0.06253449
v 0.06364585 -0.02805514 -0.06252286
v 0.06787825 -0.02808042 -0.06253884
v 0.06791274 -0.02805514 -0.06253884
v 0.06791274 -0.11594162 -0.06225121
v 0.06798254 -0.11594162 -0.06224540
v 0.07183951 -0.02009074 -0.06225121
v 0.07184031 0.10759246 -0.06164834
v 0.07184031 0.10524106 -0.06163236
v 0.06791274 -0.01210105 -0.06253739
v 0.06791274 -0.02009074 -0.06255337
v 0.06791274 -0.00416194 -0.06251996
v 0.06791274 0.00385302 -0.06250108
v 0.06791274 0.01184270 -0.06247928
v 0.06791274 0.04372558 -0.06238631
v 0.06787905 0.04370029 -0.06238776
v 0.06787825 0.05174054 -0.06234709
v 0.06364504 0.11558214 -0.06201732
v 0.06364585 0.05171526 -0.06236162
v 0.06364585 0.04799854 -0.06237905
v 0.06364585 0.04372558 -0.06239212
v 0.06364585 -0.01210105 -0.06252868
v 0.06364585 -0.01581777 -0.06253449
v 0.06787905 -0.01207577 -0.06253739
v 0.06787905 -0.00411137 -0.06251996
v 0.06787825 -0.01207577 -0.06253739
v 0.06787905 0.00387831 -0.06250108
v 0.06364585 0.04000886 -0.06240229
v 0.06364585 0.00810070 -0.06248074
v 0.06787825 -0.00411137 -0.06251996
v 0.06787825 0.00387831 -0.06250108
f 1 2 6
f 1 6 3
f 1 3 8
f 1 8 18
f 1 18 30
f 1 30 29
f 1 29 45
f 1 45 44
f 1 44 65
f 1 65 46
f 1 46 31
f 1 31 19
f 1 19 9
f 1 9 4
f 1 4 10
f 1 10 21
f 1 21 33
f 1 33 25
f 1 25 11
f 1 11 5
f 1 5 2
f 2 5 6
f 3 6 7
f 3 7 8
f 4 9 10
f 5 11 12
f 5 12 6
f 6 12 13
f 6 13 14
f 6 14 7
f 7 14 15
f 7 15 16
f 7 16 17
f 7 17 18
f 7 18 8
f 9 19 20
f 9 20 10
f 10 20 22
f 10 22 23
f 10 23 24
f 10 24 21
f 11 25 35
f 11 35 56
f 11 56 55
f 11 55 36
f 11 36 27
f 11 27 26
f 11 26 16
f 11 16 15
f 11 15 14
f 11 14 13
f 11 13 12
f 16 26 17
f 17 26 27
f 17 27 28
f 17 28 29
f 17 29 30
f 17 30 18
f 19 31 32
f 19 32 20
f 20 32 52
f 20 52 53
f 20 53 34
f 20 34 22
f 21 24 33
f 22 34 56
f 22 56 35
f 22 35 25
f 22 25 23
f 23 25 24
f 24 25 33
f 27 36 37
f 27 37 38
f 27 38 39
f 27 39 40
f 27 40 41
f 27 41 42
f 27 42 43
f 27 43 28
f 28 44 45
f 28 45 29
f 28 43 44
f 31 46 47
f 31 47 48
f 31 48 49
f 31 49 32
f 32 50 51
f 32 51 52
f 32 49 50
f 34 53 54
f 34 54 36
f 34 36 55
f 34 55 56
f 36 54 37
f 37 57 38
f 37 54 58
f 37 58 57
f 38 57 59
f 38 59 60
f 38 60 61
f 38 61 62
f 38 62 39
f 39 62 40
f 40 62 41
f 41 62 43
f 41 43 42
f 43 62 63
f 43 63 64
f 43 64 44
f 44 64 66
f 44 66 67
f 44 67 68
f 44 68 65
f 46 65 69
f 46 69 70
f 46 70 47
f 47 58 48
f 47 70 58
f 48 58 50
f 48 50 49
f 50 58 51
f 51 58 54
f 51 54 52
f 52 54 53
f 57 58 71
f 57 71 72
f 57 72 59
f 58 70 69
f 58 69 73
f 58 73 71
f 59 72 60
f 60 72 74
f 60 74 61
f 61 74 75
f 61 75 68
f 61 68 63
f 61 63 62
f 63 68 67
f 63 67 66
f 63 66 64
f 65 68 75
f 65 75 76
f 65 76 69
f 69 77 73
f 69 76 78
f 69 78 77
f 71 73 77
f 71 77 72
f 72 77 78
f 72 78 74
f 74 78 75
f 75 78 76

