# https://github.com/mikedh/trimesh
v 0.08307764 -0.13366383 -0.05320096
v 0.08307617 -0.12764243 -0.05965395
v 0.08307764 -0.13148020 -0.05739872
v 0.09249031 -0.12626821 -0.05940759
v 0.09556612 -0.12765756 -0.05141953
v 0.08420828 -0.13366383 -0.05141953
v 0.08307764 -0.13366383 0.02504974
v 0.08307617 -0.12439976 -0.06159648
v 0.08307764 -0.13134655 -0.05748400
v 0.08307617 -0.12764243 0.02504974
v 0.08751345 -0.12060235 -0.07165972
v 0.08864114 -0.12060235 -0.07165972
v 0.09151994 -0.12200179 -0.06677971
v 0.09596751 -0.12039054 -0.06372852
v 0.09718048 -0.12366600 -0.05141005
v 0.09719959 -0.12458131 -0.04320406
v 0.09614688 -0.12764243 -0.03638152
v 0.09600278 -0.12805849 -0.03545289
v 0.09376063 -0.13366383 -0.02601505
v 0.09261234 -0.13366383 -0.03394625
v 0.09090242 -0.13366383 -0.04002021
v 0.09012318 -0.13366383 -0.04145104
v 0.09649974 -0.12215561 -0.05939811
v 0.09388413 -0.13366383 0.02504974
v 0.08307617 -0.11831281 -0.06419283
v 0.08307617 -0.10790396 0.02504974
v 0.08307617 -0.11587450 -0.06511198
v 0.08738112 -0.11587450 -0.07175448
v 0.08905135 -0.11587450 -0.07175448
v 0.09303873 -0.11587450 -0.06785047
v 0.09598221 -0.11587450 -0.06386118
v 0.09658796 -0.11587450 -0.05939811
v 0.09725840 -0.11587450 -0.05141005
v 0.09762744 -0.11587450 -0.04343148
v 0.09776270 -0.12385259 -0.03544342
v 0.09617775 -0.12764243 -0.03544342
v 0.09613658 -0.12830560 -0.02746484
v 0.09394882 -0.13366383 -0.01807438
v 0.09771859 -0.12385259 0.02504974
v 0.09400469 -0.13366383 0.00443999
v 0.09801559 -0.12385259 0.00443999
v 0.09790826 -0.12385259 0.01240910
v 0.08307617 -0.10790396 -0.06490352
v 0.09614394 -0.10790396 0.02504974
v 0.08307617 -0.11234437 -0.06504565
v 0.08749727 -0.10790396 -0.07163129
v 0.08886756 -0.10790396 -0.07163129
v 0.09285641 -0.10790396 -0.06773676
v 0.09592340 -0.10790396 -0.06373800
v 0.09785532 -0.11587450 -0.03544342
v 0.09789503 -0.12385259 -0.02746484
v 0.09637918 -0.12764243 -0.02865879
v 0.09399734 -0.13366383 -0.01004842
v 0.09796413 -0.12385259 -0.01950522
v 0.09802735 -0.12385259 -0.00353858
v 0.09402234 -0.13366383 -0.00353858
v 0.09786415 -0.11587450 0.02504974
v 0.09402674 -0.13366383 -0.00204142
v 0.09809057 -0.11587450 0.00443999
v 0.09624097 -0.10790396 -0.02746484
v 0.09600132 -0.10790396 -0.05939811
v 0.09794943 -0.11587450 -0.02746484
v 0.09800236 -0.11587450 -0.01950522
v 0.09805382 -0.11587450 -0.01151716
v 0.09809645 -0.11587450 -0.00353858
f 1 2 3
f 1 3 4
f 1 4 5
f 1 5 6
f 1 6 22
f 1 22 21
f 1 21 20
f 1 20 19
f 1 19 38
f 1 38 53
f 1 53 56
f 1 56 58
f 1 58 40
f 1 40 24
f 1 24 7
f 1 7 10
f 1 10 2
f 2 8 9
f 2 9 3
f 2 10 26
f 2 26 43
f 2 43 45
f 2 45 27
f 2 27 25
f 2 25 8
f 3 9 11
f 3 11 12
f 3 12 4
f 4 12 13
f 4 13 14
f 4 14 5
f 5 15 16
f 5 16 17
f 5 17 18
f 5 18 19
f 5 19 20
f 5 20 21
f 5 21 22
f 5 22 6
f 5 14 23
f 5 23 15
f 7 24 39
f 7 39 57
f 7 57 44
f 7 44 26
f 7 26 10
f 8 25 11
f 8 11 9
f 11 25 27
f 11 27 28
f 11 28 29
f 11 29 12
f 12 29 30
f 12 30 14
f 12 14 13
f 14 30 31
f 14 31 32
f 14 32 23
f 15 33 34
f 15 34 35
f 15 35 16
f 15 23 32
f 15 32 33
f 16 35 17
f 17 35 36
f 17 36 18
f 18 36 37
f 18 37 19
f 19 37 38
f 24 40 41
f 24 41 42
f 24 42 39
f 26 44 60
f 26 60 61
f 26 61 49
f 26 49 48
f 26 48 47
f 26 47 46
f 26 46 43
f 27 45 28
f 28 45 43
f 28 43 46
f 28 46 47
f 28 47 29
f 29 47 48
f 29 48 30
f 30 48 49
f 30 49 31
f 31 49 32
f 32 49 33
f 33 49 34
f 34 49 50
f 34 50 35
f 35 50 51
f 35 51 52
f 35 52 36
f 36 52 37
f 37 53 38
f 37 52 51
f 37 51 54
f 37 54 55
f 37 55 56
f 37 56 53
f 39 42 57
f 40 58 41
f 41 59 57
f 41 57 42
f 41 58 55
f 41 55 59
f 44 57 59
f 44 59 60
f 49 61 50
f 50 62 51
f 50 61 62
f 51 62 54
f 54 62 63
f 54 63 64
f 54 64 65
f 54 65 55
f 55 58 56
f 55 65 59
f 59 65 60
f 60 65 64
f 60 64 63
f 60 63 62
f 60 62 61

