# https://github.com/mikedh/trimesh
v -0.07819386 -0.14313960 0.02333371
v -0.07921443 -0.13403558 0.04434873
v -0.07950603 -0.13403558 0.04997031
v -0.07960808 -0.13602661 0.04866373
v -0.07867498 -0.14313960 0.02842826
v -0.07819386 -0.14313960 -0.02594289
v -0.07819386 -0.14028853 0.02041313
v -0.07819386 -0.13542235 0.01241996
v -0.07819386 -0.13403558 0.00956525
v -0.08373089 -0.13403558 0.05350575
v -0.08373089 -0.13676367 0.04984953
v -0.08579959 -0.14313960 0.04153795
v -0.08169622 -0.14313960 0.03859541
v -0.08120861 -0.14249791 0.03911145
v -0.07936995 -0.14313960 0.03462078
v -0.08381676 -0.14313960 -0.02688714
v -0.07819386 -0.13751676 -0.05398488
v -0.07819386 -0.13403558 -0.05862926
v -0.08422012 -0.13403558 0.05353869
v -0.08710367 -0.14313960 0.04153795
v -0.08972153 -0.13687507 0.05003619
v -0.08957412 -0.14313960 -0.02590995
v -0.07819386 -0.13664691 -0.05652117
v -0.07819386 -0.13533144 -0.05791558
v -0.07974902 -0.13403558 -0.05828890
v -0.09133178 -0.13403558 0.05128787
v -0.08879329 -0.14313960 0.04136227
v -0.09013786 -0.14313960 0.03956161
v -0.09167845 -0.14313960 -0.01923433
v -0.09178699 -0.13403558 -0.03544027
v -0.08933112 -0.13403558 -0.04080931
v -0.08142893 -0.13403558 -0.05717995
v -0.08002603 -0.13610771 -0.05590631
v -0.09205104 -0.13403558 0.04979463
v -0.09241877 -0.14313960 0.03351184
v -0.09296956 -0.13989995 -0.01948686
v -0.09376173 -0.13403558 -0.02749102
v -0.09308782 -0.14313960 -0.01150467
v -0.09432709 -0.13403558 0.04170264
v -0.09400148 -0.14313960 0.02505752
v -0.09300358 -0.13981438 -0.01948686
v -0.09430604 -0.13403558 -0.01948686
v -0.09373905 -0.13989995 -0.01151565
v -0.09375525 -0.13981438 -0.01151565
v -0.09363537 -0.14313960 -0.00352247
v -0.09474180 -0.13403558 0.03475253
v -0.09460573 -0.13403558 -0.01151565
v -0.09394640 -0.14313960 0.01707532
v -0.09378441 -0.14313960 0.00443776
v -0.09390266 -0.14313960 0.01241996
f 1 2 3
f 1 3 4
f 1 4 5
f 1 5 15
f 1 15 13
f 1 13 12
f 1 12 20
f 1 20 27
f 1 27 28
f 1 28 35
f 1 35 40
f 1 40 48
f 1 48 50
f 1 50 49
f 1 49 45
f 1 45 38
f 1 38 29
f 1 29 22
f 1 22 16
f 1 16 6
f 1 6 17
f 1 17 23
f 1 23 24
f 1 24 18
f 1 18 9
f 1 9 8
f 1 8 7
f 1 7 2
f 2 7 8
f 2 8 9
f 2 9 18
f 2 18 25
f 2 25 32
f 2 32 31
f 2 31 30
f 2 30 37
f 2 37 42
f 2 42 47
f 2 47 46
f 2 46 39
f 2 39 34
f 2 34 26
f 2 26 19
f 2 19 10
f 2 10 3
f 3 10 4
f 4 10 11
f 4 11 12
f 4 12 13
f 4 13 14
f 4 14 15
f 4 15 5
f 6 16 17
f 10 19 12
f 10 12 11
f 12 19 21
f 12 21 20
f 13 15 14
f 16 22 17
f 17 22 23
f 18 24 25
f 19 26 21
f 20 21 27
f 21 26 28
f 21 28 27
f 22 29 30
f 22 30 31
f 22 31 32
f 22 32 33
f 22 33 23
f 23 33 25
f 23 25 24
f 25 33 32
f 26 34 28
f 28 34 35
f 29 36 37
f 29 37 30
f 29 38 36
f 34 39 35
f 35 39 40
f 36 38 41
f 36 41 37
f 37 41 38
f 37 38 43
f 37 43 44
f 37 44 42
f 38 45 43
f 39 46 40
f 40 46 47
f 40 47 48
f 42 44 45
f 42 45 47
f 43 45 44
f 45 49 47
f 47 49 50
f 47 50 48

