# https://github.com/mikedh/trimesh
v 0.07588707 -0.16280551 0.01241210
v 0.07588707 -0.16148682 0.01901010
v 0.07184071 -0.16277388 0.01242513
v 0.07184071 -0.16242602 0.00837058
v 0.07184071 -0.16234698 0.00755967
v 0.07184071 -0.16203390 0.00444630
v 0.07588707 -0.16200228 0.00443653
v 0.07588707 -0.16123699 0.01917945
v 0.07184071 -0.16144571 0.01890263
v 0.07184071 -0.16212244 0.01566876
v 0.07184071 -0.16070889 -0.00190745
v 0.07588707 -0.16068043 -0.00192048
v 0.07588707 -0.15582625 0.02275852
v 0.07184071 -0.15868182 0.02067100
v 0.07184071 -0.15897593 -0.00393310
v 0.07526601 -0.15007396 -0.01037152
v 0.07588707 -0.14974192 -0.01037152
v 0.07588707 -0.15549420 0.02289856
v 0.07184071 -0.15587684 0.02173593
v 0.07184071 -0.15059575 -0.01037152
v 0.07588707 -0.13049914 -0.01037152
v 0.07588707 -0.14798683 0.02269990
v 0.07588707 -0.14595344 0.02250776
v 0.07184071 -0.15148120 0.02066123
v 0.07184071 -0.13669098 -0.01037152
v 0.07588707 -0.13052760 -0.01008819
v 0.07588707 -0.13796856 0.00647846
v 0.07184071 -0.14916954 0.01961584
v 0.07184071 -0.13874334 -0.00353253
v 0.07184071 -0.14131431 0.00332600
f 1 2 3
f 1 3 4
f 1 4 5
f 1 5 6
f 1 6 7
f 1 7 12
f 1 12 17
f 1 17 21
f 1 21 26
f 1 26 27
f 1 27 23
f 1 23 22
f 1 22 18
f 1 18 13
f 1 13 8
f 1 8 2
f 2 8 9
f 2 9 10
f 2 10 3
f 3 10 9
f 3 9 14
f 3 14 19
f 3 19 24
f 3 24 28
f 3 28 30
f 3 30 29
f 3 29 25
f 3 25 20
f 3 20 15
f 3 15 11
f 3 11 6
f 3 6 5
f 3 5 4
f 6 11 12
f 6 12 7
f 8 13 9
f 9 13 14
f 11 15 12
f 12 15 16
f 12 16 17
f 13 18 14
f 14 18 19
f 15 20 16
f 16 20 25
f 16 25 21
f 16 21 17
f 18 22 19
f 19 22 23
f 19 23 24
f 21 25 26
f 23 27 28
f 23 28 24
f 25 29 26
f 26 29 30
f 26 30 27
f 27 30 28

