# https://github.com/mikedh/trimesh
v -0.01347029 0.13369926 -0.03547440
v -0.01347029 0.14486284 -0.03547440
v -0.01189897 0.13369106 -0.03547440
v -0.01347029 0.13507359 -0.02929451
v -0.01347029 0.15032573 -0.01383686
v 0.02800104 0.15033721 -0.01413870
v 0.00407252 0.14489564 -0.03547440
v -0.01188462 0.13507031 -0.02928392
v 0.05982921 0.13358446 -0.03547440
v -0.01347029 0.13922283 -0.01151212
v -0.01347029 0.15032573 0.01839175
v 0.01713096 0.15033721 -0.01329671
v 0.03605136 0.15033721 -0.01413870
v 0.03597961 0.14491532 -0.03547440
v 0.02799387 0.14491368 -0.03547440
v 0.02003683 0.14491368 -0.03545851
v 0.01205108 0.14490384 -0.03547440
v -0.00390605 0.13920314 -0.01151212
v -0.01189179 0.13921955 -0.01151212
v 0.05982921 0.13500635 -0.02909858
v 0.05982921 0.14488088 -0.03547440
v -0.00390605 0.14165333 -0.00353175
v -0.01189179 0.14167793 -0.00353175
v -0.01347029 0.14119904 -0.00510453
v 0.01996508 0.15033721 0.01855061
v 0.01713096 0.15033721 0.01849236
v -0.01347029 0.15006333 0.01828584
v 0.02003683 0.14974189 0.01859827
v 0.04394383 0.15033721 -0.01402220
v 0.03600831 0.14491532 -0.03547440
v 0.05957809 0.13915231 -0.01151212
v 0.05957809 0.14152541 -0.00353705
v 0.05982921 0.13734665 -0.01984729
v 0.05183629 0.15033721 -0.01384745
v 0.05957809 0.15033721 -0.01357738
v 0.05982921 0.14654549 -0.02737223
v -0.00390605 0.14322447 0.00122893
v -0.01347029 0.14293746 0.00025985
v -0.01347029 0.14168449 -0.00353175
v 0.02871854 0.15033721 0.01858239
v -0.01347029 0.14729170 0.01241839
v 0.01205108 0.14976320 0.01842352
v 0.01205108 0.14700798 0.01241839
v 0.05957809 0.14990589 0.01841293
v 0.05957809 0.15033721 0.01860886
v 0.04463980 0.15033721 0.01862475
v 0.03668276 0.15033721 0.01860886
v 0.05957809 0.14316707 0.00114420
v 0.00406534 0.14321626 0.00123952
v 0.05982921 0.14804939 -0.01984729
v 0.05957809 0.14979929 0.01815345
v 0.05957809 0.14751475 0.01242368
v -0.01347029 0.14324414 0.00118127
v 0.01713096 0.14705226 0.01242368
v 0.02003683 0.14707686 0.01242368
f 1 2 7
f 1 7 17
f 1 17 15
f 1 15 14
f 1 14 30
f 1 30 21
f 1 21 9
f 1 9 3
f 1 3 4
f 1 4 10
f 1 10 24
f 1 24 39
f 1 39 38
f 1 38 53
f 1 53 41
f 1 41 27
f 1 27 11
f 1 11 5
f 1 5 2
f 2 5 6
f 2 6 7
f 3 8 4
f 3 9 8
f 4 8 10
f 5 11 26
f 5 26 12
f 5 12 6
f 6 13 30
f 6 30 14
f 6 14 15
f 6 15 16
f 6 16 17
f 6 17 7
f 6 12 26
f 6 26 25
f 6 25 40
f 6 40 47
f 6 47 46
f 6 46 45
f 6 45 35
f 6 35 34
f 6 34 29
f 6 29 13
f 8 18 19
f 8 19 10
f 8 9 20
f 8 20 18
f 9 21 36
f 9 36 50
f 9 50 33
f 9 33 20
f 10 19 22
f 10 22 23
f 10 23 24
f 11 25 26
f 11 27 28
f 11 28 25
f 13 29 21
f 13 21 30
f 15 17 16
f 18 22 19
f 18 20 31
f 18 31 32
f 18 32 22
f 20 33 31
f 21 34 35
f 21 35 36
f 21 29 34
f 22 37 23
f 22 32 37
f 23 38 39
f 23 39 24
f 23 37 38
f 25 28 40
f 27 41 42
f 27 42 28
f 28 42 41
f 28 41 43
f 28 43 44
f 28 44 45
f 28 45 46
f 28 46 47
f 28 47 40
f 31 33 32
f 32 33 48
f 32 48 43
f 32 43 49
f 32 49 37
f 33 50 45
f 33 45 44
f 33 44 51
f 33 51 52
f 33 52 48
f 35 45 50
f 35 50 36
f 37 49 43
f 37 43 53
f 37 53 38
f 41 53 43
f 43 48 54
f 43 54 44
f 44 54 55
f 44 55 51
f 48 52 55
f 48 55 54
f 51 55 52

