# https://github.com/mikedh/trimesh
v 0.03600831 0.14491438 -0.03547440
v 0.05982921 0.14488090 -0.03547440
v 0.05193674 0.14254600 -0.04771260
v 0.02799387 0.14491438 -0.03547440
v 0.05982921 0.13358353 -0.03547440
v 0.05982921 0.14251428 -0.04767666
v 0.05982921 0.14250723 -0.04771260
v -0.01275996 0.14241384 -0.04771260
v -0.01347029 0.14486328 -0.03547440
v 0.00407252 0.14489500 -0.03547440
v 0.01205108 0.14490557 -0.03547440
v 0.05036543 0.12691720 -0.04771260
v 0.05193674 0.12693835 -0.04771260
v 0.05902561 0.12732602 -0.04771260
v 0.05982921 0.12738946 -0.04771260
v -0.01189897 0.13369280 -0.03547440
v 0.03597961 0.12691367 -0.04771260
v -0.01347029 0.14241208 -0.04771260
v -0.01347029 0.13369984 -0.03547440
v 0.03440111 0.12692072 -0.04771260
v -0.01347029 0.12791283 -0.04771260
v 0.02799387 0.12698240 -0.04771260
f 1 2 3
f 1 3 4
f 1 4 11
f 1 11 10
f 1 10 9
f 1 9 19
f 1 19 16
f 1 16 5
f 1 5 2
f 2 5 15
f 2 15 7
f 2 7 6
f 2 6 3
f 3 6 7
f 3 7 15
f 3 15 14
f 3 14 13
f 3 13 12
f 3 12 17
f 3 17 20
f 3 20 22
f 3 22 21
f 3 21 18
f 3 18 8
f 3 8 9
f 3 9 10
f 3 10 11
f 3 11 4
f 5 12 13
f 5 13 14
f 5 14 15
f 5 16 17
f 5 17 12
f 8 18 9
f 9 18 21
f 9 21 19
f 16 19 20
f 16 20 17
f 19 21 22
f 19 22 20

