# https://github.com/mikedh/trimesh
v -0.05978568 -0.15577853 0.02108063
v -0.07412592 -0.15014486 0.02083946
v -0.07412592 -0.15587380 0.02241608
v -0.05978568 -0.16172892 0.01889208
v -0.05978568 -0.15014486 0.01865811
v -0.07412592 -0.15014486 -0.01183044
v -0.07412592 -0.16181258 0.01903967
v -0.06776511 -0.16325190 0.01242361
v -0.05978568 -0.16315535 0.01242361
v -0.05978568 -0.15014486 -0.01435015
v -0.06776511 -0.15743928 -0.00582272
v -0.07412592 -0.15681232 -0.00525038
v -0.07412592 -0.16329568 0.01242361
v -0.06776511 -0.16215890 0.00444332
v -0.05978568 -0.16207522 0.00444332
v -0.05978568 -0.15851427 -0.00587671
v -0.07412592 -0.16049429 -0.00126204
v -0.07412592 -0.16197610 0.00444332
v -0.06776511 -0.16068868 -0.00183077
v -0.05978568 -0.16065008 -0.00188837
f 1 2 3
f 1 3 4
f 1 4 9
f 1 9 15
f 1 15 20
f 1 20 16
f 1 16 10
f 1 10 5
f 1 5 2
f 2 5 10
f 2 10 6
f 2 6 12
f 2 12 17
f 2 17 18
f 2 18 13
f 2 13 7
f 2 7 3
f 3 7 4
f 4 7 8
f 4 8 9
f 6 10 11
f 6 11 12
f 7 13 8
f 8 13 14
f 8 14 15
f 8 15 9
f 10 16 11
f 11 16 17
f 11 17 12
f 13 18 14
f 14 18 19
f 14 19 20
f 14 20 15
f 16 20 19
f 16 19 17
f 17 19 18

