# https://github.com/mikedh/trimesh
v -0.05229059 0.15043655 -0.01428598
v -0.05229059 0.15043655 0.01880034
v -0.05229059 0.15492876 -0.01025283
v -0.04381969 0.15494731 -0.01019763
v -0.03583622 0.15495722 -0.01012517
v -0.03583622 0.15043655 -0.01406517
v -0.01190633 0.15032644 -0.01382367
v -0.01347121 0.15032644 -0.01384437
v -0.01347121 0.15032644 0.01839323
v -0.05090528 0.15043655 0.01880379
v -0.04381969 0.15548797 0.02095319
v -0.05229059 0.15514156 0.02076344
v -0.05229059 0.15891744 -0.00652329
v -0.04381969 0.15893723 -0.00652674
v -0.03583622 0.15894589 -0.00652329
v -0.00388694 0.15032644 -0.01363046
v -0.01339425 0.15032644 0.01839323
v -0.03583622 0.15043655 0.01880724
v -0.05179803 0.15548797 0.02090834
v -0.03583622 0.15548797 0.02095319
v -0.04381969 0.16141406 0.01884174
v -0.05229059 0.16109364 0.01892109
v -0.05229059 0.15548797 0.02090489
v -0.05229059 0.15901517 -0.00627833
v -0.05229059 0.16048865 -0.00253154
v -0.01988467 0.16046144 -0.00211408
v 0.00012532 0.16061856 -0.00131711
v -0.02785788 0.15882836 -0.00636803
v 0.00012532 0.15033139 -0.01344416
v 0.00012532 0.15032644 -0.01067374
v 0.00012532 0.15032644 0.01794127
v -0.01988467 0.15043655 0.01870719
v -0.02785788 0.15043655 0.01880724
v -0.03583622 0.16137201 0.01884174
v -0.02785788 0.15548797 0.02090144
v -0.05229059 0.16296550 0.01242458
v -0.05179803 0.16145737 0.01879344
v -0.05229059 0.16145985 0.01878999
v -0.05229059 0.16058145 -0.00210718
v -0.01190120 0.16202029 0.01242458
v 0.00012532 0.16061732 0.00175692
v -0.01988467 0.15851659 -0.00610583
v -0.05229059 0.16199306 0.00444453
v -0.01988467 0.16186194 0.00444453
v -0.01988467 0.16267971 0.01242458
v 0.00012532 0.15548797 0.01940755
v -0.01190120 0.15548797 0.02040118
v -0.01988467 0.15548797 0.02078759
v -0.02785788 0.16132623 0.01879344
v -0.01988467 0.16128045 0.01874169
v 0.00012532 0.16034390 0.01787917
v -0.01347634 0.16108746 0.01860023
v -0.01190120 0.16103920 0.01856573
v -0.00391772 0.16058516 0.01817932
v -0.01347121 0.15994554 0.01900389
f 1 2 12
f 1 12 23
f 1 23 22
f 1 22 38
f 1 38 36
f 1 36 43
f 1 43 39
f 1 39 25
f 1 25 24
f 1 24 13
f 1 13 3
f 1 3 4
f 1 4 5
f 1 5 6
f 1 6 7
f 1 7 8
f 1 8 9
f 1 9 2
f 2 9 10
f 2 10 11
f 2 11 12
f 3 13 14
f 3 14 15
f 3 15 4
f 4 15 5
f 5 15 7
f 5 7 6
f 7 16 30
f 7 30 31
f 7 31 17
f 7 17 9
f 7 9 8
f 7 15 16
f 9 17 33
f 9 33 18
f 9 18 10
f 10 18 11
f 11 19 12
f 11 18 33
f 11 33 20
f 11 20 21
f 11 21 22
f 11 22 19
f 12 19 23
f 13 24 14
f 14 24 25
f 14 25 15
f 15 25 26
f 15 26 27
f 15 27 28
f 15 28 16
f 16 29 30
f 16 28 29
f 17 31 32
f 17 32 33
f 19 22 23
f 20 34 21
f 20 33 35
f 20 35 34
f 21 36 37
f 21 37 22
f 21 34 36
f 22 37 38
f 25 39 27
f 25 27 26
f 27 40 41
f 27 41 51
f 27 51 46
f 27 46 31
f 27 31 30
f 27 30 29
f 27 29 42
f 27 42 28
f 27 39 43
f 27 43 44
f 27 44 45
f 27 45 40
f 28 42 29
f 31 46 47
f 31 47 48
f 31 48 32
f 32 48 35
f 32 35 33
f 34 35 49
f 34 49 36
f 35 48 50
f 35 50 49
f 36 38 37
f 36 49 50
f 36 50 45
f 36 45 44
f 36 44 43
f 40 51 41
f 40 45 51
f 45 50 52
f 45 52 53
f 45 53 54
f 45 54 51
f 46 51 54
f 46 54 47
f 47 54 53
f 47 53 55
f 47 55 48
f 48 55 50
f 50 55 52
f 52 55 53

