# https://github.com/mikedh/trimesh
v -0.01347028 -0.11682686 -0.04898301
v -0.01347028 -0.12852342 -0.04796202
v -0.01347028 -0.11682686 -0.06236051
v -0.07267127 -0.11682686 -0.04796202
v -0.01347028 -0.14255172 -0.04796202
v -0.01347028 -0.12228189 -0.06232375
v -0.02786234 -0.11682686 -0.06240294
v -0.07411998 -0.11682686 -0.04796202
v -0.01599364 -0.14256433 -0.04796202
v -0.01347028 -0.14196185 -0.05142235
v -0.01347028 -0.12385488 -0.06230960
v -0.03584210 -0.12385488 -0.06236617
v -0.03584210 -0.11682686 -0.06240718
v -0.07411998 -0.11682686 -0.06177224
v -0.07411998 -0.14036114 -0.04796202
v -0.02396746 -0.14257692 -0.04796202
v -0.02786234 -0.14200723 -0.05142235
v -0.01988258 -0.14198958 -0.05142235
v -0.01347028 -0.13860666 -0.05856928
v -0.01347028 -0.13026025 -0.06206496
v -0.04382185 -0.13183324 -0.06206921
v -0.05180161 -0.13183324 -0.06207203
v -0.04382185 -0.12385488 -0.06236334
v -0.01347028 -0.13183324 -0.06200416
v -0.04382185 -0.11682686 -0.06239304
v -0.07411998 -0.11749487 -0.06177224
v -0.07150756 -0.11682686 -0.06197446
v -0.07242785 -0.14088798 -0.04796202
v -0.07411998 -0.14012670 -0.04973107
v -0.02786234 -0.14257692 -0.04796202
v -0.02786234 -0.13864951 -0.05856786
v -0.05180161 -0.14256685 -0.04796202
v -0.05180161 -0.14197697 -0.05142235
v -0.05180161 -0.13860918 -0.05861453
v -0.01988258 -0.13862934 -0.05856503
v -0.04382185 -0.13861674 -0.05860321
v -0.05978136 -0.13857640 -0.05859614
v -0.05978136 -0.13183324 -0.06203668
v -0.05978136 -0.12385488 -0.06230819
v -0.05180161 -0.12385488 -0.06234213
v -0.05180161 -0.11682686 -0.06236900
v -0.06776111 -0.12385488 -0.06225587
v -0.07411998 -0.12385488 -0.06167891
v -0.06776111 -0.11682686 -0.06226152
v -0.06770768 -0.14224922 -0.04796202
v -0.06776111 -0.14169969 -0.05142235
v -0.07411998 -0.13986453 -0.05142235
v -0.05978136 -0.14252147 -0.04796202
v -0.05978136 -0.14192151 -0.05142235
v -0.06776111 -0.13851339 -0.05856079
v -0.06776111 -0.13183324 -0.06197870
v -0.05978136 -0.11682686 -0.06232657
v -0.07411998 -0.12547575 -0.06162235
v -0.06388998 -0.14240804 -0.04796202
v -0.07411998 -0.13824618 -0.05614831
v -0.07411998 -0.13759833 -0.05759919
v -0.07411998 -0.13318943 -0.05999329
v -0.07411998 -0.13183324 -0.06068762
f 1 2 5
f 1 5 10
f 1 10 19
f 1 19 24
f 1 24 20
f 1 20 11
f 1 11 6
f 1 6 3
f 1 3 7
f 1 7 13
f 1 13 25
f 1 25 41
f 1 41 52
f 1 52 44
f 1 44 27
f 1 27 14
f 1 14 8
f 1 8 4
f 1 4 2
f 2 4 8
f 2 8 15
f 2 15 28
f 2 28 45
f 2 45 54
f 2 54 48
f 2 48 32
f 2 32 30
f 2 30 16
f 2 16 9
f 2 9 5
f 3 6 7
f 5 9 10
f 6 11 12
f 6 12 7
f 7 12 13
f 8 14 26
f 8 26 43
f 8 43 53
f 8 53 58
f 8 58 57
f 8 57 56
f 8 56 55
f 8 55 47
f 8 47 29
f 8 29 15
f 9 16 17
f 9 17 18
f 9 18 10
f 10 18 19
f 11 20 12
f 12 21 22
f 12 22 23
f 12 23 13
f 12 20 24
f 12 24 21
f 13 23 25
f 14 27 26
f 15 29 28
f 16 30 17
f 17 31 18
f 17 30 32
f 17 32 33
f 17 33 34
f 17 34 31
f 18 35 19
f 18 31 35
f 19 35 31
f 19 31 21
f 19 21 24
f 21 31 36
f 21 36 34
f 21 34 22
f 22 34 37
f 22 37 38
f 22 38 39
f 22 39 40
f 22 40 23
f 23 40 25
f 25 40 41
f 26 27 42
f 26 42 43
f 27 44 42
f 28 29 46
f 28 46 45
f 29 47 46
f 31 34 36
f 32 48 33
f 33 48 49
f 33 49 37
f 33 37 34
f 37 49 50
f 37 50 51
f 37 51 38
f 38 51 42
f 38 42 39
f 39 52 41
f 39 41 40
f 39 42 52
f 42 51 43
f 42 44 52
f 43 51 53
f 45 46 54
f 46 47 55
f 46 55 50
f 46 50 49
f 46 49 54
f 48 54 49
f 50 55 56
f 50 56 57
f 50 57 58
f 50 58 51
f 51 58 53

