# https://github.com/mikedh/trimesh
v -0.08317981 0.10689338 -0.06246859
v -0.08317981 0.10690367 -0.06493068
v -0.07865821 0.10689338 -0.06186644
v -0.08317981 0.10689338 0.07164906
v -0.08317981 0.11160421 -0.06478350
v -0.07865821 0.11558259 -0.06171925
v -0.07865821 0.10727632 -0.06186644
v -0.07865821 0.10689338 -0.03629537
v -0.08134328 0.10689338 0.07024407
v -0.08317981 0.10721207 0.07166245
v -0.08317981 0.11558259 -0.06451588
v -0.07865821 0.12368582 -0.06123754
v -0.07865821 0.12452108 0.00347293
v -0.07922125 0.10689338 0.06030199
v -0.08099005 0.10689338 0.06996306
v -0.08098342 0.10760014 0.06997644
v -0.08091702 0.11558259 0.07009687
v -0.08317981 0.11113133 0.07174273
v -0.08317981 0.11758719 -0.06387359
v -0.07865821 0.13145753 -0.05902967
v -0.07865821 0.13300211 0.01894135
v -0.07865821 0.13314602 0.01900826
v -0.07919292 0.11558259 0.06030199
v -0.07924383 0.10689338 0.06079708
v -0.07948728 0.10689338 0.06597553
v -0.08317981 0.11558259 0.07176949
v -0.07947577 0.11558259 0.06609596
v -0.07955810 0.12078685 0.06554734
v -0.08317981 0.12328233 0.06796929
v -0.08317981 0.12316926 0.06803620
v -0.08317981 0.12387857 -0.06146501
v -0.07865821 0.13314602 -0.05797257
v -0.08317981 0.13122366 -0.05755776
v -0.08317981 0.13132389 -0.05750424
v -0.07918938 0.13314602 0.04247851
v -0.07913272 0.13154234 0.04433847
v -0.07911192 0.12355989 0.05232692
v -0.07938503 0.12349307 0.06030199
v -0.08317981 0.12335686 0.06791577
v -0.07952446 0.12805741 0.05763917
v -0.08063063 0.12610677 0.06296480
v -0.08193642 0.13314602 -0.05679505
v -0.08317981 0.13133417 -0.05749085
v -0.07925268 0.13314602 0.04433847
v -0.07943372 0.13314602 0.04860700
v -0.07940849 0.13104633 0.05169801
v -0.08317981 0.12899546 0.06056961
v -0.07950631 0.13314602 0.05030639
v -0.08317981 0.13314602 -0.05482804
v -0.08317981 0.13314602 0.05350445
f 1 2 3
f 1 3 8
f 1 8 14
f 1 14 24
f 1 24 25
f 1 25 15
f 1 15 9
f 1 9 4
f 1 4 10
f 1 10 18
f 1 18 26
f 1 26 30
f 1 30 29
f 1 29 39
f 1 39 47
f 1 47 50
f 1 50 49
f 1 49 43
f 1 43 34
f 1 34 33
f 1 33 31
f 1 31 19
f 1 19 11
f 1 11 5
f 1 5 2
f 2 5 6
f 2 6 7
f 2 7 3
f 3 7 6
f 3 6 12
f 3 12 20
f 3 20 32
f 3 32 22
f 3 22 21
f 3 21 13
f 3 13 8
f 4 9 10
f 5 11 12
f 5 12 6
f 8 13 14
f 9 15 16
f 9 16 17
f 9 17 10
f 10 17 18
f 11 19 20
f 11 20 12
f 13 21 14
f 14 21 22
f 14 22 23
f 14 23 24
f 15 25 16
f 16 25 17
f 17 26 18
f 17 25 27
f 17 27 28
f 17 28 29
f 17 29 30
f 17 30 26
f 19 31 20
f 20 31 33
f 20 33 34
f 20 34 32
f 22 35 36
f 22 36 37
f 22 37 23
f 22 32 42
f 22 42 49
f 22 49 50
f 22 50 48
f 22 48 45
f 22 45 44
f 22 44 35
f 23 38 28
f 23 28 27
f 23 27 25
f 23 25 24
f 23 37 38
f 28 39 29
f 28 38 40
f 28 40 41
f 28 41 39
f 32 34 42
f 34 43 42
f 35 44 36
f 36 44 45
f 36 45 46
f 36 46 38
f 36 38 37
f 38 46 40
f 39 41 47
f 40 46 48
f 40 48 41
f 41 48 47
f 42 43 49
f 45 48 46
f 47 48 50

