# https://github.com/mikedh/trimesh
v -0.07574791 -0.16330541 0.01242499
v -0.07819224 -0.16312015 0.01242499
v -0.07574791 -0.16192978 0.00445228
v -0.07412592 -0.16197610 0.00445228
v -0.07412592 -0.16329460 0.01242499
v -0.07574791 -0.16182016 0.01906226
v -0.07819224 -0.16175995 0.01908888
v -0.07819224 -0.16158394 0.00438129
v -0.07819224 -0.16107909 0.00238035
v -0.07574791 -0.16044453 -0.00111131
v -0.07412592 -0.16049395 -0.00125772
v -0.07412592 -0.16181245 0.01903564
v -0.07819224 -0.15339039 0.02582819
v -0.07819224 -0.16026389 -0.00067208
v -0.07819224 -0.15960619 -0.00171470
v -0.07819224 -0.14753278 -0.01744272
v -0.07412592 -0.14753278 -0.01688814
v -0.07412592 -0.15587301 0.02241639
v -0.07819224 -0.14755748 0.02788237
v -0.07819224 -0.14753278 0.02785575
v -0.07412592 -0.14753278 0.01850767
v -0.07412592 -0.14816116 0.02037108
v -0.07412592 -0.14787707 0.01965234
f 1 2 3
f 1 3 4
f 1 4 5
f 1 5 6
f 1 6 7
f 1 7 2
f 2 7 13
f 2 13 19
f 2 19 20
f 2 20 16
f 2 16 15
f 2 15 14
f 2 14 9
f 2 9 8
f 2 8 3
f 3 8 9
f 3 9 10
f 3 10 11
f 3 11 4
f 4 11 17
f 4 17 21
f 4 21 23
f 4 23 22
f 4 22 18
f 4 18 12
f 4 12 5
f 5 12 6
f 6 12 13
f 6 13 7
f 9 14 10
f 10 14 15
f 10 15 16
f 10 16 11
f 11 16 17
f 12 18 13
f 13 18 19
f 16 20 21
f 16 21 17
f 18 22 19
f 19 22 20
f 20 22 23
f 20 23 21

