# https://github.com/mikedh/trimesh
v 0.09185611 0.11558279 0.07371464
v 0.09692480 0.11558279 0.07308208
v 0.09656371 0.12050795 0.07282137
v 0.09185611 0.12095864 0.07302953
v 0.08660020 0.12048715 0.07274053
v 0.08574618 0.11558279 0.07291433
v 0.08562581 0.11087948 0.07289413
v 0.08813627 0.11087948 0.07322152
v 0.09185611 0.11087948 0.07367017
v 0.09688659 0.11087948 0.07306186
v 0.09758394 0.11087948 0.07109345
v 0.09861946 0.11558279 0.06829443
v 0.09731455 0.12182996 0.06829443
v 0.09623701 0.12814185 0.05753285
v 0.09439714 0.12696545 0.06285402
v 0.08907627 0.12788762 0.06496390
v 0.08634227 0.12788762 0.06496390
v 0.08102139 0.12633218 0.06317940
v 0.07963242 0.12101411 0.06519833
v 0.08175504 0.11558279 0.06979802
v 0.08327393 0.11087948 0.07113388
v 0.09848954 0.11087948 0.06829443
v 0.09832141 0.12267123 0.05307058
v 0.09829085 0.12360265 0.05307058
v 0.09753809 0.12400711 0.06024295
v 0.09669554 0.12901317 0.05307058
v 0.09655607 0.12933212 0.05307058
v 0.09237387 0.13319183 0.05307058
v 0.08548443 0.13441677 0.05307058
v 0.08387575 0.13449073 0.05307058
v 0.07959421 0.12836373 0.05786025
v 0.07940698 0.12362807 0.06043696
v 0.07921783 0.11558279 0.06031571
v 0.07955027 0.11558279 0.06580866
v 0.08163468 0.11087948 0.06985259
v 0.09817812 0.11087948 0.06431315
v 0.09763744 0.11556429 0.05307058
v 0.07940125 0.13071884 0.05307058
v 0.07910320 0.12356798 0.05307058
v 0.07928279 0.11087948 0.06031571
v 0.07958084 0.11087948 0.06586322
v 0.09762597 0.11087948 0.06007926
v 0.09580522 0.11087948 0.05307058
v 0.07928470 0.11131399 0.05307058
v 0.07928852 0.11087948 0.05561295
v 0.07929234 0.11087948 0.05307058
f 1 2 3
f 1 3 4
f 1 4 5
f 1 5 6
f 1 6 7
f 1 7 8
f 1 8 9
f 1 9 10
f 1 10 2
f 2 10 11
f 2 11 12
f 2 12 3
f 3 12 13
f 3 13 14
f 3 14 15
f 3 15 16
f 3 16 4
f 4 16 17
f 4 17 5
f 5 18 19
f 5 19 20
f 5 20 6
f 5 17 18
f 6 20 21
f 6 21 7
f 7 21 35
f 7 35 41
f 7 41 40
f 7 40 45
f 7 45 46
f 7 46 43
f 7 43 42
f 7 42 36
f 7 36 22
f 7 22 11
f 7 11 10
f 7 10 9
f 7 9 8
f 11 22 12
f 12 22 23
f 12 23 24
f 12 24 13
f 13 24 25
f 13 25 26
f 13 26 27
f 13 27 14
f 14 27 28
f 14 28 15
f 15 28 16
f 16 28 29
f 16 29 30
f 16 30 17
f 17 30 18
f 18 30 31
f 18 31 19
f 19 31 32
f 19 32 33
f 19 33 34
f 19 34 20
f 20 34 35
f 20 35 21
f 22 36 23
f 23 36 37
f 23 37 43
f 23 43 46
f 23 46 44
f 23 44 39
f 23 39 38
f 23 38 30
f 23 30 29
f 23 29 28
f 23 28 27
f 23 27 26
f 23 26 24
f 24 26 25
f 30 38 31
f 31 38 32
f 32 39 33
f 32 38 39
f 33 40 41
f 33 41 34
f 33 39 40
f 34 41 35
f 36 42 37
f 37 42 43
f 39 44 40
f 40 44 45
f 44 46 45

