# https://github.com/mikedh/trimesh
v 0.03599053 0.15034049 -0.01414404
v 0.02907013 0.15034049 -0.01414060
v 0.02907013 0.15849032 -0.00720101
v 0.02907013 0.15902082 -0.00674454
v 0.04397445 0.15893369 -0.00662099
v 0.05958280 0.15008164 -0.01403764
v 0.02907013 0.15034049 0.01858396
v 0.02907013 0.16033812 -0.00328504
v 0.06732331 0.16069692 -0.00212501
v 0.03599053 0.15898879 -0.00667247
v 0.05194715 0.15885808 -0.00656608
v 0.05993107 0.15858386 -0.00639447
v 0.05993107 0.15008164 -0.01401705
v 0.05958280 0.15008164 0.01849473
v 0.02907013 0.15058524 0.01861141
v 0.03669455 0.15034049 0.01861141
v 0.05993107 0.15548667 0.02091775
v 0.05194715 0.15548795 0.02067064
v 0.02907013 0.16053803 -0.00275651
v 0.06732331 0.16246016 0.00444393
v 0.06732331 0.15777657 -0.00611648
v 0.06732331 0.15008164 -0.01305264
v 0.06031678 0.15008164 -0.01396900
v 0.06732331 0.15008164 0.01850502
v 0.02907013 0.15580446 0.01817898
v 0.04397445 0.15548795 0.02002885
v 0.03599053 0.15548795 0.01909877
v 0.04465226 0.15034049 0.01862171
v 0.06732331 0.15548667 0.02078390
v 0.05993107 0.16152856 0.01891000
v 0.05957906 0.16126587 0.01898894
v 0.05194715 0.16133506 0.01867319
v 0.05957906 0.16152087 0.01890314
v 0.02907013 0.16188222 0.00444393
v 0.03599053 0.16212185 0.00444393
v 0.06732331 0.16253064 0.00502738
v 0.02907013 0.15600564 0.01808288
v 0.04397445 0.16067129 0.01801767
v 0.06732331 0.16119796 0.01877615
v 0.06732331 0.16283945 0.01289706
v 0.06732331 0.16296120 0.01242344
v 0.05993107 0.16317262 0.01242344
v 0.05194715 0.16291378 0.01242344
v 0.04397445 0.16228587 0.01242344
v 0.03599053 0.16153497 0.01242344
v 0.02907013 0.16057519 0.01252983
v 0.02907013 0.15620810 0.01795589
v 0.03599053 0.15989987 0.01703954
v 0.02907013 0.16041885 0.01294854
v 0.03188996 0.15949751 0.01645266
v 0.02907013 0.15907464 0.01582803
f 1 2 3
f 1 3 4
f 1 4 5
f 1 5 6
f 1 6 2
f 2 6 14
f 2 14 7
f 2 7 15
f 2 15 25
f 2 25 37
f 2 37 47
f 2 47 51
f 2 51 49
f 2 49 46
f 2 46 34
f 2 34 19
f 2 19 8
f 2 8 4
f 2 4 3
f 4 8 9
f 4 9 10
f 4 10 5
f 5 11 6
f 5 10 9
f 5 9 11
f 6 12 13
f 6 13 23
f 6 23 22
f 6 22 24
f 6 24 14
f 6 11 12
f 7 14 16
f 7 16 17
f 7 17 18
f 7 18 15
f 8 19 9
f 9 20 36
f 9 36 41
f 9 41 40
f 9 40 39
f 9 39 29
f 9 29 24
f 9 24 22
f 9 22 21
f 9 21 12
f 9 12 11
f 9 19 20
f 12 21 22
f 12 22 23
f 12 23 13
f 14 24 16
f 15 18 26
f 15 26 27
f 15 27 25
f 16 24 28
f 16 28 17
f 17 28 24
f 17 24 29
f 17 29 30
f 17 30 31
f 17 31 18
f 18 32 26
f 18 31 33
f 18 33 32
f 19 34 35
f 19 35 20
f 20 35 36
f 25 27 26
f 25 26 38
f 25 38 37
f 26 32 38
f 29 39 30
f 30 39 40
f 30 40 41
f 30 41 42
f 30 42 33
f 30 33 31
f 32 43 44
f 32 44 45
f 32 45 38
f 32 33 42
f 32 42 43
f 34 46 45
f 34 45 44
f 34 44 43
f 34 43 35
f 35 43 42
f 35 42 36
f 36 42 41
f 37 38 48
f 37 48 47
f 38 45 46
f 38 46 48
f 46 49 48
f 47 48 50
f 47 50 51
f 48 49 50
f 49 51 50

