# https://github.com/mikedh/trimesh
v -0.07245702 -0.12722317 -0.04796202
v -0.06533431 -0.12722317 -0.04796202
v -0.07245702 -0.12722317 -0.04203601
v -0.07245702 -0.11923978 -0.04796202
v -0.06531892 -0.12721223 -0.04796202
v -0.06531192 -0.12722317 -0.04796085
v -0.06749288 -0.12722317 -0.04534416
v -0.07245702 -0.12364730 -0.04441198
v -0.06749288 -0.12407249 -0.04796202
v -0.06532941 -0.12722317 -0.04793939
f 1 2 6
f 1 6 10
f 1 10 7
f 1 7 3
f 1 3 8
f 1 8 4
f 1 4 9
f 1 9 5
f 1 5 2
f 2 5 6
f 3 7 8
f 4 8 7
f 4 7 9
f 5 9 6
f 6 9 10
f 7 10 9

