# https://github.com/mikedh/trimesh
v 0.07589876 0.11684888 -0.04286931
v 0.07617226 0.00409255 -0.04345013
v 0.07617226 0.09955957 -0.04369498
v 0.07589876 0.11684888 -0.05683914
v 0.07184031 0.11684888 -0.04795046
v 0.07184031 0.01072125 -0.04795995
v 0.07184031 -0.01210336 -0.04796375
v 0.07184031 -0.02009881 -0.04798083
v 0.07184031 -0.11586196 -0.04820670
v 0.07591827 -0.11586196 -0.04363614
v 0.07617226 0.00409255 -0.06192597
v 0.07617226 0.09955957 -0.06130151
v 0.07589876 0.11682611 -0.06135466
v 0.07589367 0.11684888 -0.06135466
v 0.07184031 0.11684888 -0.06167733
v 0.07184031 -0.11586196 -0.06192218
v 0.07591827 -0.11586196 -0.06158812
v 0.07591827 -0.02009881 -0.06194116
v 0.07591827 -0.01210336 -0.06196963
v 0.07184031 -0.01210336 -0.06225814
v 0.07184031 -0.00804869 -0.06224865
v 0.07184031 -0.00007602 -0.06222587
v 0.07184031 0.00789665 -0.06219740
v 0.07184031 0.04375089 -0.06206264
v 0.07617226 0.04375089 -0.06175705
v 0.07589876 0.11555047 -0.06138692
v 0.07462538 0.11684888 -0.06147613
v 0.07184031 0.04780556 -0.06204176
v 0.07184031 -0.02009881 -0.06225055
f 1 2 3
f 1 3 12
f 1 12 4
f 1 4 14
f 1 14 27
f 1 27 15
f 1 15 5
f 1 5 6
f 1 6 7
f 1 7 8
f 1 8 9
f 1 9 10
f 1 10 2
f 2 10 17
f 2 17 11
f 2 11 25
f 2 25 12
f 2 12 3
f 4 12 13
f 4 13 14
f 5 15 28
f 5 28 24
f 5 24 23
f 5 23 22
f 5 22 21
f 5 21 20
f 5 20 29
f 5 29 16
f 5 16 9
f 5 9 8
f 5 8 7
f 5 7 6
f 9 16 17
f 9 17 10
f 11 17 18
f 11 18 19
f 11 19 20
f 11 20 21
f 11 21 22
f 11 22 23
f 11 23 24
f 11 24 25
f 12 26 13
f 12 25 26
f 13 26 14
f 14 26 27
f 15 27 25
f 15 25 28
f 16 29 19
f 16 19 18
f 16 18 17
f 19 29 20
f 24 28 25
f 25 27 26

