# https://github.com/mikedh/trimesh
v -0.06775444 0.13596149 -0.01857304
v -0.06775444 0.14914294 -0.01857304
v -0.05229210 0.13761714 -0.01857304
v -0.05229210 0.13910803 -0.01199944
v -0.06775444 0.13748958 -0.01206513
v -0.05978560 0.14919875 -0.01857304
v -0.06775444 0.15804308 -0.00597460
v -0.05978560 0.15892539 -0.00651564
v -0.05229210 0.14883732 -0.01857304
v -0.05229210 0.13922231 -0.01151637
v -0.06775444 0.13767295 -0.01145067
v -0.05229210 0.15891742 -0.00652723
v -0.06775444 0.16062887 -0.00198251
v -0.05978560 0.16053055 -0.00252355
v -0.05229210 0.15901575 -0.00628376
v -0.05229210 0.14173634 -0.00353220
v -0.06775444 0.14037568 -0.00353220
v -0.05229210 0.14327241 0.00098933
v -0.06775444 0.16220481 0.00443651
v -0.05229210 0.16048802 -0.00253515
v -0.05229210 0.14732517 0.01242454
v -0.05229210 0.14964522 0.01815954
v -0.05229210 0.14979670 0.01853054
v -0.06775444 0.14981530 0.01860396
v -0.05229210 0.16199221 0.00444424
v -0.05229210 0.16058105 -0.00211004
v -0.06775444 0.16310838 0.01241681
v -0.05978560 0.16303927 0.01242454
v -0.05229210 0.16296487 0.01242454
v -0.05229210 0.15513838 0.02076425
v -0.05229210 0.15548386 0.02090724
v -0.06775444 0.15548386 0.02090337
v -0.06775444 0.16153244 0.01870444
v -0.05978560 0.16149790 0.01874309
v -0.05229210 0.16145804 0.01878946
v -0.05229210 0.16109128 0.01892086
f 1 2 6
f 1 6 9
f 1 9 3
f 1 3 4
f 1 4 5
f 1 5 11
f 1 11 17
f 1 17 24
f 1 24 32
f 1 32 33
f 1 33 27
f 1 27 19
f 1 19 13
f 1 13 7
f 1 7 2
f 2 7 8
f 2 8 6
f 3 9 12
f 3 12 15
f 3 15 20
f 3 20 26
f 3 26 25
f 3 25 29
f 3 29 35
f 3 35 36
f 3 36 31
f 3 31 30
f 3 30 23
f 3 23 22
f 3 22 21
f 3 21 18
f 3 18 16
f 3 16 10
f 3 10 4
f 4 10 5
f 5 10 11
f 6 8 12
f 6 12 9
f 7 13 8
f 8 13 14
f 8 14 15
f 8 15 12
f 10 16 11
f 11 16 18
f 11 18 17
f 13 19 14
f 14 19 20
f 14 20 15
f 17 18 21
f 17 21 22
f 17 22 23
f 17 23 24
f 19 25 26
f 19 26 20
f 19 27 28
f 19 28 29
f 19 29 25
f 23 30 24
f 24 30 31
f 24 31 32
f 27 33 34
f 27 34 35
f 27 35 28
f 28 35 29
f 31 36 32
f 32 36 35
f 32 35 33
f 33 35 34

