# https://github.com/mikedh/trimesh
v 0.08766030 -0.10030430 -0.07151353
v 0.08125815 -0.10030430 -0.06218925
v 0.08130121 -0.09202734 -0.06221481
v 0.08766891 -0.09990892 -0.07150623
v 0.08780235 -0.09478200 -0.07141404
v 0.08841215 -0.10030430 -0.07151353
v 0.08128398 -0.09202734 -0.06218925
v 0.09591479 -0.10030430 -0.06218925
v 0.08508194 -0.09202734 -0.06726120
v 0.08803335 -0.09478200 -0.07141404
v 0.08573048 -0.09202734 -0.06812645
v 0.09114547 -0.09202734 -0.06820951
v 0.08838775 -0.09990892 -0.07150623
v 0.09115694 -0.09204435 -0.06821133
v 0.09240093 -0.10030430 -0.06759617
v 0.09588466 -0.09202734 -0.06218925
v 0.09589469 -0.10030430 -0.06360669
v 0.09589757 -0.09447899 -0.06218925
v 0.09184135 -0.09202734 -0.06752771
v 0.09587031 -0.09202734 -0.06349900
v 0.09587174 -0.09202734 -0.06348165
f 1 2 3
f 1 3 4
f 1 4 5
f 1 5 10
f 1 10 6
f 1 6 15
f 1 15 17
f 1 17 8
f 1 8 2
f 2 7 3
f 2 8 18
f 2 18 16
f 2 16 7
f 3 7 16
f 3 16 21
f 3 21 20
f 3 20 19
f 3 19 12
f 3 12 11
f 3 11 9
f 3 9 5
f 3 5 4
f 5 9 11
f 5 11 12
f 5 12 10
f 6 13 14
f 6 14 15
f 6 10 13
f 8 17 18
f 10 12 14
f 10 14 13
f 12 19 14
f 14 19 15
f 15 19 20
f 15 20 17
f 16 18 21
f 17 20 21
f 17 21 18

