# https://github.com/mikedh/trimesh
v 0.09642323 0.11087948 0.03716547
v 0.09581105 0.11087948 0.05506420
v 0.09568022 0.09965805 0.05506420
v 0.09576911 0.09965805 -0.03545728
v 0.09634608 0.11087948 -0.03545728
v 0.07928890 0.11087948 0.05506420
v 0.07936773 0.09965805 0.05506420
v 0.07950694 0.09965805 -0.03545728
v 0.07932916 0.11087948 -0.03545728
v 0.07930064 0.11087948 0.02040092
v 0.07930232 0.11087948 0.01570472
v 0.07930400 0.11087948 0.01242624
v 0.07941972 0.09965805 -0.00353198
v 0.07943314 0.09965805 -0.01151552
f 1 2 3
f 1 3 4
f 1 4 5
f 1 5 9
f 1 9 12
f 1 12 11
f 1 11 10
f 1 10 6
f 1 6 2
f 2 6 7
f 2 7 3
f 3 7 13
f 3 13 14
f 3 14 8
f 3 8 4
f 4 8 9
f 4 9 5
f 6 10 7
f 7 10 11
f 7 11 12
f 7 12 9
f 7 9 13
f 8 14 9
f 9 14 13

