# https://github.com/mikedh/trimesh
v 0.09578701 0.00409750 -0.03495474
v 0.09578701 0.00409750 -0.03572201
v 0.08107843 0.00409750 -0.03495474
v 0.09578847 0.00384370 -0.03495474
v 0.09578411 0.00409750 -0.04370349
v 0.09578847 0.00384370 -0.03546095
v 0.08107843 0.00409750 -0.06234074
v 0.08107843 -0.08529353 -0.03495474
v 0.09582768 -0.02010127 -0.03495474
v 0.09577685 0.00409750 -0.05142073
v 0.09582476 -0.02010127 -0.04344243
v 0.09582768 -0.02010127 -0.03546095
v 0.08511534 0.00409750 -0.06696981
v 0.08107843 0.00391371 -0.06234393
v 0.08107843 -0.08529353 -0.06214654
v 0.09589156 -0.08529353 -0.03495474
v 0.09583929 -0.02808292 -0.03495474
v 0.09573764 0.00409750 -0.05940221
v 0.09588866 -0.07596410 -0.05940221
v 0.09587559 -0.06798244 -0.05940221
v 0.09584945 -0.06343150 -0.06340409
v 0.09583638 -0.02808292 -0.04344243
v 0.09588721 -0.06798244 -0.05142073
v 0.09583929 -0.02808292 -0.03546095
v 0.09178350 0.00409750 -0.06696981
v 0.08520538 -0.04403748 -0.06729773
v 0.08515891 -0.05201914 -0.06729455
v 0.08107843 -0.00412045 -0.06237258
v 0.08529831 -0.08529353 -0.06739642
v 0.08107843 -0.08372695 -0.06215291
v 0.09589156 -0.08444461 -0.03495474
v 0.09589302 -0.08529353 -0.03537499
v 0.09588576 -0.07596410 -0.03495474
v 0.09590608 -0.08529353 -0.04344243
v 0.09591190 -0.08529353 -0.05142073
v 0.09560840 0.00409750 -0.05965691
v 0.09589882 -0.07596410 -0.05142073
v 0.09590318 -0.08529353 -0.05804596
v 0.09590028 -0.08529353 -0.05940221
v 0.09585381 -0.06798244 -0.06342320
v 0.09181255 -0.04403748 -0.06729773
v 0.09173849 -0.08529353 -0.06747920
v 0.08620734 -0.08529353 -0.06740916
v 0.08107843 -0.01212836 -0.06239487
v 0.08107843 -0.02012752 -0.06237258
v 0.09587414 -0.08529353 -0.06278328
v 0.09586107 -0.07596410 -0.06345185
v 0.09586688 -0.08529353 -0.06347732
f 1 2 5
f 1 5 10
f 1 10 18
f 1 18 36
f 1 36 25
f 1 25 13
f 1 13 7
f 1 7 3
f 1 3 8
f 1 8 16
f 1 16 31
f 1 31 33
f 1 33 17
f 1 17 9
f 1 9 4
f 1 4 6
f 1 6 2
f 2 6 5
f 3 7 14
f 3 14 28
f 3 28 44
f 3 44 45
f 3 45 30
f 3 30 15
f 3 15 8
f 4 9 12
f 4 12 6
f 5 6 11
f 5 11 10
f 6 12 11
f 7 13 14
f 8 15 29
f 8 29 43
f 8 43 42
f 8 42 48
f 8 48 46
f 8 46 39
f 8 39 38
f 8 38 35
f 8 35 34
f 8 34 32
f 8 32 16
f 9 17 24
f 9 24 12
f 10 11 19
f 10 19 20
f 10 20 21
f 10 21 18
f 11 12 24
f 11 24 22
f 11 22 37
f 11 37 23
f 11 23 19
f 13 25 41
f 13 41 26
f 13 26 27
f 13 27 14
f 14 27 28
f 15 30 29
f 16 32 31
f 17 33 34
f 17 34 35
f 17 35 24
f 18 21 36
f 19 37 35
f 19 35 38
f 19 38 39
f 19 39 21
f 19 21 20
f 19 23 37
f 21 39 40
f 21 40 41
f 21 41 25
f 21 25 36
f 22 24 35
f 22 35 37
f 26 41 42
f 26 42 43
f 26 43 29
f 26 29 27
f 27 29 44
f 27 44 28
f 29 30 45
f 29 45 44
f 31 32 33
f 32 34 33
f 39 46 47
f 39 47 40
f 40 47 41
f 41 47 48
f 41 48 42
f 46 48 47

