# https://github.com/mikedh/trimesh
v -0.07412373 -0.12814247 -0.03420389
v -0.06294420 -0.13337882 -0.03420389
v -0.07412373 -0.12722568 -0.03644363
v -0.07412373 -0.14299908 -0.03420389
v -0.06294420 -0.12818945 -0.04796153
v -0.06294420 -0.14499619 -0.03420389
v -0.07412373 -0.12722568 -0.04796153
v -0.06531276 -0.12722568 -0.04796018
v -0.07344402 -0.14332960 -0.03420389
v -0.07412373 -0.14036177 -0.04796153
v -0.06533465 -0.12722568 -0.04796153
v -0.06294420 -0.14243369 -0.04796153
v -0.06616540 -0.14481005 -0.03420389
v -0.06487167 -0.14389500 -0.03996149
v -0.06294420 -0.14428120 -0.03825509
v -0.07018998 -0.14361491 -0.03859179
v -0.07055447 -0.14421161 -0.03420389
v -0.07242940 -0.14088714 -0.04796153
v -0.06389644 -0.14240760 -0.04796153
v -0.06765177 -0.14469871 -0.03420389
v -0.06770869 -0.14224929 -0.04796153
f 1 2 3
f 1 3 7
f 1 7 10
f 1 10 4
f 1 4 9
f 1 9 17
f 1 17 20
f 1 20 13
f 1 13 6
f 1 6 2
f 2 5 3
f 2 6 15
f 2 15 12
f 2 12 5
f 3 5 8
f 3 8 11
f 3 11 7
f 4 10 9
f 5 11 8
f 5 12 19
f 5 19 21
f 5 21 18
f 5 18 10
f 5 10 7
f 5 7 11
f 6 13 14
f 6 14 15
f 9 16 17
f 9 10 16
f 10 18 16
f 12 15 19
f 13 20 14
f 14 20 21
f 14 21 19
f 14 19 15
f 16 21 20
f 16 20 17
f 16 18 21

