# https://github.com/mikedh/trimesh
v 0.07184031 0.12844255 -0.04139508
v 0.06895400 0.12920607 -0.04139508
v 0.07184031 0.14256126 -0.04139508
v 0.07184031 0.12918076 -0.03768921
v 0.06688542 0.13006660 -0.04139508
v 0.07184031 0.13219685 -0.02274414
v 0.06791413 0.14345976 -0.04139508
v 0.07184031 0.14355256 -0.03964854
v 0.06688542 0.14348929 -0.04139508
v 0.06732726 0.13752037 -0.01316305
v 0.06688542 0.13617895 -0.01985351
v 0.07184031 0.13409510 -0.01722541
v 0.06732726 0.14998972 -0.01316305
v 0.06790589 0.14995597 -0.01316305
v 0.06795972 0.14994753 -0.01316305
v 0.07184031 0.14919456 -0.01316305
v 0.06688542 0.14350194 -0.04133981
v 0.07184031 0.13603552 -0.01316305
v 0.06688542 0.14773080 -0.01985351
v 0.06688542 0.14369598 -0.04042508
v 0.06688542 0.14489399 -0.03443103
v 0.06688542 0.14648218 -0.02645277
f 1 2 5
f 1 5 9
f 1 9 7
f 1 7 3
f 1 3 8
f 1 8 16
f 1 16 18
f 1 18 12
f 1 12 6
f 1 6 4
f 1 4 2
f 2 4 6
f 2 6 5
f 3 7 8
f 5 6 10
f 5 10 11
f 5 11 19
f 5 19 22
f 5 22 21
f 5 21 20
f 5 20 17
f 5 17 9
f 6 12 10
f 7 9 13
f 7 13 14
f 7 14 8
f 8 14 15
f 8 15 16
f 9 17 13
f 10 12 18
f 10 18 16
f 10 16 15
f 10 15 14
f 10 14 13
f 10 13 19
f 10 19 11
f 13 17 20
f 13 20 21
f 13 21 22
f 13 22 19

