# https://github.com/mikedh/trimesh
v -0.07865777 0.15049665 0.02668513
v -0.07865777 0.15255029 0.02582404
v -0.08060918 0.15049665 0.02890215
v -0.07865777 0.15049665 -0.00642993
v -0.07865777 0.15486250 0.02439018
v -0.08664057 0.15049665 0.03318424
v -0.07865777 0.16036401 0.02050942
v -0.07899238 0.15049665 -0.00644552
v -0.07865777 0.15051026 -0.00644552
v -0.08726339 0.15168554 0.03257641
v -0.08793401 0.15049665 0.03335957
v -0.07865777 0.16138588 0.01905608
v -0.08372891 0.15828193 0.02349013
v -0.09146567 0.15049665 -0.00644552
v -0.07865777 0.15244884 -0.00644552
v -0.08810413 0.15168554 0.03257641
v -0.08856385 0.15049665 0.03335957
v -0.08372891 0.16108032 0.01950026
v -0.07865777 0.16245724 0.01500388
v -0.09241889 0.15049665 -0.00054255
v -0.09222346 0.15548724 0.00444867
v -0.09077958 0.15308597 -0.00644552
v -0.08371767 0.15557261 -0.00644552
v -0.07865777 0.15557632 -0.00533116
v -0.08993604 0.15358082 0.02838783
v -0.08885207 0.16021555 0.01888075
v -0.09163157 0.15049665 0.02838783
v -0.07865777 0.16313272 0.01242839
v -0.08372891 0.16293478 0.01242839
v -0.09290674 0.15049665 0.01243229
v -0.09252855 0.15548724 0.01243229
v -0.09201539 0.15595736 0.00444867
v -0.09027486 0.15595736 -0.00383496
v -0.09036906 0.15410042 -0.00644552
v -0.08996415 0.15509507 -0.00644552
v -0.08372891 0.16062257 -0.00147767
v -0.07865777 0.16063123 -0.00120493
v -0.09115215 0.15624313 0.02108608
v -0.08973499 0.16099620 0.01242839
v -0.09302061 0.15049665 0.02063800
v -0.07865777 0.16237930 0.00444867
v -0.08372891 0.16247827 0.00444867
v -0.08973499 0.16104691 0.00444867
v -0.09229095 0.15595736 0.01243229
v -0.08885207 0.16028360 -0.00138416
v -0.07865777 0.16130794 0.00095754
f 1 2 3
f 1 3 6
f 1 6 11
f 1 11 17
f 1 17 27
f 1 27 40
f 1 40 30
f 1 30 20
f 1 20 14
f 1 14 8
f 1 8 4
f 1 4 9
f 1 9 15
f 1 15 24
f 1 24 37
f 1 37 46
f 1 46 41
f 1 41 28
f 1 28 19
f 1 19 12
f 1 12 7
f 1 7 5
f 1 5 2
f 2 5 3
f 3 5 7
f 3 7 6
f 4 8 9
f 6 10 11
f 6 7 10
f 7 12 13
f 7 13 10
f 8 14 22
f 8 22 34
f 8 34 35
f 8 35 23
f 8 23 15
f 8 15 9
f 10 16 17
f 10 17 11
f 10 13 16
f 12 18 13
f 12 19 18
f 13 18 16
f 14 20 21
f 14 21 22
f 15 23 24
f 16 25 17
f 16 18 26
f 16 26 25
f 17 25 27
f 18 19 28
f 18 28 29
f 18 29 26
f 20 30 31
f 20 31 21
f 21 31 32
f 21 32 33
f 21 33 22
f 22 33 34
f 23 35 36
f 23 36 37
f 23 37 24
f 25 26 38
f 25 38 27
f 26 29 39
f 26 39 38
f 27 38 40
f 28 41 42
f 28 42 29
f 29 42 43
f 29 43 39
f 30 40 31
f 31 43 32
f 31 40 38
f 31 38 44
f 31 44 43
f 32 43 45
f 32 45 33
f 33 35 34
f 33 45 35
f 35 45 36
f 36 45 42
f 36 42 37
f 37 42 46
f 38 39 44
f 39 43 44
f 41 46 42
f 42 45 43

