# https://github.com/mikedh/trimesh
v -1.27030122 -0.32796282 0.4409028
v -1.27030122 -0.42793815 0.44056613
v -1.27030122 -0.32796282 0.3959398
v -1.3464083599999999 -0.32796282 0.44083732
v -1.3462642 -0.42793815 0.44055211
v -1.27030122 -0.42793815 0.39681415
v -1.27030122 -0.42787943 0.39680949
v -1.42965053 -0.32796282 0.39356912
v -1.98005784 -0.32796282 0.44000037
v -1.9799136800000001 -0.42793815 0.43958419
v -1.44629896 -0.42793815 0.39473809
v -1.44622689 -0.32796282 0.39336342
v -1.9967063 -0.32796282 0.43997228
v -1.99663425 -0.42793815 0.4395468
v -1.4630194699999999 -0.42793815 0.39464922
v -1.4630194699999999 -0.32796282 0.39325117
v -2.0065800400000002 -0.32796282 0.4399489
v -2.0065800400000002 -0.42793815 0.4395094
v -1.4796679 -0.42793815 0.39459316
v -1.49638841 -0.42793815 0.39453704
v -1.4796679 -0.32796282 0.39320441
v -2.0065800400000002 -0.32796282 0.39442951
v -2.0065800400000002 -0.42793815 0.39521033
v -1.51303684 -0.42793815 0.39449028
v -1.57977471 -0.42793815 0.3943079
v -1.59642317 -0.42793815 0.3942705
v -1.66294481 -0.32796282 0.39313428
v -1.86315845 -0.32796282 0.39339145
v -1.8463659 -0.32796282 0.39328392
v -1.6130715899999999 -0.42793815 0.39427987
v -1.6797373899999999 -0.32796282 0.39313893
v -1.82986159 -0.32796282 0.39326519
f 1 2 6
f 1 6 7
f 1 7 3
f 1 3 8
f 1 8 12
f 1 12 16
f 1 16 21
f 1 21 27
f 1 27 31
f 1 31 32
f 1 32 29
f 1 29 28
f 1 28 22
f 1 22 17
f 1 17 13
f 1 13 9
f 1 9 4
f 1 4 5
f 1 5 2
f 2 5 10
f 2 10 14
f 2 14 18
f 2 18 23
f 2 23 30
f 2 30 26
f 2 26 25
f 2 25 24
f 2 24 20
f 2 20 19
f 2 19 15
f 2 15 11
f 2 11 6
f 3 7 8
f 4 9 5
f 5 9 10
f 6 11 7
f 7 12 8
f 7 11 12
f 9 13 10
f 10 13 14
f 11 15 16
f 11 16 12
f 13 17 14
f 14 17 18
f 15 19 16
f 16 19 20
f 16 20 24
f 16 24 21
f 17 22 23
f 17 23 18
f 21 24 25
f 21 25 26
f 21 26 27
f 22 28 23
f 23 28 29
f 23 29 30
f 26 30 31
f 26 31 27
f 29 32 30
f 30 32 31

