# https://github.com/mikedh/trimesh
v 0.33523571 1.94270846 0.89162483
v 0.37868594 1.94270846 0.89162483
v 0.33517575 1.94270846 0.89422321
v 0.33495747 1.94280727 0.89162483
v 0.37868594 2.01480220 0.89162483
v 0.37868594 1.94270846 0.90885488
v 0.33616883 1.94270846 1.02042131
v 0.33498316 2.01480220 0.89162483
v 0.33601046 2.01480220 1.02048438
v 0.37868594 2.01480220 0.91020452
v 0.37868594 1.95165755 0.90909453
v 0.37533011 2.01480220 1.02048438
v 0.37530013 2.00569080 1.02048438
v 0.37483360 1.94270846 1.02048438
v 0.34434009 1.94270846 1.02048438
v 0.33617312 1.95570158 1.02048438
v 0.37868594 2.01219793 0.91016668
v 0.37868594 2.00569080 0.91005316
f 1 2 6
f 1 6 14
f 1 14 15
f 1 15 7
f 1 7 3
f 1 3 4
f 1 4 8
f 1 8 5
f 1 5 2
f 2 5 10
f 2 10 17
f 2 17 18
f 2 18 11
f 2 11 6
f 3 7 4
f 4 7 9
f 4 9 8
f 5 8 9
f 5 9 12
f 5 12 10
f 6 11 12
f 6 12 13
f 6 13 14
f 7 15 16
f 7 16 9
f 9 16 15
f 9 15 14
f 9 14 13
f 9 13 12
f 10 12 17
f 11 18 12
f 12 18 17

