# https://github.com/mikedh/trimesh
v -3.905990845 -0.7113823100000001 0.62550148
v -3.906690375 -0.6983192 0.62550148
v -3.906917485 -0.72455263 0.62550148
v -3.906853915 -0.72597108 0.50885909
v -3.9061725649999994 -0.71428521 0.49549728
v -3.9060090350000003 -0.7113823100000001 0.49549728
v -3.908570985 -0.68927233 0.57555372
v -3.9086708850000003 -0.689495 0.59223689
v -3.9087799050000003 -0.68980014 0.60890736
v -3.909106985 -0.6899403399999999 0.62550148
v -3.906799395 -0.69762645 0.50885909
v -3.9068175849999998 -0.6972800800000001 0.52554232
v -3.908425575 -0.68894245 0.52554232
v -3.908752655 -0.7328902500000001 0.62550148
v -3.908243915 -0.73430873 0.50885909
v -3.906853915 -0.72585565 0.49549728
v -3.9067630749999998 -0.6986160800000001 0.49549728
v -3.9365889249999997 -0.66496043 0.62550148
v -3.907126475 -0.69695845 0.49549728
v -3.9086163750000003 -0.68928883 0.50885909
v -3.936171025 -0.66470478 0.49549728
v -3.9361528349999997 -0.66465529 0.50885909
v -3.936171025 -0.6646800500000001 0.52554232
v -3.936443585 -0.66483672 0.59223689
v -3.9170926550000003 -0.7395042700000001 0.62550148
v -3.916574795 -0.73952902 0.50885909
v -3.9166111150000003 -0.73952079 0.49549728
v -3.9082711649999995 -0.73419327 0.49549728
v -3.9170381450000002 -0.73952902 0.60890736
v -3.949307855 -0.6593442899999999 0.62550148
v -3.9365344149999997 -0.66488621 0.60890736
v -3.9091524250000003 -0.69027846 0.49549728
v -3.9158298149999995 -0.68368092 0.49549728
v -3.9387874849999998 -0.6636161899999999 0.49549728
v -3.949307855 -0.65920409 0.52554232
v -3.949307855 -0.65920409 0.50885909
v -3.9326279049999995 -0.74270408 0.62550148
v -3.9326279049999995 -0.74270408 0.52554232
v -3.9326279049999995 -0.74269582 0.50885909
v -3.9294390649999995 -0.7420525600000001 0.49549728
v -3.9326279049999995 -0.74273707 0.60890736
v -3.965969675 -0.65868454 0.62550148
v -3.949307855 -0.6593855200000001 0.49549728
v -3.965969675 -0.6589319499999999 0.50885909
v -3.949307855 -0.74285253 0.62550148
v -3.949307855 -0.74285253 0.60890736
v -3.949307855 -0.74281955 0.54221278
v -3.949307855 -0.74280303 0.52554232
v -3.9326279049999995 -0.7426793300000001 0.49549728
v -3.9826496249999996 -0.6600122900000001 0.62550148
v -3.9826496249999996 -0.66005352 0.52554232
v -3.9826496249999996 -0.66004527 0.54221278
v -3.9526147949999997 -0.65933603 0.49549728
v -3.965969675 -0.6591711 0.49549728
v -3.9826496249999996 -0.66021021 0.49549728
v -3.9826496249999996 -0.66009476 0.50885909
v -3.965969675 -0.7429267500000001 0.62550148
v -3.965969675 -0.74286902 0.52554232
v -3.965969675 -0.74285253 0.50885909
v -3.965969675 -0.74289374 0.55889596
v -3.965969675 -0.74283604 0.49549728
v -3.949307855 -0.74276182 0.49549728
v -3.994596325 -0.66539753 0.62550148
v -3.994714415 -0.66538927 0.52554232
v -3.994723475 -0.6654057600000001 0.50885909
v -3.994696285 -0.66543051 0.49549728
v -3.9826496249999996 -0.74244843 0.62550148
v -3.9793336349999997 -0.74246492 0.49549728
v -3.9826496249999996 -0.7424401700000001 0.60890736
v -3.9946871550000003 -0.66549649 0.62550148
v -3.9946871550000003 -0.66539753 0.55889596
v -3.994659905 -0.66543051 0.60890736
v -3.9986300449999996 -0.67804003 0.50885909
v -3.998620925 -0.67804003 0.52554232
v -3.998602785 -0.67804003 0.55889596
v -3.9985755349999996 -0.67804003 0.60890736
v -3.9978123649999997 -0.67552473 0.49549728
v -3.993987625 -0.73918265 0.62550148
v -3.9940058149999995 -0.73918265 0.60890736
v -3.9826496249999996 -0.7423659499999999 0.49549728
v -3.9939694349999995 -0.7391331800000001 0.49549728
v -3.9985664649999997 -0.67813901 0.62550148
v -3.998766325 -0.6947152999999999 0.50885909
v -3.9988026449999996 -0.6947152999999999 0.55889596
v -3.9987935849999996 -0.6947152999999999 0.60890736
v -3.9985845949999996 -0.67804003 0.49549728
v -3.998720875 -0.69140003 0.49549728
v -3.9987481349999996 -0.6947152999999999 0.49549728
v -3.9978123649999997 -0.72812354 0.62550148
v -3.9979032549999998 -0.7280658099999999 0.60890736
v -3.9979123249999997 -0.7280658099999999 0.59223689
v -3.997839615 -0.7280658099999999 0.49549728
v -3.9987481349999996 -0.69481426 0.62550148
v -3.9987390649999996 -0.70806705 0.49549728
v -3.9987935849999996 -0.7113823100000001 0.57555372
v -3.9987935849999996 -0.7113823100000001 0.59223689
v -3.998775395 -0.7113823100000001 0.60890736
v -3.9987026849999996 -0.7114812699999999 0.62550148
v -3.9980213449999997 -0.72475055 0.49549728
v -3.998729945 -0.7113823100000001 0.49549728
f 1 2 10
f 1 10 18
f 1 18 30
f 1 30 42
f 1 42 50
f 1 50 63
f 1 63 70
f 1 70 82
f 1 82 93
f 1 93 98
f 1 98 89
f 1 89 78
f 1 78 67
f 1 67 57
f 1 57 45
f 1 45 37
f 1 37 25
f 1 25 14
f 1 14 3
f 1 3 4
f 1 4 5
f 1 5 6
f 1 6 2
f 2 7 8
f 2 8 9
f 2 9 10
f 2 6 11
f 2 11 12
f 2 12 13
f 2 13 7
f 3 14 15
f 3 15 4
f 4 15 16
f 4 16 5
f 5 16 28
f 5 28 27
f 5 27 40
f 5 40 49
f 5 49 62
f 5 62 61
f 5 61 68
f 5 68 80
f 5 80 81
f 5 81 92
f 5 92 99
f 5 99 100
f 5 100 94
f 5 94 88
f 5 88 87
f 5 87 86
f 5 86 77
f 5 77 66
f 5 66 55
f 5 55 54
f 5 54 53
f 5 53 43
f 5 43 34
f 5 34 21
f 5 21 33
f 5 33 32
f 5 32 19
f 5 19 17
f 5 17 6
f 6 17 11
f 7 18 8
f 7 13 18
f 8 18 9
f 9 18 10
f 11 13 12
f 11 17 13
f 13 17 19
f 13 19 20
f 13 20 21
f 13 21 22
f 13 22 23
f 13 23 24
f 13 24 18
f 14 25 15
f 15 26 27
f 15 27 28
f 15 28 16
f 15 25 29
f 15 29 26
f 18 24 31
f 18 31 30
f 19 32 20
f 20 32 33
f 20 33 21
f 21 34 22
f 22 35 30
f 22 30 23
f 22 34 36
f 22 36 35
f 23 30 24
f 24 30 31
f 25 37 29
f 26 38 39
f 26 39 40
f 26 40 27
f 26 29 41
f 26 41 38
f 29 37 41
f 30 35 42
f 34 43 36
f 35 36 42
f 36 43 44
f 36 44 42
f 37 45 41
f 38 41 46
f 38 46 39
f 39 46 47
f 39 47 48
f 39 48 49
f 39 49 40
f 41 45 46
f 42 44 51
f 42 51 52
f 42 52 50
f 43 53 44
f 44 53 54
f 44 54 55
f 44 55 56
f 44 56 51
f 45 57 46
f 46 57 47
f 47 58 59
f 47 59 48
f 47 57 60
f 47 60 58
f 48 59 61
f 48 61 62
f 48 62 49
f 50 52 64
f 50 64 63
f 51 56 65
f 51 65 64
f 51 64 52
f 55 66 56
f 56 66 65
f 57 67 60
f 58 68 59
f 58 60 68
f 59 68 61
f 60 67 69
f 60 69 68
f 63 64 71
f 63 71 72
f 63 72 70
f 64 65 73
f 64 73 74
f 64 74 75
f 64 75 76
f 64 76 70
f 64 70 72
f 64 72 71
f 65 66 73
f 66 77 73
f 67 78 79
f 67 79 69
f 68 69 80
f 69 79 81
f 69 81 80
f 70 76 82
f 73 83 84
f 73 84 85
f 73 85 74
f 73 77 86
f 73 86 87
f 73 87 88
f 73 88 83
f 74 85 75
f 75 85 76
f 76 85 82
f 78 89 90
f 78 90 79
f 79 90 91
f 79 91 81
f 81 91 92
f 82 85 93
f 83 88 94
f 83 94 95
f 83 95 84
f 84 95 96
f 84 96 85
f 85 96 97
f 85 97 93
f 89 98 90
f 90 98 97
f 90 97 96
f 90 96 91
f 91 96 95
f 91 95 99
f 91 99 92
f 93 97 98
f 94 100 95
f 95 100 99

