# https://github.com/mikedh/trimesh
v -3.36678547 2.05489659 0.90371499
v -3.36678547 2.05489659 0.82879187
v -3.39807125 2.05489659 0.90381784
v -3.36678547 1.94270846 0.89664067
v -3.55207484 2.05489659 0.82988645
v -3.36678547 1.94270846 0.83708564
v -3.72586931 1.94270846 0.83271469
v -3.41473362 2.05489659 0.90383987
v -3.56030053 1.94270846 0.89629541
v -3.54827836 2.05489659 0.90378110
v -3.59805441 1.94271944 0.89633213
v -3.56030053 2.05489659 0.82994522
v -3.72586931 1.94270846 0.89570772
v -3.72586931 2.00566603 0.83258247
v -3.72070184 2.04997682 0.83162013
v -3.61471679 1.94271944 0.89629541
v -3.67159366 1.94270846 0.89591341
v -3.56030053 2.05489659 0.90372968
v -3.63137910 1.94271944 0.89622929
v -3.72586931 1.95415130 0.89644233
v -3.72586931 2.01479175 0.83259717
v -3.72070184 2.04997682 0.90222373
v -3.72586931 1.97239175 0.89691982
v -3.72586931 2.01479175 0.89733856
v -3.72586931 2.00566603 0.89731652
f 1 2 5
f 1 5 12
f 1 12 18
f 1 18 10
f 1 10 8
f 1 8 3
f 1 3 4
f 1 4 6
f 1 6 2
f 2 6 7
f 2 7 5
f 3 8 4
f 4 9 17
f 4 17 13
f 4 13 7
f 4 7 6
f 4 8 10
f 4 10 11
f 4 11 9
f 5 7 12
f 7 13 20
f 7 20 23
f 7 23 25
f 7 25 24
f 7 24 21
f 7 21 14
f 7 14 15
f 7 15 12
f 9 11 16
f 9 16 17
f 10 18 19
f 10 19 16
f 10 16 11
f 12 15 22
f 12 22 18
f 13 17 16
f 13 16 19
f 13 19 20
f 14 21 15
f 15 21 24
f 15 24 22
f 18 22 20
f 18 20 19
f 20 22 23
f 22 24 25
f 22 25 23

