# https://github.com/mikedh/trimesh
v -2.231586325 -0.31830376 0.87109824
v -2.248248555 -0.31830376 0.87124567
v -2.231597775 -0.28331338 0.85033393
v -2.214591465 -0.28292315 0.85033393
v -2.198250275 -0.28093654 0.85033393
v -2.225393885 -0.31830376 0.87389958
v -2.2460927049999997 -0.27686872 0.85033393
v -2.2595555349999996 -0.31830376 0.87487022
v -2.297891375 -0.29474822 0.87472278
v -2.185853945 -0.27458647 0.85033393
v -2.2171487049999996 -0.31830376 0.87765926
v -2.263557715 -0.25822058000000003 0.85033393
v -2.297891375 -0.29444077 0.87458763
v -2.265679155 -0.31830376 0.87733982
v -2.297891375 -0.30485867 0.88080463
v -2.297891375 -0.30101551 0.87848248
v -2.1817485349999997 -0.26109407 0.85033393
v -2.180980235 -0.26109407 0.9091129
v -2.180819685 -0.26109407 0.92577349
v -2.1854411049999998 -0.27496488 0.9091129
v -2.211151235 -0.31830376 0.89244002
v -2.2711032949999996 -0.24445619000000002 0.85033393
v -2.297891375 -0.27814582 0.87154055
v -2.297891375 -0.31830376 0.90182696
v -2.297891375 -0.30507151 0.88106265
v -2.181691225 -0.25235535 0.85033393
v -2.181668255 -0.24445619000000002 0.85033393
v -2.181668255 -0.22778285 0.85033393
v -2.185360835 -0.27503582 0.92577349
v -2.1812325149999996 -0.22778285 0.9091129
v -2.1811293349999996 -0.22778285 0.92577349
v -2.181049065 -0.22778285 0.94243408
v -2.180750855 -0.26109407 0.94243408
v -2.185337875 -0.27505947000000003 0.94243408
v -2.1853722849999997 -0.27503582 0.95913154
v -2.185418145 -0.27501218 0.97585356
v -2.2113346949999997 -0.31830376 0.9091129
v -2.297891375 -0.27776743 0.87149141
v -2.272708775 -0.22778285 0.85033393
v -2.297891375 -0.31830376 0.95211591
v -2.182505385 -0.21904413 0.85033393
v -2.182860905 -0.21109767000000002 0.9091129
v -2.183273745 -0.21109767000000002 0.85033393
v -2.182780625 -0.21109767000000002 0.92577349
v -2.1827233149999996 -0.21109767000000002 0.94243408
v -2.182677445 -0.21109767000000002 0.97580442
v -2.181026105 -0.22778285 0.95913154
v -2.1808885049999995 -0.24445619000000002 0.95913154
v -2.180945825 -0.24446802 0.97585356
v -2.180819685 -0.26109407 0.95913154
v -2.1809114149999997 -0.26109407 0.97580442
v -2.1809343749999996 -0.26111772 0.97585356
v -2.198250275 -0.28142137 0.97585356
v -2.2223664249999997 -0.31830376 0.95126813
v -2.2190523349999998 -0.31830376 0.94623064
v -2.216563865 -0.31830376 0.94244637
v -2.213697025 -0.31830376 0.93293656
v -2.211541105 -0.31830376 0.92577349
v -2.211414965 -0.31830376 0.9162514
v -2.297891375 -0.26112955 0.87117196
v -2.297891375 -0.24445619000000002 0.87165114
v -2.271527585 -0.22071146000000003 0.85033393
v -2.231586325 -0.31830376 0.95180874
v -2.214924025 -0.28229643 0.97585356
v -2.231597775 -0.28179978 0.97585356
v -2.2448657049999996 -0.27528416 0.97585356
v -2.262388025 -0.25675427 0.97585356
v -2.270484035 -0.24445619000000002 0.97585356
v -2.272559675 -0.22778285 0.97585356
v -2.297891375 -0.26073932 0.95279166
v -2.185418145 -0.20561084000000002 0.85033393
v -2.187390545 -0.20063249 0.85033393
v -2.187184125 -0.20049058 0.9091129
v -2.187080945 -0.20043147 0.97580442
v -2.187080945 -0.20044328 0.97585356
v -2.182677445 -0.21116864000000002 0.97585356
v -2.181049065 -0.22781832000000002 0.97585356
v -2.269968025 -0.21168892 0.85033393
v -2.297891375 -0.23083371 0.87816302
v -2.2693831749999998 -0.21110951 0.97585356
v -2.297891375 -0.23453496000000001 0.9518456
v -2.297891375 -0.24445619000000002 0.95288995
v -2.198250275 -0.19799550999999999 0.85033393
v -2.198250275 -0.19788908 0.9091129
v -2.198250275 -0.19784178000000002 0.97580442
v -2.1982961449999996 -0.19784178000000002 0.97585356
v -2.266653935 -0.2071481 0.85033393
v -2.297891375 -0.22572528 0.89202228
v -2.261654075 -0.20037234 0.85033393
v -2.261527935 -0.20058520000000002 0.97585356
v -2.297891375 -0.22922551000000002 0.94243408
v -2.214924025 -0.19755798000000002 0.85033393
v -2.214924025 -0.19749885 0.89242773
v -2.214924025 -0.19758163 0.97580442
v -2.214969885 -0.19758163 0.97585356
v -2.297891375 -0.22559522 0.89242773
v -2.2616311749999998 -0.20033685 0.85908197
v -2.248214205 -0.19772351999999999 0.87579171
v -2.248214205 -0.19784178000000002 0.85033393
v -2.297891375 -0.22550061 0.90869515
v -2.297891375 -0.22544148 0.92533117
v -2.248271515 -0.19813740000000002 0.97585356
v -2.248214205 -0.19799550999999999 0.95913154
v -2.2614935249999997 -0.20047877 0.95913154
v -2.297891375 -0.22544148 0.92577349
v -2.231597775 -0.19764073 0.85033393
v -2.231597775 -0.19755798000000002 0.89242773
v -2.231643635 -0.19773535 0.97585356
v -2.261550895 -0.20028955 0.87579171
v -2.248214205 -0.19773535 0.89242773
v -2.2394988749999998 -0.19772351999999999 0.85033393
f 1 2 3
f 1 3 4
f 1 4 5
f 1 5 6
f 1 6 11
f 1 11 21
f 1 21 37
f 1 37 59
f 1 59 58
f 1 58 57
f 1 57 56
f 1 56 55
f 1 55 54
f 1 54 63
f 1 63 40
f 1 40 24
f 1 24 14
f 1 14 8
f 1 8 2
f 2 7 3
f 2 8 9
f 2 9 7
f 3 7 12
f 3 12 22
f 3 22 39
f 3 39 62
f 3 62 78
f 3 78 87
f 3 87 89
f 3 89 99
f 3 99 111
f 3 111 106
f 3 106 92
f 3 92 83
f 3 83 72
f 3 72 71
f 3 71 43
f 3 43 41
f 3 41 28
f 3 28 27
f 3 27 26
f 3 26 17
f 3 17 10
f 3 10 5
f 3 5 4
f 5 10 11
f 5 11 6
f 7 9 13
f 7 13 12
f 8 14 15
f 8 15 16
f 8 16 9
f 9 16 15
f 9 15 25
f 9 25 24
f 9 24 40
f 9 40 70
f 9 70 82
f 9 82 81
f 9 81 91
f 9 91 105
f 9 105 101
f 9 101 100
f 9 100 96
f 9 96 88
f 9 88 79
f 9 79 61
f 9 61 60
f 9 60 38
f 9 38 23
f 9 23 13
f 10 17 18
f 10 18 19
f 10 19 20
f 10 20 21
f 10 21 11
f 12 13 22
f 13 23 22
f 14 24 25
f 14 25 15
f 17 26 18
f 18 26 27
f 18 27 28
f 18 28 19
f 19 29 20
f 19 28 30
f 19 30 31
f 19 31 32
f 19 32 33
f 19 33 29
f 20 29 21
f 21 29 34
f 21 34 35
f 21 35 36
f 21 36 37
f 22 23 38
f 22 38 39
f 28 41 30
f 29 33 34
f 30 42 31
f 30 41 43
f 30 43 42
f 31 42 44
f 31 44 32
f 32 44 45
f 32 45 46
f 32 46 47
f 32 47 33
f 33 47 48
f 33 48 49
f 33 49 50
f 33 50 36
f 33 36 35
f 33 35 34
f 36 50 51
f 36 51 52
f 36 52 49
f 36 49 77
f 36 77 76
f 36 76 75
f 36 75 86
f 36 86 95
f 36 95 108
f 36 108 102
f 36 102 90
f 36 90 80
f 36 80 69
f 36 69 68
f 36 68 67
f 36 67 66
f 36 66 65
f 36 65 64
f 36 64 53
f 36 53 54
f 36 54 55
f 36 55 56
f 36 56 57
f 36 57 58
f 36 58 59
f 36 59 37
f 38 60 39
f 39 60 61
f 39 61 62
f 40 63 64
f 40 64 65
f 40 65 66
f 40 66 67
f 40 67 68
f 40 68 69
f 40 69 70
f 42 43 71
f 42 71 72
f 42 72 44
f 44 72 73
f 44 73 45
f 45 73 74
f 45 74 46
f 46 74 75
f 46 75 76
f 46 76 77
f 46 77 47
f 47 77 48
f 48 77 49
f 49 52 51
f 49 51 50
f 53 64 63
f 53 63 54
f 61 78 62
f 61 79 78
f 69 80 81
f 69 81 82
f 69 82 70
f 72 83 73
f 73 84 74
f 73 83 84
f 74 85 86
f 74 86 75
f 74 84 85
f 78 79 87
f 79 88 89
f 79 89 87
f 80 90 81
f 81 90 91
f 83 92 84
f 84 92 93
f 84 93 85
f 85 94 95
f 85 95 86
f 85 93 94
f 88 96 89
f 89 97 98
f 89 98 99
f 89 96 100
f 89 100 101
f 89 101 97
f 90 102 103
f 90 103 104
f 90 104 105
f 90 105 91
f 92 106 107
f 92 107 93
f 93 107 95
f 93 95 94
f 95 107 108
f 97 109 98
f 97 101 105
f 97 105 109
f 98 109 110
f 98 110 107
f 98 107 106
f 98 106 111
f 98 111 99
f 102 108 103
f 103 108 110
f 103 110 104
f 104 110 109
f 104 109 105
f 107 110 108

