# https://github.com/mikedh/trimesh
v 2.32110682 2.10569250 0.47023458
v 2.32007065 2.08904023 0.43688408
v 2.32058432 2.09765913 0.42823127
v 2.32104483 2.10569250 0.42823127
v 2.31935336 2.11887066 0.42823127
v 2.31937100 2.11897994 0.47023458
v 2.31936218 2.11905802 0.48690983
v 2.31892825 2.11852712 0.82018568
v 2.32108024 2.10569250 0.48690983
v 2.31977846 2.08904023 0.55355354
v 2.31746698 2.08031985 1.01364154
v 2.31829060 2.07879751 0.55355354
v 2.31837917 2.07830564 0.43688408
v 2.31922938 2.08387202 0.42823127
v 2.32003524 2.08904023 0.42823127
v 2.30899172 2.12698989 0.42823127
v 2.30899172 2.12722410 0.48690983
v 2.31001014 2.12574858 1.01364154
v 2.31839682 2.11780891 0.97014835
v 2.31837917 2.11763716 0.98682361
v 2.31832600 2.11741075 1.01364154
v 2.32010605 2.10569250 0.82018568
v 2.31816662 2.08903242 1.01364154
v 2.31775034 2.08376273 1.01364154
v 2.31230386 2.07199763 1.01364154
v 2.30852233 2.05114523 0.85353619
v 2.30911570 2.05114523 0.83686094
v 2.30963820 2.05114523 0.82018568
v 2.31071860 2.05115304 0.48690983
v 2.31822861 2.07868819 0.57022878
v 2.31834377 2.07839154 0.42823127
v 2.30096810 2.12853566 0.42823127
v 2.30071126 2.13069038 0.59446807
v 2.30167657 2.13090117 1.01364154
v 2.30899172 2.12674005 0.82018568
v 2.31334004 2.12244622 1.01364154
v 2.31903447 2.10569250 1.01364154
v 2.31851197 2.09557465 1.01364154
v 2.29684116 2.05114523 1.01364154
v 2.30946105 2.05114523 0.80803738
v 2.30943447 2.05115304 0.47481881
v 2.30933708 2.05114523 0.80351042
v 2.30862861 2.05115304 0.47023458
v 2.31298580 2.07005370 0.42823127
v 2.29233340 2.13019855 0.42823127
v 2.29994080 2.13069038 0.59446807
v 2.29626549 2.13090117 1.01364154
v 2.25046182 2.05114523 1.01364154
v 2.29735478 2.05114523 0.73686670
v 2.29786845 2.05115304 0.42823127
v 2.27567508 2.12951935 0.42823127
v 2.29355555 2.13062014 0.60277706
v 2.29191718 2.13065915 0.67005109
v 2.29197029 2.13089337 1.01364154
v 2.23063304 2.06158313 1.01364154
v 2.23063304 2.05114523 0.90499453
v 2.25437621 2.05114523 0.73612176
v 2.25275554 2.05115304 0.42823127
v 2.26765146 2.12677909 0.42823127
v 2.23063304 2.12525675 0.48690983
v 2.23063304 2.12541288 0.50358507
v 2.23063304 2.12687279 0.82018568
v 2.27567508 2.12990970 0.63692981
v 2.28357473 2.13072942 0.95347310
v 2.28343305 2.13074504 0.97014835
v 2.28341534 2.13076066 0.98682361
v 2.28362784 2.13073723 1.00006066
v 2.28650611 2.13074504 1.01364154
v 2.23063304 2.11564638 1.01364154
v 2.23063304 2.05114523 0.83262048
v 2.25341090 2.05114523 0.73612176
v 2.23063304 2.06219989 0.42823127
v 2.23063304 2.05115304 0.50100644
v 2.25900794 2.12381246 0.42823127
v 2.23063304 2.11334332 0.42823127
v 2.23063304 2.12675567 0.83187554
v 2.27567508 2.12992529 0.65360506
v 2.28429208 2.13066696 1.01364154
v 2.27627733 2.12969110 1.01364154
v 2.23063304 2.12577981 0.85353619
v 2.23063304 2.12670104 0.83686094
v 2.28194518 2.13040153 1.01364154
f 1 2 3
f 1 3 4
f 1 4 5
f 1 5 6
f 1 6 7
f 1 7 8
f 1 8 9
f 1 9 2
f 2 9 10
f 2 10 11
f 2 11 12
f 2 12 13
f 2 13 14
f 2 14 15
f 2 15 3
f 3 15 14
f 3 14 31
f 3 31 44
f 3 44 50
f 3 50 58
f 3 58 72
f 3 72 75
f 3 75 74
f 3 74 59
f 3 59 51
f 3 51 45
f 3 45 32
f 3 32 16
f 3 16 5
f 3 5 4
f 5 16 17
f 5 17 7
f 5 7 6
f 7 17 18
f 7 18 8
f 8 18 19
f 8 19 20
f 8 20 21
f 8 21 22
f 8 22 9
f 9 22 10
f 10 22 23
f 10 23 24
f 10 24 11
f 11 24 23
f 11 23 38
f 11 38 37
f 11 37 21
f 11 21 36
f 11 36 18
f 11 18 34
f 11 34 47
f 11 47 54
f 11 54 68
f 11 68 78
f 11 78 82
f 11 82 79
f 11 79 69
f 11 69 55
f 11 55 48
f 11 48 39
f 11 39 25
f 11 25 26
f 11 26 27
f 11 27 28
f 11 28 29
f 11 29 30
f 11 30 12
f 12 30 13
f 13 29 31
f 13 31 14
f 13 30 29
f 16 32 33
f 16 33 17
f 17 33 34
f 17 34 35
f 17 35 18
f 18 35 34
f 18 36 19
f 19 36 21
f 19 21 20
f 21 37 22
f 22 37 38
f 22 38 23
f 25 39 26
f 26 39 48
f 26 48 56
f 26 56 70
f 26 70 71
f 26 71 57
f 26 57 49
f 26 49 42
f 26 42 40
f 26 40 28
f 26 28 27
f 28 40 29
f 29 41 31
f 29 40 42
f 29 42 41
f 31 41 43
f 31 43 44
f 32 45 33
f 33 46 47
f 33 47 34
f 33 45 46
f 41 42 43
f 42 49 43
f 43 49 50
f 43 50 44
f 45 51 52
f 45 52 46
f 46 52 53
f 46 53 54
f 46 54 47
f 48 55 56
f 49 57 50
f 50 57 71
f 50 71 58
f 51 59 60
f 51 60 61
f 51 61 62
f 51 62 63
f 51 63 52
f 52 63 53
f 53 63 64
f 53 64 65
f 53 65 66
f 53 66 54
f 54 66 67
f 54 67 68
f 55 69 80
f 55 80 81
f 55 81 76
f 55 76 62
f 55 62 61
f 55 61 60
f 55 60 75
f 55 75 72
f 55 72 73
f 55 73 70
f 55 70 56
f 58 71 73
f 58 73 72
f 59 74 60
f 60 74 75
f 62 76 67
f 62 67 66
f 62 66 77
f 62 77 63
f 63 77 66
f 63 66 65
f 63 65 64
f 67 76 78
f 67 78 68
f 69 79 80
f 70 73 71
f 76 81 78
f 78 81 82
f 79 82 81
f 79 81 80

