# https://github.com/mikedh/trimesh
v 0.26753744 1.48917787 0.22488025
v 0.26465636 1.50328331 0.22488025
v 0.26462501 1.50355457 0.24154490
v 0.26752695 1.48917787 0.24154490
v 0.26427012 1.47454802 0.32489530
v 0.26431184 1.47460226 0.25820954
v 0.26432233 1.47465651 0.24154490
v 0.26431184 1.47474693 0.22488025
v 0.26428061 1.47480120 0.20775349
v 0.26748522 1.48917787 0.20775349
v 0.26741215 1.48955764 0.20775349
v 0.26463550 1.50317479 0.20775349
v 0.24849735 1.53916173 0.24154490
v 0.24855999 1.53916173 0.25820954
v 0.26458329 1.50370829 0.25820954
v 0.26744350 1.48917787 0.34155994
v 0.26427012 1.47461130 0.34155994
v 0.25978156 1.46616614 0.30823066
v 0.26425975 1.47449375 0.30823066
v 0.26424926 1.47460226 0.35819741
v 0.26413446 1.47473790 0.48547936
v 0.25967713 1.46626559 0.25820954
v 0.25957276 1.46647355 0.20775349
v 0.24828861 1.53916173 0.20775349
v 0.24829904 1.53916173 0.20821561
v 0.24857042 1.53916173 0.27487419
v 0.24853913 1.53916173 0.30823066
v 0.24851827 1.53916173 0.32489530
v 0.26448935 1.50309343 0.48547936
v 0.26460415 1.50324713 0.34155994
v 0.26721378 1.48917787 0.47484986
v 0.26525134 1.47998223 0.48547936
v 0.25144107 1.45990912 0.30823066
v 0.25123227 1.45955647 0.20821561
v 0.25123227 1.45955647 0.20775349
v 0.25946839 1.46640122 0.48547936
v 0.25146193 1.45974634 0.20775349
v 0.18297407 1.53916173 0.20775349
v 0.24848692 1.53916173 0.34155994
v 0.24820510 1.53916173 0.48547936
v 0.26621170 1.49423232 0.48547936
v 0.26719292 1.48917787 0.48547936
v 0.23643029 1.45260323 0.30823066
v 0.25083560 1.45935756 0.20775349
v 0.25113833 1.46044259 0.48547936
v 0.16565633 1.50584218 0.20775349
v 0.18078191 1.53916173 0.40819134
v 0.18087585 1.53916173 0.48547936
v 0.23643029 1.45238621 0.20775349
v 0.23643029 1.45329945 0.48547936
v 0.22268260 1.44870615 0.48547936
v 0.16189841 1.49330099 0.20775349
v 0.16582335 1.50584218 0.39152670
v 0.18078191 1.53916173 0.42485599
v 0.16604257 1.50584218 0.48547936
v 0.23602318 1.45228675 0.20775349
v 0.22287053 1.44855243 0.30823066
v 0.22281832 1.44854337 0.29153883
v 0.22261995 1.44857052 0.27487419
v 0.21434217 1.44688870 0.48547936
v 0.16089633 1.48503665 0.20775349
v 0.16118863 1.48288470 0.39152670
v 0.16228465 1.49121231 0.39152670
v 0.16473776 1.49977504 0.48547936
v 0.22113769 1.44867903 0.20775349
v 0.21436303 1.44687061 0.44152063
v 0.21454048 1.44691585 0.30823066
v 0.21448826 1.44693392 0.29153883
v 0.21428996 1.44697913 0.27487419
v 0.21031280 1.44687061 0.48547936
v 0.20311018 1.44680734 0.45818521
v 0.20311018 1.44678925 0.44152063
v 0.16095897 1.47924983 0.20775349
v 0.16096940 1.47897856 0.24154490
v 0.16118863 1.47976520 0.39152670
v 0.16121992 1.48247780 0.40819134
v 0.16255609 1.48917787 0.48547936
v 0.21303729 1.44732272 0.20775349
v 0.20437327 1.44691585 0.30823066
v 0.20311018 1.44679828 0.42485599
v 0.20442542 1.44693392 0.29153883
v 0.20448807 1.44697913 0.27487419
v 0.21280764 1.44728657 0.20775349
v 0.20311018 1.44685255 0.48547936
v 0.20003080 1.44706955 0.48547936
v 0.19468618 1.44746738 0.48547936
v 0.19466532 1.44745835 0.47484986
v 0.19461311 1.44743123 0.44152063
v 0.16433065 1.47113921 0.20775349
v 0.16437238 1.47067807 0.22488025
v 0.16096940 1.47901474 0.22488025
v 0.16430973 1.47065092 0.24154490
v 0.16426801 1.47075040 0.25820954
v 0.16401749 1.47136526 0.34155994
v 0.16408013 1.47135620 0.35819741
v 0.16121992 1.47995510 0.40819134
v 0.16135564 1.48145605 0.44152063
v 0.16140780 1.48109437 0.45359091
v 0.16140780 1.48072365 0.45359091
v 0.16338073 1.48311978 0.48547936
v 0.19461311 1.44744026 0.42485599
v 0.19463403 1.44744932 0.40819134
v 0.19467575 1.44746738 0.39152670
v 0.20311018 1.44682543 0.40819134
v 0.19690963 1.44763919 0.24154490
v 0.19478012 1.44751262 0.36659768
v 0.20474902 1.44707861 0.25820954
v 0.20735871 1.44728657 0.20775349
v 0.19776556 1.44767537 0.22488025
v 0.18938335 1.45053261 0.48547936
v 0.18633526 1.45212400 0.39152670
v 0.16449767 1.47092218 0.20775349
v 0.17270243 1.46061437 0.22488025
v 0.17263979 1.46057822 0.24154490
v 0.17281723 1.46068673 0.20821561
v 0.17235798 1.46039738 0.34155994
v 0.17241013 1.46040641 0.35819741
v 0.17316175 1.46062343 0.48547936
v 0.16419493 1.47138335 0.37486205
v 0.16433065 1.47143759 0.39152670
v 0.16486299 1.47251358 0.48547936
v 0.16135564 1.48052475 0.44152063
v 0.18643969 1.45209688 0.35819741
v 0.18643969 1.45227770 0.27487419
v 0.19471753 1.44749453 0.37771648
v 0.18643969 1.45236812 0.24154490
v 0.18643969 1.45263035 0.20775349
v 0.19641902 1.44763919 0.25820954
v 0.18643969 1.45244048 0.22488025
v 0.19924788 1.44777482 0.20775349
v 0.19866334 1.44792855 0.20775349
v 0.19901822 1.44779291 0.20775349
v 0.18635619 1.45229579 0.48547936
v 0.17282767 1.46068673 0.20775349
v 0.17259801 1.46054204 0.25820954
f 1 2 3
f 1 3 4
f 1 4 5
f 1 5 6
f 1 6 7
f 1 7 8
f 1 8 9
f 1 9 10
f 1 10 11
f 1 11 12
f 1 12 2
f 2 12 3
f 3 12 13
f 3 13 14
f 3 14 15
f 3 15 4
f 4 15 16
f 4 16 17
f 4 17 5
f 5 18 19
f 5 19 6
f 5 17 20
f 5 20 21
f 5 21 18
f 6 19 18
f 6 18 7
f 7 9 8
f 7 18 22
f 7 22 9
f 9 23 37
f 9 37 35
f 9 35 44
f 9 44 49
f 9 49 56
f 9 56 65
f 9 65 78
f 9 78 83
f 9 83 108
f 9 108 130
f 9 130 132
f 9 132 131
f 9 131 127
f 9 127 134
f 9 134 112
f 9 112 89
f 9 89 73
f 9 73 61
f 9 61 52
f 9 52 46
f 9 46 38
f 9 38 24
f 9 24 12
f 9 12 11
f 9 11 10
f 9 22 23
f 12 24 25
f 12 25 13
f 13 25 24
f 13 24 38
f 13 38 47
f 13 47 54
f 13 54 48
f 13 48 40
f 13 40 39
f 13 39 28
f 13 28 27
f 13 27 26
f 13 26 14
f 14 26 15
f 15 26 27
f 15 27 28
f 15 28 29
f 15 29 30
f 15 30 16
f 16 30 29
f 16 29 31
f 16 31 32
f 16 32 21
f 16 21 17
f 17 21 20
f 18 33 34
f 18 34 35
f 18 35 22
f 18 21 36
f 18 36 33
f 21 32 42
f 21 42 41
f 21 41 29
f 21 29 40
f 21 40 48
f 21 48 55
f 21 55 64
f 21 64 77
f 21 77 100
f 21 100 121
f 21 121 118
f 21 118 133
f 21 133 110
f 21 110 86
f 21 86 85
f 21 85 84
f 21 84 70
f 21 70 60
f 21 60 51
f 21 51 50
f 21 50 45
f 21 45 36
f 22 35 37
f 22 37 23
f 28 39 29
f 29 41 31
f 29 39 40
f 31 41 42
f 31 42 32
f 33 43 44
f 33 44 34
f 33 36 45
f 33 45 43
f 34 44 35
f 38 46 47
f 43 49 44
f 43 45 50
f 43 50 51
f 43 51 49
f 46 52 53
f 46 53 54
f 46 54 47
f 48 54 53
f 48 53 55
f 49 51 57
f 49 57 58
f 49 58 59
f 49 59 56
f 51 60 57
f 52 61 62
f 52 62 63
f 52 63 55
f 52 55 53
f 55 63 64
f 56 59 65
f 57 60 66
f 57 66 58
f 58 66 67
f 58 67 68
f 58 68 59
f 59 68 69
f 59 69 65
f 60 70 71
f 60 71 72
f 60 72 66
f 61 73 74
f 61 74 75
f 61 75 62
f 62 75 96
f 62 96 76
f 62 76 63
f 63 76 77
f 63 77 64
f 65 69 78
f 66 72 67
f 67 79 81
f 67 81 68
f 67 72 80
f 67 80 79
f 68 81 82
f 68 82 69
f 69 82 108
f 69 108 83
f 69 83 78
f 70 84 71
f 71 84 85
f 71 85 86
f 71 86 72
f 72 86 87
f 72 87 88
f 72 88 101
f 72 101 80
f 73 89 90
f 73 90 91
f 73 91 74
f 74 91 92
f 74 92 93
f 74 93 94
f 74 94 75
f 75 95 96
f 75 94 95
f 76 97 77
f 76 96 122
f 76 122 97
f 77 97 98
f 77 98 99
f 77 99 100
f 79 80 81
f 80 101 102
f 80 102 103
f 80 103 104
f 80 104 81
f 81 105 82
f 81 104 103
f 81 103 106
f 81 106 105
f 82 107 108
f 82 105 109
f 82 109 107
f 86 110 87
f 87 110 111
f 87 111 88
f 88 111 101
f 89 112 90
f 90 113 114
f 90 114 92
f 90 92 91
f 90 112 115
f 90 115 113
f 92 114 116
f 92 116 93
f 93 116 94
f 94 116 95
f 95 117 118
f 95 118 119
f 95 119 96
f 95 116 117
f 96 119 120
f 96 120 121
f 96 121 122
f 97 122 99
f 97 99 98
f 99 122 121
f 99 121 100
f 101 111 123
f 101 123 102
f 102 123 124
f 102 124 103
f 103 125 106
f 103 124 126
f 103 126 125
f 105 127 109
f 105 106 128
f 105 128 127
f 106 125 129
f 106 129 128
f 107 109 108
f 108 109 130
f 109 127 131
f 109 131 132
f 109 132 130
f 110 133 111
f 111 133 116
f 111 116 123
f 112 134 115
f 113 129 114
f 113 115 129
f 114 129 126
f 114 126 135
f 114 135 116
f 115 134 127
f 115 127 129
f 116 135 126
f 116 126 124
f 116 124 123
f 116 133 117
f 117 133 118
f 118 121 120
f 118 120 119
f 125 126 129
f 127 128 129

