# https://github.com/mikedh/trimesh
v -2.04823788 1.49690549 0.09502756
v -2.04823788 1.50165274 0.09502756
v -2.04823788 1.48978459 0.10353405
v -2.28874955 1.49166584 0.10187792
v -2.28874955 1.49734639 0.09519487
v -2.13139049 1.50853847 0.09540397
v -2.04823788 1.50998619 0.09536212
v -2.28874955 1.49749338 0.09519487
v -2.28874955 1.50410722 0.09543741
v -2.04823788 1.48314869 0.12000330
v -2.23135256 1.48298704 0.12020405
v -2.24802078 1.48298704 0.12020405
v -2.26468899 1.48299437 0.12020405
v -2.26468899 1.49024021 0.10356749
v -2.28874955 1.48699942 0.11179794
v -2.28135715 1.52235405 0.09627384
v -2.04823788 1.51014784 0.09537047
v -2.28874955 1.52235405 0.09629894
v -2.04823788 1.48306786 0.12020405
v -2.23135256 1.48289882 0.13686571
v -2.26468899 1.48292088 0.13686571
v -2.28135715 1.48303848 0.12020405
v -2.28874955 1.48306786 0.12020405
v -2.28135715 1.53530981 0.10432030
v -2.26468899 1.53530981 0.10430355
v -2.04823788 1.52235405 0.09622366
v -2.28874955 1.53528779 0.10434539
v -2.04823788 1.48303848 0.13686571
v -2.18137152 1.48308992 0.15352736
v -2.26468899 1.48303112 0.15352736
v -2.28135715 1.48305317 0.15352736
v -2.28874955 1.48306786 0.15352736
v -2.28135715 1.48298704 0.13686571
v -2.28874955 1.48303848 0.12949679
v -2.28874955 1.55796590 0.12986479
v -2.26468899 1.55796590 0.12982300
v -2.24773825 1.55796590 0.12983969
v -2.21475504 1.55796590 0.12988988
v -2.19803974 1.55796590 0.12992338
v -2.15229639 1.55796590 0.13005719
v -2.04823788 1.53478806 0.10439558
v -2.04823788 1.52250103 0.09631569
v -2.04823788 1.48319280 0.15352736
v -2.04823788 1.48828546 0.17019743
v -2.06471775 1.48828546 0.17019743
v -2.28874955 1.48903502 0.17019743
v -2.28874955 1.48301642 0.13686571
v -2.16472691 1.48851327 0.17019743
v -2.28874955 1.55796590 0.17985817
v -2.04823788 1.55796590 0.13050888
v -2.04823788 1.49531081 0.17943992
v -2.06471775 1.49528140 0.17943992
v -2.28874955 1.49617062 0.17902173
v -2.08138590 1.49531815 0.17943157
v -2.09805412 1.49538431 0.17942323
v -2.11472233 1.49543575 0.17938973
v -2.16472691 1.49560476 0.17928935
v -2.28874955 1.55568779 0.17986651
v -2.04823788 1.55568779 0.18040182
v -2.04823788 1.55796590 0.18037673
v -2.04823788 1.50556960 0.18040182
v -2.28874955 1.50569453 0.17956539
v -2.11472233 1.50569453 0.18027635
v -2.16472691 1.50569453 0.18007560
v -2.06471775 1.50569453 0.18038507
v -2.09805412 1.50569453 0.18031820
v -2.28874955 1.54830969 0.17984976
v -2.13139049 1.52235405 0.18025961
v -2.04823788 1.52235405 0.18047711
v -2.04823788 1.53882252 0.18046036
v -2.04823788 1.50569453 0.18041017
v -2.28874955 1.51498331 0.17964067
v -2.28874955 1.53902092 0.17982467
f 1 2 7
f 1 7 17
f 1 17 26
f 1 26 42
f 1 42 41
f 1 41 50
f 1 50 60
f 1 60 59
f 1 59 70
f 1 70 69
f 1 69 71
f 1 71 61
f 1 61 51
f 1 51 44
f 1 44 43
f 1 43 28
f 1 28 19
f 1 19 10
f 1 10 3
f 1 3 4
f 1 4 5
f 1 5 8
f 1 8 2
f 2 6 7
f 2 8 9
f 2 9 6
f 3 10 11
f 3 11 12
f 3 12 13
f 3 13 14
f 3 14 4
f 4 14 15
f 4 15 23
f 4 23 34
f 4 34 47
f 4 47 32
f 4 32 46
f 4 46 53
f 4 53 62
f 4 62 72
f 4 72 73
f 4 73 67
f 4 67 58
f 4 58 49
f 4 49 35
f 4 35 27
f 4 27 18
f 4 18 9
f 4 9 8
f 4 8 5
f 6 9 16
f 6 16 7
f 7 16 17
f 9 18 16
f 10 19 11
f 11 20 12
f 11 19 20
f 12 20 13
f 13 20 21
f 13 21 22
f 13 22 14
f 14 22 23
f 14 23 15
f 16 18 24
f 16 24 25
f 16 25 26
f 16 26 17
f 18 27 24
f 19 28 20
f 20 29 30
f 20 30 21
f 20 28 29
f 21 30 31
f 21 31 32
f 21 32 33
f 21 33 34
f 21 34 22
f 22 34 23
f 24 27 35
f 24 35 36
f 24 36 25
f 25 36 37
f 25 37 38
f 25 38 39
f 25 39 40
f 25 40 41
f 25 41 42
f 25 42 26
f 28 43 29
f 29 43 44
f 29 44 30
f 30 44 45
f 30 45 31
f 31 45 32
f 32 47 33
f 32 45 48
f 32 48 46
f 33 47 34
f 35 49 60
f 35 60 50
f 35 50 40
f 35 40 39
f 35 39 38
f 35 38 37
f 35 37 36
f 40 50 41
f 44 51 52
f 44 52 45
f 45 52 48
f 46 48 54
f 46 54 55
f 46 55 56
f 46 56 57
f 46 57 53
f 48 52 54
f 49 58 59
f 49 59 60
f 51 61 52
f 52 61 54
f 53 57 63
f 53 63 64
f 53 64 62
f 54 61 55
f 55 61 65
f 55 65 66
f 55 66 56
f 56 66 57
f 57 66 63
f 58 67 63
f 58 63 68
f 58 68 69
f 58 69 70
f 58 70 59
f 61 71 65
f 62 64 72
f 63 67 73
f 63 73 64
f 63 66 69
f 63 69 68
f 64 73 72
f 65 71 69
f 65 69 66

