# https://github.com/mikedh/trimesh
v 2.22842235 2.11522968 1.43900729
v 2.22842235 2.06510618 1.43900729
v 2.22842235 2.11523468 1.43864555
v 2.17376111 2.11484919 1.43877882
v 2.17376111 2.11484418 1.43900729
v 2.17376111 2.06569192 1.43900729
v 2.17376111 2.06445538 1.24453649
v 2.22842235 2.06429016 1.24453649
v 2.22842235 2.11523969 1.43687504
v 2.17376111 2.11489926 1.42212077
v 2.17376111 2.11518462 1.24453649
v 2.22842235 2.11543493 1.24453649
v 2.17376111 2.11490426 1.42019797
v 2.22842235 2.11530475 1.40353992
v 2.17376111 2.11501438 1.37020480
v 2.17376111 2.11497936 1.38686282
v 2.17376111 2.11506445 1.33688870
v 2.17376111 2.11503942 1.35545054
f 1 2 8
f 1 8 12
f 1 12 14
f 1 14 9
f 1 9 3
f 1 3 4
f 1 4 5
f 1 5 6
f 1 6 2
f 2 6 7
f 2 7 8
f 3 9 10
f 3 10 4
f 4 10 13
f 4 13 16
f 4 16 15
f 4 15 18
f 4 18 17
f 4 17 11
f 4 11 7
f 4 7 6
f 4 6 5
f 7 11 12
f 7 12 8
f 9 13 10
f 9 14 15
f 9 15 16
f 9 16 13
f 11 17 14
f 11 14 12
f 14 18 15
f 14 17 18

