# https://github.com/mikedh/trimesh
v -0.36415281 -0.6892833 1.78754119
v -0.3641618200000001 -0.69472672 1.78754119
v -0.3641618200000001 -0.6780488600000001 1.78754119
v -0.3642429300000001 -0.69471824 1.85967767
v -0.3641978400000001 -0.7059442 1.78754119
v -0.36430603000000006 -0.7113876100000001 1.8763547
v -0.3674423900000001 -0.66539846 1.78754119
v -0.36755058000000007 -0.66516105 1.92549444
v -0.36456738 -0.6773535900000001 1.92549444
v -0.36440515000000007 -0.67804039 1.92549444
v -0.36426994999999995 -0.69471824 1.8763547
v -0.36423392 -0.7113876100000001 1.78754119
v -0.36438714000000005 -0.7113876100000001 1.92549444
v -0.3647746300000001 -0.72715821 1.92549444
v -0.37521132999999995 -0.66152362 1.78754119
v -0.37897863 -0.65892063 1.92549444
v -0.3783657600000001 -0.6592513 1.92549444
v -0.36436007000000004 -0.693811 1.92549444
v -0.36436007000000004 -0.69471824 1.92549444
v -0.36482872999999993 -0.7280569800000001 1.78754119
v -0.36480171000000006 -0.7280569800000001 1.92549444
v -0.37898764000000007 -0.65964132 1.78754119
v -0.3956610300000001 -0.657369 1.92549444
v -0.39563401 -0.65751314 1.78754119
v -0.36802825000000006 -0.73928294 1.78754119
v -0.3679200600000001 -0.73937622 1.92549444
v -0.4123163999999999 -0.65858995 1.92549444
v -0.4123163999999999 -0.65765728 1.78754119
v -0.37161525000000006 -0.7406056599999999 1.78754119
v -0.37897863 -0.74331887 1.92549444
v -0.37898764000000007 -0.74329343 1.78754119
v -0.42560102999999994 -0.66466928 1.92549444
v -0.4267636800000001 -0.6633550500000001 1.78754119
v -0.3798798700000001 -0.74333583 1.92549444
v -0.3956610300000001 -0.7439887000000001 1.78754119
v -0.3844222800000001 -0.74352236 1.78754119
v -0.44207617999999993 -0.68232219 1.92549444
v -0.44482504 -0.68066881 1.78754119
v -0.3956610300000001 -0.7436241100000001 1.92549444
v -0.4123163999999999 -0.7430475599999999 1.78754119
v -0.4510347800000001 -0.6950149999999999 1.92549444
v -0.45255789999999996 -0.69258157 1.78754119
v -0.39656227 -0.74355627 1.92549444
v -0.4289897899999999 -0.7416994299999999 1.84302766
v -0.4289897899999999 -0.7417926699999999 1.82633716
v -0.4289897899999999 -0.7419538 1.79298316
v -0.4289897899999999 -0.7419792000000001 1.78754119
v -0.45486512 -0.7037227500000001 1.92549444
v -0.4542973400000001 -0.70176414 1.78754119
v -0.4123163999999999 -0.74223357 1.92549444
v -0.4289897899999999 -0.7412330899999999 1.89303167
v -0.4289897899999999 -0.74142809 1.8763547
v -0.4289897899999999 -0.74158071 1.85967767
v -0.4431577099999999 -0.7387572600000001 1.84302766
v -0.44346415000000006 -0.73889291 1.79298316
v -0.44346415000000006 -0.73890141 1.78754119
v -0.4432839100000001 -0.73880813 1.82633716
v -0.44341005 -0.73885901 1.80756708
v -0.4561900000000001 -0.71244746 1.92549444
v -0.4562170700000001 -0.71250681 1.78754119
v -0.41321764000000005 -0.7421572599999999 1.92549444
v -0.44231051 -0.73833333 1.9097087
v -0.44258993 -0.73847745 1.89303167
v -0.4289897899999999 -0.7407413199999999 1.92549444
v -0.4420040700000001 -0.73818918 1.92549444
v -0.44278817000000004 -0.7385877000000001 1.8763547
v -0.44297747 -0.73867248 1.85967767
v -0.44989013999999994 -0.73110089 1.92549444
v -0.45034079000000005 -0.73057518 1.92549444
v -0.45191801 -0.72830288 1.78754119
v -0.4434010500000001 -0.7388505400000001 1.80967367
v -0.45530676999999997 -0.7222405199999999 1.92549444
f 1 2 5
f 1 5 12
f 1 12 20
f 1 20 25
f 1 25 29
f 1 29 31
f 1 31 36
f 1 36 35
f 1 35 40
f 1 40 47
f 1 47 56
f 1 56 70
f 1 70 60
f 1 60 49
f 1 49 42
f 1 42 38
f 1 38 33
f 1 33 28
f 1 28 24
f 1 24 22
f 1 22 15
f 1 15 7
f 1 7 3
f 1 3 4
f 1 4 2
f 2 4 6
f 2 6 5
f 3 7 8
f 3 8 9
f 3 9 10
f 3 10 11
f 3 11 4
f 4 11 6
f 5 6 12
f 6 11 13
f 6 13 14
f 6 14 12
f 7 15 16
f 7 16 17
f 7 17 8
f 8 17 16
f 8 16 23
f 8 23 27
f 8 27 32
f 8 32 37
f 8 37 41
f 8 41 48
f 8 48 59
f 8 59 72
f 8 72 69
f 8 69 68
f 8 68 65
f 8 65 64
f 8 64 61
f 8 61 50
f 8 50 43
f 8 43 39
f 8 39 34
f 8 34 30
f 8 30 26
f 8 26 21
f 8 21 14
f 8 14 13
f 8 13 19
f 8 19 18
f 8 18 10
f 8 10 9
f 10 18 11
f 11 18 19
f 11 19 13
f 12 14 21
f 12 21 20
f 15 22 16
f 16 22 24
f 16 24 23
f 20 21 26
f 20 26 25
f 23 24 28
f 23 28 27
f 25 26 29
f 26 30 31
f 26 31 29
f 27 28 33
f 27 33 32
f 30 34 35
f 30 35 36
f 30 36 31
f 32 33 38
f 32 38 37
f 34 39 35
f 35 39 40
f 37 38 41
f 38 42 41
f 39 43 44
f 39 44 45
f 39 45 46
f 39 46 47
f 39 47 40
f 41 42 48
f 42 49 48
f 43 50 51
f 43 51 52
f 43 52 53
f 43 53 44
f 44 53 54
f 44 54 45
f 45 54 46
f 46 54 47
f 47 55 56
f 47 54 57
f 47 57 58
f 47 58 55
f 48 49 60
f 48 60 59
f 50 61 51
f 51 62 63
f 51 63 52
f 51 61 64
f 51 64 65
f 51 65 62
f 52 63 53
f 53 66 67
f 53 67 54
f 53 63 66
f 54 67 68
f 54 68 57
f 55 58 68
f 55 68 69
f 55 69 56
f 56 69 70
f 57 68 71
f 57 71 58
f 58 71 68
f 59 60 72
f 60 70 72
f 62 65 68
f 62 68 63
f 63 68 66
f 66 68 67
f 69 72 70

