# https://github.com/mikedh/trimesh
v 1.72089895 2.11785606 1.13439247
v 1.72089895 2.11499355 1.09735258
v 1.69478163 2.11781782 1.13439247
v 1.72089895 2.06240339 1.13439247
v 1.67812605 2.11778504 1.13439247
v 1.72089895 2.06328837 1.09735258
v 1.35901251 2.11424515 1.09735258
v 1.39235907 2.11719507 1.13439247
v 1.70899199 2.06227774 1.13439247
v 1.70899199 2.06329383 1.09735258
v 1.69233645 2.06218487 1.13439247
v 1.67564543 2.06212479 1.13439247
v 1.65898988 2.06208107 1.13439247
v 1.59233216 2.06205923 1.13439247
v 1.58985155 2.06205923 1.13439247
v 1.35894163 2.11361146 1.09735258
v 1.35894163 2.11424515 1.09738883
v 1.35894163 2.11706393 1.13439247
v 1.47053393 2.06364889 1.09735258
v 1.45901677 2.06228319 1.13439247
v 1.35894163 2.06422796 1.09735258
v 1.35894163 2.06272570 1.13439247
v 1.45958377 2.06367074 1.09735258
v 1.45653616 2.06228868 1.13439247
v 1.44236121 2.06373085 1.09735258
v 1.44236121 2.06233785 1.13439247
f 1 2 3
f 1 3 5
f 1 5 8
f 1 8 18
f 1 18 22
f 1 22 26
f 1 26 24
f 1 24 20
f 1 20 15
f 1 15 14
f 1 14 13
f 1 13 12
f 1 12 11
f 1 11 9
f 1 9 4
f 1 4 6
f 1 6 2
f 2 5 3
f 2 6 10
f 2 10 19
f 2 19 23
f 2 23 25
f 2 25 21
f 2 21 16
f 2 16 7
f 2 7 8
f 2 8 5
f 4 9 6
f 6 9 11
f 6 11 12
f 6 12 13
f 6 13 14
f 6 14 15
f 6 15 10
f 7 16 17
f 7 17 18
f 7 18 8
f 10 15 19
f 15 20 19
f 16 21 22
f 16 22 18
f 16 18 17
f 19 20 23
f 20 24 23
f 21 25 22
f 22 25 26
f 23 24 26
f 23 26 25

