# https://github.com/mikedh/trimesh
v -3.34930949 1.56030537 1.93186558
v -3.34930949 1.62246141 1.93597720
v -3.34930949 1.56030537 1.99741315
v -3.64803402 1.56030537 1.93301911
v -3.34930949 1.62246141 1.99649153
v -3.66469938 1.56030537 1.93311579
v -3.64814131 1.62246141 1.93778812
v -3.49346829 1.56030537 1.99768388
v -3.69792279 1.62246141 1.99703942
v -3.66480667 1.62246141 1.93792342
v -3.68136473 1.56030537 1.93327691
v -3.49808167 1.56030537 1.99769031
v -3.69803008 1.62246141 1.99703942
v -3.69803008 1.56030537 1.99769675
v -3.71458815 1.62246141 1.93849700
v -3.71458815 1.56030537 1.93368294
v -3.71458815 1.62246141 1.99702643
v -3.71001053 1.56030537 1.99768388
v -3.71458815 1.56030537 1.99767744
f 1 2 5
f 1 5 3
f 1 3 8
f 1 8 12
f 1 12 14
f 1 14 18
f 1 18 19
f 1 19 16
f 1 16 11
f 1 11 6
f 1 6 4
f 1 4 2
f 2 4 6
f 2 6 7
f 2 7 10
f 2 10 15
f 2 15 17
f 2 17 13
f 2 13 9
f 2 9 5
f 3 5 8
f 5 9 8
f 6 10 7
f 6 11 10
f 8 9 12
f 9 13 14
f 9 14 12
f 10 11 15
f 11 16 15
f 13 17 14
f 14 17 18
f 15 16 19
f 15 19 17
f 17 19 18

