# https://github.com/mikedh/trimesh
v 0.45352702 2.06992442 1.44284997
v 0.45352702 2.06992442 1.60783695
v 0.45352702 2.10972300 1.44284997
v 0.81359280 2.06992442 1.44284997
v 0.45352702 2.07903870 1.65710022
v 0.45906106 2.06992442 1.60787885
v 0.45352702 2.11864159 1.53688856
v 0.45906106 2.11877857 1.53688856
v 0.47569846 2.11899872 1.53688856
v 0.81193613 2.11117599 1.44284997
v 0.81359280 2.11117599 1.44284997
v 0.81359280 2.06992442 1.60662053
v 0.45352702 2.11204194 1.65710022
v 0.47569846 2.06992442 1.60796278
v 0.67918939 2.07891150 1.65710022
v 0.45352702 2.11854864 1.54238325
v 0.45352702 2.11804962 1.57019214
v 0.45906106 2.11812300 1.57019214
v 0.47569846 2.11832849 1.57019214
v 0.49237114 2.11843610 1.57019214
v 0.74228463 2.11978637 1.55354032
v 0.49237114 2.11906232 1.53688856
v 0.70893932 2.11974724 1.53688856
v 0.81359280 2.11990379 1.53688856
v 0.81359280 2.07918548 1.65710022
v 0.77562994 2.07909252 1.65710022
v 0.69230192 2.07893597 1.65710022
v 0.64228398 2.06992442 1.60817247
v 0.50904377 2.11741853 1.58686489
v 0.49237114 2.11732068 1.58686489
v 0.47569846 2.11716902 1.58686489
v 0.77562994 2.11313781 1.65710022
v 0.77562994 2.11866606 1.58686489
v 0.49237114 2.06992442 1.60800468
v 0.59237179 2.06992442 1.60815149
v 0.50904377 2.11849970 1.57019214
v 0.74228463 2.11933629 1.57019214
v 0.81359280 2.11934118 1.57019214
v 0.81359280 2.11977659 1.55354032
v 0.81359280 2.11981572 1.54890554
v 0.81359280 2.11317694 1.65710022
v 0.79226734 2.11318671 1.65710022
v 0.79226734 2.11858288 1.58686489
v 0.81359280 2.11872966 1.58223005
v 0.81359280 2.11845568 1.58686489
f 1 2 5
f 1 5 13
f 1 13 17
f 1 17 16
f 1 16 7
f 1 7 3
f 1 3 10
f 1 10 11
f 1 11 4
f 1 4 12
f 1 12 28
f 1 28 35
f 1 35 34
f 1 34 14
f 1 14 6
f 1 6 2
f 2 6 5
f 3 7 8
f 3 8 9
f 3 9 10
f 4 11 24
f 4 24 40
f 4 40 39
f 4 39 38
f 4 38 44
f 4 44 45
f 4 45 41
f 4 41 25
f 4 25 12
f 5 6 14
f 5 14 15
f 5 15 27
f 5 27 26
f 5 26 25
f 5 25 41
f 5 41 42
f 5 42 32
f 5 32 13
f 7 16 8
f 8 16 17
f 8 17 18
f 8 18 9
f 9 18 19
f 9 19 20
f 9 20 21
f 9 21 22
f 9 22 10
f 10 23 24
f 10 24 11
f 10 22 23
f 12 25 26
f 12 26 27
f 12 27 15
f 12 15 28
f 13 29 30
f 13 30 31
f 13 31 19
f 13 19 18
f 13 18 17
f 13 32 33
f 13 33 29
f 14 34 15
f 15 34 35
f 15 35 28
f 19 31 30
f 19 30 20
f 20 36 21
f 20 30 29
f 20 29 33
f 20 33 36
f 21 23 22
f 21 36 37
f 21 37 38
f 21 38 39
f 21 39 40
f 21 40 24
f 21 24 23
f 32 42 33
f 33 37 36
f 33 42 41
f 33 41 43
f 33 43 44
f 33 44 38
f 33 38 37
f 41 45 43
f 43 45 44

