# https://github.com/mikedh/trimesh
v -1.72601373 2.06696509 1.92077997
v -1.72448021 1.98142566 1.92077997
v -1.72676971 2.06696509 1.95822774
v -1.63134372 2.06696509 1.92077997
v -1.72517139 1.98142566 1.95822774
v -1.65043751 1.98142566 1.92077997
v -1.72698572 2.06696509 1.97487873
v -1.50632652 2.06696509 1.92419815
v -1.72525776 1.98142566 1.96712011
v -1.50632652 1.98142566 1.93128836
v -1.72530098 1.98142566 1.97487873
v -1.72486896 1.98142566 1.99153813
v -1.72635932 2.06696509 1.99153813
v -1.50632652 2.06696509 2.00631085
v -1.50632652 1.98142566 2.00610771
v -1.72394019 1.98142566 1.99675853
v -1.72311943 1.98142566 2.00131045
v -1.72376740 2.06696509 2.00169967
v -1.68577412 2.06696509 2.00716535
v -1.69689781 1.98142566 2.00715688
v -1.50762246 1.98142566 2.00611618
v -1.71357253 1.98142566 2.00497402
v -1.71357253 2.06696509 2.00537171
v -1.69689781 2.06696509 2.00719920
v -1.70465197 1.98142566 2.00615003
f 1 2 3
f 1 3 7
f 1 7 13
f 1 13 18
f 1 18 23
f 1 23 24
f 1 24 19
f 1 19 14
f 1 14 8
f 1 8 4
f 1 4 6
f 1 6 2
f 2 5 3
f 2 6 10
f 2 10 15
f 2 15 21
f 2 21 20
f 2 20 25
f 2 25 22
f 2 22 17
f 2 17 16
f 2 16 12
f 2 12 11
f 2 11 9
f 2 9 5
f 3 5 7
f 4 8 6
f 5 9 7
f 6 8 10
f 7 9 11
f 7 11 12
f 7 12 13
f 8 14 15
f 8 15 10
f 12 16 13
f 13 16 17
f 13 17 18
f 14 19 20
f 14 20 21
f 14 21 15
f 17 22 18
f 18 22 23
f 19 24 20
f 20 24 23
f 20 23 25
f 22 25 23

