# https://github.com/mikedh/trimesh
v -3.73141861 2.11284836 1.73632102
v -3.76309253 2.12950212 1.73632102
v -3.73141861 2.07890235 1.73632102
v -3.73141861 2.11749255 1.57022647
v -3.76361527 2.12950212 1.65354668
v -3.76397463 2.12954012 1.62021859
v -3.76336206 2.12954772 1.73632102
v -3.73141861 2.11767497 1.55356242
v -3.75132302 2.05403190 1.73632102
v -3.73141861 2.07875032 1.73629229
v -3.77176651 2.13085509 1.67021072
v -3.77162768 2.13088549 1.70353880
v -3.77152147 2.13089309 1.72017412
v -3.77143164 2.13090069 1.73632102
v -3.76473423 2.12936529 1.48690620
v -3.76638410 2.12990496 1.61536304
v -3.73141861 2.11753818 1.53689832
v -3.76473423 2.12911448 1.44283268
v -3.79854804 2.05403190 1.73632102
v -3.74772931 2.05403190 1.61539177
v -3.73141861 2.05403950 1.60240530
v -3.78137980 2.13140236 1.70353880
v -3.78137980 2.13144799 1.73632102
v -3.77276298 2.13073347 1.55356242
v -3.76832795 2.12963134 1.44283268
v -3.77479671 2.13061188 1.45357811
v -3.77437196 2.13063467 1.47024215
v -3.77289364 2.13071067 1.54198377
v -3.73141861 2.10980796 1.44289014
v -3.75040010 2.12086739 1.44283268
v -3.75552936 2.12382419 1.44283268
v -3.79854804 2.05403190 1.73597627
v -3.80818583 2.06218016 1.73632102
v -3.80399583 2.05403950 1.56899103
v -3.76369693 2.05403190 1.61539177
v -3.74500130 2.05403950 1.44283268
v -3.73141861 2.05403950 1.53727187
v -3.79804986 2.13167601 1.72017412
v -3.78137980 2.13137196 1.68684603
v -3.79804986 2.13168361 1.73632102
v -3.78137980 2.13134156 1.67021072
v -3.77520507 2.13059668 1.44283268
v -3.78312766 2.13096912 1.45357811
v -3.73141861 2.10904025 1.44283268
v -3.79853987 2.05403190 1.71980063
v -3.80399583 2.05403950 1.56614662
v -3.81146924 2.07236548 1.73632102
v -3.81146924 2.07236548 1.72017412
v -3.80817760 2.06217256 1.70353880
v -3.79810702 2.05403190 1.62001749
v -3.79693089 2.05403950 1.44283268
v -3.73141861 2.06488611 1.44283268
v -3.79804986 2.13164561 1.70353880
v -3.80651963 2.13077910 1.44283268
v -3.80703414 2.13112874 1.70353880
v -3.80705870 2.13114394 1.72017412
v -3.80705870 2.13114394 1.73632102
v -3.78354418 2.13095392 1.44283268
v -3.79851538 2.05403190 1.70313659
v -3.80390600 2.05403950 1.53652484
v -3.80816127 2.06218776 1.68684603
v -3.81351930 2.08850238 1.73632102
v -3.81359273 2.08903444 1.72017412
v -3.81359273 2.08903444 1.70353880
v -3.81146101 2.07236548 1.70353880
v -3.79843372 2.05403190 1.68650128
v -3.79804986 2.05501244 1.44283268
v -3.79804986 2.13104512 1.44283268
v -3.81056264 2.12235719 1.44283268
v -3.81104449 2.12235719 1.53689832
v -3.81109349 2.12235719 1.55356242
v -3.81148557 2.12235719 1.70353880
v -3.81150190 2.12235719 1.72017412
v -3.81150190 2.12235719 1.73632102
v -3.80763043 2.06271983 1.47024215
v -3.80716491 2.06319869 1.44283268
v -3.81142835 2.07236548 1.68684603
v -3.81358462 2.08903444 1.73632102
v -3.81485874 2.10568823 1.55356242
v -3.81345397 2.08903444 1.55356242
v -3.81398481 2.10568823 1.44283268
v -3.81476075 2.10568823 1.53689832
v -3.81160800 2.12183273 1.73632102
v -3.81052175 2.07236548 1.47024215
v -3.81000724 2.07236548 1.44283268
v -3.81341308 2.08903444 1.53689832
v -3.81471176 2.10516377 1.73632102
v -3.81476075 2.10569583 1.72017412
v -3.81279235 2.08903444 1.44283268
v -3.81474442 2.10569583 1.73632102
f 1 2 7
f 1 7 14
f 1 14 23
f 1 23 40
f 1 40 57
f 1 57 74
f 1 74 83
f 1 83 90
f 1 90 87
f 1 87 78
f 1 78 62
f 1 62 47
f 1 47 33
f 1 33 19
f 1 19 9
f 1 9 3
f 1 3 10
f 1 10 21
f 1 21 37
f 1 37 52
f 1 52 44
f 1 44 29
f 1 29 17
f 1 17 8
f 1 8 4
f 1 4 2
f 2 5 6
f 2 6 7
f 2 4 8
f 2 8 5
f 3 9 10
f 5 8 6
f 6 11 12
f 6 12 13
f 6 13 14
f 6 14 7
f 6 8 15
f 6 15 16
f 6 16 11
f 8 17 18
f 8 18 15
f 9 19 32
f 9 32 45
f 9 45 59
f 9 59 66
f 9 66 50
f 9 50 35
f 9 35 20
f 9 20 21
f 9 21 10
f 11 22 23
f 11 23 12
f 11 16 15
f 11 15 24
f 11 24 22
f 12 23 13
f 13 23 14
f 15 18 25
f 15 25 26
f 15 26 27
f 15 27 28
f 15 28 24
f 17 29 30
f 17 30 31
f 17 31 18
f 18 31 30
f 18 30 44
f 18 44 52
f 18 52 36
f 18 36 51
f 18 51 67
f 18 67 76
f 18 76 85
f 18 85 89
f 18 89 81
f 18 81 69
f 18 69 54
f 18 54 68
f 18 68 58
f 18 58 42
f 18 42 25
f 19 33 34
f 19 34 46
f 19 46 32
f 20 35 51
f 20 51 36
f 20 36 37
f 20 37 21
f 22 38 23
f 22 24 39
f 22 39 38
f 23 38 40
f 24 28 27
f 24 27 41
f 24 41 39
f 25 42 26
f 26 42 43
f 26 43 27
f 27 43 41
f 29 44 30
f 32 46 45
f 33 47 48
f 33 48 49
f 33 49 46
f 33 46 34
f 35 50 51
f 36 52 37
f 38 39 41
f 38 41 53
f 38 53 54
f 38 54 55
f 38 55 56
f 38 56 40
f 40 56 57
f 41 43 53
f 42 58 43
f 43 58 53
f 45 46 59
f 46 60 59
f 46 49 61
f 46 61 60
f 47 62 63
f 47 63 64
f 47 64 48
f 48 64 65
f 48 65 49
f 49 65 61
f 50 66 60
f 50 60 51
f 51 60 67
f 53 58 68
f 53 68 54
f 54 69 70
f 54 70 71
f 54 71 55
f 55 72 56
f 55 71 72
f 56 73 74
f 56 74 57
f 56 72 73
f 59 60 66
f 60 75 76
f 60 76 67
f 60 61 75
f 61 65 77
f 61 77 75
f 62 78 63
f 63 78 79
f 63 79 64
f 64 79 80
f 64 80 65
f 65 80 77
f 69 81 82
f 69 82 79
f 69 79 70
f 70 79 71
f 71 79 72
f 72 79 73
f 73 83 74
f 73 79 83
f 75 84 85
f 75 85 76
f 75 77 84
f 77 80 86
f 77 86 84
f 78 87 88
f 78 88 79
f 79 88 83
f 79 82 86
f 79 86 80
f 81 89 82
f 82 89 86
f 83 88 90
f 84 86 89
f 84 89 85
f 87 90 88

