# https://github.com/mikedh/trimesh
v -2.34811786 1.57249003 0.56851976
v -2.34811786 1.57227661 0.56851976
v -2.34811786 1.57249003 0.50985247
v -2.46455030 1.57249003 0.56929493
v -2.48137176 1.55569140 0.56943816
v -2.34811786 1.55561136 0.56846922
v -2.48137176 1.53901728 0.56942973
v -2.34811786 1.54895061 0.49320354
v -2.53136257 1.54894171 0.49311926
v -2.54803988 1.54892392 0.49316140
v -2.55843748 1.57249003 0.51082984
v -2.48137176 1.57249003 0.56940445
v -2.49802850 1.55569140 0.56950557
v -2.34811786 1.53894611 0.56829228
v -2.48137176 1.52236093 0.56937918
v -2.46469442 1.52236093 0.56923595
v -2.49802850 1.53901728 0.56949714
v -2.34811786 1.53901728 0.48827455
v -2.49802850 1.53901728 0.48765108
v -2.51470583 1.53901728 0.48759213
v -2.53136257 1.53901728 0.48760894
v -2.54803988 1.53901728 0.48765949
v -2.55843748 1.53901728 0.48772690
v -2.55843748 1.54883501 0.49321194
v -2.55843748 1.57249003 0.56957299
v -2.49788437 1.57249003 0.56945503
v -2.51470583 1.55569140 0.56953085
v -2.34811786 1.52228979 0.56800582
v -2.49802850 1.52236093 0.56943816
v -2.48137176 1.50569570 0.56906745
v -2.46469442 1.50569570 0.56889894
v -2.55843748 1.55569140 0.56958982
v -2.51470583 1.53901728 0.56951401
v -2.51470583 1.52236093 0.56946343
v -2.34811786 1.52236093 0.48485381
v -2.46469442 1.52236093 0.48412079
v -2.48137176 1.52236093 0.48404491
v -2.49802850 1.52236093 0.48397756
v -2.51470583 1.52236093 0.48394382
v -2.53136257 1.52236093 0.48395229
v -2.54803988 1.52236093 0.48400283
v -2.55843748 1.52236093 0.48404491
v -2.34811786 1.50564232 0.56731494
v -2.49802850 1.50569570 0.56909272
v -2.48137176 1.49280990 0.56531804
v -2.46469442 1.49288107 0.56522539
v -2.43138097 1.49307670 0.56501474
v -2.41472423 1.49316563 0.56486308
v -2.36471282 1.49365475 0.56444179
v -2.34811786 1.49380590 0.56427329
v -2.55843748 1.53901728 0.56952241
v -2.55843748 1.52236093 0.56942132
v -2.55843748 1.51194738 0.56921068
v -2.34811786 1.50569570 0.48396069
v -2.49802850 1.50569570 0.48353940
v -2.51470583 1.50569570 0.48351413
v -2.53136257 1.50569570 0.48352253
v -2.54803988 1.50569570 0.48356467
v -2.55843748 1.50569570 0.48359841
v -2.49802850 1.49281881 0.56532648
v -2.55843748 1.50569570 0.56906745
v -2.55843748 1.49282770 0.56530964
v -2.48137176 1.48539327 0.55353068
v -2.46469442 1.48549108 0.55353068
v -2.54803988 1.49280102 0.56528437
v -2.41472423 1.48607801 0.55353068
v -2.36471282 1.48674496 0.55353068
v -2.34811786 1.48699396 0.55345484
v -2.34811786 1.48994641 0.48936991
v -2.46469442 1.48957290 0.48929410
v -2.48137176 1.48953734 0.48927723
v -2.49802850 1.48952843 0.48926036
v -2.51470583 1.48952843 0.48925196
v -2.54803988 1.48956402 0.48926882
v -2.55843748 1.48957290 0.48927723
v -2.55843748 1.48548220 0.55353068
v -2.54803988 1.48541994 0.55353068
v -2.48137176 1.48229854 0.53686488
v -2.46469442 1.48235189 0.53686488
v -2.34811786 1.48325896 0.53678907
v -2.34811786 1.48251196 0.50347433
v -2.46469442 1.48173828 0.50354172
v -2.48137176 1.48166714 0.50354172
v -2.49802850 1.48164935 0.50354172
v -2.55843748 1.48171161 0.50354172
v -2.55843748 1.48662048 0.49462744
v -2.55843748 1.48351687 0.54311666
v -2.55843748 1.48235189 0.53686488
v -2.54803988 1.48232521 0.53686488
v -2.48137176 1.48183612 0.52020752
v -2.55843748 1.48202287 0.52645929
v -2.55843748 1.48184500 0.52020752
v -2.46469442 1.48190726 0.52020752
v -2.34811786 1.48262756 0.52013170
v -2.36471282 1.48239635 0.50354172
f 1 2 6
f 1 6 14
f 1 14 28
f 1 28 43
f 1 43 50
f 1 50 68
f 1 68 80
f 1 80 94
f 1 94 81
f 1 81 69
f 1 69 54
f 1 54 35
f 1 35 18
f 1 18 8
f 1 8 3
f 1 3 11
f 1 11 25
f 1 25 26
f 1 26 12
f 1 12 4
f 1 4 5
f 1 5 2
f 2 5 7
f 2 7 6
f 3 8 9
f 3 9 10
f 3 10 11
f 4 12 5
f 5 12 13
f 5 13 17
f 5 17 7
f 6 7 15
f 6 15 16
f 6 16 14
f 7 17 15
f 8 18 19
f 8 19 20
f 8 20 9
f 9 20 21
f 9 21 22
f 9 22 10
f 10 22 23
f 10 23 24
f 10 24 11
f 11 24 23
f 11 23 42
f 11 42 59
f 11 59 75
f 11 75 86
f 11 86 85
f 11 85 92
f 11 92 91
f 11 91 88
f 11 88 87
f 11 87 76
f 11 76 62
f 11 62 61
f 11 61 53
f 11 53 52
f 11 52 51
f 11 51 32
f 11 32 25
f 12 26 13
f 13 27 17
f 13 26 25
f 13 25 27
f 14 16 28
f 15 17 29
f 15 29 30
f 15 30 16
f 16 30 31
f 16 31 28
f 17 27 32
f 17 32 33
f 17 33 34
f 17 34 29
f 18 35 36
f 18 36 37
f 18 37 19
f 19 37 38
f 19 38 20
f 20 38 39
f 20 39 40
f 20 40 21
f 21 40 41
f 21 41 22
f 22 41 42
f 22 42 23
f 25 32 27
f 28 31 43
f 29 44 30
f 29 34 44
f 30 45 46
f 30 46 47
f 30 47 31
f 30 44 45
f 31 47 48
f 31 48 49
f 31 49 50
f 31 50 43
f 32 51 34
f 32 34 33
f 34 51 52
f 34 52 53
f 34 53 44
f 35 54 36
f 36 54 37
f 37 54 38
f 38 55 39
f 38 54 55
f 39 55 56
f 39 56 57
f 39 57 40
f 40 57 58
f 40 58 41
f 41 58 59
f 41 59 42
f 44 60 45
f 44 53 61
f 44 61 62
f 44 62 60
f 45 63 64
f 45 64 46
f 45 60 65
f 45 65 63
f 46 64 47
f 47 64 48
f 48 64 66
f 48 66 67
f 48 67 49
f 49 67 50
f 50 67 68
f 54 69 55
f 55 70 71
f 55 71 56
f 55 69 70
f 56 71 72
f 56 72 73
f 56 73 57
f 57 74 75
f 57 75 58
f 57 73 74
f 58 75 59
f 60 62 65
f 62 76 77
f 62 77 65
f 63 78 79
f 63 79 64
f 63 65 77
f 63 77 89
f 63 89 78
f 64 79 80
f 64 80 66
f 66 80 67
f 67 80 68
f 69 81 82
f 69 82 83
f 69 83 70
f 70 83 71
f 71 83 72
f 72 84 73
f 72 83 84
f 73 84 85
f 73 85 86
f 73 86 75
f 73 75 74
f 76 87 77
f 77 87 88
f 77 88 89
f 78 90 79
f 78 89 91
f 78 91 92
f 78 92 90
f 79 93 94
f 79 94 80
f 79 90 93
f 81 94 95
f 81 95 82
f 82 95 94
f 82 94 93
f 82 93 90
f 82 90 83
f 83 90 84
f 84 90 92
f 84 92 85
f 88 91 89

