# https://github.com/mikedh/trimesh
v 2.24270224 2.00568461 1.22693009
v 2.24270224 1.99312090 1.22686192
v 2.24270224 2.02234517 1.22640521
v 2.22613482 2.03750358 1.22147001
v 2.22613482 2.02234517 1.22157907
v 2.22613482 2.00568461 1.22163361
v 2.22613482 1.98902403 1.22160634
v 2.22613482 1.57246413 1.22036572
v 2.24270224 1.57246413 1.22368540
v 2.24270224 2.03750358 1.22528047
v 2.24183296 2.03750358 1.22508279
v 2.22613482 2.03750358 1.16560816
v 2.22613482 1.57246413 1.16402672
v 2.24270224 1.57246413 1.15729876
v 2.24270224 2.03750358 1.15835532
v 2.24270224 2.02676069 1.15792588
v 2.24270224 2.00978148 1.15757824
v 2.24270224 2.00568461 1.15754416
v 2.22613482 1.87235448 1.16500831
f 1 2 9
f 1 9 14
f 1 14 18
f 1 18 17
f 1 17 16
f 1 16 15
f 1 15 10
f 1 10 3
f 1 3 4
f 1 4 5
f 1 5 6
f 1 6 7
f 1 7 8
f 1 8 2
f 2 8 9
f 3 10 11
f 3 11 4
f 4 11 10
f 4 10 15
f 4 15 12
f 4 12 19
f 4 19 13
f 4 13 8
f 4 8 7
f 4 7 6
f 4 6 5
f 8 13 14
f 8 14 9
f 12 15 16
f 12 16 17
f 12 17 18
f 12 18 19
f 13 19 18
f 13 18 14

