# https://github.com/mikedh/trimesh
v 1.77567376 1.48238469 0.83687550
v 1.79234126 1.48239998 0.83687550
v 1.83496274 1.48275878 0.85354316
v 1.77567376 1.48271297 0.85354316
v 1.77335816 1.48271297 0.85354316
v 1.77335816 1.48239232 0.83687550
v 1.82567018 1.48619424 0.82020784
v 1.83496274 1.48620950 0.82020784
v 1.83496274 1.48412531 0.82949873
v 1.83496274 1.48249923 0.83687550
v 1.83496274 1.48263665 0.84616639
v 1.83496274 1.48356038 0.87020208
v 1.79234126 1.48345350 0.87020208
v 1.77567376 1.48343062 0.87020208
v 1.77335816 1.48333134 0.86788591
v 1.77335816 1.48297255 0.83455932
v 1.77335816 1.48673626 0.82020784
v 1.82567018 1.49366058 0.81042749
v 1.83496274 1.48951517 0.81588140
v 1.83496274 1.48911054 0.88686976
v 1.80900271 1.48882044 0.88686976
v 1.79234126 1.48870591 0.88686976
v 1.77335816 1.48344587 0.87020208
v 1.77335816 1.48777452 0.81888805
v 1.77335816 1.49427899 0.81073339
v 1.82567018 1.50569229 0.80943984
v 1.83496274 1.49900463 0.80999048
v 1.83496274 1.49368350 0.81042749
v 1.83496274 1.49276737 0.89210517
v 1.80900271 1.49549281 0.89644033
v 1.79234126 1.49540886 0.89647530
v 1.77567376 1.48882044 0.88686976
v 1.77335816 1.48808753 0.88455359
v 1.77335816 1.50569229 0.80981567
v 1.79234126 1.52235801 0.81025268
v 1.80900271 1.52235801 0.81018276
v 1.83496274 1.50569229 0.80948353
v 1.83496274 1.49569896 0.89630049
v 1.83496274 1.50124912 0.89709585
v 1.79234126 1.50569229 0.89798736
v 1.77335816 1.49554628 0.89637041
v 1.77567376 1.50569229 0.89794366
v 1.77335816 1.50569229 0.89793491
v 1.77335816 1.48885099 0.88686976
v 1.77335816 1.52235801 0.81046244
v 1.81710731 1.54904758 0.81182593
v 1.81765604 1.54904758 0.81182593
v 1.83496274 1.51306703 0.80996425
v 1.83496274 1.50569229 0.89770767
v 1.83496274 1.51498324 0.89798736
v 1.83496274 1.52235801 0.89818838
v 1.77567376 1.52235801 0.89841563
v 1.77335816 1.52235801 0.89842438
v 1.77335816 1.53220626 0.81138017
v 1.81005799 1.56036928 0.81484132
v 1.81951333 1.56036928 0.81463154
v 1.83496274 1.53402323 0.81158994
v 1.83496274 1.52858760 0.81105678
v 1.82465111 1.56036928 0.81463154
v 1.83496274 1.53902372 0.89846807
v 1.82567018 1.53902372 0.89850303
v 1.80900271 1.53902372 0.89854673
v 1.79234126 1.53902372 0.89857296
v 1.77567376 1.53902372 0.89858170
v 1.77335816 1.53671053 0.89855548
v 1.77335816 1.56036928 0.83393002
v 1.83496274 1.53740526 0.81234160
v 1.83496274 1.56036928 0.82013791
v 1.83496274 1.54831469 0.89854673
v 1.82567018 1.55568944 0.89864287
v 1.80900271 1.55568944 0.89869532
v 1.79234126 1.55568944 0.89870406
v 1.77567376 1.55568944 0.89868658
v 1.77335816 1.55337624 0.89866910
v 1.77335816 1.53902372 0.89857296
v 1.77335816 1.56036928 0.89868658
v 1.83496274 1.56036928 0.89862539
v 1.83496274 1.55568944 0.89860791
v 1.82567018 1.56036928 0.89866910
v 1.80900271 1.56036928 0.89871280
v 1.79702673 1.56036928 0.89872154
v 1.77335816 1.55568944 0.89867784
v 1.78035923 1.56036928 0.89870406
f 1 2 3
f 1 3 4
f 1 4 5
f 1 5 6
f 1 6 7
f 1 7 2
f 2 7 8
f 2 8 9
f 2 9 10
f 2 10 11
f 2 11 3
f 3 11 10
f 3 10 9
f 3 9 8
f 3 8 19
f 3 19 28
f 3 28 27
f 3 27 37
f 3 37 48
f 3 48 58
f 3 58 57
f 3 57 67
f 3 67 68
f 3 68 77
f 3 77 78
f 3 78 69
f 3 69 60
f 3 60 51
f 3 51 50
f 3 50 49
f 3 49 39
f 3 39 38
f 3 38 29
f 3 29 20
f 3 20 12
f 3 12 13
f 3 13 14
f 3 14 4
f 4 14 5
f 5 14 15
f 5 15 23
f 5 23 33
f 5 33 44
f 5 44 41
f 5 41 43
f 5 43 53
f 5 53 65
f 5 65 75
f 5 75 74
f 5 74 82
f 5 82 76
f 5 76 66
f 5 66 54
f 5 54 45
f 5 45 34
f 5 34 25
f 5 25 24
f 5 24 17
f 5 17 16
f 5 16 6
f 6 16 7
f 7 16 17
f 7 17 18
f 7 18 8
f 8 18 19
f 12 20 21
f 12 21 22
f 12 22 13
f 13 22 14
f 14 23 15
f 14 22 23
f 17 24 18
f 18 25 26
f 18 26 27
f 18 27 28
f 18 28 19
f 18 24 25
f 20 29 30
f 20 30 21
f 21 30 22
f 22 30 31
f 22 31 32
f 22 32 23
f 23 32 33
f 25 34 26
f 26 34 35
f 26 35 36
f 26 36 37
f 26 37 27
f 29 38 30
f 30 38 39
f 30 39 40
f 30 40 31
f 31 41 32
f 31 40 42
f 31 42 43
f 31 43 41
f 32 44 33
f 32 41 44
f 34 45 35
f 35 45 46
f 35 46 36
f 36 46 47
f 36 47 37
f 37 47 48
f 39 49 40
f 40 50 51
f 40 51 52
f 40 52 53
f 40 53 42
f 40 49 50
f 42 53 43
f 45 54 46
f 46 54 55
f 46 55 56
f 46 56 59
f 46 59 47
f 47 57 58
f 47 58 48
f 47 59 57
f 51 60 52
f 52 60 53
f 53 60 61
f 53 61 62
f 53 62 63
f 53 63 64
f 53 64 65
f 54 66 55
f 55 66 76
f 55 76 83
f 55 83 81
f 55 81 80
f 55 80 79
f 55 79 77
f 55 77 68
f 55 68 59
f 55 59 56
f 57 59 67
f 59 68 67
f 60 69 61
f 61 69 70
f 61 70 71
f 61 71 62
f 62 71 63
f 63 71 72
f 63 72 64
f 64 72 73
f 64 73 74
f 64 74 75
f 64 75 65
f 69 78 70
f 70 78 79
f 70 79 71
f 71 80 81
f 71 81 72
f 71 79 80
f 72 81 83
f 72 83 73
f 73 82 74
f 73 83 76
f 73 76 82
f 77 79 78

