# https://github.com/mikedh/trimesh
v -2.2315859049999998 -0.29790449 0.18909575
v -2.219464285 -0.29790449 0.18652473
v -2.233726495 -0.29790449 0.18873247
v -2.2315859049999998 -0.64459535 0.18879766
v -2.219606165 -0.64459535 0.18644093
v -2.212567655 -0.29790449 0.17530924
v -2.242998095 -0.29790449 0.18621734
v -2.242375075 -0.64459535 0.18596583
v -2.2128205349999996 -0.64459535 0.17522538
v -2.209902765 -0.29790449 0.16207226
v -2.270307205 -0.29790449 0.16407508
v -2.272299695 -0.64459535 0.16203504
v -2.209643615 -0.64459535 0.15855116
v -2.209279685 -0.29790449 0.15863495
v -2.270307205 -0.29790449 0.11204953
v -2.272299695 -0.46860291 0.16080542
v -2.272299695 -0.46863685 0.16095446
v -2.272299695 -0.64459535 0.11786223
v -2.2098225449999997 -0.64459535 0.14186757
v -2.209335215 -0.29790449 0.14538873
v -2.268246835 -0.29790449 0.10881715
v -2.2667724949999997 -0.64459535 0.10862158
v -2.272299695 -0.46860291 0.11957626
v -2.2104455549999997 -0.64459535 0.12521195
v -2.209372195 -0.29790449 0.14195142
v -2.267124085 -0.29790449 0.10734538
v -2.259493335 -0.64459535 0.0983282
v -2.213178325 -0.64459535 0.10856564
v -2.210538125 -0.29790449 0.12530511
v -2.259258945 -0.29790449 0.09870084
v -2.2483093949999997 -0.64459535 0.09511449
v -2.219390265 -0.64459535 0.09709864
v -2.218279925 -0.29790449 0.09946467
v -2.2136101249999998 -0.29790449 0.10862158
v -2.2482538649999997 -0.29790449 0.09575725
v -2.231666125 -0.64459535 0.09393145
v -2.2315859049999998 -0.29790449 0.09437858
v -2.229192435 -0.29790449 0.09476982
v -2.219507465 -0.29790449 0.09732218
f 1 2 6
f 1 6 10
f 1 10 14
f 1 14 20
f 1 20 25
f 1 25 29
f 1 29 34
f 1 34 33
f 1 33 39
f 1 39 38
f 1 38 37
f 1 37 35
f 1 35 30
f 1 30 26
f 1 26 21
f 1 21 15
f 1 15 11
f 1 11 7
f 1 7 3
f 1 3 4
f 1 4 5
f 1 5 2
f 2 5 6
f 3 7 8
f 3 8 4
f 4 8 12
f 4 12 18
f 4 18 22
f 4 22 27
f 4 27 31
f 4 31 36
f 4 36 32
f 4 32 28
f 4 28 24
f 4 24 19
f 4 19 13
f 4 13 9
f 4 9 5
f 5 9 6
f 6 9 10
f 7 11 12
f 7 12 8
f 9 13 10
f 10 13 14
f 11 15 23
f 11 23 16
f 11 16 17
f 11 17 12
f 12 17 16
f 12 16 23
f 12 23 18
f 13 19 20
f 13 20 14
f 15 21 22
f 15 22 18
f 15 18 23
f 19 24 25
f 19 25 20
f 21 26 27
f 21 27 22
f 24 28 29
f 24 29 25
f 26 30 27
f 27 30 31
f 28 32 33
f 28 33 34
f 28 34 29
f 30 35 31
f 31 35 37
f 31 37 36
f 32 36 38
f 32 38 39
f 32 39 33
f 36 37 38

