# https://github.com/mikedh/trimesh
v 0.24865697 2.04305958 1.40857980
v 0.24745432 1.97796855 1.40857980
v 0.24297946 2.04312975 1.40857980
v 0.24865000 2.04312975 1.42097049
v 0.24862902 2.04312975 1.49157770
v 0.24743334 1.97796855 1.49157770
v 0.17788367 1.97796855 1.40857980
v 0.17722641 2.04312975 1.40857980
v 0.24861501 2.04312975 1.50426340
v 0.24742636 1.97796855 1.50824610
v 0.17775081 1.97796855 1.55825136
v 0.17727534 2.04312975 1.69154956
v 0.17770188 1.97796855 1.64700210
v 0.17769484 1.97796855 1.66362133
v 0.17769484 1.97796855 1.68028979
v 0.24734250 1.97796855 1.55825136
v 0.24737743 1.97796855 1.54158296
v 0.24785987 2.04312975 1.83758263
v 0.17745714 2.04013772 1.91084498
v 0.17735223 2.04312975 1.74548840
v 0.17773680 1.97796855 1.70816878
v 0.24726555 1.97796855 1.59158822
v 0.24781791 2.04312975 1.85425103
v 0.24661532 1.97796855 1.85818456
v 0.17820530 1.97796855 1.91084498
v 0.17828923 2.04312975 1.91084498
v 0.17773680 2.04312975 1.85818456
v 0.17757599 2.04312975 1.84151616
v 0.17754106 2.04312975 1.82883045
v 0.17749910 2.04312975 1.81216205
v 0.17776482 1.97796855 1.72483724
v 0.17779975 1.97796855 1.74150564
v 0.24772701 2.04312975 1.87091943
v 0.24647548 1.97796855 1.90818981
v 0.24652442 1.97796855 1.89152141
v 0.24639853 1.97796855 1.91084498
v 0.24733547 2.04312975 1.91084498
v 0.24762217 2.04312975 1.88758789
v 0.24746832 2.04312975 1.90425629
v 0.24739841 2.04312975 1.90818981
f 1 2 7
f 1 7 8
f 1 8 3
f 1 3 4
f 1 4 5
f 1 5 6
f 1 6 2
f 2 6 10
f 2 10 17
f 2 17 16
f 2 16 22
f 2 22 24
f 2 24 35
f 2 35 34
f 2 34 36
f 2 36 25
f 2 25 32
f 2 32 31
f 2 31 21
f 2 21 15
f 2 15 14
f 2 14 13
f 2 13 11
f 2 11 7
f 3 8 12
f 3 12 20
f 3 20 30
f 3 30 29
f 3 29 28
f 3 28 27
f 3 27 26
f 3 26 37
f 3 37 40
f 3 40 39
f 3 39 38
f 3 38 33
f 3 33 23
f 3 23 18
f 3 18 9
f 3 9 5
f 3 5 4
f 5 9 10
f 5 10 6
f 7 11 8
f 8 11 13
f 8 13 14
f 8 14 15
f 8 15 12
f 9 16 17
f 9 17 10
f 9 18 16
f 12 15 19
f 12 19 20
f 15 21 19
f 16 18 22
f 18 23 24
f 18 24 22
f 19 25 36
f 19 36 37
f 19 37 26
f 19 26 27
f 19 27 28
f 19 28 29
f 19 29 30
f 19 30 20
f 19 21 31
f 19 31 32
f 19 32 25
f 23 33 34
f 23 34 35
f 23 35 24
f 33 38 34
f 34 38 39
f 34 39 40
f 34 40 37
f 34 37 36

