# https://github.com/mikedh/trimesh
v -3.78978907 1.94271552 0.20309880
v -3.79373987 2.04469337 0.20364788
v -3.78980749 1.95571633 0.20309880
v -3.74866958 1.94271552 0.20309880
v -3.78949438 1.94271552 0.37018357
v -3.79368462 2.04480330 0.30372029
v -3.79136389 2.04480330 0.20364788
v -3.78978448 2.01479454 0.20309880
v -3.79373987 2.04480330 0.21076324
v -3.79368462 2.04480330 0.20396820
v -3.74849923 2.00568097 0.20309880
v -3.74680930 2.04475334 0.20364788
v -3.74673563 2.04480330 0.21337144
v -3.74669880 2.04480330 0.23005015
v -3.74691981 2.04480330 0.43680702
v -3.74930962 1.94275549 0.43682991
v -3.74937411 1.94271552 0.43314637
v -3.78945295 1.94271552 0.38686234
v -3.78923653 1.94271552 0.43682991
v -3.79364319 2.04480330 0.31053822
v -3.74746776 2.04480330 0.20364788
v -3.74848081 2.01479454 0.20309880
v -3.78965555 2.04480330 0.43680702
v -3.74872483 2.01479454 0.43682991
v -3.74879392 2.00568097 0.43682991
v -3.74905636 1.97237454 0.43682991
v -3.74919452 1.95571633 0.43682991
v -3.78882209 1.94271552 0.43682991
v -3.78922735 2.01477454 0.43682991
v -3.79143298 2.04480330 0.39036283
v -3.79200393 2.04480330 0.37475940
v -3.79307683 2.04480330 0.33671172
v -3.74893202 2.01479454 0.43682991
f 1 2 3
f 1 3 8
f 1 8 22
f 1 22 11
f 1 11 4
f 1 4 17
f 1 17 28
f 1 28 19
f 1 19 18
f 1 18 5
f 1 5 6
f 1 6 2
f 2 7 8
f 2 8 3
f 2 6 9
f 2 9 10
f 2 10 7
f 4 11 12
f 4 12 13
f 4 13 14
f 4 14 15
f 4 15 16
f 4 16 17
f 5 18 6
f 6 18 19
f 6 19 20
f 6 20 32
f 6 32 31
f 6 31 30
f 6 30 23
f 6 23 15
f 6 15 14
f 6 14 13
f 6 13 21
f 6 21 7
f 6 7 10
f 6 10 9
f 7 21 22
f 7 22 8
f 11 22 12
f 12 22 21
f 12 21 13
f 15 23 33
f 15 33 24
f 15 24 25
f 15 25 26
f 15 26 27
f 15 27 16
f 16 27 26
f 16 26 25
f 16 25 24
f 16 24 33
f 16 33 29
f 16 29 19
f 16 19 28
f 16 28 17
f 19 29 23
f 19 23 30
f 19 30 31
f 19 31 32
f 19 32 20
f 23 29 33

