# https://github.com/mikedh/trimesh
v 2.29391461 2.03782131 1.60928756
v 2.30277473 2.00568756 1.58213886
v 2.30264419 2.03782131 1.58194597
v 2.25310048 2.03782131 1.60928756
v 2.29387545 1.73331972 1.60928756
v 2.30275518 1.98901792 1.58209827
v 2.30502083 2.03782131 1.57020931
v 2.30485757 2.03782131 1.57105201
v 2.29386889 1.69998043 1.60928756
v 2.29382973 1.61314030 1.60928756
v 2.25304171 2.00581229 1.60928756
v 2.23893210 2.03782131 1.60227198
v 2.23893210 1.93560022 1.60269839
v 2.23893210 1.91893059 1.60273898
v 2.30495550 2.00568756 1.57020931
v 2.30195862 1.61314030 1.58113374
v 2.30549743 2.03782131 1.55475668
v 2.25348571 1.61314030 1.60928756
v 2.25304171 2.00568756 1.60928756
v 2.23893210 2.03782131 1.54842131
v 2.23893210 1.90226094 1.60273898
v 2.30490979 1.98901792 1.57020931
v 2.30437441 1.61314030 1.55354849
v 2.30381287 1.61314030 1.57020931
v 2.30553010 2.03782131 1.55354849
v 2.23893210 1.61314030 1.60201812
v 2.25310697 1.73905640 1.60928756
v 2.23893210 1.73905640 1.60255623
v 2.23893210 1.73564765 1.60254610
v 2.23893210 1.71897800 1.60247499
v 2.25304826 1.93900898 1.60928756
v 2.24446882 2.03782131 1.52021671
v 2.24440355 2.00568756 1.52021671
v 2.23893210 1.73905640 1.54625878
v 2.30407406 1.61314030 1.56275712
v 2.30434831 1.61314030 1.54609630
v 2.30562803 2.03782131 1.53687753
v 2.30562803 2.03782131 1.53808572
v 2.23893210 1.61314030 1.54593387
v 2.24471046 2.03782131 1.51919132
v 2.24775306 2.00568756 1.50566769
v 2.24411626 1.78906533 1.52021671
v 2.23893210 1.72238675 1.54614708
v 2.30428298 1.61314030 1.53687753
v 2.30314041 2.03782131 1.52404437
v 2.30346031 1.61314030 1.53110054
v 2.30242872 1.61314030 1.52390221
v 2.24437745 1.70571711 1.52021671
v 2.24794893 1.62236890 1.50685562
v 2.24493243 1.61314030 1.52021671
v 2.24429907 1.72238675 1.52021671
v 2.24801419 2.03782131 1.50628705
v 2.24779222 2.00547972 1.50556618
v 2.24778567 1.99608485 1.50556618
v 2.24750493 1.78906533 1.50604338
v 2.29540325 2.03782131 1.50556618
v 2.29591907 1.61314030 1.50556618
v 2.24862145 1.62236890 1.50556618
v 2.24864100 1.62091394 1.50556618
v 2.24866061 1.61970840 1.50556618
v 2.24877160 1.61314030 1.50556618
v 2.24803380 1.61314030 1.50699772
v 2.24781183 1.67237782 1.50651039
v 2.24830149 1.67237782 1.50556618
v 2.24829499 2.03782131 1.50567788
v 2.24834065 2.03757189 1.50556618
v 2.24775956 1.80573498 1.50556618
v 2.24775956 1.78906533 1.50556618
v 2.24834721 2.03782131 1.50556618
f 1 2 3
f 1 3 8
f 1 8 7
f 1 7 17
f 1 17 25
f 1 25 38
f 1 38 37
f 1 37 45
f 1 45 56
f 1 56 69
f 1 69 65
f 1 65 52
f 1 52 40
f 1 40 32
f 1 32 20
f 1 20 12
f 1 12 4
f 1 4 11
f 1 11 19
f 1 19 31
f 1 31 27
f 1 27 18
f 1 18 10
f 1 10 9
f 1 9 5
f 1 5 2
f 2 6 7
f 2 7 8
f 2 8 3
f 2 5 9
f 2 9 10
f 2 10 6
f 4 12 13
f 4 13 14
f 4 14 11
f 6 15 7
f 6 10 16
f 6 16 15
f 7 15 17
f 10 18 26
f 10 26 39
f 10 39 50
f 10 50 62
f 10 62 61
f 10 61 57
f 10 57 47
f 10 47 46
f 10 46 44
f 10 44 36
f 10 36 23
f 10 23 35
f 10 35 24
f 10 24 16
f 11 14 21
f 11 21 19
f 12 20 34
f 12 34 43
f 12 43 39
f 12 39 26
f 12 26 30
f 12 30 29
f 12 29 28
f 12 28 21
f 12 21 14
f 12 14 13
f 15 16 22
f 15 22 23
f 15 23 17
f 16 24 22
f 17 23 25
f 18 27 28
f 18 28 29
f 18 29 30
f 18 30 26
f 19 21 31
f 20 32 33
f 20 33 34
f 21 28 27
f 21 27 31
f 22 24 35
f 22 35 23
f 23 36 37
f 23 37 38
f 23 38 25
f 32 40 41
f 32 41 33
f 33 41 42
f 33 42 34
f 34 42 43
f 36 44 37
f 37 44 46
f 37 46 47
f 37 47 45
f 39 48 49
f 39 49 50
f 39 43 42
f 39 42 51
f 39 51 48
f 40 52 41
f 41 52 53
f 41 53 54
f 41 54 55
f 41 55 42
f 42 55 51
f 45 47 57
f 45 57 56
f 48 51 49
f 49 58 59
f 49 59 60
f 49 60 61
f 49 61 62
f 49 62 50
f 49 51 63
f 49 63 64
f 49 64 58
f 51 55 63
f 52 65 66
f 52 66 53
f 53 66 69
f 53 69 56
f 53 56 57
f 53 57 61
f 53 61 60
f 53 60 59
f 53 59 58
f 53 58 64
f 53 64 68
f 53 68 67
f 53 67 54
f 54 67 55
f 55 67 68
f 55 68 64
f 55 64 63
f 65 69 66

