# https://github.com/mikedh/trimesh
v -1.82849961 1.79160571 0.20354363
v -1.86803873 1.79160571 0.20354363
v -1.82815831 1.79158261 0.20354363
v -1.82815831 1.79160571 0.20352193
v -1.88516143 1.79160571 0.18375765
v -1.88516143 1.75569233 0.18396406
v -1.88516143 1.75188158 0.18397497
v -1.88516143 1.73522978 0.18400758
v -1.88516143 1.55570907 0.18411624
v -1.86805321 1.75569233 0.20354363
v -1.81508030 1.79160571 0.17019755
v -1.82792591 1.55570907 0.20354363
v -1.81383854 1.55566288 0.17019755
v -1.81416530 1.63903736 0.17019755
v -1.88516143 1.79160571 0.12795266
v -1.88516143 1.55566288 0.18411624
v -1.86800243 1.73901743 0.20354363
v -1.81469542 1.79160571 0.16761158
v -1.81097750 1.55566288 0.15352993
v -1.86705113 1.55568597 0.20354363
v -1.82791870 1.55566288 0.20352193
v -1.86324612 1.79160571 0.10391832
v -1.88516143 1.55566288 0.12381296
v -1.86705113 1.55566288 0.20352193
v -1.81262588 1.79160571 0.15352993
v -1.81103561 1.55566288 0.13687322
v -1.81103561 1.55570907 0.13687322
v -1.81250970 1.79160571 0.12020560
v -1.81253146 1.79160571 0.13687322
v -1.84804044 1.79160571 0.09583438
v -1.85758936 1.55566288 0.09417199
v -1.81127522 1.55566288 0.12020560
v -1.81127522 1.55570907 0.12020560
v -1.81775978 1.79160571 0.10353798
v -1.81614770 1.55566288 0.10353798
v -1.82327856 1.79160571 0.09519332
v -1.84804044 1.55566288 0.09259651
v -1.82303168 1.78901902 0.09519332
v -1.81858031 1.79160571 0.10224503
v -1.82193518 1.55566288 0.09412854
v -1.82308246 1.79160571 0.09519332
v -1.83137520 1.55566288 0.09255305
f 1 2 10
f 1 10 17
f 1 17 20
f 1 20 12
f 1 12 3
f 1 3 4
f 1 4 11
f 1 11 18
f 1 18 25
f 1 25 29
f 1 29 28
f 1 28 34
f 1 34 39
f 1 39 41
f 1 41 36
f 1 36 30
f 1 30 22
f 1 22 15
f 1 15 5
f 1 5 2
f 2 5 6
f 2 6 7
f 2 7 8
f 2 8 9
f 2 9 10
f 3 11 4
f 3 12 13
f 3 13 14
f 3 14 11
f 5 15 23
f 5 23 16
f 5 16 9
f 5 9 8
f 5 8 7
f 5 7 6
f 9 16 10
f 10 16 17
f 11 14 19
f 11 19 18
f 12 20 21
f 12 21 13
f 13 21 24
f 13 24 16
f 13 16 23
f 13 23 31
f 13 31 37
f 13 37 42
f 13 42 40
f 13 40 35
f 13 35 32
f 13 32 26
f 13 26 19
f 13 19 14
f 15 22 23
f 16 24 20
f 16 20 17
f 18 19 25
f 19 26 27
f 19 27 28
f 19 28 29
f 19 29 25
f 20 24 21
f 22 30 31
f 22 31 23
f 26 32 33
f 26 33 27
f 27 33 28
f 28 33 35
f 28 35 34
f 30 36 37
f 30 37 31
f 32 35 33
f 34 38 39
f 34 35 40
f 34 40 38
f 36 41 42
f 36 42 37
f 38 41 39
f 38 40 41
f 40 42 41

