# https://github.com/mikedh/trimesh
v -0.36374164 -0.67811573 1.49287033
v -0.3638029600000001 -0.6947942899999999 1.49287033
v -0.36720836 -0.66540947 1.49287033
v -0.3673483900000001 -0.66537552 1.62619488
v -0.36394298999999997 -0.6780393499999999 1.60952721
v -0.36395175999999996 -0.69472639 1.62619488
v -0.3639254599999999 -0.69472639 1.60952721
v -0.36396052999999995 -0.71145587 1.49287033
v -0.36407432000000006 -0.71138797 1.65954678
v -0.3640217800000001 -0.71138797 1.60952721
v -0.3790616499999999 -0.65984995 1.49287033
v -0.37898286999999997 -0.65951892 1.66262112
v -0.36955446999999997 -0.66425513 1.66262112
v -0.36742717999999996 -0.6653330900000001 1.66262112
v -0.3639867700000001 -0.6780393499999999 1.62619488
v -0.36405679 -0.69472639 1.66262112
v -0.36405679 -0.6977905 1.66262112
v -0.3645995900000001 -0.72810899 1.49287033
v -0.36465207 -0.72805805 1.66262112
v -0.36408303 -0.71138797 1.66262112
v -0.3957385600000001 -0.65867014 1.49287033
v -0.3956772500000001 -0.6576770700000001 1.66262112
v -0.38204682 -0.65889083 1.66262112
v -0.36412681000000013 -0.6780393499999999 1.66262112
v -0.3678999599999999 -0.7393468400000001 1.49287033
v -0.36525611999999996 -0.73014606 1.66262112
v -0.3679349700000001 -0.73932138 1.66262112
v -0.4123804 -0.65914546 1.49287033
v -0.399713 -0.6575327799999999 1.66262112
v -0.37898286999999997 -0.74337857 1.49287033
v -0.37898286999999997 -0.74338704 1.66262112
v -0.4123191500000001 -0.65889931 1.52615573
v -0.4255643499999999 -0.66466254 1.49287033
v -0.41558450999999996 -0.65894176 1.66262112
v -0.4123191500000001 -0.6580759899999999 1.66262112
v -0.39565976999999997 -0.74424432 1.49287033
v -0.3925869900000001 -0.74405758 1.66262112
v -0.44270527000000004 -0.68206257 1.49287033
v -0.4432042300000001 -0.68202014 1.5094881
v -0.42573945999999996 -0.6644843 1.52615573
v -0.4263609800000001 -0.66373737 1.66262112
v -0.42899606 -0.7434464700000001 1.49287033
v -0.39565976999999997 -0.74420189 1.66262112
v -0.45131944999999996 -0.69549879 1.49287033
v -0.4498224500000001 -0.69141615 1.66262112
v -0.44356315000000013 -0.6814174900000001 1.66262112
v -0.44330932 -0.7397542500000001 1.5595077
v -0.4432042300000001 -0.73980519 1.5094881
v -0.44314297999999996 -0.73982215 1.49287033
v -0.42899606 -0.7433446 1.5595077
v -0.44329178 -0.73973729 1.57619194
v -0.40924636999999997 -0.7436162399999999 1.66262112
v -0.42899606 -0.7432088 1.59285961
v -0.42899606 -0.7432937 1.57619194
v -0.4531753700000001 -0.7117190099999999 1.49287033
v -0.4525713200000001 -0.70615949 1.66262112
v -0.4510130700000001 -0.69472639 1.66262112
v -0.44688105999999994 -0.73424566 1.56736789
v -0.45088174000000003 -0.72805805 1.49287033
v -0.4509517599999999 -0.72798165 1.66262112
v -0.4431867600000001 -0.7396863499999999 1.59285961
v -0.44314297999999996 -0.73960148 1.60952721
v -0.44313421 -0.73949115 1.62619488
v -0.44466622 -0.73706362 1.66262112
v -0.4123191500000001 -0.74347194 1.66262112
v -0.42899606 -0.74309846 1.60952721
v -0.4529740200000001 -0.71138797 1.66262112
v -0.4515821099999999 -0.72309267 1.66262112
v -0.44303789000000005 -0.73923651 1.66262112
v -0.4259232800000001 -0.74275895 1.66262112
v -0.42899606 -0.74293719 1.62619488
v -0.42899606 -0.7425807200000001 1.66262112
f 1 2 8
f 1 8 18
f 1 18 25
f 1 25 30
f 1 30 36
f 1 36 42
f 1 42 49
f 1 49 59
f 1 59 55
f 1 55 44
f 1 44 38
f 1 38 33
f 1 33 28
f 1 28 21
f 1 21 11
f 1 11 3
f 1 3 4
f 1 4 5
f 1 5 6
f 1 6 7
f 1 7 2
f 2 7 9
f 2 9 10
f 2 10 8
f 3 11 12
f 3 12 13
f 3 13 14
f 3 14 4
f 4 14 5
f 5 14 15
f 5 15 6
f 6 15 16
f 6 16 17
f 6 17 9
f 6 9 7
f 8 10 19
f 8 19 18
f 9 17 20
f 9 20 19
f 9 19 10
f 11 21 22
f 11 22 23
f 11 23 12
f 12 23 22
f 12 22 29
f 12 29 35
f 12 35 34
f 12 34 41
f 12 41 46
f 12 46 45
f 12 45 57
f 12 57 56
f 12 56 67
f 12 67 68
f 12 68 60
f 12 60 64
f 12 64 69
f 12 69 72
f 12 72 70
f 12 70 65
f 12 65 52
f 12 52 43
f 12 43 37
f 12 37 31
f 12 31 27
f 12 27 26
f 12 26 19
f 12 19 20
f 12 20 17
f 12 17 16
f 12 16 24
f 12 24 14
f 12 14 13
f 14 24 15
f 15 24 16
f 18 19 26
f 18 26 27
f 18 27 25
f 21 28 29
f 21 29 22
f 25 27 31
f 25 31 30
f 28 32 29
f 28 33 34
f 28 34 32
f 29 32 35
f 30 31 36
f 31 37 36
f 32 34 35
f 33 38 39
f 33 39 40
f 33 40 34
f 34 40 41
f 36 37 43
f 36 43 42
f 38 44 39
f 39 44 45
f 39 45 46
f 39 46 41
f 39 41 40
f 42 47 48
f 42 48 49
f 42 43 50
f 42 50 51
f 42 51 47
f 43 52 53
f 43 53 54
f 43 54 50
f 44 55 56
f 44 56 57
f 44 57 45
f 47 58 59
f 47 59 48
f 47 51 60
f 47 60 58
f 48 59 49
f 50 54 51
f 51 54 61
f 51 61 62
f 51 62 63
f 51 63 64
f 51 64 60
f 52 65 66
f 52 66 53
f 53 66 62
f 53 62 61
f 53 61 54
f 55 67 56
f 55 59 60
f 55 60 68
f 55 68 67
f 58 60 59
f 62 66 63
f 63 66 69
f 63 69 64
f 65 70 66
f 66 71 69
f 66 70 71
f 69 71 72
f 70 72 71

