# https://github.com/mikedh/trimesh
v -0.3896898 -0.65541748 1.7095821
v -0.39070191 -0.65541748 1.6929167
v -0.39232964000000004 -0.6374502 1.70960321
v -0.3923043500000001 -0.6374502 1.72627917
v -0.3923381100000001 -0.6374502 1.74294457
v -0.38979100999999994 -0.65541748 1.74280727
v -0.39793831 -0.6374502 1.69252593
v -0.39619249 -0.65541748 1.67677937
v -0.3937213100000001 -0.6374502 1.75238615
v -0.39056694000000003 -0.65541748 1.75939871
v -0.40364818999999996 -0.6374502 1.68928365
v -0.3966984900000001 -0.65541748 1.67657868
v -0.41233531 -0.6374502 1.68529162
v -0.39518885000000004 -0.6374502 1.75962052
v -0.3906007 -0.65541748 1.75962052
v -0.41233531 -0.65541748 1.67261831
v -0.41306061000000005 -0.6374502 1.68527045
v -0.39848653999999994 -0.6374502 1.76600995
v -0.3958803900000001 -0.65541748 1.776043
v -0.39552618000000006 -0.65541748 1.77535653
v -0.4364314200000001 -0.6374502 1.68523878
v -0.4300131199999999 -0.6374502 1.6851226
v -0.41319558 -0.65541748 1.67278728
v -0.47585231000000006 -0.6374502 1.68596747
v -0.4010083500000001 -0.6374502 1.77024497
v -0.4117280400000001 -0.65541748 1.78034135
v -0.47585231000000006 -0.65541748 1.68602032
v -0.47585231000000006 -0.64786471 1.68598865
v -0.47585231000000006 -0.6374502 1.76930502
v -0.40766283000000003 -0.6374502 1.77194528
v -0.41233531 -0.65541748 1.78049981
v -0.47585231000000006 -0.65541748 1.76951627
v -0.41233531 -0.6374502 1.77249446
f 1 2 3
f 1 3 4
f 1 4 5
f 1 5 6
f 1 6 10
f 1 10 15
f 1 15 20
f 1 20 19
f 1 19 26
f 1 26 31
f 1 31 32
f 1 32 27
f 1 27 23
f 1 23 16
f 1 16 12
f 1 12 8
f 1 8 2
f 2 7 3
f 2 8 7
f 3 7 11
f 3 11 13
f 3 13 17
f 3 17 22
f 3 22 21
f 3 21 24
f 3 24 29
f 3 29 33
f 3 33 30
f 3 30 25
f 3 25 18
f 3 18 14
f 3 14 9
f 3 9 5
f 3 5 4
f 5 9 10
f 5 10 6
f 7 8 11
f 8 12 13
f 8 13 11
f 9 14 15
f 9 15 10
f 12 16 13
f 13 16 17
f 14 18 19
f 14 19 20
f 14 20 15
f 16 21 22
f 16 22 17
f 16 23 24
f 16 24 21
f 18 25 19
f 19 25 26
f 23 27 28
f 23 28 24
f 24 28 27
f 24 27 32
f 24 32 29
f 25 30 31
f 25 31 26
f 29 32 31
f 29 31 33
f 30 33 31

