# https://github.com/mikedh/trimesh
v 0.33340190 1.46402867 1.82341288
v 0.33407877 1.46402867 1.82341288
v 0.33345143 1.46402867 1.83684984
v 0.32697962 1.46420314 1.81880969
v 0.32566712 1.46429034 1.80351019
v 0.32566712 1.46496629 1.65711364
v 0.32567541 1.46506440 1.63689164
v 0.32567541 1.46515160 1.62023511
v 0.34233361 1.46514072 1.60913968
v 0.34071563 1.46461739 1.81880969
v 0.33407055 1.46402867 1.83684984
v 0.34233361 1.46486815 1.75354060
v 0.33387242 1.46402867 1.84688103
v 0.32512233 1.46425764 1.83684984
v 0.31783334 1.47059182 1.60913968
v 0.32567541 1.46521702 1.60913968
v 0.32712822 1.54977451 1.60733031
v 0.37920784 1.54977451 1.60733031
v 0.35897530 1.46770273 1.60913968
v 0.35898352 1.46749560 1.70357100
v 0.34233361 1.46480273 1.80351019
v 0.34240787 1.46479186 1.83684984
v 0.33401273 1.46402867 1.84688103
v 0.32566712 1.46433394 1.87915636
v 0.32566712 1.46429034 1.87018949
v 0.31392879 1.47263052 1.87915636
v 0.31392056 1.47260871 1.87018949
v 0.31392056 1.47259783 1.85350637
v 0.31392879 1.47257602 1.82019331
v 0.31391233 1.47260871 1.80351019
v 0.31389576 1.47266325 1.78685366
v 0.31393701 1.47296849 1.68688788
v 0.31391233 1.47328466 1.60913968
v 0.31074241 1.48903835 1.60913968
v 0.31094054 1.49460938 1.60913968
v 0.31134502 1.50570782 1.60913968
v 0.31165044 1.51126794 1.60913968
v 0.31227784 1.52234456 1.60913968
v 0.31321889 1.52626935 1.60913968
v 0.31510098 1.53400994 1.60913968
v 0.33476393 1.57063043 1.60733031
v 0.37903445 1.57063043 1.60733031
v 0.39506530 1.50255706 1.60913968
v 0.39362071 1.48955075 1.60913968
v 0.39211008 1.48533160 1.60913968
v 0.38714897 1.47741658 1.60913968
v 0.37949674 1.47375346 1.60913968
v 0.37564172 1.47192188 1.60913968
v 0.36454730 1.46908730 1.60913968
v 0.37564172 1.47171475 1.65354818
v 0.35898352 1.46748470 1.72022753
v 0.35127354 1.46641627 1.87915636
v 0.34233361 1.46492266 1.87915636
v 0.35898352 1.46749560 1.75354060
v 0.35898352 1.46750648 1.77017049
v 0.33461534 1.46462830 1.87915636
v 0.31219535 1.48141769 1.87915636
v 0.31388754 1.47273954 1.77017049
v 0.31387931 1.47281587 1.75354060
v 0.31073419 1.48903835 1.87915636
v 0.31105618 1.49797814 1.87915636
v 0.31134502 1.50570782 1.62023511
v 0.31221180 1.52234456 1.63689164
v 0.31504316 1.53419525 1.63689164
v 0.33065303 1.57089209 1.87915636
v 0.33539128 1.57539469 1.65711364
v 0.39499104 1.50570782 1.60913968
v 0.39500755 1.50524990 1.60913968
v 0.37270301 1.57539469 1.65711364
v 0.37577381 1.57539469 1.87915636
v 0.39371978 1.50570782 1.87915636
v 0.39315019 1.48906014 1.87915636
v 0.38728099 1.47724217 1.65354818
v 0.38727277 1.47724217 1.63689164
v 0.38738834 1.47738388 1.83684984
v 0.37564172 1.47171475 1.65711364
v 0.35898352 1.46778993 1.87915636
v 0.37565001 1.47181286 1.77017049
v 0.37565001 1.47187828 1.82019331
v 0.31135325 1.50570782 1.87915636
v 0.31226127 1.52234456 1.75354060
v 0.31399483 1.53027047 1.87915636
v 0.31539817 1.53605955 1.87915636
v 0.33369080 1.57539469 1.87915636
v 0.38723152 1.47815795 1.87915636
v 0.38733053 1.47734028 1.82019331
v 0.38725626 1.47758013 1.85350637
v 0.37565001 1.47224893 1.85350637
v 0.37565001 1.47199820 1.83684984
v 0.37565001 1.47272863 1.87915636
v 0.31191461 1.51464761 1.87915636
v 0.31240993 1.52234456 1.87915636
v 0.38199795 1.47567223 1.87915636
f 1 2 11
f 1 11 23
f 1 23 13
f 1 13 3
f 1 3 4
f 1 4 5
f 1 5 6
f 1 6 7
f 1 7 8
f 1 8 9
f 1 9 2
f 2 10 11
f 2 9 12
f 2 12 10
f 3 13 14
f 3 14 4
f 4 14 5
f 5 14 6
f 6 14 7
f 7 14 8
f 8 14 15
f 8 15 16
f 8 16 9
f 9 16 17
f 9 17 18
f 9 18 19
f 9 19 20
f 9 20 12
f 10 12 21
f 10 21 22
f 10 22 23
f 10 23 11
f 12 20 21
f 13 23 24
f 13 24 25
f 13 25 14
f 14 25 24
f 14 24 26
f 14 26 27
f 14 27 28
f 14 28 29
f 14 29 30
f 14 30 31
f 14 31 32
f 14 32 33
f 14 33 15
f 15 33 17
f 15 17 16
f 17 33 34
f 17 34 35
f 17 35 36
f 17 36 37
f 17 37 38
f 17 38 39
f 17 39 40
f 17 40 41
f 17 41 42
f 17 42 18
f 18 42 43
f 18 43 44
f 18 44 45
f 18 45 46
f 18 46 47
f 18 47 48
f 18 48 49
f 18 49 19
f 19 49 50
f 19 50 20
f 20 51 22
f 20 22 21
f 20 50 51
f 22 52 53
f 22 53 23
f 22 51 54
f 22 54 55
f 22 55 52
f 23 53 56
f 23 56 24
f 24 56 53
f 24 53 52
f 24 52 77
f 24 77 90
f 24 90 93
f 24 93 85
f 24 85 72
f 24 72 71
f 24 71 70
f 24 70 84
f 24 84 65
f 24 65 83
f 24 83 82
f 24 82 92
f 24 92 91
f 24 91 80
f 24 80 61
f 24 61 60
f 24 60 57
f 24 57 26
f 26 57 27
f 27 57 31
f 27 31 28
f 28 31 30
f 28 30 29
f 31 58 33
f 31 33 32
f 31 57 34
f 31 34 58
f 33 58 59
f 33 59 34
f 34 59 58
f 34 57 60
f 34 60 35
f 35 60 61
f 35 61 36
f 36 61 62
f 36 62 63
f 36 63 37
f 37 63 38
f 38 63 64
f 38 64 39
f 39 64 40
f 40 64 65
f 40 65 66
f 40 66 41
f 41 66 69
f 41 69 42
f 42 67 68
f 42 68 43
f 42 69 70
f 42 70 71
f 42 71 67
f 43 68 71
f 43 71 72
f 43 72 44
f 44 72 45
f 45 73 74
f 45 74 46
f 45 72 75
f 45 75 73
f 46 74 47
f 47 74 48
f 48 74 50
f 48 50 49
f 50 74 73
f 50 73 76
f 50 76 51
f 51 76 54
f 52 55 77
f 54 76 55
f 55 76 78
f 55 78 79
f 55 79 77
f 61 80 62
f 62 80 63
f 63 80 81
f 63 81 82
f 63 82 64
f 64 82 83
f 64 83 65
f 65 84 66
f 66 84 70
f 66 70 69
f 67 71 68
f 72 85 75
f 73 75 86
f 73 86 76
f 75 85 87
f 75 87 88
f 75 88 89
f 75 89 79
f 75 79 78
f 75 78 86
f 76 86 78
f 77 89 88
f 77 88 90
f 77 79 89
f 80 91 81
f 81 91 92
f 81 92 82
f 85 93 87
f 87 93 90
f 87 90 88

