# https://github.com/mikedh/trimesh
v -2.183503065 -0.6928476800000001 0.74047103
v -2.183541175 -0.71138222 0.74047103
v -2.183522145 -0.6780491900000001 0.74047103
v -2.183531695 -0.69472428 0.84807698
v -2.183531695 -0.71138222 0.84807698
v -2.1840559949999996 -0.72618928 0.74047103
v -2.183874865 -0.67660103 0.74047103
v -2.183617455 -0.67804061 0.84807698
v -2.184160845 -0.7280573100000001 0.84807698
v -2.184122735 -0.7280573100000001 0.74233538
v -2.184122735 -0.7280573100000001 0.74047103
v -2.186725365 -0.66522153 0.74047103
v -2.1868111949999998 -0.66528151 0.84807698
v -2.1873545849999996 -0.73911976 0.84807698
v -2.1873069249999997 -0.73917117 0.74047103
v -2.198241745 -0.65931754 0.74047103
v -2.1982322649999997 -0.6591119000000001 0.84807698
v -2.190719905 -0.6631649900000001 0.84807698
v -2.194514165 -0.7416476000000001 0.84807698
v -2.198241745 -0.74308716 0.74233538
v -2.188527195 -0.73960819 0.74047103
v -2.214829975 -0.65756949 0.74047103
v -2.214810885 -0.65670403 0.84807698
v -2.203923715 -0.6579122500000001 0.84807698
v -2.1982322649999997 -0.74295863 0.84807698
v -2.200100765 -0.74320713 0.74047103
v -2.198241745 -0.74308716 0.74047103
v -2.2315897749999998 -0.65762091 0.74047103
v -2.221903785 -0.65658406 0.84807698
v -2.209224285 -0.74365271 0.84807698
v -2.2149157949999996 -0.74410688 0.74047103
v -2.214906255 -0.74402976 0.82571524
v -2.2460615649999998 -0.66352488 0.74047103
v -2.231580235 -0.6570125099999999 0.84807698
v -2.214906255 -0.7440040299999999 0.84807698
v -2.2315897749999998 -0.74388409 0.74233538
v -2.2315897749999998 -0.74388409 0.74047103
v -2.231580235 -0.74385838 0.84807698
v -2.274223365 -0.6822650800000001 0.74047103
v -2.245289335 -0.6632164 0.84807698
v -2.236127705 -0.6589748 0.84807698
v -2.248235135 -0.743627 0.75901978
v -2.248235135 -0.74361844 0.74047103
v -2.242553225 -0.743687 0.84807698
v -2.2773789349999998 -0.6860182699999999 0.74047103
v -2.2645087549999996 -0.68099688 0.84807698
v -2.248235135 -0.74361844 0.77848492
v -2.263917705 -0.7399338 0.79236751
v -2.263917705 -0.7399338 0.77848492
v -2.2637270349999996 -0.73992524 0.74047103
v -2.263879535 -0.7399338 0.75901978
v -2.2637746849999996 -0.73992524 0.74233538
v -2.248244685 -0.74358415 0.84807698
v -2.2808967549999997 -0.69435581 0.74047103
v -2.274080345 -0.69378169 0.84807698
v -2.269809375 -0.6877663199999999 0.84807698
v -2.248244685 -0.7436098600000001 0.79236751
v -2.263879535 -0.73991669 0.80904139
v -2.2720592249999996 -0.7323589100000001 0.74047103
v -2.2639272449999996 -0.73992524 0.77848492
v -2.258426405 -0.74115061 0.84807698
v -2.2638033149999996 -0.7399081000000001 0.82571524
v -2.275176675 -0.70574388 0.84807698
v -2.275005085 -0.69908585 0.84807698
v -2.278227385 -0.7114422 0.74047103
v -2.274833505 -0.71851155 0.84807698
v -2.272545475 -0.73142489 0.74047103
v -2.266463135 -0.73719176 0.84807698
v -2.272230875 -0.7313049300000001 0.80904139
v -2.263622125 -0.73989954 0.84807698
v -2.263698405 -0.73989954 0.84238912
v -2.2719639149999997 -0.7310135799999999 0.84807698
f 1 2 6
f 1 6 11
f 1 11 15
f 1 15 21
f 1 21 27
f 1 27 26
f 1 26 31
f 1 31 37
f 1 37 43
f 1 43 50
f 1 50 59
f 1 59 67
f 1 67 65
f 1 65 54
f 1 54 45
f 1 45 39
f 1 39 33
f 1 33 28
f 1 28 22
f 1 22 16
f 1 16 12
f 1 12 7
f 1 7 3
f 1 3 4
f 1 4 5
f 1 5 2
f 2 5 6
f 3 7 8
f 3 8 4
f 4 8 13
f 4 13 18
f 4 18 17
f 4 17 24
f 4 24 23
f 4 23 29
f 4 29 34
f 4 34 41
f 4 41 40
f 4 40 46
f 4 46 56
f 4 56 55
f 4 55 64
f 4 64 63
f 4 63 66
f 4 66 72
f 4 72 68
f 4 68 70
f 4 70 61
f 4 61 53
f 4 53 44
f 4 44 38
f 4 38 35
f 4 35 30
f 4 30 25
f 4 25 19
f 4 19 14
f 4 14 9
f 4 9 5
f 5 9 10
f 5 10 6
f 6 10 11
f 7 12 13
f 7 13 8
f 9 14 15
f 9 15 10
f 10 15 11
f 12 16 17
f 12 17 18
f 12 18 13
f 14 19 20
f 14 20 15
f 15 20 21
f 16 22 23
f 16 23 24
f 16 24 17
f 19 25 20
f 20 26 27
f 20 27 21
f 20 25 26
f 22 28 29
f 22 29 23
f 25 30 26
f 26 30 32
f 26 32 31
f 28 33 34
f 28 34 29
f 30 35 32
f 31 36 37
f 31 32 38
f 31 38 36
f 32 35 38
f 33 39 40
f 33 40 41
f 33 41 34
f 36 42 37
f 36 38 42
f 37 42 43
f 38 44 42
f 39 45 46
f 39 46 40
f 42 44 47
f 42 47 48
f 42 48 49
f 42 49 43
f 43 49 51
f 43 51 52
f 43 52 50
f 44 53 47
f 45 54 55
f 45 55 56
f 45 56 46
f 47 53 57
f 47 57 48
f 48 57 53
f 48 53 58
f 48 58 59
f 48 59 60
f 48 60 49
f 49 60 51
f 50 52 59
f 51 59 52
f 51 60 59
f 53 61 62
f 53 62 58
f 54 63 64
f 54 64 55
f 54 65 66
f 54 66 63
f 58 62 59
f 59 62 68
f 59 68 69
f 59 69 67
f 61 70 71
f 61 71 62
f 62 71 68
f 65 67 69
f 65 69 72
f 65 72 66
f 68 71 70
f 68 72 69

