# https://github.com/mikedh/trimesh
v -0.7959024100000001 -0.3024343 1.96834817
v -0.82926484 -0.3024343 1.96837411
v -0.6291570100000001 -0.3024343 1.96835855
v -0.6291570100000001 -0.34095589 1.96914217
v -0.8459793600000001 -0.3024343 1.96839487
v -0.6123092800000001 -0.3024343 1.9683793
v -0.5955948 -0.3024343 1.96840006
v -0.6125090799999999 -0.34095589 1.96917331
v -0.8459793600000001 -0.34095589 1.96945875
v -0.84950869 -0.34095589 1.96946394
v -0.8626272500000001 -0.3024343 1.968426
v -0.5900011000000001 -0.3024343 1.96843119
v -0.5900011000000001 -0.34095589 1.96927195
v -0.5957946000000001 -0.34095589 1.96924601
v -0.87907537 -0.3024343 1.96845713
v -0.8626272500000001 -0.34095589 1.96950032
v -1.0452215 -0.3024343 1.96879965
v -0.5900011000000001 -0.3024343 2.02134223
v -0.5900011000000001 -0.34095589 2.02136299
v -0.9495293199999999 -0.34095589 1.9697702
v -1.07851732 -0.3024343 1.96891381
v -0.5900011000000001 -0.30537197 2.02134736
v -0.6125090799999999 -0.3024343 2.02133698
v -0.6125090799999999 -0.31114549 2.02135261
v -0.6291570100000001 -0.34095589 2.02136299
v -0.5900011000000001 -0.32781745 2.02136299
v -1.0460206 -0.34095589 1.97017498
v -1.09509863 -0.3024343 1.96897094
v -0.5900011000000001 -0.31114549 2.02135261
v -0.87934176 -0.32781745 2.02130072
v -0.9792958 -0.3024343 2.02120208
v -0.9792958 -0.31114549 2.02123846
v -0.9792958 -0.32781745 2.02126959
v -0.6291570100000001 -0.32781745 2.02135774
v -0.72924422 -0.32781745 2.02134223
v -0.72924422 -0.34095589 2.02134736
v -1.04954997 -0.34095589 1.97019055
v -1.09603092 -0.3024343 1.96897613
v -1.06626445 -0.34095589 1.97027357
v -0.87934176 -0.34095589 2.0213111
v -0.98728678 -0.3024343 2.02119683
v -0.9960102799999999 -0.31114549 2.02122283
v -0.9960102799999999 -0.32781745 2.02125921
v -0.9792958 -0.34095589 2.02126959
v -1.09603092 -0.34095589 1.97049156
v -1.11154677 -0.3024343 1.96910585
v -1.07938301 -0.34095589 1.97035665
v -1.08291236 -0.34095589 1.97038259
v -1.0039347 -0.3024343 2.02118132
v -1.27030122 -0.31114549 2.02095814
v -1.10921606 -0.34095589 2.02116569
v -1.05913915 -0.34095589 2.0212072
v -0.9960102799999999 -0.34095589 2.02125921
v -1.27030122 -0.32781745 2.02099452
v -1.27030122 -0.33526909 2.02101003
v -1.27030122 -0.34095589 2.02102041
v -1.27030122 -0.34095589 1.97271284
v -1.27030122 -0.3024343 1.97116628
v -1.27030122 -0.3024343 2.02092176
f 1 2 5
f 1 5 11
f 1 11 15
f 1 15 17
f 1 17 21
f 1 21 28
f 1 28 38
f 1 38 46
f 1 46 58
f 1 58 59
f 1 59 49
f 1 49 41
f 1 41 31
f 1 31 23
f 1 23 18
f 1 18 12
f 1 12 7
f 1 7 6
f 1 6 3
f 1 3 4
f 1 4 2
f 2 4 5
f 3 6 4
f 4 6 7
f 4 7 8
f 4 8 14
f 4 14 13
f 4 13 19
f 4 19 25
f 4 25 36
f 4 36 40
f 4 40 44
f 4 44 53
f 4 53 52
f 4 52 51
f 4 51 56
f 4 56 57
f 4 57 45
f 4 45 48
f 4 48 47
f 4 47 39
f 4 39 37
f 4 37 27
f 4 27 20
f 4 20 16
f 4 16 10
f 4 10 9
f 4 9 5
f 5 9 10
f 5 10 11
f 7 12 13
f 7 13 14
f 7 14 8
f 10 15 11
f 10 16 17
f 10 17 15
f 12 18 22
f 12 22 29
f 12 29 26
f 12 26 19
f 12 19 13
f 16 20 17
f 17 20 21
f 18 23 24
f 18 24 22
f 19 26 25
f 20 27 28
f 20 28 21
f 22 24 29
f 23 30 24
f 23 31 32
f 23 32 33
f 23 33 30
f 24 34 26
f 24 26 29
f 24 30 35
f 24 35 34
f 25 26 34
f 25 34 35
f 25 35 36
f 27 37 28
f 28 37 39
f 28 39 38
f 30 40 35
f 30 33 40
f 31 41 32
f 32 41 42
f 32 42 43
f 32 43 33
f 33 43 53
f 33 53 44
f 33 44 40
f 35 40 36
f 38 45 46
f 38 39 47
f 38 47 48
f 38 48 45
f 41 49 42
f 42 49 50
f 42 50 54
f 42 54 43
f 43 51 52
f 43 52 53
f 43 54 55
f 43 55 56
f 43 56 51
f 45 57 46
f 46 57 58
f 49 59 50
f 50 59 58
f 50 58 57
f 50 57 56
f 50 56 55
f 50 55 54

