# https://github.com/mikedh/trimesh
v -2.44806632 1.52235819 1.89469588
v -2.44806632 1.53193780 1.89499814
v -2.43141769 1.53175342 1.89503980
v -2.43141769 1.52235819 1.89474798
v -2.34809033 1.51085035 1.89515448
v -2.36473899 1.51038942 1.89511276
v -2.41472697 1.51010519 1.89497728
v -2.43141769 1.50992849 1.89493561
v -2.44806632 1.50997460 1.89492518
v -2.61467897 1.51122678 1.89499814
v -2.51474502 1.52235819 1.89473755
v -2.53139366 1.53205302 1.89496685
v -2.46471496 1.53196084 1.89498771
v -2.43141769 1.54008854 1.89902113
v -2.34809033 1.53902071 1.89887521
v -2.77759192 1.53902071 1.89735356
v -2.41472697 1.53130787 1.89511276
v -2.40316540 1.53093143 1.89517529
v -2.34809033 1.51601275 1.89515448
v -2.34809033 1.50253829 1.89536292
v -2.36473899 1.50205430 1.89540459
v -2.64801832 1.51130358 1.89501900
v -2.63136967 1.51126520 1.89500857
v -2.53139366 1.52235819 1.89474798
v -2.59803032 1.52235819 1.89482093
v -2.63136967 1.52235819 1.89486266
v -2.61467897 1.53146919 1.89506067
v -2.63136967 1.53140774 1.89508153
v -2.54808437 1.53196084 1.89498771
v -2.77759192 1.55064377 1.90302331
v -2.34809033 1.54963741 1.90699421
v -2.34809033 1.52434784 1.89543588
v -2.64801832 1.53130787 1.89510233
v -2.66470902 1.53120800 1.89513362
v -2.68135767 1.53102361 1.89516486
v -2.77759192 1.53554838 1.89666571
v -2.34809033 1.49127629 1.90369035
v -2.43141769 1.50160106 1.89561303
v -2.44806632 1.50163948 1.89563389
v -2.64801832 1.50296849 1.89577980
v -2.66470902 1.50323737 1.89579023
v -2.77759192 1.50528847 1.89586319
v -2.66470902 1.51157246 1.89503980
v -2.77759192 1.51362359 1.89519615
v -2.77759192 1.51612027 1.89519615
v -2.64801832 1.52235819 1.89490432
v -2.77759192 1.55348616 1.90526411
v -2.34809033 1.56375716 1.93376913
v -2.77759192 1.52444771 1.89528997
v -2.69241473 1.53080853 1.89519615
v -2.34809033 1.48529191 1.92016801
v -2.36473899 1.48528422 1.92022011
v -2.77759192 1.49156821 1.90420105
v -2.77759192 1.50213882 1.89776006
v -2.77759192 1.51172612 1.89534206
v -2.77759192 1.56375716 1.92927710
v -2.34809033 1.56375716 1.99802267
v -2.34809033 1.48559920 1.97016383
v -2.77759192 1.48596795 1.97020550
v -2.77759192 1.48582198 1.92022011
v -2.77759192 1.49026226 1.90783839
v -2.77759192 1.56375716 1.99732434
v -2.54808437 1.53902071 2.00007583
v -2.46471496 1.53902071 2.00005497
v -2.44806632 1.53902071 2.00004460
v -2.34809033 1.53897461 1.99997164
v -2.61467897 1.56375716 1.99768912
v -2.59803032 1.53902071 2.00002373
v -2.34809033 1.48788849 1.98682907
v -2.77759192 1.48657482 1.97399924
v -2.77759192 1.53902071 1.99928380
v -2.61467897 1.53902071 1.99997164
v -2.63136967 1.56375716 1.99765789
v -2.54808437 1.52235819 2.00117018
v -2.46471496 1.52235819 2.00115981
v -2.34809033 1.52231208 2.00096168
v -2.63136967 1.52235819 2.00099303
v -2.61467897 1.52235819 2.00104513
v -2.34809033 1.49373456 1.99767875
v -2.53139366 1.49389591 1.99766826
v -2.76468501 1.48864133 1.98687079
v -2.77759192 1.48866437 1.98687079
v -2.77759192 1.52613778 2.00018002
v -2.77759192 1.52235819 2.00044061
v -2.61467897 1.50569564 2.00039889
v -2.54808437 1.50569564 2.00047185
v -2.46471496 1.50569564 2.00049271
v -2.34809033 1.50565722 2.00050320
v -2.77759192 1.50569564 1.99983610
v -2.63136967 1.50569564 2.00034679
v -2.41472697 1.49381139 1.99769961
v -2.61467897 1.49409565 1.99758493
v -2.77759192 1.49437987 1.99727224
v -2.77759192 1.48996266 1.98923664
v -2.77759192 1.49695338 1.99785590
f 1 2 3
f 1 3 4
f 1 4 5
f 1 5 6
f 1 6 7
f 1 7 8
f 1 8 9
f 1 9 10
f 1 10 11
f 1 11 12
f 1 12 13
f 1 13 2
f 2 14 15
f 2 15 3
f 2 13 16
f 2 16 14
f 3 17 4
f 3 15 17
f 4 17 18
f 4 18 19
f 4 19 5
f 5 19 32
f 5 32 15
f 5 15 31
f 5 31 48
f 5 48 57
f 5 57 66
f 5 66 76
f 5 76 88
f 5 88 79
f 5 79 69
f 5 69 58
f 5 58 51
f 5 51 37
f 5 37 20
f 5 20 6
f 6 20 7
f 7 20 8
f 8 20 9
f 9 20 21
f 9 21 22
f 9 22 23
f 9 23 10
f 10 23 24
f 10 24 11
f 11 24 12
f 12 24 25
f 12 25 26
f 12 26 27
f 12 27 28
f 12 28 29
f 12 29 16
f 12 16 13
f 14 16 30
f 14 30 15
f 15 32 18
f 15 18 17
f 15 30 31
f 16 33 34
f 16 34 35
f 16 35 36
f 16 36 49
f 16 49 45
f 16 45 44
f 16 44 55
f 16 55 42
f 16 42 54
f 16 54 53
f 16 53 61
f 16 61 60
f 16 60 59
f 16 59 70
f 16 70 82
f 16 82 94
f 16 94 93
f 16 93 95
f 16 95 89
f 16 89 84
f 16 84 83
f 16 83 71
f 16 71 62
f 16 62 56
f 16 56 47
f 16 47 30
f 16 29 33
f 18 32 19
f 20 37 21
f 21 37 38
f 21 38 39
f 21 39 40
f 21 40 22
f 22 26 25
f 22 25 24
f 22 24 23
f 22 40 41
f 22 41 42
f 22 42 43
f 22 43 26
f 26 43 44
f 26 44 45
f 26 45 46
f 26 46 35
f 26 35 34
f 26 34 33
f 26 33 28
f 26 28 27
f 28 33 29
f 30 47 31
f 31 47 48
f 35 46 49
f 35 49 50
f 35 50 36
f 36 50 49
f 37 51 52
f 37 52 53
f 37 53 38
f 38 53 39
f 39 53 40
f 40 53 41
f 41 53 54
f 41 54 42
f 42 55 43
f 43 55 44
f 45 49 46
f 47 56 48
f 48 56 62
f 48 62 73
f 48 73 67
f 48 67 57
f 51 58 52
f 52 58 59
f 52 59 60
f 52 60 61
f 52 61 53
f 57 63 64
f 57 64 65
f 57 65 66
f 57 67 68
f 57 68 63
f 58 69 59
f 59 69 70
f 62 71 72
f 62 72 68
f 62 68 73
f 63 74 75
f 63 75 64
f 63 68 74
f 64 75 65
f 65 75 66
f 66 75 76
f 67 73 68
f 68 72 77
f 68 77 78
f 68 78 74
f 69 79 80
f 69 80 81
f 69 81 82
f 69 82 70
f 71 83 72
f 72 83 84
f 72 84 77
f 74 78 85
f 74 85 86
f 74 86 87
f 74 87 88
f 74 88 75
f 75 88 76
f 77 84 89
f 77 89 90
f 77 90 85
f 77 85 78
f 79 88 91
f 79 91 80
f 80 91 86
f 80 86 85
f 80 85 92
f 80 92 93
f 80 93 94
f 80 94 82
f 80 82 81
f 85 90 93
f 85 93 92
f 86 91 87
f 87 91 88
f 89 95 90
f 90 95 93

