# https://github.com/mikedh/trimesh
v 1.74234240 2.11793438 1.13439247
v 1.79233056 2.11507053 1.09735258
v 1.74234240 2.11507053 1.09735258
v 1.72567067 2.11502505 1.09735258
v 1.72816061 2.11789543 1.13439247
v 1.85917988 2.11766163 1.13439247
v 1.85917988 2.11496011 1.09735258
v 1.80900230 2.11505104 1.09735258
v 1.79851480 2.11506403 1.09735258
v 1.72567067 2.11788243 1.13439247
v 1.72093439 2.11499260 1.09735258
v 1.72093439 2.11785644 1.13439247
v 1.85917988 2.06233913 1.13439247
v 1.85917988 2.06499520 1.09735258
v 1.72093439 2.06329377 1.09735258
v 1.72093439 2.06240407 1.13439247
v 1.85917988 2.06354053 1.09741785
v 1.84176386 2.05159155 1.13439247
v 1.85900393 2.06354053 1.09735258
v 1.80280453 2.06139752 1.09735258
v 1.80900230 2.05159155 1.11676996
v 1.79712097 2.05159155 1.12107406
v 1.79479342 2.05159155 1.12233954
v 1.79239822 2.05159155 1.13439247
v 1.83957165 2.05159155 1.12273478
v 1.82566047 2.05159155 1.11713619
v 1.82566047 2.06144297 1.09735258
v 1.80900230 2.06138453 1.09735258
f 1 2 3
f 1 3 4
f 1 4 5
f 1 5 10
f 1 10 12
f 1 12 16
f 1 16 24
f 1 24 18
f 1 18 13
f 1 13 6
f 1 6 7
f 1 7 8
f 1 8 9
f 1 9 2
f 2 9 8
f 2 8 7
f 2 7 14
f 2 14 19
f 2 19 27
f 2 27 28
f 2 28 20
f 2 20 15
f 2 15 11
f 2 11 4
f 2 4 3
f 4 10 5
f 4 11 12
f 4 12 10
f 6 13 17
f 6 17 14
f 6 14 7
f 11 15 16
f 11 16 12
f 13 18 17
f 14 17 19
f 15 20 21
f 15 21 22
f 15 22 23
f 15 23 24
f 15 24 16
f 17 18 25
f 17 25 26
f 17 26 19
f 18 24 23
f 18 23 22
f 18 22 21
f 18 21 26
f 18 26 25
f 19 26 27
f 20 28 21
f 21 28 27
f 21 27 26

