# https://github.com/mikedh/trimesh
v 1.30791508 1.48212240 0.52022873
v 1.29233888 1.48221071 0.52021940
v 1.27505479 1.48238732 0.50355631
v 1.30791508 1.48213122 0.51913653
v 1.32565898 1.48212240 0.52022873
v 1.30791508 1.48245795 0.53576227
v 1.27505479 1.48271404 0.53685448
v 1.27505479 1.48233433 0.52021940
v 1.27505479 1.48233433 0.51961262
v 1.27505479 1.48266105 0.50304288
v 1.30900714 1.48233433 0.50353763
v 1.30791508 1.48233433 0.50355631
v 1.35893802 1.48232551 0.50349096
v 1.35893802 1.48228134 0.52015405
v 1.35893802 1.48264341 0.53678915
v 1.32565898 1.48251094 0.53684515
v 1.30900714 1.48248444 0.53684515
v 1.30791508 1.48248444 0.53685448
v 1.27505479 1.48555745 0.55351757
v 1.27505479 1.48997269 0.48971240
v 1.29233888 1.48997269 0.48968438
v 1.35893802 1.48991088 0.48972176
v 1.35893802 1.48546914 0.55346157
v 1.33286000 1.48376488 0.54405182
v 1.32565898 1.48534552 0.55350824
v 1.30791508 1.48537201 0.55351757
v 1.27505479 1.49275429 0.56513040
v 1.27505479 1.49053784 0.48951636
v 1.30791508 1.50570860 0.48437273
v 1.30900714 1.48997269 0.48968438
v 1.30900714 1.50570860 0.48437273
v 1.32565898 1.50570860 0.48438209
v 1.35893802 1.50569977 0.48442876
v 1.35893802 1.49270130 0.56515839
v 1.33286000 1.48538969 0.55352689
v 1.33286000 1.48850683 0.55856785
v 1.32565898 1.49261299 0.56519573
v 1.30791508 1.49265716 0.56518640
v 1.27505479 1.50523175 0.56863104
v 1.27505479 1.50570860 0.48442876
v 1.27567883 1.50570860 0.48441940
v 1.31217657 1.55957449 0.47615790
v 1.32060923 1.55957449 0.47615790
v 1.32238280 1.57233452 0.47445891
v 1.32271945 1.57233452 0.47447757
v 1.35893802 1.52236286 0.48477417
v 1.34232724 1.49267483 0.56519573
v 1.33286000 1.49263949 0.56519573
v 1.35893802 1.50564679 0.56882708
v 1.30900714 1.50570860 0.56879907
v 1.27505479 1.50570860 0.56876172
v 1.27505479 1.52236286 0.48486752
v 1.30766054 1.57229920 0.47438423
v 1.30797256 1.57233452 0.47436557
v 1.35893802 1.53900831 0.48841485
v 1.35893802 1.57233452 0.50992283
v 1.35893802 1.54860703 0.49355848
v 1.35893802 1.52230105 0.56927516
v 1.27505479 1.52236286 0.56924715
v 1.27505479 1.53899949 0.48796674
v 1.30022962 1.57229920 0.47792221
v 1.30590340 1.57229920 0.47513102
v 1.27505479 1.57229920 0.50898932
v 1.30791508 1.57233452 0.48047068
v 1.35893802 1.57233452 0.56968590
v 1.27505479 1.53899949 0.56948986
v 1.35893802 1.53894650 0.56951787
v 1.27505479 1.54917219 0.49303568
v 1.27505479 1.57229920 0.56972324
v 1.30791508 1.57233452 0.56973257
v 1.35893802 1.57229036 0.56968590
v 1.27505479 1.55568025 0.56964856
v 1.35893802 1.55561842 0.56964856
v 1.27505479 1.57174288 0.56972324
f 1 2 3
f 1 3 4
f 1 4 5
f 1 5 6
f 1 6 2
f 2 6 7
f 2 7 8
f 2 8 9
f 2 9 3
f 3 9 8
f 3 8 7
f 3 7 19
f 3 19 27
f 3 27 39
f 3 39 51
f 3 51 59
f 3 59 66
f 3 66 72
f 3 72 74
f 3 74 69
f 3 69 63
f 3 63 68
f 3 68 60
f 3 60 52
f 3 52 40
f 3 40 28
f 3 28 20
f 3 20 10
f 3 10 11
f 3 11 12
f 3 12 4
f 4 12 11
f 4 11 13
f 4 13 5
f 5 13 14
f 5 14 15
f 5 15 16
f 5 16 17
f 5 17 6
f 6 17 18
f 6 18 7
f 7 18 19
f 10 20 11
f 11 20 21
f 11 21 13
f 13 22 33
f 13 33 46
f 13 46 55
f 13 55 57
f 13 57 56
f 13 56 65
f 13 65 71
f 13 71 73
f 13 73 67
f 13 67 58
f 13 58 49
f 13 49 34
f 13 34 23
f 13 23 15
f 13 15 14
f 13 21 22
f 15 23 16
f 16 23 24
f 16 24 25
f 16 25 17
f 17 25 18
f 18 25 26
f 18 26 19
f 19 26 27
f 20 28 21
f 21 28 29
f 21 29 31
f 21 31 30
f 21 30 22
f 22 30 31
f 22 31 32
f 22 32 33
f 23 25 24
f 23 34 35
f 23 35 25
f 25 35 36
f 25 36 37
f 25 37 26
f 26 37 38
f 26 38 27
f 27 38 39
f 28 40 41
f 28 41 29
f 29 41 42
f 29 42 43
f 29 43 31
f 31 43 32
f 32 43 33
f 33 43 44
f 33 44 45
f 33 45 46
f 34 47 48
f 34 48 37
f 34 37 36
f 34 36 35
f 34 49 47
f 37 39 38
f 37 48 49
f 37 49 50
f 37 50 39
f 39 50 51
f 40 52 53
f 40 53 54
f 40 54 41
f 41 54 42
f 42 54 43
f 43 54 44
f 44 54 64
f 44 64 70
f 44 70 65
f 44 65 56
f 44 56 45
f 45 55 46
f 45 56 57
f 45 57 55
f 47 49 48
f 49 58 59
f 49 59 50
f 50 59 51
f 52 60 61
f 52 61 62
f 52 62 53
f 53 62 54
f 54 62 61
f 54 61 63
f 54 63 64
f 58 66 59
f 58 67 66
f 60 68 61
f 61 68 63
f 63 69 70
f 63 70 64
f 65 70 71
f 66 67 72
f 67 73 72
f 69 74 70
f 70 74 72
f 70 72 73
f 70 73 71

