# https://github.com/mikedh/trimesh
v -2.2981398449999997 -0.34796514 0.16001791
v -2.2981398449999997 -0.36104051000000004 0.16010517
v -2.2981398449999997 -0.34796514 0.12149564
v -3.0895504449999995 -0.34796514 0.15866984
v -2.2981398449999997 -0.37772666 0.16018443
v -2.2981398449999997 -0.62741702 0.12119034
v -2.9986807649999996 -0.62741702 0.12076611
v -3.0153363549999996 -0.34796514 0.1212102
v -3.0895504449999995 -0.34796514 0.1212498
v -3.0895504449999995 -0.62741702 0.15937564
v -2.398460545 -0.62741702 0.16109635
v -2.2981398449999997 -0.3944128 0.16025183
v -2.2982173149999996 -0.62741702 0.1612708
v -2.2981398449999997 -0.62741702 0.16019237
v -3.0895504449999995 -0.62741702 0.12081764
v -2.2981398449999997 -0.61130532 0.16098536
f 1 2 5
f 1 5 12
f 1 12 16
f 1 16 14
f 1 14 6
f 1 6 3
f 1 3 8
f 1 8 9
f 1 9 4
f 1 4 2
f 2 4 5
f 3 6 7
f 3 7 8
f 4 9 15
f 4 15 10
f 4 10 11
f 4 11 5
f 5 11 13
f 5 13 12
f 6 14 13
f 6 13 11
f 6 11 10
f 6 10 15
f 6 15 7
f 7 15 9
f 7 9 8
f 12 13 16
f 13 14 16

