# https://github.com/mikedh/trimesh
v -1.71308955 1.56763347 1.40830598
v -1.65497436 1.56763347 1.40830598
v -1.72420108 1.56763347 1.42003144
v -1.72417372 1.56767398 1.40830598
v -1.65561714 1.90572308 1.40830598
v -1.65496750 1.56763347 1.41104191
v -1.72421473 1.56763347 1.42491704
v -1.72461134 1.87250953 1.42491704
v -1.72463185 1.88915680 1.42491704
v -1.72462505 1.93917965 1.40830598
v -1.65577438 1.98134464 1.40830598
v -1.65549405 1.90584458 1.57490509
v -1.65495385 1.56763347 1.45823685
v -1.65548720 1.90584458 1.59156497
v -1.72423530 1.56763347 1.44157694
v -1.72463870 1.87250953 1.44157694
v -1.72469342 1.92249187 1.44157694
v -1.72466606 1.92249187 1.42491704
v -1.72467971 1.93917965 1.42491704
v -1.72462505 1.95582692 1.40830598
v -1.72379082 1.98142566 1.40830598
v -1.65580859 1.98142566 1.41597638
v -1.65571287 1.98142566 1.54158528
v -1.65509059 1.56763347 1.90741930
v -1.65570601 1.98142566 1.55824516
v -1.65553506 1.92249187 1.59156497
v -1.65582224 1.98142566 1.90741930
v -1.65552141 1.90584458 1.65820465
v -1.72424895 1.56763347 1.45823685
v -1.72472078 1.92249187 1.47489678
v -1.72474128 1.93917965 1.47489678
v -1.72472757 1.93917965 1.45823685
v -1.72438568 1.56763347 1.67486453
v -1.72470707 1.93917965 1.44157694
v -1.72467971 1.95582692 1.42491704
v -1.72460449 1.98142566 1.40830598
v -1.72433102 1.56763347 1.90741930
v -1.72454983 1.98142566 1.90741930
v -1.72474814 1.93917965 1.50821659
v -1.72475493 1.95582692 1.50821659
v -1.72474128 1.95582692 1.47489678
v -1.72439939 1.56763347 1.70329874
v -1.72472757 1.95582692 1.45823685
v -1.72470707 1.95582692 1.44157694
v -1.72465921 1.98142566 1.42491704
v -1.72447461 1.67253967 1.90741930
v -1.72439939 1.56763347 1.71995868
v -1.72462505 1.95582692 1.90741930
v -1.72457034 1.98142566 1.90043286
v -1.72480965 1.95582692 1.77487284
v -1.72473443 1.98142566 1.50821659
v -1.72472078 1.98142566 1.48383744
v -1.72471392 1.98142566 1.47489678
v -1.72467971 1.98142566 1.44157694
v -1.72470707 1.98142566 1.46712865
v -1.72448826 1.68918695 1.90741930
v -1.72466606 1.93917965 1.90741930
v -1.72459084 1.98142566 1.89154108
v -1.72476864 1.98142566 1.80042455
v -1.72463185 1.87169944 1.90741930
v -1.72465235 1.90584458 1.90741930
v -1.72465921 1.92168177 1.90741930
v -1.72466606 1.93836956 1.90741930
v -1.72478229 1.98142566 1.78376467
v -1.72478229 1.98142566 1.77487284
f 1 2 6
f 1 6 13
f 1 13 24
f 1 24 37
f 1 37 47
f 1 47 42
f 1 42 33
f 1 33 29
f 1 29 15
f 1 15 7
f 1 7 3
f 1 3 4
f 1 4 10
f 1 10 20
f 1 20 36
f 1 36 21
f 1 21 11
f 1 11 5
f 1 5 2
f 2 5 6
f 3 7 4
f 4 7 8
f 4 8 9
f 4 9 10
f 5 11 12
f 5 12 6
f 6 12 14
f 6 14 13
f 7 15 16
f 7 16 8
f 8 16 9
f 9 16 17
f 9 17 18
f 9 18 10
f 10 18 19
f 10 19 35
f 10 35 20
f 11 21 22
f 11 22 23
f 11 23 12
f 12 23 25
f 12 25 14
f 13 14 24
f 14 25 26
f 14 26 27
f 14 27 28
f 14 28 24
f 15 29 16
f 16 30 31
f 16 31 32
f 16 32 17
f 16 29 33
f 16 33 30
f 17 32 34
f 17 34 19
f 17 19 18
f 19 34 44
f 19 44 35
f 20 35 45
f 20 45 36
f 21 36 45
f 21 45 54
f 21 54 55
f 21 55 53
f 21 53 52
f 21 52 51
f 21 51 65
f 21 65 64
f 21 64 59
f 21 59 58
f 21 58 49
f 21 49 38
f 21 38 27
f 21 27 25
f 21 25 23
f 21 23 22
f 24 27 38
f 24 38 48
f 24 48 57
f 24 57 63
f 24 63 62
f 24 62 61
f 24 61 60
f 24 60 56
f 24 56 46
f 24 46 37
f 24 28 27
f 25 27 26
f 30 33 31
f 31 39 40
f 31 40 41
f 31 41 43
f 31 43 32
f 31 33 42
f 31 42 39
f 32 43 44
f 32 44 34
f 35 44 45
f 37 46 47
f 38 49 48
f 39 42 50
f 39 50 40
f 40 51 41
f 40 50 51
f 41 51 52
f 41 52 53
f 41 53 43
f 42 47 50
f 43 54 45
f 43 45 44
f 43 53 55
f 43 55 54
f 46 56 50
f 46 50 47
f 48 49 58
f 48 58 59
f 48 59 57
f 50 56 60
f 50 60 61
f 50 61 62
f 50 62 63
f 50 63 57
f 50 57 59
f 50 59 64
f 50 64 65
f 50 65 51

