# https://github.com/mikedh/trimesh
v 1.36411298 2.05240174 1.92634741
v 1.36411298 2.03830693 1.93647086
v 1.36411298 2.05240174 1.99803425
v 2.22147650 2.05240174 1.92898642
v 1.84395119 2.03830693 1.92840474
v 1.79057054 2.03830693 1.92840474
v 1.36411298 2.03830693 1.99658704
v 1.49168933 2.03830693 1.99704826
v 1.50578988 2.05240174 1.99851669
v 2.22147650 2.05240174 1.99882175
v 2.22147650 2.03830693 1.93645662
v 1.50839176 2.03830693 1.99708367
v 1.52576567 2.05240174 1.99855925
v 1.77571462 2.05240174 1.99873664
v 2.22147650 2.03830693 1.99794913
v 1.75834074 2.03830693 1.99752355
v 1.77571462 2.03830693 1.99755192
f 1 2 7
f 1 7 3
f 1 3 9
f 1 9 13
f 1 13 14
f 1 14 10
f 1 10 4
f 1 4 5
f 1 5 6
f 1 6 2
f 2 6 5
f 2 5 11
f 2 11 15
f 2 15 17
f 2 17 16
f 2 16 12
f 2 12 8
f 2 8 7
f 3 7 8
f 3 8 9
f 4 10 15
f 4 15 11
f 4 11 5
f 8 12 13
f 8 13 9
f 10 14 15
f 12 16 13
f 13 16 17
f 13 17 15
f 13 15 14

