# https://github.com/mikedh/trimesh
v 0.38337257 1.94270846 0.18744261
v 0.40919863 1.94270846 0.17944312
v 0.38337257 1.94270846 0.13007393
v 0.38337257 1.78784638 0.18692523
v 0.40919863 1.88901607 0.17924547
v 0.40919863 1.94270846 0.13462597
v 0.39031764 1.94270846 0.13049832
v 0.38337257 1.94264783 0.12924840
v 0.38337257 1.78784638 0.12889375
v 0.40899133 1.78784638 0.17869895
v 0.40919863 1.78786154 0.17869895
v 0.40919863 1.87235658 0.17916989
v 0.40919863 1.94264783 0.13194011
v 0.40899133 1.94270846 0.13194011
v 0.38337257 1.78902876 0.12806822
v 0.38374671 1.78784638 0.12875421
v 0.38337257 1.78795250 0.12806244
v 0.40919863 1.78784638 0.17038553
v 0.40919863 1.78784638 0.13153896
f 1 2 6
f 1 6 14
f 1 14 7
f 1 7 3
f 1 3 8
f 1 8 15
f 1 15 17
f 1 17 9
f 1 9 4
f 1 4 2
f 2 5 12
f 2 12 11
f 2 11 18
f 2 18 19
f 2 19 13
f 2 13 6
f 2 4 5
f 3 7 8
f 4 9 16
f 4 16 19
f 4 19 18
f 4 18 10
f 4 10 11
f 4 11 12
f 4 12 5
f 6 13 14
f 7 14 8
f 8 14 13
f 8 13 15
f 9 17 16
f 10 18 11
f 13 19 17
f 13 17 15
f 16 17 19

