# https://github.com/mikedh/trimesh
v -2.34264874 2.05159155 1.15874137
v -2.33579677 1.88172829 1.15874548
v -2.33497774 2.03608395 1.15874548
v -2.26794242 2.05159155 1.15874137
v -2.32891554 2.05159155 1.12234308
v -2.32494473 1.61873472 1.12577379
v -2.33634520 1.61873472 1.15874548
v -2.33641103 1.72241529 1.15874548
v -2.33638910 1.73906689 1.15874548
v -2.33584064 1.87232205 1.15874548
v -2.27836300 2.03608395 1.15874548
v -2.27665913 1.61873472 1.15874548
v -2.28831557 1.61873472 1.12635720
v -2.28415465 2.05159155 1.12274162
v -2.27752204 1.89643085 1.15874548
v -2.27665913 1.72940642 1.15874548
v -2.27662987 1.72241529 1.15874548
v -2.27661526 1.71271245 1.15874548
v -2.27660793 1.70572132 1.15874548
v -2.27663720 1.62941208 1.15874548
v -2.32657547 2.05159155 1.12107762
v -2.31469969 1.61873472 1.12049832
v -2.29592804 1.61873472 1.12222805
v -2.29804140 2.05159155 1.11713746
v -2.29804873 1.61873472 1.12108585
v -2.31469969 2.05159155 1.11677179
f 1 2 3
f 1 3 11
f 1 11 4
f 1 4 14
f 1 14 24
f 1 24 26
f 1 26 21
f 1 21 5
f 1 5 6
f 1 6 7
f 1 7 8
f 1 8 9
f 1 9 10
f 1 10 2
f 2 10 9
f 2 9 8
f 2 8 7
f 2 7 12
f 2 12 20
f 2 20 19
f 2 19 18
f 2 18 17
f 2 17 16
f 2 16 15
f 2 15 11
f 2 11 3
f 4 12 13
f 4 13 14
f 4 11 15
f 4 15 16
f 4 16 17
f 4 17 18
f 4 18 19
f 4 19 20
f 4 20 12
f 5 21 6
f 6 22 25
f 6 25 23
f 6 23 13
f 6 13 12
f 6 12 7
f 6 21 22
f 13 23 14
f 14 23 25
f 14 25 24
f 21 26 22
f 22 26 24
f 22 24 25

