# https://github.com/mikedh/trimesh
v -3.949141045 -0.64449307 1.77355745
v -3.949297185 -0.64449307 1.77355745
v -3.884745465 -0.64449307 1.77046844
v -3.9492890149999997 -0.29789366 1.77327498
v -3.960524305 -0.64449307 1.77051401
v -3.9513601749999996 -0.29789366 1.77301071
v -3.884745465 -0.64449307 1.68450495
v -3.884745465 -0.394537 1.77014954
v -3.884745465 -0.29789366 1.77002197
v -3.9656529249999997 -0.64449307 1.75961593
v -3.9605078449999995 -0.29789366 1.77047757
v -3.9615763150000003 -0.29789366 1.76854578
v -3.9660228149999996 -0.29789366 1.75962505
v -3.9493711949999994 -0.64449307 1.68046831
v -3.945894525 -0.29789366 1.68085102
v -3.884745465 -0.40909458 1.68465077
v -3.884745465 -0.29789366 1.68473278
v -3.968455585 -0.61130583 1.74294081
v -3.968011795 -0.64449307 1.74294081
v -3.9667460849999996 -0.29789366 1.75622627
v -3.9492890149999997 -0.29789366 1.68083277
v -3.9596448950000003 -0.64449307 1.6826643
v -3.959455835 -0.29789366 1.68279187
v -3.884745465 -0.30902393 1.68472366
v -3.968554235 -0.5779489600000001 1.72628388
v -3.9685377749999997 -0.59461043 1.72628388
v -3.968513145 -0.61130583 1.72628388
v -3.968143305 -0.64449307 1.72643883
v -3.968693975 -0.29789366 1.74294081
v -3.9647570549999998 -0.64449307 1.69293364
v -3.964584445 -0.29789366 1.69292452
v -3.9686199650000002 -0.5779489600000001 1.70960876
v -3.968595325 -0.59461043 1.70960876
v -3.9685460049999994 -0.61130583 1.70960876
v -3.968143305 -0.64449307 1.72628388
v -3.968702145 -0.29789366 1.73955109
v -3.964806375 -0.64449307 1.69308853
v -3.9686035549999996 -0.41119847 1.70960876
v -3.968587095 -0.394537 1.70960876
v -3.9685460049999994 -0.37787552 1.70960876
v -3.968348775 -0.32785717000000003 1.70960876
v -3.9681597049999997 -0.29789366 1.70960876
v -3.9686199650000002 -0.54459207 1.70960876
v -3.9680200249999995 -0.64449307 1.70960876
v -3.9685788649999996 -0.29789366 1.72627481
v -3.9686117850000002 -0.42789388 1.70960876
v -3.9685296049999996 -0.29789366 1.72289422
f 1 2 5
f 1 5 10
f 1 10 19
f 1 19 28
f 1 28 35
f 1 35 44
f 1 44 37
f 1 37 30
f 1 30 22
f 1 22 14
f 1 14 7
f 1 7 3
f 1 3 4
f 1 4 2
f 2 4 6
f 2 6 5
f 3 7 16
f 3 16 24
f 3 24 17
f 3 17 9
f 3 9 8
f 3 8 4
f 4 8 9
f 4 9 17
f 4 17 15
f 4 15 21
f 4 21 23
f 4 23 31
f 4 31 42
f 4 42 47
f 4 47 45
f 4 45 36
f 4 36 29
f 4 29 20
f 4 20 13
f 4 13 12
f 4 12 11
f 4 11 6
f 5 6 11
f 5 11 12
f 5 12 13
f 5 13 10
f 7 14 15
f 7 15 16
f 10 18 19
f 10 13 20
f 10 20 18
f 14 21 15
f 14 22 23
f 14 23 21
f 15 17 24
f 15 24 16
f 18 25 26
f 18 26 27
f 18 27 28
f 18 28 19
f 18 20 29
f 18 29 25
f 22 30 31
f 22 31 23
f 25 32 26
f 25 29 32
f 26 32 27
f 27 32 33
f 27 33 34
f 27 34 28
f 28 34 35
f 29 36 32
f 30 37 31
f 31 38 39
f 31 39 40
f 31 40 41
f 31 41 42
f 31 37 38
f 32 37 33
f 32 36 43
f 32 43 37
f 33 37 34
f 34 37 44
f 34 44 35
f 36 45 39
f 36 39 38
f 36 38 46
f 36 46 43
f 37 43 46
f 37 46 38
f 39 45 40
f 40 45 47
f 40 47 41
f 41 47 42

