# https://github.com/mikedh/trimesh
v 0.26717444 1.48919503 0.99157634
v 0.26696797 1.49016216 1.00705884
v 0.26715274 1.48919503 1.00705884
v 0.26715274 1.48918431 1.00705884
v 0.26429480 1.47622496 1.00705884
v 0.26408833 1.47527935 0.99157634
v 0.26715274 1.48919503 0.97490601
v 0.26451212 1.50304626 0.97490601
v 0.26451212 1.50305702 0.99157634
v 0.26450115 1.50304626 1.00824665
v 0.26383834 1.50242303 1.27480792
v 0.26706572 1.48918431 1.02491698
v 0.26327328 1.47648287 1.27480792
v 0.26389270 1.47548353 1.07488697
v 0.26403397 1.47526859 1.02491698
v 0.26407736 1.47524710 1.00824665
v 0.25914390 1.46716634 0.87488408
v 0.26394706 1.47549426 0.87488408
v 0.26407736 1.47524710 1.00705884
v 0.25911130 1.46691919 1.00705884
v 0.26688106 1.48919503 0.87488408
v 0.26432734 1.50274540 0.85637062
v 0.26439255 1.50287433 0.89155441
v 0.24767945 1.55494806 0.85637062
v 0.24722305 1.55708645 1.00709980
v 0.24722305 1.55708645 1.00824665
v 0.24719045 1.55708645 1.02491698
v 0.24674490 1.55708645 1.24027950
v 0.24670145 1.55708645 1.25817856
v 0.24664709 1.55708645 1.27362011
v 0.24663624 1.55708645 1.27480792
v 0.26568574 1.48918431 1.27480792
v 0.25880701 1.46815496 1.27480792
v 0.25885046 1.46807973 1.25817856
v 0.25904609 1.46732752 1.10818666
v 0.25910045 1.46700514 1.04158729
v 0.25911130 1.46694068 1.02491698
v 0.25911130 1.46691919 1.00824665
v 0.25077647 1.45932195 0.85637062
v 0.25911130 1.46724157 0.85637062
v 0.26682670 1.48919503 0.85825473
v 0.26390355 1.47559097 0.85637062
v 0.26654418 1.49068871 0.85637062
v 0.17474159 1.55494806 0.85637062
v 0.24685356 1.55708645 1.00705884
v 0.18154420 1.55708645 1.27480792
v 0.25047219 1.45941869 1.27480792
v 0.25051564 1.45934347 1.25817856
v 0.25052655 1.45925749 1.24150826
v 0.24921166 1.45855900 0.85637062
v 0.26681586 1.48919503 0.85637062
v 0.15778941 1.50679652 0.85637062
v 0.17751263 1.55707573 1.27480792
v 0.17714314 1.55708645 1.19276703
v 0.17714314 1.55708645 1.19149731
v 0.17721919 1.55708645 1.14148634
v 0.17725180 1.55708645 1.12612671
v 0.17766474 1.55708645 1.00705884
v 0.17752348 1.55708645 1.25944833
v 0.23642147 1.45327212 1.27480792
v 0.23642147 1.45310019 1.24150826
v 0.23643231 1.45238025 0.85637062
v 0.15615939 1.48919503 0.85637062
v 0.15915860 1.48913057 1.27480792
v 0.16089728 1.50053178 1.27480792
v 0.16246215 1.50889194 1.27480792
v 0.17721919 1.55708645 1.20816763
v 0.21976266 1.45211158 1.27480792
v 0.19631215 1.44741570 1.07488697
v 0.20464698 1.44801748 1.07488697
v 0.20611398 1.44791001 1.05825762
v 0.21976266 1.44974755 1.05825762
v 0.21975181 1.44910280 0.85637062
v 0.15845228 1.47534381 0.85637062
v 0.15970196 1.47558024 1.27480792
v 0.20310386 1.45262740 1.27480792
v 0.19477994 1.44752317 1.08320166
v 0.19454087 1.44741570 1.07488697
v 0.19776831 1.44731899 1.05825762
v 0.20662474 1.44771659 0.85637062
v 0.16251645 1.46792929 0.85637062
v 0.16319017 1.46729527 1.25817856
v 0.16326629 1.46722005 1.27480792
v 0.18644512 1.45467981 1.27480792
v 0.19433439 1.44731899 1.05825762
v 0.17155760 1.46029983 1.27480792
v 0.19828991 1.44738349 0.85637062
v 0.19920270 1.44741570 0.85637062
v 0.17193794 1.46031056 0.85637062
v 0.17160111 1.46022461 1.17482697
v 0.17153590 1.46023534 1.24150826
v 0.17152499 1.46025686 1.25817856
v 0.18599957 1.45196116 1.05825762
v 0.18614083 1.45196116 0.85825473
v 0.19447566 1.44738349 0.85637062
v 0.18455426 1.45289604 0.85637062
v 0.18614083 1.45197189 0.85637062
v 0.18707538 1.45145610 0.85637062
f 1 2 3
f 1 3 4
f 1 4 5
f 1 5 6
f 1 6 7
f 1 7 8
f 1 8 9
f 1 9 10
f 1 10 2
f 2 10 11
f 2 11 3
f 3 11 12
f 3 12 4
f 4 12 13
f 4 13 14
f 4 14 15
f 4 15 16
f 4 16 5
f 5 16 6
f 6 17 18
f 6 18 7
f 6 16 19
f 6 19 20
f 6 20 17
f 7 18 21
f 7 21 22
f 7 22 23
f 7 23 8
f 8 23 24
f 8 24 25
f 8 25 9
f 9 25 26
f 9 26 10
f 10 26 27
f 10 27 28
f 10 28 29
f 10 29 11
f 11 29 30
f 11 30 31
f 11 31 46
f 11 46 53
f 11 53 66
f 11 66 65
f 11 65 64
f 11 64 75
f 11 75 83
f 11 83 86
f 11 86 84
f 11 84 76
f 11 76 68
f 11 68 60
f 11 60 47
f 11 47 33
f 11 33 13
f 11 13 32
f 11 32 12
f 12 32 13
f 13 33 14
f 14 33 15
f 15 33 34
f 15 34 35
f 15 35 36
f 15 36 16
f 16 36 37
f 16 37 38
f 16 38 20
f 16 20 19
f 17 39 40
f 17 40 18
f 17 20 39
f 18 41 21
f 18 40 42
f 18 42 41
f 20 38 39
f 21 41 22
f 22 43 51
f 22 51 42
f 22 42 40
f 22 40 39
f 22 39 50
f 22 50 62
f 22 62 73
f 22 73 80
f 22 80 88
f 22 88 87
f 22 87 95
f 22 95 98
f 22 98 97
f 22 97 96
f 22 96 89
f 22 89 81
f 22 81 74
f 22 74 63
f 22 63 52
f 22 52 44
f 22 44 24
f 22 24 23
f 22 41 43
f 24 44 58
f 24 58 45
f 24 45 25
f 25 45 58
f 25 58 57
f 25 57 56
f 25 56 55
f 25 55 54
f 25 54 67
f 25 67 59
f 25 59 46
f 25 46 31
f 25 31 30
f 25 30 29
f 25 29 28
f 25 28 27
f 25 27 26
f 33 47 48
f 33 48 34
f 34 48 35
f 35 48 49
f 35 49 36
f 36 49 37
f 37 49 38
f 38 49 39
f 39 49 50
f 41 42 51
f 41 51 43
f 44 52 53
f 44 53 54
f 44 54 55
f 44 55 56
f 44 56 57
f 44 57 58
f 46 59 53
f 47 60 48
f 48 60 49
f 49 60 61
f 49 61 62
f 49 62 50
f 52 63 64
f 52 64 65
f 52 65 66
f 52 66 53
f 53 59 67
f 53 67 54
f 60 68 69
f 60 69 70
f 60 70 71
f 60 71 72
f 60 72 61
f 61 72 73
f 61 73 62
f 63 74 75
f 63 75 64
f 68 76 77
f 68 77 69
f 69 78 85
f 69 85 79
f 69 79 71
f 69 71 70
f 69 77 78
f 71 79 80
f 71 80 73
f 71 73 72
f 74 81 82
f 74 82 83
f 74 83 75
f 76 84 77
f 77 84 78
f 78 84 86
f 78 86 85
f 79 85 95
f 79 95 87
f 79 87 88
f 79 88 80
f 81 89 90
f 81 90 91
f 81 91 83
f 81 83 82
f 83 91 92
f 83 92 86
f 85 86 92
f 85 92 93
f 85 93 94
f 85 94 95
f 89 96 94
f 89 94 90
f 90 93 91
f 90 94 93
f 91 93 92
f 94 96 97
f 94 97 98
f 94 98 95

