# https://github.com/mikedh/trimesh
v -2.76822396 2.05159155 1.15607417
v -2.76822396 2.02893695 1.16342277
v -2.76822396 2.05159155 1.22557282
v -2.46471967 2.05159155 1.15802019
v -2.46471967 2.02893695 1.16431413
v -2.76822396 2.02893695 1.22253811
v -2.76470132 2.05159155 1.22557282
v -2.44807053 2.05159155 1.15820391
v -2.38944615 2.02893695 1.16487888
v -2.45463376 2.02893695 1.16438217
v -2.74801507 2.02893695 1.22247687
v -2.38944615 2.05159155 1.22462702
v -2.73136590 2.05159155 1.22549116
v -2.74801507 2.05159155 1.22553199
v -2.38944615 2.05159155 1.15957156
v -2.38944615 2.02893695 1.22108882
v -2.48140594 2.02893695 1.22144943
f 1 2 6
f 1 6 3
f 1 3 7
f 1 7 14
f 1 14 13
f 1 13 12
f 1 12 15
f 1 15 8
f 1 8 4
f 1 4 5
f 1 5 2
f 2 5 10
f 2 10 9
f 2 9 16
f 2 16 17
f 2 17 11
f 2 11 6
f 3 6 7
f 4 8 9
f 4 9 10
f 4 10 5
f 6 11 12
f 6 12 13
f 6 13 14
f 6 14 7
f 8 15 9
f 9 15 12
f 9 12 16
f 11 17 12
f 12 17 16

