# https://github.com/mikedh/trimesh
v 0.40611794 1.50569316 1.13120322
v 0.40611794 1.49017374 1.13787061
v 0.40611794 1.52248985 1.13168829
v 0.77448105 1.50569316 1.13184703
v 0.77448105 1.49039243 1.13822338
v 0.40611794 1.48485479 1.14915933
v 0.40611794 1.53902407 1.13647716
v 0.77448105 1.52235863 1.13292298
v 0.77448105 1.48396247 1.15245774
v 0.57569624 1.48329761 1.15354251
v 0.40611794 1.48335009 1.15354251
v 0.77448105 1.48347258 1.15354251
v 0.40611794 1.54079122 1.13760603
v 0.77448105 1.54855094 1.14392948
v 0.77448105 1.53912031 1.13806464
v 0.40611794 1.48286019 1.17021099
v 0.40611794 1.48293893 1.16571316
v 0.77448105 1.48362129 1.17021099
v 0.40611794 1.48279895 1.18687067
v 0.40611794 1.54866467 1.14293288
v 0.77448105 1.57216251 1.16146225
v 0.77448105 1.48394498 1.18687067
v 0.40611794 1.48453110 1.20353915
v 0.40611794 1.57216251 1.16304091
v 0.77448105 1.57216251 1.22128358
v 0.77448105 1.48624577 1.20353915
v 0.40611794 1.49150347 1.21638004
v 0.40611794 1.57216251 1.22059568
v 0.40611794 1.51883308 1.22094845
v 0.77448105 1.57117396 1.22127476
v 0.49215108 1.57216251 1.22082498
v 0.40611794 1.53616339 1.22087789
v 0.77448105 1.49284197 1.21504833
v 0.40611794 1.50199266 1.21955500
v 0.74231777 1.49277199 1.21518063
v 0.77448105 1.50569316 1.21902584
v 0.47549252 1.57216251 1.22078971
v 0.40611794 1.50569316 1.22041929
v 0.77448105 1.52235863 1.22020763
v 0.77448105 1.53784306 1.22076324
v 0.77448105 1.53902407 1.22079851
v 0.77448105 1.55568952 1.22111601
v 0.74231777 1.50569316 1.21916694
v 0.77448105 1.52117762 1.22012825
f 1 2 6
f 1 6 11
f 1 11 17
f 1 17 16
f 1 16 19
f 1 19 23
f 1 23 27
f 1 27 34
f 1 34 38
f 1 38 29
f 1 29 32
f 1 32 28
f 1 28 24
f 1 24 20
f 1 20 13
f 1 13 7
f 1 7 3
f 1 3 4
f 1 4 5
f 1 5 2
f 2 5 6
f 3 7 8
f 3 8 4
f 4 8 15
f 4 15 14
f 4 14 21
f 4 21 25
f 4 25 30
f 4 30 42
f 4 42 41
f 4 41 40
f 4 40 39
f 4 39 44
f 4 44 36
f 4 36 33
f 4 33 26
f 4 26 22
f 4 22 18
f 4 18 12
f 4 12 9
f 4 9 5
f 5 9 6
f 6 10 11
f 6 9 12
f 6 12 10
f 7 13 14
f 7 14 15
f 7 15 8
f 10 16 17
f 10 17 11
f 10 12 16
f 12 18 19
f 12 19 16
f 13 20 14
f 14 20 21
f 18 22 19
f 19 22 23
f 20 24 21
f 21 24 28
f 21 28 37
f 21 37 31
f 21 31 25
f 22 26 23
f 23 26 27
f 25 29 30
f 25 31 32
f 25 32 29
f 26 33 27
f 27 33 35
f 27 35 36
f 27 36 34
f 28 32 37
f 29 38 39
f 29 39 40
f 29 40 41
f 29 41 42
f 29 42 30
f 31 37 32
f 33 36 35
f 34 36 43
f 34 43 38
f 36 44 43
f 38 43 44
f 38 44 39

