# https://github.com/mikedh/trimesh
v 0.77446263 1.78782531 0.89666437
v 0.77446263 1.60450271 0.89745065
v 0.77446263 1.78782531 0.83609624
v 0.74112984 1.78782531 0.89660951
v 0.77446263 1.58902908 0.89749941
v 0.72565391 1.78782531 0.89657903
v 0.49236029 1.78782531 0.89593294
v 0.77446263 1.57248028 0.83587071
v 0.40592583 1.77235166 0.83523681
v 0.40592583 1.77618845 0.83524900
v 0.40592583 1.78782531 0.83529775
v 0.75898670 1.57248028 0.89743846
v 0.77446263 1.57248028 0.89748722
v 0.75898670 1.58902908 0.89744456
v 0.74232027 1.57248028 0.89738360
v 0.47569387 1.78782531 0.89586589
v 0.40592583 1.57248028 0.83540138
v 0.40592583 1.72647885 0.83526728
v 0.40592583 1.74315412 0.83525509
v 0.40592583 1.78782531 0.89456152
v 0.74232027 1.58902908 0.89737141
v 0.49236029 1.57248028 0.89620113
v 0.47450343 1.78782531 0.89585370
v 0.47569387 1.57248028 0.89610361
v 0.40592583 1.57248028 0.89481752
v 0.40592583 1.78434689 0.89456761
v 0.44340720 1.78782531 0.89535389
v 0.45902744 1.78782531 0.89567084
v 0.45902744 1.57248028 0.89588418
v 0.44236101 1.57248028 0.89557332
v 0.40592583 1.58409605 0.89480532
v 0.40592583 1.77235166 0.89458589
v 0.44398442 1.78782531 0.89536609
f 1 2 5
f 1 5 13
f 1 13 8
f 1 8 3
f 1 3 11
f 1 11 20
f 1 20 27
f 1 27 33
f 1 33 28
f 1 28 23
f 1 23 16
f 1 16 7
f 1 7 6
f 1 6 4
f 1 4 2
f 2 4 6
f 2 6 7
f 2 7 5
f 3 8 9
f 3 9 10
f 3 10 11
f 5 12 13
f 5 7 14
f 5 14 15
f 5 15 12
f 7 16 14
f 8 13 12
f 8 12 15
f 8 15 22
f 8 22 24
f 8 24 29
f 8 29 30
f 8 30 25
f 8 25 17
f 8 17 18
f 8 18 19
f 8 19 9
f 9 19 18
f 9 18 17
f 9 17 25
f 9 25 31
f 9 31 32
f 9 32 26
f 9 26 20
f 9 20 11
f 9 11 10
f 14 21 15
f 14 16 21
f 15 21 22
f 16 22 21
f 16 23 24
f 16 24 22
f 20 26 27
f 23 28 24
f 24 28 29
f 25 30 31
f 26 32 33
f 26 33 27
f 28 33 30
f 28 30 29
f 30 33 31
f 31 33 32

