# https://github.com/mikedh/trimesh
v -1.63031035 1.57247252 0.83977525
v -1.63031035 1.55577526 0.83977525
v -1.60286563 1.55587495 0.83963906
v -1.63031035 1.72244873 0.83976724
v -1.63031035 1.53932722 0.83975924
v -1.60286563 1.53932722 0.83962304
v -1.60286563 1.57257220 0.83963105
v -1.60286563 1.68920375 0.83955895
v -1.63031035 1.73914598 0.83975122
v -1.63031035 1.53932722 0.80328342
v -1.60286563 1.53932722 0.75991783
v -1.60286563 1.70585116 0.83953491
v -1.63024317 1.87252462 0.83954293
v -1.63031035 1.79576710 0.83965509
v -1.63024585 1.53932722 0.75968551
v -1.63031035 1.53942691 0.75966147
v -1.60286563 1.61179828 0.75995789
v -1.62291454 2.04851864 0.75799511
v -1.60286832 2.04851864 0.75831556
v -1.60286563 1.79581695 0.83932662
v -1.60286832 1.89988817 0.83916639
v -1.60286832 1.88917203 0.83919042
v -1.63024317 1.88917203 0.83951088
v -1.63024317 2.04851864 0.83915037
v -1.63031035 1.79581695 0.83884594
v -1.63031035 1.60591687 0.75966949
v -1.63024317 2.04846878 0.75793102
v -1.60286563 1.62256427 0.75996590
v -1.60286832 2.04851864 0.83853350
v -1.60286563 1.79581695 0.76012612
v -1.60286563 1.78918789 0.76011812
v -1.60286832 1.90581943 0.83915037
v -1.63031035 1.79581695 0.75982971
v -1.63031035 1.77254048 0.75978164
v -1.63031035 1.78918789 0.75981369
f 1 2 3
f 1 3 4
f 1 4 9
f 1 9 14
f 1 14 25
f 1 25 33
f 1 33 35
f 1 35 34
f 1 34 26
f 1 26 16
f 1 16 10
f 1 10 5
f 1 5 2
f 2 5 6
f 2 6 3
f 3 7 4
f 3 6 11
f 3 11 17
f 3 17 28
f 3 28 31
f 3 31 30
f 3 30 20
f 3 20 12
f 3 12 8
f 3 8 7
f 4 8 9
f 4 7 8
f 5 10 15
f 5 15 11
f 5 11 6
f 8 12 9
f 9 12 13
f 9 13 14
f 10 16 15
f 11 15 16
f 11 16 18
f 11 18 19
f 11 19 17
f 12 20 21
f 12 21 22
f 12 22 13
f 13 22 23
f 13 23 14
f 14 23 24
f 14 24 25
f 16 26 27
f 16 27 18
f 17 19 28
f 18 27 24
f 18 24 29
f 18 29 19
f 19 29 20
f 19 20 30
f 19 30 31
f 19 31 28
f 20 29 32
f 20 32 21
f 21 23 22
f 21 32 24
f 21 24 23
f 24 27 33
f 24 33 25
f 24 32 29
f 26 34 27
f 27 34 35
f 27 35 33

