# https://github.com/mikedh/trimesh
v -0.45470129000000004 -0.71138262 1.12440606
v -0.45455420999999996 -0.7046645899999999 1.12440606
v -0.45299303999999996 -0.72750398 1.12440606
v -0.47887707999999996 -0.6947047 1.14423222
v -0.45283464000000007 -0.69445082 1.12440606
v -0.47887707999999996 -0.67819277 1.14460332
v -0.47887707999999996 -0.6615246 1.14506441
v -0.47887707999999996 -0.70844348 1.14748222
v -0.47887707999999996 -0.69488046 1.14426596
v -0.44444042000000006 -0.73992453 1.12440606
v -0.47887707999999996 -0.6447002 1.14699866
v -0.47887707999999996 -0.64447562 1.14705489
v -0.4442368000000001 -0.68198143 1.12440606
v -0.47887707999999996 -0.71519082 1.15926771
v -0.43042369 -0.7433323700000001 1.12440606
v -0.44413499 -0.7398269 1.23928081
v -0.45216718999999994 -0.7349738800000001 1.2092773
v -0.4520540500000001 -0.7348859999999999 1.15926771
v -0.47887707999999996 -0.71656763 1.17594508
v -0.47887707999999996 -0.64447562 1.2274391
v -0.4623488600000001 -0.64447562 1.14588534
v -0.4125378500000001 -0.64448539 1.14190436
v -0.4123342400000001 -0.6581265199999999 1.12440606
v -0.4255817100000001 -0.66433681 1.12440606
v -0.42898693 -0.7436741499999999 1.12440606
v -0.42898693 -0.7436741499999999 1.12592423
v -0.4526762900000001 -0.7289881899999999 1.23928081
v -0.47887707999999996 -0.70904888 1.22255847
v -0.47887707999999996 -0.7156888100000001 1.20945724
v -0.47887707999999996 -0.71575716 1.2092773
v -0.47887707999999996 -0.7165188 1.19284735
v -0.43203013 -0.7427172 1.23928081
v -0.47887707999999996 -0.6445342000000001 1.2275628
v -0.47882054000000007 -0.64447562 1.2275628
v -0.45013086 -0.64447562 1.14528931
v -0.4123342400000001 -0.64448539 1.14190436
v -0.3956589400000001 -0.65740395 1.12440606
v -0.4123342400000001 -0.74396708 1.12440606
v -0.42898693 -0.74343979 1.23928081
v -0.4123342400000001 -0.74396708 1.14260159
v -0.3956589400000001 -0.74423072 1.19259995
v -0.4123342400000001 -0.74389873 1.19259995
v -0.45386415999999996 -0.7269181 1.23928081
v -0.47887707999999996 -0.6947047 1.22752907
v -0.47887707999999996 -0.66121214 1.22757404
v -0.45828752000000006 -0.69582762 1.23928081
v -0.45527826000000005 -0.69032039 1.23928081
v -0.4512734600000001 -0.6841296299999999 1.23928081
v -0.42658857000000006 -0.6636532900000001 1.23928081
v -0.4123342400000001 -0.65805817 1.23928081
v -0.39555713000000003 -0.6578043 1.23928081
v -0.4123342400000001 -0.64448539 1.22765277
v -0.47866213 -0.64447562 1.2275628
v -0.45013086 -0.64447562 1.22399791
v -0.39210663999999995 -0.64448539 1.17594508
v -0.39305696999999995 -0.64448539 1.15926771
v -0.39900756000000004 -0.64448539 1.14645887
v -0.37898363999999995 -0.65883934 1.12440606
v -0.3956589400000001 -0.74418191 1.12440606
v -0.3956589400000001 -0.74420144 1.14260159
v -0.4123342400000001 -0.7437620300000001 1.23928081
v -0.37898363999999995 -0.74347885 1.17594508
v -0.37898363999999995 -0.7434593199999999 1.19259995
v -0.37898363999999995 -0.7433323700000001 1.23928081
v -0.3956589400000001 -0.74407449 1.23928081
v -0.45789156 -0.71078698 1.23928081
v -0.47887707999999996 -0.6780560600000001 1.2275853
v -0.37898363999999995 -0.65928851 1.23928081
v -0.4121645600000001 -0.64448539 1.22759654
v -0.4621452400000001 -0.64447562 1.22748408
v -0.39869080999999995 -0.64448539 1.22256971
v -0.39861159999999995 -0.64448539 1.22241228
v -0.39276281999999996 -0.64448539 1.2092773
v -0.39275148000000004 -0.64448539 1.20906364
v -0.39214057999999996 -0.64448539 1.19259995
v -0.36695791999999994 -0.6648641 1.19259995
v -0.36698059000000005 -0.66485433 1.17594508
v -0.3671728700000001 -0.66492268 1.12592423
v -0.3671728700000001 -0.66493245 1.12440606
v -0.37792018000000005 -0.6593861599999999 1.12440606
v -0.38048821 -0.7434593199999999 1.12440606
v -0.37898363999999995 -0.74339097 1.12592423
v -0.37898363999999995 -0.7434593199999999 1.15926771
v -0.3677045700000001 -0.7394753700000001 1.14260159
v -0.36768197 -0.7394949 1.17594508
v -0.3676933 -0.7394753700000001 1.19259995
v -0.3677159000000001 -0.73945584 1.2092773
v -0.3677498400000001 -0.73940702 1.23928081
v -0.37001244999999994 -0.74019795 1.23928081
v -0.36704846000000013 -0.6650301000000001 1.23928081
v -0.3670145200000001 -0.66497151 1.22595467
v -0.36696925000000014 -0.66491292 1.2092773
v -0.36331515000000003 -0.67803654 1.2092773
v -0.36331515000000003 -0.67803654 1.19259995
v -0.36336042 -0.67803654 1.17594508
v -0.36345088999999997 -0.67803654 1.15926771
v -0.3636319000000001 -0.67803654 1.12592423
v -0.3639599900000001 -0.6768550200000001 1.12440606
v -0.37898363999999995 -0.74337144 1.12440606
v -0.36773851000000013 -0.73943631 1.12440606
v -0.36417494000000006 -0.7280605600000001 1.14260159
v -0.36417494000000006 -0.7280605600000001 1.15926771
v -0.36418627000000003 -0.7280605600000001 1.17594508
v -0.36419753999999993 -0.7280605600000001 1.19259995
v -0.36422021000000004 -0.7280605600000001 1.2092773
v -0.3642767499999999 -0.7280605600000001 1.23928081
v -0.36345088999999997 -0.67803654 1.23928081
v -0.36351882000000013 -0.6913652 1.23928081
v -0.36365457 -0.7113728500000001 1.23928081
v -0.36346221999999995 -0.69469493 1.2092773
v -0.36358669999999993 -0.7113728500000001 1.14260159
v -0.36362063 -0.7113728500000001 1.12440606
v -0.36358669999999993 -0.69469493 1.12440606
v -0.36364324000000003 -0.67803654 1.12440606
v -0.36423154 -0.7280605600000001 1.12440606
v -0.36417494000000006 -0.72654704 1.12440606
v -0.3636093 -0.7113728500000001 1.19259995
v -0.36362063 -0.7113728500000001 1.2092773
f 1 2 5
f 1 5 13
f 1 13 24
f 1 24 23
f 1 23 37
f 1 37 58
f 1 58 80
f 1 80 79
f 1 79 98
f 1 98 114
f 1 114 113
f 1 113 112
f 1 112 116
f 1 116 115
f 1 115 100
f 1 100 99
f 1 99 81
f 1 81 59
f 1 59 38
f 1 38 25
f 1 25 15
f 1 15 10
f 1 10 3
f 1 3 4
f 1 4 2
f 2 4 6
f 2 6 7
f 2 7 5
f 3 8 9
f 3 9 4
f 3 10 8
f 4 9 8
f 4 8 14
f 4 14 19
f 4 19 31
f 4 31 30
f 4 30 29
f 4 29 28
f 4 28 44
f 4 44 67
f 4 67 45
f 4 45 33
f 4 33 20
f 4 20 12
f 4 12 11
f 4 11 7
f 4 7 6
f 5 7 11
f 5 11 12
f 5 12 13
f 8 10 14
f 10 15 16
f 10 16 17
f 10 17 18
f 10 18 19
f 10 19 14
f 12 20 34
f 12 34 53
f 12 53 70
f 12 70 54
f 12 54 35
f 12 35 21
f 12 21 22
f 12 22 23
f 12 23 24
f 12 24 13
f 15 25 26
f 15 26 16
f 16 27 28
f 16 28 29
f 16 29 30
f 16 30 31
f 16 31 17
f 16 26 32
f 16 32 39
f 16 39 61
f 16 61 65
f 16 65 64
f 16 64 89
f 16 89 88
f 16 88 106
f 16 106 109
f 16 109 108
f 16 108 107
f 16 107 90
f 16 90 68
f 16 68 51
f 16 51 50
f 16 50 49
f 16 49 48
f 16 48 47
f 16 47 46
f 16 46 66
f 16 66 43
f 16 43 27
f 17 31 19
f 17 19 18
f 20 33 34
f 21 35 22
f 22 35 36
f 22 36 37
f 22 37 23
f 25 38 40
f 25 40 26
f 26 39 32
f 26 40 41
f 26 41 42
f 26 42 39
f 27 43 28
f 28 43 44
f 33 45 46
f 33 46 47
f 33 47 48
f 33 48 34
f 34 48 49
f 34 49 50
f 34 50 51
f 34 51 52
f 34 52 53
f 35 54 55
f 35 55 56
f 35 56 57
f 35 57 36
f 36 57 58
f 36 58 37
f 38 59 60
f 38 60 41
f 38 41 40
f 39 42 41
f 39 41 61
f 41 60 62
f 41 62 63
f 41 63 64
f 41 64 65
f 41 65 61
f 43 66 44
f 44 66 46
f 44 46 67
f 45 67 46
f 51 68 52
f 52 68 69
f 52 69 54
f 52 54 70
f 52 70 53
f 54 69 71
f 54 71 72
f 54 72 73
f 54 73 74
f 54 74 75
f 54 75 55
f 55 75 76
f 55 76 77
f 55 77 78
f 55 78 79
f 55 79 56
f 56 79 80
f 56 80 58
f 56 58 57
f 59 81 82
f 59 82 83
f 59 83 62
f 59 62 60
f 62 83 84
f 62 84 85
f 62 85 63
f 63 85 86
f 63 86 87
f 63 87 88
f 63 88 89
f 63 89 64
f 68 71 69
f 68 90 71
f 71 90 72
f 72 90 73
f 73 90 74
f 74 90 75
f 75 90 91
f 75 91 92
f 75 92 76
f 76 92 93
f 76 93 94
f 76 94 77
f 77 79 78
f 77 94 95
f 77 95 79
f 79 95 96
f 79 96 97
f 79 97 98
f 81 99 82
f 82 99 100
f 82 100 84
f 82 84 83
f 84 101 85
f 84 100 101
f 85 101 102
f 85 102 103
f 85 103 104
f 85 104 86
f 86 104 105
f 86 105 88
f 86 88 87
f 88 105 106
f 90 107 93
f 90 93 91
f 91 93 92
f 93 107 108
f 93 108 109
f 93 109 110
f 93 110 111
f 93 111 94
f 94 111 112
f 94 112 95
f 95 112 113
f 95 113 96
f 96 113 97
f 97 114 98
f 97 113 114
f 100 115 101
f 101 112 111
f 101 111 102
f 101 115 116
f 101 116 112
f 102 111 117
f 102 117 118
f 102 118 103
f 103 118 104
f 104 118 109
f 104 109 105
f 105 109 106
f 109 118 110
f 110 117 111
f 110 118 117

