# https://github.com/mikedh/trimesh
v -3.36473047 2.08902264 0.09617156
v -3.34805003 2.08902264 0.09618211
v -3.33139410 2.07236373 0.09697081
v -3.56031549 2.07236373 0.09694977
v -3.56031549 2.08902264 0.09621364
v -3.56031549 2.10128616 0.09711803
v -3.56031549 2.10568993 0.09745450
v -3.33139410 2.10568993 0.09773846
v -3.31008425 2.08902264 0.09624517
v -3.31473810 2.07236373 0.09701283
v -3.31473810 2.05842259 0.10468937
v -3.56031549 2.05837226 0.10465784
v -3.56031549 2.11381807 0.10331184
v -3.31008425 2.11661972 0.10574099
v -3.31008425 2.10568993 0.09779103
v -3.31008425 2.10105966 0.09735985
v -3.56031549 2.11672877 0.10541501
v -3.31008425 2.07236373 0.09703387
v -3.31008425 2.05841419 0.10471041
v -3.31008425 2.03471761 0.13039009
v -3.31424827 2.03471761 0.13037954
v -3.48080780 2.03471761 0.13023231
v -3.55992359 2.03471761 0.13021127
v -3.56031549 2.03471761 0.13021127
v -3.31008425 2.11872515 0.11618321
v -3.46471520 2.11675392 0.10566737
v -3.48137119 2.11677070 0.10566737
v -3.48137119 2.11979885 0.12020023
v -3.56031549 2.11973174 0.12020023
v -3.31008425 2.03471761 0.18032970
v -3.56031549 2.03471761 0.17936219
v -3.31008425 2.11952202 0.12020023
v -3.51470756 2.12016793 0.13686779
v -3.49802713 2.12017630 0.13686779
v -3.48137119 2.12016793 0.13686779
v -3.46471520 2.12015115 0.13686779
v -3.31473810 2.11994983 0.13686779
v -3.31008425 2.11983238 0.13224083
v -3.56031549 2.12010922 0.13686779
v -3.53136350 2.12015115 0.13686779
v -3.31008425 2.06259150 0.20359066
v -3.34805003 2.03471761 0.18046638
v -3.56031549 2.06271732 0.20359066
v -3.39806690 2.03471761 0.18042429
v -3.51470756 2.12037762 0.15352486
v -3.48137119 2.12041117 0.15352486
v -3.46471520 2.12039440 0.15352486
v -3.31008425 2.12015115 0.15352486
v -3.31008425 2.11993305 0.13686779
v -3.56031549 2.12031891 0.15352486
v -3.53136350 2.12036084 0.15352486
v -3.34805003 2.06255794 0.20359066
v -3.31008425 2.11132679 0.20359066
v -3.38138646 2.03471761 0.18048742
v -3.56031549 2.11082348 0.20359066
v -3.54804399 2.06263346 0.20359066
v -3.38569740 2.03471761 0.18047693
v -3.48137119 2.11900196 0.17019242
v -3.46471520 2.11901034 0.17019242
v -3.44803476 2.11901034 0.17019242
v -3.41472283 2.11900196 0.17019242
v -3.36473047 2.11895162 0.17019242
v -3.34805003 2.11890969 0.17019242
v -3.31008425 2.11863289 0.17019242
v -3.56031549 2.11877549 0.17019242
v -3.43140326 2.06252441 0.20359066
v -3.33146753 2.11129323 0.20359066
v -3.53136350 2.06261668 0.20359066
v -3.39814039 2.11115903 0.20359066
f 1 2 3
f 1 3 4
f 1 4 5
f 1 5 6
f 1 6 7
f 1 7 2
f 2 7 8
f 2 8 9
f 2 9 3
f 3 9 10
f 3 10 11
f 3 11 12
f 3 12 4
f 4 12 24
f 4 24 31
f 4 31 43
f 4 43 55
f 4 55 65
f 4 65 50
f 4 50 39
f 4 39 29
f 4 29 17
f 4 17 13
f 4 13 7
f 4 7 6
f 4 6 5
f 7 13 8
f 8 14 15
f 8 15 16
f 8 16 9
f 8 13 17
f 8 17 14
f 9 16 15
f 9 15 14
f 9 14 25
f 9 25 32
f 9 32 38
f 9 38 49
f 9 49 48
f 9 48 64
f 9 64 53
f 9 53 41
f 9 41 30
f 9 30 20
f 9 20 19
f 9 19 18
f 9 18 10
f 10 18 19
f 10 19 11
f 11 19 20
f 11 20 21
f 11 21 22
f 11 22 12
f 12 22 23
f 12 23 24
f 14 17 26
f 14 26 27
f 14 27 28
f 14 28 25
f 17 29 28
f 17 28 27
f 17 27 26
f 20 30 42
f 20 42 54
f 20 54 57
f 20 57 44
f 20 44 31
f 20 31 24
f 20 24 23
f 20 23 22
f 20 22 21
f 25 28 32
f 28 29 33
f 28 33 34
f 28 34 35
f 28 35 36
f 28 36 37
f 28 37 38
f 28 38 32
f 29 39 40
f 29 40 33
f 30 41 42
f 31 44 43
f 33 40 51
f 33 51 45
f 33 45 46
f 33 46 34
f 34 46 35
f 35 46 47
f 35 47 36
f 36 47 37
f 37 48 49
f 37 49 38
f 37 47 48
f 39 50 51
f 39 51 40
f 41 52 42
f 41 53 67
f 41 67 69
f 41 69 55
f 41 55 43
f 41 43 56
f 41 56 68
f 41 68 66
f 41 66 52
f 42 52 54
f 43 44 56
f 44 57 56
f 45 51 58
f 45 58 46
f 46 58 59
f 46 59 60
f 46 60 61
f 46 61 62
f 46 62 47
f 47 62 48
f 48 62 63
f 48 63 64
f 50 65 58
f 50 58 51
f 52 66 54
f 53 64 63
f 53 63 62
f 53 62 61
f 53 61 60
f 53 60 59
f 53 59 58
f 53 58 67
f 54 66 68
f 54 68 56
f 54 56 57
f 55 58 65
f 55 69 58
f 58 69 67

