# https://github.com/mikedh/trimesh
v 2.29302387 1.94631782 0.92027187
v 2.25335910 1.94631782 0.92027187
v 2.29339098 1.94628754 0.92027187
v 2.29339098 1.94631782 0.92020398
v 2.23613573 1.94631782 0.90200700
v 2.25373336 1.83903703 0.92027187
v 2.30774973 1.93901837 0.85352700
v 2.30772815 1.94631782 0.85352700
v 2.29339098 1.90562563 0.92027187
v 2.30781452 1.88902770 0.85352700
v 2.30780731 1.90568620 0.85352700
v 2.30778573 1.92235986 0.85352700
v 2.23613573 1.94631782 0.83284490
v 2.23613573 1.94359189 0.90199342
v 2.23613573 1.79162086 0.90108357
v 2.25382688 1.82236338 0.92027187
v 2.30804484 1.94631782 0.84624820
v 2.29338376 1.88895197 0.92027187
v 2.30776416 1.87235404 0.85352700
v 2.30889415 1.79162086 0.82021566
v 2.30910283 1.87235404 0.82021566
v 2.30913883 1.88902770 0.82021566
v 2.30913883 1.90568620 0.82021566
v 2.29336934 1.87229347 0.92027187
v 2.29320382 1.79162086 0.92027187
v 2.30844067 1.93901837 0.83687812
v 2.30843352 1.94631782 0.83687812
v 2.25506488 1.94631782 0.78154030
v 2.23613573 1.89043610 0.83241035
v 2.23613573 1.79162086 0.83189432
v 2.25400683 1.79162086 0.92020398
v 2.25400683 1.79166629 0.92027187
v 2.30738268 1.79162086 0.85352700
v 2.30921083 1.79162086 0.80353962
v 2.30966425 1.88902770 0.80353962
v 2.30911725 1.92235986 0.82021566
v 2.29218898 1.79162086 0.92027187
v 2.30908125 1.94631782 0.82021566
v 2.23613573 1.87367158 0.83230172
v 2.29761585 1.94631782 0.78154030
v 2.25571982 1.79162086 0.78154030
v 2.23613573 1.80661351 0.83189432
v 2.30489959 1.79162086 0.79036719
v 2.30525228 1.88902770 0.79000053
v 2.30887972 1.94631782 0.80353962
v 2.30899488 1.94631782 0.81292329
v 2.30450370 1.94631782 0.79072026
v 2.29765179 1.88919428 0.78154030
v 2.29752227 1.79162086 0.78154030
v 2.30383439 1.79162086 0.78907710
v 2.29765179 1.88902770 0.78154030
v 2.29761585 1.82236338 0.78154030
f 1 2 6
f 1 6 16
f 1 16 32
f 1 32 37
f 1 37 25
f 1 25 24
f 1 24 18
f 1 18 9
f 1 9 3
f 1 3 4
f 1 4 8
f 1 8 17
f 1 17 27
f 1 27 38
f 1 38 46
f 1 46 45
f 1 45 47
f 1 47 40
f 1 40 28
f 1 28 13
f 1 13 5
f 1 5 2
f 2 5 6
f 3 7 8
f 3 8 4
f 3 9 10
f 3 10 11
f 3 11 12
f 3 12 7
f 5 13 29
f 5 29 39
f 5 39 42
f 5 42 30
f 5 30 15
f 5 15 14
f 5 14 6
f 6 15 16
f 6 14 15
f 7 17 8
f 7 12 17
f 9 18 10
f 10 19 20
f 10 20 21
f 10 21 22
f 10 22 23
f 10 23 11
f 10 18 24
f 10 24 25
f 10 25 19
f 11 23 26
f 11 26 27
f 11 27 12
f 12 27 17
f 13 28 29
f 15 30 41
f 15 41 49
f 15 49 50
f 15 50 43
f 15 43 34
f 15 34 20
f 15 20 33
f 15 33 25
f 15 25 37
f 15 37 31
f 15 31 32
f 15 32 16
f 19 25 33
f 19 33 20
f 20 34 35
f 20 35 21
f 21 35 22
f 22 35 23
f 23 36 27
f 23 27 26
f 23 35 36
f 27 36 38
f 28 39 29
f 28 40 48
f 28 48 51
f 28 51 52
f 28 52 49
f 28 49 41
f 28 41 30
f 28 30 42
f 28 42 39
f 31 37 32
f 34 43 44
f 34 44 35
f 35 44 45
f 35 45 46
f 35 46 38
f 35 38 36
f 40 47 44
f 40 44 48
f 43 50 44
f 44 51 48
f 44 47 45
f 44 50 49
f 44 49 52
f 44 52 51

