# https://github.com/mikedh/trimesh
v 1.30799344 2.06529456 1.25343658
v 1.30799344 2.06553176 1.43900729
v 1.30799344 2.11569832 1.25343658
v 1.30884097 2.06528953 1.25343658
v 1.30799344 2.11469913 1.43900729
v 1.32553761 2.06522393 1.25343658
v 1.74439458 2.06461331 1.43900729
v 1.30799344 2.11569832 1.25354557
v 1.30901048 2.11571346 1.25343658
v 1.30799344 2.11504231 1.38687456
v 1.30901048 2.11470923 1.43900729
v 1.80897756 2.06422471 1.25343658
v 1.75897238 2.06458806 1.43900729
v 1.30799344 2.11565797 1.27022078
v 1.30901048 2.11571346 1.25354557
v 1.32570713 2.11577402 1.25343658
v 1.30799344 2.11514322 1.37128923
v 1.30901048 2.11505238 1.38687456
v 1.32358826 2.11474455 1.43900729
v 2.04230685 2.06459817 1.25343658
v 1.90898795 2.06450733 1.43900729
v 1.30799344 2.11561255 1.28687782
v 1.30901048 2.11567311 1.27022078
v 1.32570713 2.11577402 1.25354557
v 1.32579189 2.11577402 1.25343658
v 1.30799344 2.11544601 1.32021005
v 1.30901048 2.11515836 1.37019935
v 1.30901048 2.11536021 1.33688527
v 1.32570713 2.11474959 1.43900729
v 1.32570713 2.11508266 1.38687456
v 1.32570713 2.11540059 1.33688527
v 2.17367635 2.06505233 1.25343658
v 1.92559978 2.06455275 1.43900729
v 1.91110679 2.06451236 1.43900729
v 1.30799344 2.11560748 1.28796770
v 1.30901048 2.11562769 1.28687782
v 1.32570713 2.11573367 1.27022078
v 1.97560502 2.11530472 1.37019935
v 1.97560502 2.11534004 1.35352416
v 1.97560502 2.11538545 1.32021005
v 1.97560502 2.11540563 1.30355301
v 1.97560502 2.11538039 1.28687782
v 1.97560502 2.11527948 1.27022078
v 1.97577454 2.11508266 1.25343658
v 1.30799344 2.11552675 1.30464292
v 1.30901048 2.11545609 1.32021005
v 1.30901048 2.11554692 1.30355301
v 1.69235528 2.11514322 1.43900729
v 1.32570713 2.11549143 1.32021005
v 1.70693308 2.11515836 1.43900729
v 2.17367635 2.11483035 1.25343658
v 2.17367635 2.06569323 1.43900729
v 1.32570713 2.11565797 1.28687782
v 1.72574857 2.11517350 1.43900729
v 1.74227573 2.11517350 1.43900729
v 1.87559466 2.11511798 1.43686386
v 1.89229124 2.11509780 1.43900729
v 2.10892391 2.11492119 1.43686386
v 2.17367635 2.11485557 1.43711817
v 1.99230160 2.11528451 1.37019935
v 2.15892903 2.11503724 1.37019935
v 2.15892903 2.11506752 1.35352416
v 2.17367635 2.11506248 1.33879257
v 2.17367635 2.11507762 1.32213553
v 2.17367635 2.11508266 1.30546032
v 2.17367635 2.11508266 1.30355301
v 2.17367635 2.11507256 1.28880328
v 2.17367635 2.11506752 1.28687782
v 2.17367635 2.11500193 1.27212806
v 2.17367635 2.11499182 1.27022078
v 2.17367635 2.11484549 1.43900729
v 1.85898271 2.11511798 1.43900729
v 2.09231197 2.11492623 1.43900729
v 2.10892391 2.11491109 1.43900729
v 2.17367635 2.11490605 1.42020682
v 2.12562050 2.11501707 1.40353160
v 2.12562050 2.11505238 1.38687456
v 2.14231721 2.11502717 1.38687456
v 2.14231721 2.11499182 1.40353160
v 2.17367635 2.11497668 1.38687456
v 2.17367635 2.11501203 1.37019935
v 2.17367635 2.11504231 1.35352416
f 1 2 5
f 1 5 10
f 1 10 17
f 1 17 26
f 1 26 45
f 1 45 35
f 1 35 22
f 1 22 14
f 1 14 8
f 1 8 3
f 1 3 9
f 1 9 16
f 1 16 25
f 1 25 44
f 1 44 51
f 1 51 32
f 1 32 20
f 1 20 12
f 1 12 6
f 1 6 4
f 1 4 2
f 2 4 6
f 2 6 7
f 2 7 13
f 2 13 21
f 2 21 34
f 2 34 33
f 2 33 52
f 2 52 71
f 2 71 74
f 2 74 73
f 2 73 57
f 2 57 72
f 2 72 55
f 2 55 54
f 2 54 50
f 2 50 48
f 2 48 29
f 2 29 19
f 2 19 11
f 2 11 5
f 3 8 15
f 3 15 9
f 5 11 18
f 5 18 10
f 6 12 7
f 7 12 13
f 8 14 23
f 8 23 15
f 9 15 24
f 9 24 16
f 10 18 17
f 11 19 18
f 12 20 21
f 12 21 13
f 14 22 36
f 14 36 23
f 15 23 37
f 15 37 24
f 16 24 25
f 17 18 27
f 17 27 28
f 17 28 26
f 18 19 29
f 18 29 30
f 18 30 31
f 18 31 27
f 20 32 33
f 20 33 34
f 20 34 21
f 22 35 36
f 23 36 37
f 24 37 38
f 24 38 39
f 24 39 40
f 24 40 41
f 24 41 25
f 25 41 42
f 25 42 43
f 25 43 44
f 26 28 46
f 26 46 47
f 26 47 45
f 27 31 28
f 28 31 46
f 29 48 30
f 30 48 31
f 31 49 47
f 31 47 46
f 31 48 50
f 31 50 49
f 32 51 70
f 32 70 69
f 32 69 68
f 32 68 67
f 32 67 66
f 32 66 65
f 32 65 64
f 32 64 63
f 32 63 82
f 32 82 81
f 32 81 80
f 32 80 75
f 32 75 59
f 32 59 71
f 32 71 52
f 32 52 33
f 35 45 47
f 35 47 36
f 36 47 53
f 36 53 37
f 37 53 54
f 37 54 55
f 37 55 38
f 38 55 56
f 38 56 57
f 38 57 58
f 38 58 59
f 38 59 60
f 38 60 39
f 39 60 61
f 39 61 62
f 39 62 40
f 40 62 41
f 41 62 63
f 41 63 64
f 41 64 65
f 41 65 66
f 41 66 67
f 41 67 42
f 42 67 68
f 42 68 69
f 42 69 70
f 42 70 43
f 43 70 51
f 43 51 44
f 47 49 53
f 49 50 54
f 49 54 53
f 55 72 56
f 56 72 57
f 57 73 58
f 58 73 74
f 58 74 59
f 59 74 71
f 59 75 76
f 59 76 60
f 60 76 77
f 60 77 61
f 61 77 78
f 61 78 79
f 61 79 75
f 61 75 80
f 61 80 81
f 61 81 82
f 61 82 62
f 62 82 63
f 75 79 76
f 76 79 78
f 76 78 77

