# https://github.com/mikedh/trimesh
v -1.63222546 2.06477335 0.74806216
v -1.60287136 2.06563622 0.74806216
v -1.63222546 2.13702831 0.74806216
v -1.63222832 2.08031921 0.69119596
v -1.63222546 2.06593327 0.72118182
v -1.60287136 2.13646958 0.74806216
v -1.60287136 2.06712856 0.72486596
v -1.63222546 2.13023851 0.71623057
v -1.63222832 2.11825022 0.67324403
v -1.63222832 2.11877361 0.67862008
v -1.63222832 2.11886555 0.69119596
v -1.63222832 2.08224299 0.67324403
v -1.63222546 2.07046689 0.70398428
v -1.60287136 2.13474383 0.74205620
v -1.60287136 2.07419421 0.71162357
v -1.62940906 2.10584466 0.67324403
v -1.60287136 2.12725382 0.72486596
v -1.60287136 2.12209073 0.71625254
v -1.60287136 2.11919091 0.71153565
v -1.60287136 2.10583760 0.70629144
v -1.63015048 2.08918839 0.67324403
v -1.60287136 2.07949168 0.70974854
v -1.60287136 2.08918839 0.70637933
f 1 2 6
f 1 6 3
f 1 3 11
f 1 11 4
f 1 4 5
f 1 5 2
f 2 5 7
f 2 7 15
f 2 15 22
f 2 22 23
f 2 23 20
f 2 20 19
f 2 19 18
f 2 18 17
f 2 17 14
f 2 14 6
f 3 8 9
f 3 9 10
f 3 10 11
f 3 6 8
f 4 11 10
f 4 10 9
f 4 9 12
f 4 12 5
f 5 12 13
f 5 13 7
f 6 14 9
f 6 9 8
f 7 13 12
f 7 12 15
f 9 16 21
f 9 21 12
f 9 14 17
f 9 17 18
f 9 18 19
f 9 19 20
f 9 20 16
f 12 21 15
f 15 21 22
f 16 20 23
f 16 23 21
f 21 23 22

