# https://github.com/mikedh/trimesh
v 1.27535929 2.05171616 1.15733372
v 1.27535929 2.05171616 1.22332441
v 1.27535929 2.03883826 1.16296079
v 1.05935652 2.02943663 1.16445463
v 1.05195210 2.02943663 1.16444793
v 1.03525107 2.02943663 1.16448143
v 0.85511850 2.02943663 1.16498384
v 1.02566648 2.05171616 1.15823137
v 1.27535929 2.05171181 1.22576281
v 1.25919301 2.05171616 1.22574940
v 1.27535929 2.03883826 1.22267463
v 1.05935652 2.02943663 1.22219899
v 0.85511850 2.02943663 1.22171668
v 0.85511850 2.05171616 1.15897495
v 1.25898733 2.05171616 1.22574940
v 1.00900658 2.02943663 1.22222580
v 1.02566648 2.02943663 1.22223249
v 1.04232638 2.02943663 1.22221910
v 1.04940169 2.02943663 1.22221241
v 0.97568678 2.02943663 1.22217220
v 0.85511850 2.05171616 1.22509962
v 0.97568678 2.05171616 1.22543457
v 0.99234668 2.02943663 1.22220570
f 1 2 9
f 1 9 11
f 1 11 3
f 1 3 4
f 1 4 5
f 1 5 6
f 1 6 7
f 1 7 8
f 1 8 14
f 1 14 21
f 1 21 22
f 1 22 15
f 1 15 10
f 1 10 2
f 2 10 9
f 3 11 12
f 3 12 4
f 4 12 19
f 4 19 18
f 4 18 17
f 4 17 16
f 4 16 23
f 4 23 20
f 4 20 13
f 4 13 7
f 4 7 6
f 4 6 5
f 7 13 21
f 7 21 14
f 7 14 8
f 9 10 15
f 9 15 16
f 9 16 17
f 9 17 18
f 9 18 19
f 9 19 12
f 9 12 11
f 13 20 21
f 15 22 16
f 16 22 23
f 20 23 22
f 20 22 21

