# https://github.com/mikedh/trimesh
v -3.79170525 2.04481171 0.38154747
v -3.80548441 2.06568527 0.38154747
v -3.74712938 2.04481171 0.38154747
v -3.80481063 2.04481171 0.48687449
v -3.80925884 2.07401950 0.38154747
v -3.74011666 2.05628077 0.38154747
v -3.74011666 2.04481171 0.46518561
v -3.80426733 2.04481171 0.52021160
v -3.80912115 2.07423860 0.71675636
v -3.81229429 2.08902789 0.71675636
v -3.81304770 2.08902789 0.57018450
v -3.81312745 2.08902789 0.55351593
v -3.81314915 2.08902789 0.53688017
v -3.81310564 2.08902789 0.50354303
v -3.81275790 2.08902789 0.38154747
v -3.81164233 2.08415713 0.38154747
v -3.74011666 2.11287613 0.38154747
v -3.74011666 2.04481171 0.57412196
v -3.78975646 2.04481171 0.71675636
v -3.80537575 2.06590435 0.71675636
v -3.80615812 2.06763188 0.71675636
v -3.81306224 2.10568796 0.71675636
v -3.81397504 2.10568796 0.57018450
v -3.81406194 2.10568796 0.55351593
v -3.81409091 2.10568796 0.53688017
v -3.81411988 2.10568796 0.52021160
v -3.81409818 2.10568796 0.50354303
v -3.81339544 2.10037056 0.38154747
v -3.74941143 2.12082275 0.38154747
v -3.74011666 2.12262613 0.48687449
v -3.74011666 2.05729203 0.71675636
v -3.74785382 2.04481171 0.71675636
v -3.80988911 2.12136209 0.71675636
v -3.81040350 2.12127780 0.55351593
v -3.81038168 2.12134522 0.52021160
v -3.81035999 2.12136209 0.50354303
v -3.81039623 2.12131151 0.53688017
v -3.81017163 2.12130311 0.38154747
v -3.81367081 2.10568796 0.38154747
v -3.75981461 2.12632555 0.38154747
v -3.74011666 2.12247444 0.51227107
v -3.76472643 2.12890419 0.38154747
v -3.76472643 2.12921598 0.47020591
v -3.76448735 2.12942666 0.65352736
v -3.76446565 2.12940139 0.67019594
v -3.76503798 2.12943509 0.71675636
v -3.74011666 2.11205874 0.71675636
v -3.80792583 2.12308959 0.71675636
v -3.80215188 2.13026936 0.65352736
v -3.80987456 2.12193510 0.65352736
v -3.80993977 2.12196040 0.63685879
v -3.79805147 2.12962049 0.38154747
v -3.80199977 2.13029466 0.63685879
v -3.74011666 2.12241546 0.52021160
v -3.78138171 2.13042105 0.38154747
v -3.77293453 2.13070757 0.64250247
v -3.77281865 2.13071601 0.65352736
v -3.77279690 2.13072441 0.67019594
v -3.77305767 2.13069070 0.69519879
v -3.77507167 2.13064016 0.71675636
v -3.76169097 2.12766545 0.71675636
v -3.77294901 2.13070757 0.68686451
v -3.75007793 2.12110927 0.71675636
v -3.74011666 2.12204465 0.52893964
v -3.80016691 2.12969634 0.71675636
v -3.79183561 2.13085083 0.71675636
v -3.79203123 2.13087611 0.70353308
v -3.79381343 2.13085924 0.65352736
v -3.78975646 2.13069914 0.46006690
v -3.79366853 2.13084240 0.63685879
v -3.78961878 2.13069914 0.46006690
v -3.78138171 2.13088454 0.65352736
v -3.78138171 2.13089297 0.67019594
v -3.78138171 2.13088454 0.68686451
v -3.78038922 2.13084240 0.70185964
v -3.78306972 2.13085083 0.71675636
v -3.77631050 2.13067387 0.71675636
f 1 2 5
f 1 5 16
f 1 16 15
f 1 15 28
f 1 28 39
f 1 39 38
f 1 38 52
f 1 52 55
f 1 55 42
f 1 42 40
f 1 40 29
f 1 29 17
f 1 17 6
f 1 6 3
f 1 3 7
f 1 7 18
f 1 18 32
f 1 32 19
f 1 19 8
f 1 8 4
f 1 4 2
f 2 4 5
f 3 6 7
f 4 8 9
f 4 9 10
f 4 10 11
f 4 11 12
f 4 12 13
f 4 13 14
f 4 14 15
f 4 15 16
f 4 16 5
f 6 17 30
f 6 30 41
f 6 41 54
f 6 54 64
f 6 64 47
f 6 47 31
f 6 31 18
f 6 18 7
f 8 19 20
f 8 20 21
f 8 21 9
f 9 21 20
f 9 20 19
f 9 19 32
f 9 32 31
f 9 31 47
f 9 47 63
f 9 63 61
f 9 61 46
f 9 46 60
f 9 60 77
f 9 77 76
f 9 76 66
f 9 66 65
f 9 65 48
f 9 48 33
f 9 33 22
f 9 22 10
f 10 22 23
f 10 23 24
f 10 24 11
f 11 24 12
f 12 24 25
f 12 25 26
f 12 26 13
f 13 26 27
f 13 27 14
f 14 27 15
f 15 27 28
f 17 29 30
f 18 31 32
f 22 33 23
f 23 33 24
f 24 34 25
f 24 33 34
f 25 34 26
f 26 35 36
f 26 36 27
f 26 34 37
f 26 37 35
f 27 36 38
f 27 38 39
f 27 39 28
f 29 40 30
f 30 40 42
f 30 42 43
f 30 43 44
f 30 44 45
f 30 45 46
f 30 46 41
f 33 48 49
f 33 49 50
f 33 50 51
f 33 51 34
f 34 51 37
f 35 37 51
f 35 51 36
f 36 51 49
f 36 49 38
f 38 49 53
f 38 53 52
f 41 46 54
f 42 55 56
f 42 56 43
f 43 56 57
f 43 57 44
f 44 57 58
f 44 58 46
f 44 46 45
f 46 59 60
f 46 61 54
f 46 58 62
f 46 62 59
f 47 64 63
f 48 65 49
f 49 51 50
f 49 65 66
f 49 66 67
f 49 67 68
f 49 68 53
f 52 69 55
f 52 53 69
f 53 68 70
f 53 70 69
f 54 61 63
f 54 63 64
f 55 69 71
f 55 71 72
f 55 72 56
f 56 72 57
f 57 72 58
f 58 72 73
f 58 73 74
f 58 74 62
f 59 75 76
f 59 76 77
f 59 77 60
f 59 62 75
f 62 74 75
f 66 76 67
f 67 73 68
f 67 76 74
f 67 74 73
f 68 73 72
f 68 72 69
f 68 69 70
f 69 72 71
f 74 76 75

