# https://github.com/mikedh/trimesh
v -0.36407337000000006 -0.67805044 0.69229076
v -0.36424162000000004 -0.71138141 0.70896815
v -0.36425288999999994 -0.71138141 0.69229076
v -0.36432017000000005 -0.71138141 0.64229242
v -0.36437622999999997 -0.71138141 0.62557007
v -0.36438744 -0.69470582 0.62560383
v -0.3641631300000001 -0.67805044 0.67563589
v -0.36738227 -0.6651266 0.67563589
v -0.36732615 -0.66504571 0.69229076
v -0.36411828 -0.67805044 0.70896815
v -0.36429774000000004 -0.71138141 0.74044481
v -0.3648137 -0.72805701 0.70896815
v -0.3648137 -0.72805701 0.69229076
v -0.36486975999999993 -0.72805701 0.65895854
v -0.36491461000000003 -0.72805701 0.64229242
v -0.3650043700000001 -0.72805701 0.62557007
v -0.36439865000000005 -0.69470582 0.62557007
v -0.36452204999999993 -0.67805044 0.62557007
v -0.36437622999999997 -0.67805044 0.64229242
v -0.36746075999999994 -0.66526817 0.65895854
v -0.39252956000000006 -0.64092726 0.67563589
v -0.39249592 -0.64092726 0.6885347
v -0.39250713000000004 -0.64092726 0.69229076
v -0.36737105999999997 -0.66509627 0.70896815
v -0.36748318 -0.66522773 0.74044481
v -0.3642641 -0.67805044 0.74044481
v -0.3642641 -0.69470582 0.74044481
v -0.3648137 -0.72618621 0.74044481
v -0.3648473400000001 -0.72805701 0.7256455
v -0.3680216300000001 -0.73920105 0.70896815
v -0.3680216300000001 -0.73922127 0.69229076
v -0.36769633999999995 -0.7379167600000001 0.74044481
v -0.36805526 -0.73917072 0.74044481
v -0.3680216300000001 -0.73921116 0.67563589
v -0.36804404999999996 -0.73917072 0.65895854
v -0.36808890000000005 -0.73912015 0.64229242
v -0.36814495999999997 -0.73903924 0.62557007
v -0.36766264000000004 -0.66558167 0.62557007
v -0.36753930999999995 -0.6654299800000001 0.64229242
v -0.39471678999999993 -0.64092726 0.65895854
v -0.39268659000000006 -0.64092726 0.70896815
v -0.37899127999999993 -0.65932199 0.74044481
v -0.3984181900000001 -0.64092726 0.72318271
v -0.36488096999999997 -0.72805701 0.74044481
v -0.37899127999999993 -0.74317528 0.69229076
v -0.37899127999999993 -0.74308427 0.74044481
v -0.37899127999999993 -0.74314495 0.70896815
v -0.37899127999999993 -0.7431651699999999 0.67563589
v -0.37899127999999993 -0.74311459 0.65895854
v -0.37899127999999993 -0.74305394 0.64229242
v -0.37899127999999993 -0.74296293 0.62557007
v -0.37899127999999993 -0.65976694 0.62557007
v -0.40042595000000003 -0.64092726 0.64769035
v -0.4092308600000001 -0.64092726 0.72792837
v -0.4123378200000001 -0.64092726 0.72928911
v -0.39559166 -0.6575725299999999 0.74044481
v -0.3956589400000001 -0.7442371 0.69229076
v -0.3956589400000001 -0.7442371 0.67563589
v -0.3956589400000001 -0.74409552 0.74044481
v -0.3956589400000001 -0.74419667 0.70896815
v -0.3956589400000001 -0.74414609 0.62557007
v -0.3956589400000001 -0.65800736 0.62557007
v -0.4123378200000001 -0.64092726 0.64485643
v -0.42524801999999995 -0.64092726 0.72925536
v -0.4123378200000001 -0.65762309 0.74044481
v -0.4123378200000001 -0.74403486 0.69229076
v -0.4123378200000001 -0.74405508 0.67563589
v -0.4123378200000001 -0.74405508 0.62557007
v -0.3975320900000001 -0.7440753 0.74044481
v -0.4123378200000001 -0.65893772 0.62557007
v -0.41608413 -0.64092726 0.64503637
v -0.42899427 -0.64092726 0.72922163
v -0.42681831000000003 -0.66352882 0.74044481
v -0.4786495500000001 -0.64092726 0.72877181
v -0.4123378200000001 -0.7438730499999999 0.74044481
v -0.42899427 -0.74361012 0.74044481
v -0.42899427 -0.7438629400000001 0.62560383
v -0.42899427 -0.7438629400000001 0.62557007
v -0.42501243 -0.66484345 0.62557007
v -0.4786495500000001 -0.64470936 0.6534594
v -0.4786495500000001 -0.64092726 0.65625959
v -0.43157405000000004 -0.64092726 0.64712808
v -0.42899427 -0.64092726 0.64676821
v -0.4549828600000001 -0.68226738 0.74044481
v -0.4786495500000001 -0.67804033 0.73040244
v -0.4616341800000001 -0.6943417700000001 0.74044481
v -0.45814587000000007 -0.68601913 0.74044481
v -0.4444842499999999 -0.73991904 0.74044481
v -0.44367665 -0.74005052 0.62557007
v -0.44265595 -0.6829247 0.62557007
v -0.4786495500000001 -0.65484213 0.65072669
v -0.45070937999999994 -0.69472605 0.62557007
v -0.4786495500000001 -0.69470582 0.73051489
v -0.4589759 -0.7114421 0.74044481
v -0.45281806 -0.73235485 0.74044481
v -0.4786495500000001 -0.71399045 0.70896815
v -0.4524927700000001 -0.73388185 0.7256455
v -0.4786495500000001 -0.71395002 0.67563589
v -0.4786495500000001 -0.71016792 0.65895854
v -0.4786495500000001 -0.70472736 0.64950091
v -0.45157304 -0.7280772600000001 0.62557007
v -0.4786495500000001 -0.65502416 0.65070421
v -0.45328915999999997 -0.71140165 0.62557007
v -0.45330037 -0.7314245100000001 0.74044481
v -0.4786495500000001 -0.70857013 0.72374497
v -0.4786495500000001 -0.71384888 0.70945169
v -0.4786495500000001 -0.69470582 0.64870247
v -0.4786495500000001 -0.66356927 0.65017567
v -0.4786495500000001 -0.67841449 0.64934346
f 1 2 3
f 1 3 4
f 1 4 5
f 1 5 6
f 1 6 7
f 1 7 8
f 1 8 9
f 1 9 10
f 1 10 11
f 1 11 2
f 2 12 13
f 2 13 3
f 2 11 12
f 3 13 4
f 4 14 15
f 4 15 5
f 4 13 14
f 5 15 16
f 5 16 37
f 5 37 51
f 5 51 61
f 5 61 68
f 5 68 78
f 5 78 89
f 5 89 101
f 5 101 103
f 5 103 92
f 5 92 90
f 5 90 79
f 5 79 70
f 5 70 62
f 5 62 52
f 5 52 38
f 5 38 18
f 5 18 17
f 5 17 6
f 6 17 18
f 6 18 19
f 6 19 7
f 7 19 8
f 8 19 20
f 8 20 21
f 8 21 9
f 9 21 22
f 9 22 23
f 9 23 24
f 9 24 10
f 10 24 25
f 10 25 26
f 10 26 27
f 10 27 11
f 11 27 26
f 11 26 25
f 11 25 42
f 11 42 56
f 11 56 65
f 11 65 73
f 11 73 84
f 11 84 87
f 11 87 86
f 11 86 94
f 11 94 104
f 11 104 95
f 11 95 88
f 11 88 76
f 11 76 75
f 11 75 69
f 11 69 59
f 11 59 46
f 11 46 33
f 11 33 32
f 11 32 44
f 11 44 28
f 11 28 29
f 11 29 12
f 12 30 31
f 12 31 13
f 12 29 32
f 12 32 33
f 12 33 30
f 13 31 34
f 13 34 14
f 14 35 15
f 14 34 35
f 15 36 37
f 15 37 16
f 15 35 36
f 18 38 39
f 18 39 19
f 19 39 20
f 20 39 21
f 21 39 38
f 21 38 40
f 21 40 53
f 21 53 63
f 21 63 71
f 21 71 83
f 21 83 82
f 21 82 81
f 21 81 74
f 21 74 72
f 21 72 64
f 21 64 55
f 21 55 54
f 21 54 43
f 21 43 41
f 21 41 23
f 21 23 22
f 23 41 25
f 23 25 24
f 25 41 43
f 25 43 42
f 28 44 29
f 29 44 32
f 30 45 31
f 30 33 45
f 31 45 48
f 31 48 34
f 33 46 47
f 33 47 45
f 34 48 35
f 35 49 50
f 35 50 36
f 35 48 49
f 36 50 51
f 36 51 37
f 38 52 53
f 38 53 40
f 42 43 54
f 42 54 55
f 42 55 56
f 45 57 58
f 45 58 48
f 45 47 57
f 46 59 60
f 46 60 57
f 46 57 47
f 48 58 61
f 48 61 49
f 49 61 50
f 50 61 51
f 52 62 63
f 52 63 53
f 55 64 65
f 55 65 56
f 57 60 66
f 57 66 67
f 57 67 68
f 57 68 58
f 58 68 61
f 59 69 60
f 60 69 66
f 62 70 71
f 62 71 63
f 64 72 65
f 65 72 74
f 65 74 73
f 66 69 75
f 66 75 76
f 66 76 77
f 66 77 67
f 67 77 78
f 67 78 68
f 70 79 80
f 70 80 81
f 70 81 82
f 70 82 83
f 70 83 71
f 73 74 84
f 74 85 86
f 74 86 87
f 74 87 84
f 74 81 80
f 74 80 91
f 74 91 102
f 74 102 108
f 74 108 109
f 74 109 107
f 74 107 100
f 74 100 99
f 74 99 98
f 74 98 96
f 74 96 106
f 74 106 105
f 74 105 93
f 74 93 85
f 76 88 77
f 77 88 78
f 78 88 89
f 79 90 80
f 80 90 92
f 80 92 91
f 85 93 86
f 86 93 94
f 88 95 96
f 88 96 97
f 88 97 89
f 89 98 99
f 89 99 100
f 89 100 101
f 89 97 98
f 91 92 102
f 92 103 102
f 93 104 94
f 93 105 104
f 95 104 105
f 95 105 106
f 95 106 96
f 96 98 97
f 100 107 103
f 100 103 101
f 102 103 108
f 103 107 109
f 103 109 108

