# https://github.com/mikedh/trimesh
v -1.89875396 1.56998405 1.93312187
v -1.89875396 1.59057951 1.93380435
v -1.89875396 1.56998405 1.99889469
v -2.24072636 1.56998405 1.93652801
v -2.24072636 1.61607004 1.93774497
v -1.89875396 1.61607004 1.93482813
v -2.24072636 1.56998405 1.99774217
v -1.89875396 1.61607004 1.99851477
v -1.91472271 1.61607004 1.99850833
v -2.24072636 1.61607004 1.99763917
v -2.24072636 1.61024558 1.99765848
v -2.24072636 1.60568886 1.99767136
v -2.24072636 1.59633631 1.99769067
f 1 2 6
f 1 6 8
f 1 8 3
f 1 3 7
f 1 7 4
f 1 4 5
f 1 5 2
f 2 5 6
f 3 8 9
f 3 9 10
f 3 10 11
f 3 11 12
f 3 12 13
f 3 13 7
f 4 7 13
f 4 13 12
f 4 12 11
f 4 11 10
f 4 10 5
f 5 10 9
f 5 9 8
f 5 8 6

