# https://github.com/mikedh/trimesh
v 0.15270783 2.03978048 0.09235841
v 0.15249844 2.03978048 0.09239096
v 0.12456085 2.07465067 0.07861698
v 0.15270783 2.07489079 0.07859523
v 0.15270783 2.03978048 0.17917062
v 0.12456085 2.03978048 0.09793751
v 0.12456085 2.08918908 0.07401475
v 0.15270783 2.08918908 0.07361313
v 0.15270783 2.06599564 0.18171051
v 0.13643294 2.03978048 0.17926831
v 0.12456085 2.03978048 0.17930086
v 0.12456085 2.10584871 0.07415583
v 0.15270783 2.10604884 0.07082361
v 0.15270783 2.13098325 0.18171051
v 0.13660651 2.06607569 0.18171051
v 0.12498792 2.03978048 0.17930086
v 0.12456085 2.06613574 0.18171051
v 0.15270783 2.12014700 0.07485053
v 0.12456085 2.11883623 0.07875807
v 0.15270783 2.13539582 0.17426452
v 0.12456085 2.13539582 0.17353728
v 0.12480607 2.13008273 0.18171051
v 0.12456085 2.13007272 0.18171051
v 0.15270783 2.12053721 0.07525215
v 0.12456085 2.12717105 0.08747401
v 0.15270783 2.14094902 0.15820022
v 0.12456085 2.14096905 0.15820022
v 0.12456085 2.13268423 0.09341128
v 0.12456085 2.13488551 0.09581009
v 0.15270783 2.13483550 0.09528908
v 0.15270783 2.14194961 0.14191890
v 0.12456085 2.14125921 0.15340266
v 0.12456085 2.13884782 0.10461287
v 0.13643294 2.13492553 0.09569070
v 0.15270783 2.13496556 0.09558215
v 0.15270783 2.14196961 0.14152812
v 0.12456085 2.14196961 0.14152812
v 0.12456085 2.14043874 0.10820563
v 0.13643294 2.14046875 0.10820563
v 0.15270783 2.14041871 0.10820563
v 0.15270783 2.14198964 0.12526850
v 0.12456085 2.14196961 0.13674141
v 0.12456085 2.14153938 0.12008017
v 0.15270783 2.14198964 0.12487773
v 0.12456085 2.14195963 0.12487773
f 1 2 3
f 1 3 4
f 1 4 8
f 1 8 13
f 1 13 18
f 1 18 24
f 1 24 30
f 1 30 35
f 1 35 40
f 1 40 44
f 1 44 41
f 1 41 36
f 1 36 31
f 1 31 26
f 1 26 20
f 1 20 14
f 1 14 9
f 1 9 5
f 1 5 10
f 1 10 16
f 1 16 11
f 1 11 6
f 1 6 2
f 2 6 3
f 3 7 8
f 3 8 4
f 3 6 11
f 3 11 17
f 3 17 23
f 3 23 21
f 3 21 27
f 3 27 32
f 3 32 37
f 3 37 42
f 3 42 45
f 3 45 43
f 3 43 38
f 3 38 33
f 3 33 29
f 3 29 28
f 3 28 25
f 3 25 19
f 3 19 12
f 3 12 7
f 5 9 10
f 7 12 13
f 7 13 8
f 9 14 22
f 9 22 23
f 9 23 17
f 9 17 15
f 9 15 11
f 9 11 16
f 9 16 10
f 11 15 17
f 12 18 13
f 12 19 18
f 14 20 21
f 14 21 22
f 18 19 24
f 19 25 24
f 20 26 27
f 20 27 21
f 21 23 22
f 24 25 28
f 24 28 29
f 24 29 30
f 26 31 27
f 27 31 32
f 29 33 34
f 29 34 30
f 30 34 33
f 30 33 35
f 31 36 37
f 31 37 32
f 33 38 35
f 35 38 39
f 35 39 40
f 36 41 37
f 37 41 44
f 37 44 42
f 38 43 39
f 39 43 44
f 39 44 40
f 42 44 45
f 43 45 44

