# https://github.com/mikedh/trimesh
v -2.28874955 1.58334271 0.17973758
v -2.28874955 1.57235282 0.17980911
v -2.28874955 1.58334271 0.13140790
v -2.54804611 1.58334271 0.17989089
v -2.54804611 1.57235282 0.17996754
v -2.28874955 1.56497659 0.17983468
v -2.54804611 1.55568433 0.18003400
v -2.28874955 1.55100842 0.12783571
v -2.33141535 1.58334271 0.13134150
v -2.61470174 1.58334271 0.17989089
v -2.56471001 1.57235282 0.17996754
v -2.58137392 1.55568433 0.18004419
v -2.28874955 1.55568433 0.17986532
v -2.48139050 1.50569874 0.17997267
v -2.58137392 1.53901585 0.18003907
v -2.58137392 1.50569874 0.18002887
v -2.28874955 1.48304387 0.12783571
v -2.31475145 1.55124669 0.12783571
v -2.34807924 1.58334271 0.13131593
v -2.62037674 1.58334271 0.17988576
v -2.63136563 1.57235282 0.17995222
v -2.61470174 1.57235282 0.17996241
v -2.63136563 1.55568433 0.18002887
v -2.59803783 1.53901585 0.18003907
v -2.28874955 1.54830811 0.17985000
v -2.48139050 1.49547327 0.17926742
v -2.29808753 1.49613840 0.17904253
v -2.28874955 1.49616820 0.17902721
v -2.29808753 1.50569874 0.17958428
v -2.28874955 1.51499100 0.17964555
v -2.28874955 1.53901585 0.17982443
v -2.59803783 1.50569874 0.18002375
v -2.58137392 1.49538392 0.17930318
v -2.28874955 1.48302402 0.13686589
v -2.36474316 1.48229929 0.13686589
v -2.36474316 1.48239856 0.12783571
v -2.56569025 1.55163387 0.12783571
v -2.36474316 1.58334271 0.13132106
v -2.63136563 1.58334271 0.17987557
v -2.81575201 1.57235282 0.17942072
v -2.81575201 1.57126079 0.17942585
v -2.63136563 1.53901585 0.18001862
v -2.61470174 1.53901585 0.18003400
v -2.81575201 1.55568433 0.17949225
v -2.81575201 1.55459229 0.17949225
v -2.48139050 1.48789847 0.17019635
v -2.59803783 1.48770985 0.17019635
v -2.28874955 1.48903022 0.17019635
v -2.28874955 1.50569874 0.17956384
v -2.43139879 1.48816652 0.17019635
v -2.61470174 1.50569874 0.17998286
v -2.81575201 1.49627740 0.17896588
v -2.66469345 1.49556262 0.17921121
v -2.59803783 1.49537400 0.17929293
v -2.63136563 1.52236722 0.17998799
v -2.28874955 1.48306372 0.15353625
v -2.37377161 1.48232909 0.12783571
v -2.36474316 1.48248791 0.15353625
v -2.48139050 1.48212059 0.15353625
v -2.48139050 1.48199154 0.13686589
v -2.46472658 1.48205112 0.12783571
v -2.81575201 1.54324501 0.12783571
v -2.59803783 1.58334271 0.13185763
v -2.59236281 1.58334271 0.13183718
v -2.58137392 1.58334271 0.13180142
v -2.39807095 1.58334271 0.13137214
v -2.81575201 1.58334271 0.17933382
v -2.81575201 1.53792380 0.17947181
v -2.49805440 1.48208089 0.15353625
v -2.64802955 1.48781905 0.17019635
v -2.64802955 1.48193197 0.15353625
v -2.63136563 1.48194189 0.15353625
v -2.66469345 1.50569874 0.17984487
v -2.81575201 1.50507327 0.17936958
v -2.81575201 1.49579093 0.17839349
v -2.66469345 1.48789847 0.17019635
v -2.81575201 1.50569874 0.17939515
v -2.48139050 1.48201139 0.12783571
v -2.81575201 1.48244821 0.12783571
v -2.81575201 1.58334271 0.13418801
v -2.64802955 1.58334271 0.13222563
v -2.63136563 1.58334271 0.13205182
v -2.61470174 1.58334271 0.13194966
v -2.81575201 1.48246806 0.15353625
v -2.79800469 1.48240851 0.15353625
v -2.81575201 1.48245813 0.15244261
v -2.81575201 1.48236878 0.13686589
v -2.64802955 1.48198162 0.13686589
v -2.59803783 1.48200147 0.12783571
v -2.81575201 1.48890118 0.17019635
v -2.64802955 1.48204117 0.12783571
v -2.61470174 1.48201139 0.12783571
f 1 2 6
f 1 6 13
f 1 13 25
f 1 25 31
f 1 31 30
f 1 30 49
f 1 49 28
f 1 28 48
f 1 48 56
f 1 56 34
f 1 34 17
f 1 17 8
f 1 8 3
f 1 3 9
f 1 9 19
f 1 19 38
f 1 38 66
f 1 66 65
f 1 65 64
f 1 64 63
f 1 63 83
f 1 83 82
f 1 82 81
f 1 81 80
f 1 80 67
f 1 67 39
f 1 39 20
f 1 20 10
f 1 10 4
f 1 4 5
f 1 5 2
f 2 5 7
f 2 7 6
f 3 8 9
f 4 10 11
f 4 11 5
f 5 11 12
f 5 12 7
f 6 7 13
f 7 14 13
f 7 12 15
f 7 15 16
f 7 16 14
f 8 17 36
f 8 36 57
f 8 57 61
f 8 61 78
f 8 78 89
f 8 89 92
f 8 92 91
f 8 91 79
f 8 79 62
f 8 62 37
f 8 37 18
f 8 18 19
f 8 19 9
f 10 20 21
f 10 21 22
f 10 22 11
f 11 22 12
f 12 22 23
f 12 23 43
f 12 43 24
f 12 24 15
f 13 14 25
f 14 26 27
f 14 27 28
f 14 28 29
f 14 29 30
f 14 30 31
f 14 31 25
f 14 16 26
f 15 24 16
f 16 24 43
f 16 43 32
f 16 32 33
f 16 33 26
f 17 34 35
f 17 35 36
f 18 37 19
f 19 37 38
f 20 39 21
f 21 23 22
f 21 39 40
f 21 40 41
f 21 41 23
f 23 42 43
f 23 41 44
f 23 44 45
f 23 45 42
f 26 46 28
f 26 28 27
f 26 33 47
f 26 47 46
f 28 49 29
f 28 46 50
f 28 50 48
f 29 49 30
f 32 51 52
f 32 52 53
f 32 53 54
f 32 54 33
f 32 43 42
f 32 42 55
f 32 55 51
f 33 54 47
f 34 56 35
f 35 57 36
f 35 56 58
f 35 58 59
f 35 59 60
f 35 60 61
f 35 61 57
f 37 62 63
f 37 63 64
f 37 64 65
f 37 65 66
f 37 66 38
f 39 67 40
f 40 67 80
f 40 80 62
f 40 62 79
f 40 79 87
f 40 87 86
f 40 86 84
f 40 84 90
f 40 90 75
f 40 75 52
f 40 52 74
f 40 74 77
f 40 77 68
f 40 68 45
f 40 45 44
f 40 44 41
f 42 45 68
f 42 68 55
f 46 69 59
f 46 59 58
f 46 58 50
f 46 47 69
f 47 54 70
f 47 70 71
f 47 71 72
f 47 72 69
f 48 58 56
f 48 50 58
f 51 55 73
f 51 73 52
f 52 75 76
f 52 76 53
f 52 73 74
f 53 76 70
f 53 70 54
f 55 68 77
f 55 77 73
f 59 69 60
f 60 78 61
f 60 69 72
f 60 72 71
f 60 71 78
f 62 80 81
f 62 81 82
f 62 82 83
f 62 83 63
f 70 76 84
f 70 84 85
f 70 85 71
f 71 85 86
f 71 86 87
f 71 87 88
f 71 88 89
f 71 89 78
f 73 77 74
f 75 90 76
f 76 90 84
f 79 91 87
f 84 86 85
f 87 91 88
f 88 91 92
f 88 92 89

