# https://github.com/mikedh/trimesh
v -2.26470509 2.06210700 1.52088934
v -2.21469079 2.03782131 1.55355736
v -2.23136931 2.03782131 1.55348488
v -2.26348783 2.03782131 1.55368622
v -2.26470509 2.03782131 1.55369427
v -2.26470509 2.06210938 1.60268819
v -2.26397904 2.06210938 1.52092963
v -2.21469079 2.06210938 1.52295931
v -2.04653842 2.03782131 1.55486211
v -2.26470509 2.03782131 1.59969202
v -2.26470509 2.06210938 1.60299426
v -2.19803354 2.06210938 1.52370831
v -2.04653842 2.06210938 1.53127929
v -2.04653842 2.03782131 1.59975645
v -2.26470509 2.03782369 1.59978870
v -2.24924382 2.03782131 1.59975645
v -2.13138339 2.06210938 1.60315538
v -2.04653842 2.06210938 1.60316342
v -2.04805466 2.03782131 1.59976450
v -2.06471185 2.03782131 1.59978065
v -2.05751512 2.06210938 1.60317147
v -2.12414393 2.06210938 1.60316342
f 1 2 3
f 1 3 4
f 1 4 5
f 1 5 10
f 1 10 15
f 1 15 11
f 1 11 6
f 1 6 7
f 1 7 8
f 1 8 9
f 1 9 2
f 2 9 14
f 2 14 19
f 2 19 20
f 2 20 16
f 2 16 10
f 2 10 5
f 2 5 4
f 2 4 3
f 6 11 17
f 6 17 22
f 6 22 21
f 6 21 18
f 6 18 13
f 6 13 12
f 6 12 8
f 6 8 7
f 8 12 9
f 9 13 18
f 9 18 14
f 9 12 13
f 10 16 15
f 11 15 17
f 14 18 19
f 15 16 20
f 15 20 21
f 15 21 22
f 15 22 17
f 18 21 20
f 18 20 19

