# https://github.com/mikedh/trimesh
v 0.15777552 1.48917855 0.74170271
v 0.15988095 1.50304348 0.74170271
v 0.15923954 1.47661042 0.74170271
v 0.12457724 1.48918833 0.75921269
v 0.12457724 1.50105443 0.75932494
v 0.12457724 1.54696857 0.75981880
v 0.16201422 1.51128250 0.74170271
v 0.15929533 1.47642517 0.74170271
v 0.12457724 1.47446538 0.76286060
v 0.12457724 1.54696857 0.84029735
v 0.15027421 1.54697832 0.75967289
v 0.17797898 1.54697832 0.74170271
v 0.16430085 1.46809842 0.74170271
v 0.12457724 1.47228130 0.76634014
v 0.17255515 1.46083446 0.74170271
v 0.18645632 1.45263446 0.74170271
v 0.12457724 1.52250507 0.84049938
v 0.15617208 1.48917855 0.85637061
v 0.15777552 1.50680710 0.85637061
v 0.17401917 1.54697832 0.85637061
v 0.15027421 1.54697832 0.84035347
v 0.23711122 1.54697832 0.74170271
v 0.12457724 1.46692840 0.77489309
v 0.20310422 1.44798356 0.74170271
v 0.12457724 1.50584183 0.84062285
v 0.12457724 1.48918833 0.84051060
v 0.15845877 1.47534289 0.85637061
v 0.24772183 1.54697832 0.85637061
v 0.24811224 1.54697832 0.75042403
v 0.24814013 1.54690032 0.74170271
v 0.12457724 1.46659688 0.77967467
v 0.21975217 1.44911460 0.74170271
v 0.20470771 1.44766181 0.79155001
v 0.20310422 1.44784707 0.75822494
v 0.20164026 1.44767156 0.77588084
v 0.19511492 1.44750580 0.78209913
v 0.19476635 1.44750580 0.78209913
v 0.12457724 1.46578762 0.79155001
v 0.12457724 1.47553792 0.83678412
v 0.16251615 1.46792291 0.85637061
v 0.26434189 1.50274123 0.85637061
v 0.24791703 1.54697832 0.82487510
v 0.24797282 1.54697832 0.80819572
v 0.26441162 1.50285823 0.74170271
v 0.21975217 1.44903661 0.75822494
v 0.20621352 1.44765207 0.80819572
v 0.23641407 1.45215670 0.74170271
v 0.19847516 1.44739854 0.82487510
v 0.19788954 1.44743755 0.80819572
v 0.19638374 1.44748631 0.79155001
v 0.19462688 1.44743755 0.80819572
v 0.12457724 1.46579736 0.80819572
v 0.19454325 1.44739854 0.82487510
v 0.19448746 1.44737905 0.84153203
v 0.19448746 1.44736930 0.85637061
v 0.12457724 1.47019473 0.82833220
v 0.18456004 1.45288796 0.85637061
v 0.17194163 1.46029819 0.85637061
v 0.26654489 1.49068987 0.85637061
v 0.26700504 1.48917855 0.74170271
v 0.21975217 1.44896836 0.77488187
v 0.21975217 1.44891960 0.79155001
v 0.20682704 1.44766181 0.82487510
v 0.19862853 1.44737905 0.84153203
v 0.25083113 1.45917690 0.74170271
v 0.23641407 1.45209819 0.77488187
v 0.12457724 1.46639213 0.81298852
v 0.18706978 1.45145467 0.85637061
v 0.12457724 1.46801068 0.82486387
v 0.19827996 1.44736930 0.85637061
v 0.18614953 1.45197144 0.85637061
v 0.26680978 1.48917855 0.85637061
v 0.26421648 1.47706870 0.85637061
v 0.26389568 1.47557690 0.85637061
v 0.26400726 1.47548916 0.74170271
v 0.20696645 1.44767156 0.84153203
v 0.23641407 1.45207870 0.79155001
v 0.21975217 1.44891960 0.80819572
v 0.25908537 1.46706490 0.74170271
v 0.25077534 1.45914766 0.79155001
v 0.20660393 1.44772032 0.85637061
v 0.25911326 1.46725015 0.85637061
v 0.25921090 1.46723066 0.74170271
v 0.21975217 1.44893909 0.82487510
v 0.21975217 1.44899759 0.84153203
v 0.23641407 1.45209819 0.80819572
v 0.25074750 1.45915741 0.80819572
v 0.21975217 1.44910485 0.85637061
v 0.25078929 1.45933292 0.85637061
v 0.23641407 1.45215670 0.82487510
v 0.23641407 1.45238096 0.85637061
v 0.24919979 1.45856264 0.85637061
f 1 2 7
f 1 7 12
f 1 12 22
f 1 22 30
f 1 30 44
f 1 44 60
f 1 60 75
f 1 75 83
f 1 83 79
f 1 79 65
f 1 65 47
f 1 47 32
f 1 32 24
f 1 24 16
f 1 16 15
f 1 15 13
f 1 13 8
f 1 8 3
f 1 3 4
f 1 4 5
f 1 5 6
f 1 6 2
f 2 6 7
f 3 8 4
f 4 9 14
f 4 14 23
f 4 23 31
f 4 31 38
f 4 38 52
f 4 52 67
f 4 67 69
f 4 69 56
f 4 56 39
f 4 39 26
f 4 26 25
f 4 25 17
f 4 17 10
f 4 10 6
f 4 6 5
f 4 8 9
f 6 10 21
f 6 21 11
f 6 11 12
f 6 12 7
f 8 13 9
f 9 13 15
f 9 15 16
f 9 16 14
f 10 17 18
f 10 18 19
f 10 19 20
f 10 20 21
f 11 21 20
f 11 20 28
f 11 28 42
f 11 42 43
f 11 43 29
f 11 29 22
f 11 22 12
f 14 16 23
f 16 24 23
f 17 25 18
f 18 25 26
f 18 26 27
f 18 27 40
f 18 40 58
f 18 58 57
f 18 57 71
f 18 71 68
f 18 68 55
f 18 55 70
f 18 70 81
f 18 81 88
f 18 88 91
f 18 91 92
f 18 92 89
f 18 89 82
f 18 82 74
f 18 74 73
f 18 73 72
f 18 72 59
f 18 59 41
f 18 41 28
f 18 28 20
f 18 20 19
f 22 29 30
f 23 24 31
f 24 32 33
f 24 33 34
f 24 34 35
f 24 35 36
f 24 36 37
f 24 37 38
f 24 38 31
f 26 39 27
f 27 39 40
f 28 41 42
f 29 43 41
f 29 41 44
f 29 44 30
f 32 45 46
f 32 46 33
f 32 47 45
f 33 48 49
f 33 49 35
f 33 35 34
f 33 46 48
f 35 49 50
f 35 50 36
f 36 50 49
f 36 49 51
f 36 51 37
f 37 51 38
f 38 51 53
f 38 53 54
f 38 54 55
f 38 55 52
f 39 56 57
f 39 57 58
f 39 58 40
f 41 59 60
f 41 60 44
f 41 43 42
f 45 47 61
f 45 61 46
f 46 61 62
f 46 62 63
f 46 63 64
f 46 64 48
f 47 65 66
f 47 66 62
f 47 62 61
f 48 64 54
f 48 54 53
f 48 53 51
f 48 51 49
f 52 55 67
f 54 64 70
f 54 70 55
f 55 68 69
f 55 69 67
f 56 69 57
f 57 69 71
f 59 72 60
f 60 72 73
f 60 73 74
f 60 74 75
f 62 76 63
f 62 66 77
f 62 77 78
f 62 78 76
f 63 76 70
f 63 70 64
f 65 79 80
f 65 80 77
f 65 77 66
f 68 71 69
f 70 76 81
f 74 82 75
f 75 82 83
f 76 78 84
f 76 84 85
f 76 85 81
f 77 86 84
f 77 84 78
f 77 80 86
f 79 82 80
f 79 83 82
f 80 82 87
f 80 87 86
f 81 85 88
f 82 89 87
f 84 86 90
f 84 90 85
f 85 90 91
f 85 91 88
f 86 87 89
f 86 89 90
f 89 92 90
f 90 92 91

