# https://github.com/mikedh/trimesh
v -1.99806402 2.05159155 1.16024367
v -1.98139068 2.05159155 1.16028778
v -1.98702027 2.02799153 1.16552516
v -1.99806402 2.02799153 1.16549995
v -2.26422318 2.02799153 1.16536761
v -2.26422318 2.05152688 1.16051466
v -2.25308704 2.05159155 1.16052727
v -1.97034681 2.02799153 1.16557559
v -1.96471728 2.05159155 1.16036970
v -1.95493471 2.02799153 1.16564491
v -1.96471728 2.02799153 1.16560080
v -2.26422318 2.02799153 1.22104398
v -2.26422318 2.05159155 1.22194524
v -1.94998188 2.05159155 1.16064702
v -1.94998188 2.02799153 1.16568903
v -1.95367347 2.02799153 1.16565121
v -2.26422318 2.05159155 1.22462382
v -1.96471728 2.02799153 1.22104398
v -1.94998188 2.05159155 1.22455448
v -1.94998188 2.02799153 1.22103139
v -2.23136854 2.05159155 1.22461750
v -1.96471728 2.05159155 1.22456078
f 1 2 3
f 1 3 4
f 1 4 5
f 1 5 6
f 1 6 7
f 1 7 13
f 1 13 17
f 1 17 21
f 1 21 22
f 1 22 19
f 1 19 14
f 1 14 9
f 1 9 2
f 2 8 3
f 2 9 10
f 2 10 11
f 2 11 8
f 3 8 11
f 3 11 10
f 3 10 16
f 3 16 15
f 3 15 20
f 3 20 18
f 3 18 12
f 3 12 5
f 3 5 4
f 5 12 17
f 5 17 13
f 5 13 6
f 6 13 7
f 9 14 15
f 9 15 16
f 9 16 10
f 12 18 17
f 14 19 20
f 14 20 15
f 17 18 21
f 18 20 19
f 18 19 22
f 18 22 21

