# https://github.com/mikedh/trimesh
v 0.38359573 2.04480330 0.46517255
v 0.38359573 2.05627649 0.38154746
v 0.38811100 2.04480330 0.47165014
v 0.38359573 2.04480330 0.57412458
v 0.38359573 2.11287286 0.38154746
v 0.40296084 2.06314818 0.38154746
v 0.40296084 2.04480330 0.51214502
v 0.40296084 2.04480330 0.57096625
v 0.38359573 2.05603270 0.58705960
v 0.40296084 2.11126540 0.38154746
v 0.38359573 2.12263192 0.48685833
v 0.40296084 2.06146455 0.58705960
v 0.38359573 2.11274337 0.58705960
v 0.40296084 2.12051403 0.48685833
v 0.38359573 2.12247954 0.51224561
v 0.40296084 2.12049880 0.50351498
v 0.40296084 2.11097590 0.58705960
v 0.38359573 2.11970650 0.54650434
v 0.38359573 2.12241862 0.52019172
v 0.40296084 2.12037691 0.52019172
v 0.40296084 2.11882276 0.53686845
v 0.38359573 2.12134442 0.53686845
v 0.38359573 2.12204531 0.52892235
v 0.40296084 2.11984362 0.52622673
f 1 2 3
f 1 3 7
f 1 7 8
f 1 8 4
f 1 4 9
f 1 9 13
f 1 13 18
f 1 18 22
f 1 22 23
f 1 23 19
f 1 19 15
f 1 15 11
f 1 11 5
f 1 5 2
f 2 5 10
f 2 10 6
f 2 6 3
f 3 6 7
f 4 8 9
f 5 11 10
f 6 10 14
f 6 14 16
f 6 16 20
f 6 20 24
f 6 24 21
f 6 21 17
f 6 17 12
f 6 12 8
f 6 8 7
f 8 12 9
f 9 12 17
f 9 17 13
f 10 11 14
f 11 15 16
f 11 16 14
f 13 17 18
f 15 19 20
f 15 20 16
f 17 21 22
f 17 22 18
f 19 23 20
f 20 23 22
f 20 22 24
f 21 24 22

