# https://github.com/mikedh/trimesh
v 0.45209733 2.10950833 1.02048438
v 0.44204397 2.10945680 1.02048438
v 0.45209733 2.07774676 1.02048438
v 0.45209733 2.10952237 1.00353697
v 0.42566031 2.10933032 1.02048438
v 0.44232293 2.10948491 0.98686465
v 0.42566031 2.10937249 0.98686465
v 0.42566031 2.10935374 1.00353697
v 0.44254424 2.06369506 1.02048438
v 0.45209733 2.06386368 1.02039596
v 0.45209733 2.10951769 0.98686465
v 0.40296084 2.10915234 1.02048438
v 0.45209733 2.10950833 0.97708918
v 0.44232293 2.10946616 0.97021198
v 0.40296084 2.10916638 0.99289695
v 0.40296084 2.10916638 1.00956927
v 0.42566031 2.10930689 0.93687715
v 0.40296084 2.06216809 1.02048438
v 0.40296084 2.06216342 1.02019947
v 0.45209733 2.06316109 0.92011641
v 0.45209733 2.10949894 0.97021198
v 0.45209733 2.10948491 0.96043651
v 0.44232293 2.10943338 0.95353965
v 0.42566031 2.10927879 0.92011641
v 0.40296084 2.10906803 0.92011641
v 0.40296084 2.06207443 1.00353697
v 0.40296084 2.06167161 0.92011641
v 0.45209733 2.10939591 0.92011641
v 0.45209733 2.10945212 0.94376419
v 0.45209733 2.10943806 0.93687715
v 0.44232293 2.10936310 0.92011641
f 1 2 5
f 1 5 12
f 1 12 18
f 1 18 9
f 1 9 3
f 1 3 10
f 1 10 20
f 1 20 28
f 1 28 30
f 1 30 29
f 1 29 22
f 1 22 21
f 1 21 13
f 1 13 11
f 1 11 4
f 1 4 2
f 2 4 6
f 2 6 7
f 2 7 8
f 2 8 5
f 3 9 10
f 4 11 6
f 5 8 12
f 6 11 13
f 6 13 14
f 6 14 7
f 7 15 16
f 7 16 8
f 7 14 17
f 7 17 15
f 8 16 12
f 9 18 10
f 10 18 19
f 10 19 20
f 12 16 15
f 12 15 25
f 12 25 27
f 12 27 26
f 12 26 19
f 12 19 18
f 13 21 14
f 14 22 29
f 14 29 23
f 14 23 24
f 14 24 17
f 14 21 22
f 15 17 25
f 17 24 25
f 19 26 20
f 20 27 25
f 20 25 24
f 20 24 31
f 20 31 28
f 20 26 27
f 23 29 30
f 23 30 31
f 23 31 24
f 28 31 30

