# https://github.com/mikedh/trimesh
v -1.83053096 1.79160571 0.90994828
v -1.81981515 1.79160571 0.86764875
v -1.87140713 1.79160571 0.90994828
v -1.82750308 1.56112259 0.90994828
v -1.81927107 1.79160571 0.86546140
v -1.89465230 1.79160571 0.89897936
v -1.87140713 1.78901120 0.90994828
v -1.87108384 1.56112259 0.90994828
v -1.81507624 1.56112259 0.85353819
v -1.81509991 1.62237569 0.85353819
v -1.81517870 1.63904827 0.85353819
v -1.81632998 1.79160571 0.85353819
v -1.89465230 1.79160571 0.83529953
v -1.89465230 1.78953010 0.89897936
v -1.89465230 1.56112259 0.89891502
v -1.81418520 1.56112259 0.81477701
v -1.81416154 1.77233862 0.80354003
v -1.81481601 1.79160571 0.82021323
v -1.87079207 1.79160571 0.80055922
v -1.87076054 1.79156059 0.80041983
v -1.87078420 1.78901120 0.80041983
v -1.89465230 1.56112259 0.83238307
v -1.81414581 1.56112259 0.80354003
v -1.81409848 1.57238053 0.80354003
v -1.81515510 1.77233862 0.80041983
v -1.81444544 1.78901120 0.80354003
v -1.81450064 1.79160571 0.80354003
v -1.87043724 1.79160571 0.80041983
v -1.87098132 1.56112259 0.80041983
v -1.81515510 1.56112259 0.80041983
v -1.81511564 1.57238053 0.80041983
v -1.81514717 1.74287396 0.80041983
v -1.81546260 1.78901120 0.80041983
v -1.81554146 1.79160571 0.80041983
f 1 2 5
f 1 5 12
f 1 12 18
f 1 18 27
f 1 27 34
f 1 34 28
f 1 28 19
f 1 19 13
f 1 13 6
f 1 6 3
f 1 3 7
f 1 7 8
f 1 8 4
f 1 4 2
f 2 4 5
f 3 6 14
f 3 14 7
f 4 8 15
f 4 15 22
f 4 22 29
f 4 29 30
f 4 30 23
f 4 23 16
f 4 16 9
f 4 9 10
f 4 10 11
f 4 11 12
f 4 12 5
f 6 13 22
f 6 22 15
f 6 15 14
f 7 14 15
f 7 15 8
f 9 16 10
f 10 16 17
f 10 17 11
f 11 17 18
f 11 18 12
f 13 19 20
f 13 20 21
f 13 21 22
f 16 23 24
f 16 24 17
f 17 25 26
f 17 26 18
f 17 24 25
f 18 26 27
f 19 28 20
f 20 28 34
f 20 34 33
f 20 33 25
f 20 25 32
f 20 32 31
f 20 31 30
f 20 30 29
f 20 29 21
f 21 29 22
f 23 30 24
f 24 30 31
f 24 31 32
f 24 32 25
f 25 33 26
f 26 33 27
f 27 33 34

