# https://github.com/mikedh/trimesh
v -3.815810175 -0.26112183 0.09616442
v -3.815810175 -0.27531077 0.0982153
v -3.8258292549999995 -0.27519237 0.09827799
v -3.8258292549999995 -0.26112183 0.09624505
v -3.8258292549999995 -0.25254399 0.0974272
v -3.8258292549999995 -0.24672896 0.09826009
v -3.815810175 -0.24671581 0.09825115
v -2.2981398950000003 -0.24636059 0.09828699
v -3.799061815 -0.26112183 0.09616442
v -3.799061815 -0.27535024 0.09820636
v -3.8258292549999995 -0.28353339 0.10185134
v -3.799061815 -0.28369126 0.10177971
v -3.815810175 -0.28363864 0.10181555
v -3.8258292549999995 -0.23838794000000002 0.10610537
v -3.815810175 -0.23838137 0.10593522
v -2.8487421049999995 -0.23840767000000002 0.10564858
v -2.2981398950000003 -0.2380985 0.1057919
v -2.2981398950000003 -0.26112841 0.09659431
v -2.3651333349999994 -0.26112841 0.09647789
v -3.2988541849999997 -0.28351366 0.10169019
v -2.3651333349999994 -0.27392937 0.09842131
v -3.8258292549999995 -0.29145341 0.1101892
v -3.8258292549999995 -0.29991941 0.11918973
v -2.2981398950000003 -0.30198494 0.1192972
v -3.0894997349999995 -0.30198494 0.11923452
v -3.8258292549999995 -0.23576985 0.11444317
v -3.815810175 -0.23573696 0.11427302
v -2.2984390049999996 -0.23805904 0.10588148
v -2.2981398950000003 -0.23575013 0.11416554
v -2.2981398950000003 -0.27314658 0.0986452
v -2.2984390049999996 -0.27306765 0.09860041
v -2.348384975 -0.27385044000000003 0.09845715
v -2.3651333349999994 -0.28226382 0.10291713
v -2.348384975 -0.28218488 0.10294397
v -3.8258292549999995 -0.29991941 0.1639775
v -2.3317861349999998 -0.28192833 0.10303355
v -2.3150377749999995 -0.28159285 0.10335591
v -2.2981398950000003 -0.28140866000000003 0.10390222
v -2.2981398950000003 -0.30198494 0.16227594
v -3.0894997349999995 -0.30198494 0.16224009
v -3.8258292549999995 -0.23537518000000002 0.12529754
v -3.815810175 -0.23532254 0.12529754
v -3.432242895 -0.23518441 0.12529754
v -3.4489912249999994 -0.23570408 0.11416554
v -3.432242895 -0.23571066000000002 0.11412075
v -2.8487421049999995 -0.23571723 0.11399539
v -2.2981398950000003 -0.23530939 0.12530654
v -2.748551055 -0.23523046 0.12530654
v -3.8258292549999995 -0.28165206 0.17973969
v -3.815810175 -0.29991941 0.16402229
v -3.2080840749999995 -0.28615148 0.18367125
v -3.815810175 -0.28172442000000003 0.17990985
v -2.2981398950000003 -0.27295582 0.18539077
v -2.4817736449999996 -0.28337552 0.18201441
v -2.498521995 -0.28359260000000003 0.18214878
v -3.0714055350000002 -0.2861712 0.18369815
v -2.398480525 -0.30198494 0.16251772
v -2.8819397549999994 -0.30198494 0.16241025
v -3.8008562450000003 -0.29991941 0.16404919
v -3.8258292549999995 -0.23530939 0.13524744
v -3.8258292549999995 -0.23523703 0.1518962
v -3.815810175 -0.23525677 0.1419553
v -3.432242895 -0.23504627 0.1419553
v -2.2981398950000003 -0.23478315 0.15862195
v -3.8258292549999995 -0.27331103 0.18547134
v -3.1992612749999996 -0.27934315 0.18511314
v -3.2143647149999994 -0.27917211000000003 0.18513103
v -3.0749944649999996 -0.2861712 0.18369815
v -2.2981398950000003 -0.27284399 0.18541761
v -2.498521995 -0.27525158 0.18531013
v -3.0657230549999994 -0.27925762 0.18509524
v -2.4152288849999994 -0.30198494 0.16255357
v -2.4817736449999996 -0.30198494 0.16254462
v -3.8258292549999995 -0.23522388 0.15863096
v -3.815810175 -0.23521731 0.15863096
v -3.432242895 -0.23507916 0.15863096
v -2.948634085 -0.23552647000000002 0.17395424
v -2.2981398950000003 -0.23534886 0.1713571
v -3.1654654950000003 -0.23555936 0.17370351
v -3.6490742449999996 -0.26112183 0.1876297
v -3.665673085 -0.26112183 0.18761181
v -3.8258292549999995 -0.26112183 0.18738792
v -3.1654654950000003 -0.27727105 0.1854445
v -2.2981398950000003 -0.26112841 0.18725354
v -2.865340935 -0.27645536 0.18539971
v -3.115369965 -0.27719869 0.18543556
v -3.8258292549999995 -0.23547385 0.16610002
v -3.8258292549999995 -0.23565145 0.17111526
v -2.9653824550000003 -0.23553962 0.17417814
v -2.2981398950000003 -0.23537518000000002 0.17150036
v -2.7652994149999994 -0.23552647000000002 0.17390945
v -2.9821308149999997 -0.2363882 0.1826951
v -2.7652994149999994 -0.23656581000000002 0.18225626
v -2.9821308149999997 -0.23555936 0.17436619
v -3.398895695 -0.26112183 0.18764759
v -3.232159835 -0.2451568 0.18576692
v -3.6490742449999996 -0.24567647 0.18577587
v -3.665673085 -0.24572909 0.18576692
v -3.8258292549999995 -0.25505683 0.18665355
v -3.232159835 -0.26112183 0.18762076
v -2.2981398950000003 -0.26095079 0.18725354
v -3.8258292549999995 -0.2368684 0.17608571
v -3.1654654950000003 -0.2365987 0.18204131
v -2.2981398950000003 -0.23805904 0.17982921
v -2.998729625 -0.24478185000000002 0.18570418
v -2.7652994149999994 -0.24490683000000002 0.1856684
v -2.5151208350000003 -0.24566331 0.18557882
v -2.2981398950000003 -0.24639348 0.18551613
v -3.8258292549999995 -0.246058 0.18556092
v -3.182064315 -0.24496604 0.18573108
v -3.065274435 -0.24501866 0.18575798
v -3.198812665 -0.24501208000000002 0.18574003
v -3.8258292549999995 -0.23772355 0.17945306
f 1 2 3
f 1 3 4
f 1 4 5
f 1 5 6
f 1 6 7
f 1 7 8
f 1 8 9
f 1 9 10
f 1 10 2
f 2 11 3
f 2 10 12
f 2 12 13
f 2 13 11
f 3 11 22
f 3 22 23
f 3 23 35
f 3 35 49
f 3 49 65
f 3 65 82
f 3 82 99
f 3 99 109
f 3 109 113
f 3 113 102
f 3 102 88
f 3 88 87
f 3 87 74
f 3 74 61
f 3 61 60
f 3 60 41
f 3 41 26
f 3 26 14
f 3 14 6
f 3 6 5
f 3 5 4
f 6 14 15
f 6 15 7
f 7 15 16
f 7 16 17
f 7 17 8
f 8 17 29
f 8 29 47
f 8 47 64
f 8 64 78
f 8 78 90
f 8 90 104
f 8 104 108
f 8 108 101
f 8 101 84
f 8 84 69
f 8 69 53
f 8 53 39
f 8 39 24
f 8 24 38
f 8 38 30
f 8 30 18
f 8 18 19
f 8 19 9
f 9 19 10
f 10 20 12
f 10 19 21
f 10 21 20
f 11 13 22
f 12 23 13
f 12 20 24
f 12 24 25
f 12 25 23
f 13 23 22
f 14 26 27
f 14 27 15
f 15 27 28
f 15 28 17
f 15 17 16
f 17 28 29
f 18 30 31
f 18 31 32
f 18 32 21
f 18 21 19
f 20 21 33
f 20 33 24
f 21 32 34
f 21 34 33
f 23 25 40
f 23 40 35
f 24 33 34
f 24 34 36
f 24 36 37
f 24 37 38
f 24 39 57
f 24 57 72
f 24 72 73
f 24 73 58
f 24 58 40
f 24 40 25
f 26 41 42
f 26 42 27
f 27 42 43
f 27 43 44
f 27 44 45
f 27 45 28
f 28 46 29
f 28 45 46
f 29 46 48
f 29 48 47
f 30 38 37
f 30 37 36
f 30 36 34
f 30 34 32
f 30 32 31
f 35 40 50
f 35 50 51
f 35 51 52
f 35 52 49
f 39 53 54
f 39 54 55
f 39 55 56
f 39 56 57
f 40 58 51
f 40 51 59
f 40 59 50
f 41 60 42
f 42 60 61
f 42 61 62
f 42 62 63
f 42 63 43
f 43 63 64
f 43 64 48
f 43 48 46
f 43 46 44
f 44 46 45
f 47 48 64
f 49 52 65
f 50 59 51
f 51 66 67
f 51 67 65
f 51 65 52
f 51 58 68
f 51 68 66
f 53 69 70
f 53 70 56
f 53 56 55
f 53 55 54
f 56 71 66
f 56 66 68
f 56 68 72
f 56 72 57
f 56 70 71
f 58 73 68
f 61 74 75
f 61 75 63
f 61 63 62
f 63 75 76
f 63 76 64
f 64 77 78
f 64 76 79
f 64 79 77
f 65 80 81
f 65 81 82
f 65 67 80
f 66 83 67
f 66 71 83
f 67 83 80
f 68 73 72
f 69 84 70
f 70 84 85
f 70 85 71
f 71 85 86
f 71 86 83
f 74 87 75
f 75 87 76
f 76 87 88
f 76 88 79
f 77 89 78
f 77 79 89
f 78 89 91
f 78 91 92
f 78 92 93
f 78 93 90
f 79 88 92
f 79 92 94
f 79 94 89
f 80 95 96
f 80 96 97
f 80 97 98
f 80 98 81
f 80 83 95
f 81 98 82
f 82 98 99
f 83 86 100
f 83 100 95
f 84 100 86
f 84 86 85
f 84 101 100
f 88 102 103
f 88 103 92
f 89 94 92
f 89 92 91
f 90 93 104
f 92 105 106
f 92 106 107
f 92 107 108
f 92 108 93
f 92 103 109
f 92 109 98
f 92 98 97
f 92 97 110
f 92 110 105
f 93 108 104
f 95 100 111
f 95 111 96
f 96 112 97
f 96 111 112
f 97 112 110
f 98 109 99
f 100 101 106
f 100 106 111
f 101 108 106
f 102 113 103
f 103 113 109
f 105 110 111
f 105 111 106
f 106 108 107
f 110 112 111

