# https://github.com/mikedh/trimesh
v -0.4123324500000001 -0.29817743 1.389622
v -0.4093592100000001 -0.29817743 1.39069063
v -0.39891864 -0.32779189 1.39652092
v -0.41235821000000006 -0.32779189 1.39181907
v -0.4290373300000001 -0.32779189 1.39197294
v -0.42901155999999996 -0.29817743 1.39077609
v -0.3963837000000001 -0.29817743 1.3963414
v -0.39469942999999996 -0.29817743 1.40005157
v -0.3932042200000001 -0.32779189 1.40939546
v -0.44569933000000006 -0.32779189 1.3958199
v -0.47887714000000003 -0.29817743 1.39612768
v -0.474847 -0.29817743 1.39564038
v -0.39130518000000003 -0.29817743 1.40826701
v -0.39109035000000003 -0.29817743 1.4131313
v -0.3925683900000001 -0.32779189 1.42606569
v -0.4548079300000001 -0.32779189 1.40023112
v -0.47887714000000003 -0.30510051 1.39868376
v -0.47887714000000003 -0.29817743 1.47611052
v -0.3921301400000001 -0.29817743 1.44276153
v -0.39261133000000004 -0.32779189 1.44273588
v -0.47887714000000003 -0.32779189 1.42761302
v -0.47887714000000003 -0.32779189 1.47608487
v -0.41604463999999997 -0.29817743 1.4769483
v -0.39309251 -0.29817743 1.45944032
v -0.39353941000000003 -0.32779189 1.45941467
v -0.46235267999999996 -0.32779189 1.47601649
v -0.42901155999999996 -0.32779189 1.47585406
v -0.4123324500000001 -0.32779189 1.47567454
v -0.4123324500000001 -0.29817743 1.47688848
v -0.3990131699999999 -0.29817743 1.47218662
v -0.39921081999999997 -0.32779189 1.47163095
f 1 2 3
f 1 3 4
f 1 4 5
f 1 5 6
f 1 6 12
f 1 12 11
f 1 11 18
f 1 18 23
f 1 23 29
f 1 29 30
f 1 30 24
f 1 24 19
f 1 19 14
f 1 14 13
f 1 13 8
f 1 8 7
f 1 7 2
f 2 7 3
f 3 7 8
f 3 8 9
f 3 9 15
f 3 15 20
f 3 20 25
f 3 25 31
f 3 31 28
f 3 28 27
f 3 27 26
f 3 26 22
f 3 22 21
f 3 21 16
f 3 16 10
f 3 10 5
f 3 5 4
f 5 10 11
f 5 11 12
f 5 12 6
f 8 13 9
f 9 13 14
f 9 14 15
f 10 16 17
f 10 17 11
f 11 17 21
f 11 21 22
f 11 22 18
f 14 19 20
f 14 20 15
f 16 21 17
f 18 22 23
f 19 24 25
f 19 25 20
f 22 26 23
f 23 26 27
f 23 27 28
f 23 28 29
f 24 30 31
f 24 31 25
f 28 31 29
f 29 31 30

