# https://github.com/mikedh/trimesh
v -3.74068202 2.03723348 1.15575135
v -3.74068202 2.05441922 1.13288063
v -3.71759439 2.03723348 1.16503752
v -3.74068202 2.03723348 1.22446489
v -3.74068202 2.11220295 1.13288063
v -3.71759439 2.06174165 1.13288063
v -3.71759439 2.03723348 1.22120055
v -3.74068202 2.05442735 1.23643755
v -3.74068202 2.11629440 1.13632746
v -3.71759439 2.11122880 1.13288063
v -3.71759439 2.06088923 1.23643755
v -3.74068202 2.11125315 1.23643755
v -3.74068202 2.11788553 1.13989594
v -3.71759439 2.11518226 1.14277505
v -3.71759439 2.10916682 1.23643755
v -3.74068202 2.11814532 1.21763206
v -3.74068202 2.11989878 1.15354133
v -3.71759439 2.11700069 1.15354133
v -3.71759439 2.11549885 1.14460999
v -3.71759439 2.11525530 1.21463130
v -3.74068202 2.11881099 1.21292816
v -3.71759439 2.11709808 1.15642045
v -3.74068202 2.12015857 1.17020775
v -3.71759439 2.11755269 1.17020775
v -3.71759439 2.11676525 1.20353049
v -3.74068202 2.11997186 1.20353049
v -3.74068202 2.12011798 1.19617049
v -3.71759439 2.11752021 1.17308687
v -3.71759439 2.11718737 1.18974317
f 1 2 3
f 1 3 7
f 1 7 4
f 1 4 8
f 1 8 12
f 1 12 16
f 1 16 21
f 1 21 26
f 1 26 27
f 1 27 23
f 1 23 17
f 1 17 13
f 1 13 9
f 1 9 5
f 1 5 2
f 2 5 10
f 2 10 6
f 2 6 3
f 3 6 10
f 3 10 14
f 3 14 19
f 3 19 18
f 3 18 22
f 3 22 24
f 3 24 28
f 3 28 29
f 3 29 25
f 3 25 20
f 3 20 15
f 3 15 11
f 3 11 7
f 4 7 8
f 5 9 10
f 7 11 8
f 8 11 15
f 8 15 12
f 9 13 10
f 10 13 14
f 12 15 16
f 13 17 18
f 13 18 19
f 13 19 14
f 15 20 16
f 16 20 21
f 17 22 18
f 17 23 24
f 17 24 22
f 20 25 21
f 21 25 26
f 23 27 24
f 24 27 28
f 25 29 26
f 26 29 28
f 26 28 27

