# https://github.com/mikedh/trimesh
v 1.30790871 2.00026472 1.50680663
v 1.30169467 2.00026472 1.50880107
v 1.29422578 2.05494500 1.50564319
v 1.29587538 2.05494500 1.50513482
v 1.30790871 2.05494500 1.50152722
v 1.30790871 2.00026472 1.60070216
v 1.29866972 2.00026472 1.50977878
v 1.28668417 2.00026472 1.54844563
v 1.28668417 2.05494500 1.53467029
v 1.30790871 2.05494500 1.60140609
v 1.28668417 2.05494500 1.60139632
v 1.29233518 2.00026472 1.60068261
v 1.28668417 2.00026472 1.60065328
f 1 2 3
f 1 3 4
f 1 4 5
f 1 5 10
f 1 10 6
f 1 6 12
f 1 12 13
f 1 13 8
f 1 8 7
f 1 7 2
f 2 7 3
f 3 7 8
f 3 8 9
f 3 9 11
f 3 11 10
f 3 10 5
f 3 5 4
f 6 10 11
f 6 11 12
f 8 13 11
f 8 11 9
f 11 13 12

