# https://github.com/mikedh/trimesh
v -2.31540058 2.05240176 1.89377135
v -2.32562590 2.05240176 1.89486498
v -2.31407145 2.05240176 1.89377135
v -2.31260370 2.03830420 1.89445615
v -2.32057848 2.03830420 1.89592124
v -2.32093724 2.03830420 1.89600296
v -2.33184751 2.05240176 1.90212554
v -2.29877424 2.05240176 1.89378834
v -2.30244365 2.03830420 1.89445615
v -2.32592759 2.03830420 1.90433677
v -2.34754428 2.05240176 1.92857496
v -2.29530057 2.05240176 1.89504559
v -2.29241402 2.04937552 1.89653452
v -2.29411008 2.03830420 1.89755323
v -2.33328266 2.03830420 1.92857496
v -2.26424952 2.05240176 1.92857496
v -2.28341996 2.05240176 1.90170992
v -2.28196852 2.05240176 1.90280361
v -2.28714641 2.03830420 1.90588704
v -2.27967724 2.03830420 1.92857496
f 1 2 7
f 1 7 11
f 1 11 16
f 1 16 18
f 1 18 17
f 1 17 12
f 1 12 8
f 1 8 3
f 1 3 9
f 1 9 4
f 1 4 2
f 2 5 6
f 2 6 7
f 2 4 5
f 3 8 9
f 4 9 14
f 4 14 19
f 4 19 20
f 4 20 15
f 4 15 10
f 4 10 6
f 4 6 5
f 6 10 7
f 7 10 11
f 8 12 9
f 9 12 13
f 9 13 14
f 10 15 11
f 11 15 20
f 11 20 16
f 12 17 13
f 13 17 14
f 14 17 18
f 14 18 19
f 16 20 19
f 16 19 18

