# https://github.com/mikedh/trimesh
v -2.17923089 -0.69471077 1.12550069
v -2.17916284 -0.6784473200000001 1.12550069
v -2.17920822 -0.71138876 1.12550069
v -2.17920822 -0.71138876 1.1259146
v -2.1790834500000003 -0.6780424199999999 1.2092871
v -2.1791514999999997 -0.6780424199999999 1.1259146
v -2.1791514999999997 -0.6780424199999999 1.12550069
v -2.17919689 -0.7117840200000001 1.12550069
v -2.17841428 -0.7280571 1.23120381
v -2.17899274 -0.71138876 1.2092871
v -2.17895868 -0.7061347 1.23120381
v -2.17900407 -0.69471077 1.23120381
v -2.1790154 -0.6780424199999999 1.22595745
v -2.1753973799999997 -0.66529774 1.2092871
v -2.17538605 -0.66518206 1.19260639
v -2.1754881 -0.6653266600000001 1.12550069
v -2.17858443 -0.7280571 1.12550069
v -2.17858443 -0.7280571 1.1259146
v -2.1784256099999997 -0.7280571 1.22595745
v -2.17893602 -0.71138876 1.23120381
v -2.17481892 -0.73933644 1.23120381
v -2.17899274 -0.6780424199999999 1.23120381
v -2.175318 -0.66537487 1.23120381
v -2.17783588 -0.67405128 1.23120381
v -2.17538605 -0.66500852 1.1259146
v -2.14928861 -0.6447250099999999 1.17593603
v -2.17538605 -0.66500852 1.12550069
v -2.17849366 -0.72833667 1.12550069
v -2.17481892 -0.7393460700000001 1.2092871
v -2.16339778 -0.74277807 1.2092871
v -2.16339778 -0.7427684400000001 1.22595745
v -2.16339778 -0.7427588 1.23120381
v -2.16712924 -0.6615861700000001 1.23120381
v -2.14337953 -0.6447250099999999 1.22259441
v -2.1485513899999997 -0.6447250099999999 1.2092871
v -2.14912979 -0.6447250099999999 1.15926566
v -2.17510245 -0.6648639199999999 1.12550069
v -2.17483025 -0.7392978800000001 1.12550069
v -2.17483025 -0.7393171700000001 1.14258497
v -2.17483025 -0.7393268 1.15926566
v -2.17481892 -0.7393460700000001 1.19260639
v -2.16339778 -0.74277807 1.19260639
v -2.14672535 -0.7432118999999999 1.19260639
v -2.14672535 -0.74318297 1.23120381
v -2.1581465399999997 -0.74289377 1.23120381
v -2.16339778 -0.65987017 1.23120381
v -2.13004158 -0.6447250099999999 1.22760276
v -2.14354969 -0.6447250099999999 1.14582383
v -2.16339778 -0.6590989300000001 1.12550069
v -2.1636813200000002 -0.74257562 1.12550069
v -2.16339778 -0.74272988 1.15926566
v -2.16339778 -0.7427588 1.17593603
v -2.14672535 -0.74315405 1.15926566
v -2.13004158 -0.74294196 1.12550069
v -2.13004158 -0.74300945 1.19260639
v -2.14147411 -0.74311549 1.23120381
v -2.15197659 -0.6574214899999999 1.23120381
v -2.06336329 -0.6447250099999999 1.22779936
v -2.14702022 -0.6570648 1.23120381
v -2.13017768 -0.65615858 1.23120381
v -2.13004158 -0.6447250099999999 1.14082583
v -2.14672535 -0.65772998 1.12550069
v -2.16339778 -0.74265276 1.12550069
v -2.1471223200000003 -0.7430673 1.12550069
v -2.14672535 -0.74307693 1.12550069
v -2.11338054 -0.74267203 1.12550069
v -2.11338054 -0.74267203 1.19260639
v -2.11338054 -0.74265276 1.23120381
v -2.12480167 -0.74286485 1.23120381
v -2.13004158 -0.74296126 1.23120381
v -2.0821793 -0.6794017299999999 1.23120381
v -2.08152145 -0.68027901 1.23120381
v -2.07757457 -0.69470113 1.23120381
v -2.07756318 -0.6949325 1.23120381
v -2.06336329 -0.69473005 1.22782006
v -2.06336329 -0.6447250099999999 1.14744843
v -2.13004158 -0.65616823 1.23120381
v -2.11391361 -0.6610077400000001 1.23120381
v -2.11318772 -0.6613066000000001 1.23120381
v -2.13004158 -0.65836625 1.12550069
v -2.14631704 -0.65773963 1.12550069
v -2.11338054 -0.6447250099999999 1.14196409
v -2.09704836 -0.73946177 1.12550069
v -2.09758143 -0.73945211 1.23120381
v -2.07966142 -0.71188042 1.23120381
v -2.06336329 -0.70898829 1.22269788
v -2.08034193 -0.7161415099999999 1.23120381
v -2.08924524 -0.73473794 1.23120381
v -2.06336329 -0.66136444 1.14418887
v -2.08654588 -0.69325506 1.12550069
v -2.09509761 -0.68282409 1.12550069
v -2.1168170699999997 -0.66442046 1.12550069
v -2.12972405 -0.65851087 1.12550069
v -2.09684421 -0.73937499 1.12550069
v -2.0918764999999997 -0.73646357 1.23120381
v -2.08933596 -0.73574054 1.2092871
v -2.06336329 -0.7156209099999999 1.20925605
v -2.0892679100000002 -0.73508499 1.22595745
v -2.06336329 -0.69471077 1.14292644
v -2.08500337 -0.71138876 1.12550069
v -2.0850261 -0.71095493 1.12550069
v -2.08871217 -0.7355573799999999 1.12550069
v -2.06336329 -0.7164018000000001 1.17590498
v -2.06336329 -0.71634396 1.19257534
v -2.06336329 -0.7087665599999999 1.14676548
v -2.0871696699999998 -0.72742084 1.12550069
v -2.06336329 -0.7154859600000001 1.15923462
f 1 2 7
f 1 7 16
f 1 16 27
f 1 27 37
f 1 37 49
f 1 49 62
f 1 62 81
f 1 81 80
f 1 80 93
f 1 93 92
f 1 92 91
f 1 91 90
f 1 90 101
f 1 101 100
f 1 100 106
f 1 106 102
f 1 102 94
f 1 94 83
f 1 83 66
f 1 66 54
f 1 54 65
f 1 65 64
f 1 64 63
f 1 63 50
f 1 50 38
f 1 38 28
f 1 28 17
f 1 17 8
f 1 8 3
f 1 3 4
f 1 4 5
f 1 5 2
f 2 5 6
f 2 6 7
f 3 8 4
f 4 8 9
f 4 9 10
f 4 10 11
f 4 11 12
f 4 12 5
f 5 12 13
f 5 13 14
f 5 14 15
f 5 15 16
f 5 16 6
f 6 16 7
f 8 17 18
f 8 18 19
f 8 19 9
f 9 20 10
f 9 19 21
f 9 21 32
f 9 32 45
f 9 45 44
f 9 44 56
f 9 56 70
f 9 70 69
f 9 69 68
f 9 68 84
f 9 84 95
f 9 95 88
f 9 88 87
f 9 87 85
f 9 85 74
f 9 74 73
f 9 73 72
f 9 72 71
f 9 71 79
f 9 79 78
f 9 78 77
f 9 77 60
f 9 60 59
f 9 59 57
f 9 57 46
f 9 46 33
f 9 33 23
f 9 23 24
f 9 24 22
f 9 22 12
f 9 12 11
f 9 11 20
f 10 20 11
f 12 22 13
f 13 22 14
f 14 23 15
f 14 22 24
f 14 24 23
f 15 25 16
f 15 23 26
f 15 26 25
f 16 25 27
f 17 28 18
f 18 28 21
f 18 21 19
f 21 28 29
f 21 29 30
f 21 30 31
f 21 31 32
f 23 33 34
f 23 34 35
f 23 35 26
f 25 26 27
f 26 35 34
f 26 34 47
f 26 47 58
f 26 58 76
f 26 76 82
f 26 82 61
f 26 61 48
f 26 48 36
f 26 36 27
f 27 36 37
f 28 38 39
f 28 39 40
f 28 40 29
f 29 40 41
f 29 41 42
f 29 42 30
f 30 42 43
f 30 43 31
f 31 43 44
f 31 44 45
f 31 45 32
f 33 46 34
f 34 46 47
f 36 48 37
f 37 48 49
f 38 50 51
f 38 51 52
f 38 52 42
f 38 42 39
f 39 42 40
f 40 42 41
f 42 52 43
f 43 52 51
f 43 51 53
f 43 53 54
f 43 54 55
f 43 55 44
f 44 55 56
f 46 57 47
f 47 57 59
f 47 59 60
f 47 60 58
f 48 61 49
f 49 61 62
f 50 63 51
f 51 63 64
f 51 64 53
f 53 64 65
f 53 65 54
f 54 66 55
f 55 66 67
f 55 67 68
f 55 68 69
f 55 69 70
f 55 70 56
f 58 71 72
f 58 72 73
f 58 73 74
f 58 74 75
f 58 75 86
f 58 86 97
f 58 97 104
f 58 104 103
f 58 103 107
f 58 107 105
f 58 105 99
f 58 99 89
f 58 89 76
f 58 60 77
f 58 77 78
f 58 78 79
f 58 79 71
f 61 80 81
f 61 81 62
f 61 82 80
f 66 83 67
f 67 83 68
f 68 83 84
f 74 85 75
f 75 85 87
f 75 87 88
f 75 88 86
f 76 89 90
f 76 90 91
f 76 91 92
f 76 92 93
f 76 93 80
f 76 80 82
f 83 94 84
f 84 94 96
f 84 96 95
f 86 88 97
f 88 95 98
f 88 98 97
f 89 99 100
f 89 100 101
f 89 101 90
f 94 102 96
f 95 96 98
f 96 102 103
f 96 103 104
f 96 104 98
f 97 98 104
f 99 105 102
f 99 102 106
f 99 106 100
f 102 105 107
f 102 107 103

