# https://github.com/mikedh/trimesh
v 0.38817126 1.48902575 0.07009812
v 0.38555107 1.47861103 0.07009812
v 0.38564382 1.47841803 0.05353124
v 0.38802439 1.48902575 0.05353124
v 0.38765341 1.50568618 0.03686064
v 0.38764566 1.50568618 0.05353124
v 0.38714331 1.50568618 0.07009812
v 0.37565776 1.47143887 0.07009812
v 0.37565776 1.47126131 0.05353124
v 0.37565776 1.47151606 0.03686064
v 0.38545833 1.47862647 0.03686064
v 0.38518009 1.47900479 0.02019797
v 0.38766116 1.48902575 0.03686064
v 0.38723605 1.50568618 0.02019797
v 0.38528053 1.51595418 0.02019797
v 0.38545058 1.51613177 0.03686064
v 0.38525734 1.51586927 0.05353124
v 0.38453081 1.51482702 0.07009812
v 0.37555726 1.47140028 0.07009812
v 0.35898597 1.46549424 0.07009812
v 0.35898597 1.46572584 0.02019797
v 0.37565776 1.47199472 0.02019797
v 0.38713556 1.48902575 0.02019797
v 0.38459268 1.47984629 0.00353536
v 0.38606118 1.48902575 0.00353536
v 0.38610755 1.50568618 0.00353536
v 0.38464675 1.51504320 0.00353536
v 0.37867986 1.52337341 0.00353536
v 0.37921314 1.52429213 0.02019797
v 0.37922864 1.52446970 0.03686064
v 0.37111299 1.53503110 0.07009812
v 0.37929820 1.52419948 0.05353124
v 0.37948369 1.52311094 0.07009812
v 0.34576913 1.46432846 0.07009812
v 0.34539040 1.46440567 0.02019797
v 0.33593762 1.46390386 0.00780475
v 0.34182726 1.46501555 0.00276126
v 0.35898597 1.46750150 0.00353536
v 0.37565776 1.47383988 0.00353536
v 0.38409796 1.48054111 -0.00492362
v 0.38462356 1.48902575 -0.00551419
v 0.38460037 1.50568618 -0.00549822
v 0.38407483 1.51416308 -0.00489966
v 0.37034783 1.53374953 0.00353536
v 0.37088112 1.53449066 0.02019797
v 0.37096618 1.53489985 0.05353124
v 0.35898597 1.54102976 0.07009812
v 0.33743711 1.46381892 0.07009812
v 0.33743711 1.46376489 0.05353124
v 0.33727474 1.46375717 0.03686064
v 0.33705837 1.46381120 0.02019797
v 0.33269140 1.46390386 0.00780475
v 0.32654671 1.46550193 0.00276126
v 0.32566557 1.47364688 -0.00788433
v 0.34232961 1.47342298 -0.00799603
v 0.35898597 1.47495933 -0.00793213
v 0.37565776 1.47803975 -0.00643986
v 0.37565776 1.48902575 -0.00861843
v 0.37565776 1.50568618 -0.00857062
v 0.37498529 1.52077167 -0.00690275
v 0.36897978 1.53229808 -0.00618451
v 0.35898597 1.53834309 0.00353536
v 0.35898597 1.53991803 0.02019797
v 0.35898597 1.54036582 0.03686064
v 0.35898597 1.54072866 0.05353124
v 0.34243011 1.54261242 0.07009812
v 0.33163246 1.46381892 0.07009812
v 0.33119967 1.46376489 0.05353124
v 0.33124604 1.46375717 0.03686064
v 0.33174070 1.46381120 0.02019797
v 0.32340868 1.46510821 0.02019797
v 0.31373173 1.47411782 0.00353536
v 0.31516941 1.47673499 -0.00675911
v 0.32566557 1.48902575 -0.01115617
v 0.34232961 1.48902575 -0.01123593
v 0.35898597 1.48902575 -0.01108429
v 0.35898597 1.50568618 -0.01102850
v 0.35898597 1.52235434 -0.01052579
v 0.35898597 1.53385759 -0.00744540
v 0.34232961 1.53967872 0.00353536
v 0.34232961 1.54131541 0.02019797
v 0.34232961 1.54186357 0.03686064
v 0.34232961 1.54227273 0.05353124
v 0.34232961 1.54262014 0.07009812
v 0.32334681 1.46502330 0.07009812
v 0.32286765 1.46500783 0.05353124
v 0.32291402 1.46503099 0.03686064
v 0.31335300 1.47343841 0.02019797
v 0.30998316 1.48902575 0.00353536
v 0.30931845 1.48902575 0.02019797
v 0.31398684 1.48902575 -0.00789232
v 0.32566557 1.50568618 -0.01142750
v 0.31377810 1.50568618 -0.00813169
v 0.34232961 1.52235434 -0.01127586
v 0.34232961 1.53452153 -0.00805981
v 0.32566557 1.53408150 -0.00798006
v 0.32566557 1.53860559 0.00353536
v 0.32566557 1.53990259 0.02019797
v 0.32566557 1.54059744 0.07009812
v 0.32566557 1.54021913 0.03686064
v 0.32566557 1.54045847 0.05353124
v 0.32323863 1.46508505 0.07009812
v 0.31343800 1.47336894 0.07009812
v 0.31337625 1.47333807 0.05353124
v 0.31336075 1.47336122 0.03686064
v 0.30971256 1.50568618 0.00353536
v 0.30934158 1.48902575 0.03686064
v 0.30921021 1.50568618 0.02019797
v 0.32566557 1.52235434 -0.01133177
v 0.31390947 1.52235434 -0.00802798
v 0.31520028 1.53272271 -0.00683087
v 0.31382448 1.53420500 0.00353536
v 0.31353086 1.53469138 0.02019797
v 0.31383223 1.53469138 0.07009812
v 0.31358486 1.53470685 0.03686064
v 0.31367761 1.53469913 0.05353124
v 0.30954256 1.48893309 0.07009812
v 0.30938795 1.48902575 0.05353124
v 0.30995217 1.52235434 0.00353536
v 0.30925658 1.50568618 0.03686064
v 0.30944982 1.52235434 0.02019797
v 0.31373948 1.53458331 0.07009812
v 0.30952707 1.52235434 0.03686064
v 0.30948844 1.50558581 0.07009812
v 0.30932620 1.50568618 0.05353124
v 0.30984405 1.52235434 0.07009812
v 0.30966618 1.52235434 0.05353124
v 0.30948844 1.50568618 0.07009812
f 1 2 3
f 1 3 4
f 1 4 5
f 1 5 6
f 1 6 7
f 1 7 18
f 1 18 33
f 1 33 31
f 1 31 47
f 1 47 66
f 1 66 84
f 1 84 99
f 1 99 114
f 1 114 122
f 1 122 126
f 1 126 128
f 1 128 124
f 1 124 117
f 1 117 103
f 1 103 102
f 1 102 85
f 1 85 67
f 1 67 48
f 1 48 34
f 1 34 20
f 1 20 19
f 1 19 8
f 1 8 2
f 2 8 3
f 3 8 9
f 3 9 10
f 3 10 11
f 3 11 4
f 4 11 12
f 4 12 13
f 4 13 5
f 5 13 14
f 5 14 15
f 5 15 16
f 5 16 6
f 6 17 7
f 6 16 17
f 7 17 18
f 8 19 9
f 9 19 20
f 9 20 21
f 9 21 10
f 10 21 22
f 10 22 11
f 11 22 12
f 12 23 13
f 12 22 24
f 12 24 23
f 13 23 14
f 14 23 25
f 14 25 26
f 14 26 27
f 14 27 15
f 15 27 28
f 15 28 29
f 15 29 16
f 16 29 30
f 16 30 31
f 16 31 32
f 16 32 17
f 17 32 31
f 17 31 33
f 17 33 18
f 20 34 35
f 20 35 21
f 21 35 36
f 21 36 37
f 21 37 38
f 21 38 22
f 22 38 39
f 22 39 24
f 23 24 25
f 24 39 40
f 24 40 25
f 25 40 41
f 25 41 26
f 26 41 42
f 26 42 43
f 26 43 27
f 27 43 28
f 28 43 44
f 28 44 29
f 29 44 45
f 29 45 31
f 29 31 30
f 31 46 47
f 31 45 46
f 34 48 49
f 34 49 50
f 34 50 35
f 35 50 51
f 35 51 36
f 36 51 70
f 36 70 52
f 36 52 37
f 37 53 54
f 37 54 55
f 37 55 56
f 37 56 38
f 37 52 53
f 38 56 57
f 38 57 40
f 38 40 39
f 40 57 58
f 40 58 41
f 41 58 42
f 42 58 59
f 42 59 43
f 43 59 60
f 43 60 61
f 43 61 44
f 44 61 62
f 44 62 63
f 44 63 45
f 45 63 64
f 45 64 65
f 45 65 47
f 45 47 46
f 47 65 66
f 48 67 68
f 48 68 49
f 49 68 69
f 49 69 50
f 50 69 70
f 50 70 51
f 52 70 71
f 52 71 53
f 53 71 72
f 53 72 73
f 53 73 54
f 54 73 74
f 54 74 55
f 55 74 75
f 55 75 76
f 55 76 56
f 56 76 57
f 57 76 58
f 58 76 59
f 59 76 77
f 59 77 78
f 59 78 60
f 60 78 61
f 61 78 79
f 61 79 62
f 62 79 80
f 62 80 81
f 62 81 63
f 63 81 82
f 63 82 64
f 64 82 83
f 64 83 65
f 65 83 66
f 66 83 84
f 67 85 68
f 68 85 86
f 68 86 69
f 69 86 87
f 69 87 70
f 70 87 71
f 71 88 72
f 71 87 88
f 72 89 73
f 72 88 90
f 72 90 89
f 73 89 91
f 73 91 74
f 74 92 75
f 74 91 93
f 74 93 92
f 75 92 76
f 76 92 94
f 76 94 77
f 77 94 78
f 78 94 95
f 78 95 79
f 79 95 80
f 80 95 96
f 80 96 97
f 80 97 81
f 81 97 98
f 81 98 82
f 82 98 83
f 83 98 84
f 84 98 100
f 84 100 101
f 84 101 99
f 85 102 86
f 86 102 103
f 86 103 104
f 86 104 105
f 86 105 87
f 87 105 88
f 88 105 90
f 89 90 106
f 89 106 93
f 89 93 91
f 90 105 104
f 90 104 107
f 90 107 108
f 90 108 106
f 92 109 94
f 92 93 109
f 93 106 110
f 93 110 109
f 94 109 95
f 95 109 96
f 96 109 111
f 96 111 97
f 97 111 112
f 97 112 98
f 98 112 113
f 98 113 100
f 99 101 113
f 99 113 115
f 99 115 116
f 99 116 114
f 100 113 101
f 103 117 118
f 103 118 104
f 104 118 107
f 106 108 121
f 106 121 119
f 106 119 110
f 107 118 108
f 108 118 120
f 108 120 121
f 109 110 111
f 110 119 111
f 111 119 112
f 112 121 113
f 112 119 121
f 113 121 115
f 114 116 122
f 115 123 116
f 115 121 123
f 116 123 122
f 117 124 125
f 117 125 118
f 118 125 120
f 120 125 121
f 121 125 123
f 122 123 127
f 122 127 126
f 123 125 127
f 124 128 125
f 125 128 127
f 126 127 128

