# https://github.com/mikedh/trimesh
v 1.30808385 2.08245726 1.87000531
v 1.30808385 2.11503820 1.87000531
v 2.22147656 2.07846527 1.87000531
v 0.85689985 2.08123664 1.87029421
v 0.81362803 2.08161281 1.87029421
v 1.52568298 2.11550651 1.87000531
v 0.81362803 2.11389434 1.87029421
v 0.89176527 2.11440871 1.87029421
v 0.97569048 2.11493842 1.87029421
v 0.99236525 2.11499215 1.87029421
v 2.22147656 2.11463133 1.87000531
v 2.22147656 2.06236670 1.89362831
v 1.82486456 2.05240203 1.89382530
v 0.81362803 2.05154989 1.89218390
v 1.54235777 2.11551417 1.87000531
v 0.99250312 2.12799689 1.90355548
v 0.81362803 2.12673019 1.90355548
v 0.97582828 2.12797385 1.90355548
v 2.17572421 2.11477718 1.87000531
v 2.22147656 2.12752860 1.90356865
v 2.22147656 2.05932663 1.90104742
v 2.22147656 2.05864341 1.90356865
v 2.22147656 2.05240203 1.92900377
v 1.30794604 2.05153454 1.89448185
v 1.30105563 2.05153454 1.89567676
v 1.17482332 2.05153454 1.93099971
v 0.81362803 2.05154989 1.99778498
v 1.54249558 2.11551417 1.87000531
v 1.00904008 2.12993915 1.92021899
v 2.17544859 2.12976260 1.92023210
v 1.52568298 2.12788942 1.90356865
v 1.62586952 2.11549882 1.87000531
v 0.81362803 2.12845751 1.91559679
v 0.97582828 2.12984703 1.92021899
v 0.99250312 2.12991611 1.92021899
v 0.81362803 2.12908700 1.92021899
v 1.90906538 2.11525316 1.87000531
v 2.22147656 2.12805831 1.90778375
v 1.89211493 2.11527620 1.87000531
v 1.72591827 2.11542205 1.87000531
v 2.19212336 2.12972421 1.92023210
v 2.22147656 2.05240203 1.99879600
v 1.30794604 2.05153454 1.99803437
v 1.17482332 2.05153454 1.99764050
v 0.81362803 2.07237744 2.00135664
v 1.18819072 2.05153454 1.99771930
v 1.19232496 2.05153454 1.99773241
v 1.20486549 2.05153454 1.99777175
v 1.28823947 2.05153454 1.99800814
v 1.30491426 2.05153454 1.99803437
v 1.77552922 2.05240203 1.99871720
v 1.52568298 2.05240203 1.99852027
v 1.52568298 2.07237744 2.00231521
v 1.02571485 2.07237744 2.00180308
v 1.00904008 2.07237744 2.00177685
v 0.95901571 2.12983168 1.97018316
v 1.00904008 2.12990076 1.97018316
v 1.32586111 2.12996219 1.93690872
v 2.17544859 2.12990845 1.97018316
v 0.81362803 2.12936339 1.93690872
v 0.81362803 2.12956298 1.97018316
v 2.22147656 2.12952459 1.92023210
v 2.20879820 2.12963209 1.92023210
v 2.19212336 2.12985472 1.97018316
v 2.22147656 2.12973187 1.97018316
v 2.22147656 2.07237744 2.00163237
v 2.17544859 2.07237744 2.00178997
v 2.10874945 2.07237744 2.00186877
v 0.81362803 2.08904407 2.00310307
v 1.00904008 2.08904407 2.00360208
v 1.57570734 2.08903641 2.00406164
v 1.54235777 2.08903641 2.00407475
v 1.52568298 2.08903641 2.00407475
v 1.02571485 2.08904407 2.00362831
v 0.81362803 2.12895650 1.98223758
v 0.95901571 2.12898722 1.98687289
v 0.97582828 2.12900257 1.98687289
v 1.04238965 2.12904862 1.98687289
v 2.09207462 2.12927893 1.98684667
v 1.39256026 2.12991611 1.97018316
v 2.17544859 2.12921754 1.98684667
v 2.12542422 2.12927127 1.98684667
v 2.15877382 2.12924823 1.98684667
v 2.19212336 2.12916377 1.98684667
v 2.22147656 2.12954763 1.97438514
v 2.22147656 2.08903641 2.00311618
v 2.17544859 2.08903641 2.00336569
v 2.15877382 2.08903641 2.00343137
v 2.12542422 2.08903641 2.00347071
v 0.81362803 2.10568001 2.00324755
v 0.95901571 2.10568001 2.00366765
v 1.00904008 2.10568001 2.00377279
v 0.97582828 2.10568001 2.00370711
v 1.60905694 2.10568770 2.00412732
v 1.57570734 2.10568770 2.00415355
v 1.54235777 2.10568770 2.00415355
v 1.04238965 2.10568001 2.00379902
v 0.81362803 2.12871852 1.98687289
v 0.95901571 2.12102622 1.99949195
v 1.04238965 2.12106460 1.99950507
v 2.09207462 2.12133330 1.99937381
v 2.12542422 2.12130260 1.99937381
v 2.14209899 2.12127188 1.99936070
v 2.15877382 2.12124118 1.99933436
v 2.19212336 2.12120280 1.99924245
v 2.20879820 2.12114906 1.99921622
v 2.22147656 2.12897954 1.98684667
v 2.22147656 2.10568770 2.00316875
v 2.17544859 2.10568770 2.00337880
v 2.14209899 2.10568770 2.00351017
v 2.12542422 2.10568770 2.00354951
v 0.81362803 2.12088036 1.99924245
v 1.55903256 2.12097248 1.99967577
v 2.10874945 2.12130260 1.99938693
v 1.60905694 2.12091875 1.99967577
v 0.99250312 2.12102622 1.99950507
v 2.22147656 2.12106460 1.99918999
f 1 2 6
f 1 6 15
f 1 15 28
f 1 28 32
f 1 32 40
f 1 40 39
f 1 39 37
f 1 37 19
f 1 19 11
f 1 11 3
f 1 3 4
f 1 4 5
f 1 5 7
f 1 7 2
f 2 7 8
f 2 8 9
f 2 9 10
f 2 10 6
f 3 11 20
f 3 20 38
f 3 38 62
f 3 62 65
f 3 65 85
f 3 85 107
f 3 107 117
f 3 117 108
f 3 108 86
f 3 86 66
f 3 66 42
f 3 42 23
f 3 23 22
f 3 22 21
f 3 21 12
f 3 12 13
f 3 13 14
f 3 14 4
f 4 14 5
f 5 14 27
f 5 27 45
f 5 45 69
f 5 69 90
f 5 90 112
f 5 112 98
f 5 98 75
f 5 75 61
f 5 61 60
f 5 60 36
f 5 36 33
f 5 33 17
f 5 17 7
f 6 10 16
f 6 16 15
f 7 17 18
f 7 18 8
f 8 18 9
f 9 18 10
f 10 18 16
f 11 19 20
f 12 21 13
f 13 21 22
f 13 22 23
f 13 23 24
f 13 24 14
f 14 24 25
f 14 25 26
f 14 26 44
f 14 44 27
f 15 16 28
f 16 18 29
f 16 29 30
f 16 30 31
f 16 31 32
f 16 32 28
f 17 33 18
f 18 34 35
f 18 35 29
f 18 33 36
f 18 36 34
f 19 37 20
f 20 37 39
f 20 39 40
f 20 40 32
f 20 32 31
f 20 31 30
f 20 30 41
f 20 41 38
f 23 42 43
f 23 43 24
f 24 43 50
f 24 50 49
f 24 49 48
f 24 48 47
f 24 47 46
f 24 46 44
f 24 44 26
f 24 26 25
f 27 44 46
f 27 46 47
f 27 47 48
f 27 48 49
f 27 49 50
f 27 50 51
f 27 51 52
f 27 52 53
f 27 53 54
f 27 54 55
f 27 55 45
f 29 35 56
f 29 56 57
f 29 57 58
f 29 58 30
f 30 58 59
f 30 59 41
f 34 36 60
f 34 60 35
f 35 60 61
f 35 61 56
f 38 41 63
f 38 63 62
f 41 64 65
f 41 65 63
f 41 59 64
f 42 66 67
f 42 67 68
f 42 68 53
f 42 53 51
f 42 51 50
f 42 50 43
f 45 55 70
f 45 70 69
f 51 53 52
f 53 68 71
f 53 71 72
f 53 72 73
f 53 73 74
f 53 74 54
f 54 74 70
f 54 70 55
f 56 61 75
f 56 75 76
f 56 76 57
f 57 76 77
f 57 77 78
f 57 78 79
f 57 79 80
f 57 80 58
f 58 80 59
f 59 81 84
f 59 84 64
f 59 80 79
f 59 79 82
f 59 82 83
f 59 83 81
f 62 63 65
f 64 84 65
f 65 84 85
f 66 86 87
f 66 87 88
f 66 88 67
f 67 88 89
f 67 89 68
f 68 89 71
f 69 70 91
f 69 91 90
f 70 74 92
f 70 92 93
f 70 93 91
f 71 94 95
f 71 95 72
f 71 89 94
f 72 95 96
f 72 96 73
f 73 96 97
f 73 97 92
f 73 92 74
f 75 98 76
f 76 98 99
f 76 99 77
f 77 99 78
f 78 99 100
f 78 100 79
f 79 101 82
f 79 100 101
f 81 83 102
f 81 102 103
f 81 103 104
f 81 104 105
f 81 105 84
f 82 101 83
f 83 101 102
f 84 105 106
f 84 106 107
f 84 107 85
f 86 108 87
f 87 109 110
f 87 110 88
f 87 108 109
f 88 110 111
f 88 111 89
f 89 111 94
f 90 91 112
f 91 93 112
f 92 97 99
f 92 99 93
f 93 99 112
f 94 111 102
f 94 102 114
f 94 114 95
f 95 113 96
f 95 114 115
f 95 115 113
f 96 113 116
f 96 116 99
f 96 99 97
f 98 112 99
f 99 116 100
f 100 116 113
f 100 113 101
f 101 114 102
f 101 113 114
f 102 111 103
f 103 111 104
f 104 111 110
f 104 110 106
f 104 106 105
f 106 117 107
f 106 110 117
f 108 117 109
f 109 117 110
f 113 115 114

