# https://github.com/mikedh/trimesh
v 0.85905532 1.57937793 1.55350760
v 1.05898771 1.57937793 1.55380497
v 0.85905532 1.57937793 1.60017185
v 0.85905532 1.88898679 1.55616539
v 0.97565647 2.00026472 1.55580859
v 0.98107976 2.00026472 1.55575370
v 0.99232272 2.00026472 1.55564390
v 0.99774601 2.00026472 1.55559360
v 1.01441226 2.00026472 1.55544262
v 1.02565522 2.00026472 1.55535571
v 1.03107851 2.00026472 1.55531912
v 1.04232146 2.00026472 1.55525051
v 1.07212879 2.00026472 1.55509494
v 1.07212879 1.99140698 1.55504004
v 1.07212879 1.98901744 1.55503092
v 1.07212879 1.97587502 1.55498974
v 1.07212879 1.57937793 1.55383697
v 1.07212879 1.57937793 1.60003464
v 0.85905532 1.58905965 1.60017644
v 0.85905532 1.90563110 1.55631178
v 0.95901109 2.00026472 1.55601441
v 1.07212879 2.00026472 1.59969155
v 1.07212879 1.73906442 1.60010783
v 0.85905532 1.73906442 1.60023587
v 0.85905532 1.92231660 1.55650848
v 0.85905532 2.00022350 1.55745536
v 0.86443692 2.00026472 1.55742335
v 0.99232272 2.00026472 1.59981505
v 1.07212879 1.95568763 1.59988825
v 1.07212879 1.75216563 1.60011236
v 1.07212879 1.77239423 1.60011236
v 0.85905532 1.88898679 1.60021304
v 0.85905532 2.00026472 1.59971438
v 0.85905532 2.00026472 1.60001175
v 1.07212879 1.95214452 1.59989737
v 1.07212879 1.78903854 1.60010783
v 1.07212879 1.85215508 1.60003917
v 1.07212879 1.93900213 1.59992938
v 0.85905532 1.95568763 1.60010783
f 1 2 17
f 1 17 18
f 1 18 3
f 1 3 19
f 1 19 24
f 1 24 32
f 1 32 39
f 1 39 34
f 1 34 33
f 1 33 26
f 1 26 25
f 1 25 20
f 1 20 4
f 1 4 5
f 1 5 6
f 1 6 7
f 1 7 8
f 1 8 9
f 1 9 10
f 1 10 11
f 1 11 12
f 1 12 13
f 1 13 14
f 1 14 15
f 1 15 16
f 1 16 2
f 2 16 17
f 3 18 19
f 4 20 5
f 5 21 27
f 5 27 33
f 5 33 34
f 5 34 28
f 5 28 22
f 5 22 13
f 5 13 12
f 5 12 11
f 5 11 10
f 5 10 9
f 5 9 8
f 5 8 7
f 5 7 6
f 5 20 21
f 13 22 29
f 13 29 35
f 13 35 38
f 13 38 37
f 13 37 36
f 13 36 31
f 13 31 30
f 13 30 23
f 13 23 18
f 13 18 17
f 13 17 16
f 13 16 15
f 13 15 14
f 18 23 19
f 19 23 24
f 20 25 21
f 21 26 27
f 21 25 26
f 22 28 29
f 23 30 24
f 24 30 31
f 24 31 32
f 26 33 27
f 28 34 29
f 29 34 35
f 31 36 32
f 32 36 37
f 32 37 38
f 32 38 39
f 34 39 38
f 34 38 35

