# https://github.com/mikedh/trimesh
v -1.71306505 -0.3007939 1.96310629
v -1.7297207 -0.3007939 1.96311763
v -1.69064996 -0.3007939 1.9632084
v -2.0654798999999997 -0.33732105 1.96648181
v -1.8631993599999999 -0.3007939 1.96338995
v -1.68014292 -0.3007939 1.96333317
v -1.44634118 -0.33732105 1.97028848
v -1.46307465 -0.33732105 1.97010693
v -1.4797303099999999 -0.33732105 1.96996511
v -1.69640941 -0.33732105 1.96827451
v -2.0654798999999997 -0.33732105 2.02105762
v -2.0654798999999997 -0.32727393 1.96627188
v -1.8797772099999999 -0.3007939 1.96351472
v -1.27036725 -0.3007939 1.97088418
v -1.27036725 -0.33732105 1.97272793
v -2.06330067 -0.3111485 2.0210519
v -2.0654798999999997 -0.3111485 2.0210519
v -1.27036725 -0.33732105 2.02100657
v -1.27036725 -0.33526516 2.02100657
v -2.0654798999999997 -0.30400111 1.96631726
v -1.8964328799999999 -0.3007939 1.96374165
v -1.27036725 -0.3007939 2.02091007
v -2.06330067 -0.30400111 2.02104629
v -2.0654798999999997 -0.30400111 2.02104629
v -1.27036725 -0.32781742 2.02098951
v -1.94445405 -0.3007939 1.96599961
v -1.9430530799999999 -0.3007939 1.96579534
v -1.92842103 -0.3007939 1.96471178
v -1.27036725 -0.30192375 2.0209158
v -1.5630863799999999 -0.3007939 2.02091007
v -1.27036725 -0.31114492 2.02094979
v -1.60277974 -0.3007939 2.02090447
v -1.79642111 -0.3007939 2.02086474
v -1.8194588299999999 -0.3007939 2.02085902
v -1.82981024 -0.3007939 2.02085341
v -1.84646591 -0.3007939 2.02084196
v -1.94445405 -0.3007939 2.02077397
f 1 2 5
f 1 5 13
f 1 13 21
f 1 21 28
f 1 28 27
f 1 27 26
f 1 26 37
f 1 37 36
f 1 36 35
f 1 35 34
f 1 34 33
f 1 33 32
f 1 32 30
f 1 30 22
f 1 22 14
f 1 14 6
f 1 6 3
f 1 3 4
f 1 4 2
f 2 4 5
f 3 6 7
f 3 7 8
f 3 8 9
f 3 9 10
f 3 10 4
f 4 11 17
f 4 17 24
f 4 24 20
f 4 20 12
f 4 12 13
f 4 13 5
f 4 10 9
f 4 9 8
f 4 8 7
f 4 7 15
f 4 15 18
f 4 18 11
f 6 14 15
f 6 15 7
f 11 16 17
f 11 18 19
f 11 19 16
f 12 20 21
f 12 21 13
f 14 22 29
f 14 29 31
f 14 31 25
f 14 25 19
f 14 19 18
f 14 18 15
f 16 23 24
f 16 24 17
f 16 19 23
f 19 25 23
f 20 24 37
f 20 37 26
f 20 26 27
f 20 27 28
f 20 28 21
f 22 30 24
f 22 24 23
f 22 23 29
f 23 25 31
f 23 31 29
f 24 30 32
f 24 32 33
f 24 33 34
f 24 34 35
f 24 35 36
f 24 36 37

