# https://github.com/mikedh/trimesh
v -2.14827376 -0.29789366 1.99309747
v -2.14487802 -0.29789366 2.00977641
v -2.14825753 -0.29789366 1.98970543
v -2.14764973 -0.64449307 1.97643416
v -2.14743902 -0.64449307 1.99309747
v -2.14425399 -0.64449307 2.00977641
v -2.13993441 -0.29789366 2.01885054
v -2.13987769 -0.64449307 2.01892867
v -2.14792527 -0.29789366 1.97304212
v -2.14698515 -0.64449307 1.95991161
v -2.1474227900000002 -0.29789366 1.95975529
v -2.13004713 -0.29789366 2.02037461
v -2.13003902 -0.64449307 2.02062475
v -2.14697704 -0.64449307 1.95975529
v -2.14673394 -0.29789366 1.9573011
v -2.11336837 -0.29789366 2.02114065
v -2.12989313 -0.64449307 2.02063262
v -2.11336837 -0.64449307 2.02145317
v -2.1132063299999997 -0.64449307 2.02146104
v -2.1423900199999997 -0.64449307 1.94716399
v -2.14276278 -0.29789366 1.94668721
v -2.06548802 -0.394537 2.02113277
v -2.06548802 -0.29789366 2.02103902
v -2.0654798999999997 -0.64449307 2.02128128
v -2.13003902 -0.64449307 1.94228694
v -2.1404125499999997 -0.29789366 1.94573373
v -2.0654798999999997 -0.469327 2.02113277
v -2.06548802 -0.29789366 1.96544519
v -2.0654798999999997 -0.64449307 1.96369442
v -2.11336837 -0.59461043 1.94177891
v -2.11336837 -0.61130583 1.94185704
v -2.11336837 -0.64449307 1.9421228
v -2.13004713 -0.29789366 1.94173203
v -2.1266432799999997 -0.29789366 1.94161478
v -2.0654798999999997 -0.469327 1.96597665
v -2.08826927 -0.34869249 1.95130638
v -2.08888519 -0.29789366 1.95174408
v -2.0654798999999997 -0.47801404000000003 1.96581252
v -2.09854559 -0.64449307 1.94699985
v -2.09788101 -0.62796732 1.94688266
v -2.0951660800000003 -0.5951194399999999 1.94745319
v -2.09669779 -0.5779489600000001 1.9463277
v -2.08808289 -0.58989364 1.95106411
v -2.08806667 -0.5779489600000001 1.95104849
v -2.08825305 -0.36121405 1.95129075
v -2.11336837 -0.5779489600000001 1.9417711
v -2.11336837 -0.29789366 1.94225568
v -2.11336837 -0.394537 1.94186491
v -2.11336837 -0.41119847 1.94181016
v -2.11336837 -0.49457371 1.94175547
v -2.11336837 -0.51126912 1.94174766
v -2.09669779 -0.36121405 1.94671853
v -2.09506069 -0.34367029 1.94772676
v -2.0972246 -0.29789366 1.94720305
v -2.09669779 -0.5279306 1.9464137
v -2.11011858 -0.29789366 1.94320136
f 1 2 7
f 1 7 12
f 1 12 16
f 1 16 23
f 1 23 28
f 1 28 37
f 1 37 54
f 1 54 56
f 1 56 47
f 1 47 34
f 1 34 33
f 1 33 26
f 1 26 21
f 1 21 15
f 1 15 11
f 1 11 9
f 1 9 3
f 1 3 4
f 1 4 5
f 1 5 6
f 1 6 2
f 2 6 8
f 2 8 7
f 3 9 4
f 4 10 14
f 4 14 20
f 4 20 25
f 4 25 32
f 4 32 39
f 4 39 29
f 4 29 24
f 4 24 19
f 4 19 18
f 4 18 17
f 4 17 13
f 4 13 8
f 4 8 6
f 4 6 5
f 4 9 11
f 4 11 10
f 7 8 13
f 7 13 12
f 10 11 14
f 11 15 14
f 12 13 17
f 12 17 18
f 12 18 19
f 12 19 16
f 14 15 20
f 15 21 20
f 16 22 23
f 16 19 22
f 19 24 22
f 20 21 26
f 20 26 25
f 22 27 23
f 22 24 27
f 23 27 35
f 23 35 28
f 24 29 38
f 24 38 35
f 24 35 27
f 25 30 31
f 25 31 32
f 25 26 33
f 25 33 34
f 25 34 30
f 28 36 37
f 28 35 38
f 28 38 29
f 28 29 36
f 29 39 40
f 29 40 41
f 29 41 42
f 29 42 43
f 29 43 44
f 29 44 45
f 29 45 36
f 30 34 46
f 30 46 42
f 30 42 31
f 31 42 32
f 32 42 40
f 32 40 39
f 34 47 48
f 34 48 49
f 34 49 50
f 34 50 51
f 34 51 46
f 36 45 52
f 36 52 53
f 36 53 54
f 36 54 37
f 40 42 41
f 42 46 51
f 42 51 50
f 42 50 49
f 42 49 55
f 42 55 45
f 42 45 44
f 42 44 43
f 45 55 52
f 47 56 52
f 47 52 48
f 48 52 49
f 49 52 55
f 52 56 54
f 52 54 53

