# https://github.com/mikedh/trimesh
v -2.9986807649999996 -0.67803271 0.09658036
v -2.9820252050000002 -0.69471193 0.09755257
v -3.0895504449999995 -0.68726077 0.09731394
v -3.0895504449999995 -0.67803271 0.0967925
v -3.0895504449999995 -0.66624825 0.09852472
v -3.0153363549999996 -0.66606991 0.09848936
v -2.348338935 -0.6665323000000001 0.09883402
v -2.348338935 -0.67803271 0.09722556
v -2.2981398449999997 -0.69471193 0.097747
v -2.781848515 -0.7040588999999999 0.09926708
v -2.7985815450000002 -0.7040588999999999 0.09927591
v -2.8152371350000003 -0.7040456900000001 0.09928473
v -3.0895504449999995 -0.70377486 0.09951453
v -3.0895504449999995 -0.69471193 0.09777348
v -3.0895504449999995 -0.65791195 0.10441955
v -3.0153363549999996 -0.6577269800000001 0.1040218
v -2.3649944849999995 -0.65818278 0.10470231
v -2.348338935 -0.6581959900000001 0.10479953
v -2.3150278149999997 -0.65841398 0.10486144
v -2.3150278149999997 -0.66675029 0.09896661
v -2.3150278149999997 -0.67803271 0.09732277
v -2.331683375 -0.67803271 0.09726092
v -2.2981398449999997 -0.67817803 0.09758788
v -2.2981398449999997 -0.70392678 0.09942614
v -2.4650828349999996 -0.70399946 0.09937312
v -2.4817384549999995 -0.70400606 0.09937312
v -2.2981398449999997 -0.70644353 0.10861747
v -2.4650828349999996 -0.70646336 0.10861747
v -2.7151487850000002 -0.70635766 0.10861747
v -2.8152371350000003 -0.7063048199999999 0.10861747
v -2.9153254649999996 -0.70619253 0.10861747
v -2.9319810349999997 -0.7061661100000001 0.10861747
v -3.0895504449999995 -0.70567729 0.10861747
v -3.0895504449999995 -0.64102134 0.11802094
v -3.0153363549999996 -0.64102134 0.11772046
v -2.3150278149999997 -0.64102134 0.1189489
v -2.2981398449999997 -0.64102134 0.11906377
v -2.298294725 -0.66745049 0.09928473
v -2.2981398449999997 -0.66754296 0.09925825
v -2.2981398449999997 -0.67803271 0.09760559
v -2.2981398449999997 -0.70397303 0.09953224
v -2.2981398449999997 -0.70646336 0.10875888
v -2.2981398449999997 -0.7082666900000001 0.12530326
v -2.681915115 -0.70794302 0.12529444
v -2.9153254649999996 -0.70765897 0.12529444
v -2.698493195 -0.7079232 0.12529444
v -3.0895504449999995 -0.7064039 0.11784416
v -2.9319810349999997 -0.70760613 0.12529444
v -3.0895504449999995 -0.64102134 0.16325286
v -2.2981398449999997 -0.64102134 0.15297451
v -2.2981398449999997 -0.7085044899999999 0.14210399
v -2.9153254649999996 -0.70806852 0.15863954
v -2.9153254649999996 -0.70788357 0.14196258
v -3.0895504449999995 -0.7069851899999999 0.12529444
v -2.9319810349999997 -0.70782411 0.14196258
v -3.0895504449999995 -0.7072494300000001 0.14196258
v -3.0895504449999995 -0.64956243 0.17161344
v -3.048724935 -0.64954261 0.17179022
v -3.032069385 -0.64955582 0.1718167
v -3.0893955249999996 -0.64102134 0.16325286
v -2.2982173149999996 -0.64102134 0.16158255
v -2.2981398449999997 -0.6445421499999999 0.16167087
v -2.2981398449999997 -0.70847807 0.15864837
v -2.665182055 -0.7082931100000001 0.15863954
v -2.9153254649999996 -0.70604059 0.17531651
v -2.9319810349999997 -0.70800907 0.15863954
v -2.415038695 -0.70652941 0.17531651
v -3.0895504449999995 -0.7073881399999999 0.15863954
v -3.0895504449999995 -0.6535654399999999 0.17533417
v -3.048724935 -0.6585658999999999 0.18012426
v -3.032069385 -0.65853948 0.18015963
v -2.627532755 -0.64102134 0.16307614
v -2.6598367949999995 -0.64102134 0.1630938
v -2.3649944849999995 -0.6671202 0.18523254
v -2.348338935 -0.66718626 0.18519717
v -2.298294725 -0.66770149 0.18513532
v -2.2981398449999997 -0.66765525 0.18504693
v -2.610722245 -0.64102134 0.16303195
v -2.2981398449999997 -0.7084648600000001 0.15878095
v -2.9153254649999996 -0.7034974199999999 0.18406595
v -3.0895504449999995 -0.7031010799999999 0.18370357
v -3.0895504449999995 -0.70407872 0.17995637
v -3.0895504449999995 -0.70528094 0.17531651
v -3.0895504449999995 -0.70622555 0.16786624
v -2.3983831349999996 -0.7065360199999999 0.17531651
v -2.415038695 -0.70386734 0.18445482
v -2.4484272750000002 -0.7038475200000001 0.18442828
v -3.0895504449999995 -0.6585725099999999 0.17994748
v -3.0895504449999995 -0.66691543 0.18465807
v -3.0153363549999996 -0.65849985 0.18008006
v -2.965292175 -0.66671065 0.18475529
v -2.431771725 -0.66708056 0.185206
v -2.3649944849999995 -0.67803271 0.18685866
v -2.2981398449999997 -0.67803271 0.18685866
v -2.2981398449999997 -0.7065096 0.17531651
v -2.9153254649999996 -0.69471193 0.18546228
v -2.4484272750000002 -0.69471193 0.18604557
v -3.0895504449999995 -0.69845733 0.18441945
v -2.3983831349999996 -0.70387394 0.18445482
v -2.2981398449999997 -0.6947185300000001 0.18615167
v -3.0895504449999995 -0.67803271 0.18594835
v -2.948636595 -0.67803271 0.18621352
v -2.7985815450000002 -0.67803271 0.1864698
v -2.948636595 -0.6669616700000001 0.18483485
v -2.781848515 -0.66710699 0.18501157
v -2.765192925 -0.66708056 0.18501157
v -2.7985815450000002 -0.6671268 0.18500274
v -2.8318926849999997 -0.66714662 0.1849762
v -2.2981398449999997 -0.70384091 0.18442828
v -3.0895504449999995 -0.69471193 0.18499391
f 1 2 3
f 1 3 4
f 1 4 5
f 1 5 6
f 1 6 7
f 1 7 8
f 1 8 9
f 1 9 2
f 2 10 11
f 2 11 12
f 2 12 13
f 2 13 14
f 2 14 3
f 2 9 10
f 3 14 13
f 3 13 33
f 3 33 47
f 3 47 54
f 3 54 56
f 3 56 68
f 3 68 84
f 3 84 83
f 3 83 82
f 3 82 81
f 3 81 98
f 3 98 110
f 3 110 101
f 3 101 89
f 3 89 88
f 3 88 69
f 3 69 57
f 3 57 49
f 3 49 34
f 3 34 15
f 3 15 5
f 3 5 4
f 5 15 16
f 5 16 6
f 6 16 7
f 7 17 18
f 7 18 19
f 7 19 20
f 7 20 21
f 7 21 22
f 7 22 8
f 7 16 17
f 8 22 9
f 9 22 21
f 9 21 23
f 9 23 40
f 9 40 39
f 9 39 37
f 9 37 50
f 9 50 62
f 9 62 77
f 9 77 94
f 9 94 100
f 9 100 109
f 9 109 95
f 9 95 79
f 9 79 63
f 9 63 51
f 9 51 43
f 9 43 42
f 9 42 27
f 9 27 41
f 9 41 24
f 9 24 25
f 9 25 10
f 10 25 26
f 10 26 27
f 10 27 28
f 10 28 11
f 11 29 30
f 11 30 12
f 11 28 29
f 12 30 31
f 12 31 13
f 13 31 32
f 13 32 33
f 15 34 16
f 16 34 35
f 16 35 17
f 17 36 18
f 17 35 36
f 18 36 37
f 18 37 19
f 19 37 38
f 19 38 20
f 20 38 39
f 20 39 40
f 20 40 21
f 21 40 23
f 24 41 25
f 25 41 27
f 25 27 26
f 27 42 28
f 28 42 43
f 28 43 29
f 29 43 30
f 30 43 44
f 30 44 31
f 31 45 32
f 31 44 46
f 31 46 45
f 32 45 33
f 33 45 48
f 33 48 47
f 34 49 60
f 34 60 73
f 34 73 72
f 34 72 78
f 34 78 61
f 34 61 50
f 34 50 37
f 34 37 36
f 34 36 35
f 37 39 38
f 43 51 44
f 44 51 52
f 44 52 53
f 44 53 46
f 45 53 48
f 45 46 53
f 47 48 54
f 48 53 55
f 48 55 56
f 48 56 54
f 49 57 58
f 49 58 59
f 49 59 60
f 50 61 62
f 51 63 64
f 51 64 52
f 52 65 66
f 52 66 55
f 52 55 53
f 52 64 67
f 52 67 65
f 55 66 56
f 56 66 68
f 57 69 58
f 58 70 71
f 58 71 59
f 58 69 70
f 59 71 72
f 59 72 73
f 59 73 60
f 61 74 75
f 61 75 76
f 61 76 77
f 61 77 62
f 61 78 74
f 63 79 64
f 64 79 67
f 65 80 81
f 65 81 82
f 65 82 83
f 65 83 84
f 65 84 68
f 65 68 66
f 65 67 80
f 67 79 85
f 67 85 99
f 67 99 86
f 67 86 87
f 67 87 80
f 69 88 70
f 70 88 89
f 70 89 71
f 71 90 72
f 71 89 91
f 71 91 92
f 71 92 74
f 71 74 90
f 72 90 78
f 74 92 93
f 74 93 94
f 74 94 75
f 74 78 90
f 75 94 76
f 76 94 77
f 79 95 85
f 80 96 81
f 80 87 97
f 80 97 96
f 81 96 98
f 85 95 99
f 86 97 87
f 86 99 100
f 86 100 97
f 89 101 102
f 89 102 103
f 89 103 104
f 89 104 91
f 91 104 105
f 91 105 106
f 91 106 92
f 92 106 105
f 92 105 93
f 93 103 97
f 93 97 100
f 93 100 94
f 93 105 107
f 93 107 108
f 93 108 103
f 95 109 99
f 96 103 102
f 96 102 101
f 96 101 110
f 96 110 98
f 96 97 103
f 99 109 100
f 103 108 104
f 104 108 107
f 104 107 105

