# https://github.com/mikedh/trimesh
v -2.55845806 1.61855975 0.56942362
v -2.55845806 1.61855975 0.51159494
v -2.56243655 1.61855975 0.56943533
v -2.56471864 1.60568785 0.56948814
v -2.55845806 1.58901197 0.56952918
v -2.55845806 1.57043411 0.50978851
v -2.76471368 1.61855975 0.51045713
v -2.56851537 1.61855975 0.56945294
v -2.56471864 1.58901197 0.56954679
v -2.55845806 1.57234949 0.56957024
v -2.55845806 1.49166239 0.50978851
v -2.76469349 1.57204143 0.50978851
v -2.76475407 1.57234949 0.50992340
v -2.76475407 1.60568785 0.51043365
v -2.76475407 1.61855975 0.55630951
v -2.58137985 1.61855975 0.56948227
v -2.58137985 1.60568785 0.56952918
v -2.58137985 1.58901197 0.56958196
v -2.56471864 1.57234949 0.56958783
v -2.55845806 1.55568702 0.56958783
v -2.55845806 1.48184438 0.52020472
v -2.55847825 1.48177741 0.50978851
v -2.76475407 1.55679874 0.50978851
v -2.76475407 1.61855975 0.56964061
v -2.59806124 1.61855975 0.56951159
v -2.59806124 1.60568785 0.56955850
v -2.59806124 1.58901197 0.56959957
v -2.58137985 1.57234949 0.56959957
v -2.56471864 1.55568702 0.56959957
v -2.55845806 1.53903794 0.56952331
v -2.55845806 1.48201852 0.52645679
v -2.56471864 1.48183100 0.52020472
v -2.56471864 1.48176400 0.50978851
v -2.76475407 1.48229979 0.50978851
v -2.76475407 1.60562088 0.56968168
v -2.76469349 1.60568785 0.56968168
v -2.60185798 1.61855975 0.56951746
v -2.63138366 1.58901197 0.56962302
v -2.58137985 1.55568702 0.56961128
v -2.66470607 1.57234949 0.56965822
v -2.56471864 1.53903794 0.56952918
v -2.55845806 1.52236206 0.56942362
v -2.55845806 1.48235335 0.53687299
v -2.61472245 1.48223280 0.53687299
v -2.61472245 1.48181759 0.52020472
v -2.62514327 1.48172383 0.50978851
v -2.76475407 1.48227300 0.52014019
v -2.74803228 1.48221941 0.50978851
v -2.76475407 1.58895840 0.56969926
v -2.76469349 1.58901197 0.56970513
v -2.66470607 1.55568702 0.56965235
v -2.58137985 1.53903794 0.56953505
v -2.56471864 1.52236206 0.56942362
v -2.55845806 1.51195471 0.56921246
v -2.66470607 1.53903794 0.56956437
v -2.55845806 1.48351866 0.54311919
v -2.59806124 1.48540725 0.55353539
v -2.61472245 1.48538045 0.55353539
v -2.64804486 1.48536707 0.55353539
v -2.63138366 1.48223280 0.53687299
v -2.63138366 1.48181759 0.52020472
v -2.64180448 1.48175062 0.50978851
v -2.66470607 1.48183100 0.50978851
v -2.65846568 1.48180418 0.50978851
v -2.76469349 1.48227300 0.52020472
v -2.76475407 1.48263465 0.53680847
v -2.76475407 1.57229592 0.56968755
v -2.76475407 1.55562005 0.56965235
v -2.64804486 1.52236206 0.56941187
v -2.56471864 1.50569957 0.56908345
v -2.55845806 1.50569957 0.56907171
v -2.76475407 1.53897097 0.56952331
v -2.66470607 1.52236206 0.56940600
v -2.55845806 1.48548762 0.55353539
v -2.55845806 1.49282767 0.56531226
v -2.73137108 1.49259997 0.56524187
v -2.73137108 1.48542066 0.55353539
v -2.76475407 1.48546083 0.55347087
v -2.64804486 1.48225959 0.53687299
v -2.64804486 1.48185776 0.52020472
v -2.64804486 1.48176400 0.50978851
v -2.76469349 1.48263465 0.53687299
v -2.58137985 1.49284108 0.56532401
v -2.56471864 1.49284108 0.56532401
v -2.66470607 1.50569957 0.56898960
v -2.76475407 1.52230848 0.56927699
v -2.76469349 1.52236206 0.56928286
v -2.74803228 1.52236206 0.56930631
v -2.73137108 1.50569957 0.56891337
v -2.74803228 1.50569957 0.56888404
v -2.74803228 1.49268035 0.56523016
v -2.76469349 1.49273391 0.56520670
v -2.76475407 1.49270714 0.56516563
v -2.76469349 1.48547421 0.55353539
v -2.76475407 1.50564601 0.56883126
v -2.76469349 1.50569957 0.56884884
f 1 2 7
f 1 7 15
f 1 15 24
f 1 24 37
f 1 37 25
f 1 25 16
f 1 16 8
f 1 8 3
f 1 3 4
f 1 4 5
f 1 5 10
f 1 10 20
f 1 20 30
f 1 30 42
f 1 42 54
f 1 54 71
f 1 71 75
f 1 75 74
f 1 74 56
f 1 56 43
f 1 43 31
f 1 31 21
f 1 21 11
f 1 11 6
f 1 6 2
f 2 6 7
f 3 8 4
f 4 9 5
f 4 8 9
f 5 9 19
f 5 19 10
f 6 11 22
f 6 22 33
f 6 33 46
f 6 46 62
f 6 62 81
f 6 81 64
f 6 64 63
f 6 63 48
f 6 48 34
f 6 34 23
f 6 23 12
f 6 12 7
f 7 12 13
f 7 13 14
f 7 14 15
f 8 16 17
f 8 17 9
f 9 17 18
f 9 18 19
f 10 19 20
f 11 21 22
f 12 23 13
f 13 23 34
f 13 34 47
f 13 47 66
f 13 66 78
f 13 78 93
f 13 93 95
f 13 95 86
f 13 86 72
f 13 72 68
f 13 68 67
f 13 67 49
f 13 49 35
f 13 35 24
f 13 24 15
f 13 15 14
f 16 25 26
f 16 26 17
f 17 26 18
f 18 26 27
f 18 27 19
f 19 27 38
f 19 38 28
f 19 28 39
f 19 39 29
f 19 29 20
f 20 29 30
f 21 31 32
f 21 32 33
f 21 33 22
f 24 35 36
f 24 36 26
f 24 26 37
f 25 37 26
f 26 36 27
f 27 36 38
f 28 38 40
f 28 40 39
f 29 39 41
f 29 41 30
f 30 41 42
f 31 43 44
f 31 44 32
f 32 44 45
f 32 45 46
f 32 46 33
f 34 48 47
f 35 49 50
f 35 50 36
f 36 50 38
f 38 50 40
f 39 40 51
f 39 51 41
f 40 50 51
f 41 52 42
f 41 51 52
f 42 53 54
f 42 52 55
f 42 55 53
f 43 56 44
f 44 57 58
f 44 58 59
f 44 59 60
f 44 60 61
f 44 61 45
f 44 56 57
f 45 61 46
f 46 61 62
f 47 63 64
f 47 64 65
f 47 65 82
f 47 82 66
f 47 48 63
f 49 67 50
f 50 67 51
f 51 67 68
f 51 68 55
f 51 55 52
f 53 69 54
f 53 55 69
f 54 69 70
f 54 70 71
f 55 68 72
f 55 72 73
f 55 73 69
f 56 74 57
f 57 74 75
f 57 75 58
f 58 75 76
f 58 76 59
f 59 76 77
f 59 77 60
f 60 77 78
f 60 78 79
f 60 79 61
f 61 79 80
f 61 80 81
f 61 81 62
f 64 81 65
f 65 81 80
f 65 80 82
f 66 82 78
f 69 73 70
f 70 83 84
f 70 84 75
f 70 75 71
f 70 73 85
f 70 85 76
f 70 76 83
f 72 86 87
f 72 87 88
f 72 88 73
f 73 88 89
f 73 89 85
f 75 84 76
f 76 85 89
f 76 89 90
f 76 90 91
f 76 91 92
f 76 92 93
f 76 93 94
f 76 94 77
f 76 84 83
f 77 94 78
f 78 94 93
f 78 82 79
f 79 82 80
f 86 95 96
f 86 96 87
f 87 96 90
f 87 90 89
f 87 89 88
f 90 96 91
f 91 96 92
f 92 96 95
f 92 95 93

