# https://github.com/mikedh/trimesh
v -1.27030122 -0.61143877 1.22771749
v -1.27030122 -0.61143877 1.17846195
v -1.32961008 -0.61143877 1.22775915
v -1.27030122 -0.69470376 1.22805081
v -1.27030122 -0.64766707 1.14804701
v -1.52981633 -0.63669288 1.15163014
v -1.54642903 -0.63658925 1.15143848
v -1.56304173 -0.6364959800000001 1.15124683
v -1.60434058 -0.63635091 1.15092186
v -1.66318367 -0.6361643800000001 1.15069687
v -1.67971875 -0.63611257 1.15063854
v -1.41282882 -0.61143877 1.17780366
v -1.3296877 -0.61143877 1.22775915
v -1.92999598 -0.61143877 1.22775082
v -1.34630041 -0.69470376 1.22804246
v -1.34630041 -0.7094810899999999 1.22285944
v -1.27030122 -0.70935674 1.22287609
v -1.27030122 -0.65525263 1.14625544
v -1.71302175 -0.64469295 1.14761372
v -1.52981633 -0.64502456 1.14808035
v -1.6963314299999999 -0.6360814800000001 1.15059687
v -1.42951915 -0.61143877 1.17772866
v -2.06336329 -0.61143877 1.22771749
v -2.0632857 -0.64469295 1.22779249
v -2.06336329 -0.64471368 1.22779249
v -2.02998264 -0.69470376 1.22784248
v -1.81308609 -0.70946036 1.22274276
v -1.36291311 -0.7095121600000001 1.22283443
v -1.46297742 -0.71670395 1.20927687
v -1.44636472 -0.71668323 1.20927687
v -1.27030122 -0.71244485 1.21680978
v -1.27030122 -0.66136667 1.14481387
v -1.72971208 -0.64469295 1.14757204
v -1.82985401 -0.6358535000000001 1.15033855
v -1.46289979 -0.61143877 1.17762034
v -2.06336329 -0.61143877 1.17849528
v -2.06336329 -0.6947244800000001 1.22781748
v -2.0465177199999998 -0.69470376 1.22783415
v -1.86315708 -0.70944999 1.22270944
v -1.57973206 -0.71675575 1.20927687
v -1.57973206 -0.70960544 1.22270944
v -1.44636472 -0.7096158100000001 1.22270944
v -1.54642903 -0.7167454 1.20927687
v -1.56304173 -0.71730499 1.19261114
v -1.54642903 -0.71729463 1.19261114
v -1.51304839 -0.7172531799999999 1.19261114
v -1.27030122 -0.71685938 1.19261114
v -1.27030122 -0.71626871 1.20927687
v -1.27030122 -0.67057918 1.14448055
v -2.06336329 -0.69470376 1.14293065
v -2.0632857 -0.66136667 1.1441889
v -1.82985401 -0.64469295 1.14737205
v -1.99660204 -0.64469295 1.14724707
v -1.99660204 -0.6358327699999999 1.15029689
v -1.64641572 -0.61143877 1.17750368
v -2.0632857 -0.61143877 1.17813697
v -2.06336329 -0.63614365 1.15068852
v -2.06336329 -0.7089836700000001 1.22269277
v -2.0632857 -0.7089629399999999 1.22271777
v -2.0465177199999998 -0.7089940299999999 1.22272611
v -2.0132923099999998 -0.70903548 1.22274276
v -1.86315708 -0.71626871 1.20927687
v -1.81308609 -0.7163827 1.20927687
v -1.61319034 -0.7167350299999999 1.20927687
v -1.59650001 -0.71730499 1.19261114
v -1.59650001 -0.7172739 1.17594543
v -1.54642903 -0.71726354 1.17594543
v -1.52981633 -0.71724281 1.17594543
v -1.27030122 -0.71686976 1.17594543
v -1.27030122 -0.6872529199999999 1.14388059
v -1.79639577 -0.7089940299999999 1.14685542
v -1.8463891 -0.7089940299999999 1.14683875
v -2.06336329 -0.7087660499999999 1.14677209
v -2.06336329 -0.66136667 1.1441889
v -1.27030122 -0.69470376 1.14362226
v -1.27030122 -0.7088075 1.14709707
v -2.06336329 -0.64469295 1.14746372
v -1.66318367 -0.61143877 1.17750368
v -2.06336329 -0.71560549 1.20925186
v -2.0632857 -0.71560549 1.20927687
v -2.0632857 -0.71633088 1.19261114
v -1.82985401 -0.71683865 1.19261114
v -1.61319034 -0.7172739 1.19261114
v -1.82985401 -0.71684903 1.17594543
v -1.59650001 -0.7161029 1.15926304
v -1.8463891 -0.71662105 1.17227063
v -1.8463891 -0.71589565 1.15926304
v -1.56304173 -0.71609254 1.15926304
v -1.27030122 -0.71572985 1.15926304
v -1.27030122 -0.71662105 1.17227063
v -2.0632857 -0.7087867800000001 1.14678042
v -2.06336329 -0.71547078 1.15923805
v -2.06336329 -0.71633088 1.19257782
v -2.06336329 -0.71639306 1.17591209
v -2.06336329 -0.71619617 1.17227063
v -2.0632857 -0.71548113 1.15926304
f 1 2 12
f 1 12 22
f 1 22 35
f 1 35 55
f 1 55 78
f 1 78 56
f 1 56 36
f 1 36 23
f 1 23 14
f 1 14 13
f 1 13 3
f 1 3 4
f 1 4 17
f 1 17 31
f 1 31 48
f 1 48 47
f 1 47 69
f 1 69 90
f 1 90 89
f 1 89 76
f 1 76 75
f 1 75 70
f 1 70 49
f 1 49 32
f 1 32 18
f 1 18 5
f 1 5 2
f 2 5 6
f 2 6 7
f 2 7 8
f 2 8 9
f 2 9 10
f 2 10 11
f 2 11 12
f 3 13 4
f 4 13 14
f 4 14 15
f 4 15 16
f 4 16 17
f 5 18 19
f 5 19 20
f 5 20 11
f 5 11 10
f 5 10 9
f 5 9 8
f 5 8 7
f 5 7 6
f 11 19 21
f 11 21 22
f 11 22 12
f 11 20 19
f 14 23 24
f 14 24 15
f 15 24 25
f 15 25 26
f 15 26 27
f 15 27 16
f 16 28 29
f 16 29 30
f 16 30 17
f 16 27 28
f 17 30 31
f 18 32 19
f 19 33 34
f 19 34 21
f 19 32 33
f 21 34 22
f 22 34 35
f 23 36 57
f 23 57 77
f 23 77 74
f 23 74 50
f 23 50 73
f 23 73 92
f 23 92 95
f 23 95 94
f 23 94 93
f 23 93 79
f 23 79 58
f 23 58 37
f 23 37 25
f 23 25 24
f 25 37 38
f 25 38 26
f 26 38 27
f 27 38 37
f 27 37 39
f 27 39 40
f 27 40 41
f 27 41 28
f 28 42 43
f 28 43 29
f 28 41 42
f 29 43 44
f 29 44 45
f 29 45 46
f 29 46 30
f 30 47 48
f 30 48 31
f 30 46 47
f 32 49 50
f 32 50 51
f 32 51 52
f 32 52 33
f 33 52 34
f 34 52 53
f 34 53 54
f 34 54 55
f 34 55 35
f 36 56 57
f 37 58 59
f 37 59 60
f 37 60 61
f 37 61 39
f 39 61 60
f 39 60 59
f 39 59 58
f 39 58 62
f 39 62 63
f 39 63 64
f 39 64 40
f 40 44 43
f 40 43 42
f 40 42 41
f 40 64 65
f 40 65 44
f 44 65 66
f 44 66 67
f 44 67 45
f 45 67 46
f 46 68 69
f 46 69 47
f 46 67 68
f 49 70 50
f 50 71 72
f 50 72 73
f 50 74 51
f 50 70 75
f 50 75 76
f 50 76 71
f 51 74 53
f 51 53 52
f 53 74 77
f 53 77 54
f 54 77 57
f 54 57 56
f 54 56 78
f 54 78 55
f 58 79 80
f 58 80 62
f 62 80 81
f 62 81 63
f 63 81 82
f 63 82 83
f 63 83 65
f 63 65 64
f 65 83 84
f 65 84 66
f 66 85 67
f 66 84 86
f 66 86 87
f 66 87 85
f 67 85 88
f 67 88 89
f 67 89 68
f 68 89 90
f 68 90 69
f 71 76 88
f 71 88 85
f 71 85 72
f 72 91 73
f 72 85 91
f 73 91 92
f 76 89 88
f 79 93 81
f 79 81 80
f 81 93 82
f 82 93 94
f 82 94 83
f 83 94 84
f 84 94 86
f 85 87 91
f 86 94 95
f 86 95 96
f 86 96 87
f 87 96 92
f 87 92 91
f 92 96 95

