# https://github.com/mikedh/trimesh
v -3.79030954 1.46401783 1.82340285
v -3.78963546 1.46401783 1.82340285
v -3.78984349 1.46402766 1.84687100
v -3.79025959 1.46402766 1.83684655
v -3.79858124 1.46425392 1.83684655
v -3.79673384 1.46420475 1.81879210
v -3.79804032 1.46428343 1.80353521
v -3.79804867 1.46490314 1.67023826
v -3.79804867 1.46506056 1.63690111
v -3.79804032 1.46514907 1.62021955
v -3.78137205 1.46512940 1.60711262
v -3.78137205 1.46487364 1.75351650
v -3.78299474 1.46461787 1.81879210
v -3.78970204 1.46402766 1.84687100
v -3.79804032 1.46430310 1.87173790
v -3.79804032 1.46429326 1.87018375
v -3.80978217 1.47258580 1.82019091
v -3.80979052 1.47261530 1.80353521
v -3.80981555 1.47267434 1.78687958
v -3.80982378 1.47273335 1.77019807
v -3.80976560 1.47296944 1.68689395
v -3.80977395 1.47319568 1.62581462
v -3.80981555 1.47329405 1.60711262
v -3.80729402 1.47156276 1.60711262
v -3.80979052 1.47261530 1.87173790
v -3.80979052 1.47260547 1.85352806
v -3.79804032 1.46522778 1.60711262
v -3.76472869 1.46769684 1.60711262
v -3.76472869 1.46749027 1.70354959
v -3.78137205 1.46480479 1.80353521
v -3.78130547 1.46479496 1.83684655
v -3.79650919 1.46435230 1.87173790
v -3.78137205 1.46491301 1.87173790
v -3.81008175 1.47411052 1.87173790
v -3.81298607 1.48903311 1.60711262
v -3.76115870 1.46858218 1.60711262
v -3.74806870 1.47171032 1.65358262
v -3.76472869 1.46748044 1.72023110
v -3.77984085 1.46517858 1.87173790
v -3.76473703 1.46750994 1.77019807
v -3.76473703 1.46763783 1.82019091
v -3.81293612 1.48904295 1.87173790
v -3.81296938 1.48904295 1.73688674
v -3.81286126 1.49260394 1.60711262
v -3.74806870 1.47192671 1.60711262
v -3.73643503 1.47723866 1.63690111
v -3.73642669 1.47723866 1.65358262
v -3.73631851 1.47738621 1.83684655
v -3.74806870 1.47181853 1.77019807
v -3.74558883 1.47308746 1.60711262
v -3.76473703 1.46786409 1.87173790
v -3.74806870 1.47188737 1.82019091
v -3.81228702 1.50570669 1.87173790
v -3.81234531 1.50569686 1.72023110
v -3.81237023 1.50569686 1.62021955
v -3.81237023 1.50569686 1.60711262
v -3.73649327 1.47729767 1.62581462
v -3.73655150 1.47742555 1.60711262
v -3.73070138 1.48676079 1.60711262
v -3.73229915 1.48904295 1.87173790
v -3.73645166 1.47758294 1.85352806
v -3.74806870 1.47199559 1.83684655
v -3.73652653 1.47732717 1.62021955
v -3.74806870 1.47226119 1.85352806
v -3.74806870 1.47262514 1.87173790
v -3.81121353 1.52234093 1.87173790
v -3.81145493 1.52234093 1.75351650
v -3.81150476 1.52234093 1.63690111
v -3.81208734 1.51129408 1.62581462
v -3.81217890 1.50926768 1.60711262
v -3.72966949 1.48963319 1.60711262
v -3.73254878 1.50570669 1.87173790
v -3.73672626 1.47798626 1.87173790
v -3.72797188 1.50500827 1.60711262
v -3.74697858 1.47311700 1.87173790
v -3.81093899 1.52369844 1.87173790
v -3.80863382 1.53421409 1.77019807
v -3.80865051 1.53424360 1.75351650
v -3.80867543 1.53419442 1.63690111
v -3.81144659 1.52235077 1.60711262
v -3.75015744 1.56415768 1.87173790
v -3.72800514 1.50569686 1.60711262
v -3.73196626 1.52087524 1.60711262
v -3.74434892 1.56450197 1.60711262
v -3.80841746 1.53407638 1.87173790
v -3.78956889 1.56415768 1.87173790
v -3.78921108 1.56450197 1.60711262
v -3.80860891 1.53400753 1.60711262
v -3.81083909 1.52486902 1.60711262
v -3.75045702 1.56450197 1.62581462
v -3.78890316 1.56450197 1.62581462
f 1 2 14
f 1 14 3
f 1 3 4
f 1 4 5
f 1 5 6
f 1 6 7
f 1 7 8
f 1 8 9
f 1 9 10
f 1 10 11
f 1 11 2
f 2 12 13
f 2 13 14
f 2 11 12
f 3 14 15
f 3 15 16
f 3 16 5
f 3 5 4
f 5 17 18
f 5 18 19
f 5 19 20
f 5 20 21
f 5 21 22
f 5 22 23
f 5 23 24
f 5 24 10
f 5 10 9
f 5 9 8
f 5 8 7
f 5 7 6
f 5 16 15
f 5 15 25
f 5 25 26
f 5 26 17
f 10 24 27
f 10 27 11
f 11 27 24
f 11 24 23
f 11 23 35
f 11 35 44
f 11 44 56
f 11 56 70
f 11 70 80
f 11 80 89
f 11 89 88
f 11 88 87
f 11 87 84
f 11 84 83
f 11 83 82
f 11 82 74
f 11 74 71
f 11 71 59
f 11 59 58
f 11 58 50
f 11 50 45
f 11 45 36
f 11 36 28
f 11 28 29
f 11 29 12
f 12 29 30
f 12 30 13
f 13 30 31
f 13 31 14
f 14 32 15
f 14 31 33
f 14 33 32
f 15 32 33
f 15 33 39
f 15 39 51
f 15 51 65
f 15 65 75
f 15 75 73
f 15 73 60
f 15 60 72
f 15 72 81
f 15 81 86
f 15 86 85
f 15 85 76
f 15 76 66
f 15 66 53
f 15 53 42
f 15 42 34
f 15 34 25
f 17 26 19
f 17 19 18
f 19 26 25
f 19 25 34
f 19 34 35
f 19 35 20
f 20 35 23
f 20 23 21
f 21 23 22
f 28 36 37
f 28 37 29
f 29 37 38
f 29 38 31
f 29 31 30
f 31 39 33
f 31 38 40
f 31 40 41
f 31 41 39
f 34 42 43
f 34 43 35
f 35 43 44
f 36 45 37
f 37 46 47
f 37 47 48
f 37 48 49
f 37 49 40
f 37 40 38
f 37 45 50
f 37 50 46
f 39 41 51
f 40 49 52
f 40 52 41
f 41 52 51
f 42 53 54
f 42 54 55
f 42 55 43
f 43 55 44
f 44 55 56
f 46 50 57
f 46 57 58
f 46 58 59
f 46 59 47
f 47 59 48
f 48 60 61
f 48 61 62
f 48 62 52
f 48 52 49
f 48 59 60
f 50 58 63
f 50 63 57
f 51 62 64
f 51 64 65
f 51 52 62
f 53 66 67
f 53 67 68
f 53 68 54
f 54 68 69
f 54 69 55
f 55 69 56
f 56 69 70
f 57 63 58
f 59 71 60
f 60 73 61
f 60 71 74
f 60 74 72
f 61 64 62
f 61 73 75
f 61 75 64
f 64 75 65
f 66 76 67
f 67 77 78
f 67 78 68
f 67 76 77
f 68 78 79
f 68 79 80
f 68 80 70
f 68 70 69
f 72 74 82
f 72 82 83
f 72 83 84
f 72 84 81
f 76 85 77
f 77 85 86
f 77 86 78
f 78 86 79
f 79 86 87
f 79 87 88
f 79 88 89
f 79 89 80
f 81 84 90
f 81 90 91
f 81 91 86
f 84 87 91
f 84 91 90
f 86 91 87

