# https://github.com/mikedh/trimesh
v -0.74141903 2.07097830 0.85821881
v -0.74141903 2.12431337 0.85821881
v -0.71353067 2.07090827 0.85821881
v -0.74141903 2.07070347 0.95820985
v -0.74141903 2.12452357 0.87488399
v -0.56349305 2.12487384 0.87488399
v -0.46355272 2.12480378 0.85821881
v -0.64690381 2.07086514 0.85821881
v -0.64690381 2.07061725 0.95820985
v -0.74141903 2.07070886 0.96368722
v -0.74141903 2.12472295 0.90821433
v -0.73022977 2.12474450 0.90821433
v -0.51356527 2.12515408 0.90821433
v -0.44685363 2.12527802 0.90821433
v -0.33021420 2.12527263 0.87488399
v -0.44685363 2.12483072 0.85821881
v -0.63020468 2.07090827 0.85821881
v -0.63020468 2.07066037 0.95820985
v -0.63020468 2.07068192 0.97487503
v -0.64690381 2.07064419 0.97487503
v -0.66351814 2.07065498 0.97487503
v -0.74141903 2.07073041 0.97487503
v -0.74141903 2.12480378 0.92487951
v -0.71353067 2.12485769 0.92487951
v -0.44685363 2.12534809 0.92487951
v -0.43015453 2.12537503 0.92487951
v -0.43015453 2.12529957 0.90821433
v -0.31351511 2.12529418 0.87488399
v -0.33021420 2.12499240 0.85821881
v -0.43015453 2.07178667 0.85821881
v -0.61350558 2.07075198 0.95820985
v -0.61350558 2.07076274 0.97487503
v -0.63020468 2.07077893 0.99154020
v -0.63139142 2.07086514 1.00703998
v -0.64690381 2.07074120 0.99154020
v -0.66351814 2.07074659 0.99154020
v -0.74141903 2.07076274 0.98035239
v -0.74141903 2.12483072 0.93605275
v -0.69683158 2.12494391 0.94153011
v -0.43015453 2.12541273 0.94153011
v -0.41354019 2.12542891 0.94153011
v -0.34682854 2.12545046 0.92487951
v -0.33021420 2.12541273 0.90821433
v -0.34682854 2.12539658 0.90821433
v -0.31351511 2.12500858 0.85821881
v -0.29698553 2.12529957 0.87488399
v 0.12456085 2.07497695 0.85821881
v -0.39684110 2.07205611 0.95820985
v -0.39684110 2.07211000 0.97487503
v 0.12456085 2.07547814 1.00703998
v -0.61350558 2.07085975 0.99154020
v -0.63020468 2.07087054 1.00703998
v -0.64690381 2.07083281 1.00703998
v -0.64800576 2.07083281 1.00703998
v -0.66470488 2.07084896 1.00703998
v -0.74141903 2.07083281 0.99154020
v -0.74141903 2.12497624 1.00271345
v -0.71353067 2.12490618 0.94153011
v -0.69683158 2.12497624 0.95820985
v -0.43015453 2.12553132 1.00703998
v -0.41354019 2.12555826 1.00703998
v -0.69572960 2.12506786 1.00703998
v -0.39684110 2.12557441 1.00703998
v -0.33021420 2.12549359 0.94153011
v -0.33021420 2.12546125 0.92487951
v -0.16364700 2.12555826 0.94153011
v -0.18026134 2.12550434 0.92487951
v -0.29698553 2.12501394 0.85821881
v -0.18026134 2.12543970 0.90821433
v -0.16364700 2.12543970 0.90821433
v -0.16364700 2.12535345 0.89154916
v -0.16364700 2.12526184 0.87488399
v 0.12456085 2.12510556 0.87009129
v -0.26358733 2.12501934 0.85821881
v -0.28028643 2.12501934 0.85821881
v 0.12456085 2.12491157 0.85821881
v -0.61350558 2.07095136 1.00703998
v 0.12456085 2.12537503 1.00703998
v -0.74141903 2.07094597 1.00703998
v -0.74141903 2.07087054 0.99703214
v -0.74141903 2.12498164 1.00703998
v -0.71353067 2.12503552 1.00703998
v -0.38022676 2.12558520 1.00703998
v -0.16364700 2.12567142 1.00703998
v -0.14576117 2.12566602 1.00703998
v -0.12914683 2.12565526 1.00703998
v 0.05301745 2.12544507 0.95820985
v 0.12456085 2.12521875 0.88675647
v -0.16364700 2.12550434 0.92487951
v 0.12456085 2.12517562 0.87488399
v 0.12456085 2.12538040 0.99154020
v 0.07090329 2.12548280 1.00703998
v 0.05301745 2.12550974 1.00703998
v 0.05301745 2.12549359 0.99154020
v 0.05301745 2.12547201 0.97487503
v 0.12456085 2.12532112 0.93673742
v 0.12456085 2.12528878 0.92008681
v 0.12456085 2.12534809 0.95820985
v 0.06971655 2.12547201 0.99154020
v 0.06971655 2.12545046 0.97487503
v 0.12456085 2.12534270 0.95340259
f 1 2 7
f 1 7 16
f 1 16 29
f 1 29 45
f 1 45 68
f 1 68 75
f 1 75 74
f 1 74 76
f 1 76 47
f 1 47 30
f 1 30 17
f 1 17 8
f 1 8 3
f 1 3 4
f 1 4 10
f 1 10 22
f 1 22 37
f 1 37 56
f 1 56 80
f 1 80 79
f 1 79 81
f 1 81 57
f 1 57 38
f 1 38 23
f 1 23 11
f 1 11 5
f 1 5 2
f 2 5 6
f 2 6 7
f 3 8 9
f 3 9 4
f 4 9 10
f 5 11 6
f 6 11 12
f 6 12 13
f 6 13 14
f 6 14 15
f 6 15 7
f 7 15 16
f 8 17 18
f 8 18 9
f 9 18 19
f 9 19 20
f 9 20 21
f 9 21 10
f 10 21 22
f 11 23 24
f 11 24 12
f 12 24 13
f 13 24 14
f 14 24 25
f 14 25 26
f 14 26 27
f 14 27 28
f 14 28 15
f 15 28 29
f 15 29 16
f 17 30 18
f 18 31 32
f 18 32 19
f 18 30 31
f 19 32 51
f 19 51 33
f 19 33 34
f 19 34 20
f 20 34 35
f 20 35 36
f 20 36 21
f 21 36 22
f 22 36 37
f 23 38 39
f 23 39 24
f 24 39 25
f 25 40 26
f 25 39 40
f 26 40 41
f 26 41 42
f 26 42 43
f 26 43 44
f 26 44 28
f 26 28 27
f 28 45 29
f 28 44 43
f 28 43 46
f 28 46 68
f 28 68 45
f 30 47 31
f 31 47 32
f 32 48 49
f 32 49 50
f 32 50 51
f 32 47 48
f 33 51 77
f 33 77 52
f 33 52 34
f 34 53 35
f 34 52 77
f 34 77 50
f 34 50 78
f 34 78 92
f 34 92 93
f 34 93 86
f 34 86 85
f 34 85 84
f 34 84 83
f 34 83 63
f 34 63 61
f 34 61 60
f 34 60 62
f 34 62 82
f 34 82 81
f 34 81 79
f 34 79 55
f 34 55 54
f 34 54 53
f 35 53 54
f 35 54 36
f 36 54 55
f 36 55 56
f 36 56 37
f 38 57 58
f 38 58 39
f 39 58 57
f 39 57 59
f 39 59 40
f 40 60 61
f 40 61 41
f 40 59 62
f 40 62 60
f 41 61 63
f 41 63 42
f 42 63 64
f 42 64 65
f 42 65 43
f 43 65 66
f 43 66 67
f 43 67 46
f 46 67 69
f 46 69 70
f 46 70 71
f 46 71 72
f 46 72 73
f 46 73 74
f 46 74 75
f 46 75 68
f 47 76 73
f 47 73 90
f 47 90 88
f 47 88 97
f 47 97 96
f 47 96 101
f 47 101 98
f 47 98 91
f 47 91 78
f 47 78 50
f 47 50 49
f 47 49 48
f 50 77 51
f 55 79 80
f 55 80 56
f 57 81 82
f 57 82 59
f 59 82 62
f 63 83 64
f 64 83 84
f 64 84 66
f 64 66 65
f 66 84 85
f 66 85 86
f 66 86 87
f 66 87 88
f 66 88 89
f 66 89 67
f 67 89 70
f 67 70 69
f 70 89 90
f 70 90 71
f 71 90 72
f 72 90 73
f 73 76 74
f 78 91 92
f 86 93 94
f 86 94 95
f 86 95 87
f 87 95 96
f 87 96 97
f 87 97 88
f 88 90 89
f 91 98 99
f 91 99 92
f 92 99 93
f 93 99 94
f 94 99 100
f 94 100 95
f 95 100 96
f 96 100 99
f 96 99 101
f 98 101 99

