# https://github.com/mikedh/trimesh
v 1.80900873 1.55908923 1.89441998
v 1.80900873 1.55568463 1.89444085
v 1.77258729 1.51076564 1.89513966
v 1.77258729 1.51623474 1.89513966
v 1.79971606 1.55908923 1.89487888
v 1.82227704 1.55908923 1.89465989
v 1.89602628 1.51835719 1.89505621
v 1.89602628 1.50854181 1.89505621
v 1.82268790 1.49716900 1.89509793
v 1.81412029 1.49716900 1.89509793
v 1.77258729 1.50397093 1.89531692
v 1.77258729 1.51777768 1.89519181
v 1.79273144 1.55908923 1.90320155
v 1.77258729 1.52455791 1.89542123
v 1.77258729 1.53902384 1.89894634
v 1.77258729 1.54952013 1.90707087
v 1.82567269 1.55908923 1.89472248
v 1.89602628 1.52483317 1.89529606
v 1.89602628 1.50020415 1.89532735
v 1.82721944 1.49233011 1.90188743
v 1.89602628 1.49120008 1.90366045
v 1.80874286 1.49235183 1.90195002
v 1.77258729 1.49127250 1.90370217
v 1.77258729 1.49327181 1.90215864
v 1.77258729 1.50242802 1.89536908
v 1.77258729 1.55908923 1.93157990
v 1.83252435 1.55908923 1.89506664
v 1.89602628 1.52668033 1.89536908
v 1.77568080 1.49127250 1.90369174
v 1.84233667 1.49119284 1.90361872
v 1.89602628 1.48509354 1.92022233
v 1.82567269 1.48511526 1.92022233
v 1.77258729 1.48638292 1.91716649
v 1.77258729 1.55908923 1.99816109
v 1.83422823 1.55908923 1.89518138
v 1.89602628 1.53902384 1.89912366
v 1.84233667 1.48509354 1.92022233
v 1.89602628 1.48518044 1.97021034
v 1.77258729 1.48527462 1.92022233
v 1.85900059 1.48525289 1.97021034
v 1.77258729 1.53902384 1.99995496
v 1.77568080 1.55908923 1.99817158
v 1.89602628 1.55908923 1.93289402
v 1.89602628 1.54898409 1.90731072
v 1.89602628 1.48565854 1.97391277
v 1.77258729 1.48558612 1.96712327
v 1.80900873 1.48542673 1.97021034
v 1.87566457 1.48745500 1.98687653
v 1.77258729 1.53593796 2.00015309
v 1.77568080 1.53902384 1.99996534
v 1.77907644 1.55908923 1.99818195
v 1.89602628 1.55908923 1.99812986
v 1.89602628 1.48741155 1.98687653
v 1.77258729 1.48560784 1.97021034
v 1.80900873 1.48772302 1.98687653
v 1.79234475 1.48779547 1.98687653
v 1.79234475 1.49370645 1.99774397
v 1.77568080 1.49374990 1.99771262
v 1.77258729 1.52235577 2.00095621
v 1.79234475 1.53902384 1.99999669
v 1.82567269 1.55908923 1.99829663
v 1.79574039 1.55908923 1.99822367
v 1.89602628 1.53902384 1.99992373
v 1.89232850 1.55908923 1.99814023
v 1.89602628 1.49351810 1.99771262
v 1.87566457 1.49352534 1.99773348
v 1.77258729 1.48747673 1.98378940
v 1.77258729 1.49267781 1.99571025
v 1.77258729 1.48790413 1.98687653
v 1.77568080 1.50569498 2.00051811
v 1.77258729 1.50569498 2.00050774
v 1.77258729 1.49376439 1.99770225
v 1.89602628 1.50569498 2.00053898
v 1.77568080 1.52235577 2.00095621
v 1.82567269 1.53902384 1.99999669
v 1.82908037 1.55908923 1.99829663
v 1.89602628 1.52605737 2.00069550
v 1.84233667 1.55908923 1.99826540
v 1.89602628 1.49623454 1.99834885
v 1.89602628 1.52235577 2.00090400
f 1 2 3
f 1 3 4
f 1 4 5
f 1 5 13
f 1 13 26
f 1 26 34
f 1 34 42
f 1 42 51
f 1 51 62
f 1 62 61
f 1 61 76
f 1 76 78
f 1 78 64
f 1 64 52
f 1 52 43
f 1 43 35
f 1 35 27
f 1 27 17
f 1 17 6
f 1 6 7
f 1 7 8
f 1 8 2
f 2 9 10
f 2 10 3
f 2 8 9
f 3 11 25
f 3 25 24
f 3 24 23
f 3 23 33
f 3 33 39
f 3 39 46
f 3 46 54
f 3 54 67
f 3 67 69
f 3 69 68
f 3 68 72
f 3 72 71
f 3 71 59
f 3 59 49
f 3 49 41
f 3 41 34
f 3 34 26
f 3 26 16
f 3 16 15
f 3 15 14
f 3 14 12
f 3 12 4
f 3 10 11
f 4 12 5
f 5 12 14
f 5 14 15
f 5 15 16
f 5 16 13
f 6 17 7
f 7 18 28
f 7 28 36
f 7 36 44
f 7 44 43
f 7 43 52
f 7 52 63
f 7 63 77
f 7 77 80
f 7 80 73
f 7 73 79
f 7 79 65
f 7 65 53
f 7 53 45
f 7 45 38
f 7 38 31
f 7 31 21
f 7 21 19
f 7 19 8
f 7 17 18
f 8 19 9
f 9 20 10
f 9 19 21
f 9 21 20
f 10 20 22
f 10 22 23
f 10 23 24
f 10 24 25
f 10 25 11
f 13 16 26
f 17 27 28
f 17 28 18
f 20 29 23
f 20 23 22
f 20 21 30
f 20 30 29
f 21 31 30
f 23 29 30
f 23 30 32
f 23 32 33
f 27 35 28
f 28 35 36
f 30 31 37
f 30 37 32
f 31 38 37
f 32 39 33
f 32 37 38
f 32 38 40
f 32 40 39
f 34 41 50
f 34 50 42
f 35 43 44
f 35 44 36
f 38 45 40
f 39 40 47
f 39 47 46
f 40 45 48
f 40 48 47
f 41 49 50
f 42 50 51
f 45 53 48
f 46 47 54
f 47 55 56
f 47 56 54
f 47 48 55
f 48 53 57
f 48 57 58
f 48 58 55
f 49 59 60
f 49 60 50
f 50 60 61
f 50 61 62
f 50 62 51
f 52 64 63
f 53 65 66
f 53 66 57
f 54 56 67
f 55 58 56
f 56 58 68
f 56 68 69
f 56 69 67
f 57 70 58
f 57 66 70
f 58 70 71
f 58 71 72
f 58 72 68
f 59 71 70
f 59 70 73
f 59 73 74
f 59 74 75
f 59 75 60
f 60 75 76
f 60 76 61
f 63 64 78
f 63 78 76
f 63 76 75
f 63 75 77
f 65 79 66
f 66 79 73
f 66 73 70
f 73 80 74
f 74 80 75
f 75 80 77

