# https://github.com/mikedh/trimesh
v 1.30790868 1.78999798 0.17910331
v 1.30790868 1.78999798 0.13463348
v 1.12653933 1.78999798 0.17953968
v 1.12558883 1.73898911 0.18008388
v 1.30790868 1.73898911 0.17957563
v 1.30790868 1.55471465 0.13346296
v 0.89375749 1.55471465 0.12978198
v 0.70901824 1.55388260 0.12882705
v 1.05801814 1.78999798 0.13353484
v 1.04229199 1.73898911 0.18022765
v 0.97670871 1.78999798 0.17966807
v 1.04229199 1.72232513 0.18026359
v 1.12558883 1.72232513 0.18011469
v 1.14217909 1.72232513 0.18007875
v 1.30790868 1.73790283 0.17957563
v 1.30790868 1.55471465 0.17948324
v 0.81365777 1.55388260 0.12975117
v 0.72569491 1.55388260 0.12894513
v 0.42516959 1.55388260 0.12783105
v 0.95804468 1.78999798 0.13314467
v 0.99234844 1.73898911 0.18026871
v 0.97567182 1.78999798 0.17966807
v 1.05896867 1.55471465 0.17964751
v 1.02570174 1.72232513 0.18027384
v 0.79231508 1.55388260 0.17954487
v 0.80717720 1.55388260 0.17951405
v 0.80899176 1.55388260 0.17950893
v 0.81365777 1.55388260 0.17948836
v 0.42516959 1.55388260 0.17978615
v 0.42516959 1.78780231 0.13172773
v 0.92469138 1.78999798 0.13304197
v 0.99234844 1.72232513 0.18027384
v 0.95994567 1.78999798 0.17964238
v 0.72569491 1.78780231 0.17925733
v 0.77572483 1.73901222 0.17979128
v 0.42516959 1.62238750 0.17953968
v 0.42516959 1.57188709 0.17975533
v 0.42516959 1.55566225 0.17979128
v 1.04229199 1.55471465 0.17965263
v 0.42568803 1.55388260 0.17978615
v 0.42516959 1.55522311 0.17979128
v 0.42516959 1.78780231 0.17854887
v 0.81374414 1.78999798 0.13277499
v 0.82575481 1.78999798 0.13279556
v 0.81374414 1.78999798 0.17920089
v 0.45791807 1.78780231 0.17863613
v 0.47571795 1.78780231 0.17868232
v 0.72569491 1.73901222 0.17965782
v 0.42516959 1.63905147 0.17945242
f 1 2 9
f 1 9 20
f 1 20 31
f 1 31 44
f 1 44 43
f 1 43 45
f 1 45 33
f 1 33 22
f 1 22 11
f 1 11 3
f 1 3 4
f 1 4 5
f 1 5 15
f 1 15 16
f 1 16 6
f 1 6 2
f 2 6 7
f 2 7 8
f 2 8 9
f 3 10 4
f 3 11 10
f 4 10 12
f 4 12 13
f 4 13 14
f 4 14 5
f 5 14 15
f 6 16 28
f 6 28 17
f 6 17 18
f 6 18 7
f 7 18 8
f 8 18 17
f 8 17 28
f 8 28 27
f 8 27 26
f 8 26 25
f 8 25 40
f 8 40 29
f 8 29 19
f 8 19 20
f 8 20 9
f 10 11 21
f 10 21 12
f 11 22 21
f 12 23 16
f 12 16 13
f 12 21 24
f 12 24 23
f 13 16 14
f 14 16 15
f 16 23 25
f 16 25 26
f 16 26 27
f 16 27 28
f 19 29 41
f 19 41 38
f 19 38 37
f 19 37 36
f 19 36 49
f 19 49 42
f 19 42 30
f 19 30 31
f 19 31 20
f 21 32 24
f 21 22 33
f 21 33 34
f 21 34 35
f 21 35 36
f 21 36 37
f 21 37 38
f 21 38 32
f 23 24 39
f 23 39 40
f 23 40 25
f 24 32 41
f 24 41 39
f 29 40 41
f 30 42 45
f 30 45 43
f 30 43 44
f 30 44 31
f 32 38 41
f 33 45 42
f 33 42 46
f 33 46 47
f 33 47 34
f 34 47 35
f 35 47 46
f 35 46 42
f 35 42 48
f 35 48 49
f 35 49 36
f 39 41 40
f 42 49 48

