# https://github.com/mikedh/trimesh
v -2.07748475 -0.7212636800000001 0.89243066
v -2.07748475 -0.71519531 0.87487194
v -2.0065800400000002 -0.71549133 0.89243066
v -2.0065800400000002 -0.71545022 0.92577817
v -2.07748475 -0.7211897 0.91538341
v -2.07748475 -0.71204601 0.87086388
v -2.0065800400000002 -0.70929139 0.87707263
v -2.0065800400000002 -0.71109217 0.9424566
v -2.07748475 -0.71749768 0.94569678
v -2.07748475 -0.71827061 0.9424566
v -2.07748475 -0.72073744 0.93131267
v -2.07748475 -0.72112391 0.92577817
v -2.07748475 -0.69453159 0.86405578
v -2.0065800400000002 -0.69471248 0.87018962
v -2.0065800400000002 -0.70488401 0.95179316
v -2.07748475 -0.7097272 0.9571591
v -2.0065800400000002 -0.67803678 0.87063912
v -2.0065800400000002 -0.68476298 0.87045183
v -2.07748475 -0.6446853800000001 0.87318631
v -2.0065800400000002 -0.66136108 0.87125718
v -2.0065800400000002 -0.6680955 0.87100435
v -2.0065800400000002 -0.70078087 0.95217711
v -2.07748475 -0.69399711 0.95972501
v -2.07748475 -0.6386498899999999 0.87593014
v -2.0065800400000002 -0.6446853800000001 0.87460974
v -2.0065800400000002 -0.6514198 0.87325186
v -2.0065800400000002 -0.69471248 0.95273899
v -2.07748475 -0.6904777799999999 0.95967819
v -2.0065800400000002 -0.68797807 0.95270153
v -2.0065800400000002 -0.63795095 0.95241123
v -2.07748475 -0.63727669 0.87655758
v -2.0065800400000002 -0.6385347800000001 0.87834623
v -2.0065800400000002 -0.63727669 0.95240186
v -2.00704506 -0.63727669 0.95240186
v -2.01331933 -0.63727669 0.95238314
v -2.02257799 -0.63727669 0.95235504
v -2.05592739 -0.63727669 0.95225203
v -2.07260555 -0.63727669 0.95219584
v -2.07748475 -0.63727669 0.95217711
v -2.0065800400000002 -0.63727669 0.87911412
f 1 2 3
f 1 3 4
f 1 4 5
f 1 5 12
f 1 12 11
f 1 11 10
f 1 10 9
f 1 9 16
f 1 16 23
f 1 23 28
f 1 28 39
f 1 39 31
f 1 31 24
f 1 24 19
f 1 19 13
f 1 13 6
f 1 6 2
f 2 6 7
f 2 7 3
f 3 7 14
f 3 14 18
f 3 18 17
f 3 17 21
f 3 21 20
f 3 20 26
f 3 26 25
f 3 25 32
f 3 32 40
f 3 40 33
f 3 33 30
f 3 30 29
f 3 29 27
f 3 27 22
f 3 22 15
f 3 15 8
f 3 8 4
f 4 8 9
f 4 9 10
f 4 10 11
f 4 11 12
f 4 12 5
f 6 13 14
f 6 14 7
f 8 15 9
f 9 15 16
f 13 17 18
f 13 18 14
f 13 19 20
f 13 20 21
f 13 21 17
f 15 22 23
f 15 23 16
f 19 24 25
f 19 25 26
f 19 26 20
f 22 27 23
f 23 27 29
f 23 29 30
f 23 30 28
f 24 31 25
f 25 31 32
f 28 30 33
f 28 33 34
f 28 34 35
f 28 35 36
f 28 36 37
f 28 37 38
f 28 38 39
f 31 40 32
f 31 39 38
f 31 38 37
f 31 37 36
f 31 36 35
f 31 35 34
f 31 34 33
f 31 33 40

