# https://github.com/mikedh/trimesh
v 0.40296084 2.04480330 0.18352983
v 0.37692025 2.04480330 0.20352395
v 0.37691197 2.04476221 0.20362456
v 0.37507977 2.01481218 0.20362456
v 0.40296084 2.01481218 0.18073423
v 0.40296084 2.04480330 0.11847072
v 0.37624046 2.04480330 0.20362456
v 0.33395038 2.01481218 0.20362456
v 0.40296084 2.01481218 0.13128576
v 0.37089304 2.01481218 0.10451513
v 0.35933603 2.01481218 0.09610598
v 0.36870434 2.04480330 0.09403721
v 0.33234206 2.04480330 0.20362456
v 0.32997925 2.04469762 0.20362456
v 0.32022958 2.01481218 0.17018925
v 0.35202379 2.01481218 0.09511076
v 0.35899610 2.04480330 0.09057069
v 0.36710424 2.04480330 0.09338865
v 0.32638942 2.04480330 0.19280003
v 0.32073527 2.04480330 0.17627249
v 0.31936734 2.04480330 0.17018925
v 0.31861291 2.04480330 0.16023692
v 0.31917666 2.01481218 0.15351633
v 0.34300369 2.01481218 0.09497653
v 0.34298706 2.04480330 0.08939653
v 0.31829784 2.04480330 0.15351633
v 0.31902741 2.01481218 0.13687696
v 0.33751531 2.01481218 0.09498773
v 0.33350269 2.01481218 0.09504364
v 0.33026941 2.04480330 0.09190138
v 0.31826470 2.04480330 0.14414551
v 0.31901084 2.01481218 0.12932881
v 0.32944036 2.01481218 0.09968432
v 0.32312294 2.04480330 0.10354226
v 0.32606612 2.01481218 0.10354226
v 0.31828956 2.04480330 0.13687696
v 0.31905232 2.01481218 0.12021518
v 0.31840567 2.04480330 0.12021518
v 0.32219441 2.01481218 0.11265588
f 1 2 3
f 1 3 4
f 1 4 5
f 1 5 9
f 1 9 6
f 1 6 12
f 1 12 18
f 1 18 17
f 1 17 25
f 1 25 30
f 1 30 34
f 1 34 38
f 1 38 36
f 1 36 31
f 1 31 26
f 1 26 22
f 1 22 21
f 1 21 20
f 1 20 19
f 1 19 13
f 1 13 7
f 1 7 2
f 2 7 3
f 3 7 13
f 3 13 14
f 3 14 8
f 3 8 4
f 4 8 15
f 4 15 23
f 4 23 27
f 4 27 32
f 4 32 37
f 4 37 39
f 4 39 35
f 4 35 33
f 4 33 29
f 4 29 28
f 4 28 24
f 4 24 16
f 4 16 11
f 4 11 10
f 4 10 9
f 4 9 5
f 6 10 11
f 6 11 12
f 6 9 10
f 8 14 15
f 11 16 17
f 11 17 18
f 11 18 12
f 13 19 14
f 14 19 20
f 14 20 15
f 15 20 21
f 15 21 22
f 15 22 23
f 16 24 25
f 16 25 17
f 22 26 23
f 23 26 27
f 24 28 25
f 25 28 29
f 25 29 30
f 26 31 27
f 27 31 32
f 29 33 30
f 30 33 35
f 30 35 34
f 31 36 32
f 32 36 37
f 34 35 39
f 34 39 37
f 34 37 38
f 36 38 37

