# https://github.com/mikedh/trimesh
v -1.60984873 2.07497021 1.04944335
v -1.60984873 2.07442160 1.12490485
v -1.60984873 2.12488862 1.04944335
v -0.84692281 2.07116794 1.04944335
v -0.86367078 2.07045637 1.15824932
v -1.60984873 2.07406853 1.17484422
v -1.60984873 2.12487232 1.08793644
v -0.74150402 2.12507873 1.09156036
v -0.74150402 2.12508416 1.07489917
v -0.74405450 2.12506243 1.04944335
v -0.83034486 2.07111364 1.04944335
v -0.83034486 2.07030429 1.15824932
v -0.84692281 2.07037489 1.15824932
v -1.60984873 2.07340587 1.27518701
v -1.60984873 2.12473651 1.27518701
v -0.74150402 2.12504071 1.15824932
v -0.74150402 2.12506243 1.04944335
v -0.82243845 2.07109734 1.04944335
v -0.81368189 2.07026084 1.15824932
v -0.83034486 2.07022281 1.17486631
v -0.86367078 2.07037489 1.17486631
v -1.50630030 2.07419347 1.27518701
v -0.84692281 2.06985344 1.27487766
v -0.84692281 2.06985344 1.27492186
v -0.83034486 2.06978283 1.27492186
v -0.76360796 2.06960903 1.27492186
v -0.74703002 2.06959272 1.27492186
v -0.74150402 2.06961445 1.27492186
v -1.50630030 2.12445407 1.27518701
v -0.74150402 2.12472566 1.27492186
v -0.78035594 2.12474739 1.27492186
v -0.74150402 2.12485060 1.24151109
v -0.74150402 2.12489947 1.22484988
v -0.74150402 2.12501356 1.17486631
v -0.74150402 2.07108103 1.04944335
v -0.81368189 2.07108103 1.04944335
v -0.79701891 2.07107561 1.04944335
v -0.74150402 2.07023911 1.15824932
v -0.74150402 2.07020108 1.16366310
v -0.74150402 2.07013048 1.17486631
v -0.81368189 2.07017936 1.17486631
v -0.74150402 2.06961445 1.27487766
v -0.77244955 2.07107561 1.04944335
f 1 2 6
f 1 6 14
f 1 14 15
f 1 15 7
f 1 7 3
f 1 3 10
f 1 10 17
f 1 17 35
f 1 35 43
f 1 43 37
f 1 37 36
f 1 36 18
f 1 18 11
f 1 11 4
f 1 4 5
f 1 5 2
f 2 5 6
f 3 7 8
f 3 8 9
f 3 9 10
f 4 11 12
f 4 12 13
f 4 13 5
f 5 13 14
f 5 14 6
f 7 15 16
f 7 16 8
f 8 16 34
f 8 34 33
f 8 33 32
f 8 32 30
f 8 30 28
f 8 28 42
f 8 42 40
f 8 40 39
f 8 39 38
f 8 38 35
f 8 35 17
f 8 17 9
f 9 17 10
f 11 18 19
f 11 19 12
f 12 19 41
f 12 41 20
f 12 20 13
f 13 21 14
f 13 20 21
f 14 22 29
f 14 29 15
f 14 21 23
f 14 23 24
f 14 24 25
f 14 25 26
f 14 26 27
f 14 27 28
f 14 28 22
f 15 29 30
f 15 30 31
f 15 31 32
f 15 32 33
f 15 33 34
f 15 34 16
f 18 36 19
f 19 36 37
f 19 37 38
f 19 38 39
f 19 39 40
f 19 40 27
f 19 27 26
f 19 26 41
f 20 41 25
f 20 25 23
f 20 23 21
f 22 28 30
f 22 30 29
f 23 25 24
f 25 41 26
f 27 40 42
f 27 42 28
f 30 32 31
f 35 38 43
f 37 43 38

