# https://github.com/mikedh/trimesh
v -1.79764610 2.10569598 0.02020585
v -1.79851466 2.08903119 0.02020585
v -1.79871446 2.08903119 0.00353221
v -1.79819184 2.10569598 0.00353221
v -1.80229613 2.12074663 0.00353221
v -1.80187341 2.12106355 0.02020585
v -1.80201169 2.12091615 0.03686250
v -1.80218848 2.12079086 0.05352767
v -1.80237290 2.12065818 0.07019285
v -1.79791515 2.10569598 0.03686250
v -1.79902965 2.08903119 0.07019285
v -1.79882210 2.08903119 0.05352767
v -1.80190417 2.07236638 0.02020585
v -1.80186566 2.07236638 0.03686250
v -1.80324910 2.07073749 0.00206271
v -1.80407928 2.07520403 -0.00711076
v -1.80269572 2.08903119 -0.00835937
v -1.80261120 2.10569598 -0.00832539
v -1.80396388 2.11824802 -0.00706832
v -1.81470878 2.12776341 0.00353221
v -1.81470878 2.12861838 0.02020585
v -1.81470878 2.12820562 0.07019285
v -1.81470878 2.12816878 0.07446528
v -1.80553185 2.12255243 0.07446528
v -1.80243441 2.12062134 0.07446528
v -1.79819959 2.10569598 0.05352767
v -1.79851466 2.10569598 0.07019285
v -1.79874521 2.10142843 0.07446528
v -1.79912955 2.08903119 0.07446528
v -1.80233451 2.07236638 0.07019285
v -1.80202707 2.07236638 0.05352767
v -1.80553948 2.06321952 0.02020585
v -1.80590844 2.06358806 0.00664098
v -1.80546271 2.06312371 0.03686250
v -1.80645412 2.06408925 -0.00446912
v -1.81308704 2.07073749 -0.00875860
v -1.81470878 2.08903119 -0.01200327
v -1.81470878 2.10569598 -0.01196083
v -1.81470878 2.12041496 -0.00831693
v -1.83137175 2.12804346 0.00353221
v -1.83137175 2.12918591 0.02020585
v -1.83137175 2.12920803 0.07019285
v -1.83137175 2.12920803 0.07446528
v -1.81897442 2.12846359 0.07446528
v -1.79862231 2.10569598 0.07446528
v -1.80246517 2.07236638 0.07446528
v -1.80581617 2.06349961 0.07019285
v -1.80559337 2.06326375 0.05352767
v -1.80331061 2.07016996 0.07446528
v -1.80590081 2.06357331 0.07446528
v -1.81470878 2.05984382 0.02020585
v -1.81502391 2.05866453 0.07446528
v -1.81308704 2.06140637 0.00206271
v -1.81756791 2.06230560 -0.00665204
v -1.83137175 2.07236638 -0.01131531
v -1.83137175 2.08903119 -0.01211366
v -1.84803466 2.10569598 -0.01230058
v -1.83137175 2.10569598 -0.01218161
v -1.83137175 2.12045183 -0.00848680
v -1.84803466 2.12885424 0.02020585
v -1.84803466 2.12016435 -0.00859719
v -1.84803466 2.12760125 0.00353221
v -1.84803466 2.12888371 0.07019285
v -1.83564508 2.12912693 0.07446528
v -1.83137175 2.05691771 0.02020585
v -1.83137175 2.05775058 0.00353221
v -1.83137175 2.05447069 0.07446528
v -1.83137175 2.06121474 -0.00769680
v -1.84803466 2.06094940 -0.00777333
v -1.84803466 2.07236638 -0.01128133
v -1.84803466 2.08903119 -0.01201173
v -1.86469762 2.08903119 -0.00925976
v -1.86582744 2.10615294 -0.00841885
v -1.86102380 2.11793846 -0.00737410
v -1.86389832 2.12059923 0.00353221
v -1.86455928 2.12125521 0.02020585
v -1.85319187 2.12670941 0.07446528
v -1.84803466 2.12888371 0.07446528
v -1.84803466 2.05625437 0.02020585
v -1.84803466 2.05714621 0.00353221
v -1.84322333 2.05405795 0.07446528
v -1.85965569 2.06195917 -0.00676255
v -1.86500507 2.07366359 -0.00746756
v -1.87320590 2.08008333 -0.00501278
v -1.87388224 2.08903119 -0.00572625
v -1.87398982 2.10090513 -0.00581971
v -1.87223743 2.11206413 0.00353221
v -1.87289845 2.11351611 0.02020585
v -1.87301373 2.11392152 0.03686250
v -1.86507421 2.12123310 0.07446528
v -1.86180004 2.06048505 0.00353221
v -1.84803466 2.05392527 0.07446528
v -1.87013153 2.07123868 0.00353221
v -1.87077717 2.07107652 0.02020585
v -1.87332886 2.07957478 0.00353221
v -1.87498130 2.08903119 0.00353221
v -1.87468923 2.10373542 0.00353221
v -1.87505819 2.11147449 0.07446528
v -1.87105385 2.11553565 0.07446528
v -1.86244568 2.05999861 0.02020585
v -1.85843366 2.05705039 0.07446528
v -1.87101541 2.07132713 0.03686250
v -1.86330650 2.05864981 0.07446528
v -1.87332886 2.07940524 0.02020585
v -1.87614956 2.08956186 0.07446528
v -1.87605735 2.10526849 0.07446528
v -1.87485833 2.10518004 0.02020585
v -1.87143044 2.07236638 0.07446528
f 1 2 3
f 1 3 4
f 1 4 5
f 1 5 6
f 1 6 7
f 1 7 8
f 1 8 9
f 1 9 10
f 1 10 11
f 1 11 12
f 1 12 2
f 2 13 3
f 2 12 14
f 2 14 13
f 3 13 15
f 3 15 16
f 3 16 17
f 3 17 4
f 4 17 18
f 4 18 19
f 4 19 5
f 5 19 20
f 5 20 21
f 5 21 6
f 6 21 22
f 6 22 23
f 6 23 24
f 6 24 7
f 7 24 8
f 8 24 9
f 9 24 25
f 9 25 10
f 10 25 26
f 10 26 11
f 11 27 28
f 11 28 29
f 11 29 30
f 11 30 31
f 11 31 12
f 11 26 27
f 12 31 14
f 13 32 33
f 13 33 15
f 13 14 34
f 13 34 32
f 14 31 34
f 15 35 16
f 15 33 35
f 16 35 36
f 16 36 37
f 16 37 17
f 17 37 18
f 18 37 38
f 18 38 19
f 19 38 39
f 19 39 20
f 20 39 40
f 20 40 41
f 20 41 21
f 21 41 42
f 21 42 43
f 21 43 44
f 21 44 22
f 22 44 23
f 23 44 43
f 23 43 64
f 23 64 78
f 23 78 77
f 23 77 90
f 23 90 99
f 23 99 98
f 23 98 106
f 23 106 105
f 23 105 108
f 23 108 103
f 23 103 101
f 23 101 92
f 23 92 81
f 23 81 67
f 23 67 52
f 23 52 50
f 23 50 49
f 23 49 46
f 23 46 29
f 23 29 28
f 23 28 45
f 23 45 25
f 23 25 24
f 25 45 27
f 25 27 26
f 27 45 28
f 29 46 30
f 30 47 48
f 30 48 31
f 30 46 49
f 30 49 50
f 30 50 47
f 31 48 34
f 32 51 33
f 32 34 52
f 32 52 51
f 33 51 53
f 33 53 35
f 34 48 52
f 35 53 54
f 35 54 36
f 36 55 37
f 36 54 55
f 37 56 57
f 37 57 58
f 37 58 38
f 37 55 56
f 38 58 39
f 39 58 59
f 39 59 40
f 40 60 41
f 40 59 61
f 40 61 62
f 40 62 60
f 41 60 63
f 41 63 64
f 41 64 42
f 42 64 43
f 47 50 52
f 47 52 48
f 51 65 66
f 51 66 53
f 51 52 67
f 51 67 65
f 53 66 54
f 54 68 55
f 54 66 68
f 55 68 69
f 55 69 70
f 55 70 56
f 56 70 71
f 56 71 57
f 57 71 72
f 57 72 73
f 57 73 74
f 57 74 61
f 57 61 59
f 57 59 58
f 60 62 75
f 60 75 76
f 60 76 77
f 60 77 63
f 61 74 62
f 62 74 75
f 63 77 78
f 63 78 64
f 65 79 66
f 65 67 79
f 66 79 80
f 66 80 68
f 67 81 79
f 68 80 69
f 69 80 82
f 69 82 70
f 70 72 71
f 70 82 83
f 70 83 72
f 72 83 84
f 72 84 85
f 72 85 86
f 72 86 73
f 73 86 74
f 74 86 87
f 74 87 75
f 75 87 88
f 75 88 76
f 76 88 89
f 76 89 90
f 76 90 77
f 79 91 80
f 79 81 92
f 79 92 91
f 80 91 82
f 82 91 93
f 82 93 84
f 82 84 83
f 84 93 94
f 84 94 95
f 84 95 96
f 84 96 85
f 85 96 86
f 86 96 97
f 86 97 87
f 87 97 88
f 88 97 98
f 88 98 89
f 89 98 99
f 89 99 90
f 91 92 100
f 91 100 93
f 92 101 100
f 93 100 94
f 94 102 95
f 94 100 103
f 94 103 102
f 95 102 104
f 95 104 105
f 95 105 96
f 96 105 106
f 96 106 97
f 97 106 107
f 97 107 98
f 98 107 106
f 100 101 103
f 102 103 108
f 102 108 104
f 104 108 105

