# https://github.com/mikedh/trimesh
v -1.86978713 2.03750358 1.01364158
v -1.89528113 2.06235895 1.01364158
v -1.83004702 2.03750358 1.01364158
v -1.87019518 2.03750358 1.08686441
v -1.89528113 2.06148105 1.12336303
v -1.89528113 2.06149935 1.12020512
v -1.89528113 2.11537097 1.01364158
v -1.80623841 2.08031922 1.01364158
v -1.82865435 2.03750358 1.12336303
v -1.87011531 2.03750358 1.10200951
v -1.89528113 2.11601109 1.12336303
v -1.87010643 2.03750358 1.10353476
v -1.86986694 2.03750358 1.11867987
v -1.86978713 2.03750358 1.12336303
v -1.84804538 2.12961844 1.02021520
v -1.84742442 2.12969160 1.01364158
v -1.80553769 2.08902500 1.01364158
v -1.80622959 2.08031007 1.02021520
v -1.80625617 2.08035579 1.07020479
v -1.80627394 2.08041066 1.08686441
v -1.80630934 2.08052954 1.10353476
v -1.80635369 2.08063927 1.11357779
v -1.80752463 2.07945045 1.12336303
v -1.80623841 2.08032834 1.05354517
v -1.85120326 2.12888687 1.12336303
v -1.84804538 2.12982878 1.12020512
v -1.84857760 2.12971905 1.08686441
v -1.84847114 2.12963674 1.05354517
v -1.84649303 2.12989280 1.03654184
v -1.84175615 2.13040490 1.01364158
v -1.80519175 2.09559092 1.01364158
v -1.80553769 2.08902500 1.02021520
v -1.80556428 2.08902500 1.07020479
v -1.80559086 2.08902500 1.08686441
v -1.80565297 2.08902500 1.10353476
v -1.80586588 2.08774474 1.11956065
v -1.80585694 2.08833000 1.12336303
v -1.80628276 2.08299862 1.12336303
v -1.80555534 2.08902500 1.05354517
v -1.84804538 2.12980134 1.12336303
v -1.83970704 2.13068838 1.11184846
v -1.84000865 2.13072495 1.10074205
v -1.84024814 2.13075240 1.08686441
v -1.84030137 2.13076154 1.07020479
v -1.84655514 2.13001168 1.10518891
v -1.84014169 2.13074325 1.05354517
v -1.83941432 2.13067923 1.01364158
v -1.80466829 2.10569583 1.01364158
v -1.80469488 2.10569583 1.07020479
v -1.80472158 2.10569583 1.08686441
v -1.80478369 2.10569583 1.10353476
v -1.80489014 2.10569583 1.12020512
v -1.80506753 2.10278782 1.12336303
v -1.84031025 2.13048718 1.12336303
v -1.83850064 2.13067008 1.12020512
v -1.83016230 2.13081641 1.12020512
v -1.83303640 2.13081641 1.10518891
v -1.83137759 2.13092614 1.05354517
v -1.83087196 2.13091699 1.02021520
v -1.83174130 2.13088958 1.01364158
v -1.83719666 2.13074325 1.01364158
v -1.80536913 2.11741024 1.01364158
v -1.80538689 2.11722734 1.07020479
v -1.80540454 2.11715417 1.08686441
v -1.80544006 2.11708104 1.10353476
v -1.80550217 2.11693471 1.12020512
v -1.80551993 2.11690729 1.12336303
v -1.80491673 2.10569583 1.12336303
v -1.83806600 2.13066093 1.12336303
v -1.82973654 2.13080726 1.12336303
v -1.82245381 2.13081641 1.12020512
v -1.82196594 2.13091699 1.03687482
v -1.82194818 2.13091699 1.02021520
v -1.82743018 2.13089870 1.01364158
v -1.81036321 2.12246725 1.01364158
v -1.81361872 2.12570450 1.02021520
v -1.81363648 2.12564048 1.03687482
v -1.81408888 2.12541187 1.10353476
v -1.81412435 2.12527471 1.12020512
v -1.81414211 2.12523812 1.12336303
v -1.82247157 2.13080726 1.12336303
v -1.81369853 2.12575024 1.01364158
v -1.82202799 2.13089870 1.01364158
f 1 2 7
f 1 7 16
f 1 16 30
f 1 30 47
f 1 47 61
f 1 61 60
f 1 60 74
f 1 74 83
f 1 83 82
f 1 82 75
f 1 75 62
f 1 62 48
f 1 48 31
f 1 31 17
f 1 17 8
f 1 8 3
f 1 3 9
f 1 9 14
f 1 14 13
f 1 13 12
f 1 12 10
f 1 10 4
f 1 4 5
f 1 5 6
f 1 6 2
f 2 6 5
f 2 5 11
f 2 11 7
f 3 8 9
f 4 10 5
f 5 10 12
f 5 12 13
f 5 13 14
f 5 14 9
f 5 9 23
f 5 23 38
f 5 38 37
f 5 37 53
f 5 53 68
f 5 68 67
f 5 67 80
f 5 80 81
f 5 81 70
f 5 70 69
f 5 69 54
f 5 54 40
f 5 40 25
f 5 25 11
f 7 15 16
f 7 11 15
f 8 17 18
f 8 18 9
f 9 19 20
f 9 20 21
f 9 21 22
f 9 22 23
f 9 18 24
f 9 24 19
f 11 25 26
f 11 26 27
f 11 27 28
f 11 28 15
f 15 28 27
f 15 27 29
f 15 29 16
f 16 29 30
f 17 31 32
f 17 32 18
f 18 32 24
f 19 33 20
f 19 24 33
f 20 33 34
f 20 34 21
f 21 34 35
f 21 35 22
f 22 35 36
f 22 36 37
f 22 37 38
f 22 38 23
f 24 32 39
f 24 39 33
f 25 40 26
f 26 40 41
f 26 41 42
f 26 42 43
f 26 43 44
f 26 44 45
f 26 45 27
f 27 45 44
f 27 44 29
f 29 46 30
f 29 44 46
f 30 46 47
f 31 48 49
f 31 49 33
f 31 33 39
f 31 39 32
f 33 49 50
f 33 50 34
f 34 50 51
f 34 51 35
f 35 51 52
f 35 52 53
f 35 53 37
f 35 37 36
f 40 54 41
f 41 54 55
f 41 55 56
f 41 56 42
f 42 56 57
f 42 57 43
f 43 57 58
f 43 58 44
f 44 58 59
f 44 59 60
f 44 60 46
f 46 60 61
f 46 61 47
f 48 62 49
f 49 62 63
f 49 63 64
f 49 64 50
f 50 64 65
f 50 65 51
f 51 65 66
f 51 66 67
f 51 67 52
f 52 67 68
f 52 68 53
f 54 69 55
f 55 69 70
f 55 70 56
f 56 58 57
f 56 70 81
f 56 81 71
f 56 71 58
f 58 72 73
f 58 73 59
f 58 71 72
f 59 73 83
f 59 83 74
f 59 74 60
f 62 75 63
f 63 75 76
f 63 76 77
f 63 77 64
f 64 77 65
f 65 77 78
f 65 78 79
f 65 79 66
f 66 79 67
f 67 79 80
f 71 81 77
f 71 77 72
f 72 77 76
f 72 76 73
f 73 76 82
f 73 82 83
f 75 82 76
f 77 81 78
f 78 81 79
f 79 81 80

