# https://github.com/mikedh/trimesh
v -3.0895504449999995 -0.42578935 0.95249615
v -3.0895504449999995 -0.42578935 0.9037594
v -3.096685485 -0.42578935 0.95250612
v -3.091640515 -0.62080869 0.95250114
v -3.0895504449999995 -0.62080869 0.95249615
v -3.0895504449999995 -0.62080869 0.90202842
v -3.090775655 -0.42578935 0.90375442
v -3.113405985 -0.42578935 0.95252109
v -3.141657875 -0.62080869 0.952561
v -3.1321444849999995 -0.62080869 0.95255103
v -3.0988476350000003 -0.62080869 0.90201346
v -3.1154960649999994 -0.62080869 0.90198852
v -3.0988476350000003 -0.42578935 0.90374444
v -3.1321444849999995 -0.42578935 0.95253606
v -3.1488649950000003 -0.62080869 0.95256599
v -3.382303425 -0.62080869 0.90166427
v -3.4323928949999996 -0.62080869 0.9016094
v -3.1154960649999994 -0.42578935 0.90372947
v -3.146774925 -0.42578935 0.95254104
v -3.1655134249999994 -0.62080869 0.95257098
v -3.615885995 -0.62080869 0.90181392
v -3.4157444349999997 -0.42578935 0.90358481
v -3.399023925 -0.42578935 0.90356984
v -3.382303425 -0.42578935 0.90356984
v -3.1634233849999998 -0.42578935 0.95254603
v -3.232251315 -0.47794212999999997 0.95255601
v -3.3750963049999996 -0.62080869 0.95255103
v -3.632534455 -0.62080869 0.90183387
v -3.8258292549999995 -0.42578935 0.90408365
v -3.232251315 -0.42578935 0.95254603
v -3.7491455350000003 -0.62080869 0.95244128
v -3.8258292549999995 -0.62080869 0.90213817
v -3.8258292549999995 -0.42578935 0.95207712
v -3.4491133949999995 -0.42578935 0.95248119
v -3.4323928949999996 -0.44457352 0.95249116
v -3.765793995 -0.62080869 0.95243629
v -3.8258292549999995 -0.62080869 0.95232156
v -3.8258292549999995 -0.42790828999999997 0.95208211
v -3.8137212949999997 -0.42578935 0.95209708
v -3.465545595 -0.42578935 0.95246622
v -3.7919558449999995 -0.62080869 0.95241135
v -3.8253247549999996 -0.62080869 0.95232654
v -3.8258292549999995 -0.47794212999999997 0.95215195
v -3.8258292549999995 -0.43783488000000004 0.95209708
v -3.782514505 -0.46125782000000004 0.95220183
v -3.765793995 -0.44457352 0.95219685
v -3.746983425 -0.42578935 0.95218687
v -3.765793995 -0.46125782000000004 0.95222179
v -3.7491455350000003 -0.47794212999999997 0.95226169
v -3.799162905 -0.62080869 0.95240137
v -3.8158834649999998 -0.62080869 0.95235648
v -3.8086762949999997 -0.62080869 0.95237643
v -3.8258292549999995 -0.44457352 0.95210706
f 1 2 7
f 1 7 13
f 1 13 18
f 1 18 24
f 1 24 23
f 1 23 22
f 1 22 29
f 1 29 33
f 1 33 39
f 1 39 47
f 1 47 40
f 1 40 34
f 1 34 30
f 1 30 25
f 1 25 19
f 1 19 14
f 1 14 8
f 1 8 3
f 1 3 4
f 1 4 5
f 1 5 6
f 1 6 2
f 2 6 7
f 3 8 9
f 3 9 10
f 3 10 4
f 4 10 9
f 4 9 15
f 4 15 20
f 4 20 27
f 4 27 31
f 4 31 36
f 4 36 41
f 4 41 50
f 4 50 52
f 4 52 51
f 4 51 42
f 4 42 37
f 4 37 32
f 4 32 28
f 4 28 21
f 4 21 17
f 4 17 16
f 4 16 12
f 4 12 11
f 4 11 6
f 4 6 5
f 6 11 7
f 7 11 12
f 7 12 13
f 8 14 9
f 9 14 15
f 12 16 13
f 13 16 17
f 13 17 18
f 14 19 15
f 15 19 25
f 15 25 20
f 17 21 22
f 17 22 23
f 17 23 24
f 17 24 18
f 20 25 26
f 20 26 27
f 21 28 22
f 22 28 29
f 25 30 26
f 26 30 27
f 27 30 31
f 28 32 29
f 29 32 37
f 29 37 43
f 29 43 53
f 29 53 44
f 29 44 38
f 29 38 33
f 30 34 35
f 30 35 31
f 31 35 36
f 33 38 39
f 34 40 36
f 34 36 35
f 36 40 41
f 37 42 43
f 38 44 45
f 38 45 39
f 39 45 46
f 39 46 47
f 40 47 46
f 40 46 48
f 40 48 49
f 40 49 41
f 41 49 48
f 41 48 45
f 41 45 50
f 42 51 43
f 43 51 52
f 43 52 50
f 43 50 53
f 44 53 45
f 45 48 46
f 45 53 50

