# https://github.com/mikedh/trimesh
v -3.0895504449999995 -0.62081802 0.95249262
v -3.0895504449999995 -0.62081802 0.90203326
v -3.091640515 -0.62081802 0.9525007
v -3.0895504449999995 -0.6446872699999999 0.95254119
v -3.0992800650000003 -0.62081802 0.90200897
v -3.0895504449999995 -0.63624525 0.88391549
v -3.348934485 -0.63524604 0.88215877
v -3.5990213950000003 -0.63418144 0.88068537
v -3.6491108050000003 -0.6340507 0.88056394
v -3.0895504449999995 -0.6947043500000001 0.95263833
v -3.124937375 -0.62081802 0.95254119
v -3.382303425 -0.62081802 0.90166896
v -3.0895504449999995 -0.6387573200000001 0.88211019
v -3.0895504449999995 -0.6439682099999999 0.87840245
v -3.5823729349999995 -0.63427482 0.88076634
v -3.348934485 -0.6446872699999999 0.87598999
v -3.5490039749999998 -0.6446872699999999 0.87475947
v -3.5823729349999995 -0.6446872699999999 0.87456517
v -3.5990213950000003 -0.6446872699999999 0.8745004
v -3.6491108050000003 -0.6446872699999999 0.87439517
v -3.6657592049999996 -0.6340507 0.88054775
v -3.432176665 -0.62081802 0.90161229
v -3.0895504449999995 -0.70480864 0.95173973
v -3.1321444849999995 -0.62081802 0.95254928
v -3.1488649950000003 -0.62081802 0.95256547
v -3.1655134249999994 -0.6446872699999999 0.95260596
v -3.5823729349999995 -0.6947043500000001 0.95283262
v -3.0895504449999995 -0.66136587 0.87169127
v -3.6657592049999996 -0.6446872699999999 0.87437897
v -3.282268695 -0.66136587 0.8714322
v -3.6824076649999995 -0.6446872699999999 0.87439517
v -3.8258292549999995 -0.6446872699999999 0.87461374
v -3.8258292549999995 -0.63854253 0.87834578
v -3.8258292549999995 -0.63438689 0.88087157
v -3.8258292549999995 -0.62081802 0.9021385
v -3.6323903049999995 -0.62081802 0.90183087
v -3.4323208149999997 -0.62081802 0.90161229
v -3.298917115 -0.7113362599999999 0.94245417
v -3.248899755 -0.71128956 0.94245417
v -3.0895504449999995 -0.70762887 0.94759483
v -3.5823729349999995 -0.7050701100000001 0.95186926
v -3.5823729349999995 -0.71157906 0.94245417
v -3.175026815 -0.62081802 0.95256547
v -3.765793995 -0.66136587 0.95264643
v -3.782514505 -0.6947043500000001 0.95277596
v -3.5990213950000003 -0.70506077 0.95186926
v -3.382303425 -0.62081802 0.95254928
v -3.0895504449999995 -0.6780351099999999 0.8711003
v -3.282268695 -0.6780351099999999 0.87080075
v -3.8158834649999998 -0.66136587 0.87126219
v -3.8258292549999995 -0.66136587 0.87126219
v -3.5490039749999998 -0.66136587 0.87134316
v -3.298917115 -0.6780351099999999 0.87078455
v -3.5490039749999998 -0.6780351099999999 0.87069551
v -3.8258292549999995 -0.65142035 0.87324559
v -3.8258292549999995 -0.62081802 0.95232261
v -3.248899755 -0.71584676 0.92577741
v -3.0895504449999995 -0.71112147 0.94245417
v -3.6491108050000003 -0.71156973 0.94245417
v -3.6491108050000003 -0.71607089 0.92577741
v -3.5657244749999997 -0.71608022 0.92577741
v -3.5490039749999998 -0.71608022 0.92577741
v -3.515635035 -0.71606156 0.92577741
v -3.4823381749999998 -0.71604287 0.92577741
v -3.765793995 -0.6446872699999999 0.95256547
v -3.782514505 -0.6446872699999999 0.95254928
v -3.8258292549999995 -0.6947043500000001 0.95274358
v -3.4156723849999997 -0.62081802 0.95254119
v -3.8258292549999995 -0.7048833400000001 0.9517964
v -3.6491108050000003 -0.7050421099999999 0.95183688
v -3.0895504449999995 -0.68726156 0.87080886
v -3.265548185 -0.6947043500000001 0.87036359
v -3.0895504449999995 -0.6947043500000001 0.87057408
v -3.8258292549999995 -0.66809893 0.87100314
v -3.5490039749999998 -0.6947043500000001 0.87014502
v -3.8158834649999998 -0.6780351099999999 0.87063885
v -3.8215050249999996 -0.62081802 0.9523388
v -3.348934485 -0.71595882 0.89243197
v -3.248899755 -0.71582809 0.89243197
v -3.0988476350000003 -0.7156132900000001 0.89243197
v -3.0895504449999995 -0.7155946200000001 0.92577741
v -3.0895504449999995 -0.7131199100000001 0.9350063
v -3.5823729349999995 -0.71621096 0.89243197
v -3.6657592049999996 -0.7115323600000001 0.94245417
v -3.6657592049999996 -0.71605221 0.92577741
v -3.6491108050000003 -0.71619229 0.89243197
v -3.765793995 -0.62081802 0.95243595
v -3.7753073849999996 -0.62081802 0.95242785
v -3.782514505 -0.62081802 0.95241976
v -3.799162905 -0.62081802 0.95239547
v -3.8158834649999998 -0.62081802 0.95235499
v -3.8258292549999995 -0.7085907300000001 0.94622668
v -3.0895504449999995 -0.7093751699999999 0.87722859
v -3.4823381749999998 -0.70960863 0.8770262
v -3.8258292549999995 -0.6780351099999999 0.87063885
v -3.498986605 -0.70960863 0.87701812
v -3.5657244749999997 -0.70964598 0.8770262
v -3.5657244749999997 -0.6947043500000001 0.87014502
v -3.0895504449999995 -0.7155946200000001 0.89243197
v -3.6657592049999996 -0.709674 0.87704239
v -3.6323903049999995 -0.709674 0.8770505
v -3.8258292549999995 -0.7110934600000001 0.94245417
v -3.6657592049999996 -0.71617361 0.89243197
v -3.8258292549999995 -0.71368956 0.93251288
v -3.8258292549999995 -0.7154452099999999 0.92577741
v -3.8258292549999995 -0.6847681800000001 0.87045265
v -3.8158834649999998 -0.6947043500000001 0.87017741
v -3.8258292549999995 -0.70929113 0.87707478
v -3.8258292549999995 -0.6947043500000001 0.87018549
v -3.8258292549999995 -0.71549189 0.89243197
f 1 2 5
f 1 5 12
f 1 12 22
f 1 22 37
f 1 37 36
f 1 36 35
f 1 35 56
f 1 56 77
f 1 77 91
f 1 91 90
f 1 90 89
f 1 89 88
f 1 88 87
f 1 87 68
f 1 68 47
f 1 47 43
f 1 43 25
f 1 25 24
f 1 24 11
f 1 11 3
f 1 3 4
f 1 4 10
f 1 10 23
f 1 23 40
f 1 40 58
f 1 58 82
f 1 82 81
f 1 81 99
f 1 99 93
f 1 93 73
f 1 73 71
f 1 71 48
f 1 48 28
f 1 28 14
f 1 14 13
f 1 13 6
f 1 6 2
f 2 6 7
f 2 7 8
f 2 8 9
f 2 9 5
f 3 10 4
f 3 11 10
f 5 9 12
f 6 13 7
f 7 13 14
f 7 14 15
f 7 15 8
f 8 15 14
f 8 14 16
f 8 16 17
f 8 17 18
f 8 18 9
f 9 18 19
f 9 19 20
f 9 20 29
f 9 29 21
f 9 21 22
f 9 22 12
f 10 11 24
f 10 24 25
f 10 25 26
f 10 26 27
f 10 27 23
f 14 28 16
f 16 28 17
f 17 28 18
f 18 28 19
f 19 28 20
f 20 28 30
f 20 30 29
f 21 29 31
f 21 31 32
f 21 32 33
f 21 33 34
f 21 34 35
f 21 35 36
f 21 36 37
f 21 37 22
f 23 38 39
f 23 39 40
f 23 27 41
f 23 41 42
f 23 42 38
f 25 43 27
f 25 27 26
f 27 44 45
f 27 45 46
f 27 46 41
f 27 43 47
f 27 47 44
f 28 48 49
f 28 49 30
f 29 50 51
f 29 51 31
f 29 30 52
f 29 52 50
f 30 49 53
f 30 53 54
f 30 54 52
f 31 51 55
f 31 55 32
f 32 55 51
f 32 51 74
f 32 74 95
f 32 95 106
f 32 106 109
f 32 109 108
f 32 108 110
f 32 110 105
f 32 105 104
f 32 104 102
f 32 102 92
f 32 92 69
f 32 69 67
f 32 67 56
f 32 56 35
f 32 35 34
f 32 34 33
f 38 57 39
f 38 42 57
f 39 58 40
f 39 57 58
f 41 46 59
f 41 59 42
f 42 59 60
f 42 60 61
f 42 61 62
f 42 62 63
f 42 63 64
f 42 64 57
f 44 65 66
f 44 66 67
f 44 67 45
f 44 47 68
f 44 68 65
f 45 67 69
f 45 69 46
f 46 69 70
f 46 70 59
f 48 71 49
f 49 72 53
f 49 71 73
f 49 73 72
f 50 74 51
f 50 52 54
f 50 54 74
f 53 72 75
f 53 75 54
f 54 75 76
f 54 76 74
f 56 67 77
f 57 78 79
f 57 79 80
f 57 80 81
f 57 81 82
f 57 82 58
f 57 64 83
f 57 83 78
f 59 70 69
f 59 69 84
f 59 84 85
f 59 85 60
f 60 86 83
f 60 83 61
f 60 85 103
f 60 103 86
f 61 83 62
f 62 83 63
f 63 83 64
f 65 87 88
f 65 88 66
f 65 68 87
f 66 88 89
f 66 89 90
f 66 90 67
f 67 91 77
f 67 90 91
f 69 92 84
f 72 73 93
f 72 93 94
f 72 94 75
f 74 76 95
f 75 94 96
f 75 96 97
f 75 97 98
f 75 98 95
f 75 95 76
f 78 93 79
f 78 83 93
f 79 93 80
f 80 93 99
f 80 99 81
f 83 86 100
f 83 100 101
f 83 101 97
f 83 97 94
f 83 94 93
f 84 92 102
f 84 102 85
f 85 102 104
f 85 104 105
f 85 105 103
f 86 103 100
f 94 97 96
f 95 98 106
f 97 101 100
f 97 100 98
f 98 100 107
f 98 107 106
f 100 103 108
f 100 108 109
f 100 109 107
f 103 105 110
f 103 110 108
f 106 107 109

