# https://github.com/mikedh/trimesh
v -3.9001466449999995 -0.69708212 1.67485892
v -3.9133918549999995 -0.67820768 1.67485892
v -3.902141585 -0.711372 1.67485892
v -3.907052215 -0.7238298400000001 1.4929039
v -3.9053545849999995 -0.7114435 1.4929039
v -3.905910865 -0.69856562 1.4929039
v -3.9059300649999997 -0.69845839 1.4929039
v -3.909670535 -0.6901829500000001 1.4929039
v -3.932458705 -0.66081675 1.67485892
v -3.9362855349999997 -0.66490978 1.4929039
v -3.9022087450000003 -0.7116133 1.67485892
v -3.9088552949999995 -0.73238232 1.50950519
v -3.908951195 -0.73220357 1.4929039
v -3.9492909249999997 -0.65257706 1.67485892
v -3.936400645 -0.66483829 1.4929039
v -3.9060355749999998 -0.7239549700000001 1.67485892
v -3.908864895 -0.73254317 1.52615991
v -3.9172474250000002 -0.73935299 1.4929039
v -3.982648375 -0.65988733 1.67485892
v -3.9493868249999995 -0.65936007 1.4929039
v -3.9660559749999997 -0.65883279 1.4929039
v -3.9827059249999994 -0.66008394 1.4929039
v -3.982638775 -0.65990521 1.57619528
v -3.9062561249999996 -0.72465203 1.67485892
v -3.908922455 -0.7324359300000001 1.55952279
v -3.9173529350000003 -0.7392547 1.59283217
v -3.9173049749999995 -0.7392815100000001 1.57619528
v -3.917266575 -0.73929937 1.55952279
v -3.917189875 -0.7393261799999999 1.50950519
v -3.9326313649999998 -0.74257916 1.4929039
v -3.9254668949999996 -0.74102417 1.56730682
v -3.9942535049999996 -0.66551748 1.67485892
v -3.9944549149999995 -0.66544599 1.4929039
v -3.9943494049999995 -0.66549068 1.62619506
v -3.906323285 -0.72479502 1.67485892
v -3.9090183549999997 -0.73231975 1.59283217
v -3.908941595 -0.73240913 1.56730682
v -3.932640975 -0.74246298 1.59283217
v -3.932640975 -0.7425166000000001 1.57619528
v -3.9174680349999997 -0.7392099999999999 1.60952256
v -3.9493101250000002 -0.7431153699999999 1.4929039
v -3.965969675 -0.74387499 1.67485892
v -3.9946179749999997 -0.66676863 1.67485892
v -3.998070725 -0.67804683 1.4929039
v -3.997888465 -0.67805576 1.64286761
v -3.997840515 -0.67803788 1.67485892
v -3.9099582449999994 -0.73228403 1.67485892
v -3.909123855 -0.7321589 1.60952256
v -3.932640975 -0.74238256 1.60952256
v -3.9178420449999996 -0.7390759499999999 1.64286761
v -3.932640975 -0.7421770000000001 1.64286761
v -3.965960075 -0.74357115 1.4929039
v -3.965969675 -0.7438571300000001 1.662497
v -3.9492909249999997 -0.7429009 1.67485892
v -3.982648375 -0.7436605199999999 1.67485892
v -3.9981186849999997 -0.69472281 1.4929039
v -3.9981186849999997 -0.69472281 1.662497
v -3.9981090749999995 -0.69472281 1.67485892
v -3.9980802749999995 -0.69178262 1.662497
v -3.9978788649999997 -0.679718 1.67485892
v -3.910102095 -0.73240021 1.67485892
v -3.9181010149999995 -0.73896872 1.662497
v -3.9326313649999998 -0.74199829 1.662497
v -3.982638775 -0.74312432 1.4929039
v -3.982648375 -0.74362477 1.662497
v -3.9326313649999998 -0.7418821099999999 1.67485892
v -3.9941671449999996 -0.73970153 1.67485892
v -3.994004145 -0.73946917 1.4929039
v -3.998041925 -0.71138093 1.4929039
v -3.998041925 -0.71138093 1.6624614
v -3.9980323149999997 -0.711372 1.67485892
v -3.918292815 -0.73888829 1.67485892
v -3.997399345 -0.72901315 1.67485892
v -3.9976007549999997 -0.72805692 1.4929039
v -3.994052095 -0.73946022 1.50950519
v -3.997687055 -0.72805692 1.67485892
v -3.9980035750000003 -0.71305211 1.67485892
f 1 2 9
f 1 9 14
f 1 14 19
f 1 19 32
f 1 32 43
f 1 43 46
f 1 46 60
f 1 60 58
f 1 58 71
f 1 71 77
f 1 77 76
f 1 76 73
f 1 73 67
f 1 67 55
f 1 55 42
f 1 42 54
f 1 54 66
f 1 66 72
f 1 72 61
f 1 61 47
f 1 47 35
f 1 35 24
f 1 24 16
f 1 16 11
f 1 11 3
f 1 3 4
f 1 4 5
f 1 5 6
f 1 6 7
f 1 7 8
f 1 8 2
f 2 8 10
f 2 10 9
f 3 11 12
f 3 12 13
f 3 13 4
f 4 13 18
f 4 18 30
f 4 30 41
f 4 41 52
f 4 52 64
f 4 64 68
f 4 68 74
f 4 74 69
f 4 69 56
f 4 56 44
f 4 44 33
f 4 33 22
f 4 22 21
f 4 21 20
f 4 20 15
f 4 15 10
f 4 10 8
f 4 8 7
f 4 7 6
f 4 6 5
f 9 10 15
f 9 15 14
f 11 16 17
f 11 17 12
f 12 17 18
f 12 18 13
f 14 15 20
f 14 20 21
f 14 21 22
f 14 22 23
f 14 23 19
f 16 24 17
f 17 25 26
f 17 26 27
f 17 27 28
f 17 28 29
f 17 29 18
f 17 24 25
f 18 29 28
f 18 28 31
f 18 31 30
f 19 23 33
f 19 33 34
f 19 34 32
f 22 33 23
f 24 35 36
f 24 36 37
f 24 37 25
f 25 37 26
f 26 38 39
f 26 39 31
f 26 31 27
f 26 37 36
f 26 36 40
f 26 40 38
f 27 31 28
f 30 31 39
f 30 39 42
f 30 42 41
f 32 34 43
f 33 44 34
f 34 44 45
f 34 45 46
f 34 46 43
f 35 47 48
f 35 48 36
f 36 48 47
f 36 47 40
f 38 40 49
f 38 49 42
f 38 42 39
f 40 47 50
f 40 50 51
f 40 51 49
f 41 42 53
f 41 53 52
f 42 55 53
f 42 49 51
f 42 51 54
f 44 56 57
f 44 57 58
f 44 58 59
f 44 59 60
f 44 60 45
f 45 60 46
f 47 61 50
f 50 61 62
f 50 62 51
f 51 62 63
f 51 63 54
f 52 53 55
f 52 55 65
f 52 65 64
f 54 63 66
f 55 67 68
f 55 68 65
f 56 69 70
f 56 70 57
f 57 70 58
f 58 60 59
f 58 70 71
f 61 72 62
f 62 72 66
f 62 66 63
f 64 65 68
f 67 73 74
f 67 74 75
f 67 75 68
f 68 75 74
f 69 74 76
f 69 76 70
f 70 76 77
f 70 77 71
f 73 76 74

