# https://github.com/mikedh/trimesh
v -3.04809035 2.08902273 0.09604365
v -2.81580359 2.10569348 0.09743334
v -2.98141858 2.08902273 0.09607524
v -3.09802160 2.07236706 0.09664375
v -3.11471375 2.08902273 0.09605420
v -2.81580359 2.11673706 0.10539242
v -2.81580359 2.08902273 0.09620154
v -2.84807505 2.08902273 0.09617001
v -2.96472645 2.08902273 0.09608573
v -3.11471375 2.10569348 0.09763338
v -3.06468571 2.07236706 0.09666479
v -2.81580359 2.05860016 0.10402376
v -2.81580359 2.05763724 0.10452915
v -3.03139822 2.05769741 0.10446597
v -3.09802160 2.05777266 0.10444487
v -3.13135746 2.07236706 0.09667534
v -3.14800124 2.08902273 0.09608573
v -3.31008425 2.10105936 0.09735961
v -3.31008425 2.10569348 0.09779127
v -3.18133713 2.10569348 0.09768601
v -2.81580359 2.11693268 0.10636100
v -3.29803690 2.11666183 0.10575034
v -3.28134475 2.11667688 0.10575034
v -3.23136514 2.11961083 0.12020518
v -2.81580359 2.07345787 0.09678061
v -2.84807505 2.07236706 0.09680165
v -2.86471880 2.07236706 0.09679110
v -2.81580359 2.07236706 0.09682269
v -2.81580359 2.04930188 0.11782586
v -2.98141858 2.04341897 0.12194225
v -2.99806232 2.04341897 0.12161592
v -3.01475447 2.04341897 0.12140533
v -3.03139822 2.04341897 0.12127903
v -3.04809035 2.04341897 0.12125793
v -2.86471880 2.05764475 0.10451860
v -3.14800124 2.05783283 0.10448701
v -3.14800124 2.07236706 0.09669639
v -3.31008425 2.08902273 0.09624368
v -3.31008425 2.11662422 0.10573985
v -2.84807505 2.11968605 0.12020518
v -2.83138292 2.11968605 0.12020518
v -2.81580359 2.11967851 0.12020518
v -3.31008425 2.11872310 0.11618350
v -3.24800889 2.11959578 0.12020518
v -3.31008425 2.11983649 0.13223850
v -3.21467300 2.11998697 0.13687077
v -3.19802925 2.11999448 0.13687077
v -2.84807505 2.12006970 0.13687077
v -2.81580359 2.04341897 0.12742730
v -3.09802160 2.04341897 0.12138429
v -3.31008425 2.05841961 0.10470809
v -3.31008425 2.06848525 0.09915992
v -3.31008425 2.07236706 0.09703327
v -2.81580359 2.11970110 0.12130007
v -2.83138292 2.12005468 0.13687077
v -3.31008425 2.11952056 0.12020518
v -3.31008425 2.11993430 0.13687077
v -3.31008425 2.12015246 0.15352593
v -3.19802925 2.12021263 0.15352593
v -2.84807505 2.12026532 0.15352593
v -2.81580359 2.04341897 0.18267767
v -3.14800124 2.04341897 0.12173167
v -3.31008425 2.04341897 0.12546909
v -3.15133966 2.04341897 0.12178436
v -3.16469336 2.04341897 0.12208966
v -2.81580359 2.12000953 0.13687077
v -2.83138292 2.12023522 0.15352593
v -2.81580359 2.12019761 0.15352593
v -2.81580359 2.12002458 0.13796572
v -3.31008425 2.11864037 0.17019159
v -3.24800889 2.11889613 0.17019159
v -3.16469336 2.11910678 0.17019159
v -2.89805468 2.11958824 0.17019159
v -2.84807505 2.11964844 0.17019159
v -2.83138292 2.11962585 0.17019159
v -2.81580359 2.06312141 0.20359656
v -2.83138292 2.06304619 0.20359656
v -2.94808270 2.04341897 0.18322508
v -3.31008425 2.04341897 0.15497875
v -2.81580359 2.11958824 0.17019159
v -3.31008425 2.11132810 0.20359656
v -3.13140586 2.11232866 0.20359656
v -2.89815145 2.11317875 0.20359656
v -2.88145931 2.11321636 0.20359656
v -2.81580359 2.11333673 0.20359656
v -2.94808270 2.06273023 0.20359656
v -2.96008167 2.04341897 0.18326722
v -3.31003591 2.04341897 0.18249867
v -3.31008425 2.05473339 0.18792053
v -3.31008425 2.06258729 0.20359656
v -3.06468571 2.06260985 0.20359656
v -2.96472645 2.04341897 0.18327771
v -3.14800124 2.04341897 0.18308823
v -3.29803690 2.06257224 0.20359656
v -3.03139822 2.04341897 0.18324618
v -3.18133713 2.06248951 0.20359656
f 1 2 3
f 1 3 4
f 1 4 5
f 1 5 2
f 2 6 21
f 2 21 42
f 2 42 54
f 2 54 66
f 2 66 69
f 2 69 68
f 2 68 80
f 2 80 85
f 2 85 76
f 2 76 61
f 2 61 49
f 2 49 29
f 2 29 13
f 2 13 12
f 2 12 28
f 2 28 25
f 2 25 7
f 2 7 8
f 2 8 9
f 2 9 3
f 2 5 10
f 2 10 6
f 3 9 4
f 4 11 12
f 4 12 13
f 4 13 14
f 4 14 15
f 4 15 16
f 4 16 5
f 4 9 11
f 5 16 17
f 5 17 18
f 5 18 19
f 5 19 20
f 5 20 10
f 6 10 20
f 6 20 19
f 6 19 22
f 6 22 23
f 6 23 24
f 6 24 21
f 7 25 8
f 8 25 9
f 9 25 26
f 9 26 27
f 9 27 11
f 11 27 12
f 12 27 26
f 12 26 28
f 13 29 30
f 13 30 31
f 13 31 32
f 13 32 33
f 13 33 34
f 13 34 35
f 13 35 14
f 14 35 34
f 14 34 15
f 15 36 37
f 15 37 16
f 15 34 36
f 16 37 38
f 16 38 17
f 17 38 18
f 18 38 53
f 18 53 52
f 18 52 51
f 18 51 63
f 18 63 79
f 18 79 89
f 18 89 90
f 18 90 81
f 18 81 70
f 18 70 58
f 18 58 57
f 18 57 45
f 18 45 56
f 18 56 43
f 18 43 39
f 18 39 19
f 19 39 22
f 21 40 41
f 21 41 42
f 21 24 40
f 22 39 43
f 22 43 44
f 22 44 24
f 22 24 23
f 24 44 45
f 24 45 46
f 24 46 47
f 24 47 48
f 24 48 40
f 25 28 26
f 29 49 30
f 30 49 61
f 30 61 78
f 30 78 87
f 30 87 92
f 30 92 95
f 30 95 93
f 30 93 88
f 30 88 79
f 30 79 63
f 30 63 65
f 30 65 64
f 30 64 62
f 30 62 50
f 30 50 34
f 30 34 33
f 30 33 32
f 30 32 31
f 34 50 36
f 36 50 51
f 36 51 52
f 36 52 53
f 36 53 37
f 37 53 38
f 40 48 41
f 41 48 42
f 42 48 55
f 42 55 54
f 43 56 44
f 44 56 45
f 45 57 46
f 46 57 58
f 46 58 59
f 46 59 47
f 47 59 48
f 48 60 55
f 48 59 60
f 50 62 51
f 51 62 64
f 51 64 65
f 51 65 63
f 54 55 66
f 55 60 67
f 55 67 68
f 55 68 69
f 55 69 66
f 58 70 71
f 58 71 72
f 58 72 73
f 58 73 74
f 58 74 59
f 59 74 60
f 60 74 75
f 60 75 67
f 61 76 77
f 61 77 78
f 67 75 80
f 67 80 68
f 70 81 82
f 70 82 71
f 71 82 83
f 71 83 72
f 72 83 84
f 72 84 85
f 72 85 73
f 73 85 74
f 74 85 75
f 75 85 80
f 76 85 84
f 76 84 83
f 76 83 82
f 76 82 81
f 76 81 90
f 76 90 94
f 76 94 96
f 76 96 91
f 76 91 86
f 76 86 77
f 77 86 87
f 77 87 78
f 79 88 89
f 86 91 92
f 86 92 87
f 88 90 89
f 88 93 90
f 90 93 95
f 90 95 94
f 91 96 92
f 92 96 95
f 94 95 96

