# https://github.com/mikedh/trimesh
v -2.08029934 -0.6445192200000001 0.38363228
v -2.06334158 -0.6445192200000001 0.3830664
v -2.08029934 -0.6445192200000001 0.44086535
v -2.08029934 -0.46992977 0.39277595
v -2.00658719 -0.6445192200000001 0.38321354
v -2.00658719 -0.6445192200000001 0.44051454
v -2.08029934 -0.46992977 0.43982986
v -2.00658719 -0.46992977 0.39520335
v -2.00658719 -0.46992977 0.43947905
f 1 2 5
f 1 5 6
f 1 6 3
f 1 3 7
f 1 7 4
f 1 4 2
f 2 4 5
f 3 6 9
f 3 9 7
f 4 7 9
f 4 9 8
f 4 8 5
f 5 8 9
f 5 9 6

