# https://github.com/mikedh/trimesh
v -2.06849376 -0.29717859 0.7274713
v -2.0784331099999998 -0.28340696 0.72873824
v -2.06849376 -0.32781792 0.72691533
v -2.06849376 -0.29717859 0.65182108
v -2.11264951 -0.28340696 0.73060668
v -2.0784331099999998 -0.28340696 0.64869483
v -2.0800280300000002 -0.32782663 0.72718875
v -2.06849376 -0.32782663 0.69458624
v -2.11336473 -0.32782663 0.72876555
v -2.06849376 -0.29932674 0.65249556
v -2.1013043 -0.32782663 0.64880418
v -2.10761817 -0.28340696 0.64225088
v -2.13003723 -0.28340696 0.73128116
v -2.06849376 -0.32782663 0.67792499
v -2.1300454 -0.32782663 0.7289114
v -2.11336473 -0.32782663 0.64667141
v -2.12950284 -0.28340696 0.63823139
v -2.14702206 -0.28340696 0.72601298
v -2.1431828299999998 -0.32782663 0.72288671
v -2.1300454 -0.32782663 0.64617012
v -2.13003723 -0.28340696 0.6381767
v -2.14720296 -0.28340696 0.72555726
v -2.14806615 -0.32782663 0.70896889
v -2.14156327 -0.32782663 0.64829377
v -2.14627398 -0.28340696 0.64275217
v -2.1524069 -0.28340696 0.70896889
v -2.14823058 -0.32782663 0.69228939
v -2.14660279 -0.32782663 0.65895773
v -2.15125594 -0.28340696 0.65895773
v -2.15248092 -0.28340696 0.69229852
v -2.14838678 -0.32782663 0.67562811
v -2.1521274200000002 -0.28340696 0.67563723
f 1 2 3
f 1 3 8
f 1 8 14
f 1 14 10
f 1 10 4
f 1 4 6
f 1 6 2
f 2 5 3
f 2 6 12
f 2 12 17
f 2 17 21
f 2 21 25
f 2 25 29
f 2 29 32
f 2 32 30
f 2 30 26
f 2 26 22
f 2 22 18
f 2 18 13
f 2 13 5
f 3 7 8
f 3 5 9
f 3 9 7
f 4 10 11
f 4 11 12
f 4 12 6
f 5 13 9
f 7 9 15
f 7 15 19
f 7 19 23
f 7 23 27
f 7 27 31
f 7 31 28
f 7 28 24
f 7 24 20
f 7 20 16
f 7 16 11
f 7 11 14
f 7 14 8
f 9 13 15
f 10 14 11
f 11 16 17
f 11 17 12
f 13 18 15
f 15 18 19
f 16 20 21
f 16 21 17
f 18 22 19
f 19 22 23
f 20 24 21
f 21 24 25
f 22 26 23
f 23 26 27
f 24 28 25
f 25 28 29
f 26 30 31
f 26 31 27
f 28 31 29
f 29 31 32
f 30 32 31

