# https://github.com/mikedh/trimesh
v -1.50632652 2.08035467 1.42496791
v -1.50632652 2.12443235 1.42496791
v -1.48019569 2.08030907 1.42496791
v -1.43010531 2.07971633 1.59157927
v -1.44680208 2.07974825 1.59157927
v -1.50632652 2.07994432 1.56550340
v -1.50632652 2.12471961 1.67486536
v -1.46357378 2.12479257 1.42496791
v -1.44680208 2.08027262 1.42496791
v -1.44680208 2.07952941 1.69153042
v -0.86361255 2.07910535 1.65816108
v -0.81299807 2.07859924 1.82551748
v -1.50632652 2.07987592 1.59157927
v -1.50632652 2.12473329 1.69153042
v -1.44687695 2.12485638 1.42496791
v -1.41348341 2.08025439 1.42496791
v -0.84699064 2.07938349 1.57495343
v -0.86361255 2.07939261 1.57495343
v -0.86361255 2.07933334 1.59157927
v -1.46357378 2.07956589 1.69153042
v -0.83029384 2.07861748 1.82551748
v -1.43010531 2.07948381 1.70819549
v -1.39626253 2.07926950 1.82551748
v -1.44680208 2.07950661 1.70819549
v -0.74695965 2.07902327 1.67486536
v -0.74695965 2.07897311 1.69153042
v -0.78027836 2.07858556 1.82551748
v -1.50632652 2.07967073 1.69153042
v -1.50632652 2.12476065 1.79152079
v -1.46357378 2.12487006 1.70819549
v -1.44680208 2.12491109 1.69153042
v -1.38023959 2.12501597 1.42496791
v -0.81359707 2.08006287 1.42496791
v -0.86361255 2.07946101 1.55824915
v -0.74141903 2.08004919 1.42496791
v -0.74695965 2.07945645 1.55824915
v -0.74141903 2.07902327 1.67486536
v -1.46357378 2.07954309 1.70819549
v -1.49689246 2.07962057 1.70819549
v -1.50632652 2.07964337 1.70819549
v -1.44680208 2.07936981 1.82551748
v -1.50632652 2.07952485 1.79877498
v -0.74636068 2.07858556 1.82551748
v -0.76298259 2.07858100 1.82551748
v -0.76365645 2.07858100 1.82551748
v -1.50632652 2.12474697 1.80818585
v -1.46357378 2.12484729 1.79152079
v -1.44680208 2.12489286 1.77485573
v -1.41348341 2.12497493 1.67486536
v -1.39686150 2.12500229 1.67486536
v -1.23019312 2.12516188 1.67486536
v -1.16355573 2.12514820 1.42496791
v -0.74141903 2.12470593 1.42496791
v -0.74141903 2.07953397 1.54158409
v -0.74141903 2.07946101 1.55824915
v -0.74141903 2.07859924 1.82551748
v -1.50632652 2.07953397 1.79152079
v -1.50632652 2.07951573 1.82551748
v -1.50632652 2.12473785 1.81759667
v -1.44680208 2.12487918 1.79152079
v -1.43010531 2.12489742 1.79152079
v -1.39686150 2.12499317 1.69153042
v -1.21357121 2.12515276 1.69153042
v -0.93032482 2.12512996 1.42496791
v -1.14685893 2.12515732 1.42496791
v -0.74141903 2.12424539 1.79152079
v -0.91362803 2.12510261 1.42496791
v -0.94694674 2.12487462 1.70819549
v -0.74141903 2.12418156 1.82551748
v -1.50632652 2.12472873 1.82551748
v -1.44680208 2.12486094 1.80818585
v -1.26343694 2.12499773 1.79152079
v -1.21357121 2.12504333 1.77485573
v -1.19679955 2.12503877 1.77485573
v -1.11368998 2.12510261 1.69153042
v -1.01358413 2.12497493 1.70819549
v -0.96364352 2.12490198 1.70819549
v -0.93032482 2.12474241 1.77485573
v -0.93032482 2.12471505 1.79152079
v -0.94694674 2.12475609 1.79152079
v -0.93032482 2.12463754 1.82485092
v -0.93032482 2.12463298 1.82551748
v -1.44747598 2.12482905 1.82551748
v -1.44680208 2.12483358 1.82485092
v -1.43010531 2.12484270 1.82485092
v -1.28013371 2.12494757 1.80818585
v -1.21357121 2.12501597 1.79152079
v -1.19679955 2.12501141 1.79152079
v -1.13023702 2.12498405 1.77485573
v -1.11368998 2.12507981 1.70819549
v -1.01358413 2.12487462 1.77485573
v -0.99696222 2.12485638 1.77485573
v -0.96364352 2.12478345 1.79152079
v -0.94754573 2.12466946 1.82551748
v -0.96364352 2.12474241 1.80818585
v -1.43077915 2.12483817 1.82551748
v -1.26418569 2.12488374 1.82551748
v -1.24681503 2.12489286 1.82485092
v -1.26343694 2.12495213 1.80818585
v -1.19679955 2.12495669 1.80818585
v -1.23019312 2.12495669 1.80818585
v -1.18017764 2.12494757 1.80818585
v -1.18017764 2.12499773 1.79152079
v -1.13023702 2.12495213 1.79152079
v -0.99696222 2.12482905 1.79152079
v -0.98026543 2.12480625 1.79152079
v -0.96364352 2.12468769 1.82551748
v -0.98026543 2.12476065 1.80818585
v -1.24748892 2.12488830 1.82551748
v -1.21409532 2.12489286 1.82551748
v -1.19679955 2.12489742 1.82485092
v -1.18017764 2.12488374 1.82551748
v -1.01358413 2.12473329 1.82551748
v -1.19679955 2.12489286 1.82551748
f 1 2 8
f 1 8 15
f 1 15 32
f 1 32 52
f 1 52 65
f 1 65 64
f 1 64 67
f 1 67 53
f 1 53 35
f 1 35 33
f 1 33 16
f 1 16 9
f 1 9 3
f 1 3 4
f 1 4 5
f 1 5 6
f 1 6 13
f 1 13 28
f 1 28 40
f 1 40 57
f 1 57 42
f 1 42 58
f 1 58 70
f 1 70 59
f 1 59 46
f 1 46 29
f 1 29 14
f 1 14 7
f 1 7 2
f 2 7 8
f 3 9 4
f 4 10 5
f 4 9 11
f 4 11 12
f 4 12 10
f 5 10 13
f 5 13 6
f 7 14 8
f 8 14 15
f 9 16 17
f 9 17 18
f 9 18 19
f 9 19 11
f 10 20 13
f 10 12 21
f 10 21 22
f 10 22 23
f 10 23 24
f 10 24 38
f 10 38 20
f 11 19 17
f 11 17 25
f 11 25 26
f 11 26 27
f 11 27 12
f 12 27 45
f 12 45 44
f 12 44 43
f 12 43 56
f 12 56 69
f 12 69 82
f 12 82 94
f 12 94 107
f 12 107 113
f 12 113 112
f 12 112 114
f 12 114 110
f 12 110 109
f 12 109 97
f 12 97 96
f 12 96 83
f 12 83 70
f 12 70 58
f 12 58 41
f 12 41 23
f 12 23 21
f 13 20 28
f 14 29 15
f 15 29 30
f 15 30 31
f 15 31 32
f 16 33 34
f 16 34 17
f 17 19 18
f 17 34 35
f 17 35 36
f 17 36 37
f 17 37 25
f 20 38 39
f 20 39 40
f 20 40 28
f 21 23 22
f 23 41 24
f 24 41 42
f 24 42 38
f 25 37 26
f 26 37 43
f 26 43 44
f 26 44 45
f 26 45 27
f 29 46 47
f 29 47 48
f 29 48 31
f 29 31 30
f 31 48 49
f 31 49 32
f 32 49 50
f 32 50 51
f 32 51 52
f 33 35 34
f 35 53 66
f 35 66 69
f 35 69 56
f 35 56 37
f 35 37 55
f 35 55 54
f 35 54 36
f 36 54 55
f 36 55 37
f 37 56 43
f 38 42 57
f 38 57 39
f 39 57 40
f 41 58 42
f 46 59 47
f 47 59 60
f 47 60 48
f 48 60 61
f 48 61 51
f 48 51 62
f 48 62 50
f 48 50 49
f 50 62 51
f 51 61 63
f 51 63 64
f 51 64 65
f 51 65 52
f 53 67 68
f 53 68 66
f 59 70 71
f 59 71 60
f 60 71 61
f 61 71 72
f 61 72 63
f 63 73 74
f 63 74 75
f 63 75 64
f 63 72 73
f 64 75 76
f 64 76 77
f 64 77 68
f 64 68 67
f 66 68 78
f 66 78 79
f 66 79 69
f 68 80 78
f 68 77 93
f 68 93 80
f 69 79 80
f 69 80 81
f 69 81 82
f 70 83 84
f 70 84 71
f 71 84 72
f 72 84 85
f 72 85 86
f 72 86 87
f 72 87 73
f 73 87 88
f 73 88 74
f 74 88 89
f 74 89 90
f 74 90 75
f 75 90 76
f 76 90 91
f 76 91 92
f 76 92 77
f 77 92 93
f 78 80 79
f 80 94 81
f 80 93 95
f 80 95 94
f 81 94 82
f 83 96 85
f 83 85 84
f 85 96 97
f 85 97 98
f 85 98 86
f 86 98 99
f 86 99 87
f 87 100 88
f 87 99 101
f 87 101 111
f 87 111 100
f 88 100 102
f 88 102 103
f 88 103 89
f 89 104 105
f 89 105 91
f 89 91 90
f 89 103 104
f 91 105 92
f 92 105 106
f 92 106 93
f 93 106 95
f 94 95 107
f 95 106 105
f 95 105 108
f 95 108 107
f 97 109 98
f 98 109 110
f 98 110 111
f 98 111 101
f 98 101 99
f 100 111 102
f 102 111 112
f 102 112 113
f 102 113 107
f 102 107 108
f 102 108 105
f 102 105 104
f 102 104 103
f 110 114 111
f 111 114 112

