# https://github.com/mikedh/trimesh
v -0.36338099 -0.67805783 0.9424471
v -0.3635840699999999 -0.7113874099999999 0.9424471
v -0.36340353999999997 -0.67805783 0.92577708
v -0.3669921600000001 -0.66486552 0.92577708
v -0.36700343 -0.66489584 0.9424471
v -0.36343740999999996 -0.67805783 0.95912963
v -0.36352765 -0.69471757 0.97593732
v -0.36347123000000003 -0.69471757 0.95912963
v -0.36357280000000003 -0.7113874099999999 0.95912963
v -0.36418222 -0.7280471399999999 0.9424471
v -0.36423863999999995 -0.7280471399999999 0.92577708
v -0.36366310000000013 -0.7113874099999999 0.92577708
v -0.3637872099999999 -0.7113874099999999 0.90910706
v -0.3642950600000001 -0.7113874099999999 0.84808378
v -0.36357280000000003 -0.67805783 0.90910706
v -0.36756769999999994 -0.66527998 0.84808378
v -0.3670937300000001 -0.66493628 0.90910706
v -0.39229296 -0.64092726 0.89243704
v -0.36716141999999996 -0.6650676799999999 0.97579965
v -0.36705984999999997 -0.66500704 0.95912963
v -0.39236066 -0.64092726 0.90536507
v -0.39238320000000004 -0.64092726 0.90911958
v -0.36712754000000003 -0.66516878 0.97593732
v -0.36357280000000003 -0.67805783 0.97593732
v -0.36360667999999996 -0.71149861 0.97593732
v -0.3641934900000001 -0.7280471399999999 0.95912963
v -0.36421603000000013 -0.7280471399999999 0.97579965
v -0.3642273600000001 -0.72814823 0.97593732
v -0.36771434999999997 -0.7394299200000001 0.95912963
v -0.36771434999999997 -0.7394299200000001 0.9424471
v -0.3677482300000001 -0.73941981 0.92577708
v -0.36780465000000007 -0.7393692700000001 0.90910706
v -0.36810936000000005 -0.73910646 0.84808378
v -0.36436274999999996 -0.7280471399999999 0.90910706
v -0.3649270200000001 -0.7280471399999999 0.84808378
v -0.3642950600000001 -0.69471757 0.84808378
v -0.36438535000000005 -0.67805783 0.84808378
v -0.36647304 -0.6696572000000001 0.84808378
v -0.3789880000000001 -0.65912356 0.84808378
v -0.3975291700000001 -0.64092726 0.87544163
v -0.36724044 -0.66500704 0.89243704
v -0.36725172000000006 -0.66502726 0.97593732
v -0.39255251999999996 -0.64092726 0.92201006
v -0.39262021 -0.64092726 0.92575205
v -0.3952721699999999 -0.64092726 0.93868008
v -0.3677256900000001 -0.73944003 0.97593732
v -0.3789880000000001 -0.74337248 0.92577708
v -0.3677256900000001 -0.73944003 0.97579965
v -0.3789880000000001 -0.74331183 0.90910706
v -0.3789880000000001 -0.74295801 0.84808378
v -0.38468689999999994 -0.6579307 0.84808378
v -0.41233495 -0.64092726 0.86923418
v -0.40039552999999994 -0.64092726 0.87409001
v -0.39640063999999997 -0.64092726 0.9424471
v -0.40079047999999995 -0.64092726 0.9506945
v -0.3789880000000001 -0.65923476 0.97593732
v -0.3789880000000001 -0.74337248 0.97593732
v -0.39566711 -0.7442014100000001 0.92577708
v -0.39566711 -0.7441306400000001 0.89243704
v -0.39566711 -0.7439992200000001 0.84808378
v -0.39557686999999997 -0.65672771 0.84808378
v -0.4026412100000001 -0.6565963 0.84808378
v -0.41250422 -0.64092726 0.86923418
v -0.40202052 -0.64092726 0.95264685
v -0.39566711 -0.6580115799999999 0.97593732
v -0.4103262300000001 -0.64092726 0.95478692
v -0.39566711 -0.74411043 0.97593732
v -0.41231240999999996 -0.7438071500000001 0.97593732
v -0.41231240999999996 -0.74387791 0.92577708
v -0.4289801900000001 -0.74358475 0.85908449
v -0.41231240999999996 -0.74388802 0.87575451
v -0.41231240999999996 -0.74387791 0.85908449
v -0.41231240999999996 -0.74384759 0.84808378
v -0.41231240999999996 -0.65702088 0.84808378
v -0.4283256900000001 -0.64092726 0.87004766
v -0.3957912800000001 -0.6580115799999999 0.97593732
v -0.41233495 -0.64092726 0.95492459
v -0.4289801900000001 -0.74343311 0.97593732
v -0.43736493 -0.7415831500000001 0.85004864
v -0.4289801900000001 -0.7435746400000001 0.84808378
v -0.4444067199999999 -0.7398039599999999 0.97593732
v -0.4168827800000001 -0.65898203 0.84808378
v -0.47865647 -0.6409373700000001 0.8763302
v -0.4456706400000001 -0.64092726 0.87271336
v -0.41231240999999996 -0.65832495 0.97593732
v -0.42899152000000007 -0.64092726 0.95389835
v -0.47865647 -0.6409373700000001 0.95212122
v -0.4443615700000001 -0.7398747299999999 0.84808378
v -0.43917051000000007 -0.74113838 0.84808378
v -0.43736493 -0.74157305 0.84808378
v -0.44918023000000007 -0.73440574 0.97593732
v -0.47864514 -0.7112054400000001 0.9424471
v -0.47864514 -0.7158455100000001 0.9262902
v -0.47864514 -0.71592636 0.92575205
v -0.45213689 -0.7345068299999999 0.9424471
v -0.45189988000000003 -0.7346888 0.92575205
v -0.4260348600000001 -0.66321773 0.84808378
v -0.44918023000000007 -0.64092726 0.8741651
v -0.47865647 -0.64469793 0.87419013
v -0.4124252500000001 -0.6583653899999999 0.97593732
v -0.44918023000000007 -0.64092726 0.95219631
v -0.47865647 -0.6665031800000001 0.95233398
v -0.47864514 -0.69471757 0.95272194
v -0.45459698000000004 -0.71136719 0.97593732
v -0.45436002 -0.69959013 0.97593732
v -0.4531638 -0.69133103 0.97593732
v -0.4530961 -0.6911895 0.97593732
v -0.44481294000000005 -0.68171731 0.97593732
v -0.42597843999999996 -0.66420842 0.97593732
v -0.47864514 -0.71586572 0.89243704
v -0.44721666000000004 -0.7371756300000001 0.84808378
v -0.45275752 -0.73035201 0.97593732
v -0.47864514 -0.7110538 0.94275998
v -0.47865647 -0.6665031800000001 0.87164958
v -0.44525309 -0.68099957 0.84808378
v -0.47865647 -0.66136777 0.8717497
v -0.4505795400000001 -0.68776254 0.84808378
v -0.4548452599999999 -0.69377742 0.84808378
v -0.47864514 -0.70476597 0.9517708
v -0.47864514 -0.70444247 0.95184589
v -0.4542471800000001 -0.7220726900000001 0.97593732
v -0.45425845 -0.72192105 0.97593732
v -0.47864514 -0.70949701 0.87760673
v -0.45272369999999995 -0.73100907 0.84808378
v -0.47865647 -0.66174182 0.87171216
v -0.45593992000000005 -0.7057263300000001 0.84808378
v -0.47864514 -0.69151299 0.87132419
v -0.47864514 -0.69471757 0.87132419
v -0.47864514 -0.6952230100000001 0.87146186
v -0.4557705999999999 -0.6990745700000001 0.84808378
v -0.45559006999999996 -0.71849407 0.84808378
f 1 2 3
f 1 3 4
f 1 4 5
f 1 5 6
f 1 6 7
f 1 7 8
f 1 8 9
f 1 9 2
f 2 10 11
f 2 11 12
f 2 12 3
f 2 9 10
f 3 12 13
f 3 13 14
f 3 14 15
f 3 15 16
f 3 16 17
f 3 17 4
f 4 17 18
f 4 18 5
f 5 19 20
f 5 20 6
f 5 18 21
f 5 21 22
f 5 22 19
f 6 20 23
f 6 23 24
f 6 24 7
f 7 24 23
f 7 23 42
f 7 42 56
f 7 56 65
f 7 65 76
f 7 76 85
f 7 85 100
f 7 100 109
f 7 109 108
f 7 108 107
f 7 107 106
f 7 106 105
f 7 105 104
f 7 104 122
f 7 122 121
f 7 121 112
f 7 112 91
f 7 91 81
f 7 81 78
f 7 78 68
f 7 68 67
f 7 67 57
f 7 57 46
f 7 46 28
f 7 28 25
f 7 25 8
f 8 25 9
f 9 26 10
f 9 25 27
f 9 27 26
f 10 26 28
f 10 28 29
f 10 29 30
f 10 30 31
f 10 31 11
f 11 31 32
f 11 32 33
f 11 33 34
f 11 34 13
f 11 13 12
f 13 34 14
f 14 35 33
f 14 33 50
f 14 50 60
f 14 60 73
f 14 73 80
f 14 80 90
f 14 90 89
f 14 89 88
f 14 88 111
f 14 111 124
f 14 124 131
f 14 131 126
f 14 126 130
f 14 130 118
f 14 118 117
f 14 117 115
f 14 115 97
f 14 97 82
f 14 82 74
f 14 74 62
f 14 62 61
f 14 61 51
f 14 51 39
f 14 39 16
f 14 16 38
f 14 38 37
f 14 37 36
f 14 36 15
f 14 34 35
f 15 36 37
f 15 37 38
f 15 38 16
f 16 39 40
f 16 40 18
f 16 18 41
f 16 41 17
f 17 41 18
f 18 40 53
f 18 53 52
f 18 52 63
f 18 63 75
f 18 75 84
f 18 84 98
f 18 98 101
f 18 101 86
f 18 86 77
f 18 77 66
f 18 66 64
f 18 64 55
f 18 55 54
f 18 54 45
f 18 45 44
f 18 44 43
f 18 43 22
f 18 22 21
f 19 42 23
f 19 23 20
f 19 22 43
f 19 43 44
f 19 44 45
f 19 45 42
f 25 28 27
f 26 27 28
f 28 46 29
f 29 46 48
f 29 48 30
f 30 47 31
f 30 48 47
f 31 47 49
f 31 49 32
f 32 49 50
f 32 50 33
f 33 35 34
f 39 51 52
f 39 52 53
f 39 53 40
f 42 45 54
f 42 54 55
f 42 55 56
f 46 57 47
f 46 47 48
f 47 57 58
f 47 58 59
f 47 59 60
f 47 60 49
f 49 60 50
f 51 61 52
f 52 61 62
f 52 62 63
f 55 64 56
f 56 64 66
f 56 66 65
f 57 67 58
f 58 67 68
f 58 68 69
f 58 69 70
f 58 70 71
f 58 71 72
f 58 72 59
f 59 72 73
f 59 73 60
f 62 74 75
f 62 75 63
f 65 66 77
f 65 77 76
f 68 78 69
f 69 78 70
f 70 79 80
f 70 80 72
f 70 72 71
f 70 78 81
f 70 81 79
f 72 80 73
f 74 82 83
f 74 83 75
f 75 83 84
f 76 77 85
f 77 86 87
f 77 87 85
f 79 81 88
f 79 88 89
f 79 89 90
f 79 90 80
f 81 91 92
f 81 92 93
f 81 93 94
f 81 94 95
f 81 95 96
f 81 96 88
f 82 97 83
f 83 87 101
f 83 101 98
f 83 98 84
f 83 97 99
f 83 99 116
f 83 116 125
f 83 125 114
f 83 114 102
f 83 102 87
f 85 87 100
f 86 101 87
f 87 102 103
f 87 103 104
f 87 104 105
f 87 105 106
f 87 106 107
f 87 107 108
f 87 108 109
f 87 109 100
f 88 110 111
f 88 96 94
f 88 94 110
f 91 112 92
f 92 113 102
f 92 102 93
f 92 112 113
f 93 102 94
f 94 96 95
f 94 102 114
f 94 114 110
f 97 115 99
f 99 115 117
f 99 117 118
f 99 118 116
f 102 113 119
f 102 119 120
f 102 120 103
f 103 120 121
f 103 121 122
f 103 122 104
f 110 114 123
f 110 123 124
f 110 124 111
f 112 121 120
f 112 120 119
f 112 119 113
f 114 125 126
f 114 126 127
f 114 127 128
f 114 128 129
f 114 129 123
f 116 118 130
f 116 130 125
f 123 129 124
f 124 129 131
f 125 130 126
f 126 131 128
f 126 128 127
f 128 131 129

