# https://github.com/mikedh/trimesh
v -3.67159962 2.04998293 0.57244577
v -3.67159962 2.04998293 0.50959724
v -3.72074083 2.04998293 0.57263815
v -3.56106085 1.94271895 0.56852245
v -3.56031555 2.04787231 0.57175179
v -3.72074083 2.04998293 0.50679389
v -3.56031555 2.04787231 0.51222195
v -3.72951899 2.01479531 0.56944317
v -3.72951899 2.00754986 0.56947064
v -3.72951899 2.00567026 0.56947064
v -3.72951899 1.99089586 0.56942943
v -3.72951899 1.97238324 0.56932637
v -3.72951899 1.95571874 0.56916833
v -3.72951899 1.94270846 0.56898969
v -3.58139973 1.94271895 0.56859117
v -3.56473777 1.94271895 0.56853618
v -3.56031555 1.94271895 0.56851559
v -3.67159962 1.94270846 0.56870111
v -3.72951899 2.01479531 0.50269881
v -3.56031555 1.94271895 0.51317015
v -3.72951899 1.95454267 0.50259575
v -3.72951899 1.99262847 0.50244460
v -3.72951899 1.94270846 0.50308359
v -3.67159962 1.94270846 0.51291590
f 1 2 6
f 1 6 3
f 1 3 4
f 1 4 5
f 1 5 7
f 1 7 2
f 2 7 6
f 3 6 19
f 3 19 8
f 3 8 9
f 3 9 10
f 3 10 11
f 3 11 12
f 3 12 13
f 3 13 14
f 3 14 15
f 3 15 16
f 3 16 4
f 4 17 5
f 4 16 14
f 4 14 18
f 4 18 17
f 5 17 20
f 5 20 7
f 6 7 19
f 7 20 21
f 7 21 22
f 7 22 19
f 8 19 22
f 8 22 21
f 8 21 23
f 8 23 14
f 8 14 13
f 8 13 12
f 8 12 11
f 8 11 10
f 8 10 9
f 14 23 24
f 14 24 18
f 14 16 15
f 17 18 24
f 17 24 20
f 20 24 23
f 20 23 21

