# https://github.com/mikedh/trimesh
v -0.47891024000000004 -0.32808246 1.47608415
v -0.47906519000000003 -0.57836807 1.47604375
v -0.47891024000000004 -0.57836807 1.47603868
v -0.47891024000000004 -0.32808246 1.42762519
v -1.19612626 -0.32808246 1.4771653
v -1.24608893 -0.57795158 1.47728652
v -1.24608893 -0.57836807 1.47728652
v -0.47891024000000004 -0.57836807 1.42775148
v -0.47891024000000004 -0.5614635 1.42766056
v -0.92927139 -0.32808246 1.4258216
v -1.21278047 -0.32808246 1.47717538
v -1.26274315 -0.57795158 1.47730674
v -1.26274315 -0.57836807 1.47730674
v -0.47891024000000004 -0.57795158 1.42774644
v -0.9455382999999999 -0.57836807 1.42656426
v -1.11231291 -0.57836807 1.42618536
v -0.9456932199999999 -0.32808246 1.42578624
v -1.24608893 -0.32808246 1.47718549
v -1.27025691 -0.57795158 1.47730674
v -1.27025691 -0.57836807 1.47730674
v -1.11270022 -0.32808246 1.42570035
v -1.11270022 -0.57836807 1.42618536
v -1.2630529799999999 -0.32808246 1.47718549
v -1.27025691 -0.32808246 1.47718045
v -1.27025691 -0.57836807 1.42651374
v -1.12935445 -0.57836807 1.42619547
v -1.16243049 -0.32808246 1.42573068
v -1.27025691 -0.32808246 1.42613484
v -1.22943469 -0.32808246 1.42594286
v -1.17916218 -0.32808246 1.4257812
f 1 2 3
f 1 3 8
f 1 8 14
f 1 14 9
f 1 9 4
f 1 4 10
f 1 10 17
f 1 17 21
f 1 21 27
f 1 27 30
f 1 30 29
f 1 29 28
f 1 28 24
f 1 24 23
f 1 23 18
f 1 18 11
f 1 11 5
f 1 5 6
f 1 6 7
f 1 7 2
f 2 7 13
f 2 13 20
f 2 20 25
f 2 25 26
f 2 26 22
f 2 22 16
f 2 16 15
f 2 15 8
f 2 8 3
f 4 9 10
f 5 11 12
f 5 12 6
f 6 12 13
f 6 13 7
f 8 15 14
f 9 14 15
f 9 15 10
f 10 15 16
f 10 16 17
f 11 18 12
f 12 18 23
f 12 23 19
f 12 19 20
f 12 20 13
f 16 21 17
f 16 22 21
f 19 23 24
f 19 24 28
f 19 28 25
f 19 25 20
f 21 22 26
f 21 26 27
f 25 28 29
f 25 29 30
f 25 30 27
f 25 27 26

