# https://github.com/mikedh/trimesh
v 2.25305172 1.94632807 0.80002589
v 2.25003719 2.05113498 0.80002589
v 2.30767505 1.94632807 0.80002589
v 2.22573183 1.94632807 0.83764739
v 2.24641475 2.05113498 0.80502409
v 2.30848824 2.05113498 0.80002589
v 2.30887430 1.94632807 0.80354514
v 2.22573183 2.05108366 0.83417131
v 2.22573183 1.94632807 0.83817635
v 2.22809750 2.05113498 0.83316735
v 2.30935072 2.05113498 0.80354514
v 2.30946570 2.05113498 0.80808995
v 2.30964643 2.05113498 0.82021302
v 2.30899750 1.94632807 0.81291543
v 2.22573183 2.05113498 0.90366042
v 2.23296837 1.94632807 0.90104797
v 2.22573183 1.94635886 0.89885653
v 2.30912893 2.05113498 0.83688091
v 2.30907964 1.94632807 0.82021302
v 2.22573183 2.05113498 0.90403825
v 2.25175388 1.94632807 0.91029951
v 2.30852931 2.05113498 0.85353801
v 2.30871825 1.94632807 0.82958332
v 2.24459125 2.05113498 0.91029951
v 2.29339908 1.94632807 0.91029951
v 2.29693110 2.05113498 0.91029951
v 2.30772434 1.94632807 0.85353801
v 2.30804472 1.94632807 0.84625121
v 2.30843072 1.94632807 0.83688091
f 1 2 6
f 1 6 3
f 1 3 7
f 1 7 14
f 1 14 19
f 1 19 23
f 1 23 29
f 1 29 28
f 1 28 27
f 1 27 25
f 1 25 21
f 1 21 16
f 1 16 9
f 1 9 4
f 1 4 2
f 2 4 5
f 2 5 10
f 2 10 15
f 2 15 20
f 2 20 24
f 2 24 26
f 2 26 22
f 2 22 18
f 2 18 13
f 2 13 12
f 2 12 11
f 2 11 6
f 3 6 7
f 4 8 5
f 4 9 17
f 4 17 20
f 4 20 15
f 4 15 8
f 5 8 10
f 6 11 7
f 7 11 12
f 7 12 13
f 7 13 14
f 8 15 10
f 9 16 17
f 13 18 19
f 13 19 14
f 16 21 17
f 17 21 20
f 18 22 19
f 19 22 23
f 20 21 24
f 21 25 26
f 21 26 24
f 22 26 27
f 22 27 28
f 22 28 29
f 22 29 23
f 25 27 26

