# https://github.com/mikedh/trimesh
v 0.78585371 1.59927800 0.56925043
v 0.78800217 1.78786810 0.56881325
v 0.78800217 1.83897788 0.56885361
v 0.78800217 1.85135568 0.56886031
v 0.78800217 1.93900508 0.56888052
v 0.78697297 2.02236108 0.56883343
v 0.77566594 1.60571812 0.56923025
v 0.77566594 1.58909258 0.56923699
v 0.78585371 1.58909258 0.56923699
v 0.78585371 1.58260680 0.56921681
v 0.78585371 1.57237570 0.56917646
v 0.78585371 1.57228436 0.56334508
v 0.78800217 1.78786810 0.50055192
v 0.78800217 1.94270471 0.56887378
v 0.78697297 2.03889524 0.56880652
v 0.76884402 2.02236108 0.56880652
v 0.76766264 1.59777073 0.56921681
v 0.76766264 1.58909258 0.56921681
v 0.76766264 1.58109954 0.56919663
v 0.76766264 1.57228436 0.56916972
v 0.77563185 1.57228436 0.56917646
v 0.78585371 1.57228436 0.51878587
v 0.78585371 1.60571812 0.50152718
v 0.78800217 1.83884086 0.50053848
v 0.78585371 1.57233005 0.50167515
v 0.78800217 1.94270471 0.50191056
v 0.76884402 2.03889524 0.56877961
v 0.78697297 2.03889524 0.50187020
v 0.76754653 1.94270471 0.56877290
v 0.76754653 1.93900508 0.56877290
v 0.76754653 1.78786810 0.56872581
v 0.76766264 1.57228436 0.50978660
v 0.77573002 1.57228436 0.50832037
v 0.78800217 1.85564908 0.50053848
v 0.78800217 1.90566268 0.50107656
v 0.76884402 2.03889524 0.50992786
v 0.78800217 1.88899149 0.50084786
v 0.76754653 1.94270471 0.51210032
v 0.76754653 1.78786810 0.51195235
v 0.76754653 1.80577251 0.51195235
v 0.76754653 1.88944822 0.51200617
v 0.76754653 1.90630212 0.51201962
f 1 2 3
f 1 3 4
f 1 4 5
f 1 5 6
f 1 6 7
f 1 7 8
f 1 8 9
f 1 9 2
f 2 9 10
f 2 10 11
f 2 11 12
f 2 12 22
f 2 22 13
f 2 13 24
f 2 24 34
f 2 34 37
f 2 37 35
f 2 35 26
f 2 26 14
f 2 14 5
f 2 5 4
f 2 4 3
f 5 14 15
f 5 15 6
f 6 15 27
f 6 27 16
f 6 16 7
f 7 17 8
f 7 16 17
f 8 10 9
f 8 17 18
f 8 18 19
f 8 19 20
f 8 20 21
f 8 21 10
f 10 21 11
f 11 21 12
f 12 21 20
f 12 20 32
f 12 32 33
f 12 33 22
f 13 23 24
f 13 22 25
f 13 25 23
f 14 26 28
f 14 28 15
f 15 28 36
f 15 36 27
f 16 27 29
f 16 29 17
f 17 29 30
f 17 30 18
f 18 30 31
f 18 31 19
f 19 31 20
f 20 31 39
f 20 39 32
f 22 33 25
f 23 25 32
f 23 32 24
f 24 32 34
f 25 33 32
f 26 35 28
f 27 36 38
f 27 38 29
f 28 35 37
f 28 37 34
f 28 34 36
f 29 38 42
f 29 42 41
f 29 41 40
f 29 40 39
f 29 39 31
f 29 31 30
f 32 39 40
f 32 40 41
f 32 41 42
f 32 42 38
f 32 38 36
f 32 36 34

