# https://github.com/mikedh/trimesh
v 1.07562197 2.04340939 0.12125636
v 1.09231410 2.04340939 0.12127460
v 0.97580784 2.02223679 0.13228778
v 0.94247198 2.02223679 0.13226960
v 0.92582823 2.02223679 0.13226352
v 0.90913608 2.02223679 0.13225744
v 0.90903931 2.02223679 0.13225744
v 0.81367642 2.02223679 0.13228176
v 1.02569071 2.04340939 0.12138386
v 1.10895784 2.04340939 0.12140210
v 1.14243887 2.02223679 0.13274317
v 1.12564997 2.02223679 0.13268243
v 1.00914373 2.02223679 0.13234852
v 0.99249999 2.02223679 0.13230602
v 0.81367642 2.02223679 0.18014736
v 0.81367642 2.04340939 0.12546371
v 0.95901895 2.04340939 0.12208809
v 0.97237268 2.04340939 0.12178459
v 0.97571110 2.04340939 0.12172993
v 1.12564997 2.04340939 0.12161459
v 1.30790870 2.02223679 0.13401812
v 0.81367642 2.04340939 0.18249693
v 0.95887379 2.02223679 0.18069984
v 1.14229372 2.04340939 0.12194242
v 1.30790870 2.04340939 0.12742472
v 1.30790870 2.02223679 0.18026883
v 0.97571110 2.04340939 0.18309191
v 0.97556593 2.02223679 0.18075450
v 1.30790870 2.04340939 0.18267908
v 1.29232938 2.04340939 0.18274590
v 1.17562960 2.04340939 0.18323156
v 1.15898585 2.02223679 0.18074240
v 1.09231410 2.04340939 0.18324980
v 1.10886107 2.02223679 0.18081523
v 1.16363063 2.04340939 0.18326798
v 1.15898585 2.04340939 0.18328014
v 1.14229372 2.02223679 0.18077273
v 1.10895784 2.02223679 0.18081523
v 1.12564997 2.02223679 0.18079699
f 1 2 14
f 1 14 3
f 1 3 4
f 1 4 5
f 1 5 6
f 1 6 7
f 1 7 8
f 1 8 9
f 1 9 19
f 1 19 18
f 1 18 17
f 1 17 16
f 1 16 22
f 1 22 27
f 1 27 33
f 1 33 36
f 1 36 35
f 1 35 31
f 1 31 30
f 1 30 29
f 1 29 25
f 1 25 24
f 1 24 20
f 1 20 10
f 1 10 2
f 2 10 11
f 2 11 12
f 2 12 13
f 2 13 14
f 3 14 13
f 3 13 12
f 3 12 11
f 3 11 21
f 3 21 26
f 3 26 32
f 3 32 37
f 3 37 39
f 3 39 38
f 3 38 34
f 3 34 28
f 3 28 23
f 3 23 15
f 3 15 8
f 3 8 7
f 3 7 6
f 3 6 5
f 3 5 4
f 8 15 22
f 8 22 16
f 8 16 17
f 8 17 18
f 8 18 19
f 8 19 9
f 10 20 21
f 10 21 11
f 15 23 22
f 20 24 21
f 21 25 29
f 21 29 26
f 21 24 25
f 22 23 27
f 23 28 27
f 26 29 30
f 26 30 31
f 26 31 32
f 27 28 33
f 28 34 33
f 31 35 32
f 32 35 36
f 32 36 37
f 33 34 36
f 34 38 36
f 36 38 39
f 36 39 37

