# https://github.com/mikedh/trimesh
v -2.81580358 1.96982563 1.22219471
v -2.81580358 1.96982563 1.11939044
v -2.83138050 1.96982563 1.22216430
v -2.85392860 1.57217439 1.22122190
v -2.81580358 1.57217439 1.22123203
v -2.82399508 1.96982563 1.12384919
v -2.81580358 1.90563937 1.11881284
v -2.82637976 1.88901867 1.12396065
v -2.85392860 1.96982563 1.22211364
v -2.85392860 1.57217439 1.16017775
v -2.81580358 1.57217439 1.12089019
v -2.82546918 1.96982563 1.12465986
v -2.81580358 1.88901867 1.11869123
v -2.82645440 1.87232012 1.12388972
v -2.85392860 1.90563937 1.16230578
v -2.85392860 1.92233792 1.16251859
v -2.85392860 1.96982563 1.16317726
v -2.82649172 1.70572386 1.12417345
v -2.82648799 1.68906423 1.12422412
v -2.82645067 1.63904643 1.12440652
v -2.82640589 1.62238680 1.12448759
v -2.82636110 1.60572719 1.12460920
v -2.82629766 1.57236900 1.12491320
v -2.82629020 1.57217439 1.12492333
v -2.85392860 1.67209321 1.16051215
v -2.81580358 1.57236900 1.12086993
v -2.81580358 1.87232012 1.11868110
v -2.85392860 1.88901867 1.16214364
v -2.82644320 1.75570274 1.12406199
v -2.85392860 1.72386261 1.16077562
v -2.81580358 1.77228451 1.11887363
v -2.81580358 1.68906423 1.11921817
v -2.81580358 1.65570605 1.11946138
v -2.81580358 1.63904643 1.11959311
v -2.81580358 1.60572719 1.12004912
v -2.81580358 1.58902863 1.12028219
f 1 2 6
f 1 6 12
f 1 12 17
f 1 17 9
f 1 9 3
f 1 3 4
f 1 4 5
f 1 5 11
f 1 11 26
f 1 26 36
f 1 36 35
f 1 35 34
f 1 34 33
f 1 33 32
f 1 32 31
f 1 31 27
f 1 27 13
f 1 13 7
f 1 7 2
f 2 7 8
f 2 8 6
f 3 9 4
f 4 10 24
f 4 24 11
f 4 11 5
f 4 9 17
f 4 17 16
f 4 16 15
f 4 15 28
f 4 28 30
f 4 30 25
f 4 25 10
f 6 8 12
f 7 13 8
f 8 13 14
f 8 14 15
f 8 15 16
f 8 16 17
f 8 17 12
f 10 18 19
f 10 19 20
f 10 20 21
f 10 21 22
f 10 22 23
f 10 23 24
f 10 25 14
f 10 14 18
f 11 24 26
f 13 27 14
f 14 28 15
f 14 27 29
f 14 29 18
f 14 25 30
f 14 30 28
f 18 29 27
f 18 27 31
f 18 31 19
f 19 31 20
f 20 31 32
f 20 32 21
f 21 32 33
f 21 33 34
f 21 34 22
f 22 34 23
f 23 34 35
f 23 35 36
f 23 36 26
f 23 26 24

