# https://github.com/mikedh/trimesh
v 2.07544258 1.57234265 0.56784610
v 2.22905994 1.57231583 0.56775222
v 2.07544258 1.57234265 0.51134974
v 1.85903773 1.57234265 0.56847774
v 2.22905994 1.52239582 0.56881060
v 2.22905994 1.57231583 0.50557976
v 1.85903773 1.57234265 0.51000112
v 1.85896531 1.57234265 0.56823020
v 1.85896531 1.57228005 0.56846918
v 1.85896531 1.55561024 0.56846066
v 2.22905994 1.50569918 0.56860577
v 1.85896531 1.53894042 0.56832410
v 2.22905994 1.53754530 0.48955009
v 2.14232412 1.53901197 0.48943059
v 2.12565805 1.53901197 0.48937938
v 1.85896531 1.53901197 0.48917452
v 1.85896531 1.54842899 0.49392028
v 1.85896531 1.57234265 0.51549799
v 2.22905994 1.49314315 0.56549030
v 1.85896531 1.52228851 0.56809364
v 1.85903773 1.50569918 0.56777782
v 1.85896531 1.50565447 0.56776930
v 2.22905994 1.52236900 0.48360943
v 2.04232789 1.52236900 0.48406177
v 1.85896531 1.52236900 0.48517997
v 2.15899013 1.52236900 0.48366915
v 2.14232412 1.52236900 0.48371183
v 2.10899204 1.52236900 0.48381429
v 2.22905994 1.48753589 0.55736454
v 1.85903773 1.49343829 0.56473066
v 1.85896531 1.49341146 0.56467943
v 2.22905994 1.50569918 0.48162065
v 1.85896531 1.50569918 0.48416423
v 2.22905994 1.48597084 0.55352356
v 1.85903773 1.48673995 0.55352356
v 1.85896531 1.48673101 0.55344675
v 2.22905994 1.50059272 0.48261075
v 1.85896531 1.49011146 0.48943059
v 2.22905994 1.48257248 0.54184703
v 1.85903773 1.48342209 0.53685376
v 1.85896531 1.48342209 0.53678548
v 2.22905994 1.48785782 0.48850027
v 1.85903773 1.48271559 0.50353977
v 1.85896531 1.48275136 0.50348002
v 2.22905994 1.48636435 0.48961840
v 2.22905994 1.48177657 0.53686228
v 1.85903773 1.48273347 0.52020957
v 2.22905994 1.48132942 0.52609906
v 1.85896531 1.48273347 0.52013274
v 2.22905994 1.48098064 0.50066332
v 2.22905994 1.48098064 0.50039870
v 2.22905994 1.48100746 0.50369341
v 2.22905994 1.48118633 0.52020957
f 1 2 6
f 1 6 3
f 1 3 7
f 1 7 18
f 1 18 8
f 1 8 4
f 1 4 2
f 2 5 11
f 2 11 19
f 2 19 29
f 2 29 34
f 2 34 39
f 2 39 46
f 2 46 48
f 2 48 53
f 2 53 52
f 2 52 50
f 2 50 51
f 2 51 45
f 2 45 42
f 2 42 37
f 2 37 32
f 2 32 23
f 2 23 13
f 2 13 6
f 2 4 5
f 3 6 7
f 4 8 9
f 4 9 10
f 4 10 5
f 5 10 12
f 5 12 11
f 6 13 14
f 6 14 15
f 6 15 16
f 6 16 17
f 6 17 7
f 7 17 18
f 8 18 17
f 8 17 16
f 8 16 25
f 8 25 33
f 8 33 38
f 8 38 44
f 8 44 49
f 8 49 41
f 8 41 36
f 8 36 31
f 8 31 22
f 8 22 20
f 8 20 12
f 8 12 10
f 8 10 9
f 11 12 20
f 11 20 21
f 11 21 22
f 11 22 19
f 13 23 14
f 14 23 15
f 15 23 16
f 16 24 25
f 16 23 26
f 16 26 27
f 16 27 28
f 16 28 24
f 19 22 30
f 19 30 29
f 20 22 21
f 22 31 30
f 23 32 26
f 24 28 32
f 24 32 25
f 25 32 33
f 26 32 27
f 27 32 28
f 29 30 35
f 29 35 34
f 30 31 35
f 31 36 35
f 32 37 33
f 33 37 38
f 34 35 39
f 35 36 40
f 35 40 39
f 36 41 40
f 37 42 38
f 38 43 44
f 38 42 45
f 38 45 43
f 39 40 46
f 40 41 47
f 40 47 48
f 40 48 46
f 41 49 47
f 43 50 49
f 43 49 44
f 43 45 51
f 43 51 50
f 47 49 50
f 47 50 52
f 47 52 53
f 47 53 48

