# https://github.com/mikedh/trimesh
v -2.1300485 -0.65461375 1.38780914
v -2.1131797299999997 -0.66114739 1.38780914
v -2.1300485 -0.65879597 1.36955612
v -2.140218 -0.65847493 1.36955612
v -2.14672612 -0.65831007 1.36955612
v -2.16340369 -0.6598198399999999 1.36955612
v -2.14699767 -0.65672222 1.38780914
v -2.11679089 -0.66456604 1.36955612
v -2.12487819 -0.66100856 1.36955612
v -2.08152449 -0.67955089 1.38780914
v -2.16340369 -0.65980249 1.38780914
v -2.17057568 -0.6632385000000001 1.36955612
v -2.0889881299999997 -0.68826242 1.36955612
v -2.07611276 -0.69471797 1.38780914
v -2.08640304 -0.69531666 1.36955612
v -2.17516251 -0.66543373 1.36955612
v -2.17518267 -0.66544241 1.38780914
v -2.0798748199999997 -0.71166377 1.38780914
v -2.08819347 -0.7282538199999999 1.36955612
v -2.08751958 -0.72500003 1.36955612
v -2.08564857 -0.7113861100000001 1.36955612
v -2.1787435 -0.67804113 1.36955612
v -2.1762388599999998 -0.66916476 1.38780914
v -2.08687581 -0.72798484 1.38780914
v -2.08948101 -0.73333843 1.36955612
v -2.17879378 -0.68454007 1.36955612
v -2.17879378 -0.68296957 1.38780914
v -2.17875358 -0.67804113 1.38780914
v -2.0897727699999997 -0.73385904 1.38780914
v -2.09456078 -0.73704344 1.36955612
v -2.17886421 -0.69471797 1.36955612
v -2.17886421 -0.69471797 1.37605861
v -2.17885413 -0.69471797 1.38780914
v -2.09811152 -0.73936014 1.38780914
v -2.09790033 -0.73938618 1.37605861
v -2.09781982 -0.73940353 1.36955612
v -2.17885413 -0.7113861100000001 1.36955612
v -2.17885413 -0.7113861100000001 1.38780914
v -2.1133809 -0.74255322 1.38780914
v -2.1133809 -0.74257058 1.36955612
v -2.17866304 -0.71788505 1.36955612
v -2.17837134 -0.72806294 1.37605861
v -2.17838136 -0.72806294 1.38780914
v -2.1300485 -0.7429610200000001 1.38780914
v -2.1300485 -0.74291763 1.37605861
v -2.1300485 -0.7428916 1.36955612
v -2.17836126 -0.72806294 1.36955612
v -2.17697316 -0.73244473 1.36955612
v -2.17480043 -0.7393341099999999 1.37605861
v -2.17480043 -0.73936014 1.38780914
v -2.14672612 -0.7432386799999999 1.38780914
v -2.14672612 -0.74313457 1.36955612
v -2.17479035 -0.7393254300000001 1.36955612
v -2.1667634 -0.7418157000000001 1.38780914
v -2.15164486 -0.7431258700000001 1.38780914
v -2.16340369 -0.74273542 1.36955612
v -2.16783969 -0.7414165500000001 1.36955612
v -2.16340369 -0.7428308800000001 1.38780914
v -2.16340369 -0.74277014 1.37605861
f 1 2 3
f 1 3 4
f 1 4 5
f 1 5 6
f 1 6 7
f 1 7 11
f 1 11 17
f 1 17 23
f 1 23 28
f 1 28 27
f 1 27 33
f 1 33 38
f 1 38 43
f 1 43 50
f 1 50 54
f 1 54 58
f 1 58 55
f 1 55 51
f 1 51 44
f 1 44 39
f 1 39 34
f 1 34 29
f 1 29 24
f 1 24 18
f 1 18 14
f 1 14 10
f 1 10 2
f 2 8 9
f 2 9 3
f 2 10 8
f 3 9 8
f 3 8 13
f 3 13 15
f 3 15 21
f 3 21 20
f 3 20 19
f 3 19 25
f 3 25 30
f 3 30 36
f 3 36 40
f 3 40 46
f 3 46 52
f 3 52 56
f 3 56 57
f 3 57 53
f 3 53 48
f 3 48 47
f 3 47 41
f 3 41 37
f 3 37 31
f 3 31 26
f 3 26 22
f 3 22 16
f 3 16 12
f 3 12 6
f 3 6 5
f 3 5 4
f 6 11 7
f 6 12 11
f 8 10 13
f 10 14 15
f 10 15 13
f 11 12 16
f 11 16 17
f 14 18 19
f 14 19 20
f 14 20 21
f 14 21 15
f 16 22 17
f 17 22 23
f 18 24 25
f 18 25 19
f 22 26 27
f 22 27 28
f 22 28 23
f 24 29 25
f 25 29 30
f 26 31 27
f 27 31 32
f 27 32 33
f 29 34 35
f 29 35 36
f 29 36 30
f 31 37 38
f 31 38 32
f 32 38 33
f 34 39 35
f 35 39 36
f 36 39 40
f 37 41 42
f 37 42 43
f 37 43 38
f 39 44 40
f 40 44 45
f 40 45 46
f 41 47 42
f 42 47 48
f 42 48 49
f 42 49 43
f 43 49 50
f 44 51 45
f 45 51 46
f 46 51 52
f 48 53 49
f 49 53 50
f 50 53 54
f 51 55 52
f 52 55 56
f 53 57 58
f 53 58 54
f 55 58 59
f 55 59 56
f 56 59 57
f 57 59 58

