# https://github.com/mikedh/trimesh
v 0.26554734 1.48918374 1.42494773
v 0.26323311 1.47633531 1.42494773
v 0.26323311 1.47636133 1.40830994
v 0.26552660 1.48911433 1.40830994
v 0.26373928 1.50230113 1.40830994
v 0.26373928 1.50237922 1.42494773
v 0.26373928 1.50236184 1.44158555
v 0.26363604 1.50211895 1.75819311
v 0.26533038 1.48918374 1.82484215
v 0.26314013 1.47658691 1.82484215
v 0.25889392 1.46799813 1.42494773
v 0.25898690 1.46818032 1.74150636
v 0.25884230 1.46798079 1.40830994
v 0.26370828 1.50242258 1.40830994
v 0.24644473 1.54001357 1.86408785
v 0.26360505 1.50196278 1.82484215
v 0.26346033 1.50170252 1.90817801
v 0.26508242 1.48918374 1.90817801
v 0.26508242 1.48917507 1.90817801
v 0.26305739 1.47662160 1.90817801
v 0.25893528 1.46824973 1.82484215
v 0.25898690 1.46820634 1.75819311
v 0.25061858 1.45932261 1.80815546
v 0.25057721 1.45943541 1.57493263
v 0.25057721 1.45945275 1.55824587
v 0.25057721 1.45947877 1.54160805
v 0.25055659 1.45972169 1.40830994
v 0.25060820 1.45933131 1.82484215
v 0.24758116 1.53621372 1.40830994
v 0.17696671 1.54001357 1.86408785
v 0.24638274 1.54001357 1.87402158
v 0.24624845 1.54001357 1.89154019
v 0.24600049 1.54001357 1.90817801
v 0.25883193 1.46827575 1.90817801
v 0.23642337 1.45286802 1.80815546
v 0.23642337 1.45286802 1.79151763
v 0.23642337 1.45287673 1.77483094
v 0.23642337 1.45347531 1.40830994
v 0.23642337 1.45290274 1.82484215
v 0.25060820 1.45937467 1.84147998
v 0.17559269 1.53621372 1.40830994
v 0.17689441 1.54001357 1.90348029
v 0.17691509 1.54001357 1.90817801
v 0.25049460 1.45975641 1.90817801
v 0.25055659 1.45947877 1.86408785
v 0.25056690 1.45944408 1.85816673
v 0.21974866 1.45141923 1.79151763
v 0.21974866 1.45139321 1.77483094
v 0.21975897 1.45164478 1.90817801
v 0.21974866 1.45185301 1.40830994
v 0.23642337 1.45297215 1.84147998
v 0.16310213 1.50473028 1.40830994
v 0.16233758 1.50840869 1.90817801
v 0.17549970 1.53621372 1.50828353
v 0.23642337 1.45335387 1.90817801
v 0.25051528 1.45953084 1.87485343
v 0.20311524 1.45232147 1.79151763
v 0.20311524 1.45220003 1.60825715
v 0.20311524 1.45216531 1.54160805
v 0.20311524 1.45216531 1.52492135
v 0.20311524 1.45220870 1.44158555
v 0.20311524 1.45273791 1.90817801
v 0.20311524 1.45236487 1.80815546
v 0.20311524 1.45225206 1.42494773
v 0.20311524 1.45232147 1.40830994
v 0.16278187 1.50327279 1.40830994
v 0.16102555 1.50008886 1.90817801
v 0.16146979 1.49726933 1.41545442
v 0.16029199 1.49064123 1.40830994
v 0.18645084 1.45521042 1.79151763
v 0.18645084 1.45489812 1.54160805
v 0.18645084 1.45544467 1.89154019
v 0.18645084 1.45487207 1.40830994
v 0.18645084 1.45554009 1.90817801
v 0.16001310 1.48918374 1.90817801
v 0.16032298 1.47730697 1.40830994
v 0.17228663 1.46078010 1.89154019
v 0.17242098 1.46060659 1.40830994
v 0.17237961 1.46084951 1.90817801
v 0.16041597 1.47774942 1.90817801
v 0.16033335 1.47728962 1.72486859
v 0.16038497 1.47732431 1.84147998
v 0.16034367 1.47719419 1.40830994
v 0.16400092 1.46909126 1.87485343
v 0.16403191 1.46903920 1.86408785
v 0.16399061 1.46899581 1.77483094
v 0.16399061 1.46891775 1.40830994
v 0.17228663 1.46068467 1.40830994
v 0.16405260 1.46940356 1.90817801
v 0.16167638 1.47441803 1.86408785
v 0.16395961 1.46936887 1.89154019
v 0.16040566 1.47733299 1.85816673
f 1 2 3
f 1 3 4
f 1 4 5
f 1 5 6
f 1 6 7
f 1 7 8
f 1 8 9
f 1 9 10
f 1 10 2
f 2 11 3
f 2 10 12
f 2 12 11
f 3 13 27
f 3 27 38
f 3 38 50
f 3 50 65
f 3 65 73
f 3 73 78
f 3 78 88
f 3 88 87
f 3 87 83
f 3 83 76
f 3 76 69
f 3 69 66
f 3 66 52
f 3 52 41
f 3 41 29
f 3 29 14
f 3 14 5
f 3 5 4
f 3 11 13
f 5 14 6
f 6 14 15
f 6 15 7
f 7 15 8
f 8 16 9
f 8 15 16
f 9 16 17
f 9 17 18
f 9 18 19
f 9 19 20
f 9 20 10
f 10 21 22
f 10 22 12
f 10 20 21
f 11 12 23
f 11 23 24
f 11 24 25
f 11 25 26
f 11 26 27
f 11 27 13
f 12 22 21
f 12 21 28
f 12 28 23
f 14 29 15
f 15 30 42
f 15 42 43
f 15 43 33
f 15 33 32
f 15 32 31
f 15 31 17
f 15 17 16
f 15 29 41
f 15 41 30
f 17 31 32
f 17 32 33
f 17 33 43
f 17 43 53
f 17 53 67
f 17 67 75
f 17 75 80
f 17 80 89
f 17 89 79
f 17 79 74
f 17 74 62
f 17 62 49
f 17 49 55
f 17 55 44
f 17 44 34
f 17 34 20
f 17 20 19
f 17 19 18
f 20 34 21
f 21 34 28
f 23 35 36
f 23 36 37
f 23 37 24
f 23 28 35
f 24 37 25
f 25 37 26
f 26 37 38
f 26 38 27
f 28 39 35
f 28 34 40
f 28 40 39
f 30 41 42
f 34 44 45
f 34 45 46
f 34 46 40
f 35 47 48
f 35 48 36
f 35 39 49
f 35 49 47
f 36 48 37
f 37 48 50
f 37 50 38
f 39 40 51
f 39 51 49
f 40 46 51
f 41 52 53
f 41 53 54
f 41 54 42
f 42 53 43
f 42 54 53
f 44 55 56
f 44 56 45
f 45 56 46
f 46 56 55
f 46 55 51
f 47 57 48
f 47 49 57
f 48 57 58
f 48 58 59
f 48 59 60
f 48 60 61
f 48 61 50
f 49 62 63
f 49 63 57
f 49 51 55
f 50 61 64
f 50 64 65
f 52 66 53
f 53 66 68
f 53 68 69
f 53 69 67
f 57 70 71
f 57 71 58
f 57 63 72
f 57 72 70
f 58 71 59
f 59 71 73
f 59 73 60
f 60 73 61
f 61 73 64
f 62 74 72
f 62 72 63
f 64 73 65
f 66 69 68
f 67 69 75
f 69 76 75
f 70 72 77
f 70 77 71
f 71 78 73
f 71 77 78
f 72 74 77
f 74 79 77
f 75 76 81
f 75 81 82
f 75 82 80
f 76 83 81
f 77 79 84
f 77 84 85
f 77 85 86
f 77 86 87
f 77 87 88
f 77 88 78
f 79 89 84
f 80 90 84
f 80 84 91
f 80 91 89
f 80 82 92
f 80 92 90
f 81 83 86
f 81 86 84
f 81 84 82
f 82 84 90
f 82 90 92
f 83 87 86
f 84 89 91
f 84 86 85

