# https://github.com/mikedh/trimesh
v -1.24613128 -0.22822531000000001 0.40879758
v -1.26278686 -0.23020527000000002 0.39212574
v -1.27030122 -0.23020527000000002 0.39212574
v -1.26278686 -0.22823507 0.40879758
v -1.26278686 -0.22829359 0.42546936
v -1.21282016 -0.22827409 0.42546936
v -1.21282016 -0.22823507 0.40879758
v -0.87924398 -0.23029305 0.39212574
v -0.87924398 -0.23398962 0.38193954
v -1.27030122 -0.22825457 0.40879758
v -1.12938737 -0.23400912000000001 0.38193954
v -1.27030122 -0.23414567 0.38206753
v -1.27030122 -0.22827409 0.41624356
v -1.27030122 -0.22833261 0.43292178
v -1.26278686 -0.22836186 0.44214764
v -1.21282016 -0.22834236000000002 0.44214764
v -0.69587782 -0.22878126000000001 0.44214764
v -0.69587782 -0.22873249 0.42546936
v -0.69587782 -0.22877151 0.40879758
v -0.8126217199999999 -0.23036132 0.39212574
v -0.87924398 -0.24444532000000002 0.38003799
v -0.79596614 -0.23038083 0.39212574
v -0.6792222000000001 -0.23420418 0.382106
v -0.8126217199999999 -0.24444532000000002 0.38010205
v -1.09607624 -0.24444532000000002 0.3800572
v -1.11273182 -0.24444532000000002 0.38006358
v -1.27030122 -0.23983193 0.3811008
v -1.12938737 -0.24444532000000002 0.38008278
v -1.27030122 -0.22837161 0.44214764
v -1.26278686 -0.22885929 0.44542564
v -1.23272936 -0.22883003000000002 0.44542564
v -1.21607381 -0.22883003000000002 0.44542564
v -0.69587782 -0.22934696 0.44542564
v -0.47889062000000004 -0.2290251 0.44214764
v -0.6458336200000001 -0.22880076 0.42546936
v -0.6458336200000001 -0.22883003000000002 0.40879758
v -0.8126217199999999 -0.261114 0.38001879
v -0.6792222000000001 -0.23056615 0.39212574
v -0.47889062000000004 -0.23155124 0.39212574
v -0.47889062000000004 -0.23502347 0.38287424
v -0.47889062000000004 -0.23512101000000002 0.38284865
v -0.6792222000000001 -0.24444532000000002 0.38033888
v -0.69587782 -0.24444532000000002 0.38030692
v -1.06268764 -0.261114 0.38006358
v -1.07934321 -0.261114 0.3800764
v -1.27030122 -0.24444532000000002 0.38034533
v -1.27030122 -0.22886904 0.44542564
v -0.6458336200000001 -0.22941523 0.44542564
v -0.47889062000000004 -0.22964931 0.44542564
v -0.47889062000000004 -0.22903486 0.42532855
v -0.47889062000000004 -0.22910313000000002 0.40879758
v -0.6792222000000001 -0.261114 0.38026207
v -0.6792222000000001 -0.27779242 0.38026207
v -0.8126217199999999 -0.27779242 0.3800572
v -0.47889062000000004 -0.22912263 0.40865671
v -0.47889062000000004 -0.24444532000000002 0.38144654
v -0.66248923 -0.261114 0.38030692
v -0.47889062000000004 -0.261114 0.38103037
v -0.52908971 -0.261114 0.38081912
v -1.06268764 -0.27779242 0.38023648
v -1.11273182 -0.27779242 0.3803133
v -1.09607624 -0.261114 0.38010843
v -1.26278686 -0.261114 0.38046055
v -1.27030122 -0.25367211 0.38042214
v -1.27030122 -0.30922784000000003 0.44542564
v -0.47889062000000004 -0.28698019 0.44542564
v -0.66248923 -0.27779242 0.38030048
v -0.7292664099999999 -0.29446109 0.38122241
v -0.8126217199999999 -0.29446109 0.38113921
v -0.47889062000000004 -0.27779242 0.381184
v -0.49577859999999996 -0.27779242 0.38104957
v -0.8459328399999999 -0.29446109 0.38117762
v -1.06268764 -0.29446109 0.38171541
v -1.09607624 -0.29446109 0.38180505
v -1.26278686 -0.27779242 0.3808447
v -0.8626658999999999 -0.29446109 0.38121603
v -1.27030122 -0.27779242 0.38088311
v -1.27030122 -0.261114 0.38052461
v -1.27030122 -0.32786671 0.44089917
v -1.26278686 -0.31003738000000003 0.44542564
v -0.47889062000000004 -0.32786671 0.43749949
v -0.51243416 -0.28993548 0.44542564
v -0.6792222000000001 -0.29446109 0.3814209
v -0.7292664099999999 -0.30379516 0.38300229
v -0.74592196 -0.30379516 0.38300229
v -0.8126217199999999 -0.30377565 0.38300873
v -0.8459328399999999 -0.30375615 0.38302149
v -0.47889062000000004 -0.29183741 0.38252856
v -0.47904550999999995 -0.29176914 0.38251573
v -0.5791339200000001 -0.29446109 0.38199715
v -0.5957894699999999 -0.29446109 0.38189469
v -0.6125225000000001 -0.29446109 0.38179867
v -1.06268764 -0.30320996 0.3834697
v -1.09607624 -0.30310266 0.3835529
v -1.11273182 -0.29446109 0.38190751
v -1.27030122 -0.29166184 0.38241971
v -1.07934321 -0.30316118000000003 0.38350811
v -1.24613128 -0.31032023000000003 0.44542564
v -1.26085016 -0.31008614 0.44542564
v -1.27030122 -0.32786671 0.39594153
v -1.26286434 -0.32786671 0.44091193
v -1.17912168 -0.31099322 0.44542564
v -0.47889062000000004 -0.32786671 0.39536534
v -0.52908971 -0.29138875000000003 0.44542564
v -0.5457452700000001 -0.29233484 0.44542564
v -0.6291780600000001 -0.29670438 0.44542564
v -0.6458336200000001 -0.29754319 0.44542564
v -0.66248923 -0.29809914 0.44542564
v -0.9126326 -0.30572634 0.44542564
v -1.16254357 -0.31104198 0.44542564
v -1.19608713 -0.32786671 0.44080314
v -0.5791339200000001 -0.30315143 0.38351449
v -1.14604296 -0.32786671 0.39556382
v -0.47889062000000004 -0.30010835 0.38446845
v -0.5534146099999999 -0.30285883 0.38373856
v -0.5624783600000001 -0.30300513 0.38363616
v -0.5624783600000001 -0.29446109 0.38213158
v -1.11273182 -0.30296611 0.38365536
v -1.27030122 -0.30000106 0.38467332
v -1.21282016 -0.32786671 0.44086076
v -1.1627759899999999 -0.31104198 0.44542564
f 1 2 3
f 1 3 4
f 1 4 5
f 1 5 6
f 1 6 7
f 1 7 8
f 1 8 2
f 2 8 9
f 2 9 3
f 3 10 4
f 3 9 11
f 3 11 12
f 3 12 27
f 3 27 46
f 3 46 64
f 3 64 78
f 3 78 77
f 3 77 96
f 3 96 119
f 3 119 100
f 3 100 79
f 3 79 65
f 3 65 47
f 3 47 29
f 3 29 14
f 3 14 13
f 3 13 10
f 4 10 13
f 4 13 14
f 4 14 5
f 5 14 15
f 5 15 16
f 5 16 6
f 6 16 17
f 6 17 18
f 6 18 7
f 7 18 19
f 7 19 20
f 7 20 8
f 8 20 9
f 9 21 11
f 9 20 22
f 9 22 23
f 9 23 24
f 9 24 21
f 11 25 26
f 11 26 12
f 11 21 25
f 12 26 28
f 12 28 27
f 14 29 15
f 15 29 47
f 15 47 30
f 15 30 31
f 15 31 16
f 16 31 32
f 16 32 17
f 17 33 34
f 17 34 18
f 17 32 33
f 18 34 35
f 18 35 36
f 18 36 19
f 19 36 20
f 20 36 22
f 21 24 37
f 21 37 25
f 22 36 38
f 22 38 23
f 23 38 39
f 23 39 40
f 23 40 41
f 23 41 42
f 23 42 43
f 23 43 24
f 24 43 37
f 25 37 44
f 25 44 26
f 26 44 45
f 26 45 28
f 27 28 46
f 28 45 46
f 30 47 65
f 30 65 80
f 30 80 99
f 30 99 98
f 30 98 102
f 30 102 121
f 30 121 110
f 30 110 109
f 30 109 108
f 30 108 107
f 30 107 106
f 30 106 105
f 30 105 104
f 30 104 82
f 30 82 66
f 30 66 49
f 30 49 48
f 30 48 33
f 30 33 32
f 30 32 31
f 33 48 34
f 34 48 49
f 34 49 66
f 34 66 81
f 34 81 103
f 34 103 114
f 34 114 88
f 34 88 70
f 34 70 58
f 34 58 56
f 34 56 41
f 34 41 40
f 34 40 39
f 34 39 55
f 34 55 51
f 34 51 50
f 34 50 35
f 35 50 36
f 36 50 51
f 36 51 38
f 37 43 52
f 37 52 53
f 37 53 54
f 37 54 44
f 38 51 55
f 38 55 39
f 41 56 42
f 42 57 52
f 42 52 43
f 42 56 58
f 42 58 59
f 42 59 57
f 44 60 45
f 44 54 60
f 45 60 61
f 45 61 62
f 45 62 46
f 46 63 64
f 46 62 63
f 52 57 67
f 52 67 53
f 53 67 68
f 53 68 54
f 54 68 69
f 54 69 60
f 57 59 67
f 58 70 71
f 58 71 67
f 58 67 59
f 60 69 72
f 60 72 61
f 61 73 74
f 61 74 75
f 61 75 63
f 61 63 62
f 61 72 76
f 61 76 73
f 63 75 77
f 63 77 78
f 63 78 64
f 65 79 80
f 66 82 81
f 67 83 68
f 67 71 83
f 68 83 84
f 68 84 69
f 69 84 85
f 69 85 86
f 69 86 87
f 69 87 72
f 70 88 89
f 70 89 71
f 71 89 90
f 71 90 91
f 71 91 92
f 71 92 83
f 72 87 76
f 73 93 74
f 73 76 87
f 73 87 93
f 74 94 95
f 74 95 96
f 74 96 77
f 74 77 75
f 74 93 97
f 74 97 94
f 79 98 99
f 79 99 80
f 79 100 113
f 79 113 103
f 79 103 81
f 79 81 111
f 79 111 120
f 79 120 101
f 79 101 102
f 79 102 98
f 81 82 104
f 81 104 105
f 81 105 106
f 81 106 107
f 81 107 108
f 81 108 109
f 81 109 110
f 81 110 111
f 83 92 112
f 83 112 84
f 84 112 103
f 84 103 85
f 85 103 86
f 86 103 113
f 86 113 87
f 87 113 100
f 87 100 93
f 88 114 115
f 88 115 116
f 88 116 117
f 88 117 89
f 89 117 90
f 90 117 112
f 90 112 91
f 91 112 92
f 93 100 97
f 94 100 118
f 94 118 96
f 94 96 95
f 94 97 100
f 96 118 119
f 100 119 118
f 101 120 110
f 101 110 121
f 101 121 102
f 103 112 116
f 103 116 115
f 103 115 114
f 110 120 111
f 112 117 116

