# https://github.com/mikedh/trimesh
v 0.39834412 2.11395374 1.87915636
v 0.36672408 2.13064928 1.87915636
v 0.39834412 2.07258111 1.87915636
v 0.39834412 2.11230736 1.65710022
v 0.36611146 2.13068686 1.87915636
v 0.36014278 2.12949744 1.65710022
v 0.35181112 2.13083710 1.65710022
v 0.38783330 2.06966392 1.87915636
v 0.37754998 2.06784226 1.65710022
v 0.39834412 2.07849060 1.65710022
v 0.35890002 2.13104366 1.87915636
v 0.34233295 2.13134416 1.67022885
v 0.34976321 2.13093727 1.65710022
v 0.38064814 2.06784226 1.87915636
v 0.31393355 2.06784226 1.65710022
v 0.34233295 2.13161959 1.87915636
v 0.34233295 2.13138171 1.68687871
v 0.34233295 2.13141303 1.70355032
v 0.34233295 2.13143807 1.72022193
v 0.34233295 2.13128154 1.65710022
v 0.32566092 2.13155075 1.67022885
v 0.32566092 2.13160082 1.68687871
v 0.32566092 2.13164463 1.70355032
v 0.31371480 2.06784226 1.87915636
v 0.31249826 2.07236826 1.65710022
v 0.31388110 2.06784226 1.66268642
v 0.33338873 2.13171976 1.87915636
v 0.32566092 2.13167595 1.72022193
v 0.32566092 2.13148814 1.65710022
v 0.31679543 2.13104366 1.65710022
v 0.31675168 2.13107498 1.67022885
v 0.31222694 2.07236826 1.87915636
v 0.31369728 2.06784226 1.75356509
v 0.31027535 2.08903251 1.65710022
v 0.31238454 2.07236826 1.67022885
v 0.31382853 2.06784226 1.67022885
v 0.32566092 2.13178861 1.87915636
v 0.31670793 2.13110002 1.68687871
v 0.31667289 2.13112505 1.70355032
v 0.31664666 2.13114383 1.72022193
v 0.31240206 2.12236098 1.65710022
v 0.31233196 2.12236098 1.67022885
v 0.31227069 2.12236098 1.68687871
v 0.31102804 2.08130760 1.87915636
v 0.31224446 2.07236826 1.70355032
v 0.31370598 2.06784226 1.70355032
v 0.30906763 2.10569050 1.65710022
v 0.31227951 2.07236826 1.68687871
v 0.31021408 2.08903251 1.67022885
v 0.31376726 2.06784226 1.67942324
v 0.32074243 2.13148814 1.87915636
v 0.31222694 2.12236098 1.70355032
v 0.31220954 2.12236098 1.72022193
v 0.31654164 2.13122522 1.87915636
v 0.30977645 2.10924619 1.65710022
v 0.30902388 2.10569050 1.67022885
v 0.30898013 2.10569050 1.68687871
v 0.31003025 2.08903251 1.87915636
v 0.31010905 2.08903251 1.72022193
v 0.31011787 2.08903251 1.70355032
v 0.31373233 2.06784226 1.68687871
v 0.31371480 2.06784226 1.69613830
v 0.31015280 2.08903251 1.68687871
v 0.30895378 2.10569050 1.70355032
v 0.31220071 2.12236098 1.87915636
v 0.31453747 2.12713741 1.87915636
v 0.30910256 2.10569050 1.87915636
v 0.30895378 2.10569050 1.73689348
v 0.31075672 2.11463610 1.87915636
f 1 2 5
f 1 5 11
f 1 11 16
f 1 16 27
f 1 27 37
f 1 37 51
f 1 51 54
f 1 54 66
f 1 66 65
f 1 65 69
f 1 69 67
f 1 67 58
f 1 58 44
f 1 44 32
f 1 32 24
f 1 24 14
f 1 14 8
f 1 8 3
f 1 3 10
f 1 10 4
f 1 4 2
f 2 4 6
f 2 6 7
f 2 7 5
f 3 8 9
f 3 9 10
f 4 10 9
f 4 9 15
f 4 15 25
f 4 25 34
f 4 34 47
f 4 47 55
f 4 55 41
f 4 41 30
f 4 30 29
f 4 29 20
f 4 20 13
f 4 13 7
f 4 7 6
f 5 7 12
f 5 12 11
f 7 13 12
f 8 14 9
f 9 14 24
f 9 24 33
f 9 33 46
f 9 46 62
f 9 62 61
f 9 61 50
f 9 50 36
f 9 36 26
f 9 26 15
f 11 12 17
f 11 17 18
f 11 18 19
f 11 19 16
f 12 13 20
f 12 20 29
f 12 29 21
f 12 21 22
f 12 22 23
f 12 23 17
f 15 26 25
f 16 19 28
f 16 28 27
f 17 23 28
f 17 28 18
f 18 28 19
f 21 29 30
f 21 30 22
f 22 30 23
f 23 30 31
f 23 31 28
f 24 32 33
f 25 26 35
f 25 35 34
f 26 36 35
f 27 28 37
f 28 31 38
f 28 38 39
f 28 39 40
f 28 40 37
f 30 41 42
f 30 42 31
f 31 42 43
f 31 43 38
f 32 44 45
f 32 45 33
f 33 45 46
f 34 35 48
f 34 48 49
f 34 49 47
f 35 36 50
f 35 50 48
f 37 40 51
f 38 43 39
f 39 43 52
f 39 52 40
f 40 52 53
f 40 53 54
f 40 54 51
f 41 55 42
f 42 55 47
f 42 47 43
f 43 47 56
f 43 56 57
f 43 57 52
f 44 58 45
f 45 59 60
f 45 60 63
f 45 63 48
f 45 48 61
f 45 61 62
f 45 62 46
f 45 58 59
f 47 49 63
f 47 63 56
f 48 63 49
f 48 50 61
f 52 57 64
f 52 64 53
f 53 64 65
f 53 65 66
f 53 66 54
f 56 63 57
f 57 63 60
f 57 60 64
f 58 67 68
f 58 68 64
f 58 64 59
f 59 64 60
f 64 68 65
f 65 68 69
f 67 69 68

