# https://github.com/mikedh/trimesh
v -0.39565523999999996 -0.19886496 0.07525787
v -0.379027 -0.19903145 0.07530379
v -0.37897643000000003 -0.19903145 0.07525787
v -0.37897643000000003 -0.19905522 0.05857839
v -0.39565523999999996 -0.19893632 0.05857839
v -0.4123256500000001 -0.19926927 0.04189892
v -0.41237623 -0.19915828000000002 0.07530379
v -0.3957058200000001 -0.19887289000000002 0.07530379
v -0.36858798000000004 -0.20106883 0.07530379
v -0.36859639 -0.20103713 0.07525787
v -0.36858798000000004 -0.20103713 0.05857839
v -0.37897643000000003 -0.19918207 0.04189892
v -0.39565523999999996 -0.19903938 0.04189892
v -0.36863015 -0.20106883 0.04189892
v -0.4123256500000001 -0.19949916 0.02523251
v -0.42900446999999997 -0.19961015 0.05857839
v -0.42900446999999997 -0.19945953 0.07525787
v -0.42903822 -0.19946745999999999 0.07530379
v -0.36467545 -0.21113691 0.07530379
v -0.36468385999999997 -0.21108935 0.07525787
v -0.36471761999999996 -0.21108935 0.05857839
v -0.36476818999999994 -0.21108935 0.04189892
v -0.36910233000000003 -0.20146523 0.02523251
v -0.37897643000000003 -0.19972908 0.02523251
v -0.39565523999999996 -0.1992772 0.02523251
v -0.4123256500000001 -0.20121945000000002 0.01494808
v -0.42900446999999997 -0.20172682 0.01553841
v -0.42900446999999997 -0.20041084 0.02523251
v -0.42900446999999997 -0.19991933 0.04189892
v -0.43960374000000013 -0.20130668000000002 0.05857839
v -0.43994102 -0.20117982 0.07525787
v -0.43994102 -0.20117982 0.07530379
v -0.36279507999999994 -0.22781662 0.07530379
v -0.36279507999999994 -0.22776113 0.07525787
v -0.3628878200000001 -0.22776113 0.04189892
v -0.36547649000000004 -0.21108935 0.02523251
v -0.36330942 -0.22776113 0.02523251
v -0.3699034299999999 -0.20213113 0.01604345
v -0.37897643000000003 -0.20144937000000002 0.0152235
v -0.39565523999999996 -0.20109262 0.01483655
v -0.4123256500000001 -0.21108935 0.01061907
v -0.42900446999999997 -0.21108935 0.01153087
v -0.43799319000000003 -0.20232932 0.01631887
v -0.43862563 -0.20192501000000002 0.02523251
v -0.43915685000000004 -0.2015762 0.04189892
v -0.44529544 -0.21108935 0.05857839
v -0.44585195 -0.21108935 0.07525787
v -0.44585195 -0.21108935 0.07530379
v -0.36284565000000013 -0.24448047 0.07530379
v -0.3628794100000001 -0.2444329 0.04189892
v -0.36318297999999993 -0.2444329 0.02523251
v -0.36838561999999997 -0.21108935 0.01445616
v -0.3670870500000001 -0.2444329 0.01314429
v -0.36718826000000004 -0.22776113 0.01324925
v -0.37897643000000003 -0.21108935 0.01124876
v -0.39565523999999996 -0.21108935 0.01049454
v -0.4123256500000001 -0.22776113 0.0083366
v -0.42900446999999997 -0.22776113 0.00899909
v -0.43999159 -0.21108935 0.01461349
v -0.44350781000000006 -0.21108935 0.02523251
v -0.44468835000000007 -0.21108935 0.04189892
v -0.4482973000000001 -0.22776113 0.04189892
v -0.44893815000000004 -0.22776113 0.07530379
v -0.3631661100000001 -0.26115225000000003 0.07530379
v -0.3631492300000001 -0.26111262 0.07525787
v -0.36324197 -0.26111262 0.04189892
v -0.36375632 -0.26111262 0.02523251
v -0.3674580700000001 -0.26111262 0.01347231
v -0.37897643000000003 -0.22776113 0.00895317
v -0.37897643000000003 -0.26111262 0.00934668
v -0.37897643000000003 -0.2444329 0.00895317
v -0.39565523999999996 -0.22776113 0.00831036
v -0.4123256500000001 -0.2444329 0.00855954
v -0.39565523999999996 -0.26111262 0.00868419
v -0.4123256500000001 -0.26111262 0.00932044
v -0.42900446999999997 -0.2444329 0.01000262
v -0.44169488999999995 -0.22776113 0.01326238
v -0.44709994 -0.22776113 0.02523251
v -0.44446910000000006 -0.2444329 0.02523251
v -0.44636635000000013 -0.2444329 0.07530379
v -0.36701958999999995 -0.2736541 0.07530379
v -0.36701958999999995 -0.2736541 0.07525787
v -0.3671123300000001 -0.27347969 0.04189892
v -0.36751712000000003 -0.27307538 0.02523251
v -0.36879875000000006 -0.27160877 0.01486935
v -0.37897643000000003 -0.27327357 0.01331486
v -0.39565523999999996 -0.27375716 0.0128295
v -0.4123256500000001 -0.27305953 0.01343295
v -0.42273096999999993 -0.27145815 0.01494808
v -0.42857444999999994 -0.26038328 0.01332142
v -0.4390218800000001 -0.25434243 0.01559733
v -0.4407926900000001 -0.2444329 0.01413469
v -0.4395868700000001 -0.2549053 0.02523251
v -0.4407167700000001 -0.25579318 0.07530379
v -0.37897643000000003 -0.27875949 0.07530379
v -0.37897643000000003 -0.27875949 0.07525787
v -0.37897643000000003 -0.27831555 0.04189892
v -0.37897643000000003 -0.27766547 0.02523251
v -0.39565523999999996 -0.27851373 0.02523251
v -0.4123256500000001 -0.27749108 0.02523251
v -0.42419815000000005 -0.27301989 0.02523251
v -0.4325375600000001 -0.26323722 0.02523251
v -0.42454389000000003 -0.27353519 0.04189892
v -0.42514257 -0.27397121 0.07530379
v -0.39565523999999996 -0.27985350000000003 0.07530379
v -0.39565523999999996 -0.27906073 0.04189892
v -0.4123256500000001 -0.2782997 0.04189892
v -0.42510040000000004 -0.27401084 0.07525787
v -0.4123256500000001 -0.27931442 0.07530379
f 1 2 3
f 1 3 4
f 1 4 5
f 1 5 6
f 1 6 7
f 1 7 8
f 1 8 2
f 2 9 10
f 2 10 3
f 2 8 7
f 2 7 18
f 2 18 32
f 2 32 48
f 2 48 63
f 2 63 80
f 2 80 94
f 2 94 104
f 2 104 109
f 2 109 105
f 2 105 95
f 2 95 81
f 2 81 64
f 2 64 49
f 2 49 33
f 2 33 19
f 2 19 9
f 3 10 11
f 3 11 4
f 4 12 13
f 4 13 5
f 4 11 14
f 4 14 12
f 5 13 6
f 6 15 16
f 6 16 17
f 6 17 7
f 6 13 15
f 7 17 18
f 9 19 20
f 9 20 10
f 10 20 11
f 11 20 21
f 11 21 22
f 11 22 14
f 12 14 23
f 12 23 24
f 12 24 25
f 12 25 13
f 13 25 15
f 14 22 23
f 15 26 27
f 15 27 28
f 15 28 29
f 15 29 16
f 15 25 26
f 16 29 30
f 16 30 31
f 16 31 17
f 17 31 32
f 17 32 18
f 19 33 34
f 19 34 21
f 19 21 20
f 21 34 35
f 21 35 22
f 22 36 23
f 22 35 37
f 22 37 36
f 23 38 24
f 23 36 38
f 24 39 25
f 24 38 39
f 25 40 26
f 25 39 40
f 26 41 27
f 26 40 41
f 27 41 42
f 27 42 43
f 27 43 28
f 28 43 44
f 28 44 29
f 29 44 45
f 29 45 30
f 30 45 46
f 30 46 47
f 30 47 31
f 31 47 48
f 31 48 32
f 33 49 50
f 33 50 34
f 34 50 35
f 35 50 51
f 35 51 37
f 36 37 52
f 36 52 38
f 37 51 53
f 37 53 54
f 37 54 52
f 38 55 39
f 38 52 55
f 39 55 56
f 39 56 40
f 40 56 41
f 41 57 58
f 41 58 42
f 41 56 57
f 42 58 59
f 42 59 43
f 43 59 60
f 43 60 44
f 44 60 61
f 44 61 45
f 45 61 46
f 46 61 62
f 46 62 47
f 47 62 63
f 47 63 48
f 49 64 65
f 49 65 50
f 50 65 66
f 50 66 51
f 51 66 67
f 51 67 68
f 51 68 53
f 52 54 69
f 52 69 55
f 53 68 70
f 53 70 71
f 53 71 69
f 53 69 54
f 55 69 56
f 56 72 57
f 56 69 72
f 57 73 58
f 57 72 74
f 57 74 73
f 58 73 75
f 58 75 76
f 58 76 77
f 58 77 59
f 59 77 78
f 59 78 60
f 60 78 62
f 60 62 61
f 62 78 79
f 62 79 80
f 62 80 63
f 64 81 65
f 65 81 82
f 65 82 66
f 66 82 83
f 66 83 67
f 67 83 84
f 67 84 85
f 67 85 68
f 68 85 70
f 69 71 72
f 70 85 86
f 70 86 74
f 70 74 71
f 71 74 72
f 73 74 75
f 74 87 75
f 74 86 87
f 75 88 89
f 75 89 90
f 75 90 76
f 75 87 88
f 76 90 91
f 76 91 92
f 76 92 77
f 77 92 78
f 78 92 79
f 79 92 91
f 79 91 93
f 79 93 80
f 80 93 94
f 81 95 96
f 81 96 82
f 82 96 83
f 83 96 97
f 83 97 84
f 84 97 98
f 84 98 85
f 85 98 86
f 86 98 99
f 86 99 87
f 87 99 88
f 88 100 89
f 88 99 100
f 89 100 101
f 89 101 91
f 89 91 90
f 91 101 102
f 91 102 93
f 93 102 103
f 93 103 94
f 94 103 104
f 95 105 96
f 96 105 97
f 97 105 106
f 97 106 99
f 97 99 98
f 99 106 107
f 99 107 100
f 100 107 101
f 101 107 103
f 101 103 102
f 103 108 104
f 103 107 109
f 103 109 108
f 104 108 109
f 105 109 106
f 106 109 107

