# https://github.com/mikedh/trimesh
v -3.81334453 1.48902814 0.38253399
v -3.80990222 1.47344173 0.38253399
v -3.80985656 1.47353215 0.44770152
v -3.81207268 1.48362171 0.44770152
v -3.81325310 1.48902814 0.44770152
v -3.81317704 1.50569945 0.38253399
v -3.80079372 1.46510607 0.38253399
v -3.80401520 1.46810763 0.44770152
v -3.81305509 1.50569945 0.44770152
v -3.81093792 1.52235267 0.38253399
v -3.79245443 1.46377708 0.38253399
v -3.79243923 1.46375899 0.44770152
v -3.79786163 1.46468117 0.44770152
v -3.80077089 1.46519649 0.44770152
v -3.81158523 1.51653036 0.44770152
v -3.81079320 1.52235267 0.44770152
v -3.80866088 1.52900672 0.44770152
v -3.80751086 1.53233373 0.44770152
v -3.80758704 1.53199020 0.38253399
v -3.78199039 1.46377708 0.38253399
v -3.78195993 1.46377708 0.38687211
v -3.78431320 1.46378611 0.44770152
v -3.79591963 1.55208797 0.44770152
v -3.79356636 1.55609306 0.44770152
v -3.79111409 1.55611114 0.38253399
v -3.77365873 1.46404829 0.38253399
v -3.77301899 1.46402117 0.44372068
v -3.77993414 1.46380420 0.44770152
v -3.79316272 1.55611114 0.44770152
v -3.75113884 1.55611114 0.38253399
v -3.76707105 1.46531403 0.38253399
v -3.77301899 1.46402117 0.44770152
v -3.77354447 1.46400311 0.44770152
v -3.76472541 1.46576605 0.38253399
v -3.74793262 1.55611114 0.44770152
v -3.73890793 1.51511998 0.38253399
v -3.76472541 1.46576605 0.38687211
v -3.77252397 1.46412968 0.44770152
v -3.74805446 1.47188672 0.38253399
v -3.73669932 1.50569945 0.38687211
v -3.73670695 1.50569945 0.38253399
v -3.73676787 1.50569945 0.44770152
v -3.76472541 1.46582032 0.40353562
v -3.76636276 1.46554908 0.44770152
v -3.76472541 1.46588359 0.42019913
v -3.73787980 1.47850461 0.38253399
v -3.73784171 1.47857692 0.44770152
v -3.74139829 1.47631672 0.44770152
v -3.74805446 1.47213986 0.44770152
v -3.73554173 1.48902814 0.44770152
v -3.73567882 1.48902814 0.38253399
v -3.75477160 1.46971691 0.44770152
f 1 2 3
f 1 3 4
f 1 4 5
f 1 5 6
f 1 6 10
f 1 10 19
f 1 19 25
f 1 25 30
f 1 30 36
f 1 36 41
f 1 41 51
f 1 51 46
f 1 46 39
f 1 39 34
f 1 34 31
f 1 31 26
f 1 26 20
f 1 20 11
f 1 11 7
f 1 7 2
f 2 7 8
f 2 8 3
f 3 8 14
f 3 14 13
f 3 13 12
f 3 12 22
f 3 22 28
f 3 28 33
f 3 33 32
f 3 32 38
f 3 38 44
f 3 44 52
f 3 52 49
f 3 49 48
f 3 48 47
f 3 47 50
f 3 50 42
f 3 42 35
f 3 35 29
f 3 29 24
f 3 24 23
f 3 23 18
f 3 18 17
f 3 17 16
f 3 16 15
f 3 15 9
f 3 9 5
f 3 5 4
f 5 9 6
f 6 9 10
f 7 11 12
f 7 12 13
f 7 13 14
f 7 14 8
f 9 15 10
f 10 15 16
f 10 16 17
f 10 17 18
f 10 18 19
f 11 20 12
f 12 20 21
f 12 21 22
f 18 23 19
f 19 23 24
f 19 24 25
f 20 26 27
f 20 27 28
f 20 28 21
f 21 28 22
f 24 29 25
f 25 29 35
f 25 35 30
f 26 31 27
f 27 32 33
f 27 33 28
f 27 31 34
f 27 34 37
f 27 37 32
f 30 35 36
f 32 37 38
f 34 39 37
f 35 40 41
f 35 41 36
f 35 42 40
f 37 39 43
f 37 43 44
f 37 44 38
f 39 45 43
f 39 46 47
f 39 47 48
f 39 48 49
f 39 49 45
f 40 50 41
f 40 42 50
f 41 50 51
f 43 45 44
f 44 45 52
f 45 49 52
f 46 51 50
f 46 50 47

