# https://github.com/mikedh/trimesh
v -3.26428287 2.05151099 1.92860834
v -3.26428287 2.03903268 1.93613163
v -3.26428287 2.05153329 1.99533341
v -3.25250392 2.05153329 1.92878489
v -2.84806560 2.05153329 1.92897497
v -2.84798409 2.03888909 1.93623350
v -3.26428287 2.03903268 1.99651490
v -3.06281774 2.03888909 1.93704830
v -3.26428287 2.05153329 1.99766921
v -2.84790257 2.05153329 1.92915152
v -2.84790257 2.05150605 1.92900215
v -2.84790257 2.03902897 1.93621311
v -2.84790257 2.03888909 1.95034984
v -3.26428287 2.03934089 1.99654887
v -3.06281774 2.03888909 1.99630437
v -2.84806560 2.03888909 1.99658964
v -2.84790257 2.05153329 1.99797475
v -2.84790257 2.03888909 1.99658964
f 1 2 7
f 1 7 14
f 1 14 9
f 1 9 3
f 1 3 4
f 1 4 5
f 1 5 6
f 1 6 2
f 2 6 8
f 2 8 15
f 2 15 7
f 3 9 17
f 3 17 10
f 3 10 5
f 3 5 4
f 5 10 11
f 5 11 6
f 6 11 12
f 6 12 13
f 6 13 18
f 6 18 16
f 6 16 15
f 6 15 8
f 7 15 16
f 7 16 14
f 9 14 17
f 10 17 18
f 10 18 13
f 10 13 12
f 10 12 11
f 14 16 17
f 16 18 17

