# https://github.com/mikedh/trimesh
v 0.15277471 1.46480449 0.12487975
v 0.15277471 1.46481176 0.14152860
v 0.12456085 1.46540141 0.14152860
v 0.12456085 1.46543780 0.12487975
v 0.15277471 1.46872073 0.10821225
v 0.15277471 1.46561977 0.15819611
v 0.12456085 1.46563431 0.14632795
v 0.12456085 1.47039495 0.10821225
v 0.15277471 1.47672784 0.09648362
v 0.15277471 1.47264421 0.17469618
v 0.12456085 1.46622396 0.15819611
v 0.12456085 1.47583252 0.10140391
v 0.15277471 1.48918261 0.09291202
v 0.12456085 1.47807450 0.09862285
v 0.15277471 1.47311008 0.17571000
v 0.15275540 1.47304457 0.17563556
v 0.12456085 1.47393993 0.17258485
v 0.12456085 1.48918261 0.09747885
v 0.15277471 1.50583745 0.09268880
v 0.15277471 1.48902975 0.18747582
v 0.12456085 1.48918261 0.17911417
v 0.15277471 1.53915446 0.09245628
v 0.12456085 1.53915446 0.09817641
v 0.15277471 1.53915446 0.17966296
v 0.12456085 1.53915446 0.17965366
v 0.12456085 1.50583745 0.17958851
f 1 2 3
f 1 3 4
f 1 4 5
f 1 5 9
f 1 9 13
f 1 13 19
f 1 19 22
f 1 22 24
f 1 24 20
f 1 20 15
f 1 15 10
f 1 10 6
f 1 6 2
f 2 6 3
f 3 6 7
f 3 7 11
f 3 11 17
f 3 17 21
f 3 21 26
f 3 26 25
f 3 25 23
f 3 23 18
f 3 18 14
f 3 14 12
f 3 12 8
f 3 8 4
f 4 8 5
f 5 8 9
f 6 10 11
f 6 11 7
f 8 12 9
f 9 12 14
f 9 14 13
f 10 15 16
f 10 16 11
f 11 16 17
f 13 18 19
f 13 14 18
f 15 17 16
f 15 20 17
f 17 20 21
f 18 22 19
f 18 23 22
f 20 24 25
f 20 25 26
f 20 26 21
f 22 23 25
f 22 25 24

