# https://github.com/mikedh/trimesh
v -1.64041240 1.48834161 0.19138109
v -1.64041240 1.48822258 0.19138109
v -1.64041240 1.50642649 0.18986247
v -1.64259836 1.48911993 0.20725322
v -1.64041240 1.48037511 0.18409478
v -1.64041240 1.53931807 0.18178770
v -1.64271340 1.49016383 0.20725322
v -1.64776512 1.47340670 0.20725322
v -1.64041240 1.47215220 0.17540667
v -1.64041240 1.53931807 0.17644345
v -1.65670756 1.53931807 0.20725322
v -1.64618582 1.50587708 0.20725322
v -1.64817299 1.47251847 0.20725322
v -1.64041240 1.46541273 0.15819116
v -1.64041240 1.53930892 0.08690508
v -1.64144786 1.53931807 0.08624799
v -1.72590412 1.53931807 0.20725322
v -1.65441699 1.46436884 0.20725322
v -1.64041240 1.46479922 0.14153045
v -1.65483536 1.46387438 0.20725322
v -1.65532692 1.46348063 0.20725322
v -1.66358957 1.45699753 0.20725322
v -1.66433213 1.45653052 0.20725322
v -1.67662146 1.44896693 0.20725322
v -1.64041240 1.52250599 0.08745994
v -1.65265989 1.48918404 0.05809565
v -1.65384174 1.50002583 0.05809565
v -1.64971045 1.53931807 0.07815856
v -1.74295226 1.50432041 0.20725322
v -1.72776583 1.53931807 0.14167648
v -1.64041240 1.46476259 0.12580429
v -1.67648544 1.44874716 0.17486641
v -1.68448659 1.44665940 0.20725322
v -1.64041240 1.52062885 0.08756216
v -1.65371627 1.47250932 0.05809565
v -1.64041240 1.50291024 0.08899310
v -1.64041240 1.48918404 0.09040950
v -1.66358957 1.50701253 0.05809565
v -1.66358957 1.53931807 0.07269748
v -1.74320332 1.50345965 0.20725322
v -1.72776583 1.53931807 0.14153045
v -1.74296275 1.50427463 0.15819116
v -1.64041240 1.46476259 0.12488440
v -1.67657961 1.44872886 0.15819116
v -1.68495723 1.44653119 0.20725322
v -1.68490496 1.44654952 0.19152712
v -1.65489812 1.46369125 0.05809565
v -1.64041240 1.48646443 0.09094976
v -1.64041240 1.47446890 0.09435196
v -1.67945580 1.51270813 0.05809565
v -1.68074226 1.51305608 0.05809565
v -1.69691188 1.51702101 0.05809565
v -1.66373596 1.53931807 0.07268287
v -1.74725099 1.48918404 0.19152712
v -1.74721952 1.48918404 0.20725322
v -1.74725099 1.48918404 0.17486641
v -1.72770312 1.53931807 0.12488440
v -1.74285821 1.50430208 0.12488440
v -1.74291042 1.50432041 0.14153045
v -1.74724050 1.48918404 0.15819116
v -1.67673649 1.44878379 0.14153045
v -1.67688288 1.44906766 0.10820915
v -1.67700841 1.44920502 0.09154844
v -1.67729082 1.44936068 0.07487318
v -1.67776146 1.44955297 0.05821247
v -1.67777189 1.44955297 0.05809565
v -1.66369411 1.45734550 0.05809565
v -1.66357908 1.45740961 0.05809565
v -1.64041240 1.46663058 0.11083744
v -1.68520823 1.44653119 0.10820915
v -1.68534419 1.44654034 0.09154844
v -1.68564752 1.44648542 0.20725322
v -1.64041240 1.47174015 0.09795861
v -1.64041240 1.46733568 0.10820915
v -1.71357301 1.51758875 0.05809565
v -1.69691188 1.53931807 0.07107669
v -1.68040757 1.53931807 0.07185061
v -1.74291042 1.47267416 0.19152712
v -1.74284772 1.47264668 0.20725322
v -1.72747299 1.53931807 0.10820915
v -1.74257580 1.50378014 0.05809565
v -1.74262801 1.50399991 0.07487318
v -1.74269084 1.50419220 0.09154844
v -1.74278489 1.50426545 0.10820915
v -1.74285821 1.47284815 0.15819116
v -1.74288956 1.47273826 0.17486641
v -1.74714632 1.48918404 0.14153045
v -1.74248162 1.47345248 0.05809565
v -1.74275354 1.47305873 0.12488440
v -1.74281636 1.47296718 0.14153045
v -1.68562660 1.44659530 0.07487318
v -1.68609724 1.44672351 0.05821247
v -1.68610773 1.44672351 0.05809565
v -1.69691188 1.44585360 0.10820915
v -1.69691188 1.44578032 0.19152712
v -1.69691188 1.44589938 0.09154844
v -1.69691188 1.44581697 0.20725322
v -1.73008775 1.51290957 0.05809565
v -1.71367762 1.53931807 0.07303335
v -1.69705827 1.53931807 0.07109130
v -1.73845494 1.46430473 0.20725322
v -1.73870599 1.46478092 0.20725322
v -1.72712787 1.53931807 0.09169447
v -1.73074668 1.51262570 0.05809565
v -1.74260715 1.50367026 0.05809565
v -1.72711738 1.53931807 0.09154844
v -1.72440851 1.53931807 0.07923908
v -1.73836082 1.46440546 0.17486641
v -1.73841309 1.46434136 0.19152712
v -1.74703128 1.48918404 0.12488440
v -1.74647695 1.48918404 0.05809565
v -1.73768096 1.46517464 0.05809565
v -1.73764961 1.46511056 0.05821247
v -1.73790061 1.46488162 0.07487318
v -1.74249211 1.47321442 0.07487318
v -1.69691188 1.44599093 0.07487318
v -1.69692231 1.44621988 0.05809565
v -1.70684788 1.44684254 0.10820915
v -1.70663872 1.44690662 0.07487318
v -1.70710937 1.44675096 0.17486641
v -1.70705709 1.44676929 0.15819116
v -1.69749756 1.44587190 0.20725322
v -1.70710937 1.44675096 0.19152712
v -1.73008775 1.45894796 0.19152712
v -1.73011910 1.45899373 0.20725322
v -1.73002498 1.45897544 0.17486641
v -1.72964846 1.45926845 0.09154844
v -1.72971122 1.45906699 0.12488440
v -1.73758685 1.46507394 0.05809565
v -1.72931377 1.45946989 0.05809565
v -1.72956477 1.45936919 0.07487318
v -1.70640859 1.44700735 0.05821247
v -1.70639816 1.44700735 0.05809565
v -1.71543472 1.45064264 0.17486641
v -1.71522550 1.45072507 0.12488440
v -1.71497450 1.45103639 0.07487318
v -1.71518372 1.45081662 0.10820915
v -1.71543472 1.45061519 0.19152712
v -1.70698384 1.44680591 0.20725322
v -1.71531968 1.45066097 0.20725322
v -1.71483854 1.45120123 0.05809565
v -1.71473394 1.45113712 0.05821247
v -1.71466074 1.45110049 0.05809565
f 1 2 5
f 1 5 9
f 1 9 14
f 1 14 19
f 1 19 31
f 1 31 43
f 1 43 69
f 1 69 74
f 1 74 73
f 1 73 49
f 1 49 48
f 1 48 37
f 1 37 36
f 1 36 34
f 1 34 25
f 1 25 15
f 1 15 10
f 1 10 6
f 1 6 3
f 1 3 4
f 1 4 2
f 2 4 5
f 3 6 4
f 4 7 12
f 4 12 11
f 4 11 17
f 4 17 29
f 4 29 40
f 4 40 55
f 4 55 79
f 4 79 102
f 4 102 101
f 4 101 125
f 4 125 140
f 4 140 139
f 4 139 122
f 4 122 97
f 4 97 72
f 4 72 45
f 4 45 33
f 4 33 24
f 4 24 23
f 4 23 22
f 4 22 21
f 4 21 20
f 4 20 18
f 4 18 13
f 4 13 8
f 4 8 9
f 4 9 5
f 4 6 7
f 6 10 16
f 6 16 28
f 6 28 39
f 6 39 53
f 6 53 77
f 6 77 76
f 6 76 100
f 6 100 99
f 6 99 107
f 6 107 106
f 6 106 103
f 6 103 80
f 6 80 57
f 6 57 41
f 6 41 30
f 6 30 17
f 6 17 11
f 6 11 12
f 6 12 7
f 8 13 9
f 9 13 14
f 10 15 16
f 13 18 14
f 14 18 20
f 14 20 21
f 14 21 22
f 14 22 23
f 14 23 24
f 14 24 19
f 15 25 26
f 15 26 27
f 15 27 28
f 15 28 16
f 17 30 29
f 19 24 32
f 19 32 31
f 24 33 32
f 25 34 26
f 26 35 47
f 26 47 68
f 26 68 67
f 26 67 66
f 26 66 93
f 26 93 117
f 26 117 133
f 26 133 143
f 26 143 141
f 26 141 130
f 26 130 129
f 26 129 112
f 26 112 88
f 26 88 111
f 26 111 105
f 26 105 81
f 26 81 104
f 26 104 98
f 26 98 75
f 26 75 52
f 26 52 51
f 26 51 50
f 26 50 38
f 26 38 27
f 26 34 36
f 26 36 37
f 26 37 35
f 27 38 39
f 27 39 28
f 29 30 41
f 29 41 42
f 29 42 40
f 31 32 43
f 32 44 43
f 32 33 45
f 32 45 46
f 32 46 44
f 35 37 48
f 35 48 49
f 35 49 47
f 38 50 39
f 39 50 51
f 39 51 52
f 39 52 53
f 40 54 55
f 40 42 56
f 40 56 54
f 41 57 58
f 41 58 59
f 41 59 42
f 42 59 60
f 42 60 56
f 43 44 61
f 43 61 62
f 43 62 63
f 43 63 64
f 43 64 65
f 43 65 66
f 43 66 67
f 43 67 68
f 43 68 69
f 44 46 70
f 44 70 71
f 44 71 61
f 45 72 70
f 45 70 46
f 47 49 73
f 47 73 74
f 47 74 69
f 47 69 68
f 52 75 76
f 52 76 77
f 52 77 53
f 54 78 55
f 54 56 78
f 55 78 79
f 56 60 78
f 57 80 81
f 57 81 82
f 57 82 83
f 57 83 84
f 57 84 58
f 58 84 60
f 58 60 59
f 60 85 86
f 60 86 78
f 60 84 87
f 60 87 88
f 60 88 89
f 60 89 90
f 60 90 85
f 61 71 91
f 61 91 62
f 62 91 63
f 63 91 64
f 64 91 92
f 64 92 65
f 65 92 93
f 65 93 66
f 70 94 71
f 70 72 95
f 70 95 94
f 71 94 96
f 71 96 91
f 72 97 95
f 75 98 99
f 75 99 100
f 75 100 76
f 78 101 102
f 78 102 79
f 78 86 101
f 80 103 81
f 81 105 83
f 81 83 82
f 81 103 106
f 81 106 107
f 81 107 104
f 83 105 84
f 84 105 87
f 85 90 108
f 85 108 86
f 86 108 109
f 86 109 101
f 87 105 110
f 87 110 88
f 88 112 113
f 88 113 114
f 88 114 115
f 88 115 89
f 88 110 111
f 89 115 108
f 89 108 90
f 91 116 93
f 91 93 92
f 91 96 116
f 93 116 117
f 94 118 119
f 94 119 96
f 94 95 120
f 94 120 121
f 94 121 118
f 95 97 122
f 95 122 123
f 95 123 120
f 96 119 116
f 98 104 99
f 99 104 107
f 101 109 124
f 101 124 125
f 105 111 110
f 108 126 109
f 108 115 114
f 108 114 127
f 108 127 128
f 108 128 126
f 109 126 124
f 112 129 113
f 113 129 130
f 113 130 114
f 114 130 131
f 114 131 127
f 116 119 132
f 116 132 133
f 116 133 117
f 118 121 134
f 118 134 135
f 118 135 119
f 119 136 132
f 119 135 137
f 119 137 136
f 120 134 121
f 120 123 138
f 120 138 134
f 122 139 123
f 123 139 140
f 123 140 138
f 124 138 125
f 124 126 134
f 124 134 138
f 125 138 140
f 126 135 134
f 126 128 135
f 127 131 137
f 127 137 128
f 128 137 135
f 130 141 142
f 130 142 131
f 131 142 136
f 131 136 137
f 132 143 133
f 132 136 143
f 136 142 143
f 141 143 142

