# https://github.com/mikedh/trimesh
v -1.89528995 2.03751202 1.16518280
v -1.94995119 2.03751202 1.16558380
v -1.89528995 2.06114869 1.13672236
v -1.89528995 2.03751202 1.22199817
v -1.94995119 2.06224808 1.13672236
v -1.94995119 2.03751202 1.22106953
v -1.89528995 2.11819807 1.13672236
v -1.89528995 2.06429462 1.24450692
v -1.94995119 2.06445529 1.24450692
v -1.94995119 2.11784288 1.13672236
v -1.91470710 2.11816424 1.13672236
v -1.89528995 2.12155541 1.15079957
v -1.89528995 2.11543272 1.24450692
v -1.94995119 2.11517901 1.24450692
v -1.94995119 2.12193596 1.15354325
v -1.93120818 2.11802047 1.13672236
v -1.91470710 2.12213895 1.15354325
v -1.89528995 2.12202901 1.15354325
v -1.94995119 2.12389796 1.20353105
v -1.89528995 2.12377955 1.20353105
v -1.94995119 2.12336517 1.17021641
v -1.89528995 2.12341590 1.17021641
v -1.89528995 2.12379645 1.20078737
v -1.89528995 2.12375419 1.18687901
v -1.94995119 2.12365268 1.18687901
v -1.94995119 2.12339900 1.17212643
f 1 2 3
f 1 3 7
f 1 7 12
f 1 12 18
f 1 18 22
f 1 22 24
f 1 24 23
f 1 23 20
f 1 20 13
f 1 13 8
f 1 8 4
f 1 4 6
f 1 6 2
f 2 5 3
f 2 6 9
f 2 9 14
f 2 14 19
f 2 19 25
f 2 25 26
f 2 26 21
f 2 21 15
f 2 15 10
f 2 10 5
f 3 5 10
f 3 10 16
f 3 16 11
f 3 11 7
f 4 8 9
f 4 9 6
f 7 11 12
f 8 13 14
f 8 14 9
f 10 15 16
f 11 16 15
f 11 15 17
f 11 17 12
f 12 17 18
f 13 19 14
f 13 20 19
f 15 21 17
f 17 21 22
f 17 22 18
f 19 20 23
f 19 23 24
f 19 24 25
f 21 26 24
f 21 24 22
f 24 26 25

