# https://github.com/mikedh/trimesh
v -3.78197347 1.94270846 0.90544694
v -3.78773078 1.94270846 0.90544694
v -3.74402718 1.94267815 0.90544694
v -3.74399743 1.94270846 0.90535276
v -3.79790824 1.94270846 0.87019803
v -3.79822027 1.92235023 0.87019803
v -3.79838371 1.90569073 0.87019803
v -3.78776792 1.92235023 0.90544694
v -3.72720095 1.94270846 0.89600485
v -3.74404202 1.78784638 0.90544694
v -3.80255124 1.94270846 0.85352721
v -3.79837626 1.88901607 0.87019803
v -3.78779766 1.90569073 0.90544694
v -3.80258837 1.92235023 0.85352721
v -3.72720095 1.94270846 0.83245321
v -3.72720095 1.78784638 0.89508653
v -3.78749308 1.78784638 0.90544694
v -3.80304900 1.94270846 0.82020909
v -3.78778282 1.88901607 0.90544694
v -3.80258098 1.90569073 0.85352721
v -3.79801225 1.78784638 0.87019803
v -3.80308614 1.87235657 0.82020909
v -3.72720095 1.94269331 0.83228838
v -3.72721579 1.94270846 0.83227661
v -3.72720095 1.78784638 0.83231193
v -3.80291525 1.94270846 0.80722328
v -3.80300442 1.88901607 0.80353827
v -3.80302671 1.87235657 0.80353827
v -3.80284098 1.78784638 0.82020909
v -3.80206093 1.78784638 0.85352721
v -3.80284098 1.78784638 0.81903177
v -3.74851413 1.94270846 0.78518387
v -3.72720095 1.88931925 0.83202937
v -3.74834330 1.78784638 0.78518387
v -3.72720095 1.78787670 0.83205291
v -3.80287072 1.94270846 0.80353827
v -3.79646705 1.94270846 0.78687922
v -3.79652647 1.88901607 0.78687922
v -3.79651163 1.87235657 0.78687922
v -3.79638533 1.78784638 0.78687922
v -3.80275181 1.78784638 0.80353827
v -3.79561273 1.94270846 0.78518387
v -3.72720095 1.87235657 0.83197051
v -3.74832101 1.80570342 0.78518387
v -3.74833585 1.78902876 0.78518387
v -3.79556075 1.78784638 0.78518387
v -3.79567221 1.88901607 0.78518387
v -3.79593960 1.78784638 0.78594914
f 1 2 8
f 1 8 13
f 1 13 19
f 1 19 17
f 1 17 10
f 1 10 3
f 1 3 4
f 1 4 9
f 1 9 15
f 1 15 24
f 1 24 32
f 1 32 42
f 1 42 37
f 1 37 36
f 1 36 26
f 1 26 18
f 1 18 11
f 1 11 5
f 1 5 2
f 2 5 6
f 2 6 7
f 2 7 8
f 3 9 4
f 3 10 9
f 5 11 6
f 6 11 7
f 7 12 13
f 7 13 8
f 7 11 14
f 7 14 12
f 9 10 16
f 9 16 25
f 9 25 35
f 9 35 43
f 9 43 33
f 9 33 23
f 9 23 15
f 10 17 21
f 10 21 30
f 10 30 29
f 10 29 31
f 10 31 41
f 10 41 40
f 10 40 48
f 10 48 46
f 10 46 34
f 10 34 25
f 10 25 16
f 11 18 14
f 12 19 13
f 12 14 20
f 12 20 21
f 12 21 17
f 12 17 19
f 14 18 22
f 14 22 20
f 15 23 24
f 18 26 27
f 18 27 28
f 18 28 22
f 20 22 29
f 20 29 30
f 20 30 21
f 22 28 31
f 22 31 29
f 23 32 24
f 23 33 32
f 25 34 35
f 26 36 27
f 27 36 37
f 27 37 28
f 28 37 38
f 28 38 39
f 28 39 40
f 28 40 41
f 28 41 31
f 32 33 43
f 32 43 44
f 32 44 45
f 32 45 34
f 32 34 46
f 32 46 47
f 32 47 42
f 34 45 35
f 35 45 44
f 35 44 43
f 37 42 47
f 37 47 38
f 38 47 39
f 39 47 46
f 39 46 48
f 39 48 40

