# https://github.com/mikedh/trimesh
v -1.89528995 2.06114145 1.13671181
v -1.89528995 2.11820596 1.13671181
v -1.94995119 2.06224742 1.13671181
v -1.89528995 2.06235915 1.01364157
v -1.89528995 2.11536837 1.01364157
v -1.91470710 2.11816129 1.13671181
v -1.94995119 2.11784288 1.13671181
v -1.94995119 2.06414662 1.01364157
v -1.94995119 2.11498854 1.01364157
v -1.93136869 2.11801606 1.13671181
f 1 2 6
f 1 6 10
f 1 10 7
f 1 7 3
f 1 3 4
f 1 4 5
f 1 5 2
f 2 5 6
f 3 7 9
f 3 9 8
f 3 8 4
f 4 8 9
f 4 9 5
f 5 9 6
f 6 9 10
f 7 10 9

