# https://github.com/mikedh/trimesh
v 2.29414862 2.03750358 1.12019019
v 2.29367136 2.03750358 1.01364157
v 2.29371702 2.03750358 1.12019019
v 2.29506993 1.57241987 1.12019019
v 2.25392672 2.03750358 1.01364157
v 2.29361330 1.57241987 1.01364157
v 2.25384369 2.03750358 1.11867789
v 2.25387278 2.03745806 1.12019019
v 2.25412592 1.57241987 1.12019019
v 2.25351587 2.03750358 1.08686767
v 2.25344529 2.02234375 1.01364157
v 2.25289752 2.02234375 1.08686767
v 2.25420889 1.57241987 1.01364157
v 2.25359884 2.03750358 1.10353414
v 2.25299712 2.02234375 1.10353414
v 2.25332078 2.02234375 1.12019019
v 2.25393918 1.57241987 1.10353414
v 2.25342455 1.83896893 1.12019019
v 2.25269832 2.00568159 1.10353414
v 2.25359055 2.03750358 1.10201142
v 2.25267341 2.00568159 1.08686767
v 2.25330421 2.00568159 1.01364157
v 2.25417569 1.57241987 1.02021221
v 2.25299295 2.00563606 1.12019019
v 2.25395992 1.57241987 1.08686767
v 2.25410518 1.57241987 1.03687868
v 2.25405535 1.57241987 1.05354515
f 1 2 5
f 1 5 10
f 1 10 20
f 1 20 14
f 1 14 7
f 1 7 3
f 1 3 8
f 1 8 16
f 1 16 24
f 1 24 18
f 1 18 9
f 1 9 4
f 1 4 2
f 2 4 6
f 2 6 13
f 2 13 22
f 2 22 11
f 2 11 5
f 3 7 8
f 4 9 17
f 4 17 25
f 4 25 27
f 4 27 26
f 4 26 23
f 4 23 13
f 4 13 6
f 5 11 12
f 5 12 10
f 7 14 15
f 7 15 16
f 7 16 8
f 9 18 19
f 9 19 17
f 10 12 20
f 11 21 12
f 11 22 21
f 12 21 19
f 12 19 15
f 12 15 14
f 12 14 20
f 13 23 21
f 13 21 22
f 15 19 24
f 15 24 16
f 17 19 21
f 17 21 25
f 18 24 19
f 21 23 26
f 21 26 27
f 21 27 25

