# https://github.com/mikedh/trimesh
v 2.29233728 1.73903508 2.00423974
v 2.29233728 1.75572229 2.00422663
v 2.27566823 1.77236548 2.00418729
v 2.29233728 1.68906150 2.00423974
v 2.30828272 2.03830419 1.99980428
v 2.29233728 1.90568707 2.00410849
v 2.27566823 1.90568707 2.00408226
v 2.22499177 1.58902627 1.99858393
v 2.27566823 1.72239189 2.00418729
v 2.27566823 1.68906150 2.00417417
v 2.29233728 1.63904388 2.00413471
v 2.30806564 1.68906150 1.99973872
v 2.30814706 1.70570468 1.99973872
v 2.30898821 1.98899105 1.99959435
v 2.30906963 2.03830419 1.99958124
v 2.29233728 2.03830419 2.00387233
v 2.29233728 1.98899105 2.00399035
v 2.27566823 1.98899105 2.00396412
v 2.22499177 2.00567826 1.99805893
v 2.22499177 1.82233906 1.99830831
v 2.22499177 1.77236548 1.99837388
v 2.22499177 1.58849792 1.99858393
v 2.27566823 1.58849792 2.00392479
v 2.29233728 1.60571349 2.00402981
v 2.30726973 1.58849792 1.99972560
v 2.30780338 1.60571349 1.99962058
v 2.31739056 2.03830419 1.99527704
v 2.31710112 2.03830419 1.99543451
v 2.30896109 1.97234787 1.99959435
v 2.27566823 2.03830419 2.00380665
v 2.27566823 2.00567826 2.00391167
v 2.22499177 2.02232144 1.99801959
v 2.22499177 1.58849792 1.93379751
v 2.29181269 1.58849792 2.00395101
v 2.29233728 1.58849792 2.00395101
v 2.30775814 1.58849792 1.99958124
v 2.31735444 2.02716470 1.99523758
v 2.31739056 2.03830419 1.99329546
v 2.22499177 2.03830419 1.99795402
v 2.23964391 1.58849792 1.90354994
v 2.22499177 2.03830419 1.93573968
v 2.24613788 2.03830419 1.88996802
v 2.24611976 2.02232144 1.88998113
v 2.31484906 1.58849792 1.98727219
v 2.31735444 2.02716470 1.99463396
v 2.31508420 1.58902627 1.98687850
v 2.31577157 1.70570468 1.98687850
v 2.31578969 1.70570468 1.97021278
v 2.31681174 2.03830419 1.97097388
v 2.31704688 1.97234787 1.98687850
v 2.31510232 1.72239189 1.92021565
v 2.31514750 1.73903508 1.92021565
v 2.25589691 1.58849792 1.87020534
v 2.25633102 2.03830419 1.87021846
v 2.25633102 2.03826015 1.87020534
v 2.31507514 1.58849792 1.98687850
v 2.31518368 1.58849792 1.97021278
v 2.31527416 1.60571349 1.97021278
v 2.31458674 1.58849792 1.92021565
v 2.31531034 2.00567826 1.92021565
v 2.31629615 2.03830419 1.95426883
v 2.31531934 1.93901746 1.92021565
v 2.31532840 1.95566066 1.92021565
v 2.31531934 1.98899105 1.92021565
v 2.31140311 1.58849792 1.90354994
v 2.31176485 1.80569587 1.90354994
v 2.31200005 1.98899105 1.90354994
v 2.25708174 1.58849792 1.87020534
v 2.29324173 2.03830419 1.87020534
v 2.31196387 2.00567826 1.90354994
v 2.31526510 2.02232144 1.92021565
v 2.31571733 2.03830419 1.93760312
v 2.29404669 1.58849792 1.87021846
v 2.29425471 1.72239189 1.87020534
v 2.29443556 1.87235667 1.87020534
v 2.29445368 1.88899985 1.87020534
v 2.29430895 2.03830419 1.87020534
v 2.29403763 1.58902627 1.87020534
v 2.31189151 2.02232144 1.90354994
v 2.31507514 2.03830419 1.92021565
v 2.31167443 2.03830419 1.90354994
f 1 2 3
f 1 3 9
f 1 9 4
f 1 4 5
f 1 5 2
f 2 5 6
f 2 6 7
f 2 7 3
f 3 8 22
f 3 22 9
f 3 7 8
f 4 9 10
f 4 10 11
f 4 11 12
f 4 12 13
f 4 13 14
f 4 14 5
f 5 14 15
f 5 15 28
f 5 28 27
f 5 27 38
f 5 38 49
f 5 49 61
f 5 61 72
f 5 72 80
f 5 80 81
f 5 81 77
f 5 77 69
f 5 69 54
f 5 54 42
f 5 42 41
f 5 41 39
f 5 39 30
f 5 30 16
f 5 16 17
f 5 17 6
f 6 17 18
f 6 18 7
f 7 18 19
f 7 19 20
f 7 20 21
f 7 21 8
f 8 21 20
f 8 20 19
f 8 19 32
f 8 32 39
f 8 39 41
f 8 41 33
f 8 33 22
f 9 22 10
f 10 22 23
f 10 23 11
f 11 23 24
f 11 24 25
f 11 25 26
f 11 26 12
f 12 26 27
f 12 27 13
f 13 27 28
f 13 28 29
f 13 29 14
f 14 29 28
f 14 28 15
f 16 30 31
f 16 31 18
f 16 18 17
f 18 31 32
f 18 32 19
f 22 33 40
f 22 40 53
f 22 53 68
f 22 68 73
f 22 73 65
f 22 65 59
f 22 59 57
f 22 57 56
f 22 56 44
f 22 44 36
f 22 36 25
f 22 25 35
f 22 35 34
f 22 34 23
f 23 34 24
f 24 34 35
f 24 35 25
f 25 36 26
f 26 36 27
f 27 37 45
f 27 45 38
f 27 36 37
f 30 39 32
f 30 32 31
f 33 41 42
f 33 42 43
f 33 43 40
f 36 44 37
f 37 44 46
f 37 46 47
f 37 47 48
f 37 48 45
f 38 45 48
f 38 48 50
f 38 50 51
f 38 51 52
f 38 52 49
f 40 43 53
f 42 54 55
f 42 55 53
f 42 53 43
f 44 56 46
f 46 56 57
f 46 57 47
f 47 57 58
f 47 58 48
f 48 58 59
f 48 59 51
f 48 51 50
f 49 60 61
f 49 52 62
f 49 62 63
f 49 63 64
f 49 64 60
f 51 59 65
f 51 65 52
f 52 65 66
f 52 66 67
f 52 67 62
f 53 55 69
f 53 69 77
f 53 77 76
f 53 76 75
f 53 75 74
f 53 74 78
f 53 78 68
f 54 69 55
f 57 59 58
f 60 70 71
f 60 71 61
f 60 64 67
f 60 67 70
f 61 71 72
f 62 67 63
f 63 67 64
f 65 73 66
f 66 73 74
f 66 74 67
f 67 75 76
f 67 76 77
f 67 77 70
f 67 74 75
f 68 78 73
f 70 77 79
f 70 79 71
f 71 79 80
f 71 80 72
f 73 78 74
f 77 81 79
f 79 81 80

