# https://github.com/mikedh/trimesh
v -0.47889062000000004 -0.30198943 0.16229156
v -0.47889062000000004 -0.34796513 0.16002173
v -0.47889062000000004 -0.30198943 0.11928319
v -0.5791339200000001 -0.30198943 0.16253341
v -0.47889062000000004 -0.34796513 0.12149367
v -0.5957894699999999 -0.30198943 0.16256734
v -0.66248923 -0.30198943 0.16255887
v -1.06268764 -0.30198943 0.16242313
v -1.26720253 -0.30198943 0.16224916
v -1.27030122 -0.30198943 0.16224492
v -1.27030122 -0.34796513 0.15867253
v -1.19608713 -0.34796513 0.12120942
v -1.27030122 -0.30198943 0.11922808
v -1.27030122 -0.34796513 0.12124759
f 1 2 5
f 1 5 3
f 1 3 13
f 1 13 10
f 1 10 9
f 1 9 8
f 1 8 7
f 1 7 6
f 1 6 4
f 1 4 2
f 2 4 6
f 2 6 7
f 2 7 8
f 2 8 9
f 2 9 10
f 2 10 11
f 2 11 14
f 2 14 12
f 2 12 5
f 3 5 12
f 3 12 13
f 10 13 14
f 10 14 11
f 12 14 13

