# https://github.com/mikedh/trimesh
v 0.81362809 2.00027384 1.50667567
v 0.81362809 2.05495033 1.50053748
v 0.82167952 2.00027384 1.50860062
v 0.81362809 2.00027384 1.60012381
v 0.82542111 2.05495033 1.50410258
v 0.81362809 2.05495033 1.60084074
v 0.82713881 2.00027384 1.52021903
v 0.82556383 2.05495033 1.50428914
v 0.83695726 2.05495033 1.52021903
v 0.83689497 2.00027384 1.60009430
v 0.84013579 2.05495033 1.60087018
v 0.84013579 2.00027384 1.55420998
v 0.84013579 2.05495033 1.53888902
v 0.84013579 2.00027384 1.60008447
f 1 2 3
f 1 3 7
f 1 7 12
f 1 12 14
f 1 14 10
f 1 10 4
f 1 4 6
f 1 6 2
f 2 5 3
f 2 6 11
f 2 11 13
f 2 13 9
f 2 9 8
f 2 8 5
f 3 5 8
f 3 8 9
f 3 9 7
f 4 10 11
f 4 11 6
f 7 9 12
f 9 13 12
f 10 14 11
f 11 14 12
f 11 12 13

