# https://github.com/mikedh/trimesh
v -2.76822396 1.56400631 1.15556823
v -2.76822396 1.56400631 1.22109610
v -2.76822396 1.59178954 1.15933030
v -2.38944615 1.59178954 1.16413237
v -2.38944615 1.56400631 1.16286123
v -2.76822396 1.56880956 1.22110893
v -2.75639527 1.56400631 1.22106400
v -2.74801507 1.57235896 1.22106400
v -2.76822396 1.59178954 1.22114747
v -2.38944615 1.59178954 1.21988916
v -2.38944615 1.56400631 1.21984422
v -2.76822396 1.57235896 1.22111535
v -2.74801507 1.58902346 1.22109610
v -2.47306280 1.56400631 1.22019732
v -2.73136590 1.59178954 1.22105116
v -2.46471967 1.57235896 1.22019732
v -2.74527111 1.59178954 1.22108968
v -2.38944615 1.58902346 1.21988916
v -2.44807053 1.59178954 1.22009460
v -2.44807053 1.58902346 1.22010101
v -2.38944615 1.57235896 1.21987633
v -2.45641363 1.56400631 1.22013954
v -2.46471967 1.56400631 1.22017164
v -2.44807053 1.57235896 1.22012670
f 1 2 6
f 1 6 12
f 1 12 9
f 1 9 3
f 1 3 4
f 1 4 5
f 1 5 11
f 1 11 22
f 1 22 23
f 1 23 14
f 1 14 7
f 1 7 2
f 2 7 8
f 2 8 6
f 3 9 17
f 3 17 15
f 3 15 19
f 3 19 10
f 3 10 4
f 4 10 18
f 4 18 21
f 4 21 11
f 4 11 5
f 6 8 13
f 6 13 12
f 7 14 8
f 8 15 13
f 8 14 16
f 8 16 15
f 9 12 13
f 9 13 17
f 10 19 20
f 10 20 16
f 10 16 18
f 11 21 22
f 13 15 17
f 14 23 16
f 15 16 19
f 16 23 22
f 16 22 24
f 16 24 18
f 16 20 19
f 18 24 21
f 21 24 22

