# https://github.com/mikedh/trimesh
v 0.81367642 2.07746563 1.62235151
v 0.81367642 2.11304542 1.62235151
v 0.84241313 2.07729850 1.62235151
v 0.81367642 2.08087913 1.83685652
v 0.81367642 2.11309000 1.63225282
v 1.07559631 2.11440859 1.62235151
v 0.84454175 2.07728735 1.62235151
v 0.81367642 2.08160714 1.87024927
v 0.85687822 2.08122829 1.87024927
v 0.81367642 2.11329799 1.68690440
v 0.97564682 2.11494715 1.87024927
v 0.99228895 2.11500660 1.87024927
v 1.27559201 2.11508460 1.62235151
v 0.85905523 2.07724649 1.62235151
v 0.81367642 2.11390713 1.87024927
v 0.87574574 2.07723535 1.62235151
v 0.90907836 2.07723165 1.62235151
v 1.09243194 2.08154399 1.87024927
v 0.89175893 2.11442343 1.87024927
v 1.07554792 2.11504001 1.87024927
v 1.30790868 2.11517001 1.62235151
v 1.29228250 2.11513660 1.62235151
v 0.91120697 2.07723535 1.62235151
v 1.30790868 2.08133600 1.83685652
v 1.10912243 2.08158115 1.87024927
v 1.24216262 2.11508087 1.87024927
v 1.30790868 2.07844253 1.62235151
v 1.25885313 2.11508460 1.87024927
v 1.29218575 2.11507718 1.87024927
v 1.30790868 2.11506973 1.87024927
v 0.97574359 2.07737649 1.62235151
v 1.30790868 2.08180771 1.85243658
v 0.99238569 2.07742480 1.62235151
v 1.30790868 2.08184115 1.85350435
v 1.30790868 2.08245401 1.87024927
f 1 2 6
f 1 6 13
f 1 13 22
f 1 22 21
f 1 21 27
f 1 27 33
f 1 33 31
f 1 31 23
f 1 23 17
f 1 17 16
f 1 16 14
f 1 14 7
f 1 7 3
f 1 3 4
f 1 4 8
f 1 8 15
f 1 15 10
f 1 10 5
f 1 5 2
f 2 5 6
f 3 7 4
f 4 7 9
f 4 9 8
f 5 10 11
f 5 11 6
f 6 12 13
f 6 11 12
f 7 14 9
f 8 9 18
f 8 18 25
f 8 25 35
f 8 35 30
f 8 30 29
f 8 29 28
f 8 28 26
f 8 26 20
f 8 20 12
f 8 12 11
f 8 11 19
f 8 19 15
f 9 14 16
f 9 16 17
f 9 17 18
f 10 15 19
f 10 19 11
f 12 20 21
f 12 21 22
f 12 22 13
f 17 23 24
f 17 24 18
f 18 24 25
f 20 26 21
f 21 26 28
f 21 28 29
f 21 29 30
f 21 30 35
f 21 35 34
f 21 34 32
f 21 32 24
f 21 24 27
f 23 31 24
f 24 32 25
f 24 31 33
f 24 33 27
f 25 32 34
f 25 34 35

