# https://github.com/mikedh/trimesh
v -3.29203335 2.04977639 1.54762736
v -3.31008002 2.04977639 1.54762736
v -3.29187024 1.73902071 1.54762736
v -3.28483397 1.56068687 1.54582133
v -3.29353352 2.04977639 1.52186973
v -3.31008002 2.04977639 1.50327543
v -3.31008002 1.59204490 1.54762736
v -3.29192213 1.67237891 1.54762736
v -3.31008002 1.56068687 1.54582133
v -3.29203335 1.56068687 1.52013748
v -3.29363732 2.04977639 1.52021562
v -3.29200864 1.59209278 1.54762736
v -3.29392402 1.59204490 1.54762736
v -3.29961581 2.04977639 1.50570225
v -3.30299926 1.56068687 1.50767328
v -3.31008002 1.56777234 1.50629705
v -3.31008002 1.56068687 1.50642729
v -3.29888919 1.56068687 1.50867184
v -3.29775726 2.04977639 1.50936642
f 1 2 7
f 1 7 13
f 1 13 12
f 1 12 8
f 1 8 3
f 1 3 4
f 1 4 5
f 1 5 11
f 1 11 19
f 1 19 14
f 1 14 6
f 1 6 2
f 2 6 16
f 2 16 17
f 2 17 9
f 2 9 7
f 3 8 4
f 4 9 17
f 4 17 15
f 4 15 18
f 4 18 10
f 4 10 11
f 4 11 5
f 4 8 12
f 4 12 13
f 4 13 7
f 4 7 9
f 6 14 15
f 6 15 16
f 10 18 14
f 10 14 19
f 10 19 11
f 14 18 15
f 15 17 16

