# https://github.com/mikedh/trimesh
v 1.30798396 2.06210938 1.49550800
v 1.30798396 2.06210938 1.60385682
v 1.30798396 2.11466468 1.49550800
v 1.84504656 2.06210938 1.49550800
v 1.39246233 2.06210938 1.60393001
v 1.32575303 2.07813386 1.62015792
v 1.30798396 2.07817180 1.62015792
v 1.30798396 2.12171293 1.53688307
v 1.40910203 2.12371044 1.53688307
v 1.42574169 2.12400754 1.53688307
v 1.44245667 2.12429201 1.53688307
v 1.45909634 2.12455749 1.53688307
v 1.50909068 2.12520859 1.53688307
v 1.52573036 2.12537295 1.53688307
v 1.31716968 2.11472157 1.49550800
v 2.07717387 2.06450515 1.49550800
v 2.07717387 2.06210938 1.53128263
v 1.64243399 2.06210938 1.60379578
v 1.64243399 2.07791896 1.62015792
v 1.30798396 2.11519564 1.62015792
v 1.30798396 2.12245251 1.55355027
v 1.34246800 2.12302144 1.55355027
v 1.35910769 2.12323634 1.55355027
v 1.39246233 2.12358402 1.55355027
v 1.40910203 2.12374838 1.55355027
v 1.39246233 2.12302144 1.57019304
v 1.72555712 2.12637804 1.53688307
v 1.34246800 2.11481006 1.49550800
v 1.72555712 2.12243987 1.52022815
v 2.07717387 2.11533473 1.49550800
v 2.07717387 2.06210938 1.60316129
v 2.04223806 2.07842465 1.62015792
v 1.32575303 2.11523990 1.62015792
v 1.42574169 2.12147272 1.58686018
v 1.40910203 2.12142846 1.58686018
v 1.39246233 2.12135893 1.58686018
v 1.37574736 2.12125146 1.58686018
v 1.35910769 2.12113768 1.58686018
v 1.34246800 2.12101757 1.58686018
v 1.30798396 2.12066358 1.58686018
v 1.30798396 2.12179509 1.57019304
v 1.34246800 2.12245251 1.57019304
v 1.35910769 2.12270535 1.57019304
v 1.37574736 2.12286971 1.57019304
v 1.40910203 2.12310360 1.57019304
v 1.77555145 2.12438049 1.57019304
v 1.74227207 2.12643493 1.53688307
v 1.72555712 2.11581515 1.49550800
v 1.79226640 2.12654872 1.53688307
v 1.80890609 2.12657399 1.53688307
v 1.77555145 2.12249676 1.52022815
v 2.07717387 2.12206692 1.52022815
v 2.07627038 2.11534105 1.49550800
v 2.07717387 2.07860796 1.62015792
v 2.05887778 2.07846259 1.62015792
v 1.52573036 2.11542321 1.62015792
v 1.80890609 2.12203530 1.58686018
v 1.79226640 2.12442475 1.57019304
v 1.30798396 2.12173188 1.57129114
v 1.80890609 2.12555626 1.55355027
v 1.89225506 2.12261055 1.52022815
v 1.73361341 2.11582147 1.49550800
v 1.95888912 2.12668778 1.53688307
v 2.07717387 2.12651078 1.53688307
v 1.95888912 2.12250308 1.52022815
v 2.05029441 2.11542321 1.49550800
v 2.07717387 2.11466468 1.62015792
v 1.87561540 2.11512611 1.62015792
v 1.90889473 2.12207324 1.58686018
v 1.89225506 2.12208587 1.58686018
v 1.80890609 2.12444370 1.57019304
v 1.94224940 2.12561316 1.55355027
v 1.75891176 2.11582778 1.49550800
v 1.90889473 2.12260423 1.52022815
v 2.07717387 2.12549305 1.55355027
v 1.96694541 2.11564447 1.49550800
v 2.07717387 2.12177614 1.58686018
v 2.02559840 2.11484800 1.62015792
v 1.89225506 2.11510084 1.62015792
v 1.94224940 2.12202266 1.58686018
v 2.07717387 2.12432360 1.57019304
v 1.92560973 2.12447533 1.57019304
v 1.91695108 2.11571400 1.49550800
v 2.07717387 2.12443107 1.56869224
v 2.00888339 2.11490489 1.62015792
f 1 2 7
f 1 7 20
f 1 20 40
f 1 40 59
f 1 59 41
f 1 41 21
f 1 21 8
f 1 8 3
f 1 3 15
f 1 15 28
f 1 28 48
f 1 48 62
f 1 62 73
f 1 73 83
f 1 83 76
f 1 76 66
f 1 66 53
f 1 53 30
f 1 30 16
f 1 16 4
f 1 4 17
f 1 17 31
f 1 31 18
f 1 18 5
f 1 5 2
f 2 5 6
f 2 6 7
f 3 8 9
f 3 9 10
f 3 10 11
f 3 11 12
f 3 12 13
f 3 13 14
f 3 14 15
f 4 16 17
f 5 18 19
f 5 19 6
f 6 19 32
f 6 32 55
f 6 55 54
f 6 54 67
f 6 67 78
f 6 78 85
f 6 85 79
f 6 79 68
f 6 68 56
f 6 56 33
f 6 33 20
f 6 20 7
f 8 21 9
f 9 21 10
f 10 21 11
f 11 21 22
f 11 22 12
f 12 22 13
f 13 22 23
f 13 23 24
f 13 24 25
f 13 25 14
f 14 25 26
f 14 26 27
f 14 27 15
f 15 27 29
f 15 29 28
f 16 30 52
f 16 52 64
f 16 64 75
f 16 75 84
f 16 84 81
f 16 81 77
f 16 77 67
f 16 67 54
f 16 54 31
f 16 31 17
f 18 31 32
f 18 32 19
f 20 33 34
f 20 34 35
f 20 35 36
f 20 36 37
f 20 37 38
f 20 38 39
f 20 39 40
f 21 41 42
f 21 42 22
f 22 42 43
f 22 43 23
f 23 43 24
f 24 43 44
f 24 44 25
f 25 44 26
f 26 44 39
f 26 39 38
f 26 38 37
f 26 37 36
f 26 36 45
f 26 45 27
f 27 45 46
f 27 46 47
f 27 47 29
f 28 29 48
f 29 47 49
f 29 49 50
f 29 50 51
f 29 51 48
f 30 53 52
f 31 54 55
f 31 55 32
f 33 56 57
f 33 57 34
f 34 57 58
f 34 58 46
f 34 46 35
f 35 46 45
f 35 45 36
f 39 44 43
f 39 43 40
f 40 43 42
f 40 42 59
f 41 59 42
f 46 58 60
f 46 60 47
f 47 60 49
f 48 51 61
f 48 61 62
f 49 60 50
f 50 61 51
f 50 60 63
f 50 63 61
f 52 53 65
f 52 65 64
f 53 66 65
f 56 68 69
f 56 69 70
f 56 70 57
f 57 70 71
f 57 71 58
f 58 71 60
f 60 71 72
f 60 72 63
f 61 73 62
f 61 63 74
f 61 74 73
f 63 72 75
f 63 75 64
f 63 64 74
f 64 65 74
f 65 76 74
f 65 66 76
f 67 77 78
f 68 79 80
f 68 80 69
f 69 80 81
f 69 81 82
f 69 82 70
f 70 82 71
f 71 82 72
f 72 82 75
f 73 74 83
f 74 76 83
f 75 82 84
f 77 85 78
f 77 81 80
f 77 80 85
f 79 85 80
f 81 84 82

