# https://github.com/mikedh/trimesh
v 0.56339684 2.06413602 0.78326087
v 0.56339684 2.11257013 0.78326087
v 0.70898951 2.06326227 0.78326087
v 0.80872926 2.05489660 0.80176783
v 0.56339684 2.05489660 0.82995786
v 0.56339684 2.11624484 0.80355584
v 0.57566835 2.11631300 0.80355584
v 0.72562094 2.11696985 0.80355584
v 0.72547402 2.11322081 0.78326087
v 0.80537361 2.06293384 0.78326087
v 0.80897424 2.06292764 0.78326087
v 0.80897424 2.05489660 0.80176783
v 0.56339684 2.05489660 0.88668623
v 0.56339684 2.11735406 0.81581640
v 0.56339684 2.11771348 0.82022836
v 0.72562094 2.11815966 0.82022836
v 0.74230138 2.11818442 0.82022836
v 0.81362809 2.11705040 0.80355584
v 0.81362809 2.11643075 0.80011915
v 0.79202433 2.11331376 0.78326087
v 0.74225244 2.11324557 0.78326087
v 0.81362809 2.06299580 0.78326087
v 0.81362809 2.05489660 0.80239479
v 0.81362809 2.05489660 0.88668623
v 0.81362809 2.05490280 0.90391606
v 0.57544793 2.05490280 0.90379995
v 0.56339684 2.05490280 0.90373029
v 0.56339684 2.11685833 0.85355018
v 0.72562094 2.11721152 0.85355018
v 0.74230138 2.11721772 0.85355018
v 0.81362809 2.11820302 0.82022836
v 0.81362809 2.11788699 0.81558421
v 0.81362809 2.11333233 0.78326087
v 0.81340767 2.11333233 0.78326087
v 0.81362809 2.06430333 1.02048438
v 0.69260298 2.06422897 1.02048438
v 0.59264275 2.06421037 1.02048438
v 0.59237328 2.06421037 1.02048438
v 0.57566835 2.06425994 1.02048438
v 0.56339684 2.06432193 1.02048438
v 0.56339684 2.10976919 1.02039150
v 0.72537603 2.11075446 1.02048438
v 0.80868026 2.11112008 1.02048438
v 0.81362809 2.11112628 1.02048438
v 0.75898187 2.11719915 0.85355018
v 0.81362809 2.11705040 0.85355018
v 0.56339684 2.07597809 1.02048438
v 0.57539893 2.10978779 1.02048438
f 1 2 9
f 1 9 21
f 1 21 20
f 1 20 34
f 1 34 33
f 1 33 22
f 1 22 11
f 1 11 10
f 1 10 3
f 1 3 4
f 1 4 5
f 1 5 13
f 1 13 27
f 1 27 40
f 1 40 47
f 1 47 41
f 1 41 28
f 1 28 15
f 1 15 14
f 1 14 6
f 1 6 2
f 2 6 7
f 2 7 8
f 2 8 9
f 3 10 4
f 4 10 11
f 4 11 12
f 4 12 23
f 4 23 24
f 4 24 13
f 4 13 5
f 6 14 7
f 7 14 8
f 8 14 15
f 8 15 16
f 8 16 17
f 8 17 18
f 8 18 19
f 8 19 20
f 8 20 21
f 8 21 9
f 11 22 12
f 12 22 23
f 13 24 25
f 13 25 26
f 13 26 27
f 15 28 16
f 16 28 29
f 16 29 17
f 17 30 31
f 17 31 32
f 17 32 18
f 17 29 30
f 18 32 31
f 18 31 46
f 18 46 44
f 18 44 35
f 18 35 25
f 18 25 24
f 18 24 23
f 18 23 22
f 18 22 33
f 18 33 19
f 19 33 34
f 19 34 20
f 25 35 36
f 25 36 37
f 25 37 38
f 25 38 26
f 26 38 27
f 27 38 39
f 27 39 40
f 28 41 42
f 28 42 43
f 28 43 29
f 29 43 44
f 29 44 30
f 30 44 45
f 30 45 31
f 31 45 46
f 35 44 43
f 35 43 42
f 35 42 48
f 35 48 47
f 35 47 40
f 35 40 39
f 35 39 38
f 35 38 37
f 35 37 36
f 41 47 48
f 41 48 42
f 44 46 45

