# https://github.com/mikedh/trimesh
v -3.78137390 1.46510205 1.49927718
v -3.76472684 1.46745666 1.45353704
v -3.76472684 1.46751504 1.49927718
v -3.79803752 1.46545231 1.49927718
v -3.78138218 1.46513122 1.45353704
v -3.76472684 1.46744694 1.43685047
v -3.74805499 1.47114428 1.28687728
v -3.74806328 1.47175726 1.47019787
v -3.74806328 1.47188374 1.48685869
v -3.74807150 1.47218537 1.49927718
v -3.74805499 1.47118320 1.30356383
v -3.74805499 1.47139724 1.38684228
v -3.74805499 1.47152375 1.42018965
v -3.74805499 1.47160157 1.43685047
v -3.80985632 1.47345025 1.49927718
v -3.79804575 1.46552041 1.43685047
v -3.78138218 1.46515068 1.44284117
v -3.76499095 1.46766098 1.23661196
v -3.76472684 1.46769990 1.23661196
v -3.74805499 1.47117345 1.27024215
v -3.73613713 1.47674868 1.28687728
v -3.73658279 1.47735191 1.47019787
v -3.73658279 1.47745893 1.48685869
v -3.73658279 1.47747839 1.48799000
v -3.73659108 1.47779949 1.49927718
v -3.73637644 1.47700164 1.37018143
v -3.81230764 1.48508714 1.49927718
v -3.80984810 1.47385890 1.35354633
v -3.80978206 1.47398538 1.23661196
v -3.79804575 1.46627937 1.23661196
v -3.78138218 1.46572474 1.23661196
v -3.74832739 1.47122212 1.23661196
v -3.74805499 1.47128050 1.23689477
v -3.73617015 1.47676814 1.27024215
v -3.72995536 1.48917366 1.49927718
v -3.81313294 1.48904718 1.49927718
v -3.81304210 1.48903747 1.35354633
v -3.81290179 1.48879422 1.23661196
v -3.74805499 1.47129022 1.23661196
v -3.73624442 1.47702110 1.23661196
v -3.73613713 1.47719622 1.23661196
v -3.72881637 1.50570467 1.49927718
v -3.73237360 1.48902772 1.23661196
v -3.81270378 1.50144299 1.49927718
v -3.81248920 1.50570467 1.23661196
v -3.81249743 1.50543224 1.23661196
v -3.81295138 1.48903747 1.23661196
v -3.74432449 1.56450211 1.49927718
v -3.73235709 1.48937799 1.23661196
v -3.73337222 1.50570467 1.23661196
v -3.73344649 1.50601604 1.23661196
v -3.74801375 1.56239073 1.23661196
v -3.81255524 1.50570467 1.49927718
v -3.81172983 1.52208973 1.23661196
v -3.74929299 1.56450211 1.44284117
v -3.78957777 1.56450211 1.49927718
v -3.78902481 1.56239073 1.23661196
v -3.81187837 1.51777941 1.49927718
v -3.81171338 1.52235244 1.23689477
v -3.81171338 1.52235244 1.23661196
v -3.81161432 1.52235244 1.49927718
v -3.78846357 1.56450211 1.44284117
v -3.80870082 1.53397961 1.49927718
v -3.80876686 1.53374607 1.23661196
v -3.80870916 1.53393094 1.40352883
f 1 2 3
f 1 3 10
f 1 10 25
f 1 25 35
f 1 35 42
f 1 42 48
f 1 48 56
f 1 56 63
f 1 63 61
f 1 61 58
f 1 58 53
f 1 53 44
f 1 44 36
f 1 36 27
f 1 27 15
f 1 15 4
f 1 4 5
f 1 5 6
f 1 6 2
f 2 6 7
f 2 7 3
f 3 8 9
f 3 9 10
f 3 7 11
f 3 11 12
f 3 12 13
f 3 13 14
f 3 14 8
f 4 15 16
f 4 16 5
f 5 16 17
f 5 17 18
f 5 18 6
f 6 18 19
f 6 19 7
f 7 19 20
f 7 20 21
f 7 21 11
f 8 22 23
f 8 23 9
f 8 14 22
f 9 23 24
f 9 24 10
f 10 24 25
f 11 21 12
f 12 21 13
f 13 21 26
f 13 26 22
f 13 22 14
f 15 27 28
f 15 28 29
f 15 29 16
f 16 29 30
f 16 30 31
f 16 31 17
f 17 31 18
f 18 31 30
f 18 30 29
f 18 29 38
f 18 38 47
f 18 47 46
f 18 46 45
f 18 45 54
f 18 54 60
f 18 60 64
f 18 64 57
f 18 57 52
f 18 52 51
f 18 51 50
f 18 50 49
f 18 49 43
f 18 43 41
f 18 41 40
f 18 40 39
f 18 39 32
f 18 32 19
f 19 32 20
f 20 33 34
f 20 34 21
f 20 32 33
f 21 34 35
f 21 35 23
f 21 23 22
f 21 22 26
f 23 35 24
f 24 35 25
f 27 36 37
f 27 37 28
f 28 37 38
f 28 38 29
f 32 39 33
f 33 39 40
f 33 40 34
f 34 40 41
f 34 41 35
f 35 41 43
f 35 43 42
f 36 44 45
f 36 45 46
f 36 46 37
f 37 46 47
f 37 47 38
f 42 43 49
f 42 49 50
f 42 50 51
f 42 51 52
f 42 52 48
f 44 53 45
f 45 53 54
f 48 55 62
f 48 62 56
f 48 52 55
f 52 57 62
f 52 62 55
f 53 58 54
f 54 59 60
f 54 58 61
f 54 61 59
f 56 62 57
f 56 57 64
f 56 64 65
f 56 65 63
f 59 64 60
f 59 61 63
f 59 63 64
f 63 65 64

