# https://github.com/mikedh/trimesh
v 1.37089772 2.11591305 1.23883174
v 1.30791048 2.11576609 1.24501589
v 1.37089772 2.06184185 1.23883174
v 1.37089772 2.12273492 1.20352955
v 1.29233693 2.11559118 1.24501589
v 1.30791048 2.06467553 1.24501589
v 1.35899333 2.12267892 1.20352955
v 1.34232924 2.12254600 1.20352955
v 1.37089772 2.05166150 1.22555063
v 1.37089772 2.12294481 1.18685971
v 1.26677512 2.11527632 1.24501589
v 1.29438555 2.06468954 1.24501589
v 1.30791048 2.05159856 1.22566473
v 1.30901123 2.05159856 1.22566473
v 1.32566514 2.05159856 1.22565332
v 1.35899333 2.05159856 1.22557345
v 1.35899333 2.12288885 1.18685971
v 1.26677512 2.12239207 1.17022410
v 1.26677512 2.12183932 1.19574801
v 1.26677512 2.12158743 1.20352955
v 1.26677512 2.12209121 1.18685971
v 1.37089772 2.05159856 1.18692817
v 1.37089772 2.12307076 1.17022410
v 1.35899333 2.12302877 1.17022410
v 1.26677512 2.06473851 1.24501589
v 1.27778260 2.06471752 1.24501589
v 1.26677512 2.05172447 1.22574460
v 1.30791048 2.05159856 1.13439706
v 1.34232924 2.12293781 1.17022410
v 1.26677512 2.12132156 1.15355425
v 1.37089772 2.05159856 1.15817526
v 1.37089772 2.12191627 1.15355425
v 1.35899333 2.12188828 1.15355425
v 1.34232924 2.12183932 1.15355425
v 1.26677512 2.05172447 1.15775309
v 1.29253059 2.05172447 1.12845251
v 1.33660127 2.05159856 1.13439706
v 1.26695858 2.11577310 1.12845251
v 1.26677512 2.11576609 1.12845251
v 1.37089772 2.06290535 1.13439706
v 1.37089772 2.11706751 1.13439706
v 1.30791048 2.11580808 1.12845251
v 1.26677512 2.06280739 1.12845251
v 1.30222328 2.05172447 1.12845251
v 1.30791048 2.05180846 1.12845251
f 1 2 6
f 1 6 3
f 1 3 9
f 1 9 22
f 1 22 31
f 1 31 40
f 1 40 41
f 1 41 32
f 1 32 23
f 1 23 10
f 1 10 4
f 1 4 2
f 2 5 11
f 2 11 25
f 2 25 26
f 2 26 12
f 2 12 6
f 2 4 7
f 2 7 8
f 2 8 5
f 3 6 9
f 4 10 17
f 4 17 7
f 5 8 11
f 6 12 13
f 6 13 14
f 6 14 15
f 6 15 16
f 6 16 9
f 7 17 18
f 7 18 8
f 8 19 20
f 8 20 11
f 8 18 21
f 8 21 19
f 9 16 22
f 10 23 24
f 10 24 17
f 11 20 19
f 11 19 21
f 11 21 18
f 11 18 30
f 11 30 39
f 11 39 43
f 11 43 35
f 11 35 27
f 11 27 25
f 12 26 13
f 13 26 27
f 13 27 35
f 13 35 28
f 13 28 37
f 13 37 31
f 13 31 22
f 13 22 16
f 13 16 15
f 13 15 14
f 17 24 29
f 17 29 18
f 18 29 30
f 23 32 33
f 23 33 34
f 23 34 24
f 24 34 29
f 25 27 26
f 28 35 36
f 28 36 44
f 28 44 37
f 29 34 30
f 30 34 38
f 30 38 39
f 31 37 40
f 32 41 42
f 32 42 38
f 32 38 33
f 33 38 34
f 35 43 36
f 36 43 39
f 36 39 38
f 36 38 42
f 36 42 45
f 36 45 44
f 37 44 45
f 37 45 40
f 40 45 42
f 40 42 41

