# https://github.com/mikedh/trimesh
v 2.22906000 1.50569995 0.80594457
v 2.22906000 1.52255983 0.80700286
v 2.22906000 1.49094867 0.80862248
v 1.88453894 1.49371566 0.81050900
v 1.88453894 1.49933857 0.81007647
v 1.88453894 1.50569995 0.80961635
v 1.88453894 1.52236411 0.81063782
v 2.22906000 1.53176828 0.80854887
v 1.88453894 1.53161703 0.81152126
v 1.90902234 1.53193732 0.81132802
v 2.22906000 1.48343956 0.82045685
v 1.92568179 1.48532576 0.82020839
v 1.92568179 1.49296830 0.81038016
v 1.88453894 1.48971198 0.81564396
v 2.22906000 1.53478436 0.80957035
v 1.88453894 1.57221420 0.83838324
v 2.22906000 1.48139325 0.83658876
v 1.99235352 1.48192708 0.83687404
v 1.97569401 1.48198045 0.83687404
v 1.95903456 1.48205165 0.83687404
v 1.88453894 1.48238973 0.83687404
v 1.88453894 1.48616208 0.82020839
v 2.22906000 1.57227647 0.83524520
v 1.88453894 1.57221420 0.89858573
v 2.07544866 1.57227647 0.83903662
v 2.22906000 1.48145554 0.84026974
v 1.88453894 1.48271002 0.85353048
v 2.22906000 1.48172245 0.85353048
v 2.22906000 1.48180250 0.85691699
v 1.88453894 1.48254986 0.84572680
v 2.22906000 1.57227647 0.89887100
v 2.00887815 1.57221420 0.89873297
v 2.07544866 1.57227647 0.89871456
v 1.88453894 1.55568350 0.89853972
v 2.22906000 1.52263991 0.89995690
v 1.88453894 1.48351075 0.87019615
v 2.22906000 1.48234524 0.87019615
v 1.88453894 1.54786301 0.89847530
v 2.22906000 1.50569995 0.89988328
v 1.90902234 1.48898242 0.88686180
v 1.88453894 1.48650016 0.87903970
v 2.22906000 1.48294135 0.87358264
v 1.88453894 1.53901937 0.89839248
v 2.22906000 1.49795954 0.89859494
v 1.88453894 1.52236411 0.89820843
v 1.88453894 1.50569995 0.89761947
v 1.89236283 1.49574417 0.89621149
v 1.90902234 1.49561962 0.89629431
v 1.88453894 1.48920486 0.88686180
v 2.22906000 1.48840413 0.88969616
v 2.22906000 1.49424948 0.89757346
v 1.88453894 1.49580646 0.89616548
v 1.88453894 1.49271030 0.89183112
f 1 2 8
f 1 8 15
f 1 15 23
f 1 23 31
f 1 31 35
f 1 35 39
f 1 39 44
f 1 44 51
f 1 51 50
f 1 50 42
f 1 42 37
f 1 37 29
f 1 29 28
f 1 28 26
f 1 26 17
f 1 17 11
f 1 11 3
f 1 3 4
f 1 4 5
f 1 5 6
f 1 6 7
f 1 7 2
f 2 7 9
f 2 9 10
f 2 10 8
f 3 11 12
f 3 12 13
f 3 13 4
f 4 13 14
f 4 14 22
f 4 22 21
f 4 21 30
f 4 30 27
f 4 27 36
f 4 36 41
f 4 41 49
f 4 49 53
f 4 53 52
f 4 52 46
f 4 46 45
f 4 45 43
f 4 43 38
f 4 38 34
f 4 34 24
f 4 24 16
f 4 16 9
f 4 9 7
f 4 7 6
f 4 6 5
f 8 10 15
f 9 16 10
f 10 16 15
f 11 17 18
f 11 18 19
f 11 19 20
f 11 20 21
f 11 21 12
f 12 21 22
f 12 22 13
f 13 22 14
f 15 16 23
f 16 24 33
f 16 33 25
f 16 25 23
f 17 26 18
f 18 27 19
f 18 26 28
f 18 28 29
f 18 29 27
f 19 27 30
f 19 30 20
f 20 30 21
f 23 25 33
f 23 33 31
f 24 32 33
f 24 34 35
f 24 35 32
f 27 29 37
f 27 37 36
f 31 33 32
f 31 32 35
f 34 38 39
f 34 39 35
f 36 40 41
f 36 37 42
f 36 42 40
f 38 43 39
f 39 43 45
f 39 45 46
f 39 46 47
f 39 47 48
f 39 48 44
f 40 48 49
f 40 49 41
f 40 42 50
f 40 50 48
f 44 48 51
f 46 52 47
f 47 52 53
f 47 53 48
f 48 53 49
f 48 50 51

