# https://github.com/mikedh/trimesh
v -0.47904013999999995 -0.6113361900000001 0.43807938
v -0.74596705 -0.6460130399999999 0.44466027
v -0.7323590500000001 -0.646363 0.44466027
v -0.7293682699999999 -0.6464865 0.44466027
v -0.47904013999999995 -0.65688236 0.44466027
v -0.47889055999999997 -0.6581277999999999 0.44466027
v -0.47889055999999997 -0.6278769 0.4383257
v -0.47889055999999997 -0.6230907 0.42567548
v -0.47904013999999995 -0.6113361900000001 0.39506988
v -1.2128275499999999 -0.6113361900000001 0.44062458
v -0.9284045400000001 -0.64139151 0.44466027
v -0.47889055999999997 -0.7136786900000001 0.44466027
v -0.47889055999999997 -0.6230907 0.39237307
v -0.47889055999999997 -0.6498111200000001 0.38270384
v -0.7126199100000001 -0.6389520900000001 0.38442801
v -1.04609167 -0.63608036 0.38360067
v -0.69602114 -0.6113361900000001 0.39450776
v -1.2294263699999999 -0.6113361900000001 0.44064987
v -1.20834138 -0.63810807 0.44466027
v -0.47904013999999995 -0.7148315000000001 0.44466027
v -0.47889055999999997 -0.715552 0.4423361
v -0.47889055999999997 -0.66152447 0.38151018
v -0.52913564 -0.66138036 0.3812007
v -1.04609167 -0.64469555 0.38212282
v -0.7126199100000001 -0.64728935 0.38252068
v -1.06269049 -0.64469555 0.38210385
v -1.7296340099999998 -0.64468525 0.38149121
v -1.7296340099999998 -0.6352466299999999 0.383127
v -1.49635331 -0.61138766 0.392771
v -0.7126199100000001 -0.6113361900000001 0.39450143
v -1.2128275499999999 -0.6380772 0.44466027
v -1.24602519 -0.6113361900000001 0.44065619
v -0.69602114 -0.7154387799999999 0.44466027
v -0.69602114 -0.71626222 0.44214036
v -0.47889055999999997 -0.71558288 0.44214036
v -0.47889055999999997 -0.6946985400000001 0.38097967
v -0.51253686 -0.6780240200000001 0.38103019
v -0.52913564 -0.6780240200000001 0.38097967
v -0.5458839900000001 -0.66138036 0.3811818
v -1.82982509 -0.66137007 0.38034181
v -1.77972959 -0.64468525 0.38147863
v -0.82940977 -0.66138036 0.38093548
v -0.89595461 -0.66138036 0.38088496
v -1.74638237 -0.6352466299999999 0.383127
v -1.61299367 -0.61138766 0.39279623
v -1.16273201 -0.6113361900000001 0.39466569
v -1.27025049 -0.63844773 0.44466027
v -1.26277354 -0.6113361900000001 0.44066245
v -1.32946789 -0.61138766 0.44067509
v -0.8602147899999999 -0.7155108299999999 0.44466027
v -0.86275697 -0.7163548399999999 0.44214036
v -0.7126199100000001 -0.71627251 0.44214036
v -0.8460086099999999 -0.71646807 0.40880641
v -0.7126199100000001 -0.71632396 0.40880641
v -0.69602114 -0.71630339 0.40880641
v -0.47889055999999997 -0.7155931600000001 0.42567548
v -0.47889055999999997 -0.70557816 0.38230598
v -0.51253686 -0.6946985400000001 0.38087864
v -0.64592552 -0.6946985400000001 0.38071439
v -0.69602114 -0.6946985400000001 0.38067019
v -1.47960496 -0.6946985400000001 0.38015233
v -1.74638237 -0.6946985400000001 0.38018388
v -1.84642387 -0.66137007 0.38034813
v -1.86302276 -0.66137007 0.38036071
v -1.7964779499999999 -0.64468525 0.38149754
v -1.77972959 -0.6352981 0.38314596
v -1.76298121 -0.63527753 0.38313332
v -1.84642387 -0.61138766 0.39291623
v -1.2128275499999999 -0.6113361900000001 0.39474143
v -1.34621625 -0.61138766 0.44065619
v -1.99656101 -0.61138766 0.43982252
v -2.0065800400000002 -0.61138766 0.43980356
v -1.64604177 -0.63841687 0.44347293
v -1.74638237 -0.6422561099999999 0.44347293
v -2.0065800400000002 -0.6523123 0.44347293
v -1.27025049 -0.71465651 0.44466027
v -1.27010095 -0.6113361900000001 0.44066245
v -0.91270294 -0.7155313999999999 0.44466027
v -0.86275697 -0.71646807 0.40880641
v -1.02934331 -0.71549024 0.44466027
v -1.69628684 -0.7154387799999999 0.44347293
v -1.69628684 -0.71581962 0.44214662
v -0.86275697 -0.71286554 0.39213308
v -0.8460086099999999 -0.71285525 0.39213308
v -0.69602114 -0.71275233 0.39213308
v -0.67927278 -0.71270086 0.39213308
v -0.47889055999999997 -0.7154387799999999 0.40880641
v -0.47889055999999997 -0.7155931600000001 0.42546071
v -0.47889055999999997 -0.71171275 0.39213308
v -0.49578849999999997 -0.71184655 0.39213308
v -0.51253686 -0.71197007 0.39213308
v -0.51253686 -0.7057222599999999 0.3823123
v -0.64592552 -0.70600017 0.38216701
v -0.66267388 -0.7060413400000001 0.38216069
v -1.44625778 -0.70613397 0.38184489
v -1.46300614 -0.70610309 0.38183863
v -1.74638237 -0.7062472 0.38188914
v -1.76298121 -0.6946985400000001 0.3801902
v -1.87977112 -0.6780240200000001 0.38032284
v -1.87977112 -0.66137007 0.38037968
v -1.84642387 -0.64468525 0.3816365
v -1.97981265 -0.66137007 0.38065755
v -1.7964779499999999 -0.63537015 0.38319016
v -1.86302276 -0.61138766 0.39297307
v -1.27010095 -0.6113361900000001 0.39491195
v -2.0065800400000002 -0.61138766 0.39366145
v -2.0065800400000002 -0.71453301 0.44347293
v -1.11278601 -0.71536674 0.44466027
v -1.07943883 -0.71629308 0.40880641
v -1.74638237 -0.71257734 0.39212675
v -1.07943883 -0.71545936 0.44466027
v -1.74638237 -0.71538731 0.44347293
v -1.74638237 -0.7157681499999999 0.44214662
v -1.7130352 -0.7157475600000001 0.40880008
v -0.69602114 -0.70609281 0.38216701
v -0.67927278 -0.70608252 0.38216701
v -1.76298121 -0.7062369 0.38189546
v -1.86302276 -0.6946985400000001 0.38028497
v -2.0065800400000002 -0.6946985400000001 0.3805818
v -1.86302276 -0.64468525 0.38170598
v -1.84642387 -0.6355862999999999 0.38334171
v -2.0065800400000002 -0.68476587 0.38064496
v -2.0065800400000002 -0.6780240200000001 0.38069548
v -2.0065800400000002 -0.66137007 0.38082806
v -1.9092302399999999 -0.63623476 0.38371435
v -1.92029609 -0.63645091 0.38380906
v -2.0065800400000002 -0.6393638100000001 0.38469956
v -1.86302276 -0.63569953 0.38340487
v -2.0065800400000002 -0.71489326 0.44214662
v -1.82982509 -0.71563435 0.44214662
v -1.82982509 -0.7152637900000001 0.44347293
v -1.09618719 -0.7154181900000001 0.44466027
v -1.7296340099999998 -0.71572698 0.40880008
v -1.82982509 -0.715552 0.40880008
v -1.76298121 -0.71254648 0.39212675
v -1.76178486 -0.71536674 0.44347293
v -1.76298121 -0.7157475600000001 0.44214662
v -1.99656101 -0.70569139 0.38214172
v -1.9464654 -0.7057943200000001 0.38207856
v -1.96321375 -0.70575313 0.38209753
v -2.0065800400000002 -0.7056708 0.38216069
v -2.0065800400000002 -0.65320778 0.38172489
v -2.0065800400000002 -0.64770107 0.38234385
v -2.0065800400000002 -0.6427295900000001 0.38372067
v -2.0065800400000002 -0.71484179 0.42546703
v -1.84642387 -0.7155108299999999 0.40880008
v -1.84642387 -0.715552 0.42546703
v -1.82982509 -0.7155931600000001 0.42546703
v -1.82982509 -0.7122891499999999 0.39212675
v -2.0065800400000002 -0.71153776 0.39212675
v -2.0065800400000002 -0.71479033 0.40880008
f 1 2 3
f 1 3 4
f 1 4 5
f 1 5 6
f 1 6 7
f 1 7 8
f 1 8 13
f 1 13 9
f 1 9 17
f 1 17 30
f 1 30 46
f 1 46 69
f 1 69 105
f 1 105 77
f 1 77 48
f 1 48 32
f 1 32 18
f 1 18 10
f 1 10 11
f 1 11 2
f 2 11 19
f 2 19 31
f 2 31 47
f 2 47 76
f 2 76 108
f 2 108 132
f 2 132 111
f 2 111 80
f 2 80 78
f 2 78 50
f 2 50 33
f 2 33 20
f 2 20 12
f 2 12 6
f 2 6 5
f 2 5 4
f 2 4 3
f 6 12 21
f 6 21 35
f 6 35 56
f 6 56 88
f 6 88 87
f 6 87 89
f 6 89 57
f 6 57 36
f 6 36 22
f 6 22 14
f 6 14 13
f 6 13 8
f 6 8 7
f 9 13 14
f 9 14 15
f 9 15 16
f 9 16 17
f 10 18 19
f 10 19 11
f 12 20 21
f 14 22 23
f 14 23 24
f 14 24 25
f 14 25 16
f 14 16 15
f 16 25 24
f 16 24 26
f 16 26 27
f 16 27 28
f 16 28 29
f 16 29 17
f 17 29 30
f 18 31 19
f 18 32 31
f 20 33 34
f 20 34 21
f 21 34 35
f 22 36 37
f 22 37 23
f 23 37 38
f 23 38 39
f 23 39 26
f 23 26 24
f 26 39 27
f 27 40 41
f 27 41 28
f 27 39 42
f 27 42 43
f 27 43 40
f 28 41 44
f 28 44 29
f 29 44 45
f 29 45 30
f 30 45 46
f 31 32 48
f 31 48 49
f 31 49 47
f 33 50 51
f 33 51 52
f 33 52 34
f 34 52 53
f 34 53 54
f 34 54 55
f 34 55 35
f 35 55 56
f 36 57 58
f 36 58 38
f 36 38 37
f 38 58 59
f 38 59 60
f 38 60 43
f 38 43 42
f 38 42 39
f 40 61 62
f 40 62 98
f 40 98 63
f 40 63 41
f 40 43 61
f 41 63 64
f 41 64 100
f 41 100 65
f 41 65 66
f 41 66 67
f 41 67 44
f 43 60 61
f 44 67 68
f 44 68 45
f 45 68 46
f 46 68 69
f 47 49 70
f 47 70 71
f 47 71 72
f 47 72 73
f 47 73 74
f 47 74 75
f 47 75 107
f 47 107 76
f 48 77 49
f 49 77 70
f 50 78 51
f 51 79 53
f 51 53 52
f 51 78 80
f 51 80 81
f 51 81 82
f 51 82 79
f 53 79 83
f 53 83 84
f 53 84 85
f 53 85 54
f 54 85 55
f 55 85 86
f 55 86 87
f 55 87 88
f 55 88 56
f 57 89 90
f 57 90 91
f 57 91 86
f 57 86 92
f 57 92 93
f 57 93 59
f 57 59 58
f 59 93 60
f 60 93 94
f 60 94 61
f 61 95 96
f 61 96 97
f 61 97 62
f 61 94 95
f 62 97 98
f 63 98 99
f 63 99 64
f 64 99 100
f 65 101 66
f 65 100 102
f 65 102 101
f 66 101 103
f 66 103 104
f 66 104 68
f 66 68 67
f 68 104 105
f 68 105 69
f 70 77 71
f 71 77 72
f 72 77 105
f 72 105 106
f 72 106 127
f 72 127 144
f 72 144 143
f 72 143 142
f 72 142 124
f 72 124 123
f 72 123 122
f 72 122 119
f 72 119 141
f 72 141 150
f 72 150 151
f 72 151 145
f 72 145 129
f 72 129 107
f 72 107 75
f 72 75 74
f 72 74 73
f 76 107 108
f 79 82 109
f 79 109 110
f 79 110 83
f 80 111 81
f 81 112 113
f 81 113 82
f 81 111 112
f 82 113 114
f 82 114 109
f 83 115 116
f 83 116 84
f 83 110 97
f 83 97 95
f 83 95 115
f 84 116 85
f 85 116 94
f 85 94 93
f 85 93 92
f 85 92 86
f 86 91 87
f 87 91 90
f 87 90 89
f 94 116 95
f 95 97 96
f 95 116 115
f 97 110 117
f 97 117 98
f 98 117 118
f 98 118 99
f 99 118 119
f 99 119 100
f 100 119 102
f 101 120 121
f 101 121 103
f 101 102 120
f 102 119 122
f 102 122 123
f 102 123 124
f 102 124 120
f 103 121 104
f 104 121 106
f 104 106 105
f 106 125 126
f 106 126 127
f 106 121 128
f 106 128 125
f 107 129 130
f 107 130 131
f 107 131 108
f 108 131 132
f 109 114 110
f 110 114 133
f 110 133 134
f 110 134 135
f 110 135 117
f 111 132 131
f 111 131 136
f 111 136 112
f 112 136 137
f 112 137 113
f 113 137 133
f 113 133 114
f 117 135 138
f 117 138 139
f 117 139 118
f 118 139 140
f 118 140 138
f 118 138 119
f 119 138 141
f 120 128 121
f 120 124 142
f 120 142 143
f 120 143 128
f 125 143 126
f 125 128 143
f 126 143 144
f 126 144 127
f 129 145 146
f 129 146 147
f 129 147 130
f 130 148 133
f 130 133 137
f 130 137 131
f 130 147 148
f 131 137 136
f 133 148 134
f 134 148 147
f 134 147 146
f 134 146 135
f 135 146 149
f 135 149 141
f 135 141 138
f 138 140 139
f 141 149 150
f 145 151 146
f 146 151 150
f 146 150 149

