# https://github.com/mikedh/trimesh
v -2.12989003 -0.64449307 1.77355745
v -2.13004623 -0.64449307 1.77355745
v -2.0654798999999997 -0.64449307 1.77046844
v -2.13004623 -0.29789366 1.77327498
v -2.14127443 -0.64449307 1.77051401
v -2.13210941 -0.29789366 1.77301071
v -2.0654798999999997 -0.64449307 1.68450495
v -2.0654798999999997 -0.394537 1.77014954
v -2.0654798999999997 -0.29789366 1.77002197
v -2.14640358 -0.64449307 1.75961593
v -2.14125797 -0.29789366 1.77047757
v -2.14233479 -0.29789366 1.76854578
v -2.1467734800000002 -0.29789366 1.75962505
v -2.13012019 -0.64449307 1.68046831
v -2.12664322 -0.29789366 1.68085102
v -2.0654798999999997 -0.40909458 1.68465077
v -2.0654798999999997 -0.29789366 1.68473278
v -2.14920649 -0.61130583 1.74294081
v -2.14876264 -0.64449307 1.74294081
v -2.14750504 -0.29789366 1.75622627
v -2.13004623 -0.29789366 1.68083277
v -2.1403949 -0.64449307 1.6826643
v -2.14020584 -0.29789366 1.68279187
v -2.0654798999999997 -0.30902393 1.68472366
v -2.14930513 -0.5779489600000001 1.72628388
v -2.14928873 -0.59461043 1.72628388
v -2.1492640400000003 -0.61130583 1.72628388
v -2.14889415 -0.64449307 1.72643883
v -2.1494366400000002 -0.29789366 1.74294081
v -2.1494530999999997 -0.29789366 1.73955109
v -2.1455075900000002 -0.64449307 1.69293364
v -2.14534322 -0.29789366 1.69292452
v -2.14937092 -0.5779489600000001 1.70960876
v -2.14934623 -0.59461043 1.70960876
v -2.1492969 -0.61130583 1.70960876
v -2.14889415 -0.64449307 1.72628388
v -2.14932983 -0.29789366 1.72627481
v -2.14932983 -0.394537 1.70960876
v -2.14934623 -0.41119847 1.70960876
v -2.1493626900000002 -0.42789388 1.70960876
v -2.1493791499999997 -0.5612874800000001 1.70960876
v -2.1455569199999998 -0.64449307 1.69308853
v -2.14928873 -0.37787552 1.70960876
v -2.14909967 -0.32785717000000003 1.70960876
v -2.14891884 -0.29789366 1.70960876
v -2.14877087 -0.64449307 1.70960876
v -2.1492804999999997 -0.29789366 1.72289422
f 1 2 5
f 1 5 10
f 1 10 19
f 1 19 28
f 1 28 36
f 1 36 46
f 1 46 42
f 1 42 31
f 1 31 22
f 1 22 14
f 1 14 7
f 1 7 3
f 1 3 4
f 1 4 2
f 2 4 6
f 2 6 5
f 3 7 16
f 3 16 24
f 3 24 17
f 3 17 9
f 3 9 8
f 3 8 4
f 4 8 9
f 4 9 17
f 4 17 15
f 4 15 21
f 4 21 23
f 4 23 32
f 4 32 45
f 4 45 47
f 4 47 37
f 4 37 30
f 4 30 29
f 4 29 20
f 4 20 13
f 4 13 12
f 4 12 11
f 4 11 6
f 5 6 11
f 5 11 12
f 5 12 13
f 5 13 10
f 7 14 15
f 7 15 16
f 10 18 19
f 10 13 20
f 10 20 18
f 14 21 15
f 14 22 23
f 14 23 21
f 15 17 24
f 15 24 16
f 18 25 26
f 18 26 27
f 18 27 28
f 18 28 19
f 18 20 29
f 18 29 30
f 18 30 25
f 22 31 32
f 22 32 23
f 25 33 26
f 25 30 33
f 26 33 27
f 27 33 34
f 27 34 35
f 27 35 28
f 28 35 36
f 30 37 38
f 30 38 39
f 30 39 40
f 30 40 41
f 30 41 33
f 31 42 32
f 32 42 40
f 32 40 39
f 32 39 38
f 32 38 43
f 32 43 44
f 32 44 45
f 33 42 34
f 33 41 42
f 34 42 35
f 35 42 46
f 35 46 36
f 37 47 43
f 37 43 38
f 40 42 41
f 43 47 44
f 44 47 45

