# https://github.com/mikedh/trimesh
v -3.33138510 1.60569330 0.56924507
v -3.34804693 1.60569330 0.56923523
v -3.33138510 1.58903617 0.56924507
v -3.31471879 1.60569330 0.56923523
v -3.31008425 1.78782530 0.56887137
v -3.31589766 1.78782530 0.56887137
v -3.35605160 1.60569330 0.56920573
v -3.35605160 1.59770210 0.56921556
v -3.34804693 1.58903617 0.56923523
v -3.33256397 1.78782530 0.56884187
v -3.34804693 1.57244230 0.56918606
v -3.33138510 1.57244230 0.56918606
v -3.31471879 1.58903617 0.56922540
v -3.31008425 1.60569330 0.56922540
v -3.31008425 1.78782530 0.47032858
v -3.34804693 1.78782530 0.56877303
v -3.35605160 1.78782530 0.56872388
v -3.35605160 1.58903617 0.56921556
v -3.35605160 1.57244230 0.56917622
v -3.31471879 1.57244230 0.56916639
v -3.31008425 1.57699665 0.56917622
v -3.31008425 1.58903617 0.56921556
v -3.31008425 1.78360830 0.47032858
v -3.31370640 1.78782530 0.46912891
v -3.35605160 1.78782530 0.51226901
v -3.35605160 1.57244230 0.50982043
v -3.31008425 1.57244230 0.56915655
v -3.31439031 1.78782530 0.46890271
v -3.31008425 1.76693009 0.47035809
v -3.32747947 1.78782530 0.47381953
v -3.35605160 1.78774096 0.51193466
v -3.32691257 1.60569330 0.47449802
v -3.32652108 1.58903617 0.47519623
v -3.32553569 1.57244230 0.47636646
v -3.32711052 1.68902112 0.47402601
v -3.31008425 1.57244230 0.47379987
v -3.31471879 1.78782530 0.46879453
v -3.31008425 1.70567824 0.47049577
v -3.32658408 1.78782530 0.47346554
v -3.31471879 1.70567824 0.46901089
v -3.31471879 1.68902112 0.46907974
v -3.31471879 1.67236399 0.46922720
v -3.31471879 1.65570685 0.46945340
v -3.31471879 1.62237151 0.46993525
v -3.31471879 1.60569330 0.47021056
v -3.31471879 1.58903617 0.47113492
v -3.31477726 1.57244230 0.47301314
v -3.31008425 1.58298479 0.47261980
v -3.31471879 1.77234893 0.46883386
v -3.31008425 1.68902112 0.47055478
v -3.31008425 1.68349685 0.47059412
v -3.31008425 1.66677646 0.47073175
v -3.31008425 1.65003499 0.47094812
v -3.31008425 1.61663641 0.47142013
v -3.31008425 1.59995818 0.47168561
v -3.31008425 1.58903617 0.47228548
f 1 2 9
f 1 9 3
f 1 3 4
f 1 4 5
f 1 5 6
f 1 6 2
f 2 7 8
f 2 8 18
f 2 18 9
f 2 6 10
f 2 10 7
f 3 9 11
f 3 11 12
f 3 12 20
f 3 20 13
f 3 13 4
f 4 13 22
f 4 22 14
f 4 14 5
f 5 15 24
f 5 24 28
f 5 28 37
f 5 37 39
f 5 39 30
f 5 30 25
f 5 25 17
f 5 17 16
f 5 16 10
f 5 10 6
f 5 14 22
f 5 22 21
f 5 21 27
f 5 27 36
f 5 36 48
f 5 48 56
f 5 56 55
f 5 55 54
f 5 54 53
f 5 53 52
f 5 52 51
f 5 51 50
f 5 50 38
f 5 38 29
f 5 29 23
f 5 23 15
f 7 10 16
f 7 16 17
f 7 17 25
f 7 25 31
f 7 31 26
f 7 26 19
f 7 19 18
f 7 18 8
f 9 18 19
f 9 19 11
f 11 19 26
f 11 26 34
f 11 34 47
f 11 47 36
f 11 36 27
f 11 27 20
f 11 20 12
f 13 20 21
f 13 21 22
f 15 23 24
f 20 27 21
f 23 28 24
f 23 29 28
f 25 30 31
f 26 32 33
f 26 33 34
f 26 31 30
f 26 30 35
f 26 35 32
f 28 29 37
f 29 38 37
f 30 39 40
f 30 40 35
f 32 41 42
f 32 42 43
f 32 43 44
f 32 44 45
f 32 45 33
f 32 35 41
f 33 46 34
f 33 45 46
f 34 46 47
f 35 40 41
f 36 47 46
f 36 46 48
f 37 38 49
f 37 49 39
f 38 40 49
f 38 50 40
f 39 49 40
f 40 50 41
f 41 50 51
f 41 51 52
f 41 52 42
f 42 52 53
f 42 53 43
f 43 53 54
f 43 54 44
f 44 54 55
f 44 55 45
f 45 55 56
f 45 56 48
f 45 48 46

