# https://github.com/mikedh/trimesh
v 0.45209990 2.04998293 0.57245223
v 0.45209990 2.04998293 0.50959717
v 0.40296507 2.04998293 0.57263773
v 0.56265732 1.94271895 0.56852208
v 0.56338600 2.04787231 0.57175140
v 0.40296507 2.04998293 0.50680074
v 0.56338600 2.04787231 0.51222189
v 0.39420461 2.01479531 0.56944277
v 0.39420461 2.00754987 0.56946340
v 0.39420461 2.00567026 0.56946340
v 0.39420461 1.99089587 0.56942215
v 0.39420461 1.98904775 0.56941529
v 0.39420461 1.97238325 0.56931909
v 0.39420461 1.95571874 0.56916793
v 0.39420461 1.94270846 0.56898241
v 0.54230456 1.94271895 0.56859078
v 0.55898094 1.94271895 0.56853582
v 0.56338600 1.94271895 0.56851520
v 0.45209990 1.94270846 0.56869383
v 0.39420461 2.01479531 0.50270566
v 0.56338600 1.94271895 0.51317005
v 0.39420461 1.95454267 0.50259575
v 0.39420461 1.99262847 0.50245144
v 0.39420461 1.94270846 0.50309044
v 0.45209990 1.94270846 0.51292269
f 1 2 6
f 1 6 3
f 1 3 4
f 1 4 5
f 1 5 7
f 1 7 2
f 2 7 6
f 3 6 20
f 3 20 8
f 3 8 9
f 3 9 10
f 3 10 11
f 3 11 12
f 3 12 13
f 3 13 14
f 3 14 15
f 3 15 16
f 3 16 17
f 3 17 4
f 4 18 5
f 4 17 15
f 4 15 19
f 4 19 18
f 5 18 21
f 5 21 7
f 6 7 20
f 7 21 22
f 7 22 23
f 7 23 20
f 8 20 23
f 8 23 22
f 8 22 24
f 8 24 15
f 8 15 14
f 8 14 13
f 8 13 12
f 8 12 11
f 8 11 10
f 8 10 9
f 15 24 25
f 15 25 19
f 15 17 16
f 18 19 25
f 18 25 21
f 21 25 24
f 21 24 22

