# https://github.com/mikedh/trimesh
v 0.33163914 1.46381159 0.07011124
v 0.32330735 1.46503457 0.07020261
v 0.32335635 1.46503457 0.07011124
v 0.33744682 1.46381159 0.07011124
v 0.33279083 1.46392758 0.20350833
v 0.31344813 1.47337386 0.07020261
v 0.31344813 1.47337386 0.07011124
v 0.32325019 1.46508729 0.07011124
v 0.32446727 1.46525597 0.20350833
v 0.31372589 1.47358471 0.20350833
v 0.34577854 1.46432819 0.07011124
v 0.34501894 1.46426495 0.20350833
v 0.33668715 1.46392758 0.20350833
v 0.30954364 1.48894549 0.07011124
v 0.31015626 1.48901931 0.20350833
v 0.35898680 1.46548789 0.07011124
v 0.35898680 1.46548789 0.08687887
v 0.35898680 1.46571985 0.20350833
v 0.35898680 1.46555117 0.12021834
v 0.35898680 1.46558279 0.13685544
v 0.30952730 1.48904038 0.07020261
v 0.30949464 1.50559249 0.07011124
v 0.31027881 1.50567683 0.20350833
v 0.30949464 1.50569793 0.07020261
v 0.37565031 1.47144456 0.07011124
v 0.37565031 1.47073818 0.10354208
v 0.37565031 1.47067494 0.12021834
v 0.37565031 1.47066439 0.15351865
v 0.37565031 1.47095958 0.20350833
v 0.37565031 1.47069601 0.17018186
v 0.37565031 1.47082252 0.18684507
v 0.30949464 1.50569793 0.07011124
v 0.31173281 1.52233434 0.20350833
v 0.31008282 1.52234489 0.08687887
v 0.30985406 1.52234489 0.07020261
v 0.38554219 1.47861363 0.07011124
v 0.39294277 1.47930943 0.10354208
v 0.39294277 1.47809703 0.12021834
v 0.39294277 1.47791780 0.15265676
v 0.39294277 1.47791780 0.15354482
v 0.38639991 1.47783346 0.20350833
v 0.39294277 1.47838167 0.16834060
v 0.30985406 1.52234489 0.07011124
v 0.31522067 1.53301415 0.20350833
v 0.32012170 1.57150571 0.17018186
v 0.32003187 1.57150571 0.16934613
v 0.31847171 1.57150571 0.15351865
v 0.31839816 1.57150571 0.13685544
v 0.38815612 1.48904038 0.07011124
v 0.39294277 1.48891387 0.08384920
v 0.39294277 1.48694237 0.08749269
v 0.38883407 1.48904038 0.20350833
v 0.39294277 1.48099628 0.18005443
v 0.39294277 1.48714270 0.18932631
v 0.39294277 1.48937775 0.19085417
v 0.31375033 1.53458501 0.07011124
v 0.31845532 1.57150571 0.12021834
v 0.33350966 1.57149516 0.20350833
v 0.33324830 1.57150571 0.20267255
v 0.38815612 1.48913527 0.07011124
v 0.39294277 1.50569793 0.08320934
v 0.38641624 1.50453822 0.20350833
v 0.39294277 1.57150571 0.18133421
v 0.31384021 1.53469045 0.07011124
v 0.31862686 1.57150571 0.11936950
v 0.32325019 1.57150571 0.10354208
v 0.37251365 1.57150571 0.20350833
v 0.38713508 1.50569793 0.07011124
v 0.39294277 1.52091109 0.08777998
v 0.37304461 1.57150571 0.20350833
v 0.39294277 1.57150571 0.12847162
v 0.32566801 1.54058385 0.07011124
v 0.32364227 1.57150571 0.10296749
v 0.33097746 1.57150571 0.09400908
v 0.38452116 1.51483846 0.07011124
v 0.39294277 1.53182282 0.09400908
v 0.36699183 1.57150571 0.09515826
v 0.32576606 1.54060492 0.07011124
v 0.33162274 1.57150571 0.09383932
v 0.37947314 1.52310396 0.07011124
v 0.37110869 1.53502782 0.07011124
v 0.35898680 1.54102663 0.07011124
v 0.35967297 1.57150571 0.09393069
v 0.34233152 1.54261859 0.07011124
v 0.34233969 1.57150571 0.09288600
f 1 2 3
f 1 3 8
f 1 8 7
f 1 7 14
f 1 14 22
f 1 22 32
f 1 32 43
f 1 43 56
f 1 56 64
f 1 64 72
f 1 72 78
f 1 78 84
f 1 84 82
f 1 82 81
f 1 81 80
f 1 80 75
f 1 75 68
f 1 68 60
f 1 60 49
f 1 49 36
f 1 36 25
f 1 25 16
f 1 16 11
f 1 11 4
f 1 4 13
f 1 13 5
f 1 5 2
f 2 6 7
f 2 7 8
f 2 8 3
f 2 5 9
f 2 9 10
f 2 10 6
f 4 11 12
f 4 12 13
f 5 13 12
f 5 12 18
f 5 18 29
f 5 29 41
f 5 41 52
f 5 52 62
f 5 62 70
f 5 70 67
f 5 67 58
f 5 58 44
f 5 44 33
f 5 33 23
f 5 23 15
f 5 15 10
f 5 10 9
f 6 14 7
f 6 10 14
f 10 15 14
f 11 16 17
f 11 17 12
f 12 17 19
f 12 19 20
f 12 20 18
f 14 15 21
f 14 21 22
f 15 23 24
f 15 24 21
f 16 25 26
f 16 26 27
f 16 27 28
f 16 28 17
f 17 28 19
f 18 20 30
f 18 30 31
f 18 31 29
f 19 28 30
f 19 30 20
f 21 24 22
f 22 24 32
f 23 33 34
f 23 34 35
f 23 35 24
f 24 35 43
f 24 43 32
f 25 36 37
f 25 37 38
f 25 38 26
f 26 38 39
f 26 39 27
f 27 39 28
f 28 39 40
f 28 40 30
f 29 31 40
f 29 40 42
f 29 42 41
f 30 40 31
f 33 44 45
f 33 45 46
f 33 46 47
f 33 47 34
f 34 47 35
f 35 47 48
f 35 48 43
f 36 49 50
f 36 50 51
f 36 51 37
f 37 51 50
f 37 50 61
f 37 61 69
f 37 69 76
f 37 76 71
f 37 71 63
f 37 63 55
f 37 55 54
f 37 54 53
f 37 53 42
f 37 42 40
f 37 40 39
f 37 39 38
f 41 42 53
f 41 53 54
f 41 54 55
f 41 55 52
f 43 48 57
f 43 57 56
f 44 58 45
f 45 58 59
f 45 59 67
f 45 67 70
f 45 70 63
f 45 63 71
f 45 71 77
f 45 77 83
f 45 83 85
f 45 85 79
f 45 79 74
f 45 74 73
f 45 73 66
f 45 66 65
f 45 65 57
f 45 57 48
f 45 48 47
f 45 47 46
f 49 60 61
f 49 61 50
f 52 55 63
f 52 63 62
f 56 57 65
f 56 65 66
f 56 66 64
f 58 67 59
f 60 68 61
f 61 68 69
f 62 63 70
f 64 66 73
f 64 73 74
f 64 74 72
f 68 75 69
f 69 75 76
f 71 76 77
f 72 74 79
f 72 79 78
f 75 80 76
f 76 80 77
f 77 80 81
f 77 81 82
f 77 82 83
f 78 79 84
f 79 85 84
f 82 84 83
f 83 84 85

