# https://github.com/mikedh/trimesh
v -1.89872053 1.61607004 1.99851608
v -1.91454175 1.61615272 1.99850988
v -1.90432728 1.61607004 1.99850988
v -1.89872053 1.61607004 1.93482527
v -1.89872053 1.77238266 1.99837887
v -1.91454175 1.77254798 1.99840391
v -1.91454175 1.61607004 1.99827289
v -1.89872053 1.85636658 1.93514946
v -1.90841458 1.61607004 1.93759959
v -1.91454175 2.03830420 1.93898362
v -1.91454175 1.78920424 1.99838519
v -1.89872053 2.00569429 1.99806094
v -1.91454175 1.61607004 1.93945742
v -1.91397950 2.03830420 1.93885893
v -1.89872053 2.03830420 1.93572924
v -1.91454175 1.82222745 1.93919558
v -1.91454175 1.83884238 1.93917692
v -1.91454175 2.03830420 1.99793004
v -1.91454175 1.98916204 1.99809837
v -1.89872053 2.02164793 1.99802982
v -1.91454175 2.00569429 1.99807345
v -1.89872053 2.03830420 1.99795496
v -1.89876392 2.03830420 1.99795496
v -1.91454175 2.02251587 1.99802362
v -1.89872053 2.03764291 1.99796128
f 1 2 3
f 1 3 7
f 1 7 13
f 1 13 9
f 1 9 4
f 1 4 8
f 1 8 15
f 1 15 22
f 1 22 25
f 1 25 20
f 1 20 12
f 1 12 5
f 1 5 6
f 1 6 2
f 2 7 3
f 2 6 11
f 2 11 19
f 2 19 21
f 2 21 24
f 2 24 18
f 2 18 10
f 2 10 17
f 2 17 16
f 2 16 13
f 2 13 7
f 4 9 10
f 4 10 8
f 5 11 6
f 5 12 11
f 8 10 14
f 8 14 15
f 9 13 16
f 9 16 17
f 9 17 10
f 10 18 23
f 10 23 22
f 10 22 15
f 10 15 14
f 11 12 19
f 12 20 21
f 12 21 19
f 18 24 25
f 18 25 23
f 20 25 24
f 20 24 21
f 22 23 25

