# https://github.com/mikedh/trimesh
v 2.17018117 1.57232891 1.55219599
v 2.23892537 1.57232891 1.54572060
v 2.17018117 1.57232891 1.59955559
v 2.17018117 1.60572809 1.55229088
v 2.23892537 1.72237458 1.54614487
v 2.23892537 1.57232891 1.60219044
v 2.23892537 1.73563400 1.60255325
v 2.23892537 1.73905137 1.60255886
v 2.23892537 1.90226533 1.60274304
v 2.17018117 1.72237458 1.59968958
v 2.17018117 1.62235932 1.55235787
v 2.17018117 1.87232910 1.55392090
v 2.23892537 1.73905137 1.54625651
v 2.23892537 1.91894213 1.60274864
v 2.17018117 1.73905137 1.59968398
v 2.17018117 2.03782131 1.55519365
v 2.23892537 2.03782131 1.54841684
v 2.17018117 1.88900590 1.59960584
v 2.17018117 1.87232910 1.59962819
v 2.23892537 1.93561894 1.60269839
v 2.17018117 2.03782131 1.59935466
v 2.23892537 2.03782131 1.60227973
f 1 2 6
f 1 6 3
f 1 3 10
f 1 10 15
f 1 15 19
f 1 19 18
f 1 18 21
f 1 21 16
f 1 16 12
f 1 12 11
f 1 11 4
f 1 4 5
f 1 5 2
f 2 5 13
f 2 13 17
f 2 17 22
f 2 22 20
f 2 20 14
f 2 14 9
f 2 9 8
f 2 8 7
f 2 7 6
f 3 6 7
f 3 7 8
f 3 8 9
f 3 9 10
f 4 11 5
f 5 11 12
f 5 12 13
f 9 14 10
f 10 14 15
f 12 16 17
f 12 17 13
f 14 18 19
f 14 19 15
f 14 20 21
f 14 21 18
f 16 21 22
f 16 22 17
f 20 22 21

