# https://github.com/mikedh/trimesh
v 0.81367642 2.06359379 0.92162212
v 0.81367642 2.11101860 0.92162212
v 0.81483765 2.06358878 0.92162212
v 0.81372482 2.06319259 1.09364918
v 0.81367642 2.06319759 1.09359866
v 0.81367642 2.11107377 0.94891812
v 1.17562960 2.11365166 1.00354378
v 1.22565762 2.11379710 0.92162212
v 0.82567541 2.06354366 0.92162212
v 0.81367642 2.06343330 1.09364918
v 0.82717532 2.06353862 0.92162212
v 0.81706325 2.06318254 1.09364918
v 0.81367642 2.11110888 0.97021943
v 1.17562960 2.11368173 1.02019754
v 1.22565762 2.11394754 1.00354378
v 1.30790870 2.11430866 0.93687824
v 1.30757002 2.11427856 0.92162212
v 0.81367642 2.11100859 1.09364918
v 0.84236756 2.06350352 0.92162212
v 0.82567541 2.06316249 1.09364918
v 0.81367642 2.11112393 0.98224247
v 1.20896549 2.11370683 1.09364918
v 1.21888399 2.11376700 1.09364918
v 1.22565762 2.11380711 1.09364918
v 1.20896549 2.11383721 1.03686813
v 1.20896549 2.11386731 1.02019754
v 0.81367642 2.11112893 0.98687319
v 0.81367642 2.11113898 1.00354378
v 0.81367642 2.11113397 1.02019754
v 0.81367642 2.11112393 1.03686813
v 1.30790870 2.11439893 1.00354378
v 1.30790870 2.11427856 0.92162212
v 0.91078110 2.06351356 0.92162212
v 0.92568309 2.06351857 0.92162212
v 1.07697669 2.06364395 0.92162212
v 1.30790870 2.06387465 0.92162212
v 1.30790870 2.06422572 1.09364918
v 1.23552775 2.11385727 1.09364918
v 1.30790870 2.11436382 1.03796266
v 1.30790870 2.11439392 1.02129207
v 1.30790870 2.11420334 1.09364918
f 1 2 8
f 1 8 17
f 1 17 32
f 1 32 36
f 1 36 35
f 1 35 34
f 1 34 33
f 1 33 19
f 1 19 11
f 1 11 9
f 1 9 3
f 1 3 4
f 1 4 5
f 1 5 10
f 1 10 18
f 1 18 30
f 1 30 29
f 1 29 28
f 1 28 27
f 1 27 21
f 1 21 13
f 1 13 6
f 1 6 2
f 2 6 7
f 2 7 8
f 3 9 4
f 4 10 5
f 4 9 11
f 4 11 12
f 4 12 20
f 4 20 37
f 4 37 41
f 4 41 38
f 4 38 24
f 4 24 23
f 4 23 22
f 4 22 18
f 4 18 10
f 6 13 14
f 6 14 7
f 7 14 15
f 7 15 8
f 8 15 16
f 8 16 17
f 11 19 20
f 11 20 12
f 13 21 14
f 14 22 23
f 14 23 24
f 14 24 25
f 14 25 26
f 14 26 15
f 14 21 27
f 14 27 28
f 14 28 29
f 14 29 30
f 14 30 18
f 14 18 22
f 15 26 31
f 15 31 16
f 16 31 40
f 16 40 39
f 16 39 41
f 16 41 37
f 16 37 36
f 16 36 32
f 16 32 17
f 19 33 20
f 20 33 34
f 20 34 35
f 20 35 36
f 20 36 37
f 24 38 39
f 24 39 25
f 25 39 40
f 25 40 26
f 26 40 31
f 38 41 39

