# https://github.com/mikedh/trimesh
v -2.81580358 1.59200944 1.54959183
v -2.84739781 1.59200944 1.54959183
v -2.81580358 1.55992619 1.54959183
v -2.81580358 1.59200944 1.50622189
v -2.84740413 1.59183354 1.54959183
v -2.82586863 1.59200944 1.50912371
v -2.82957631 1.55992619 1.50885954
v -2.84805155 1.55992619 1.54424412
v -2.84806734 1.55992619 1.54959183
v -2.81580358 1.55992619 1.50605994
v -2.84806734 1.57204339 1.54959183
v -2.84806734 1.55992619 1.54689452
f 1 2 5
f 1 5 11
f 1 11 9
f 1 9 3
f 1 3 10
f 1 10 4
f 1 4 6
f 1 6 2
f 2 6 7
f 2 7 8
f 2 8 5
f 3 9 12
f 3 12 8
f 3 8 7
f 3 7 10
f 4 10 7
f 4 7 6
f 5 8 11
f 8 12 11
f 9 11 12

