# https://github.com/mikedh/trimesh
v -2.81470995 2.05158961 1.22565005
v -2.79804493 2.05158961 1.22563929
v -2.81580358 2.05158961 1.22565005
v -2.81470995 1.57225502 1.22122989
v -2.76826102 2.05158961 1.22556401
v -2.79804493 1.57225502 1.22119762
v -2.81580358 2.05158961 1.11619994
v -2.81580358 1.57225502 1.22122989
v -2.76826102 2.05158961 1.15607820
v -2.78099830 1.57225502 1.22114385
v -2.76826102 1.57225502 1.22109008
v -2.81471926 2.05158961 1.11579127
v -2.81470995 1.65572569 1.11896389
v -2.81580358 1.63911601 1.11959842
v -2.81580358 1.57225502 1.12088897
v -2.79666277 2.05158961 1.11974898
v -2.76826102 1.58956851 1.15932611
v -2.78971009 1.66304520 1.12853553
v -2.78968216 1.68913271 1.12848176
v -2.78967286 1.70569547 1.12847101
v -2.76826102 1.57225502 1.15971327
v -2.81470995 1.63911601 1.11911445
v -2.81580358 1.60575590 1.12006086
v -2.81471926 1.57225502 1.12048029
v -2.81580358 1.57239579 1.12087821
v -2.81470995 1.57239579 1.12045879
v -2.79817523 1.58909931 1.12359914
v -2.78979851 1.57225502 1.13127797
v -2.79811939 1.57239579 1.12408311
v -2.81470995 1.58909931 1.11982426
v -2.81580358 1.58909931 1.12029747
v -2.81461222 1.57225502 1.12049105
v -2.79811939 1.57225502 1.12409385
f 1 2 5
f 1 5 9
f 1 9 16
f 1 16 12
f 1 12 7
f 1 7 3
f 1 3 8
f 1 8 4
f 1 4 2
f 2 4 6
f 2 6 5
f 3 7 14
f 3 14 23
f 3 23 31
f 3 31 25
f 3 25 15
f 3 15 8
f 4 8 15
f 4 15 24
f 4 24 32
f 4 32 33
f 4 33 28
f 4 28 21
f 4 21 11
f 4 11 10
f 4 10 6
f 5 6 10
f 5 10 11
f 5 11 21
f 5 21 17
f 5 17 9
f 7 12 13
f 7 13 14
f 9 17 18
f 9 18 19
f 9 19 20
f 9 20 16
f 12 16 13
f 13 16 22
f 13 22 14
f 14 22 23
f 15 25 26
f 15 26 24
f 16 20 19
f 16 19 18
f 16 18 27
f 16 27 22
f 17 21 18
f 18 21 28
f 18 28 29
f 18 29 27
f 22 27 30
f 22 30 23
f 23 30 31
f 24 26 32
f 25 31 30
f 25 30 26
f 26 30 29
f 26 29 33
f 26 33 32
f 27 29 30
f 28 33 29

