# https://github.com/mikedh/trimesh
v -3.882612515 -0.32774221000000003 1.47618027
v -3.882612515 -0.31328913 1.47616342
v -3.8826209249999994 -0.29458744000000003 1.47621396
v -3.9326183649999997 -0.29458744000000003 1.47672777
v -3.949289725 -0.29458744000000003 1.47687094
v -3.899275585 -0.32774221000000003 1.47623081
v -3.882612515 -0.32774221000000003 1.42726725
v -3.882612515 -0.31328913 1.42062139
v -3.8826209249999994 -0.29458744000000003 1.3964555
v -3.9326183649999997 -0.32774221000000003 1.47628133
v -3.915955295 -0.32774221000000003 1.47626451
v -3.962150545 -0.29458744000000003 1.47214559
v -3.9619583249999994 -0.32774221000000003 1.47174128
v -3.949289725 -0.32774221000000003 1.47599496
v -3.8826961349999998 -0.32774221000000003 1.4269977
v -3.8826209249999994 -0.3037825 1.40000162
v -3.9176266249999996 -0.32774221000000003 1.39672502
v -3.932693575 -0.32774221000000003 1.39183962
v -3.9326183649999997 -0.29458744000000003 1.39148585
v -3.9673148849999995 -0.29458744000000003 1.4594351
v -3.966871995 -0.32774221000000003 1.4594351
v -3.9493482349999995 -0.32774221000000003 1.39126685
v -3.949289725 -0.29458744000000003 1.39082884
v -3.967975055 -0.29458744000000003 1.44275736
v -3.967507115 -0.32774221000000003 1.44275736
v -3.9624095649999997 -0.32774221000000003 1.39621121
v -3.9626017949999994 -0.29458744000000003 1.39598379
v -3.967975055 -0.29458744000000003 1.44263942
v -3.9675739749999996 -0.32774221000000003 1.42609643
v -3.967365045 -0.32774221000000003 1.40942707
v -3.967757785 -0.29458744000000003 1.40942707
v -3.9679667050000003 -0.29458744000000003 1.42597849
f 1 2 3
f 1 3 4
f 1 4 5
f 1 5 6
f 1 6 11
f 1 11 10
f 1 10 14
f 1 14 13
f 1 13 21
f 1 21 25
f 1 25 29
f 1 29 30
f 1 30 26
f 1 26 22
f 1 22 18
f 1 18 17
f 1 17 15
f 1 15 7
f 1 7 8
f 1 8 2
f 2 8 9
f 2 9 3
f 3 9 19
f 3 19 23
f 3 23 27
f 3 27 31
f 3 31 32
f 3 32 28
f 3 28 24
f 3 24 20
f 3 20 12
f 3 12 5
f 3 5 4
f 5 10 11
f 5 11 6
f 5 12 13
f 5 13 14
f 5 14 10
f 7 15 16
f 7 16 8
f 8 16 9
f 9 16 17
f 9 17 18
f 9 18 19
f 12 20 13
f 13 20 21
f 15 17 16
f 18 22 23
f 18 23 19
f 20 24 21
f 21 24 25
f 22 26 23
f 23 26 27
f 24 28 29
f 24 29 25
f 26 30 31
f 26 31 27
f 28 32 29
f 29 32 30
f 30 32 31

