# https://github.com/mikedh/trimesh
v -3.31008425 2.07025716 1.60713402
v -3.31008425 2.11432612 1.60713402
v -3.28134475 2.07017434 1.60713402
v -3.28134475 2.07917862 1.66115175
v -3.29803687 2.07922922 1.66115175
v -3.31008425 2.07926603 1.66115175
v -3.31008425 2.11319425 1.66115175
v -3.09792483 2.11600090 1.60713402
v -3.26470100 2.07013294 1.60713402
v -3.26470100 2.07914181 1.66115175
v -3.04809035 2.11437213 1.66115175
v -3.08481305 2.11606993 1.60713402
v -3.21467297 2.07008693 1.60713402
v -3.24800886 2.07914640 1.66115175
v -3.03904274 2.11440432 1.66115175
v -2.83138294 2.11709135 1.60713402
v -2.84807507 2.11703153 1.60713402
v -2.85165541 2.11701774 1.60713402
v -3.06463734 2.11615275 1.60713402
v -2.88121742 2.07028017 1.60713402
v -2.81580362 2.07039059 1.60713402
v -3.10702084 2.07948689 1.66115175
v -2.82233531 2.11491964 1.66115175
v -2.81580362 2.11493346 1.66115175
v -2.81580362 2.11706375 1.60713402
v -2.81580362 2.08047613 1.66115175
f 1 2 8
f 1 8 12
f 1 12 19
f 1 19 18
f 1 18 17
f 1 17 16
f 1 16 25
f 1 25 21
f 1 21 20
f 1 20 13
f 1 13 9
f 1 9 3
f 1 3 4
f 1 4 5
f 1 5 6
f 1 6 7
f 1 7 2
f 2 7 8
f 3 9 4
f 4 9 10
f 4 10 14
f 4 14 22
f 4 22 26
f 4 26 24
f 4 24 23
f 4 23 15
f 4 15 11
f 4 11 7
f 4 7 6
f 4 6 5
f 7 11 12
f 7 12 8
f 9 13 10
f 10 13 14
f 11 15 16
f 11 16 17
f 11 17 18
f 11 18 19
f 11 19 12
f 13 20 14
f 14 20 21
f 14 21 22
f 15 23 16
f 16 23 24
f 16 24 25
f 21 25 24
f 21 24 26
f 21 26 22

