# https://github.com/mikedh/trimesh
v -1.60286563 2.07369225 0.08123842
v -1.63063984 2.07369225 0.08219389
v -1.60286563 2.07613034 0.07873351
v -1.60286563 2.07369225 0.20134278
v -1.63063984 2.07657487 0.07957281
v -1.61358276 2.07640649 0.07887555
v -1.63063984 2.07369225 0.20179471
v -1.63063984 2.08960727 0.07331063
v -1.60286563 2.08069001 0.07709377
v -1.60286563 2.07382695 0.20179471
v -1.60955363 2.07369225 0.20179471
v -1.63063984 2.08918297 0.07350429
v -1.63063984 2.12588251 0.20179471
v -1.63063984 2.10493637 0.06990193
v -1.60286563 2.08918297 0.07413700
v -1.60286563 2.12321539 0.20179471
v -1.63063984 2.13594472 0.17442194
v -1.60286563 2.13576290 0.17413786
v -1.63063984 2.10505758 0.06990193
v -1.60286563 2.10585232 0.07402077
v -1.60286563 2.09513678 0.07403370
v -1.60286563 2.13946718 0.16393763
v -1.63063984 2.14160894 0.15866967
v -1.63063984 2.12082445 0.07467929
v -1.60286563 2.11069485 0.07564763
v -1.60286563 2.14152811 0.15819193
v -1.63063984 2.14173691 0.15819193
v -1.60286563 2.12236679 0.08148369
v -1.60286563 2.11938987 0.07861734
v -1.63063984 2.13526448 0.09418883
v -1.60286563 2.13525774 0.09504094
v -1.60286563 2.12772118 0.08671291
v -1.60286563 2.14207368 0.14747529
v -1.63063984 2.14244410 0.14192325
v -1.60286563 2.14234307 0.14153587
v -1.63063984 2.14109034 0.10821088
v -1.60286563 2.14104320 0.10821088
v -1.63063984 2.14245757 0.14153587
v -1.60286563 2.14236327 0.13083210
v -1.63063984 2.14249798 0.12487987
v -1.60286563 2.14152138 0.11416316
v -1.60286563 2.14236327 0.12487987
f 1 2 3
f 1 3 9
f 1 9 15
f 1 15 21
f 1 21 20
f 1 20 25
f 1 25 29
f 1 29 28
f 1 28 32
f 1 32 31
f 1 31 37
f 1 37 41
f 1 41 42
f 1 42 39
f 1 39 35
f 1 35 33
f 1 33 26
f 1 26 22
f 1 22 18
f 1 18 16
f 1 16 10
f 1 10 4
f 1 4 11
f 1 11 7
f 1 7 2
f 2 5 6
f 2 6 3
f 2 7 13
f 2 13 17
f 2 17 23
f 2 23 27
f 2 27 34
f 2 34 38
f 2 38 40
f 2 40 36
f 2 36 30
f 2 30 24
f 2 24 19
f 2 19 14
f 2 14 8
f 2 8 12
f 2 12 5
f 3 6 8
f 3 8 9
f 4 10 11
f 5 12 6
f 6 12 8
f 7 11 10
f 7 10 16
f 7 16 13
f 8 14 15
f 8 15 9
f 13 16 18
f 13 18 17
f 14 19 20
f 14 20 21
f 14 21 15
f 17 18 22
f 17 22 23
f 19 24 20
f 20 24 25
f 22 26 23
f 23 26 27
f 24 28 29
f 24 29 25
f 24 30 31
f 24 31 32
f 24 32 28
f 26 33 27
f 27 33 35
f 27 35 34
f 30 36 37
f 30 37 31
f 34 35 38
f 35 39 40
f 35 40 38
f 36 40 37
f 37 40 41
f 39 42 40
f 40 42 41

