# https://github.com/mikedh/trimesh
v -0.4786621900000001 -0.38947678 0.95199588
v -0.4786621900000001 -0.38947678 0.90420507
v -0.49578754 -0.38947678 0.95203948
v -0.4786621900000001 -0.41121989999999997 0.95203948
v -0.4786621900000001 -0.61006038 0.90335746
v -0.9126068299999999 -0.38947678 0.90328481
v -0.5124478699999999 -0.38947678 0.95207823
v -0.4786621900000001 -0.42752184000000004 0.95206854
v -0.4786621900000001 -0.61006038 0.94925931
v -0.5291082600000001 -0.61006038 0.9032509
v -0.9292672200000001 -0.38947678 0.90326058
v -0.56242898 -0.38947678 0.95217025
v -0.4786621900000001 -0.44419085 0.95208791
v -0.4786621900000001 -0.5946437099999999 0.9520201
v -0.47873966999999995 -0.61006038 0.9520201
v -0.94592761 -0.61006038 0.90306685
v -0.94592761 -0.38947678 0.90326058
v -0.5740525300000001 -0.38947678 0.95218478
v -0.5791668400000001 -0.47791751000000005 0.95223806
v -0.4786621900000001 -0.46088144 0.95210244
v -0.4786621900000001 -0.52792452 0.95207823
v -0.51113052 -0.61006038 0.9521315
v -0.9626654699999999 -0.61006038 0.90306685
v -1.27030122 -0.38947678 0.90355604
v -0.5791668400000001 -0.38947678 0.95218963
v -0.5791668400000001 -0.61006038 0.95230102
v -0.56242898 -0.61006038 0.95228166
v -0.6625462500000001 -0.38947678 0.95226712
v -0.6792066400000001 -0.38947678 0.95228166
v -0.4786621900000001 -0.47791751000000005 0.95210244
v -0.4786621900000001 -0.51125552 0.95208791
v -0.5457686500000001 -0.61006038 0.95223322
v -1.13066402 -0.61006038 0.90325575
v -1.27030122 -0.61006038 0.90343012
v -1.27030122 -0.38947678 0.9525432
v -1.26968131 -0.61006038 0.95248508
v -0.4790496799999999 -0.49460811000000005 0.9520976
v -1.27030122 -0.61006038 0.95248508
f 1 2 6
f 1 6 11
f 1 11 17
f 1 17 24
f 1 24 35
f 1 35 29
f 1 29 28
f 1 28 25
f 1 25 18
f 1 18 12
f 1 12 7
f 1 7 3
f 1 3 4
f 1 4 8
f 1 8 13
f 1 13 20
f 1 20 30
f 1 30 31
f 1 31 21
f 1 21 14
f 1 14 9
f 1 9 5
f 1 5 2
f 2 5 6
f 3 7 4
f 4 7 8
f 5 9 15
f 5 15 22
f 5 22 32
f 5 32 27
f 5 27 26
f 5 26 36
f 5 36 38
f 5 38 34
f 5 34 33
f 5 33 23
f 5 23 16
f 5 16 10
f 5 10 6
f 6 10 11
f 7 12 8
f 8 12 13
f 9 14 15
f 10 16 11
f 11 16 23
f 11 23 17
f 12 18 19
f 12 19 20
f 12 20 13
f 14 21 15
f 15 21 22
f 17 23 24
f 18 25 19
f 19 26 27
f 19 27 20
f 19 25 28
f 19 28 29
f 19 29 26
f 20 27 30
f 21 31 22
f 22 31 32
f 23 33 24
f 24 33 34
f 24 34 38
f 24 38 35
f 26 29 35
f 26 35 36
f 27 32 37
f 27 37 30
f 30 37 31
f 31 37 32
f 35 38 36

