# https://github.com/mikedh/trimesh
v -3.9675230949999998 -0.29789366 1.99309747
v -3.964119245 -0.29789366 2.00977641
v -3.967498765 -0.29789366 1.98970543
v -3.966899065 -0.64449307 1.97643416
v -3.9666883549999996 -0.64449307 1.99309747
v -3.9635033349999995 -0.64449307 2.00977641
v -3.959183745 -0.29789366 2.01885054
v -3.9591269650000003 -0.64449307 2.01892867
v -3.9671746150000002 -0.29789366 1.97304212
v -3.966234485 -0.64449307 1.95991161
v -3.966664025 -0.29789366 1.95975529
v -3.9492882949999997 -0.29789366 2.02037461
v -3.9492882949999997 -0.64449307 2.02062475
v -3.9662263749999997 -0.64449307 1.95975529
v -3.965983275 -0.29789366 1.9573011
v -3.932617715 -0.29789366 2.02114065
v -3.9491424749999995 -0.64449307 2.02063262
v -3.932617715 -0.64449307 2.02145317
v -3.9324556049999995 -0.64449307 2.02146104
v -3.961639365 -0.64449307 1.94716399
v -3.962004005 -0.29789366 1.94668721
v -3.884729125 -0.394537 2.02113277
v -3.884729125 -0.29789366 2.02103902
v -3.884729125 -0.64449307 2.02128128
v -3.9492882949999997 -0.64449307 1.94228694
v -3.959661895 -0.29789366 1.94573373
v -3.884729125 -0.29789366 1.96544519
v -3.884729125 -0.64449307 1.96369442
v -3.932617715 -0.59461043 1.94177891
v -3.932617715 -0.61130583 1.94185704
v -3.932617715 -0.64449307 1.9421228
v -3.9492882949999997 -0.29789366 1.94173203
v -3.9459007249999996 -0.29789366 1.94161478
v -3.907526665 -0.34869249 1.95130638
v -3.9081425850000002 -0.29789366 1.95174408
v -3.9177948750000002 -0.64449307 1.94699985
v -3.917130285 -0.62796732 1.94688266
v -3.914415355 -0.5951194399999999 1.94745319
v -3.915947065 -0.5779489600000001 1.9463277
v -3.907332115 -0.58989364 1.95106411
v -3.9073159549999996 -0.5779489600000001 1.95104849
v -3.9075104449999998 -0.36121405 1.95129075
v -3.932617715 -0.5779489600000001 1.9417711
v -3.932617715 -0.29789366 1.94225568
v -3.932617715 -0.394537 1.94186491
v -3.932617715 -0.41119847 1.94181016
v -3.932617715 -0.49457371 1.94175547
v -3.932617715 -0.51126912 1.94174766
v -3.9159551749999997 -0.36121405 1.94671853
v -3.914309975 -0.34367029 1.94772676
v -3.9164657050000002 -0.29789366 1.94720305
v -3.915947065 -0.5279306 1.9464137
v -3.9293678549999997 -0.29789366 1.94320136
f 1 2 7
f 1 7 12
f 1 12 16
f 1 16 23
f 1 23 27
f 1 27 35
f 1 35 51
f 1 51 53
f 1 53 44
f 1 44 33
f 1 33 32
f 1 32 26
f 1 26 21
f 1 21 15
f 1 15 11
f 1 11 9
f 1 9 3
f 1 3 4
f 1 4 5
f 1 5 6
f 1 6 2
f 2 6 8
f 2 8 7
f 3 9 4
f 4 10 14
f 4 14 20
f 4 20 25
f 4 25 31
f 4 31 36
f 4 36 28
f 4 28 24
f 4 24 19
f 4 19 18
f 4 18 17
f 4 17 13
f 4 13 8
f 4 8 6
f 4 6 5
f 4 9 11
f 4 11 10
f 7 8 13
f 7 13 12
f 10 11 14
f 11 15 14
f 12 13 17
f 12 17 18
f 12 18 19
f 12 19 16
f 14 15 20
f 15 21 20
f 16 22 23
f 16 19 22
f 19 24 22
f 20 21 26
f 20 26 25
f 22 24 28
f 22 28 27
f 22 27 23
f 25 29 30
f 25 30 31
f 25 26 32
f 25 32 33
f 25 33 29
f 27 28 34
f 27 34 35
f 28 36 37
f 28 37 38
f 28 38 39
f 28 39 40
f 28 40 41
f 28 41 42
f 28 42 34
f 29 33 43
f 29 43 39
f 29 39 30
f 30 39 31
f 31 39 37
f 31 37 36
f 33 44 45
f 33 45 46
f 33 46 47
f 33 47 48
f 33 48 43
f 34 42 49
f 34 49 50
f 34 50 51
f 34 51 35
f 37 39 38
f 39 43 48
f 39 48 47
f 39 47 46
f 39 46 52
f 39 52 42
f 39 42 41
f 39 41 40
f 42 52 49
f 44 53 49
f 44 49 45
f 45 49 46
f 46 49 52
f 49 53 51
f 49 51 50

