# https://github.com/mikedh/trimesh
v -0.4123331000000001 -0.29818025 1.14099628
v -0.41295123 -0.32720186 1.14412175
v -0.4290132900000001 -0.32720186 1.14461977
v -0.4290132900000001 -0.29818025 1.14293682
v -0.4093926700000001 -0.29818025 1.14176047
v -0.3991938800000001 -0.32720186 1.14744471
v -0.4123331000000001 -0.32720186 1.14410457
v -0.4453931900000001 -0.32720186 1.14798565
v -0.4580644600000001 -0.29818025 1.14847509
v -0.39631523000000013 -0.29818025 1.14568448
v -0.3947611 -0.29818025 1.14867257
v -0.3930833899999999 -0.32720186 1.15925967
v -0.4536582200000001 -0.32720186 1.15191825
v -0.47887714000000003 -0.29818025 1.15579075
v -0.39015178000000006 -0.29818025 1.15925967
v -0.3901341300000001 -0.29818025 1.15944858
v -0.38866832000000007 -0.29818025 1.17594317
v -0.39176769999999994 -0.32720186 1.17594317
v -0.45388783999999993 -0.32720186 1.15215009
v -0.47887714000000003 -0.32720186 1.17905146
v -0.47887714000000003 -0.29818025 1.22744474
v -0.38886257000000013 -0.29818025 1.19260947
v -0.39182066000000004 -0.32720186 1.19260947
v -0.47887714000000003 -0.32720186 1.22744474
v -0.41604178 -0.29818025 1.22870696
v -0.3899222200000001 -0.29818025 1.20928438
v -0.39244761000000006 -0.32720186 1.20928438
v -0.39242113 -0.32720186 1.20866616
v -0.4782590200000001 -0.32720186 1.22744474
v -0.46235596 -0.32720186 1.22740181
v -0.44567577 -0.32720186 1.22734171
v -0.4283863400000001 -0.32720186 1.22726443
v -0.4123331000000001 -0.29818025 1.2286726
v -0.38999282999999996 -0.29818025 1.20945611
v -0.3959620400000001 -0.29818025 1.22343487
v -0.3982755200000001 -0.32720186 1.22182919
v -0.4123331000000001 -0.32720186 1.22710987
v -0.39937047999999997 -0.29818025 1.22462838
v -0.39850508000000007 -0.32720186 1.22231004
f 1 2 3
f 1 3 4
f 1 4 9
f 1 9 14
f 1 14 21
f 1 21 25
f 1 25 33
f 1 33 38
f 1 38 35
f 1 35 34
f 1 34 26
f 1 26 22
f 1 22 17
f 1 17 16
f 1 16 15
f 1 15 11
f 1 11 10
f 1 10 5
f 1 5 6
f 1 6 7
f 1 7 2
f 2 7 6
f 2 6 12
f 2 12 18
f 2 18 23
f 2 23 28
f 2 28 27
f 2 27 36
f 2 36 39
f 2 39 37
f 2 37 32
f 2 32 31
f 2 31 30
f 2 30 29
f 2 29 24
f 2 24 20
f 2 20 19
f 2 19 13
f 2 13 8
f 2 8 3
f 3 8 9
f 3 9 4
f 5 10 6
f 6 10 11
f 6 11 12
f 8 13 14
f 8 14 9
f 11 15 12
f 12 15 16
f 12 16 17
f 12 17 18
f 13 19 14
f 14 20 24
f 14 24 21
f 14 19 20
f 17 22 23
f 17 23 18
f 21 24 25
f 22 26 27
f 22 27 28
f 22 28 23
f 24 29 25
f 25 29 30
f 25 30 31
f 25 31 32
f 25 32 33
f 26 34 27
f 27 34 35
f 27 35 36
f 32 37 33
f 33 37 38
f 35 38 39
f 35 39 36
f 37 39 38

