# https://github.com/mikedh/trimesh
v -3.74502455 1.94270846 0.79871453
v -3.74502455 1.94329426 0.79870356
v -3.72590442 1.94270846 0.83271335
v -3.74502455 1.94270846 0.90883782
v -3.74502455 1.97244228 0.79824294
v -3.72590442 1.94270846 0.89572085
v -3.74502455 1.97881532 0.79815520
v -3.72590442 2.00569079 0.83257078
v -3.72590442 1.95413478 0.89644470
v -3.74502455 1.95165754 0.90907911
v -3.74502455 2.00916315 0.80007448
v -3.72590442 2.01480220 0.83259271
v -3.72590442 1.97236465 0.89692726
v -3.74502455 2.00569079 0.91004423
v -3.74502455 2.01480220 0.80148927
v -3.72590442 2.01480220 0.89734402
v -3.72590442 2.00569079 0.89732208
v -3.74502455 2.01480220 0.91019777
v -3.74502455 2.01219793 0.91015390
f 1 2 3
f 1 3 6
f 1 6 4
f 1 4 10
f 1 10 14
f 1 14 19
f 1 19 18
f 1 18 15
f 1 15 11
f 1 11 7
f 1 7 5
f 1 5 2
f 2 5 3
f 3 5 7
f 3 7 8
f 3 8 12
f 3 12 16
f 3 16 17
f 3 17 13
f 3 13 9
f 3 9 6
f 4 6 9
f 4 9 10
f 7 11 12
f 7 12 8
f 9 13 10
f 10 13 14
f 11 15 12
f 12 15 18
f 12 18 16
f 13 17 18
f 13 18 19
f 13 19 14
f 16 18 17

