# https://github.com/mikedh/trimesh
v 1.85891857 2.05458960 0.57159058
v 1.85796424 2.05466298 0.57161195
v 1.80780659 2.05461133 0.57305502
v 1.83496137 2.02689861 0.56780649
v 1.85891857 2.03667974 0.56763549
v 1.85891857 2.05466298 0.50794546
v 1.84233530 2.05466298 0.57202886
v 1.83496137 2.05466298 0.57215713
v 1.80532684 2.05461133 0.57305502
v 1.77560260 2.02689861 0.56775306
v 1.83496137 2.02689861 0.48608549
v 1.85891857 2.03667974 0.51091713
v 1.85891857 2.05466298 0.50283590
v 1.77560260 2.05461133 0.51086369
v 1.77568416 2.05461133 0.57287332
v 1.83496137 2.05466298 0.46988022
v 1.77560260 2.02689861 0.52642757
v 1.77560260 2.05453795 0.57284125
v 1.83445562 2.02689861 0.47779048
v 1.84040212 2.05466298 0.47205021
v 1.77568416 2.05461133 0.50286796
v 1.77560260 2.05457601 0.50294280
v 1.82566231 2.05461133 0.46386207
v 1.80900566 2.05461133 0.46395828
v 1.80562048 2.05461133 0.46456756
v 1.79427405 2.05461133 0.47206088
v 1.77560260 2.03903058 0.51085299
v 1.77562706 2.02689861 0.51089576
v 1.82566231 2.02689861 0.47279849
v 1.80900566 2.02689861 0.47272363
v 1.80658301 2.02689861 0.47407052
v 1.80015529 2.02689861 0.47771562
f 1 2 3
f 1 3 4
f 1 4 5
f 1 5 12
f 1 12 13
f 1 13 6
f 1 6 2
f 2 7 3
f 2 6 13
f 2 13 20
f 2 20 16
f 2 16 8
f 2 8 7
f 3 8 9
f 3 9 4
f 3 7 8
f 4 9 10
f 4 10 17
f 4 17 28
f 4 28 32
f 4 32 31
f 4 31 30
f 4 30 29
f 4 29 19
f 4 19 11
f 4 11 12
f 4 12 5
f 8 14 15
f 8 15 9
f 8 16 14
f 9 15 10
f 10 15 18
f 10 18 14
f 10 14 22
f 10 22 27
f 10 27 17
f 11 19 12
f 12 19 20
f 12 20 13
f 14 18 15
f 14 16 21
f 14 21 22
f 16 20 23
f 16 23 24
f 16 24 25
f 16 25 26
f 16 26 21
f 17 27 28
f 19 29 20
f 20 29 23
f 21 26 22
f 22 26 28
f 22 28 27
f 23 29 30
f 23 30 24
f 24 30 25
f 25 30 31
f 25 31 32
f 25 32 26
f 26 32 28

