# https://github.com/mikedh/trimesh
v 0.77448105 2.03905385 1.22172223
v 0.77448105 2.03905385 1.16500047
v 0.72566666 2.03905385 1.22172223
v 0.77448105 1.60451952 1.22139775
v 0.72022275 2.03900814 1.16612723
v 0.72562416 2.03905385 1.16608004
v 0.77448105 2.00683398 1.16448723
v 0.72022275 2.03905385 1.20364088
v 0.72022275 2.03900814 1.22168682
v 0.72022275 1.58902657 1.22118538
v 0.72566666 1.58902657 1.22120898
v 0.74233291 1.58902657 1.22127388
v 0.75899385 1.58902657 1.22133287
v 0.77448105 1.58902657 1.22138006
v 0.77448105 1.90784350 1.16343126
v 0.77448105 1.81927308 1.16274694
v 0.77448105 1.75570165 1.16228089
v 0.77448105 1.75076583 1.16224550
v 0.77448105 1.73906613 1.16216291
v 0.77448105 1.67238697 1.16170276
v 0.72022275 1.88901429 1.16529543
v 0.72022275 1.58358802 1.22117359
v 0.72566666 1.57239105 1.22116769
v 0.77448105 1.58788403 1.22137416
v 0.77448105 1.57216255 1.16146090
v 0.72022275 1.57225396 1.16400939
v 0.72022275 1.57216255 1.22114409
v 0.72547014 1.57216255 1.22116179
v 0.77448105 1.57216255 1.22129157
v 0.72566666 1.57216255 1.16402119
v 0.72022275 1.57216255 1.20256130
f 1 2 6
f 1 6 8
f 1 8 3
f 1 3 4
f 1 4 14
f 1 14 24
f 1 24 29
f 1 29 25
f 1 25 20
f 1 20 19
f 1 19 18
f 1 18 17
f 1 17 16
f 1 16 15
f 1 15 7
f 1 7 2
f 2 5 6
f 2 7 5
f 3 8 9
f 3 9 10
f 3 10 11
f 3 11 12
f 3 12 13
f 3 13 4
f 4 13 14
f 5 8 6
f 5 7 15
f 5 15 16
f 5 16 17
f 5 17 18
f 5 18 19
f 5 19 20
f 5 20 21
f 5 21 26
f 5 26 31
f 5 31 27
f 5 27 22
f 5 22 10
f 5 10 9
f 5 9 8
f 10 22 11
f 11 22 23
f 11 23 12
f 12 23 13
f 13 23 14
f 14 23 24
f 20 25 26
f 20 26 21
f 22 27 23
f 23 27 28
f 23 28 29
f 23 29 24
f 25 29 28
f 25 28 27
f 25 27 31
f 25 31 30
f 25 30 26
f 26 30 31

