# https://github.com/mikedh/trimesh
v -2.231577015 -0.29790449 0.37745368
v -2.2291211649999996 -0.29790449 0.37776321
v -2.248245035 -0.29790449 0.37967681
v -2.231568135 -0.28111293 0.35881027
v -2.214908995 -0.28155379 0.35881027
v -2.198232145 -0.28020184 0.35881027
v -2.2190228149999998 -0.29790449 0.38057733
v -2.272191985 -0.29790449 0.38339145
v -2.244494735 -0.27490182 0.35881027
v -2.1859261749999996 -0.27425524 0.35881027
v -2.2109991449999997 -0.29790449 0.39260758
v -2.272191985 -0.29391722 0.382505
v -2.2695233349999997 -0.22776988 0.35881027
v -2.265480425 -0.24443408 0.35881027
v -2.259141275 -0.25528882 0.35881027
v -2.272191985 -0.29790449 0.44222016
v -2.181847835 -0.26114725 0.35881027
v -2.185881855 -0.27436301 0.3921292
v -2.1858729749999997 -0.27445118 0.40881684
v -2.208303895 -0.29790449 0.40880277
v -2.210325325 -0.29790449 0.39639254
v -2.272191985 -0.28347394 0.38128086
v -2.272183095 -0.24443408 0.37252903
v -2.272183095 -0.22777967 0.37561046
v -2.266890115 -0.2110861 0.35881027
v -2.241365055 -0.29790449 0.46875715
v -2.2447429549999995 -0.27501939000000003 0.50255446
v -2.261189355 -0.25649381 0.50255446
v -2.268530365 -0.24443408 0.50255446
v -2.272183095 -0.27067944 0.46826464
v -2.272183095 -0.26492878000000003 0.47309087
v -2.272183095 -0.24646199000000002 0.48036526
v -2.272191985 -0.28347394 0.4475388
v -2.1816794149999996 -0.24448306 0.35881027
v -2.181812355 -0.26109827 0.37546977
v -2.181785755 -0.26109827 0.3921292
v -2.1858729749999997 -0.27449036 0.44214984
v -2.185881855 -0.27448056 0.42547628
v -2.208303895 -0.29790449 0.40902785
v -2.272183095 -0.22230332 0.39342371
v -2.272183095 -0.22241109 0.3921292
v -2.272183095 -0.22726045 0.37686275
v -2.272183095 -0.22101996000000002 0.45880928
v -2.267936335 -0.2110861 0.47549692
v -2.260329325 -0.20057422000000003 0.35881027
v -2.233882155 -0.29790449 0.47062852
v -2.231568135 -0.28103456 0.50255446
v -2.2365419749999997 -0.27878131 0.50255446
v -2.2711192149999997 -0.22776988 0.50255446
v -2.272183095 -0.24443408 0.48075926
v -2.272183095 -0.22668245 0.47656623
v -2.181617325 -0.22781886 0.35881027
v -2.1816794149999996 -0.24443408 0.37546977
v -2.181794635 -0.26109827 0.45880928
v -2.185881855 -0.27448056 0.45880928
v -2.2083304349999997 -0.29790449 0.42547628
v -2.269177535 -0.21739516 0.50255446
v -2.2679540549999997 -0.2110861 0.50255446
v -2.2607549249999996 -0.20059381 0.50255446
v -2.2607283249999996 -0.20057422000000003 0.49215636
v -2.2606751249999997 -0.20054485 0.47549692
v -2.2482804649999997 -0.19828182 0.35881027
v -2.260550955 -0.20051545 0.45880928
v -2.248245035 -0.19814464 0.45880928
v -2.248245035 -0.19816424 0.44214984
v -2.231843015 -0.29790449 0.47103653
v -2.214908995 -0.28148521 0.50255446
v -2.1834791449999997 -0.21113505999999999 0.35881027
v -2.183470325 -0.2110861 0.37546977
v -2.183390525 -0.2110861 0.49215636
v -2.181705955 -0.22776988 0.49215636
v -2.181732555 -0.24443408 0.47549692
v -2.181759155 -0.24443408 0.49215636
v -2.181785755 -0.24443408 0.50255446
v -2.181865555 -0.26109827 0.47549692
v -2.1844898849999996 -0.2693471 0.50255446
v -2.186023685 -0.27434342 0.50255446
v -2.208472325 -0.29790449 0.44213577
v -2.256038195 -0.19969251 0.50255446
v -2.248245035 -0.19816424 0.47549692
v -2.231568135 -0.19788013 0.40881684
v -2.231568135 -0.19793891000000002 0.3921292
v -2.231612505 -0.19811527 0.35881027
v -2.231568135 -0.19793891000000002 0.49215636
v -2.231568135 -0.19788995 0.42547628
v -2.220627525 -0.29790449 0.46931993
v -2.198232145 -0.28035859 0.50255446
v -2.1876107449999997 -0.20087792 0.35881027
v -2.1876018549999996 -0.20082895 0.37546977
v -2.187530945 -0.20076036000000003 0.44214984
v -2.1874954549999996 -0.20073099 0.49215636
v -2.187504345 -0.20073099 0.50255446
v -2.183408235 -0.2110861 0.50255446
v -2.181732555 -0.22776988 0.50255446
v -2.181759155 -0.2381348 0.50255446
v -2.181909925 -0.25480878 0.50255446
v -2.1819897249999998 -0.26109827 0.50255446
v -2.212541775 -0.29790449 0.45800728
v -2.248245035 -0.1982426 0.50255446
v -2.248245035 -0.19820342000000002 0.49215636
v -2.231568135 -0.1979585 0.50255446
v -2.214908995 -0.19782136 0.44214984
v -2.214908995 -0.19783117 0.42547628
v -2.214908995 -0.19786054 0.40881684
v -2.214908995 -0.19789973 0.3921292
v -2.214953365 -0.19803687 0.35881027
v -2.214908995 -0.19787035 0.50255446
v -2.214908995 -0.19786054 0.49215636
v -2.214908995 -0.19783117 0.45880928
v -2.198276455 -0.19846793000000001 0.35881027
v -2.198232145 -0.19841896 0.37546977
v -2.198232145 -0.19833078 0.42547628
v -2.198232145 -0.19830138 0.44214984
v -2.198232145 -0.19827201 0.49215636
v -2.194171525 -0.19921249000000002 0.50255446
v -2.214908995 -0.19796831 0.37546977
v -2.2086053249999997 -0.19801728000000002 0.50255446
v -2.198232145 -0.1982916 0.50255446
f 1 2 7
f 1 7 11
f 1 11 21
f 1 21 20
f 1 20 39
f 1 39 56
f 1 56 78
f 1 78 98
f 1 98 86
f 1 86 66
f 1 66 46
f 1 46 26
f 1 26 16
f 1 16 8
f 1 8 3
f 1 3 4
f 1 4 5
f 1 5 6
f 1 6 2
f 2 6 7
f 3 8 4
f 4 8 9
f 4 9 15
f 4 15 14
f 4 14 13
f 4 13 25
f 4 25 45
f 4 45 62
f 4 62 83
f 4 83 106
f 4 106 110
f 4 110 88
f 4 88 68
f 4 68 52
f 4 52 34
f 4 34 17
f 4 17 10
f 4 10 6
f 4 6 5
f 6 10 7
f 7 10 11
f 8 12 13
f 8 13 14
f 8 14 15
f 8 15 9
f 8 16 33
f 8 33 22
f 8 22 12
f 10 17 18
f 10 18 19
f 10 19 20
f 10 20 21
f 10 21 11
f 12 22 23
f 12 23 13
f 13 23 24
f 13 24 25
f 16 26 27
f 16 27 28
f 16 28 29
f 16 29 30
f 16 30 31
f 16 31 32
f 16 32 33
f 17 34 35
f 17 35 36
f 17 36 19
f 17 19 18
f 19 37 38
f 19 38 20
f 19 36 37
f 20 38 37
f 20 37 39
f 22 40 41
f 22 41 42
f 22 42 24
f 22 24 23
f 22 33 43
f 22 43 40
f 24 42 25
f 25 42 41
f 25 41 40
f 25 40 44
f 25 44 45
f 26 46 47
f 26 47 48
f 26 48 27
f 27 48 47
f 27 47 67
f 27 67 87
f 27 87 77
f 27 77 76
f 27 76 97
f 27 97 96
f 27 96 74
f 27 74 95
f 27 95 94
f 27 94 93
f 27 93 92
f 27 92 115
f 27 115 118
f 27 118 117
f 27 117 107
f 27 107 101
f 27 101 99
f 27 99 79
f 27 79 59
f 27 59 58
f 27 58 57
f 27 57 49
f 27 49 29
f 27 29 28
f 29 49 31
f 29 31 30
f 31 49 32
f 32 49 50
f 32 50 33
f 33 51 43
f 33 50 51
f 34 52 53
f 34 53 36
f 34 36 35
f 36 53 54
f 36 54 37
f 37 54 55
f 37 55 39
f 39 55 56
f 40 43 44
f 43 51 49
f 43 49 57
f 43 57 58
f 43 58 44
f 44 58 59
f 44 59 60
f 44 60 61
f 44 61 45
f 45 61 63
f 45 63 64
f 45 64 65
f 45 65 62
f 46 66 47
f 47 66 67
f 49 51 50
f 52 68 69
f 52 69 70
f 52 70 71
f 52 71 72
f 52 72 53
f 53 72 54
f 54 72 73
f 54 73 74
f 54 74 75
f 54 75 76
f 54 76 55
f 55 76 77
f 55 77 56
f 56 77 78
f 59 79 80
f 59 80 60
f 60 80 64
f 60 64 61
f 61 64 63
f 62 81 82
f 62 82 83
f 62 65 81
f 64 80 84
f 64 84 85
f 64 85 81
f 64 81 65
f 66 86 87
f 66 87 67
f 68 88 89
f 68 89 69
f 69 89 90
f 69 90 91
f 69 91 70
f 70 91 92
f 70 92 93
f 70 93 71
f 71 93 94
f 71 94 95
f 71 95 73
f 71 73 72
f 73 95 74
f 74 96 75
f 75 96 97
f 75 97 76
f 77 87 98
f 77 98 78
f 79 99 100
f 79 100 80
f 80 100 101
f 80 101 84
f 81 85 109
f 81 109 102
f 81 102 103
f 81 103 104
f 81 104 105
f 81 105 82
f 82 105 106
f 82 106 83
f 84 101 107
f 84 107 108
f 84 108 109
f 84 109 85
f 86 98 87
f 88 110 111
f 88 111 89
f 89 111 112
f 89 112 113
f 89 113 90
f 90 113 91
f 91 114 92
f 91 113 114
f 92 114 115
f 99 101 100
f 102 109 114
f 102 114 103
f 103 112 111
f 103 111 104
f 103 114 113
f 103 113 112
f 104 111 105
f 105 111 110
f 105 110 116
f 105 116 106
f 106 116 110
f 107 117 108
f 108 117 109
f 109 117 114
f 114 117 118
f 114 118 115

