# https://github.com/mikedh/trimesh
v -3.78922884 1.94271844 0.43685709
v -3.78964846 2.04479332 0.43682770
v -3.78922884 2.01480245 0.43682770
v -3.78881750 1.94271844 0.43685709
v -3.80255738 1.94271844 0.47022570
v -3.74692315 2.04479332 0.43682770
v -3.80265608 1.97236953 0.47022570
v -3.80269727 1.98902890 0.47022570
v -3.80262318 2.00568826 0.47022570
v -3.80198970 2.04479332 0.47022570
v -3.74902942 2.01480245 0.43682770
v -3.74930914 1.94274843 0.43685709
v -3.74930914 1.94271844 0.43688647
v -3.80292759 1.94271844 0.47389905
v -3.80480348 2.04479332 0.48688802
v -3.74873324 2.01483243 0.43682770
v -3.72075156 2.04479332 0.51214590
v -3.72075156 2.01480245 0.51199897
v -3.73809510 1.94271844 0.47364930
v -3.80421935 1.94271844 0.48688802
v -3.80416994 1.94271844 0.49057602
v -3.80404655 1.95571016 0.50355030
v -3.80425225 2.04479332 0.52018317
v -3.72075156 2.04479332 0.57096345
v -3.72075156 2.01480245 0.56927374
v -3.72953026 1.94271844 0.50309480
v -3.80395607 1.94271844 0.50355030
v -3.80366806 1.94271844 0.52019786
v -3.80372570 2.04479332 0.52597238
v -3.74729342 2.04479332 0.58687638
v -3.74971225 1.94271844 0.58693515
v -3.72953026 1.94271844 0.56897986
v -3.80324027 1.94271844 0.52387121
v -3.80250803 2.04479332 0.53686015
v -3.79203445 2.04479332 0.58687638
v -3.78911368 2.01479245 0.58693515
v -3.74922689 2.01476247 0.58693515
v -3.74928447 2.00561831 0.58693515
v -3.75041983 1.94271844 0.58693515
v -3.80164411 1.94271844 0.53686015
v -3.80176755 1.95571016 0.53686015
v -3.80171820 2.04479332 0.54261997
v -3.79419824 2.04479332 0.57748732
v -3.78945099 1.94276842 0.58693515
v -3.78946744 2.01479245 0.58693515
v -3.78945099 1.94271844 0.58686169
f 1 2 3
f 1 3 11
f 1 11 4
f 1 4 13
f 1 13 19
f 1 19 26
f 1 26 32
f 1 32 31
f 1 31 39
f 1 39 46
f 1 46 40
f 1 40 33
f 1 33 28
f 1 28 27
f 1 27 21
f 1 21 20
f 1 20 14
f 1 14 5
f 1 5 2
f 2 6 16
f 2 16 11
f 2 11 3
f 2 5 7
f 2 7 8
f 2 8 9
f 2 9 10
f 2 10 15
f 2 15 23
f 2 23 29
f 2 29 34
f 2 34 42
f 2 42 43
f 2 43 35
f 2 35 30
f 2 30 24
f 2 24 17
f 2 17 6
f 4 12 13
f 4 11 12
f 5 14 15
f 5 15 7
f 6 12 16
f 6 17 18
f 6 18 12
f 7 15 8
f 8 15 9
f 9 15 10
f 11 16 12
f 12 18 19
f 12 19 13
f 14 20 15
f 15 20 21
f 15 21 22
f 15 22 23
f 17 24 25
f 17 25 18
f 18 25 32
f 18 32 26
f 18 26 19
f 21 27 22
f 22 27 28
f 22 28 23
f 23 28 29
f 24 30 31
f 24 31 25
f 25 31 32
f 28 33 34
f 28 34 29
f 30 35 45
f 30 45 36
f 30 36 37
f 30 37 38
f 30 38 31
f 31 38 37
f 31 37 36
f 31 36 45
f 31 45 44
f 31 44 39
f 33 40 41
f 33 41 34
f 34 41 42
f 35 43 40
f 35 40 44
f 35 44 45
f 39 44 46
f 40 42 41
f 40 46 44
f 40 43 42

