# https://github.com/mikedh/trimesh
v 2.29233281 1.46974307 0.45048609
v 2.28928520 1.46976099 0.45048609
v 2.30595186 1.47395605 0.45048609
v 2.30873113 1.47643375 0.58683185
v 2.29233281 1.47219395 0.58683185
v 2.27566614 1.46985042 0.45048609
v 2.30900817 1.47491316 0.45048609
v 2.31701684 1.48902795 0.58683185
v 2.31736314 1.48065567 0.49986738
v 2.27566614 1.47233706 0.58683185
v 2.25900806 1.47099535 0.45354240
v 2.25900806 1.47095061 0.45048609
v 2.25900806 1.47305265 0.58683185
v 2.31594323 1.47935869 0.45048609
v 2.31746709 1.48046782 0.47021193
v 2.31722462 1.48902795 0.53686333
v 2.31698221 1.50569203 0.58683185
v 2.31736314 1.48232834 0.49986738
v 2.22906865 1.48118341 0.52019380
v 2.24689552 1.47631746 0.45048609
v 2.22906865 1.48100451 0.50369779
v 2.22906865 1.48098663 0.50065483
v 2.22906865 1.48098663 0.50040124
v 2.24723319 1.47717616 0.58683185
v 2.22906865 1.48132652 0.52610621
v 2.31751037 1.48038733 0.45048609
v 2.31750167 1.48039627 0.45354240
v 2.31746709 1.48652344 0.47021193
v 2.31624626 1.52235607 0.58683185
v 2.31751037 1.48785621 0.45048609
v 2.31731123 1.49619270 0.45048609
v 2.31698221 1.50569203 0.45048609
v 2.22906865 1.48636241 0.48961745
v 2.22906865 1.48785621 0.48849633
v 2.24421151 1.48669337 0.45048609
v 2.24417688 1.48900113 0.58683185
v 2.22906865 1.49314255 0.56550448
v 2.22906865 1.48753419 0.55736323
v 2.22906865 1.48596884 0.55353285
v 2.22906865 1.48256986 0.54185484
v 2.22906865 1.48177377 0.53686333
v 2.31022030 1.56111366 0.51477519
v 2.31003845 1.56111366 0.52019380
v 2.30855792 1.56111366 0.53143136
v 2.30775277 1.56111366 0.53686333
v 2.29544968 1.56111366 0.58683185
v 2.31676572 1.50874217 0.45048609
v 2.31579606 1.52235607 0.45048609
v 2.31107743 1.56111366 0.48688145
v 2.22906865 1.50058458 0.48259728
v 2.24363143 1.48902795 0.45048609
v 2.24557080 1.50566517 0.58683185
v 2.22906865 1.56111366 0.56777335
v 2.22906865 1.52238292 0.56881436
v 2.22906865 1.50569203 0.56860082
v 2.25777000 1.56111366 0.58683185
v 2.29770078 1.56111366 0.45048609
v 2.30292160 1.56111366 0.45884088
v 2.30656657 1.56111366 0.46639487
v 2.30827223 1.56111366 0.47021193
v 2.31031549 1.56111366 0.48144952
v 2.22906865 1.50569203 0.48162297
v 2.24558815 1.50569203 0.45048609
v 2.22906865 1.52235607 0.48361158
v 2.25749290 1.56110470 0.58683185
v 2.22906865 1.56111366 0.50328404
v 2.25546692 1.56111366 0.45048609
v 2.22906865 1.53755320 0.48955069
f 1 2 6
f 1 6 12
f 1 12 20
f 1 20 35
f 1 35 51
f 1 51 63
f 1 63 67
f 1 67 57
f 1 57 48
f 1 48 47
f 1 47 32
f 1 32 31
f 1 31 30
f 1 30 26
f 1 26 14
f 1 14 7
f 1 7 3
f 1 3 4
f 1 4 5
f 1 5 2
f 2 5 6
f 3 7 4
f 4 8 17
f 4 17 29
f 4 29 46
f 4 46 56
f 4 56 65
f 4 65 52
f 4 52 36
f 4 36 24
f 4 24 13
f 4 13 10
f 4 10 5
f 4 7 9
f 4 9 8
f 5 10 6
f 6 11 12
f 6 10 13
f 6 13 11
f 7 14 15
f 7 15 9
f 8 16 17
f 8 9 16
f 9 15 28
f 9 28 18
f 9 18 16
f 11 13 19
f 11 19 12
f 12 19 21
f 12 21 22
f 12 22 23
f 12 23 20
f 13 24 25
f 13 25 19
f 14 26 27
f 14 27 15
f 15 27 26
f 15 26 30
f 15 30 28
f 16 18 28
f 16 28 17
f 17 28 30
f 17 30 31
f 17 31 32
f 17 32 29
f 19 25 41
f 19 41 40
f 19 40 39
f 19 39 38
f 19 38 37
f 19 37 55
f 19 55 54
f 19 54 53
f 19 53 66
f 19 66 68
f 19 68 64
f 19 64 62
f 19 62 50
f 19 50 34
f 19 34 33
f 19 33 23
f 19 23 22
f 19 22 21
f 20 33 34
f 20 34 35
f 20 23 33
f 24 36 37
f 24 37 38
f 24 38 39
f 24 39 40
f 24 40 41
f 24 41 25
f 29 42 43
f 29 43 44
f 29 44 45
f 29 45 46
f 29 32 47
f 29 47 48
f 29 48 49
f 29 49 42
f 34 50 51
f 34 51 35
f 36 52 53
f 36 53 54
f 36 54 55
f 36 55 37
f 42 49 61
f 42 61 60
f 42 60 59
f 42 59 58
f 42 58 57
f 42 57 67
f 42 67 66
f 42 66 53
f 42 53 56
f 42 56 46
f 42 46 45
f 42 45 44
f 42 44 43
f 48 57 58
f 48 58 59
f 48 59 60
f 48 60 61
f 48 61 49
f 50 62 51
f 51 62 64
f 51 64 63
f 52 65 53
f 53 65 56
f 63 64 67
f 64 68 67
f 66 67 68

