# https://github.com/mikedh/trimesh
v 1.83496757 1.57222210 0.89867214
v 1.88452029 1.57222210 0.89859358
v 1.83496757 1.57222210 0.82268167
v 1.83496757 1.56497519 0.89864596
v 1.88452029 1.56453545 0.89856739
v 1.88452029 1.57222210 0.83838607
v 1.88452029 1.53161650 0.81151662
v 1.83496757 1.53740347 0.81234592
v 1.83496757 1.55568788 0.89860231
v 1.88452029 1.55568788 0.89853247
v 1.88452029 1.52235559 0.81063493
v 1.83496757 1.52858230 0.81105395
v 1.83496757 1.53401748 0.81159518
v 1.83496757 1.55406084 0.89859358
v 1.88452029 1.55406084 0.89852374
v 1.85901150 1.52235559 0.81058256
v 1.88452029 1.50569822 0.80962231
v 1.87566326 1.50569822 0.80955247
v 1.83496757 1.51307707 0.80996276
v 1.83496757 1.53901293 0.89846263
v 1.88452029 1.54786050 0.89847137
v 1.88452029 1.49933958 0.81007625
v 1.83496757 1.50569822 0.80950011
v 1.88452029 1.49371971 0.81050399
v 1.87566326 1.49372850 0.81046908
v 1.83496757 1.49901417 0.80999769
v 1.83496757 1.52235559 0.89818329
v 1.87566326 1.52235559 0.89820075
v 1.88452029 1.52235559 0.89820075
v 1.88452029 1.53119435 0.89830551
v 1.88452029 1.53901293 0.89839280
v 1.88452029 1.48970927 0.81564568
v 1.83496757 1.49368451 0.81043415
v 1.84234519 1.49370213 0.81043415
v 1.83496757 1.51498554 0.89798251
v 1.83496757 1.50569822 0.89770317
v 1.88452029 1.50569822 0.89761588
v 1.88452029 1.48616497 0.82021995
v 1.87566326 1.48615618 0.82021995
v 1.83496757 1.48952458 0.81588137
v 1.83496757 1.50124805 0.89708337
v 1.83496757 1.49569854 0.89628898
v 1.88452029 1.49581286 0.89615804
v 1.88452029 1.48239200 0.83687587
v 1.87566326 1.48237441 0.83687587
v 1.83496757 1.48621775 0.82021995
v 1.83496757 1.48911122 0.88686110
v 1.88452029 1.48919917 0.88686110
v 1.88452029 1.49270830 0.89182820
v 1.88452029 1.48255031 0.84573634
v 1.85901150 1.48270862 0.85354926
v 1.84234519 1.48274379 0.85354926
v 1.83496757 1.48276137 0.85354926
v 1.85901150 1.48241840 0.83687587
v 1.83496757 1.48412457 0.82950816
v 1.88452029 1.48650797 0.87904818
v 1.83496757 1.48356172 0.87019645
v 1.85901150 1.48353531 0.87019645
v 1.88452029 1.48350894 0.87019645
v 1.88452029 1.48270862 0.85354926
v 1.88452029 1.48313077 0.86237480
v 1.83496757 1.48249753 0.83687587
f 1 2 6
f 1 6 3
f 1 3 8
f 1 8 13
f 1 13 12
f 1 12 19
f 1 19 23
f 1 23 26
f 1 26 33
f 1 33 40
f 1 40 46
f 1 46 55
f 1 55 62
f 1 62 53
f 1 53 57
f 1 57 47
f 1 47 42
f 1 42 41
f 1 41 36
f 1 36 35
f 1 35 27
f 1 27 20
f 1 20 14
f 1 14 9
f 1 9 4
f 1 4 5
f 1 5 2
f 2 5 10
f 2 10 15
f 2 15 21
f 2 21 31
f 2 31 30
f 2 30 29
f 2 29 37
f 2 37 43
f 2 43 49
f 2 49 48
f 2 48 56
f 2 56 59
f 2 59 61
f 2 61 60
f 2 60 50
f 2 50 44
f 2 44 38
f 2 38 32
f 2 32 24
f 2 24 22
f 2 22 17
f 2 17 11
f 2 11 7
f 2 7 6
f 3 6 7
f 3 7 8
f 4 9 10
f 4 10 5
f 7 11 12
f 7 12 13
f 7 13 8
f 9 14 15
f 9 15 10
f 11 16 12
f 11 17 18
f 11 18 16
f 12 16 19
f 14 20 21
f 14 21 15
f 16 18 19
f 17 22 18
f 18 23 19
f 18 22 24
f 18 24 25
f 18 25 26
f 18 26 23
f 20 27 28
f 20 28 29
f 20 29 30
f 20 30 31
f 20 31 21
f 24 32 25
f 25 32 33
f 25 33 34
f 25 34 26
f 26 34 33
f 27 35 28
f 28 35 29
f 29 35 36
f 29 36 37
f 32 38 33
f 33 38 39
f 33 39 40
f 36 41 37
f 37 41 42
f 37 42 43
f 38 44 45
f 38 45 39
f 39 46 40
f 39 45 46
f 42 47 48
f 42 48 49
f 42 49 43
f 44 50 45
f 45 50 51
f 45 51 52
f 45 52 53
f 45 53 54
f 45 54 55
f 45 55 46
f 47 56 48
f 47 57 58
f 47 58 59
f 47 59 56
f 50 60 51
f 51 60 61
f 51 61 59
f 51 59 58
f 51 58 57
f 51 57 52
f 52 57 53
f 53 62 54
f 54 62 55

