# https://github.com/mikedh/trimesh
v -3.74447529 2.05403190 1.60763613
v -3.74447529 2.05376773 1.60763613
v -3.79808103 2.05403190 1.60763613
v -3.75131569 2.05403190 1.73634981
v -3.74453352 2.03695267 1.60763613
v -3.75131569 2.03695267 1.73634981
v -3.79852581 2.05403190 1.70315083
v -3.78941940 2.03695267 1.60763613
v -3.79855758 2.05403190 1.73634981
v -3.78915469 2.03695267 1.73634981
v -3.79854697 2.05403190 1.71981964
f 1 2 5
f 1 5 8
f 1 8 3
f 1 3 7
f 1 7 11
f 1 11 9
f 1 9 4
f 1 4 6
f 1 6 2
f 2 6 5
f 3 8 7
f 4 9 10
f 4 10 6
f 5 6 10
f 5 10 8
f 7 8 11
f 8 10 9
f 8 9 11

