# https://github.com/mikedh/trimesh
v 0.34387136 2.03910799 1.60767035
v 0.33406983 2.03910799 1.60767035
v 0.37915109 2.03900750 1.60767035
v 0.37927913 2.03910799 1.60731540
v 0.32241191 2.03910799 1.57030211
v 0.33500873 1.85572338 1.60767035
v 0.37923645 2.02194331 1.60767035
v 0.39505541 1.92237215 1.60252333
v 0.39505541 1.95567644 1.60245878
v 0.39505541 1.97507211 1.60236198
v 0.39505541 2.03900750 1.60203928
v 0.39231697 2.03910799 1.60216838
v 0.32239057 2.03910799 1.57018916
v 0.32436791 1.83377511 1.57018916
v 0.33513676 1.83377511 1.60767035
v 0.37943559 1.97233863 1.60767035
v 0.39505541 1.88904776 1.60255564
v 0.39505541 2.03910799 1.59535951
v 0.32241191 2.03910799 1.53687079
v 0.32393404 1.83377511 1.53687079
v 0.32406207 1.83377511 1.54824583
v 0.32428971 1.83377511 1.56491310
v 0.37913685 1.83377511 1.60767035
v 0.37944983 1.95567644 1.60767035
v 0.37944983 1.95553574 1.60767035
v 0.37938582 1.87220468 1.60767035
v 0.39505541 1.87238557 1.60253948
v 0.39285044 2.03910799 1.55290880
v 0.39505541 2.03900750 1.55408660
v 0.33485936 2.03910799 1.44283704
v 0.33595479 1.83377511 1.44283704
v 0.39505541 1.83377511 1.60228133
v 0.39505541 1.85572338 1.60244269
v 0.37932890 1.85572338 1.60767035
v 0.37451352 2.03910799 1.44283704
v 0.39505541 2.02037558 1.55357030
v 0.37491180 2.01637586 1.44283704
v 0.37487627 2.02234530 1.44283704
v 0.37449218 1.83377511 1.44283704
v 0.39505541 1.83377511 1.55008519
v 0.37496163 2.00566301 1.44283704
v 0.39505541 1.88904776 1.55087579
v 0.39505541 1.83395601 1.55008519
f 1 2 6
f 1 6 15
f 1 15 23
f 1 23 34
f 1 34 26
f 1 26 25
f 1 25 24
f 1 24 16
f 1 16 7
f 1 7 3
f 1 3 4
f 1 4 12
f 1 12 18
f 1 18 28
f 1 28 35
f 1 35 30
f 1 30 19
f 1 19 13
f 1 13 5
f 1 5 2
f 2 5 6
f 3 7 8
f 3 8 9
f 3 9 10
f 3 10 11
f 3 11 4
f 4 11 12
f 5 13 14
f 5 14 15
f 5 15 6
f 7 16 8
f 8 17 27
f 8 27 33
f 8 33 32
f 8 32 40
f 8 40 43
f 8 43 42
f 8 42 36
f 8 36 29
f 8 29 18
f 8 18 11
f 8 11 10
f 8 10 9
f 8 16 17
f 11 18 12
f 13 19 20
f 13 20 21
f 13 21 22
f 13 22 14
f 14 22 21
f 14 21 20
f 14 20 31
f 14 31 39
f 14 39 40
f 14 40 32
f 14 32 23
f 14 23 15
f 16 24 17
f 17 24 25
f 17 25 26
f 17 26 27
f 18 29 28
f 19 30 31
f 19 31 20
f 23 32 33
f 23 33 27
f 23 27 34
f 26 34 27
f 28 29 35
f 29 36 37
f 29 37 38
f 29 38 35
f 30 35 38
f 30 38 37
f 30 37 41
f 30 41 39
f 30 39 31
f 36 41 37
f 36 42 41
f 39 41 40
f 40 41 43
f 41 42 43

