# https://github.com/mikedh/trimesh
v -3.68137594 2.13020620 1.97020961
v -3.69804820 2.12993852 1.93286378
v -3.71468864 2.12998465 1.93688427
v -3.71506976 2.13020620 1.97020961
v -3.68137594 2.12960619 1.98687580
v -3.51474899 2.12994773 1.97020270
v -3.47695862 2.12965232 1.93242557
v -3.71068735 2.12994773 1.93286378
v -3.66435444 2.12984619 1.93242557
v -3.71506976 2.12998465 1.93688427
v -3.71506976 2.12956926 1.98687580
v -3.69804820 2.12959695 1.98687580
v -3.66470373 2.12145492 1.99926413
v -3.66438621 2.12145492 1.99926413
v -3.59804661 2.12139952 1.99934066
v -3.49807678 2.12126105 1.99941719
v -3.66435444 2.12957847 1.98687580
v -3.49807678 2.12925538 1.98687580
v -3.49807678 2.12991080 1.97020270
v -3.46031813 2.12961540 1.93242557
v -3.71506976 2.12994773 1.93286378
v -3.66435444 2.05235843 1.93242557
v -3.71506976 2.12141799 1.99916673
v -3.69804820 2.12143644 1.99920846
v -3.68137594 2.12145492 1.99924326
v -3.59804661 2.10567858 2.00342373
v -3.51474899 2.10567858 2.00348631
v -3.48140451 2.10567858 2.00346545
v -3.48140451 2.12118720 1.99941719
v -3.39064409 2.12093796 1.99933375
v -3.44809180 2.12978158 1.97020270
v -3.46476407 2.12982774 1.97020270
v -3.39064409 2.12443664 1.99379685
v -3.39064409 2.12879383 1.98687580
v -3.39064409 2.12917229 1.97946086
v -3.39064409 2.12961540 1.97020270
v -3.39064409 2.12943077 1.93689118
v -3.44809180 2.12957847 1.93242557
v -3.71506976 2.05201689 1.93286378
v -3.71506976 2.03600053 1.93736421
v -3.64803152 2.05218304 1.93242557
v -3.71506976 2.10568782 2.00302724
v -3.68137594 2.10568782 2.00320116
v -3.66470373 2.10568782 2.00326375
v -3.64803152 2.10567858 2.00331942
v -3.61468704 2.10567858 2.00340287
v -3.63135931 2.08901603 2.00328461
v -3.59804661 2.08901603 2.00331942
v -3.58137440 2.08901603 2.00331942
v -3.39064409 2.08901603 2.00310377
v -3.46476407 2.10567858 2.00344459
v -3.39064409 2.10567858 2.00334720
v -3.39064409 2.12940308 1.93242557
v -3.71468864 2.03591746 1.93748944
v -3.71506976 2.03591746 1.93871361
v -3.63135931 2.05207226 1.93242557
v -3.39064409 2.03591746 1.93675206
v -3.71506976 2.08901603 2.00286034
v -3.66435444 2.08901603 2.00316635
v -3.64803152 2.08901603 2.00324289
v -3.64803152 2.07237195 2.00146916
v -3.59804661 2.07237195 2.00146916
v -3.39064409 2.07237195 2.00133004
v -3.39064409 2.05056756 1.93242557
v -3.71506976 2.03591746 1.99702440
v -3.39064409 2.03591746 1.99669050
v -3.71506976 2.08867449 2.00282553
v -3.71506976 2.07236271 2.00114920
v -3.66438621 2.07236271 2.00141349
v -3.69804820 2.03591746 1.99702440
v -3.59804661 2.03591746 1.99695479
v -3.48451667 2.03591746 1.99683653
f 1 2 3
f 1 3 10
f 1 10 4
f 1 4 5
f 1 5 6
f 1 6 7
f 1 7 2
f 2 8 3
f 2 7 9
f 2 9 8
f 3 8 21
f 3 21 10
f 4 10 21
f 4 21 39
f 4 39 40
f 4 40 55
f 4 55 65
f 4 65 68
f 4 68 67
f 4 67 58
f 4 58 42
f 4 42 23
f 4 23 11
f 4 11 12
f 4 12 5
f 5 12 13
f 5 13 14
f 5 14 15
f 5 15 16
f 5 16 17
f 5 17 6
f 6 17 18
f 6 18 19
f 6 19 7
f 7 19 20
f 7 20 38
f 7 38 53
f 7 53 64
f 7 64 56
f 7 56 41
f 7 41 22
f 7 22 9
f 8 9 21
f 9 22 39
f 9 39 21
f 11 23 24
f 11 24 25
f 11 25 12
f 12 25 13
f 13 25 26
f 13 26 15
f 13 15 14
f 15 26 27
f 15 27 16
f 16 28 29
f 16 29 30
f 16 30 18
f 16 18 17
f 16 27 28
f 18 31 32
f 18 32 19
f 18 30 33
f 18 33 34
f 18 34 35
f 18 35 36
f 18 36 31
f 19 32 20
f 20 32 31
f 20 31 36
f 20 36 37
f 20 37 38
f 22 40 39
f 22 41 40
f 23 42 43
f 23 43 44
f 23 44 45
f 23 45 24
f 24 45 46
f 24 46 25
f 25 46 26
f 26 46 47
f 26 47 48
f 26 48 27
f 27 48 49
f 27 49 28
f 28 50 51
f 28 51 29
f 28 49 50
f 29 51 52
f 29 52 30
f 30 52 50
f 30 50 63
f 30 63 66
f 30 66 57
f 30 57 64
f 30 64 53
f 30 53 37
f 30 37 36
f 30 36 35
f 30 35 34
f 30 34 33
f 37 53 38
f 40 54 55
f 40 41 56
f 40 56 57
f 40 57 54
f 42 58 59
f 42 59 43
f 43 59 60
f 43 60 44
f 44 60 45
f 45 60 47
f 45 47 46
f 47 60 61
f 47 61 48
f 48 61 62
f 48 62 49
f 49 62 63
f 49 63 50
f 50 52 51
f 54 57 66
f 54 66 72
f 54 72 71
f 54 71 70
f 54 70 65
f 54 65 55
f 56 64 57
f 58 67 59
f 59 67 68
f 59 68 69
f 59 69 60
f 60 69 61
f 61 69 65
f 61 65 70
f 61 70 62
f 62 70 63
f 63 70 71
f 63 71 72
f 63 72 66
f 65 69 68

