# https://github.com/mikedh/trimesh
v -3.34805003 1.57237831 1.99676500
v -3.34926991 1.57237831 1.99675857
v -3.33138224 1.57237831 1.99675857
v -3.34804622 2.03586285 1.99670111
v -3.34926991 2.03586285 1.99670111
v -3.34926991 1.57237831 1.93536273
v -3.31471825 1.57237831 1.99672030
v -3.31351757 2.03586285 1.99665640
v -3.33450095 2.03586285 1.99669467
v -3.34926991 2.03586285 1.93610362
v -3.33647275 1.80566341 1.93152434
v -3.33679110 1.57237831 1.93152434
v -3.33603543 2.03586285 1.93152434
v -3.31008431 1.57237831 1.99670754
v -3.31008431 2.03586285 1.99664365
v -3.31008431 1.57237831 1.93152434
v -3.31008431 2.03586285 1.93152434
f 1 2 6
f 1 6 12
f 1 12 16
f 1 16 14
f 1 14 7
f 1 7 3
f 1 3 4
f 1 4 5
f 1 5 2
f 2 5 10
f 2 10 6
f 3 7 8
f 3 8 9
f 3 9 4
f 4 9 8
f 4 8 15
f 4 15 17
f 4 17 13
f 4 13 10
f 4 10 5
f 6 11 12
f 6 10 13
f 6 13 11
f 7 14 8
f 8 14 15
f 11 13 17
f 11 17 16
f 11 16 12
f 14 16 17
f 14 17 15

