# https://github.com/mikedh/trimesh
v -1.72581888 1.79585548 0.20569854
v -1.72582580 1.80436332 0.20569854
v -1.65969705 1.79585548 0.20569854
v -1.72592296 1.79585548 0.24162465
v -1.72583277 1.83668818 0.20569854
v -1.65864222 2.04849393 0.20569854
v -1.65512373 1.79585548 0.74426046
v -1.72595771 1.79585548 0.25830765
v -1.72596462 2.04849393 0.24162465
v -1.72592296 2.04849393 0.22502432
v -1.72583277 1.83921085 0.20569854
v -1.72579111 2.04849393 0.20569854
v -1.65640762 2.04851864 0.70635218
v -1.65511681 2.04851864 0.74178279
v -1.65511681 2.01780137 0.75028946
v -1.65512373 1.79585548 0.86351877
v -1.72595073 1.79585548 0.27490798
v -1.72600628 2.04849393 0.30835648
v -1.72601320 2.04849393 0.28424054
v -1.72596462 1.83921085 0.25830765
v -1.72505552 2.04851864 0.70635218
v -1.72581197 2.04849393 0.20825876
v -1.65511681 2.04851864 0.86409689
v -1.65511681 2.01780137 0.86021521
v -1.65511681 2.04807348 0.86409689
v -1.65522786 2.04851864 0.95816558
v -1.65542909 2.04851864 1.04934369
v -1.65598431 1.79585548 1.04942627
v -1.72594382 1.79585548 0.28168026
v -1.72598542 2.04849393 0.32495681
v -1.72512490 2.04851864 0.79158387
v -1.72478485 2.04851864 1.04934369
v -1.65581080 2.01780137 1.04942627
v -1.65578999 2.01458621 1.04942627
v -1.65574833 2.00583103 1.04942627
v -1.65574142 1.99794150 1.04942627
v -1.65573444 1.98916160 1.04942627
v -1.65574833 1.97246742 1.04942627
v -1.72422969 1.79585548 1.04942627
v -1.72592296 1.79585548 0.29828065
v -1.72590913 1.79585548 0.30835648
v -1.72461832 1.79585548 0.91480645
v -1.72436845 1.79585548 1.00813186
v -1.72434765 1.79585548 1.01482155
v -1.72429216 1.79585548 1.03150450
v -1.72425747 1.79585548 1.04149774
v -1.72425049 1.80587197 1.04942627
v -1.72426438 1.81376152 1.04942627
v -1.72450036 1.95582272 1.04942627
v -1.72452116 1.97246742 1.04942627
v -1.72456277 2.01780137 1.04942627
f 1 2 5
f 1 5 11
f 1 11 12
f 1 12 6
f 1 6 3
f 1 3 7
f 1 7 16
f 1 16 28
f 1 28 39
f 1 39 46
f 1 46 45
f 1 45 44
f 1 44 43
f 1 43 42
f 1 42 41
f 1 41 40
f 1 40 29
f 1 29 17
f 1 17 8
f 1 8 4
f 1 4 2
f 2 4 5
f 3 6 7
f 4 8 9
f 4 9 10
f 4 10 5
f 5 10 11
f 6 12 21
f 6 21 13
f 6 13 14
f 6 14 7
f 7 14 15
f 7 15 24
f 7 24 16
f 8 17 18
f 8 18 19
f 8 19 20
f 8 20 9
f 9 20 19
f 9 19 21
f 9 21 10
f 10 22 11
f 10 21 22
f 11 22 12
f 12 22 21
f 13 21 31
f 13 31 32
f 13 32 27
f 13 27 26
f 13 26 23
f 13 23 14
f 14 23 25
f 14 25 24
f 14 24 15
f 16 24 25
f 16 25 26
f 16 26 27
f 16 27 28
f 17 29 18
f 18 29 40
f 18 40 30
f 18 30 31
f 18 31 19
f 19 31 21
f 23 26 25
f 27 32 51
f 27 51 33
f 27 33 34
f 27 34 35
f 27 35 36
f 27 36 37
f 27 37 38
f 27 38 28
f 28 38 37
f 28 37 36
f 28 36 35
f 28 35 34
f 28 34 33
f 28 33 51
f 28 51 50
f 28 50 49
f 28 49 48
f 28 48 47
f 28 47 39
f 30 40 41
f 30 41 32
f 30 32 31
f 32 42 43
f 32 43 44
f 32 44 45
f 32 45 46
f 32 46 39
f 32 39 47
f 32 47 48
f 32 48 49
f 32 49 50
f 32 50 51
f 32 41 42

