# https://github.com/mikedh/trimesh
v 1.35915185 2.05459118 0.82828987
v 1.35915185 2.03887173 0.83635291
v 1.35915185 2.05461583 0.90239770
v 1.37024299 2.05461583 0.82850028
v 1.77564062 2.05461583 0.83349740
v 1.77568139 2.05455882 0.83349740
v 1.77564062 2.03901814 0.83849454
v 1.35915185 2.03887173 0.89574738
v 1.56760012 2.03887173 0.83799107
v 1.35915185 2.05461583 0.90341215
v 1.77568139 2.05461583 0.90078960
v 1.77568139 2.03901814 0.83865985
v 1.49216403 2.03887173 0.89719016
v 1.56760012 2.03887173 0.89730288
v 1.49232714 2.05461583 0.90428383
v 1.77568139 2.05461583 0.90505030
v 1.77568139 2.03901814 0.88577566
v 1.50884151 2.03887173 0.89723525
v 1.75896314 2.03901814 0.89821965
v 1.55887399 2.03887173 0.89729536
v 1.77564062 2.03901814 0.89826473
v 1.75896314 2.05461583 0.90503528
v 1.77564062 2.05461583 0.90505030
v 1.77568139 2.03903046 0.89826473
f 1 2 8
f 1 8 10
f 1 10 3
f 1 3 4
f 1 4 5
f 1 5 6
f 1 6 7
f 1 7 2
f 2 7 9
f 2 9 14
f 2 14 20
f 2 20 18
f 2 18 13
f 2 13 8
f 3 10 15
f 3 15 22
f 3 22 23
f 3 23 16
f 3 16 11
f 3 11 5
f 3 5 4
f 5 11 6
f 6 11 16
f 6 16 24
f 6 24 17
f 6 17 12
f 6 12 7
f 7 12 9
f 8 13 10
f 9 12 17
f 9 17 14
f 10 13 15
f 13 18 21
f 13 21 19
f 13 19 15
f 14 17 21
f 14 21 20
f 15 19 22
f 16 23 21
f 16 21 24
f 17 24 21
f 18 20 21
f 19 21 22
f 21 23 22

