# https://github.com/mikedh/trimesh
v -3.0895504449999995 -0.43510238 1.47708902
v -3.0895504449999995 -0.43510238 1.4272504
v -3.1060854949999994 -0.43510238 1.47708902
v -3.098865975 -0.611295 1.47742257
v -3.0895504449999995 -0.611295 1.4774175
v -3.0895504449999995 -0.61014859 1.42583034
v -3.1488592950000003 -0.60892029 1.42583034
v -3.215620605 -0.43510238 1.42724029
v -3.1488592950000003 -0.43510238 1.47707387
v -3.1488592950000003 -0.611295 1.4774175
v -3.1488592950000003 -0.64465013 1.47743771
v -3.132168975 -0.661355 1.47744782
v -3.0895504449999995 -0.6279725700000001 1.47742761
v -3.0895504449999995 -0.61874668 1.47742257
v -3.0895504449999995 -0.71373511 1.42583034
v -3.523033065 -0.6144612899999999 1.4258253
v -3.565729255 -0.61440669 1.4258253
v -3.745363685 -0.6143521000000001 1.4258253
v -3.1512658250000003 -0.60892029 1.42583034
v -3.2322332849999995 -0.43510238 1.42724029
v -3.1655496249999997 -0.43510238 1.47705365
v -3.882612515 -0.43512968 1.47625518
v -3.882612515 -0.49463393 1.47630572
v -3.1488592950000003 -0.661355 1.47744278
v -3.882612515 -0.6780052599999999 1.47639668
v -3.1488592950000003 -0.67803256 1.47744278
v -3.132168975 -0.67803256 1.47744278
v -3.0895504449999995 -0.67803256 1.4774175
v -3.0895504449999995 -0.64465013 1.47742761
v -3.0895504449999995 -0.7137897 1.43532101
v -3.348987955 -0.71387159 1.42609819
v -3.332297615 -0.7138442899999999 1.42583034
v -3.882612515 -0.71362592 1.4258253
v -3.532348595 -0.71329837 1.4258253
v -3.523033065 -0.71327109 1.4258253
v -3.7490899549999996 -0.6143521000000001 1.4258253
v -3.882534915 -0.6150072 1.4258253
v -3.4084520549999997 -0.43510238 1.42731106
v -3.523033065 -0.43510238 1.4759924
v -3.882612515 -0.43512968 1.45525239
v -3.882612515 -0.69471013 1.47627539
v -3.182239955 -0.69471013 1.47726085
v -3.1655496249999997 -0.69471013 1.47727096
v -3.1488592950000003 -0.69471013 1.477276
v -3.115556295 -0.69471013 1.47727096
v -3.0895504449999995 -0.69471013 1.47726589
v -3.0895504449999995 -0.7138169999999999 1.44277
v -3.332297615 -0.71395347 1.44277
v -3.415671605 -0.71392617 1.44277
v -3.4159044749999996 -0.7138442899999999 1.42583034
v -3.882612515 -0.71370781 1.44274474
v -3.882612515 -0.62551597 1.4258253
v -3.882612515 -0.44457393 1.42767997
v -3.882534915 -0.43512968 1.42769008
v -3.415671605 -0.43510238 1.4273161
v -3.523033065 -0.43510238 1.4280337
v -3.882612515 -0.70756632 1.47193434
v -3.882534915 -0.70753902 1.47195456
v -3.182239955 -0.70800304 1.47246497
v -3.0895504449999995 -0.70066056 1.47511307
v -3.0895504449999995 -0.71343486 1.4594368
v -3.1989302849999994 -0.71343486 1.4594368
v -3.882534915 -0.71291624 1.4594368
v -3.882612515 -0.71291624 1.45941151
v -3.449052235 -0.43510238 1.42747781
v -3.4418327149999994 -0.43510238 1.42742727
v -3.4323619349999994 -0.43510238 1.42736157
v -3.425142385 -0.43510238 1.42733632
v -3.115556295 -0.70803034 1.47243971
v -3.0895504449999995 -0.70800304 1.47244475
v -3.0895504449999995 -0.71043235 1.46663312
f 1 2 8
f 1 8 20
f 1 20 38
f 1 38 55
f 1 55 68
f 1 68 67
f 1 67 66
f 1 66 65
f 1 65 56
f 1 56 39
f 1 39 21
f 1 21 9
f 1 9 3
f 1 3 4
f 1 4 5
f 1 5 14
f 1 14 13
f 1 13 29
f 1 29 28
f 1 28 46
f 1 46 60
f 1 60 70
f 1 70 71
f 1 71 61
f 1 61 47
f 1 47 30
f 1 30 15
f 1 15 6
f 1 6 2
f 2 6 7
f 2 7 8
f 3 9 10
f 3 10 4
f 4 10 11
f 4 11 12
f 4 12 13
f 4 13 14
f 4 14 5
f 6 15 35
f 6 35 16
f 6 16 7
f 7 16 17
f 7 17 18
f 7 18 36
f 7 36 19
f 7 19 20
f 7 20 8
f 9 21 22
f 9 22 10
f 10 22 23
f 10 23 11
f 11 24 12
f 11 23 25
f 11 25 24
f 12 24 26
f 12 26 27
f 12 27 28
f 12 28 29
f 12 29 13
f 15 30 31
f 15 31 32
f 15 32 33
f 15 33 34
f 15 34 35
f 16 35 34
f 16 34 33
f 16 33 52
f 16 52 37
f 16 37 36
f 16 36 18
f 16 18 17
f 19 36 37
f 19 37 20
f 20 37 38
f 21 39 22
f 22 39 56
f 22 56 40
f 22 40 53
f 22 53 52
f 22 52 33
f 22 33 51
f 22 51 64
f 22 64 57
f 22 57 41
f 22 41 25
f 22 25 23
f 24 25 26
f 25 41 26
f 26 42 43
f 26 43 44
f 26 44 27
f 26 41 42
f 27 45 46
f 27 46 28
f 27 44 45
f 30 47 48
f 30 48 31
f 31 48 49
f 31 49 50
f 31 50 32
f 32 50 33
f 33 50 51
f 37 52 53
f 37 53 54
f 37 54 55
f 37 55 38
f 40 56 54
f 40 54 53
f 41 57 58
f 41 58 42
f 42 59 43
f 42 58 59
f 43 59 44
f 44 59 60
f 44 60 45
f 45 60 46
f 47 61 48
f 48 61 62
f 48 62 49
f 49 62 51
f 49 51 50
f 51 62 63
f 51 63 64
f 54 56 65
f 54 65 66
f 54 66 67
f 54 67 68
f 54 68 55
f 57 64 63
f 57 63 59
f 57 59 58
f 59 62 69
f 59 69 70
f 59 70 60
f 59 63 62
f 61 71 69
f 61 69 62
f 69 71 70

