# https://github.com/mikedh/trimesh
v -2.183332315 -0.67805044 0.69229076
v -2.183500555 -0.71138141 0.69229076
v -2.183567835 -0.71138141 0.64229242
v -2.183635115 -0.71138141 0.62557007
v -2.183635115 -0.69470582 0.62560383
v -2.183410795 -0.67805044 0.67563589
v -2.1865735749999997 -0.66504571 0.69229076
v -2.183365945 -0.67805044 0.70896815
v -2.183545405 -0.7095106 0.74044481
v -2.183489345 -0.71138141 0.70896815
v -2.184061305 -0.72805701 0.69229076
v -2.1841173749999996 -0.72805701 0.65895854
v -2.1841622849999998 -0.72805701 0.64229242
v -2.1836463249999998 -0.69470582 0.62557007
v -2.184251985 -0.72805701 0.62557007
v -2.1837809349999997 -0.67805044 0.62557007
v -2.183635115 -0.67805044 0.64229242
v -2.1835229849999997 -0.67805044 0.65895854
v -2.186640915 -0.6651266 0.67563589
v -2.1867866749999996 -0.6654299800000001 0.64229242
v -2.211774845 -0.64092726 0.67563589
v -2.211741205 -0.64092726 0.6885347
v -2.211752415 -0.64092726 0.69229076
v -2.186618425 -0.66509627 0.70896815
v -2.186730615 -0.66522773 0.74044481
v -2.183511775 -0.67805044 0.74044481
v -2.183511775 -0.69470582 0.74044481
v -2.1835566249999996 -0.71138141 0.74044481
v -2.1835229849999997 -0.71138141 0.7256455
v -2.184094945 -0.72805701 0.7256455
v -2.1840725149999995 -0.72805701 0.70896815
v -2.1872689349999996 -0.73920105 0.70896815
v -2.1872689349999996 -0.73922127 0.69229076
v -2.1872689349999996 -0.73921116 0.67563589
v -2.187291365 -0.73917072 0.65895854
v -2.187336275 -0.73912015 0.64229242
v -2.187392335 -0.73903924 0.62557007
v -2.186910075 -0.66558167 0.62557007
v -2.186719405 -0.66526817 0.65895854
v -2.213973105 -0.64092726 0.65895854
v -2.211931875 -0.64092726 0.70896815
v -2.198237755 -0.65932199 0.74044481
v -2.217662995 -0.64092726 0.72318271
v -2.184061305 -0.72618621 0.74044481
v -2.184128585 -0.72805701 0.74044481
v -2.186943715 -0.7379167600000001 0.74044481
v -2.187302575 -0.73917072 0.74044481
v -2.198237755 -0.74317528 0.69229076
v -2.198237755 -0.7431651699999999 0.67563589
v -2.198237755 -0.74311459 0.65895854
v -2.198237755 -0.74305394 0.64229242
v -2.198237755 -0.74296293 0.62557007
v -2.198237755 -0.65976694 0.62557007
v -2.219670575 -0.64092726 0.64769035
v -2.2284747749999996 -0.64092726 0.72792837
v -2.231592645 -0.64092726 0.72928911
v -2.2148367049999997 -0.6575725299999999 0.74044481
v -2.198237755 -0.74308427 0.74044481
v -2.198237755 -0.74314495 0.70896815
v -2.2149151949999997 -0.7442371 0.69229076
v -2.2149151949999997 -0.7442371 0.67563589
v -2.2149151949999997 -0.74414609 0.62557007
v -2.2149151949999997 -0.65800736 0.62557007
v -2.231592645 -0.64092726 0.64485643
v -2.244490495 -0.64092726 0.72925536
v -2.231592645 -0.65762309 0.74044481
v -2.2149151949999997 -0.74409552 0.74044481
v -2.2149151949999997 -0.74419667 0.70896815
v -2.231592645 -0.74403486 0.69229076
v -2.231592645 -0.74405508 0.67563589
v -2.231592645 -0.74405508 0.62557007
v -2.231592645 -0.65893772 0.62557007
v -2.2353386549999996 -0.64092726 0.64503637
v -2.2482477249999997 -0.64092726 0.72922163
v -2.246071885 -0.66352882 0.74044481
v -2.2979099849999995 -0.6409373700000001 0.72877181
v -2.2167769649999998 -0.7440753 0.74044481
v -2.231592645 -0.7438730499999999 0.74044481
v -2.2482477249999997 -0.74361012 0.74044481
v -2.2482477249999997 -0.7438629400000001 0.62560383
v -2.2482477249999997 -0.7438629400000001 0.62557007
v -2.2442549749999996 -0.66484345 0.62557007
v -2.2979099849999995 -0.64470936 0.6534594
v -2.2979099849999995 -0.6409373700000001 0.65625959
v -2.250827265 -0.64092726 0.64712808
v -2.2482477249999997 -0.64092726 0.64676821
v -2.282712955 -0.64092726 0.72877181
v -2.274234045 -0.68226738 0.74044481
v -2.2979099849999995 -0.67804033 0.73040244
v -2.280884825 -0.69433166 0.74044481
v -2.277385615 -0.68601913 0.74044481
v -2.2637251249999997 -0.73991904 0.74044481
v -2.2629287949999997 -0.74005052 0.62557007
v -2.261908215 -0.6829247 0.62557007
v -2.2979099849999995 -0.65484213 0.65072669
v -2.269960925 -0.69472605 0.62557007
v -2.282712955 -0.64092726 0.65517999
v -2.2712058749999997 -0.64092726 0.65175005
v -2.263455905 -0.64092726 0.64962461
v -2.2979099849999995 -0.69470582 0.73051489
v -2.2782267349999996 -0.7114421 0.74044481
v -2.2720694249999998 -0.73235485 0.74044481
v -2.2979099849999995 -0.71399045 0.70896815
v -2.271732985 -0.73388185 0.7256455
v -2.2979099849999995 -0.71395002 0.67563589
v -2.2979099849999995 -0.71016792 0.65895854
v -2.2979099849999995 -0.70472736 0.64950091
v -2.270824525 -0.7280772600000001 0.62557007
v -2.2979099849999995 -0.65502416 0.65070421
v -2.2725404649999996 -0.71140165 0.62557007
v -2.2725404649999996 -0.7314245100000001 0.74044481
v -2.2979099849999995 -0.70857013 0.72374497
v -2.2979099849999995 -0.71384888 0.70945169
v -2.2979099849999995 -0.69470582 0.64870247
v -2.2979099849999995 -0.66356927 0.65017567
v -2.2979099849999995 -0.67841449 0.64934346
f 1 2 3
f 1 3 4
f 1 4 5
f 1 5 6
f 1 6 7
f 1 7 8
f 1 8 9
f 1 9 10
f 1 10 2
f 2 10 11
f 2 11 3
f 3 12 13
f 3 13 4
f 3 11 12
f 4 14 5
f 4 13 15
f 4 15 37
f 4 37 52
f 4 52 62
f 4 62 71
f 4 71 81
f 4 81 93
f 4 93 108
f 4 108 110
f 4 110 96
f 4 96 94
f 4 94 82
f 4 82 72
f 4 72 63
f 4 63 53
f 4 53 38
f 4 38 16
f 4 16 14
f 5 14 16
f 5 16 17
f 5 17 18
f 5 18 6
f 6 19 7
f 6 18 20
f 6 20 19
f 7 19 21
f 7 21 22
f 7 22 23
f 7 23 24
f 7 24 8
f 8 24 25
f 8 25 26
f 8 26 27
f 8 27 9
f 9 27 26
f 9 26 25
f 9 25 42
f 9 42 57
f 9 57 66
f 9 66 75
f 9 75 88
f 9 88 91
f 9 91 90
f 9 90 101
f 9 101 111
f 9 111 102
f 9 102 92
f 9 92 79
f 9 79 78
f 9 78 77
f 9 77 67
f 9 67 58
f 9 58 47
f 9 47 46
f 9 46 45
f 9 45 44
f 9 44 28
f 9 28 29
f 9 29 10
f 10 29 30
f 10 30 31
f 10 31 11
f 11 31 32
f 11 32 33
f 11 33 34
f 11 34 12
f 12 35 13
f 12 34 35
f 13 36 37
f 13 37 15
f 13 35 36
f 16 38 20
f 16 20 17
f 17 20 18
f 19 20 39
f 19 39 21
f 20 38 21
f 20 21 39
f 21 38 40
f 21 40 54
f 21 54 64
f 21 64 73
f 21 73 86
f 21 86 85
f 21 85 99
f 21 99 98
f 21 98 97
f 21 97 87
f 21 87 74
f 21 74 65
f 21 65 56
f 21 56 55
f 21 55 43
f 21 43 41
f 21 41 23
f 21 23 22
f 23 41 25
f 23 25 24
f 25 41 43
f 25 43 42
f 28 44 29
f 29 44 30
f 30 32 31
f 30 44 45
f 30 45 46
f 30 46 47
f 30 47 32
f 32 48 33
f 32 47 48
f 33 48 49
f 33 49 34
f 34 49 35
f 35 50 51
f 35 51 36
f 35 49 50
f 36 51 52
f 36 52 37
f 38 53 54
f 38 54 40
f 42 43 55
f 42 55 56
f 42 56 57
f 47 58 59
f 47 59 48
f 48 60 61
f 48 61 49
f 48 59 60
f 49 61 62
f 49 62 50
f 50 62 51
f 51 62 52
f 53 63 64
f 53 64 54
f 56 65 66
f 56 66 57
f 58 67 68
f 58 68 60
f 58 60 59
f 60 68 69
f 60 69 70
f 60 70 71
f 60 71 61
f 61 71 62
f 63 72 73
f 63 73 64
f 65 74 66
f 66 74 76
f 66 76 75
f 67 77 68
f 68 77 69
f 69 77 78
f 69 78 79
f 69 79 80
f 69 80 70
f 70 80 81
f 70 81 71
f 72 82 83
f 72 83 84
f 72 84 85
f 72 85 86
f 72 86 73
f 74 87 76
f 75 76 88
f 76 89 90
f 76 90 91
f 76 91 88
f 76 87 97
f 76 97 84
f 76 84 83
f 76 83 95
f 76 95 109
f 76 109 115
f 76 115 116
f 76 116 114
f 76 114 107
f 76 107 106
f 76 106 105
f 76 105 103
f 76 103 113
f 76 113 112
f 76 112 100
f 76 100 89
f 79 92 80
f 80 92 81
f 81 92 93
f 82 94 83
f 83 94 96
f 83 96 95
f 84 97 98
f 84 98 99
f 84 99 85
f 89 100 90
f 90 100 101
f 92 102 103
f 92 103 104
f 92 104 93
f 93 105 106
f 93 106 107
f 93 107 108
f 93 104 105
f 95 96 109
f 96 110 109
f 100 111 101
f 100 112 111
f 102 111 112
f 102 112 113
f 102 113 103
f 103 105 104
f 107 114 110
f 107 110 108
f 109 110 115
f 110 114 116
f 110 116 115

