# https://github.com/mikedh/trimesh
v -2.81580359 1.64411978 0.17916019
v -2.81580359 1.55569900 0.17949231
v -2.81580359 1.64411978 0.13457437
v -3.06468571 1.64411978 0.17925788
v -3.08137785 1.55569900 0.17965843
v -3.06468571 1.55467461 0.17965354
v -2.81580359 1.55467461 0.17949231
v -2.81580359 1.55467461 0.13346070
v -3.21617287 1.55467461 0.12989990
v -3.22996204 1.55467461 0.12977776
v -3.24800889 1.64411978 0.13238126
v -3.31008425 1.64411978 0.17915530
v -3.31008425 1.57699212 0.17944838
v -3.31008425 1.57236052 0.17946793
v -3.31008425 1.56033060 0.17949231
v -3.31008425 1.55569900 0.17949720
v -3.08239388 1.55467461 0.17965843
v -3.08137785 1.55467461 0.17965843
v -3.24568649 1.55467461 0.12976799
v -3.31008425 1.64411978 0.13211256
v -3.29803690 1.64411978 0.13216143
v -3.28134475 1.64411978 0.13222980
v -3.26470103 1.64411978 0.13230305
v -3.25313746 1.64411978 0.13235682
v -3.31008425 1.55467461 0.17949720
v -3.26470103 1.55467461 0.12976310
v -3.31008425 1.55467461 0.12988034
f 1 2 7
f 1 7 8
f 1 8 3
f 1 3 11
f 1 11 24
f 1 24 23
f 1 23 22
f 1 22 21
f 1 21 20
f 1 20 12
f 1 12 4
f 1 4 5
f 1 5 6
f 1 6 2
f 2 6 7
f 3 8 9
f 3 9 10
f 3 10 11
f 4 12 5
f 5 12 13
f 5 13 14
f 5 14 15
f 5 15 16
f 5 16 17
f 5 17 18
f 5 18 6
f 6 18 17
f 6 17 25
f 6 25 27
f 6 27 26
f 6 26 19
f 6 19 10
f 6 10 9
f 6 9 8
f 6 8 7
f 10 19 20
f 10 20 21
f 10 21 22
f 10 22 23
f 10 23 24
f 10 24 11
f 12 20 27
f 12 27 25
f 12 25 16
f 12 16 15
f 12 15 14
f 12 14 13
f 16 25 17
f 19 26 20
f 20 26 27

