# https://github.com/mikedh/trimesh
v -2.04823783 2.06635896 0.81446407
v -2.04808595 2.05115265 0.83554808
v -2.04823783 2.05115265 0.83555842
v -2.04823783 2.12669442 0.81446407
v -1.89309440 2.06298224 0.81446407
v -1.89309440 2.06149798 0.81594420
v -1.89309440 2.05115265 0.83267064
v -2.04823783 2.05115265 0.90426520
v -2.04823783 2.12692446 0.82020861
v -2.04228423 2.12671668 0.81446407
v -1.89309440 2.12656084 0.81446407
v -1.89309440 2.05115265 0.90506220
v -2.04823783 2.06264827 0.92020501
v -1.89309440 2.06054063 0.92020501
v -2.04823783 2.12692446 0.82040527
v -2.03136421 2.12696160 0.82020861
v -2.02562322 2.12675379 0.81446407
v -1.89309440 2.12687252 0.82020861
v -1.93138288 2.12671668 0.81446407
v -2.04823783 2.11479801 0.92020501
v -1.89309440 2.11556242 0.92020501
v -2.04823783 2.12659053 0.83687295
v -2.03136421 2.12663505 0.83687295
v -1.89309440 2.12669442 0.83687295
v -1.89309440 2.12676863 0.83191505
v -1.94804388 2.12694676 0.82020861
v -1.94230290 2.12674636 0.81446407
v -2.04823783 2.12565541 0.85354764
v -1.89309440 2.12578160 0.85354764
v -1.91470668 2.12580386 0.85354764
v -2.04823783 2.12658311 0.83706961
v -1.89309440 2.12606359 0.84857939
f 1 2 3
f 1 3 8
f 1 8 13
f 1 13 20
f 1 20 28
f 1 28 31
f 1 31 22
f 1 22 15
f 1 15 9
f 1 9 4
f 1 4 10
f 1 10 17
f 1 17 27
f 1 27 19
f 1 19 11
f 1 11 5
f 1 5 6
f 1 6 2
f 2 6 7
f 2 7 12
f 2 12 8
f 2 8 3
f 4 9 10
f 5 11 18
f 5 18 25
f 5 25 24
f 5 24 32
f 5 32 29
f 5 29 21
f 5 21 14
f 5 14 12
f 5 12 7
f 5 7 6
f 8 12 14
f 8 14 13
f 9 15 16
f 9 16 17
f 9 17 10
f 11 19 18
f 13 14 21
f 13 21 20
f 15 22 23
f 15 23 16
f 16 23 24
f 16 24 25
f 16 25 26
f 16 26 27
f 16 27 17
f 18 19 27
f 18 27 26
f 18 26 25
f 20 21 28
f 21 29 30
f 21 30 28
f 22 31 23
f 23 31 28
f 23 28 30
f 23 30 24
f 24 30 32
f 29 32 30

