# https://github.com/mikedh/trimesh
v -3.8891461649999997 -0.61131143 0.9020541
v -3.8891461649999997 -0.61131143 0.95204247
v -3.8891461649999997 -0.47790900999999997 0.90237805
v -3.887968605 -0.32785904 0.90136632
v -3.8258292549999995 -0.32785904 0.90263223
v -3.8258292549999995 -0.61131143 0.90370376
v -3.882582695 -0.61131143 0.95208234
v -3.8891461649999997 -0.46991818 0.9520026
v -3.8891461649999997 -0.47249855 0.90239798
v -3.887968605 -0.32785904 0.95180823
v -3.8891461649999997 -0.46991818 0.90240795
v -3.8258292549999995 -0.32785904 0.95202254
v -3.8258292549999995 -0.61131143 0.95227671
v -3.832572485 -0.61131143 0.95226177
v -3.887968605 -0.46403605000000003 0.95200758
v -3.887968605 -0.39991521 0.95194279
v -3.887968605 -0.39456024 0.95193283
v -3.8825888949999996 -0.32785904 0.95182817
v -3.8825888949999996 -0.39456024 0.95195774
v -3.8325662849999995 -0.32785904 0.9520026
v -3.8659043549999996 -0.39456024 0.95199761
v -3.8825888949999996 -0.46123371 0.95202254
v -3.8258292549999995 -0.50451736 0.95218202
f 1 2 8
f 1 8 11
f 1 11 9
f 1 9 3
f 1 3 4
f 1 4 5
f 1 5 6
f 1 6 13
f 1 13 14
f 1 14 7
f 1 7 2
f 2 7 8
f 3 9 4
f 4 10 18
f 4 18 20
f 4 20 12
f 4 12 5
f 4 9 11
f 4 11 8
f 4 8 10
f 5 12 23
f 5 23 13
f 5 13 6
f 7 14 15
f 7 15 8
f 8 15 16
f 8 16 17
f 8 17 10
f 10 17 19
f 10 19 18
f 12 20 19
f 12 19 21
f 12 21 22
f 12 22 23
f 13 23 22
f 13 22 14
f 14 22 15
f 15 22 19
f 15 19 16
f 16 19 17
f 18 19 20
f 19 22 21

