# https://github.com/mikedh/trimesh
v 2.31696123 1.50532650 0.79956132
v 2.31412182 1.48940823 0.79956132
v 2.31588571 1.52235362 0.79956132
v 2.31692683 1.50569611 0.80354327
v 2.31676334 1.50569611 0.83687194
v 2.31667727 1.50569611 0.85354780
v 2.31384650 1.48903040 0.80354327
v 2.30568966 1.47883712 0.79956132
v 2.31611799 1.50569611 0.91712086
v 2.31215145 1.48903040 0.91712086
v 2.30956155 1.56111437 0.80354327
v 2.30952716 1.56111437 0.81477559
v 2.31586849 1.52235362 0.80354327
v 2.30827950 1.56111437 0.79956132
v 2.31527482 1.52235362 0.90352929
v 2.31518875 1.52235362 0.91712086
v 2.31595455 1.50876807 0.91712086
v 2.30240279 1.47841821 0.79956132
v 2.30568966 1.48118624 0.91712086
v 2.30421831 1.47940387 0.91712086
v 2.30864089 1.56111437 0.85354780
v 2.25347033 1.56111437 0.79956132
v 2.30847739 1.53901937 0.91712086
v 2.29233579 1.47721899 0.79956132
v 2.29233579 1.47829501 0.91712086
v 2.29625077 1.56111437 0.91712086
v 2.25320359 1.56108973 0.79956132
v 2.25319501 1.56111437 0.79964189
v 2.28836060 1.47730115 0.79956132
v 2.27566936 1.47861536 0.91712086
v 2.25393495 1.56111437 0.91712086
v 2.24370445 1.52309288 0.79956132
v 2.22906000 1.52254254 0.80699583
v 2.22906000 1.53177481 0.80853797
v 2.22906000 1.53478925 0.80956223
v 2.22906000 1.54140133 0.81483312
v 2.22906000 1.56111437 0.83238363
v 2.27566936 1.47757221 0.79956132
v 2.25879634 1.47945314 0.91712086
v 2.24494352 1.50569611 0.91712086
v 2.22906000 1.56111437 0.89891437
v 2.24345494 1.52204973 0.79956132
v 2.24040041 1.50569611 0.79956132
v 2.22906000 1.51836175 0.80673113
v 2.27170276 1.47779397 0.79956132
v 2.25684320 1.47965028 0.91712086
v 2.22906000 1.48139158 0.83658424
v 2.24656966 1.48893184 0.91712086
v 2.22906000 1.52262468 0.89996165
v 2.22906000 1.50569611 0.89989260
v 2.24048648 1.50392193 0.79956132
v 2.22906000 1.50569611 0.80594856
v 2.25789291 1.47900139 0.79956132
v 2.25028676 1.48037308 0.91712086
v 2.22906000 1.48144088 0.84026696
v 2.22906000 1.48342862 0.82044930
v 2.25023514 1.48034024 0.79956132
v 2.22906000 1.49795877 0.89860365
v 2.22906000 1.49423792 0.89757938
v 2.24459071 1.48773262 0.79956132
v 2.22906000 1.49094420 0.80861853
v 2.22906000 1.48838973 0.88970756
v 2.22906000 1.48293577 0.87358413
v 2.22906000 1.48233618 0.87020062
v 2.22906000 1.48179407 0.85693130
v 2.22906000 1.48171193 0.85354780
v 2.24562325 1.48491529 0.79956132
f 1 2 8
f 1 8 18
f 1 18 24
f 1 24 29
f 1 29 38
f 1 38 45
f 1 45 53
f 1 53 57
f 1 57 67
f 1 67 60
f 1 60 51
f 1 51 43
f 1 43 42
f 1 42 32
f 1 32 27
f 1 27 22
f 1 22 14
f 1 14 3
f 1 3 4
f 1 4 5
f 1 5 6
f 1 6 2
f 2 7 8
f 2 6 9
f 2 9 10
f 2 10 7
f 3 11 12
f 3 12 13
f 3 13 4
f 3 14 11
f 4 13 5
f 5 13 6
f 6 15 16
f 6 16 17
f 6 17 9
f 6 13 15
f 7 10 8
f 8 10 19
f 8 19 20
f 8 20 18
f 9 17 16
f 9 16 23
f 9 23 26
f 9 26 31
f 9 31 40
f 9 40 48
f 9 48 54
f 9 54 46
f 9 46 39
f 9 39 30
f 9 30 25
f 9 25 20
f 9 20 19
f 9 19 10
f 11 14 22
f 11 22 28
f 11 28 37
f 11 37 41
f 11 41 31
f 11 31 26
f 11 26 21
f 11 21 12
f 12 21 16
f 12 16 15
f 12 15 13
f 16 21 23
f 18 20 24
f 20 25 24
f 21 26 23
f 22 27 28
f 24 25 30
f 24 30 29
f 27 32 33
f 27 33 34
f 27 34 35
f 27 35 36
f 27 36 37
f 27 37 28
f 29 30 38
f 30 39 38
f 31 41 40
f 32 42 33
f 33 42 43
f 33 43 44
f 33 44 52
f 33 52 61
f 33 61 56
f 33 56 47
f 33 47 55
f 33 55 66
f 33 66 65
f 33 65 64
f 33 64 63
f 33 63 62
f 33 62 59
f 33 59 58
f 33 58 50
f 33 50 49
f 33 49 41
f 33 41 37
f 33 37 36
f 33 36 35
f 33 35 34
f 38 39 45
f 39 46 47
f 39 47 45
f 40 41 49
f 40 49 50
f 40 50 48
f 43 51 52
f 43 52 44
f 45 47 53
f 46 54 55
f 46 55 47
f 47 56 57
f 47 57 53
f 48 50 58
f 48 58 59
f 48 59 54
f 51 60 52
f 52 60 61
f 54 59 62
f 54 62 63
f 54 63 64
f 54 64 65
f 54 65 66
f 54 66 55
f 56 61 57
f 57 61 67
f 60 67 61

