# https://github.com/mikedh/trimesh
v -0.78581915 -0.71449041 1.70960626
v -0.47588261 -0.71497148 1.70960626
v -0.47588261 -0.71501958 1.74294743
v -0.78581915 -0.7142979899999999 1.74294743
v -0.78581915 -0.7088138500000001 1.69422327
v -0.47588261 -0.70943924 1.69350936
v -0.47588261 -0.71453851 1.74706942
v -0.47588261 -0.7121813100000001 1.75961378
v -0.76248895 -0.71078622 1.75961378
v -0.78581915 -0.71203699 1.75301864
v -0.78581915 -0.6946705799999999 1.68661679
v -0.7791750399999999 -0.6946705799999999 1.6865658
v -0.76248895 -0.7088138500000001 1.69404482
v -0.74583322 -0.7088138500000001 1.69394283
v -0.71246103 -0.7088138500000001 1.69377285
v -0.69580529 -0.7088138500000001 1.69371333
v -0.47588261 -0.69885584 1.68776411
v -0.47588261 -0.71121917 1.76261386
v -0.47588261 -0.70660097 1.77080679
v -0.76248895 -0.70515778 1.76927699
v -0.78581915 -0.71054569 1.75961378
v -0.78581915 -0.68808001 1.68644681
v -0.76248895 -0.6946705799999999 1.68643828
v -0.7291471199999999 -0.6946705799999999 1.68620884
v -0.71246103 -0.6946705799999999 1.68611533
v -0.69580529 -0.6946705799999999 1.68606433
v -0.47588261 -0.6946705799999999 1.68618332
v -0.47588261 -0.6948149 1.7722346
v -0.76248895 -0.6946705799999999 1.77033938
v -0.78581915 -0.6946705799999999 1.77011841
v -0.78581915 -0.7048691300000001 1.76905602
v -0.78581915 -0.70713013 1.7653505
v -0.78581915 -0.67797768 1.68625131
v -0.6291519400000001 -0.67797768 1.68597087
v -0.47588261 -0.68365422 1.68592835
v -0.69580529 -0.24449111 1.6855544
v -0.47588261 -0.24420247 1.77213261
v -0.78581915 -0.24449111 1.77067933
v -0.78581915 -0.25454535 1.68579237
v -0.6124962 -0.26113592 1.68548641
v -0.47588261 -0.26137644 1.68541842
v -0.71246103 -0.24449111 1.68559692
v -0.71246103 -0.22991488000000002 1.6934329
v -0.69580529 -0.22991488000000002 1.6933989
v -0.47588261 -0.22943381000000002 1.69328839
v -0.5457821300000001 -0.24449111 1.68559692
v -0.47588261 -0.23299368 1.77064534
v -0.78581915 -0.23366717 1.7694215
v -0.78581915 -0.24449111 1.68585189
v -0.47588261 -0.24449111 1.68564792
v -0.78581915 -0.23871834 1.68893696
v -0.78581915 -0.22991488000000002 1.69366234
v -0.47588261 -0.22491181 1.70522083
v -0.47588261 -0.22688417 1.75962225
v -0.78581915 -0.22775009000000002 1.75962225
v -0.78581915 -0.22394969 1.70960626
v -0.76248895 -0.22390157 1.70960626
v -0.47588261 -0.22356484000000001 1.70960626
v -0.47588261 -0.22380537 1.74293896
v -0.78581915 -0.22428642000000001 1.74293896
v -0.78581915 -0.22563341 1.74954257
v -0.47588261 -0.22366105 1.72628108
f 1 2 3
f 1 3 4
f 1 4 10
f 1 10 21
f 1 21 32
f 1 32 31
f 1 31 30
f 1 30 38
f 1 38 48
f 1 48 55
f 1 55 61
f 1 61 60
f 1 60 56
f 1 56 52
f 1 52 51
f 1 51 49
f 1 49 39
f 1 39 33
f 1 33 22
f 1 22 11
f 1 11 5
f 1 5 6
f 1 6 2
f 2 6 17
f 2 17 27
f 2 27 35
f 2 35 41
f 2 41 50
f 2 50 45
f 2 45 53
f 2 53 58
f 2 58 62
f 2 62 59
f 2 59 54
f 2 54 47
f 2 47 37
f 2 37 28
f 2 28 19
f 2 19 18
f 2 18 8
f 2 8 7
f 2 7 3
f 3 7 4
f 4 8 9
f 4 9 10
f 4 7 8
f 5 11 12
f 5 12 13
f 5 13 6
f 6 13 14
f 6 14 15
f 6 15 16
f 6 16 17
f 8 18 9
f 9 18 19
f 9 19 20
f 9 20 21
f 9 21 10
f 11 22 12
f 12 22 23
f 12 23 13
f 13 23 24
f 13 24 14
f 14 24 25
f 14 25 15
f 15 25 16
f 16 25 26
f 16 26 17
f 17 26 27
f 19 28 20
f 20 28 29
f 20 29 30
f 20 30 31
f 20 31 32
f 20 32 21
f 22 33 24
f 22 24 23
f 24 33 25
f 25 33 26
f 26 34 35
f 26 35 27
f 26 33 36
f 26 36 34
f 28 37 38
f 28 38 29
f 29 38 30
f 33 39 36
f 34 36 40
f 34 40 41
f 34 41 35
f 36 39 42
f 36 42 43
f 36 43 44
f 36 44 45
f 36 45 46
f 36 46 41
f 36 41 40
f 37 47 48
f 37 48 38
f 39 49 42
f 41 46 50
f 42 49 51
f 42 51 52
f 42 52 43
f 43 52 45
f 43 45 44
f 45 50 46
f 45 52 53
f 47 54 55
f 47 55 48
f 52 56 53
f 53 56 57
f 53 57 58
f 54 59 60
f 54 60 61
f 54 61 55
f 56 60 57
f 57 59 62
f 57 62 58
f 57 60 59

