# https://github.com/mikedh/trimesh
v -2.85931389 1.57236235 0.56973663
v -2.85931389 1.57236235 0.50969607
v -2.96472835 1.57236235 0.56988105
v -2.83279079 1.57228207 0.56972814
v -2.83279079 1.57228207 0.49995125
v -3.12135301 1.57236235 0.51101292
v -2.96472835 1.57235344 0.56988105
v -2.98136531 1.57236235 0.56989804
v -2.83279079 1.57088147 0.56972814
v -2.83279079 1.57220178 0.49945850
v -3.12135301 1.54851627 0.49347736
v -3.12135301 1.57236235 0.56978759
v -2.98136531 1.57235344 0.56989804
v -2.98136531 1.55567991 0.56987256
v -2.99803051 1.57236235 0.56989804
v -2.83279079 1.55568884 0.56966016
v -2.83279079 1.55427038 0.48931436
v -3.12135301 1.53901532 0.48769167
v -3.12135301 1.54284244 0.49001103
v -3.12135301 1.56568046 0.56979609
v -3.09802172 1.57236235 0.56983009
v -2.99803051 1.57235344 0.56989804
v -2.99803051 1.55567991 0.56988955
v -2.98136531 1.53901532 0.56978759
v -3.08135652 1.57236235 0.56984708
v -3.09802172 1.55567991 0.56984708
v -2.83279079 1.53901532 0.56948176
v -2.96472835 1.53901532 0.56976211
v -2.96472835 1.52236853 0.56960920
v -2.83279079 1.53901532 0.48606892
v -3.12135301 1.52236853 0.48346919
v -3.12135301 1.52901477 0.48511739
v -3.12135301 1.55567991 0.56980458
v -3.08135652 1.55567991 0.56985557
v -2.99803051 1.53901532 0.56980458
v -3.11468692 1.53901532 0.56977910
v -3.08135652 1.53901532 0.56978759
v -2.98136531 1.52236853 0.56963468
v -3.12135301 1.53901532 0.56977061
v -2.83279079 1.53759686 0.56946474
v -2.99803051 1.50570392 0.56933731
v -2.83279079 1.52236853 0.56923535
v -2.83279079 1.52236853 0.48483701
v -2.98136531 1.52236853 0.48362213
v -2.99803051 1.52236853 0.48356265
v -3.01466748 1.52236853 0.48353714
v -3.03136092 1.52236853 0.48352015
v -3.11468692 1.52236853 0.48346919
v -3.09802172 1.50570392 0.48310387
v -3.12135301 1.50570392 0.48312085
v -2.99803051 1.52236853 0.56964317
v -3.12135301 1.52236853 0.56966016
v -3.08135652 1.52236853 0.56966016
v -2.99803051 1.49225093 0.56548866
v -2.88143059 1.49265237 0.56526777
v -2.96472835 1.50570392 0.56923535
v -3.12135301 1.51570447 0.56948176
v -3.01466748 1.50570392 0.56932032
v -2.83279079 1.50570392 0.56875109
v -2.83279079 1.50570392 0.48439527
v -2.96472835 1.50570392 0.48334175
v -2.98136531 1.50570392 0.48327380
v -3.01466748 1.50570392 0.48315483
v -3.09802172 1.48935155 0.48907648
v -3.01466748 1.48928912 0.48909347
v -3.12135301 1.48936941 0.48909347
v -3.12135301 1.50570392 0.56920138
v -3.01466748 1.49223307 0.56546318
v -2.99803051 1.48465014 0.55352642
v -2.96472835 1.48477504 0.55352642
v -2.83279079 1.49272374 0.56513184
v -2.83279079 1.48995822 0.48967968
v -2.96472835 1.48943184 0.48916148
v -3.06469134 1.48125122 0.50354503
v -3.08135652 1.48126904 0.50354503
v -3.03136092 1.48927127 0.48911898
v -3.01466748 1.48124228 0.50354503
v -3.03136092 1.48123337 0.50354503
v -3.12135301 1.48454309 0.49776780
v -3.12135301 1.50044940 0.56765513
v -3.01466748 1.48470367 0.55352642
v -3.12135301 1.49259884 0.56533575
v -2.99803051 1.48188461 0.53685746
v -2.98136531 1.48192029 0.53685746
v -2.96472835 1.48196490 0.53685746
v -3.12135301 1.48216115 0.53685746
v -3.06469134 1.48200057 0.53685746
v -3.04799788 1.48196490 0.53685746
v -2.83279079 1.48261615 0.53685746
v -2.94806315 1.48486424 0.55352642
v -2.83279079 1.48549767 0.55352642
v -2.83279079 1.48234852 0.50354503
v -2.96472835 1.48143856 0.50354503
v -2.98136531 1.48136718 0.50354503
v -3.08135652 1.48144747 0.52021399
v -3.12135301 1.48142965 0.51354471
v -3.12135301 1.48133151 0.50354503
v -3.01466748 1.48142071 0.52021399
v -2.98136531 1.48145641 0.52021399
v -2.99803051 1.48142965 0.52021399
v -3.06469134 1.48143856 0.52021399
v -3.12135301 1.48519434 0.55352642
v -2.96472835 1.48153670 0.52021399
v -3.12135301 1.48190246 0.53019668
v -3.12135301 1.48151885 0.52021399
v -2.83279079 1.48258044 0.53544715
v -2.83279079 1.48223253 0.51879517
v -2.83279079 1.48222362 0.52021399
f 1 2 6
f 1 6 12
f 1 12 21
f 1 21 25
f 1 25 15
f 1 15 8
f 1 8 3
f 1 3 4
f 1 4 5
f 1 5 2
f 2 5 6
f 3 7 9
f 3 9 4
f 3 8 13
f 3 13 7
f 4 9 16
f 4 16 27
f 4 27 40
f 4 40 42
f 4 42 59
f 4 59 71
f 4 71 91
f 4 91 89
f 4 89 106
f 4 106 108
f 4 108 107
f 4 107 92
f 4 92 72
f 4 72 60
f 4 60 43
f 4 43 30
f 4 30 17
f 4 17 10
f 4 10 5
f 5 10 6
f 6 11 19
f 6 19 18
f 6 18 32
f 6 32 31
f 6 31 50
f 6 50 66
f 6 66 79
f 6 79 97
f 6 97 96
f 6 96 105
f 6 105 104
f 6 104 86
f 6 86 102
f 6 102 82
f 6 82 80
f 6 80 67
f 6 67 57
f 6 57 52
f 6 52 39
f 6 39 33
f 6 33 20
f 6 20 12
f 6 10 11
f 7 13 14
f 7 14 9
f 8 15 22
f 8 22 13
f 9 14 16
f 10 17 18
f 10 18 19
f 10 19 11
f 12 20 21
f 13 22 23
f 13 23 14
f 14 23 35
f 14 35 24
f 14 24 16
f 15 25 26
f 15 26 34
f 15 34 22
f 16 24 28
f 16 28 29
f 16 29 27
f 17 30 31
f 17 31 32
f 17 32 18
f 20 26 21
f 20 33 26
f 21 26 25
f 22 34 23
f 23 34 36
f 23 36 37
f 23 37 35
f 24 38 29
f 24 29 28
f 24 35 38
f 26 33 39
f 26 39 36
f 26 36 34
f 27 29 40
f 29 38 41
f 29 41 42
f 29 42 40
f 30 43 44
f 30 44 45
f 30 45 46
f 30 46 47
f 30 47 48
f 30 48 31
f 31 48 49
f 31 49 50
f 35 51 38
f 35 37 52
f 35 52 53
f 35 53 51
f 36 39 52
f 36 52 37
f 38 51 41
f 41 54 55
f 41 55 56
f 41 56 42
f 41 51 53
f 41 53 52
f 41 52 57
f 41 57 58
f 41 58 54
f 42 56 59
f 43 60 44
f 44 61 62
f 44 62 63
f 44 63 45
f 44 60 61
f 45 63 46
f 46 63 47
f 47 63 48
f 48 63 49
f 49 64 50
f 49 63 65
f 49 65 64
f 50 64 66
f 54 58 67
f 54 67 68
f 54 68 69
f 54 69 70
f 54 70 71
f 54 71 55
f 55 71 56
f 56 71 59
f 57 67 58
f 60 72 61
f 61 73 62
f 61 72 73
f 62 73 63
f 63 73 65
f 64 74 75
f 64 75 66
f 64 65 76
f 64 76 74
f 65 77 78
f 65 78 76
f 65 73 77
f 66 75 79
f 67 80 68
f 68 81 69
f 68 80 82
f 68 82 81
f 69 83 84
f 69 84 85
f 69 85 70
f 69 81 86
f 69 86 87
f 69 87 88
f 69 88 83
f 70 85 89
f 70 89 90
f 70 90 71
f 71 90 91
f 72 92 93
f 72 93 73
f 73 93 94
f 73 94 77
f 74 78 101
f 74 101 95
f 74 95 75
f 74 76 78
f 75 95 96
f 75 96 97
f 75 97 79
f 77 98 78
f 77 94 99
f 77 99 100
f 77 100 98
f 78 98 101
f 81 82 102
f 81 102 86
f 83 98 100
f 83 100 99
f 83 99 84
f 83 88 95
f 83 95 101
f 83 101 98
f 84 99 85
f 85 99 103
f 85 103 89
f 86 104 87
f 87 104 105
f 87 105 88
f 88 105 95
f 89 91 90
f 89 103 106
f 92 107 93
f 93 103 99
f 93 99 94
f 93 107 108
f 93 108 103
f 95 105 96
f 103 108 106

