# https://github.com/mikedh/trimesh
v -2.231583695 -0.64092723 0.6448553
v -2.2353374649999997 -0.64092723 0.64502889
v -2.248268955 -0.61131236 0.64769086
v -2.231600575 -0.61131236 0.64701298
v -2.231583695 -0.61132976 0.64701298
v -2.220187495 -0.61132976 0.64864157
v -2.219664495 -0.64092723 0.64767434
v -2.248260545 -0.64092723 0.6467567
v -2.2508417649999997 -0.64092723 0.64711216
v -2.2591928549999998 -0.61132976 0.64932772
v -2.2592012649999997 -0.61131236 0.64933601
v -2.2202043049999998 -0.61131236 0.64864157
v -2.214544165 -0.61131236 0.6589422
v -2.213962125 -0.64092723 0.65895875
v -2.2979114149999997 -0.64092723 0.65624718
v -2.2979114149999997 -0.6334706 0.6617199
v -2.2979114149999997 -0.61131236 0.68195746
v -2.2119544849999997 -0.61131236 0.67561669
v -2.211768935 -0.64092723 0.67563324
v -2.2979114149999997 -0.64092723 0.7287733
v -2.2979114149999997 -0.61131236 0.72805409
v -2.2119882349999997 -0.61131236 0.69228289
v -2.2117351849999998 -0.64092723 0.68854624
v -2.2445067749999996 -0.64092723 0.72926934
v -2.231583695 -0.61131236 0.72903787
v -2.248260545 -0.61131236 0.72879812
v -2.212123205 -0.61131236 0.70895738
v -2.2117435949999997 -0.64092723 0.69229944
v -2.231583695 -0.64092723 0.72930241
v -2.231583695 -0.62800281 0.72919494
v -2.217732775 -0.61132976 0.72313523
v -2.217724305 -0.61131236 0.72311871
v -2.212123205 -0.61132976 0.7089739
v -2.211937605 -0.64092723 0.7089739
v -2.228471075 -0.64092723 0.72794662
v -2.217665255 -0.64092723 0.72320137
f 1 2 3
f 1 3 4
f 1 4 5
f 1 5 6
f 1 6 7
f 1 7 14
f 1 14 19
f 1 19 23
f 1 23 28
f 1 28 34
f 1 34 36
f 1 36 35
f 1 35 29
f 1 29 24
f 1 24 20
f 1 20 15
f 1 15 9
f 1 9 8
f 1 8 2
f 2 8 3
f 3 8 9
f 3 9 10
f 3 10 11
f 3 11 17
f 3 17 21
f 3 21 26
f 3 26 25
f 3 25 32
f 3 32 27
f 3 27 22
f 3 22 18
f 3 18 13
f 3 13 12
f 3 12 4
f 4 12 6
f 4 6 5
f 6 13 7
f 6 12 13
f 7 13 14
f 9 15 10
f 10 15 11
f 11 15 16
f 11 16 17
f 13 18 14
f 14 18 19
f 15 20 21
f 15 21 17
f 15 17 16
f 18 22 23
f 18 23 19
f 20 24 25
f 20 25 26
f 20 26 21
f 22 27 28
f 22 28 23
f 24 29 30
f 24 30 25
f 25 30 31
f 25 31 32
f 27 33 28
f 27 32 33
f 28 33 34
f 29 35 31
f 29 31 30
f 31 36 32
f 31 35 36
f 32 36 34
f 32 34 33

