# https://github.com/mikedh/trimesh
v -3.71759433 2.06260395 1.02049117
v -3.71759433 2.06260395 1.08978530
v -3.71759433 2.10915993 1.02049117
v -3.31008425 2.06430011 1.02049117
v -3.31008425 2.06387724 1.08978530
v -3.71759433 2.10873233 1.08978530
v -3.71759433 2.10913618 1.03687348
v -3.69804850 2.10930722 1.05354070
v -3.69804850 2.10932623 1.03687348
v -3.69804850 2.10933097 1.02049117
v -3.31008425 2.11113638 1.02049117
v -3.31008425 2.11100337 1.08978530
v -3.71755446 2.10888912 1.08978530
v -3.71759433 2.10888912 1.08974460
v -3.71759433 2.10913144 1.03974971
v -3.71759433 2.10910769 1.05354070
v -3.71759433 2.10909818 1.05641015
v -3.69804850 2.10924070 1.07020114
v -3.68137474 2.10936900 1.07020114
v -3.68137474 2.10942601 1.05354070
v -3.68137474 2.10945450 1.03687348
v -3.68137474 2.10945927 1.02049117
v -3.31008425 2.11112690 1.03224709
v -3.31475133 2.11112213 1.02049117
v -3.31008425 2.11108887 1.05354070
v -3.31766322 2.11098910 1.08978530
v -3.69804850 2.10910292 1.08978530
v -3.71759433 2.10891287 1.08686837
v -3.71759433 2.10903640 1.07020114
v -3.68137474 2.10925497 1.08978530
v -3.66470099 2.10934525 1.08978530
v -3.38140649 2.11076105 1.08978530
v -3.36473273 2.11083707 1.08978530
v -3.39835950 2.11075631 1.02049117
v -3.66498024 2.10954477 1.02049117
v -3.31008425 2.11112213 1.03687348
v -3.31475133 2.11110789 1.03687348
v -3.33138522 2.11103663 1.03687348
v -3.31008425 2.11109838 1.04891431
v -3.31475133 2.11107940 1.05354070
v -3.33429711 2.11094636 1.08978530
v -3.35097092 2.11089408 1.08978530
v -3.34805897 2.11090359 1.08978530
f 1 2 6
f 1 6 14
f 1 14 28
f 1 28 29
f 1 29 17
f 1 17 16
f 1 16 15
f 1 15 7
f 1 7 3
f 1 3 10
f 1 10 22
f 1 22 35
f 1 35 34
f 1 34 24
f 1 24 11
f 1 11 4
f 1 4 5
f 1 5 2
f 2 5 12
f 2 12 26
f 2 26 41
f 2 41 43
f 2 43 42
f 2 42 33
f 2 33 32
f 2 32 31
f 2 31 30
f 2 30 27
f 2 27 13
f 2 13 6
f 3 7 8
f 3 8 9
f 3 9 10
f 4 11 23
f 4 23 36
f 4 36 39
f 4 39 25
f 4 25 12
f 4 12 5
f 6 13 14
f 7 15 8
f 8 15 16
f 8 16 17
f 8 17 18
f 8 18 19
f 8 19 20
f 8 20 21
f 8 21 9
f 9 21 22
f 9 22 10
f 11 24 23
f 12 25 26
f 13 27 14
f 14 27 28
f 17 29 18
f 18 29 27
f 18 27 30
f 18 30 19
f 19 30 31
f 19 31 32
f 19 32 20
f 20 32 21
f 21 32 33
f 21 33 34
f 21 34 35
f 21 35 22
f 23 24 37
f 23 37 36
f 24 38 37
f 24 34 38
f 25 39 40
f 25 40 26
f 26 40 41
f 27 29 28
f 33 42 37
f 33 37 38
f 33 38 34
f 36 37 40
f 36 40 39
f 37 42 40
f 40 42 43
f 40 43 41

