# https://github.com/mikedh/trimesh
v 0.38318749 2.01481218 0.81349523
v 0.38232495 2.04480330 0.81349523
v 0.32058686 2.01481218 0.81349523
v 0.37406547 2.01481218 0.73633217
v 0.37585267 2.04480330 0.73633217
v 0.31979256 2.04480330 0.81349523
v 0.32059925 2.01481218 0.81264928
v 0.33452432 2.01481218 0.73633217
v 0.33408372 2.04480330 0.73633217
v 0.32003456 2.04480330 0.80353262
v 0.32079166 2.01481218 0.80353262
f 1 2 6
f 1 6 3
f 1 3 7
f 1 7 11
f 1 11 8
f 1 8 4
f 1 4 5
f 1 5 2
f 2 5 9
f 2 9 10
f 2 10 6
f 3 6 7
f 4 8 9
f 4 9 5
f 6 10 11
f 6 11 7
f 8 11 10
f 8 10 9

