# https://github.com/mikedh/trimesh
v -0.14363940 1.60556180 0.17997666
v -0.14363940 1.60556180 0.09841590
v -0.14691620 1.60556180 0.17998471
v -0.14363940 1.59244002 0.17996051
v -0.14363940 1.60257272 0.09839975
v -0.26359320 1.48917963 0.09775363
v -0.28026971 1.60556180 0.09841590
v -0.16359270 1.60556180 0.18001701
v -0.18026921 1.58917670 0.18003317
v -0.14363940 1.57576697 0.17993625
v -0.14363940 1.50258935 0.09795551
v -0.31362272 1.60556180 0.09843200
v -0.14363940 1.48917963 0.09789901
v -0.14363940 1.48710921 0.09808474
v -0.21362222 1.47851218 0.09880351
v -0.23024019 1.47851218 0.09878736
v -0.26359320 1.47845732 0.09876316
v -0.48021227 1.47882752 0.09894889
v -0.49688878 1.47884126 0.09896504
v -0.51356528 1.47888239 0.09898930
v -0.49688878 1.48917963 0.09814130
v -0.51356528 1.60556180 0.09867429
v -0.19694571 1.60556180 0.18006547
v -0.18026921 1.57250367 0.18000897
v -0.19694571 1.58917670 0.18005742
v -0.14363940 1.55910765 0.17989589
v -0.16359270 1.55584434 0.17993625
v -0.14363940 1.47862186 0.09887623
v -0.14363940 1.47138225 0.10820414
v -0.19694571 1.47131370 0.10820414
v -0.26359320 1.47127257 0.10820414
v -0.49688878 1.47161536 0.10820414
v -0.51356528 1.47164278 0.10820414
v -0.74141903 1.47213640 0.10820414
v -0.74141903 1.47956794 0.09935272
v -0.51356528 1.48917963 0.09818165
v -0.74141903 1.60556180 0.09912657
v -0.53018329 1.60556180 0.09870660
v -0.21362222 1.60556180 0.18008162
v -0.19694571 1.57250367 0.18003317
v -0.19694571 1.55584434 0.18000086
v -0.24691670 1.60556180 0.18010588
v -0.41362328 1.55584434 0.18014624
v -0.14691620 1.55584434 0.17989589
v -0.14363940 1.55584434 0.17988779
v -0.18026921 1.53917132 0.17989589
v -0.14363940 1.54243462 0.17982318
v -0.14363940 1.46630904 0.12487325
v -0.66353682 1.46578801 0.12487325
v -0.74141903 1.46578801 0.12487325
v -0.74141903 1.47003854 0.11369592
v -0.74141903 1.48602601 0.09900546
v -0.74141903 1.48917963 0.09884393
v -0.74141903 1.50585268 0.09886813
v -0.74141903 1.52251198 0.09890043
v -0.74141903 1.60556180 0.18025931
v -0.21362222 1.55584434 0.18001701
v -0.19694571 1.53917132 0.17992820
v -0.38027024 1.50585268 0.18001701
v -0.41362328 1.58917670 0.18017050
v -0.41362328 1.57250367 0.18016239
v -0.48021227 1.60556180 0.18020274
v -0.48021227 1.55584434 0.18017050
v -0.14691620 1.53917132 0.17981513
v -0.19694571 1.50585268 0.17975052
v -0.14363940 1.53917132 0.17980702
v -0.14363940 1.46629533 0.12813598
v -0.66353682 1.46552750 0.14153432
v -0.68021334 1.46551379 0.14153432
v -0.71356635 1.46550008 0.14153432
v -0.74141903 1.46569204 0.13036503
v -0.74141903 1.57798822 0.18021895
v -0.48021227 1.57250367 0.18018665
v -0.49688878 1.58917670 0.18020274
v -0.21362222 1.50585268 0.17978282
v -0.39694678 1.48917963 0.17973436
v -0.48021227 1.50585268 0.18004127
v -0.74141903 1.57250367 0.18021085
v -0.74141903 1.55584434 0.18017854
v -0.49688878 1.53917132 0.18013008
v -0.18026921 1.50585268 0.17971011
v -0.21362222 1.48917963 0.17940326
v -0.14363940 1.50585268 0.17958899
v -0.14363940 1.46624050 0.14153432
v -0.66353682 1.46584287 0.15820344
v -0.73018435 1.46577430 0.15820344
v -0.74141903 1.46558234 0.14702604
v -0.74141903 1.46550008 0.14153432
v -0.39694678 1.47400115 0.17298271
v -0.21362222 1.47408340 0.17277272
v -0.16359270 1.47412453 0.17271622
v -0.48021227 1.48917963 0.17975052
v -0.69688984 1.47353495 0.17291810
v -0.68021334 1.47356236 0.17292621
v -0.49688878 1.50585268 0.18004127
v -0.74141903 1.54465586 0.18013008
v -0.14363940 1.48917963 0.17921747
v -0.14363940 1.47419308 0.17270006
v -0.14363940 1.46688492 0.15820344
v -0.16359270 1.46681637 0.15820344
v -0.18026921 1.46677522 0.15820344
v -0.66353682 1.47354865 0.17291005
v -0.23024019 1.47402857 0.17275657
v -0.73018435 1.47350753 0.17286964
v -0.74141903 1.46577430 0.15820344
v -0.14363940 1.46831091 0.16103814
v -0.14691620 1.47417937 0.17270006
v -0.74141903 1.50585268 0.17990394
v -0.69688984 1.48917963 0.17959703
v -0.74141903 1.47350753 0.17286964
v -0.74141903 1.53917132 0.18010588
v -0.74141903 1.49467787 0.17966165
v -0.74141903 1.48917963 0.17954053
v -0.74141903 1.47866298 0.17506633
f 1 2 7
f 1 7 12
f 1 12 22
f 1 22 38
f 1 38 37
f 1 37 56
f 1 56 62
f 1 62 42
f 1 42 39
f 1 39 23
f 1 23 8
f 1 8 3
f 1 3 4
f 1 4 10
f 1 10 26
f 1 26 45
f 1 45 47
f 1 47 66
f 1 66 83
f 1 83 97
f 1 97 98
f 1 98 106
f 1 106 99
f 1 99 84
f 1 84 67
f 1 67 48
f 1 48 29
f 1 29 28
f 1 28 14
f 1 14 13
f 1 13 11
f 1 11 5
f 1 5 2
f 2 5 6
f 2 6 7
f 3 8 9
f 3 9 4
f 4 9 24
f 4 24 10
f 5 11 6
f 6 12 7
f 6 11 13
f 6 13 14
f 6 14 15
f 6 15 16
f 6 16 17
f 6 17 18
f 6 18 19
f 6 19 20
f 6 20 21
f 6 21 22
f 6 22 12
f 8 23 25
f 8 25 9
f 9 25 40
f 9 40 24
f 10 24 27
f 10 27 26
f 14 28 15
f 15 17 16
f 15 28 29
f 15 29 17
f 17 29 30
f 17 30 31
f 17 31 32
f 17 32 33
f 17 33 34
f 17 34 19
f 17 19 18
f 19 34 20
f 20 34 35
f 20 35 21
f 21 35 36
f 21 36 37
f 21 37 38
f 21 38 22
f 23 39 25
f 24 40 41
f 24 41 27
f 25 39 42
f 25 42 43
f 25 43 40
f 26 27 44
f 26 44 45
f 27 46 47
f 27 47 44
f 27 41 58
f 27 58 46
f 29 48 30
f 30 48 49
f 30 49 31
f 31 49 50
f 31 50 32
f 32 50 33
f 33 50 51
f 33 51 34
f 34 51 50
f 34 50 71
f 34 71 88
f 34 88 87
f 34 87 105
f 34 105 110
f 34 110 114
f 34 114 113
f 34 113 112
f 34 112 108
f 34 108 111
f 34 111 96
f 34 96 79
f 34 79 78
f 34 78 72
f 34 72 56
f 34 56 37
f 34 37 55
f 34 55 54
f 34 54 53
f 34 53 52
f 34 52 35
f 35 52 36
f 36 52 53
f 36 53 54
f 36 54 55
f 36 55 37
f 40 57 41
f 40 43 57
f 41 57 59
f 41 59 58
f 42 60 61
f 42 61 43
f 42 62 60
f 43 59 57
f 43 61 73
f 43 73 63
f 43 63 59
f 44 47 45
f 46 64 47
f 46 58 75
f 46 75 65
f 46 65 81
f 46 81 64
f 47 64 66
f 48 67 68
f 48 68 49
f 49 68 69
f 49 69 70
f 49 70 71
f 49 71 50
f 56 72 63
f 56 63 73
f 56 73 74
f 56 74 62
f 58 59 75
f 59 76 75
f 59 63 77
f 59 77 76
f 60 62 74
f 60 74 61
f 61 74 73
f 63 72 78
f 63 78 79
f 63 79 80
f 63 80 77
f 64 81 66
f 65 75 82
f 65 82 81
f 66 81 83
f 67 84 68
f 68 84 85
f 68 85 86
f 68 86 69
f 69 86 70
f 70 86 87
f 70 87 88
f 70 88 71
f 75 76 82
f 76 89 90
f 76 90 91
f 76 91 82
f 76 77 92
f 76 92 93
f 76 93 94
f 76 94 89
f 77 80 79
f 77 79 95
f 77 95 92
f 79 96 95
f 81 97 83
f 81 82 97
f 82 91 98
f 82 98 97
f 84 99 100
f 84 100 101
f 84 101 85
f 85 102 86
f 85 101 91
f 85 91 103
f 85 103 102
f 86 93 104
f 86 104 110
f 86 110 105
f 86 105 87
f 86 102 93
f 89 103 90
f 89 94 102
f 89 102 103
f 90 103 91
f 91 101 100
f 91 100 106
f 91 106 107
f 91 107 98
f 92 95 108
f 92 108 109
f 92 109 93
f 93 109 110
f 93 110 104
f 93 102 94
f 95 96 111
f 95 111 108
f 98 107 106
f 99 106 100
f 108 112 109
f 109 112 113
f 109 113 114
f 109 114 110

