# https://github.com/mikedh/trimesh
v -1.69691289 1.95582674 2.00722018
v -1.68024849 1.95582674 2.00704435
v -1.68024849 1.98142566 2.00700525
v -1.68800282 1.98142566 2.00708333
v -1.69691289 1.98142566 2.00717131
v -1.70466728 1.98142566 2.00615528
v -1.71357736 1.97251103 2.00500251
v -1.71357736 1.95582674 2.00502206
v -1.71357736 1.75586072 2.00497331
v -1.69691289 1.75586072 2.00716153
v -1.68024849 1.75586072 2.00707367
v -1.63019918 1.98142566 2.00614550
v -1.71357736 1.98142566 2.00498308
v -1.72313987 1.97251103 2.00132941
v -1.72313057 1.98142566 2.00131963
v -1.72317713 1.83915945 2.00135873
v -1.72317713 1.82247517 2.00135873
v -1.72316783 1.80583178 2.00135873
v -1.72314917 1.68920538 2.00132941
v -1.71357736 1.73921733 2.00495376
v -1.69691289 1.73921733 2.00714198
v -1.68024849 1.73921733 2.00705412
v -1.63019918 1.72253305 2.00588181
v -1.63019918 1.98142566 2.00565710
v -1.72487343 1.98142566 1.99155053
v -1.72494799 1.88917140 1.99155053
v -1.72495729 1.87248712 1.99155053
v -1.72495729 1.83915945 1.99155053
v -1.72485477 1.68920538 1.99155053
v -1.72285097 1.58918147 2.00097774
v -1.71357736 1.67252110 2.00482668
v -1.69691289 1.72253305 2.00709310
v -1.68024849 1.72253305 2.00701502
v -1.63025509 1.56366433 2.00548126
v -1.63019918 1.57253810 2.00547149
v -1.63019918 1.98138477 1.93091392
v -1.63025509 1.98142566 1.93091392
v -1.72532076 1.98142566 1.97488451
v -1.72541399 1.87248712 1.97488451
v -1.72533012 1.73921733 1.97488451
v -1.72517169 1.63919343 1.97488451
v -1.72512508 1.62255004 1.97488451
v -1.72493864 1.56366433 1.97488451
v -1.72466839 1.63919343 1.99155053
v -1.72279500 1.57253810 2.00090931
v -1.71357736 1.56366433 2.00426007
v -1.69691289 1.56366433 2.00658515
v -1.68024849 1.70584877 2.00696615
v -1.68024849 1.56366433 2.00645819
v -1.63019918 1.56366433 1.97058609
v -1.65582963 1.98142566 1.90742901
v -1.63019918 1.73913555 1.93073808
v -1.65494420 1.56366433 1.90742901
v -1.72526486 1.98142566 1.96712786
v -1.72520895 1.95582674 1.95821844
v -1.72526486 1.87248712 1.95821844
v -1.72518099 1.75586072 1.95821844
v -1.72516233 1.73921733 1.95821844
v -1.72503186 1.63919343 1.95821844
v -1.72500390 1.62255004 1.95821844
v -1.72496659 1.60586575 1.95821844
v -1.72483612 1.56366433 1.95821844
v -1.72464973 1.56366433 1.98269976
v -1.72441673 1.58918147 1.99155053
v -1.72356861 1.56366433 1.99593687
v -1.72275774 1.56366433 2.00087021
v -1.68909330 1.56366433 2.00652650
v -1.63025509 1.56366433 1.93133395
v -1.63019918 1.57249719 1.93134373
v -1.72454721 1.98142566 1.90742901
v -1.63019918 1.72249216 1.93074780
v -1.72434217 1.56366433 1.90742901
v -1.72517169 1.98142566 1.95821844
v -1.72519029 1.97251103 1.95821844
v -1.72466839 1.93914246 1.90742901
v -1.72466839 1.93836550 1.90742901
v -1.72465903 1.92168121 1.90742901
v -1.72463107 1.87171015 1.90742901
v -1.72447264 1.67174413 1.90742901
v -1.72428626 1.56366433 1.99155053
v -1.72462178 1.95582674 1.90742901
f 1 2 3
f 1 3 4
f 1 4 5
f 1 5 6
f 1 6 7
f 1 7 8
f 1 8 9
f 1 9 10
f 1 10 11
f 1 11 2
f 2 12 3
f 2 11 12
f 3 12 24
f 3 24 37
f 3 37 51
f 3 51 70
f 3 70 73
f 3 73 54
f 3 54 38
f 3 38 25
f 3 25 15
f 3 15 13
f 3 13 6
f 3 6 5
f 3 5 4
f 6 13 7
f 7 14 8
f 7 13 15
f 7 15 14
f 8 14 16
f 8 16 17
f 8 17 18
f 8 18 9
f 9 19 20
f 9 20 21
f 9 21 10
f 9 18 19
f 10 21 22
f 10 22 11
f 11 22 23
f 11 23 12
f 12 23 35
f 12 35 50
f 12 50 69
f 12 69 71
f 12 71 52
f 12 52 36
f 12 36 24
f 14 15 25
f 14 25 26
f 14 26 27
f 14 27 16
f 16 27 28
f 16 28 17
f 17 28 19
f 17 19 18
f 19 29 30
f 19 30 31
f 19 31 20
f 19 28 29
f 20 31 21
f 21 32 48
f 21 48 33
f 21 33 22
f 21 31 32
f 22 33 23
f 23 33 34
f 23 34 35
f 24 36 37
f 25 38 39
f 25 39 26
f 26 39 27
f 27 39 28
f 28 39 40
f 28 40 29
f 29 40 41
f 29 41 42
f 29 42 43
f 29 43 44
f 29 44 30
f 30 44 45
f 30 45 46
f 30 46 31
f 31 46 47
f 31 47 32
f 32 47 48
f 33 48 34
f 34 49 67
f 34 67 47
f 34 47 46
f 34 46 66
f 34 66 65
f 34 65 80
f 34 80 63
f 34 63 43
f 34 43 62
f 34 62 72
f 34 72 53
f 34 53 68
f 34 68 50
f 34 50 35
f 34 48 49
f 36 51 37
f 36 52 53
f 36 53 51
f 38 54 39
f 39 54 55
f 39 55 56
f 39 56 40
f 40 57 58
f 40 58 59
f 40 59 41
f 40 56 57
f 41 59 60
f 41 60 61
f 41 61 42
f 42 61 62
f 42 62 43
f 43 63 44
f 44 63 64
f 44 64 65
f 44 65 66
f 44 66 45
f 45 66 46
f 47 67 48
f 48 67 49
f 50 68 69
f 51 53 72
f 51 72 79
f 51 79 78
f 51 78 77
f 51 77 76
f 51 76 75
f 51 75 81
f 51 81 70
f 52 71 53
f 53 71 69
f 53 69 68
f 54 73 74
f 54 74 55
f 55 74 75
f 55 75 56
f 56 75 76
f 56 76 77
f 56 77 78
f 56 78 57
f 57 79 58
f 57 78 79
f 58 79 72
f 58 72 59
f 59 72 60
f 60 72 61
f 61 72 62
f 63 80 64
f 64 80 65
f 70 81 73
f 73 81 75
f 73 75 74

