# https://github.com/mikedh/trimesh
v -2.81580358 1.64317109 1.53467732
v -2.81579831 1.70571403 1.50598288
v -2.81579831 1.65572603 1.50619269
v -2.81579831 1.64317109 1.50625068
v -2.81580358 1.64317109 1.55125839
v -2.81580358 2.03782131 1.53467732
v -2.81579831 1.77239045 1.50598288
v -2.81470271 1.70571403 1.50566154
v -2.81470271 1.65572603 1.50588024
v -2.81470271 1.64317109 1.50594270
v -2.76199299 1.64317109 1.55125839
v -2.81580358 2.03782131 1.55125839
v -2.81579831 2.02414607 1.50718797
v -2.81579831 2.02233044 1.50715227
v -2.81579831 2.00745765 1.50687558
v -2.81579831 2.00568065 1.50684429
v -2.81579831 1.98895360 1.50671936
v -2.81579831 1.92231581 1.50637120
v -2.81579831 1.90562739 1.50629085
v -2.81579831 1.88897760 1.50624621
v -2.81579831 2.03782131 1.50748254
v -2.81470271 1.88897760 1.50592041
v -2.81470271 1.77239045 1.50566154
v -2.79970675 1.72236382 1.50854929
v -2.79963828 1.70571403 1.50858947
v -2.79954873 1.65572603 1.50869211
v -2.79964355 1.64317109 1.50870999
v -2.80340965 1.64317109 1.50800921
v -2.79948026 1.78904024 1.50856711
v -2.76199299 1.64317109 1.55037915
v -2.76199299 2.00552613 1.55125839
v -2.76775013 2.03782131 1.55125839
v -2.81470271 2.02233044 1.50680411
v -2.81470271 2.00568065 1.50649619
v -2.81470271 1.98895360 1.50636226
v -2.81470271 1.92231581 1.50603199
v -2.81470271 1.90562739 1.50596058
v -2.81479752 2.03782131 1.50717462
v -2.80045471 1.98895360 1.50852694
v -2.79952240 1.77239045 1.50856711
v -2.79952766 1.67237583 1.50866981
v -2.76199299 1.95565402 1.55082548
v -2.76199299 1.93896560 1.55076742
v -2.76199299 1.98895360 1.55106199
v -2.80051791 2.00568065 1.50856711
v -2.80078128 2.02233044 1.50868317
v -2.80109205 2.03782131 1.50879475
v -2.81369666 2.03782131 1.50728620
v -2.76199299 1.97230380 1.55092812
f 1 2 3
f 1 3 4
f 1 4 10
f 1 10 28
f 1 28 27
f 1 27 30
f 1 30 11
f 1 11 5
f 1 5 12
f 1 12 6
f 1 6 7
f 1 7 2
f 2 7 23
f 2 23 8
f 2 8 3
f 3 9 4
f 3 8 9
f 4 9 10
f 5 11 31
f 5 31 32
f 5 32 12
f 6 13 14
f 6 14 15
f 6 15 16
f 6 16 17
f 6 17 18
f 6 18 19
f 6 19 20
f 6 20 7
f 6 12 32
f 6 32 47
f 6 47 48
f 6 48 38
f 6 38 21
f 6 21 13
f 7 20 22
f 7 22 23
f 8 24 25
f 8 25 26
f 8 26 27
f 8 27 28
f 8 28 9
f 8 23 29
f 8 29 24
f 9 28 10
f 11 30 43
f 11 43 42
f 11 42 49
f 11 49 44
f 11 44 31
f 13 33 14
f 13 21 33
f 14 33 15
f 15 34 16
f 15 33 34
f 16 34 35
f 16 35 17
f 17 35 18
f 18 36 19
f 18 35 36
f 19 36 37
f 19 37 20
f 20 37 22
f 21 38 33
f 22 37 39
f 22 39 23
f 23 39 29
f 24 29 40
f 24 40 25
f 25 40 41
f 25 41 26
f 26 41 30
f 26 30 27
f 29 30 41
f 29 41 40
f 29 39 42
f 29 42 43
f 29 43 30
f 31 44 45
f 31 45 46
f 31 46 47
f 31 47 32
f 33 38 48
f 33 48 47
f 33 47 34
f 34 47 46
f 34 46 45
f 34 45 35
f 35 45 36
f 36 45 37
f 37 45 39
f 39 45 49
f 39 49 42
f 44 49 45

