# https://github.com/mikedh/trimesh
v -2.75867139 1.61607004 1.99683987
v -2.81579799 1.61607004 1.99680208
v -2.75867139 1.61607004 1.93649260
v -2.75867139 1.91174968 1.99675177
v -2.76472239 1.90567408 1.99675177
v -2.81579799 1.61607004 1.93259985
v -2.81475220 2.03830420 1.99664496
v -2.81579799 2.03830420 1.99663864
v -2.77699216 1.61607004 1.93259985
v -2.75867139 2.03830420 1.93648628
v -2.75867139 1.92237167 1.99673925
v -2.79803645 2.03830420 1.99663232
v -2.81579799 1.84553795 1.93259353
v -2.81579799 2.03830420 1.93259353
v -2.80244328 1.84553795 1.93259353
v -2.77846297 1.84814178 1.93259353
v -2.77754022 2.03818022 1.93259353
v -2.77849094 2.03830420 1.93259353
v -2.75867139 2.03830420 1.99658833
f 1 2 6
f 1 6 9
f 1 9 3
f 1 3 10
f 1 10 19
f 1 19 11
f 1 11 4
f 1 4 5
f 1 5 2
f 2 5 7
f 2 7 8
f 2 8 14
f 2 14 13
f 2 13 6
f 3 9 10
f 4 11 12
f 4 12 7
f 4 7 5
f 6 13 15
f 6 15 9
f 7 12 19
f 7 19 10
f 7 10 18
f 7 18 14
f 7 14 8
f 9 15 16
f 9 16 17
f 9 17 10
f 10 17 18
f 11 19 12
f 13 14 18
f 13 18 17
f 13 17 16
f 13 16 15

