# https://github.com/mikedh/trimesh
v -2.180909745 -0.26113908 0.97585357
v -2.1854174349999997 -0.27503700000000003 0.97585357
v -2.180927755 -0.24447331 0.97585357
v -2.1809817249999996 -0.24442299 1.09255227
v -2.180990735 -0.26110553000000003 1.04252811
v -2.1810806749999996 -0.26110553000000003 1.10921726
v -2.185534385 -0.27498668 1.10921726
v -2.185471405 -0.27507055 1.04252811
v -2.1854533949999997 -0.27506217 1.02584852
v -2.198229705 -0.28143659 0.97585357
v -2.198229705 -0.28161273000000003 1.04252811
v -2.198229705 -0.28158757 1.02584852
v -2.198229705 -0.28154563 1.00918354
v -2.1810357049999998 -0.22780754 0.97585357
v -2.181062725 -0.22776561 1.09255227
v -2.1810806749999996 -0.22776561 1.10921726
v -2.181098685 -0.22776561 1.12506433
v -2.1810176949999995 -0.24442299 1.10921726
v -2.181053715 -0.24442299 1.12506433
v -2.181125705 -0.26110553000000003 1.12506433
v -2.1855614049999996 -0.27496991 1.12506433
v -2.1854984249999996 -0.27507055 1.0591931
v -2.198229705 -0.28157078 1.12506433
v -2.198229705 -0.28161273000000003 1.0591931
v -2.214910845 -0.28232566 0.97585357
v -2.214910845 -0.28323988 1.12506433
v -2.1826552049999997 -0.21113339 0.97585357
v -2.1826552049999997 -0.21109146 0.99250395
v -2.1826822249999998 -0.21109146 1.12506433
v -2.231574035 -0.28198177 0.99250395
v -2.231574035 -0.28181403 0.97585357
v -2.231565025 -0.28290439 1.12506433
v -2.187054945 -0.20043946 0.97585357
v -2.1870459349999996 -0.20039751 0.99250395
v -2.1870729549999997 -0.20041429 1.12506433
v -2.244917175 -0.27548993 0.99250395
v -2.2448721449999995 -0.27530540000000003 0.97585357
v -2.232230865 -0.2825689 1.12506433
v -2.245007115 -0.27555703 1.00918354
v -2.1982657249999997 -0.19782258000000003 0.97585357
v -2.198229705 -0.1978142 0.99250395
v -2.198229705 -0.19780582000000002 1.12506433
v -2.262965885 -0.25698731 0.99250395
v -2.263028875 -0.25708796 1.00918354
v -2.262399055 -0.25676924 0.97585357
v -2.2447102149999996 -0.275708 1.12506433
v -2.2449981049999996 -0.27561573 1.06385228
v -2.245007115 -0.27561573 1.0591931
v -2.245034125 -0.27561573 1.04252811
v -2.245052135 -0.27559896 1.02584852
v -2.214955875 -0.19757936 0.97585357
v -2.214910845 -0.19756257 1.12506433
v -2.271027545 -0.24443137 0.99250395
v -2.270505745 -0.24443137 0.97585357
v -2.262992905 -0.25709635000000003 1.02584852
v -2.271099535 -0.24443137 1.00918354
v -2.262264095 -0.2568028 1.12506433
v -2.262597005 -0.25689505 1.10921726
v -2.2627589949999996 -0.25696216 1.09255227
v -2.262929925 -0.25707958000000003 1.04252811
v -2.244953135 -0.27559896 1.09255227
v -2.231609995 -0.19772194 0.97585357
v -2.231565025 -0.1976716 1.12506433
v -2.272566115 -0.22776561 0.97585357
v -2.2709825749999997 -0.24412104 1.12506433
v -2.272674065 -0.22776561 1.00918354
v -2.272629095 -0.22776561 0.99250395
v -2.2728270449999997 -0.22669202 1.12506433
v -2.248282195 -0.19812454000000002 0.97585357
v -2.248246175 -0.19805742 1.02584852
v -2.248246175 -0.19794001 1.12506433
v -2.247400455 -0.19792323 1.12506433
v -2.2695340149999996 -0.21109146 1.00918354
v -2.269399045 -0.21109146 0.97585357
v -2.269552025 -0.21109146 1.12506433
v -2.2695699749999996 -0.21109146 1.04252811
v -2.2695699749999996 -0.21109146 1.02584852
v -2.2615353349999996 -0.20057366 0.97585357
v -2.261544335 -0.20049814999999999 1.02584852
v -2.260905525 -0.20030527 1.12506433
v -2.261976205 -0.20096786 1.12506433
v -2.2615712949999995 -0.20043105 1.12506433
f 1 2 10
f 1 10 25
f 1 25 31
f 1 31 37
f 1 37 45
f 1 45 54
f 1 54 64
f 1 64 74
f 1 74 78
f 1 78 69
f 1 69 62
f 1 62 51
f 1 51 40
f 1 40 33
f 1 33 27
f 1 27 14
f 1 14 3
f 1 3 4
f 1 4 5
f 1 5 6
f 1 6 7
f 1 7 8
f 1 8 9
f 1 9 2
f 2 9 11
f 2 11 12
f 2 12 13
f 2 13 10
f 3 14 15
f 3 15 4
f 4 15 16
f 4 16 17
f 4 17 18
f 4 18 6
f 4 6 5
f 6 18 19
f 6 19 20
f 6 20 21
f 6 21 7
f 7 21 22
f 7 22 8
f 8 22 23
f 8 23 24
f 8 24 9
f 9 24 11
f 10 13 26
f 10 26 25
f 11 24 26
f 11 26 12
f 12 26 13
f 14 27 28
f 14 28 15
f 15 29 16
f 15 28 29
f 16 29 17
f 17 19 18
f 17 29 35
f 17 35 42
f 17 42 52
f 17 52 63
f 17 63 72
f 17 72 71
f 17 71 80
f 17 80 82
f 17 82 81
f 17 81 75
f 17 75 68
f 17 68 65
f 17 65 57
f 17 57 46
f 17 46 38
f 17 38 32
f 17 32 26
f 17 26 23
f 17 23 21
f 17 21 20
f 17 20 19
f 21 23 22
f 23 26 24
f 25 30 31
f 25 26 32
f 25 32 30
f 27 33 34
f 27 34 28
f 28 34 29
f 29 34 35
f 30 36 31
f 30 32 36
f 31 36 37
f 32 38 39
f 32 39 36
f 33 40 34
f 34 40 41
f 34 41 42
f 34 42 35
f 36 43 37
f 36 39 44
f 36 44 43
f 37 43 45
f 38 46 47
f 38 47 48
f 38 48 49
f 38 49 50
f 38 50 39
f 39 50 44
f 40 51 41
f 41 51 52
f 41 52 42
f 43 53 54
f 43 54 45
f 43 44 53
f 44 50 49
f 44 49 48
f 44 48 55
f 44 55 56
f 44 56 53
f 46 57 58
f 46 58 59
f 46 59 60
f 46 60 55
f 46 55 61
f 46 61 47
f 47 61 55
f 47 55 48
f 51 62 63
f 51 63 52
f 53 56 64
f 53 64 54
f 55 60 65
f 55 65 56
f 56 66 67
f 56 67 64
f 56 65 68
f 56 68 66
f 57 65 58
f 58 65 59
f 59 65 60
f 62 69 70
f 62 70 71
f 62 71 72
f 62 72 63
f 64 67 73
f 64 73 74
f 66 68 67
f 67 68 73
f 68 75 76
f 68 76 77
f 68 77 73
f 69 78 79
f 69 79 70
f 70 79 71
f 71 79 80
f 73 77 78
f 73 78 74
f 75 81 76
f 76 81 77
f 77 79 78
f 77 81 82
f 77 82 79
f 79 82 80

