# https://github.com/mikedh/trimesh
v 0.15435240 2.12129065 0.70322127
v 0.15435240 2.12101885 0.70257274
v 0.15417257 2.12103289 0.70322127
v 0.15435240 2.07341377 0.70322127
v 0.15435240 2.10663139 0.67713669
v 0.14757279 2.10584877 0.70322127
v 0.14838372 2.08911809 0.70322127
v 0.15435240 2.07764097 0.69514773
v 0.15411684 2.10584877 0.67713669
v 0.15435240 2.08796523 0.67713669
v 0.15410086 2.09144728 0.67713669
v 0.15412476 2.08918371 0.67713669
f 1 2 3
f 1 3 6
f 1 6 7
f 1 7 4
f 1 4 8
f 1 8 10
f 1 10 5
f 1 5 2
f 2 5 3
f 3 5 6
f 4 7 8
f 5 9 6
f 5 10 12
f 5 12 11
f 5 11 9
f 6 9 11
f 6 11 12
f 6 12 7
f 7 12 10
f 7 10 8

