# https://github.com/mikedh/trimesh
v 0.38149989 2.05360951 1.23645776
v 0.38149989 2.11157445 1.23645776
v 0.40611556 2.06089380 1.23645776
v 0.40611556 2.06589315 1.44283263
v 0.38149989 2.05868906 1.44283263
v 0.40611556 2.10916927 1.23645776
v 0.38149989 2.11207266 1.41990209
v 0.40611556 2.10969612 1.42020512
v 0.40611556 2.10975340 1.44283263
v 0.38149989 2.11210702 1.44283263
v 0.38149989 2.11210702 1.44271139
v 0.40611556 2.10974767 1.43974154
f 1 2 6
f 1 6 3
f 1 3 4
f 1 4 5
f 1 5 10
f 1 10 11
f 1 11 7
f 1 7 2
f 2 7 8
f 2 8 6
f 3 6 8
f 3 8 12
f 3 12 9
f 3 9 4
f 4 9 10
f 4 10 5
f 7 11 9
f 7 9 12
f 7 12 8
f 9 11 10

