# https://github.com/mikedh/trimesh
v -2.181167215 -0.24443235000000002 1.2399616
v -2.181167215 -0.26110835 1.2399616
v -2.181276535 -0.22777323 1.2399616
v -2.181276535 -0.22777323 1.24265705
v -2.181440545 -0.22776479 1.37628176
v -2.181394985 -0.24443235000000002 1.37628176
v -2.184857165 -0.27279927 1.2399616
v -2.181394985 -0.24466011000000001 1.37628176
v -2.1814769849999998 -0.26109993 1.37628176
v -2.185740985 -0.27479836 1.37628176
v -2.1827342849999996 -0.21109722 1.2399616
v -2.182843665 -0.21108878 1.37628176
v -2.1855678449999996 -0.27503454 1.2399616
v -2.1982595849999997 -0.28144515000000003 1.37628176
v -2.187654275 -0.27635041 1.2399616
v -2.1870256049999997 -0.20032573 1.2399616
v -2.1870256049999997 -0.20032573 1.24265705
v -2.187052975 -0.20030044000000002 1.37628176
v -2.214905475 -0.28338519 1.37628176
v -2.202186425 -0.28239831 1.2399616
v -2.198296025 -0.28191751 1.2399616
v -2.196428235 -0.19801454000000002 1.2399616
v -2.198232205 -0.19750001 1.37605491
v -2.1872169249999995 -0.20025824 1.37628176
v -2.2315696249999997 -0.28317433000000003 1.37628176
v -2.219388115 -0.28336833 1.2399616
v -2.214905475 -0.28340207 1.2399616
v -2.198232205 -0.19757590000000003 1.2399616
v -2.198460035 -0.19749157 1.37628176
v -2.198232205 -0.19750001 1.37628176
v -2.244598445 -0.27590335 1.37628176
v -2.245573345 -0.27602988 1.2399616
v -2.2354418349999996 -0.28137767 1.2399616
v -2.2315696249999997 -0.28282006 1.2399616
v -2.212226805 -0.19737348 1.2399616
v -2.214905475 -0.19723851 1.37605491
v -2.214905475 -0.19723851 1.37628176
v -2.262374125 -0.2566125 1.37628176
v -2.2626747849999997 -0.25754035000000003 1.2399616
v -2.214905475 -0.19733972 1.2399616
v -2.215142375 -0.19723851 1.37628176
v -2.270993195 -0.2452843 1.37628176
v -2.2734076549999997 -0.24440705000000001 1.2399616
v -2.2315696249999997 -0.19756749 1.2399616
v -2.231797395 -0.1974494 1.37628176
v -2.271621875 -0.24379974000000001 1.37628176
v -2.2742458549999998 -0.23462244000000002 1.2399616
v -2.245564225 -0.19782896 1.2399616
v -2.2482428949999997 -0.19775304 1.37605491
v -2.2482428949999997 -0.19775304 1.37628176
v -2.272952055 -0.2278407 1.37628176
v -2.2742458549999998 -0.22936745 1.2399616
v -2.2482428949999997 -0.19787957 1.2399616
v -2.2615359249999996 -0.20037633 1.29268293
v -2.2614812349999998 -0.20034261 1.37605491
v -2.2594130549999996 -0.19999677999999999 1.2399616
v -2.261545055 -0.20040165 1.24265705
v -2.2614812349999998 -0.20034261 1.37628176
v -2.272942985 -0.22695503 1.37628176
v -2.2692529849999996 -0.21109722 1.37628176
v -2.270610535 -0.21381329 1.2399616
v -2.261636125 -0.20038477 1.34269543
v -2.261545055 -0.20041008999999999 1.2399616
v -2.263130385 -0.2022236 1.2399616
v -2.261572375 -0.20037633 1.35936184
v -2.2693896749999998 -0.21108878 1.34269543
v -2.2696265749999998 -0.21102133 1.2399616
f 1 2 7
f 1 7 13
f 1 13 15
f 1 15 21
f 1 21 20
f 1 20 27
f 1 27 26
f 1 26 34
f 1 34 33
f 1 33 32
f 1 32 39
f 1 39 43
f 1 43 47
f 1 47 52
f 1 52 61
f 1 61 67
f 1 67 64
f 1 64 63
f 1 63 56
f 1 56 53
f 1 53 48
f 1 48 44
f 1 44 40
f 1 40 35
f 1 35 28
f 1 28 22
f 1 22 16
f 1 16 11
f 1 11 3
f 1 3 4
f 1 4 5
f 1 5 6
f 1 6 8
f 1 8 2
f 2 8 9
f 2 9 10
f 2 10 7
f 3 11 4
f 4 11 12
f 4 12 5
f 5 12 18
f 5 18 24
f 5 24 30
f 5 30 29
f 5 29 37
f 5 37 41
f 5 41 45
f 5 45 50
f 5 50 58
f 5 58 60
f 5 60 59
f 5 59 51
f 5 51 46
f 5 46 42
f 5 42 38
f 5 38 31
f 5 31 25
f 5 25 19
f 5 19 14
f 5 14 10
f 5 10 9
f 5 9 8
f 5 8 6
f 7 10 13
f 10 14 15
f 10 15 13
f 11 16 17
f 11 17 18
f 11 18 12
f 14 19 20
f 14 20 21
f 14 21 15
f 16 22 23
f 16 23 24
f 16 24 18
f 16 18 17
f 19 25 26
f 19 26 27
f 19 27 20
f 22 28 23
f 23 29 30
f 23 30 24
f 23 28 29
f 25 31 32
f 25 32 33
f 25 33 34
f 25 34 26
f 28 35 36
f 28 36 29
f 29 36 37
f 31 38 39
f 31 39 32
f 35 40 36
f 36 41 37
f 36 40 41
f 38 42 43
f 38 43 39
f 40 44 45
f 40 45 41
f 42 46 43
f 43 46 47
f 44 48 49
f 44 49 45
f 45 49 50
f 46 51 47
f 47 51 52
f 48 53 49
f 49 54 55
f 49 55 58
f 49 58 50
f 49 53 56
f 49 56 57
f 49 57 54
f 51 59 52
f 52 59 60
f 52 60 61
f 54 62 55
f 54 57 62
f 55 62 58
f 56 63 57
f 57 63 64
f 57 64 62
f 58 62 65
f 58 65 66
f 58 66 60
f 60 66 61
f 61 66 67
f 62 66 65
f 62 64 67
f 62 67 66

