# https://github.com/mikedh/trimesh
v -2.1300506500000003 -0.29961114 0.18868249
v -2.11817093 -0.29961114 0.18625211
v -2.13344245 -0.29961114 0.18812801
v -2.1404255 -0.4699131 0.18484749
v -2.1300506500000003 -0.4699131 0.18601187
v -2.11879227 -0.4699131 0.18481976
v -2.1015141799999997 -0.29961114 0.17321308
v -2.1148019099999997 -0.4699131 0.18247258
v -2.11045251 -0.4699131 0.17985736
v -2.11044112 -0.46122627 0.17990359
v -2.1102245 -0.39451605 0.18005144
v -2.14144017 -0.29961114 0.18607652
v -2.14604043 -0.4699131 0.17531079
v -2.09139585 -0.29961114 0.16519192
v -2.09139585 -0.4699131 0.16430475
v -2.14312182 -0.29961114 0.18300851
v -2.1478475 -0.4699131 0.16662427
v -2.14679859 -0.29961114 0.17531079
v -2.09139585 -0.29961114 0.11398763
v -2.09139585 -0.4699131 0.11819229
v -2.14950064 -0.4699131 0.15864002
v -2.14767651 -0.29961114 0.17019129
v -2.14962606 -0.36118595 0.15864002
v -2.14951776 -0.46122627 0.15864002
v -2.09288939 -0.29961114 0.11136318
v -2.1032642399999997 -0.4699131 0.09895253
v -2.1493979999999997 -0.4699131 0.14994426
v -2.1493353099999997 -0.29961114 0.15864002
v -2.14957471 -0.32782251 0.15864002
v -2.1495804400000003 -0.29961114 0.14196007
v -2.09478765 -0.29961114 0.1086186
v -2.11337684 -0.4699131 0.09685483
v -2.11337684 -0.29961114 0.09596772
v -2.11031569 -0.29961114 0.09669773
v -2.10320149 -0.34451257 0.09879544
v -2.14909019 -0.4699131 0.12528931
v -2.14949491 -0.29961114 0.13684058
v -2.14910158 -0.46122627 0.12528931
v -2.1031502 -0.29961114 0.09904491
v -2.1300506500000003 -0.4699131 0.09582905
v -2.1300506500000003 -0.29961114 0.09427659
v -2.12492024 -0.29961114 0.09466474
v -2.1479273 -0.4699131 0.11660279
v -2.1472432699999997 -0.29961114 0.1086186
v -2.14928969 -0.29961114 0.12528931
v -2.13551743 -0.4699131 0.09682709
v -2.1419360899999997 -0.29961114 0.09735384
v -2.14150858 -0.4699131 0.09792676
v -2.1468157100000003 -0.4699131 0.1086186
v -2.14405097 -0.4699131 0.10302782
f 1 2 7
f 1 7 14
f 1 14 19
f 1 19 25
f 1 25 31
f 1 31 39
f 1 39 34
f 1 34 33
f 1 33 42
f 1 42 41
f 1 41 47
f 1 47 44
f 1 44 45
f 1 45 37
f 1 37 30
f 1 30 28
f 1 28 22
f 1 22 18
f 1 18 16
f 1 16 12
f 1 12 3
f 1 3 4
f 1 4 5
f 1 5 6
f 1 6 2
f 2 6 8
f 2 8 9
f 2 9 10
f 2 10 11
f 2 11 7
f 3 12 4
f 4 13 17
f 4 17 21
f 4 21 27
f 4 27 36
f 4 36 43
f 4 43 49
f 4 49 50
f 4 50 48
f 4 48 46
f 4 46 40
f 4 40 32
f 4 32 26
f 4 26 20
f 4 20 15
f 4 15 9
f 4 9 8
f 4 8 6
f 4 6 5
f 4 12 13
f 7 11 14
f 9 15 10
f 10 15 14
f 10 14 11
f 12 16 13
f 13 16 18
f 13 18 17
f 14 15 20
f 14 20 19
f 17 18 21
f 18 22 23
f 18 23 24
f 18 24 21
f 19 20 25
f 20 26 25
f 21 24 27
f 22 28 29
f 22 29 23
f 23 29 30
f 23 30 24
f 24 30 27
f 25 26 31
f 26 32 33
f 26 33 34
f 26 34 35
f 26 35 31
f 27 30 36
f 28 30 29
f 30 37 38
f 30 38 36
f 31 35 39
f 32 40 41
f 32 41 42
f 32 42 33
f 34 39 35
f 36 38 44
f 36 44 43
f 37 45 38
f 38 45 44
f 40 46 41
f 41 46 48
f 41 48 47
f 43 44 49
f 44 47 49
f 47 48 50
f 47 50 49

