# https://github.com/mikedh/trimesh
v 0.78719548 1.93386882 0.89679446
v 0.77565992 1.92233555 0.89674988
v 0.78719548 1.91722059 0.89679446
v 0.78719548 1.94156586 0.89678809
v 0.77565992 1.93900837 0.89673715
v 0.75878482 1.92233555 0.89665436
v 0.75878482 1.90571191 0.89666073
v 0.75878482 1.78784639 0.89662889
v 0.78719548 1.90057236 0.89678809
v 0.75692692 1.94269705 0.89663526
v 0.78719548 1.94269705 0.89678172
v 0.78510346 2.00567506 0.89667347
v 0.78510346 1.99846984 0.89669894
v 0.78510346 1.98902683 0.89672441
v 0.75692692 1.98902683 0.89659068
v 0.75878482 1.78784639 0.84773614
v 0.77565992 1.78784639 0.89666073
v 0.78719548 1.78784639 0.89667984
v 0.75692692 1.94269705 0.83708901
v 0.78510346 2.03906989 0.88836336
v 0.78510346 2.03902071 0.89630413
v 0.78510346 2.03179090 0.89642512
v 0.78510346 2.02234788 0.89655885
v 0.78510346 2.01511808 0.89660979
v 0.78719548 1.94269705 0.83219209
v 0.75692692 2.02234788 0.89646970
v 0.75692692 2.00567506 0.89655885
v 0.75899820 1.78784639 0.83699985
v 0.75878482 1.78787098 0.83699985
v 0.78719548 1.78784639 0.84867222
v 0.78719548 1.83897145 0.83173997
v 0.75692692 1.97235401 0.83708901
v 0.77565992 2.03906989 0.89625955
v 0.78510346 2.03906989 0.87048228
v 0.75692692 2.03906989 0.89621498
v 0.78719548 1.92248310 0.83196921
v 0.78510346 2.03902071 0.83301355
v 0.77648074 1.78784639 0.83573265
v 0.78719548 1.78787098 0.83188007
v 0.78719548 1.90568732 0.83183549
v 0.75692692 1.98902683 0.83710175
v 0.77560955 2.03906989 0.83644585
v 0.75692692 2.03906989 0.83724820
f 1 2 3
f 1 3 9
f 1 9 18
f 1 18 30
f 1 30 39
f 1 39 31
f 1 31 40
f 1 40 36
f 1 36 25
f 1 25 11
f 1 11 4
f 1 4 5
f 1 5 2
f 2 6 7
f 2 7 8
f 2 8 9
f 2 9 3
f 2 5 10
f 2 10 6
f 4 11 12
f 4 12 13
f 4 13 14
f 4 14 5
f 5 14 15
f 5 15 10
f 6 10 7
f 7 10 8
f 8 16 28
f 8 28 38
f 8 38 30
f 8 30 18
f 8 18 17
f 8 17 9
f 8 10 19
f 8 19 16
f 9 17 18
f 10 15 27
f 10 27 26
f 10 26 35
f 10 35 43
f 10 43 41
f 10 41 32
f 10 32 19
f 11 20 21
f 11 21 22
f 11 22 23
f 11 23 24
f 11 24 12
f 11 25 34
f 11 34 20
f 12 24 26
f 12 26 27
f 12 27 13
f 13 27 14
f 14 27 15
f 16 19 29
f 16 29 28
f 19 31 29
f 19 32 31
f 20 33 21
f 20 34 42
f 20 42 43
f 20 43 35
f 20 35 33
f 21 33 35
f 21 35 22
f 22 26 23
f 22 35 26
f 23 26 24
f 25 36 37
f 25 37 34
f 28 29 39
f 28 39 38
f 29 31 39
f 30 38 39
f 31 32 41
f 31 41 40
f 34 37 42
f 36 40 37
f 37 43 42
f 37 40 43
f 40 41 43

