# https://github.com/mikedh/trimesh
v -2.33285737 1.59953099 0.56851756
v -2.33753548 1.59953099 0.56851756
v -2.31470866 1.58901251 0.56851756
v -2.31470866 1.59953099 0.56849863
v -2.34811786 1.59953099 0.56850808
v -2.34811786 1.58893231 0.56851756
v -2.28874955 1.58901251 0.56847971
v -2.34811786 1.57227231 0.56851756
v -2.29804181 1.57235250 0.56849863
v -2.28874955 1.59953099 0.56846078
v -2.34811786 1.59953099 0.53199062
v -2.28874955 1.57235250 0.56847971
v -2.34811786 1.55562376 0.56846078
v -2.34803069 1.55569252 0.56847023
v -2.28874955 1.55569252 0.56844186
v -2.28874955 1.59953099 0.47681708
v -2.34805975 1.59953099 0.51068563
v -2.34811786 1.58901251 0.51059101
v -2.34811786 1.53895231 0.56828104
v -2.28874955 1.53903251 0.56829997
v -2.28874955 1.58901251 0.47689277
v -2.29461315 1.59953099 0.47367624
v -2.32375105 1.59953099 0.47736580
v -2.34811786 1.53903251 0.48828319
v -2.34811786 1.52228085 0.56800668
v -2.28874955 1.52236105 0.56807290
v -2.28874955 1.57262751 0.47709144
v -2.29804181 1.59953099 0.47188821
v -2.31470866 1.59953099 0.47236124
v -2.34811786 1.52236105 0.48485852
v -2.34811786 1.50564378 0.56730659
v -2.34803069 1.50570106 0.56731607
v -2.28874955 1.50570106 0.56745799
v -2.28874955 1.57234105 0.47710092
v -2.29804181 1.57235250 0.47246531
v -2.29804181 1.58901251 0.47203013
v -2.31470866 1.57235250 0.47251257
v -2.31470866 1.58901251 0.47238961
v -2.34811786 1.50570106 0.48396921
v -2.34811786 1.49381908 0.56426980
v -2.34803069 1.49384197 0.56431710
v -2.28874955 1.49384197 0.56440224
v -2.28909240 1.56283087 0.47761179
v -2.28874955 1.50570106 0.48400706
v -2.29804181 1.50570106 0.48392195
v -2.31470866 1.50570106 0.48385573
v -2.34811786 1.48994623 0.48938064
v -2.34811786 1.48699006 0.55345645
v -2.34803069 1.48701298 0.55352267
v -2.28874955 1.49086290 0.55965308
v -2.28874955 1.49699293 0.48697766
v -2.28874955 1.49007227 0.48939006
v -2.31470866 1.49001499 0.48937117
v -2.34803069 1.48994623 0.48938064
v -2.34803069 1.48247560 0.50354297
v -2.34811786 1.48252143 0.50347675
v -2.28874955 1.48711609 0.55352267
v -2.34811786 1.48326620 0.53678710
v -2.34803069 1.48326620 0.53686277
v -2.28874955 1.48544325 0.54615297
v -2.28874955 1.48594739 0.49728011
v -2.28874955 1.48268183 0.50354297
v -2.28874955 1.48273914 0.51283314
v -2.28874955 1.48279642 0.52020287
v -2.34811786 1.48263602 0.52013665
v -2.31470866 1.48338079 0.53686277
v -2.28874955 1.48348391 0.53686277
f 1 2 6
f 1 6 8
f 1 8 3
f 1 3 4
f 1 4 10
f 1 10 16
f 1 16 22
f 1 22 28
f 1 28 29
f 1 29 23
f 1 23 17
f 1 17 11
f 1 11 5
f 1 5 2
f 2 5 6
f 3 7 10
f 3 10 4
f 3 8 9
f 3 9 7
f 5 11 18
f 5 18 24
f 5 24 30
f 5 30 39
f 5 39 47
f 5 47 56
f 5 56 65
f 5 65 58
f 5 58 48
f 5 48 40
f 5 40 31
f 5 31 25
f 5 25 19
f 5 19 13
f 5 13 8
f 5 8 6
f 7 9 12
f 7 12 15
f 7 15 20
f 7 20 26
f 7 26 33
f 7 33 42
f 7 42 50
f 7 50 57
f 7 57 60
f 7 60 67
f 7 67 64
f 7 64 63
f 7 63 62
f 7 62 61
f 7 61 52
f 7 52 51
f 7 51 44
f 7 44 34
f 7 34 27
f 7 27 21
f 7 21 16
f 7 16 10
f 8 13 14
f 8 14 9
f 9 14 15
f 9 15 12
f 11 17 18
f 13 19 14
f 14 19 20
f 14 20 15
f 16 21 22
f 17 23 24
f 17 24 18
f 19 25 26
f 19 26 20
f 21 27 22
f 22 27 28
f 23 29 30
f 23 30 24
f 25 31 32
f 25 32 33
f 25 33 26
f 27 34 35
f 27 35 36
f 27 36 28
f 28 36 37
f 28 37 38
f 28 38 29
f 29 38 39
f 29 39 30
f 31 33 32
f 31 40 41
f 31 41 33
f 33 41 42
f 34 43 35
f 34 44 43
f 35 37 36
f 35 43 44
f 35 44 45
f 35 45 46
f 35 46 37
f 37 46 39
f 37 39 38
f 39 46 47
f 40 48 49
f 40 49 41
f 41 49 42
f 42 49 50
f 44 51 45
f 45 51 46
f 46 51 52
f 46 52 53
f 46 53 54
f 46 54 47
f 47 54 55
f 47 55 56
f 48 57 49
f 48 58 59
f 48 59 60
f 48 60 57
f 49 57 50
f 52 61 55
f 52 55 53
f 53 55 54
f 55 61 62
f 55 62 63
f 55 63 64
f 55 64 65
f 55 65 56
f 58 65 59
f 59 65 64
f 59 64 66
f 59 66 60
f 60 66 67
f 64 67 66

