# https://github.com/mikedh/trimesh
v -0.47887714000000003 -0.62333208 1.1717463
v -0.46075763000000003 -0.62333208 1.14820282
v -0.47887714000000003 -0.62333208 1.22753301
v -0.47887714000000003 -0.32720186 1.17905345
v -0.44567368000000007 -0.62333208 1.14532748
v -0.45419195 -0.34740573 1.15070135
v -0.45438811 -0.3612035 1.15047198
v -0.44567368000000007 -0.3612035 1.14749014
v -0.44567368000000007 -0.37787097000000003 1.14725257
v -0.44567368000000007 -0.39456743 1.14707235
v -0.45767942000000006 -0.62333208 1.22750023
v -0.47887714000000003 -0.5946350499999999 1.22754119
v -0.47887714000000003 -0.32720186 1.2274347
v -0.4538764500000001 -0.32720186 1.15215132
v -0.45400438 -0.33630375 1.1509553
v -0.42902075000000006 -0.54460365 1.14445914
v -0.42902075000000006 -0.62333208 1.1445984
v -0.42901221999999994 -0.32720186 1.14462297
v -0.42901221999999994 -0.41120591 1.14436085
v -0.42901221999999994 -0.42790237 1.14433626
v -0.44539229 -0.32720186 1.14798984
v -0.4409924300000001 -0.62333208 1.22742652
v -0.42902075000000006 -0.61130252 1.22738554
v -0.44567368000000007 -0.41120591 1.2274347
v -0.46234361 -0.39456743 1.22749205
v -0.47887714000000003 -0.39456743 1.22754119
v -0.47887714000000003 -0.32769464000000004 1.22744289
v -0.47825465999999994 -0.32720186 1.2274347
v -0.45365476000000005 -0.32720186 1.15191375
v -0.4170150100000001 -0.62333208 1.14416424
v -0.4123337600000001 -0.32720186 1.14409869
v -0.4123337600000001 -0.42790237 1.14386114
v -0.4123508200000001 -0.62333208 1.14402498
v -0.42902075000000006 -0.62333208 1.22735278
v -0.4123508200000001 -0.61130252 1.22722991
v -0.41234229 -0.52793618 1.22721352
v -0.42901221999999994 -0.41120591 1.2273282
v -0.42839833000000005 -0.32720186 1.22726267
v -0.44567368000000007 -0.39456743 1.22741832
v -0.4450597300000001 -0.32720186 1.2273364
v -0.46172966000000004 -0.32720186 1.22739374
v -0.47887714000000003 -0.37772604 1.22751662
v -0.47887714000000003 -0.36102958 1.22749205
v -0.39969702000000007 -0.32720186 1.1473181
v -0.39929623000000003 -0.42790237 1.14730992
v -0.39924505 -0.62333208 1.14735088
v -0.42433955999999995 -0.62333208 1.22730362
v -0.4123508200000001 -0.62333208 1.22717256
v -0.3985885200000001 -0.61130252 1.22236392
v -0.39857999 -0.5892434799999999 1.22236392
v -0.39857999 -0.57793859 1.22236392
v -0.3986055800000001 -0.41120591 1.22235574
v -0.39850323 -0.32720186 1.22230658
v -0.4123337600000001 -0.41120591 1.22717256
v -0.4123337600000001 -0.32720186 1.22710702
v -0.4123337600000001 -0.37787097000000003 1.22714799
v -0.3992024700000001 -0.32720186 1.14744918
v -0.3932933300000001 -0.62333208 1.15927006
v -0.39331037999999996 -0.32720186 1.15881952
v -0.39308870000000007 -0.32783957 1.15926188
v -0.3986482200000001 -0.62333208 1.22232296
v -0.3926538500000001 -0.61130252 1.20927331
v -0.39263679000000007 -0.5946350499999999 1.20927331
v -0.39244915999999996 -0.32783957 1.20928149
v -0.39850323 -0.32783957 1.22230658
v -0.39244915999999996 -0.32720186 1.20928149
v -0.39207402000000013 -0.61130252 1.17594873
v -0.3921166600000001 -0.62333208 1.17594873
v -0.39176703999999996 -0.32720186 1.17594054
v -0.39308870000000007 -0.32720186 1.15926188
v -0.39274761 -0.62333208 1.20927331
v -0.3921507799999999 -0.62333208 1.19259464
v -0.3920996000000001 -0.61130252 1.19259464
v -0.39183527000000007 -0.32783957 1.19260282
v -0.39183527000000007 -0.32720186 1.19260282
v -0.3918267500000001 -0.32720186 1.19198024
f 1 2 5
f 1 5 17
f 1 17 30
f 1 30 33
f 1 33 46
f 1 46 58
f 1 58 68
f 1 68 72
f 1 72 71
f 1 71 61
f 1 61 48
f 1 48 47
f 1 47 34
f 1 34 22
f 1 22 11
f 1 11 3
f 1 3 12
f 1 12 26
f 1 26 42
f 1 42 43
f 1 43 27
f 1 27 13
f 1 13 4
f 1 4 2
f 2 4 6
f 2 6 7
f 2 7 8
f 2 8 9
f 2 9 10
f 2 10 5
f 3 11 12
f 4 13 28
f 4 28 41
f 4 41 40
f 4 40 38
f 4 38 55
f 4 55 53
f 4 53 66
f 4 66 75
f 4 75 76
f 4 76 69
f 4 69 70
f 4 70 59
f 4 59 57
f 4 57 44
f 4 44 31
f 4 31 18
f 4 18 21
f 4 21 29
f 4 29 14
f 4 14 15
f 4 15 6
f 5 16 17
f 5 10 18
f 5 18 19
f 5 19 20
f 5 20 16
f 6 15 21
f 6 21 7
f 7 21 8
f 8 21 18
f 8 18 9
f 9 18 10
f 11 22 23
f 11 23 24
f 11 24 25
f 11 25 26
f 11 26 12
f 13 27 28
f 14 29 15
f 15 29 21
f 16 30 17
f 16 20 30
f 18 31 19
f 19 31 32
f 19 32 20
f 20 32 33
f 20 33 30
f 22 34 23
f 23 34 35
f 23 35 36
f 23 36 37
f 23 37 24
f 24 37 38
f 24 38 39
f 24 39 25
f 25 39 40
f 25 40 41
f 25 41 26
f 26 41 42
f 27 43 41
f 27 41 28
f 31 44 32
f 32 44 45
f 32 45 46
f 32 46 33
f 34 47 35
f 35 47 48
f 35 48 49
f 35 49 50
f 35 50 51
f 35 51 52
f 35 52 53
f 35 53 36
f 36 53 54
f 36 54 37
f 37 54 38
f 38 40 39
f 38 54 56
f 38 56 55
f 41 43 42
f 44 57 45
f 45 57 46
f 46 57 59
f 46 59 60
f 46 60 58
f 48 61 49
f 49 62 63
f 49 63 64
f 49 64 50
f 49 61 62
f 50 64 65
f 50 65 53
f 50 53 51
f 51 53 52
f 53 55 56
f 53 56 54
f 53 65 64
f 53 64 66
f 58 67 68
f 58 60 69
f 58 69 67
f 59 70 60
f 60 70 69
f 61 71 62
f 62 71 72
f 62 72 73
f 62 73 63
f 63 73 74
f 63 74 64
f 64 74 75
f 64 75 66
f 67 73 68
f 67 69 73
f 68 73 72
f 69 76 73
f 73 76 74
f 74 76 75

