# https://github.com/mikedh/trimesh
v -1.6130219399999999 -0.26111342 1.94223231
v -1.6130219399999999 -0.27647704 1.94685373
v -1.86321535 -0.26111342 1.94234783
v -1.86321535 -0.24443941 1.94314887
v -1.27036722 -0.26111342 1.94238636
v -1.52973414 -0.27645579 1.94686143
v -1.7130729 -0.27642037 1.94692304
v -1.82982103 -0.27615121 1.94689226
v -1.4630115099999998 -0.2849203 1.95219151
v -1.56306246 -0.28489904 1.95222229
v -1.86321535 -0.27608038 1.94690765
v -1.94445727 -0.26111342 1.94265594
v -1.94445727 -0.24652190000000002 1.94328754
v -1.87984651 -0.24443941 1.94316432
v -1.87984651 -0.23282286000000002 1.947701
v -1.84651822 -0.24443941 1.94315657
v -1.27036722 -0.24443941 1.94348782
v -1.27036722 -0.27585372 1.94695387
v -1.44631435 -0.27656911 1.94698465
v -1.4630115099999998 -0.27658329 1.94697695
v -1.7130729 -0.28475738 1.95239948
v -1.44631435 -0.28490612 1.95219921
v -1.7130729 -0.3007939 1.96309806
v -1.72977008 -0.3007939 1.96311345
v -1.86321535 -0.3007939 1.96339078
v -1.87984651 -0.27599538 1.94695387
v -1.94445727 -0.26290549 1.94321048
v -1.94445727 -0.24443941 1.94338768
v -1.94445727 -0.23415451 1.94726198
v -1.94445727 -0.23269536000000002 1.94781652
v -1.84651822 -0.23282994 1.94772408
v -1.86321535 -0.23282994 1.94770869
v -1.27036722 -0.23945279 1.94552123
v -1.27036722 -0.3007939 1.97087744
v -1.42968319 -0.29350522 1.9606641
v -1.42968319 -0.28476446 1.95232243
v -1.68020656 -0.3007939 1.96332911
v -1.69070003 -0.3007939 1.96321359
v -1.87984651 -0.3007939 1.963514
v -1.94445727 -0.27538622 1.94708478
v -1.94445727 -0.22926705 1.95827636
v -1.82982103 -0.23282286000000002 1.94775491
v -1.27036722 -0.23328326 1.94805533
v -1.27036722 -0.3007939 2.0209121
v -1.89647767 -0.3007939 1.96373736
v -1.94307133 -0.3007939 1.96579391
v -1.94445727 -0.3007939 1.96600188
v -1.92848604 -0.3007939 1.96471554
v -1.94445727 -0.22881372 1.95975523
v -1.27036722 -0.23047121 1.95975523
v -1.5463653 -0.3007939 2.02091985
v -1.27036722 -0.29446145 2.02088908
v -1.5463653 -0.27778744 2.02085055
v -1.94445727 -0.3007939 2.02078125
v -1.94445727 -0.22846664 1.97435125
v -1.27036722 -0.23059163 1.97643088
v -1.94445727 -0.22843123 1.97643088
v -1.81312385 -0.3007939 2.02086594
v -1.59639078 -0.27778744 2.02085055
v -1.81312385 -0.26111342 2.02079663
v -1.81312385 -0.27778744 2.0208428
v -1.27036722 -0.28523904 2.0208428
v -1.41298602 -0.26111342 2.02075811
v -1.41298602 -0.27778744 2.02083516
v -1.4630115099999998 -0.26111342 2.02076586
v -1.5463653 -0.26111342 2.02077349
v -1.79649268 -0.26111342 2.02079663
v -1.94445727 -0.26111342 2.02078125
v -1.82982103 -0.3007939 2.02085818
v -1.27036722 -0.23072621000000001 1.99309884
v -1.94445727 -0.22868622 1.99309884
v -1.94445727 -0.24443941 2.01988007
v -1.27036722 -0.27778744 2.02080427
v -1.27036722 -0.26855794 2.02074272
v -1.27036722 -0.26111342 2.0206888
v -1.27036722 -0.23192328 2.00025437
v -1.94445727 -0.23192328 2.0097745
v -1.27036722 -0.23341785 2.00909668
v -1.94445727 -0.24334151 2.01971832
v -1.27954074 -0.24572857 2.01937168
v -1.27036722 -0.24577106 2.01936393
v -1.94445727 -0.23555699000000002 2.01855519
v -1.81312385 -0.23579782 2.01837031
v -1.29623789 -0.23730656 2.01750002
v -1.27036722 -0.23518866 2.01282468
v -1.27036722 -0.23742697000000001 2.01743835
v -1.27954074 -0.23738448 2.01746149
f 1 2 3
f 1 3 4
f 1 4 5
f 1 5 6
f 1 6 2
f 2 7 8
f 2 8 3
f 2 6 9
f 2 9 10
f 2 10 7
f 3 8 11
f 3 11 12
f 3 12 13
f 3 13 14
f 3 14 4
f 4 14 15
f 4 15 16
f 4 16 5
f 5 17 33
f 5 33 43
f 5 43 50
f 5 50 56
f 5 56 70
f 5 70 76
f 5 76 78
f 5 78 85
f 5 85 86
f 5 86 81
f 5 81 75
f 5 75 74
f 5 74 73
f 5 73 62
f 5 62 52
f 5 52 44
f 5 44 34
f 5 34 18
f 5 18 19
f 5 19 6
f 5 16 17
f 6 19 20
f 6 20 9
f 7 10 8
f 8 10 21
f 8 21 11
f 9 20 19
f 9 19 22
f 9 22 23
f 9 23 10
f 10 23 24
f 10 24 21
f 11 21 24
f 11 24 25
f 11 25 26
f 11 26 12
f 12 26 27
f 12 27 40
f 12 40 47
f 12 47 54
f 12 54 68
f 12 68 72
f 12 72 79
f 12 79 82
f 12 82 77
f 12 77 71
f 12 71 57
f 12 57 55
f 12 55 49
f 12 49 41
f 12 41 30
f 12 30 29
f 12 29 28
f 12 28 13
f 13 28 14
f 14 28 29
f 14 29 30
f 14 30 15
f 15 30 31
f 15 31 32
f 15 32 17
f 15 17 16
f 17 32 33
f 18 34 35
f 18 35 36
f 18 36 22
f 18 22 19
f 22 36 37
f 22 37 38
f 22 38 23
f 23 38 37
f 23 37 34
f 23 34 44
f 23 44 51
f 23 51 58
f 23 58 69
f 23 69 54
f 23 54 47
f 23 47 46
f 23 46 48
f 23 48 45
f 23 45 39
f 23 39 25
f 23 25 24
f 25 39 26
f 26 40 27
f 26 39 40
f 30 41 42
f 30 42 31
f 31 42 43
f 31 43 32
f 32 43 33
f 34 37 35
f 35 37 36
f 39 45 40
f 40 46 47
f 40 45 48
f 40 48 46
f 41 49 43
f 41 43 42
f 43 49 50
f 44 52 53
f 44 53 51
f 49 55 50
f 50 55 57
f 50 57 56
f 51 53 59
f 51 59 60
f 51 60 61
f 51 61 58
f 52 62 63
f 52 63 64
f 52 64 53
f 53 65 66
f 53 66 67
f 53 67 60
f 53 60 59
f 53 64 65
f 54 69 68
f 56 57 70
f 57 71 70
f 58 61 68
f 58 68 69
f 60 67 72
f 60 72 68
f 60 68 61
f 62 73 63
f 63 65 64
f 63 73 74
f 63 74 75
f 63 75 72
f 63 72 65
f 65 72 66
f 66 72 67
f 70 71 76
f 71 77 78
f 71 78 76
f 72 75 80
f 72 80 79
f 75 81 80
f 77 82 83
f 77 83 78
f 78 84 85
f 78 83 84
f 79 80 82
f 80 81 82
f 81 86 87
f 81 87 84
f 81 84 83
f 81 83 82
f 84 87 85
f 85 87 86

