# https://github.com/mikedh/trimesh
v 0.38303025 2.05442566 1.13289160
v 0.38303025 2.03723348 1.15575952
v 0.38303025 2.11219563 1.13289160
v 0.40613564 2.06174737 1.13289160
v 0.77448105 2.06025379 1.13375931
v 0.38303025 2.03723348 1.22446211
v 0.77448105 2.03906797 1.16500773
v 0.40613564 2.03723348 1.16504069
v 0.38303025 2.11628668 1.13632949
v 0.77172223 2.11325898 1.13375931
v 0.77448105 2.11325898 1.13375931
v 0.40613564 2.11122156 1.13289160
v 0.38303025 2.05443379 1.23643426
v 0.40613564 2.03723348 1.22119998
v 0.77448105 2.03906797 1.22171621
v 0.77448105 2.06413381 1.24507839
v 0.74260095 2.06413381 1.24508936
v 0.70891995 2.06413381 1.24508936
v 0.40613564 2.06433674 1.24508936
v 0.38303025 2.11787763 1.13989916
v 0.77448105 2.11585645 1.14061310
v 0.38303025 2.11124591 1.23643426
v 0.77448105 2.07088731 1.24508936
v 0.75926905 2.06415005 1.24508936
v 0.40613564 2.10906239 1.24508936
v 0.38303025 2.11989071 1.15355181
v 0.77448105 2.11866502 1.15356280
v 0.38303025 2.11813739 1.21763029
v 0.77448105 2.11123780 1.24508936
v 0.42567754 2.10926532 1.24508936
v 0.38303025 2.12015857 1.17021397
v 0.77448105 2.11931439 1.17022495
v 0.77448105 2.11871372 1.15473804
v 0.38303025 2.11880300 1.21291831
v 0.77448105 2.11600258 1.21699325
v 0.77448105 2.11821044 1.20352732
v 0.38303025 2.12010988 1.19616829
v 0.38303025 2.11996375 1.20352732
f 1 2 6
f 1 6 13
f 1 13 22
f 1 22 28
f 1 28 34
f 1 34 38
f 1 38 37
f 1 37 31
f 1 31 26
f 1 26 20
f 1 20 9
f 1 9 3
f 1 3 12
f 1 12 4
f 1 4 5
f 1 5 2
f 2 5 7
f 2 7 8
f 2 8 14
f 2 14 6
f 3 9 10
f 3 10 11
f 3 11 12
f 4 12 11
f 4 11 5
f 5 11 21
f 5 21 27
f 5 27 33
f 5 33 32
f 5 32 36
f 5 36 35
f 5 35 29
f 5 29 23
f 5 23 16
f 5 16 15
f 5 15 7
f 6 14 15
f 6 15 16
f 6 16 17
f 6 17 18
f 6 18 19
f 6 19 13
f 7 15 14
f 7 14 8
f 9 20 11
f 9 11 10
f 11 20 21
f 13 19 25
f 13 25 22
f 16 23 24
f 16 24 17
f 17 24 23
f 17 23 29
f 17 29 30
f 17 30 25
f 17 25 19
f 17 19 18
f 20 26 27
f 20 27 21
f 22 25 28
f 25 30 28
f 26 31 32
f 26 32 33
f 26 33 27
f 28 30 29
f 28 29 35
f 28 35 36
f 28 36 34
f 31 37 32
f 32 37 38
f 32 38 36
f 34 36 38

