# https://github.com/mikedh/trimesh
v -3.8826125749999996 -0.26112052 1.47649589
v -3.8826125749999996 -0.24446935 1.47626442
v -3.908142465 -0.22702433 1.49347354
v -3.8826125749999996 -0.29458744000000003 1.47621814
v -3.9110131150000003 -0.21109922 1.49347354
v -3.8826125749999996 -0.2319616 1.47185511
v -3.9106046349999994 -0.2436755 1.49347354
v -3.910627355 -0.24378199 1.49347354
v -3.919511765 -0.25683187 1.49347354
v -3.936191245 -0.27422847 1.49347354
v -3.9487519449999997 -0.27976596 1.49347354
v -3.9492852549999995 -0.27999831000000003 1.49347354
v -3.965283985 -0.28082118 1.49347354
v -3.9659647849999997 -0.28083086 1.49347354
v -3.9326284449999998 -0.29458744000000003 1.47673893
v -3.8826125749999996 -0.29458744000000003 1.39645675
v -3.9188876849999996 -0.1998984 1.49347354
v -3.8826125749999996 -0.22761487 1.45943722
v -3.9819635149999995 -0.27976596 1.49347354
v -3.9492852549999995 -0.29458744000000003 1.4768778
v -3.9326284449999998 -0.29458744000000003 1.39148034
v -3.9492852549999995 -0.28056948 1.37524337
v -3.936043745 -0.27468348 1.37524337
v -3.8826125749999996 -0.29446159 1.39641047
v -3.9326284449999998 -0.19667466 1.45942565
v -3.9326284449999998 -0.19674242 1.49279073
v -3.9326284449999998 -0.19675211 1.49347354
v -3.8826125749999996 -0.22739221 1.44274892
v -3.8826125749999996 -0.22736317 1.4260953
v -3.9190125149999995 -0.19977255 1.37524337
v -3.931970305 -0.19669402000000002 1.37524337
v -3.9326284449999998 -0.19653913 1.37606505
v -3.9326284449999998 -0.19658753 1.40943014
v -3.982644325 -0.27970787 1.49347354
v -3.962152335 -0.29458744000000003 1.47214443
v -3.9492852549999995 -0.29458744000000003 1.39082067
v -3.9659647849999997 -0.28103416000000003 1.37524337
v -3.9193642749999995 -0.25676411 1.37524337
v -3.8826125749999996 -0.27778138 1.39341304
v -3.9105819749999995 -0.24401434 1.37524337
v -3.9492852549999995 -0.19623901 1.49347354
v -3.933309255 -0.19672306 1.49347354
v -3.8826125749999996 -0.22766328 1.40941857
v -3.8826125749999996 -0.23202937 1.39688494
v -3.9116144849999994 -0.21053775000000002 1.37524337
v -3.9326284449999998 -0.19653913 1.37524337
v -3.9492852549999995 -0.19607443000000002 1.37606505
v -3.949966065 -0.19621966000000002 1.49347354
v -3.994002235 -0.27430593000000003 1.49347354
v -3.967303675 -0.29458744000000003 1.45942565
v -3.994478825 -0.27407359 1.49347354
v -3.982644325 -0.27970787 1.37524337
v -3.9667817549999995 -0.28098576000000003 1.37524337
v -3.962606205 -0.29458744000000003 1.39599384
v -3.8826125749999996 -0.26110116 1.39246406
v -3.9105593049999996 -0.24387881 1.37524337
v -3.9082786249999995 -0.22694689 1.37524337
v -3.8826125749999996 -0.2444403 1.3923599
v -3.9112400549999995 -0.21109922 1.37524337
v -3.9492852549999995 -0.19607443000000002 1.37524337
v -3.9659647849999997 -0.19568721 1.37524337
v -3.9659647849999997 -0.19579370000000001 1.49347354
v -3.9673150049999997 -0.29458744000000003 1.45932151
v -3.9946263249999996 -0.27355081000000003 1.49347354
v -3.9984387749999994 -0.26111084 1.45942565
v -3.994694375 -0.27424784 1.45942565
v -3.9679844849999997 -0.29458744000000003 1.44276049
v -3.994319945 -0.27397677 1.37524337
v -3.9677575449999996 -0.29458744000000003 1.40943014
v -3.908289955 -0.22682103 1.37524337
v -3.982644325 -0.19637455 1.37524337
v -3.982644325 -0.19626806000000002 1.40943014
v -3.982644325 -0.19621966000000002 1.4260953
v -3.982644325 -0.19621 1.44276049
v -3.982644325 -0.19621966000000002 1.45942565
v -3.982644325 -0.19623901 1.4761024
v -3.982644325 -0.19626806000000002 1.49347354
v -3.998109735 -0.26111084 1.49347354
v -3.998279955 -0.26111084 1.4761024
v -3.9985295450000002 -0.26111084 1.44276049
v -3.9982572249999997 -0.24377232000000001 1.49347354
v -3.998336665 -0.22776008 1.49347354
v -3.994762485 -0.27432529 1.44276049
v -3.9679844849999997 -0.29458744000000003 1.44264475
v -3.994319945 -0.27399614 1.37606505
v -3.994637655 -0.2742188 1.40943014
v -3.9984954950000002 -0.26111084 1.4260953
v -3.998302615 -0.26111084 1.40943014
v -3.9977466349999995 -0.26111084 1.37524337
v -3.967961755 -0.29458744000000003 1.42597956
v -3.9947511549999994 -0.27432529 1.4260953
v -3.993219325 -0.19982095 1.37524337
v -3.9939909049999995 -0.19982095 1.4260953
v -3.9940249549999995 -0.19980160000000002 1.44276049
v -3.9940249549999995 -0.19980160000000002 1.45942565
v -3.993945515 -0.19985 1.49347354
v -3.998450105 -0.22776008 1.44276049
v -3.9984161149999995 -0.22776008 1.4761024
v -3.998450105 -0.22776008 1.45942565
v -3.9976558649999996 -0.21109922 1.49347354
v -3.9984047249999994 -0.22776008 1.4260953
v -3.998302615 -0.22776008 1.40943014
v -3.9980643449999995 -0.22776008 1.37606505
v -3.998053015 -0.22859264 1.37524337
v -3.993752635 -0.20000492 1.37524337
v -3.9939341849999996 -0.20054703000000002 1.37524337
v -3.997701255 -0.21109922 1.4260953
v -3.9977693050000003 -0.21109922 1.44276049
v -3.997757965 -0.21109922 1.45942565
v -3.997508375 -0.21064421 1.49347354
v -3.9973608149999995 -0.21109922 1.37606505
v -3.997383545 -0.21190273 1.37524337
v -3.998053015 -0.22776008 1.37524337
v -3.997349485 -0.21109922 1.37524337
f 1 2 3
f 1 3 4
f 1 4 16
f 1 16 24
f 1 24 39
f 1 39 55
f 1 55 58
f 1 58 44
f 1 44 43
f 1 43 29
f 1 29 28
f 1 28 18
f 1 18 6
f 1 6 2
f 2 5 3
f 2 6 5
f 3 7 4
f 3 5 17
f 3 17 27
f 3 27 42
f 3 42 41
f 3 41 48
f 3 48 62
f 3 62 77
f 3 77 96
f 3 96 110
f 3 110 100
f 3 100 82
f 3 82 81
f 3 81 78
f 3 78 64
f 3 64 51
f 3 51 49
f 3 49 34
f 3 34 19
f 3 19 14
f 3 14 13
f 3 13 12
f 3 12 11
f 3 11 10
f 3 10 9
f 3 9 8
f 3 8 7
f 4 7 8
f 4 8 9
f 4 9 10
f 4 10 11
f 4 11 12
f 4 12 13
f 4 13 14
f 4 14 15
f 4 15 20
f 4 20 35
f 4 35 50
f 4 50 63
f 4 63 67
f 4 67 84
f 4 84 90
f 4 90 69
f 4 69 54
f 4 54 36
f 4 36 21
f 4 21 16
f 5 6 17
f 6 18 17
f 14 19 20
f 14 20 15
f 16 21 22
f 16 22 23
f 16 23 24
f 17 25 26
f 17 26 27
f 17 18 28
f 17 28 29
f 17 29 30
f 17 30 31
f 17 31 32
f 17 32 33
f 17 33 25
f 19 34 20
f 20 34 35
f 21 36 22
f 22 37 53
f 22 53 52
f 22 52 68
f 22 68 89
f 22 89 104
f 22 104 113
f 22 113 112
f 22 112 114
f 22 114 106
f 22 106 105
f 22 105 92
f 22 92 71
f 22 71 61
f 22 61 60
f 22 60 46
f 22 46 31
f 22 31 30
f 22 30 45
f 22 45 59
f 22 59 70
f 22 70 57
f 22 57 56
f 22 56 40
f 22 40 38
f 22 38 23
f 22 36 37
f 23 38 24
f 24 38 40
f 24 40 39
f 25 41 42
f 25 42 26
f 25 33 41
f 26 42 27
f 29 43 30
f 30 43 44
f 30 44 45
f 31 46 32
f 32 46 60
f 32 60 47
f 32 47 48
f 32 48 33
f 33 48 41
f 34 49 35
f 35 49 51
f 35 51 50
f 36 52 53
f 36 53 37
f 36 54 52
f 39 40 56
f 39 56 57
f 39 57 55
f 44 58 59
f 44 59 45
f 47 60 61
f 47 61 62
f 47 62 48
f 50 51 63
f 51 64 65
f 51 65 66
f 51 66 67
f 51 67 63
f 52 54 68
f 54 69 68
f 55 57 58
f 57 70 58
f 58 70 59
f 61 71 72
f 61 72 73
f 61 73 74
f 61 74 75
f 61 75 62
f 62 75 76
f 62 76 77
f 64 78 79
f 64 79 65
f 65 80 66
f 65 79 81
f 65 81 82
f 65 82 80
f 66 80 83
f 66 83 67
f 67 83 84
f 68 69 85
f 68 85 86
f 68 86 87
f 68 87 88
f 68 88 89
f 69 90 91
f 69 91 86
f 69 86 85
f 71 92 93
f 71 93 72
f 72 93 73
f 73 93 94
f 73 94 74
f 74 94 95
f 74 95 75
f 75 95 76
f 76 95 77
f 77 95 96
f 78 81 79
f 80 97 87
f 80 87 91
f 80 91 83
f 80 82 98
f 80 98 99
f 80 99 97
f 82 100 98
f 83 91 84
f 84 91 90
f 86 91 87
f 87 97 101
f 87 101 102
f 87 102 103
f 87 103 104
f 87 104 88
f 88 104 89
f 92 105 93
f 93 105 106
f 93 106 107
f 93 107 108
f 93 108 94
f 94 108 95
f 95 108 109
f 95 109 96
f 96 109 110
f 97 99 108
f 97 108 101
f 98 100 109
f 98 109 99
f 99 109 108
f 100 110 109
f 101 107 102
f 101 108 107
f 102 107 111
f 102 111 103
f 103 111 112
f 103 112 113
f 103 113 104
f 106 114 111
f 106 111 107
f 111 114 112

