# https://github.com/mikedh/trimesh
v -3.31001511 2.06346841 0.77025133
v -3.31001511 2.05451199 0.80280435
v -3.31001511 2.11237915 0.77025133
v -3.29801660 2.06342883 0.77025133
v -3.31001511 2.05451199 0.90372316
v -3.26468214 2.06332991 0.77025133
v -3.24799071 2.06330351 0.77025133
v -3.23134765 2.06329034 0.77025133
v -3.19801316 2.06330351 0.77025133
v -3.18137012 2.06331671 0.77025133
v -2.91474265 2.06358711 0.77025133
v -2.81580357 2.05451199 0.80840519
v -3.31001511 2.11704861 0.80354520
v -3.14803563 2.11836767 0.80354520
v -3.13134420 2.11849958 0.80354520
v -2.88140816 2.12003629 0.80354520
v -2.81580357 2.12037264 0.80354520
v -2.81580357 2.11486557 0.77025133
v -3.29879069 2.05451199 0.90376762
v -3.29651682 2.06354095 0.92162214
v -3.30885394 2.06359373 0.92162214
v -3.31001511 2.06360031 0.92162214
v -2.81580357 2.06388391 0.77025133
v -2.81580357 2.05451199 0.90317493
v -3.31001511 2.11788621 0.81557663
v -3.14803563 2.11968015 0.82022918
v -3.13134420 2.11981864 0.82022918
v -2.89809959 2.12146747 0.82022918
v -2.81580357 2.12188956 0.82022918
v -3.28137357 2.05451199 0.90376762
v -3.28137357 2.06351457 0.92162214
v -3.31001511 2.11101392 0.92162214
v -2.81580357 2.06388391 0.92162214
v -3.04672591 2.06364648 0.92162214
v -3.19622309 2.06352777 0.92162214
v -3.23134765 2.05451199 0.90372316
v -3.31001511 2.11819619 0.82022918
v -3.14803563 2.11860511 0.85350824
v -3.13134420 2.11875019 0.85350824
v -2.89809959 2.12063645 0.85350824
v -2.89809959 2.12111791 0.83688352
v -2.81580357 2.12155321 0.83688352
v -3.21291450 2.06352116 0.92162214
v -3.27982536 2.06351457 0.92162214
v -3.31001511 2.11704861 0.85350824
v -2.89809959 2.11379054 0.92162214
v -2.81580357 2.11427200 0.92162214
v -2.81614225 2.11427200 0.92162214
v -2.81580357 2.12107175 0.85350824
f 1 2 5
f 1 5 22
f 1 22 32
f 1 32 45
f 1 45 37
f 1 37 25
f 1 25 13
f 1 13 3
f 1 3 18
f 1 18 23
f 1 23 11
f 1 11 10
f 1 10 9
f 1 9 8
f 1 8 7
f 1 7 6
f 1 6 4
f 1 4 2
f 2 4 6
f 2 6 7
f 2 7 8
f 2 8 9
f 2 9 10
f 2 10 11
f 2 11 12
f 2 12 24
f 2 24 36
f 2 36 30
f 2 30 19
f 2 19 5
f 3 13 14
f 3 14 15
f 3 15 16
f 3 16 17
f 3 17 18
f 5 19 20
f 5 20 21
f 5 21 22
f 11 23 12
f 12 23 18
f 12 18 17
f 12 17 29
f 12 29 42
f 12 42 49
f 12 49 47
f 12 47 33
f 12 33 24
f 13 25 26
f 13 26 27
f 13 27 14
f 14 27 15
f 15 27 28
f 15 28 16
f 16 28 29
f 16 29 17
f 19 30 44
f 19 44 31
f 19 31 20
f 20 31 44
f 20 44 43
f 20 43 35
f 20 35 34
f 20 34 33
f 20 33 47
f 20 47 48
f 20 48 46
f 20 46 32
f 20 32 22
f 20 22 21
f 24 33 34
f 24 34 35
f 24 35 36
f 25 37 26
f 26 38 39
f 26 39 27
f 26 37 38
f 27 39 40
f 27 40 41
f 27 41 28
f 28 41 42
f 28 42 29
f 30 36 35
f 30 35 43
f 30 43 44
f 32 39 38
f 32 38 45
f 32 46 40
f 32 40 39
f 37 45 38
f 40 46 48
f 40 48 49
f 40 49 42
f 40 42 41
f 47 49 48

