# https://github.com/mikedh/trimesh
v -2.146721 -0.65963924 0.0752024
v -2.146721 -0.66043472 0.04190554
v -2.16340142 -0.6608568 0.04190554
v -2.16340142 -0.66041035 0.0752024
v -2.1300586399999997 -0.6606295200000001 0.0752024
v -2.146721 -0.66117336 0.02522804
v -2.16340142 -0.6617578 0.02522804
v -2.17533535 -0.66602739 0.02522804
v -2.17569702 -0.66549977 0.04190554
v -2.17574217 -0.6654023600000001 0.0585766
v -2.17574217 -0.6654186 0.0752024
v -2.1181608499999998 -0.66572705 0.0752024
v -2.1194989 -0.66713943 0.02522804
v -2.1300586399999997 -0.66211495 0.04190554
v -2.146721 -0.6657919800000001 0.01309478
v -2.16340142 -0.6661085600000001 0.0134116
v -2.1300586399999997 -0.6628860599999999 0.02522804
v -2.1300586399999997 -0.6665955800000001 0.01395457
v -2.17392496 -0.66754527 0.01478848
v -2.1794760699999998 -0.67804069 0.02522804
v -2.18011799 -0.67804069 0.04190554
v -2.18010893 -0.67804069 0.0585766
v -2.18002758 -0.6780975 0.0752024
v -2.10144422 -0.6840879200000001 0.0752024
v -2.12029446 -0.66814595 0.01549952
v -2.09579368 -0.6947131799999999 0.04190554
v -2.09859635 -0.69320341 0.02478848
v -2.146721 -0.67804069 0.00926808
v -2.16340142 -0.67804069 0.00972052
v -2.1300586399999997 -0.67804069 0.01041224
v -2.17529921 -0.67804069 0.0135279
v -2.17998237 -0.6947131799999999 0.02522804
v -2.18062429 -0.6947131799999999 0.04190554
v -2.18056101 -0.6947131799999999 0.0585766
v -2.18043439 -0.69477001 0.0752024
v -2.09695997 -0.68984293 0.0752024
v -2.1053589600000002 -0.68663669 0.01893844
v -2.10021466 -0.6977571 0.01427783
v -2.09228582 -0.69586581 0.07513781
v -2.09224061 -0.69593887 0.0752024
v -2.0898719 -0.71138569 0.02522804
v -2.146721 -0.6947131799999999 0.00926808
v -2.16340142 -0.6947131799999999 0.00957189
v -2.11337821 -0.71138569 0.0091711
v -2.17552519 -0.6947131799999999 0.01336627
v -2.17989195 -0.71138569 0.02522804
v -2.18075085 -0.71138569 0.04190554
v -2.1807056400000002 -0.71138569 0.0585766
v -2.1805880799999997 -0.71144251 0.0752024
v -2.09797256 -0.71138569 0.01279753
v -2.08838921 -0.71138569 0.0752024
v -2.0890492 -0.71138569 0.04190554
v -2.09078506 -0.72806631 0.04190554
v -2.0922316 -0.72806631 0.02522804
v -2.09933769 -0.72806631 0.01320476
v -2.146721 -0.71138569 0.00929396
v -2.16340142 -0.71138569 0.00963654
v -2.11337821 -0.72806631 0.00972696
v -2.1753896299999997 -0.71138569 0.01346981
v -2.17468443 -0.72806631 0.01409676
v -2.17850869 -0.72806631 0.02522804
v -2.17944894 -0.72806631 0.04190554
v -2.1794760699999998 -0.72806631 0.0585766
v -2.17939472 -0.72809879 0.0752024
v -2.08850676 -0.71421044 0.0752024
v -2.09000752 -0.72666206 0.0752024
v -2.0906222999999997 -0.72806631 0.0585766
v -2.09872291 -0.7393653 0.0585766
v -2.09888567 -0.73934908 0.04190554
v -2.09978071 -0.73908934 0.02522804
v -2.10203193 -0.7380341100000001 0.01481424
v -2.146721 -0.72806631 0.01016007
v -2.16340142 -0.72806631 0.01070961
v -2.11337821 -0.73883771 0.01381883
v -2.1300586399999997 -0.73882146 0.01388992
v -2.146721 -0.73879713 0.01396745
v -2.17327403 -0.73762825 0.01540899
v -2.17445839 -0.7385617200000001 0.02522804
v -2.17491041 -0.738927 0.04190554
v -2.17496468 -0.7390325 0.0585766
v -2.17495562 -0.73909745 0.0752024
v -2.09865062 -0.73933286 0.0752024
v -2.11337821 -0.74239299 0.0585766
v -2.11337821 -0.7423686300000001 0.04190554
v -2.11337821 -0.74180857 0.02522804
v -2.16340142 -0.73851303 0.01433592
v -2.1300586399999997 -0.74184915 0.02522804
v -2.146721 -0.7417923200000001 0.02522804
v -2.16340142 -0.74122414 0.02522804
v -2.16340142 -0.74191407 0.04190554
v -2.16340142 -0.7420926400000001 0.0585766
v -2.16340142 -0.74218195 0.0752024
v -2.11337821 -0.7423524100000001 0.0752024
v -2.1300586399999997 -0.7424822799999999 0.0752024
v -2.1300586399999997 -0.7424822799999999 0.0585766
v -2.1300586399999997 -0.7424579099999999 0.04190554
v -2.146721 -0.7424335799999999 0.04190554
v -2.146721 -0.74255534 0.0752024
v -2.146721 -0.74250664 0.0585766
f 1 2 3
f 1 3 4
f 1 4 11
f 1 11 23
f 1 23 35
f 1 35 49
f 1 49 64
f 1 64 81
f 1 81 92
f 1 92 98
f 1 98 94
f 1 94 93
f 1 93 82
f 1 82 66
f 1 66 65
f 1 65 51
f 1 51 40
f 1 40 36
f 1 36 24
f 1 24 12
f 1 12 5
f 1 5 2
f 2 6 3
f 2 5 6
f 3 7 8
f 3 8 9
f 3 9 4
f 3 6 7
f 4 9 10
f 4 10 11
f 5 12 13
f 5 13 14
f 5 14 6
f 6 15 16
f 6 16 7
f 6 14 17
f 6 17 18
f 6 18 15
f 7 16 19
f 7 19 8
f 8 19 20
f 8 20 21
f 8 21 9
f 9 21 10
f 10 21 11
f 11 21 22
f 11 22 23
f 12 24 13
f 13 25 17
f 13 17 14
f 13 24 26
f 13 26 27
f 13 27 25
f 15 28 16
f 15 18 28
f 16 29 19
f 16 28 29
f 17 25 18
f 18 25 30
f 18 30 28
f 19 31 20
f 19 29 31
f 20 32 33
f 20 33 21
f 20 31 32
f 21 33 22
f 22 33 34
f 22 34 23
f 23 34 35
f 24 36 26
f 25 27 37
f 25 37 38
f 25 38 30
f 26 36 39
f 26 39 40
f 26 40 41
f 26 41 27
f 27 41 38
f 27 38 37
f 28 42 43
f 28 43 29
f 28 30 44
f 28 44 42
f 29 43 45
f 29 45 31
f 30 38 44
f 31 45 32
f 32 45 46
f 32 46 47
f 32 47 33
f 33 47 48
f 33 48 34
f 34 48 49
f 34 49 35
f 36 40 39
f 38 41 50
f 38 50 44
f 40 51 52
f 40 52 41
f 41 52 53
f 41 53 54
f 41 54 55
f 41 55 50
f 42 56 43
f 42 44 56
f 43 57 45
f 43 56 57
f 44 50 58
f 44 58 56
f 45 57 59
f 45 59 46
f 46 59 60
f 46 60 61
f 46 61 62
f 46 62 47
f 47 63 48
f 47 62 63
f 48 63 64
f 48 64 49
f 50 55 58
f 51 65 52
f 52 65 53
f 53 66 67
f 53 67 68
f 53 68 69
f 53 69 70
f 53 70 54
f 53 65 66
f 54 70 71
f 54 71 55
f 55 71 58
f 56 72 57
f 56 58 72
f 57 73 60
f 57 60 59
f 57 72 73
f 58 71 74
f 58 74 75
f 58 75 76
f 58 76 72
f 60 77 61
f 60 73 77
f 61 77 78
f 61 78 62
f 62 78 79
f 62 79 80
f 62 80 63
f 63 80 81
f 63 81 64
f 66 82 67
f 67 82 68
f 68 82 83
f 68 83 84
f 68 84 69
f 69 84 70
f 70 84 85
f 70 85 71
f 71 85 74
f 72 76 86
f 72 86 73
f 73 86 77
f 74 85 87
f 74 87 75
f 75 87 76
f 76 88 86
f 76 87 88
f 77 86 89
f 77 89 78
f 78 89 90
f 78 90 79
f 79 90 91
f 79 91 80
f 80 91 92
f 80 92 81
f 82 93 83
f 83 93 94
f 83 94 95
f 83 95 96
f 83 96 84
f 84 96 85
f 85 96 87
f 86 88 89
f 87 96 97
f 87 97 88
f 88 97 90
f 88 90 89
f 90 97 91
f 91 97 92
f 92 97 99
f 92 99 98
f 94 98 95
f 95 98 96
f 96 98 99
f 96 99 97

