# https://github.com/mikedh/trimesh
v 0.26960347 2.10583846 0.19473740
v 0.26762374 2.11930800 0.19473740
v 0.26945470 2.10263489 0.19473740
v 0.26898548 2.10583846 0.09154945
v 0.26699431 2.12250117 0.15819837
v 0.26706298 2.12250117 0.17484722
v 0.26713164 2.12250117 0.19473740
v 0.26880238 2.08919656 0.19473740
v 0.26661666 2.12250117 0.10821165
v 0.26675399 2.12250117 0.12488732
v 0.26687987 2.12250117 0.14152276
v 0.26884815 2.10583846 0.07488725
v 0.26276020 2.13199746 0.12488732
v 0.26281742 2.13203907 0.14152276
v 0.26284031 2.13205987 0.15819837
v 0.26371007 2.13021887 0.19473740
v 0.26488870 2.07493650 0.19473740
v 0.26486581 2.07494690 0.19152283
v 0.26476282 2.07509252 0.17484722
v 0.26470560 2.07541498 0.15819837
v 0.26802429 2.08919656 0.10821165
v 0.26867649 2.10583846 0.05790354
v 0.26641078 2.12250117 0.09154945
v 0.26264576 2.13189345 0.10821165
v 0.25307902 2.13688604 0.14152276
v 0.25307902 2.13701085 0.15819837
v 0.25307902 2.13707326 0.17484722
v 0.26287465 2.13207027 0.19473740
v 0.24842153 2.03978048 0.19473740
v 0.24972605 2.03978048 0.14152276
v 0.26431661 2.07649670 0.10821165
v 0.26404195 2.07665271 0.09154945
v 0.26352696 2.07719357 0.05790354
v 0.26768097 2.08919656 0.09154945
v 0.26692565 2.08949819 0.05790354
v 0.26582713 2.12250117 0.05790354
v 0.26583857 2.12250117 0.05821158
v 0.26613612 2.12250117 0.07488725
v 0.26247410 2.13173743 0.09154945
v 0.25307902 2.13649079 0.10821165
v 0.25307902 2.13671962 0.12488732
v 0.23641723 2.14256510 0.05790354
v 0.23641723 2.14270028 0.07488725
v 0.23641723 2.14304355 0.17484722
v 0.25307902 2.13707326 0.19473740
v 0.18305609 2.03978048 0.19473740
v 0.24903946 2.03978048 0.10762233
v 0.25271280 2.06838375 0.05790354
v 0.26689132 2.08919656 0.05790354
v 0.24844442 2.03978048 0.09154945
v 0.24639603 2.03978048 0.08037879
v 0.26575846 2.12265719 0.05790354
v 0.26194779 2.13127979 0.05790354
v 0.26222245 2.13151901 0.07488725
v 0.25307902 2.13622037 0.09154945
v 0.25307902 2.13588750 0.07488725
v 0.25307902 2.13552346 0.05821158
v 0.25307902 2.13551306 0.05790354
v 0.22005300 2.14596628 0.05790354
v 0.23641723 2.14304355 0.19473740
v 0.21974407 2.14602869 0.05790354
v 0.15271933 2.07094245 0.19473740
v 0.15271933 2.03978048 0.17916007
v 0.24155538 2.06385925 0.05790354
v 0.23641723 2.03978048 0.07441845
v 0.25323924 2.13544025 0.05790354
v 0.23321310 2.14342839 0.19473740
v 0.21974407 2.14602869 0.05821158
v 0.21974407 2.14592468 0.07488725
v 0.20310517 2.14574783 0.05790354
v 0.15271933 2.11793506 0.19473740
v 0.15271933 2.03978048 0.09236652
v 0.23641723 2.06225745 0.05790354
v 0.21975551 2.03978048 0.07139135
v 0.21974407 2.14503016 0.19473740
v 0.18674094 2.14310595 0.05790354
v 0.15271933 2.14199300 0.12488732
v 0.15271933 2.14199300 0.12527571
v 0.15271933 2.14196180 0.14152276
v 0.20310517 2.14451010 0.19473740
v 0.15277655 2.12711932 0.19473740
v 0.15271933 2.12755616 0.19191122
v 0.15271933 2.07489490 0.07859737
v 0.15926505 2.11111188 0.05790354
v 0.17161261 2.03978048 0.07804823
v 0.21974407 2.06168539 0.05790354
v 0.20305939 2.03978048 0.07181997
v 0.18644339 2.14304355 0.05790354
v 0.15271933 2.14041204 0.10821165
v 0.15271933 2.14194100 0.14191115
v 0.19990098 2.14418767 0.19473740
v 0.17045681 2.13604352 0.19473740
v 0.15271933 2.13538825 0.17424449
v 0.15271933 2.08919656 0.07362815
v 0.15926505 2.11786225 0.05790354
v 0.17699103 2.07965866 0.05790354
v 0.15271933 2.10604648 0.07082879
v 0.18644339 2.03978048 0.07244952
v 0.20320817 2.06525299 0.05790354
v 0.17249376 2.13583550 0.05790354
v 0.15271933 2.13483699 0.09528639
v 0.15271933 2.14094249 0.15819837
v 0.18644339 2.14272108 0.19473740
v 0.15271933 2.12014009 0.07484702
v 0.15933372 2.11810148 0.05790354
v 0.18628317 2.07278348 0.05790354
v 0.18644339 2.07266906 0.05790354
v 0.20156026 2.06571067 0.05790354
v 0.20196081 2.06553385 0.05790354
v 0.16416287 2.12628720 0.05790354
v 0.15271933 2.12053536 0.07527564
f 1 2 7
f 1 7 16
f 1 16 28
f 1 28 45
f 1 45 60
f 1 60 67
f 1 67 75
f 1 75 80
f 1 80 91
f 1 91 103
f 1 103 92
f 1 92 81
f 1 81 71
f 1 71 62
f 1 62 46
f 1 46 29
f 1 29 17
f 1 17 8
f 1 8 3
f 1 3 4
f 1 4 5
f 1 5 2
f 2 5 6
f 2 6 7
f 3 8 4
f 4 9 10
f 4 10 11
f 4 11 5
f 4 8 12
f 4 12 9
f 5 11 13
f 5 13 14
f 5 14 6
f 6 14 7
f 7 14 15
f 7 15 16
f 8 17 18
f 8 18 19
f 8 19 20
f 8 20 21
f 8 21 12
f 9 13 10
f 9 12 22
f 9 22 23
f 9 23 24
f 9 24 13
f 10 13 11
f 12 21 22
f 13 24 25
f 13 25 26
f 13 26 14
f 14 26 27
f 14 27 15
f 15 27 28
f 15 28 16
f 17 29 30
f 17 30 18
f 18 30 19
f 19 30 20
f 20 30 31
f 20 31 21
f 21 31 32
f 21 32 33
f 21 33 34
f 21 34 22
f 22 35 49
f 22 49 33
f 22 33 48
f 22 48 64
f 22 64 73
f 22 73 86
f 22 86 99
f 22 99 109
f 22 109 108
f 22 108 107
f 22 107 106
f 22 106 96
f 22 96 84
f 22 84 95
f 22 95 105
f 22 105 110
f 22 110 100
f 22 100 88
f 22 88 76
f 22 76 70
f 22 70 61
f 22 61 59
f 22 59 42
f 22 42 58
f 22 58 66
f 22 66 53
f 22 53 52
f 22 52 36
f 22 36 37
f 22 37 38
f 22 38 23
f 22 34 35
f 23 38 39
f 23 39 24
f 24 40 41
f 24 41 25
f 24 39 40
f 25 41 42
f 25 42 43
f 25 43 26
f 26 43 27
f 27 43 44
f 27 44 60
f 27 60 45
f 27 45 28
f 29 46 63
f 29 63 72
f 29 72 85
f 29 85 98
f 29 98 87
f 29 87 74
f 29 74 65
f 29 65 51
f 29 51 50
f 29 50 47
f 29 47 30
f 30 47 31
f 31 47 32
f 32 47 33
f 33 49 34
f 33 47 50
f 33 50 51
f 33 51 48
f 34 49 35
f 36 52 37
f 37 52 53
f 37 53 54
f 37 54 39
f 37 39 38
f 39 55 40
f 39 54 56
f 39 56 55
f 40 55 42
f 40 42 41
f 42 57 58
f 42 59 43
f 42 55 56
f 42 56 57
f 43 59 44
f 44 59 61
f 44 61 68
f 44 68 60
f 46 62 63
f 48 51 65
f 48 65 64
f 53 66 56
f 53 56 54
f 56 66 57
f 57 66 58
f 60 68 69
f 60 69 67
f 61 70 68
f 62 71 82
f 62 82 93
f 62 93 102
f 62 102 90
f 62 90 79
f 62 79 78
f 62 78 77
f 62 77 89
f 62 89 101
f 62 101 111
f 62 111 104
f 62 104 97
f 62 97 94
f 62 94 83
f 62 83 72
f 62 72 63
f 64 65 73
f 65 74 73
f 67 69 75
f 68 70 69
f 69 70 75
f 70 76 77
f 70 77 78
f 70 78 79
f 70 79 80
f 70 80 75
f 71 81 82
f 72 83 84
f 72 84 85
f 73 74 86
f 74 87 86
f 76 88 77
f 77 88 89
f 79 90 91
f 79 91 80
f 81 92 93
f 81 93 82
f 83 94 84
f 84 96 85
f 84 94 97
f 84 97 95
f 85 96 98
f 86 87 98
f 86 98 99
f 88 100 89
f 89 100 101
f 90 102 103
f 90 103 91
f 92 103 102
f 92 102 93
f 95 97 104
f 95 104 105
f 96 106 98
f 98 106 107
f 98 107 108
f 98 108 109
f 98 109 99
f 100 110 101
f 101 110 111
f 104 111 105
f 105 111 110

