# https://github.com/mikedh/trimesh
v -3.884729125 -0.62801861 1.96576749
v -3.815891755 -0.62801861 1.96753896
v -3.884729125 -0.62801861 2.02123452
v -3.884729125 -0.6258560200000001 1.96571298
v -3.8073561949999997 -0.62799016 1.96756621
v -3.8073561949999997 -0.62801861 1.99371357
v -3.882593365 -0.62801861 2.02123452
v -3.884729125 -0.62799016 2.02123452
v -3.884729125 -0.60940897 1.96559853
v -3.884729125 -0.59469767 1.96555493
v -3.884729125 -0.5612913500000001 1.9655767
v -3.8073561949999997 -0.41121902 1.96796414
v -3.815891755 -0.62801861 2.02107098
v -3.8073561949999997 -0.62799016 2.02105464
v -3.8659084649999995 -0.62801861 2.02121269
v -3.882585795 -0.62799016 2.02123452
v -3.882585795 -0.39454431 2.02113635
v -3.884729125 -0.39667845 2.02113635
v -3.884729125 -0.55912876 1.96558212
v -3.8073561949999997 -0.39454431 1.96799682
v -3.8073561949999997 -0.52794194 2.02107098
v -3.8659084649999995 -0.62799016 2.02121269
v -3.8659084649999995 -0.39454431 2.0211255
v -3.882585795 -0.37786961 2.02111452
v -3.884729125 -0.37786961 2.02111452
v -3.884729125 -0.49274295 1.96575115
v -3.884729125 -0.3947435 1.96602914
v -3.8073561949999997 -0.38080049 1.96806225
v -3.8073561949999997 -0.41121902 2.02101647
v -3.8492312049999997 -0.39454431 2.02109269
v -3.8659084649999995 -0.37786961 2.02109818
v -3.882585795 -0.33732105 2.02105464
v -3.884729125 -0.33732105 2.02105464
v -3.884729125 -0.35914614 1.96625261
v -3.8073561949999997 -0.37308915 1.96811676
v -3.8073561949999997 -0.40268248 2.02101099
v -3.8073561949999997 -0.39454431 2.0210055
v -3.8073561949999997 -0.38600777 2.02099464
v -3.8073561949999997 -0.33732105 2.02089647
v -3.8073561949999997 -0.36933307 2.02096196
v -3.884729125 -0.33732105 1.96647609
v -3.8073561949999997 -0.33732105 1.96846018
v -3.8073561949999997 -0.36190629 1.96821487
f 1 2 6
f 1 6 13
f 1 13 15
f 1 15 7
f 1 7 3
f 1 3 8
f 1 8 18
f 1 18 25
f 1 25 33
f 1 33 41
f 1 41 34
f 1 34 27
f 1 27 26
f 1 26 19
f 1 19 11
f 1 11 10
f 1 10 9
f 1 9 4
f 1 4 5
f 1 5 2
f 2 5 6
f 3 7 16
f 3 16 8
f 4 9 5
f 5 9 10
f 5 10 11
f 5 11 12
f 5 12 20
f 5 20 28
f 5 28 35
f 5 35 43
f 5 43 42
f 5 42 39
f 5 39 40
f 5 40 38
f 5 38 37
f 5 37 36
f 5 36 29
f 5 29 21
f 5 21 14
f 5 14 6
f 6 14 13
f 7 15 16
f 8 16 17
f 8 17 18
f 11 19 20
f 11 20 12
f 13 14 15
f 14 21 15
f 15 21 22
f 15 22 16
f 16 22 23
f 16 23 17
f 17 23 24
f 17 24 25
f 17 25 18
f 19 26 20
f 20 26 27
f 20 27 28
f 21 29 30
f 21 30 23
f 21 23 22
f 23 30 31
f 23 31 32
f 23 32 24
f 24 32 33
f 24 33 25
f 27 34 28
f 28 34 35
f 29 36 30
f 30 36 37
f 30 37 38
f 30 38 31
f 31 38 32
f 32 39 42
f 32 42 41
f 32 41 33
f 32 38 40
f 32 40 39
f 34 41 42
f 34 42 43
f 34 43 35

