# https://github.com/mikedh/trimesh
v -2.34817133 2.06210938 1.52326216
v -2.34817133 2.06210938 1.60193347
v -2.34817133 2.03783081 1.55349728
v -2.36473193 2.03782131 1.55336305
v -2.38141281 2.03782131 1.55326827
v -2.71466975 2.03782131 1.55160219
v -2.73010758 2.03782131 1.55155480
v -2.73135063 2.03782131 1.55155480
v -2.75777541 2.03782131 1.55165744
v -2.74646769 2.06210938 1.52961875
v -2.34817133 2.06205946 1.60273885
v -2.35763454 2.06210938 1.60277045
v -2.34817133 2.03782131 1.55844832
v -2.36352898 2.03782131 1.55337884
v -2.75777541 2.06210938 1.53059001
v -2.75777541 2.03782131 1.60086743
v -2.46473707 2.06210938 1.60371805
v -2.34817133 2.03782131 1.59959612
v -2.75777541 2.06210938 1.60386015
v -2.73255358 2.03782131 1.60089116
v -2.73135063 2.06210938 1.60392333
v -2.74065344 2.06210938 1.60390753
v -2.48141798 2.06210938 1.60378910
v -2.46473707 2.03782131 1.60041735
v -2.73135063 2.03782131 1.60089116
v -2.53262349 2.03782131 1.60057525
f 1 2 11
f 1 11 18
f 1 18 13
f 1 13 3
f 1 3 4
f 1 4 5
f 1 5 6
f 1 6 7
f 1 7 8
f 1 8 9
f 1 9 10
f 1 10 15
f 1 15 19
f 1 19 22
f 1 22 21
f 1 21 23
f 1 23 17
f 1 17 12
f 1 12 2
f 2 12 11
f 3 13 14
f 3 14 4
f 4 14 13
f 4 13 18
f 4 18 24
f 4 24 26
f 4 26 25
f 4 25 20
f 4 20 16
f 4 16 9
f 4 9 8
f 4 8 7
f 4 7 6
f 4 6 5
f 9 15 10
f 9 16 19
f 9 19 15
f 11 17 18
f 11 12 17
f 16 20 21
f 16 21 22
f 16 22 19
f 17 23 24
f 17 24 18
f 20 25 21
f 21 25 23
f 23 25 26
f 23 26 24

