# https://github.com/mikedh/trimesh
v 1.85892907 1.57235144 0.51548935
v 1.85892907 1.57235144 0.56823958
v 1.85892907 1.57239710 0.50996112
v 1.85901388 1.57235144 0.50999548
v 1.85901388 1.57235144 0.56848021
v 1.85892907 1.58897522 0.56845154
v 2.07545325 1.57239710 0.51134748
v 2.07545325 1.57235144 0.51134748
v 1.85892907 1.90564905 0.51042515
v 2.07545325 1.57235144 0.56785576
v 1.85901388 1.57239710 0.56848021
v 1.85892907 1.73895458 0.56834270
v 2.07545325 1.98922466 0.51216669
v 1.85892907 1.98899631 0.51060274
v 2.07545325 1.57239710 0.56785576
v 2.07545325 1.93898794 0.56774119
v 2.07545325 2.00566575 0.56768964
v 1.85901388 1.73904591 0.56834270
v 1.85892907 1.75562402 0.56831978
v 1.90910168 2.03891331 0.51108393
v 2.07545325 2.00584844 0.51225261
v 1.85892907 2.00566575 0.51067147
v 2.07545325 2.02233518 0.56763808
v 1.85901388 2.00566575 0.56788440
v 1.85901388 1.85568638 0.56817658
v 1.85901388 1.75571536 0.56831978
v 1.85892907 1.85559504 0.56817658
v 1.85914108 2.03891331 0.51095218
v 2.07545325 2.03891331 0.51244165
v 1.85892907 2.02233518 0.51089490
v 1.85901388 2.03891331 0.51095218
v 1.85892907 2.02224387 0.56782712
v 2.07545325 2.03882196 0.56745476
v 1.85892907 2.00557440 0.56788440
v 2.07545325 2.03891331 0.56744901
v 1.85892907 2.03891331 0.56747765
v 1.85892907 2.03891331 0.56761516
f 1 2 6
f 1 6 12
f 1 12 19
f 1 19 27
f 1 27 34
f 1 34 32
f 1 32 37
f 1 37 36
f 1 36 30
f 1 30 22
f 1 22 14
f 1 14 9
f 1 9 3
f 1 3 4
f 1 4 8
f 1 8 10
f 1 10 5
f 1 5 2
f 2 5 6
f 3 7 8
f 3 8 4
f 3 9 7
f 5 10 15
f 5 15 11
f 5 11 6
f 6 11 12
f 7 9 13
f 7 13 21
f 7 21 29
f 7 29 35
f 7 35 33
f 7 33 23
f 7 23 17
f 7 17 16
f 7 16 15
f 7 15 10
f 7 10 8
f 9 14 13
f 11 15 16
f 11 16 17
f 11 17 18
f 11 18 12
f 12 18 26
f 12 26 19
f 13 14 20
f 13 20 21
f 14 22 20
f 17 23 24
f 17 24 25
f 17 25 26
f 17 26 18
f 19 26 25
f 19 25 27
f 20 28 31
f 20 31 36
f 20 36 37
f 20 37 35
f 20 35 29
f 20 29 21
f 20 22 28
f 22 30 31
f 22 31 28
f 23 32 24
f 23 33 32
f 24 32 34
f 24 34 27
f 24 27 25
f 30 36 31
f 32 33 37
f 33 35 37

