# https://github.com/mikedh/trimesh
v -2.08887058 -0.22776144 1.60951976
v -2.09147857 -0.21109313000000002 1.57620053
v -2.09152277 -0.21109313000000002 1.59285186
v -2.08894131 -0.22776144 1.62620418
v -2.09134593 -0.24442976 1.60951976
v -2.09131945 -0.24442976 1.59285186
v -2.09130174 -0.24442976 1.56731213
v -2.09130174 -0.24442976 1.55951611
v -2.0888882300000002 -0.22776144 1.56731213
v -2.08889706 -0.22706377 1.49352319
v -2.08889706 -0.22703016 1.49347354
v -2.09144321 -0.21109313000000002 1.55951611
v -2.09575742 -0.20518399 1.56731213
v -2.09952359 -0.20000614 1.56731213
v -2.0915935 -0.21109313000000002 1.60951976
v -2.0995500700000003 -0.20001455 1.57620053
v -2.08925073 -0.22776144 1.66256899
v -2.08981649 -0.23258626 1.66256899
v -2.0914608599999998 -0.24442976 1.62620418
v -2.0932467 -0.24762389 1.66256899
v -2.09939095 -0.25708019 1.55951611
v -2.09131945 -0.24442976 1.54283169
v -2.08890594 -0.22776985 1.54283169
v -2.09134593 -0.24366484 1.49347354
v -2.09176145 -0.21109313000000002 1.49347354
v -2.09154042 -0.21109313000000002 1.52616378
v -2.09145203 -0.21109313000000002 1.54283169
v -2.09949705 -0.19999773 1.54283169
v -2.09963852 -0.19988844 1.49347354
v -2.11338573 -0.19675315 1.49347354
v -2.09960315 -0.20004816 1.59285186
v -2.099665 -0.20009858000000003 1.60951976
v -2.09176145 -0.21109313000000002 1.62620418
v -2.11338573 -0.1969633 1.57620053
v -2.09242448 -0.21127805 1.66256899
v -2.0922123399999997 -0.24442976 1.66256899
v -2.0917879900000003 -0.24442976 1.64287208
v -2.09975339 -0.25746686 1.66256899
v -2.09940866 -0.25709701 1.59285186
v -2.09939095 -0.25708019 1.56731213
v -2.09940866 -0.25708019 1.54283169
v -2.11591416 -0.27548006 1.66256899
v -2.09946168 -0.25708019 1.52616378
v -2.09139901 -0.24442976 1.52616378
v -2.09137247 -0.24377412 1.49347354
v -2.11405765 -0.19672795 1.49347354
v -2.11338573 -0.19703054 1.59285186
v -2.11338573 -0.1971314 1.60951976
v -2.09978876 -0.20017424 1.62620418
v -2.09879865 -0.20243536 1.66256899
v -2.14671503 -0.19601348000000002 1.65955651
v -2.14671503 -0.19602189 1.66256899
v -2.1266202 -0.28015359 1.66256899
v -2.1164004199999997 -0.27486646 1.52616378
v -2.0997180799999997 -0.25697093 1.50949588
v -2.10024847 -0.25683644 1.49347354
v -2.13005924 -0.19624042000000003 1.49347354
v -2.13005924 -0.19634968000000003 1.55951611
v -2.13306504 -0.19658505 1.66256899
v -2.13005924 -0.19671113 1.66256899
v -2.11338573 -0.1972491 1.62620418
v -2.11338573 -0.19736677000000002 1.64287208
v -2.10005398 -0.2002583 1.64287208
v -2.10035457 -0.20036757 1.66256899
v -2.16339737 -0.19635808999999999 1.66256899
v -2.1497208299999997 -0.19608073 1.66256899
v -2.14671503 -0.19582012 1.52616378
v -2.13005924 -0.28132196 1.66256899
v -2.13005924 -0.28057386 1.52616378
v -2.13005924 -0.28000228 1.49347354
v -2.12951107 -0.27976693 1.49347354
v -2.1169396899999997 -0.27423603 1.49347354
v -2.14671503 -0.19578651000000002 1.49347354
v -2.11639153 -0.19737518 1.66256899
v -2.11338573 -0.19753487 1.66256899
v -2.17467805 -0.19988844 1.65955651
v -2.17466922 -0.19988844 1.66256899
v -2.16339737 -0.19627405 1.49347354
v -2.16385708 -0.19641695 1.49347354
v -2.14261296 -0.28165819000000003 1.66256899
v -2.14671503 -0.28084285000000003 1.49347354
v -2.14604317 -0.28081763 1.49347354
v -2.17843533 -0.21109313000000002 1.66256899
v -2.17469576 -0.19985483 1.49347354
v -2.14672386 -0.28146486 1.66256899
v -2.16339737 -0.27971649 1.49347354
v -2.17843533 -0.21109313000000002 1.65955651
v -2.17917793 -0.22776144 1.64287208
v -2.1791602699999997 -0.22776144 1.66256899
v -2.17825855 -0.21063082 1.49347354
v -2.16039156 -0.28034691 1.66256899
v -2.17523504 -0.27407633 1.49347354
v -2.16339737 -0.27975852 1.55951611
v -2.1784087899999998 -0.21109313000000002 1.49347354
v -2.17904534 -0.24442976 1.62620418
v -2.17904534 -0.24442976 1.64287208
v -2.17908954 -0.22776985 1.49347354
v -2.17900998 -0.24374891 1.49347354
v -2.17900998 -0.24442976 1.66256899
v -2.16339737 -0.27975011 1.66256899
v -2.16339737 -0.27975852 1.57620053
v -2.1752085 -0.27404271 1.56731213
v -2.17538533 -0.27355518 1.49347354
v -2.17886851 -0.26042562 1.49347354
v -2.17885968 -0.26110647 1.49347354
v -2.17881548 -0.26110647 1.60951976
v -2.17878894 -0.26110647 1.62620418
v -2.1786651900000003 -0.26110647 1.66256899
v -2.1787359200000003 -0.26110647 1.64287208
v -2.17294529 -0.27500934 1.66256899
v -2.17515548 -0.27398387 1.62620418
v -2.1751819599999997 -0.27400067 1.60951976
v -2.17511122 -0.27395866 1.64287208
v -2.17504937 -0.27395866 1.66256899
f 1 2 3
f 1 3 4
f 1 4 5
f 1 5 6
f 1 6 7
f 1 7 8
f 1 8 9
f 1 9 10
f 1 10 11
f 1 11 12
f 1 12 2
f 2 13 14
f 2 14 3
f 2 12 13
f 3 15 4
f 3 14 16
f 3 16 15
f 4 17 18
f 4 18 5
f 4 15 17
f 5 18 19
f 5 19 20
f 5 20 6
f 6 20 7
f 7 20 8
f 8 21 41
f 8 41 22
f 8 22 23
f 8 23 9
f 8 20 21
f 9 23 10
f 10 23 22
f 10 22 24
f 10 24 11
f 11 24 45
f 11 45 56
f 11 56 72
f 11 72 71
f 11 71 70
f 11 70 82
f 11 82 81
f 11 81 86
f 11 86 92
f 11 92 103
f 11 103 105
f 11 105 104
f 11 104 98
f 11 98 97
f 11 97 94
f 11 94 90
f 11 90 84
f 11 84 79
f 11 79 78
f 11 78 73
f 11 73 57
f 11 57 46
f 11 46 30
f 11 30 29
f 11 29 25
f 11 25 26
f 11 26 27
f 11 27 12
f 12 27 28
f 12 28 14
f 12 14 13
f 14 28 29
f 14 29 30
f 14 30 16
f 15 16 31
f 15 31 32
f 15 32 33
f 15 33 17
f 16 30 34
f 16 34 31
f 17 33 35
f 17 35 50
f 17 50 64
f 17 64 75
f 17 75 74
f 17 74 60
f 17 60 59
f 17 59 52
f 17 52 66
f 17 66 65
f 17 65 77
f 17 77 83
f 17 83 89
f 17 89 99
f 17 99 108
f 17 108 114
f 17 114 110
f 17 110 100
f 17 100 91
f 17 91 85
f 17 85 80
f 17 80 68
f 17 68 53
f 17 53 42
f 17 42 38
f 17 38 20
f 17 20 36
f 17 36 18
f 18 36 37
f 18 37 19
f 19 37 20
f 20 37 36
f 20 38 39
f 20 39 40
f 20 40 21
f 21 40 42
f 21 42 41
f 22 41 43
f 22 43 44
f 22 44 45
f 22 45 24
f 25 29 26
f 26 29 27
f 27 29 28
f 30 46 34
f 31 34 32
f 32 34 47
f 32 47 48
f 32 48 49
f 32 49 33
f 33 50 35
f 33 49 50
f 34 51 52
f 34 52 47
f 34 46 51
f 38 42 39
f 39 42 40
f 41 42 43
f 42 53 54
f 42 54 43
f 43 54 55
f 43 55 45
f 43 45 44
f 45 55 56
f 46 57 58
f 46 58 51
f 47 52 59
f 47 59 60
f 47 60 48
f 48 61 49
f 48 60 61
f 49 61 62
f 49 62 63
f 49 63 64
f 49 64 50
f 51 65 66
f 51 66 52
f 51 58 57
f 51 57 67
f 51 67 65
f 53 68 69
f 53 69 54
f 54 69 70
f 54 70 71
f 54 71 72
f 54 72 55
f 55 72 56
f 57 73 67
f 60 74 62
f 60 62 61
f 62 74 75
f 62 75 63
f 63 75 64
f 65 76 77
f 65 67 73
f 65 73 78
f 65 78 79
f 65 79 76
f 68 80 81
f 68 81 69
f 69 81 82
f 69 82 70
f 76 83 77
f 76 79 84
f 76 84 83
f 80 85 81
f 81 85 86
f 83 84 87
f 83 87 88
f 83 88 89
f 84 90 87
f 85 91 86
f 86 91 93
f 86 93 92
f 87 90 94
f 87 94 88
f 88 95 96
f 88 96 89
f 88 94 97
f 88 97 98
f 88 98 95
f 89 96 99
f 91 100 101
f 91 101 93
f 92 102 103
f 92 93 101
f 92 101 100
f 92 100 102
f 95 98 104
f 95 104 96
f 96 104 105
f 96 105 106
f 96 106 107
f 96 107 99
f 99 107 109
f 99 109 108
f 100 110 111
f 100 111 112
f 100 112 102
f 102 112 106
f 102 106 103
f 103 106 105
f 106 112 107
f 107 112 111
f 107 111 113
f 107 113 114
f 107 114 109
f 108 109 114
f 110 114 111
f 111 114 113

