# https://github.com/mikedh/trimesh
v -3.1334110649999998 -0.22466249 1.17716722
v -3.150101395 -0.22468311000000002 1.17716722
v -3.1488592950000003 -0.22470373 1.19261682
v -3.132168975 -0.22470373 1.19261682
v -3.0895504449999995 -0.22476562 1.17716722
v -3.8670866249999998 -0.22629204 1.17716722
v -3.832541535 -0.22620954000000001 1.19261682
v -3.849231855 -0.22627142 1.20928482
v -3.1655496249999997 -0.22486876 1.20928482
v -3.1488592950000003 -0.22484812 1.20928482
v -3.132168975 -0.22484812 1.20928482
v -3.0895504449999995 -0.22491002000000002 1.20928482
v -3.0895504449999995 -0.22484812 1.20006698
v -3.0895504449999995 -0.22480688000000001 1.19261682
v -3.0895504449999995 -0.32291062 1.17716722
v -3.882534915 -0.22633331 1.17716722
v -3.849231855 -0.2262508 1.19261682
v -3.865844535 -0.22631268000000002 1.20928482
v -3.865844535 -0.23122199000000002 1.22236756
v -3.182162335 -0.23056191 1.22281696
v -3.1655496249999997 -0.23056191 1.22282695
v -3.1488592950000003 -0.23056191 1.22283194
v -3.0895504449999995 -0.23056191 1.22284693
v -3.0895504449999995 -0.22742655 1.21533683
v -3.1988526549999996 -0.32445769 1.17716722
v -3.0895504449999995 -0.43537102 1.18019321
v -3.124638925 -0.43537102 1.18002843
v -3.1655496249999997 -0.43537102 1.17984368
v -3.182162335 -0.43537102 1.17977876
v -3.1914002349999997 -0.43537102 1.17974381
v -3.1988526549999996 -0.43537102 1.17971884
v -3.2080129150000003 -0.43537102 1.17968888
v -3.224703235 -0.43537102 1.17964394
v -3.2322332849999995 -0.43537102 1.17962896
v -3.241393565 -0.43537102 1.17961399
v -3.2489236249999998 -0.43537102 1.179604
v -3.298916955 -0.43537102 1.17954407
v -3.4323619349999994 -0.43537102 1.17941425
v -3.441522185 -0.43537102 1.17940925
v -3.882534915 -0.43537102 1.17918953
v -3.882612515 -0.23732768 1.17716722
v -3.882612515 -0.22635393 1.19261682
v -3.882612515 -0.22641581 1.20928482
v -3.882612515 -0.23128387 1.22238752
v -3.1655496249999997 -0.24444413 1.22814992
v -3.0895504449999995 -0.24444413 1.22815492
v -3.202423595 -0.32449893 1.17716722
v -3.0895504449999995 -0.43537102 1.22753573
v -3.882612515 -0.43537102 1.20581939
v -3.882612515 -0.42786266 1.17917456
v -3.882534915 -0.32344694 1.17716722
v -3.5022283849999996 -0.32507649 1.17716722
v -3.485538085 -0.32513839 1.17716722
v -3.482355265 -0.32513839 1.17716722
v -3.4688477549999996 -0.32511775 1.17716722
v -3.882612515 -0.31274134 1.17716722
v -3.882612515 -0.24446475 1.22731603
v -3.882534915 -0.24444413 1.22731603
v -3.1655496249999997 -0.26113167 1.2281749
v -3.882534915 -0.26113167 1.22745583
v -3.882612515 -0.26115229 1.22745583
v -3.0895504449999995 -0.25189061 1.22815492
v -3.0895504449999995 -0.26113167 1.22814992
v -3.098788345 -0.43537102 1.22754572
v -3.882612515 -0.43537102 1.22757568
v -3.1396990449999995 -0.43537102 1.2275557
v -3.1063183949999997 -0.43537102 1.22755072
v -3.098788345 -0.26113167 1.22815492
v -3.882612515 -0.41121637 1.22757068
v -3.882612515 -0.42788329 1.22757568
f 1 2 3
f 1 3 4
f 1 4 5
f 1 5 15
f 1 15 25
f 1 25 47
f 1 47 55
f 1 55 54
f 1 54 53
f 1 53 52
f 1 52 51
f 1 51 56
f 1 56 41
f 1 41 16
f 1 16 6
f 1 6 2
f 2 6 7
f 2 7 8
f 2 8 3
f 3 9 10
f 3 10 11
f 3 11 4
f 3 8 9
f 4 11 12
f 4 12 13
f 4 13 14
f 4 14 5
f 5 14 13
f 5 13 12
f 5 12 24
f 5 24 23
f 5 23 46
f 5 46 62
f 5 62 63
f 5 63 48
f 5 48 26
f 5 26 15
f 6 16 17
f 6 17 7
f 7 17 8
f 8 17 18
f 8 18 19
f 8 19 9
f 9 20 10
f 9 19 20
f 10 20 21
f 10 21 22
f 10 22 23
f 10 23 11
f 11 23 24
f 11 24 12
f 15 26 27
f 15 27 28
f 15 28 29
f 15 29 30
f 15 30 31
f 15 31 32
f 15 32 33
f 15 33 34
f 15 34 35
f 15 35 36
f 15 36 37
f 15 37 38
f 15 38 39
f 15 39 40
f 15 40 25
f 16 18 17
f 16 41 42
f 16 42 18
f 18 42 43
f 18 43 44
f 18 44 19
f 19 44 20
f 20 45 21
f 20 44 45
f 21 45 22
f 22 45 23
f 23 45 46
f 25 40 47
f 26 48 64
f 26 64 67
f 26 67 66
f 26 66 65
f 26 65 49
f 26 49 40
f 26 40 39
f 26 39 38
f 26 38 37
f 26 37 36
f 26 36 35
f 26 35 34
f 26 34 33
f 26 33 32
f 26 32 31
f 26 31 30
f 26 30 29
f 26 29 28
f 26 28 27
f 40 49 50
f 40 50 51
f 40 51 52
f 40 52 53
f 40 53 54
f 40 54 55
f 40 55 47
f 41 56 50
f 41 50 49
f 41 49 65
f 41 65 70
f 41 70 69
f 41 69 61
f 41 61 57
f 41 57 44
f 41 44 43
f 41 43 42
f 44 57 58
f 44 58 45
f 45 59 46
f 45 58 60
f 45 60 61
f 45 61 59
f 46 59 62
f 48 63 64
f 50 56 51
f 57 61 60
f 57 60 58
f 59 66 67
f 59 67 68
f 59 68 62
f 59 61 69
f 59 69 70
f 59 70 65
f 59 65 66
f 62 68 63
f 63 68 67
f 63 67 64

