# https://github.com/mikedh/trimesh
v -3.78910027 2.03591761 1.73636287
v -3.80819096 2.06219056 1.73636287
v -3.75129525 2.03591761 1.73636287
v -3.78947656 2.03591761 1.87007289
v -3.81136457 2.07204877 1.73636287
v -3.80819096 2.06218117 1.77022227
v -3.73119854 2.07877414 1.73636287
v -3.75030556 2.03593637 1.87007289
v -3.75096807 2.03591761 1.87007289
v -3.80808462 2.06222808 1.87007289
v -3.80819096 2.06218117 1.78689680
v -3.81146268 2.07236769 1.75356091
v -3.81146268 2.07236769 1.73636287
v -3.73119854 2.11283235 1.73636287
v -3.73119854 2.07691693 1.87007289
v -3.81139723 2.07228329 1.87007289
v -3.80817462 2.06219995 1.80353200
v -3.81358927 2.08902631 1.73689949
v -3.81357294 2.08902631 1.87007289
v -3.81358927 2.08902631 1.73636287
v -3.76309807 2.12950036 1.73636287
v -3.75828860 2.13041959 1.87007289
v -3.73128032 2.11390167 1.87007289
v -3.73119854 2.11372345 1.86617257
v -3.73119854 2.07818321 1.87007289
v -3.81475896 2.10568493 1.73636287
v -3.81453807 2.10554423 1.87007289
v -3.81471807 2.10568493 1.77022227
v -3.81474263 2.10568493 1.75356091
v -3.76335980 2.12954727 1.73636287
v -3.75846854 2.13050399 1.87007289
v -3.81143812 2.12235290 1.87007289
v -3.81150357 2.12235290 1.73689949
v -3.81150357 2.12235290 1.73636287
v -3.81454629 2.10568493 1.87007289
v -3.77143284 2.13089795 1.73636287
v -3.76673792 2.13103865 1.87007289
v -3.80716038 2.13110430 1.87007289
v -3.80706215 2.13113244 1.73636287
v -3.78105996 2.13142322 1.73636287
v -3.78127263 2.13159205 1.87007289
v -3.80704582 2.13118873 1.87007289
v -3.80677593 2.13115121 1.73636287
v -3.78137896 2.13143261 1.73636287
v -3.79790949 2.13174214 1.87007289
v -3.79804849 2.13167648 1.73636287
v -3.79804849 2.13174214 1.87007289
f 1 2 5
f 1 5 13
f 1 13 20
f 1 20 26
f 1 26 34
f 1 34 39
f 1 39 43
f 1 43 46
f 1 46 44
f 1 44 40
f 1 40 36
f 1 36 30
f 1 30 21
f 1 21 14
f 1 14 7
f 1 7 3
f 1 3 9
f 1 9 4
f 1 4 2
f 2 4 6
f 2 6 5
f 3 7 8
f 3 8 9
f 4 9 8
f 4 8 15
f 4 15 25
f 4 25 23
f 4 23 22
f 4 22 31
f 4 31 37
f 4 37 41
f 4 41 45
f 4 45 47
f 4 47 42
f 4 42 38
f 4 38 32
f 4 32 35
f 4 35 27
f 4 27 19
f 4 19 16
f 4 16 10
f 4 10 11
f 4 11 6
f 5 6 11
f 5 11 12
f 5 12 13
f 7 14 24
f 7 24 25
f 7 25 15
f 7 15 8
f 10 16 17
f 10 17 11
f 11 17 16
f 11 16 12
f 12 18 20
f 12 20 13
f 12 16 19
f 12 19 18
f 14 21 22
f 14 22 23
f 14 23 24
f 18 26 20
f 18 19 26
f 19 27 28
f 19 28 29
f 19 29 26
f 21 30 31
f 21 31 22
f 23 25 24
f 26 29 32
f 26 32 33
f 26 33 34
f 27 35 28
f 28 35 32
f 28 32 29
f 30 36 31
f 31 36 37
f 32 38 33
f 33 38 34
f 34 38 39
f 36 40 37
f 37 40 41
f 38 42 39
f 39 42 43
f 40 44 41
f 41 44 46
f 41 46 45
f 42 47 43
f 43 47 46
f 45 46 47

