# https://github.com/mikedh/trimesh
v -1.83032132 1.94631782 0.92017969
v -1.81592657 1.92235985 0.85353764
v -1.81596257 1.93901837 0.85353764
v -1.81598415 1.94631782 0.85353764
v -1.87021646 1.94631782 0.92017969
v -1.83032132 1.90568620 0.92017969
v -1.81589778 1.88902769 0.85353764
v -1.81590499 1.90568620 0.85353764
v -1.81527878 1.94631782 0.83688085
v -1.81566747 1.94631782 0.84624094
v -1.88757657 1.94631782 0.90201274
v -1.87036041 1.94628754 0.92017969
v -1.83032854 1.88902769 0.92017969
v -1.83034296 1.87235404 0.92017969
v -1.83050848 1.79163600 0.92017969
v -1.81594815 1.87235404 0.85353764
v -1.81481815 1.79162086 0.82020912
v -1.81460947 1.87235404 0.82020912
v -1.81457347 1.88902769 0.82020912
v -1.81457347 1.90568620 0.82020912
v -1.81527163 1.93901837 0.83688085
v -1.81459505 1.92235985 0.82020912
v -1.81463105 1.94631782 0.82020912
v -1.88757657 1.94631782 0.83284375
v -1.88757657 1.94359188 0.90199779
v -1.86998615 1.83899159 0.92017969
v -1.86931678 1.79162086 0.92017969
v -1.83050848 1.79162086 0.91762287
v -1.81632962 1.79162086 0.85353764
v -1.81450147 1.79162086 0.80355235
v -1.81404805 1.88902769 0.80355235
v -1.81471742 1.94631782 0.81292739
v -1.86825879 1.94631782 0.76742777
v -1.88757657 1.89043610 0.83241014
v -1.88757657 1.79162086 0.90108570
v -1.86989257 1.82233308 0.92017969
v -1.86970547 1.79162086 0.92017969
v -1.81881271 1.79162086 0.79036448
v -1.81846002 1.88902769 0.79000563
v -1.81483258 1.94631782 0.80355235
v -1.82889629 1.94631782 0.76742777
v -1.86747427 1.79162086 0.76742777
v -1.88757657 1.79162086 0.83190177
v -1.88757657 1.80570487 0.83188681
v -1.88757657 1.80661351 0.83188681
v -1.82918418 1.79162086 0.76742777
v -1.82915539 1.79395305 0.76742777
v -1.82886028 1.82236338 0.76742777
v -1.81920861 1.94631782 0.79072333
v -1.82886028 1.82514989 0.76742777
f 1 2 3
f 1 3 4
f 1 4 10
f 1 10 9
f 1 9 23
f 1 23 32
f 1 32 40
f 1 40 49
f 1 49 41
f 1 41 33
f 1 33 24
f 1 24 11
f 1 11 5
f 1 5 12
f 1 12 26
f 1 26 36
f 1 36 37
f 1 37 27
f 1 27 15
f 1 15 14
f 1 14 13
f 1 13 6
f 1 6 7
f 1 7 8
f 1 8 2
f 2 9 10
f 2 10 3
f 2 8 9
f 3 10 4
f 5 11 12
f 6 13 7
f 7 13 14
f 7 14 15
f 7 15 16
f 7 16 17
f 7 17 18
f 7 18 19
f 7 19 20
f 7 20 8
f 8 20 21
f 8 21 9
f 9 21 20
f 9 20 22
f 9 22 23
f 11 24 34
f 11 34 45
f 11 45 44
f 11 44 43
f 11 43 35
f 11 35 25
f 11 25 26
f 11 26 12
f 15 27 28
f 15 28 29
f 15 29 16
f 16 29 17
f 17 29 28
f 17 28 27
f 17 27 37
f 17 37 35
f 17 35 43
f 17 43 42
f 17 42 46
f 17 46 38
f 17 38 30
f 17 30 31
f 17 31 18
f 18 31 19
f 19 31 20
f 20 31 22
f 22 31 23
f 23 31 32
f 24 33 34
f 25 35 26
f 26 35 36
f 30 38 39
f 30 39 31
f 31 39 40
f 31 40 32
f 33 41 50
f 33 50 48
f 33 48 47
f 33 47 46
f 33 46 42
f 33 42 43
f 33 43 44
f 33 44 45
f 33 45 34
f 35 37 36
f 38 46 47
f 38 47 48
f 38 48 39
f 39 41 49
f 39 49 40
f 39 48 50
f 39 50 41

