# https://github.com/mikedh/trimesh
v -3.35608695 1.57241332 0.56916892
v -3.35608695 1.57241332 0.50981292
v -3.36472671 1.57241332 0.56916040
v -3.71778644 1.51873169 0.56906658
v -3.35608695 1.57234975 0.56916892
v -3.35608695 1.54850134 0.49391641
v -3.71778644 1.57241332 0.50762118
v -3.64803134 1.57241332 0.56832465
v -3.66470885 1.57241332 0.56824787
v -3.68135090 1.57241332 0.56813701
v -3.71778644 1.57241332 0.56779589
v -3.71778644 1.50569954 0.56893867
v -3.35608695 1.55568493 0.56907513
v -3.35608695 1.56434882 0.56912628
v -3.35608695 1.53902011 0.48849253
v -3.43140118 1.53902011 0.48837314
v -3.64803134 1.53902011 0.48906390
v -3.66470885 1.53902011 0.48918329
v -3.71778644 1.53715835 0.48951589
v -3.48139819 1.53902011 0.48839871
v -3.49807570 1.53902011 0.48844133
v -3.51471775 1.53902011 0.48850957
v -3.71778644 1.50191247 0.56817966
v -3.39808162 1.50569954 0.56835022
v -3.38140416 1.52236436 0.56864872
v -3.35608695 1.53902011 0.56887045
v -3.35608695 1.54768399 0.56898132
v -3.35608695 1.52236436 0.48411757
v -3.51471775 1.52236436 0.48337561
v -3.53139527 1.52236436 0.48332447
v -3.64803134 1.52236436 0.48326474
v -3.68135090 1.52236436 0.48331594
v -3.71778644 1.52651466 0.48496188
v -3.66470885 1.52236436 0.48329037
v -3.71778644 1.49199531 0.56581736
v -3.38140416 1.50569954 0.56831612
v -3.36472671 1.52236436 0.56860607
v -3.35608695 1.53101917 0.56874254
v -3.35608695 1.50569954 0.48350352
v -3.46472074 1.50569954 0.48276161
v -3.48139819 1.50569954 0.48266780
v -3.53139527 1.50569954 0.48241197
v -3.71778644 1.50569954 0.48205374
v -3.71778644 1.51009506 0.48232668
v -3.71778644 1.52236436 0.48365706
v -3.71778644 1.48433948 0.55352827
v -3.38140416 1.48614674 0.55352827
v -3.38140416 1.49331217 0.56499013
v -3.35608695 1.50569954 0.56810292
v -3.35608695 1.51436341 0.56835874
v -3.35608695 1.52236436 0.56858050
v -3.35608695 1.48963408 0.48916624
v -3.71778644 1.48902563 0.48665043
v -3.71778644 1.48103378 0.53961033
v -3.35608695 1.48263215 0.53686426
v -3.35608695 1.48630114 0.55352827
v -3.35608695 1.49343930 0.56481104
v -3.35608695 1.48187835 0.50353620
v -3.71778644 1.48005295 0.49330242
v -3.71778644 1.48062510 0.53735037
v -3.35608695 1.48232337 0.52886483
v -3.35608695 1.48193286 0.51220082
v -3.71778644 1.47964426 0.50467898
v -3.71778644 1.48004386 0.52020877
v -3.35608695 1.48201458 0.52020877
f 1 2 7
f 1 7 11
f 1 11 10
f 1 10 9
f 1 9 8
f 1 8 3
f 1 3 4
f 1 4 5
f 1 5 14
f 1 14 13
f 1 13 27
f 1 27 26
f 1 26 38
f 1 38 51
f 1 51 50
f 1 50 49
f 1 49 57
f 1 57 56
f 1 56 55
f 1 55 61
f 1 61 65
f 1 65 62
f 1 62 58
f 1 58 52
f 1 52 39
f 1 39 28
f 1 28 15
f 1 15 6
f 1 6 2
f 2 6 7
f 3 8 4
f 4 8 9
f 4 9 10
f 4 10 11
f 4 11 7
f 4 7 19
f 4 19 33
f 4 33 45
f 4 45 44
f 4 44 43
f 4 43 53
f 4 53 59
f 4 59 63
f 4 63 64
f 4 64 60
f 4 60 54
f 4 54 46
f 4 46 35
f 4 35 23
f 4 23 12
f 4 12 13
f 4 13 14
f 4 14 5
f 6 15 16
f 6 16 7
f 7 17 18
f 7 18 19
f 7 16 20
f 7 20 21
f 7 21 22
f 7 22 17
f 12 23 24
f 12 24 25
f 12 25 26
f 12 26 27
f 12 27 13
f 15 28 29
f 15 29 30
f 15 30 16
f 16 30 31
f 16 31 20
f 17 32 33
f 17 33 18
f 17 22 32
f 18 33 19
f 20 31 34
f 20 34 32
f 20 32 21
f 21 32 22
f 23 35 36
f 23 36 24
f 24 36 25
f 25 36 37
f 25 37 38
f 25 38 26
f 28 39 40
f 28 40 41
f 28 41 42
f 28 42 29
f 29 42 30
f 30 42 43
f 30 43 44
f 30 44 31
f 31 44 34
f 32 34 44
f 32 44 45
f 32 45 33
f 35 46 47
f 35 47 48
f 35 48 36
f 36 48 49
f 36 49 50
f 36 50 51
f 36 51 37
f 37 51 38
f 39 52 53
f 39 53 40
f 40 53 41
f 41 53 42
f 42 53 43
f 46 54 47
f 47 55 56
f 47 56 48
f 47 54 55
f 48 56 57
f 48 57 49
f 52 58 59
f 52 59 53
f 54 60 55
f 55 60 61
f 58 62 63
f 58 63 59
f 60 64 65
f 60 65 61
f 62 65 63
f 63 65 64

