# https://github.com/mikedh/trimesh
v 0.14625969 2.12580866 1.89166989
v 0.02795933 2.12289266 1.89166989
v 0.14625969 2.07862764 1.89166989
v 0.14625969 2.12590710 1.85820017
v 0.02795933 2.07936368 1.89166989
v 0.14625969 2.12594930 1.84151055
v 0.02795933 2.12309424 1.79153212
v 0.14625969 2.07859951 1.87484455
v 0.14625969 2.07858547 1.85820017
v 0.02795933 2.08041380 1.56642579
v 0.14625969 2.07860890 1.57488364
v 0.14625969 2.07859483 1.59157325
v 0.14625969 2.12597743 1.82486612
v 0.02795933 2.12374119 1.42965228
v 0.02795933 2.08044193 1.55823926
v 0.14625969 2.07916209 1.42965228
v 0.14625969 2.12623996 1.55823926
v 0.14623656 2.12647436 1.42965228
v 0.02795933 2.08101390 1.42965228
v 0.02795933 2.08047945 1.54978135
v 0.14625969 2.12610400 1.42965228
v 0.14625969 2.12632433 1.44159283
f 1 2 5
f 1 5 3
f 1 3 8
f 1 8 9
f 1 9 12
f 1 12 11
f 1 11 16
f 1 16 21
f 1 21 22
f 1 22 17
f 1 17 13
f 1 13 6
f 1 6 4
f 1 4 2
f 2 4 6
f 2 6 7
f 2 7 14
f 2 14 19
f 2 19 20
f 2 20 15
f 2 15 10
f 2 10 5
f 3 5 8
f 5 9 8
f 5 10 11
f 5 11 12
f 5 12 9
f 6 13 14
f 6 14 7
f 10 15 11
f 11 15 16
f 13 17 18
f 13 18 14
f 14 18 21
f 14 21 16
f 14 16 19
f 15 20 16
f 16 20 19
f 17 22 18
f 18 22 21

