# https://github.com/mikedh/trimesh
v -3.31008425 2.05153454 1.99779963
v -3.28554426 2.05153454 1.99773764
v -3.31008425 2.05153454 1.89218186
v -3.31008425 1.57258291 1.99670373
v -3.26484930 1.57258291 1.99662100
v -3.26430257 2.05153454 1.99766528
v -3.30019836 2.05153454 1.89296757
v -3.30462147 1.57258291 1.89468378
v -3.31008425 1.57258291 1.89442528
v -3.26484930 1.57258291 1.99599037
v -3.26430257 1.64632909 1.99637292
v -3.26430257 2.05153454 1.99533913
v -3.28322291 2.05153454 1.90615944
v -3.30451392 1.57258291 1.89469409
v -3.26487618 1.57258291 1.93607900
v -3.26430257 1.64632909 1.93669931
v -3.26430257 2.05148763 1.92861459
v -3.26471933 2.05153454 1.92854223
f 1 2 6
f 1 6 12
f 1 12 18
f 1 18 13
f 1 13 7
f 1 7 3
f 1 3 9
f 1 9 4
f 1 4 5
f 1 5 2
f 2 5 6
f 3 7 8
f 3 8 9
f 4 9 8
f 4 8 14
f 4 14 15
f 4 15 10
f 4 10 5
f 5 10 16
f 5 16 11
f 5 11 6
f 6 11 16
f 6 16 17
f 6 17 12
f 7 13 14
f 7 14 8
f 10 15 16
f 12 17 18
f 13 18 17
f 13 17 15
f 13 15 14
f 15 17 16

