# https://github.com/mikedh/trimesh
v 1.35548832 2.05159155 1.15606738
v 1.35548832 2.02893696 1.16342277
v 1.35548832 2.05159155 1.22557279
v 1.65899263 2.05159155 1.15802019
v 1.65899263 2.02893696 1.16431412
v 1.35548832 2.02893696 1.22253809
v 1.35901097 2.05159155 1.22557279
v 1.67564177 2.05159155 1.15820391
v 1.73426615 2.02893696 1.16487888
v 1.66907853 2.02893696 1.16438218
v 1.37569722 2.02893696 1.22247686
v 1.73426615 2.05159155 1.22462701
v 1.39234639 2.05159155 1.22549113
v 1.37569722 2.05159155 1.22553196
v 1.73426615 2.05159155 1.15957156
v 1.73426615 2.02893696 1.22108879
v 1.64230635 2.02893696 1.22144942
f 1 2 6
f 1 6 3
f 1 3 7
f 1 7 14
f 1 14 13
f 1 13 12
f 1 12 15
f 1 15 8
f 1 8 4
f 1 4 5
f 1 5 2
f 2 5 10
f 2 10 9
f 2 9 16
f 2 16 17
f 2 17 11
f 2 11 6
f 3 6 7
f 4 8 9
f 4 9 10
f 4 10 5
f 6 11 12
f 6 12 13
f 6 13 14
f 6 14 7
f 8 15 9
f 9 15 12
f 9 12 16
f 11 17 12
f 12 17 16

