# https://github.com/mikedh/trimesh
v -3.949295395 -0.6445188500000001 0.18918407
v -3.960739075 -0.6445188500000001 0.18646503
v -3.9491864850000002 -0.6445188500000001 0.18916529
v -3.938035525 -0.46992977 0.18481851
v -3.949295395 -0.46992977 0.18601342
v -3.959677105 -0.46992977 0.18484678
v -3.965933295 -0.6445188500000001 0.17531597
v -3.965286605 -0.46992977 0.17531597
v -3.9375521949999994 -0.6445188500000001 0.18630507
v -3.9340530949999994 -0.46992977 0.18246643
v -3.899306835 -0.6445188500000001 0.16473143
v -3.9688470149999997 -0.5612916800000001 0.15863471
v -3.968785705 -0.57797129 0.15863471
v -3.968343225 -0.6445188500000001 0.15863471
v -3.9670974349999995 -0.46992977 0.16662254
v -3.968751705 -0.46992977 0.15863471
v -3.899306835 -0.46996395 0.16191827
v -3.899306835 -0.46992977 0.16166425
v -3.899306835 -0.6445188500000001 0.1182629
v -3.9683976750000003 -0.5612916800000001 0.12529104
v -3.968574695 -0.57797129 0.14196287
v -3.9683500249999994 -0.6445188500000001 0.14196287
v -3.968343225 -0.46992977 0.12529104
v -3.968390875 -0.54462915 0.12529104
v -3.9683500249999994 -0.6445188500000001 0.14212283
v -3.899306835 -0.46992977 0.12147119
v -3.9215337850000003 -0.6445188500000001 0.09823218
v -3.9225141150000002 -0.46992977 0.09894728
v -3.966743405 -0.6445188500000001 0.1087791
v -3.968234315 -0.61131343 0.12529104
v -3.9679960549999995 -0.6445188500000001 0.12546036
v -3.9671790849999997 -0.46992977 0.1165976
v -3.9667230049999995 -0.6445188500000001 0.1086192
v -3.932623435 -0.6445188500000001 0.09460993
v -3.932623435 -0.46992977 0.09684916
v -3.9679891949999995 -0.6445188500000001 0.12529104
v -3.966062655 -0.46992977 0.1086192
v -3.966178365 -0.49459031 0.1086192
v -3.9616172350000003 -0.6445188500000001 0.0968021
v -3.949295395 -0.6445188500000001 0.09306695
v -3.949295395 -0.46992977 0.09582363
v -3.9632987650000002 -0.46992977 0.10303057
v -3.9615695849999994 -0.6445188500000001 0.09669862
v -3.949411155 -0.6445188500000001 0.09309516
v -3.9607594749999997 -0.46992977 0.09793111
f 1 2 7
f 1 7 14
f 1 14 25
f 1 25 22
f 1 22 31
f 1 31 36
f 1 36 29
f 1 29 33
f 1 33 39
f 1 39 43
f 1 43 44
f 1 44 40
f 1 40 34
f 1 34 27
f 1 27 19
f 1 19 11
f 1 11 9
f 1 9 3
f 1 3 4
f 1 4 5
f 1 5 6
f 1 6 2
f 2 6 8
f 2 8 7
f 3 9 4
f 4 10 18
f 4 18 26
f 4 26 28
f 4 28 35
f 4 35 41
f 4 41 45
f 4 45 42
f 4 42 37
f 4 37 32
f 4 32 23
f 4 23 16
f 4 16 15
f 4 15 8
f 4 8 6
f 4 6 5
f 4 9 11
f 4 11 10
f 7 12 13
f 7 13 14
f 7 8 15
f 7 15 16
f 7 16 12
f 10 17 18
f 10 11 17
f 11 19 26
f 11 26 18
f 11 18 17
f 12 20 21
f 12 21 22
f 12 22 13
f 12 16 23
f 12 23 24
f 12 24 20
f 13 22 25
f 13 25 14
f 19 27 28
f 19 28 26
f 20 29 30
f 20 30 21
f 20 24 29
f 21 30 22
f 22 30 31
f 23 32 33
f 23 33 29
f 23 29 24
f 27 34 28
f 28 34 35
f 29 36 30
f 30 36 31
f 32 37 38
f 32 38 33
f 33 38 39
f 34 40 35
f 35 40 41
f 37 42 43
f 37 43 39
f 37 39 38
f 40 44 45
f 40 45 41
f 42 45 43
f 43 45 44

