# https://github.com/mikedh/trimesh
v -3.75031874 1.94268578 0.20379201
v -3.74848647 2.01480218 0.20306458
v -3.78976040 1.94268578 0.20379201
v -3.74882956 1.94264239 0.20379201
v -3.73132425 2.00564661 0.18238250
v -3.73132425 2.01480218 0.18233905
v -3.78978233 2.01480218 0.20306458
v -3.80347703 2.01480218 0.17017949
v -3.79023491 1.57151624 0.20343372
v -3.78976040 1.93899751 0.20379201
v -3.74882223 1.93899751 0.20379201
v -3.73076945 1.78786547 0.18114480
v -3.74882223 1.85542579 0.20379201
v -3.73076945 1.63907656 0.18152478
v -3.73076945 1.65634631 0.18150309
v -3.73132425 2.01480218 0.13097577
v -3.80453555 2.01480218 0.15351437
v -3.80518525 1.60570862 0.15352522
v -3.80523633 1.57151624 0.15352522
v -3.80368874 1.57151624 0.16934352
v -3.80359385 1.57151624 0.17019033
v -3.75451619 1.57151624 0.20343372
v -3.78962170 1.78786547 0.20379201
v -3.78971659 1.88901068 0.20379201
v -3.73076945 1.78786547 0.13024835
v -3.74882956 1.83876351 0.20379201
v -3.73076945 1.60570862 0.18143794
v -3.74885144 1.80543896 0.20379201
v -3.73132425 2.01471541 0.13061748
v -3.73139727 2.01480218 0.13061748
v -3.80468153 2.01480218 0.13688180
v -3.80532395 1.57151624 0.13687095
v -3.75063262 1.57155962 0.20343372
v -3.74889525 1.78786547 0.20379201
v -3.73076945 1.57151624 0.18132940
v -3.73076945 1.63907656 0.12879356
v -3.74888791 1.78903704 0.20379201
v -3.75282263 2.01480218 0.10452868
v -3.75671347 1.57151624 0.09515929
v -3.80470346 2.01480218 0.12932554
v -3.80532395 1.62241428 0.12020584
v -3.80534582 1.60570862 0.12020584
v -3.80530935 1.58904633 0.12020584
v -3.80525093 1.57151624 0.12020584
v -3.75039902 1.58904633 0.20343372
v -3.74925294 1.70572566 0.20343372
v -3.73076945 1.57151624 0.12847867
v -3.76309366 2.00564661 0.09626669
v -3.76439305 2.01480218 0.09610385
v -3.76404264 1.57151624 0.09392165
v -3.80465965 2.01480218 0.12021669
v -3.80046947 1.57151624 0.10355157
v -3.80508303 1.57151624 0.11936988
v -3.77140834 2.00564661 0.09509420
v -3.77167841 2.01480218 0.09511590
v -3.78137276 1.57151624 0.09287939
v -3.80152067 2.01480218 0.11267127
v -3.80006797 1.57151624 0.10296529
v -3.79764437 2.01480218 0.10355157
v -3.78137276 2.00564661 0.09489875
v -3.78070119 2.01480218 0.09496390
v -3.79208911 1.57151624 0.09383480
v -3.79021304 2.01480218 0.09503990
v -3.78618343 2.01480218 0.09498560
v -3.79273881 1.57151624 0.09400849
f 1 2 7
f 1 7 3
f 1 3 10
f 1 10 24
f 1 24 23
f 1 23 34
f 1 34 37
f 1 37 28
f 1 28 26
f 1 26 13
f 1 13 11
f 1 11 4
f 1 4 2
f 2 5 6
f 2 6 16
f 2 16 30
f 2 30 38
f 2 38 49
f 2 49 55
f 2 55 61
f 2 61 64
f 2 64 63
f 2 63 59
f 2 59 57
f 2 57 51
f 2 51 40
f 2 40 31
f 2 31 17
f 2 17 8
f 2 8 7
f 2 4 5
f 3 7 8
f 3 8 9
f 3 9 10
f 4 11 5
f 5 12 6
f 5 11 13
f 5 13 14
f 5 14 15
f 5 15 12
f 6 12 25
f 6 25 16
f 8 17 18
f 8 18 19
f 8 19 20
f 8 20 21
f 8 21 9
f 9 21 20
f 9 20 19
f 9 19 32
f 9 32 44
f 9 44 53
f 9 53 52
f 9 52 58
f 9 58 65
f 9 65 62
f 9 62 56
f 9 56 50
f 9 50 39
f 9 39 47
f 9 47 35
f 9 35 22
f 9 22 34
f 9 34 23
f 9 23 24
f 9 24 10
f 12 15 14
f 12 14 27
f 12 27 35
f 12 35 47
f 12 47 36
f 12 36 25
f 13 26 14
f 14 26 28
f 14 28 27
f 16 29 30
f 16 25 29
f 17 31 18
f 18 31 19
f 19 31 32
f 22 33 34
f 22 35 33
f 25 36 29
f 27 28 37
f 27 37 35
f 29 38 30
f 29 36 39
f 29 39 38
f 31 40 41
f 31 41 32
f 32 41 42
f 32 42 43
f 32 43 44
f 33 45 34
f 33 35 45
f 34 45 46
f 34 46 35
f 34 35 37
f 35 46 45
f 36 47 39
f 38 48 49
f 38 39 48
f 39 50 48
f 40 51 41
f 41 52 42
f 41 51 52
f 42 52 53
f 42 53 43
f 43 53 44
f 48 50 49
f 49 54 55
f 49 50 54
f 50 56 54
f 51 57 52
f 52 57 59
f 52 59 58
f 54 56 55
f 55 56 60
f 55 60 61
f 56 62 63
f 56 63 64
f 56 64 60
f 58 59 65
f 59 63 65
f 60 64 61
f 62 65 63

