# https://github.com/mikedh/trimesh
v -3.36471622 1.48326039 1.92021480
v -3.36820968 1.48326793 1.92021480
v -3.36820968 1.48467833 1.91672051
v -3.34804556 1.48326039 1.92021480
v -3.36820968 1.48395428 1.97020639
v -3.36820968 1.49010127 1.90355446
v -3.33138623 1.48330563 1.92021480
v -3.34804556 1.48396936 1.97020639
v -3.36471622 1.48395428 1.97020639
v -3.36820968 1.48738605 1.98687717
v -3.36820968 1.49159467 1.90178651
v -3.36471622 1.49011638 1.90355446
v -3.31472129 1.49030494 1.90366884
v -3.31472129 1.48341876 1.92021480
v -3.33138623 1.48402971 1.97020639
v -3.31472129 1.48744637 1.98687717
v -3.33138623 1.48742375 1.98687717
v -3.36471622 1.48738605 1.98687717
v -3.31472129 1.49400820 1.99727689
v -3.36820968 1.49403839 1.99721454
v -3.31008992 1.49072730 1.90319045
v -3.36820968 1.49724387 1.89516188
v -3.31008992 1.48846460 1.90826552
v -3.31008992 1.48349419 1.92021480
v -3.31008992 1.48353946 1.92485309
v -3.31008992 1.48418808 1.97020639
v -3.31008992 1.48510070 1.97484468
v -3.31008992 1.48748410 1.98687717
v -3.31008992 1.48928670 1.98976826
v -3.31008992 1.49402328 1.99727689
v -3.31008992 1.49725895 1.99799454
v -3.31472129 1.50569882 1.99984563
v -3.36820968 1.50324756 1.99918008
v -3.35414484 1.49733438 1.89520342
v -3.31008992 1.50027589 1.89530743
v -3.36820968 1.50569882 1.89505786
v -3.31472129 1.55568943 1.89428824
v -3.31008992 1.50811239 1.89510984
v -3.31008992 1.50532170 1.89516188
v -3.31008992 1.50569882 1.99984563
v -3.31008992 1.51032982 2.00003279
v -3.31008992 1.52235232 2.00050081
v -3.36820968 1.52235232 2.00039686
v -3.36820968 1.51886774 2.00025119
v -3.36820968 1.50569882 1.99970008
v -3.31472129 1.56030534 1.89425707
v -3.36820968 1.52073070 1.89512027
v -3.31008992 1.55008548 1.89449627
v -3.31008992 1.53902089 1.99965847
v -3.33138623 1.53902089 1.99962724
v -3.34804556 1.53902089 1.99956489
v -3.36820968 1.53552877 1.99963761
v -3.32456436 1.56030534 1.89477706
v -3.31137005 1.56030534 1.89439225
v -3.36820968 1.52905745 1.89524502
v -3.31008992 1.56030534 1.89444429
v -3.33138623 1.56030534 1.99746405
v -3.31008992 1.56030534 1.99742245
v -3.31472129 1.56030534 1.99743294
v -3.34804556 1.56030534 1.99742245
v -3.36820968 1.56030534 1.99730812
v -3.36820968 1.53902089 1.99941922
v -3.36820968 1.53902089 1.89846895
v -3.36820968 1.54912761 1.90677838
v -3.36820968 1.56030534 1.93247611
f 1 2 3
f 1 3 4
f 1 4 9
f 1 9 5
f 1 5 2
f 2 5 10
f 2 10 20
f 2 20 33
f 2 33 45
f 2 45 44
f 2 44 43
f 2 43 52
f 2 52 62
f 2 62 61
f 2 61 65
f 2 65 64
f 2 64 63
f 2 63 55
f 2 55 47
f 2 47 36
f 2 36 22
f 2 22 11
f 2 11 6
f 2 6 3
f 3 6 4
f 4 6 7
f 4 7 8
f 4 8 9
f 5 9 18
f 5 18 10
f 6 11 12
f 6 12 7
f 7 12 13
f 7 13 14
f 7 14 15
f 7 15 8
f 8 15 16
f 8 16 17
f 8 17 18
f 8 18 9
f 10 18 19
f 10 19 20
f 11 21 12
f 11 22 21
f 12 21 13
f 13 23 14
f 13 21 23
f 14 24 25
f 14 25 26
f 14 26 15
f 14 23 24
f 15 26 27
f 15 27 16
f 16 28 29
f 16 29 30
f 16 30 19
f 16 19 17
f 16 27 28
f 17 19 18
f 19 30 31
f 19 31 32
f 19 32 20
f 20 32 33
f 21 22 34
f 21 34 35
f 21 35 39
f 21 39 38
f 21 38 48
f 21 48 56
f 21 56 58
f 21 58 49
f 21 49 42
f 21 42 41
f 21 41 40
f 21 40 31
f 21 31 30
f 21 30 29
f 21 29 28
f 21 28 27
f 21 27 26
f 21 26 25
f 21 25 24
f 21 24 23
f 22 36 37
f 22 37 38
f 22 38 39
f 22 39 34
f 31 40 32
f 32 40 41
f 32 41 42
f 32 42 43
f 32 43 44
f 32 44 45
f 32 45 33
f 34 39 35
f 36 46 37
f 36 47 46
f 37 46 48
f 37 48 38
f 42 49 50
f 42 50 43
f 43 50 51
f 43 51 52
f 46 53 65
f 46 65 61
f 46 61 60
f 46 60 57
f 46 57 59
f 46 59 58
f 46 58 56
f 46 56 54
f 46 54 48
f 46 47 55
f 46 55 53
f 48 54 56
f 49 57 50
f 49 58 59
f 49 59 57
f 50 57 60
f 50 60 51
f 51 60 61
f 51 61 62
f 51 62 52
f 53 55 63
f 53 63 64
f 53 64 65

