# https://github.com/mikedh/trimesh
v 0.26082018 2.06870878 1.47889116
v 0.24871783 2.04313615 1.39159785
v 0.26082018 2.06870878 1.47495579
v 0.26079264 2.06870878 1.49166830
v 0.24859850 2.04313615 1.50434315
v 0.21187815 2.04313615 1.39154674
v 0.24871783 2.04313865 1.39154674
v 0.26023253 2.06787019 1.39154674
v 0.26068249 2.06870878 1.43708441
v 0.25934185 2.06870878 1.82704218
v 0.24779961 2.04313615 1.85418082
v 0.24784551 2.04313615 1.83751945
v 0.17443247 2.04313615 1.39154674
v 0.16702230 2.06787019 1.39154674
v 0.16919849 2.06870878 1.43708441
v 0.25924082 2.06870878 1.84355024
v 0.24760679 2.04313615 1.88755463
v 0.24770776 2.04313615 1.87084218
v 0.17443247 2.04313615 1.39159785
v 0.16953824 2.06870878 1.84150590
v 0.16891387 2.06870878 1.57492399
v 0.16891387 2.06870878 1.57349299
v 0.25901128 2.06870878 1.86000716
v 0.24746904 2.04313615 1.90421606
v 0.17775647 2.04313615 1.91367110
v 0.16970352 2.06870878 1.85602071
v 0.25832260 2.06870878 1.89414768
v 0.24739555 2.04313615 1.90820245
v 0.24726704 2.04313615 1.91367110
v 0.17236644 2.06389012 1.91367110
v 0.17044727 2.06870878 1.88898569
v 0.17009835 2.06870878 1.87462419
v 0.16973106 2.06870878 1.85811619
v 0.17089723 2.06870878 1.89414768
v 0.25488839 2.06389012 1.91367110
f 1 2 3
f 1 3 9
f 1 9 15
f 1 15 22
f 1 22 21
f 1 21 20
f 1 20 26
f 1 26 33
f 1 33 32
f 1 32 31
f 1 31 34
f 1 34 27
f 1 27 23
f 1 23 16
f 1 16 10
f 1 10 4
f 1 4 5
f 1 5 2
f 2 6 7
f 2 7 8
f 2 8 3
f 2 5 12
f 2 12 11
f 2 11 18
f 2 18 17
f 2 17 24
f 2 24 28
f 2 28 29
f 2 29 25
f 2 25 19
f 2 19 13
f 2 13 6
f 3 8 9
f 4 10 11
f 4 11 12
f 4 12 5
f 6 13 14
f 6 14 8
f 6 8 7
f 8 14 15
f 8 15 9
f 10 16 17
f 10 17 18
f 10 18 11
f 13 19 14
f 14 19 20
f 14 20 21
f 14 21 22
f 14 22 15
f 16 23 24
f 16 24 17
f 19 25 20
f 20 25 26
f 23 27 28
f 23 28 24
f 25 29 35
f 25 35 30
f 25 30 31
f 25 31 32
f 25 32 33
f 25 33 26
f 27 34 30
f 27 30 35
f 27 35 29
f 27 29 28
f 30 34 31

