# https://github.com/mikedh/trimesh
v -2.88561463 1.61957715 0.89795179
v -2.88561463 1.61812037 0.89796475
v -2.88561463 1.61957715 0.83593908
v -3.06960838 1.61957715 0.89727147
v -2.88561463 1.60569096 0.89803602
v -2.88561463 1.55960854 0.83208394
v -2.88599286 1.55960854 0.83208394
v -3.06960838 1.55904721 0.83208394
v -3.06960838 1.61957715 0.83652221
v -3.06960838 1.60569096 0.89733626
v -2.88561463 1.58902485 0.89808785
v -3.06960838 1.58902485 0.89740754
v -2.88561463 1.48443062 0.83208394
v -3.06960838 1.48377573 0.83208394
v -2.88561463 1.58478814 0.89810081
v -3.06960838 1.57234537 0.89745289
v -2.89805979 1.52236039 0.89824336
v -2.88561463 1.48361534 0.83687209
v -2.95284728 1.48396283 0.83208394
v -3.04803198 1.48305401 0.83687209
v -3.06960838 1.48308074 0.83687209
v -3.03137241 1.48376235 0.83208394
v -2.88561463 1.53478979 0.89824984
v -3.06960838 1.55567924 0.89745937
v -2.88561463 1.50569427 0.89766671
v -2.88561463 1.52236039 0.89827575
v -3.03137241 1.52236039 0.89757599
v -3.06960838 1.51746881 0.89725852
v -3.06960838 1.50569427 0.89693455
v -2.88561463 1.48376235 0.84930573
v -2.96471609 1.48318767 0.83687209
v -2.96950685 1.48385590 0.83208394
v -2.96471609 1.48388264 0.83208394
v -3.03137241 1.48305401 0.83687209
v -3.01471284 1.48349505 0.85354315
v -3.03137241 1.48352179 0.85354315
v -3.06960838 1.48344159 0.84864485
v -2.99803525 1.48376235 0.83208394
v -3.06960838 1.52236039 0.89737514
v -3.04803198 1.52236039 0.89749177
v -2.88561463 1.50326184 0.89727795
v -3.06960838 1.50294107 0.89662355
v -3.06960838 1.49636553 0.89583956
v -2.88561463 1.48381582 0.85354315
v -2.98137568 1.48310747 0.83687209
v -2.98137568 1.48380244 0.83208394
v -2.99803525 1.48306739 0.83687209
v -3.03137241 1.48425687 0.87020125
v -2.99803525 1.48350840 0.85354315
v -3.06470958 1.48358860 0.85354315
v -3.06960838 1.48360198 0.85354315
v -2.98616642 1.48378909 0.83208394
v -2.88561463 1.49603138 0.89611817
v -3.06960838 1.49017753 0.88686583
v -3.04803198 1.49008398 0.88686583
v -3.03137241 1.49001716 0.88686583
v -2.88561463 1.48423013 0.86596383
v -2.96471609 1.48356187 0.85354315
v -3.04803198 1.48432368 0.87020125
v -2.88561463 1.48439050 0.87020125
v -2.88561463 1.48834655 0.88263489
v -2.88561463 1.48973648 0.88686583
v -3.06960838 1.48417667 0.86530943
v -2.88561463 1.49444097 0.89378565
v -3.06960838 1.48444397 0.87020125
f 1 2 5
f 1 5 11
f 1 11 15
f 1 15 23
f 1 23 26
f 1 26 25
f 1 25 41
f 1 41 53
f 1 53 64
f 1 64 62
f 1 62 61
f 1 61 60
f 1 60 57
f 1 57 44
f 1 44 30
f 1 30 18
f 1 18 13
f 1 13 6
f 1 6 3
f 1 3 9
f 1 9 4
f 1 4 2
f 2 4 5
f 3 6 7
f 3 7 8
f 3 8 9
f 4 9 8
f 4 8 14
f 4 14 21
f 4 21 37
f 4 37 51
f 4 51 63
f 4 63 65
f 4 65 54
f 4 54 43
f 4 43 42
f 4 42 29
f 4 29 28
f 4 28 39
f 4 39 24
f 4 24 16
f 4 16 12
f 4 12 10
f 4 10 5
f 5 10 12
f 5 12 11
f 6 13 19
f 6 19 33
f 6 33 32
f 6 32 46
f 6 46 52
f 6 52 38
f 6 38 22
f 6 22 14
f 6 14 8
f 6 8 7
f 11 12 15
f 12 16 17
f 12 17 15
f 13 18 19
f 14 20 21
f 14 22 20
f 15 17 23
f 16 24 17
f 17 25 26
f 17 26 23
f 17 24 27
f 17 27 28
f 17 28 29
f 17 29 25
f 18 30 31
f 18 31 32
f 18 32 33
f 18 33 19
f 20 34 35
f 20 35 21
f 20 22 38
f 20 38 34
f 21 35 36
f 21 36 37
f 24 39 40
f 24 40 27
f 25 29 42
f 25 42 43
f 25 43 41
f 27 40 28
f 28 40 39
f 30 44 31
f 31 44 45
f 31 45 32
f 32 45 46
f 34 38 47
f 34 47 35
f 35 48 36
f 35 47 49
f 35 49 48
f 36 48 50
f 36 50 37
f 37 50 51
f 38 52 47
f 41 43 53
f 43 54 55
f 43 55 56
f 43 56 53
f 44 57 58
f 44 58 45
f 45 58 47
f 45 47 52
f 45 52 46
f 47 58 49
f 48 56 55
f 48 55 59
f 48 59 51
f 48 51 50
f 48 49 60
f 48 60 61
f 48 61 62
f 48 62 56
f 49 58 60
f 51 59 63
f 53 56 64
f 54 65 59
f 54 59 55
f 56 62 64
f 57 60 58
f 59 65 63

