# https://github.com/mikedh/trimesh
v 2.30817144 1.79160571 0.80040344
v 2.25327530 1.79160571 0.80040344
v 2.30823164 1.78962034 0.80040344
v 2.29469490 1.79160571 0.74239201
v 2.25678664 1.79160571 0.74239201
v 2.25294711 1.79156059 0.80040344
v 2.30824803 1.78901120 0.80040344
v 2.30855976 1.77233862 0.80040344
v 2.29687716 1.56112258 0.74239201
v 2.25292524 1.78901120 0.80040344
v 2.25647484 1.56123539 0.74239201
v 2.30860357 1.57238053 0.80040344
v 2.30855434 1.56112258 0.80040344
v 2.25710928 1.56112258 0.74239201
v 2.25273379 1.56112258 0.80040344
f 1 2 6
f 1 6 10
f 1 10 15
f 1 15 13
f 1 13 12
f 1 12 8
f 1 8 7
f 1 7 3
f 1 3 4
f 1 4 5
f 1 5 2
f 2 5 6
f 3 7 4
f 4 7 8
f 4 8 9
f 4 9 14
f 4 14 11
f 4 11 5
f 5 10 6
f 5 11 10
f 8 12 9
f 9 12 13
f 9 13 15
f 9 15 14
f 10 11 15
f 11 14 15

