# https://github.com/mikedh/trimesh
v -2.2979114149999997 -0.39031843 0.71682816
v -2.2979114149999997 -0.39031843 0.68330025
v -2.298143895 -0.39031843 0.72744646
v -2.2979114149999997 -0.39417179 0.72746459
v -2.2979114149999997 -0.60426356 0.68248415
v -2.465135085 -0.60426356 0.68208971
v -2.481872945 -0.60426356 0.68205795
v -2.4985333350000003 -0.60426356 0.68203529
v -2.5389056749999996 -0.60426356 0.68198996
v -3.065373515 -0.60426356 0.68164992
v -3.0895504449999995 -0.39031843 0.68296927
v -2.4151539149999994 -0.39031843 0.72711548
v -2.4151539149999994 -0.39454876 0.72712908
v -2.4151539149999994 -0.44457958 0.72728323
v -2.2979114149999997 -0.41084175 0.72750539
v -2.2979114149999997 -0.60426356 0.72796785
v -3.0724251249999996 -0.60426356 0.68166351
v -3.0820339050000003 -0.60426356 0.68169524
v -3.0895504449999995 -0.60426356 0.68173153
v -3.0895504449999995 -0.39031843 0.72342944
v -2.9152751749999997 -0.39031843 0.72486668
v -2.9152751749999997 -0.39454876 0.7249075
v -2.9152751749999997 -0.41121872000000004 0.72505711
v -2.9152751749999997 -0.42790962 0.7251614
v -2.9152751749999997 -0.44457958 0.72522939
v -2.4317368349999997 -0.44457958 0.72723337
v -2.4317368349999997 -0.4612286 0.72726963
v -2.3079075949999996 -0.60426356 0.72793159
v -3.0895504449999995 -0.60426356 0.72418209
v -3.0895504449999995 -0.43534408 0.72382844
v -2.931935545 -0.41121872000000004 0.72496643
v -2.931935545 -0.39454876 0.72481229
v -2.931935545 -0.39031843 0.72476693
v -2.9277510749999998 -0.39031843 0.72479415
v -2.931935545 -0.42790962 0.72507524
v -2.931935545 -0.44457958 0.7251478
v -2.931935545 -0.4612286 0.72518859
v -2.9152751749999997 -0.4612286 0.72526115
v -2.4151539149999994 -0.60426356 0.72753259
v -2.398416055 -0.60426356 0.72760061
v -2.9152751749999997 -0.60426356 0.72531101
v -2.931935545 -0.4779195 0.72520219
v -3.0895504449999995 -0.4779195 0.72402338
v -3.0895504449999995 -0.44457958 0.7239055
v -3.0895504449999995 -0.45201405 0.72395086
v -3.0895504449999995 -0.4612286 0.72399618
v -3.0895504449999995 -0.46868401000000004 0.72400978
f 1 2 11
f 1 11 20
f 1 20 33
f 1 33 34
f 1 34 21
f 1 21 12
f 1 12 3
f 1 3 4
f 1 4 15
f 1 15 16
f 1 16 5
f 1 5 2
f 2 5 6
f 2 6 7
f 2 7 8
f 2 8 9
f 2 9 10
f 2 10 11
f 3 12 4
f 4 12 13
f 4 13 14
f 4 14 15
f 5 16 28
f 5 28 40
f 5 40 39
f 5 39 41
f 5 41 29
f 5 29 19
f 5 19 18
f 5 18 17
f 5 17 10
f 5 10 9
f 5 9 8
f 5 8 7
f 5 7 6
f 10 17 11
f 11 17 18
f 11 18 19
f 11 19 29
f 11 29 43
f 11 43 47
f 11 47 46
f 11 46 45
f 11 45 44
f 11 44 30
f 11 30 20
f 12 21 22
f 12 22 23
f 12 23 24
f 12 24 25
f 12 25 26
f 12 26 13
f 13 26 14
f 14 16 15
f 14 26 27
f 14 27 16
f 16 27 28
f 20 30 31
f 20 31 32
f 20 32 33
f 21 34 32
f 21 32 22
f 22 32 31
f 22 31 23
f 23 31 35
f 23 35 24
f 24 35 36
f 24 36 25
f 25 36 37
f 25 37 38
f 25 38 27
f 25 27 26
f 27 38 39
f 27 39 40
f 27 40 28
f 29 41 42
f 29 42 37
f 29 37 43
f 30 44 31
f 31 44 35
f 32 34 33
f 35 44 45
f 35 45 46
f 35 46 36
f 36 46 37
f 37 46 47
f 37 47 43
f 37 42 38
f 38 42 39
f 39 42 41

