# https://github.com/mikedh/trimesh
v 0.40615782 2.06259978 1.02049115
v 0.40615782 2.06260452 1.08956731
v 0.40615782 2.10915997 1.02049115
v 0.81362809 2.06430065 1.02049115
v 0.81362809 2.06389205 1.08956731
v 0.40615782 2.10888918 1.08956731
v 0.40615782 2.10913622 1.03687602
v 0.42566371 2.10930725 1.05354492
v 0.42566371 2.10932627 1.03687602
v 0.42566371 2.10933100 1.02049115
v 0.81362809 2.11113641 1.02049115
v 0.81362809 2.11099864 1.08956731
v 0.40615782 2.10891293 1.08686918
v 0.42566371 2.10910296 1.08956731
v 0.40615782 2.10913148 1.03974997
v 0.40615782 2.10910772 1.05354492
v 0.40615782 2.10909822 1.05641210
v 0.42566371 2.10924076 1.07020029
v 0.44233747 2.10936903 1.07020029
v 0.44233747 2.10942605 1.05354492
v 0.44233747 2.10945454 1.03687602
v 0.44233747 2.10945930 1.02049115
v 0.81362809 2.11112691 1.03224390
v 0.80896100 2.11112217 1.02049115
v 0.81362809 2.11108891 1.05354492
v 0.81287015 2.11099864 1.08956731
v 0.40615782 2.10903647 1.07020029
v 0.44233747 2.10925501 1.08956731
v 0.45901123 2.10934528 1.08956731
v 0.74230579 2.11076108 1.08956731
v 0.75897961 2.11083711 1.08956731
v 0.72535278 2.11075634 1.02049115
v 0.45873204 2.10954481 1.02049115
v 0.81362809 2.11112217 1.03687602
v 0.80896100 2.11110789 1.03687602
v 0.79232712 2.11103664 1.03687602
v 0.81362809 2.11109842 1.04891279
v 0.80896100 2.11107940 1.05354492
v 0.80628843 2.11098913 1.08956731
v 0.77294085 2.11088935 1.08956731
v 0.77565336 2.11089886 1.08956731
v 0.78961461 2.11094636 1.08956731
f 1 2 6
f 1 6 13
f 1 13 27
f 1 27 17
f 1 17 16
f 1 16 15
f 1 15 7
f 1 7 3
f 1 3 10
f 1 10 22
f 1 22 33
f 1 33 32
f 1 32 24
f 1 24 11
f 1 11 4
f 1 4 5
f 1 5 2
f 2 5 12
f 2 12 26
f 2 26 39
f 2 39 42
f 2 42 41
f 2 41 40
f 2 40 31
f 2 31 30
f 2 30 29
f 2 29 28
f 2 28 14
f 2 14 6
f 3 7 8
f 3 8 9
f 3 9 10
f 4 11 23
f 4 23 34
f 4 34 37
f 4 37 25
f 4 25 12
f 4 12 5
f 6 14 13
f 7 15 8
f 8 15 16
f 8 16 17
f 8 17 18
f 8 18 19
f 8 19 20
f 8 20 21
f 8 21 9
f 9 21 22
f 9 22 10
f 11 24 23
f 12 25 26
f 13 14 27
f 14 18 27
f 14 28 18
f 17 27 18
f 18 28 19
f 19 28 29
f 19 29 30
f 19 30 20
f 20 30 21
f 21 30 31
f 21 31 32
f 21 32 33
f 21 33 22
f 23 24 35
f 23 35 34
f 24 36 35
f 24 32 36
f 25 37 38
f 25 38 39
f 25 39 26
f 31 40 35
f 31 35 36
f 31 36 32
f 34 35 38
f 34 38 37
f 35 40 38
f 38 40 41
f 38 41 42
f 38 42 39

