# https://github.com/mikedh/trimesh
v -2.08178268 -0.69372217 0.74245204
v -2.08294384 -0.71138265 0.74245204
v -2.08250601 -0.69182967 0.74245204
v -2.0853517999999998 -0.69558116 0.84884487
v -2.08489495 -0.71138265 0.84884487
v -2.08295338 -0.7114831500000001 0.74245204
v -2.08574203 -0.68437692 0.74245204
v -2.08843555 -0.6866546099999999 0.83111967
v -2.08911129 -0.68839637 0.84884487
v -2.08703643 -0.7262714100000001 0.84884487
v -2.0890637 -0.73505559 0.74245204
v -2.08811194 -0.7313878300000001 0.84884487
v -2.0888352699999997 -0.73510584 0.77568418
v -2.0888067 -0.73512257 0.75902124
v -2.11665538 -0.6646480800000001 0.74245204
v -2.11495173 -0.66302355 0.84884487
v -2.09664924 -0.67962056 0.84884487
v -2.09734406 -0.73946025 0.74245204
v -2.08919693 -0.73462015 0.84884487
v -2.08909226 -0.73461177 0.84238798
v -2.08898753 -0.7347876200000001 0.82571463
v -2.0971727099999997 -0.73941838 0.77568418
v -2.0971442 -0.73944349 0.75902124
v -2.0974297 -0.73935138 0.84238798
v -2.09732503 -0.7393681400000001 0.82571463
v -2.13005625 -0.6589538500000001 0.74245204
v -2.13005625 -0.6572958200000001 0.84884487
v -2.11338131 -0.74259208 0.74245204
v -2.09753437 -0.7393430000000001 0.84884487
v -2.09730601 -0.7393932400000001 0.80904129
v -2.11338131 -0.74241622 0.84884487
v -2.14671211 -0.65848492 0.74245204
v -2.1465503 -0.6575889 0.84884487
v -2.14683586 -0.65848492 0.74245204
v -2.12994204 -0.7427260600000001 0.74245204
v -2.13005625 -0.7426423200000001 0.84884487
v -2.14672165 -0.74279304 0.84884487
v -2.16339659 -0.65961539 0.84884487
v -2.16347269 -0.65987498 0.74245204
v -2.16339659 -0.6597661100000001 0.75902124
v -2.16339659 -0.65973262 0.77568418
v -2.1465978999999997 -0.7428432899999999 0.74245204
v -2.16339659 -0.7422738600000001 0.84884487
v -2.16339659 -0.7423576000000001 0.74245204
v -2.14671211 -0.7428432899999999 0.74245204
v -2.17524607 -0.6652677499999999 0.84884487
v -2.17537931 -0.6652761300000001 0.75902124
v -2.17535074 -0.66525099 0.77568418
v -2.1753412599999997 -0.66533474 0.74245204
v -2.17456079 -0.73904992 0.84884487
v -2.1745417700000003 -0.73914203 0.74245204
v -2.17889135 -0.67804628 0.84884487
v -2.1790054999999997 -0.67804628 0.75902124
v -2.17898648 -0.67804628 0.77568418
v -2.1790054999999997 -0.67804628 0.74245204
v -2.1759503799999997 -0.734796 0.84884487
v -2.17464644 -0.73904154 0.74245204
v -2.17893888 -0.69471865 0.84884487
v -2.17895797 -0.69471865 0.74245204
v -2.1781203700000002 -0.72805504 0.84884487
v -2.1781775 -0.72805504 0.74245204
v -2.17886278 -0.71138265 0.84884487
v -2.17886278 -0.71138265 0.74245204
v -2.17818698 -0.72793779 0.74245204
f 1 2 6
f 1 6 11
f 1 11 18
f 1 18 28
f 1 28 35
f 1 35 42
f 1 42 45
f 1 45 44
f 1 44 51
f 1 51 57
f 1 57 61
f 1 61 64
f 1 64 63
f 1 63 59
f 1 59 55
f 1 55 49
f 1 49 39
f 1 39 34
f 1 34 32
f 1 32 26
f 1 26 15
f 1 15 7
f 1 7 3
f 1 3 4
f 1 4 5
f 1 5 2
f 2 5 6
f 3 7 8
f 3 8 4
f 4 8 9
f 4 9 17
f 4 17 16
f 4 16 27
f 4 27 33
f 4 33 38
f 4 38 46
f 4 46 52
f 4 52 58
f 4 58 62
f 4 62 60
f 4 60 56
f 4 56 50
f 4 50 43
f 4 43 37
f 4 37 36
f 4 36 31
f 4 31 29
f 4 29 19
f 4 19 12
f 4 12 10
f 4 10 5
f 5 10 6
f 6 10 12
f 6 12 13
f 6 13 14
f 6 14 11
f 7 15 16
f 7 16 17
f 7 17 8
f 8 17 9
f 11 14 18
f 12 19 20
f 12 20 21
f 12 21 13
f 13 22 23
f 13 23 14
f 13 21 24
f 13 24 25
f 13 25 22
f 14 23 18
f 15 26 16
f 16 26 27
f 18 23 28
f 19 29 21
f 19 21 20
f 21 29 24
f 22 25 23
f 23 25 30
f 23 30 28
f 24 29 31
f 24 31 25
f 25 31 30
f 26 32 27
f 27 32 34
f 27 34 33
f 28 30 31
f 28 31 36
f 28 36 37
f 28 37 35
f 33 34 39
f 33 39 40
f 33 40 41
f 33 41 38
f 35 37 42
f 37 43 44
f 37 44 45
f 37 45 42
f 38 41 47
f 38 47 48
f 38 48 46
f 39 49 47
f 39 47 40
f 40 47 41
f 43 50 51
f 43 51 44
f 46 48 52
f 47 53 54
f 47 54 48
f 47 49 55
f 47 55 53
f 48 54 52
f 50 56 57
f 50 57 51
f 52 54 58
f 53 55 59
f 53 59 58
f 53 58 54
f 56 60 57
f 57 60 61
f 58 59 62
f 59 63 62
f 60 62 64
f 60 64 61
f 62 63 64

