# https://github.com/mikedh/trimesh
v 0.77560586 2.05402782 1.54693774
v 0.77560586 2.05402782 1.60004251
v 0.77560586 2.03045297 1.55676895
v 0.48426532 2.03045297 1.55965676
v 0.47568910 2.03045297 1.55975850
v 0.47568910 2.05402782 1.55212929
v 0.77560586 2.05397704 1.60085153
v 0.77396624 2.05402782 1.60085153
v 0.77560586 2.03045297 1.60015498
v 0.45900950 2.03045297 1.56015500
v 0.45478445 2.03045297 1.56027820
v 0.45352327 2.03045297 1.56031575
v 0.45891491 2.05402782 1.55263826
v 0.64232702 2.05402782 1.60159087
v 0.64232702 2.03045297 1.60084616
v 0.45352327 2.05402782 1.55280968
v 0.45352327 2.03045297 1.60112476
v 0.64065593 2.05402782 1.60159623
v 0.62564748 2.03045297 1.60088902
v 0.45352327 2.05402782 1.60159623
v 0.47401795 2.05402782 1.60162836
v 0.50901665 2.03045297 1.60111403
v 0.50901665 2.05402782 1.60167122
v 0.49233711 2.05402782 1.60165512
v 0.52402510 2.05402782 1.60166585
v 0.52566472 2.03045297 1.60109793
v 0.54234425 2.03045297 1.60107117
f 1 2 7
f 1 7 9
f 1 9 3
f 1 3 4
f 1 4 5
f 1 5 6
f 1 6 13
f 1 13 16
f 1 16 20
f 1 20 21
f 1 21 24
f 1 24 23
f 1 23 25
f 1 25 18
f 1 18 14
f 1 14 8
f 1 8 2
f 2 8 7
f 3 9 15
f 3 15 19
f 3 19 27
f 3 27 26
f 3 26 22
f 3 22 17
f 3 17 12
f 3 12 11
f 3 11 10
f 3 10 5
f 3 5 4
f 5 10 6
f 6 10 11
f 6 11 12
f 6 12 13
f 7 14 9
f 7 8 14
f 9 14 15
f 12 16 13
f 12 17 20
f 12 20 16
f 14 18 15
f 15 18 19
f 17 21 20
f 17 22 23
f 17 23 24
f 17 24 21
f 18 25 22
f 18 22 26
f 18 26 27
f 18 27 19
f 22 25 23

