# https://github.com/mikedh/trimesh
v 0.15435240 2.13788150 0.75283750
v 0.15435240 2.13508614 0.74033024
v 0.12513533 2.13759641 0.75283750
v 0.15435240 2.06684308 0.75283750
v 0.12456371 2.13420997 0.74040308
v 0.15435240 2.12226361 0.70556244
v 0.12456371 2.13757555 0.75283750
v 0.12456371 2.06785830 0.75283750
v 0.15435240 2.06889439 0.72487952
v 0.15435240 2.12129011 0.70322130
v 0.12456371 2.12792390 0.72585093
v 0.12456371 2.07181492 0.72487952
v 0.15435240 2.07136991 0.70725761
v 0.15417155 2.12103283 0.70322130
v 0.12456371 2.10584606 0.70669902
v 0.12456371 2.11534474 0.71020106
v 0.12456371 2.11914144 0.71164852
v 0.15435240 2.07341428 0.70322130
v 0.12456371 2.07525700 0.71586942
v 0.15435240 2.07146030 0.70696132
v 0.14757231 2.10584606 0.70322130
v 0.14838300 2.08911561 0.70322130
v 0.12456371 2.10105500 0.70684476
v 0.12456371 2.07673115 0.71220711
v 0.12456371 2.08918514 0.70725761
f 1 2 3
f 1 3 7
f 1 7 8
f 1 8 4
f 1 4 9
f 1 9 13
f 1 13 20
f 1 20 18
f 1 18 10
f 1 10 6
f 1 6 2
f 2 5 3
f 2 6 5
f 3 5 7
f 4 8 9
f 5 6 10
f 5 10 11
f 5 11 17
f 5 17 16
f 5 16 15
f 5 15 23
f 5 23 25
f 5 25 24
f 5 24 19
f 5 19 12
f 5 12 8
f 5 8 7
f 8 12 13
f 8 13 9
f 10 14 15
f 10 15 16
f 10 16 17
f 10 17 11
f 10 18 22
f 10 22 21
f 10 21 14
f 12 19 20
f 12 20 13
f 14 21 15
f 15 21 22
f 15 22 23
f 18 20 24
f 18 24 25
f 18 25 22
f 19 24 20
f 22 25 23

