# https://github.com/mikedh/trimesh
v -2.07586996 -0.6897683800000001 0.19196581
v -2.08746495 -0.69908693 0.20876766
v -2.08744449 -0.69922129 0.20876766
v -2.0866653399999997 -0.71147647 0.20876766
v -2.07586996 -0.6947971399999999 0.19157354
v -2.07586996 -0.67517157 0.18871005
v -2.0908481 -0.69080484 0.20876766
v -2.0875674699999998 -0.72599652 0.20876766
v -2.07586996 -0.70811757 0.18872311
v -2.07586996 -0.66662077 0.18532349
v -2.1174213 -0.66501809 0.20876766
v -2.08908481 -0.73437458 0.20876766
v -2.08903352 -0.73434577 0.20866305
v -2.07586996 -0.7113325100000001 0.17530774
v -2.07586996 -0.6445192200000001 0.16463821
v -2.1175546 -0.66492213 0.20876766
v -2.0973683899999997 -0.73939372 0.20876766
v -2.08894125 -0.7347584300000001 0.19199193
v -2.07586996 -0.7125705099999999 0.15863662
v -2.11831323 -0.6445192200000001 0.18630417
v -2.07586996 -0.6445192200000001 0.11771062
v -2.13004152 -0.6593847500000001 0.20876766
v -2.11338203 -0.74236875 0.20876766
v -2.0973683899999997 -0.73939372 0.20866305
v -2.09727613 -0.73935534 0.19199193
v -2.08907455 -0.7347488200000001 0.17530774
v -2.07586996 -0.7125417199999999 0.12529432
v -2.07586996 -0.7125705099999999 0.12831473
v -2.07586996 -0.71267608 0.14197856
v -2.12992874 -0.6445192200000001 0.18916767
v -2.07586996 -0.66658238 0.0985682
v -2.10228934 -0.6445192200000001 0.09824137
v -2.1467215299999998 -0.65878975 0.20876766
v -2.13004152 -0.6445192200000001 0.18918073
v -2.14661901 -0.74249349 0.20876766
v -2.1467215299999998 -0.74256068 0.09193901
v -2.13004152 -0.7424838899999999 0.07526789
v -2.11338203 -0.74236875 0.20866305
v -2.11338203 -0.74234955 0.07520252
v -2.09864991 -0.73932654 0.07520252
v -2.08971015 -0.73357801 0.12529432
v -2.07586996 -0.71186993 0.11195744
v -2.07586996 -0.6780410299999999 0.09494636
v -2.0922424 -0.69592957 0.07520252
v -2.0969583 -0.68984515 0.07520252
v -2.10143844 -0.68408705 0.07520252
v -2.11815948 -0.66572827 0.07520252
v -2.13004152 -0.66063234 0.07520252
v -2.11338203 -0.6445192200000001 0.09460635
v -2.14683431 -0.65878975 0.20876766
v -2.16347335 -0.6601333 0.20876766
v -2.14149302 -0.6445192200000001 0.18646103
v -2.1467215299999998 -0.74249349 0.20876766
v -2.1634015399999997 -0.7421960000000001 0.09193901
v -2.1467215299999998 -0.74255107 0.07520252
v -2.13004152 -0.7424838899999999 0.07520252
v -2.09000746 -0.72665869 0.07520252
v -2.09006895 -0.73032469 0.09193901
v -2.0898331900000002 -0.73272391 0.10862319
v -2.07586996 -0.71159163 0.10862319
v -2.07586996 -0.69550731 0.09218741
v -2.0883979200000002 -0.7113805 0.07520252
v -2.1467215299999998 -0.65963427 0.07520252
v -2.13004152 -0.6445192200000001 0.09307655
v -2.17537591 -0.66544996 0.20876766
v -2.14668056 -0.6445192200000001 0.17530774
v -2.1634015399999997 -0.74202325 0.20876766
v -2.1634015399999997 -0.7421864 0.10862319
v -2.17492484 -0.7390962 0.09193901
v -2.17495556 -0.7390962 0.07526789
v -2.17495556 -0.7390962 0.07520252
v -2.1634015399999997 -0.74217679 0.07520252
v -2.0885107 -0.71421157 0.07520252
v -2.07586996 -0.7082519300000001 0.09506404
v -2.1634015399999997 -0.6604116099999999 0.07520252
v -2.13016456 -0.6445192200000001 0.09310273
v -2.17936395 -0.6780410299999999 0.20876766
v -2.14908977 -0.6445192200000001 0.15863662
v -2.17564245 -0.6653252000000001 0.12529432
v -2.17990728 -0.6780410299999999 0.10862319
v -2.1798252700000003 -0.6780410299999999 0.12529432
v -2.1745659799999997 -0.73897146 0.20876766
v -2.1746377299999997 -0.73895226 0.20866305
v -2.17488381 -0.7390866 0.10862319
v -2.17941518 -0.72805984 0.07526789
v -2.17939466 -0.72809822 0.07520252
v -2.17573471 -0.66542116 0.07520252
v -2.1757244499999997 -0.6653827800000001 0.07526789
v -2.1423132000000003 -0.6445192200000001 0.09669845
v -2.17978424 -0.6946052 0.20876766
v -2.14910003 -0.6445192200000001 0.14212236
v -2.17567322 -0.6653252000000001 0.10862319
v -2.18002006 -0.6780410299999999 0.07526789
v -2.18003032 -0.6780986099999999 0.07520252
v -2.18044041 -0.69471077 0.07526789
v -2.1802866 -0.69471077 0.10862319
v -2.1802045899999998 -0.69471077 0.12529432
v -2.17874881 -0.72805984 0.20876766
v -2.17934343 -0.72805984 0.09193901
v -2.18058391 -0.71143807 0.07520252
v -2.17570394 -0.6653539900000001 0.09193901
v -2.14910003 -0.6445192200000001 0.14197856
v -2.14874117 -0.6445192200000001 0.12529432
v -2.14749043 -0.6445192200000001 0.10878011
v -2.14746997 -0.6445192200000001 0.10862319
v -2.1423644299999998 -0.6445192200000001 0.09680306
v -2.17990728 -0.71127494 0.20876766
v -2.1804199 -0.7113805 0.10862319
v -2.18044041 -0.6947683499999999 0.07520252
v -2.18058391 -0.7113805 0.07526789
v -2.17875906 -0.7279542800000001 0.20876766
v -2.17990728 -0.7113805 0.20876766
f 1 2 3
f 1 3 4
f 1 4 5
f 1 5 9
f 1 9 14
f 1 14 19
f 1 19 29
f 1 29 28
f 1 28 27
f 1 27 42
f 1 42 60
f 1 60 74
f 1 74 61
f 1 61 43
f 1 43 31
f 1 31 21
f 1 21 15
f 1 15 10
f 1 10 6
f 1 6 2
f 2 7 11
f 2 11 16
f 2 16 22
f 2 22 33
f 2 33 50
f 2 50 51
f 2 51 65
f 2 65 77
f 2 77 90
f 2 90 107
f 2 107 112
f 2 112 111
f 2 111 98
f 2 98 82
f 2 82 67
f 2 67 53
f 2 53 35
f 2 35 23
f 2 23 17
f 2 17 12
f 2 12 8
f 2 8 4
f 2 4 3
f 2 6 7
f 4 8 5
f 5 8 9
f 6 10 7
f 7 10 11
f 8 12 13
f 8 13 9
f 9 13 14
f 10 15 16
f 10 16 11
f 12 17 18
f 12 18 13
f 13 18 19
f 13 19 14
f 15 20 16
f 15 21 32
f 15 32 49
f 15 49 64
f 15 64 76
f 15 76 89
f 15 89 106
f 15 106 105
f 15 105 104
f 15 104 103
f 15 103 102
f 15 102 91
f 15 91 78
f 15 78 66
f 15 66 52
f 15 52 34
f 15 34 30
f 15 30 20
f 16 20 22
f 17 23 38
f 17 38 24
f 17 24 25
f 17 25 18
f 18 25 26
f 18 26 27
f 18 27 28
f 18 28 29
f 18 29 19
f 20 30 22
f 21 31 32
f 22 30 34
f 22 34 33
f 23 35 36
f 23 36 37
f 23 37 56
f 23 56 38
f 24 38 39
f 24 39 25
f 25 39 40
f 25 40 26
f 26 40 41
f 26 41 27
f 27 41 42
f 31 43 44
f 31 44 45
f 31 45 46
f 31 46 47
f 31 47 32
f 32 47 48
f 32 48 49
f 33 34 50
f 34 51 50
f 34 52 51
f 35 53 36
f 36 54 55
f 36 55 56
f 36 56 37
f 36 53 54
f 38 56 39
f 39 56 55
f 39 55 72
f 39 72 71
f 39 71 86
f 39 86 100
f 39 100 109
f 39 109 94
f 39 94 87
f 39 87 75
f 39 75 63
f 39 63 48
f 39 48 47
f 39 47 46
f 39 46 45
f 39 45 44
f 39 44 62
f 39 62 73
f 39 73 57
f 39 57 40
f 40 57 58
f 40 58 59
f 40 59 41
f 41 59 42
f 42 59 60
f 43 61 62
f 43 62 44
f 48 63 64
f 48 64 49
f 51 52 65
f 52 66 65
f 53 67 68
f 53 68 54
f 54 69 70
f 54 70 71
f 54 71 72
f 54 72 55
f 54 68 69
f 57 73 61
f 57 61 74
f 57 74 60
f 57 60 58
f 58 60 59
f 61 73 62
f 63 75 64
f 64 75 76
f 65 66 78
f 65 78 79
f 65 79 80
f 65 80 81
f 65 81 77
f 67 82 83
f 67 83 84
f 67 84 68
f 68 84 69
f 69 85 70
f 69 84 85
f 70 85 71
f 71 85 86
f 75 87 88
f 75 88 89
f 75 89 76
f 77 81 90
f 78 91 92
f 78 92 79
f 79 92 93
f 79 93 80
f 80 93 94
f 80 94 95
f 80 95 96
f 80 96 97
f 80 97 81
f 81 97 90
f 82 98 83
f 83 98 99
f 83 99 85
f 83 85 84
f 85 99 100
f 85 100 86
f 87 94 93
f 87 93 88
f 88 93 101
f 88 101 102
f 88 102 103
f 88 103 104
f 88 104 105
f 88 105 106
f 88 106 89
f 90 97 108
f 90 108 107
f 91 102 92
f 92 102 101
f 92 101 93
f 94 109 95
f 95 109 100
f 95 100 110
f 95 110 96
f 96 108 97
f 96 110 108
f 98 111 99
f 99 108 100
f 99 111 108
f 100 108 110
f 107 108 112
f 108 111 112

