# https://github.com/mikedh/trimesh
v -2.81468514 1.55568809 1.50573373
v -2.81468514 1.53901076 1.50577092
v -2.81576057 1.53901076 1.50581741
v -2.81468514 1.56001891 1.50576162
v -2.46474473 1.50570014 1.50672854
v -2.54811099 1.50570014 1.50645888
v -2.79803770 1.52236278 1.50598478
v -2.81576057 1.50570014 1.50631017
v -2.56471542 1.50570014 1.50643099
v -2.58140588 1.50570014 1.50640315
v -2.81576057 1.55563671 1.50592899
v -2.81558850 1.56001891 1.50601268
v -2.80031758 1.56001891 1.50791849
v -2.37638854 1.56001158 1.54637959
v -2.37638854 1.54780452 1.51140486
v -2.37638854 1.53901809 1.50923869
v -2.37638854 1.52236278 1.50741650
v -2.44809729 1.52236278 1.50697023
v -2.46474473 1.52236278 1.50689585
v -2.43140684 1.50570014 1.50690515
v -2.41475940 1.49366193 1.50937810
v -2.43140684 1.49355917 1.50935021
v -2.54811099 1.49330224 1.50906202
v -2.79803770 1.50570014 1.50627297
v -2.81576057 1.49336831 1.50913640
v -2.58140588 1.49318479 1.50904342
v -2.81576057 1.56001891 1.50606847
v -2.79713436 1.56001891 1.50849493
v -2.37638854 1.56001158 1.59977141
v -2.78771371 1.56001891 1.51233452
v -2.75265515 1.56001891 1.54532905
v -2.37638854 1.50570014 1.50727702
v -2.41475940 1.50570014 1.50700743
v -2.37638854 1.49386745 1.50959197
v -2.37638854 1.49204705 1.51279008
v -2.37638854 1.48783368 1.52021825
v -2.38142151 1.48779696 1.52021825
v -2.43140684 1.48748866 1.52021825
v -2.56471542 1.49323620 1.50906202
v -2.81468514 1.49335362 1.50914570
v -2.81576057 1.48714366 1.52021825
v -2.58140588 1.48704090 1.52021825
v -2.79803770 1.48712900 1.52021825
v -2.81468514 1.48713633 1.52021825
v -2.81576057 1.56001891 1.60039429
v -2.37638854 1.55568074 1.59977141
v -2.75265515 1.56001891 1.60048727
v -2.46474473 1.56001158 1.60036639
v -2.46474473 1.53901809 1.60042218
v -2.48143521 1.52236278 1.60057096
v -2.37638854 1.50214740 1.50796498
v -2.37638854 1.48708495 1.52525714
v -2.37638854 1.48541136 1.53688753
v -2.81576057 1.48505900 1.53688753
v -2.38142151 1.48539667 1.53688753
v -2.39811196 1.48535262 1.53688753
v -2.41475940 1.48532326 1.53688753
v -2.78134725 1.48502965 1.53688753
v -2.81576057 1.55568809 1.60037569
v -2.78134725 1.55568809 1.60047797
v -2.78134725 1.56001891 1.60047797
v -2.46474473 1.52236278 1.60044078
v -2.37638854 1.54404626 1.59972492
v -2.51477310 1.56001158 1.60054306
v -2.49808262 1.56001158 1.60051517
v -2.48143521 1.56001158 1.60045008
v -2.47709053 1.56001158 1.60043148
v -2.76035512 1.56001891 1.60049657
v -2.48143521 1.53901809 1.60052446
v -2.49808262 1.52236278 1.60061745
v -2.48143521 1.50570014 1.59987370
v -2.46474473 1.50570014 1.59978071
v -2.49808262 1.55568074 1.60053376
v -2.49808262 1.53901809 1.60058026
v -2.37638854 1.48559485 1.55353817
v -2.81576057 1.48534529 1.55245973
v -2.81468514 1.48535262 1.55353817
v -2.39811196 1.48553614 1.55353817
v -2.41475940 1.48549209 1.55353817
v -2.79803770 1.48535262 1.55353817
v -2.43140684 1.48548476 1.55353817
v -2.81576057 1.53901076 1.60023627
v -2.81468514 1.53901076 1.60024557
v -2.78134725 1.53901076 1.60039429
v -2.76469981 1.53901076 1.60044078
v -2.63134820 1.52236278 1.60068254
v -2.76469981 1.55568809 1.60050587
v -2.76469981 1.56001891 1.60049657
v -2.37638854 1.50570014 1.59889748
v -2.37638854 1.52236278 1.59945533
v -2.37638854 1.52738361 1.59952971
v -2.37638854 1.53901809 1.59968773
v -2.51477310 1.55568074 1.60056166
v -2.61465775 1.56001158 1.60058955
v -2.48143521 1.55568074 1.60046867
v -2.51477310 1.52236278 1.60066394
v -2.63134820 1.50570014 1.60016189
v -2.46474473 1.49504191 1.59715898
v -2.37638854 1.49523276 1.59683360
v -2.51477310 1.53901809 1.60062675
v -2.37638854 1.48604997 1.57020745
v -2.39811196 1.48590316 1.57020745
v -2.41475940 1.48585178 1.57020745
v -2.81576057 1.48536731 1.55353817
v -2.78134725 1.48586644 1.57019815
v -2.79803770 1.48587377 1.57019815
v -2.81576057 1.48595454 1.57019815
v -2.81576057 1.53793172 1.60022698
v -2.78134725 1.52236278 1.60024557
v -2.76469981 1.52236278 1.60031996
v -2.61465775 1.52236278 1.60070113
v -2.63134820 1.56001158 1.60058026
v -2.53142054 1.53901809 1.60063605
v -2.59801031 1.53901809 1.60065464
v -2.56471542 1.52236278 1.60070113
v -2.53142054 1.52236278 1.60069184
v -2.64799564 1.50570014 1.60010610
v -2.64799564 1.49490246 1.59738214
v -2.63134820 1.49485841 1.59741004
v -2.48143521 1.49502724 1.59718688
v -2.41475940 1.48959537 1.58686738
v -2.39811196 1.48964675 1.58686738
v -2.37638854 1.49139374 1.58987029
v -2.37638854 1.48716569 1.57522775
v -2.37638854 1.48977153 1.58686738
v -2.38142151 1.48974218 1.58686738
v -2.63134820 1.48930909 1.58686738
v -2.64799564 1.48934577 1.58686738
v -2.78134725 1.48992567 1.58686738
v -2.81576057 1.48994769 1.58577965
v -2.79803770 1.49001377 1.58686738
v -2.81576057 1.52236278 1.59990159
v -2.78134725 1.50570014 1.59905556
v -2.81576057 1.49573926 1.59648032
v -2.79803770 1.49557776 1.59655470
v -2.81576057 1.49024131 1.58686738
v -2.81468514 1.49572456 1.59648032
v -2.81576057 1.50570014 1.59870228
f 1 2 3
f 1 3 4
f 1 4 5
f 1 5 6
f 1 6 2
f 2 7 8
f 2 8 3
f 2 6 9
f 2 9 10
f 2 10 7
f 3 11 4
f 3 8 25
f 3 25 41
f 3 41 54
f 3 54 76
f 3 76 104
f 3 104 107
f 3 107 130
f 3 130 136
f 3 136 134
f 3 134 138
f 3 138 132
f 3 132 108
f 3 108 82
f 3 82 59
f 3 59 45
f 3 45 27
f 3 27 11
f 4 11 12
f 4 12 27
f 4 27 45
f 4 45 61
f 4 61 88
f 4 88 68
f 4 68 47
f 4 47 31
f 4 31 30
f 4 30 28
f 4 28 13
f 4 13 14
f 4 14 15
f 4 15 16
f 4 16 17
f 4 17 18
f 4 18 19
f 4 19 5
f 5 19 18
f 5 18 20
f 5 20 21
f 5 21 6
f 6 21 22
f 6 22 23
f 6 23 9
f 7 24 8
f 7 10 24
f 8 24 25
f 9 23 10
f 10 23 26
f 10 26 24
f 11 27 12
f 13 28 14
f 14 29 46
f 14 46 63
f 14 63 92
f 14 92 91
f 14 91 90
f 14 90 89
f 14 89 99
f 14 99 123
f 14 123 125
f 14 125 124
f 14 124 101
f 14 101 75
f 14 75 53
f 14 53 52
f 14 52 36
f 14 36 35
f 14 35 34
f 14 34 51
f 14 51 32
f 14 32 17
f 14 17 16
f 14 16 15
f 14 28 30
f 14 30 31
f 14 31 47
f 14 47 29
f 17 32 33
f 17 33 18
f 18 33 20
f 20 33 21
f 21 33 34
f 21 34 35
f 21 35 36
f 21 36 37
f 21 37 22
f 22 37 38
f 22 38 26
f 22 26 39
f 22 39 23
f 23 39 26
f 24 26 25
f 25 40 41
f 25 26 40
f 26 38 42
f 26 42 43
f 26 43 44
f 26 44 40
f 29 47 48
f 29 48 49
f 29 49 50
f 29 50 46
f 32 51 33
f 33 51 34
f 36 52 37
f 37 52 38
f 38 52 53
f 38 53 42
f 40 44 41
f 41 44 54
f 42 53 55
f 42 55 56
f 42 56 57
f 42 57 58
f 42 58 43
f 43 58 44
f 44 58 54
f 45 59 60
f 45 60 61
f 46 62 63
f 46 50 62
f 47 64 65
f 47 65 66
f 47 66 67
f 47 67 48
f 47 68 64
f 48 67 69
f 48 69 50
f 48 50 49
f 50 70 71
f 50 71 72
f 50 72 62
f 50 69 73
f 50 73 74
f 50 74 70
f 53 75 55
f 54 58 77
f 54 77 76
f 55 75 78
f 55 78 79
f 55 79 56
f 56 79 57
f 57 79 58
f 58 80 77
f 58 79 81
f 58 81 80
f 59 82 83
f 59 83 84
f 59 84 60
f 60 84 85
f 60 85 86
f 60 86 87
f 60 87 61
f 61 87 88
f 62 72 89
f 62 89 90
f 62 90 91
f 62 91 92
f 62 92 63
f 64 93 73
f 64 73 65
f 64 68 94
f 64 94 93
f 65 73 95
f 65 95 66
f 66 95 67
f 67 95 69
f 68 88 94
f 69 95 73
f 70 96 71
f 70 74 100
f 70 100 96
f 71 96 97
f 71 97 98
f 71 98 99
f 71 99 72
f 72 99 89
f 73 93 100
f 73 100 74
f 75 101 102
f 75 102 103
f 75 103 78
f 76 77 104
f 77 80 103
f 77 103 105
f 77 105 106
f 77 106 107
f 77 107 104
f 78 103 79
f 79 103 81
f 80 81 103
f 82 108 83
f 83 109 110
f 83 110 84
f 83 108 109
f 84 110 85
f 85 110 86
f 86 110 97
f 86 97 111
f 86 111 87
f 87 111 88
f 88 111 112
f 88 112 94
f 93 94 113
f 93 113 100
f 94 112 111
f 94 111 114
f 94 114 115
f 94 115 116
f 94 116 113
f 96 116 97
f 96 100 116
f 97 110 117
f 97 117 118
f 97 118 119
f 97 119 120
f 97 120 98
f 97 116 115
f 97 115 111
f 98 121 122
f 98 122 99
f 98 120 119
f 98 119 121
f 99 122 123
f 100 113 116
f 101 124 102
f 102 122 121
f 102 121 103
f 102 124 125
f 102 125 126
f 102 126 122
f 103 121 127
f 103 127 105
f 105 127 106
f 106 127 128
f 106 128 129
f 106 129 107
f 107 129 131
f 107 131 130
f 108 132 109
f 109 132 133
f 109 133 117
f 109 117 110
f 111 115 114
f 117 133 134
f 117 134 118
f 118 128 119
f 118 134 135
f 118 135 131
f 118 131 129
f 118 129 128
f 119 128 127
f 119 127 121
f 122 126 123
f 123 126 125
f 130 131 136
f 131 135 137
f 131 137 136
f 132 138 133
f 133 138 134
f 134 136 137
f 134 137 135

