# https://github.com/mikedh/trimesh
v -2.183365655 -0.69469756 0.20883559
v -2.183365655 -0.6948629399999999 0.20883559
v -2.183365655 -0.69469756 0.20866556
v -2.183388135 -0.67806168 0.20883559
v -2.183511715 -0.71138207 0.20883559
v -2.183511715 -0.71138207 0.19198829
v -2.1835566249999996 -0.71138207 0.17529796
v -2.1834106249999996 -0.69469756 0.19198829
v -2.183455535 -0.67806168 0.17529796
v -2.1834106249999996 -0.67806168 0.19198829
v -2.183388135 -0.67806168 0.20866556
v -2.186657435 -0.6657647600000001 0.20883559
v -2.1843880249999996 -0.72804711 0.20883559
v -2.1843880249999996 -0.72804711 0.19198829
v -2.184399235 -0.72804711 0.17529796
v -2.184432935 -0.72804711 0.1586207
v -2.184489115 -0.72804711 0.14198268
v -2.183624075 -0.71138207 0.1586207
v -2.1834667449999996 -0.69469756 0.17529796
v -2.1867023449999996 -0.66561883 0.17529796
v -2.183949835 -0.69469756 0.07520824
v -2.184084685 -0.67806168 0.07520824
v -2.1870843449999997 -0.6661539000000001 0.07520824
v -2.1869158649999996 -0.66573558 0.12530541
v -2.186769795 -0.66563829 0.1586207
v -2.186691135 -0.66563829 0.19198829
v -2.1867023449999996 -0.66565775 0.20883559
v -2.184410505 -0.7281541300000001 0.20883559
v -2.187544955 -0.73890422 0.1586207
v -2.187567445 -0.73890422 0.14198268
v -2.187634835 -0.7388555800000001 0.12530541
v -2.187859565 -0.7385928900000001 0.07520824
v -2.1846126949999998 -0.72804711 0.12530541
v -2.184084685 -0.71138207 0.07520824
v -2.183983535 -0.71138207 0.09193782
v -2.2096549549999995 -0.6445953799999999 0.15852915
v -2.1982404349999998 -0.66106586 0.07520824
v -2.2193842449999996 -0.6445953799999999 0.09709142
v -2.213193885 -0.6445953799999999 0.10857584
v -2.210463865 -0.6445953799999999 0.12521386
v -2.209834715 -0.6445953799999999 0.14190419
v -2.186983255 -0.66584259 0.10861508
v -2.186803495 -0.66559937 0.20883559
v -2.2128231549999997 -0.6445953799999999 0.17521948
v -2.187544955 -0.7388944900000001 0.20883559
v -2.1982404349999998 -0.742747 0.14198268
v -2.1982404349999998 -0.74265944 0.12530541
v -2.187724715 -0.73877775 0.10861508
v -2.1982404349999998 -0.74232867 0.07520824
v -2.184994695 -0.72804711 0.07520824
v -2.214912815 -0.65951901 0.07520824
v -2.231663795 -0.6445953799999999 0.09393908
v -2.1982404349999998 -0.66034594 0.20883559
v -2.219597695 -0.6445953799999999 0.1864423
v -2.1982404349999998 -0.74272755 0.20883559
v -2.214912815 -0.74398253 0.14198268
v -2.214912815 -0.7437977 0.07520824
v -2.231585185 -0.66001517 0.07520824
v -2.248302475 -0.6445953799999999 0.09514246
v -2.1983977149999996 -0.66031676 0.20883559
v -2.231585185 -0.6445953799999999 0.18880983
v -2.214755535 -0.74393389 0.20883559
v -2.231585185 -0.74369067 0.10861508
v -2.231585185 -0.74364203 0.07526055
v -2.214912815 -0.74393389 0.20883559
v -2.248246295 -0.7435642 0.20883559
v -2.231585185 -0.74363231 0.07520824
v -2.244707355 -0.6651615900000001 0.07520824
v -2.2594922549999996 -0.6446050999999999 0.09834711
v -2.298139785 -0.6446050999999999 0.11716956
v -2.254065915 -0.6445953799999999 0.09934121
v -2.214912815 -0.6590034 0.20883559
v -2.242370545 -0.6445953799999999 0.18594525
v -2.231585185 -0.65935363 0.20883559
v -2.2150813549999997 -0.6590034 0.20883559
v -2.248246295 -0.74328207 0.07520824
v -2.254065915 -0.74212437 0.20883559
v -2.253032265 -0.67437455 0.07520824
v -2.298139785 -0.6675451 0.09926272
v -2.298139785 -0.6591979800000001 0.10572433
v -2.298139785 -0.6446050999999999 0.16165531
v -2.254065915 -0.6445953799999999 0.16465067
v -2.248381085 -0.6445953799999999 0.17529796
v -2.2445612949999996 -0.66475299 0.20883559
v -2.254065915 -0.74174496 0.07524749
v -2.261705485 -0.7397019499999999 0.07520824
v -2.262963805 -0.73990625 0.20866556
v -2.262963805 -0.73990625 0.20883559
v -2.260177595 -0.6827314 0.07520824
v -2.266671285 -0.69475593 0.07520824
v -2.298139785 -0.67818815 0.09758847
v -2.298139785 -0.6676618400000001 0.1850427
v -2.2621998549999995 -0.68265357 0.20883559
v -2.298139785 -0.70850241 0.14211347
v -2.298139785 -0.7082591899999999 0.12530541
v -2.298139785 -0.70643995 0.10862814
v -2.298139785 -0.7039688900000001 0.09953743
v -2.298139785 -0.70392025 0.09943276
v -2.268524995 -0.7280763 0.07520824
v -2.262918835 -0.7398187 0.19198829
v -2.270749505 -0.72804711 0.20883559
v -2.298139785 -0.70383268 0.18442792
v -2.298139785 -0.70650804 0.17531102
v -2.298139785 -0.70847321 0.15864688
v -2.269918105 -0.71142098 0.07520824
v -2.298139785 -0.69470728 0.09775851
v -2.298139785 -0.67804222 0.18684774
v -2.2709292549999995 -0.69605955 0.20883559
v -2.272693095 -0.71031192 0.20883559
v -2.298139785 -0.69471701 0.18614147
f 1 2 3
f 1 3 11
f 1 11 4
f 1 4 12
f 1 12 27
f 1 27 43
f 1 43 53
f 1 53 60
f 1 60 72
f 1 72 75
f 1 75 74
f 1 74 84
f 1 84 93
f 1 93 108
f 1 108 109
f 1 109 101
f 1 101 88
f 1 88 77
f 1 77 66
f 1 66 65
f 1 65 62
f 1 62 55
f 1 55 45
f 1 45 28
f 1 28 13
f 1 13 5
f 1 5 2
f 2 5 6
f 2 6 7
f 2 7 8
f 2 8 3
f 3 8 9
f 3 9 10
f 3 10 11
f 4 11 12
f 5 13 14
f 5 14 6
f 6 14 15
f 6 15 16
f 6 16 7
f 7 16 17
f 7 17 18
f 7 18 19
f 7 19 8
f 8 19 9
f 9 20 10
f 9 19 21
f 9 21 22
f 9 22 23
f 9 23 24
f 9 24 25
f 9 25 20
f 10 20 11
f 11 20 26
f 11 26 12
f 12 26 27
f 13 28 14
f 14 28 29
f 14 29 15
f 15 29 30
f 15 30 16
f 16 30 17
f 17 30 31
f 17 31 32
f 17 32 33
f 17 33 34
f 17 34 35
f 17 35 18
f 18 35 21
f 18 21 19
f 20 25 36
f 20 36 26
f 21 35 34
f 21 34 50
f 21 50 32
f 21 32 49
f 21 49 57
f 21 57 67
f 21 67 76
f 21 76 86
f 21 86 99
f 21 99 105
f 21 105 90
f 21 90 89
f 21 89 78
f 21 78 68
f 21 68 58
f 21 58 51
f 21 51 37
f 21 37 23
f 21 23 22
f 23 37 38
f 23 38 39
f 23 39 40
f 23 40 41
f 23 41 42
f 23 42 24
f 24 42 41
f 24 41 36
f 24 36 25
f 26 36 27
f 27 36 44
f 27 44 43
f 28 45 29
f 29 46 30
f 29 45 46
f 30 46 31
f 31 46 47
f 31 47 48
f 31 48 32
f 32 50 33
f 32 48 49
f 33 50 34
f 36 41 40
f 36 40 39
f 36 39 38
f 36 38 52
f 36 52 59
f 36 59 71
f 36 71 82
f 36 82 83
f 36 83 73
f 36 73 61
f 36 61 54
f 36 54 44
f 37 51 52
f 37 52 38
f 43 44 53
f 44 54 53
f 45 55 46
f 46 56 57
f 46 57 47
f 46 55 56
f 47 57 49
f 47 49 48
f 51 58 52
f 52 58 59
f 53 54 60
f 54 61 60
f 55 62 56
f 56 63 64
f 56 64 57
f 56 62 65
f 56 65 66
f 56 66 63
f 57 64 67
f 58 68 69
f 58 69 59
f 59 69 70
f 59 70 71
f 60 61 72
f 61 73 74
f 61 74 75
f 61 75 72
f 63 66 64
f 64 76 67
f 64 66 76
f 66 77 76
f 68 78 79
f 68 79 80
f 68 80 69
f 69 80 70
f 70 81 82
f 70 82 71
f 70 80 79
f 70 79 91
f 70 91 106
f 70 106 98
f 70 98 97
f 70 97 96
f 70 96 95
f 70 95 94
f 70 94 104
f 70 104 103
f 70 103 102
f 70 102 110
f 70 110 107
f 70 107 92
f 70 92 81
f 73 83 81
f 73 81 74
f 74 81 84
f 76 85 86
f 76 77 87
f 76 87 85
f 77 88 87
f 78 89 79
f 79 89 90
f 79 90 91
f 81 92 84
f 81 83 82
f 84 92 93
f 85 87 86
f 86 94 95
f 86 95 96
f 86 96 97
f 86 97 98
f 86 98 99
f 86 87 100
f 86 100 94
f 87 88 94
f 87 94 100
f 88 101 102
f 88 102 103
f 88 103 104
f 88 104 94
f 90 105 91
f 91 105 106
f 92 107 108
f 92 108 93
f 98 106 99
f 99 106 105
f 101 109 110
f 101 110 102
f 107 109 108
f 107 110 109

