# https://github.com/mikedh/trimesh
v -3.889035645 -0.29718107 0.95193751
v -3.9494824250000002 -0.29718107 0.9549382
v -3.889035645 -0.32783501 0.95180341
v -3.889035645 -0.29718107 0.87489193
v -3.9512589049999995 -0.29718107 0.95452749
v -3.9563499449999995 -0.32785904 0.95062995
v -3.948005825 -0.32785904 0.95123344
v -3.932617295 -0.32785904 0.95164415
v -3.899271585 -0.32785904 0.95176149
v -3.889035645 -0.32785904 0.91436187
v -3.889035645 -0.30728993 0.87994618
v -3.9159521349999995 -0.32785904 0.87621627
v -3.932617295 -0.32785904 0.87093573
v -3.932755725 -0.29718107 0.86967007
v -3.9593645849999994 -0.29718107 0.95250747
v -3.9617332349999996 -0.32785904 0.94229843
v -3.9600413349999997 -0.29718107 0.95156871
v -3.891319725 -0.32785904 0.90111861
v -3.889035645 -0.327829 0.90128625
v -3.906554455 -0.32785904 0.88261996
v -3.9492978450000003 -0.32785904 0.87122909
v -3.9492978450000003 -0.29718107 0.86930965
v -3.9640941949999995 -0.29718107 0.94270914
v -3.9649093749999995 -0.29718107 0.93974198
v -3.9658860650000003 -0.32781999 0.92577789
v -3.965878365 -0.32785904 0.92577789
v -3.9624022949999995 -0.29718107 0.87556248
v -3.9599644549999997 -0.29718107 0.87428845
v -3.9494285749999998 -0.29718107 0.86933479
v -3.961987005 -0.32785904 0.87798483
v -3.967308805 -0.29718107 0.92577789
v -3.967570275 -0.29718107 0.90910648
v -3.9676010449999994 -0.29718107 0.90639915
v -3.9662013849999997 -0.32785904 0.89243507
v -3.9668473649999996 -0.29718107 0.89008816
v -3.967554885 -0.29718107 0.89243507
f 1 2 3
f 1 3 10
f 1 10 19
f 1 19 11
f 1 11 4
f 1 4 14
f 1 14 22
f 1 22 29
f 1 29 28
f 1 28 27
f 1 27 35
f 1 35 36
f 1 36 33
f 1 33 32
f 1 32 31
f 1 31 24
f 1 24 23
f 1 23 17
f 1 17 15
f 1 15 5
f 1 5 2
f 2 5 6
f 2 6 7
f 2 7 8
f 2 8 3
f 3 8 9
f 3 9 10
f 4 11 12
f 4 12 13
f 4 13 14
f 5 15 6
f 6 16 26
f 6 26 34
f 6 34 30
f 6 30 21
f 6 21 13
f 6 13 12
f 6 12 20
f 6 20 18
f 6 18 10
f 6 10 9
f 6 9 8
f 6 8 7
f 6 15 17
f 6 17 16
f 10 18 19
f 11 19 20
f 11 20 12
f 13 21 22
f 13 22 14
f 16 17 23
f 16 23 24
f 16 24 25
f 16 25 26
f 18 20 19
f 21 27 28
f 21 28 29
f 21 29 22
f 21 30 27
f 24 31 25
f 25 31 32
f 25 32 33
f 25 33 34
f 25 34 26
f 27 30 35
f 30 34 36
f 30 36 35
f 33 36 34

