# https://github.com/mikedh/trimesh
v 1.33286234 1.58905789 0.56973108
v 1.33286234 1.57238023 0.56970956
v 1.34233443 1.58905789 0.56972390
v 1.33286234 1.70571020 0.56971675
v 1.33286234 1.57233455 0.56174957
v 1.34233443 1.57233455 0.56969523
v 1.34871041 1.57233455 0.56969523
v 1.35893802 1.57233455 0.56968805
v 1.35893802 1.58896652 0.56970238
v 1.34233443 1.70571020 0.56970238
v 1.33286234 1.72238787 0.56969523
v 1.33286234 1.57233455 0.52131134
v 1.35893802 1.57233455 0.50990918
v 1.35893802 1.70566450 0.56967371
v 1.34233443 1.72238787 0.56968089
v 1.33286234 1.83899447 0.56948008
v 1.34233443 1.57233455 0.50374914
v 1.33286234 1.57238023 0.49647758
v 1.35893802 2.03912651 0.50970121
v 1.35893802 1.72234217 0.56964501
v 1.35893802 2.03912651 0.56906416
v 1.33286234 1.84621385 0.56946575
v 1.33286234 2.03898942 0.49811261
v 1.34223999 2.03912651 0.50458817
v 1.34233443 2.03912651 0.56906416
v 1.33286234 2.02953113 0.56905698
v 1.33286234 2.03912651 0.52284596
v 1.33286234 2.03912651 0.54131172
v 1.33286234 2.03898942 0.56902113
f 1 2 3
f 1 3 4
f 1 4 11
f 1 11 16
f 1 16 22
f 1 22 26
f 1 26 29
f 1 29 28
f 1 28 27
f 1 27 23
f 1 23 18
f 1 18 12
f 1 12 5
f 1 5 2
f 2 5 6
f 2 6 7
f 2 7 8
f 2 8 3
f 3 8 9
f 3 9 4
f 4 10 15
f 4 15 11
f 4 9 10
f 5 12 17
f 5 17 13
f 5 13 8
f 5 8 7
f 5 7 6
f 8 13 19
f 8 19 21
f 8 21 20
f 8 20 14
f 8 14 9
f 9 14 10
f 10 14 15
f 11 15 16
f 12 18 17
f 13 17 18
f 13 18 19
f 14 20 15
f 15 20 21
f 15 21 16
f 16 21 22
f 18 23 19
f 19 23 24
f 19 24 27
f 19 27 28
f 19 28 25
f 19 25 21
f 21 25 22
f 22 25 26
f 23 27 24
f 25 28 29
f 25 29 26

