# https://github.com/mikedh/trimesh
v 2.29233519 1.47995355 1.48678485
v 2.30199015 1.48019760 1.48678485
v 2.29233519 1.47995355 1.48688075
v 2.28792769 1.48008009 1.48678485
v 2.30923688 1.48902846 1.48678485
v 2.30199015 1.48019760 1.48688075
v 2.30178201 1.48027893 1.57019918
v 2.30172997 1.48029703 1.58687484
v 2.29233519 1.48019760 1.58687484
v 2.27205908 1.48080319 1.60353853
v 2.27451928 1.48048684 1.48678485
v 2.31484107 1.50569596 1.48678485
v 2.31486336 1.50569596 1.50354444
v 2.30923688 1.48902846 1.48688075
v 2.30893957 1.48902846 1.57019918
v 2.30882811 1.48902846 1.58687484
v 2.30157393 1.48035127 1.60353853
v 2.29233519 1.48026087 1.60353853
v 2.27341182 1.48081222 1.60925692
v 2.25901491 1.48191498 1.60925692
v 2.26771100 1.48070377 1.48678485
v 2.31402347 1.52236343 1.48678485
v 2.31403092 1.52236343 1.48688075
v 2.31484107 1.50569596 1.52022010
v 2.31480388 1.50569596 1.53688379
v 2.31475190 1.50569596 1.55353549
v 2.31465528 1.50569596 1.57019918
v 2.31438766 1.50569596 1.60925692
v 2.30861997 1.48902846 1.60353853
v 2.30149960 1.48037836 1.60925692
v 2.29542715 1.48032415 1.60925692
v 2.29194871 1.48033318 1.60925692
v 2.24841605 1.48733821 1.60925692
v 2.23893204 1.48622645 1.58687484
v 2.23893204 1.48550335 1.58345822
v 2.23893204 1.48425600 1.57019918
v 2.23893204 1.48421985 1.56679453
v 2.23893204 1.48411137 1.53688379
v 2.26087304 1.48147205 1.48678485
v 2.31085718 1.53902190 1.48678485
v 2.30505236 1.57228455 1.53688379
v 2.31108017 1.53902190 1.52022010
v 2.31400863 1.52236343 1.50354444
v 2.31377074 1.52236343 1.57019918
v 2.31354782 1.52236343 1.60925692
v 2.30852335 1.48902846 1.60925692
v 2.24392677 1.49031197 1.60925692
v 2.23893204 1.48999561 1.59969030
v 2.23893204 1.48575644 1.52022010
v 2.26044198 1.48152629 1.48678485
v 2.29318993 1.57228455 1.48678485
v 2.30285228 1.57228455 1.52346894
v 2.30505975 1.57228455 1.55353549
v 2.31080515 1.53902190 1.58687484
v 2.31159301 1.53330937 1.60925692
v 2.24009154 1.50569596 1.60925692
v 2.23893204 1.49127009 1.60189611
v 2.23893204 1.49099892 1.50511491
v 2.24685517 1.49003176 1.48678485
v 2.25022960 1.48791671 1.48678485
v 2.25447360 1.57228455 1.48678485
v 2.30451723 1.57228455 1.57019918
v 2.31054503 1.53902190 1.60925692
v 2.24209087 1.52266172 1.60925692
v 2.23893204 1.57228455 1.60218388
v 2.23893204 1.53919362 1.60498908
v 2.23893204 1.50565075 1.60633180
v 2.23893204 1.50569596 1.50065526
v 2.24440242 1.50560557 1.48678485
v 2.25425801 1.57218512 1.48678485
v 2.25426546 1.57228455 1.48688075
v 2.30233204 1.57228455 1.58161201
v 2.29408186 1.57228455 1.60925692
v 2.24515309 1.53794626 1.60925692
v 2.23893204 1.57228455 1.54569515
v 2.25313570 1.57228455 1.60925692
v 2.23893204 1.50581347 1.50065526
v 2.23893204 1.52236343 1.50120672
v 2.23893204 1.53987154 1.50248949
v 2.23893204 1.54219450 1.50317280
v 2.23893204 1.55298678 1.50752451
v 2.24833427 1.57228455 1.50751253
v 2.24516054 1.57228455 1.52022010
f 1 2 6
f 1 6 3
f 1 3 4
f 1 4 11
f 1 11 21
f 1 21 39
f 1 39 50
f 1 50 60
f 1 60 59
f 1 59 69
f 1 69 70
f 1 70 61
f 1 61 51
f 1 51 40
f 1 40 22
f 1 22 12
f 1 12 5
f 1 5 2
f 2 5 14
f 2 14 6
f 3 6 7
f 3 7 8
f 3 8 9
f 3 9 10
f 3 10 4
f 4 10 11
f 5 12 13
f 5 13 14
f 6 14 7
f 7 15 8
f 7 14 15
f 8 16 17
f 8 17 9
f 8 15 16
f 9 17 18
f 9 18 10
f 10 18 19
f 10 19 20
f 10 20 21
f 10 21 11
f 12 22 23
f 12 23 13
f 13 24 14
f 13 23 24
f 14 24 25
f 14 25 26
f 14 26 15
f 15 26 27
f 15 27 16
f 16 27 28
f 16 28 29
f 16 29 17
f 17 29 30
f 17 30 18
f 18 30 31
f 18 31 32
f 18 32 19
f 19 32 31
f 19 31 30
f 19 30 46
f 19 46 28
f 19 28 45
f 19 45 55
f 19 55 63
f 19 63 73
f 19 73 76
f 19 76 74
f 19 74 64
f 19 64 56
f 19 56 47
f 19 47 33
f 19 33 20
f 20 33 34
f 20 34 35
f 20 35 36
f 20 36 37
f 20 37 38
f 20 38 39
f 20 39 21
f 22 40 23
f 23 40 41
f 23 41 42
f 23 42 43
f 23 43 24
f 24 43 25
f 25 43 26
f 26 44 45
f 26 45 27
f 26 43 44
f 27 45 28
f 28 46 29
f 29 46 30
f 33 47 48
f 33 48 34
f 34 48 57
f 34 57 67
f 34 67 66
f 34 66 65
f 34 65 75
f 34 75 81
f 34 81 80
f 34 80 79
f 34 79 78
f 34 78 77
f 34 77 68
f 34 68 58
f 34 58 49
f 34 49 38
f 34 38 37
f 34 37 36
f 34 36 35
f 38 49 50
f 38 50 39
f 40 51 52
f 40 52 41
f 41 52 51
f 41 51 61
f 41 61 71
f 41 71 82
f 41 82 83
f 41 83 75
f 41 75 65
f 41 65 76
f 41 76 73
f 41 73 72
f 41 72 62
f 41 62 53
f 41 53 42
f 42 53 54
f 42 54 44
f 42 44 43
f 44 54 45
f 45 54 55
f 47 56 57
f 47 57 48
f 49 58 59
f 49 59 60
f 49 60 50
f 53 62 63
f 53 63 54
f 54 63 55
f 56 64 65
f 56 65 66
f 56 66 67
f 56 67 57
f 58 68 69
f 58 69 59
f 61 70 71
f 62 72 63
f 63 72 73
f 64 74 65
f 65 74 76
f 68 77 69
f 69 77 78
f 69 78 79
f 69 79 70
f 70 79 80
f 70 80 81
f 70 81 71
f 71 81 82
f 75 83 81
f 81 83 82

