# https://github.com/mikedh/trimesh
v 0.24927061 2.04312975 1.00703998
v 0.24804393 1.97796855 1.00822988
v 0.24804393 1.97796855 1.00703998
v 0.17814593 2.04312975 1.00703998
v 0.24923574 2.04312975 1.22487183
v 0.24785576 1.97796855 1.22487183
v 0.17813896 1.97796855 1.00703998
v 0.17813199 2.02251089 1.00703998
v 0.17809020 2.00585377 1.02740340
v 0.17806928 2.00585377 1.04154693
v 0.17809020 2.02013130 1.04154693
v 0.17814593 2.04312975 1.04154693
v 0.24922185 2.04312975 1.23758207
v 0.24784187 1.97796855 1.23609469
v 0.17813199 1.98918388 1.00703998
v 0.17813199 1.97796855 1.00744562
v 0.17812501 2.00585377 1.00822988
v 0.17810415 1.97796855 1.02275199
v 0.17815988 2.04309785 1.28331188
v 0.17809020 1.97796855 1.03259567
v 0.17807626 1.98918388 1.04154693
v 0.17808323 1.97796855 1.04700963
v 0.17808323 1.98918388 1.05823249
v 0.17816686 2.02233865 1.28331188
v 0.17821567 2.04312975 1.27879568
v 0.24921487 2.04312975 1.24153034
v 0.24783490 1.97796855 1.24153034
v 0.21447843 2.04312975 1.28331188
v 0.17808323 1.97796855 1.04154693
v 0.17823653 1.97796855 1.28331188
v 0.17820870 1.98879472 1.28331188
v 0.24918001 2.04312975 1.25424057
v 0.24775818 1.97796855 1.28331188
v 0.24907546 2.04312975 1.28331188
f 1 2 3
f 1 3 7
f 1 7 15
f 1 15 8
f 1 8 4
f 1 4 12
f 1 12 25
f 1 25 28
f 1 28 34
f 1 34 32
f 1 32 26
f 1 26 13
f 1 13 5
f 1 5 2
f 2 5 6
f 2 6 14
f 2 14 27
f 2 27 33
f 2 33 30
f 2 30 22
f 2 22 29
f 2 29 20
f 2 20 18
f 2 18 16
f 2 16 7
f 2 7 3
f 4 8 9
f 4 9 10
f 4 10 11
f 4 11 12
f 5 13 6
f 6 13 14
f 7 16 15
f 8 15 17
f 8 17 9
f 9 18 10
f 9 17 18
f 10 19 11
f 10 18 20
f 10 20 21
f 10 21 22
f 10 22 23
f 10 23 24
f 10 24 19
f 11 19 12
f 12 19 25
f 13 26 27
f 13 27 14
f 15 16 17
f 16 18 17
f 19 24 31
f 19 31 30
f 19 30 33
f 19 33 34
f 19 34 28
f 19 28 25
f 20 29 21
f 21 29 22
f 22 30 31
f 22 31 24
f 22 24 23
f 26 32 33
f 26 33 27
f 32 34 33

