# https://github.com/mikedh/trimesh
v -3.80309221 1.55611114 0.80109419
v -3.79101294 1.55611114 0.74760387
v -3.75081250 1.55611114 0.80109419
v -3.80199566 1.75568110 0.80109419
v -3.75105039 1.55611114 0.74760387
v -3.80181577 1.78782371 0.80109419
v -3.78922020 1.78782371 0.74760387
v -3.74490051 1.55611114 0.80077480
v -3.74477868 1.55617921 0.80109419
v -3.75055722 1.58904768 0.74760387
v -3.74382720 1.78782371 0.80109419
v -3.74988421 1.78782371 0.74760387
v -3.75040641 1.60569741 0.74760387
v -3.74388520 1.77267109 0.80109419
v -3.75026134 1.65571466 0.74760387
f 1 2 5
f 1 5 8
f 1 8 3
f 1 3 9
f 1 9 14
f 1 14 11
f 1 11 6
f 1 6 4
f 1 4 2
f 2 4 6
f 2 6 7
f 2 7 12
f 2 12 15
f 2 15 13
f 2 13 10
f 2 10 5
f 3 8 9
f 5 9 8
f 5 10 9
f 6 11 12
f 6 12 7
f 9 10 13
f 9 13 14
f 11 14 13
f 11 13 15
f 11 15 12

