# https://github.com/mikedh/trimesh
v -3.74143370 2.05472195 0.20492093
v -3.74143370 2.09087663 0.20492093
v -3.72075346 2.06222686 0.20492093
v -3.74143370 2.05531320 0.35352168
v -3.74143370 2.11423436 0.21849295
v -3.74136080 2.11396506 0.20492093
v -3.72075346 2.11131901 0.20492093
v -3.72075346 2.06314594 0.38154747
v -3.74143370 2.05544201 0.38154747
v -3.74143370 2.11451533 0.23481397
v -3.72075346 2.11138341 0.20957174
v -3.72075346 2.11126048 0.38154747
v -3.74143370 2.11335038 0.38154747
v -3.74143370 2.11452705 0.23687136
v -3.72075346 2.11163513 0.23687136
v -3.72075346 2.11157075 0.22623852
v -3.74143370 2.11405873 0.31866663
v -3.74143370 2.11393579 0.33547176
v -3.74143370 2.11392408 0.33685489
v -3.72075346 2.11152390 0.33685489
v -3.74143370 2.11448607 0.25353820
v -3.74143370 2.11428702 0.28687177
v -3.74143370 2.11449778 0.25146347
v -3.72075346 2.11162344 0.30352127
v -3.72075346 2.11165271 0.28687177
v -3.72075346 2.11165855 0.27020498
v -3.72075346 2.11165271 0.25353820
v -3.72075346 2.11158246 0.32018805
f 1 2 6
f 1 6 7
f 1 7 3
f 1 3 4
f 1 4 9
f 1 9 13
f 1 13 19
f 1 19 18
f 1 18 17
f 1 17 22
f 1 22 21
f 1 21 23
f 1 23 14
f 1 14 10
f 1 10 5
f 1 5 2
f 2 5 6
f 3 7 11
f 3 11 16
f 3 16 15
f 3 15 27
f 3 27 26
f 3 26 25
f 3 25 24
f 3 24 28
f 3 28 20
f 3 20 12
f 3 12 8
f 3 8 9
f 3 9 4
f 5 7 6
f 5 10 7
f 7 10 11
f 8 12 13
f 8 13 9
f 10 14 15
f 10 15 16
f 10 16 11
f 12 17 18
f 12 18 19
f 12 19 13
f 12 20 21
f 12 21 22
f 12 22 17
f 14 23 24
f 14 24 25
f 14 25 26
f 14 26 27
f 14 27 15
f 20 28 23
f 20 23 21
f 23 28 24

