# https://github.com/mikedh/trimesh
v -2.08319648 -0.24151546000000002 1.78091021
v -2.09709863 -0.260306 1.78091021
v -2.0835339299999998 -0.22809242000000002 1.78091021
v -2.0862337699999998 -0.22844229 1.92554872
v -2.08771491 -0.23630154 1.92554872
v -2.0921864599999997 -0.24355494 1.92554872
v -2.11357873 -0.27773119 1.78091021
v -2.1018420300000002 -0.25614169 1.92554872
v -2.1085447 -0.26447883 1.92554872
v -2.1168785 -0.2744885 1.92554872
v -2.09174589 -0.21115361 1.78091021
v -2.08694619 -0.21709287 1.92554872
v -2.13005888 -0.28354244 1.78091021
v -2.13005888 -0.28087149 1.92554872
v -2.10061401 -0.20083673000000002 1.78091021
v -2.10056714 -0.20087088 1.79298817
v -2.10064216 -0.20093061 1.809668
v -2.0945863 -0.20875573 1.92554872
v -2.10063274 -0.20092208 1.80750159
v -2.14679209 -0.28255257 1.78091021
v -2.14671706 -0.28201496 1.92554872
v -2.11338191 -0.19837912000000002 1.78091021
v -2.10078274 -0.20099887 1.82634777
v -2.09501751 -0.20830347 1.92554872
v -2.1633940899999997 -0.27971094 1.78091021
v -2.1475608 -0.28192962 1.92554872
v -2.1633940899999997 -0.28016322 1.92554872
v -2.13005888 -0.19732953 1.78091021
v -2.14671706 -0.19709057000000002 1.92554872
v -2.11338191 -0.19856687 1.809668
v -2.11338191 -0.19868634000000002 1.82634777
v -2.10122337 -0.20122929 1.85969324
v -2.10146706 -0.20134023 1.87635888
v -2.10192642 -0.20153648000000002 1.89303871
v -2.10243266 -0.20174128000000002 1.90970434
v -2.10292947 -0.20198024 1.92554872
v -2.1718028599999997 -0.27551251 1.78091021
v -2.1639752899999998 -0.27986454 1.92554872
v -2.174962 -0.2739253 1.78091021
v -2.14671706 -0.19636524 1.78091021
v -2.1633940899999997 -0.19694551999999999 1.92554872
v -2.14586401 -0.19715886 1.92554872
v -2.11338191 -0.19908739 1.85969324
v -2.11338191 -0.19930073 1.87635888
v -2.11338191 -0.19955674 1.89303871
v -2.11338191 -0.19986392 1.90970434
v -2.11281943 -0.20034180000000001 1.92554872
v -2.174812 -0.27398503 1.92554872
v -2.17845865 -0.2610996 1.78091021
v -2.17492454 -0.27385703 1.85969324
v -2.15130115 -0.19642498 1.78091021
v -2.17438079 -0.20013702 1.92554872
v -2.1633940899999997 -0.19658711 1.78091021
v -2.13005888 -0.19854979 1.92554872
v -2.12921519 -0.19862661 1.92554872
v -2.11338191 -0.20025648000000001 1.92554872
v -2.17791496 -0.26175667 1.92554872
v -2.17828056 -0.2610996 1.87635888
v -2.1783368 -0.2610996 1.85969324
v -2.1749057599999997 -0.27386557 1.87635888
v -2.17857113 -0.25650863 1.78091021
v -2.17441831 -0.20011993 1.90970434
v -2.1745683099999997 -0.20070021 1.92554872
v -2.16645011 -0.19751725 1.78091021
v -2.17807432 -0.2610996 1.92554872
v -2.17862738 -0.24443387 1.85969324
v -2.17868362 -0.24443387 1.8430276
v -2.1787773699999997 -0.24442534 1.78091021
v -2.1745495200000002 -0.20000046999999999 1.78091021
v -2.17820553 -0.21108535 1.78091021
v -2.17798057 -0.21109388 1.87635888
v -2.17792432 -0.21109388 1.89303871
v -2.1778587199999997 -0.21109388 1.90970434
v -2.17777433 -0.21109388 1.92554872
v -2.17830865 -0.24443387 1.92554872
v -2.1787961 -0.22776815 1.85969324
v -2.1788429799999998 -0.22776815 1.8430276
v -2.1789555199999997 -0.22776815 1.78091021
v -2.17883362 -0.23985144 1.78091021
v -2.17781184 -0.2119387 1.92554872
v -2.1784399199999998 -0.22776815 1.92554872
f 1 2 7
f 1 7 13
f 1 13 20
f 1 20 25
f 1 25 37
f 1 37 39
f 1 39 49
f 1 49 61
f 1 61 68
f 1 68 79
f 1 79 78
f 1 78 70
f 1 70 69
f 1 69 64
f 1 64 53
f 1 53 51
f 1 51 40
f 1 40 28
f 1 28 22
f 1 22 15
f 1 15 11
f 1 11 3
f 1 3 4
f 1 4 5
f 1 5 6
f 1 6 2
f 2 6 8
f 2 8 9
f 2 9 10
f 2 10 7
f 3 11 12
f 3 12 4
f 4 12 18
f 4 18 24
f 4 24 36
f 4 36 47
f 4 47 56
f 4 56 55
f 4 55 54
f 4 54 42
f 4 42 29
f 4 29 41
f 4 41 52
f 4 52 63
f 4 63 74
f 4 74 80
f 4 80 81
f 4 81 75
f 4 75 65
f 4 65 57
f 4 57 48
f 4 48 38
f 4 38 27
f 4 27 26
f 4 26 21
f 4 21 14
f 4 14 10
f 4 10 9
f 4 9 8
f 4 8 6
f 4 6 5
f 7 10 14
f 7 14 13
f 11 15 16
f 11 16 12
f 12 17 18
f 12 16 19
f 12 19 17
f 13 14 21
f 13 21 20
f 15 22 16
f 16 22 19
f 17 23 24
f 17 24 18
f 17 19 22
f 17 22 23
f 20 21 26
f 20 26 27
f 20 27 25
f 22 28 29
f 22 29 30
f 22 30 23
f 23 30 31
f 23 31 32
f 23 32 24
f 24 32 33
f 24 33 34
f 24 34 35
f 24 35 36
f 25 27 37
f 27 38 39
f 27 39 37
f 28 40 29
f 29 42 31
f 29 31 30
f 29 40 41
f 31 43 33
f 31 33 32
f 31 42 43
f 33 43 44
f 33 44 45
f 33 45 34
f 34 45 35
f 35 45 46
f 35 46 36
f 36 46 47
f 38 48 39
f 39 48 50
f 39 50 49
f 40 51 41
f 41 51 53
f 41 53 52
f 42 54 44
f 42 44 43
f 44 54 45
f 45 54 55
f 45 55 46
f 46 55 56
f 46 56 47
f 48 57 58
f 48 58 59
f 48 59 49
f 48 49 60
f 48 60 50
f 49 50 60
f 49 59 61
f 52 53 62
f 52 62 63
f 53 64 62
f 57 65 58
f 58 66 67
f 58 67 59
f 58 65 66
f 59 67 61
f 61 67 68
f 62 64 69
f 62 69 70
f 62 70 63
f 63 71 72
f 63 72 73
f 63 73 74
f 63 70 71
f 65 75 66
f 66 75 76
f 66 76 67
f 67 76 77
f 67 77 78
f 67 78 79
f 67 79 68
f 70 78 77
f 70 77 71
f 71 77 76
f 71 76 72
f 72 76 73
f 73 80 74
f 73 76 80
f 75 81 76
f 76 81 80

