# https://github.com/mikedh/trimesh
v 1.30900605 1.56002704 1.50575913
v 1.30790871 1.56002704 1.50606520
v 1.30809739 1.64316292 1.50619508
v 1.30900605 1.64316292 1.50594462
v 1.32338073 1.56002704 1.50792035
v 1.30790871 1.64316292 1.50625075
v 1.30790871 1.56002704 1.60038923
v 1.32030222 1.64316292 1.50801309
v 1.32655359 1.56002704 1.50849542
v 1.30790871 1.64316292 1.60050981
v 1.34233346 1.56002704 1.60047274
v 1.30790871 1.57237330 1.60043560
v 1.32407091 1.64316292 1.50870880
v 1.33597782 1.56002704 1.51232630
v 1.30790871 1.63792167 1.60050981
v 1.30900108 1.64316292 1.60051911
v 1.34665828 1.56002704 1.60048203
v 1.30790871 1.58794247 1.60046344
v 1.35863470 1.64316292 1.55027295
v 1.35863470 1.56002704 1.54505076
v 1.30790871 1.60459406 1.60048203
v 1.30900108 1.62235251 1.60050057
v 1.35863470 1.56002704 1.60049127
v 1.35863470 1.57237330 1.60049127
v 1.32566976 1.64316292 1.60049127
v 1.35863470 1.64316292 1.55182196
v 1.35863470 1.64307341 1.60042636
v 1.34647456 1.64316292 1.60045420
v 1.34233346 1.64316292 1.60046344
f 1 2 3
f 1 3 4
f 1 4 5
f 1 5 9
f 1 9 14
f 1 14 20
f 1 20 23
f 1 23 17
f 1 17 11
f 1 11 7
f 1 7 2
f 2 6 3
f 2 7 12
f 2 12 18
f 2 18 21
f 2 21 15
f 2 15 10
f 2 10 6
f 3 6 10
f 3 10 16
f 3 16 25
f 3 25 29
f 3 29 28
f 3 28 26
f 3 26 19
f 3 19 13
f 3 13 8
f 3 8 4
f 4 8 9
f 4 9 5
f 7 11 12
f 8 13 9
f 9 13 14
f 10 15 16
f 11 17 12
f 12 17 18
f 13 19 14
f 14 19 20
f 15 21 16
f 16 21 22
f 16 22 17
f 16 17 23
f 16 23 24
f 16 24 25
f 17 22 21
f 17 21 18
f 19 26 27
f 19 27 24
f 19 24 23
f 19 23 20
f 24 27 28
f 24 28 29
f 24 29 25
f 26 28 27

