# https://github.com/mikedh/trimesh
v 0.26953159 2.10584323 0.99154364
v 0.26898858 2.08918559 0.99154364
v 0.26953159 2.10584323 0.97489591
v 0.26803550 2.12251100 1.15817690
v 0.26929030 2.10584323 1.24153252
v 0.26889214 2.08920586 1.24153252
v 0.26898858 2.08918559 0.97489591
v 0.26504320 2.07473817 1.24153252
v 0.26943503 2.10584323 0.90822701
v 0.26795098 2.12250084 0.89157928
v 0.26396947 2.13322744 1.15817690
v 0.26787862 2.12251100 1.25576303
v 0.26926610 2.10584323 1.25576303
v 0.26892826 2.09162898 1.25576303
v 0.26885590 2.08920586 1.25576303
v 0.26504320 2.07480913 1.25576303
v 0.26505536 2.07507273 0.97489591
v 0.26504320 2.07511329 0.95820919
v 0.26501912 2.07529577 0.90822701
v 0.26888010 2.08918559 0.90822701
v 0.26506740 2.07504233 0.99154364
v 0.24868254 2.03979060 0.85824483
v 0.24868254 2.03979060 0.85746508
v 0.26939890 2.10584323 0.89157928
v 0.26932643 2.10584323 0.87489256
v 0.26779422 2.12250084 0.85746508
v 0.26761313 2.12296722 0.85746508
v 0.26370399 2.13291314 0.85746508
v 0.26381259 2.13297397 0.89157928
v 0.25307437 2.13819532 1.15817690
v 0.26386087 2.13308549 1.25576303
v 0.25308641 2.13795198 0.85746508
v 0.25308641 2.13801281 0.90822701
v 0.24915306 2.04314646 1.25576303
v 0.24916516 2.04314646 1.25424251
v 0.24829642 2.03979060 1.00706073
v 0.26499504 2.07533633 0.89157928
v 0.26884386 2.08918559 0.89157928
v 0.26483816 2.07542759 0.85746508
v 0.26492256 2.07538703 0.87489256
v 0.17736386 2.03979060 0.85746508
v 0.26922998 2.10584323 0.85824483
v 0.26916966 2.10658335 0.85746508
v 0.25355699 2.13772894 0.85746508
v 0.23642409 2.14226087 1.00826935
v 0.23642409 2.14224060 1.04156481
v 0.23642409 2.14208852 1.12492043
v 0.23642409 2.14196687 1.19151134
v 0.23642409 2.14184518 1.25576303
v 0.25307437 2.13797228 1.25576303
v 0.25466702 2.13726256 1.25576303
v 0.23642409 2.14222031 0.85746508
v 0.23642409 2.14226087 0.92491373
v 0.17832910 2.04314646 1.25576303
v 0.17816018 2.03979060 1.00706073
v 0.26500708 2.07604605 0.85746508
v 0.26871118 2.08918559 0.87489256
v 0.15436718 2.07288281 0.85746508
v 0.14627125 2.07389666 1.25576303
v 0.14627125 2.07421096 1.07486028
v 0.14627125 2.07439344 1.00706073
v 0.26921782 2.10584323 0.85746508
v 0.26859054 2.08993584 0.85746508
v 0.21974967 2.14336598 1.00706073
v 0.21974967 2.14331529 1.07486028
v 0.21974967 2.14304155 1.25576303
v 0.21974967 2.14333555 0.85746508
v 0.21974967 2.14336598 0.99154364
v 0.26855430 2.08918559 0.85746508
v 0.26856634 2.08918559 0.85824483
v 0.15436718 2.12925312 0.85746508
v 0.14627125 2.12689085 1.25576303
v 0.14627125 2.12716459 1.00706073
v 0.18644911 2.14241295 1.17482464
v 0.18891044 2.14246365 1.25576303
v 0.20312353 2.14276781 1.25576303
v 0.20556072 2.14281851 1.25576303
v 0.20385947 2.14277794 0.85746508
v 0.18644911 2.14223047 0.92491373
v 0.18644911 2.14240282 1.15817690
v 0.15436718 2.12927339 0.85824483
v 0.16978673 2.13753633 0.87489256
v 0.16978673 2.13710035 0.85824483
v 0.16978673 2.13705981 0.85746508
v 0.16978673 2.13781006 1.25576303
v 0.14627125 2.12710376 1.12492043
v 0.14627125 2.12718485 1.05821254
v 0.16978673 2.13791145 1.15817690
v 0.15436718 2.12960798 0.87489256
v 0.15436718 2.12941534 0.86428793
v 0.18644911 2.14239269 1.25576303
v 0.20311143 2.14274752 0.85746508
v 0.18644911 2.14218991 0.90822701
v 0.18644911 2.14214935 0.89157928
v 0.18644911 2.14207839 0.87489256
v 0.18644911 2.14187561 0.85824483
v 0.18644911 2.14186548 0.85746508
v 0.17052273 2.13729299 0.85746508
v 0.17223602 2.13849949 1.25576303
v 0.14627125 2.12717472 1.07486028
v 0.14627125 2.12718485 1.06363183
v 0.18719715 2.14191617 0.85746508
f 1 2 7
f 1 7 3
f 1 3 4
f 1 4 5
f 1 5 6
f 1 6 2
f 2 6 8
f 2 8 7
f 3 7 9
f 3 9 10
f 3 10 4
f 4 11 12
f 4 12 5
f 4 10 11
f 5 12 13
f 5 13 14
f 5 14 6
f 6 14 15
f 6 15 16
f 6 16 8
f 7 17 18
f 7 18 19
f 7 19 20
f 7 20 9
f 7 8 21
f 7 21 17
f 8 16 22
f 8 22 23
f 8 23 21
f 9 20 38
f 9 38 24
f 9 24 10
f 10 24 25
f 10 25 26
f 10 26 27
f 10 27 28
f 10 28 29
f 10 29 11
f 11 30 31
f 11 31 12
f 11 29 32
f 11 32 33
f 11 33 30
f 12 31 51
f 12 51 50
f 12 50 49
f 12 49 66
f 12 66 77
f 12 77 76
f 12 76 75
f 12 75 91
f 12 91 99
f 12 99 85
f 12 85 72
f 12 72 59
f 12 59 54
f 12 54 34
f 12 34 16
f 12 16 15
f 12 15 14
f 12 14 13
f 16 34 35
f 16 35 36
f 16 36 22
f 17 21 23
f 17 23 18
f 18 23 19
f 19 23 37
f 19 37 20
f 20 37 38
f 22 36 55
f 22 55 41
f 22 41 23
f 23 39 40
f 23 40 37
f 23 41 58
f 23 58 71
f 23 71 84
f 23 84 98
f 23 98 97
f 23 97 102
f 23 102 92
f 23 92 78
f 23 78 67
f 23 67 52
f 23 52 32
f 23 32 44
f 23 44 28
f 23 28 27
f 23 27 26
f 23 26 43
f 23 43 62
f 23 62 63
f 23 63 69
f 23 69 56
f 23 56 39
f 24 38 25
f 25 38 42
f 25 42 43
f 25 43 26
f 28 44 29
f 29 44 32
f 30 45 46
f 30 46 47
f 30 47 48
f 30 48 49
f 30 49 50
f 30 50 51
f 30 51 31
f 30 33 52
f 30 52 53
f 30 53 45
f 32 52 33
f 34 54 55
f 34 55 36
f 34 36 35
f 37 40 38
f 38 40 39
f 38 39 56
f 38 56 57
f 38 57 42
f 41 55 59
f 41 59 60
f 41 60 61
f 41 61 58
f 42 62 43
f 42 57 63
f 42 63 62
f 45 64 46
f 45 53 68
f 45 68 64
f 46 64 65
f 46 65 66
f 46 66 47
f 47 66 48
f 48 66 49
f 52 67 53
f 53 67 68
f 54 59 55
f 56 69 70
f 56 70 57
f 57 70 63
f 58 61 73
f 58 73 71
f 59 72 86
f 59 86 100
f 59 100 101
f 59 101 87
f 59 87 73
f 59 73 61
f 59 61 60
f 63 70 69
f 64 74 75
f 64 75 65
f 64 68 74
f 65 75 76
f 65 76 77
f 65 77 66
f 67 78 79
f 67 79 80
f 67 80 74
f 67 74 68
f 71 73 81
f 71 81 82
f 71 82 83
f 71 83 84
f 72 85 86
f 73 87 88
f 73 88 82
f 73 82 89
f 73 89 90
f 73 90 81
f 74 80 88
f 74 88 91
f 74 91 75
f 78 92 79
f 79 92 93
f 79 93 82
f 79 82 88
f 79 88 80
f 81 90 82
f 82 93 94
f 82 94 95
f 82 95 96
f 82 96 97
f 82 97 98
f 82 98 83
f 82 90 89
f 83 98 84
f 85 99 88
f 85 88 100
f 85 100 86
f 87 101 88
f 88 101 100
f 88 99 91
f 92 102 95
f 92 95 94
f 92 94 93
f 95 102 96
f 96 102 97

