# https://github.com/mikedh/trimesh
v -1.63019924 1.56366433 1.97059205
v -1.63019924 1.55578825 1.93132197
v -1.63025515 1.56366433 1.93133181
v -1.63025515 1.56366433 2.00548126
v -1.63019924 1.55584372 2.00548126
v -1.63019924 1.48915215 1.92572040
v -1.64222965 1.48918544 1.90742913
v -1.65494277 1.56366433 1.90742913
v -1.63019924 1.48918544 2.00593414
v -1.68025707 1.56366433 2.00645593
v -1.71357301 1.48918544 2.00799171
v -1.69690944 1.47251254 2.00774554
v -1.63019924 1.47717163 1.92904786
v -1.64812740 1.47427634 1.90742913
v -1.72433889 1.56366433 1.90742913
v -1.68025707 1.47251254 2.00689891
v -1.63019924 1.47611779 2.00297093
v -1.68908686 1.56366433 2.00652483
v -1.73024779 1.48918544 2.00633779
v -1.71357301 1.47251254 2.00780467
v -1.69690944 1.56366433 2.00658396
v -1.69690944 1.45855745 2.00385690
v -1.63019924 1.47064889 1.94156035
v -1.65793077 1.46594545 1.90742913
v -1.64857503 1.47387699 1.90742913
v -1.74176350 1.50298522 1.90742913
v -1.72484249 1.56366433 1.95821742
v -1.68025707 1.45966677 2.00328600
v -1.63019924 1.46976146 1.99155118
v -1.66880859 1.46179664 2.00177978
v -1.71357301 1.56366433 2.00426055
v -1.72276096 1.56366433 2.00087402
v -1.73987211 1.49957965 2.00143515
v -1.74056603 1.48918544 2.00217353
v -1.73991693 1.47734911 2.00137614
v -1.73110950 1.47207989 2.00392581
v -1.71357301 1.45869055 2.00371910
v -1.72612949 1.46073170 2.00234091
v -1.69690944 1.45171303 1.99155118
v -1.63019924 1.46788673 1.95821742
v -1.68025707 1.45348792 1.90742913
v -1.66695082 1.45996628 1.90742913
v -1.66626816 1.46031014 1.90742913
v -1.66586529 1.46056531 1.90742913
v -1.74189773 1.50231964 1.90742913
v -1.74174109 1.50294084 1.92489344
v -1.72493202 1.56366433 1.97488427
v -1.72488726 1.56366433 1.96603398
v -1.68025707 1.45408695 1.99155118
v -1.63019924 1.46805312 1.97488427
v -1.72356670 1.56366433 1.99594188
v -1.74082341 1.50107720 1.99155118
v -1.74307279 1.48918544 1.99155118
v -1.72428292 1.56366433 1.99155118
v -1.74082341 1.47545220 1.99155118
v -1.73680578 1.46711020 1.99155118
v -1.71357301 1.45213455 1.99155118
v -1.72846839 1.45850199 1.99155118
v -1.69690944 1.45042624 1.97488427
v -1.68025707 1.45289997 1.97488427
v -1.68025707 1.45282234 1.95821742
v -1.69690944 1.45034857 1.90742913
v -1.74451642 1.48918544 1.90742913
v -1.74451642 1.48918544 1.90822653
v -1.74169626 1.50291867 1.94156035
v -1.72465223 1.56366433 1.98270089
v -1.74156203 1.50256369 1.95821742
v -1.74128225 1.50187591 1.97488427
v -1.74383382 1.48918544 1.97488427
v -1.74420314 1.48918544 1.95821742
v -1.74112560 1.47518598 1.97488427
v -1.72871462 1.45801389 1.97488427
v -1.73704080 1.46685509 1.97488427
v -1.71357301 1.45108070 1.97488427
v -1.69690944 1.45034857 1.95821742
v -1.71357301 1.45111399 1.95821742
v -1.71357301 1.45134696 1.90742913
v -1.74437099 1.48848657 1.90742913
v -1.74438219 1.48918544 1.94156035
v -1.74121513 1.47498630 1.95821742
v -1.73711913 1.46664429 1.95821742
v -1.73714154 1.46654445 1.94156035
v -1.72878174 1.45806935 1.95821742
v -1.72881535 1.45815810 1.94156035
v -1.71430043 1.45167974 1.90742913
v -1.74133816 1.47486426 1.90742913
v -1.74125984 1.47488646 1.94156035
v -1.73724221 1.46693272 1.90742913
v -1.73702960 1.46653337 1.90742913
v -1.72869221 1.45835778 1.90742913
f 1 2 3
f 1 3 8
f 1 8 15
f 1 15 27
f 1 27 48
f 1 48 47
f 1 47 66
f 1 66 54
f 1 54 51
f 1 51 32
f 1 32 31
f 1 31 21
f 1 21 18
f 1 18 10
f 1 10 4
f 1 4 5
f 1 5 9
f 1 9 17
f 1 17 29
f 1 29 50
f 1 50 40
f 1 40 23
f 1 23 13
f 1 13 6
f 1 6 2
f 2 6 3
f 3 6 7
f 3 7 8
f 4 9 5
f 4 10 11
f 4 11 12
f 4 12 9
f 6 13 7
f 7 13 14
f 7 14 25
f 7 25 24
f 7 24 44
f 7 44 43
f 7 43 42
f 7 42 41
f 7 41 62
f 7 62 77
f 7 77 85
f 7 85 90
f 7 90 89
f 7 89 88
f 7 88 86
f 7 86 78
f 7 78 63
f 7 63 45
f 7 45 26
f 7 26 15
f 7 15 8
f 9 16 17
f 9 12 16
f 10 18 11
f 11 19 20
f 11 20 12
f 11 18 21
f 11 21 19
f 12 20 22
f 12 22 16
f 13 23 24
f 13 24 25
f 13 25 14
f 15 26 27
f 16 28 17
f 16 22 28
f 17 28 30
f 17 30 29
f 19 31 32
f 19 32 33
f 19 33 34
f 19 34 35
f 19 35 36
f 19 36 20
f 19 21 31
f 20 37 22
f 20 36 38
f 20 38 37
f 22 39 28
f 22 37 39
f 23 40 41
f 23 41 42
f 23 42 43
f 23 43 44
f 23 44 24
f 26 45 46
f 26 46 47
f 26 47 48
f 26 48 27
f 28 49 30
f 28 39 49
f 29 30 49
f 29 49 50
f 32 51 33
f 33 52 53
f 33 53 34
f 33 51 54
f 33 54 52
f 34 53 35
f 35 53 55
f 35 55 56
f 35 56 38
f 35 38 36
f 37 57 39
f 37 38 57
f 38 56 58
f 38 58 57
f 39 59 49
f 39 57 59
f 40 50 60
f 40 60 61
f 40 61 41
f 41 61 62
f 45 63 64
f 45 64 46
f 46 64 65
f 46 65 47
f 47 65 67
f 47 67 68
f 47 68 66
f 49 60 50
f 49 59 60
f 52 68 69
f 52 69 53
f 52 54 66
f 52 66 68
f 53 69 55
f 55 69 70
f 55 70 71
f 55 71 56
f 56 72 58
f 56 71 73
f 56 73 72
f 57 74 59
f 57 58 74
f 58 72 74
f 59 75 61
f 59 61 60
f 59 74 75
f 61 75 62
f 62 75 74
f 62 74 76
f 62 76 77
f 63 78 64
f 64 78 79
f 64 79 65
f 65 79 70
f 65 70 67
f 67 70 69
f 67 69 68
f 70 79 71
f 71 80 73
f 71 79 80
f 72 73 81
f 72 81 82
f 72 82 83
f 72 83 74
f 73 80 81
f 74 83 76
f 76 83 84
f 76 84 77
f 77 84 85
f 78 86 87
f 78 87 80
f 78 80 79
f 80 87 81
f 81 87 82
f 82 87 86
f 82 86 88
f 82 88 89
f 82 89 83
f 83 89 84
f 84 90 85
f 84 89 90

