# https://github.com/mikedh/trimesh
v -2.76475408 2.05461585 0.50109263
v -2.76471330 2.03760562 0.50979629
v -2.76475408 2.03903092 0.50975966
v -2.76475408 2.05461585 0.50141498
v -2.35158438 2.05461585 0.50295350
v -2.34811786 2.05457923 0.50293154
v -2.34811786 2.03840319 0.51085130
v -2.76475408 2.03760562 0.56417962
v -2.56336903 2.03760562 0.51169382
v -2.76475408 2.05460921 0.57591637
v -2.76467251 2.05461585 0.57593837
v -2.34811786 2.05461585 0.51085863
v -2.34811786 2.03840319 0.56768893
v -2.55843432 2.03760562 0.51176708
v -2.76475408 2.03760562 0.56900033
v -2.55843432 2.03760562 0.56864136
v -2.74799239 2.05461585 0.57587244
v -2.34811786 2.05454427 0.57284665
v -2.34872959 2.05461585 0.57287597
v -2.46471564 2.05461585 0.57382837
v -2.71230751 2.05461585 0.57565265
f 1 2 3
f 1 3 8
f 1 8 15
f 1 15 10
f 1 10 4
f 1 4 11
f 1 11 17
f 1 17 21
f 1 21 20
f 1 20 19
f 1 19 12
f 1 12 5
f 1 5 6
f 1 6 7
f 1 7 2
f 2 8 3
f 2 7 9
f 2 9 14
f 2 14 16
f 2 16 15
f 2 15 8
f 4 10 11
f 5 12 6
f 6 12 18
f 6 18 13
f 6 13 7
f 7 13 16
f 7 16 14
f 7 14 9
f 10 15 11
f 11 15 16
f 11 16 17
f 12 19 18
f 13 18 19
f 13 19 20
f 13 20 21
f 13 21 17
f 13 17 16

