# https://github.com/mikedh/trimesh
v -0.74145221 1.80575276 2.00568070
v -0.83026940 1.70586167 2.00548794
v -0.83026940 1.63305224 2.00559177
v -0.74145221 1.70586167 2.00580671
v -0.74145221 1.80575276 1.93078761
v -1.08049090 1.80575276 2.00435353
v -0.74145221 1.63305224 2.00587346
v -1.08049090 1.63305224 2.00441278
v -0.74145221 1.80034319 1.93075054
v -0.74692861 1.78916905 1.93068378
v -0.76359013 1.78916905 1.93072086
v -1.08049090 1.80575276 1.93165511
v -0.74145221 1.63305224 1.93012773
v -1.08049090 1.63305224 1.93118059
v -0.74145221 1.76702363 1.93052809
v -0.74692861 1.77250081 1.93057262
v -0.76359013 1.77250081 1.93060969
v -1.08049090 1.78942262 1.93158835
v -0.81360787 1.77250081 1.93074315
v -0.79691317 1.75583258 1.93060969
v -0.78025164 1.73916434 1.93049102
v -0.74145221 1.70036758 1.93026857
v -0.83026940 1.63305224 1.93037980
v -0.81360787 1.68919343 1.93043910
v -1.08049090 1.72274967 1.93138820
v -0.83026940 1.68919343 1.93049102
v -0.74145221 1.75035539 1.93043910
v -0.74692861 1.75583258 1.93047618
v -1.08049090 1.77275439 1.93152904
v -0.74692861 1.73916434 1.93040203
v -0.74145221 1.72249610 1.93032794
v -0.76359013 1.72249610 1.93038725
v -0.81360787 1.70586167 1.93047618
v -0.74145221 1.71703581 1.93031310
v -1.08049090 1.75608615 1.93147713
v -0.74145221 1.73368715 1.93037240
f 1 2 3
f 1 3 4
f 1 4 7
f 1 7 13
f 1 13 22
f 1 22 34
f 1 34 31
f 1 31 36
f 1 36 27
f 1 27 15
f 1 15 9
f 1 9 5
f 1 5 12
f 1 12 6
f 1 6 2
f 2 6 3
f 3 7 4
f 3 6 8
f 3 8 14
f 3 14 23
f 3 23 13
f 3 13 7
f 5 9 10
f 5 10 11
f 5 11 12
f 6 12 18
f 6 18 29
f 6 29 35
f 6 35 25
f 6 25 14
f 6 14 8
f 9 15 10
f 10 16 17
f 10 17 11
f 10 15 16
f 11 17 12
f 12 17 19
f 12 19 20
f 12 20 21
f 12 21 18
f 13 23 24
f 13 24 22
f 14 25 26
f 14 26 23
f 15 27 28
f 15 28 17
f 15 17 16
f 17 28 19
f 18 21 29
f 19 28 20
f 20 28 30
f 20 30 21
f 21 30 31
f 21 31 32
f 21 32 33
f 21 33 29
f 22 24 33
f 22 33 34
f 23 26 24
f 24 26 33
f 25 35 33
f 25 33 26
f 27 36 30
f 27 30 28
f 29 33 35
f 30 36 31
f 31 34 32
f 32 34 33

