# https://github.com/mikedh/trimesh
v -2.76824934 1.59179225 1.15932453
v -2.76824934 1.59179225 1.22114668
v -2.76824934 1.59414572 1.15933071
v -2.64886511 1.72238795 1.16352603
v -2.64886511 1.59179225 1.16320426
v -2.74527016 1.59179225 1.22109099
v -2.76685843 2.02893695 1.22253273
v -2.76824934 2.02893695 1.22253273
v -2.64886511 1.73903334 1.16357554
v -2.76824934 2.02893695 1.16342703
v -2.64886511 2.02893695 1.16455939
v -2.64886511 1.59179225 1.22049077
v -2.73137277 1.59179225 1.22104767
v -2.74804028 2.02893695 1.22247705
v -2.75812727 2.02893695 1.22250798
v -2.64886511 2.02893695 1.22161076
v -2.68138195 1.59179225 1.22072591
v -2.69804945 2.02893695 1.22212435
v -2.71470527 2.02893695 1.22229141
v -2.72479226 2.02893695 1.22236568
v -2.72860265 1.59179225 1.22103529
v -2.73137277 2.02893695 1.22240898
v -2.74145978 2.02893695 1.22245230
v -2.69527933 1.59179225 1.22082491
v -2.71470527 1.59179225 1.22096104
f 1 2 8
f 1 8 10
f 1 10 3
f 1 3 4
f 1 4 5
f 1 5 12
f 1 12 17
f 1 17 24
f 1 24 25
f 1 25 21
f 1 21 13
f 1 13 6
f 1 6 2
f 2 6 7
f 2 7 8
f 3 9 4
f 3 10 11
f 3 11 9
f 4 9 11
f 4 11 16
f 4 16 12
f 4 12 5
f 6 13 14
f 6 14 15
f 6 15 7
f 7 15 14
f 7 14 23
f 7 23 22
f 7 22 20
f 7 20 19
f 7 19 18
f 7 18 16
f 7 16 11
f 7 11 10
f 7 10 8
f 12 16 18
f 12 18 19
f 12 19 20
f 12 20 17
f 13 21 22
f 13 22 23
f 13 23 14
f 17 20 24
f 20 22 25
f 20 25 24
f 21 25 22

