# https://github.com/mikedh/trimesh
v 2.17018117 2.03782131 1.59935222
v 2.17018117 1.88897761 1.59960489
v 2.17018117 2.03782131 1.55519895
v 2.15895609 2.03782131 1.59948341
v 2.17018117 1.87228918 1.59962920
v 2.17018117 1.88897761 1.55404738
v 2.15895609 2.03782131 1.55501429
v 2.15769014 2.03782131 1.59949313
v 2.17018117 1.73905224 1.59968261
v 2.14232960 2.03782131 1.59959517
v 2.10899204 1.93896560 1.59988187
v 2.17018117 1.87228918 1.55392102
v 1.84988762 2.03782131 1.55125834
v 2.17018117 1.72236382 1.59968261
v 2.09228109 1.93896560 1.59994988
v 2.07565448 2.03782131 1.59976040
v 2.09228109 1.95565403 1.59991585
v 2.17018117 1.64317109 1.55257025
v 1.85106918 2.00568065 1.55125834
v 1.30796274 2.03782131 1.55125834
v 2.15895609 1.64317109 1.55248763
v 2.15482057 1.64317109 1.55246820
v 2.17018117 1.71687828 1.59967778
v 1.52571171 1.72236382 1.60081964
v 2.07565448 1.95565403 1.59994499
v 1.59112081 2.03782131 1.60057669
v 1.39117999 2.03782131 1.60089736
v 1.49245858 1.87225055 1.60083907
v 1.50908515 1.72236382 1.60084879
v 2.17018117 1.64317109 1.59951256
v 1.85157558 1.98895360 1.55125834
v 1.30796274 1.64317109 1.55125834
v 1.30796274 2.03782131 1.60079049
v 1.85841193 1.64317109 1.55125834
v 2.17018117 1.70571403 1.59966318
v 1.37455341 2.03782131 1.60087793
v 1.30905993 1.95565403 1.60083907
v 1.32577088 1.95565403 1.60085850
v 1.49245858 1.72236382 1.60084879
v 1.49245858 1.70571403 1.60080992
v 1.50908515 1.70571403 1.60080021
v 2.16309168 1.64317109 1.59952716
v 1.30796274 1.64317109 1.60051351
v 1.30796274 1.95565403 1.60082935
v 1.30905993 2.03782131 1.60080021
v 1.30796274 1.95449511 1.60082935
v 1.30796274 1.73905224 1.60072731
v 1.30905993 1.64317109 1.60051839
v 1.49245858 1.64317109 1.60058640
v 1.47574762 1.64317109 1.60058640
v 1.51322069 1.64317109 1.60055726
f 1 2 5
f 1 5 9
f 1 9 14
f 1 14 23
f 1 23 35
f 1 35 30
f 1 30 18
f 1 18 12
f 1 12 6
f 1 6 3
f 1 3 7
f 1 7 13
f 1 13 20
f 1 20 33
f 1 33 45
f 1 45 36
f 1 36 27
f 1 27 26
f 1 26 16
f 1 16 10
f 1 10 8
f 1 8 4
f 1 4 2
f 2 4 5
f 3 6 7
f 4 8 5
f 5 8 10
f 5 10 11
f 5 11 9
f 6 12 7
f 7 12 13
f 9 11 15
f 9 15 14
f 10 16 17
f 10 17 15
f 10 15 11
f 12 18 13
f 13 19 31
f 13 31 34
f 13 34 32
f 13 32 20
f 13 18 21
f 13 21 22
f 13 22 19
f 14 15 24
f 14 24 23
f 15 17 25
f 15 25 26
f 15 26 27
f 15 27 28
f 15 28 29
f 15 29 24
f 16 25 17
f 16 26 25
f 18 30 42
f 18 42 51
f 18 51 49
f 18 49 50
f 18 50 48
f 18 48 43
f 18 43 32
f 18 32 34
f 18 34 22
f 18 22 21
f 19 22 31
f 20 32 43
f 20 43 47
f 20 47 46
f 20 46 44
f 20 44 33
f 22 34 31
f 23 24 35
f 24 29 35
f 27 36 37
f 27 37 38
f 27 38 39
f 27 39 29
f 27 29 28
f 29 39 40
f 29 40 41
f 29 41 42
f 29 42 35
f 30 35 42
f 33 44 37
f 33 37 45
f 36 45 37
f 37 44 46
f 37 46 47
f 37 47 38
f 38 47 39
f 39 47 48
f 39 48 40
f 40 49 41
f 40 48 50
f 40 50 49
f 41 49 51
f 41 51 42
f 43 48 47

