# https://github.com/mikedh/trimesh
v -2.00658564 -0.63726594 0.95240777
v -2.00658564 -0.61131143 0.9522843
v -2.06429018 -0.63726594 0.95222618
v -2.00658564 -0.63726594 0.87911801
v -2.0133136 -0.61131143 0.9522625
v -2.00658564 -0.61131143 0.90369805
v -2.0466653299999997 -0.61131143 0.95214629
v -2.06334117 -0.61131143 0.95208091
v -2.06429018 -0.61227694 0.95208091
v -2.06429018 -0.63726594 0.87821006
v -2.06429018 -0.63681875 0.87847155
v -2.06429018 -0.63366305 0.88034557
v -2.00658564 -0.63437957 0.88087581
v -2.06429018 -0.6113292100000001 0.90281189
v -2.0633524999999997 -0.61131143 0.90293537
v -2.06429018 -0.61131143 0.94695281
v -2.06429018 -0.6113292100000001 0.95207364
f 1 2 3
f 1 3 10
f 1 10 4
f 1 4 13
f 1 13 6
f 1 6 2
f 2 5 3
f 2 6 15
f 2 15 16
f 2 16 8
f 2 8 7
f 2 7 5
f 3 5 7
f 3 7 8
f 3 8 9
f 3 9 17
f 3 17 16
f 3 16 14
f 3 14 12
f 3 12 11
f 3 11 10
f 4 10 11
f 4 11 12
f 4 12 13
f 6 13 12
f 6 12 14
f 6 14 15
f 8 16 17
f 8 17 9
f 14 16 15

