# https://github.com/mikedh/trimesh
v 1.77568160 1.58911133 0.56853648
v 1.77560605 1.58900476 0.56853648
v 1.80900364 1.58911133 0.56851734
v 1.82567048 1.73907278 0.56845994
v 1.80900364 1.73907278 0.56845994
v 1.77559443 1.70565919 0.56845994
v 1.77559443 1.55154103 0.56842165
v 1.77560605 1.57658791 0.56851734
v 1.77984249 1.57658791 0.56851734
v 1.82565886 1.57243119 0.56849821
v 1.83495696 1.57243119 0.56848864
v 1.83495696 1.58911133 0.56848864
v 1.83496274 1.73907278 0.56842165
v 1.83496274 1.75569964 0.56841208
v 1.83496274 1.84826645 0.56831641
v 1.82567048 1.83894049 0.56835468
v 1.77559443 1.73901949 0.56843121
v 1.79234260 1.75569964 0.56843121
v 1.77559443 1.53896432 0.56828768
v 1.83496274 1.53907089 0.56830682
v 1.77560605 1.55569776 0.56845994
v 1.77560605 1.57232461 0.56850778
v 1.83495696 1.55575104 0.56844078
v 1.83496274 1.55154103 0.56841208
v 1.83496274 1.73171860 0.56842165
v 1.83496274 1.99822789 0.56797193
v 1.82567048 1.87230078 0.56827812
v 1.77559443 1.75564634 0.56840251
v 1.80900364 1.87230078 0.56825898
v 1.77559443 1.52228415 0.56801019
v 1.83496274 1.52239073 0.56807719
v 1.83496274 2.00563536 0.56795279
v 1.82567048 2.00563536 0.56796236
v 1.77559443 2.00558208 0.56788583
v 1.80900364 2.00563536 0.56794323
v 1.83496274 1.50571059 0.56746478
v 1.77559443 1.50565731 0.56731171
v 1.83496274 2.01490804 0.56792409
v 1.77568741 2.00563536 0.56788583
v 1.77559443 2.02220893 0.56779013
v 1.77559443 2.02689857 0.56776143
v 1.77568741 2.02226224 0.56779013
v 1.77568160 1.49387993 0.56431673
v 1.83496274 1.49387993 0.56441240
v 1.77559443 1.49382664 0.56426887
v 1.83496274 2.02226224 0.56786666
v 1.83496274 2.02689857 0.56781883
v 1.77559443 2.02689857 0.52641547
v 1.77568160 1.48700537 0.55352332
v 1.83496274 1.49089562 0.55964724
v 1.77559443 1.48700537 0.55344678
v 1.83496274 2.02689857 0.48609335
v 1.77562930 2.02689857 0.51089519
v 1.77559443 2.02226224 0.51091433
v 1.83496274 1.48716529 0.55352332
v 1.77568160 1.48327499 0.53686440
v 1.83496274 1.48545993 0.54614593
v 1.77559443 1.48327499 0.53678784
v 1.83445717 2.02689857 0.47778780
v 1.83496274 1.91972996 0.47873510
v 1.80015883 2.02689857 0.47771126
v 1.77559443 1.50571059 0.48395955
v 1.77559443 1.48263554 0.52011933
v 1.83496274 1.48279540 0.52019589
v 1.80900364 1.48338156 0.53686440
v 1.83496274 1.48348819 0.53686440
v 1.82567048 2.02689857 0.47279301
v 1.83496274 1.90395576 0.47816099
v 1.83496274 1.88892764 0.47764427
v 1.83489884 1.88892764 0.47707015
v 1.80658033 2.02689857 0.47405604
v 1.80900364 1.57243119 0.47252508
v 1.82565886 1.57243119 0.47245809
v 1.80900364 1.50571059 0.48386388
v 1.77559443 1.48998968 0.48937539
v 1.80900364 2.02689857 0.47272601
v 1.80900364 1.95564823 0.47211363
v 1.80900364 1.85562064 0.47130985
v 1.80900364 1.77237978 0.47078360
v 1.80900364 1.75569964 0.47086013
v 1.77559443 1.48252891 0.50347951
v 1.77568160 1.48247562 0.50354651
v 1.83496274 1.48274212 0.51282804
v 1.82567048 1.90566108 0.47202750
v 1.83496274 1.87230078 0.47748161
v 1.83491047 1.87230078 0.47703189
v 1.83496274 1.68956525 0.47647690
v 1.82567048 1.85562064 0.47177871
v 1.82567048 1.87230078 0.47184570
v 1.82567048 1.88892764 0.47192224
v 1.82565886 1.60573819 0.47178830
v 1.82565886 1.58911133 0.47202750
v 1.83495696 1.57243119 0.47708929
v 1.83461989 1.56289207 0.47762514
v 1.83496274 1.50571059 0.48400741
v 1.82567048 1.50571059 0.48393088
v 1.83496274 1.49702416 0.48697366
v 1.83496274 1.49009626 0.48938499
v 1.80900364 1.49004297 0.48937539
v 1.77568160 1.48998968 0.48937539
v 1.82567048 1.78905993 0.47159691
v 1.82567048 1.68908563 0.47145338
v 1.83496274 1.48268883 0.50354651
v 1.83496274 1.80568678 0.47694576
v 1.83496274 1.78916651 0.47683096
v 1.83496274 1.68908563 0.47647690
v 1.83495696 1.60573819 0.47678309
v 1.83495696 1.58921792 0.47688836
v 1.83496274 1.67277853 0.47658216
v 1.83496274 1.64218936 0.47701275
v 1.83496274 1.63909848 0.47713715
f 1 2 3
f 1 3 4
f 1 4 5
f 1 5 6
f 1 6 2
f 2 7 8
f 2 8 9
f 2 9 10
f 2 10 3
f 2 6 7
f 3 10 11
f 3 11 12
f 3 12 4
f 4 13 14
f 4 14 15
f 4 15 16
f 4 16 5
f 4 12 13
f 5 17 6
f 5 16 18
f 5 18 17
f 6 17 28
f 6 28 34
f 6 34 40
f 6 40 41
f 6 41 48
f 6 48 54
f 6 54 62
f 6 62 75
f 6 75 81
f 6 81 63
f 6 63 58
f 6 58 51
f 6 51 45
f 6 45 37
f 6 37 30
f 6 30 19
f 6 19 7
f 7 19 20
f 7 20 21
f 7 21 22
f 7 22 8
f 8 22 9
f 9 22 10
f 10 22 21
f 10 21 23
f 10 23 11
f 11 23 24
f 11 24 25
f 11 25 13
f 11 13 12
f 13 25 24
f 13 24 20
f 13 20 31
f 13 31 36
f 13 36 44
f 13 44 50
f 13 50 55
f 13 55 57
f 13 57 66
f 13 66 64
f 13 64 83
f 13 83 103
f 13 103 98
f 13 98 97
f 13 97 95
f 13 95 111
f 13 111 110
f 13 110 109
f 13 109 106
f 13 106 87
f 13 87 105
f 13 105 104
f 13 104 85
f 13 85 69
f 13 69 68
f 13 68 60
f 13 60 52
f 13 52 47
f 13 47 46
f 13 46 38
f 13 38 32
f 13 32 26
f 13 26 15
f 13 15 14
f 15 26 27
f 15 27 16
f 16 28 17
f 16 17 18
f 16 27 29
f 16 29 28
f 19 30 31
f 19 31 20
f 20 24 21
f 21 24 23
f 26 32 33
f 26 33 27
f 27 33 35
f 27 35 29
f 28 29 34
f 29 35 34
f 30 36 31
f 30 37 36
f 32 38 33
f 33 38 35
f 34 35 39
f 34 39 42
f 34 42 40
f 35 38 41
f 35 41 42
f 35 42 39
f 36 37 43
f 36 43 44
f 37 45 43
f 38 46 41
f 40 42 41
f 41 47 52
f 41 52 59
f 41 59 67
f 41 67 76
f 41 76 71
f 41 71 61
f 41 61 53
f 41 53 48
f 41 46 47
f 43 45 44
f 44 45 49
f 44 49 50
f 45 51 49
f 48 53 54
f 49 55 50
f 49 51 58
f 49 58 56
f 49 56 57
f 49 57 55
f 52 60 59
f 53 61 62
f 53 62 54
f 56 58 63
f 56 63 64
f 56 64 65
f 56 65 57
f 57 65 66
f 59 60 68
f 59 68 69
f 59 69 70
f 59 70 67
f 61 71 62
f 62 72 73
f 62 73 74
f 62 74 75
f 62 71 76
f 62 76 77
f 62 77 78
f 62 78 79
f 62 79 80
f 62 80 72
f 63 81 82
f 63 82 64
f 64 82 83
f 64 66 65
f 67 70 84
f 67 84 79
f 67 79 78
f 67 78 77
f 67 77 76
f 69 85 70
f 70 85 86
f 70 86 87
f 70 87 88
f 70 88 89
f 70 89 90
f 70 90 84
f 72 91 92
f 72 92 73
f 72 80 91
f 73 92 93
f 73 93 94
f 73 94 95
f 73 95 96
f 73 96 74
f 74 96 97
f 74 97 98
f 74 98 99
f 74 99 100
f 74 100 75
f 75 100 82
f 75 82 81
f 79 84 90
f 79 90 89
f 79 89 88
f 79 88 101
f 79 101 102
f 79 102 91
f 79 91 80
f 82 100 99
f 82 99 98
f 82 98 103
f 82 103 83
f 85 104 86
f 86 104 105
f 86 105 87
f 87 106 102
f 87 102 101
f 87 101 88
f 91 102 107
f 91 107 108
f 91 108 93
f 91 93 92
f 93 108 109
f 93 109 110
f 93 110 111
f 93 111 95
f 93 95 94
f 95 97 96
f 102 106 107
f 106 109 108
f 106 108 107

