# https://github.com/mikedh/trimesh
v 0.16727503 1.53918676 0.18216476
v 0.12456091 1.65585988 0.17966487
v 0.12456091 1.56064822 0.17967476
v 0.12456091 1.55586509 0.17967476
v 0.12456091 1.53916173 0.17965497
v 0.16604985 1.53916173 0.18145332
v 0.16727503 1.53916173 0.18087032
v 0.16727503 1.79499612 0.18128535
v 0.12456091 1.79499612 0.17958583
v 0.12456091 1.70584475 0.17964508
v 0.12456091 1.53916173 0.09817557
v 0.16727503 1.53916173 0.08273146
v 0.16727503 1.79499612 0.08142713
v 0.12456091 1.79499612 0.09817557
v 0.16727503 1.65585988 0.08121964
v 0.16727503 1.64742055 0.08122953
v 0.16727503 1.54770124 0.08141723
v 0.16727503 1.53918676 0.08151606
v 0.12456091 1.73436818 0.09814595
v 0.16727503 1.78916121 0.08139750
v 0.12456091 1.78437809 0.09816568
v 0.12456091 1.75104649 0.09814595
v 0.12456091 1.77250794 0.09815579
f 1 2 3
f 1 3 4
f 1 4 5
f 1 5 6
f 1 6 7
f 1 7 12
f 1 12 18
f 1 18 17
f 1 17 16
f 1 16 15
f 1 15 20
f 1 20 13
f 1 13 8
f 1 8 9
f 1 9 10
f 1 10 2
f 2 10 9
f 2 9 14
f 2 14 21
f 2 21 23
f 2 23 22
f 2 22 19
f 2 19 11
f 2 11 5
f 2 5 4
f 2 4 3
f 5 11 12
f 5 12 7
f 5 7 6
f 8 13 14
f 8 14 9
f 11 15 16
f 11 16 17
f 11 17 18
f 11 18 12
f 11 19 15
f 13 20 14
f 14 20 15
f 14 15 21
f 15 19 22
f 15 22 23
f 15 23 21

