# https://github.com/mikedh/trimesh
v -1.86974761 2.05113497 0.58689331
v -1.87087194 2.05113497 0.58689331
v -1.82608036 2.05110955 0.58689331
v -1.82607303 2.05113497 0.58686226
v -1.88670050 2.05113497 0.57290148
v -1.88756930 1.79162086 0.56855329
v -1.86693669 1.79162086 0.58675354
v -1.86778362 1.94632338 0.58689331
v -1.82940227 1.94632338 0.58689331
v -1.82940227 1.79169707 0.58675354
v -1.81604149 2.05113497 0.53684262
v -1.81849460 1.79162086 0.53685815
v -1.88670050 2.05113497 0.49606288
v -1.88756930 1.94629799 0.56905022
v -1.88756930 1.93280914 0.56901916
v -1.88756930 1.85571191 0.56881728
v -1.88756930 1.83284947 0.56872412
v -1.88756930 1.79162086 0.50225905
v -1.86541080 1.79162086 0.58675354
v -1.82938773 1.79162086 0.58428439
v -1.81404102 2.05113497 0.52017977
v -1.81804929 1.79162086 0.53428029
v -1.81566913 1.79162086 0.52017977
v -1.81520189 1.85571191 0.52017977
v -1.88320329 2.05113497 0.47022225
v -1.88756930 1.88904026 0.50219694
v -1.88756930 1.89185997 0.50222799
v -1.88756930 1.94629799 0.50288022
v -1.86707539 1.79162086 0.43680338
v -1.88756930 1.80571938 0.50224352
v -1.87094496 2.05113497 0.42824677
v -1.86833121 1.94706007 0.42824677
v -1.81346422 2.05113497 0.50354798
v -1.81444985 1.79162086 0.50354798
v -1.81432575 1.79162086 0.50097011
v -1.81365406 1.79162086 0.48688510
v -1.86588538 1.79162086 0.43680338
v -1.86830928 1.94632338 0.42824677
v -1.82584671 2.05113497 0.42824677
v -1.81320869 1.95567158 0.48688510
v -1.81298965 2.05113497 0.48688510
v -1.81562532 1.79162086 0.47022225
v -1.81426734 2.05113497 0.47477232
v -1.82852620 1.94632338 0.42824677
v -1.82846778 1.79169707 0.43680338
v -1.82846778 1.79162086 0.43688099
v -1.81507046 2.05113497 0.47022225
f 1 2 8
f 1 8 9
f 1 9 3
f 1 3 4
f 1 4 11
f 1 11 21
f 1 21 33
f 1 33 41
f 1 41 43
f 1 43 47
f 1 47 39
f 1 39 31
f 1 31 25
f 1 25 13
f 1 13 5
f 1 5 2
f 2 5 6
f 2 6 7
f 2 7 8
f 3 9 10
f 3 10 4
f 4 10 12
f 4 12 11
f 5 13 28
f 5 28 14
f 5 14 15
f 5 15 16
f 5 16 17
f 5 17 6
f 6 17 16
f 6 16 15
f 6 15 14
f 6 14 28
f 6 28 27
f 6 27 26
f 6 26 30
f 6 30 18
f 6 18 29
f 6 29 37
f 6 37 46
f 6 46 42
f 6 42 36
f 6 36 35
f 6 35 34
f 6 34 23
f 6 23 22
f 6 22 12
f 6 12 20
f 6 20 19
f 6 19 7
f 7 19 9
f 7 9 8
f 9 19 10
f 10 19 20
f 10 20 12
f 11 12 22
f 11 22 23
f 11 23 24
f 11 24 21
f 13 25 26
f 13 26 27
f 13 27 28
f 18 30 25
f 18 25 31
f 18 31 32
f 18 32 29
f 21 24 34
f 21 34 35
f 21 35 36
f 21 36 33
f 23 34 24
f 25 30 26
f 29 32 38
f 29 38 44
f 29 44 37
f 31 39 44
f 31 44 38
f 31 38 32
f 33 36 40
f 33 40 41
f 36 42 43
f 36 43 40
f 37 44 45
f 37 45 46
f 39 47 42
f 39 42 45
f 39 45 44
f 40 43 41
f 42 46 45
f 42 47 43

