# https://github.com/mikedh/trimesh
v -1.89528995 2.11522967 1.43900728
v -1.89528995 2.06510618 1.43900728
v -1.89528995 2.11523468 1.43864554
v -1.94995119 2.11484918 1.43877882
v -1.94995119 2.11484418 1.43900728
v -1.94995119 2.06569192 1.43900728
v -1.94995119 2.06445538 1.24453649
v -1.89528995 2.06429015 1.24453649
v -1.89528995 2.11523969 1.43687503
v -1.94995119 2.11489925 1.42212077
v -1.94995119 2.11518461 1.24453649
v -1.89528995 2.11543492 1.24453649
v -1.94995119 2.11490426 1.42019796
v -1.89528995 2.11530474 1.40353991
v -1.94995119 2.11501438 1.37020479
v -1.94995119 2.11497936 1.38686282
v -1.94995119 2.11506445 1.33688869
v -1.94995119 2.11503941 1.35545053
f 1 2 8
f 1 8 12
f 1 12 14
f 1 14 9
f 1 9 3
f 1 3 4
f 1 4 5
f 1 5 6
f 1 6 2
f 2 6 7
f 2 7 8
f 3 9 10
f 3 10 4
f 4 10 13
f 4 13 16
f 4 16 15
f 4 15 18
f 4 18 17
f 4 17 11
f 4 11 7
f 4 7 6
f 4 6 5
f 7 11 12
f 7 12 8
f 9 13 10
f 9 14 15
f 9 15 16
f 9 16 13
f 11 17 14
f 11 14 12
f 14 18 15
f 14 17 18

