# https://github.com/mikedh/trimesh
v -0.36389767000000006 -0.67804447 1.74293979
v -0.36398533999999994 -0.6947175400000001 1.74293979
v -0.36408399000000014 -0.7113731999999999 1.6626377
v -0.36390864 -0.67804447 1.72626318
v -0.3672733100000001 -0.6652089999999999 1.72626318
v -0.3672733100000001 -0.66524381 1.74293979
v -0.3674376800000001 -0.66539175 1.78752896
v -0.36416074 -0.67804447 1.78752896
v -0.36414977000000004 -0.68927878 1.78752896
v -0.36414977000000004 -0.6947175400000001 1.78752896
v -0.36422646999999997 -0.7113731999999999 1.78752896
v -0.3640401500000001 -0.6947175400000001 1.7596164
v -0.3641388000000001 -0.7113731999999999 1.7596164
v -0.36410593 -0.7113731999999999 1.74293979
v -0.36418262999999995 -0.7144450099999999 1.6626377
v -0.36405112000000006 -0.6977893500000001 1.6626377
v -0.36405112000000006 -0.6947175400000001 1.6626377
v -0.36412782 -0.67804447 1.6626377
v -0.3674376800000001 -0.66533084 1.6626377
v -0.36731713999999993 -0.6652003 1.70961103
v -0.3789783900000001 -0.65925683 1.70961103
v -0.3789783900000001 -0.65939606 1.74293979
v -0.3789783900000001 -0.65931774 1.72626318
v -0.3752082299999999 -0.6615106500000001 1.78752896
v -0.36482926000000004 -0.72805495 1.78752896
v -0.3647196400000001 -0.72805495 1.7596164
v -0.36467581000000004 -0.72805495 1.74293979
v -0.3646539200000001 -0.72805495 1.70961103
v -0.36466489 -0.72805495 1.6626377
v -0.3695529799999999 -0.6642517800000001 1.6626377
v -0.3789783900000001 -0.65928292 1.69292213
v -0.36738293 -0.6652177100000001 1.69292213
v -0.38969713000000006 -0.65542795 1.70958657
v -0.38979571999999996 -0.65542795 1.74293979
v -0.3789783900000001 -0.65963971 1.78752896
v -0.3669773700000001 -0.73560832 1.78752896
v -0.3679528000000001 -0.7393588600000001 1.7596164
v -0.3679966400000001 -0.73931535 1.77629301
v -0.36791993999999995 -0.73942849 1.72626318
v -0.36790896000000006 -0.73942849 1.70961103
v -0.36525670999999993 -0.73014344 1.6626377
v -0.3789783900000001 -0.65951788 1.6626377
v -0.39070543000000013 -0.65542795 1.69292213
v -0.39057392 -0.65542795 1.75939633
v -0.39060677999999993 -0.65542795 1.7596164
v -0.39553870000000013 -0.65542795 1.77533935
v -0.39588939 -0.65542795 1.77604848
v -0.3956373500000001 -0.6575077300000001 1.78752896
v -0.3680295600000001 -0.7392892600000001 1.78752896
v -0.3789783900000001 -0.74345753 1.7596164
v -0.3679418299999999 -0.7394024 1.74293979
v -0.3789783900000001 -0.74357064 1.70961103
v -0.3789783900000001 -0.74354455 1.69292213
v -0.36791993999999995 -0.73939369 1.69292213
v -0.3679418299999999 -0.73931535 1.6626377
v -0.38205809000000013 -0.65889135 1.6626377
v -0.3961963100000001 -0.65542795 1.67678349
v -0.41172637 -0.65542795 1.78033992
v -0.41232917 -0.65542795 1.78049886
v -0.41232917 -0.65764696 1.78752896
v -0.3716134099999999 -0.74060328 1.78752896
v -0.3789783900000001 -0.74336181 1.77629301
v -0.3956592400000001 -0.74417108 1.7596164
v -0.3956592400000001 -0.74431031 1.70961103
v -0.3956592400000001 -0.7442929300000001 1.69292213
v -0.3956592400000001 -0.74424942 1.67624552
v -0.3956592400000001 -0.7441972 1.6626377
v -0.3789783900000001 -0.7434662400000001 1.67624552
v -0.3679418299999999 -0.7393588600000001 1.67624552
v -0.3789783900000001 -0.74339661 1.6626377
v -0.3956811900000001 -0.65768176 1.6626377
v -0.3967004599999999 -0.65542795 1.67657564
v -0.47585231000000006 -0.65542795 1.76950744
v -0.42677418 -0.66335547 1.78752896
v -0.3789783900000001 -0.7432835 1.78752896
v -0.3956592400000001 -0.7440579700000001 1.77629301
v -0.41232917 -0.74333569 1.74293979
v -0.41232917 -0.7434053199999999 1.72626318
v -0.41232917 -0.7430398300000001 1.78752896
v -0.4259193400000001 -0.74276137 1.6626377
v -0.41232917 -0.7434662400000001 1.6626377
v -0.40927136 -0.74361415 1.6626377
v -0.3997143700000001 -0.65753382 1.6626377
v -0.41232917 -0.65542795 1.67262654
v -0.47585231000000006 -0.6948741700000001 1.77222166
v -0.45622322000000004 -0.71250446 1.78752896
v -0.4543052700000001 -0.70176617 1.78752896
v -0.4525517000000001 -0.6925768400000001 1.78752896
v -0.44482504 -0.68067248 1.78752896
v -0.47585231000000006 -0.65542795 1.68602658
v -0.3956592400000001 -0.74397963 1.78752896
v -0.4177761500000001 -0.7426917399999999 1.78752896
v -0.42898806 -0.7419694800000001 1.78752896
v -0.42898806 -0.74222182 1.74293979
v -0.42898806 -0.74230016 1.72626318
v -0.42898806 -0.74257863 1.6626377
v -0.41232917 -0.65807335 1.6626377
v -0.4131949800000001 -0.65542795 1.67279772
v -0.47585231000000006 -0.70374152 1.77115796
v -0.45192701000000013 -0.72829862 1.78752896
v -0.47585231000000006 -0.70660448 1.77080345
v -0.4156061 -0.65894355 1.6626377
v -0.42635770000000006 -0.66372966 1.6626377
v -0.44356463999999995 -0.68142086 1.6626377
v -0.44982268999999997 -0.6914107700000001 1.6626377
v -0.4510063900000001 -0.6947175400000001 1.6626377
v -0.45256267000000006 -0.70615199 1.6626377
v -0.45297915 -0.7113731999999999 1.6626377
v -0.47585231000000006 -0.66451284 1.68595322
v -0.4434659999999999 -0.73890636 1.78752896
v -0.44302763 -0.73923704 1.6626377
v -0.4434659999999999 -0.73893249 1.77629301
v -0.47585231000000006 -0.71126876 1.76261183
v -0.47585231000000006 -0.68370949 1.68592877
v -0.45157625999999995 -0.72308611 1.6626377
v -0.47585231000000006 -0.6947088299999999 1.68618552
v -0.47585231000000006 -0.7121824800000001 1.7596164
v -0.47585231000000006 -0.71458424 1.74706
v -0.47585231000000006 -0.71501063 1.74293979
v -0.4516858800000001 -0.7340680500000001 1.7596164
v -0.47585231000000006 -0.71498452 1.70961103
v -0.47585231000000006 -0.70948486 1.693509
v -0.44467159 -0.73707024 1.6626377
v -0.4515105400000001 -0.7340941400000001 1.74293979
v -0.45095158000000013 -0.7279766400000001 1.6626377
v -0.47585231000000006 -0.69886839 1.68776268
f 1 2 3
f 1 3 4
f 1 4 5
f 1 5 6
f 1 6 7
f 1 7 8
f 1 8 9
f 1 9 10
f 1 10 11
f 1 11 12
f 1 12 2
f 2 12 11
f 2 11 13
f 2 13 14
f 2 14 3
f 3 15 29
f 3 29 41
f 3 41 55
f 3 55 70
f 3 70 67
f 3 67 82
f 3 82 81
f 3 81 80
f 3 80 96
f 3 96 111
f 3 111 123
f 3 123 125
f 3 125 115
f 3 115 108
f 3 108 107
f 3 107 106
f 3 106 105
f 3 105 104
f 3 104 103
f 3 103 102
f 3 102 97
f 3 97 83
f 3 83 71
f 3 71 56
f 3 56 42
f 3 42 30
f 3 30 19
f 3 19 18
f 3 18 17
f 3 17 16
f 3 16 4
f 3 14 15
f 4 16 17
f 4 17 18
f 4 18 19
f 4 19 20
f 4 20 5
f 5 20 21
f 5 21 6
f 6 22 7
f 6 21 23
f 6 23 22
f 7 24 35
f 7 35 48
f 7 48 60
f 7 60 74
f 7 74 89
f 7 89 88
f 7 88 87
f 7 87 86
f 7 86 100
f 7 100 110
f 7 110 93
f 7 93 92
f 7 92 79
f 7 79 91
f 7 91 75
f 7 75 61
f 7 61 49
f 7 49 36
f 7 36 25
f 7 25 11
f 7 11 10
f 7 10 9
f 7 9 8
f 7 22 24
f 11 25 26
f 11 26 13
f 13 26 27
f 13 27 14
f 14 27 28
f 14 28 15
f 15 28 29
f 19 30 31
f 19 31 32
f 19 32 20
f 20 32 31
f 20 31 21
f 21 33 34
f 21 34 23
f 21 31 33
f 22 34 35
f 22 35 24
f 22 23 34
f 25 36 26
f 26 37 27
f 26 36 38
f 26 38 37
f 27 37 39
f 27 39 40
f 27 40 28
f 28 40 41
f 28 41 29
f 30 42 31
f 31 42 33
f 33 42 43
f 33 43 57
f 33 57 72
f 33 72 84
f 33 84 98
f 33 98 90
f 33 90 73
f 33 73 59
f 33 59 58
f 33 58 47
f 33 47 46
f 33 46 45
f 33 45 44
f 33 44 34
f 34 44 35
f 35 44 45
f 35 45 46
f 35 46 47
f 35 47 48
f 36 49 38
f 37 50 51
f 37 51 39
f 37 38 49
f 37 49 50
f 39 52 40
f 39 51 52
f 40 52 53
f 40 53 54
f 40 54 41
f 41 54 55
f 42 56 43
f 43 56 57
f 47 58 48
f 48 58 59
f 48 59 60
f 49 61 50
f 50 61 62
f 50 62 63
f 50 63 64
f 50 64 52
f 50 52 51
f 52 64 65
f 52 65 53
f 53 65 66
f 53 66 67
f 53 67 68
f 53 68 55
f 53 55 69
f 53 69 54
f 54 69 55
f 55 68 70
f 56 71 57
f 57 71 72
f 59 73 60
f 60 73 74
f 61 75 62
f 62 75 91
f 62 91 76
f 62 76 63
f 63 77 78
f 63 78 64
f 63 76 79
f 63 79 77
f 64 78 80
f 64 80 81
f 64 81 82
f 64 82 65
f 65 82 66
f 66 82 67
f 67 70 68
f 71 83 84
f 71 84 72
f 73 85 86
f 73 86 87
f 73 87 88
f 73 88 89
f 73 89 74
f 73 90 109
f 73 109 114
f 73 114 116
f 73 116 126
f 73 126 122
f 73 122 121
f 73 121 119
f 73 119 118
f 73 118 117
f 73 117 113
f 73 113 101
f 73 101 99
f 73 99 85
f 76 91 79
f 77 79 92
f 77 92 93
f 77 93 94
f 77 94 95
f 77 95 96
f 77 96 78
f 78 96 80
f 83 97 84
f 84 97 98
f 85 99 86
f 86 99 101
f 86 101 100
f 90 98 97
f 90 97 102
f 90 102 103
f 90 103 104
f 90 104 105
f 90 105 106
f 90 106 107
f 90 107 108
f 90 108 109
f 93 110 94
f 94 110 95
f 95 110 96
f 96 110 112
f 96 112 111
f 100 101 113
f 100 113 110
f 108 114 109
f 108 115 116
f 108 116 114
f 110 113 117
f 110 117 118
f 110 118 119
f 110 119 120
f 110 120 112
f 111 121 122
f 111 122 123
f 111 112 120
f 111 120 124
f 111 124 121
f 115 125 116
f 116 125 126
f 119 121 120
f 120 121 124
f 122 126 125
f 122 125 123

