# https://github.com/mikedh/trimesh
v 1.09244287 1.50570332 0.09350732
v 1.62552042 1.49565428 0.09464810
v 1.10899349 1.49463447 0.09420541
v 1.09244287 1.49462705 0.09419689
v 0.81367642 1.49412830 0.09412030
v 1.00907233 1.50570332 0.09357545
v 0.95904998 1.51939238 0.09461407
v 1.09244287 1.51850659 0.09452889
v 1.64219453 1.51667543 0.09506522
v 2.07547441 1.51015469 0.09537171
v 2.07547441 1.50999093 0.09536318
v 2.07547441 1.50165393 0.09503118
v 2.07547441 1.49691228 0.09503118
v 1.64219453 1.49569151 0.09466515
v 1.64219453 1.48804676 0.10354429
v 0.81367642 1.49199197 0.09671676
v 1.62552042 1.48800954 0.10354429
v 0.81367642 1.50570332 0.09373722
v 0.95904998 1.52771451 0.09592508
v 0.87580296 1.51881922 0.09473322
v 0.84245473 1.52679891 0.09589951
v 0.85912885 1.52688078 0.09588252
v 1.49225102 1.52583868 0.09584843
v 1.62552042 1.52502730 0.09579735
v 1.64219453 1.52499008 0.09580587
v 2.07547441 1.52234754 0.09623151
v 2.07547441 1.48978860 0.10353576
v 1.65886865 1.48206944 0.12021292
v 2.07547441 1.48314877 0.12000859
v 2.07547441 1.48307436 0.12020439
v 0.81367642 1.48646869 0.10354429
v 1.64219453 1.48203222 0.12021292
v 0.81367642 1.51684662 0.09484390
v 0.84245473 1.51847682 0.09483538
v 0.87580296 1.52714877 0.09594207
v 0.85912885 1.53447340 0.10420829
v 1.83487315 1.55796588 0.12986680
v 1.85895797 1.55796588 0.12982418
v 1.85895797 1.53530713 0.10431045
v 2.07547441 1.53478606 0.10439563
v 0.81367642 1.52516129 0.09672528
v 0.81367642 1.53184577 0.10274403
v 0.81367642 1.53418312 0.10505963
v 0.84245473 1.53437666 0.10424238
v 2.07547441 1.52249644 0.09631669
v 1.64219453 1.48199500 0.13687303
v 2.07547441 1.48304458 0.13687303
v 0.81367642 1.48519582 0.10817542
v 1.62552042 1.48198758 0.13687303
v 1.59217218 1.48202477 0.12021292
v 0.81367642 1.55466830 0.12988379
v 1.83487315 1.55796588 0.17985565
v 1.87587909 1.55796588 0.12984123
v 1.90885682 1.55796588 0.12989231
v 1.92565444 1.55796588 0.12992635
v 1.97135386 1.55796588 0.13006260
v 2.07547441 1.55796588 0.13051376
v 1.62552042 1.48208431 0.15351615
v 1.49225102 1.48195035 0.15351615
v 2.07547441 1.48319345 0.15352467
v 0.81367642 1.48198758 0.12021292
v 1.47557692 1.48194290 0.15351615
v 0.81367642 1.48192800 0.13685604
v 0.81367642 1.55466830 0.17948109
v 2.07547441 1.55796588 0.18037499
v 1.52559925 1.48771923 0.17018478
v 2.07547441 1.48829243 0.17019330
v 0.81367642 1.48192800 0.15351615
v 0.81367642 1.50570332 0.17937893
v 0.82578062 1.50570332 0.17940450
v 1.07576876 1.50570332 0.17972798
v 1.04242053 1.53901409 0.17968542
v 1.49200400 1.55544989 0.18002594
v 2.07547441 1.55568065 0.18040050
v 1.52559925 1.49538630 0.17927676
v 0.81367642 1.48849339 0.17017625
v 0.81367642 1.48371451 0.15815581
v 2.05892380 1.49528208 0.17943853
v 2.07547441 1.49531185 0.17943853
v 0.81367642 1.49885508 0.17908096
v 0.82578062 1.49613813 0.17897880
v 2.07547441 1.50569590 0.18040902
v 2.07547441 1.52234754 0.18046863
v 2.07547441 1.53882055 0.18046011
v 1.54214985 1.49539375 0.17929381
v 1.07576876 1.49587014 0.17913204
v 0.81367642 1.49061485 0.17262805
v 2.07547441 1.50557678 0.18040050
v 0.81367642 1.49619767 0.17896181
f 1 2 3
f 1 3 4
f 1 4 5
f 1 5 6
f 1 6 7
f 1 7 8
f 1 8 9
f 1 9 10
f 1 10 11
f 1 11 12
f 1 12 13
f 1 13 2
f 2 14 15
f 2 15 3
f 2 13 14
f 3 16 5
f 3 5 4
f 3 15 17
f 3 17 16
f 5 16 31
f 5 31 48
f 5 48 61
f 5 61 63
f 5 63 68
f 5 68 77
f 5 77 76
f 5 76 87
f 5 87 89
f 5 89 80
f 5 80 69
f 5 69 64
f 5 64 51
f 5 51 43
f 5 43 42
f 5 42 41
f 5 41 33
f 5 33 18
f 5 18 6
f 6 18 7
f 7 19 8
f 7 18 20
f 7 20 21
f 7 21 22
f 7 22 19
f 8 23 24
f 8 24 25
f 8 25 9
f 8 19 23
f 9 25 26
f 9 26 10
f 10 26 45
f 10 45 40
f 10 40 57
f 10 57 65
f 10 65 74
f 10 74 84
f 10 84 83
f 10 83 82
f 10 82 88
f 10 88 79
f 10 79 67
f 10 67 60
f 10 60 47
f 10 47 30
f 10 30 29
f 10 29 27
f 10 27 13
f 10 13 12
f 10 12 11
f 13 27 15
f 13 15 14
f 15 28 32
f 15 32 17
f 15 27 29
f 15 29 30
f 15 30 28
f 16 17 31
f 17 32 31
f 18 33 34
f 18 34 20
f 19 22 35
f 19 35 36
f 19 36 37
f 19 37 38
f 19 38 39
f 19 39 40
f 19 40 23
f 20 34 21
f 21 34 33
f 21 33 41
f 21 41 42
f 21 42 43
f 21 43 44
f 21 44 35
f 21 35 22
f 23 25 24
f 23 40 25
f 25 40 45
f 25 45 26
f 28 46 32
f 28 30 46
f 30 47 46
f 31 32 48
f 32 46 49
f 32 49 50
f 32 50 48
f 35 44 36
f 36 44 51
f 36 51 37
f 37 52 65
f 37 65 57
f 37 57 56
f 37 56 55
f 37 55 54
f 37 54 53
f 37 53 38
f 37 51 64
f 37 64 52
f 38 53 39
f 39 53 54
f 39 54 55
f 39 55 56
f 39 56 40
f 40 56 57
f 43 51 44
f 46 58 59
f 46 59 62
f 46 62 49
f 46 47 58
f 47 60 58
f 48 50 61
f 49 62 63
f 49 63 50
f 50 63 61
f 52 64 65
f 58 66 59
f 58 60 67
f 58 67 66
f 59 66 62
f 62 66 68
f 62 68 63
f 64 69 70
f 64 70 71
f 64 71 72
f 64 72 73
f 64 73 65
f 65 73 74
f 66 75 76
f 66 76 77
f 66 77 68
f 66 67 78
f 66 78 75
f 67 79 78
f 69 80 70
f 70 80 81
f 70 81 71
f 71 73 72
f 71 81 82
f 71 82 83
f 71 83 73
f 73 83 84
f 73 84 74
f 75 78 85
f 75 85 86
f 75 86 76
f 76 86 87
f 78 79 88
f 78 88 85
f 80 89 81
f 81 89 87
f 81 87 86
f 81 86 82
f 82 86 88
f 85 88 86

