# https://github.com/mikedh/trimesh
v -2.231582385 -0.29818025 1.14099628
v -2.232200445 -0.32720186 1.14412175
v -2.248262515 -0.32720186 1.14461977
v -2.248262515 -0.29818025 1.14293682
v -2.2286419449999997 -0.29818025 1.14176047
v -2.218443105 -0.32720186 1.14744471
v -2.231582385 -0.32720186 1.14410457
v -2.264642405 -0.32720186 1.14798565
v -2.2773136849999998 -0.29818025 1.14847509
v -2.215564455 -0.29818025 1.14568448
v -2.214010375 -0.29818025 1.14867257
v -2.212332605 -0.32720186 1.15925967
v -2.272907445 -0.32720186 1.15191825
v -2.298126365 -0.29818025 1.15579075
v -2.209401055 -0.29818025 1.15925967
v -2.209383345 -0.29818025 1.15944858
v -2.207926425 -0.29818025 1.17594317
v -2.211016925 -0.32720186 1.17594317
v -2.2731370049999997 -0.32720186 1.15215009
v -2.298126365 -0.32720186 1.17905146
v -2.298126365 -0.29818025 1.22744474
v -2.207944085 -0.29818025 1.17781501
v -2.2110699449999998 -0.32720186 1.19260947
v -2.298126365 -0.32720186 1.22744474
v -2.2352910049999997 -0.29818025 1.22870696
v -2.208111855 -0.29818025 1.19260947
v -2.211670355 -0.32720186 1.20866616
v -2.2975082349999996 -0.32720186 1.22744474
v -2.2816051149999996 -0.32720186 1.22740181
v -2.264924985 -0.32720186 1.22734171
v -2.247635565 -0.32720186 1.22726443
v -2.231582385 -0.29818025 1.2286726
v -2.209171435 -0.29818025 1.20928438
v -2.2116968949999998 -0.32720186 1.20928438
v -2.231582385 -0.32720186 1.22710987
v -2.218619695 -0.29818025 1.22462838
v -2.209242115 -0.29818025 1.20945611
v -2.215211255 -0.29818025 1.22343487
v -2.217524745 -0.32720186 1.22182919
v -2.217754365 -0.32720186 1.22231004
f 1 2 3
f 1 3 4
f 1 4 9
f 1 9 14
f 1 14 21
f 1 21 25
f 1 25 32
f 1 32 36
f 1 36 38
f 1 38 37
f 1 37 33
f 1 33 26
f 1 26 22
f 1 22 17
f 1 17 16
f 1 16 15
f 1 15 11
f 1 11 10
f 1 10 5
f 1 5 6
f 1 6 7
f 1 7 2
f 2 7 6
f 2 6 12
f 2 12 18
f 2 18 23
f 2 23 27
f 2 27 34
f 2 34 39
f 2 39 40
f 2 40 35
f 2 35 31
f 2 31 30
f 2 30 29
f 2 29 28
f 2 28 24
f 2 24 20
f 2 20 19
f 2 19 13
f 2 13 8
f 2 8 3
f 3 8 9
f 3 9 4
f 5 10 6
f 6 10 11
f 6 11 12
f 8 13 14
f 8 14 9
f 11 15 12
f 12 15 16
f 12 16 17
f 12 17 18
f 13 19 14
f 14 20 24
f 14 24 21
f 14 19 20
f 17 22 23
f 17 23 18
f 21 24 25
f 22 26 23
f 23 26 27
f 24 28 25
f 25 28 29
f 25 29 30
f 25 30 31
f 25 31 32
f 26 33 34
f 26 34 27
f 31 35 32
f 32 35 36
f 33 37 34
f 34 37 38
f 34 38 39
f 35 40 36
f 36 40 38
f 38 40 39

