# https://github.com/mikedh/trimesh
v 2.22842235 2.06114143 1.13671181
v 2.22842235 2.11820600 1.13671181
v 2.17376111 2.06224743 1.13671181
v 2.22842235 2.06235913 1.01364157
v 2.22842235 2.11536841 1.01364157
v 2.20900520 2.11816132 1.13671181
v 2.17376111 2.11784291 1.13671181
v 2.17376111 2.06414660 1.01364157
v 2.17376111 2.11498857 1.01364157
v 2.19234361 2.11801607 1.13671181
f 1 2 6
f 1 6 10
f 1 10 7
f 1 7 3
f 1 3 4
f 1 4 5
f 1 5 2
f 2 5 6
f 3 7 9
f 3 9 8
f 3 8 4
f 4 8 9
f 4 9 5
f 5 9 6
f 6 9 10
f 7 10 9

