# https://github.com/mikedh/trimesh
v 0.37058858 2.04377689 1.85364025
v 0.33387773 2.04377689 1.85364025
v 0.37211626 2.04373104 1.85364025
v 0.37210851 2.04377689 1.85354404
v 0.33379261 2.04377689 1.77020309
v 0.33489876 1.57549728 1.85364025
v 0.37283563 2.04377689 1.65710022
v 0.37233674 2.02222888 1.85364025
v 0.37315667 2.02232057 1.65710022
v 0.33381198 2.04377689 1.75356182
v 0.33538991 1.57540559 1.65710022
v 0.33490264 1.57540559 1.85354404
v 0.37152843 1.57540559 1.85364025
v 0.33388160 2.04377689 1.72329976
v 0.33421032 2.04377689 1.65710022
v 0.37329978 2.00567817 1.65710022
v 0.37270414 1.57540559 1.85364025
v 0.37276214 1.57540559 1.85048511
v 0.37296712 1.57540559 1.83686432
v 0.37300581 1.57540559 1.83382464
v 0.37311798 1.57540559 1.82020380
v 0.37271577 1.57540559 1.65710022
v 0.33388935 2.04377689 1.72022157
v 0.33393185 2.04377689 1.70356111
v 0.37312573 1.57540559 1.81716412
v 0.37314117 1.57540559 1.80354333
v 0.37310636 1.57540559 1.78686356
f 1 2 6
f 1 6 13
f 1 13 17
f 1 17 8
f 1 8 3
f 1 3 4
f 1 4 7
f 1 7 15
f 1 15 24
f 1 24 23
f 1 23 14
f 1 14 10
f 1 10 5
f 1 5 2
f 2 5 6
f 3 7 4
f 3 8 9
f 3 9 7
f 5 10 6
f 6 11 12
f 6 12 13
f 6 10 14
f 6 14 11
f 7 9 16
f 7 16 22
f 7 22 11
f 7 11 15
f 8 16 9
f 8 17 18
f 8 18 19
f 8 19 20
f 8 20 21
f 8 21 16
f 11 22 27
f 11 27 26
f 11 26 25
f 11 25 21
f 11 21 20
f 11 20 19
f 11 19 18
f 11 18 17
f 11 17 13
f 11 13 12
f 11 14 23
f 11 23 24
f 11 24 15
f 16 21 25
f 16 25 26
f 16 26 27
f 16 27 22

