# https://github.com/mikedh/trimesh
v -1.80106481 2.10569297 0.20248165
v -1.80200669 2.08902833 0.20248165
v -1.80360220 2.11984794 0.20248165
v -1.80360220 2.11983926 0.20354232
v -1.80436145 2.11886663 0.42823127
v -1.80266032 2.10569297 0.42823127
v -1.80455373 2.07685333 0.20354232
v -1.80439030 2.07761753 0.20248165
v -1.80312166 2.09766026 0.42823127
v -1.80366943 2.08902833 0.42823127
v -1.80448638 2.08386134 0.42823127
v -1.80537068 2.07839040 0.42823127
v -1.81400138 2.12711645 0.20248165
v -1.81471265 2.12766357 0.22020398
v -1.81471265 2.12765487 0.23688769
v -1.81471265 2.12762015 0.25354935
v -1.81471265 2.12716858 0.38686449
v -1.80369828 2.11985661 0.22020398
v -1.80934002 2.12278313 0.42823127
v -1.80485164 2.07632359 0.20248165
v -1.80455373 2.07684466 0.20248165
v -1.82791828 2.04150067 0.42823127
v -1.81006083 2.06928086 0.32019586
v -1.81471265 2.12760277 0.20248165
v -1.83137830 2.12997351 0.27021095
v -1.83137830 2.13001693 0.28687260
v -1.83137830 2.13005168 0.30353420
v -1.83137830 2.13018191 0.38686449
v -1.83137830 2.13020799 0.42823127
v -1.82273788 2.12854933 0.42823127
v -1.81471265 2.12699489 0.42823127
v -1.80997434 2.06921139 0.30353420
v -1.80971482 2.06851666 0.20248165
v -1.86865016 2.04150067 0.42823127
v -1.82724552 2.04150067 0.20248165
v -1.83032109 2.12940037 0.20248165
v -1.84804395 2.12923536 0.25354935
v -1.83137830 2.12963483 0.22020398
v -1.84699633 2.12908774 0.20248165
v -1.84804395 2.12906170 0.20354232
v -1.84804395 2.12953064 0.40352608
v -1.84804395 2.12952194 0.42823127
v -1.89924231 2.06385334 0.42823127
v -1.89918467 2.06198629 0.20248165
v -1.86869826 2.04150067 0.42365706
v -1.86915954 2.04150067 0.20248165
v -1.83137830 2.12951326 0.20248165
v -1.83137830 2.12952194 0.20354232
v -1.89924231 2.11294414 0.20248165
v -1.84804395 2.12905299 0.20248165
v -1.89924231 2.11307441 0.42823127
v -1.89924231 2.11303099 0.28687260
v -1.89924231 2.06254205 0.20354232
v -1.89924231 2.06766562 0.20248165
v -1.86927488 2.04150067 0.23688769
v -1.86933258 2.04150067 0.33685746
v -1.86932298 2.04150067 0.34054779
v -1.86928454 2.04150067 0.35351912
v -1.86925569 2.04150067 0.35714311
v -1.86888083 2.04150067 0.40352608
v -1.86885198 2.04150067 0.40703963
f 1 2 8
f 1 8 21
f 1 21 20
f 1 20 33
f 1 33 35
f 1 35 46
f 1 46 44
f 1 44 54
f 1 54 49
f 1 49 50
f 1 50 39
f 1 39 47
f 1 47 36
f 1 36 24
f 1 24 13
f 1 13 3
f 1 3 4
f 1 4 5
f 1 5 6
f 1 6 2
f 2 7 8
f 2 6 9
f 2 9 10
f 2 10 11
f 2 11 12
f 2 12 7
f 3 13 14
f 3 14 15
f 3 15 16
f 3 16 17
f 3 17 18
f 3 18 4
f 4 18 5
f 5 19 31
f 5 31 30
f 5 30 29
f 5 29 42
f 5 42 51
f 5 51 43
f 5 43 34
f 5 34 22
f 5 22 12
f 5 12 11
f 5 11 10
f 5 10 9
f 5 9 6
f 5 18 19
f 7 20 21
f 7 21 8
f 7 12 20
f 12 22 23
f 12 23 20
f 13 24 14
f 14 24 25
f 14 25 26
f 14 26 27
f 14 27 28
f 14 28 29
f 14 29 15
f 15 29 16
f 16 29 17
f 17 29 30
f 17 30 31
f 17 31 18
f 18 31 19
f 20 32 22
f 20 22 33
f 20 23 32
f 22 34 45
f 22 45 61
f 22 61 60
f 22 60 59
f 22 59 58
f 22 58 57
f 22 57 56
f 22 56 55
f 22 55 46
f 22 46 35
f 22 35 33
f 22 32 23
f 24 36 25
f 25 37 26
f 25 36 38
f 25 38 39
f 25 39 40
f 25 40 37
f 26 37 27
f 27 37 41
f 27 41 28
f 28 41 29
f 29 41 42
f 34 43 44
f 34 44 45
f 36 47 48
f 36 48 38
f 37 40 49
f 37 49 41
f 38 48 39
f 39 48 47
f 39 50 40
f 40 50 49
f 41 51 42
f 41 49 52
f 41 52 51
f 43 51 52
f 43 52 49
f 43 49 54
f 43 54 53
f 43 53 44
f 44 53 54
f 44 46 55
f 44 55 56
f 44 56 57
f 44 57 58
f 44 58 59
f 44 59 60
f 44 60 61
f 44 61 45

