# https://github.com/mikedh/trimesh
v -3.73554102 1.48902572 0.07009814
v -3.73816120 1.47861101 0.07009814
v -3.73806845 1.47841801 0.05353125
v -3.73568788 1.48902572 0.05353125
v -3.73605887 1.50568616 0.03686065
v -3.73606661 1.50568616 0.05353125
v -3.73656897 1.50568616 0.07009814
v -3.74805452 1.47143884 0.07009814
v -3.74805452 1.47126125 0.05353125
v -3.74805452 1.47151603 0.03686065
v -3.73825394 1.47862645 0.03686065
v -3.73853218 1.47900473 0.02019798
v -3.73605112 1.48902572 0.03686065
v -3.73647622 1.50568616 0.02019798
v -3.73843175 1.51595418 0.02019798
v -3.73826169 1.51613175 0.03686065
v -3.73845493 1.51586925 0.05353125
v -3.73918146 1.51482699 0.07009814
v -3.74815501 1.47140022 0.07009814
v -3.76472631 1.46549419 0.07009814
v -3.76472631 1.46572581 0.02019798
v -3.74805452 1.47199469 0.02019798
v -3.73657671 1.48902572 0.02019798
v -3.73911959 1.47984627 0.00353537
v -3.73765110 1.48902572 0.00353537
v -3.73760472 1.50568616 0.00353537
v -3.73906553 1.51504318 0.00353537
v -3.74503242 1.52337338 0.00353537
v -3.74449913 1.52429211 0.02019798
v -3.74448363 1.52446967 0.03686065
v -3.75259929 1.53503107 0.07009814
v -3.74441407 1.52419948 0.05353125
v -3.74422858 1.52311091 0.07009814
v -3.77794315 1.46432843 0.07009814
v -3.77832188 1.46440562 0.02019798
v -3.78777465 1.46390380 0.00780477
v -3.78188501 1.46501553 0.00276128
v -3.76472631 1.46750148 0.00353537
v -3.74805452 1.47383986 0.00353537
v -3.73961431 1.48054108 -0.00492361
v -3.73908871 1.48902572 -0.00551418
v -3.73911190 1.50568616 -0.00549820
v -3.73963744 1.51416305 -0.00489965
v -3.75336444 1.53374950 0.00353537
v -3.75283115 1.53449066 0.02019798
v -3.75274609 1.53489982 0.05353125
v -3.76472631 1.54102976 0.07009814
v -3.78627517 1.46381887 0.07009814
v -3.78627517 1.46376483 0.05353125
v -3.78643753 1.46375712 0.03686065
v -3.78665390 1.46381115 0.02019798
v -3.79102087 1.46390380 0.00780477
v -3.79716556 1.46550191 0.00276128
v -3.79804670 1.47364686 -0.00788432
v -3.78138266 1.47342295 -0.00799602
v -3.76472631 1.47495930 -0.00793212
v -3.74805452 1.47803969 -0.00643985
v -3.74805452 1.48902572 -0.00861841
v -3.74805452 1.50568616 -0.00857061
v -3.74872698 1.52077165 -0.00690274
v -3.75473249 1.53229809 -0.00618450
v -3.76472631 1.53834309 0.00353537
v -3.76472631 1.53991804 0.02019798
v -3.76472631 1.54036582 0.03686065
v -3.76472631 1.54072867 0.05353125
v -3.78138266 1.54262786 0.07009814
v -3.79207981 1.46381887 0.07009814
v -3.79251260 1.46376483 0.05353125
v -3.79246623 1.46375712 0.03686065
v -3.79197157 1.46381115 0.02019798
v -3.80030359 1.46510818 0.02019798
v -3.80998054 1.47411777 0.00353537
v -3.80854286 1.47673497 -0.00675909
v -3.79804670 1.48902572 -0.01115616
v -3.78138266 1.48902572 -0.01123591
v -3.76472631 1.48902572 -0.01108428
v -3.76472631 1.50568616 -0.01102849
v -3.76472631 1.52235431 -0.01052578
v -3.76472631 1.53385760 -0.00744538
v -3.78138266 1.53967869 0.00353537
v -3.78138266 1.54131542 0.02019798
v -3.78138266 1.54186355 0.03686065
v -3.78138266 1.54227274 0.05353125
v -3.79804670 1.54059741 0.07009814
v -3.79804670 1.53990260 0.02019798
v -3.79804670 1.54021913 0.03686065
v -3.79804670 1.54045845 0.05353125
v -3.80036546 1.46502325 0.07009814
v -3.80084463 1.46500781 0.05353125
v -3.80079825 1.46503097 0.03686065
v -3.81035927 1.47343839 0.02019798
v -3.81372911 1.48902572 0.00353537
v -3.81439382 1.48902572 0.02019798
v -3.80972543 1.48902572 -0.00789230
v -3.79804670 1.50568616 -0.01142748
v -3.80993417 1.50568616 -0.00813168
v -3.78138266 1.52235431 -0.01127585
v -3.78138266 1.53452154 -0.00805979
v -3.79804670 1.53408147 -0.00798004
v -3.79804670 1.53860559 0.00353537
v -3.80988005 1.53469138 0.07009814
v -3.81018141 1.53469138 0.02019798
v -3.81012741 1.53470682 0.03686065
v -3.81003466 1.53469910 0.05353125
v -3.80988779 1.53420500 0.00353537
v -3.80047364 1.46508500 0.07009814
v -3.81027427 1.47336892 0.07009814
v -3.81033603 1.47333804 0.05353125
v -3.81035152 1.47336120 0.03686065
v -3.81399971 1.50568616 0.00353537
v -3.81437070 1.48902572 0.03686065
v -3.81450207 1.50568616 0.02019798
v -3.79804670 1.52235431 -0.01133176
v -3.80980280 1.52235431 -0.00802796
v -3.80851199 1.53272268 -0.00683085
v -3.80997279 1.53458329 0.07009814
v -3.81426245 1.52235431 0.02019798
v -3.81418520 1.52235431 0.03686065
v -3.81376010 1.52235431 0.00353537
v -3.81416971 1.48893307 0.07009814
v -3.81432432 1.48902572 0.05353125
v -3.81445569 1.50568616 0.03686065
v -3.81386822 1.52235431 0.07009814
v -3.81404609 1.52235431 0.05353125
v -3.81438607 1.50568616 0.05353125
v -3.81422383 1.50558578 0.07009814
v -3.81422383 1.50568616 0.07009814
f 1 2 3
f 1 3 4
f 1 4 5
f 1 5 6
f 1 6 7
f 1 7 18
f 1 18 33
f 1 33 31
f 1 31 47
f 1 47 66
f 1 66 84
f 1 84 101
f 1 101 116
f 1 116 123
f 1 123 127
f 1 127 126
f 1 126 120
f 1 120 107
f 1 107 106
f 1 106 88
f 1 88 67
f 1 67 48
f 1 48 34
f 1 34 20
f 1 20 19
f 1 19 8
f 1 8 2
f 2 8 3
f 3 8 9
f 3 9 10
f 3 10 11
f 3 11 4
f 4 11 12
f 4 12 13
f 4 13 5
f 5 13 14
f 5 14 15
f 5 15 16
f 5 16 6
f 6 17 7
f 6 16 17
f 7 17 18
f 8 19 9
f 9 19 20
f 9 20 21
f 9 21 10
f 10 21 22
f 10 22 11
f 11 22 12
f 12 23 13
f 12 22 24
f 12 24 23
f 13 23 14
f 14 23 25
f 14 25 26
f 14 26 27
f 14 27 15
f 15 27 28
f 15 28 29
f 15 29 16
f 16 29 30
f 16 30 31
f 16 31 32
f 16 32 17
f 17 32 31
f 17 31 33
f 17 33 18
f 20 34 35
f 20 35 21
f 21 35 36
f 21 36 37
f 21 37 38
f 21 38 22
f 22 38 39
f 22 39 24
f 23 24 25
f 24 39 40
f 24 40 25
f 25 40 41
f 25 41 26
f 26 41 42
f 26 42 43
f 26 43 27
f 27 43 28
f 28 43 44
f 28 44 29
f 29 44 45
f 29 45 31
f 29 31 30
f 31 46 47
f 31 45 46
f 34 48 49
f 34 49 50
f 34 50 35
f 35 50 51
f 35 51 36
f 36 51 70
f 36 70 52
f 36 52 37
f 37 53 54
f 37 54 55
f 37 55 56
f 37 56 38
f 37 52 53
f 38 56 57
f 38 57 40
f 38 40 39
f 40 57 58
f 40 58 41
f 41 58 42
f 42 58 59
f 42 59 43
f 43 59 60
f 43 60 61
f 43 61 44
f 44 61 62
f 44 62 63
f 44 63 45
f 45 63 64
f 45 64 65
f 45 65 47
f 45 47 46
f 47 65 66
f 48 67 68
f 48 68 49
f 49 68 69
f 49 69 50
f 50 69 70
f 50 70 51
f 52 70 71
f 52 71 53
f 53 71 72
f 53 72 73
f 53 73 54
f 54 73 74
f 54 74 55
f 55 74 75
f 55 75 76
f 55 76 56
f 56 76 57
f 57 76 58
f 58 76 59
f 59 76 77
f 59 77 78
f 59 78 60
f 60 78 61
f 61 78 79
f 61 79 62
f 62 79 80
f 62 80 81
f 62 81 63
f 63 81 82
f 63 82 64
f 64 82 83
f 64 83 65
f 65 83 66
f 66 83 85
f 66 85 86
f 66 86 87
f 66 87 84
f 67 88 68
f 68 88 89
f 68 89 69
f 69 89 90
f 69 90 70
f 70 90 71
f 71 91 72
f 71 90 91
f 72 92 73
f 72 91 93
f 72 93 92
f 73 92 94
f 73 94 74
f 74 95 75
f 74 94 96
f 74 96 95
f 75 95 76
f 76 95 97
f 76 97 77
f 77 97 78
f 78 97 98
f 78 98 79
f 79 98 80
f 80 98 99
f 80 99 100
f 80 100 81
f 81 100 85
f 81 85 82
f 82 85 83
f 84 87 102
f 84 102 103
f 84 103 104
f 84 104 101
f 85 100 105
f 85 105 102
f 85 102 86
f 86 102 87
f 88 106 89
f 89 106 107
f 89 107 108
f 89 108 109
f 89 109 90
f 90 109 91
f 91 109 93
f 92 93 110
f 92 110 96
f 92 96 94
f 93 109 108
f 93 108 111
f 93 111 112
f 93 112 110
f 95 113 97
f 95 96 113
f 96 110 114
f 96 114 113
f 97 113 98
f 98 113 99
f 99 113 115
f 99 115 100
f 100 115 105
f 101 104 116
f 102 105 117
f 102 117 103
f 103 118 104
f 103 117 118
f 104 118 116
f 105 115 119
f 105 119 117
f 107 120 121
f 107 121 108
f 108 121 111
f 110 112 117
f 110 117 119
f 110 119 114
f 111 121 112
f 112 121 122
f 112 122 117
f 113 114 115
f 114 119 115
f 116 118 124
f 116 124 123
f 117 122 125
f 117 125 118
f 118 125 124
f 120 126 125
f 120 125 121
f 121 125 122
f 123 124 127
f 124 125 127
f 125 126 127

