# https://github.com/mikedh/trimesh
v -3.31008425 2.03471761 0.18033226
v -3.31008425 1.98902826 0.18015011
v -3.31008425 2.03471761 0.13038305
v -3.34805003 2.03471761 0.18046518
v -3.34805003 1.98902826 0.18036672
v -3.33139410 1.98902826 0.18029781
v -3.31008425 1.97699574 0.18008121
v -3.33139410 1.97236646 0.18020429
v -3.31008425 1.94270846 0.13289845
v -3.31424827 2.03471761 0.13037811
v -3.35238547 2.03471761 0.18047013
v -3.36473047 1.98902826 0.18038645
v -3.34805003 1.97236646 0.18025841
v -3.31008425 1.97236646 0.18005170
v -3.31473810 1.97236646 0.18008616
v -3.33139410 1.95569566 0.18009104
v -3.31008425 1.94366314 0.17986460
v -3.31008425 1.94270846 0.17985477
v -3.34805003 1.94270846 0.13285416
v -3.46471520 1.94270846 0.13272619
v -3.48080780 2.03471761 0.13023041
v -3.38138646 2.03471761 0.18048980
v -3.38138646 1.98902826 0.18037655
v -3.38138646 1.97236646 0.18026831
v -3.36473047 1.97236646 0.18027320
v -3.34805003 1.95569566 0.18014522
v -3.31008425 1.95569566 0.17994340
v -3.31473810 1.94270846 0.17988922
v -3.31103954 1.94270846 0.17986460
v -3.33139410 1.94270846 0.17999263
v -3.46838931 1.94270846 0.13272619
v -3.56031549 2.03471761 0.13020585
v -3.38569740 2.03471761 0.18047502
v -3.39806690 2.03471761 0.18042090
v -3.39806690 1.98902826 0.18029781
v -3.56031549 1.94270846 0.17929359
v -3.39806690 1.97236646 0.18020429
v -3.38138646 1.95569566 0.18013044
v -3.36473047 1.95569566 0.18014522
v -3.39806690 1.95569566 0.18008121
v -3.34805003 1.94270846 0.18003692
v -3.48504525 1.94270846 0.13273108
v -3.56031549 1.94270846 0.13275570
v -3.56031549 2.03471761 0.17936744
v -3.56031549 1.98902826 0.17946096
v -3.56031549 1.97236646 0.17941178
v -3.56031549 1.95569566 0.17934777
v -3.56031549 1.94613990 0.17930837
v -3.39806690 1.94270846 0.17997291
v -3.38138646 1.94270846 0.18002214
v -3.36473047 1.94270846 0.18003692
f 1 2 7
f 1 7 14
f 1 14 27
f 1 27 17
f 1 17 18
f 1 18 9
f 1 9 3
f 1 3 10
f 1 10 21
f 1 21 32
f 1 32 44
f 1 44 34
f 1 34 33
f 1 33 22
f 1 22 11
f 1 11 4
f 1 4 5
f 1 5 6
f 1 6 2
f 2 6 8
f 2 8 7
f 3 9 10
f 4 11 12
f 4 12 5
f 5 12 13
f 5 13 8
f 5 8 6
f 7 8 15
f 7 15 14
f 8 13 26
f 8 26 16
f 8 16 17
f 8 17 15
f 9 18 29
f 9 29 28
f 9 28 30
f 9 30 41
f 9 41 51
f 9 51 50
f 9 50 49
f 9 49 36
f 9 36 43
f 9 43 42
f 9 42 31
f 9 31 20
f 9 20 19
f 9 19 10
f 10 19 20
f 10 20 21
f 11 22 12
f 12 22 23
f 12 23 24
f 12 24 25
f 12 25 26
f 12 26 13
f 14 15 27
f 15 17 27
f 16 28 29
f 16 29 17
f 16 26 30
f 16 30 28
f 17 29 18
f 20 31 32
f 20 32 21
f 22 33 23
f 23 33 34
f 23 34 35
f 23 35 36
f 23 36 37
f 23 37 24
f 24 38 39
f 24 39 25
f 24 37 40
f 24 40 38
f 25 39 26
f 26 39 51
f 26 51 41
f 26 41 30
f 31 42 32
f 32 43 36
f 32 36 48
f 32 48 47
f 32 47 46
f 32 46 45
f 32 45 44
f 32 42 43
f 34 44 45
f 34 45 35
f 35 45 46
f 35 46 47
f 35 47 48
f 35 48 36
f 36 49 40
f 36 40 37
f 38 50 51
f 38 51 39
f 38 40 49
f 38 49 50

