# https://github.com/mikedh/trimesh
v -2.08902433 -0.22695272 1.37523046
v -2.08904193 -0.22682687 1.37523046
v -2.0913272 -0.24399281 1.37523046
v -2.09124812 -0.24389214 1.24336235
v -2.08903316 -0.22691915000000001 1.24340109
v -2.09198642 -0.21108723000000001 1.37523046
v -2.0916260700000002 -0.21109561 1.32601554
v -2.09170515 -0.21109561 1.34269594
v -2.1001079000000002 -0.256754 1.37523046
v -2.09957172 -0.25703087 1.35937633
v -2.0994838099999997 -0.25690502 1.35919559
v -2.09933441 -0.25729096 1.34269594
v -2.09138875 -0.24442071 1.32601554
v -2.09136233 -0.24442071 1.30933514
v -2.09135356 -0.24442071 1.29268057
v -2.09129201 -0.24402637 1.24336235
v -2.08904193 -0.22688561000000002 1.24336235
v -2.09179306 -0.21109561 1.24336235
v -2.09166996 -0.21109561 1.29268057
v -2.09163483 -0.21109561 1.30933514
v -2.09964204 -0.19973555 1.35919559
v -2.09976508 -0.19976912000000002 1.37523046
v -2.09952777 -0.19969359 1.34269594
v -2.09954536 -0.19946707000000002 1.24336235
v -2.0994750399999997 -0.19966842 1.32601554
v -2.11679029 -0.27468343 1.37523046
v -2.11628931 -0.27502743 1.34269594
v -2.09927286 -0.25729936 1.32601554
v -2.09925533 -0.25724063 1.29268057
v -2.10007271 -0.25696376 1.24336235
v -2.09936954 -0.25722384 1.27601306
v -2.09957172 -0.25712316 1.25933267
v -2.09922014 -0.19995368000000002 1.24336235
v -2.11271196 -0.19670674999999999 1.37523046
v -2.1133799399999997 -0.196002 1.24336235
v -2.1133799399999997 -0.19640473 1.34269594
v -2.1300624 -0.28056483 1.37523046
v -2.1300624 -0.28081653 1.34269594
v -2.1163244299999997 -0.2749687 1.27601306
v -2.11690457 -0.27433945 1.24336235
v -2.1133887700000002 -0.19654736 1.37523046
v -2.11409194 -0.19597683 1.24336235
v -2.1300624 -0.19607750000000002 1.37523046
v -2.13087101 -0.28059 1.37523046
v -2.14671843 -0.28105984 1.32601554
v -2.14671843 -0.2810095 1.24336235
v -2.1300624 -0.28079136 1.32601554
v -2.14671843 -0.28105144 1.37523046
v -2.1300624 -0.28071586 1.27601306
v -2.1300624 -0.2801705 1.24336235
v -2.12949103 -0.27992719 1.24336235
v -2.1166408299999997 -0.27466666 1.25933267
v -2.13077434 -0.19564123 1.24336235
v -2.1300624 -0.19588454 1.32601554
v -2.14671843 -0.19569157 1.37523046
v -2.16340083 -0.27976778 1.30933514
v -2.14600649 -0.28098433 1.24336235
v -2.16340083 -0.27970066 1.24336235
v -2.16339206 -0.27970905 1.37523046
v -2.16340083 -0.27975939 1.32601554
v -2.14671843 -0.19534758000000002 1.24336235
v -2.14671843 -0.19559927 1.34269594
v -2.16339206 -0.19638794 1.37523046
v -2.16340083 -0.196002 1.24336235
v -2.17449316 -0.27419682 1.24336235
v -2.1750644599999998 -0.27398706 1.37523046
v -2.17396575 -0.19981105 1.37523046
v -2.17470405 -0.1997775 1.24336235
v -2.1749765500000002 -0.27395351 1.24336235
v -2.17849235 -0.26110003 1.37523046
v -2.17451069 -0.19999564 1.37523046
v -2.17454588 -0.19997884999999999 1.35919559
v -2.17810557 -0.210609 1.24336235
v -2.17809681 -0.21108723000000001 1.37523046
v -2.17838684 -0.26110003 1.24336235
v -2.17880875 -0.22776655 1.37523046
v -2.17860662 -0.24372434 1.24336235
v -2.17859779 -0.24442071 1.24336235
v -2.17825504 -0.21109561 1.24336235
v -2.1781319999999997 -0.21190106 1.37523046
v -2.1787472599999997 -0.22777493000000001 1.24336235
f 1 2 6
f 1 6 22
f 1 22 34
f 1 34 41
f 1 41 43
f 1 43 55
f 1 55 63
f 1 63 67
f 1 67 71
f 1 71 74
f 1 74 80
f 1 80 76
f 1 76 70
f 1 70 66
f 1 66 59
f 1 59 48
f 1 48 44
f 1 44 37
f 1 37 26
f 1 26 9
f 1 9 3
f 1 3 4
f 1 4 5
f 1 5 2
f 2 5 7
f 2 7 8
f 2 8 6
f 3 9 10
f 3 10 11
f 3 11 12
f 3 12 13
f 3 13 14
f 3 14 15
f 3 15 4
f 4 15 16
f 4 16 30
f 4 30 40
f 4 40 51
f 4 51 50
f 4 50 57
f 4 57 46
f 4 46 58
f 4 58 65
f 4 65 69
f 4 69 75
f 4 75 78
f 4 78 77
f 4 77 81
f 4 81 79
f 4 79 73
f 4 73 68
f 4 68 64
f 4 64 61
f 4 61 53
f 4 53 42
f 4 42 35
f 4 35 24
f 4 24 33
f 4 33 18
f 4 18 17
f 4 17 5
f 5 17 18
f 5 18 19
f 5 19 20
f 5 20 7
f 6 21 22
f 6 8 23
f 6 23 21
f 7 20 24
f 7 24 25
f 7 25 23
f 7 23 8
f 9 26 10
f 10 26 12
f 10 12 11
f 12 27 28
f 12 28 13
f 12 26 27
f 13 28 14
f 14 28 15
f 15 29 16
f 15 28 29
f 16 29 31
f 16 31 32
f 16 32 30
f 18 33 19
f 19 33 20
f 20 33 24
f 21 23 22
f 22 23 35
f 22 35 36
f 22 36 34
f 23 25 35
f 24 35 25
f 26 37 27
f 27 38 39
f 27 39 29
f 27 29 28
f 27 37 38
f 29 39 31
f 30 32 40
f 31 39 32
f 32 39 40
f 34 36 41
f 35 42 36
f 36 42 43
f 36 43 41
f 37 44 38
f 38 45 46
f 38 46 47
f 38 47 39
f 38 44 48
f 38 48 45
f 39 47 49
f 39 49 50
f 39 50 51
f 39 51 52
f 39 52 40
f 40 52 51
f 42 53 54
f 42 54 43
f 43 54 55
f 45 56 46
f 45 48 56
f 46 57 49
f 46 49 47
f 46 56 58
f 48 59 60
f 48 60 56
f 49 57 50
f 53 61 62
f 53 62 54
f 54 62 55
f 55 62 64
f 55 64 63
f 56 65 58
f 56 60 66
f 56 66 65
f 59 66 60
f 61 64 62
f 63 64 67
f 64 68 67
f 65 66 69
f 66 70 69
f 67 68 71
f 68 72 71
f 68 73 74
f 68 74 72
f 69 70 75
f 70 76 77
f 70 77 78
f 70 78 75
f 71 72 74
f 73 79 74
f 74 79 80
f 76 80 79
f 76 79 81
f 76 81 77

