# https://github.com/mikedh/trimesh
v -2.83676386 2.04971777 1.54748872
v -2.83608037 2.04977639 1.54748872
v -2.83512349 2.02760010 1.54748872
v -3.28130428 2.04973732 1.55090952
v -2.81580357 2.04977639 1.54748872
v -3.27857031 2.04977639 1.55126214
v -2.81580357 2.02760010 1.54748872
v -3.07033440 2.02760010 1.55542497
v -3.28130428 2.02760228 1.55529342
v -3.28130428 2.04977639 1.59962693
v -2.81580357 2.04977639 1.60121106
v -2.81580357 2.02760010 1.60073213
v -3.07033440 2.02760010 1.59985325
v -3.28130428 2.02760228 1.60011641
v -3.28130428 2.04977639 1.60064266
v -2.88141840 2.04977639 1.60125314
v -2.88141840 2.02760010 1.60071109
v -2.89809549 2.02760010 1.60066370
v -3.27059631 2.04977639 1.60066370
f 1 2 5
f 1 5 7
f 1 7 3
f 1 3 4
f 1 4 2
f 2 4 6
f 2 6 10
f 2 10 15
f 2 15 19
f 2 19 16
f 2 16 11
f 2 11 5
f 3 7 12
f 3 12 17
f 3 17 18
f 3 18 13
f 3 13 8
f 3 8 9
f 3 9 4
f 4 9 14
f 4 14 15
f 4 15 10
f 4 10 6
f 5 11 12
f 5 12 7
f 8 13 14
f 8 14 9
f 11 16 12
f 12 16 17
f 13 18 14
f 14 19 15
f 14 18 17
f 14 17 16
f 14 16 19

