# https://github.com/mikedh/trimesh
v 0.56339684 2.06406765 0.60364574
v 0.56339684 2.06413179 0.78326084
v 0.56339684 2.11055100 0.60364574
v 0.69230901 2.06345068 0.60364574
v 0.70898951 2.06326313 0.78326084
v 0.56339684 2.11257460 0.78326084
v 0.72547402 2.11321622 0.78326084
v 0.74222794 2.11124692 0.60364574
v 0.72562094 2.06329275 0.60364574
v 0.80537361 2.06292752 0.78326084
v 0.74225244 2.11324584 0.78326084
v 0.79222031 2.11142460 0.60364574
v 0.77553982 2.11137030 0.60364574
v 0.81362809 2.06323354 0.60364574
v 0.80897424 2.06291766 0.78326084
v 0.79229374 2.11331000 0.78326084
v 0.81340767 2.11333468 0.78326084
v 0.80890074 2.11143942 0.60364574
v 0.81362809 2.11143447 0.60364574
v 0.81362809 2.06299661 0.78326084
v 0.81362809 2.11333468 0.78326084
f 1 2 6
f 1 6 3
f 1 3 8
f 1 8 13
f 1 13 12
f 1 12 18
f 1 18 19
f 1 19 14
f 1 14 9
f 1 9 4
f 1 4 5
f 1 5 2
f 2 5 10
f 2 10 15
f 2 15 20
f 2 20 21
f 2 21 17
f 2 17 16
f 2 16 11
f 2 11 7
f 2 7 6
f 3 6 7
f 3 7 8
f 4 9 5
f 5 9 10
f 7 11 12
f 7 12 13
f 7 13 8
f 9 14 15
f 9 15 10
f 11 16 12
f 12 16 17
f 12 17 18
f 14 19 21
f 14 21 20
f 14 20 15
f 17 21 18
f 18 21 19

