# https://github.com/mikedh/trimesh
v -2.55609318 1.50569361 0.80840741
v -2.55609318 1.49908778 0.80923838
v -2.55609318 1.51374394 0.80858422
v -2.49803273 1.50569361 0.80841625
v -2.49803273 1.49285187 0.80998979
v -2.55609318 1.49291353 0.81001632
v -2.55609318 1.52236677 0.80877871
v -2.48135772 1.50569361 0.80842510
v -2.55609318 1.48562948 0.82020896
v -2.55609318 1.48914380 0.81528502
v -2.48135772 1.49286069 0.80999863
v -2.46470283 1.49285187 0.81002515
v -2.44804796 1.48552377 0.82020896
v -2.55609318 1.53670586 0.81039643
v -2.54803761 1.53677631 0.81039643
v -2.53136260 1.53678513 0.81041412
v -2.48135772 1.53657374 0.81044065
v -2.54803761 1.52236677 0.80878754
v -2.48135772 1.52236677 0.80886710
v -2.46470283 1.50569361 0.80846930
v -2.44804796 1.49285187 0.81004284
v -2.55609318 1.48422024 0.82882807
v -2.38138819 1.48240583 0.83687257
v -2.39804305 1.48242344 0.83687257
v -2.43139307 1.48555903 0.82020896
v -2.35035413 1.48238822 0.83687257
v -2.55609318 1.54503803 0.81387945
v -2.54803761 1.54511727 0.81377336
v -2.53136260 1.54512609 0.81373800
v -2.49803273 1.53669703 0.81044948
v -2.49803273 1.54502920 0.81384408
v -2.46470283 1.53639758 0.81046716
v -2.46470283 1.52236677 0.80892014
v -2.44804796 1.50569361 0.80860189
v -2.43139307 1.49295754 0.81014007
v -2.55609318 1.48291667 0.83687257
v -2.38138819 1.48271411 0.85354501
v -2.39804305 1.48274933 0.85354501
v -2.55609318 1.48319852 0.85354501
v -2.35035413 1.48673045 0.82020896
v -2.35035413 1.48297834 0.83456530
v -2.35035413 1.48271411 0.85354501
v -2.55609318 1.57236858 0.83754441
v -2.54803761 1.57236858 0.83752673
v -2.53138275 1.57236858 0.83750021
v -2.35035413 1.57235097 0.83745601
v -2.48135772 1.54490591 0.81407392
v -2.44804796 1.53575462 0.81056440
v -2.44804796 1.52236677 0.80912346
v -2.35035413 1.50569361 0.80982183
v -2.35035413 1.49427872 0.81073235
v -2.35035413 1.48777858 0.81889179
v -2.35035413 1.48333066 0.86788367
v -2.55609318 1.48389435 0.87019977
v -2.55609318 1.57236858 0.89822293
v -2.51470774 1.57236858 0.83751790
v -2.36473330 1.57236858 0.83788034
v -2.35035413 1.57236858 0.89027566
v -2.35035413 1.53220507 0.81137770
v -2.46470283 1.54472975 0.81441869
v -2.49805288 1.57236858 0.83753557
v -2.48137784 1.57236858 0.83757093
v -2.35035413 1.52236677 0.81045832
v -2.35035413 1.48344516 0.87019977
v -2.55609318 1.48688018 0.87881888
v -2.35035413 1.48808685 0.88455611
v -2.35035413 1.48885314 0.88686338
v -2.55609318 1.56430064 0.89824060
v -2.35035413 1.57235097 0.89870029
v -2.36471318 1.57236858 0.89866493
v -2.55609318 1.48968987 0.88686338
v -2.35035413 1.49554706 0.89636650
v -2.38138819 1.49560872 0.89632230
v -2.55609318 1.55568663 0.89824944
v -2.35035413 1.57004333 0.89870029
v -2.55609318 1.49302803 0.89159284
v -2.35035413 1.50569361 0.89794004
v -2.38138819 1.50569361 0.89790468
v -2.55609318 1.49616359 0.89600405
v -2.55609318 1.53902229 0.89821408
v -2.38138819 1.55568663 0.89862073
v -2.36471318 1.55568663 0.89865609
v -2.35035413 1.55568663 0.89868261
v -2.35035413 1.52236677 0.89841740
v -2.36471318 1.52236677 0.89844393
v -2.38138819 1.52236677 0.89842624
v -2.39804305 1.52236677 0.89839972
v -2.55609318 1.52236677 0.89814336
v -2.55609318 1.50569361 0.89745383
v -2.35035413 1.53902229 0.89857653
v -2.38138819 1.53902229 0.89854117
v -2.35035413 1.53670586 0.89855885
f 1 2 6
f 1 6 10
f 1 10 9
f 1 9 22
f 1 22 36
f 1 36 39
f 1 39 54
f 1 54 65
f 1 65 71
f 1 71 76
f 1 76 79
f 1 79 89
f 1 89 88
f 1 88 80
f 1 80 74
f 1 74 68
f 1 68 55
f 1 55 43
f 1 43 27
f 1 27 14
f 1 14 7
f 1 7 3
f 1 3 4
f 1 4 5
f 1 5 2
f 2 5 6
f 3 7 4
f 4 8 5
f 4 7 8
f 5 9 10
f 5 10 6
f 5 8 11
f 5 11 12
f 5 12 13
f 5 13 9
f 7 14 15
f 7 15 16
f 7 16 17
f 7 17 18
f 7 18 8
f 8 18 19
f 8 19 20
f 8 20 21
f 8 21 11
f 9 13 23
f 9 23 24
f 9 24 22
f 11 21 12
f 12 21 13
f 13 21 25
f 13 25 26
f 13 26 23
f 14 27 28
f 14 28 15
f 15 28 29
f 15 29 16
f 16 29 30
f 16 30 17
f 17 31 32
f 17 32 19
f 17 19 18
f 17 30 29
f 17 29 31
f 19 32 33
f 19 33 20
f 20 33 34
f 20 34 35
f 20 35 21
f 21 35 25
f 22 24 36
f 23 26 37
f 23 37 24
f 24 37 38
f 24 38 39
f 24 39 36
f 25 35 40
f 25 40 41
f 25 41 26
f 26 41 40
f 26 40 52
f 26 52 51
f 26 51 50
f 26 50 63
f 26 63 59
f 26 59 46
f 26 46 58
f 26 58 69
f 26 69 75
f 26 75 83
f 26 83 90
f 26 90 92
f 26 92 84
f 26 84 77
f 26 77 72
f 26 72 67
f 26 67 66
f 26 66 64
f 26 64 53
f 26 53 42
f 26 42 37
f 27 43 28
f 28 43 29
f 29 43 44
f 29 44 45
f 29 45 46
f 29 46 31
f 31 47 32
f 31 46 47
f 32 47 48
f 32 48 33
f 33 48 49
f 33 49 34
f 34 49 50
f 34 50 51
f 34 51 35
f 35 51 52
f 35 52 40
f 37 42 53
f 37 53 38
f 38 53 54
f 38 54 39
f 43 55 70
f 43 70 58
f 43 58 57
f 43 57 62
f 43 62 61
f 43 61 56
f 43 56 45
f 43 45 44
f 45 56 46
f 46 57 58
f 46 59 60
f 46 60 47
f 46 56 61
f 46 61 62
f 46 62 57
f 47 60 59
f 47 59 48
f 48 59 49
f 49 59 63
f 49 63 50
f 53 64 54
f 54 64 66
f 54 66 67
f 54 67 65
f 55 68 69
f 55 69 70
f 58 70 69
f 65 67 71
f 67 72 73
f 67 73 71
f 68 74 69
f 69 74 75
f 71 73 76
f 72 77 78
f 72 78 73
f 73 78 79
f 73 79 76
f 74 80 81
f 74 81 75
f 75 81 82
f 75 82 83
f 77 84 85
f 77 85 86
f 77 86 78
f 78 86 87
f 78 87 88
f 78 88 89
f 78 89 79
f 80 88 82
f 80 82 81
f 82 88 83
f 83 88 91
f 83 91 90
f 84 92 85
f 85 92 90
f 85 90 86
f 86 90 91
f 86 91 87
f 87 91 88

