# https://github.com/mikedh/trimesh
v -1.91308005 1.54719519 0.12853088
v -1.91308005 1.56581162 0.13109599
v -1.91308005 1.54719519 0.18103537
v -2.04822465 1.54719519 0.12884447
v -2.04823788 1.56581162 0.13109599
v -2.04149058 1.56581162 0.13109086
v -2.03136964 1.56581162 0.13109086
v -1.91308005 1.56581162 0.18094799
v -2.04823788 1.54719519 0.18042877
v -1.91308005 1.55569334 0.18100968
v -2.04823788 1.54719519 0.15588320
v -2.04823788 1.55569334 0.13033519
v -2.04823788 1.55589197 0.13034544
v -2.04823788 1.56581162 0.18032082
v -2.04802623 1.55569334 0.18040308
v -2.04823788 1.55569334 0.18039795
f 1 2 8
f 1 8 10
f 1 10 3
f 1 3 9
f 1 9 11
f 1 11 4
f 1 4 5
f 1 5 6
f 1 6 7
f 1 7 2
f 2 7 6
f 2 6 5
f 2 5 14
f 2 14 8
f 3 10 9
f 4 11 12
f 4 12 13
f 4 13 5
f 5 13 12
f 5 12 11
f 5 11 9
f 5 9 16
f 5 16 14
f 8 14 15
f 8 15 10
f 9 15 16
f 9 10 15
f 14 16 15

