# https://github.com/mikedh/trimesh
v -2.2729455549999997 -0.22784418 1.3763026
v -2.272934045 -0.22695161 1.3763026
v -2.2716153749999997 -0.24381096000000002 1.3763026
v -2.2981263050000003 -0.27777761 1.3928381
v -2.2981263050000003 -0.26109677 1.39219949
v -2.2692532749999996 -0.21109391 1.3763026
v -2.2981263050000003 -0.24444568 1.39234773
v -2.2709961749999996 -0.24530848 1.3763026
v -2.2981263050000003 -0.29445845 1.39477674
v -2.2981263050000003 -0.27793629000000003 1.39284949
v -2.261490365 -0.20034359000000002 1.3763026
v -2.2981263050000003 -0.23215818 1.39688644
v -2.262361785 -0.25661417000000003 1.3763026
v -2.2981263050000003 -0.29459729 1.39481095
v -2.244599935 -0.27590325 1.3763026
v -2.2614215349999998 -0.20027417 1.39274688
v -2.248234895 -0.19759651 1.40943062
v -2.248234895 -0.197656 1.39274688
v -2.248234895 -0.19775519000000003 1.3763026
v -2.2981263050000003 -0.22777475 1.40927096
v -2.2981263050000003 -0.22773508 1.40943062
v -2.2981263050000003 -0.22721939000000002 1.42609154
v -2.2981263050000003 -0.22714997 1.44259281
v -2.2981263050000003 -0.29816750000000003 1.39613379
v -2.231585305 -0.2831726 1.3763026
v -2.2614215349999998 -0.20027417 1.40943062
v -2.261432985 -0.20038325 1.49278086
v -2.248246355 -0.19775519000000003 1.49278086
v -2.231585305 -0.19727916 1.49278086
v -2.214912815 -0.19686262 1.49278086
v -2.214912815 -0.19693205000000003 1.44275247
v -2.231585305 -0.19729899 1.40943062
v -2.2318031749999996 -0.19744773 1.3763026
v -2.2981263050000003 -0.22714997 1.44275247
v -2.294090015 -0.29816750000000003 1.39564342
v -2.2981263050000003 -0.29816750000000003 1.47609713
v -2.214912815 -0.28338087 1.3763026
v -2.231585305 -0.29815759000000003 1.38963363
v -2.248234895 -0.29815759000000003 1.39078543
v -2.2689780949999996 -0.21109391 1.49278086
v -2.2981263050000003 -0.22751691000000002 1.4594362
v -2.2981263050000003 -0.23201934000000002 1.47161544
v -2.1982403149999996 -0.19698164 1.49278086
v -2.1982403149999996 -0.19700147 1.47610852
v -2.1982403149999996 -0.19709072 1.44275247
v -2.214912815 -0.19698164 1.42610293
v -2.214912815 -0.19705106 1.40943062
v -2.215142135 -0.19724940000000002 1.3763026
v -2.282176185 -0.29816750000000003 1.3952101
v -2.2852721650000003 -0.29816750000000003 1.47607431
v -2.235289035 -0.29815759000000003 1.4769296
v -2.214912815 -0.2818536 1.49278086
v -2.231585305 -0.2808123 1.49278086
v -2.244210125 -0.27459417 1.49278086
v -2.260641785 -0.25575137000000003 1.49278086
v -2.269471145 -0.24326551000000002 1.49278086
v -2.2722575349999996 -0.22827061 1.49278086
v -2.2981263050000003 -0.29445845 1.47610852
v -2.198251765 -0.281447 1.3763026
v -2.228615465 -0.29815759000000003 1.39069417
v -2.2721658049999998 -0.22767558 1.49278086
v -2.2981263050000003 -0.24430684 1.47577781
v -2.2981263050000003 -0.24443575 1.47581201
v -2.186773615 -0.20000641000000002 1.49278086
v -2.186785125 -0.20001631 1.47610852
v -2.186808025 -0.20006590000000002 1.44275247
v -2.186899755 -0.20015515 1.40943062
v -2.1982403149999996 -0.19716014 1.42610293
v -2.1982403149999996 -0.19724940000000002 1.40943062
v -2.214912815 -0.19724940000000002 1.3763026
v -2.282176185 -0.29816750000000003 1.47606292
v -2.215635185 -0.29815759000000003 1.39635047
v -2.213961055 -0.29815759000000003 1.4000567
v -2.2105554749999996 -0.29815759000000003 1.40827882
v -2.210349055 -0.29815759000000003 1.41314824
v -2.231585305 -0.29815759000000003 1.47687258
v -2.1982403149999996 -0.28097097 1.49278086
v -2.2981263050000003 -0.26094801 1.47618835
v -2.185741645 -0.27480243 1.3763026
v -2.182508065 -0.21109391 1.49278086
v -2.1824851049999996 -0.21109391 1.47610852
v -2.182496555 -0.21109391 1.45942478
v -2.186785125 -0.20004607000000002 1.45942478
v -2.186842445 -0.20011549 1.42610293
v -2.182519515 -0.21109391 1.44275247
v -2.1825539349999996 -0.21109391 1.42610293
v -2.186980035 -0.20022457999999999 1.39274688
v -2.182622695 -0.21109391 1.40943062
v -2.187060315 -0.20031383000000003 1.3763026
v -2.1982403149999996 -0.19749733000000003 1.3763026
v -2.211392545 -0.29815759000000003 1.44275247
v -2.212344295 -0.29815759000000003 1.45942478
v -2.218261075 -0.29815759000000003 1.47217422
v -2.185500815 -0.27489169 1.42610293
v -2.1854320449999998 -0.27491152 1.44275247
v -2.1854550049999997 -0.27488177 1.45942478
v -2.185500815 -0.27482226 1.47610852
v -2.185604045 -0.27475284 1.49278086
v -2.181487485 -0.26109677 1.3763026
v -2.181086155 -0.26109677 1.42610293
v -2.180982975 -0.26109677 1.44275247
v -2.1813040249999998 -0.22777475 1.49278086
v -2.181246715 -0.22777475 1.47610852
v -2.181246715 -0.22777475 1.45942478
v -2.1812696149999997 -0.22777475 1.44275247
v -2.1812925749999996 -0.22777475 1.42610293
v -2.181384305 -0.22777475 1.39274688
v -2.1814416249999997 -0.22777475 1.3763026
v -2.187002995 -0.20045267 1.3763026
v -2.182737385 -0.21109391 1.39274688
v -2.1809944349999997 -0.26109677 1.45942478
v -2.181086155 -0.26109677 1.47610852
v -2.1812352649999998 -0.26110668 1.49278086
v -2.1813957549999996 -0.2446837 1.3763026
v -2.1813957549999996 -0.2444556 1.3763026
v -2.181109125 -0.2444556 1.44275247
v -2.181086155 -0.2444556 1.45942478
v -2.181212305 -0.2444556 1.49278086
v -2.1811205749999996 -0.2444556 1.47610852
v -2.182852015 -0.21109391 1.3763026
f 1 2 6
f 1 6 11
f 1 11 19
f 1 19 33
f 1 33 48
f 1 48 70
f 1 70 90
f 1 90 89
f 1 89 109
f 1 109 120
f 1 120 108
f 1 108 115
f 1 115 114
f 1 114 99
f 1 99 79
f 1 79 59
f 1 59 37
f 1 37 25
f 1 25 15
f 1 15 13
f 1 13 8
f 1 8 3
f 1 3 4
f 1 4 5
f 1 5 2
f 2 5 7
f 2 7 6
f 3 8 9
f 3 9 10
f 3 10 4
f 4 10 9
f 4 9 14
f 4 14 24
f 4 24 36
f 4 36 58
f 4 58 78
f 4 78 63
f 4 63 62
f 4 62 42
f 4 42 41
f 4 41 34
f 4 34 23
f 4 23 22
f 4 22 21
f 4 21 20
f 4 20 12
f 4 12 7
f 4 7 5
f 6 7 12
f 6 12 11
f 8 13 9
f 9 13 15
f 9 15 14
f 11 16 17
f 11 17 18
f 11 18 19
f 11 12 20
f 11 20 21
f 11 21 22
f 11 22 23
f 11 23 16
f 14 15 24
f 15 25 24
f 16 26 17
f 16 23 34
f 16 34 26
f 17 26 27
f 17 27 28
f 17 28 29
f 17 29 30
f 17 30 31
f 17 31 32
f 17 32 18
f 18 32 33
f 18 33 19
f 24 25 35
f 24 35 49
f 24 49 71
f 24 71 50
f 24 50 36
f 25 37 38
f 25 38 39
f 25 39 35
f 26 34 27
f 27 40 61
f 27 61 57
f 27 57 56
f 27 56 55
f 27 55 54
f 27 54 53
f 27 53 52
f 27 52 77
f 27 77 98
f 27 98 113
f 27 113 118
f 27 118 102
f 27 102 80
f 27 80 64
f 27 64 43
f 27 43 30
f 27 30 29
f 27 29 28
f 27 34 41
f 27 41 42
f 27 42 40
f 30 43 44
f 30 44 31
f 31 44 45
f 31 45 46
f 31 46 32
f 32 46 47
f 32 47 33
f 33 47 48
f 35 39 38
f 35 38 49
f 36 50 51
f 36 51 52
f 36 52 53
f 36 53 54
f 36 54 55
f 36 55 56
f 36 56 57
f 36 57 58
f 37 59 38
f 38 59 60
f 38 60 49
f 40 42 62
f 40 62 63
f 40 63 61
f 43 64 65
f 43 65 44
f 44 65 66
f 44 66 45
f 45 66 67
f 45 67 68
f 45 68 47
f 45 47 46
f 47 68 69
f 47 69 70
f 47 70 48
f 49 60 72
f 49 72 73
f 49 73 74
f 49 74 75
f 49 75 71
f 50 71 51
f 51 76 52
f 51 71 76
f 52 76 77
f 57 78 58
f 57 61 63
f 57 63 78
f 59 72 60
f 59 79 72
f 64 80 81
f 64 81 82
f 64 82 83
f 64 83 65
f 65 83 66
f 66 84 67
f 66 83 85
f 66 85 86
f 66 86 84
f 67 87 69
f 67 69 68
f 67 84 88
f 67 88 87
f 69 87 89
f 69 89 90
f 69 90 70
f 71 75 91
f 71 91 92
f 71 92 93
f 71 93 76
f 72 79 73
f 73 79 74
f 74 79 75
f 75 79 94
f 75 94 95
f 75 95 96
f 75 96 97
f 75 97 98
f 75 98 91
f 76 93 77
f 77 93 98
f 79 99 100
f 79 100 101
f 79 101 94
f 80 102 103
f 80 103 81
f 81 103 104
f 81 104 82
f 82 85 83
f 82 104 105
f 82 105 85
f 84 86 88
f 85 105 106
f 85 106 86
f 86 106 107
f 86 107 108
f 86 108 88
f 87 88 109
f 87 109 89
f 88 110 109
f 88 108 110
f 91 98 92
f 92 98 93
f 94 101 95
f 95 101 111
f 95 111 96
f 96 111 97
f 97 111 112
f 97 112 98
f 98 112 113
f 99 114 100
f 100 114 115
f 100 115 101
f 101 115 108
f 101 108 107
f 101 107 116
f 101 116 117
f 101 117 111
f 102 118 119
f 102 119 103
f 103 119 117
f 103 117 104
f 104 117 116
f 104 116 105
f 105 116 106
f 106 116 107
f 108 120 110
f 109 110 120
f 111 117 119
f 111 119 112
f 112 118 113
f 112 119 118

