# https://github.com/mikedh/trimesh
v 2.29347359 2.03750358 1.43900729
v 2.29347758 2.03750358 1.40353160
v 2.25384584 2.03750358 1.43900729
v 2.29321151 1.57241987 1.43900729
v 2.29323934 1.57241987 1.42013416
v 2.29326312 1.57241987 1.40347712
v 2.29345374 2.03750358 1.27022078
v 2.25345268 2.03750358 1.30355301
v 2.25332567 2.02234375 1.43900729
v 2.25417546 1.57241987 1.43900729
v 2.29310827 1.57241987 1.25349106
v 2.29310827 1.57246539 1.25343658
v 2.29344182 2.03750358 1.25343658
v 2.25344875 2.03750358 1.30202718
v 2.25324222 2.02234375 1.38687456
v 2.25309929 2.00568159 1.40353160
v 2.25316282 2.00568159 1.43900729
v 2.25417546 1.57241987 1.43686386
v 2.25292059 2.00568159 1.27022078
v 2.25290867 2.00568159 1.25343658
v 2.25444946 1.57241987 1.25343658
v 2.25345268 2.03750358 1.25343658
v 2.25344875 2.03750358 1.26869495
v 2.25305959 2.02234375 1.25343658
v 2.25306352 2.02234375 1.27022078
v 2.25419930 1.57241987 1.25343658
v 2.25344875 2.03736701 1.25343658
f 1 2 7
f 1 7 13
f 1 13 22
f 1 22 23
f 1 23 14
f 1 14 8
f 1 8 3
f 1 3 9
f 1 9 17
f 1 17 10
f 1 10 4
f 1 4 5
f 1 5 6
f 1 6 2
f 2 6 7
f 3 8 9
f 4 10 18
f 4 18 26
f 4 26 21
f 4 21 11
f 4 11 6
f 4 6 5
f 6 11 12
f 6 12 13
f 6 13 7
f 8 14 9
f 9 15 16
f 9 16 17
f 9 14 15
f 10 17 16
f 10 16 19
f 10 19 20
f 10 20 18
f 11 21 12
f 12 21 26
f 12 26 20
f 12 20 24
f 12 24 27
f 12 27 22
f 12 22 13
f 14 23 24
f 14 24 25
f 14 25 15
f 15 25 16
f 16 25 19
f 18 20 26
f 19 25 20
f 20 25 24
f 22 27 23
f 23 27 24

