# https://github.com/mikedh/trimesh
v -1.63222832 2.07130810 0.92488796
v -1.63222832 2.07131397 0.93872536
v -1.63222832 2.07132565 0.90822315
v -1.60286850 2.07497057 0.85815383
v -1.63222832 2.07137247 1.04944335
v -1.63222832 2.07139003 0.89155834
v -1.63222832 2.07161235 0.87489354
v -1.63222832 2.07184052 0.85815383
v -1.60286850 2.12423234 0.85815383
v -1.60286850 2.07509344 1.04944335
v -1.63222832 2.13107164 1.04944335
v -1.63222832 2.12992493 0.85815383
v -1.63222832 2.13036958 0.87489354
v -1.63222832 2.13062702 0.89155834
v -1.63222832 2.13079669 0.90822315
v -1.60286850 2.12438445 0.88082921
v -1.60286850 2.12486419 1.04944335
v -1.63222832 2.13106580 1.04154161
v -1.60286850 2.12486419 1.04154161
v -1.60286850 2.12485250 1.02487680
v -1.63222832 2.13084932 0.92488796
v -1.60286850 2.12453657 0.90822315
v -1.60286850 2.12448390 0.89751273
v -1.60286850 2.12444880 0.89155834
v -1.60286850 2.12482324 1.00819327
v -1.60286850 2.12458923 0.92488796
f 1 2 5
f 1 5 11
f 1 11 18
f 1 18 21
f 1 21 15
f 1 15 14
f 1 14 13
f 1 13 12
f 1 12 8
f 1 8 7
f 1 7 6
f 1 6 3
f 1 3 4
f 1 4 2
f 2 4 5
f 3 6 4
f 4 6 7
f 4 7 8
f 4 8 12
f 4 12 9
f 4 9 16
f 4 16 24
f 4 24 23
f 4 23 22
f 4 22 26
f 4 26 25
f 4 25 20
f 4 20 19
f 4 19 17
f 4 17 10
f 4 10 5
f 5 10 17
f 5 17 11
f 9 12 13
f 9 13 14
f 9 14 15
f 9 15 16
f 11 17 19
f 11 19 20
f 11 20 18
f 15 21 26
f 15 26 22
f 15 22 23
f 15 23 24
f 15 24 16
f 18 20 25
f 18 25 21
f 21 25 26

