# https://github.com/mikedh/trimesh
v -3.910190545 -0.22753259 0.20354231
v -3.911891455 -0.24443129 0.20354231
v -3.912312345 -0.21108949999999999 0.20354231
v -3.912260815 -0.21108949999999999 0.20867933
v -3.912192105 -0.21108949999999999 0.22535177
v -3.9121749349999995 -0.21108949999999999 0.24004847
v -3.9121491649999998 -0.21108949999999999 0.29205684
v -3.9121749349999995 -0.21108949999999999 0.30871412
v -3.9105169650000002 -0.22776882 0.30871412
v -3.9185662150000002 -0.25890021 0.20354231
v -3.9106286049999994 -0.22776882 0.32540183
v -3.910972265 -0.22782788 0.35880753
v -3.914159315 -0.24447348000000002 0.35880753
v -3.914391265 -0.20742797000000002 0.20354231
v -3.9190902249999997 -0.19915157 0.20867933
v -3.9191159849999995 -0.19916001 0.20354231
v -3.9191159849999995 -0.19926969 0.29205684
v -3.9190816349999995 -0.19918533 0.22535177
v -3.919133165 -0.19929501 0.30871412
v -3.919167515 -0.19929501 0.32540183
v -3.919219045 -0.19928657 0.34207426
v -3.919304995 -0.19927813 0.35874676
v -3.912260815 -0.21108949999999999 0.32540183
v -3.934252365 -0.27572298 0.20354231
v -3.9208083149999995 -0.25679103000000003 0.35880753
v -3.9272425349999995 -0.26515179 0.35880753
v -3.935549505 -0.27446591 0.35880753
v -3.9124068750000003 -0.21108949999999999 0.34207426
v -3.910972265 -0.22776882 0.35874676
v -3.9126474049999995 -0.21113166 0.35880753
v -3.9326287449999997 -0.19541411 0.20867933
v -3.932637335 -0.19556599000000002 0.35874676
v -3.9326287449999997 -0.19543943000000003 0.20354231
v -3.9326803349999997 -0.19555752 0.35880753
v -3.919296405 -0.19931185 0.35880753
v -3.9126559949999997 -0.21108949999999999 0.35874676
v -3.9493114350000003 -0.28120682 0.20354231
v -3.949302845 -0.27962072 0.35880753
v -3.9493114350000003 -0.19527071000000001 0.20354231
v -3.9493114350000003 -0.19525383000000002 0.20867933
v -3.949302845 -0.19522851000000002 0.24006367
v -3.949302845 -0.19522007000000002 0.25872712
v -3.9659683049999996 -0.19501759000000002 0.35874676
v -3.949302845 -0.19520319000000003 0.35874676
v -3.949345795 -0.19520319000000003 0.35880753
v -3.9659167149999996 -0.28077656 0.20354231
v -3.9659683049999996 -0.27971352 0.35880753
v -3.9659683049999996 -0.27984008 0.34207426
v -3.9608312249999997 -0.19521163000000002 0.20354231
v -3.9659683049999996 -0.19518631 0.20354231
v -3.9659683049999996 -0.19517788000000003 0.20867933
v -3.9659683049999996 -0.19503447000000002 0.34207426
v -3.966011245 -0.19501759000000002 0.35880753
v -3.9826423550000003 -0.27862519 0.20867933
v -3.9826423550000003 -0.27861675 0.20354231
v -3.9826423550000003 -0.27845646 0.35880753
v -3.9826423550000003 -0.27851552 0.34207426
v -3.9775138549999998 -0.19588656 0.20354231
v -3.9826423550000003 -0.19596249 0.35874676
v -3.9826767050000003 -0.19597093 0.35880753
v -3.986207415 -0.27702222 0.20354231
v -3.9941878949999996 -0.27335227 0.35874676
v -3.9942308449999997 -0.27337757 0.29205684
v -3.994196485 -0.27331851 0.35880753
v -3.9826423550000003 -0.19620717 0.20354231
v -3.9826423550000003 -0.19619873 0.20867933
v -3.9826423550000003 -0.1959878 0.34207426
v -3.993818545 -0.1998687 0.35874676
v -3.993818545 -0.1998687 0.35880753
v -3.9937497749999995 -0.19993618000000002 0.24004847
v -3.9941449549999994 -0.27338601 0.20354231
v -3.9976068949999997 -0.26110219 0.35880753
v -3.997658425 -0.26110219 0.30871412
v -3.9942222549999995 -0.27336913 0.30871412
v -3.997658425 -0.26110219 0.29205684
v -3.9903050149999997 -0.19883941 0.20354231
v -3.993732595 -0.19996150000000001 0.22535177
v -3.997306245 -0.21108949999999999 0.34207426
v -3.997314835 -0.21108949999999999 0.35874676
v -3.997314835 -0.21108949999999999 0.35880753
v -3.9971687749999996 -0.21108949999999999 0.20354231
v -3.9971773649999998 -0.21108949999999999 0.20867933
v -3.994162135 -0.20126075 0.24004847
v -3.9964729949999995 -0.26489871 0.20354231
v -3.997830255 -0.24442285 0.35880753
v -3.9978731949999995 -0.24442285 0.34207426
v -3.997864605 -0.24442285 0.30871412
v -3.997856025 -0.24442285 0.29205684
v -3.997692785 -0.24956079 0.20354231
v -3.997503835 -0.26110219 0.20354231
v -3.9937068350000002 -0.20001210000000003 0.20354231
v -3.9937154249999995 -0.20000366 0.20867933
v -3.994772085 -0.20341211 0.20354231
v -3.997941965 -0.22776882 0.34207426
v -3.9972117149999997 -0.21108949999999999 0.24004847
v -3.997392125 -0.21622742 0.20354231
v -3.997856025 -0.22776882 0.20354231
v -3.9979161349999996 -0.22776882 0.35880753
v -3.997830255 -0.23289833000000001 0.20354231
v -3.997752955 -0.24443129 0.20354231
f 1 2 10
f 1 10 24
f 1 24 37
f 1 37 46
f 1 46 55
f 1 55 61
f 1 61 71
f 1 71 84
f 1 84 90
f 1 90 89
f 1 89 100
f 1 100 99
f 1 99 97
f 1 97 96
f 1 96 81
f 1 81 93
f 1 93 91
f 1 91 76
f 1 76 65
f 1 65 58
f 1 58 50
f 1 50 49
f 1 49 39
f 1 39 33
f 1 33 16
f 1 16 14
f 1 14 3
f 1 3 4
f 1 4 5
f 1 5 6
f 1 6 7
f 1 7 8
f 1 8 9
f 1 9 2
f 2 9 11
f 2 11 12
f 2 12 13
f 2 13 10
f 3 14 4
f 4 15 5
f 4 14 16
f 4 16 15
f 5 15 6
f 6 15 7
f 7 17 8
f 7 15 18
f 7 18 17
f 8 17 19
f 8 19 20
f 8 20 21
f 8 21 22
f 8 22 23
f 8 23 9
f 9 23 11
f 10 13 25
f 10 25 26
f 10 26 27
f 10 27 24
f 11 23 28
f 11 28 29
f 11 29 12
f 12 29 30
f 12 30 35
f 12 35 34
f 12 34 45
f 12 45 53
f 12 53 60
f 12 60 69
f 12 69 80
f 12 80 98
f 12 98 85
f 12 85 72
f 12 72 64
f 12 64 56
f 12 56 47
f 12 47 38
f 12 38 27
f 12 27 26
f 12 26 25
f 12 25 13
f 15 31 32
f 15 32 22
f 15 22 21
f 15 21 17
f 15 17 18
f 15 16 31
f 16 33 31
f 17 21 20
f 17 20 19
f 22 32 34
f 22 34 35
f 22 35 36
f 22 36 28
f 22 28 23
f 24 27 38
f 24 38 37
f 28 36 30
f 28 30 29
f 30 36 35
f 31 33 39
f 31 39 40
f 31 40 41
f 31 41 42
f 31 42 43
f 31 43 44
f 31 44 34
f 31 34 32
f 34 44 45
f 37 38 47
f 37 47 48
f 37 48 46
f 39 49 40
f 40 49 50
f 40 50 51
f 40 51 52
f 40 52 43
f 40 43 41
f 41 43 42
f 43 52 53
f 43 53 45
f 43 45 44
f 46 54 55
f 46 48 56
f 46 56 57
f 46 57 54
f 47 56 48
f 50 58 51
f 51 58 59
f 51 59 53
f 51 53 52
f 53 59 60
f 54 61 55
f 54 57 62
f 54 62 63
f 54 63 61
f 56 64 62
f 56 62 57
f 58 65 66
f 58 66 67
f 58 67 59
f 59 67 60
f 60 68 69
f 60 67 66
f 60 66 70
f 60 70 68
f 61 63 71
f 62 64 72
f 62 72 73
f 62 73 74
f 62 74 63
f 63 74 73
f 63 73 75
f 63 75 71
f 65 76 77
f 65 77 70
f 65 70 66
f 68 78 79
f 68 79 80
f 68 80 69
f 68 70 78
f 70 77 81
f 70 81 82
f 70 82 83
f 70 83 78
f 71 75 84
f 72 85 86
f 72 86 73
f 73 86 75
f 75 86 87
f 75 87 88
f 75 88 89
f 75 89 90
f 75 90 84
f 76 91 77
f 77 91 92
f 77 92 93
f 77 93 81
f 78 94 79
f 78 83 95
f 78 95 96
f 78 96 97
f 78 97 94
f 79 94 80
f 80 94 98
f 81 96 82
f 82 96 95
f 82 95 83
f 85 98 86
f 86 98 94
f 86 94 87
f 87 94 88
f 88 94 97
f 88 97 99
f 88 99 100
f 88 100 89
f 91 93 92

