# https://github.com/mikedh/trimesh
v 0.85886846 1.57238882 0.89759803
v 0.82566909 1.58906889 0.89757209
v 0.82566909 1.57238882 0.89759803
v 0.85886846 1.56585580 0.89759803
v 0.85901509 1.59245123 0.89749426
v 0.85901509 2.02233359 0.89662949
v 0.82566462 2.00560720 0.89678515
v 0.81363256 1.58906889 0.89757209
v 0.81363256 1.57238882 0.89758074
v 0.82566909 1.56585580 0.89758074
v 0.84232208 1.56585580 0.89759803
v 0.85886846 1.56585580 0.83443512
v 0.85901509 1.59240490 0.83694296
v 0.85901509 2.03901367 0.89642194
v 0.85899289 2.03919899 0.89649977
v 0.84250426 2.03919899 0.89657760
v 0.82566462 2.02233359 0.89672462
v 0.81363256 2.00560720 0.89678515
v 0.81363256 1.56585580 0.89755480
v 0.82097266 1.56585580 0.89757209
v 0.85901509 1.59240490 0.83652787
v 0.82452718 1.56585580 0.81224507
v 0.82118148 1.83899187 0.81025611
v 0.82043058 2.03919899 0.81046365
v 0.85899289 2.03919899 0.83676134
v 0.85901509 2.03896732 0.83681323
v 0.85901509 1.98897347 0.83667487
v 0.85901509 1.97229339 0.83664893
v 0.85901509 1.78904434 0.83651921
v 0.85901509 1.72241675 0.83651057
v 0.85901509 2.03919899 0.89560906
v 0.82584237 2.03919899 0.89660354
v 0.81363256 2.02233359 0.89670732
v 0.81363256 2.01028689 0.89676784
v 0.82566462 2.03919899 0.89660354
v 0.81363256 1.56585580 0.80994479
v 0.82127924 1.56585580 0.81066254
v 0.82119037 1.80572441 0.81025611
v 0.82119481 1.82231181 0.81025611
v 0.81363256 1.82231181 0.80926161
v 0.81363256 1.83899187 0.80927891
v 0.82109705 1.85567194 0.81026475
v 0.82025287 2.03919899 0.81043771
v 0.81363256 2.03919899 0.89656030
v 0.81363256 1.79937672 0.80927027
v 0.81432564 1.56585580 0.80999668
v 0.81363256 1.80572441 0.80926161
v 0.81363256 1.89917911 0.80935674
v 0.81363256 1.90566580 0.80936538
v 0.81363256 2.03919899 0.80965940
v 0.81363256 1.91581284 0.80938268
f 1 2 8
f 1 8 3
f 1 3 11
f 1 11 4
f 1 4 5
f 1 5 6
f 1 6 7
f 1 7 2
f 2 7 18
f 2 18 8
f 3 8 9
f 3 9 10
f 3 10 11
f 4 11 10
f 4 10 20
f 4 20 19
f 4 19 36
f 4 36 46
f 4 46 37
f 4 37 22
f 4 22 12
f 4 12 21
f 4 21 13
f 4 13 5
f 5 13 21
f 5 21 30
f 5 30 29
f 5 29 28
f 5 28 27
f 5 27 26
f 5 26 31
f 5 31 14
f 5 14 6
f 6 14 15
f 6 15 16
f 6 16 17
f 6 17 7
f 7 17 18
f 8 18 34
f 8 34 33
f 8 33 44
f 8 44 50
f 8 50 51
f 8 51 49
f 8 49 48
f 8 48 41
f 8 41 40
f 8 40 47
f 8 47 45
f 8 45 36
f 8 36 19
f 8 19 9
f 9 19 20
f 9 20 10
f 12 22 23
f 12 23 24
f 12 24 25
f 12 25 26
f 12 26 27
f 12 27 28
f 12 28 29
f 12 29 30
f 12 30 21
f 14 31 15
f 15 31 25
f 15 25 24
f 15 24 43
f 15 43 50
f 15 50 44
f 15 44 35
f 15 35 32
f 15 32 16
f 16 32 17
f 17 33 34
f 17 34 18
f 17 32 35
f 17 35 33
f 22 37 38
f 22 38 39
f 22 39 23
f 23 39 40
f 23 40 41
f 23 41 42
f 23 42 24
f 24 42 43
f 25 31 26
f 33 35 44
f 36 45 46
f 37 46 45
f 37 45 38
f 38 45 47
f 38 47 39
f 39 47 40
f 41 48 42
f 42 48 49
f 42 49 43
f 43 49 51
f 43 51 50

