# https://github.com/mikedh/trimesh
v -3.74152990 2.08903629 0.02019876
v -3.74559580 2.07236891 0.02019876
v -3.74641186 2.07236891 0.00353501
v -3.74256262 2.08903629 0.00353501
v -3.74189099 2.10568925 0.02019876
v -3.74194153 2.10568925 0.03686244
v -3.74220874 2.10568925 0.06997052
v -3.74183317 2.08903629 0.03686244
v -3.74597132 2.07258510 0.06997052
v -3.74602186 2.07236891 0.06997052
v -3.74572574 2.07236891 0.03686244
v -3.75253599 2.06124293 0.02019876
v -3.75288986 2.06157439 0.00353501
v -3.75224714 2.06069528 0.06997052
v -3.75233381 2.06054394 0.06997052
v -3.75427646 2.06259042 -0.00649087
v -3.75182102 2.07236891 -0.00792890
v -3.75004443 2.08903629 -0.00860327
v -3.75035497 2.10568925 -0.00877386
v -3.74311146 2.10568925 0.00353501
v -3.75046334 2.12121087 0.00353501
v -3.74980613 2.12178734 0.02019876
v -3.74971225 2.12198189 0.03686244
v -3.74969783 2.12196749 0.05352618
v -3.74969783 2.12190986 0.06997052
v -3.74258426 2.08925245 0.06997052
v -3.74259147 2.08903629 0.06997052
v -3.76472648 2.05708509 0.06997052
v -3.76472648 2.05917481 0.00353501
v -3.76472648 2.05848303 0.02019876
v -3.76472648 2.06189146 -0.00733583
v -3.76472648 2.07236891 -0.01115437
v -3.76472648 2.08903629 -0.01259252
v -3.76472648 2.10568925 -0.01284430
v -3.75282489 2.11855185 -0.00751453
v -3.76472648 2.12912300 0.00353501
v -3.76472648 2.12998772 0.02019876
v -3.76472648 2.13016067 0.03686244
v -3.76472648 2.13013903 0.05352618
v -3.76452430 2.12994448 0.06997052
v -3.78138010 2.05728685 0.06997052
v -3.78138010 2.05856952 0.02019876
v -3.78138010 2.05920363 0.00353501
v -3.78138010 2.06188425 -0.00739269
v -3.78138010 2.07236891 -0.01134129
v -3.79804819 2.08903629 -0.01299057
v -3.79804819 2.10568925 -0.01302311
v -3.76472648 2.12122526 -0.00887138
v -3.78286063 2.13000933 0.00515180
v -3.78939639 2.13070110 0.01178156
v -3.78138010 2.12156397 -0.00883073
v -3.78286063 2.13058580 0.02142555
v -3.78138010 2.13053537 0.03686244
v -3.78138010 2.13051377 0.05352618
v -3.78138010 2.13047770 0.06997052
v -3.76472648 2.13005257 0.06997052
v -3.78160397 2.05730127 0.06997052
v -3.79804819 2.05945585 0.02019876
v -3.79804819 2.06005393 0.00353501
v -3.79804819 2.06228778 -0.00701897
v -3.79804819 2.07236891 -0.01102443
v -3.80898204 2.07236891 -0.00770955
v -3.81037596 2.08903629 -0.00900132
v -3.81056372 2.10568925 -0.00902575
v -3.80910482 2.11819878 -0.00751453
v -3.79804819 2.12089380 -0.00883073
v -3.78976469 2.13070110 0.01178156
v -3.79641602 2.12899330 0.00515180
v -3.78939639 2.13070110 0.01668885
v -3.79804819 2.12949771 0.06997052
v -3.78976469 2.13070110 0.01668885
v -3.79804819 2.05880732 0.06997052
v -3.79804819 2.05899465 0.05352618
v -3.79804819 2.05919642 0.03686244
v -3.80858483 2.06216529 0.02019876
v -3.80819489 2.06248233 0.00353501
v -3.80737162 2.06315971 -0.00599519
v -3.81205861 2.07236891 0.00353501
v -3.81458623 2.08903629 0.00353501
v -3.81486792 2.10568925 0.00353501
v -3.81053475 2.12066322 0.00353501
v -3.79641602 2.12972111 0.02142555
v -3.79804819 2.12958419 0.03686244
v -3.79804819 2.12957698 0.05352618
v -3.81067923 2.12129732 0.06997052
v -3.79819261 2.05884335 0.06997052
v -3.81274467 2.07236891 0.02019876
v -3.80870761 2.06201395 0.03686244
v -3.81301194 2.07236891 0.03686244
v -3.81491847 2.08903629 0.02019876
v -3.81510622 2.08903629 0.03686244
v -3.81502683 2.10568925 0.02019876
v -3.81065038 2.12114602 0.02019876
v -3.81075863 2.12126129 0.03686244
v -3.81085256 2.12126129 0.05352618
v -3.81084529 2.12118926 0.06997052
v -3.80850543 2.06209323 0.06997052
v -3.80868604 2.06199234 0.05352618
v -3.81292527 2.07236891 0.05352618
v -3.81507010 2.08903629 0.05352618
v -3.81517846 2.10568925 0.03686244
v -3.81530125 2.10568925 0.05352618
v -3.81090311 2.12098747 0.06997052
v -3.81258576 2.07236891 0.06997052
v -3.81478126 2.08881289 0.06997052
v -3.81481010 2.08903629 0.06997052
v -3.81520016 2.10568925 0.06997052
f 1 2 3
f 1 3 4
f 1 4 5
f 1 5 6
f 1 6 7
f 1 7 8
f 1 8 9
f 1 9 10
f 1 10 11
f 1 11 2
f 2 12 13
f 2 13 3
f 2 11 14
f 2 14 15
f 2 15 12
f 3 13 16
f 3 16 17
f 3 17 4
f 4 17 18
f 4 18 19
f 4 19 20
f 4 20 5
f 5 20 21
f 5 21 22
f 5 22 23
f 5 23 24
f 5 24 25
f 5 25 6
f 6 25 7
f 7 26 8
f 7 25 40
f 7 40 56
f 7 56 55
f 7 55 70
f 7 70 85
f 7 85 96
f 7 96 103
f 7 103 107
f 7 107 106
f 7 106 105
f 7 105 104
f 7 104 97
f 7 97 86
f 7 86 72
f 7 72 57
f 7 57 41
f 7 41 28
f 7 28 15
f 7 15 14
f 7 14 10
f 7 10 9
f 7 9 27
f 7 27 26
f 8 26 27
f 8 27 9
f 10 14 11
f 12 15 28
f 12 28 13
f 13 29 16
f 13 28 30
f 13 30 29
f 16 31 32
f 16 32 17
f 16 29 31
f 17 32 33
f 17 33 18
f 18 33 34
f 18 34 19
f 19 34 35
f 19 35 20
f 20 35 21
f 21 35 36
f 21 36 22
f 22 36 37
f 22 37 23
f 23 38 24
f 23 37 38
f 24 38 39
f 24 39 25
f 25 39 40
f 28 41 42
f 28 42 30
f 29 30 43
f 29 43 44
f 29 44 31
f 30 42 43
f 31 44 45
f 31 45 32
f 32 45 46
f 32 46 33
f 33 46 34
f 34 46 47
f 34 47 48
f 34 48 35
f 35 48 36
f 36 49 50
f 36 50 37
f 36 48 51
f 36 51 49
f 37 50 38
f 38 50 52
f 38 52 53
f 38 53 54
f 38 54 39
f 39 54 55
f 39 55 56
f 39 56 40
f 41 57 58
f 41 58 42
f 42 58 59
f 42 59 43
f 43 59 60
f 43 60 44
f 44 60 61
f 44 61 45
f 45 61 46
f 46 61 62
f 46 62 63
f 46 63 64
f 46 64 47
f 47 64 65
f 47 65 66
f 47 66 51
f 47 51 48
f 49 67 50
f 49 51 66
f 49 66 68
f 49 68 67
f 50 67 71
f 50 71 69
f 50 69 52
f 52 69 54
f 52 54 53
f 54 69 55
f 55 69 71
f 55 71 70
f 57 72 73
f 57 73 74
f 57 74 58
f 58 75 76
f 58 76 59
f 58 74 75
f 59 76 77
f 59 77 60
f 60 77 61
f 61 77 62
f 62 77 78
f 62 78 79
f 62 79 63
f 63 79 80
f 63 80 64
f 64 80 65
f 65 80 81
f 65 81 68
f 65 68 66
f 67 68 82
f 67 82 83
f 67 83 71
f 68 81 83
f 68 83 82
f 70 71 84
f 70 84 85
f 71 83 84
f 72 86 73
f 73 86 75
f 73 75 74
f 75 87 76
f 75 86 88
f 75 88 89
f 75 89 87
f 76 87 78
f 76 78 77
f 78 87 79
f 79 87 90
f 79 90 80
f 80 90 91
f 80 91 92
f 80 92 93
f 80 93 81
f 81 93 83
f 83 94 95
f 83 95 84
f 83 93 94
f 84 95 85
f 85 95 96
f 86 97 98
f 86 98 88
f 87 89 90
f 88 98 89
f 89 98 99
f 89 99 100
f 89 100 91
f 89 91 90
f 91 101 92
f 91 100 102
f 91 102 101
f 92 101 93
f 93 101 94
f 94 102 95
f 94 101 102
f 95 102 103
f 95 103 96
f 97 104 99
f 97 99 98
f 99 104 105
f 99 105 106
f 99 106 100
f 100 106 107
f 100 107 102
f 102 107 103

