# https://github.com/mikedh/trimesh
v -2.08896702 -0.22681010000000001 0.74947573
v -2.08980307 -0.24452590000000002 0.74947573
v -2.0912314199999997 -0.21109501 0.74947573
v -2.09092659 -0.21109501 0.7756942
v -2.09092659 -0.21109501 0.7763198
v -2.09097013 -0.21109501 0.79237695
v -2.08904539 -0.22776770000000002 0.79237695
v -2.0971623299999997 -0.25917221 0.74947573
v -2.08914117 -0.22776770000000002 0.80904075
v -2.08992504 -0.23403493 0.84630206
v -2.09140557 -0.24443185 0.84630206
v -2.0930080699999998 -0.2485359 0.84630206
v -2.09912191 -0.19890257 0.74947573
v -2.0989999399999997 -0.19891112 0.75902094
v -2.09885191 -0.19892824 0.7756942
v -2.09855579 -0.1993814 0.7763198
v -2.09890416 -0.19897953000000002 0.79237695
v -2.09897382 -0.19903938 0.80904075
v -2.09108333 -0.21109501 0.80904075
v -2.09885191 -0.19892824 0.7763198
v -2.11590444 -0.27451964 0.74947573
v -2.0989564 -0.2584882 0.84630206
v -2.10495704 -0.26484947000000003 0.84630206
v -2.11533832 -0.2758449 0.84630206
v -2.1158086000000003 -0.27500699 0.7756942
v -2.08948089 -0.22740006000000001 0.84630206
v -2.11337875 -0.19485838 0.74947573
v -2.09940055 -0.19877434 0.7763198
v -2.09929606 -0.19902227 0.84630206
v -2.09910449 -0.19904794 0.82570454
v -2.0974758700000002 -0.20186092 0.84630206
v -2.09130979 -0.21109501 0.82570454
v -2.09098755 -0.21498533 0.84630206
v -2.11338746 -0.19501228 0.84630206
v -2.10259685 -0.19808177999999999 0.84630206
v -2.1300567900000003 -0.28027385 0.74947573
v -2.12623348 -0.28034226 0.84630206
v -2.1300567900000003 -0.28070991 0.7756942
v -2.12052026 -0.19472159 0.74947573
v -2.1300567900000003 -0.19459333 0.82570454
v -2.1300567900000003 -0.19461042 0.84238729
v -2.0916494500000002 -0.21109501 0.84630206
v -2.1300567900000003 -0.19461898 0.84630206
v -2.13958461 -0.28068426 0.74947573
v -2.1300567900000003 -0.28154782 0.84630206
v -2.14671742 -0.2809322 0.74947573
v -2.1300567900000003 -0.19454204 0.74947573
v -2.14671742 -0.19440522 0.80904075
v -2.14671742 -0.19442234 0.82570454
v -2.14671742 -0.19445654 0.84238729
v -2.13396723 -0.19458477000000002 0.84630206
v -2.14223221 -0.28172737000000003 0.84630206
v -2.1633954600000003 -0.27921364 0.74947573
v -2.14652579 -0.28153072 0.84630206
v -2.15947631 -0.28022256 0.84630206
v -2.14671742 -0.19437958 0.74947573
v -2.1633954600000003 -0.19556805 0.82570454
v -2.1633954600000003 -0.19551673 0.74947573
v -2.1633954600000003 -0.19561078 0.84238729
v -2.14671742 -0.19447363 0.84630206
v -2.16977923 -0.2759475 0.74947573
v -2.1633954600000003 -0.27941884 0.84630206
v -2.17449089 -0.19974905 0.82570454
v -2.17447348 -0.19976614 0.84238729
v -2.1681505999999997 -0.19730370000000003 0.74947573
v -2.1633954600000003 -0.19562790000000002 0.84630206
v -2.17454314 -0.27347653 0.74947573
v -2.17463892 -0.27359623 0.84630206
v -2.1776000499999997 -0.21109501 0.84238729
v -2.17452572 -0.19971485 0.74947573
v -2.17759135 -0.21109501 0.84630206
v -2.17446477 -0.19978323 0.84630206
v -2.17746944 -0.26110453 0.74947573
v -2.17536177 -0.2706379 0.84630206
v -2.17766972 -0.26110453 0.84630206
v -2.17793971 -0.22776770000000002 0.84630206
v -2.17630238 -0.20623001000000002 0.74947573
v -2.17761747 -0.21109501 0.74947573
v -2.17756522 -0.2539652 0.74947573
v -2.17783522 -0.24443185 0.84630206
v -2.17767842 -0.2444233 0.74947573
v -2.17782651 -0.22776770000000002 0.74947573
f 1 2 8
f 1 8 21
f 1 21 36
f 1 36 44
f 1 44 46
f 1 46 53
f 1 53 61
f 1 61 67
f 1 67 73
f 1 73 79
f 1 79 81
f 1 81 82
f 1 82 78
f 1 78 77
f 1 77 70
f 1 70 65
f 1 65 58
f 1 58 56
f 1 56 47
f 1 47 39
f 1 39 27
f 1 27 13
f 1 13 3
f 1 3 4
f 1 4 5
f 1 5 6
f 1 6 7
f 1 7 2
f 2 7 9
f 2 9 10
f 2 10 11
f 2 11 12
f 2 12 8
f 3 13 14
f 3 14 4
f 4 14 15
f 4 15 16
f 4 16 5
f 5 16 6
f 6 17 18
f 6 18 19
f 6 19 9
f 6 9 7
f 6 16 20
f 6 20 17
f 8 12 22
f 8 22 23
f 8 23 24
f 8 24 25
f 8 25 21
f 9 19 26
f 9 26 10
f 10 26 33
f 10 33 42
f 10 42 31
f 10 31 29
f 10 29 35
f 10 35 34
f 10 34 43
f 10 43 51
f 10 51 60
f 10 60 66
f 10 66 72
f 10 72 71
f 10 71 76
f 10 76 80
f 10 80 75
f 10 75 74
f 10 74 68
f 10 68 62
f 10 62 55
f 10 55 54
f 10 54 52
f 10 52 45
f 10 45 37
f 10 37 24
f 10 24 23
f 10 23 22
f 10 22 12
f 10 12 11
f 13 27 14
f 14 27 15
f 15 27 28
f 15 28 20
f 15 20 16
f 17 20 29
f 17 29 18
f 18 30 19
f 18 29 30
f 19 30 29
f 19 29 31
f 19 31 32
f 19 32 33
f 19 33 26
f 20 28 34
f 20 34 35
f 20 35 29
f 21 25 36
f 24 37 25
f 25 38 36
f 25 37 38
f 27 39 40
f 27 40 41
f 27 41 34
f 27 34 28
f 31 42 32
f 32 42 33
f 34 41 43
f 36 38 44
f 37 45 38
f 38 46 44
f 38 45 46
f 39 47 40
f 40 48 41
f 40 47 48
f 41 48 49
f 41 49 50
f 41 50 43
f 43 50 51
f 45 52 46
f 46 52 54
f 46 54 55
f 46 55 53
f 47 56 48
f 48 57 49
f 48 56 58
f 48 58 57
f 49 57 50
f 50 59 66
f 50 66 60
f 50 60 51
f 50 57 59
f 53 55 62
f 53 62 61
f 57 63 64
f 57 64 59
f 57 58 65
f 57 65 63
f 59 64 66
f 61 62 68
f 61 68 67
f 63 69 64
f 63 65 70
f 63 70 69
f 64 69 71
f 64 71 72
f 64 72 66
f 67 68 74
f 67 74 75
f 67 75 73
f 69 76 71
f 69 70 77
f 69 77 78
f 69 78 76
f 73 75 79
f 75 80 81
f 75 81 79
f 76 78 82
f 76 82 80
f 80 82 81

