# https://github.com/mikedh/trimesh
v -2.75867138 1.61607004 1.93648879
v -2.41817677 1.61607004 1.93771707
v -2.75867138 1.61607004 1.99683820
v -2.75867138 2.03830420 1.93648283
v -2.41817677 2.03830420 1.93758594
v -2.41817677 1.61607004 1.99739276
v -2.66468206 1.61607004 1.99708866
v -2.75867138 1.91170835 1.99675475
v -2.75867138 2.03830420 1.99658774
v -2.41817677 2.03830420 1.99732124
v -2.64801730 1.61607004 1.99712442
v -2.41817677 1.88901781 1.99736296
v -2.65431658 1.61607004 1.99711250
v -2.63135253 1.90567408 1.99708866
v -2.63135253 2.03830420 1.99705290
v -2.75867138 1.92233033 1.99674283
v -2.59875623 2.03830420 1.99710654
v -2.59802299 1.92233033 1.99713038
v -2.61468776 1.90567408 1.99711250
v -2.61542101 2.03830420 1.99708270
f 1 2 6
f 1 6 11
f 1 11 13
f 1 13 7
f 1 7 3
f 1 3 8
f 1 8 16
f 1 16 9
f 1 9 4
f 1 4 5
f 1 5 2
f 2 5 10
f 2 10 12
f 2 12 6
f 3 7 8
f 4 9 15
f 4 15 20
f 4 20 17
f 4 17 10
f 4 10 5
f 6 12 11
f 7 13 14
f 7 14 15
f 7 15 8
f 8 15 16
f 9 16 15
f 10 17 12
f 11 12 18
f 11 18 19
f 11 19 14
f 11 14 13
f 12 17 18
f 14 19 17
f 14 17 20
f 14 20 15
f 17 19 18

