# https://github.com/mikedh/trimesh
v -3.77578544 2.03721467 1.23697708
v -3.78891830 2.03721467 1.23697708
v -3.74767614 2.03712172 1.23697708
v -3.74767614 2.03721467 1.23686277
v -3.78821019 1.84516840 1.23697708
v -3.80133720 2.03721467 1.20352870
v -3.80206289 1.56239745 1.20354013
v -3.79529163 1.56239745 1.22096165
v -3.78900025 1.56249041 1.23696565
v -3.74749470 2.02234178 1.23697708
v -3.74316976 2.03721467 1.22523700
v -3.74863006 1.84507544 1.23697708
v -3.75047359 1.56239745 1.23696565
v -3.80136647 2.03721467 1.20173396
v -3.80258962 1.56239745 1.18687309
v -3.78900609 1.56239745 1.23687420
v -3.74745960 2.00565625 1.23697708
v -3.74316976 2.02229530 1.22524843
v -3.74302343 1.84507544 1.22465399
v -3.74316976 2.03721467 1.15277311
v -3.74795706 1.84507544 1.23697708
v -3.74810917 1.56239745 1.23696565
v -3.80140158 2.03721467 1.18506692
v -3.80281201 1.56239745 1.15355045
v -3.74745960 2.00556330 1.23697708
v -3.74316976 2.00565625 1.22524843
v -3.74302343 1.57239018 1.22460826
v -3.74302343 1.84507544 1.15199577
v -3.74316976 2.02104041 1.15245303
v -3.74798633 2.00565625 1.12138238
v -3.74805070 2.02234178 1.12138238
v -3.74829645 2.03721467 1.12138238
v -3.74302343 1.84451771 1.15198434
v -3.74302343 1.56239745 1.22459685
v -3.80141910 2.03721467 1.17021748
v -3.79780232 1.63908582 1.13688341
v -3.79993261 1.56239745 1.14358224
v -3.80137231 2.03721467 1.15355045
v -3.74302343 1.82113937 1.15154995
v -3.74302343 1.56239745 1.14873781
v -3.74805654 1.80566227 1.12019351
v -3.74809749 1.82230132 1.12019351
v -3.74818529 1.84507544 1.12019351
v -3.78750786 2.03721467 1.12138238
v -3.79413869 1.56239745 1.12672086
v -3.79798960 1.56239745 1.13688341
v -3.80075194 2.03721467 1.15177858
v -3.79451325 2.03721467 1.13566025
v -3.78898267 2.03716820 1.12138238
v -3.74635344 1.56239745 1.13002454
v -3.74851300 1.56244393 1.12019351
v -3.78863738 1.84507544 1.12019351
v -3.78898267 2.03721467 1.12142810
v -3.79104274 1.56239745 1.12019351
v -3.74851300 1.56239745 1.12021637
v -3.74863006 1.56239745 1.12019351
f 1 2 5
f 1 5 12
f 1 12 21
f 1 21 25
f 1 25 17
f 1 17 10
f 1 10 3
f 1 3 4
f 1 4 11
f 1 11 20
f 1 20 32
f 1 32 44
f 1 44 53
f 1 53 48
f 1 48 47
f 1 47 38
f 1 38 35
f 1 35 23
f 1 23 14
f 1 14 6
f 1 6 2
f 2 6 7
f 2 7 8
f 2 8 9
f 2 9 5
f 3 10 11
f 3 11 4
f 5 9 13
f 5 13 12
f 6 14 15
f 6 15 7
f 7 15 24
f 7 24 37
f 7 37 46
f 7 46 45
f 7 45 54
f 7 54 56
f 7 56 55
f 7 55 50
f 7 50 40
f 7 40 34
f 7 34 22
f 7 22 13
f 7 13 16
f 7 16 8
f 8 16 9
f 9 16 13
f 10 17 11
f 11 17 18
f 11 18 19
f 11 19 28
f 11 28 20
f 12 13 22
f 12 22 21
f 14 23 24
f 14 24 15
f 17 25 26
f 17 26 18
f 18 26 19
f 19 26 27
f 19 27 34
f 19 34 40
f 19 40 39
f 19 39 33
f 19 33 28
f 20 29 30
f 20 30 31
f 20 31 32
f 20 28 33
f 20 33 29
f 21 22 25
f 22 34 25
f 23 35 24
f 24 36 37
f 24 35 38
f 24 38 36
f 25 34 27
f 25 27 26
f 29 33 39
f 29 39 40
f 29 40 30
f 30 40 41
f 30 41 42
f 30 42 43
f 30 43 31
f 31 43 32
f 32 43 52
f 32 52 44
f 36 45 46
f 36 46 37
f 36 38 47
f 36 47 48
f 36 48 49
f 36 49 45
f 40 50 41
f 41 50 51
f 41 51 56
f 41 56 54
f 41 54 52
f 41 52 43
f 41 43 42
f 44 52 49
f 44 49 53
f 45 49 54
f 48 53 49
f 49 52 54
f 50 55 51
f 51 55 56

