# https://github.com/mikedh/trimesh
v -3.31008008 1.96982566 1.11986566
v -3.31008008 2.05189449 1.11698574
v -3.30028693 2.05189449 1.11959038
v -3.29768189 2.05189449 1.12028918
v -3.30088873 1.96982566 1.12308441
v -3.31008008 1.96982566 1.22153126
v -3.31008008 2.05189449 1.22513118
v -3.26709045 2.05189449 1.15947523
v -3.26709469 1.96982566 1.16482215
v -3.29987872 1.96982566 1.22152068
v -3.26709045 2.05189449 1.22514177
v -3.29811957 2.05189449 1.22514177
v -3.26709045 2.03908932 1.16535155
v -3.26709469 1.96982566 1.22141481
v -3.28591920 1.96982566 1.22148892
v -3.26709045 2.05015125 1.22468649
v -3.26709045 2.03908932 1.22178539
f 1 2 3
f 1 3 4
f 1 4 5
f 1 5 9
f 1 9 14
f 1 14 15
f 1 15 10
f 1 10 6
f 1 6 7
f 1 7 2
f 2 7 12
f 2 12 11
f 2 11 8
f 2 8 4
f 2 4 3
f 4 8 9
f 4 9 5
f 6 10 11
f 6 11 12
f 6 12 7
f 8 11 16
f 8 16 17
f 8 17 13
f 8 13 9
f 9 13 17
f 9 17 14
f 10 15 11
f 11 15 14
f 11 14 16
f 14 17 16

