# https://github.com/mikedh/trimesh
v -3.27465804 1.96982563 1.22145980
v -3.23906454 1.96982563 1.22138373
v -3.27465804 1.96982563 1.16376299
v -3.27465804 1.60571425 1.22133105
v -3.23906454 1.60571425 1.22130180
v -3.23906454 1.96982563 1.16531969
v -3.27465804 1.96922985 1.16375715
v -3.27465804 1.59578428 1.22132521
v -3.23906454 1.58903191 1.22129009
v -3.23906454 1.93900308 1.16503878
v -3.23906454 1.93002640 1.16496270
v -3.23906454 1.92236047 1.16489832
v -3.27465804 1.92236047 1.16338261
v -3.27465804 1.58903191 1.22131935
v -3.23906454 1.57238933 1.22126668
v -3.23906454 1.91334408 1.16483981
v -3.27465804 1.90428796 1.16325386
v -3.27465804 1.57238933 1.22127839
v -3.23906454 1.56404816 1.22121986
v -3.23906454 1.90567816 1.16479299
v -3.23906454 1.56404816 1.16296125
v -3.27465804 1.56404816 1.16167962
v -3.27465804 1.56404816 1.22121402
v -3.23969517 1.56404816 1.22121986
f 1 2 6
f 1 6 3
f 1 3 7
f 1 7 13
f 1 13 17
f 1 17 22
f 1 22 23
f 1 23 18
f 1 18 14
f 1 14 8
f 1 8 4
f 1 4 5
f 1 5 2
f 2 5 9
f 2 9 15
f 2 15 19
f 2 19 21
f 2 21 20
f 2 20 16
f 2 16 12
f 2 12 11
f 2 11 10
f 2 10 6
f 3 6 7
f 4 8 5
f 5 8 9
f 6 10 7
f 7 10 11
f 7 11 12
f 7 12 13
f 8 14 9
f 9 14 15
f 12 16 17
f 12 17 13
f 14 18 15
f 15 18 19
f 16 20 17
f 17 20 21
f 17 21 22
f 18 23 24
f 18 24 19
f 19 24 23
f 19 23 22
f 19 22 21

