# https://github.com/mikedh/trimesh
v -0.4534534699999999 -0.28476429000000003 0.64966851
v -0.47850426 -0.28476429000000003 0.65066589
v -0.4534534699999999 -0.24443809 0.63789704
v -0.4534534699999999 -0.28476429000000003 0.73021328
v -0.4786621900000001 -0.28476429000000003 0.65067749
v -0.4786621900000001 -0.27786882 0.65042234
v -0.4786621900000001 -0.26110899 0.64990045
v -0.4786621900000001 -0.24352826 0.64970331
v -0.4534534699999999 -0.22636483000000002 0.64143428
v -0.4534534699999999 -0.24595674 0.74832862
v -0.4786621900000001 -0.28476429000000003 0.72993494
v -0.4786621900000001 -0.24157182 0.6501788
v -0.4534534699999999 -0.22343699 0.64538903
v -0.47489668000000007 -0.23578454000000001 0.65036434
v -0.4786621900000001 -0.23333556 0.65565283
v -0.4786621900000001 -0.23248045 0.65665021
v -0.4534534699999999 -0.22776035 0.75636571
v -0.4786621900000001 -0.26113635 0.73248639
v -0.4534534699999999 -0.21827908000000001 0.65245191
v -0.4786621900000001 -0.23199477000000002 0.65739245
v -0.4534534699999999 -0.21744449 0.74124252
v -0.4786621900000001 -0.23176218 0.72455371
v -0.4786621900000001 -0.24401395 0.73237042
v -0.4786621900000001 -0.24443809 0.7325444
v -0.4786621900000001 -0.26041123 0.73250959
v -0.4786621900000001 -0.22760302 0.67526424
v -0.4534534699999999 -0.21622002 0.66094128
v -0.4534534699999999 -0.21488605 0.72565546
v -0.4786621900000001 -0.22756881 0.70897823
v -0.4786621900000001 -0.22758248 0.67563536
v -0.4534534699999999 -0.21520758 0.70897823
f 1 2 3
f 1 3 9
f 1 9 13
f 1 13 19
f 1 19 27
f 1 27 31
f 1 31 28
f 1 28 21
f 1 21 17
f 1 17 10
f 1 10 4
f 1 4 11
f 1 11 5
f 1 5 2
f 2 5 3
f 3 6 7
f 3 7 8
f 3 8 9
f 3 5 6
f 4 10 11
f 5 11 18
f 5 18 25
f 5 25 24
f 5 24 23
f 5 23 22
f 5 22 29
f 5 29 30
f 5 30 26
f 5 26 20
f 5 20 16
f 5 16 15
f 5 15 12
f 5 12 8
f 5 8 7
f 5 7 6
f 8 12 9
f 9 12 14
f 9 14 15
f 9 15 16
f 9 16 13
f 10 17 11
f 11 17 18
f 12 15 14
f 13 16 19
f 16 20 19
f 17 21 22
f 17 22 23
f 17 23 24
f 17 24 25
f 17 25 18
f 19 20 26
f 19 26 27
f 21 28 29
f 21 29 22
f 26 30 27
f 27 30 31
f 28 31 30
f 28 30 29

