# https://github.com/mikedh/trimesh
v 0.34793017 2.03721468 1.23697709
v 0.33479862 2.03721468 1.23697709
v 0.37603667 2.03712172 1.23697709
v 0.37603667 2.03721468 1.23686278
v 0.33550667 1.84516840 1.23697709
v 0.32237513 2.03721468 1.20352870
v 0.32164950 1.56239745 1.20354013
v 0.32842594 1.56239745 1.22096165
v 0.33471667 1.56249040 1.23696566
v 0.37621226 2.02234179 1.23697709
v 0.38054264 2.03721468 1.22523701
v 0.37507696 1.84507544 1.23697709
v 0.37323952 1.56239745 1.23696566
v 0.32234586 2.03721468 1.20173396
v 0.32112867 1.56239745 1.18687309
v 0.32133347 1.56239745 1.19357192
v 0.33470499 1.56239745 1.23687421
v 0.37625321 2.00565626 1.23697709
v 0.38054264 2.02229531 1.22524844
v 0.38068306 1.84507544 1.22465400
v 0.38054264 2.03721468 1.15277311
v 0.37575581 1.84507544 1.23697709
v 0.37559779 1.56239745 1.23696566
v 0.32231076 2.03721468 1.18506693
v 0.32090044 1.56239745 1.15355045
v 0.37625321 2.00556330 1.23697709
v 0.38054264 2.00565626 1.22524844
v 0.38068306 1.57239017 1.22460826
v 0.38068306 1.84507544 1.15199577
v 0.38054264 2.02104041 1.15245303
v 0.37572654 2.00565626 1.12138238
v 0.37566217 2.02234179 1.12138238
v 0.37541642 2.03721468 1.12138238
v 0.38068306 1.84451771 1.15198434
v 0.38068306 1.56239745 1.22459685
v 0.32229317 2.03721468 1.17021749
v 0.32591549 1.63908581 1.13688341
v 0.32572237 1.56239745 1.13688341
v 0.32234002 2.03721468 1.15355045
v 0.38068306 1.82113938 1.15154995
v 0.38068306 1.56239745 1.14873781
v 0.37565633 1.80566227 1.12019352
v 0.37561538 1.82230132 1.12019352
v 0.37552758 1.84507544 1.12019352
v 0.33620304 2.03721468 1.12138238
v 0.32957877 1.56239745 1.12672086
v 0.32296027 2.03721468 1.15177858
v 0.32919837 2.03721468 1.13566026
v 0.33472841 2.03716820 1.12138238
v 0.37735334 1.56239745 1.13002455
v 0.37519403 1.56239745 1.12021637
v 0.37518819 1.56244392 1.12019352
v 0.33507364 1.84507544 1.12019352
v 0.33472841 2.03721468 1.12142810
v 0.33267436 1.56239745 1.12019352
v 0.37508281 1.56239745 1.12019352
f 1 2 5
f 1 5 12
f 1 12 22
f 1 22 26
f 1 26 18
f 1 18 10
f 1 10 3
f 1 3 4
f 1 4 11
f 1 11 21
f 1 21 33
f 1 33 45
f 1 45 54
f 1 54 48
f 1 48 47
f 1 47 39
f 1 39 36
f 1 36 24
f 1 24 14
f 1 14 6
f 1 6 2
f 2 6 7
f 2 7 8
f 2 8 9
f 2 9 5
f 3 10 11
f 3 11 4
f 5 9 13
f 5 13 12
f 6 14 15
f 6 15 16
f 6 16 7
f 7 16 15
f 7 15 25
f 7 25 38
f 7 38 46
f 7 46 55
f 7 55 56
f 7 56 51
f 7 51 50
f 7 50 41
f 7 41 35
f 7 35 23
f 7 23 13
f 7 13 17
f 7 17 8
f 8 17 9
f 9 17 13
f 10 18 11
f 11 18 19
f 11 19 20
f 11 20 29
f 11 29 21
f 12 13 23
f 12 23 22
f 14 24 25
f 14 25 15
f 18 26 27
f 18 27 19
f 19 27 20
f 20 27 28
f 20 28 35
f 20 35 41
f 20 41 40
f 20 40 34
f 20 34 29
f 21 30 31
f 21 31 32
f 21 32 33
f 21 29 34
f 21 34 30
f 22 23 26
f 23 35 26
f 24 36 25
f 25 37 38
f 25 36 39
f 25 39 37
f 26 35 28
f 26 28 27
f 30 34 40
f 30 40 41
f 30 41 31
f 31 41 42
f 31 42 43
f 31 43 44
f 31 44 32
f 32 44 33
f 33 44 53
f 33 53 45
f 37 46 38
f 37 39 47
f 37 47 48
f 37 48 49
f 37 49 46
f 41 50 42
f 42 50 51
f 42 51 52
f 42 52 56
f 42 56 55
f 42 55 53
f 42 53 44
f 42 44 43
f 45 53 49
f 45 49 54
f 46 49 55
f 48 54 49
f 49 53 55
f 51 56 52

