# https://github.com/mikedh/trimesh
v -2.07585964 -0.7187422 0.44214651
v -2.00658678 -0.71489845 0.44214651
v -2.07585964 -0.7186332 0.44420974
v -2.07585964 -0.71873493 0.42773299
v -2.00658678 -0.7104952 0.45881793
v -2.07585964 -0.7153562099999999 0.45916826
v -2.07585964 -0.7154361300000001 0.45881793
v -2.00658678 -0.71484759 0.42546536
v -2.07585964 -0.71858234 0.40880372
v -2.00658678 -0.71479671 0.40880372
v -2.00658678 -0.7081119300000001 0.46253567
v -2.07585964 -0.7089548 0.472774
v -2.07585964 -0.71606828 0.39212258
v -2.00658678 -0.71154878 0.39212258
v -2.00658678 -0.70456608 0.46802464
v -2.07585964 -0.69488766 0.47481779
v -2.07585964 -0.71089483 0.37989885
v -2.00658678 -0.70567779 0.38215675
v -2.00658678 -0.6947060199999999 0.46887137
v -2.07585964 -0.69033184 0.47455501
v -2.00658678 -0.68797763 0.4685502
v -2.00658678 -0.6771366400000001 0.46794681
v -2.07585964 -0.70957968 0.3776994
v -2.07585964 -0.69833179 0.37588916
v -2.07585964 -0.69506932 0.37541227
v -2.00658678 -0.6947060199999999 0.38058013
v -2.07585964 -0.67726744 0.47000032
v -2.00658678 -0.67355447 0.46759641
v -2.00658678 -0.6696525799999999 0.46720714
v -2.00658678 -0.6613619900000001 0.38082341
v -2.00658678 -0.67803763 0.38069691
v -2.00658678 -0.6847660200000001 0.38064824
v -2.07585964 -0.6479851400000001 0.38257526
v -2.06334105 -0.64712048 0.38247792
v -2.00658678 -0.64769449 0.38234164
v -2.00658678 -0.65320219 0.38171881
v -2.0087839599999997 -0.66965986 0.46719741
v -2.0198988399999998 -0.66985603 0.4671098
v -2.07585964 -0.67101135 0.46622419
v -2.07585964 -0.6445192200000001 0.44073533
v -2.00658678 -0.6445192200000001 0.4405115
v -2.06334105 -0.6445192200000001 0.38307159
v -2.07585964 -0.6451731700000001 0.38334409
v -2.00658678 -0.6445192200000001 0.38321759
v -2.07585964 -0.6445192200000001 0.38352898
f 1 2 3
f 1 3 7
f 1 7 6
f 1 6 12
f 1 12 16
f 1 16 20
f 1 20 27
f 1 27 39
f 1 39 40
f 1 40 45
f 1 45 43
f 1 43 33
f 1 33 25
f 1 25 24
f 1 24 23
f 1 23 17
f 1 17 13
f 1 13 9
f 1 9 4
f 1 4 2
f 2 5 6
f 2 6 7
f 2 7 3
f 2 4 8
f 2 8 10
f 2 10 14
f 2 14 18
f 2 18 26
f 2 26 32
f 2 32 31
f 2 31 30
f 2 30 36
f 2 36 35
f 2 35 44
f 2 44 41
f 2 41 29
f 2 29 28
f 2 28 22
f 2 22 21
f 2 21 19
f 2 19 15
f 2 15 11
f 2 11 5
f 4 9 10
f 4 10 8
f 5 11 12
f 5 12 6
f 9 13 10
f 10 13 14
f 11 15 12
f 12 15 16
f 13 17 14
f 14 17 18
f 15 19 16
f 16 19 21
f 16 21 22
f 16 22 20
f 17 23 18
f 18 23 24
f 18 24 25
f 18 25 26
f 20 22 28
f 20 28 29
f 20 29 27
f 25 30 31
f 25 31 32
f 25 32 26
f 25 33 34
f 25 34 35
f 25 35 36
f 25 36 30
f 27 29 37
f 27 37 38
f 27 38 39
f 29 40 37
f 29 41 40
f 33 42 34
f 33 43 42
f 34 42 35
f 35 42 44
f 37 40 38
f 38 40 39
f 40 41 44
f 40 44 42
f 40 42 45
f 42 43 45

