# https://github.com/mikedh/trimesh
v 1.28887449 1.73900447 1.22130814
v 1.30790871 1.73793190 1.22127805
v 1.30790871 1.73900447 1.22127805
v 1.30790871 1.79673932 1.22123792
v 1.28887449 1.79673932 1.22123792
v 1.28887449 1.56892567 1.22122791
v 1.30790871 1.57128532 1.22123792
v 1.30790871 1.79673932 1.11887285
v 1.28887449 1.79673932 1.15193138
v 1.28887449 1.55571774 1.22119781
v 1.29233441 1.55571774 1.22120784
v 1.30790871 1.55571774 1.22121786
v 1.30790871 1.78901684 1.11884276
v 1.30359918 1.79673932 1.12096910
v 1.29732214 1.79673932 1.12404827
v 1.28887449 1.52237618 1.13186156
v 1.28887449 1.55225489 1.22117775
v 1.28887449 1.53904696 1.22108748
v 1.30790871 1.53904696 1.22111758
v 1.29731282 1.78901684 1.12402821
v 1.30790871 1.77234604 1.11887285
v 1.29726997 1.75567526 1.12405830
v 1.29728673 1.77234604 1.12402821
v 1.28887449 1.50570541 1.13136006
v 1.28887449 1.52237618 1.22081668
v 1.29233441 1.52237618 1.22082671
v 1.30790871 1.52237618 1.22086682
v 1.30790871 1.68902275 1.11921386
v 1.29726438 1.63904104 1.12439931
v 1.29722525 1.68902275 1.12422881
v 1.29722339 1.70566290 1.12417867
v 1.29233441 1.50570541 1.13129989
v 1.28887449 1.49050556 1.13814028
v 1.29730723 1.62237024 1.12447956
v 1.29735567 1.60569947 1.12460994
v 1.29741529 1.57238853 1.12491084
v 1.30790871 1.57238853 1.12086880
v 1.30790871 1.55571774 1.12301519
v 1.28887449 1.50570541 1.21972341
v 1.30790871 1.50570541 1.21981369
v 1.30790871 1.65568118 1.11946461
v 1.30790871 1.50570541 1.13104914
v 1.30790871 1.49050556 1.13812022
v 1.30790871 1.48367178 1.15354619
v 1.28887449 1.48373305 1.15354619
v 1.30790871 1.63904104 1.11959500
v 1.30790871 1.60569947 1.12004634
v 1.30790871 1.58902867 1.12028707
v 1.28887449 1.50306994 1.21882072
v 1.30790871 1.50487797 1.21953284
v 1.30790871 1.48385563 1.16912262
v 1.29233441 1.48394757 1.17020583
v 1.28887449 1.48391693 1.16675555
v 1.28887449 1.49298779 1.21534035
v 1.30790871 1.49286521 1.21541057
v 1.30790871 1.48419273 1.18686550
v 1.28887449 1.48397821 1.17020583
v 1.28887449 1.48422336 1.18340518
v 1.29233441 1.49295712 1.21534035
v 1.28887449 1.49163943 1.21289306
v 1.30790871 1.49243617 1.21463826
v 1.29233441 1.48428464 1.18686550
v 1.30790871 1.48636849 1.20353517
v 1.28887449 1.48431530 1.18686550
v 1.28887449 1.48655237 1.20353517
f 1 2 3
f 1 3 4
f 1 4 5
f 1 5 9
f 1 9 16
f 1 16 24
f 1 24 33
f 1 33 45
f 1 45 53
f 1 53 57
f 1 57 58
f 1 58 64
f 1 64 65
f 1 65 60
f 1 60 54
f 1 54 49
f 1 49 39
f 1 39 25
f 1 25 18
f 1 18 17
f 1 17 10
f 1 10 6
f 1 6 7
f 1 7 2
f 2 7 12
f 2 12 19
f 2 19 27
f 2 27 40
f 2 40 50
f 2 50 55
f 2 55 61
f 2 61 63
f 2 63 56
f 2 56 51
f 2 51 44
f 2 44 43
f 2 43 42
f 2 42 38
f 2 38 37
f 2 37 48
f 2 48 47
f 2 47 46
f 2 46 41
f 2 41 28
f 2 28 21
f 2 21 13
f 2 13 8
f 2 8 4
f 2 4 3
f 4 8 14
f 4 14 15
f 4 15 9
f 4 9 5
f 6 10 11
f 6 11 12
f 6 12 7
f 8 13 14
f 9 15 16
f 10 17 11
f 11 17 18
f 11 18 19
f 11 19 12
f 13 20 14
f 13 21 22
f 13 22 23
f 13 23 20
f 14 20 15
f 15 20 24
f 15 24 16
f 18 25 26
f 18 26 27
f 18 27 19
f 20 23 24
f 21 28 29
f 21 29 30
f 21 30 31
f 21 31 22
f 22 31 24
f 22 24 23
f 24 32 33
f 24 31 30
f 24 30 29
f 24 29 34
f 24 34 35
f 24 35 36
f 24 36 37
f 24 37 38
f 24 38 32
f 25 39 40
f 25 40 26
f 26 40 27
f 28 41 34
f 28 34 29
f 32 42 33
f 32 38 42
f 33 42 43
f 33 43 44
f 33 44 45
f 34 41 46
f 34 46 35
f 35 46 36
f 36 46 47
f 36 47 48
f 36 48 37
f 39 49 50
f 39 50 40
f 44 51 45
f 45 51 52
f 45 52 53
f 49 54 55
f 49 55 50
f 51 56 52
f 52 57 53
f 52 56 58
f 52 58 57
f 54 59 55
f 54 60 59
f 55 59 61
f 56 62 58
f 56 63 62
f 58 62 64
f 59 60 61
f 60 65 63
f 60 63 61
f 62 63 64
f 63 65 64

