# https://github.com/mikedh/trimesh
v 0.18245485 1.79499612 0.64392849
v 0.18246194 1.80585040 0.64392849
v 0.24783549 1.79499612 0.64392849
v 0.17654279 1.79499612 0.75176720
v 0.17654279 1.82252717 0.75190938
v 0.17654279 1.84344501 0.75205155
v 0.17654279 2.03978047 0.75361545
v 0.18261811 2.03978047 0.64392849
v 0.24887167 2.03968462 0.64392849
v 0.24892138 2.03978047 0.65764822
v 0.24901365 2.03978047 0.69095242
v 0.24802712 1.79499612 0.74089092
v 0.17654279 1.79499612 0.86124091
v 0.17654279 2.03978047 0.84282942
v 0.18911924 2.03978047 0.64392849
v 0.24904202 2.03978047 0.70762228
v 0.24904911 2.03978047 0.72429214
v 0.24802712 1.79499612 0.75244251
v 0.17824613 1.79499612 1.00703998
v 0.17814677 1.93799466 1.00703998
v 0.17813968 1.95464745 1.00703998
v 0.17813258 1.98917509 1.00703998
v 0.17813258 2.02250468 1.00703998
v 0.17654279 1.82489930 0.86060113
v 0.17654279 2.03970858 0.85590940
v 0.17815386 2.03978047 1.00703998
v 0.24901365 2.03978047 0.74089092
v 0.24787805 1.79499612 0.82491554
v 0.24801997 1.79499612 0.75823610
v 0.24735996 1.79499612 1.00703998
v 0.24830387 2.03978047 1.00703998
v 0.24784968 1.90586311 1.00703998
v 0.24779287 1.89038438 1.00703998
v 0.24772189 1.87373156 1.00703998
f 1 2 8
f 1 8 15
f 1 15 9
f 1 9 3
f 1 3 12
f 1 12 18
f 1 18 29
f 1 29 28
f 1 28 30
f 1 30 19
f 1 19 13
f 1 13 4
f 1 4 5
f 1 5 6
f 1 6 7
f 1 7 2
f 2 7 8
f 3 9 10
f 3 10 11
f 3 11 12
f 4 13 24
f 4 24 25
f 4 25 14
f 4 14 7
f 4 7 6
f 4 6 5
f 7 14 26
f 7 26 31
f 7 31 27
f 7 27 17
f 7 17 16
f 7 16 11
f 7 11 10
f 7 10 15
f 7 15 8
f 9 15 10
f 11 16 12
f 12 16 17
f 12 17 18
f 13 19 20
f 13 20 21
f 13 21 22
f 13 22 23
f 13 23 24
f 14 25 26
f 17 27 28
f 17 28 29
f 17 29 18
f 19 30 34
f 19 34 33
f 19 33 32
f 19 32 31
f 19 31 26
f 19 26 23
f 19 23 22
f 19 22 21
f 19 21 20
f 23 26 25
f 23 25 24
f 27 31 32
f 27 32 33
f 27 33 28
f 28 33 34
f 28 34 30

