# https://github.com/mikedh/trimesh
v -1.83137335 1.46639268 0.07020215
v -1.84803722 1.46667231 0.07020215
v -1.84803722 1.46667231 0.07014987
v -1.83137335 1.46640144 0.07014987
v -1.81470955 1.47178420 0.07014987
v -1.81470955 1.47178420 0.07020215
v -1.83137335 1.46642763 0.10354048
v -1.84803722 1.46675969 0.18686034
v -1.86470108 1.46787818 0.18686034
v -1.86470108 1.46911028 0.07014987
v -1.86470108 1.46793064 0.17019111
v -1.80563878 1.47899329 0.07014987
v -1.80563878 1.47899329 0.07020215
v -1.80585885 1.47948262 0.20360789
v -1.81470955 1.47245705 0.20360789
v -1.83137335 1.46669854 0.20360789
v -1.83137335 1.46664609 0.18686034
v -1.84803722 1.46681212 0.20360789
v -1.86470108 1.46797433 0.20360789
v -1.88017803 1.47486882 0.17019111
v -1.88101119 1.47515719 0.15352194
v -1.88050812 1.47571644 0.12020971
v -1.87661728 1.47604847 0.07014987
v -1.80486058 1.48902483 0.07014987
v -1.80545794 1.48898987 0.20360789
v -1.87732473 1.47493871 0.20360789
v -1.87730899 1.47487755 0.20352950
v -1.88516143 1.47800584 0.15352194
v -1.88516143 1.47875734 0.12020971
v -1.88079893 1.48898987 0.07014987
v -1.88516143 1.47918551 0.11399141
v -1.88516143 1.48211284 0.10003946
v -1.88516143 1.48979379 0.08789027
v -1.80486845 1.50569745 0.07014987
v -1.80486845 1.50569745 0.07020215
v -1.80545794 1.48902483 0.20352950
v -1.80570948 1.50569745 0.20352950
v -1.80570948 1.50561881 0.20360789
v -1.88092470 1.48902483 0.20360789
v -1.88516143 1.48880635 0.18691255
v -1.88516143 1.47945642 0.17019111
v -1.88516143 1.50569745 0.08483342
v -1.88051599 1.50564500 0.07014987
v -1.80563878 1.52370702 0.07014987
v -1.80611038 1.51981850 0.20352950
v -1.80611038 1.51975732 0.20360789
v -1.87869243 1.50569745 0.20360789
v -1.88516143 1.55565416 0.18411695
v -1.88516143 1.52259726 0.18742206
v -1.88516143 1.50569745 0.18881985
v -1.88516143 1.52368956 0.08875245
v -1.87634220 1.51954760 0.07014987
v -1.80580377 1.52571682 0.07014987
v -1.80657411 1.52815482 0.20352950
v -1.80657411 1.52814608 0.20360789
v -1.86705131 1.55565416 0.20360789
v -1.88516143 1.55565416 0.12381523
v -1.88516143 1.52635471 0.09084269
v -1.87076924 1.52791887 0.07014987
v -1.80625975 1.53076755 0.07014987
v -1.81098375 1.55565416 0.15352194
v -1.82790696 1.55561047 0.20360789
v -1.81383705 1.55565416 0.17019111
v -1.82809561 1.55565416 0.20360789
v -1.85758751 1.55565416 0.09417390
v -1.86245301 1.53477841 0.07014987
v -1.88516143 1.53683192 0.10239088
v -1.88516143 1.53433277 0.09956917
v -1.81123529 1.53342400 0.07014987
v -1.82193316 1.55565416 0.09413468
v -1.81614800 1.55565416 0.10354048
v -1.81127457 1.55565416 0.12020971
v -1.81103877 1.55565416 0.13686583
v -1.82792270 1.55565416 0.20352950
v -1.84803722 1.55565416 0.09259317
v -1.84803722 1.53910386 0.07014987
v -1.81257938 1.53409682 0.07014987
v -1.83137335 1.55565416 0.09255401
v -1.81319248 1.53438519 0.07014987
v -1.83137335 1.53932231 0.07014987
f 1 2 3
f 1 3 4
f 1 4 5
f 1 5 6
f 1 6 7
f 1 7 8
f 1 8 2
f 2 8 9
f 2 9 3
f 3 10 23
f 3 23 30
f 3 30 43
f 3 43 52
f 3 52 59
f 3 59 66
f 3 66 76
f 3 76 80
f 3 80 79
f 3 79 77
f 3 77 69
f 3 69 60
f 3 60 53
f 3 53 44
f 3 44 34
f 3 34 24
f 3 24 12
f 3 12 5
f 3 5 4
f 3 9 11
f 3 11 10
f 5 12 13
f 5 13 6
f 6 13 14
f 6 14 15
f 6 15 16
f 6 16 17
f 6 17 7
f 7 17 8
f 8 17 16
f 8 16 18
f 8 18 9
f 9 18 19
f 9 19 20
f 9 20 21
f 9 21 11
f 10 22 23
f 10 11 21
f 10 21 22
f 12 24 13
f 13 24 14
f 14 25 38
f 14 38 46
f 14 46 55
f 14 55 62
f 14 62 64
f 14 64 56
f 14 56 47
f 14 47 39
f 14 39 26
f 14 26 19
f 14 19 18
f 14 18 16
f 14 16 15
f 14 24 25
f 19 26 27
f 19 27 20
f 20 28 21
f 20 27 28
f 21 28 29
f 21 29 22
f 22 29 23
f 23 29 31
f 23 31 32
f 23 32 33
f 23 33 30
f 24 34 35
f 24 35 25
f 25 36 37
f 25 37 38
f 25 35 36
f 26 39 40
f 26 40 41
f 26 41 27
f 27 41 28
f 28 41 40
f 28 40 50
f 28 50 49
f 28 49 48
f 28 48 57
f 28 57 67
f 28 67 68
f 28 68 58
f 28 58 51
f 28 51 42
f 28 42 33
f 28 33 32
f 28 32 31
f 28 31 29
f 30 42 43
f 30 33 42
f 34 44 35
f 35 44 45
f 35 45 37
f 35 37 36
f 37 45 46
f 37 46 38
f 39 47 48
f 39 48 49
f 39 49 50
f 39 50 40
f 42 51 43
f 43 51 52
f 44 53 54
f 44 54 45
f 45 54 55
f 45 55 46
f 47 56 48
f 48 56 64
f 48 64 74
f 48 74 63
f 48 63 61
f 48 61 73
f 48 73 72
f 48 72 71
f 48 71 70
f 48 70 78
f 48 78 75
f 48 75 65
f 48 65 57
f 51 58 52
f 52 58 59
f 53 60 54
f 54 61 55
f 54 60 61
f 55 61 63
f 55 63 62
f 57 65 66
f 57 66 59
f 57 59 67
f 58 68 59
f 59 68 67
f 60 69 70
f 60 70 71
f 60 71 72
f 60 72 73
f 60 73 61
f 62 63 74
f 62 74 64
f 65 75 76
f 65 76 66
f 69 77 70
f 70 77 79
f 70 79 80
f 70 80 78
f 75 78 80
f 75 80 76

