# https://github.com/mikedh/trimesh
v 2.29430979 2.03830419 1.87019223
v 2.29370015 2.03830419 1.65480567
v 2.29324488 2.03830419 1.87019223
v 2.29446029 1.88902100 1.87019223
v 2.25553964 2.03830419 1.65480567
v 2.29354970 1.59132967 1.65480567
v 2.25631516 2.03830419 1.86947542
v 2.25632678 2.03826044 1.87019223
v 2.29425579 1.72236810 1.87019223
v 2.25518076 2.02360339 1.65480567
v 2.25569396 2.03830419 1.83614275
v 2.29402816 1.59132967 1.87019223
v 2.25555120 1.59132967 1.65480567
v 2.25569783 2.03830419 1.83685962
v 2.25548945 2.02233456 1.83685962
v 2.25596790 1.59132967 1.87019223
v 2.25515375 2.02233456 1.65480567
v 2.25542770 2.02233456 1.82020380
v 2.25516919 1.59132967 1.77251350
v 2.25504188 2.00566490 1.65480567
v 2.25514219 1.59132967 1.80584612
v 2.25520007 1.59132967 1.82020380
v 2.25521551 1.59132967 1.82250187
v 2.25531582 1.59132967 1.83685962
v 2.25557051 1.59132967 1.85353647
v 2.25504956 2.00693371 1.65480567
v 2.25513450 1.59132967 1.80352694
v 2.25511519 1.59132967 1.78916926
f 1 2 5
f 1 5 11
f 1 11 14
f 1 14 7
f 1 7 3
f 1 3 8
f 1 8 16
f 1 16 12
f 1 12 9
f 1 9 4
f 1 4 2
f 2 4 6
f 2 6 13
f 2 13 20
f 2 20 26
f 2 26 17
f 2 17 10
f 2 10 5
f 3 7 8
f 4 9 6
f 5 10 11
f 6 9 12
f 6 12 16
f 6 16 25
f 6 25 24
f 6 24 23
f 6 23 22
f 6 22 21
f 6 21 27
f 6 27 28
f 6 28 19
f 6 19 13
f 7 14 8
f 8 14 15
f 8 15 16
f 10 17 11
f 11 17 18
f 11 18 15
f 11 15 14
f 13 19 20
f 15 18 21
f 15 21 22
f 15 22 23
f 15 23 24
f 15 24 25
f 15 25 16
f 17 26 18
f 18 26 20
f 18 20 27
f 18 27 21
f 19 28 20
f 20 28 27

