# https://github.com/mikedh/trimesh
v -3.31008425 2.06403316 1.24482337
v -3.31008425 2.11160425 1.24482337
v -3.18133710 2.06415381 1.24482337
v -3.31008425 2.06219765 1.48866541
v -3.31008425 2.11123190 1.48866541
v -3.03560754 2.11416346 1.24482337
v -3.06463734 2.06431113 1.24482337
v -2.81580362 2.06465726 1.24482337
v -2.81580362 2.06362412 1.48866541
v -3.03139822 2.11420017 1.24482337
v -2.91058589 2.11405333 1.48866541
v -2.81580362 2.11561088 1.28690378
v -2.81580362 2.11576823 1.24482337
v -2.81580362 2.11455154 1.48866541
v -2.89805469 2.11413198 1.48866541
v -2.81580362 2.11553223 1.30356409
v -2.81580362 2.11552698 1.30463818
f 1 2 6
f 1 6 10
f 1 10 13
f 1 13 8
f 1 8 7
f 1 7 3
f 1 3 4
f 1 4 5
f 1 5 2
f 2 5 6
f 3 7 4
f 4 7 8
f 4 8 9
f 4 9 14
f 4 14 15
f 4 15 11
f 4 11 5
f 5 10 6
f 5 11 12
f 5 12 10
f 8 13 12
f 8 12 16
f 8 16 17
f 8 17 14
f 8 14 9
f 10 12 13
f 11 15 16
f 11 16 12
f 14 17 15
f 15 17 16

