# https://github.com/mikedh/trimesh
v -0.4510660900000001 -0.29790449 0.16408271
v -0.47889055999999997 -0.29790449 0.16328805
v -0.47888781999999996 -0.64459535 0.16166813
v -0.45305178999999995 -0.64459535 0.16203999
v -0.4510660900000001 -0.46860291 0.16106701
v -0.4510660900000001 -0.29790449 0.11204136
v -0.47889055999999997 -0.29790449 0.11758884
v -0.47889055999999997 -0.46860291 0.16020101
v -0.47888781999999996 -0.64459535 0.11715584
v -0.45305178999999995 -0.64459535 0.1178537
v -0.4510660900000001 -0.46860291 0.1185465
v -0.47889055999999997 -0.46860291 0.12199013
f 1 2 3
f 1 3 4
f 1 4 5
f 1 5 11
f 1 11 6
f 1 6 7
f 1 7 2
f 2 7 12
f 2 12 8
f 2 8 3
f 3 9 10
f 3 10 4
f 3 8 12
f 3 12 9
f 4 10 11
f 4 11 5
f 6 11 10
f 6 10 9
f 6 9 7
f 7 9 12

