# https://github.com/mikedh/trimesh
v -3.71467052 1.62999548 1.55449721
v -3.71463464 1.56669413 1.55190236
v -3.71467052 1.62999548 1.60147666
v -3.71467052 1.75564954 1.55562911
v -3.34799865 1.56669413 1.55152178
v -3.71463464 1.56669413 1.60134815
v -3.71467052 1.87224821 1.55693888
v -3.71467052 1.88889285 1.55713164
v -3.34796277 2.00566400 1.55697839
v -3.34796277 1.90566684 1.55564884
v -3.71467052 1.65573861 1.60156565
v -3.34799865 1.56669413 1.55192710
v -3.34796277 1.75573578 1.55460599
v -3.34796277 1.63896461 1.55392882
v -3.34796277 1.62999548 1.57889889
v -3.49811338 1.56669413 1.60083417
v -3.71467052 2.00721636 1.56010707
v -3.63135723 2.00721636 1.55939538
v -3.34807042 2.00721636 1.55701797
v -3.34796277 2.00721636 1.59613371
v -3.71467052 1.67238324 1.60160517
v -3.34799865 1.56673726 1.60029046
v -3.34810636 1.56669413 1.60029046
v -3.34796277 1.63905086 1.60027561
v -3.48709346 1.56669413 1.60080449
v -3.71467052 1.88897909 1.60201543
v -3.71467052 2.00721636 1.60154091
v -3.34807042 2.00721636 1.60009769
v -3.34796277 2.00566400 1.60009769
v -3.34799865 1.57238608 1.60031024
v -3.48142197 1.56669413 1.60078470
v -3.34796277 1.72240339 1.60046838
v -3.34796277 1.75573578 1.60049806
v -3.48138609 1.93899923 1.60098736
v -3.71467052 1.90566684 1.60199564
v -3.34796277 1.73904802 1.60050301
v -3.58139079 2.00721636 1.60109608
v -3.71467052 2.00566400 1.60155081
v -3.48138609 2.00721636 1.60074518
v -3.34796277 1.95564386 1.60033987
v -3.34796277 1.87229133 1.60043875
v -3.34796277 1.93899923 1.60037450
v -3.48138609 1.95564386 1.60094784
v -3.71467052 1.92231147 1.60195117
v -3.49653396 2.00721636 1.60080449
v -3.71467052 1.97233161 1.60172384
v -3.71467052 1.95564386 1.60180782
v -3.71467052 1.93899923 1.60188692
f 1 2 6
f 1 6 3
f 1 3 11
f 1 11 21
f 1 21 26
f 1 26 35
f 1 35 44
f 1 44 48
f 1 48 47
f 1 47 46
f 1 46 38
f 1 38 27
f 1 27 17
f 1 17 8
f 1 8 7
f 1 7 4
f 1 4 2
f 2 5 12
f 2 12 23
f 2 23 31
f 2 31 25
f 2 25 16
f 2 16 6
f 2 4 7
f 2 7 8
f 2 8 9
f 2 9 10
f 2 10 5
f 3 6 11
f 5 10 13
f 5 13 14
f 5 14 15
f 5 15 12
f 6 16 11
f 8 17 18
f 8 18 19
f 8 19 9
f 9 19 20
f 9 20 29
f 9 29 40
f 9 40 42
f 9 42 41
f 9 41 33
f 9 33 36
f 9 36 32
f 9 32 24
f 9 24 15
f 9 15 14
f 9 14 13
f 9 13 10
f 11 16 21
f 12 22 23
f 12 15 22
f 15 24 22
f 16 25 26
f 16 26 21
f 17 27 37
f 17 37 45
f 17 45 39
f 17 39 28
f 17 28 20
f 17 20 19
f 17 19 18
f 20 28 29
f 22 24 30
f 22 30 31
f 22 31 23
f 24 32 30
f 25 31 26
f 26 33 34
f 26 34 35
f 26 31 30
f 26 30 36
f 26 36 33
f 27 38 37
f 28 39 40
f 28 40 29
f 30 32 36
f 33 41 34
f 34 42 40
f 34 40 43
f 34 43 35
f 34 41 42
f 35 43 44
f 37 38 46
f 37 46 47
f 37 47 45
f 39 45 43
f 39 43 40
f 43 48 44
f 43 45 48
f 45 47 48

