# https://github.com/mikedh/trimesh
v -1.60286563 2.07569075 0.21422572
v -1.60286563 2.07550305 0.26893477
v -1.60286563 2.12085830 0.21422572
v -0.78029207 2.07366939 0.21422572
v -0.76966733 2.07254321 0.36877577
v -1.60286563 2.07545975 0.28559262
v -1.60286563 2.12145990 0.22487704
v -1.60278129 2.12153691 0.21422572
v -0.77422078 2.07365976 0.21422572
v -0.74141903 2.07248065 0.36877577
v -0.74698436 2.07249028 0.36877577
v -1.60286563 2.07532018 0.36877577
v -1.60286563 2.07537311 0.32486931
v -1.60286563 2.07538274 0.31890820
v -1.60286563 2.12148878 0.23082307
v -1.60286563 2.12153208 0.24155002
v -1.60286563 2.12159466 0.25820781
v -1.60286563 2.12162354 0.27488074
v -1.44686753 2.12149357 0.21422572
v -0.75760909 2.07364051 0.21422572
v -0.74175633 2.07363571 0.21422572
v -0.74141903 2.07363571 0.21422572
v -0.74141903 2.11889953 0.36877577
v -1.60286563 2.12162834 0.36877577
v -1.60286563 2.12164277 0.29153859
v -1.49079998 2.12146952 0.36877577
v -1.47410398 2.12144064 0.36877577
v -1.45749227 2.12140697 0.36877577
v -0.93030318 2.12017007 0.21422572
v -0.74141903 2.11903909 0.21422572
v -0.91360717 2.12010272 0.21422572
v -0.91967843 2.12013157 0.21422572
v -0.91360717 2.11962623 0.35820009
v -0.91360717 2.11958773 0.36877577
v -1.44686753 2.12137809 0.36877577
v -0.93030318 2.11968882 0.35820009
v -1.44079627 2.12135884 0.36877577
v -0.93030318 2.11964549 0.36877577
f 1 2 6
f 1 6 14
f 1 14 13
f 1 13 12
f 1 12 24
f 1 24 25
f 1 25 18
f 1 18 17
f 1 17 16
f 1 16 15
f 1 15 7
f 1 7 3
f 1 3 8
f 1 8 19
f 1 19 29
f 1 29 32
f 1 32 31
f 1 31 30
f 1 30 22
f 1 22 21
f 1 21 20
f 1 20 9
f 1 9 4
f 1 4 5
f 1 5 2
f 2 5 6
f 3 7 8
f 4 9 10
f 4 10 11
f 4 11 5
f 5 12 13
f 5 13 14
f 5 14 6
f 5 11 10
f 5 10 23
f 5 23 34
f 5 34 38
f 5 38 37
f 5 37 35
f 5 35 28
f 5 28 27
f 5 27 26
f 5 26 24
f 5 24 12
f 7 15 8
f 8 15 16
f 8 16 17
f 8 17 18
f 8 18 19
f 9 20 10
f 10 20 21
f 10 21 22
f 10 22 30
f 10 30 23
f 18 25 19
f 19 25 24
f 19 24 26
f 19 26 27
f 19 27 28
f 19 28 29
f 23 30 31
f 23 31 32
f 23 32 33
f 23 33 34
f 28 35 29
f 29 36 32
f 29 35 37
f 29 37 36
f 32 36 33
f 33 36 34
f 34 36 38
f 36 37 38

