# https://github.com/mikedh/trimesh
v -3.9000188949999997 -0.24405615 1.23052998
v -3.882616155 -0.26113373 1.22744351
v -3.882616155 -0.24445834 1.22730932
v -3.8999873449999996 -0.24401491 1.23052104
v -3.9000188949999997 -0.24331365 1.23036
v -3.902775995 -0.29457732000000003 1.22725564
v -3.902775995 -0.29797015 1.22728248
v -3.902775995 -0.31464554 1.22733616
v -3.902775995 -0.32781466000000004 1.22737194
v -3.8992669949999996 -0.3278456 1.22737194
v -3.882616155 -0.3278456 1.22737194
v -3.882616155 -0.23127891 1.22237994
v -3.9000188949999997 -0.22704045 1.22639681
v -3.902775995 -0.29457732000000003 1.1469718
v -3.9000188949999997 -0.22684451 1.22587793
v -3.9000188949999997 -0.22249262 1.20863845
v -3.902775995 -0.3278456 1.18470718
v -3.882616155 -0.3278456 1.17886526
v -3.882616155 -0.22641138 1.20927363
v -3.9000188949999997 -0.27702537 1.14403743
v -3.882616155 -0.27777818 1.14453841
v -3.882616155 -0.29445356 1.14781275
v -3.902775995 -0.30551892 1.14987039
v -3.9000188949999997 -0.22249262 1.20836112
v -3.9000188949999997 -0.22296699 1.15853934
v -3.9000188949999997 -0.2286389 1.14395691
v -3.9000188949999997 -0.24329302 1.13913487
v -3.9000188949999997 -0.24388083 1.13915276
v -3.882616155 -0.22633920000000002 1.19259778
v -3.882616155 -0.22631858 1.17593983
v -3.902775995 -0.32782497 1.17112674
v -3.899268965 -0.3278456 1.17335436
v -3.882616155 -0.30293049 1.15077396
v -3.882616155 -0.26111311 1.1437064
v -3.882616155 -0.22710233000000002 1.15926398
v -3.882616155 -0.23200079 1.14734754
v -3.882616155 -0.24443772 1.14354537
f 1 2 3
f 1 3 4
f 1 4 5
f 1 5 6
f 1 6 7
f 1 7 8
f 1 8 9
f 1 9 10
f 1 10 11
f 1 11 2
f 2 11 18
f 2 18 33
f 2 33 22
f 2 22 21
f 2 21 34
f 2 34 37
f 2 37 36
f 2 36 35
f 2 35 30
f 2 30 29
f 2 29 19
f 2 19 12
f 2 12 3
f 3 5 4
f 3 12 13
f 3 13 5
f 5 13 6
f 6 14 23
f 6 23 31
f 6 31 17
f 6 17 9
f 6 9 8
f 6 8 7
f 6 13 15
f 6 15 16
f 6 16 24
f 6 24 14
f 9 17 10
f 10 17 32
f 10 32 18
f 10 18 11
f 12 19 15
f 12 15 13
f 14 20 21
f 14 21 22
f 14 22 23
f 14 24 25
f 14 25 26
f 14 26 27
f 14 27 28
f 14 28 20
f 15 19 16
f 16 19 29
f 16 29 30
f 16 30 24
f 17 31 32
f 18 32 31
f 18 31 33
f 20 28 21
f 21 28 34
f 22 33 23
f 23 33 31
f 24 30 25
f 25 30 35
f 25 35 26
f 26 35 36
f 26 36 27
f 27 36 37
f 27 37 34
f 27 34 28

