# https://github.com/mikedh/trimesh
v -3.9159579749999995 -0.51125184 1.47638427
v -3.9326182449999996 -0.6114043 1.47633393
v -3.9159579749999995 -0.6114043 1.47637586
v -3.899281075 -0.6114043 1.47637586
v -3.899281075 -0.49459216 1.47637586
v -3.9326182449999996 -0.36120363 1.47633393
v -3.9492951549999997 -0.6114043 1.47605726
v -3.949286805 -0.37786332 1.47610756
v -3.882612515 -0.6114043 1.47634234
v -3.882612515 -0.59466134 1.47634234
v -3.882612515 -0.51127961 1.47631717
v -3.882620865 -0.37789108 1.47625011
v -3.899281075 -0.37786332 1.47630879
v -3.915949685 -0.36120363 1.47632555
v -3.915949685 -0.39455077 1.47634234
v -3.9326182449999996 -0.34451618 1.47631717
v -3.949286805 -0.36120363 1.47610756
v -3.962031915 -0.6114043 1.4717977
v -3.962023565 -0.36120363 1.47183125
v -3.882612515 -0.6114043 1.42704747
v -3.882612515 -0.49461993000000004 1.47630879
v -3.882612515 -0.46926944000000004 1.47628362
v -3.882620865 -0.36120363 1.47623332
v -3.899281075 -0.36120363 1.47629203
v -3.915949685 -0.34451618 1.47630041
v -3.9326182449999996 -0.32774543 1.47627525
v -3.949286805 -0.34451618 1.47606564
v -3.967063325 -0.6114043 1.45943838
v -3.961998585 -0.34451618 1.47178932
v -3.967021635 -0.36120363 1.45942997
v -3.967063325 -0.61129324 1.45943838
v -3.882612515 -0.56125866 1.42724032
v -3.9184403749999994 -0.6114043 1.39645096
v -3.9178738949999996 -0.5779461100000001 1.39616588
v -3.9175990149999995 -0.56125866 1.39611557
v -3.882620865 -0.32782875 1.42704747
v -3.882620865 -0.32774543 1.47617463
v -3.882620865 -0.34454395 1.47620818
v -3.882612515 -0.46926944000000004 1.42765957
v -3.899281075 -0.32774543 1.47622494
v -3.915949685 -0.32774543 1.47625849
v -3.949286805 -0.32774543 1.47599016
v -3.949286805 -0.32782875 1.47599854
v -3.961956955 -0.32774543 1.47173902
v -3.967696415 -0.6114043 1.44276079
v -3.966871695 -0.32782875 1.45942997
v -3.967504785 -0.32774543 1.44276079
v -3.967579755 -0.34451618 1.44276079
v -3.967629735 -0.36120363 1.44276079
v -3.967696415 -0.61129324 1.44276079
v -3.882612515 -0.54459897 1.42730742
v -3.9326182449999996 -0.6114043 1.39130264
v -3.9184570149999995 -0.61129324 1.39644258
v -3.9326182449999996 -0.59463356 1.39113492
v -3.9326182449999996 -0.5779461100000001 1.39097562
v -3.9326182449999996 -0.56125866 1.39090015
v -3.9326182449999996 -0.54459897 1.39084146
v -3.9176489949999995 -0.54459897 1.39609878
v -3.9175823750000003 -0.41121045 1.39628325
v -3.9175573850000003 -0.32782875 1.39674443
v -3.882695835 -0.32774543 1.42700554
v -3.882620865 -0.32774543 1.42726549
v -3.966863405 -0.32774543 1.45942997
v -3.967688065 -0.6114043 1.42609998
v -3.967713055 -0.59463356 1.42609998
v -3.967563115 -0.32774543 1.42609998
v -3.967596455 -0.34451618 1.42609998
v -3.967621445 -0.36120363 1.42609998
v -3.9492951549999997 -0.6114043 1.39084984
v -3.9326182449999996 -0.46926944000000004 1.3908666
v -3.9492951549999997 -0.59463356 1.39081629
v -3.9492951549999997 -0.56125866 1.39076598
v -3.9492951549999997 -0.54459897 1.39074922
v -3.949286805 -0.46124503 1.39073246
v -3.9177323049999995 -0.47790471 1.39611557
v -3.9326182449999996 -0.46124503 1.39088339
v -3.9326182449999996 -0.44458535 1.39094207
v -3.9177572949999995 -0.46926944000000004 1.39611557
v -3.9176323550000003 -0.32774543 1.39671926
v -3.9326182449999996 -0.4278979 1.39103431
v -3.967571465 -0.6114043 1.40941404
v -3.967571465 -0.59463356 1.40941404
v -3.967363195 -0.32774543 1.40942242
v -3.967396535 -0.36120363 1.40942242
v -3.962548355 -0.6114043 1.39599817
v -3.949286805 -0.44458535 1.39074922
v -3.962406765 -0.44458535 1.39596462
v -3.962548355 -0.61129324 1.39599817
v -3.949286805 -0.39455077 1.39088339
v -3.949286805 -0.34451618 1.39110978
v -3.9326182449999996 -0.39455077 1.39122716
v -3.9326182449999996 -0.34451618 1.39157934
v -3.9326182449999996 -0.32782875 1.39183926
v -3.9326932149999996 -0.32774543 1.39183926
v -3.9624151149999998 -0.36120363 1.39608202
v -3.9624151149999998 -0.32774543 1.39620781
v -3.9623901249999998 -0.32782875 1.39614071
v -3.9624151149999998 -0.4278979 1.39598979
v -3.9624151149999998 -0.37786332 1.39605688
v -3.9493534849999996 -0.32774543 1.39126071
v -3.949286805 -0.32782875 1.39124395
f 1 2 3
f 1 3 4
f 1 4 5
f 1 5 6
f 1 6 2
f 2 7 18
f 2 18 28
f 2 28 45
f 2 45 64
f 2 64 81
f 2 81 85
f 2 85 69
f 2 69 52
f 2 52 33
f 2 33 20
f 2 20 9
f 2 9 4
f 2 4 3
f 2 6 17
f 2 17 8
f 2 8 7
f 4 9 10
f 4 10 5
f 5 10 11
f 5 11 12
f 5 12 13
f 5 13 14
f 5 14 15
f 5 15 6
f 6 15 14
f 6 14 16
f 6 16 17
f 7 8 18
f 8 17 19
f 8 19 18
f 9 20 32
f 9 32 51
f 9 51 39
f 9 39 22
f 9 22 21
f 9 21 11
f 9 11 10
f 11 21 12
f 12 22 23
f 12 23 13
f 12 21 22
f 13 23 24
f 13 24 14
f 14 24 25
f 14 25 16
f 16 25 41
f 16 41 26
f 16 26 17
f 17 26 27
f 17 27 19
f 18 19 28
f 19 27 29
f 19 29 30
f 19 30 31
f 19 31 28
f 20 33 34
f 20 34 35
f 20 35 36
f 20 36 32
f 22 37 38
f 22 38 23
f 22 39 62
f 22 62 37
f 23 38 24
f 24 38 37
f 24 37 40
f 24 40 25
f 25 40 41
f 26 41 40
f 26 40 37
f 26 37 62
f 26 62 61
f 26 61 79
f 26 79 94
f 26 94 100
f 26 100 96
f 26 96 83
f 26 83 66
f 26 66 47
f 26 47 63
f 26 63 44
f 26 44 42
f 26 42 43
f 26 43 27
f 27 43 44
f 27 44 29
f 28 31 50
f 28 50 45
f 29 44 30
f 30 44 46
f 30 46 47
f 30 47 48
f 30 48 49
f 30 49 50
f 30 50 31
f 32 36 51
f 33 52 53
f 33 53 34
f 34 54 55
f 34 55 35
f 34 53 52
f 34 52 54
f 35 55 56
f 35 56 57
f 35 57 58
f 35 58 59
f 35 59 36
f 36 59 60
f 36 60 61
f 36 61 62
f 36 62 39
f 36 39 51
f 42 44 43
f 44 63 46
f 45 50 65
f 45 65 64
f 46 63 47
f 47 66 48
f 48 66 49
f 49 66 67
f 49 67 68
f 49 68 65
f 49 65 50
f 52 69 54
f 54 69 55
f 55 69 56
f 56 69 57
f 57 70 58
f 57 69 71
f 57 71 72
f 57 72 73
f 57 73 74
f 57 74 70
f 58 70 75
f 58 75 59
f 59 76 77
f 59 77 60
f 59 75 78
f 59 78 70
f 59 70 76
f 60 79 61
f 60 77 80
f 60 80 79
f 64 65 81
f 65 82 81
f 65 68 82
f 66 83 67
f 67 83 68
f 68 83 84
f 68 84 82
f 69 85 71
f 70 78 75
f 70 74 86
f 70 86 76
f 71 85 72
f 72 85 73
f 73 85 74
f 74 87 86
f 74 85 88
f 74 88 87
f 76 86 89
f 76 89 77
f 77 89 90
f 77 90 80
f 79 80 91
f 79 91 92
f 79 92 93
f 79 93 94
f 80 90 91
f 81 82 88
f 81 88 85
f 82 84 95
f 82 95 88
f 83 96 97
f 83 97 95
f 83 95 84
f 86 87 98
f 86 98 99
f 86 99 95
f 86 95 97
f 86 97 89
f 87 88 98
f 88 95 99
f 88 99 98
f 89 97 90
f 90 97 100
f 90 100 101
f 90 101 92
f 90 92 91
f 92 101 93
f 93 101 94
f 94 101 100
f 96 100 97

