# https://github.com/mikedh/trimesh
v -3.71775032 1.50569796 0.80547487
v -3.71775032 1.49544850 0.80722231
v -3.71775032 1.52223722 0.80710520
v -3.43139176 1.52235986 0.80871755
v -3.41474506 1.52235986 0.80881663
v -3.39806225 1.52235986 0.80892471
v -3.34808615 1.52235986 0.80930302
v -3.34808615 1.50569796 0.80835724
v -3.34808615 1.49295185 0.80985248
v -3.71775032 1.49165535 0.80792489
v -3.71775032 1.53771649 0.81005965
v -3.46472122 1.53657768 0.81036590
v -3.44807458 1.53636742 0.81037492
v -3.43139176 1.53620097 0.81040193
v -3.41474506 1.53588563 0.81044697
v -3.39806225 1.53548264 0.81049201
v -3.34808615 1.53437011 0.81080728
v -3.34808615 1.48598750 0.82018401
v -3.71775032 1.48612766 0.81655402
v -3.71775032 1.54567953 0.81305913
v -3.69802764 1.54595985 0.81295104
v -3.68138094 1.54606496 0.81296905
v -3.48140409 1.54498745 0.81380676
v -3.46472122 1.54490862 0.81396888
v -3.43139176 1.54453195 0.81421209
v -3.34808615 1.54270982 0.81511282
v -3.34808615 1.48350837 0.83683879
v -3.71775032 1.48471726 0.82021104
v -3.71775032 1.54783453 0.81456337
v -3.71775032 1.57234558 0.83540659
v -3.34808615 1.57234558 0.83580292
v -3.34808615 1.48390257 0.85349354
v -3.71775032 1.48320177 0.85352958
v -3.71775032 1.48286887 0.83687480
v -3.71775032 1.48317548 0.83240712
v -3.71775032 1.57234558 0.89481969
v -3.34808615 1.57234558 0.89748589
v -3.34808615 1.48498008 0.87016632
v -3.71775032 1.48481364 0.87020235
v -3.71775032 1.52273656 0.89666622
v -3.68138094 1.57234558 0.89556731
v -3.34808615 1.57231930 0.89748589
v -3.36473279 1.57234558 0.89744085
v -3.34808615 1.49075305 0.88683009
v -3.71775032 1.49130493 0.88638872
v -3.63136867 1.57234558 0.89620684
v -3.64805149 1.57234558 0.89610775
v -3.66469812 1.57234558 0.89588257
v -3.71775032 1.51024449 0.89572044
v -3.64805149 1.49706040 0.89540517
v -3.63136867 1.49692900 0.89549525
v -3.63136867 1.50569796 0.89605371
v -3.59803916 1.50569796 0.89617081
v -3.34808615 1.50568044 0.89660316
v -3.34808615 1.52232481 0.89704453
v -3.34808615 1.53898674 0.89724269
v -3.34808615 1.55564863 0.89741383
v -3.38141561 1.57234558 0.89738682
v -3.34808615 1.49655230 0.89570242
v -3.59803916 1.49685015 0.89554029
v -3.65945085 1.49723561 0.89527907
v -3.71775032 1.50264064 0.89448642
f 1 2 10
f 1 10 19
f 1 19 28
f 1 28 35
f 1 35 34
f 1 34 33
f 1 33 39
f 1 39 45
f 1 45 62
f 1 62 49
f 1 49 40
f 1 40 36
f 1 36 30
f 1 30 29
f 1 29 20
f 1 20 11
f 1 11 3
f 1 3 4
f 1 4 5
f 1 5 6
f 1 6 7
f 1 7 8
f 1 8 9
f 1 9 2
f 2 9 10
f 3 11 12
f 3 12 13
f 3 13 14
f 3 14 15
f 3 15 4
f 4 15 16
f 4 16 5
f 5 16 6
f 6 16 7
f 7 17 26
f 7 26 31
f 7 31 37
f 7 37 42
f 7 42 57
f 7 57 56
f 7 56 55
f 7 55 54
f 7 54 59
f 7 59 44
f 7 44 38
f 7 38 32
f 7 32 27
f 7 27 18
f 7 18 9
f 7 9 8
f 7 16 17
f 9 18 10
f 10 18 19
f 11 20 21
f 11 21 22
f 11 22 12
f 12 22 13
f 13 22 14
f 14 23 15
f 14 22 23
f 15 23 24
f 15 24 25
f 15 25 16
f 16 25 17
f 17 25 26
f 18 27 28
f 18 28 19
f 20 29 21
f 21 29 22
f 22 29 30
f 22 30 31
f 22 31 23
f 23 31 24
f 24 31 25
f 25 31 26
f 27 32 33
f 27 33 34
f 27 34 35
f 27 35 28
f 30 36 41
f 30 41 48
f 30 48 47
f 30 47 46
f 30 46 58
f 30 58 43
f 30 43 37
f 30 37 31
f 32 38 33
f 33 38 39
f 36 40 41
f 37 43 40
f 37 40 42
f 38 44 39
f 39 44 45
f 40 46 47
f 40 47 48
f 40 48 41
f 40 49 50
f 40 50 51
f 40 51 52
f 40 52 53
f 40 53 54
f 40 54 55
f 40 55 56
f 40 56 57
f 40 57 42
f 40 43 58
f 40 58 46
f 44 59 60
f 44 60 45
f 45 60 51
f 45 51 50
f 45 50 61
f 45 61 62
f 49 62 61
f 49 61 50
f 51 60 54
f 51 54 53
f 51 53 52
f 54 60 59

