# https://github.com/mikedh/trimesh
v -3.896733965 -0.69424507 0.7371575
v -3.900888225 -0.6937318100000001 0.74227849
v -3.900988065 -0.6952544700000001 0.74227849
v -3.896733965 -0.70152468 0.73654025
v -3.896733965 -0.65554592 0.72861868
v -3.9016970849999995 -0.69160183 0.74227849
v -3.902136455 -0.71138767 0.74227849
v -3.908247965 -0.73503147 0.74227849
v -3.896733965 -0.7134749 0.72841295
v -3.949021405 -0.65554592 0.73135064
v -3.9659778450000003 -0.65847144 0.74227849
v -3.949291045 -0.65893338 0.74227849
v -3.935789735 -0.66466469 0.74227849
v -3.9049126449999996 -0.6843136599999999 0.74227849
v -3.896733965 -0.65554592 0.64927753
v -3.916586425 -0.73946252 0.74227849
v -3.9085276249999996 -0.73525387 0.72565812
v -3.896733965 -0.7192233100000001 0.69618952
v -3.896733965 -0.7192575299999999 0.70898058
v -3.896733965 -0.7189153500000001 0.71239839
v -3.949291045 -0.65554592 0.73133922
v -3.982644735 -0.65983156 0.74227849
v -3.965348755 -0.65554592 0.72632109
v -3.966137625 -0.65554592 0.72596676
v -3.896733965 -0.69457013 0.64125311
v -3.9067001550000002 -0.69831686 0.6255129
v -3.9091068049999995 -0.68994231 0.6255129
v -3.9365886349999997 -0.6649555300000001 0.6255129
v -3.949291045 -0.65934398 0.6255129
v -3.949291045 -0.65554592 0.63805249
v -3.9087373249999997 -0.7353650700000001 0.70898058
v -3.932624155 -0.74259336 0.74227849
v -3.932624155 -0.7426788799999999 0.69230305
v -3.932624155 -0.7426874400000001 0.67563694
v -3.932624155 -0.74270456 0.62560433
v -3.932624155 -0.74270456 0.6255129
v -3.9170956949999995 -0.7395052799999999 0.6255129
v -3.896733965 -0.71898379 0.67563694
v -3.9088971049999994 -0.73503999 0.6589594
v -3.994608135 -0.66536613 0.74227849
v -3.9712106049999996 -0.65554592 0.70898058
v -3.982644735 -0.6595321599999999 0.69230305
v -3.896733965 -0.6968198800000001 0.64156173
v -3.9069098549999994 -0.72455257 0.6255129
v -3.905991135 -0.71138767 0.6255129
v -3.9659678849999995 -0.6586767600000001 0.6255129
v -3.9656982549999995 -0.65554592 0.64255622
v -3.949291045 -0.74273021 0.74227849
v -3.949291045 -0.74284997 0.69230305
v -3.949291045 -0.74284997 0.6255129
v -3.908757305 -0.73289291 0.6255129
v -3.908797205 -0.73398783 0.64228187
v -3.896733965 -0.71710187 0.6589594
v -3.998253055 -0.67809477 0.74227849
v -3.9946580549999995 -0.66527203 0.70898058
v -3.9985626549999997 -0.67804343 0.62560433
v -3.998342935 -0.67804343 0.70898058
v -3.998293015 -0.67804343 0.72565812
v -3.971460255 -0.65554592 0.69230305
v -3.9946480949999996 -0.66521215 0.69230305
v -3.982644735 -0.6595321599999999 0.67563694
v -3.896733965 -0.710019 0.6439622
v -3.982644735 -0.6600112 0.6255129
v -3.966037785 -0.65554592 0.64333352
v -3.9659678849999995 -0.74284997 0.74227849
v -3.9659678849999995 -0.7429355200000001 0.69230305
v -3.9659678849999995 -0.7429184 0.6255129
v -3.896733965 -0.71071189 0.64525388
v -3.998203135 -0.69477543 0.74227849
v -3.9987523649999996 -0.6948096500000001 0.6255129
v -3.998712405 -0.71138767 0.62560433
v -3.9946680150000002 -0.66542601 0.62560433
v -3.9946879949999996 -0.66549445 0.6255129
v -3.9985626549999997 -0.67813753 0.6255129
v -3.971450235 -0.65554592 0.67563694
v -3.9946281150000003 -0.66524637 0.67563694
v -3.9945981149999996 -0.6653917899999999 0.6255129
v -3.970801165 -0.65554592 0.65918804
v -3.970771225 -0.65554592 0.6589594
v -3.982644735 -0.7423624 0.74227849
v -3.982644735 -0.74244792 0.69230305
v -3.982644735 -0.74246504 0.67563694
v -3.982644735 -0.74245648 0.64228187
v -3.982644735 -0.74244792 0.6255129
v -3.998113255 -0.7114389999999999 0.74227849
v -3.998702445 -0.7114817600000001 0.6255129
v -3.997833655 -0.7280597799999999 0.62560433
v -3.9974242149999997 -0.7281025400000001 0.74227849
v -3.9938791350000002 -0.73912036 0.74227849
v -3.9938991149999996 -0.73917168 0.69230305
v -3.993919095 -0.73918024 0.67563694
v -3.993939075 -0.73918879 0.6589594
v -3.993978975 -0.73918024 0.62560433
v -3.993978975 -0.73918024 0.6255129
v -3.9978136749999997 -0.72812822 0.6255129
f 1 2 3
f 1 3 4
f 1 4 9
f 1 9 20
f 1 20 19
f 1 19 18
f 1 18 38
f 1 38 53
f 1 53 68
f 1 68 62
f 1 62 43
f 1 43 25
f 1 25 15
f 1 15 5
f 1 5 2
f 2 5 6
f 2 6 14
f 2 14 13
f 2 13 12
f 2 12 11
f 2 11 22
f 2 22 40
f 2 40 54
f 2 54 69
f 2 69 85
f 2 85 88
f 2 88 89
f 2 89 80
f 2 80 65
f 2 65 48
f 2 48 32
f 2 32 16
f 2 16 8
f 2 8 7
f 2 7 3
f 3 7 4
f 4 7 8
f 4 8 9
f 5 10 11
f 5 11 12
f 5 12 13
f 5 13 14
f 5 14 6
f 5 15 30
f 5 30 47
f 5 47 64
f 5 64 79
f 5 79 78
f 5 78 75
f 5 75 59
f 5 59 41
f 5 41 24
f 5 24 23
f 5 23 21
f 5 21 10
f 8 16 17
f 8 17 18
f 8 18 19
f 8 19 20
f 8 20 9
f 10 21 11
f 11 21 23
f 11 23 24
f 11 24 22
f 15 25 26
f 15 26 27
f 15 27 28
f 15 28 29
f 15 29 30
f 16 31 17
f 16 32 33
f 16 33 34
f 16 34 35
f 16 35 36
f 16 36 37
f 16 37 31
f 17 31 18
f 18 31 39
f 18 39 38
f 22 24 41
f 22 41 42
f 22 42 40
f 25 43 44
f 25 44 45
f 25 45 26
f 26 45 44
f 26 44 51
f 26 51 37
f 26 37 36
f 26 36 50
f 26 50 67
f 26 67 84
f 26 84 94
f 26 94 95
f 26 95 86
f 26 86 70
f 26 70 74
f 26 74 73
f 26 73 77
f 26 77 63
f 26 63 46
f 26 46 29
f 26 29 28
f 26 28 27
f 29 46 30
f 30 46 47
f 31 37 39
f 32 48 49
f 32 49 33
f 33 49 34
f 34 49 35
f 35 49 50
f 35 50 36
f 37 51 52
f 37 52 39
f 38 39 52
f 38 52 51
f 38 51 53
f 40 42 55
f 40 55 56
f 40 56 57
f 40 57 58
f 40 58 54
f 41 59 42
f 42 60 55
f 42 59 61
f 42 61 60
f 43 62 44
f 44 62 51
f 46 63 47
f 47 63 64
f 48 65 49
f 49 65 66
f 49 66 50
f 50 66 67
f 51 62 68
f 51 68 53
f 54 58 57
f 54 57 70
f 54 70 71
f 54 71 69
f 55 60 56
f 56 72 73
f 56 73 74
f 56 74 70
f 56 70 57
f 56 60 72
f 59 75 61
f 60 61 76
f 60 76 72
f 61 63 77
f 61 77 76
f 61 75 63
f 63 75 78
f 63 78 79
f 63 79 64
f 65 80 81
f 65 81 66
f 66 81 82
f 66 82 67
f 67 82 83
f 67 83 84
f 69 71 85
f 70 86 71
f 71 86 87
f 71 87 88
f 71 88 85
f 72 77 73
f 72 76 77
f 80 89 81
f 81 89 90
f 81 90 82
f 82 91 92
f 82 92 93
f 82 93 94
f 82 94 83
f 82 90 91
f 83 94 84
f 86 95 87
f 87 95 88
f 88 95 89
f 89 95 93
f 89 93 92
f 89 92 91
f 89 91 90
f 93 95 94

