# https://github.com/mikedh/trimesh
v -0.47585231000000006 -0.34098401 2.01898211
v -0.47585231000000006 -0.34098401 1.96896122
v -0.47600785999999995 -0.34098401 2.02148132
v -0.47585231000000006 -0.34132129 2.02148132
v -0.47585231000000006 -0.36119337 1.96891452
v -0.6292052000000001 -0.34098401 1.96914265
v -0.47904068 -0.34098401 2.02148132
v -0.47585231000000006 -0.36119337 2.02149682
v -0.47585231000000006 -0.6279906399999999 1.96855674
v -0.64584698 -0.34098401 1.96916341
v -0.47904068 -0.36119337 2.02149682
v -0.99244629 -0.34098401 2.02126351
v -0.9793039699999999 -0.34452555 2.02127388
v -0.9959457199999999 -0.41122488 2.0213569
v -0.9793039699999999 -0.42789268 2.02138279
v -0.87922021 -0.42789268 2.02141905
v -0.47585231000000006 -0.37786116000000003 2.0215072
v -0.47585231000000006 -0.62807497 1.96855674
v -0.6124857000000001 -0.62807497 1.96873822
v -0.84951391 -0.34098401 1.96946418
v -0.47904068 -0.37786116000000003 2.0215072
v -1.11274901 -0.34098401 2.02116498
v -1.27030122 -0.39452897 2.02113909
v -1.09602949 -0.39452897 2.02126351
v -1.12939074 -0.42789268 2.02128426
v -0.9793039699999999 -0.51125981 2.02139317
v -0.87922021 -0.44456049 2.0214243
v -0.47585231000000006 -0.41122488 2.02152283
v -0.47585231000000006 -0.62807497 2.02143468
v -0.86265623 -0.62807497 1.96915822
v -0.86265623 -0.34098401 1.96950044
v -1.27030122 -0.34098401 2.02101981
v -1.27030122 -0.37786116000000003 2.02110283
v -1.27030122 -0.41122488 2.0211546
v -1.12939074 -0.44456049 2.02128426
v -0.9793039699999999 -0.52792761 2.02138804
v -0.9626622499999999 -0.51125981 2.0213983
v -1.12939074 -0.51125981 2.02127913
v -0.47585231000000006 -0.61132286 2.02144505
v -0.9626622499999999 -0.52792761 2.02139317
v -0.87922021 -0.52792761 2.02140867
v -0.9459427199999999 -0.54459541 2.02138279
v -0.9626622499999999 -0.54459541 2.02137766
v -0.9626622499999999 -0.61132286 2.02129989
v -0.9626622499999999 -0.62807497 2.02127388
v -1.07938775 -0.62807497 1.96982191
v -0.94951992 -0.34098401 1.96977008
v -1.27030122 -0.34098401 1.97271523
v -1.27030122 -0.53537613 2.0211546
v -0.9959457199999999 -0.54459541 2.0213569
v -1.12939074 -0.52792761 2.02127388
v -1.12939074 -0.54459541 2.02125838
v -1.27030122 -0.62807497 2.02104582
v -1.09602949 -0.62807497 1.96993081
v -1.07938775 -0.34098401 1.97035599
v -1.0662454399999999 -0.34098401 1.97027303
v -1.04952592 -0.34098401 1.97019007
v -1.04602649 -0.34098401 1.97017451
v -1.27030122 -0.35374485 1.97267378
v -1.09602949 -0.34098401 1.97049078
v -1.27030122 -0.54459541 2.02114947
v -1.27030122 -0.62807497 1.97251298
v -1.08288718 -0.34098401 1.97038194
v -1.27030122 -0.59462693 1.97250267
v -1.27030122 -0.57795912 1.97250267
v -1.27030122 -0.36119337 1.97265821
f 1 2 6
f 1 6 10
f 1 10 20
f 1 20 31
f 1 31 47
f 1 47 58
f 1 58 57
f 1 57 56
f 1 56 55
f 1 55 63
f 1 63 60
f 1 60 48
f 1 48 32
f 1 32 22
f 1 22 12
f 1 12 7
f 1 7 3
f 1 3 4
f 1 4 8
f 1 8 17
f 1 17 28
f 1 28 39
f 1 39 29
f 1 29 18
f 1 18 9
f 1 9 5
f 1 5 2
f 2 5 6
f 3 7 11
f 3 11 8
f 3 8 4
f 5 9 10
f 5 10 6
f 7 12 13
f 7 13 14
f 7 14 15
f 7 15 16
f 7 16 11
f 8 11 21
f 8 21 17
f 9 18 19
f 9 19 10
f 10 19 20
f 11 16 21
f 12 22 23
f 12 23 24
f 12 24 14
f 12 14 13
f 14 24 25
f 14 25 15
f 15 26 27
f 15 27 16
f 15 25 26
f 16 27 28
f 16 28 21
f 17 21 28
f 18 29 45
f 18 45 53
f 18 53 62
f 18 62 54
f 18 54 46
f 18 46 30
f 18 30 19
f 19 30 20
f 20 30 31
f 22 32 33
f 22 33 23
f 23 33 32
f 23 32 48
f 23 48 59
f 23 59 66
f 23 66 65
f 23 65 64
f 23 64 62
f 23 62 53
f 23 53 61
f 23 61 49
f 23 49 34
f 23 34 25
f 23 25 24
f 25 34 49
f 25 49 35
f 25 35 26
f 26 36 40
f 26 40 37
f 26 37 27
f 26 35 38
f 26 38 51
f 26 51 36
f 27 37 28
f 28 37 40
f 28 40 41
f 28 41 39
f 29 39 40
f 29 40 42
f 29 42 43
f 29 43 44
f 29 44 45
f 30 46 31
f 31 46 47
f 35 49 38
f 36 50 44
f 36 44 43
f 36 43 40
f 36 51 52
f 36 52 50
f 38 49 51
f 39 41 40
f 40 43 42
f 44 50 52
f 44 52 53
f 44 53 45
f 46 54 55
f 46 55 56
f 46 56 57
f 46 57 58
f 46 58 47
f 48 60 59
f 49 61 51
f 51 61 52
f 52 61 53
f 54 60 63
f 54 63 55
f 54 62 64
f 54 64 65
f 54 65 66
f 54 66 60
f 59 60 66

