# https://github.com/mikedh/trimesh
v 0.12456085 2.03891399 0.17927839
v 0.12456085 2.03891399 0.09815126
v 0.08633089 2.03891399 0.17941613
v 0.12456085 1.88917503 0.17972411
v 0.12456085 1.73918157 0.09815126
v -0.01369417 2.03891399 0.09807019
v 0.06963179 2.03891399 0.17947288
v 0.12456085 1.87250437 0.17974843
v -0.39684110 2.03891399 0.18085053
v 0.12456085 1.71775999 0.09815936
v -0.24697300 2.03891399 0.09809451
v 0.12456085 1.60556183 0.17964305
v -0.41354019 2.03891399 0.18085864
v -0.23027387 1.60556183 0.18008878
v -0.19696044 1.60556183 0.18006446
v 0.10294522 1.60556183 0.17967547
v 0.12456085 1.70588268 0.09816747
v -0.28028643 1.72251091 0.09832953
v -0.29698553 1.72251091 0.09833764
v -0.26358733 2.03891399 0.09810262
v 0.12456085 1.60556183 0.09832953
v -0.48008230 1.60556183 0.18020221
v -0.24697300 1.60556183 0.18009688
v -0.48050616 2.03891399 0.18085864
v -0.74141903 1.62252941 0.18027516
v -0.74141903 1.60556183 0.18025084
v 0.12456085 1.68921202 0.09819173
v -0.28028643 1.60556183 0.09841864
v -0.28003212 2.03891399 0.09811072
v -0.29698553 1.60556183 0.09842675
v -0.31343035 1.72251091 0.09835385
v -0.46346797 2.03891399 0.09827279
v -0.53043391 2.03891399 0.18082621
v -0.74141903 1.87797642 0.18053450
v -0.74141903 1.64471454 0.18029948
v -0.74141903 1.60556183 0.09912371
v -0.31343035 1.60556183 0.09844296
v -0.51356527 1.60556183 0.09867799
v -0.51356527 2.03891399 0.09834575
v -0.54713301 2.03891399 0.18081000
v -0.74141903 1.88917503 0.18054261
v -0.74141903 2.03891399 0.09881573
v -0.73073838 2.03891399 0.09879142
v -0.56349305 2.03891399 0.09844296
v -0.53017961 1.60556183 0.09870231
v -0.54687872 2.03891399 0.09841054
v -0.74141903 2.03891399 0.18056693
v -0.74141903 2.02249784 0.18056693
f 1 2 6
f 1 6 11
f 1 11 20
f 1 20 29
f 1 29 32
f 1 32 39
f 1 39 46
f 1 46 44
f 1 44 43
f 1 43 42
f 1 42 47
f 1 47 40
f 1 40 33
f 1 33 24
f 1 24 13
f 1 13 9
f 1 9 7
f 1 7 3
f 1 3 4
f 1 4 8
f 1 8 12
f 1 12 21
f 1 21 27
f 1 27 17
f 1 17 10
f 1 10 5
f 1 5 2
f 2 5 6
f 3 7 4
f 4 7 9
f 4 9 8
f 5 10 11
f 5 11 6
f 8 9 12
f 9 13 23
f 9 23 14
f 9 14 15
f 9 15 16
f 9 16 12
f 10 17 11
f 11 17 18
f 11 18 19
f 11 19 20
f 12 16 15
f 12 15 14
f 12 14 23
f 12 23 22
f 12 22 26
f 12 26 36
f 12 36 45
f 12 45 38
f 12 38 37
f 12 37 30
f 12 30 28
f 12 28 21
f 13 22 23
f 13 24 25
f 13 25 26
f 13 26 22
f 17 27 28
f 17 28 18
f 18 28 30
f 18 30 19
f 19 29 20
f 19 30 37
f 19 37 31
f 19 31 32
f 19 32 29
f 21 28 27
f 24 33 34
f 24 34 35
f 24 35 25
f 25 35 34
f 25 34 41
f 25 41 48
f 25 48 47
f 25 47 42
f 25 42 36
f 25 36 26
f 31 37 32
f 32 38 39
f 32 37 38
f 33 40 41
f 33 41 34
f 36 42 43
f 36 43 44
f 36 44 45
f 38 45 39
f 39 45 46
f 40 47 48
f 40 48 41
f 44 46 45

