# https://github.com/mikedh/trimesh
v -2.34488345 1.55930356 1.92893783
v -2.33405785 1.61606450 1.92893783
v -2.27157416 1.55930356 1.92893783
v -2.34808907 1.55930356 1.93185723
v -2.77753938 1.56376597 1.92927728
v -2.27908905 1.61606450 1.92893783
v -2.77753938 1.61607004 1.93241394
v -2.24072648 1.55930356 1.93288244
v -2.34808907 1.55930356 1.99816858
v -2.77753938 1.56376597 1.99731993
v -2.24072648 1.61606450 1.93775039
v -2.34814162 1.61607004 1.93690173
v -2.77753938 1.61607004 1.99681066
v -2.24072648 1.55930356 1.99807357
v -2.29806011 1.55930356 1.99829757
v -2.63134131 1.56376597 1.99765264
v -2.66465892 1.61607004 1.99708902
v -2.24072648 1.61606450 1.99763226
v -2.34814162 1.61607004 1.93736337
v -2.27782781 1.55930356 1.99824321
v -2.61462994 1.56376597 1.99768650
v -2.24808366 1.61606450 1.99763905
v -2.27104868 1.61606450 1.99763905
v -2.30436627 1.61606450 1.99761867
v -2.31471891 1.61606450 1.99761187
v -2.33137771 1.61606450 1.99759828
v -2.64800011 1.61607004 1.99712299
v -2.35439524 1.61607004 1.99755072
f 1 2 6
f 1 6 3
f 1 3 8
f 1 8 14
f 1 14 20
f 1 20 15
f 1 15 9
f 1 9 4
f 1 4 5
f 1 5 2
f 2 5 7
f 2 7 6
f 3 6 8
f 4 9 10
f 4 10 5
f 5 10 13
f 5 13 7
f 6 11 8
f 6 7 12
f 6 12 11
f 7 13 17
f 7 17 27
f 7 27 28
f 7 28 19
f 7 19 12
f 8 11 18
f 8 18 14
f 9 15 10
f 10 16 17
f 10 17 13
f 10 15 16
f 11 12 19
f 11 19 18
f 14 18 20
f 15 21 16
f 15 20 18
f 15 18 22
f 15 22 23
f 15 23 24
f 15 24 25
f 15 25 26
f 15 26 27
f 15 27 21
f 16 21 27
f 16 27 17
f 18 19 28
f 18 28 22
f 22 28 23
f 23 28 24
f 24 28 25
f 25 28 26
f 26 28 27

