# https://github.com/mikedh/trimesh
v -2.06978637 -0.29718107 0.9519375
v -2.13023315 -0.29718107 0.95493819
v -2.06978637 -0.32783501 0.95180339
v -2.06978637 -0.29718107 0.87489195
v -2.1320096299999998 -0.29718107 0.95452748
v -2.1371006699999997 -0.32785904 0.95062994
v -2.12875655 -0.32785904 0.95123343
v -2.11336801 -0.32785904 0.95164414
v -2.08002231 -0.32785904 0.95176148
v -2.06978637 -0.32785904 0.91436187
v -2.06978637 -0.30728993 0.87994618
v -2.0967028599999997 -0.32785904 0.87621627
v -2.11336801 -0.32785904 0.87093575
v -2.11350644 -0.29718107 0.86967008
v -2.1401152999999997 -0.29718107 0.95250747
v -2.14248396 -0.32785904 0.94229843
v -2.14079205 -0.29718107 0.9515687
v -2.07207045 -0.32785904 0.90111862
v -2.06978637 -0.327829 0.90128626
v -2.08730517 -0.32785904 0.88261997
v -2.13004856 -0.32785904 0.87122909
v -2.13004856 -0.29718107 0.86931805
v -2.1448449199999997 -0.29718107 0.94270913
v -2.1456600999999997 -0.29718107 0.93974198
v -2.1466367799999997 -0.32781999 0.92577789
v -2.1466290900000002 -0.32785904 0.92577789
v -2.14315301 -0.29718107 0.8755625
v -2.14071517 -0.29718107 0.87428845
v -2.13017929 -0.29718107 0.86933481
v -2.14273773 -0.32785904 0.87798484
v -2.1480595300000003 -0.29718107 0.92577789
v -2.14832099 -0.29718107 0.90910648
v -2.14835177 -0.29718107 0.90639916
v -2.14695211 -0.32785904 0.89243507
v -2.14760577 -0.29718107 0.89008816
v -2.14830561 -0.29718107 0.89243507
f 1 2 3
f 1 3 10
f 1 10 19
f 1 19 11
f 1 11 4
f 1 4 14
f 1 14 22
f 1 22 29
f 1 29 28
f 1 28 27
f 1 27 35
f 1 35 36
f 1 36 33
f 1 33 32
f 1 32 31
f 1 31 24
f 1 24 23
f 1 23 17
f 1 17 15
f 1 15 5
f 1 5 2
f 2 5 6
f 2 6 7
f 2 7 8
f 2 8 3
f 3 8 9
f 3 9 10
f 4 11 12
f 4 12 13
f 4 13 14
f 5 15 6
f 6 16 26
f 6 26 34
f 6 34 30
f 6 30 21
f 6 21 13
f 6 13 12
f 6 12 20
f 6 20 18
f 6 18 10
f 6 10 9
f 6 9 8
f 6 8 7
f 6 15 17
f 6 17 16
f 10 18 19
f 11 19 20
f 11 20 12
f 13 21 22
f 13 22 14
f 16 17 23
f 16 23 24
f 16 24 25
f 16 25 26
f 18 20 19
f 21 27 28
f 21 28 29
f 21 29 22
f 21 30 27
f 24 31 25
f 25 31 32
f 25 32 33
f 25 33 34
f 25 34 26
f 27 30 35
f 30 34 36
f 30 36 35
f 33 36 34

