# https://github.com/mikedh/trimesh
v 1.80830635 2.05240174 1.89376790
v 1.79808347 2.05240174 1.89486631
v 1.80964362 2.05240174 1.89376790
v 1.81110975 2.03830556 1.89445610
v 1.80313450 2.03830556 1.89592066
v 1.80277198 2.03830556 1.89600542
v 1.79186436 2.05240174 1.90212460
v 1.82493358 2.05240174 1.89378823
v 1.82126817 2.03830556 1.89445610
v 1.79778542 2.03830556 1.90433834
v 1.77655023 2.05240174 1.92840158
v 1.82841369 2.05240174 1.89504262
v 1.83129768 2.04937549 1.89653424
v 1.82959792 2.03830556 1.89755468
v 1.79051100 2.03830556 1.92840158
v 1.85884061 2.05240174 1.92840158
v 1.84028798 2.05240174 1.90171100
v 1.84174610 2.05240174 1.90280261
v 1.83656618 2.03830556 1.90588765
v 1.84395340 2.03830556 1.92840158
f 1 2 7
f 1 7 11
f 1 11 16
f 1 16 18
f 1 18 17
f 1 17 12
f 1 12 8
f 1 8 3
f 1 3 9
f 1 9 4
f 1 4 2
f 2 4 5
f 2 5 6
f 2 6 7
f 3 8 9
f 4 9 14
f 4 14 19
f 4 19 20
f 4 20 15
f 4 15 10
f 4 10 6
f 4 6 5
f 6 10 7
f 7 10 11
f 8 12 9
f 9 12 13
f 9 13 14
f 10 15 11
f 11 15 20
f 11 20 16
f 12 17 13
f 13 17 14
f 14 17 18
f 14 18 19
f 16 20 19
f 16 19 18

