# https://github.com/mikedh/trimesh
v 0.37878655 1.54978375 1.49703866
v 0.37861507 1.57063060 1.49703866
v 0.32726752 1.54978375 1.49703866
v 0.37464584 1.54978375 1.44291753
v 0.33493864 1.57063060 1.49703866
v 0.37444914 1.57063060 1.44283263
v 0.32727759 1.54978375 1.49569093
v 0.37441886 1.54978375 1.44283263
v 0.33580613 1.57063060 1.44283263
v 0.32876545 1.54978375 1.44283263
f 1 2 5
f 1 5 3
f 1 3 7
f 1 7 10
f 1 10 8
f 1 8 4
f 1 4 2
f 2 4 6
f 2 6 9
f 2 9 5
f 3 5 7
f 4 8 6
f 5 9 7
f 6 8 10
f 6 10 9
f 7 9 10

