# https://github.com/mikedh/trimesh
v -3.31008425 2.06259108 0.20359656
v -3.31008425 2.11132387 0.20359656
v -3.29803687 2.06257108 0.20359656
v -3.31008425 2.06240112 0.43669109
v -3.31008425 2.11140386 0.21557528
v -3.13140586 2.11232863 0.20359656
v -3.18133710 2.06249109 0.20359656
v -3.31008425 2.11175377 0.43669109
v -3.26470100 2.06242111 0.43669109
v -3.31008425 2.11163879 0.25354214
v -3.31008425 2.11170877 0.26558928
v -3.31008425 2.11172877 0.27022108
v -3.31008425 2.11179376 0.28687719
v -3.03139822 2.11289849 0.28687719
v -2.89815146 2.11317842 0.20359656
v -3.23136514 2.06244111 0.43669109
v -3.24800886 2.06243110 0.43669109
v -2.94808271 2.06273604 0.20359656
v -3.31008425 2.11182375 0.30353331
v -3.11471372 2.11248858 0.43669109
v -3.03139822 2.11291848 0.30353331
v -3.01475447 2.11294846 0.28687719
v -3.01475447 2.11296846 0.30353331
v -2.99806234 2.11301346 0.30353331
v -2.81580362 2.11345335 0.27022108
v -2.88145933 2.11321839 0.20359656
v -3.21467297 2.06247610 0.43669109
v -2.83138294 2.06305096 0.20359656
v -2.81580362 2.06343586 0.43669109
v -3.01475447 2.11276852 0.43669109
v -2.99806234 2.11301346 0.32018948
v -3.01475447 2.11296346 0.32018948
v -2.81580362 2.11346834 0.28799521
v -2.81580362 2.11333837 0.20359656
v -2.81580362 2.06312594 0.20359656
v -2.81580362 2.11324840 0.43669109
v -2.91474682 2.11304345 0.43669109
v -2.81580362 2.11344334 0.32126184
v -2.81580362 2.11346333 0.30462855
v -2.89805469 2.11307843 0.43669109
f 1 2 6
f 1 6 15
f 1 15 26
f 1 26 34
f 1 34 35
f 1 35 28
f 1 28 18
f 1 18 7
f 1 7 3
f 1 3 4
f 1 4 8
f 1 8 19
f 1 19 13
f 1 13 12
f 1 12 11
f 1 11 10
f 1 10 5
f 1 5 2
f 2 5 6
f 3 7 4
f 4 7 9
f 4 9 17
f 4 17 16
f 4 16 27
f 4 27 29
f 4 29 36
f 4 36 40
f 4 40 37
f 4 37 30
f 4 30 20
f 4 20 8
f 5 10 6
f 6 10 11
f 6 11 12
f 6 12 13
f 6 13 14
f 6 14 15
f 7 16 17
f 7 17 9
f 7 18 16
f 8 20 21
f 8 21 19
f 13 19 14
f 14 21 23
f 14 23 22
f 14 22 15
f 14 19 21
f 15 22 23
f 15 23 24
f 15 24 25
f 15 25 26
f 16 18 27
f 18 28 29
f 18 29 27
f 20 30 31
f 20 31 32
f 20 32 21
f 21 32 23
f 23 32 31
f 23 31 24
f 24 31 33
f 24 33 25
f 25 33 39
f 25 39 38
f 25 38 36
f 25 36 29
f 25 29 35
f 25 35 34
f 25 34 26
f 28 35 29
f 30 37 31
f 31 37 38
f 31 38 39
f 31 39 33
f 36 38 40
f 37 40 38

