# https://github.com/mikedh/trimesh
v -3.56031549 2.06413601 0.78326088
v -3.56031549 2.11257012 0.78326088
v -3.41472283 2.06326226 0.78326088
v -3.31498308 2.05489659 0.80176783
v -3.56031549 2.05489659 0.82995787
v -3.56031549 2.11624484 0.80355584
v -3.54804399 2.11631299 0.80355584
v -3.39809139 2.11696984 0.80355584
v -3.39826282 2.11322080 0.78326088
v -3.31833873 2.06293384 0.78326088
v -3.31473810 2.06292764 0.78326088
v -3.31473810 2.05489659 0.80176783
v -3.56031549 2.05489659 0.88668624
v -3.56031549 2.11735406 0.81581640
v -3.56031549 2.11771348 0.82022836
v -3.39809139 2.11815965 0.82022836
v -3.38141096 2.11818442 0.82022836
v -3.31008425 2.11705040 0.80355584
v -3.31008425 2.11643074 0.80011916
v -3.33168801 2.11331375 0.78326088
v -3.38145990 2.11324557 0.78326088
v -3.31008425 2.06299580 0.78326088
v -3.31008425 2.05489659 0.80239479
v -3.31008425 2.05489659 0.88668624
v -3.31008425 2.05490279 0.90391606
v -3.54826441 2.05490279 0.90379995
v -3.56031549 2.05490279 0.90373029
v -3.56031549 2.11685832 0.85355018
v -3.39809139 2.11721151 0.85355018
v -3.38141096 2.11721771 0.85355018
v -3.31008425 2.11820301 0.82022836
v -3.31008425 2.11788699 0.81558421
v -3.31008425 2.11333232 0.78326088
v -3.31028018 2.11333232 0.78326088
v -3.31008425 2.06430332 1.02048438
v -3.43110935 2.06422897 1.02048438
v -3.53106958 2.06421037 1.02048438
v -3.53133900 2.06421037 1.02048438
v -3.54804399 2.06425993 1.02048438
v -3.56031549 2.06432192 1.02048438
v -3.56031549 2.10976919 1.02039150
v -3.39833631 2.11075446 1.02048438
v -3.31503207 2.11112008 1.02048438
v -3.31008425 2.11112628 1.02048438
v -3.36473047 2.11719914 0.85355018
v -3.31008425 2.11705040 0.85355018
v -3.56031549 2.07597809 1.02048438
v -3.54831340 2.10978778 1.02048438
f 1 2 9
f 1 9 21
f 1 21 20
f 1 20 34
f 1 34 33
f 1 33 22
f 1 22 11
f 1 11 10
f 1 10 3
f 1 3 4
f 1 4 5
f 1 5 13
f 1 13 27
f 1 27 40
f 1 40 47
f 1 47 41
f 1 41 28
f 1 28 15
f 1 15 14
f 1 14 6
f 1 6 2
f 2 6 7
f 2 7 8
f 2 8 9
f 3 10 4
f 4 10 11
f 4 11 12
f 4 12 23
f 4 23 24
f 4 24 13
f 4 13 5
f 6 14 7
f 7 14 8
f 8 14 15
f 8 15 16
f 8 16 17
f 8 17 18
f 8 18 19
f 8 19 20
f 8 20 21
f 8 21 9
f 11 22 12
f 12 22 23
f 13 24 25
f 13 25 26
f 13 26 27
f 15 28 16
f 16 28 29
f 16 29 17
f 17 30 31
f 17 31 32
f 17 32 18
f 17 29 30
f 18 32 31
f 18 31 46
f 18 46 44
f 18 44 35
f 18 35 25
f 18 25 24
f 18 24 23
f 18 23 22
f 18 22 33
f 18 33 19
f 19 33 34
f 19 34 20
f 25 35 36
f 25 36 37
f 25 37 38
f 25 38 26
f 26 38 27
f 27 38 39
f 27 39 40
f 28 41 42
f 28 42 43
f 28 43 29
f 29 43 44
f 29 44 30
f 30 44 45
f 30 45 31
f 31 45 46
f 35 44 43
f 35 43 42
f 35 42 48
f 35 48 47
f 35 47 40
f 35 40 39
f 35 39 38
f 35 38 37
f 35 37 36
f 41 47 48
f 41 48 42
f 44 46 45

