# https://github.com/mikedh/trimesh
v -2.2979454649999997 -0.62429142 0.71866088
v -2.2979454649999997 -0.62429142 0.67455257
v -2.298013515 -0.62429142 0.728318
v -2.2979454649999997 -0.62764045 0.72839127
v -2.2979454649999997 -0.63348141 0.66171984
v -2.465081465 -0.63265962 0.66119058
v -2.4484019349999997 -0.62429142 0.6732823
v -2.2979454649999997 -0.67802639 0.73041878
v -2.2982858449999997 -0.62429142 0.728318
v -2.631809035 -0.69470977 0.73187629
v -2.5650907849999998 -0.69470977 0.73186815
v -2.5484112549999995 -0.69470977 0.73184373
v -2.5150521249999995 -0.69470977 0.73174601
v -2.2979454649999997 -0.64470381 0.65344699
v -2.465081465 -0.64468614 0.65303174
v -2.4984065949999996 -0.64468614 0.65308059
v -2.4984065949999996 -0.63265962 0.66124757
v -2.531867825 -0.62429142 0.67313576
v -2.4984065949999996 -0.62429142 0.67312759
v -2.465115515 -0.62429142 0.67315204
v -2.3316449649999997 -0.69470977 0.7308422
v -2.2979454649999997 -0.69470977 0.73052461
v -2.4984065949999996 -0.69470977 0.7316646
v -2.3112550249999995 -0.62429142 0.72828541
v -2.645629275 -0.69470977 0.73185187
v -2.631809035 -0.70868032 0.72469455
v -2.5817703749999996 -0.70858312 0.72471084
v -2.5650907849999998 -0.70857429 0.72470269
v -2.5150521249999995 -0.70859196 0.72458869
v -2.4984065949999996 -0.70858312 0.72453167
v -2.3316449649999997 -0.70837987 0.72400242
v -2.2979454649999997 -0.70857429 0.72375001
v -2.2979454649999997 -0.65484816 0.65071924
v -2.5317316649999997 -0.65623549 0.65078437
v -2.5150521249999995 -0.64468614 0.65312129
v -2.5484112549999995 -0.64468614 0.6532353
v -2.5150521249999995 -0.63268613 0.66129645
v -2.548581415 -0.62429142 0.67316832
v -2.398363215 -0.62429142 0.727919
v -2.645629275 -0.6780352199999999 0.73071192
v -2.645629275 -0.70868032 0.7246701
v -2.645629275 -0.7133901899999999 0.71165013
v -2.631809035 -0.71435337 0.70897936
v -2.6151295049999996 -0.70868032 0.72467827
v -2.5484112549999995 -0.70858312 0.72466196
v -2.2979454649999997 -0.7138497 0.70945977
v -2.2979454649999997 -0.65501605 0.65070296
v -2.5317316649999997 -0.66456834 0.65034466
v -2.5484112549999995 -0.65653593 0.65080065
v -2.2979454649999997 -0.66356098 0.65017367
v -2.2979454649999997 -0.6784063499999999 0.64933499
v -2.5650907849999998 -0.64468614 0.65332485
v -2.5484112549999995 -0.63276564 0.661386
v -2.5317316649999997 -0.63272146 0.66134529
v -2.5650907849999998 -0.63284517 0.66144302
v -2.5653631049999994 -0.62429142 0.67333931
v -2.4150428049999997 -0.62429142 0.7278457
v -2.645629275 -0.62429142 0.72569608
v -2.645629275 -0.71435337 0.70897936
v -2.6151295049999996 -0.71434454 0.70897936
v -2.645629275 -0.71456545 0.67563551
v -2.2979454649999997 -0.71399108 0.70897936
v -2.5484112549999995 -0.6648687799999999 0.65036097
v -2.5650907849999998 -0.66540782 0.65038539
v -2.645629275 -0.66146672 0.65087395
v -2.645629275 -0.6600528800000001 0.65095536
v -2.5650907849999998 -0.65706613 0.65083324
v -2.5817703749999996 -0.64468614 0.65346327
v -2.2979454649999997 -0.69470977 0.64869173
v -2.5484112549999995 -0.6780352199999999 0.64980726
v -2.5817703749999996 -0.6329954 0.66155699
v -2.5991307150000003 -0.62429142 0.67389299
v -2.5817703749999996 -0.62429142 0.67359989
v -2.645629275 -0.62429142 0.67482939
v -2.5150521249999995 -0.71448592 0.67563551
v -2.645629275 -0.7105978399999999 0.66179314
v -2.5317316649999997 -0.7103592599999999 0.65895138
v -2.5150521249999995 -0.7103504199999999 0.65895138
v -2.2979454649999997 -0.7139557400000001 0.67563551
v -2.6151295049999996 -0.6780352199999999 0.64998639
v -2.631809035 -0.6677494900000001 0.65049937
v -2.645629275 -0.66839457 0.65054825
v -2.645629275 -0.64468614 0.65447297
v -2.5984499149999998 -0.64468614 0.65371571
v -2.2979454649999997 -0.7047392299999999 0.6494897
v -2.5317316649999997 -0.7045625 0.6497747
v -2.5317316649999997 -0.69470977 0.64921285
v -2.5984499149999998 -0.63318097 0.66170356
v -2.645629275 -0.6339762600000001 0.66246897
v -2.2979454649999997 -0.7101737100000001 0.65895138
v -2.645629275 -0.70975838 0.65895138
v -2.631809035 -0.6780352199999999 0.65005155
v -2.645629275 -0.67013536 0.65046681
v -2.5484112549999995 -0.7044741400000001 0.64982354
v -2.645629275 -0.70396161 0.65013296
v -2.5484112549999995 -0.69470977 0.649278
v -2.645629275 -0.70494247 0.6516149
v -2.645629275 -0.69470977 0.64971771
v -2.645629275 -0.6780352199999999 0.6501411
f 1 2 7
f 1 7 20
f 1 20 19
f 1 19 18
f 1 18 38
f 1 38 56
f 1 56 73
f 1 73 72
f 1 72 74
f 1 74 58
f 1 58 57
f 1 57 39
f 1 39 24
f 1 24 9
f 1 9 3
f 1 3 4
f 1 4 8
f 1 8 22
f 1 22 32
f 1 32 46
f 1 46 62
f 1 62 79
f 1 79 90
f 1 90 85
f 1 85 69
f 1 69 51
f 1 51 50
f 1 50 47
f 1 47 33
f 1 33 14
f 1 14 5
f 1 5 2
f 2 5 6
f 2 6 7
f 3 8 4
f 3 9 10
f 3 10 11
f 3 11 12
f 3 12 13
f 3 13 8
f 5 14 6
f 6 14 15
f 6 15 16
f 6 16 17
f 6 17 18
f 6 18 19
f 6 19 20
f 6 20 7
f 8 21 22
f 8 13 23
f 8 23 21
f 9 24 25
f 9 25 10
f 10 25 41
f 10 41 26
f 10 26 11
f 11 26 27
f 11 27 28
f 11 28 12
f 12 28 29
f 12 29 13
f 13 29 30
f 13 30 31
f 13 31 32
f 13 32 23
f 14 33 15
f 15 33 16
f 16 34 35
f 16 35 17
f 16 33 34
f 17 35 36
f 17 36 37
f 17 37 38
f 17 38 18
f 21 32 22
f 21 23 32
f 24 39 40
f 24 40 25
f 25 40 58
f 25 58 74
f 25 74 89
f 25 89 83
f 25 83 66
f 25 66 65
f 25 65 82
f 25 82 93
f 25 93 99
f 25 99 98
f 25 98 95
f 25 95 97
f 25 97 91
f 25 91 76
f 25 76 61
f 25 61 59
f 25 59 42
f 25 42 41
f 26 41 42
f 26 42 43
f 26 43 44
f 26 44 28
f 26 28 27
f 28 45 29
f 28 44 45
f 29 45 44
f 29 44 46
f 29 46 32
f 29 32 30
f 30 32 31
f 33 47 34
f 34 48 63
f 34 63 49
f 34 49 36
f 34 36 35
f 34 47 50
f 34 50 51
f 34 51 48
f 36 49 52
f 36 52 53
f 36 53 37
f 37 53 54
f 37 54 38
f 38 54 53
f 38 53 55
f 38 55 56
f 39 57 40
f 40 57 58
f 42 59 43
f 43 60 44
f 43 59 61
f 43 61 60
f 44 60 46
f 46 60 62
f 48 51 63
f 49 63 64
f 49 64 65
f 49 65 66
f 49 66 67
f 49 67 68
f 49 68 52
f 51 69 70
f 51 70 63
f 52 55 53
f 52 68 55
f 55 68 71
f 55 71 72
f 55 72 73
f 55 73 56
f 60 61 75
f 60 75 62
f 61 76 77
f 61 77 78
f 61 78 75
f 62 75 79
f 63 70 80
f 63 80 64
f 64 80 81
f 64 81 65
f 65 81 82
f 66 83 84
f 66 84 68
f 66 68 67
f 68 84 71
f 69 85 86
f 69 86 87
f 69 87 70
f 70 87 80
f 71 84 83
f 71 83 88
f 71 88 74
f 71 74 72
f 74 88 89
f 75 78 90
f 75 90 79
f 76 91 77
f 77 91 86
f 77 86 85
f 77 85 78
f 78 85 90
f 80 92 81
f 80 87 96
f 80 96 92
f 81 92 93
f 81 93 82
f 83 89 88
f 86 91 94
f 86 94 87
f 87 94 95
f 87 95 96
f 91 97 94
f 92 98 99
f 92 99 93
f 92 96 98
f 94 97 95
f 95 98 96

