# https://github.com/mikedh/trimesh
v 2.07547441 2.11328724 0.44716459
v 1.90902789 2.11361795 0.44716459
v 2.07547441 2.06453364 0.44716459
v 2.07547441 2.11251058 0.20350196
v 1.83496274 2.11308681 0.20350196
v 1.83496274 2.11368808 0.44716459
v 1.83496274 2.06270475 0.44716459
v 2.07547441 2.06293524 0.20350196
v 1.83496274 2.06250433 0.20350196
v 1.84235515 2.06250933 0.20350196
v 2.05897101 2.06288011 0.20350196
f 1 2 6
f 1 6 7
f 1 7 3
f 1 3 8
f 1 8 4
f 1 4 5
f 1 5 2
f 2 5 6
f 3 7 8
f 4 8 11
f 4 11 10
f 4 10 9
f 4 9 5
f 5 9 7
f 5 7 6
f 7 9 10
f 7 10 11
f 7 11 8

