# https://github.com/mikedh/trimesh
v -2.81570046 2.06312043 0.20359668
v -2.81513302 2.06353230 0.42940722
v -2.81570046 2.06353734 0.42940722
v -2.81570046 2.11333828 0.20359668
v -2.64799440 2.06273368 0.20359668
v -2.63133213 2.06269852 0.20359668
v -2.59800756 2.06263322 0.20359668
v -2.43143641 2.06238711 0.20359668
v -2.41477415 2.06236702 0.20359668
v -2.43143641 2.06335149 0.42940722
v -2.81570046 2.11321773 0.42940722
v -2.81570046 2.11345380 0.27130673
v -2.81461716 2.11345380 0.27020141
v -2.79800647 2.11336841 0.20359668
v -2.34812502 2.06243733 0.20359668
v -2.41477415 2.06336657 0.42940722
v -2.81513302 2.11322274 0.42940722
v -2.81570046 2.11337342 0.35758556
v -2.81570046 2.11346384 0.28686921
v -2.79795488 2.11349901 0.28686921
v -2.73135736 2.11345380 0.20359668
v -2.28874955 2.06251770 0.20359668
v -2.30556660 2.06353230 0.42940722
v -2.81461716 2.11338850 0.35351810
v -2.79795488 2.11327298 0.42940722
v -2.81570046 2.11341362 0.33795562
v -2.81570046 2.11346384 0.30464220
v -2.79795488 2.11349901 0.30353694
v -2.58134530 2.11366978 0.27020141
v -2.58134530 2.11364969 0.25355578
v -2.56468303 2.11358439 0.20359668
v -2.28874955 2.11308714 0.20359668
v -2.28874955 2.06358756 0.42940722
v -2.29813820 2.06355239 0.42940722
v -2.81570046 2.11344375 0.32126577
v -2.79795488 2.11343371 0.35351810
v -2.74796804 2.11332824 0.42940722
v -2.56468303 2.11366978 0.28686921
v -2.56468303 2.11367982 0.27020141
v -2.48147481 2.11353918 0.20359668
v -2.28874955 2.11318256 0.25355578
v -2.29813820 2.11312230 0.20359668
v -2.29813820 2.11319764 0.23688799
v -2.28874955 2.11326294 0.42940722
v -2.59052760 2.11337846 0.42940722
v -2.46476097 2.11337846 0.42940722
v -2.32398280 2.11332824 0.42940722
v -2.31480048 2.11332320 0.42940722
v -2.31480048 2.11331316 0.27020141
v -2.31480048 2.11329307 0.25355578
v -2.31480048 2.11325790 0.23688799
v -2.31480048 2.11317252 0.20359668
v -2.28874955 2.11319261 0.26091702
v -2.29813820 2.11322777 0.25355578
v -2.28874955 2.11322777 0.28686921
v -2.29813820 2.11327298 0.28686921
v -2.29813820 2.11329307 0.42940722
f 1 2 3
f 1 3 11
f 1 11 18
f 1 18 26
f 1 26 35
f 1 35 27
f 1 27 19
f 1 19 12
f 1 12 4
f 1 4 14
f 1 14 21
f 1 21 31
f 1 31 40
f 1 40 52
f 1 52 42
f 1 42 32
f 1 32 22
f 1 22 15
f 1 15 9
f 1 9 8
f 1 8 7
f 1 7 6
f 1 6 5
f 1 5 2
f 2 5 6
f 2 6 7
f 2 7 8
f 2 8 9
f 2 9 10
f 2 10 16
f 2 16 23
f 2 23 34
f 2 34 33
f 2 33 44
f 2 44 57
f 2 57 48
f 2 48 47
f 2 47 46
f 2 46 45
f 2 45 37
f 2 37 25
f 2 25 17
f 2 17 11
f 2 11 3
f 4 12 13
f 4 13 14
f 9 15 16
f 9 16 10
f 11 17 18
f 12 19 20
f 12 20 13
f 13 20 21
f 13 21 14
f 15 22 16
f 16 22 23
f 17 24 18
f 17 25 24
f 18 24 26
f 19 27 28
f 19 28 20
f 20 28 29
f 20 29 30
f 20 30 21
f 21 30 31
f 22 32 41
f 22 41 53
f 22 53 55
f 22 55 44
f 22 44 33
f 22 33 34
f 22 34 23
f 24 35 26
f 24 25 36
f 24 36 35
f 25 37 36
f 27 35 28
f 28 36 38
f 28 38 29
f 28 35 36
f 29 38 39
f 29 39 30
f 30 39 31
f 31 39 40
f 32 42 43
f 32 43 41
f 36 37 38
f 37 45 38
f 38 45 46
f 38 46 47
f 38 47 48
f 38 48 39
f 39 48 49
f 39 49 40
f 40 49 50
f 40 50 51
f 40 51 52
f 41 43 54
f 41 54 53
f 42 52 51
f 42 51 43
f 43 51 50
f 43 50 54
f 44 55 56
f 44 56 57
f 48 57 49
f 49 57 56
f 49 56 50
f 50 56 54
f 53 54 56
f 53 56 55

