# https://github.com/mikedh/trimesh
v -3.8940855349999994 -0.69488918 0.47432688
v -3.8940855349999994 -0.7085922600000001 0.47238991
v -3.8940855349999994 -0.6894688600000001 0.47399951
v -3.9060089749999998 -0.71137637 0.49549728
v -3.9061735849999994 -0.71428229 0.49549728
v -3.906852595 -0.7258538 0.49549728
v -3.8940855349999994 -0.71483043 0.45880373
v -3.9082723049999997 -0.7341887300000001 0.49549728
v -3.8940855349999994 -0.67678372 0.46968899
v -3.907120085 -0.6969598699999999 0.49549728
v -3.906759975 -0.69860424 0.49549728
v -3.8940855349999994 -0.7175884299999999 0.44235298
v -3.9166156450000003 -0.73951336 0.49549728
v -3.908868955 -0.73520669 0.45880373
v -3.8940855349999994 -0.7175971400000001 0.4421211
v -3.8940855349999994 -0.67104148 0.4662379
v -3.909146765 -0.6902779800000001 0.49549728
v -3.9326335749999997 -0.74267158 0.49549728
v -3.917068265 -0.73937416 0.35614353
v -3.909229065 -0.73492826 0.39212777
v -3.8940855349999994 -0.7174492299999999 0.40879674
v -3.8940855349999994 -0.7175884299999999 0.42571126
v -3.8940855349999994 -0.65395397 0.44397624
v -3.8941884149999995 -0.65395397 0.44411264
v -3.9361725749999996 -0.66470761 0.49549728
v -3.9158337449999996 -0.68368311 0.49549728
v -3.9492996849999997 -0.7427673 0.49549728
v -3.9492996849999997 -0.74272379 0.4421347
v -3.9492996849999997 -0.7426977 0.42547938
v -3.9326335749999997 -0.74242797 0.35614353
v -3.915761755 -0.7384084200000001 0.35614353
v -3.9118729649999997 -0.73551119 0.35614353
v -3.908724975 -0.7331620999999999 0.35614353
v -3.9089101049999995 -0.73403211 0.37545879
v -3.8940855349999994 -0.71559606 0.39308263
v -3.911883285 -0.65394526 0.44626784
v -3.8940855349999994 -0.65395397 0.38195182
v -3.935184915 -0.65394526 0.47225345
v -3.9492996849999997 -0.6594003900000001 0.49549728
v -3.938795895 -0.66362878 0.49549728
v -3.962653145 -0.74281949 0.49549728
v -3.965965745 -0.7428281999999999 0.49216894
v -3.965965745 -0.7427673 0.42547938
v -3.965965745 -0.74267158 0.35878982
v -3.9492996849999997 -0.7425585 0.35614353
v -3.907140665 -0.7261322 0.35614353
v -3.8940855349999994 -0.7092447900000001 0.37806416
v -3.8940855349999994 -0.7109413600000001 0.38091508
v -3.8940855349999994 -0.7153959400000001 0.39212777
v -3.911883285 -0.65394526 0.38148799
v -3.8940855349999994 -0.69505449 0.37584074
v -3.906759975 -0.6999093000000001 0.35614353
v -3.9102783949999997 -0.69158304 0.35614353
v -3.9186217450000003 -0.6828130800000001 0.35614353
v -3.9363783349999997 -0.66486422 0.35614353
v -3.9492996849999997 -0.65919158 0.35614353
v -3.9492996849999997 -0.65394526 0.37236239
v -3.9324792849999994 -0.65394526 0.37620908
v -3.9470157849999996 -0.65394526 0.47713688
v -3.9492996849999997 -0.65394526 0.47764156
v -3.952612285 -0.65933949 0.49549728
v -3.965965745 -0.7428281999999999 0.49549728
v -3.979329515 -0.74245407 0.49549728
v -3.9826524349999994 -0.74235837 0.45880373
v -3.9826524349999994 -0.74222788 0.35878982
v -3.9826524349999994 -0.74234099 0.4421347
v -3.9685891250000003 -0.74259327 0.35614353
v -3.965965745 -0.7426629 0.35614353
v -3.906862855 -0.7248184200000001 0.35614353
v -3.8940855349999994 -0.6989174499999999 0.37641365
v -3.9060089749999998 -0.71137637 0.35614353
v -3.906122175 -0.7095058000000001 0.35614353
v -3.965965745 -0.65857386 0.35614353
v -3.951532125 -0.65394526 0.37289433
v -3.9645975149999995 -0.65394526 0.47393128
v -3.965965745 -0.6591741799999999 0.49549728
v -3.9826524349999994 -0.74235837 0.49549728
v -3.9939997949999997 -0.7391653499999999 0.45880373
v -3.9939894750000002 -0.73906095 0.35614353
v -3.9826524349999994 -0.74221917 0.35614353
v -3.9939997949999997 -0.7391479400000001 0.4421347
v -3.9826524349999994 -0.65993112 0.35614353
v -3.9650707049999996 -0.65394526 0.37645456
v -3.971284495 -0.65394526 0.45880373
v -3.9826524349999994 -0.66021822 0.49549728
v -3.993968895 -0.73913055 0.49549728
v -3.9939894750000002 -0.73915665 0.47549996
v -3.9981045449999995 -0.72805498 0.35878982
v -3.9981045449999995 -0.72805498 0.35614353
v -3.9947302149999997 -0.66539494 0.35614353
v -3.9755127649999995 -0.65394526 0.40879674
v -3.9720972249999997 -0.65394526 0.39317811
v -3.9718606349999996 -0.65394526 0.39212777
v -3.9665315549999995 -0.65394526 0.37874622
v -3.9743708149999994 -0.65394526 0.44322601
v -3.974556005 -0.65394526 0.4421347
v -3.994689065 -0.66543844 0.49549728
v -3.9978370549999998 -0.72805498 0.49549728
v -3.997847375 -0.72805498 0.49216894
v -3.999184765 -0.71137637 0.35878982
v -3.999184765 -0.71137637 0.35614353
v -3.9953783449999998 -0.66737862 0.35614353
v -3.994781625 -0.66541235 0.39212777
v -3.9826524349999994 -0.6573384099999999 0.40879674
v -3.9755436049999995 -0.65394526 0.42547938
v -3.9754304649999996 -0.65394526 0.42805749
v -3.9826524349999994 -0.65774732 0.4421347
v -3.9826524349999994 -0.65738192 0.42547938
v -3.998783565 -0.6780452800000001 0.39212777
v -3.998577795 -0.6780452800000001 0.49549728
v -3.9980222449999996 -0.72474015 0.49549728
v -3.9987424049999998 -0.69472387 0.49549728
v -3.999153875 -0.69734268 0.35614353
v -3.9987218349999996 -0.71137637 0.49549728
v -3.9987320950000003 -0.70806154 0.49549728
v -3.9988041349999994 -0.6780452800000001 0.35614353
v -3.9988041349999994 -0.6780452800000001 0.35878982
v -3.998865865 -0.6806727800000001 0.35614353
v -3.9991436149999995 -0.69472387 0.35614353
v -3.9987218349999996 -0.69140904 0.49549728
f 1 2 7
f 1 7 12
f 1 12 15
f 1 15 22
f 1 22 21
f 1 21 35
f 1 35 49
f 1 49 48
f 1 48 47
f 1 47 70
f 1 70 51
f 1 51 37
f 1 37 23
f 1 23 16
f 1 16 9
f 1 9 3
f 1 3 4
f 1 4 5
f 1 5 6
f 1 6 2
f 2 6 8
f 2 8 7
f 3 9 10
f 3 10 11
f 3 11 4
f 4 11 10
f 4 10 17
f 4 17 26
f 4 26 25
f 4 25 40
f 4 40 39
f 4 39 61
f 4 61 76
f 4 76 85
f 4 85 97
f 4 97 110
f 4 110 120
f 4 120 112
f 4 112 115
f 4 115 114
f 4 114 111
f 4 111 98
f 4 98 86
f 4 86 77
f 4 77 63
f 4 63 62
f 4 62 41
f 4 41 27
f 4 27 18
f 4 18 13
f 4 13 8
f 4 8 6
f 4 6 5
f 7 8 12
f 8 13 14
f 8 14 15
f 8 15 12
f 9 16 17
f 9 17 10
f 13 18 19
f 13 19 14
f 14 19 20
f 14 20 21
f 14 21 22
f 14 22 15
f 16 23 24
f 16 24 25
f 16 25 26
f 16 26 17
f 18 27 28
f 18 28 29
f 18 29 30
f 18 30 19
f 19 30 45
f 19 45 68
f 19 68 67
f 19 67 80
f 19 80 79
f 19 79 89
f 19 89 101
f 19 101 113
f 19 113 119
f 19 119 118
f 19 118 116
f 19 116 102
f 19 102 90
f 19 90 82
f 19 82 73
f 19 73 56
f 19 56 55
f 19 55 54
f 19 54 53
f 19 53 52
f 19 52 72
f 19 72 71
f 19 71 69
f 19 69 46
f 19 46 33
f 19 33 32
f 19 32 31
f 19 31 20
f 20 31 32
f 20 32 33
f 20 33 34
f 20 34 21
f 21 34 33
f 21 33 35
f 23 36 24
f 23 37 50
f 23 50 36
f 24 36 38
f 24 38 39
f 24 39 40
f 24 40 25
f 27 41 28
f 28 41 42
f 28 42 43
f 28 43 44
f 28 44 29
f 29 44 45
f 29 45 30
f 33 46 47
f 33 47 48
f 33 48 49
f 33 49 35
f 36 50 58
f 36 58 57
f 36 57 74
f 36 74 83
f 36 83 94
f 36 94 93
f 36 93 92
f 36 92 91
f 36 91 105
f 36 105 106
f 36 106 96
f 36 96 95
f 36 95 84
f 36 84 75
f 36 75 60
f 36 60 59
f 36 59 38
f 37 51 52
f 37 52 53
f 37 53 54
f 37 54 55
f 37 55 56
f 37 56 57
f 37 57 58
f 37 58 50
f 38 59 39
f 39 59 60
f 39 60 61
f 41 62 42
f 42 62 63
f 42 63 64
f 42 64 43
f 43 65 44
f 43 64 66
f 43 66 65
f 44 65 67
f 44 67 68
f 44 68 45
f 46 69 47
f 47 69 70
f 51 70 69
f 51 69 71
f 51 71 72
f 51 72 52
f 56 73 57
f 57 73 74
f 60 75 76
f 60 76 61
f 63 77 64
f 64 78 81
f 64 81 66
f 64 77 78
f 65 66 79
f 65 79 80
f 65 80 67
f 66 81 79
f 73 82 83
f 73 83 74
f 75 84 85
f 75 85 76
f 77 86 87
f 77 87 78
f 78 87 88
f 78 88 89
f 78 89 81
f 79 81 89
f 82 90 91
f 82 91 92
f 82 92 93
f 82 93 94
f 82 94 83
f 84 95 85
f 85 95 96
f 85 96 97
f 86 98 99
f 86 99 88
f 86 88 87
f 88 100 101
f 88 101 89
f 88 99 100
f 90 102 103
f 90 103 104
f 90 104 91
f 91 104 105
f 96 106 107
f 96 107 97
f 97 107 108
f 97 108 104
f 97 104 103
f 97 103 109
f 97 109 110
f 98 111 99
f 99 111 100
f 100 112 113
f 100 113 101
f 100 111 114
f 100 114 115
f 100 115 112
f 102 116 103
f 103 116 117
f 103 117 109
f 104 108 105
f 105 108 106
f 106 108 107
f 109 117 118
f 109 118 119
f 109 119 110
f 110 119 120
f 112 120 119
f 112 119 113
f 116 118 117

