# https://github.com/mikedh/trimesh
v -3.72075150 2.04480330 0.89964288
v -3.74643355 2.04480330 0.92019859
v -3.74645799 2.04472696 0.92041838
v -3.74804069 2.01481218 0.92041838
v -3.72075150 2.01481218 0.89664954
v -3.72075150 2.04480330 0.83311944
v -3.78791806 2.04480330 0.92041838
v -3.78662088 2.01481218 0.92041838
v -3.72075150 2.01481218 0.83423933
v -3.74052698 2.01481218 0.81349523
v -3.74139180 2.04480330 0.81349523
v -3.78885625 2.04480330 0.92041838
v -3.78773859 2.01490612 0.92041838
v -3.78773859 2.01481218 0.92019859
v -3.80312494 2.01481218 0.81349523
v -3.80391632 2.04480330 0.81349523
v -3.80279049 2.04480330 0.85931644
v -3.80269256 2.01481218 0.85353908
v -3.80321470 2.01481218 0.82021456
v -3.80409579 2.04480330 0.82021456
v -3.80358181 2.04480330 0.85353908
v -3.80376128 2.04480330 0.84265419
f 1 2 3
f 1 3 4
f 1 4 5
f 1 5 9
f 1 9 6
f 1 6 11
f 1 11 16
f 1 16 20
f 1 20 22
f 1 22 21
f 1 21 17
f 1 17 12
f 1 12 7
f 1 7 2
f 2 7 3
f 3 7 12
f 3 12 13
f 3 13 8
f 3 8 4
f 4 8 14
f 4 14 18
f 4 18 19
f 4 19 15
f 4 15 10
f 4 10 9
f 4 9 5
f 6 9 10
f 6 10 11
f 8 13 14
f 10 15 16
f 10 16 11
f 12 17 13
f 13 17 18
f 13 18 14
f 15 19 20
f 15 20 16
f 17 21 18
f 18 21 22
f 18 22 19
f 19 22 20

