# https://github.com/mikedh/trimesh
v -3.9094714449999994 -0.22776172 0.54221541
v -3.9115275249999995 -0.24442782000000002 0.54221541
v -3.911587765 -0.24442782000000002 0.52553665
v -3.9095402749999995 -0.22776172 0.52553665
v -3.9112952849999996 -0.21108726 0.54221541
v -3.9112866349999997 -0.21108726 0.55889417
v -3.9112952849999996 -0.21108726 0.57556025
v -3.9094886849999995 -0.22776172 0.55889417
v -3.909548925 -0.22776172 0.57556025
v -3.9116049349999997 -0.24442782000000002 0.55889417
v -3.9189344349999997 -0.25789435 0.54221541
v -3.918968855 -0.25796955 0.52553665
v -3.9193388049999998 -0.25803638 0.50887054
v -3.9120523049999996 -0.24442782000000002 0.50887054
v -3.910426365 -0.23145416000000002 0.49587279
v -3.909910225 -0.22776172 0.49587279
v -3.9097381650000003 -0.22776172 0.50887054
v -3.9115533449999997 -0.21108726 0.50887054
v -3.911372695 -0.21108726 0.52553665
v -3.9188140249999996 -0.19917456 0.50887054
v -3.9187366049999994 -0.19920796000000002 0.52553665
v -3.918702195 -0.19920796000000002 0.54221541
v -3.9186849649999997 -0.19918291 0.57556025
v -3.918753785 -0.19916621 0.59223901
v -3.9189344349999997 -0.19906595 0.62553309
v -3.911450105 -0.21108726 0.59223901
v -3.911759765 -0.24442782000000002 0.57556025
v -3.9097381650000003 -0.22776172 0.59223901
v -3.9191065050000002 -0.25778576000000003 0.57556025
v -3.9189946749999995 -0.25784424 0.55889417
v -3.926633895 -0.26637361 0.50887054
v -3.9266683049999997 -0.26635689 0.49587279
v -3.9250509549999997 -0.26451068 0.49587279
v -3.9197602949999997 -0.25801968000000003 0.49587279
v -3.912525445 -0.24442782000000002 0.49587279
v -3.911751175 -0.21108726 0.49587279
v -3.917291325 -0.20179767 0.49587279
v -3.918900025 -0.19915783 0.49587279
v -3.9326299349999996 -0.19512289 0.62553309
v -3.912017895 -0.21108726 0.62553309
v -3.9120608949999998 -0.24442782000000002 0.59223901
v -3.9193129849999995 -0.25771057 0.59223901
v -3.910357535 -0.22776172 0.62553309
v -3.9269177849999997 -0.26588908 0.60891779
v -3.926883375 -0.2660478 0.59223901
v -3.934969905 -0.27454375000000003 0.50887054
v -3.928509255 -0.26816971 0.49587279
v -3.9352537949999995 -0.27451869 0.60891779
v -3.9326299349999996 -0.19534010000000002 0.49587279
v -3.9493020149999998 -0.19476367 0.62553309
v -3.936320545 -0.19525657000000002 0.49587279
v -3.9493020149999998 -0.19497253 0.49587279
v -3.912577035 -0.24442782000000002 0.60891779
v -3.919648465 -0.25755185 0.60891779
v -3.913282465 -0.24442782000000002 0.62553309
v -3.927072615 -0.26546302 0.62553309
v -3.935408625 -0.27452704 0.62553309
v -3.9493020149999998 -0.27975661 0.50887054
v -3.9350043149999996 -0.2744101 0.49587279
v -3.9493020149999998 -0.27982344 0.62553309
v -3.9659740349999995 -0.19458823 0.62553309
v -3.9529925649999997 -0.19491405 0.49587279
v -3.9659740349999995 -0.19473862 0.49587279
v -3.920293665 -0.2571258 0.62553309
v -3.9659740349999995 -0.27980673 0.50887054
v -3.9622834849999995 -0.27966471 0.49587279
v -3.9493020149999998 -0.27955611 0.49587279
v -3.9659740349999995 -0.27992368 0.62553309
v -3.9826461049999997 -0.19564084 0.62553309
v -3.9826461049999997 -0.19560741 0.49587279
v -3.9826461049999997 -0.27844504000000003 0.50887054
v -3.9826461049999997 -0.2783615 0.49587279
v -3.9789555649999997 -0.27866224 0.49587279
v -3.9659740349999995 -0.27967307 0.49587279
v -3.9826461049999997 -0.27849517 0.62553309
v -3.9937779849999995 -0.19976769 0.60891779
v -3.9937779849999995 -0.19979274000000002 0.62553309
v -3.993872635 -0.19965909 0.49587279
v -3.9940016949999997 -0.27328231000000003 0.49587279
v -3.9914896649999996 -0.27441845 0.49587279
v -3.9940274650000003 -0.27330737 0.62553309
v -3.9969782149999995 -0.21108726 0.60891779
v -3.996969635 -0.21113739 0.62553309
v -3.9964018450000003 -0.20856437 0.49587279
v -3.9946899049999995 -0.27058399 0.49587279
v -3.9971588750000002 -0.26114405 0.62553309
v -3.9971072850000002 -0.21108726 0.49587279
v -3.9973051149999996 -0.22781184000000002 0.62553309
v -3.997090045 -0.26111062 0.49587279
v -3.997244875 -0.2444863 0.62553309
v -3.9973481149999994 -0.22776172 0.49587279
v -3.997124455 -0.25741819 0.49587279
v -3.9972965249999994 -0.22406928 0.49587279
f 1 2 3
f 1 3 4
f 1 4 5
f 1 5 6
f 1 6 7
f 1 7 8
f 1 8 2
f 2 8 9
f 2 9 10
f 2 10 11
f 2 11 12
f 2 12 3
f 3 12 13
f 3 13 14
f 3 14 15
f 3 15 16
f 3 16 17
f 3 17 4
f 4 17 18
f 4 18 19
f 4 19 5
f 5 19 20
f 5 20 21
f 5 21 22
f 5 22 23
f 5 23 6
f 6 23 7
f 7 9 8
f 7 23 24
f 7 24 25
f 7 25 26
f 7 26 9
f 9 27 10
f 9 26 28
f 9 28 27
f 10 27 29
f 10 29 30
f 10 30 11
f 11 31 12
f 11 30 31
f 12 31 32
f 12 32 33
f 12 33 13
f 13 33 34
f 13 34 14
f 14 34 35
f 14 35 15
f 15 35 34
f 15 34 33
f 15 33 32
f 15 32 47
f 15 47 59
f 15 59 67
f 15 67 66
f 15 66 74
f 15 74 73
f 15 73 72
f 15 72 80
f 15 80 79
f 15 79 85
f 15 85 89
f 15 89 92
f 15 92 91
f 15 91 93
f 15 93 87
f 15 87 84
f 15 84 78
f 15 78 70
f 15 70 63
f 15 63 62
f 15 62 52
f 15 52 51
f 15 51 49
f 15 49 38
f 15 38 37
f 15 37 36
f 15 36 16
f 16 36 18
f 16 18 17
f 18 36 37
f 18 37 19
f 19 37 38
f 19 38 20
f 20 22 21
f 20 38 25
f 20 25 23
f 20 23 22
f 23 25 24
f 25 39 50
f 25 50 61
f 25 61 69
f 25 69 77
f 25 77 83
f 25 83 88
f 25 88 90
f 25 90 86
f 25 86 81
f 25 81 75
f 25 75 68
f 25 68 60
f 25 60 57
f 25 57 56
f 25 56 64
f 25 64 55
f 25 55 43
f 25 43 40
f 25 40 26
f 25 38 39
f 26 40 28
f 27 28 41
f 27 41 42
f 27 42 29
f 28 40 43
f 28 43 41
f 29 42 44
f 29 44 45
f 29 45 30
f 30 45 31
f 31 46 47
f 31 47 32
f 31 45 48
f 31 48 46
f 38 49 39
f 39 49 51
f 39 51 52
f 39 52 50
f 41 43 53
f 41 53 54
f 41 54 42
f 42 54 44
f 43 55 53
f 44 54 56
f 44 56 57
f 44 57 45
f 45 57 48
f 46 58 59
f 46 59 47
f 46 48 60
f 46 60 58
f 48 57 60
f 50 52 62
f 50 62 63
f 50 63 61
f 53 55 54
f 54 55 64
f 54 64 56
f 58 65 66
f 58 66 67
f 58 67 59
f 58 60 68
f 58 68 65
f 61 63 70
f 61 70 69
f 65 71 72
f 65 72 73
f 65 73 74
f 65 74 66
f 65 68 71
f 68 75 71
f 69 76 77
f 69 70 78
f 69 78 76
f 71 79 80
f 71 80 72
f 71 75 79
f 75 81 79
f 76 78 77
f 77 82 83
f 77 78 84
f 77 84 82
f 79 81 86
f 79 86 85
f 82 84 87
f 82 87 83
f 83 87 88
f 85 86 89
f 86 90 91
f 86 91 92
f 86 92 89
f 87 93 88
f 88 93 91
f 88 91 90

