# https://github.com/mikedh/trimesh
v 0.33486735 2.03914071 1.44283263
v 0.31655809 2.06319405 1.44283263
v 0.37450887 2.03914071 1.44283263
v 0.32241608 2.03914071 1.53685393
v 0.31608423 2.06271679 1.47023662
v 0.31370670 2.07237052 1.44283263
v 0.39231977 2.06488707 1.44283263
v 0.39231161 2.03914071 1.55189862
v 0.32240791 2.03914071 1.55353251
v 0.31314295 2.07237052 1.48688287
v 0.31320017 2.07237052 1.47023662
v 0.31092886 2.08902145 1.44283263
v 0.39231977 2.10979685 1.44283263
v 0.39231977 2.05772781 1.51504721
v 0.39231161 2.03914071 1.60217703
v 0.32240791 2.03914071 1.57017873
v 0.31323284 2.07237052 1.60772579
v 0.31026712 2.08902145 1.55353251
v 0.31030789 2.08902145 1.53685393
v 0.30972782 2.10569041 1.44283263
v 0.30895986 2.10569041 1.53685393
v 0.37331605 2.12086448 1.44283263
v 0.39231977 2.11752346 1.53685393
v 0.39231977 2.05772781 1.60316385
v 0.39231977 2.06959689 1.60772579
v 0.37896161 2.03914071 1.60809784
v 0.32242424 2.03914071 1.57029198
v 0.31629666 2.06289689 1.60772579
v 0.32194222 2.05772781 1.60809784
v 0.31043044 2.08902145 1.60772579
v 0.31035701 2.08902145 1.58687347
v 0.31029979 2.08902145 1.57019488
v 0.30885365 2.10569041 1.55353251
v 0.31315118 2.12235034 1.44283263
v 0.36818518 2.12381821 1.44283263
v 0.39231977 2.11766756 1.55351630
v 0.35898561 2.12910438 1.44283263
v 0.39231977 2.11275061 1.60772579
v 0.37941914 2.05765575 1.60809784
v 0.33409940 2.03914071 1.60809784
v 0.34896903 2.05772781 1.60809784
v 0.34233486 2.13105853 1.60772579
v 0.32413181 2.13093247 1.60772579
v 0.32062679 2.13078837 1.60772579
v 0.31578191 2.12756445 1.60772579
v 0.31375569 2.12401634 1.60772579
v 0.31033245 2.11071539 1.60772579
v 0.30906608 2.10569041 1.60772579
v 0.30904152 2.10569041 1.60351975
v 0.30895164 2.10569041 1.58687347
v 0.30888631 2.10569041 1.57019488
v 0.31262010 2.12235034 1.55353251
v 0.31266098 2.12235034 1.53685393
v 0.31719538 2.13077937 1.44283263
v 0.39231977 2.11766756 1.55353251
v 0.35898561 2.12936554 1.48688287
v 0.35973729 2.12945560 1.60772579
v 0.35538260 2.12963570 1.44283263
v 0.39231977 2.11601956 1.58687347
v 0.35350343 2.13047318 1.60772579
v 0.35141188 2.13077937 1.60772579
v 0.34233486 2.13105853 1.60351975
v 0.32566778 2.13113059 1.55353251
v 0.32566778 2.13108556 1.57019488
v 0.32566778 2.13103153 1.58687347
v 0.31710550 2.13084240 1.55353251
v 0.31716272 2.13079737 1.57019488
v 0.31723615 2.13075237 1.58687347
v 0.31729338 2.13071634 1.59947542
v 0.31266098 2.12235034 1.57019488
v 0.31275898 2.12235034 1.58687347
v 0.31709727 2.13084240 1.53685393
v 0.32566778 2.13107656 1.47023662
v 0.32566778 2.13105853 1.45355803
v 0.32566778 2.13104053 1.44283263
v 0.39231977 2.11746943 1.57019488
v 0.34933667 2.13063531 1.47023662
v 0.35095435 2.13073434 1.55353251
v 0.35898561 2.12940154 1.50356142
v 0.34892003 2.13061728 1.45355803
v 0.34850333 2.13059027 1.44283263
v 0.35141188 2.13077937 1.60351975
v 0.34233486 2.13102253 1.55353251
v 0.34058646 2.13096850 1.45355803
v 0.32566778 2.13112159 1.53685393
v 0.33483469 2.13098650 1.44283263
v 0.34314370 2.13082440 1.44283263
v 0.34016976 2.13095047 1.44283263
f 1 2 6
f 1 6 12
f 1 12 20
f 1 20 34
f 1 34 54
f 1 54 75
f 1 75 86
f 1 86 88
f 1 88 87
f 1 87 81
f 1 81 58
f 1 58 37
f 1 37 35
f 1 35 22
f 1 22 13
f 1 13 7
f 1 7 3
f 1 3 8
f 1 8 15
f 1 15 26
f 1 26 40
f 1 40 27
f 1 27 16
f 1 16 9
f 1 9 4
f 1 4 2
f 2 4 5
f 2 5 6
f 3 7 8
f 4 9 10
f 4 10 11
f 4 11 5
f 5 11 6
f 6 11 12
f 7 13 23
f 7 23 36
f 7 36 55
f 7 55 76
f 7 76 59
f 7 59 38
f 7 38 25
f 7 25 24
f 7 24 14
f 7 14 8
f 8 14 24
f 8 24 15
f 9 16 10
f 10 16 17
f 10 17 18
f 10 18 19
f 10 19 11
f 11 19 12
f 12 19 21
f 12 21 20
f 13 22 23
f 15 24 25
f 15 25 26
f 16 27 28
f 16 28 17
f 17 28 29
f 17 29 30
f 17 30 31
f 17 31 32
f 17 32 18
f 18 33 19
f 18 32 51
f 18 51 33
f 19 33 21
f 20 21 34
f 21 33 34
f 22 35 23
f 23 35 37
f 23 37 36
f 25 38 39
f 25 39 26
f 26 39 41
f 26 41 29
f 26 29 40
f 27 40 28
f 28 40 29
f 29 41 42
f 29 42 43
f 29 43 44
f 29 44 45
f 29 45 46
f 29 46 47
f 29 47 48
f 29 48 30
f 30 48 49
f 30 49 50
f 30 50 51
f 30 51 31
f 31 51 32
f 33 51 52
f 33 52 53
f 33 53 34
f 34 53 54
f 36 37 56
f 36 56 57
f 36 57 55
f 37 58 56
f 38 57 39
f 38 59 57
f 39 57 60
f 39 60 61
f 39 61 42
f 39 42 41
f 42 61 82
f 42 82 62
f 42 62 63
f 42 63 64
f 42 64 65
f 42 65 43
f 43 65 64
f 43 64 63
f 43 63 66
f 43 66 67
f 43 67 68
f 43 68 69
f 43 69 44
f 44 69 45
f 45 69 46
f 46 69 68
f 46 68 67
f 46 67 70
f 46 70 71
f 46 71 47
f 47 71 48
f 48 71 70
f 48 70 49
f 49 70 50
f 50 70 51
f 51 70 52
f 52 72 54
f 52 54 53
f 52 70 66
f 52 66 72
f 54 72 73
f 54 73 74
f 54 74 75
f 55 57 76
f 56 77 78
f 56 78 60
f 56 60 79
f 56 79 57
f 56 58 80
f 56 80 77
f 57 59 76
f 57 79 60
f 58 81 80
f 60 78 82
f 60 82 61
f 62 82 83
f 62 83 84
f 62 84 73
f 62 73 85
f 62 85 63
f 63 85 72
f 63 72 66
f 66 70 67
f 72 85 73
f 73 84 74
f 74 84 86
f 74 86 75
f 77 80 84
f 77 84 78
f 78 84 82
f 80 81 87
f 80 87 88
f 80 88 84
f 82 84 83
f 84 88 86

