# https://github.com/mikedh/trimesh
v -1.11272912 -0.62156672 1.42210556
v -1.11551801 -0.62156672 1.42211099
v -1.12938499 -0.57836807 1.42618888
v -1.11272912 -0.57836807 1.42618348
v -1.11234178 -0.57836807 1.42618348
v -0.9459381899999999 -0.57836807 1.42655713
v -0.9459381899999999 -0.62156672 1.42248464
v -1.26627284 -0.62156672 1.42244131
v -1.27030122 -0.57836807 1.4265084
v -0.9327684599999999 -0.62156672 1.42251715
v -0.47887714000000003 -0.57836807 1.42774856
v -1.27030122 -0.62156672 1.42246839
v -1.27030122 -0.57836807 1.47731163
v -0.9161126099999999 -0.62156672 1.42256587
v -0.47887714000000003 -0.57836807 1.47604437
v -0.47887714000000003 -0.62156672 1.42413638
v -1.27030122 -0.62156672 1.47743077
v -1.27030122 -0.5854261700000001 1.47734411
v -1.2627867099999999 -0.57836807 1.47731163
v -0.47887714000000003 -0.5946537199999999 1.47607688
v -1.24613086 -0.57836807 1.47729538
v -1.19608585 -0.5946537199999999 1.47728995
v -1.19608585 -0.61132421 1.47734411
v -0.47887714000000003 -0.62156672 1.47612021
v -1.27030122 -0.61132421 1.47741994
v -1.2627867099999999 -0.62156672 1.47742534
v -1.2627867099999999 -0.61132421 1.47741994
v -1.27030122 -0.5946537199999999 1.47738204
v -1.2627867099999999 -0.5946537199999999 1.47738204
v -1.24613086 -0.5946537199999999 1.47736036
v -1.25635678 -0.62156672 1.47741994
v -1.19608585 -0.62156672 1.47734953
f 1 2 3
f 1 3 4
f 1 4 5
f 1 5 6
f 1 6 7
f 1 7 10
f 1 10 14
f 1 14 16
f 1 16 24
f 1 24 32
f 1 32 31
f 1 31 26
f 1 26 17
f 1 17 12
f 1 12 8
f 1 8 2
f 2 8 3
f 3 8 9
f 3 9 13
f 3 13 19
f 3 19 21
f 3 21 15
f 3 15 11
f 3 11 6
f 3 6 5
f 3 5 4
f 6 10 7
f 6 11 10
f 8 12 9
f 9 12 17
f 9 17 25
f 9 25 28
f 9 28 18
f 9 18 13
f 10 11 14
f 11 15 20
f 11 20 24
f 11 24 16
f 11 16 14
f 13 18 19
f 15 21 22
f 15 22 23
f 15 23 20
f 17 26 27
f 17 27 25
f 18 28 29
f 18 29 19
f 19 29 21
f 20 23 24
f 21 29 30
f 21 30 22
f 22 30 23
f 23 30 29
f 23 29 27
f 23 27 31
f 23 31 32
f 23 32 24
f 25 27 29
f 25 29 28
f 26 31 27

