# https://github.com/mikedh/trimesh
v 0.18389032 1.79499612 0.20743329
v 0.18342200 2.03973254 0.20743329
v 0.24803058 1.79499612 0.20743329
v 0.18360416 1.79499612 0.24157112
v 0.18331793 2.03978047 0.22490809
v 0.18344155 2.03978047 0.20824505
v 0.18644655 2.03978047 0.20743329
v 0.24808911 1.79499612 0.25823416
v 0.24846635 2.03978047 0.20743329
v 0.24850539 2.03978047 0.22430995
v 0.24853138 2.03978047 0.24097293
v 0.24877857 2.03978047 0.44152737
v 0.18351958 1.79499612 0.25823416
v 0.18349359 1.79499612 0.26404483
v 0.18325940 2.03978047 0.24157112
v 0.24810211 1.79499612 0.27489719
v 0.24889563 2.03978047 0.62426517
v 0.18296668 1.79499612 0.43067506
v 0.18293419 1.79499612 0.44152737
v 0.18258944 2.03978047 0.50817948
v 0.24810860 1.79499612 0.28574950
v 0.24889563 2.03978047 0.64152637
v 0.18245288 1.79499612 0.64391901
v 0.18252441 2.03978047 0.54150552
v 0.24810860 1.79499612 0.29156017
v 0.18911340 2.03978047 0.64391901
v 0.24887614 2.03968462 0.64391901
v 0.24783543 1.79499612 0.64391901
v 0.24810211 1.79499612 0.30822320
v 0.18261549 2.03978047 0.64391901
v 0.18255040 2.03978047 0.60905483
v 0.18251141 2.03978047 0.55902305
v 0.18251141 2.03978047 0.55816855
f 1 2 7
f 1 7 9
f 1 9 3
f 1 3 8
f 1 8 16
f 1 16 21
f 1 21 25
f 1 25 29
f 1 29 28
f 1 28 23
f 1 23 19
f 1 19 18
f 1 18 14
f 1 14 13
f 1 13 4
f 1 4 2
f 2 5 6
f 2 6 7
f 2 4 5
f 3 9 10
f 3 10 11
f 3 11 12
f 3 12 8
f 4 13 5
f 5 13 14
f 5 14 15
f 5 15 20
f 5 20 24
f 5 24 33
f 5 33 32
f 5 32 31
f 5 31 30
f 5 30 26
f 5 26 22
f 5 22 17
f 5 17 12
f 5 12 11
f 5 11 10
f 5 10 9
f 5 9 7
f 5 7 6
f 8 12 16
f 12 17 16
f 14 18 15
f 15 18 19
f 15 19 20
f 16 17 21
f 17 22 25
f 17 25 21
f 19 23 20
f 20 23 24
f 22 26 27
f 22 27 28
f 22 28 29
f 22 29 25
f 23 28 27
f 23 27 26
f 23 26 30
f 23 30 31
f 23 31 32
f 23 32 33
f 23 33 24

