# https://github.com/mikedh/trimesh
v -1.65531864 2.04782922 1.28408364
v -1.65559866 2.04782922 1.04946632
v -1.72446287 2.04782922 1.28408364
v -1.65566870 1.98141779 1.28408364
v -1.65328151 1.54896230 1.27673391
v -1.72479189 2.04782922 1.04946632
v -1.65348453 1.54896230 1.18173859
v -1.65391857 1.54896230 1.04944335
v -1.65573867 1.98141779 1.04944335
v -1.72479189 2.04782922 1.05022426
v -1.72455389 1.54896230 1.04944335
v -1.72402185 1.54896230 1.27487349
v -1.72401488 1.54896230 1.27673391
v -1.72431588 1.98141779 1.28408364
v -1.72453290 1.98141779 1.04944335
f 1 2 6
f 1 6 10
f 1 10 3
f 1 3 14
f 1 14 4
f 1 4 5
f 1 5 2
f 2 5 7
f 2 7 8
f 2 8 9
f 2 9 15
f 2 15 6
f 3 10 11
f 3 11 12
f 3 12 13
f 3 13 14
f 4 14 13
f 4 13 5
f 5 13 12
f 5 12 11
f 5 11 8
f 5 8 7
f 6 15 11
f 6 11 10
f 8 11 15
f 8 15 9

