# https://github.com/mikedh/trimesh
v 0.34233957 1.46520569 1.03687257
v 0.34233957 1.46521520 1.05352366
v 0.32566891 1.46617618 0.97020464
v 0.34233128 1.46532937 0.90501964
v 0.35898543 1.46730841 0.90501964
v 0.35898543 1.46730841 1.02047569
v 0.35898543 1.46733696 1.03687257
v 0.35898543 1.46740357 1.05352366
v 0.34233957 1.46552917 1.12019159
v 0.32566891 1.46634743 1.12144148
v 0.31417281 1.47406379 0.97020464
v 0.31412322 1.47414941 0.90501964
v 0.32566891 1.46627131 0.90501964
v 0.31490726 1.47354999 1.12144148
v 0.31404895 1.47413040 1.12144148
v 0.36047091 1.46760337 0.90501964
v 0.37564780 1.47032455 1.00354920
v 0.37564780 1.47039116 1.02047569
v 0.37564780 1.47050533 1.03687257
v 0.35898543 1.46788882 1.12144148
v 0.34356922 1.46570045 1.12144148
v 0.34233957 1.46553871 1.12144148
v 0.31097070 1.48903979 1.12144148
v 0.31385094 1.47547196 0.90501964
v 0.37564780 1.47084785 0.90501964
v 0.37564780 1.47069562 0.92023018
v 0.37564780 1.47039116 0.98687692
v 0.37585416 1.47048629 1.02047569
v 0.38770514 1.47636634 0.95355355
v 0.38772988 1.47626167 0.98687692
v 0.38768863 1.47619506 1.00354920
v 0.38781243 1.47626167 1.03687257
v 0.38785368 1.47640439 1.05352366
v 0.38764739 1.47669935 1.10351931
v 0.37662163 1.47190397 1.12144148
v 0.37564780 1.47126649 1.10351931
v 0.37564780 1.47149484 1.12144148
v 0.31148235 1.50569986 1.12144148
v 0.31149892 1.50569986 0.90501964
v 0.31114403 1.49051456 0.90501964
v 0.31111101 1.48903028 0.90501964
v 0.37671241 1.47136165 0.90501964
v 0.38763910 1.47641390 0.93688127
v 0.39274762 1.48792657 0.90501964
v 0.39346556 1.48895416 1.12144148
v 0.38763910 1.47692770 1.12144148
v 0.31263774 1.52235044 1.12144148
v 0.31259649 1.52235044 1.12019159
v 0.31232422 1.52235044 1.10351931
v 0.31225817 1.52235044 1.08684704
v 0.31222515 1.52235044 1.07019594
v 0.31201880 1.52235044 0.90501964
v 0.38737505 1.47674691 0.90501964
v 0.38755661 1.47653758 0.92023018
v 0.39310245 1.48903028 0.90501964
v 0.39415054 1.50569986 1.12144148
v 0.39528119 1.50272178 0.90501964
v 0.31541891 1.53323516 1.12144148
v 0.31536944 1.53322563 1.12019159
v 0.31505580 1.53361574 1.10351931
v 0.31501455 1.53371087 1.08684704
v 0.31498153 1.53377748 1.07019594
v 0.31496508 1.53382505 1.05352366
v 0.31226640 1.52337803 0.90501964
v 0.37546625 1.56239743 1.12144148
v 0.39503359 1.50530978 0.90501964
v 0.39184806 1.51919157 0.90501964
v 0.33224639 1.56236890 1.12144148
v 0.31494851 1.53386310 1.02047569
v 0.31483300 1.53388215 0.90501964
v 0.33880737 1.56239743 1.12144148
v 0.37946885 1.55609877 0.90501964
v 0.37461622 1.56239743 1.02047569
v 0.33438389 1.56239743 1.11514966
v 0.33503585 1.56239743 1.02047569
v 0.33333574 1.55610827 0.90501964
v 0.33710731 1.55610827 0.90501964
f 1 2 3
f 1 3 4
f 1 4 5
f 1 5 6
f 1 6 2
f 2 6 7
f 2 7 8
f 2 8 9
f 2 9 10
f 2 10 3
f 3 11 12
f 3 12 13
f 3 13 4
f 3 10 14
f 3 14 15
f 3 15 11
f 4 13 12
f 4 12 24
f 4 24 41
f 4 41 40
f 4 40 39
f 4 39 52
f 4 52 64
f 4 64 70
f 4 70 76
f 4 76 77
f 4 77 72
f 4 72 67
f 4 67 66
f 4 66 57
f 4 57 55
f 4 55 44
f 4 44 53
f 4 53 42
f 4 42 25
f 4 25 16
f 4 16 5
f 5 16 17
f 5 17 6
f 6 17 7
f 7 17 18
f 7 18 8
f 8 18 19
f 8 19 20
f 8 20 21
f 8 21 9
f 9 21 22
f 9 22 10
f 10 22 21
f 10 21 20
f 10 20 37
f 10 37 35
f 10 35 46
f 10 46 45
f 10 45 56
f 10 56 65
f 10 65 71
f 10 71 68
f 10 68 58
f 10 58 47
f 10 47 38
f 10 38 23
f 10 23 15
f 10 15 14
f 11 15 12
f 12 15 23
f 12 23 24
f 16 25 26
f 16 26 27
f 16 27 17
f 17 28 18
f 17 27 29
f 17 29 30
f 17 30 31
f 17 31 32
f 17 32 28
f 18 28 19
f 19 32 33
f 19 33 34
f 19 34 35
f 19 35 36
f 19 36 20
f 19 28 32
f 20 36 37
f 23 38 39
f 23 39 40
f 23 40 41
f 23 41 24
f 25 42 26
f 26 42 43
f 26 43 29
f 26 29 27
f 29 43 44
f 29 44 30
f 30 44 32
f 30 32 31
f 32 45 33
f 32 44 45
f 33 45 46
f 33 46 34
f 34 46 35
f 35 37 36
f 38 47 48
f 38 48 49
f 38 49 50
f 38 50 51
f 38 51 52
f 38 52 39
f 42 53 54
f 42 54 43
f 43 54 44
f 44 54 53
f 44 55 45
f 45 55 57
f 45 57 56
f 47 58 59
f 47 59 48
f 48 59 60
f 48 60 49
f 49 60 50
f 50 60 61
f 50 61 62
f 50 62 51
f 51 62 63
f 51 63 52
f 52 63 64
f 56 57 66
f 56 66 67
f 56 67 65
f 58 68 59
f 59 68 60
f 60 68 61
f 61 68 62
f 62 68 63
f 63 68 69
f 63 69 70
f 63 70 64
f 65 67 72
f 65 72 73
f 65 73 75
f 65 75 74
f 65 74 71
f 68 71 74
f 68 74 75
f 68 75 70
f 68 70 69
f 70 75 76
f 72 77 73
f 73 77 76
f 73 76 75

