# https://github.com/mikedh/trimesh
v -2.00658678 -0.67803797 0.18703502
v -2.00658678 -0.69471062 0.18582376
v -2.00658678 -0.6734411499999999 0.18632195
v -2.07585964 -0.68976019 0.19196801
v -2.07585964 -0.6948040200000001 0.19157724
v -2.00658678 -0.70343723 0.18404591
v -2.00658678 -0.66664933 0.18526695
v -2.07585964 -0.6751691200000001 0.18870539
v -2.07585964 -0.70812078 0.18872496
v -2.00658678 -0.70468484 0.17883947
v -2.02998968 -0.66658928 0.18530602
v -2.00658678 -0.6445259 0.1642945
v -2.06434469 -0.6445259 0.16488059
v -2.0466653900000003 -0.66654926 0.1853158
v -2.06334105 -0.6665359200000001 0.18530602
v -2.07585964 -0.66662265 0.18532558
v -2.07585964 -0.7113298800000001 0.17531311
v -2.00658678 -0.7055254799999999 0.17531311
v -2.00658678 -0.6445259 0.11546292
v -2.07585964 -0.6445259 0.16464614
v -2.07585964 -0.7125774899999999 0.15863865
v -2.00658678 -0.70730684 0.15863865
v -2.00658678 -0.6572422099999999 0.10388749
v -2.00968592 -0.6445259 0.11541407
v -2.07585964 -0.6445259 0.11770961
v -2.07585964 -0.7126708900000001 0.14197397
v -2.00658678 -0.70732017 0.14869453
v -2.00658678 -0.6606047500000001 0.10153333
v -2.01331402 -0.65726222 0.10381914
v -2.01331402 -0.6445259 0.11536523
v -2.06334105 -0.6445259 0.11604902
v -2.07585964 -0.66658262 0.09856379
v -2.07585964 -0.71257082 0.12830817
v -2.00658678 -0.7073134999999999 0.14197397
v -2.00658678 -0.66558185 0.09821214
v -2.01331402 -0.66560188 0.09826099
v -2.02998968 -0.65748238 0.10399497
v -2.05485063 -0.6445259 0.11570709
v -2.03783585 -0.6445259 0.11548242
v -2.02101103 -0.6445259 0.11537501
v -2.06334105 -0.65796275 0.10478617
v -2.0466653900000003 -0.6577759400000001 0.10429777
v -2.07585964 -0.67803797 0.09493974
v -2.07585964 -0.7125441299999999 0.12528978
v -2.00658678 -0.7071800699999999 0.13202991
v -2.00658678 -0.67061901 0.09730369
v -2.00658678 -0.67803797 0.0960143
v -2.07585964 -0.69550455 0.09218515
v -2.00658678 -0.70708667 0.12528978
v -2.07585964 -0.71187029 0.11195607
v -2.00658678 -0.69471062 0.09749907
v -2.07585964 -0.70825421 0.095057
v -2.07585964 -0.71159007 0.10861538
v -2.00658678 -0.70553215 0.10861538
v -2.00658678 -0.7035906700000001 0.0997067
f 1 2 6
f 1 6 10
f 1 10 18
f 1 18 22
f 1 22 27
f 1 27 34
f 1 34 45
f 1 45 49
f 1 49 54
f 1 54 55
f 1 55 51
f 1 51 47
f 1 47 46
f 1 46 35
f 1 35 28
f 1 28 23
f 1 23 19
f 1 19 12
f 1 12 7
f 1 7 3
f 1 3 4
f 1 4 2
f 2 4 5
f 2 5 6
f 3 7 4
f 4 8 16
f 4 16 20
f 4 20 25
f 4 25 32
f 4 32 43
f 4 43 48
f 4 48 52
f 4 52 53
f 4 53 50
f 4 50 44
f 4 44 33
f 4 33 26
f 4 26 21
f 4 21 17
f 4 17 9
f 4 9 5
f 4 7 8
f 5 9 6
f 6 9 10
f 7 11 8
f 7 12 13
f 7 13 11
f 8 11 14
f 8 14 15
f 8 15 16
f 9 17 10
f 10 17 18
f 11 13 14
f 12 19 24
f 12 24 30
f 12 30 40
f 12 40 39
f 12 39 38
f 12 38 31
f 12 31 25
f 12 25 20
f 12 20 13
f 13 20 16
f 13 16 15
f 13 15 14
f 17 21 22
f 17 22 18
f 19 23 24
f 21 26 22
f 22 26 27
f 23 28 29
f 23 29 30
f 23 30 24
f 25 31 32
f 26 33 34
f 26 34 27
f 28 35 29
f 29 35 36
f 29 36 32
f 29 32 37
f 29 37 38
f 29 38 39
f 29 39 40
f 29 40 30
f 31 38 41
f 31 41 32
f 32 41 42
f 32 42 37
f 32 36 43
f 33 44 34
f 34 44 45
f 35 46 43
f 35 43 36
f 37 42 38
f 38 42 41
f 43 46 47
f 43 47 48
f 44 49 45
f 44 50 49
f 47 51 48
f 48 51 52
f 49 50 53
f 49 53 54
f 51 55 52
f 52 55 53
f 53 55 54

