# https://github.com/mikedh/trimesh
v -0.74141903 2.07362370 0.20818241
v -0.74141903 2.11912719 0.20818241
v -0.63017503 2.07355501 0.20818241
v -0.66347505 2.07017891 0.42486898
v -0.68023482 2.07021327 0.42486898
v -0.74141903 2.07070397 0.42486898
v -0.74141903 2.11897997 0.40818598
v -0.26358221 2.12023617 0.42668700
v -0.24872530 2.12026073 0.42668700
v -0.23028222 2.11989270 0.20818241
v -0.61348843 2.07354517 0.20818241
v -0.66347505 2.07035066 0.42668700
v -0.68023482 2.07036539 0.42668700
v -0.59687503 2.07357462 0.20818241
v -0.58018843 2.07364331 0.20818241
v -0.64686164 2.07025252 0.42486898
v -0.61165876 2.07055186 0.42668700
v -0.74141903 2.07068433 0.42668700
v -0.74141903 2.11896524 0.41935074
v -0.26541188 2.12023129 0.42668700
v -0.19690900 2.12030490 0.42668700
v -0.06363577 2.12007426 0.20818241
v 0.00303741 2.07647473 0.20818241
v 0.00625764 2.07647962 0.20822521
v -0.61348843 2.07045861 0.42486898
v -0.04694919 2.07556692 0.42668700
v -0.74141903 2.11891619 0.42668700
v -0.74141903 2.11895544 0.42486898
v -0.11362243 2.12029506 0.42668700
v -0.04694919 2.12007426 0.20818241
v 0.00625764 2.11173711 0.20818241
v 0.00625764 2.07577792 0.39152437
v -0.03026261 2.07578281 0.42668700
v -0.09876549 2.12028526 0.42668700
v -0.03026261 2.12005462 0.20818241
v 0.00303741 2.11998100 0.20818241
v 0.00625764 2.11997612 0.20822521
v 0.00625764 2.07834431 0.40367303
v -0.01782087 2.07839339 0.42668700
v -0.04877883 2.12018220 0.42668700
v 0.00625764 2.12002028 0.39152437
v -0.04694919 2.12017728 0.42486898
v 0.00625764 2.08900254 0.41207867
v -0.00889202 2.08876698 0.42668700
v -0.04694919 2.12017728 0.42668700
v 0.00625764 2.11746859 0.40427189
v -0.03026261 2.12010859 0.42668700
v -0.01364923 2.11725759 0.42668700
v 0.00625764 2.10584368 0.41423888
v -0.00281754 2.10600562 0.42668700
v -0.00142696 2.09438071 0.42181040
v -0.00874563 2.08900254 0.42668700
v 0.00625764 2.11671780 0.40780099
v -0.00501316 2.11432314 0.42668700
v -0.00281754 2.10624115 0.42668700
f 1 2 10
f 1 10 22
f 1 22 30
f 1 30 35
f 1 35 36
f 1 36 31
f 1 31 23
f 1 23 15
f 1 15 14
f 1 14 11
f 1 11 3
f 1 3 4
f 1 4 5
f 1 5 6
f 1 6 18
f 1 18 27
f 1 27 28
f 1 28 19
f 1 19 7
f 1 7 2
f 2 7 8
f 2 8 9
f 2 9 10
f 3 11 4
f 4 12 13
f 4 13 5
f 4 11 14
f 4 14 15
f 4 15 16
f 4 16 17
f 4 17 12
f 5 13 18
f 5 18 6
f 7 19 8
f 8 19 20
f 8 20 27
f 8 27 18
f 8 18 13
f 8 13 12
f 8 12 17
f 8 17 26
f 8 26 33
f 8 33 39
f 8 39 44
f 8 44 52
f 8 52 50
f 8 50 55
f 8 55 54
f 8 54 48
f 8 48 47
f 8 47 45
f 8 45 40
f 8 40 34
f 8 34 29
f 8 29 21
f 8 21 9
f 9 21 22
f 9 22 10
f 15 23 24
f 15 24 16
f 16 25 17
f 16 24 25
f 17 25 26
f 19 28 20
f 20 28 27
f 21 29 30
f 21 30 22
f 23 31 24
f 24 31 37
f 24 37 41
f 24 41 46
f 24 46 53
f 24 53 49
f 24 49 43
f 24 43 38
f 24 38 32
f 24 32 25
f 25 32 26
f 26 32 33
f 29 34 30
f 30 34 35
f 31 36 37
f 32 38 33
f 33 38 39
f 34 40 35
f 35 40 37
f 35 37 36
f 37 40 42
f 37 42 41
f 38 43 44
f 38 44 39
f 40 45 42
f 41 42 45
f 41 45 47
f 41 47 48
f 41 48 46
f 43 49 50
f 43 50 51
f 43 51 52
f 43 52 44
f 46 48 53
f 48 54 53
f 49 53 54
f 49 54 55
f 49 55 50
f 50 52 51

