# https://github.com/mikedh/trimesh
v -2.81580362 2.02219770 0.18026557
v -2.81580362 2.02219770 0.13402236
v -2.96472646 2.02219770 0.18074235
v -2.81580362 2.02123538 0.18026557
v -2.81580362 1.64415678 0.13458015
v -2.98127344 2.02219770 0.13274455
v -2.96472646 1.98899792 0.18068036
v -2.81580362 2.00565332 0.18026080
v -2.99806234 2.02219770 0.18079957
v -2.81580362 1.64415678 0.17915465
v -3.24800886 1.64415678 0.13238698
v -3.26470100 1.64415678 0.13230592
v -3.26978121 1.64415678 0.13228207
v -3.28134475 1.64415678 0.13222962
v -3.29803687 1.64415678 0.13215809
v -2.99806234 2.02219770 0.13268256
v -2.81580362 1.98899792 0.18022265
v -2.98141859 1.98899792 0.18070897
v -3.08137785 1.72236322 0.18026080
v -2.99806234 1.72236322 0.18011775
v -2.98141859 1.72236322 0.18008437
v -3.01475447 2.02219770 0.18081858
v -2.81580362 1.72236322 0.17955990
v -3.09802160 1.72236322 0.18027510
v -3.06463734 1.64415678 0.17925955
v -3.31008425 1.64415678 0.13211518
v -3.11456858 2.02219770 0.13235360
v -3.11471372 1.72236322 0.18027987
v -3.14814638 2.02219770 0.18075665
v -3.13130909 1.72236322 0.18027510
v -3.31008425 1.64415678 0.17914988
v -3.31008425 2.02219770 0.13228684
v -3.21467297 2.02219770 0.13225823
v -3.19788411 2.02219770 0.13226300
v -3.14790444 2.02219770 0.13229161
v -3.13121233 2.02219770 0.13231068
v -3.16469336 2.02219770 0.18070420
v -3.31008425 1.73905564 0.17977448
v -3.31008425 1.72698973 0.17974587
v -3.31008425 1.72236322 0.17971726
v -3.31008425 2.02219770 0.18014636
v -3.31008425 2.01031685 0.18017497
v -3.31008425 2.00565332 0.18017974
f 1 2 6
f 1 6 16
f 1 16 27
f 1 27 36
f 1 36 35
f 1 35 34
f 1 34 33
f 1 33 32
f 1 32 41
f 1 41 37
f 1 37 29
f 1 29 22
f 1 22 9
f 1 9 3
f 1 3 4
f 1 4 8
f 1 8 17
f 1 17 23
f 1 23 10
f 1 10 5
f 1 5 2
f 2 5 6
f 3 7 8
f 3 8 4
f 3 9 7
f 5 10 25
f 5 25 31
f 5 31 26
f 5 26 15
f 5 15 14
f 5 14 13
f 5 13 12
f 5 12 11
f 5 11 6
f 6 11 12
f 6 12 13
f 6 13 14
f 6 14 15
f 6 15 16
f 7 17 8
f 7 9 18
f 7 18 19
f 7 19 20
f 7 20 21
f 7 21 17
f 9 22 19
f 9 19 18
f 10 23 21
f 10 21 20
f 10 20 19
f 10 19 24
f 10 24 25
f 15 26 16
f 16 26 27
f 17 21 23
f 19 22 24
f 22 28 24
f 22 29 30
f 22 30 28
f 24 28 25
f 25 28 30
f 25 30 31
f 26 31 40
f 26 40 39
f 26 39 38
f 26 38 43
f 26 43 42
f 26 42 41
f 26 41 32
f 26 32 33
f 26 33 34
f 26 34 35
f 26 35 36
f 26 36 27
f 29 37 38
f 29 38 30
f 30 38 39
f 30 39 40
f 30 40 31
f 37 41 42
f 37 42 43
f 37 43 38

