# https://github.com/mikedh/trimesh
v -1.68024950 2.12251437 -0.00766504
v -1.66358426 2.12251437 -0.00690579
v -1.68024950 2.10584958 -0.00735617
v -1.69691468 2.10584958 -0.00754273
v -1.69691468 2.12251437 -0.00754273
v -1.69691468 2.13917917 -0.00455067
v -1.66358426 2.13654283 -0.00347599
v -1.65219169 2.13367830 -0.00205393
v -1.65034000 2.12251437 -0.00312205
v -1.65058062 2.10584958 -0.00289687
v -1.66358426 2.10584958 -0.00638448
v -1.68024950 2.14037422 -0.00345668
v -1.66358426 2.09445147 -0.00296124
v -1.68024950 2.09400109 -0.00358542
v -1.69691468 2.09387496 -0.00378486
v -1.71357986 2.09421126 -0.00330230
v -1.71357986 2.10584958 -0.00666761
v -1.71357986 2.12251437 -0.00681567
v -1.71495036 2.14078859 -0.00308343
v -1.71031589 2.14788688 -0.00061256
v -1.69691468 2.14812110 -0.00089568
v -1.68580458 2.14794696 -0.00066406
v -1.64968094 2.13614047 0.00820310
v -1.64329938 2.12251437 0.00820310
v -1.67469442 2.14672187 0.00320330
v -1.66457812 2.14460797 0.00853772
v -1.64346681 2.10584958 0.00820310
v -1.65251600 2.09568258 -0.00175149
v -1.66358426 2.09024173 0.00820310
v -1.68024950 2.08990544 0.00820310
v -1.69691468 2.08984539 0.00820310
v -1.71357986 2.09015167 0.00820310
v -1.73024510 2.09571259 -0.00178368
v -1.73899091 2.09709382 -0.00052887
v -1.73024510 2.10584958 -0.00361761
v -1.73024510 2.12251437 -0.00356611
v -1.73024510 2.13513159 -0.00172574
v -1.72142605 2.14741847 0.00056500
v -1.69691468 2.14872165 0.00820310
v -1.71495036 2.14813311 0.00695473
v -1.68024950 2.14818115 0.00853772
v -1.67080274 2.14779682 0.01430971
v -1.66159661 2.14562889 0.02487555
v -1.64862432 2.13729949 0.02487555
v -1.64092465 2.12251437 0.02487555
v -1.64067353 2.10584958 0.02487555
v -1.64984832 2.09400708 0.00820310
v -1.66358426 2.08896261 0.02487555
v -1.71370545 2.08746127 0.05807252
v -1.71357986 2.08916079 0.02487555
v -1.73024510 2.08993548 0.02487555
v -1.73024510 2.09219946 0.00820310
v -1.74029864 2.09573661 0.00820310
v -1.74234906 2.10584958 0.00820310
v -1.73924196 2.10584958 -0.00076050
v -1.73901189 2.12251437 -0.00053531
v -1.73868752 2.13110201 -0.00022644
v -1.72910480 2.14304060 0.00695473
v -1.73187709 2.14461998 0.02487555
v -1.72279649 2.14776678 0.01167784
v -1.74033000 2.13366027 0.00820310
v -1.71357986 2.14855347 0.02487555
v -1.71357986 2.14870362 0.05807252
v -1.69691468 2.14877568 0.05807252
v -1.68024950 2.14867960 0.04153519
v -1.68024950 2.14861353 0.02487555
v -1.66992398 2.14800701 0.02487555
v -1.66117812 2.14583909 0.04153519
v -1.64850923 2.13750366 0.04153519
v -1.64008773 2.12318097 0.05807252
v -1.63932401 2.12170365 0.05807252
v -1.63917756 2.10505087 0.05807252
v -1.64836278 2.09320238 0.02487555
v -1.66358426 2.08822994 0.05807252
v -1.68024950 2.08774952 0.05807252
v -1.69704021 2.08742524 0.05807252
v -1.73024510 2.08875241 0.05807252
v -1.73024510 2.08920282 0.04153519
v -1.74180510 2.09420527 0.02487555
v -1.74529916 2.10584958 0.02487555
v -1.74550849 2.12251437 0.02487555
v -1.74238041 2.12251437 0.00820310
v -1.74201432 2.13629061 0.02487555
v -1.73273493 2.14538868 0.05807252
v -1.73228509 2.14501636 0.04153519
v -1.72353923 2.14795295 0.02487555
v -1.72394728 2.14801301 0.04153519
v -1.72431338 2.14805506 0.05807252
v -1.68024950 2.14864357 0.05807252
v -1.66947414 2.14803703 0.05807252
v -1.66950550 2.14806105 0.04153519
v -1.66120953 2.14582708 0.05807252
v -1.66104216 2.14574300 0.05807252
v -1.64859291 2.13747365 0.05807252
v -1.64842554 2.09305826 0.05807252
v -1.74227586 2.09365878 0.05807252
v -1.74225488 2.09370682 0.04153519
v -1.74593741 2.10584958 0.04153519
v -1.74587459 2.12251437 0.04153519
v -1.74220255 2.13668093 0.04153519
v -1.74229673 2.13705928 0.05807252
v -1.72447032 2.14802502 0.05807252
v -1.74600011 2.10575952 0.05807252
v -1.74605245 2.12238226 0.05807252
v -1.74604196 2.12251437 0.05807252
v -1.74232820 2.13694519 0.05807252
f 1 2 3
f 1 3 4
f 1 4 5
f 1 5 6
f 1 6 2
f 2 7 8
f 2 8 9
f 2 9 10
f 2 10 11
f 2 11 3
f 2 6 12
f 2 12 7
f 3 11 13
f 3 13 14
f 3 14 15
f 3 15 4
f 4 15 16
f 4 16 17
f 4 17 18
f 4 18 5
f 5 18 6
f 6 18 19
f 6 19 20
f 6 20 21
f 6 21 22
f 6 22 12
f 7 12 22
f 7 22 8
f 8 23 24
f 8 24 9
f 8 22 25
f 8 25 26
f 8 26 23
f 9 24 27
f 9 27 10
f 10 28 11
f 10 27 28
f 11 28 13
f 13 28 29
f 13 29 14
f 14 29 30
f 14 30 15
f 15 30 31
f 15 31 32
f 15 32 16
f 16 32 33
f 16 33 17
f 17 33 34
f 17 34 35
f 17 35 18
f 18 35 36
f 18 36 37
f 18 37 19
f 19 37 38
f 19 38 20
f 20 39 21
f 20 38 40
f 20 40 39
f 21 39 22
f 22 41 42
f 22 42 25
f 22 39 41
f 23 26 43
f 23 43 44
f 23 44 45
f 23 45 24
f 24 45 46
f 24 46 27
f 25 42 26
f 26 42 43
f 27 46 47
f 27 47 28
f 28 47 29
f 29 47 48
f 29 48 30
f 30 48 31
f 31 49 50
f 31 50 32
f 31 48 49
f 32 50 51
f 32 51 52
f 32 52 33
f 33 52 34
f 34 53 54
f 34 54 55
f 34 55 35
f 34 52 53
f 35 55 36
f 36 55 56
f 36 56 57
f 36 57 37
f 37 57 38
f 38 58 59
f 38 59 60
f 38 60 40
f 38 57 61
f 38 61 58
f 39 40 62
f 39 62 63
f 39 63 64
f 39 64 65
f 39 65 66
f 39 66 41
f 40 60 62
f 41 66 42
f 42 67 43
f 42 66 67
f 43 68 44
f 43 67 68
f 44 68 69
f 44 69 70
f 44 70 45
f 45 70 71
f 45 71 46
f 46 71 72
f 46 72 73
f 46 73 47
f 47 73 48
f 48 73 74
f 48 74 75
f 48 75 76
f 48 76 49
f 49 77 78
f 49 78 51
f 49 51 50
f 49 76 75
f 49 75 74
f 49 74 95
f 49 95 72
f 49 72 71
f 49 71 70
f 49 70 94
f 49 94 93
f 49 93 92
f 49 92 90
f 49 90 89
f 49 89 64
f 49 64 63
f 49 63 88
f 49 88 102
f 49 102 84
f 49 84 101
f 49 101 106
f 49 106 105
f 49 105 104
f 49 104 103
f 49 103 96
f 49 96 77
f 51 78 79
f 51 79 53
f 51 53 52
f 53 79 80
f 53 80 54
f 54 80 81
f 54 81 82
f 54 82 55
f 55 82 56
f 56 82 57
f 57 82 61
f 58 61 83
f 58 83 59
f 59 83 84
f 59 84 85
f 59 85 86
f 59 86 60
f 60 86 62
f 61 82 81
f 61 81 83
f 62 86 87
f 62 87 63
f 63 87 88
f 64 89 65
f 65 89 90
f 65 90 91
f 65 91 66
f 66 91 67
f 67 91 68
f 68 91 90
f 68 90 92
f 68 92 93
f 68 93 69
f 69 93 94
f 69 94 70
f 72 95 73
f 73 95 74
f 77 96 97
f 77 97 78
f 78 97 79
f 79 97 98
f 79 98 80
f 80 98 81
f 81 99 83
f 81 98 99
f 83 99 100
f 83 100 84
f 84 100 101
f 84 102 87
f 84 87 86
f 84 86 85
f 87 102 88
f 96 103 97
f 97 103 98
f 98 103 104
f 98 104 99
f 99 104 105
f 99 105 106
f 99 106 100
f 100 106 101

