# https://github.com/mikedh/trimesh
v -3.56031555 2.06313912 0.91951672
v -3.67159938 2.06313912 0.92006577
v -3.56031555 2.04788420 0.90038969
v -3.56031555 2.06313912 0.80838502
v -3.67159938 2.04788420 0.90028885
v -3.66471428 2.04788420 0.90033367
v -3.63137815 2.04788420 0.90040090
v -3.67159938 2.06313912 0.80644654
v -3.56031555 2.04788420 0.83462724
v -3.57749559 2.06313912 0.80655860
v -3.67159938 2.04788420 0.83429110
v -3.67027031 2.06313912 0.80626726
v -3.66531343 2.06313912 0.80560616
f 1 2 3
f 1 3 9
f 1 9 4
f 1 4 10
f 1 10 13
f 1 13 12
f 1 12 8
f 1 8 2
f 2 5 6
f 2 6 7
f 2 7 3
f 2 8 11
f 2 11 5
f 3 7 6
f 3 6 5
f 3 5 11
f 3 11 9
f 4 9 10
f 8 12 11
f 9 11 13
f 9 13 10
f 11 12 13

