# https://github.com/mikedh/trimesh
v 1.35915496 1.57062322 1.93553291
v 1.35915496 1.57062322 1.99711895
v 1.35915496 1.61597220 1.93636345
v 1.65803102 1.57062322 1.93664836
v 1.35915496 1.61607007 1.99682796
v 1.44235812 1.57062322 1.99729479
v 1.46939037 1.61607007 1.99711299
v 1.45900460 1.61607007 1.99708867
v 1.35915496 1.61607007 1.99534880
v 1.36529865 1.61607007 1.93649679
v 1.65803102 1.61607007 1.93771530
v 1.65803102 1.57062322 1.99745846
v 1.49235608 1.57062322 1.99739790
v 1.47568035 1.61607007 1.99712503
v 1.65803102 1.61607007 1.99721599
v 1.62391889 1.57062322 1.99746454
v 1.65803102 1.61546061 1.99722207
v 1.50897331 1.61607007 1.99715531
v 1.52564905 1.61607007 1.99716747
f 1 2 5
f 1 5 9
f 1 9 3
f 1 3 4
f 1 4 12
f 1 12 16
f 1 16 13
f 1 13 6
f 1 6 2
f 2 6 7
f 2 7 8
f 2 8 5
f 3 9 10
f 3 10 11
f 3 11 4
f 4 11 15
f 4 15 17
f 4 17 12
f 5 8 7
f 5 7 14
f 5 14 18
f 5 18 19
f 5 19 15
f 5 15 11
f 5 11 10
f 5 10 9
f 6 13 7
f 7 13 14
f 12 17 16
f 13 18 14
f 13 16 19
f 13 19 18
f 15 19 17
f 16 17 19

