# https://github.com/mikedh/trimesh
v -2.09023076 -0.22776172 0.54221541
v -2.09227818 -0.24442782000000002 0.54221541
v -2.09029094 -0.22776172 0.52553665
v -2.09204594 -0.21108726 0.54221541
v -2.09203729 -0.21108726 0.55889417
v -2.09023935 -0.22776172 0.55889417
v -2.09029958 -0.22776172 0.57556025
v -2.0923556 -0.24442782000000002 0.55889417
v -2.0996851 -0.25789435 0.54221541
v -2.09971951 -0.25796955 0.52553665
v -2.09233842 -0.24442782000000002 0.52553665
v -2.09048883 -0.22776172 0.50887054
v -2.09230401 -0.21108726 0.50887054
v -2.09212336 -0.21108726 0.52553665
v -2.09956468 -0.19917456 0.50887054
v -2.09948727 -0.19920796000000002 0.52553665
v -2.09945286 -0.19920796000000002 0.54221541
v -2.09943562 -0.19918291 0.57556025
v -2.09204594 -0.21108726 0.57556025
v -2.09251043 -0.24442782000000002 0.57556025
v -2.09220077 -0.21108726 0.59223901
v -2.09048883 -0.22776172 0.59223901
v -2.09985717 -0.25778576000000003 0.57556025
v -2.09974534 -0.25784424 0.55889417
v -2.10738456 -0.26637361 0.50887054
v -2.10741897 -0.26635689 0.49587279
v -2.1058016200000003 -0.26451068 0.49587279
v -2.10008947 -0.25803638 0.50887054
v -2.09280297 -0.24442782000000002 0.50887054
v -2.09117703 -0.23145416000000002 0.49587279
v -2.09066089 -0.22776172 0.49587279
v -2.0925018399999997 -0.21108726 0.49587279
v -2.09804198 -0.20179767 0.49587279
v -2.09965069 -0.19915783 0.49587279
v -2.0996851 -0.19906595 0.62553309
v -2.09950445 -0.19916621 0.59223901
v -2.09281156 -0.24442782000000002 0.59223901
v -2.10006364 -0.25771057 0.59223901
v -2.0927685599999997 -0.21108726 0.62553309
v -2.0911082 -0.22776172 0.62553309
v -2.1076684500000002 -0.26588908 0.60891779
v -2.1076340399999998 -0.2660478 0.59223901
v -2.1157205699999997 -0.27454375000000003 0.50887054
v -2.10925992 -0.26816971 0.49587279
v -2.11600446 -0.27451869 0.60891779
v -2.10051095 -0.25801968000000003 0.49587279
v -2.0932760999999998 -0.24442782000000002 0.49587279
v -2.1133806 -0.19534010000000002 0.49587279
v -2.1133806 -0.19512289 0.62553309
v -2.0933276899999997 -0.24442782000000002 0.60891779
v -2.10039913 -0.25755185 0.60891779
v -2.0940331299999997 -0.24442782000000002 0.62553309
v -2.10782328 -0.26546302 0.62553309
v -2.1161592899999997 -0.27452704 0.62553309
v -2.13005268 -0.27975661 0.50887054
v -2.11575498 -0.2744101 0.49587279
v -2.13005268 -0.27982344 0.62553309
v -2.1170712 -0.19525657000000002 0.49587279
v -2.13005268 -0.19476367 0.62553309
v -2.13005268 -0.19497253 0.49587279
v -2.1010443299999997 -0.2571258 0.62553309
v -2.14672469 -0.27980673 0.50887054
v -2.14303415 -0.27966471 0.49587279
v -2.13005268 -0.27955611 0.49587279
v -2.14672469 -0.27992368 0.62553309
v -2.14672469 -0.19458823 0.62553309
v -2.13374322 -0.19491405 0.49587279
v -2.14672469 -0.19473862 0.49587279
v -2.16339677 -0.27844504000000003 0.50887054
v -2.16339677 -0.2783615 0.49587279
v -2.15970622 -0.27866224 0.49587279
v -2.14672469 -0.27967307 0.49587279
v -2.16339677 -0.27849517 0.62553309
v -2.16339677 -0.19564084 0.62553309
v -2.16339677 -0.19560741 0.49587279
v -2.1747523600000003 -0.27328231000000003 0.49587279
v -2.17224033 -0.27441845 0.49587279
v -2.17477812 -0.27330737 0.62553309
v -2.17452865 -0.19976769 0.60891779
v -2.17452865 -0.19979274000000002 0.62553309
v -2.1746233 -0.19965909 0.49587279
v -2.17544056 -0.27058399 0.49587279
v -2.17790953 -0.26114405 0.62553309
v -2.17772888 -0.21108726 0.60891779
v -2.17772029 -0.21113739 0.62553309
v -2.17715251 -0.20856437 0.49587279
v -2.17784071 -0.26111062 0.49587279
v -2.17800418 -0.2444863 0.62553309
v -2.17810742 -0.22776172 0.49587279
v -2.17787512 -0.25741819 0.49587279
v -2.17785794 -0.21108726 0.49587279
v -2.17805577 -0.22781184000000002 0.62553309
f 1 2 11
f 1 11 3
f 1 3 4
f 1 4 5
f 1 5 6
f 1 6 2
f 2 6 7
f 2 7 8
f 2 8 9
f 2 9 10
f 2 10 11
f 3 11 12
f 3 12 13
f 3 13 14
f 3 14 4
f 4 14 15
f 4 15 16
f 4 16 17
f 4 17 18
f 4 18 5
f 5 18 19
f 5 19 6
f 6 19 7
f 7 20 8
f 7 19 21
f 7 21 22
f 7 22 20
f 8 20 23
f 8 23 24
f 8 24 9
f 9 25 10
f 9 24 25
f 10 25 26
f 10 26 27
f 10 27 28
f 10 28 11
f 11 28 29
f 11 29 30
f 11 30 31
f 11 31 12
f 12 31 13
f 13 31 32
f 13 32 33
f 13 33 14
f 14 33 34
f 14 34 15
f 15 17 16
f 15 34 35
f 15 35 18
f 15 18 17
f 18 35 36
f 18 36 19
f 19 36 35
f 19 35 21
f 20 22 37
f 20 37 38
f 20 38 23
f 21 35 39
f 21 39 22
f 22 39 40
f 22 40 37
f 23 38 41
f 23 41 42
f 23 42 24
f 24 42 25
f 25 43 44
f 25 44 26
f 25 42 45
f 25 45 43
f 26 44 56
f 26 56 64
f 26 64 63
f 26 63 72
f 26 72 71
f 26 71 70
f 26 70 77
f 26 77 76
f 26 76 82
f 26 82 87
f 26 87 90
f 26 90 89
f 26 89 91
f 26 91 86
f 26 86 81
f 26 81 75
f 26 75 68
f 26 68 67
f 26 67 60
f 26 60 58
f 26 58 48
f 26 48 34
f 26 34 33
f 26 33 32
f 26 32 31
f 26 31 30
f 26 30 47
f 26 47 46
f 26 46 27
f 27 46 28
f 28 46 29
f 29 46 47
f 29 47 30
f 34 48 49
f 34 49 35
f 35 49 59
f 35 59 66
f 35 66 74
f 35 74 80
f 35 80 85
f 35 85 92
f 35 92 88
f 35 88 83
f 35 83 78
f 35 78 73
f 35 73 65
f 35 65 57
f 35 57 54
f 35 54 53
f 35 53 61
f 35 61 52
f 35 52 40
f 35 40 39
f 37 40 50
f 37 50 51
f 37 51 38
f 38 51 41
f 40 52 50
f 41 51 53
f 41 53 54
f 41 54 42
f 42 54 45
f 43 55 56
f 43 56 44
f 43 45 57
f 43 57 55
f 45 54 57
f 48 58 49
f 49 58 60
f 49 60 59
f 50 52 51
f 51 52 61
f 51 61 53
f 55 62 63
f 55 63 64
f 55 64 56
f 55 57 65
f 55 65 62
f 59 60 67
f 59 67 68
f 59 68 66
f 62 69 70
f 62 70 71
f 62 71 72
f 62 72 63
f 62 65 69
f 65 73 69
f 66 68 75
f 66 75 74
f 69 76 77
f 69 77 70
f 69 73 76
f 73 78 76
f 74 79 80
f 74 75 81
f 74 81 79
f 76 78 83
f 76 83 82
f 79 81 80
f 80 84 85
f 80 81 86
f 80 86 84
f 82 83 87
f 83 88 89
f 83 89 90
f 83 90 87
f 84 86 91
f 84 91 85
f 85 91 92
f 88 92 89
f 89 92 91

