# https://github.com/mikedh/trimesh
v 1.35901879 1.57204625 0.50978594
v 1.42568381 1.54879785 0.49325896
v 1.35895821 1.54861208 0.49355127
v 1.35895821 1.55694541 0.50236341
v 1.35895821 1.55679501 0.50978594
v 1.56525423 1.57043621 0.50978594
v 1.56525423 1.54884208 0.49320770
v 1.44234503 1.53902255 0.48793372
v 1.42568381 1.53902255 0.48796960
v 1.56525423 1.53902255 0.48772600
v 1.35895821 1.53902255 0.48840287
v 1.35895821 1.48229931 0.50978594
v 1.56525423 1.48176853 0.50978594
v 1.47566743 1.52236474 0.48415190
v 1.45900622 1.52236474 0.48419296
v 1.35895821 1.52236474 0.48476470
v 1.56525423 1.52236474 0.48404425
v 1.50898984 1.52236474 0.48410832
v 1.35895821 1.48231698 0.50348130
v 1.35901879 1.48229046 0.50353256
v 1.37568000 1.48219315 0.50353256
v 1.37568000 1.48221083 0.50978594
v 1.55899365 1.48175968 0.50978594
v 1.56525423 1.48171545 0.50353256
v 1.47566743 1.50569808 0.48366737
v 1.45900622 1.50569808 0.48373400
v 1.35895821 1.50569808 0.48442113
v 1.56525423 1.50569808 0.48359554
v 1.35895821 1.48990722 0.48971049
v 1.45900622 1.48177735 0.50353256
v 1.45900622 1.48959760 0.48934899
v 1.46524661 1.48180390 0.50978594
v 1.49856902 1.48172430 0.50978594
v 1.56525423 1.48957108 0.48927466
v 1.49232863 1.48168004 0.50353256
v 1.47566743 1.48956222 0.48929773
v 1.49232863 1.48954452 0.48929516
v 1.47566743 1.48170660 0.50353256
v 1.47566743 1.48175968 0.50978594
v 1.49232863 1.48173312 0.50978594
f 1 2 3
f 1 3 4
f 1 4 5
f 1 5 12
f 1 12 22
f 1 22 32
f 1 32 39
f 1 39 40
f 1 40 33
f 1 33 23
f 1 23 13
f 1 13 6
f 1 6 7
f 1 7 2
f 2 8 9
f 2 9 3
f 2 7 10
f 2 10 8
f 3 11 16
f 3 16 27
f 3 27 29
f 3 29 19
f 3 19 12
f 3 12 5
f 3 5 4
f 3 9 11
f 6 13 24
f 6 24 34
f 6 34 28
f 6 28 17
f 6 17 10
f 6 10 7
f 8 10 14
f 8 14 9
f 9 14 15
f 9 15 16
f 9 16 11
f 10 17 18
f 10 18 14
f 12 19 20
f 12 20 21
f 12 21 22
f 13 23 24
f 14 18 25
f 14 25 15
f 15 26 16
f 15 25 26
f 16 26 27
f 17 28 25
f 17 25 18
f 19 29 21
f 19 21 20
f 21 30 22
f 21 29 31
f 21 31 30
f 22 30 32
f 23 33 24
f 24 33 35
f 24 35 34
f 25 36 31
f 25 31 26
f 25 28 36
f 26 31 29
f 26 29 27
f 28 34 37
f 28 37 36
f 30 31 38
f 30 38 32
f 31 36 38
f 32 38 39
f 33 40 35
f 34 35 37
f 35 36 37
f 35 40 39
f 35 39 38
f 35 38 36

