# https://github.com/mikedh/trimesh
v -3.34796277 2.05403190 1.60085658
v -3.33137425 2.05403190 1.60083697
v -3.34796277 2.05403190 1.54725668
v -3.34796277 1.73914186 1.60049347
v -3.33137425 1.73914186 1.60049347
v -3.31008801 2.05403190 1.60078792
v -3.33043618 2.05403190 1.50450044
v -3.33659852 2.05398419 1.51820955
v -3.34796277 2.05398419 1.54696229
v -3.34796277 1.57237082 1.60029725
v -3.33137425 1.57237082 1.60029725
v -3.31472272 1.73914186 1.60044442
v -3.31008431 2.03041872 1.54839502
v -3.31008801 2.05403190 1.50171348
v -3.31008801 1.73914186 1.60042481
v -3.31008431 1.56669412 1.54839502
v -3.31471903 2.05403190 1.50060459
v -3.32817816 1.56669412 1.50870051
v -3.34796277 1.56669412 1.55152548
v -3.34796277 1.56674182 1.60028742
v -3.33703972 1.56669412 1.60027758
v -3.33137425 1.56669412 1.60026781
v -3.31254255 1.56669412 1.60022853
v -3.31008801 1.57237082 1.60022853
v -3.31008431 2.03041872 1.50701261
v -3.31008431 2.01625082 1.50682617
v -3.31008431 2.00566066 1.50669861
v -3.31008431 1.98901219 1.50662989
v -3.31008431 1.95561982 1.50650233
v -3.31008431 1.91640763 1.50637478
v -3.31008431 1.89990226 1.50634533
v -3.31008431 1.80568808 1.50622755
v -3.31008431 1.68905330 1.50618833
v -3.31008431 1.56779130 1.50630605
v -3.31008801 1.56669412 1.60021875
v -3.31008431 1.56669412 1.50632572
v -3.31472272 1.57237082 1.50541305
v -3.31472272 1.56669412 1.50551122
v -3.34796277 1.56669412 1.55192781
v -3.31315433 1.56669412 1.50578600
f 1 2 6
f 1 6 14
f 1 14 17
f 1 17 7
f 1 7 3
f 1 3 9
f 1 9 19
f 1 19 39
f 1 39 20
f 1 20 10
f 1 10 4
f 1 4 5
f 1 5 2
f 2 5 6
f 3 7 8
f 3 8 9
f 4 10 11
f 4 11 5
f 5 11 12
f 5 12 6
f 6 13 25
f 6 25 14
f 6 12 15
f 6 15 16
f 6 16 13
f 7 17 18
f 7 18 19
f 7 19 8
f 8 19 9
f 10 20 11
f 11 20 21
f 11 21 22
f 11 22 23
f 11 23 24
f 11 24 12
f 12 24 15
f 13 16 36
f 13 36 34
f 13 34 33
f 13 33 32
f 13 32 31
f 13 31 30
f 13 30 29
f 13 29 28
f 13 28 27
f 13 27 26
f 13 26 25
f 14 25 26
f 14 26 27
f 14 27 28
f 14 28 29
f 14 29 30
f 14 30 31
f 14 31 32
f 14 32 33
f 14 33 34
f 14 34 17
f 15 24 16
f 16 24 35
f 16 35 23
f 16 23 22
f 16 22 21
f 16 21 39
f 16 39 19
f 16 19 18
f 16 18 38
f 16 38 40
f 16 40 36
f 17 34 37
f 17 37 18
f 18 37 38
f 20 39 21
f 23 35 24
f 34 36 40
f 34 40 37
f 37 40 38

