# https://github.com/mikedh/trimesh
v 0.17721866 1.55708648 1.13695219
v 0.17724149 1.55708693 1.12612565
v 0.17724870 1.55708693 1.12489120
v 0.17727135 1.55708693 1.12196510
v 0.17727135 1.55708648 1.14155165
v 0.17720358 1.55708648 1.14279524
v 0.17727135 1.55793473 1.12580561
v 0.17727135 1.55777314 1.12489120
v 0.17727135 1.55980457 1.14551103
v 0.17727135 1.55818548 1.12723208
v 0.17727135 1.55708648 1.21537155
v 0.17713056 1.55708648 1.19153301
v 0.17727135 1.56118964 1.17486342
v 0.17727135 1.55859603 1.21096411
v 0.17721824 1.55708648 1.20944620
v 0.17713581 1.55708648 1.19277661
v 0.17727135 1.56171062 1.19153301
v 0.17727135 1.55909574 1.20821175
v 0.17721156 1.55708648 1.20821175
v 0.17727135 1.56099456 1.19669025
f 1 2 3
f 1 3 4
f 1 4 5
f 1 5 11
f 1 11 15
f 1 15 19
f 1 19 16
f 1 16 12
f 1 12 6
f 1 6 2
f 2 7 8
f 2 8 3
f 2 6 9
f 2 9 10
f 2 10 7
f 3 8 4
f 4 8 7
f 4 7 10
f 4 10 9
f 4 9 13
f 4 13 17
f 4 17 20
f 4 20 18
f 4 18 14
f 4 14 11
f 4 11 5
f 6 12 9
f 9 12 13
f 11 14 15
f 12 16 17
f 12 17 13
f 14 18 19
f 14 19 15
f 16 19 18
f 16 18 20
f 16 20 17

