# https://github.com/mikedh/trimesh
v -1.32960999 -0.60895688 1.42581692
v -1.33201652 -0.60896716 1.42581692
v -1.27030122 -0.61017895 1.42581692
v -1.27030122 -0.6356472900000001 1.40022689
v -1.863156 -0.63518517 1.39973076
v -2.06328427 -0.6354727 1.40003186
v -2.06328427 -0.61503642 1.42581692
v -1.27030122 -0.6244022 1.42581692
v -1.27030122 -0.64469471 1.39659658
v -2.06328427 -0.64469471 1.39552563
v -2.06336192 -0.6244022 1.42265194
v -2.06328427 -0.7136338099999999 1.42581692
v -1.48727506 -0.71379812 1.42581692
v -1.27030122 -0.71374677 1.42581349
v -1.27030122 -0.66138264 1.39327423
v -2.06328427 -0.66137237 1.39175844
v -2.06328427 -0.67801922 1.39116653
v -2.06328427 -0.6947071300000001 1.3908654
v -2.06328427 -0.7081499 1.39596357
v -2.06328427 -0.71343868 1.40940357
v -1.5800420499999999 -0.71384946 1.42581692
v -1.51312561 -0.71384946 1.42581692
v -1.52973826 -0.7138700099999999 1.42581692
v -1.27030122 -0.71362354 1.41863157
v -1.27030122 -0.67801922 1.39238802
v -1.27953913 -0.69469687 1.39185769
v -1.27953913 -0.7080882900000001 1.39636732
v -1.51312561 -0.7135208399999999 1.40940357
v -1.59649945 -0.7135208399999999 1.40940357
v -1.27030122 -0.7134489500000001 1.409407
v -1.27030122 -0.69469687 1.39188506
v -1.27030122 -0.7080882900000001 1.39640155
v -1.27030122 -0.71105616 1.40358687
f 1 2 7
f 1 7 12
f 1 12 21
f 1 21 23
f 1 23 22
f 1 22 13
f 1 13 8
f 1 8 3
f 1 3 4
f 1 4 5
f 1 5 6
f 1 6 2
f 2 6 7
f 3 8 14
f 3 14 24
f 3 24 30
f 3 30 33
f 3 33 32
f 3 32 31
f 3 31 25
f 3 25 15
f 3 15 9
f 3 9 4
f 4 9 10
f 4 10 5
f 5 10 6
f 6 10 11
f 6 11 7
f 7 11 12
f 8 13 14
f 9 15 16
f 9 16 10
f 10 16 11
f 11 16 17
f 11 17 18
f 11 18 19
f 11 19 20
f 11 20 12
f 12 20 21
f 13 22 14
f 14 22 23
f 14 23 24
f 15 25 16
f 16 25 17
f 17 25 26
f 17 26 18
f 18 26 27
f 18 27 19
f 19 27 28
f 19 28 29
f 19 29 20
f 20 29 23
f 20 23 21
f 23 29 28
f 23 28 30
f 23 30 24
f 25 31 26
f 26 31 27
f 27 31 32
f 27 32 33
f 27 33 28
f 28 33 30

