# https://github.com/mikedh/trimesh
v 0.56338600 2.07597792 1.02048438
v 0.56338600 2.06432187 1.02048438
v 0.56338600 2.10976869 1.02040213
v 0.55898475 2.10976332 1.02048438
v 0.45636172 2.06394191 1.02048438
v 0.45210216 2.06386699 1.02036100
v 0.56338600 2.06313915 0.91951481
v 0.55871236 2.10976332 1.02048438
v 0.56338600 2.11685970 0.85350415
v 0.55898475 2.11689716 0.85350415
v 0.50899143 2.11710053 0.85350415
v 0.49233425 2.11710587 0.85350415
v 0.45899812 2.11710053 0.85350415
v 0.45210216 2.07774399 1.02048438
v 0.45210216 2.06313915 0.92004947
v 0.56338600 2.06313915 0.80838658
v 0.54204432 2.10973656 1.02048438
v 0.45210216 2.11708983 0.85350415
v 0.56338600 2.11697745 0.84910343
v 0.56338600 2.11771599 0.82019036
v 0.55898475 2.11772668 0.82019036
v 0.45899812 2.11780694 0.82019036
v 0.45210216 2.11781231 0.82019036
v 0.45210216 2.10951179 1.02048438
v 0.45210216 2.06313915 0.80645355
v 0.54621680 2.06313915 0.80657694
v 0.56338600 2.06393121 0.60031933
v 0.52565953 2.10970446 1.02048438
v 0.45871487 2.10954391 1.02048438
v 0.47538297 2.10960277 1.02048438
v 0.56338600 2.11056608 0.60031933
v 0.55898475 2.11057145 0.60031933
v 0.45210216 2.11068917 0.60031933
v 0.45210216 2.06409176 0.60031933
v 0.49147361 2.06397937 0.60031933
v 0.45839896 2.06313915 0.80563099
f 1 2 7
f 1 7 16
f 1 16 27
f 1 27 31
f 1 31 20
f 1 20 19
f 1 19 9
f 1 9 3
f 1 3 4
f 1 4 8
f 1 8 17
f 1 17 28
f 1 28 30
f 1 30 29
f 1 29 24
f 1 24 14
f 1 14 5
f 1 5 2
f 2 5 6
f 2 6 7
f 3 8 4
f 3 9 10
f 3 10 11
f 3 11 12
f 3 12 13
f 3 13 8
f 5 14 6
f 6 14 24
f 6 24 18
f 6 18 23
f 6 23 33
f 6 33 34
f 6 34 25
f 6 25 15
f 6 15 7
f 7 15 25
f 7 25 36
f 7 36 26
f 7 26 16
f 8 13 18
f 8 18 17
f 9 19 10
f 10 19 20
f 10 20 11
f 11 20 21
f 11 21 22
f 11 22 23
f 11 23 12
f 12 23 13
f 13 23 18
f 16 26 27
f 17 18 28
f 18 24 29
f 18 29 30
f 18 30 28
f 20 31 21
f 21 31 32
f 21 32 33
f 21 33 22
f 22 33 23
f 25 34 35
f 25 35 27
f 25 27 36
f 26 36 27
f 27 35 34
f 27 34 33
f 27 33 32
f 27 32 31

