# https://github.com/mikedh/trimesh
v -1.89924237 2.08944998 0.09560156
v -1.89924237 2.10489972 0.09645063
v -1.89924237 2.07236820 0.09653885
v -1.91472200 2.07236820 0.09656090
v -2.01472955 2.07236820 0.09670425
v -2.28135286 2.08902252 0.09659398
v -1.91472200 2.10568463 0.09702403
v -1.89924237 2.11691447 0.10493030
v -2.28874955 2.08902252 0.09661604
v -2.28874955 2.10568463 0.09804954
v -2.28135286 2.10568463 0.09802749
v -1.89924237 2.05912555 0.10451127
v -1.91472200 2.05889243 0.10446716
v -1.93138359 2.05889243 0.10448922
v -2.01472955 2.05898568 0.10456641
v -2.24799163 2.05896235 0.10515084
v -2.28874955 2.05906338 0.10520597
v -2.03139115 2.07236820 0.09675939
v -2.28874955 2.11058068 0.10148989
v -2.28874955 2.11674349 0.10584553
v -1.89924237 2.12020181 0.12021353
v -2.28135286 2.11675127 0.10583451
v -2.28135286 2.07236820 0.09770771
v -2.28874955 2.07236820 0.09774079
v -1.89924237 2.04149203 0.12730379
v -1.96474488 2.04149203 0.12718250
v -1.97728872 2.04149203 0.12717147
v -1.98136827 2.04149203 0.12717147
v -2.01472955 2.04149203 0.12718250
v -2.23133003 2.05893126 0.10515084
v -2.03139115 2.04149203 0.12730379
v -2.28874955 2.04359032 0.12636650
v -2.28874955 2.11804908 0.11219700
v -2.26465317 2.11972774 0.12020250
v -1.89924237 2.12068363 0.13688615
v -1.89924237 2.04149203 0.18233887
v -2.04824337 2.04149203 0.12766768
v -2.28874955 2.04359032 0.18303357
v -2.28874955 2.11968888 0.12020250
v -2.28874955 2.11987541 0.12759049
v -1.89924237 2.12069919 0.13808809
v -2.28874955 2.12009300 0.13687512
v -2.28874955 2.12031062 0.15351467
v -1.89924237 2.06276262 0.20825202
v -1.98136827 2.04149203 0.18242709
v -2.04824337 2.04149203 0.18209628
v -2.28874955 2.06250617 0.20349946
v -2.03139115 2.04149203 0.18223963
v -2.01472955 2.04149203 0.18237195
v -2.04824337 2.06320561 0.20825202
v -1.89924237 2.12087794 0.15352570
v -2.28874955 2.11947129 0.17018729
v -2.26465317 2.11954124 0.17018729
v -1.99806802 2.04149203 0.18242709
v -1.89924237 2.11288105 0.20825202
v -2.28874955 2.11309089 0.20349946
v -2.04824337 2.09897005 0.20825202
v -1.89924237 2.12077691 0.15472763
v -1.89924237 2.11932362 0.17019832
v -2.04820522 2.11250801 0.20825202
f 1 2 8
f 1 8 21
f 1 21 35
f 1 35 41
f 1 41 51
f 1 51 58
f 1 58 59
f 1 59 55
f 1 55 44
f 1 44 36
f 1 36 25
f 1 25 12
f 1 12 3
f 1 3 4
f 1 4 5
f 1 5 6
f 1 6 2
f 2 7 8
f 2 6 9
f 2 9 10
f 2 10 11
f 2 11 7
f 3 12 13
f 3 13 14
f 3 14 4
f 4 14 5
f 5 14 15
f 5 15 16
f 5 16 17
f 5 17 18
f 5 18 9
f 5 9 6
f 7 11 19
f 7 19 20
f 7 20 8
f 8 20 22
f 8 22 21
f 9 23 24
f 9 24 17
f 9 17 32
f 9 32 38
f 9 38 47
f 9 47 56
f 9 56 52
f 9 52 43
f 9 43 42
f 9 42 40
f 9 40 39
f 9 39 33
f 9 33 20
f 9 20 19
f 9 19 10
f 9 18 23
f 10 19 11
f 12 25 13
f 13 25 26
f 13 26 27
f 13 27 28
f 13 28 29
f 13 29 14
f 14 29 15
f 15 29 30
f 15 30 16
f 16 30 29
f 16 29 17
f 17 29 31
f 17 31 32
f 17 24 23
f 17 23 18
f 20 33 34
f 20 34 22
f 21 22 34
f 21 34 35
f 25 36 45
f 25 45 54
f 25 54 49
f 25 49 48
f 25 48 46
f 25 46 37
f 25 37 31
f 25 31 29
f 25 29 28
f 25 28 27
f 25 27 26
f 31 37 32
f 32 37 46
f 32 46 38
f 33 39 34
f 34 39 40
f 34 40 35
f 35 40 42
f 35 42 43
f 35 43 41
f 36 44 45
f 38 46 48
f 38 48 49
f 38 49 50
f 38 50 47
f 41 43 51
f 43 52 53
f 43 53 51
f 44 49 54
f 44 54 45
f 44 55 60
f 44 60 57
f 44 57 50
f 44 50 49
f 47 50 57
f 47 57 56
f 51 53 58
f 52 56 53
f 53 56 55
f 53 55 59
f 53 59 58
f 55 56 60
f 56 57 60

