# https://github.com/mikedh/trimesh
v -1.82956368 2.03750358 1.12019018
v -1.83004094 2.03750358 1.01364157
v -1.82999528 2.03750358 1.12019018
v -1.82864237 1.57241987 1.12019018
v -1.86978558 2.03750358 1.01364157
v -1.83009900 1.57241987 1.01364157
v -1.86986861 2.03750358 1.11867789
v -1.86983952 2.03745806 1.12019018
v -1.86958638 1.57241987 1.12019018
v -1.87019644 2.03750358 1.08686767
v -1.87026701 2.02234375 1.01364157
v -1.87081478 2.02234375 1.08686767
v -1.86950341 1.57241987 1.01364157
v -1.87011346 2.03750358 1.10353414
v -1.87071518 2.02234375 1.10353414
v -1.87039152 2.02234375 1.12019018
v -1.86977312 1.57241987 1.10353414
v -1.87028775 1.83896893 1.12019018
v -1.87101398 2.00568158 1.10353414
v -1.87012175 2.03750358 1.10201142
v -1.87103889 2.00568158 1.08686767
v -1.87040809 2.00568158 1.01364157
v -1.86953661 1.57241987 1.02021221
v -1.87071935 2.00563606 1.12019018
v -1.86975655 1.57241987 1.08686767
v -1.86960712 1.57241987 1.03687868
f 1 2 5
f 1 5 10
f 1 10 20
f 1 20 14
f 1 14 7
f 1 7 3
f 1 3 8
f 1 8 16
f 1 16 24
f 1 24 18
f 1 18 9
f 1 9 4
f 1 4 2
f 2 4 6
f 2 6 13
f 2 13 22
f 2 22 11
f 2 11 5
f 3 7 8
f 4 9 17
f 4 17 25
f 4 25 26
f 4 26 23
f 4 23 13
f 4 13 6
f 5 11 12
f 5 12 10
f 7 14 15
f 7 15 16
f 7 16 8
f 9 18 19
f 9 19 17
f 10 12 20
f 11 21 12
f 11 22 21
f 12 21 19
f 12 19 15
f 12 15 14
f 12 14 20
f 13 23 21
f 13 21 22
f 15 19 24
f 15 24 16
f 17 19 21
f 17 21 25
f 18 24 19
f 21 23 26
f 21 26 25

