# https://github.com/mikedh/trimesh
v -3.28132219 1.59205519 1.55191989
v -2.96610605 1.59201255 1.55292912
v -3.07039645 1.59201255 1.55397155
v -3.28132219 1.59205519 1.55283912
v -3.28132219 1.73902812 1.55250741
v -2.96610605 1.83897143 1.55310919
v -2.96610605 1.82230000 1.55304762
v -2.96610605 1.80712090 1.55302389
v -2.96610605 1.60710637 1.55288173
v -2.96610605 1.60569932 1.55288173
v -2.96610605 1.59201255 1.60007516
v -3.07039645 1.59201255 1.60000882
v -3.27836008 1.59205519 1.60020784
v -3.28132219 1.59214047 1.60020784
v -3.28132219 1.75569956 1.55264009
v -2.96610605 1.92369300 1.55361619
v -2.96610605 1.90702156 1.55349298
v -2.96610605 1.88898572 1.55336507
v -2.96610605 1.87231429 1.55327030
v -2.96610605 1.85564286 1.55318030
v -3.02840258 1.59201255 1.60004196
v -2.96610605 1.72099228 1.60010830
v -3.28132219 1.73907076 1.60032628
v -3.28132219 1.88894308 1.55381044
v -2.96610605 1.94036443 1.55375835
v -2.96610605 1.93759296 1.60013673
v -3.28132219 1.88898572 1.60030261
v -3.28132219 1.90561451 1.55398103
v -2.96610605 1.99037871 1.55420848
v -2.96610605 1.98897166 1.55419424
v -2.96610605 1.97230023 1.55404266
v -2.96610605 2.02755899 1.60007516
v -3.28132219 2.02760162 1.60012255
v -3.28132219 2.02760162 1.55529354
v -2.96610605 2.00564309 1.55437431
v -2.96610605 2.02755899 1.55470124
v -3.07042729 2.02760162 1.59985248
v -3.14281345 2.02760162 1.59995196
v -3.07042729 2.02760162 1.55542151
f 1 2 3
f 1 3 12
f 1 12 4
f 1 4 14
f 1 14 23
f 1 23 27
f 1 27 33
f 1 33 34
f 1 34 28
f 1 28 24
f 1 24 15
f 1 15 5
f 1 5 6
f 1 6 7
f 1 7 8
f 1 8 9
f 1 9 10
f 1 10 2
f 2 11 21
f 2 21 12
f 2 12 3
f 2 10 9
f 2 9 8
f 2 8 7
f 2 7 6
f 2 6 20
f 2 20 19
f 2 19 18
f 2 18 17
f 2 17 16
f 2 16 25
f 2 25 31
f 2 31 30
f 2 30 29
f 2 29 35
f 2 35 36
f 2 36 32
f 2 32 26
f 2 26 22
f 2 22 11
f 4 13 14
f 4 12 13
f 5 15 16
f 5 16 17
f 5 17 18
f 5 18 19
f 5 19 20
f 5 20 6
f 11 13 21
f 11 22 23
f 11 23 13
f 12 21 13
f 13 23 14
f 15 24 25
f 15 25 16
f 22 26 23
f 23 26 27
f 24 28 29
f 24 29 30
f 24 30 31
f 24 31 25
f 26 32 27
f 27 32 33
f 28 34 29
f 29 34 35
f 32 36 39
f 32 39 37
f 32 37 38
f 32 38 33
f 33 38 37
f 33 37 39
f 33 39 34
f 34 39 36
f 34 36 35

