# https://github.com/mikedh/trimesh
v 0.39835288 2.07848762 1.65710022
v 0.39835288 2.07873996 1.85727973
v 0.39835288 2.11230810 1.65710022
v 0.67920024 2.07891278 1.65710022
v 0.39835288 2.11318954 1.85727973
v 0.69228934 2.07893353 1.65710022
v 0.77566147 2.07908909 1.65710022
v 0.77919796 2.07909601 1.65710022
v 0.81362809 2.07917895 1.65710022
v 0.78708396 2.08066189 1.83047418
v 0.81362809 2.08087621 1.83686206
v 0.81362809 2.08145694 1.85727973
v 0.39835288 2.11234956 1.66419353
v 0.78875058 2.11317917 1.65710022
v 0.39835288 2.11251204 1.69752412
v 0.77582407 2.11379102 1.85727973
v 0.77566147 2.11340043 1.72021478
v 0.77566147 2.11334165 1.70355926
v 0.79232778 2.11324140 1.67022867
v 0.81362809 2.11317917 1.65710022
v 0.81362809 2.08072067 1.82050045
v 0.81362809 2.11375990 1.85727973
v 0.39835288 2.11238067 1.67022867
v 0.79232778 2.11318609 1.65710022
v 0.39835288 2.11246364 1.68688419
v 0.79232778 2.11380139 1.85727973
v 0.79232778 2.11342460 1.72021478
v 0.79232778 2.11336931 1.70355926
v 0.79232778 2.11330708 1.68688419
v 0.81362809 2.11330017 1.68688419
v 0.81362809 2.11321374 1.66558472
v 0.80541688 2.11318263 1.65710022
v 0.81362809 2.11335203 1.70355926
f 1 2 5
f 1 5 15
f 1 15 25
f 1 25 23
f 1 23 13
f 1 13 3
f 1 3 14
f 1 14 24
f 1 24 32
f 1 32 20
f 1 20 9
f 1 9 8
f 1 8 7
f 1 7 6
f 1 6 4
f 1 4 2
f 2 4 6
f 2 6 7
f 2 7 8
f 2 8 9
f 2 9 10
f 2 10 11
f 2 11 12
f 2 12 22
f 2 22 26
f 2 26 16
f 2 16 5
f 3 13 14
f 5 16 17
f 5 17 18
f 5 18 19
f 5 19 14
f 5 14 15
f 9 20 31
f 9 31 30
f 9 30 33
f 9 33 22
f 9 22 12
f 9 12 11
f 9 11 21
f 9 21 10
f 10 21 11
f 13 23 14
f 14 19 24
f 14 23 25
f 14 25 15
f 16 26 27
f 16 27 17
f 17 27 28
f 17 28 18
f 18 28 29
f 18 29 19
f 19 29 30
f 19 30 31
f 19 31 32
f 19 32 24
f 20 32 31
f 22 33 26
f 26 33 27
f 27 33 30
f 27 30 28
f 28 30 29

