# https://github.com/mikedh/trimesh
v 0.40615782 2.06432631 1.24511964
v 0.40615782 2.06588948 1.44283263
v 0.40615782 2.10907673 1.24511964
v 0.70895827 2.06412162 1.24511964
v 0.74230579 2.06460544 1.44283263
v 0.72563203 2.06462871 1.44283263
v 0.40615782 2.10975596 1.44283263
v 0.40615782 2.10969549 1.42020643
v 0.42566371 2.10927679 1.24511964
v 0.79232712 2.06407510 1.24511964
v 0.75897961 2.06460544 1.44283263
v 0.81362809 2.11118422 1.44283263
v 0.81362809 2.11131913 1.38685749
v 0.80896100 2.11159362 1.24511964
v 0.80912057 2.06409370 1.24511964
v 0.77565336 2.06462406 1.44283263
v 0.81362809 2.06472641 1.44283263
v 0.81362809 2.11132843 1.38223159
v 0.81131445 2.11159826 1.24511964
v 0.81362809 2.06411229 1.24511964
v 0.78159689 2.06463801 1.44283263
v 0.81362809 2.11159826 1.24511964
f 1 2 7
f 1 7 8
f 1 8 3
f 1 3 9
f 1 9 14
f 1 14 19
f 1 19 22
f 1 22 20
f 1 20 15
f 1 15 10
f 1 10 4
f 1 4 5
f 1 5 6
f 1 6 2
f 2 6 5
f 2 5 11
f 2 11 16
f 2 16 21
f 2 21 17
f 2 17 12
f 2 12 7
f 3 8 9
f 4 10 5
f 5 10 11
f 7 12 13
f 7 13 14
f 7 14 8
f 8 14 9
f 10 15 11
f 11 15 16
f 12 17 20
f 12 20 22
f 12 22 18
f 12 18 13
f 13 18 14
f 14 18 19
f 15 20 17
f 15 17 21
f 15 21 16
f 18 22 19

