# https://github.com/mikedh/trimesh
v -3.0895504449999995 -0.32796282 0.4409028
v -3.0895504449999995 -0.42793815 0.44056613
v -3.0895504449999995 -0.32796282 0.3959398
v -3.165657575 -0.32796282 0.44083732
v -3.1655134249999994 -0.42793815 0.44055211
v -3.0895504449999995 -0.42793815 0.39681415
v -3.0895504449999995 -0.42787943 0.39680949
v -3.248899755 -0.32796282 0.39356912
v -3.799307055 -0.32796282 0.44000037
v -3.799162905 -0.42793815 0.43958419
v -3.265548185 -0.42793815 0.39473809
v -3.2654761050000003 -0.32796282 0.39336342
v -3.8159555149999997 -0.32796282 0.43997228
v -3.8158834649999998 -0.42793815 0.4395468
v -3.282268695 -0.42793815 0.39464922
v -3.282268695 -0.32796282 0.39325117
v -3.8258292549999995 -0.32796282 0.4399489
v -3.8258292549999995 -0.42793815 0.4395094
v -3.298917115 -0.42793815 0.39459316
v -3.315637625 -0.42793815 0.39453704
v -3.298917115 -0.32796282 0.39320441
v -3.8258292549999995 -0.32796282 0.39442951
v -3.8258292549999995 -0.42793815 0.39521033
v -3.332286055 -0.42793815 0.39449028
v -3.399023925 -0.42793815 0.3943079
v -3.4156723849999997 -0.42793815 0.3942705
v -3.482194025 -0.32796282 0.39313428
v -3.6824076649999995 -0.32796282 0.39339145
v -3.6656151149999996 -0.32796282 0.39328392
v -3.4323208149999997 -0.42793815 0.39427987
v -3.498986605 -0.32796282 0.39313893
v -3.6491108050000003 -0.32796282 0.39326519
f 1 2 6
f 1 6 7
f 1 7 3
f 1 3 8
f 1 8 12
f 1 12 16
f 1 16 21
f 1 21 27
f 1 27 31
f 1 31 32
f 1 32 29
f 1 29 28
f 1 28 22
f 1 22 17
f 1 17 13
f 1 13 9
f 1 9 4
f 1 4 5
f 1 5 2
f 2 5 10
f 2 10 14
f 2 14 18
f 2 18 23
f 2 23 30
f 2 30 26
f 2 26 25
f 2 25 24
f 2 24 20
f 2 20 19
f 2 19 15
f 2 15 11
f 2 11 6
f 3 7 8
f 4 9 5
f 5 9 10
f 6 11 7
f 7 12 8
f 7 11 12
f 9 13 10
f 10 13 14
f 11 15 16
f 11 16 12
f 13 17 14
f 14 17 18
f 15 19 16
f 16 19 20
f 16 20 24
f 16 24 21
f 17 22 23
f 17 23 18
f 21 24 25
f 21 25 26
f 21 26 27
f 22 28 23
f 23 28 29
f 23 29 30
f 26 30 31
f 26 31 27
f 29 32 30
f 30 32 31

