# https://github.com/mikedh/trimesh
v -3.897681135 -0.24443520000000002 0.73782763
v -3.9104861250000003 -0.21109065999999999 0.74947311
v -3.908223575 -0.22680324000000002 0.74947311
v -3.900772645 -0.24443520000000002 0.74105441
v -3.897681135 -0.28340696 0.72874172
v -3.897681135 -0.22841725000000002 0.72624278
v -3.918366175 -0.19889398000000003 0.74947311
v -3.897681135 -0.22828639 0.72572119
v -3.897681135 -0.22531137 0.70898079
v -3.909052525 -0.24453116 0.74947311
v -3.9164156649999997 -0.25917066 0.74947311
v -3.9351502050000002 -0.27452555 0.74947311
v -3.949291275 -0.28028363 0.74947311
v -3.9588390249999996 -0.28068496 0.74947311
v -3.965968065 -0.28093796 0.74947311
v -3.9319026150000003 -0.28340696 0.73062198
v -3.897681135 -0.28340696 0.64869116
v -3.932624335 -0.19485459 0.74947311
v -3.897681135 -0.22530265 0.70739168
v -3.918941535 -0.19906846 0.62554577
v -3.9186099949999997 -0.19887653 0.7256484
v -3.932624335 -0.19479352 0.67563348
v -3.932624335 -0.19477607000000002 0.69230108
v -3.932624335 -0.19478481 0.7256484
v -3.9826447949999997 -0.27921926 0.74947311
v -3.9662801749999996 -0.28340696 0.72602444
v -3.949291275 -0.28340696 0.73128918
v -3.9268703149999995 -0.28340696 0.64224975
v -3.949291275 -0.27982997 0.62554577
v -3.9354135149999996 -0.27453427 0.62554577
v -3.927075125 -0.26546093 0.62554577
v -3.920297185 -0.25712043 0.62554577
v -3.913285095 -0.24443520000000002 0.62554577
v -3.9103593849999996 -0.22776291 0.62554577
v -3.897681135 -0.24602303 0.64413
v -3.949291275 -0.19451434 0.74232811
v -3.949291275 -0.19454052 0.74947311
v -3.897681135 -0.22605294 0.67563348
v -3.897681135 -0.22740522000000002 0.65895374
v -3.912017295 -0.21109065999999999 0.62554577
v -3.932624335 -0.19512503 0.62554577
v -3.932624335 -0.19488077 0.65895374
v -3.949291275 -0.1945667 0.65895374
v -3.949291275 -0.19448815000000003 0.67563348
v -3.949291275 -0.19445326000000002 0.69230108
v -3.949291275 -0.19445326000000002 0.70898079
v -3.949291275 -0.19447071 0.7256484
v -3.9890326849999997 -0.27595634 0.74947311
v -3.9940259749999996 -0.27370546 0.70898079
v -3.994084485 -0.27377526 0.69230108
v -3.9826447949999997 -0.27941992 0.70898079
v -3.9716635149999995 -0.28340696 0.70855621
v -3.971653795 -0.28340696 0.70898079
v -3.9664459149999995 -0.28340696 0.72556347
v -3.948764645 -0.28340696 0.63823449
v -3.965968065 -0.27992594 0.62554577
v -3.949291275 -0.28340696 0.63818597
v -3.897681135 -0.24443520000000002 0.64415428
v -3.956430105 -0.19447071 0.74947311
v -3.965968065 -0.19429623000000001 0.7256484
v -3.897681135 -0.22775419000000002 0.65806821
v -3.897681135 -0.23242174000000002 0.64711419
v -3.949291275 -0.19476733000000002 0.62554577
v -3.965968065 -0.19459285 0.62554577
v -3.965968065 -0.1943573 0.67563348
v -3.965968065 -0.19430496000000003 0.69230108
v -3.965968065 -0.19427878 0.70898079
v -3.993791945 -0.27348736 0.74947311
v -3.997068755 -0.26110747 0.70898079
v -3.997156545 -0.26110747 0.69230108
v -3.9826447949999997 -0.27946355 0.69230108
v -3.9971955550000002 -0.26110747 0.67563348
v -3.997205275 -0.26110747 0.65895374
v -3.9941039849999997 -0.27372291 0.67563348
v -3.971731805 -0.28340696 0.69230108
v -3.9826447949999997 -0.27849514000000003 0.62554577
v -3.9646319849999996 -0.28340696 0.64249237
v -3.965519445 -0.28340696 0.64274713
v -3.965968065 -0.19438348 0.74947311
v -3.9826447949999997 -0.19542166 0.7256484
v -3.9826447949999997 -0.1956485 0.62554577
v -3.9826447949999997 -0.19558743 0.64227403
v -3.9826447949999997 -0.19547402000000003 0.67563348
v -3.9826447949999997 -0.1954304 0.69230108
v -3.9826447949999997 -0.19540421000000002 0.70898079
v -3.9967274249999996 -0.26110747 0.74947311
v -3.996815215 -0.25397092 0.74947311
v -3.996932235 -0.24443520000000002 0.74947311
v -3.9970882549999995 -0.22776291 0.74947311
v -3.997107765 -0.22776291 0.74232811
v -3.9826447949999997 -0.27932396 0.67563348
v -3.9713806949999997 -0.28340696 0.67563348
v -3.997146765 -0.22776291 0.7256484
v -3.9972345549999995 -0.22776291 0.67563348
v -3.997293065 -0.22776291 0.64227403
v -3.9973125649999997 -0.22776291 0.62560642
v -3.9971955550000002 -0.26110747 0.64227403
v -3.9971662649999997 -0.26110747 0.62560642
v -3.9941039849999997 -0.27355715 0.65895374
v -3.9940259749999996 -0.27331286 0.62554577
v -3.970512735 -0.28340696 0.65895374
v -3.9826447949999997 -0.19551765 0.74947311
v -3.993791945 -0.19969662999999999 0.74232811
v -3.993782155 -0.19971408000000002 0.74947311
v -3.987404055 -0.19730615 0.74947311
v -3.993782155 -0.19979259 0.62554577
v -3.9937724349999995 -0.1997577 0.62560642
v -3.993791945 -0.19967916000000002 0.70898079
v -3.993791945 -0.19967916000000002 0.7256484
v -3.993782155 -0.19974023000000002 0.64227403
v -3.9938016649999994 -0.19970534 0.67563348
v -3.993791945 -0.19968789 0.69230108
v -3.9968639449999994 -0.21109065999999999 0.74947311
v -3.996893235 -0.21109065999999999 0.74232811
v -3.996922455 -0.21109065999999999 0.7256484
v -3.9969809649999997 -0.21109065999999999 0.67563348
v -3.9969809649999997 -0.21109065999999999 0.64227403
v -3.996971245 -0.21109065999999999 0.62560642
v -3.996971245 -0.21113426000000002 0.62554577
v -3.997302845 -0.22781526000000002 0.62554577
v -3.997244275 -0.24447881 0.62554577
v -3.997156545 -0.26114236 0.62554577
v -3.9940747549999998 -0.27340884 0.64227403
v -3.9955571450000003 -0.20622244 0.74947311
f 1 2 3
f 1 3 4
f 1 4 5
f 1 5 17
f 1 17 35
f 1 35 58
f 1 58 62
f 1 62 61
f 1 61 39
f 1 39 38
f 1 38 19
f 1 19 9
f 1 9 8
f 1 8 6
f 1 6 2
f 2 7 18
f 2 18 37
f 2 37 59
f 2 59 79
f 2 79 102
f 2 102 105
f 2 105 104
f 2 104 124
f 2 124 113
f 2 113 89
f 2 89 88
f 2 88 87
f 2 87 86
f 2 86 68
f 2 68 48
f 2 48 25
f 2 25 15
f 2 15 14
f 2 14 13
f 2 13 12
f 2 12 11
f 2 11 10
f 2 10 3
f 2 6 8
f 2 8 9
f 2 9 7
f 3 10 4
f 4 10 5
f 5 10 11
f 5 11 12
f 5 12 13
f 5 13 14
f 5 14 15
f 5 15 16
f 5 16 27
f 5 27 26
f 5 26 54
f 5 54 53
f 5 53 52
f 5 52 75
f 5 75 92
f 5 92 101
f 5 101 78
f 5 78 77
f 5 77 57
f 5 57 55
f 5 55 28
f 5 28 17
f 7 9 19
f 7 19 20
f 7 20 21
f 7 21 22
f 7 22 23
f 7 23 24
f 7 24 18
f 15 25 26
f 15 26 27
f 15 27 16
f 17 28 29
f 17 29 30
f 17 30 31
f 17 31 32
f 17 32 33
f 17 33 34
f 17 34 35
f 18 36 37
f 18 24 36
f 19 38 20
f 20 38 39
f 20 39 40
f 20 40 34
f 20 34 33
f 20 33 32
f 20 32 31
f 20 31 30
f 20 30 29
f 20 29 56
f 20 56 76
f 20 76 100
f 20 100 122
f 20 122 121
f 20 121 120
f 20 120 119
f 20 119 106
f 20 106 81
f 20 81 64
f 20 64 63
f 20 63 41
f 20 41 42
f 20 42 22
f 20 22 21
f 22 42 43
f 22 43 44
f 22 44 45
f 22 45 23
f 23 45 46
f 23 46 24
f 24 46 47
f 24 47 36
f 25 48 49
f 25 49 50
f 25 50 51
f 25 51 52
f 25 52 53
f 25 53 54
f 25 54 26
f 28 55 29
f 29 55 57
f 29 57 56
f 34 40 58
f 34 58 35
f 36 59 37
f 36 47 60
f 36 60 59
f 39 61 40
f 40 61 62
f 40 62 58
f 41 63 42
f 42 63 43
f 43 63 64
f 43 64 44
f 44 64 65
f 44 65 66
f 44 66 45
f 45 66 67
f 45 67 46
f 46 67 60
f 46 60 47
f 48 68 49
f 49 68 69
f 49 69 70
f 49 70 50
f 50 71 51
f 50 70 72
f 50 72 73
f 50 73 74
f 50 74 71
f 51 71 52
f 52 71 75
f 56 57 77
f 56 77 78
f 56 78 76
f 59 60 79
f 60 67 85
f 60 85 80
f 60 80 79
f 64 81 65
f 65 81 82
f 65 82 83
f 65 83 66
f 66 83 84
f 66 84 85
f 66 85 67
f 68 86 69
f 69 86 87
f 69 87 88
f 69 88 89
f 69 89 70
f 70 89 90
f 70 90 72
f 71 74 91
f 71 91 92
f 71 92 75
f 72 90 93
f 72 93 94
f 72 94 95
f 72 95 96
f 72 96 73
f 73 96 97
f 73 97 74
f 74 97 98
f 74 98 99
f 74 99 100
f 74 100 91
f 76 78 101
f 76 101 92
f 76 92 91
f 76 91 100
f 79 80 102
f 80 85 103
f 80 103 104
f 80 104 105
f 80 105 102
f 81 106 107
f 81 107 82
f 82 107 83
f 83 107 84
f 84 107 85
f 85 108 109
f 85 109 103
f 85 107 110
f 85 110 111
f 85 111 112
f 85 112 108
f 89 113 114
f 89 114 90
f 90 114 93
f 93 114 94
f 94 114 115
f 94 115 95
f 95 115 96
f 96 115 116
f 96 116 117
f 96 117 118
f 96 118 119
f 96 119 120
f 96 120 121
f 96 121 97
f 97 121 98
f 98 121 122
f 98 122 100
f 98 100 123
f 98 123 99
f 99 123 100
f 103 115 124
f 103 124 104
f 103 109 116
f 103 116 115
f 106 119 118
f 106 118 107
f 107 118 110
f 108 112 111
f 108 111 109
f 109 111 116
f 110 118 111
f 111 118 117
f 111 117 116
f 113 124 114
f 114 124 115

