# https://github.com/mikedh/trimesh
v 2.29234032 1.48210416 1.87019223
v 2.27567377 1.48247914 1.87019223
v 2.30781965 1.48963453 1.87019223
v 2.30784623 1.48964496 1.88688768
v 2.29234032 1.48210416 1.87021840
v 2.22500060 1.48352068 1.95353843
v 2.22500060 1.48396855 1.92021303
v 2.25901605 1.48397895 1.87019223
v 2.22500060 1.48366647 1.93688232
v 2.31473968 1.50569515 1.87019223
v 2.31551056 1.50569515 1.97020772
v 2.30786393 1.48965536 1.90355691
v 2.30788164 1.48968662 1.92021303
v 2.29234032 1.48216666 1.90355691
v 2.24234944 1.48330196 1.97020772
v 2.22568284 1.48362481 1.97020772
v 2.22500060 1.48363524 1.96952679
v 2.29234032 1.48223959 1.92021303
v 2.22500060 1.48423934 1.91954521
v 2.24661133 1.49133226 1.87019223
v 2.31414602 1.52235985 1.87019223
v 2.31458906 1.58849790 1.92021303
v 2.31518267 1.58849790 1.97020772
v 2.31507633 1.58849790 1.98687695
v 2.31513838 1.50569515 1.98687695
v 2.30812089 1.49019696 1.97020772
v 2.30789934 1.48976995 1.93688232
v 2.29234032 1.48243747 1.93688232
v 2.25901605 1.48317697 1.97020772
v 2.27567377 1.48421851 1.98687695
v 2.25901605 1.48438516 1.98687695
v 2.24234944 1.48463512 1.98687695
v 2.22500060 1.48498926 1.98619602
v 2.22500060 1.48364567 1.97020772
v 2.22500060 1.49151975 1.90199866
v 2.24413926 1.50567432 1.87019223
v 2.22500060 1.49185303 1.90157963
v 2.22500060 1.49771692 1.89482291
v 2.31162961 1.53902455 1.87019223
v 2.31139923 1.58849790 1.90355691
v 2.30775760 1.58849790 1.99957850
v 2.30790822 1.49091565 1.98687695
v 2.30766014 1.50569515 1.99925115
v 2.30532982 1.49347783 1.99788941
v 2.29234032 1.48307281 1.97020772
v 2.27567377 1.48312490 1.97020772
v 2.29234032 1.48430183 1.98687695
v 2.29234032 1.49140515 1.99922504
v 2.27567377 1.49134266 1.99915947
v 2.24234944 1.49162388 1.99908092
v 2.22568284 1.48503089 1.98687695
v 2.22500060 1.49185303 1.99901547
v 2.22500060 1.48505176 1.98687695
v 2.25589715 1.58849790 1.87019223
v 2.22500060 1.50520562 1.89376224
v 2.22500060 1.52235985 1.89395870
v 2.22500060 1.52277646 1.89397175
v 2.22500060 1.53432719 1.89494075
v 2.22500060 1.54264914 1.89597520
v 2.29437828 1.57235398 1.87019223
v 2.29405039 1.58849790 1.87021840
v 2.30727027 1.58849790 1.99972262
v 2.29234032 1.55568926 2.00383430
v 2.29234032 1.53902455 2.00366407
v 2.29234032 1.50569515 2.00328427
v 2.27567377 1.50569515 2.00317948
v 2.22568284 1.50569515 2.00282602
v 2.22500060 1.50514312 2.00266879
v 2.25708442 1.58849790 1.87019223
v 2.23963812 1.58849790 1.90355691
v 2.22500060 1.58849790 1.93380508
v 2.29234032 1.58849790 2.00395208
v 2.29234032 1.57235398 2.00389975
v 2.27567377 1.55568926 2.00396520
v 2.27567377 1.53902455 2.00376874
v 2.22500060 1.50569515 2.00281291
v 2.22500060 1.58849790 1.99858333
v 2.29180870 1.58849790 2.00395208
v 2.27567377 1.58849790 2.00392598
v 2.22500060 1.52235985 2.00285213
v 2.22500060 1.52168286 2.00285213
v 2.22500060 1.53902455 2.00248556
v 2.22500060 1.53833715 2.00251167
f 1 2 8
f 1 8 20
f 1 20 36
f 1 36 54
f 1 54 69
f 1 69 60
f 1 60 39
f 1 39 21
f 1 21 10
f 1 10 3
f 1 3 4
f 1 4 5
f 1 5 6
f 1 6 2
f 2 7 8
f 2 6 9
f 2 9 7
f 3 10 11
f 3 11 4
f 4 12 5
f 4 11 12
f 5 12 13
f 5 13 14
f 5 14 6
f 6 15 16
f 6 16 17
f 6 17 34
f 6 34 33
f 6 33 53
f 6 53 52
f 6 52 68
f 6 68 76
f 6 76 81
f 6 81 80
f 6 80 83
f 6 83 82
f 6 82 77
f 6 77 71
f 6 71 59
f 6 59 58
f 6 58 57
f 6 57 56
f 6 56 55
f 6 55 38
f 6 38 37
f 6 37 35
f 6 35 19
f 6 19 7
f 6 7 9
f 6 14 18
f 6 18 15
f 7 19 20
f 7 20 8
f 10 21 22
f 10 22 23
f 10 23 11
f 11 23 24
f 11 24 25
f 11 25 26
f 11 26 13
f 11 13 12
f 13 18 14
f 13 26 27
f 13 27 18
f 15 28 29
f 15 29 30
f 15 30 31
f 15 31 32
f 15 32 16
f 15 18 28
f 16 32 33
f 16 33 34
f 16 34 17
f 18 27 26
f 18 26 28
f 19 35 20
f 20 35 37
f 20 37 38
f 20 38 36
f 21 39 40
f 21 40 22
f 22 40 61
f 22 61 69
f 22 69 54
f 22 54 70
f 22 70 71
f 22 71 77
f 22 77 79
f 22 79 78
f 22 78 72
f 22 72 62
f 22 62 41
f 22 41 24
f 22 24 23
f 24 41 25
f 25 42 26
f 25 41 43
f 25 43 44
f 25 44 42
f 26 42 45
f 26 45 28
f 28 45 46
f 28 46 29
f 29 46 30
f 30 47 48
f 30 48 49
f 30 49 50
f 30 50 31
f 30 46 45
f 30 45 47
f 31 50 32
f 32 51 33
f 32 50 52
f 32 52 51
f 33 51 53
f 36 38 55
f 36 55 56
f 36 56 57
f 36 57 58
f 36 58 59
f 36 59 54
f 39 60 61
f 39 61 40
f 41 62 43
f 42 44 47
f 42 47 45
f 43 62 63
f 43 63 64
f 43 64 65
f 43 65 44
f 44 65 48
f 44 48 47
f 48 65 49
f 49 65 50
f 50 65 66
f 50 66 67
f 50 67 52
f 51 52 53
f 52 67 68
f 54 59 70
f 59 71 70
f 60 69 61
f 62 72 73
f 62 73 63
f 63 73 74
f 63 74 64
f 64 74 65
f 65 74 75
f 65 75 66
f 66 75 67
f 67 76 68
f 67 75 74
f 67 74 76
f 72 78 74
f 72 74 73
f 74 78 79
f 74 79 80
f 74 80 81
f 74 81 76
f 77 82 79
f 79 82 83
f 79 83 80

