# https://github.com/mikedh/trimesh
v -1.80675972 1.50532650 0.79956133
v -1.80959048 1.48940824 0.79956133
v -1.80702645 1.50967160 0.79956133
v -1.80678553 1.50569611 0.80354328
v -1.80694902 1.50569611 0.83687194
v -1.80703503 1.50569611 0.85354780
v -1.80986586 1.48903040 0.80354328
v -1.81802270 1.47883712 0.79956133
v -1.80758573 1.50569611 0.91712086
v -1.81156091 1.48903040 0.91712086
v -1.80782665 1.52235363 0.79956133
v -1.80784382 1.52235363 0.80354328
v -1.80843754 1.52235363 0.90352929
v -1.80852355 1.52235363 0.91712086
v -1.80775781 1.50876807 0.91712086
v -1.82130951 1.47841822 0.79956133
v -1.81802270 1.48118625 0.91712086
v -1.81949399 1.47940388 0.91712086
v -1.81415075 1.56111438 0.80354328
v -1.81418520 1.56111438 0.81477559
v -1.81543280 1.56111438 0.79956133
v -1.81507141 1.56111438 0.85354780
v -1.81523491 1.53901937 0.91712086
v -1.83137651 1.47721899 0.79956133
v -1.83137651 1.47829501 0.91712086
v -1.87024197 1.56111438 0.79956133
v -1.82746159 1.56111438 0.91712086
v -1.83535170 1.47730116 0.79956133
v -1.84804294 1.47861536 0.91712086
v -1.87050871 1.56108973 0.79956133
v -1.87051729 1.56111438 0.79964190
v -1.86977735 1.56111438 0.91712086
v -1.84804294 1.47757221 0.79956133
v -1.86491596 1.47945314 0.91712086
v -1.88000780 1.52309288 0.79956133
v -1.89465224 1.52254255 0.80699583
v -1.89465224 1.53177481 0.80853798
v -1.89465224 1.53478925 0.80956223
v -1.89465224 1.54140134 0.81483313
v -1.89465224 1.56111438 0.83238363
v -1.87876878 1.50569611 0.91712086
v -1.89465224 1.56111438 0.89891438
v -1.85200954 1.47779397 0.79956133
v -1.86686910 1.47965028 0.91712086
v -1.89465224 1.48139159 0.83658424
v -1.88025736 1.52204973 0.79956133
v -1.88331183 1.50569611 0.79956133
v -1.89465224 1.51836175 0.80673114
v -1.87714258 1.48893184 0.91712086
v -1.89465224 1.52262468 0.89996165
v -1.89465224 1.50569611 0.89989260
v -1.86581939 1.47900139 0.79956133
v -1.87342554 1.48037309 0.91712086
v -1.89465224 1.48144088 0.84026696
v -1.89465224 1.48342862 0.82044930
v -1.87347716 1.48034024 0.79956133
v -1.88322582 1.50392194 0.79956133
v -1.89465224 1.50569611 0.80594857
v -1.89465224 1.49795877 0.89860365
v -1.89465224 1.49423792 0.89757938
v -1.89465224 1.48838974 0.88970756
v -1.89465224 1.48293578 0.87358413
v -1.89465224 1.48233618 0.87020062
v -1.89465224 1.48179407 0.85693130
v -1.89465224 1.48171194 0.85354780
v -1.89465224 1.49094420 0.80861853
v -1.87808905 1.48491529 0.79956133
v -1.87912159 1.48773262 0.79956133
f 1 2 8
f 1 8 16
f 1 16 24
f 1 24 28
f 1 28 33
f 1 33 43
f 1 43 52
f 1 52 56
f 1 56 67
f 1 67 68
f 1 68 57
f 1 57 47
f 1 47 46
f 1 46 35
f 1 35 30
f 1 30 26
f 1 26 21
f 1 21 11
f 1 11 3
f 1 3 4
f 1 4 5
f 1 5 6
f 1 6 2
f 2 7 8
f 2 6 9
f 2 9 10
f 2 10 7
f 3 11 4
f 4 11 12
f 4 12 5
f 5 12 6
f 6 13 14
f 6 14 15
f 6 15 9
f 6 12 13
f 7 10 8
f 8 10 17
f 8 17 18
f 8 18 16
f 9 15 14
f 9 14 23
f 9 23 27
f 9 27 32
f 9 32 41
f 9 41 49
f 9 49 53
f 9 53 44
f 9 44 34
f 9 34 29
f 9 29 25
f 9 25 18
f 9 18 17
f 9 17 10
f 11 19 20
f 11 20 12
f 11 21 19
f 12 20 13
f 13 20 14
f 14 20 22
f 14 22 23
f 16 18 24
f 18 25 24
f 19 21 26
f 19 26 31
f 19 31 40
f 19 40 42
f 19 42 32
f 19 32 27
f 19 27 22
f 19 22 20
f 22 27 23
f 24 25 29
f 24 29 28
f 26 30 31
f 28 29 33
f 29 34 33
f 30 35 36
f 30 36 37
f 30 37 38
f 30 38 39
f 30 39 40
f 30 40 31
f 32 42 41
f 33 34 43
f 34 44 45
f 34 45 43
f 35 46 36
f 36 46 47
f 36 47 48
f 36 48 58
f 36 58 66
f 36 66 55
f 36 55 45
f 36 45 54
f 36 54 65
f 36 65 64
f 36 64 63
f 36 63 62
f 36 62 61
f 36 61 60
f 36 60 59
f 36 59 51
f 36 51 50
f 36 50 42
f 36 42 40
f 36 40 39
f 36 39 38
f 36 38 37
f 41 42 50
f 41 50 51
f 41 51 49
f 43 45 52
f 44 53 54
f 44 54 45
f 45 55 56
f 45 56 52
f 47 57 58
f 47 58 48
f 49 51 59
f 49 59 60
f 49 60 53
f 53 60 61
f 53 61 62
f 53 62 63
f 53 63 64
f 53 64 65
f 53 65 54
f 55 66 56
f 56 66 67
f 57 68 58
f 58 68 66
f 66 68 67

