# https://github.com/mikedh/trimesh
v 0.24611916 1.55408092 1.97487879
v 0.24603089 1.55408092 1.95998072
v 0.24543829 1.55408092 1.98974467
v 0.26324205 1.50143185 1.97487879
v 0.26340597 1.50168324 1.95822231
v 0.26353197 1.50180391 1.94155773
v 0.26351945 1.50178379 1.92554647
v 0.24601831 1.55408092 1.95822231
v 0.24424047 1.55408092 1.99808504
v 0.26209465 1.49890799 2.00076292
v 0.26280073 1.50043639 1.99155148
v 0.26485592 1.48918460 1.97487879
v 0.26509553 1.48918460 1.95822231
v 0.26524681 1.48918460 1.94155773
v 0.26520902 1.48918460 1.92554647
v 0.24533744 1.55408092 1.92554647
v 0.24335784 1.55408092 1.99864157
v 0.25309189 1.48918460 2.00524773
v 0.26242248 1.48918460 2.00115011
v 0.26407414 1.48918460 1.99155148
v 0.23590600 1.55408092 2.00273108
v 0.26269988 1.47743008 1.99155148
v 0.26304023 1.47655526 1.97487879
v 0.26311593 1.47646478 1.95822231
v 0.26314108 1.47644466 1.94155773
v 0.26311593 1.47650498 1.92554647
v 0.16460293 1.55408092 1.92554647
v 0.25338187 1.47314656 2.00327158
v 0.26208202 1.47911935 2.00069843
v 0.23424165 1.55408092 2.00302958
v 0.21975408 1.55408092 2.00555422
v 0.23642296 1.48918460 2.00794987
v 0.23642296 1.47251307 2.00744168
v 0.25863976 1.46909430 1.99155148
v 0.25920714 1.46822955 1.97487879
v 0.25886674 1.46817927 1.92554647
v 0.14683702 1.51283446 1.92554647
v 0.13643473 1.55408092 1.93031357
v 0.24801049 1.46123113 2.00203740
v 0.21800145 1.55408092 2.00554611
v 0.20309778 1.55408092 2.00546553
v 0.20134515 1.55408092 2.00544133
v 0.18644148 1.55408092 2.00522353
v 0.13643473 1.55408092 2.00441695
v 0.13643473 1.53916906 2.00448955
v 0.13643473 1.52250757 2.00455404
v 0.13643473 1.50583605 2.00448145
v 0.21975408 1.47251307 2.00726429
v 0.21975408 1.45878771 2.00365067
v 0.23642296 1.45924020 2.00343287
v 0.25030529 1.45931060 1.99155148
v 0.25087273 1.45912960 1.97487879
v 0.25891716 1.46810888 1.94155773
v 0.25053227 1.45981333 1.92554647
v 0.14587875 1.48918460 1.92554647
v 0.13643473 1.48918460 1.92944239
v 0.23642296 1.45324729 1.99155148
v 0.13643473 1.48918460 2.00422336
v 0.13643473 1.47646478 2.00197290
v 0.20309778 1.45945135 2.00310218
v 0.21975408 1.45222167 1.99155148
v 0.23642296 1.45263393 1.97487879
v 0.23699034 1.45375006 1.92554647
v 0.13643473 1.47647482 1.93115240
v 0.15432671 1.47506710 1.92554647
v 0.21975408 1.45136699 1.97487879
v 0.13643473 1.46898371 1.99155148
v 0.17501786 1.46325222 2.00076292
v 0.18644148 1.46142220 2.00193249
v 0.20309778 1.45347856 1.99155148
v 0.20309778 1.45248309 1.97487879
v 0.21975408 1.45169881 1.92554647
v 0.22042231 1.45176917 1.92554647
v 0.23642296 1.45350872 1.92554647
v 0.13643473 1.46902391 1.94155773
v 0.15619282 1.47354877 1.92554647
v 0.16402291 1.46734471 1.92554647
v 0.17201692 1.46120097 1.92554647
v 0.20309778 1.45269428 1.92554647
v 0.20375344 1.45265404 1.92554647
v 0.13643473 1.46583643 1.97487879
v 0.18644148 1.45573092 1.92554647
v 0.18709714 1.45560020 1.92554647
v 0.13643473 1.46586659 1.95822231
v 0.17234474 1.46105014 1.92554647
f 1 2 8
f 1 8 16
f 1 16 27
f 1 27 38
f 1 38 44
f 1 44 43
f 1 43 42
f 1 42 41
f 1 41 40
f 1 40 31
f 1 31 30
f 1 30 21
f 1 21 17
f 1 17 9
f 1 9 3
f 1 3 4
f 1 4 5
f 1 5 6
f 1 6 7
f 1 7 2
f 2 7 8
f 3 9 10
f 3 10 11
f 3 11 4
f 4 11 12
f 4 12 13
f 4 13 5
f 5 13 14
f 5 14 6
f 6 14 7
f 7 14 15
f 7 15 26
f 7 26 36
f 7 36 54
f 7 54 63
f 7 63 74
f 7 74 73
f 7 73 72
f 7 72 80
f 7 80 79
f 7 79 83
f 7 83 82
f 7 82 85
f 7 85 78
f 7 78 77
f 7 77 76
f 7 76 65
f 7 65 55
f 7 55 37
f 7 37 27
f 7 27 16
f 7 16 8
f 9 17 10
f 10 18 19
f 10 19 20
f 10 20 11
f 10 17 21
f 10 21 18
f 11 20 12
f 12 20 22
f 12 22 23
f 12 23 13
f 13 23 14
f 14 23 24
f 14 24 25
f 14 25 26
f 14 26 15
f 18 28 29
f 18 29 19
f 18 21 30
f 18 30 31
f 18 31 32
f 18 32 33
f 18 33 28
f 19 29 20
f 20 29 22
f 22 29 34
f 22 34 35
f 22 35 23
f 23 35 24
f 24 35 25
f 25 35 26
f 26 35 36
f 27 37 38
f 28 33 39
f 28 39 29
f 29 39 34
f 31 40 32
f 32 40 41
f 32 41 42
f 32 42 43
f 32 43 44
f 32 44 45
f 32 45 46
f 32 46 47
f 32 47 48
f 32 48 33
f 33 48 49
f 33 49 50
f 33 50 39
f 34 39 51
f 34 51 35
f 35 51 52
f 35 52 53
f 35 53 36
f 36 53 52
f 36 52 54
f 37 55 38
f 38 55 56
f 38 56 64
f 38 64 75
f 38 75 84
f 38 84 81
f 38 81 67
f 38 67 59
f 38 59 58
f 38 58 47
f 38 47 46
f 38 46 45
f 38 45 44
f 39 50 57
f 39 57 51
f 47 58 48
f 48 58 59
f 48 59 60
f 48 60 49
f 49 61 50
f 49 60 61
f 50 61 57
f 51 57 62
f 51 62 52
f 52 62 54
f 54 62 63
f 55 64 56
f 55 65 64
f 57 61 66
f 57 66 62
f 59 67 68
f 59 68 69
f 59 69 60
f 60 69 70
f 60 70 61
f 61 70 71
f 61 71 66
f 62 66 72
f 62 72 73
f 62 73 74
f 62 74 63
f 64 65 76
f 64 76 77
f 64 77 78
f 64 78 75
f 66 71 79
f 66 79 80
f 66 80 72
f 67 81 70
f 67 70 68
f 68 70 69
f 70 81 71
f 71 82 83
f 71 83 79
f 71 81 82
f 75 78 85
f 75 85 82
f 75 82 84
f 81 84 82

