# https://github.com/mikedh/trimesh
v 1.77581699 1.56001891 1.54606232
v 1.79580825 1.56001891 1.51101427
v 1.85734619 1.56001891 1.54606232
v 1.78975100 1.64317106 1.54606232
v 1.80035717 1.64317106 1.51146977
v 1.80900805 1.56001891 1.50829240
v 1.80682936 1.64317106 1.50889352
v 1.80900805 1.64317106 1.50802728
v 1.83887921 1.56001891 1.51079021
v 1.83440215 1.64317106 1.51136147
v 1.84544722 1.64317106 1.54606232
v 1.82133802 1.56001891 1.50813183
v 1.82152155 1.64317106 1.50793394
v 1.82566345 1.56001891 1.50809076
v 1.83614990 1.56001891 1.50983439
v 1.82566345 1.64317106 1.50792279
v 1.83221548 1.64317106 1.51049898
f 1 2 6
f 1 6 12
f 1 12 14
f 1 14 15
f 1 15 9
f 1 9 3
f 1 3 11
f 1 11 4
f 1 4 5
f 1 5 2
f 2 5 7
f 2 7 8
f 2 8 6
f 3 9 10
f 3 10 11
f 4 11 10
f 4 10 17
f 4 17 16
f 4 16 13
f 4 13 8
f 4 8 7
f 4 7 5
f 6 8 12
f 8 13 14
f 8 14 12
f 9 15 16
f 9 16 17
f 9 17 10
f 13 16 14
f 14 16 15

