# https://github.com/mikedh/trimesh
v 0.30906286 2.10568845 1.60773324
v 0.31042400 2.08902622 1.60773324
v 0.31027726 2.08902622 1.65710022
v 0.30906286 2.10568845 1.65710022
v 0.31240456 2.12235070 1.65710022
v 0.31242900 2.12235070 1.65353882
v 0.31263273 2.12235070 1.63687215
v 0.31033436 2.11071515 1.60773324
v 0.31322771 2.07237303 1.60773324
v 0.31282025 2.07237303 1.62021514
v 0.31264096 2.07237303 1.63687215
v 0.31250232 2.07237303 1.65710022
v 0.31680581 2.13103892 1.65710022
v 0.31681391 2.13102989 1.65353882
v 0.31375748 2.12401422 1.60773324
v 0.31630047 2.06289823 1.60773324
v 0.31590923 2.06250042 1.62021514
v 0.31577881 2.06239194 1.63687215
v 0.31568916 2.06232867 1.65710022
v 0.32567350 2.13148194 1.65710022
v 0.32567350 2.13146385 1.65353882
v 0.31699320 2.13091235 1.63687215
v 0.31720516 2.13076772 1.62343346
v 0.31577881 2.12755822 1.60773324
v 0.32194871 2.05772689 1.60773324
v 0.33409290 2.03912991 1.60810046
v 0.33462267 2.03912991 1.65709540
v 0.32116628 2.05772689 1.65710022
v 0.34233301 2.13127400 1.65710022
v 0.34233301 2.13126494 1.65353882
v 0.34233301 2.13105701 1.60773324
v 0.32413306 2.13093044 1.60773324
v 0.32062834 2.13078578 1.60773324
v 0.31755564 2.13067730 1.61061330
v 0.37958871 2.05772689 1.60773324
v 0.37896930 2.03912991 1.60810046
v 0.37281573 2.03912991 1.65709540
v 0.37364704 2.05772689 1.65710022
v 0.34976625 2.13093947 1.65710022
v 0.35140443 2.13077675 1.60773324
v 0.34914677 2.13084908 1.60773324
v 0.39231971 2.06959749 1.60773324
v 0.39232788 2.07807777 1.65710022
v 0.35180385 2.13083099 1.65710022
v 0.35349914 2.13046937 1.60773324
v 0.39232788 2.10687280 1.60773324
v 0.39232788 2.07606166 1.62021514
v 0.39232788 2.11253237 1.65709057
v 0.39231971 2.11253237 1.65710022
v 0.36009283 2.12950200 1.65353882
v 0.35973425 2.12954718 1.62021514
v 0.36013360 2.12949294 1.65710022
v 0.35974236 2.12944773 1.60773324
v 0.39231971 2.11275839 1.60773324
v 0.39232788 2.11197184 1.62021514
v 0.39232788 2.11251428 1.65353399
v 0.39232788 2.11231537 1.63687215
f 1 2 3
f 1 3 4
f 1 4 5
f 1 5 6
f 1 6 7
f 1 7 8
f 1 8 15
f 1 15 24
f 1 24 33
f 1 33 32
f 1 32 31
f 1 31 41
f 1 41 40
f 1 40 45
f 1 45 53
f 1 53 54
f 1 54 46
f 1 46 42
f 1 42 35
f 1 35 25
f 1 25 16
f 1 16 9
f 1 9 2
f 2 9 10
f 2 10 11
f 2 11 12
f 2 12 3
f 3 12 19
f 3 19 28
f 3 28 38
f 3 38 43
f 3 43 49
f 3 49 52
f 3 52 44
f 3 44 39
f 3 39 29
f 3 29 20
f 3 20 13
f 3 13 5
f 3 5 4
f 5 13 14
f 5 14 6
f 6 14 15
f 6 15 7
f 7 15 8
f 9 16 17
f 9 17 10
f 10 17 11
f 11 17 18
f 11 18 12
f 12 18 19
f 13 20 14
f 14 20 21
f 14 21 22
f 14 22 15
f 15 22 23
f 15 23 24
f 16 25 26
f 16 26 17
f 17 26 18
f 18 26 19
f 19 26 27
f 19 27 28
f 20 29 30
f 20 30 31
f 20 31 21
f 21 31 32
f 21 32 33
f 21 33 22
f 22 33 34
f 22 34 23
f 23 34 24
f 24 34 33
f 25 35 36
f 25 36 26
f 26 36 37
f 26 37 27
f 27 37 38
f 27 38 28
f 29 39 40
f 29 40 30
f 30 40 41
f 30 41 31
f 35 42 36
f 36 42 43
f 36 43 37
f 37 43 38
f 39 44 40
f 40 44 45
f 42 46 47
f 42 47 43
f 43 47 46
f 43 46 55
f 43 55 57
f 43 57 56
f 43 56 48
f 43 48 49
f 44 50 51
f 44 51 45
f 44 52 50
f 45 51 53
f 46 54 55
f 48 56 54
f 48 54 52
f 48 52 49
f 50 52 54
f 50 54 51
f 51 54 53
f 54 56 57
f 54 57 55

