# https://github.com/mikedh/trimesh
v 0.77544814 1.48326053 1.92021833
v 0.77544814 1.48334502 1.91999994
v 0.77566493 1.48326053 1.92021833
v 0.77544814 1.48396733 1.97020372
v 0.77544814 1.49161175 1.90191330
v 0.79232939 1.49023654 1.90365019
v 0.79232939 1.48330661 1.92021833
v 0.79232939 1.48402881 1.97020372
v 0.80899385 1.48744767 1.98687593
v 0.79232939 1.48742461 1.98687593
v 0.77544814 1.48739388 1.98665748
v 0.77544814 1.49176541 1.90175726
v 0.81362809 1.49072822 1.90319255
v 0.80899385 1.49030568 1.90367100
v 0.80899385 1.48341416 1.92021833
v 0.80899385 1.48415172 1.97020372
v 0.81362809 1.48747840 1.98687593
v 0.81362809 1.48928387 1.98976726
v 0.80899385 1.49400880 1.99727655
v 0.77544814 1.48743998 1.98687593
v 0.77544814 1.50456501 1.89513209
v 0.78068034 1.49847253 1.89523610
v 0.81362809 1.48846948 1.90826804
v 0.81362809 1.50027031 1.89530888
v 0.81362809 1.48349100 1.92021833
v 0.81362809 1.48353710 1.92484661
v 0.81362809 1.48419013 1.97020372
v 0.81362809 1.48510439 1.97484237
v 0.81362809 1.49402417 1.99727655
v 0.77544814 1.49409332 1.99719334
v 0.79232939 1.49403952 1.99722445
v 0.81362809 1.49725865 1.99799419
v 0.80899385 1.50569438 1.99984541
v 0.77544814 1.49400111 1.99705816
v 0.77544814 1.50471867 1.89512166
v 0.81362809 1.50811447 1.89511128
v 0.81362809 1.50532560 1.89516326
v 0.77544814 1.50569438 1.99969985
v 0.81362809 1.50569438 1.99984541
v 0.81362809 1.51032713 2.00003269
v 0.81362809 1.52235845 2.00050071
v 0.80899385 1.52235845 2.00049034
v 0.77544814 1.52235845 2.00040713
v 0.77544814 1.52277330 1.89510085
v 0.80899385 1.56174063 1.89424802
v 0.80899385 1.55568657 1.89428963
v 0.81362809 1.55008579 1.89449765
v 0.81362809 1.53902249 1.99965825
v 0.79232939 1.53902249 1.99962702
v 0.77544814 1.53902249 1.99956467
v 0.77544814 1.52334185 1.89510085
v 0.79922463 1.56174063 1.89476808
v 0.81362809 1.56174063 1.89443524
v 0.81362809 1.55568657 1.89446642
v 0.77544814 1.52453270 1.89511128
v 0.79232939 1.56174063 1.99738050
v 0.81362809 1.56174063 1.99733890
v 0.80899385 1.56174063 1.99734927
v 0.79837627 1.56174063 1.99737013
v 0.77544814 1.56174063 1.99733890
v 0.77544814 1.53670228 1.89675460
v 0.77544814 1.53790082 1.89699379
v 0.77544814 1.55073115 1.90582393
v 0.79172398 1.56174063 1.90287014
v 0.77544814 1.56174063 1.97504002
v 0.77544814 1.56045760 1.93187745
v 0.77547431 1.56174063 1.93224146
f 1 2 3
f 1 3 4
f 1 4 11
f 1 11 20
f 1 20 34
f 1 34 30
f 1 30 38
f 1 38 43
f 1 43 50
f 1 50 60
f 1 60 65
f 1 65 66
f 1 66 63
f 1 63 62
f 1 62 61
f 1 61 55
f 1 55 51
f 1 51 44
f 1 44 35
f 1 35 21
f 1 21 12
f 1 12 5
f 1 5 2
f 2 5 6
f 2 6 7
f 2 7 3
f 3 7 4
f 4 8 9
f 4 9 10
f 4 10 11
f 4 7 8
f 5 12 13
f 5 13 6
f 6 13 14
f 6 14 7
f 7 14 15
f 7 15 8
f 8 16 17
f 8 17 9
f 8 15 16
f 9 17 18
f 9 18 19
f 9 19 10
f 10 19 20
f 10 20 11
f 12 21 22
f 12 22 13
f 13 23 14
f 13 22 24
f 13 24 37
f 13 37 36
f 13 36 47
f 13 47 54
f 13 54 53
f 13 53 57
f 13 57 48
f 13 48 41
f 13 41 40
f 13 40 39
f 13 39 32
f 13 32 29
f 13 29 18
f 13 18 17
f 13 17 28
f 13 28 27
f 13 27 26
f 13 26 25
f 13 25 23
f 14 23 25
f 14 25 15
f 15 25 26
f 15 26 27
f 15 27 16
f 16 27 28
f 16 28 17
f 18 29 19
f 19 30 31
f 19 31 20
f 19 29 32
f 19 32 33
f 19 33 30
f 20 31 34
f 21 35 22
f 22 35 36
f 22 36 37
f 22 37 24
f 30 34 31
f 30 33 38
f 32 39 33
f 33 39 40
f 33 40 41
f 33 41 42
f 33 42 43
f 33 43 38
f 35 44 45
f 35 45 46
f 35 46 36
f 36 46 47
f 41 48 49
f 41 49 42
f 42 49 43
f 43 49 50
f 44 51 45
f 45 52 64
f 45 64 67
f 45 67 65
f 45 65 60
f 45 60 56
f 45 56 59
f 45 59 58
f 45 58 57
f 45 57 53
f 45 53 54
f 45 54 47
f 45 47 46
f 45 51 55
f 45 55 52
f 48 56 49
f 48 57 58
f 48 58 59
f 48 59 56
f 49 56 60
f 49 60 50
f 52 55 61
f 52 61 62
f 52 62 63
f 52 63 64
f 63 66 67
f 63 67 64
f 65 67 66

