# https://github.com/mikedh/trimesh
v -3.31008998 2.05295886 1.93226493
v -3.34089748 2.05295886 1.93226493
v -3.31008998 2.03588262 1.93226493
v -3.31008682 2.03583559 1.93151617
v -3.31008998 2.05295886 1.89200298
v -3.34212362 2.05295886 1.91726179
v -3.34089748 2.04289188 1.93226493
v -3.33675802 2.03588262 1.93226493
v -3.31008682 1.57237833 1.93151617
v -3.31008682 2.03583559 1.89366775
v -3.31472177 2.05295886 1.89157681
v -3.31008682 1.63132186 1.89428109
v -3.31008682 1.58150444 1.89438069
v -3.31008682 1.57237833 1.89440859
v -3.33729739 2.05295886 1.90355302
v -3.32943243 1.57237833 1.90354903
v -3.33397643 1.57237833 1.92020509
v -3.33679253 1.57237833 1.93151617
v -3.32941366 2.05295886 1.89307433
v -3.31471861 1.57237833 1.89418554
v -3.32392885 1.57237833 1.89471925
f 1 2 7
f 1 7 8
f 1 8 3
f 1 3 9
f 1 9 4
f 1 4 10
f 1 10 5
f 1 5 11
f 1 11 19
f 1 19 15
f 1 15 6
f 1 6 2
f 2 6 7
f 3 8 18
f 3 18 9
f 4 9 14
f 4 14 13
f 4 13 12
f 4 12 10
f 5 10 12
f 5 12 13
f 5 13 14
f 5 14 11
f 6 15 16
f 6 16 17
f 6 17 18
f 6 18 7
f 7 18 8
f 9 18 17
f 9 17 16
f 9 16 21
f 9 21 20
f 9 20 14
f 11 14 20
f 11 20 21
f 11 21 19
f 15 19 21
f 15 21 16

