# https://github.com/mikedh/trimesh
v -1.82831019 2.03782131 1.50556618
v -1.83023370 2.03782131 1.43900728
v -1.87536950 2.03782131 1.50556618
v -1.82779633 1.61314030 1.50556618
v -1.86985365 2.03782131 1.43900728
v -1.83073814 1.72238675 1.43900728
v -1.87038640 2.02235720 1.43900728
v -1.87591638 2.00568756 1.50556618
v -1.87494053 1.61314030 1.50556618
v -1.83092673 1.61314030 1.43900728
v -1.87054667 2.00568756 1.43900728
v -1.87592580 1.99608485 1.50556618
v -1.87505366 1.61970840 1.50556618
v -1.86924079 1.61314030 1.43900728
v -1.87594940 1.78906533 1.50556618
v -1.87594940 1.80573498 1.50556618
v -1.87507249 1.62091394 1.50556618
v -1.87509139 1.62236891 1.50556618
v -1.87541194 1.67237782 1.50556618
f 1 2 5
f 1 5 3
f 1 3 8
f 1 8 12
f 1 12 16
f 1 16 15
f 1 15 19
f 1 19 18
f 1 18 17
f 1 17 13
f 1 13 9
f 1 9 4
f 1 4 2
f 2 4 6
f 2 6 10
f 2 10 14
f 2 14 11
f 2 11 7
f 2 7 5
f 3 5 7
f 3 7 8
f 4 9 14
f 4 14 10
f 4 10 6
f 7 11 8
f 8 11 12
f 9 13 14
f 11 14 15
f 11 15 16
f 11 16 12
f 13 17 14
f 14 17 18
f 14 18 19
f 14 19 15

