# https://github.com/mikedh/trimesh
v -2.81579810 1.48367291 1.15355243
v -2.79804972 1.48367291 1.15355243
v -2.79804972 1.48386365 1.17021362
v -2.81579810 1.48385498 1.16912853
v -2.83400338 1.48373359 1.15355243
v -2.83400338 1.48479146 1.15112576
v -2.83400338 1.49049693 1.13815389
v -2.81470411 1.49048825 1.13812430
v -2.76826102 1.49054893 1.13825254
v -2.76826102 1.48383766 1.15355243
v -2.79804972 1.49048825 1.13812430
v -2.78138247 1.49052291 1.13818349
v -2.78138247 1.48395905 1.17021362
v -2.76826102 1.48424518 1.18331374
v -2.76826102 1.48430586 1.18686497
v -2.78138247 1.48423651 1.18686497
v -2.79804972 1.48416713 1.18686497
v -2.81579810 1.48387232 1.17021362
v -2.83400338 1.48395905 1.17021362
v -2.83400338 1.50569704 1.13135723
v -2.83137137 1.50569704 1.13130790
v -2.81579810 1.50569704 1.13106129
v -2.81470411 1.50570571 1.13104156
v -2.79804972 1.50570571 1.13102183
v -2.76826102 1.49378320 1.13680245
v -2.76826102 1.48404574 1.17021362
v -2.76826102 1.48643892 1.20352617
v -2.78138247 1.48634355 1.20352617
v -2.81579810 1.48420182 1.18686497
v -2.81579810 1.48417580 1.18577987
v -2.79804972 1.48629152 1.20352617
v -2.83400338 1.48428855 1.18686497
v -2.83400338 1.52236254 1.13183071
v -2.82628753 1.57216831 1.12492555
v -2.81471698 1.57224635 1.12046677
v -2.81470411 1.55567621 1.12270602
v -2.76826102 1.50570571 1.13165315
v -2.76826102 1.49152008 1.21287775
v -2.76826102 1.49289877 1.21541293
v -2.78138247 1.49282939 1.21543266
v -2.81579810 1.48622217 1.20243121
v -2.81579810 1.49285541 1.21540307
v -2.81579810 1.48636957 1.20352617
v -2.79804972 1.49279470 1.21543266
v -2.83400338 1.48618748 1.20090220
v -2.83400338 1.54003388 1.13568776
v -2.81579810 1.57224635 1.12089095
v -2.83400338 1.55568489 1.14176431
v -2.83400338 1.57216831 1.14870895
v -2.81460758 1.57224635 1.12047664
v -2.76826102 1.50925212 1.13178139
v -2.79813338 1.57224635 1.12409692
v -2.76826102 1.50295702 1.21886553
v -2.78138247 1.50570571 1.21983225
v -2.83400338 1.49296812 1.21533403
v -2.81470411 1.50570571 1.21982239
v -2.83400338 1.50370274 1.21903323
v -2.83400338 1.48654296 1.20352617
v -2.79804972 1.50570571 1.21984211
v -2.81579810 1.57224635 1.22123302
v -2.83400338 1.57216831 1.22123302
v -2.76826102 1.52237121 1.13233381
v -2.78979975 1.57224635 1.13127831
v -2.76826102 1.54194148 1.13848929
v -2.76826102 1.52591763 1.13299474
v -2.76826102 1.50570571 1.21980266
v -2.79804972 1.52237121 1.22085816
v -2.81470411 1.52237121 1.22086802
v -2.83400338 1.50569704 1.21971387
v -2.83400338 1.52236254 1.22081870
v -2.81579810 1.57216831 1.22124288
v -2.81471055 1.57224635 1.22123302
v -2.83400338 1.55568489 1.22120342
v -2.81579810 1.55459235 1.22121329
v -2.76826102 1.57224635 1.15971776
v -2.76826102 1.52237121 1.22076938
v -2.78138247 1.52237121 1.22081870
v -2.79804972 1.53901937 1.22110477
v -2.81470411 1.53901937 1.22111464
v -2.81579810 1.53901937 1.22111464
v -2.83137137 1.53901937 1.22109491
v -2.83400338 1.53639209 1.22104559
v -2.79804972 1.57224635 1.22121329
v -2.79804972 1.55567621 1.22119356
v -2.83400338 1.53901937 1.22108505
v -2.76826102 1.57224635 1.22111464
v -2.76826102 1.53901937 1.22097653
v -2.78138247 1.53901937 1.22104559
v -2.76826102 1.55567621 1.22107518
v -2.76826102 1.55212981 1.22105545
f 1 2 3
f 1 3 4
f 1 4 5
f 1 5 6
f 1 6 7
f 1 7 8
f 1 8 11
f 1 11 2
f 2 9 10
f 2 10 3
f 2 11 12
f 2 12 9
f 3 10 13
f 3 13 14
f 3 14 15
f 3 15 16
f 3 16 17
f 3 17 18
f 3 18 4
f 4 18 19
f 4 19 5
f 5 19 32
f 5 32 45
f 5 45 58
f 5 58 55
f 5 55 57
f 5 57 69
f 5 69 70
f 5 70 82
f 5 82 85
f 5 85 73
f 5 73 61
f 5 61 49
f 5 49 48
f 5 48 46
f 5 46 33
f 5 33 20
f 5 20 7
f 5 7 6
f 7 20 21
f 7 21 22
f 7 22 23
f 7 23 8
f 8 23 24
f 8 24 11
f 9 12 24
f 9 24 25
f 9 25 37
f 9 37 51
f 9 51 62
f 9 62 65
f 9 65 64
f 9 64 75
f 9 75 86
f 9 86 89
f 9 89 90
f 9 90 87
f 9 87 76
f 9 76 66
f 9 66 53
f 9 53 39
f 9 39 38
f 9 38 27
f 9 27 15
f 9 15 14
f 9 14 26
f 9 26 10
f 10 26 13
f 11 24 12
f 13 26 14
f 15 27 28
f 15 28 16
f 16 28 17
f 17 29 30
f 17 30 18
f 17 28 31
f 17 31 29
f 18 30 19
f 19 30 32
f 20 33 34
f 20 34 35
f 20 35 36
f 20 36 21
f 21 36 23
f 21 23 22
f 23 36 24
f 24 36 37
f 24 37 25
f 27 38 28
f 28 38 39
f 28 39 40
f 28 40 31
f 29 32 30
f 29 31 41
f 29 41 32
f 31 42 43
f 31 43 41
f 31 40 44
f 31 44 42
f 32 41 43
f 32 43 45
f 33 46 34
f 34 47 35
f 34 46 48
f 34 48 49
f 34 49 47
f 35 47 60
f 35 60 72
f 35 72 83
f 35 83 86
f 35 86 75
f 35 75 63
f 35 63 52
f 35 52 50
f 35 50 37
f 35 37 36
f 37 50 52
f 37 52 51
f 39 53 40
f 40 53 54
f 40 54 44
f 42 55 43
f 42 44 56
f 42 56 57
f 42 57 55
f 43 55 58
f 43 58 45
f 44 54 59
f 44 59 56
f 47 49 61
f 47 61 60
f 51 52 62
f 52 63 64
f 52 64 65
f 52 65 62
f 53 66 54
f 54 66 67
f 54 67 68
f 54 68 59
f 56 69 57
f 56 59 68
f 56 68 70
f 56 70 69
f 60 61 71
f 60 71 72
f 61 73 74
f 61 74 71
f 63 75 64
f 66 76 77
f 66 77 67
f 67 77 78
f 67 78 79
f 67 79 68
f 68 79 80
f 68 80 81
f 68 81 70
f 70 81 82
f 71 83 72
f 71 74 84
f 71 84 83
f 73 80 74
f 73 85 81
f 73 81 80
f 74 80 79
f 74 79 78
f 74 78 84
f 76 87 88
f 76 88 77
f 77 88 78
f 78 88 84
f 81 85 82
f 83 84 86
f 84 88 89
f 84 89 86
f 87 90 88
f 88 90 89

