# https://github.com/mikedh/trimesh
v -2.08927703 -0.22777287000000002 1.00917443
v -2.09081524 -0.24443281 1.00917443
v -2.0892858 -0.22777287000000002 0.9750609
v -2.0912784799999997 -0.21108747 1.00917443
v -2.09143581 -0.21108747 1.06377896
v -2.09019473 -0.22316679 1.12124537
v -2.08960918 -0.22822245000000002 1.12124537
v -2.09889098 -0.25763183 1.05918566
v -2.0987598800000002 -0.25777604 1.00917443
v -2.09082401 -0.24443281 0.99250402
v -2.09111243 -0.24443281 1.05918566
v -2.09898712 -0.25764031 1.07587038
v -2.09105995 -0.24443281 0.9750609
v -2.09157561 -0.21113837000000002 0.9750609
v -2.09136585 -0.21108747 0.99250402
v -2.09915316 -0.19911844 0.99250402
v -2.09909197 -0.19909300000000002 1.00917443
v -2.09910944 -0.19909300000000002 1.02584484
v -2.09915316 -0.19910147 1.05918566
v -2.0970381 -0.20240125 1.06379327
v -2.09147947 -0.21108747 1.07587038
v -2.0916368 -0.21108747 1.09254079
v -2.09190775 -0.21108747 1.10922551
v -2.09210874 -0.21108747 1.12124537
v -2.09172424 -0.24359304 1.12124537
v -2.09143581 -0.24442433000000002 1.09254079
v -2.09123476 -0.24442433000000002 1.07587038
v -2.11588136 -0.27523336 0.9750609
v -2.09878607 -0.25773362 0.99250402
v -2.1160649400000002 -0.27508914 1.09254079
v -2.11602122 -0.27512308 1.07587038
v -2.09114738 -0.24443281 1.06377896
v -2.09914439 -0.25756397000000003 1.09254079
v -2.09903078 -0.25769970000000003 0.9750609
v -2.09929302 -0.19911844 0.9750609
v -2.09928425 -0.19911844 0.9758193
v -2.11275246 -0.19541152 0.9750609
v -2.11338173 -0.19524187 0.9750609
v -2.11338173 -0.19524187 0.9758193
v -2.11338173 -0.19526731 1.02584484
v -2.11338173 -0.19525884 1.00917443
v -2.11338173 -0.19530124 1.07587038
v -2.09919688 -0.19913541 1.07587038
v -2.09928425 -0.19917784 1.09254079
v -2.0993978699999998 -0.19922871 1.10922551
v -2.0995289599999998 -0.19926264999999999 1.12124537
v -2.10013205 -0.25681750000000003 1.12124537
v -2.09949401 -0.25725011000000003 1.10922551
v -2.13005757 -0.28107791 1.00917443
v -2.13005757 -0.28109488 0.9750609
v -2.13005757 -0.28101004 1.07587038
v -2.11675534 -0.2746226 1.12124537
v -2.13005757 -0.28056894 1.12124537
v -2.13005757 -0.28096763 1.09254079
v -2.13005757 -0.1948856 0.9750609
v -2.13005757 -0.1948856 0.9758193
v -2.13005757 -0.19497041 1.09254079
v -2.11338173 -0.19536065000000002 1.09254079
v -2.11338173 -0.19551332999999999 1.12124537
v -2.14671587 -0.28128996 1.12124537
v -2.14671587 -0.28134087 1.00917443
v -2.14671587 -0.28133238 0.9750609
v -2.14671587 -0.19468202 0.9750609
v -2.14671587 -0.19475836000000002 1.07587038
v -2.14671587 -0.19480076000000002 1.09254079
v -2.14205746 -0.19499588 1.12124537
v -2.13005757 -0.19506375 1.10922551
v -2.13005757 -0.19513159000000002 1.12124537
v -2.16339164 -0.27981399 1.12124537
v -2.16339164 -0.27989033 0.99250402
v -2.16339164 -0.27985639 0.9750609
v -2.16339164 -0.19547089 0.9750609
v -2.16339164 -0.19544546000000002 0.99250402
v -2.16339164 -0.19559814 1.07587038
v -2.16339164 -0.19575082 1.12124537
v -2.15873324 -0.19552180000000002 1.12124537
v -2.14671587 -0.19495347000000002 1.12124537
v -2.16339164 -0.19564904 1.09254079
v -2.1748583999999997 -0.27391853 1.12124537
v -2.17490212 -0.27395247 0.9758193
v -2.17490212 -0.27395247 0.9750609
v -2.16391601 -0.27960192 0.9750609
v -2.17479727 -0.19954258000000002 0.9750609
v -2.17481474 -0.19950864000000001 0.99250402
v -2.17474479 -0.19965285 1.10922551
v -2.17474479 -0.19967832000000002 1.12124537
v -2.17157222 -0.19857555 1.12124537
v -2.17725318 -0.26466396000000003 1.12124537
v -2.1781708799999997 -0.26110124 1.12124537
v -2.17815341 -0.26110972 0.9750609
v -2.17821454 -0.21108747 0.9750609
v -2.17822331 -0.21108747 0.9758193
v -2.17822331 -0.21108747 1.12124537
v -2.17839811 -0.24442433000000002 1.12124537
v -2.17847678 -0.22777287000000002 0.9750609
v -2.17852044 -0.23242985 1.12124537
v -2.17823201 -0.21184244000000002 0.9750609
v -2.17856416 -0.22776439 1.12124537
v -2.17831945 -0.21575294 1.12124537
f 1 2 3
f 1 3 4
f 1 4 5
f 1 5 6
f 1 6 7
f 1 7 2
f 2 8 9
f 2 9 10
f 2 10 3
f 2 7 11
f 2 11 12
f 2 12 8
f 3 13 34
f 3 34 28
f 3 28 50
f 3 50 62
f 3 62 71
f 3 71 82
f 3 82 81
f 3 81 90
f 3 90 95
f 3 95 97
f 3 97 91
f 3 91 83
f 3 83 72
f 3 72 63
f 3 63 55
f 3 55 38
f 3 38 37
f 3 37 35
f 3 35 14
f 3 14 15
f 3 15 4
f 3 10 13
f 4 15 16
f 4 16 17
f 4 17 18
f 4 18 19
f 4 19 20
f 4 20 5
f 5 20 21
f 5 21 6
f 6 21 22
f 6 22 23
f 6 23 24
f 6 24 46
f 6 46 59
f 6 59 68
f 6 68 66
f 6 66 77
f 6 77 76
f 6 76 75
f 6 75 87
f 6 87 86
f 6 86 93
f 6 93 99
f 6 99 98
f 6 98 96
f 6 96 94
f 6 94 89
f 6 89 88
f 6 88 79
f 6 79 69
f 6 69 60
f 6 60 53
f 6 53 52
f 6 52 47
f 6 47 25
f 6 25 7
f 7 25 26
f 7 26 27
f 7 27 11
f 8 12 9
f 9 28 29
f 9 29 10
f 9 12 30
f 9 30 31
f 9 31 28
f 10 29 13
f 11 27 32
f 11 32 12
f 12 27 26
f 12 26 33
f 12 33 30
f 12 32 27
f 13 29 34
f 14 35 15
f 15 36 16
f 15 35 36
f 16 36 17
f 17 36 37
f 17 37 38
f 17 38 39
f 17 39 18
f 18 40 19
f 18 39 41
f 18 41 40
f 19 40 42
f 19 42 43
f 19 43 20
f 20 43 21
f 21 43 44
f 21 44 45
f 21 45 22
f 22 45 46
f 22 46 23
f 23 46 24
f 25 47 48
f 25 48 33
f 25 33 26
f 28 49 50
f 28 34 29
f 28 31 51
f 28 51 49
f 30 33 48
f 30 48 52
f 30 52 53
f 30 53 54
f 30 54 31
f 31 54 51
f 35 37 36
f 38 55 56
f 38 56 39
f 39 56 41
f 40 41 56
f 40 56 42
f 42 57 58
f 42 58 43
f 42 56 57
f 43 58 44
f 44 58 45
f 45 58 59
f 45 59 46
f 47 52 48
f 49 51 60
f 49 60 50
f 50 60 61
f 50 61 62
f 51 54 60
f 53 60 54
f 55 63 56
f 56 63 57
f 57 64 65
f 57 65 66
f 57 66 67
f 57 67 59
f 57 59 58
f 57 63 64
f 59 67 68
f 60 69 70
f 60 70 61
f 61 70 62
f 62 70 71
f 63 72 73
f 63 73 64
f 64 74 65
f 64 73 74
f 65 75 76
f 65 76 77
f 65 77 66
f 65 74 78
f 65 78 75
f 66 68 67
f 69 79 70
f 70 80 81
f 70 81 82
f 70 82 71
f 70 79 80
f 72 83 84
f 72 84 73
f 73 84 85
f 73 85 74
f 74 85 86
f 74 86 87
f 74 87 78
f 75 78 87
f 79 88 80
f 80 88 89
f 80 89 81
f 81 89 90
f 83 91 92
f 83 92 84
f 84 92 93
f 84 93 86
f 84 86 85
f 89 94 90
f 90 94 96
f 90 96 95
f 91 97 92
f 92 97 95
f 92 95 98
f 92 98 99
f 92 99 93
f 95 96 98

