# https://github.com/mikedh/trimesh
v -1.62876604 2.07118087 0.20179471
v -1.62876604 2.12558222 0.20179471
v -1.60286563 2.07382600 0.20179471
v -1.62876604 2.07168057 0.44151521
v -1.62383699 2.12515312 0.20179471
v -1.62876604 2.12666849 0.43809941
v -1.60286563 2.12321953 0.20179471
v -1.60286563 2.07447775 0.43556423
v -1.60286563 2.07455923 0.44151521
v -1.62876604 2.07478734 0.45755352
v -1.62876604 2.12665761 0.44084805
v -1.60286563 2.12224731 0.44151521
v -1.60286563 2.07657430 0.44920081
v -1.60286563 2.07777463 0.45341722
v -1.62876604 2.08320609 0.46740065
v -1.62876604 2.12242112 0.45739342
v -1.60286563 2.11820629 0.45421778
v -1.60286563 2.08918610 0.45808722
v -1.62876604 2.08918610 0.47407219
v -1.62876604 2.12219841 0.45803388
v -1.62876604 2.10584433 0.47441909
v -1.60286563 2.11379053 0.45589900
v -1.60286563 2.10584433 0.45891448
v -1.62876604 2.09021807 0.47412554
f 1 2 5
f 1 5 7
f 1 7 3
f 1 3 4
f 1 4 10
f 1 10 15
f 1 15 19
f 1 19 24
f 1 24 21
f 1 21 20
f 1 20 16
f 1 16 11
f 1 11 6
f 1 6 2
f 2 6 5
f 3 7 12
f 3 12 17
f 3 17 22
f 3 22 23
f 3 23 18
f 3 18 14
f 3 14 13
f 3 13 9
f 3 9 8
f 3 8 4
f 4 8 9
f 4 9 10
f 5 6 7
f 6 11 7
f 7 11 12
f 9 13 10
f 10 13 14
f 10 14 15
f 11 16 12
f 12 16 17
f 14 18 19
f 14 19 15
f 16 20 17
f 17 20 21
f 17 21 22
f 18 23 24
f 18 24 19
f 21 24 23
f 21 23 22

