# https://github.com/mikedh/trimesh
v 0.26985369 2.10582702 0.32493255
v 0.26972757 2.10582702 0.49148512
v 0.26906249 2.08919686 0.35825385
v 0.26907394 2.08919686 0.34162015
v 0.26907394 2.08919686 0.24160248
v 0.26983080 2.10582702 0.24160248
v 0.26795014 2.12249837 0.52416042
v 0.26797315 2.12249837 0.65814533
v 0.26797315 2.12249837 0.67709378
v 0.26965878 2.10582702 0.57486905
v 0.26879868 2.08919686 0.65814533
v 0.26495737 2.07491594 0.67709378
v 0.26503760 2.07486444 0.24160248
v 0.26501471 2.07486444 0.22496871
v 0.26901660 2.08919686 0.22496871
v 0.26978491 2.10582702 0.22496871
v 0.26730808 2.12249837 0.22496871
v 0.26790437 2.12249837 0.49148512
v 0.26381068 2.13300813 0.67483286
v 0.26379912 2.13296694 0.72484173
v 0.26792725 2.12249837 0.72484173
v 0.26816806 2.11932484 0.74470529
v 0.26934919 2.10582702 0.74152926
v 0.26872990 2.08919686 0.72484173
v 0.26493436 2.07495716 0.70815416
v 0.24902980 2.03979067 0.72484173
v 0.24877755 2.03980097 0.44153011
v 0.24851380 2.03980097 0.24101030
v 0.24902980 2.03979067 0.70756202
v 0.24842207 2.03980097 0.19476964
v 0.26495737 2.07491594 0.20828118
v 0.26892492 2.08919686 0.20828118
v 0.26961289 2.10582702 0.19476964
v 0.26713606 2.12249837 0.19476964
v 0.26369600 2.13021583 0.19476964
v 0.26287035 2.13206020 0.19476964
v 0.26297359 2.13213232 0.22496871
v 0.26358132 2.13259599 0.50811883
v 0.26379912 2.13297722 0.65814533
v 0.25308909 2.13713992 0.22496871
v 0.25307765 2.13802604 0.67709378
v 0.25307765 2.13803633 0.70815416
v 0.25307765 2.13803633 0.72484173
v 0.26375334 2.13295663 0.74152926
v 0.26453310 2.13096802 0.74470529
v 0.26789280 2.12249837 0.74152926
v 0.26933763 2.10582702 0.74470529
v 0.26788136 2.12249837 0.74470529
v 0.26869556 2.08919686 0.74152926
v 0.26492292 2.07500869 0.72484173
v 0.24899541 2.03979067 0.74088329
v 0.24886928 2.03979067 0.60759820
v 0.24873166 2.03979067 0.52426810
v 0.18306074 2.03980097 0.19476964
v 0.26488858 2.07494685 0.19476964
v 0.24833033 2.03979067 0.52416042
v 0.26878724 2.08919686 0.19476964
v 0.25308909 2.13706780 0.19476964
v 0.23640478 2.14303362 0.19476964
v 0.23640478 2.14210628 0.74152926
v 0.24991279 2.13876789 0.74470529
v 0.25307765 2.13799511 0.74152926
v 0.23640478 2.14294091 0.32493255
v 0.26172367 2.13390456 0.74470529
v 0.26374178 2.13294632 0.74470529
v 0.26868412 2.08919686 0.74470529
v 0.26488858 2.07516324 0.74470529
v 0.24897246 2.03979067 0.74470529
v 0.15270789 2.07095932 0.19476964
v 0.18256768 2.03979067 0.52416042
v 0.18151273 2.03979067 0.74470529
v 0.21975485 2.14501195 0.19476964
v 0.21975485 2.14503254 0.20828118
v 0.21975485 2.14504285 0.22496871
v 0.21975485 2.14498101 0.32493255
v 0.23640478 2.14209600 0.74470529
v 0.21975485 2.14454828 0.47479759
v 0.25307765 2.13798483 0.74470529
v 0.15270789 2.11793384 0.19476964
v 0.15435913 2.06872344 0.74470529
v 0.15270789 2.07306127 0.39152127
v 0.21654410 2.14491920 0.19476964
v 0.20312782 2.14457918 0.22496871
v 0.20312782 2.14458949 0.24160248
v 0.20312782 2.14458949 0.30824502
v 0.20312782 2.14457918 0.32493255
v 0.20312782 2.14442463 0.44153011
v 0.20312782 2.14435250 0.47479759
v 0.21974335 2.14317787 0.74470529
v 0.20312782 2.14427007 0.49148512
v 0.15270789 2.12494036 0.20828118
v 0.15277667 2.12711443 0.19476964
v 0.15435913 2.13602713 0.74470529
v 0.15354498 2.08919686 0.62487788
v 0.15344175 2.08919686 0.60819032
v 0.15270789 2.07555479 0.42414275
v 0.15270789 2.07551357 0.42403510
v 0.15270789 2.07327766 0.40820887
v 0.15270789 2.07324676 0.40783204
v 0.20312782 2.14449675 0.19476964
v 0.20312782 2.14454828 0.20828118
v 0.18645495 2.14297181 0.22496871
v 0.18645495 2.14297181 0.24160248
v 0.18645495 2.14295119 0.32493255
v 0.18327865 2.14056075 0.74470529
v 0.21657850 2.14310574 0.74470529
v 0.19995152 2.14234327 0.74470529
v 0.20310487 2.14262148 0.74470529
v 0.15270789 2.12411605 0.40820887
v 0.17047010 2.13603744 0.19476964
v 0.18645495 2.14288938 0.20828118
v 0.15270789 2.12084978 0.42468104
v 0.15270789 2.10582702 0.44879729
v 0.15270789 2.09952115 0.45186564
v 0.15270789 2.08919686 0.45622593
v 0.19991707 2.14417732 0.19476964
v 0.18645495 2.14271423 0.19476964
f 1 2 3
f 1 3 4
f 1 4 5
f 1 5 6
f 1 6 7
f 1 7 8
f 1 8 9
f 1 9 2
f 2 9 10
f 2 10 3
f 3 10 11
f 3 11 12
f 3 12 4
f 4 13 5
f 4 12 13
f 5 13 14
f 5 14 15
f 5 15 16
f 5 16 6
f 6 16 17
f 6 17 18
f 6 18 7
f 7 19 8
f 7 18 19
f 8 19 9
f 9 19 20
f 9 20 21
f 9 21 10
f 10 21 22
f 10 22 23
f 10 23 24
f 10 24 11
f 11 24 12
f 12 24 25
f 12 25 26
f 12 26 13
f 13 27 28
f 13 28 14
f 13 26 29
f 13 29 27
f 14 28 30
f 14 30 31
f 14 31 15
f 15 31 32
f 15 32 16
f 16 32 33
f 16 33 34
f 16 34 17
f 17 34 35
f 17 35 36
f 17 36 37
f 17 37 38
f 17 38 39
f 17 39 18
f 18 39 19
f 19 39 40
f 19 40 41
f 19 41 42
f 19 42 43
f 19 43 20
f 20 43 44
f 20 44 45
f 20 45 46
f 20 46 21
f 21 46 22
f 22 47 23
f 22 46 48
f 22 48 45
f 22 45 65
f 22 65 64
f 22 64 78
f 22 78 61
f 22 61 76
f 22 76 89
f 22 89 106
f 22 106 108
f 22 108 107
f 22 107 105
f 22 105 93
f 22 93 80
f 22 80 71
f 22 71 68
f 22 68 67
f 22 67 66
f 22 66 47
f 23 47 66
f 23 66 49
f 23 49 24
f 24 50 25
f 24 49 50
f 25 50 26
f 26 50 51
f 26 51 68
f 26 68 71
f 26 71 70
f 26 70 56
f 26 56 53
f 26 53 52
f 26 52 29
f 27 29 28
f 28 29 52
f 28 52 53
f 28 53 30
f 30 54 69
f 30 69 79
f 30 79 92
f 30 92 110
f 30 110 117
f 30 117 116
f 30 116 100
f 30 100 82
f 30 82 72
f 30 72 59
f 30 59 58
f 30 58 36
f 30 36 35
f 30 35 34
f 30 34 33
f 30 33 57
f 30 57 55
f 30 55 31
f 30 53 56
f 30 56 70
f 30 70 54
f 31 55 32
f 32 55 57
f 32 57 33
f 36 58 37
f 37 58 39
f 37 39 38
f 39 58 40
f 40 58 59
f 40 59 41
f 41 59 42
f 42 59 43
f 43 60 61
f 43 61 62
f 43 62 44
f 43 59 63
f 43 63 60
f 44 64 65
f 44 65 45
f 44 62 64
f 45 48 46
f 49 66 50
f 50 66 67
f 50 67 51
f 51 67 68
f 54 70 71
f 54 71 69
f 59 72 73
f 59 73 74
f 59 74 75
f 59 75 63
f 60 76 61
f 60 63 75
f 60 75 77
f 60 77 76
f 61 78 62
f 62 78 64
f 69 71 80
f 69 80 81
f 69 81 99
f 69 99 98
f 69 98 97
f 69 97 96
f 69 96 115
f 69 115 114
f 69 114 113
f 69 113 112
f 69 112 109
f 69 109 91
f 69 91 79
f 72 82 83
f 72 83 73
f 73 83 84
f 73 84 74
f 74 84 85
f 74 85 86
f 74 86 75
f 75 86 87
f 75 87 88
f 75 88 77
f 76 77 89
f 77 88 90
f 77 90 89
f 79 91 92
f 80 93 94
f 80 94 95
f 80 95 96
f 80 96 97
f 80 97 98
f 80 98 99
f 80 99 81
f 82 100 101
f 82 101 83
f 83 102 84
f 83 101 102
f 84 102 103
f 84 103 85
f 85 103 104
f 85 104 86
f 86 104 87
f 87 104 88
f 88 104 105
f 88 105 90
f 89 90 106
f 90 105 107
f 90 107 108
f 90 108 106
f 91 109 92
f 92 109 93
f 92 93 110
f 93 95 94
f 93 105 104
f 93 104 103
f 93 103 102
f 93 102 111
f 93 111 110
f 93 109 112
f 93 112 113
f 93 113 95
f 95 113 114
f 95 114 115
f 95 115 96
f 100 116 102
f 100 102 101
f 102 116 111
f 110 111 117
f 111 116 117

