# https://github.com/mikedh/trimesh
v -0.3621384300000001 -0.26111217 0.70897295
v -0.36221882000000005 -0.24443032 0.70897295
v -0.36221882000000005 -0.24443032 0.72565048
v -0.36226355 -0.24428498 0.74218685
v -0.36219204000000005 -0.26111217 0.72565048
v -0.36642884 -0.27475005 0.72565048
v -0.3663841700000001 -0.27476717 0.70897295
v -0.3663841700000001 -0.27477571 0.69229542
v -0.36217415 -0.26111217 0.69229542
v -0.3624065700000001 -0.2277656 0.642283
v -0.3623261200000001 -0.2277656 0.69229542
v -0.36230822000000007 -0.2277656 0.70897295
v -0.36230822000000007 -0.2277656 0.72565048
v -0.3623261200000001 -0.2277656 0.74218685
v -0.36226355 -0.24443032 0.74218685
v -0.3622813899999999 -0.26111217 0.74218685
v -0.3664914100000001 -0.27472441000000003 0.74218685
v -0.3789783900000001 -0.28185545 0.70897295
v -0.36667910000000004 -0.27447645 0.63917739
v -0.36666127000000004 -0.27449355000000003 0.642283
v -0.36645568000000006 -0.27466456 0.67562796
v -0.36229033 -0.26111217 0.67562796
v -0.36241546 -0.22819312 0.63917739
v -0.36241546 -0.2277656 0.63917739
v -0.3627193900000001 -0.22467035000000002 0.63917739
v -0.36400651000000006 -0.21108377 0.65896054
v -0.3639350000000001 -0.21108377 0.69229542
v -0.36387243999999996 -0.21108377 0.72565048
v -0.36387243999999996 -0.21108377 0.74218685
v -0.36660764999999995 -0.27478426 0.74218685
v -0.3789783900000001 -0.28154763 0.72565048
v -0.38835485000000003 -0.28476258 0.70950737
v -0.38832800999999995 -0.28476258 0.70897295
v -0.38943638 -0.28476258 0.67562796
v -0.39010674999999995 -0.28476258 0.66013016
v -0.3789783900000001 -0.28065839 0.63917739
v -0.36926234000000013 -0.27577611 0.63917739
v -0.3626210999999999 -0.26111217 0.63917739
v -0.3624333500000001 -0.26111217 0.65896054
v -0.36248696999999996 -0.24485785000000002 0.63917739
v -0.36246913999999997 -0.24133509 0.63917739
v -0.36401546000000007 -0.21151128000000002 0.63917739
v -0.36405124 -0.21108377 0.642283
v -0.36481995999999994 -0.20915992 0.63917739
v -0.36814502000000005 -0.20063518000000002 0.65896054
v -0.36801989999999996 -0.20051545 0.72565048
v -0.36801989999999996 -0.20050692 0.74218685
v -0.3789783900000001 -0.28106025 0.74218685
v -0.39094698000000005 -0.28476258 0.72567064
v -0.39025872000000006 -0.28476258 0.65896054
v -0.3951033800000001 -0.28476258 0.64364422
v -0.39573802 -0.28476258 0.64237375
v -0.39530895999999993 -0.28332612 0.63917739
v -0.36258532 -0.25800837 0.63917739
v -0.36406019 -0.21108377 0.63917739
v -0.3681808099999999 -0.20067791000000001 0.63917739
v -0.3681808099999999 -0.20066938 0.642283
v -0.3789783900000001 -0.19792469000000001 0.69229542
v -0.3789783900000001 -0.19785628 0.72565048
v -0.3789783900000001 -0.19785628 0.74218685
v -0.3790856899999999 -0.2810859 0.74218685
v -0.39784748000000003 -0.28476258 0.74007948
v -0.4060351 -0.28476258 0.63917739
v -0.37669913999999993 -0.19866856 0.63917739
v -0.3789783900000001 -0.19798454 0.67562796
v -0.39565757 -0.19742021 0.69229542
v -0.39565757 -0.19746297000000002 0.74218685
v -0.39565757 -0.19743733000000002 0.72565048
v -0.39575585999999996 -0.28361682 0.74218685
v -0.39623853 -0.28364249 0.74218685
v -0.41161264 -0.28476258 0.74025089
v -0.41781592999999995 -0.28476258 0.63917739
v -0.3789783900000001 -0.19813844 0.63917739
v -0.39565757 -0.19748862 0.67562796
v -0.41232774000000005 -0.19748006 0.69229542
v -0.41232774000000005 -0.19751426 0.67562796
v -0.41217576999999994 -0.19757411000000002 0.74218685
v -0.41232774000000005 -0.19748862 0.70897295
v -0.41163053000000005 -0.28331756 0.74218685
v -0.4534445899999999 -0.28476258 0.73021815
v -0.42930183999999993 -0.27841817 0.63917739
v -0.4292124399999999 -0.28476258 0.64189984
v -0.39255591999999995 -0.19776222 0.63917739
v -0.39565757 -0.19767673000000002 0.63917739
v -0.41232774000000005 -0.19766817 0.642283
v -0.41232774000000005 -0.19758267000000002 0.65896054
v -0.4289979100000001 -0.19765964000000003 0.69229542
v -0.4289979100000001 -0.19766817 0.67562796
v -0.4289979100000001 -0.19771949 0.65896054
v -0.42885495000000007 -0.19779643000000002 0.74218685
v -0.4289979100000001 -0.19766817 0.70897295
v -0.4289979100000001 -0.19772802 0.72565048
v -0.42922138 -0.2745192 0.74218685
v -0.4534445899999999 -0.25563991 0.74218685
v -0.4534445899999999 -0.28476258 0.64966385
v -0.44539104000000007 -0.2606419 0.63917739
v -0.41232774000000005 -0.19768529 0.63917739
v -0.4289979100000001 -0.19780499 0.642283
v -0.4259052000000001 -0.19779643000000002 0.63917739
v -0.44211065000000005 -0.20027605 0.70897295
v -0.44222683000000007 -0.20030169 0.72565048
v -0.4418782299999999 -0.20034445 0.642283
v -0.44188717 -0.20030169 0.65896054
v -0.4419318400000001 -0.20025895999999999 0.69229542
v -0.44186033000000013 -0.20035301 0.63917739
v -0.4289979100000001 -0.19780499 0.74218685
v -0.44218216 -0.20031881 0.74218685
v -0.4534445899999999 -0.21878767 0.74218685
v -0.4534445899999999 -0.24715792 0.63917739
v -0.4289979100000001 -0.19782207000000002 0.63917739
v -0.45056642000000013 -0.20927962 0.72565048
v -0.44237879999999996 -0.20042139 0.74218685
v -0.44951166 -0.21108377 0.63917739
v -0.45094180000000006 -0.21205852 0.65775056
v -0.4501820300000001 -0.21016887 0.67562796
v -0.45045018000000003 -0.20951049 0.70897295
v -0.45113844000000003 -0.21225516 0.74218685
v -0.4534445899999999 -0.21744526 0.74124911
v -0.4534445899999999 -0.23806029 0.63917739
v -0.4534445899999999 -0.21622256 0.66094692
v -0.4534445899999999 -0.21520505 0.70897295
v -0.4534445899999999 -0.21488868 0.72565048
v -0.45292613000000004 -0.22636333 0.63917739
v -0.4534445899999999 -0.22636333 0.64142593
v -0.4534445899999999 -0.2234391 0.64537854
v -0.4534445899999999 -0.21828319000000002 0.65244681
f 1 2 3
f 1 3 4
f 1 4 5
f 1 5 6
f 1 6 7
f 1 7 8
f 1 8 9
f 1 9 10
f 1 10 2
f 2 10 11
f 2 11 12
f 2 12 13
f 2 13 3
f 3 13 14
f 3 14 4
f 4 14 29
f 4 29 47
f 4 47 60
f 4 60 67
f 4 67 77
f 4 77 90
f 4 90 106
f 4 106 107
f 4 107 112
f 4 112 117
f 4 117 108
f 4 108 94
f 4 94 93
f 4 93 79
f 4 79 70
f 4 70 69
f 4 69 61
f 4 61 48
f 4 48 30
f 4 30 17
f 4 17 16
f 4 16 15
f 4 15 5
f 5 15 16
f 5 16 17
f 5 17 6
f 6 18 7
f 6 17 18
f 7 18 8
f 8 18 19
f 8 19 20
f 8 20 21
f 8 21 9
f 9 21 22
f 9 22 23
f 9 23 24
f 9 24 10
f 10 24 25
f 10 25 26
f 10 26 27
f 10 27 28
f 10 28 11
f 11 28 12
f 12 28 29
f 12 29 13
f 13 29 14
f 17 30 31
f 17 31 18
f 18 31 32
f 18 32 33
f 18 33 34
f 18 34 35
f 18 35 36
f 18 36 37
f 18 37 19
f 19 37 36
f 19 36 53
f 19 53 63
f 19 63 72
f 19 72 81
f 19 81 96
f 19 96 109
f 19 109 119
f 19 119 123
f 19 123 113
f 19 113 105
f 19 105 110
f 19 110 99
f 19 99 97
f 19 97 84
f 19 84 83
f 19 83 73
f 19 73 64
f 19 64 56
f 19 56 44
f 19 44 55
f 19 55 42
f 19 42 25
f 19 25 24
f 19 24 23
f 19 23 41
f 19 41 40
f 19 40 54
f 19 54 38
f 19 38 39
f 19 39 22
f 19 22 21
f 19 21 20
f 22 39 40
f 22 40 41
f 22 41 23
f 25 42 26
f 26 42 43
f 26 43 44
f 26 44 45
f 26 45 46
f 26 46 27
f 27 46 28
f 28 46 47
f 28 47 29
f 30 48 31
f 31 48 32
f 32 48 49
f 32 49 62
f 32 62 71
f 32 71 80
f 32 80 95
f 32 95 82
f 32 82 72
f 32 72 63
f 32 63 52
f 32 52 51
f 32 51 50
f 32 50 35
f 32 35 34
f 32 34 33
f 35 50 36
f 36 50 51
f 36 51 52
f 36 52 53
f 38 54 39
f 39 54 40
f 42 55 43
f 43 55 44
f 44 56 45
f 45 56 57
f 45 57 58
f 45 58 46
f 46 58 59
f 46 59 47
f 47 59 60
f 48 61 49
f 49 61 62
f 52 63 53
f 56 64 65
f 56 65 58
f 56 58 57
f 58 66 59
f 58 65 66
f 59 66 60
f 60 66 68
f 60 68 67
f 61 69 62
f 62 69 70
f 62 70 71
f 64 73 65
f 65 73 74
f 65 74 66
f 66 75 78
f 66 78 68
f 66 74 86
f 66 86 76
f 66 76 75
f 67 68 78
f 67 78 77
f 70 79 71
f 71 79 80
f 72 82 81
f 73 83 74
f 74 83 84
f 74 84 85
f 74 85 86
f 75 87 91
f 75 91 78
f 75 76 88
f 75 88 87
f 76 86 89
f 76 89 88
f 77 78 91
f 77 91 92
f 77 92 90
f 79 93 80
f 80 93 94
f 80 94 108
f 80 108 118
f 80 118 122
f 80 122 121
f 80 121 120
f 80 120 126
f 80 126 125
f 80 125 124
f 80 124 119
f 80 119 109
f 80 109 95
f 81 82 95
f 81 95 96
f 84 97 85
f 85 98 89
f 85 89 86
f 85 97 99
f 85 99 98
f 87 100 101
f 87 101 91
f 87 88 100
f 88 89 102
f 88 102 103
f 88 103 104
f 88 104 100
f 89 98 105
f 89 105 102
f 90 92 106
f 91 101 107
f 91 107 92
f 92 107 106
f 95 109 96
f 98 99 110
f 98 110 105
f 100 104 103
f 100 103 102
f 100 102 101
f 101 102 111
f 101 111 112
f 101 112 107
f 102 105 111
f 105 113 114
f 105 114 115
f 105 115 116
f 105 116 111
f 108 117 118
f 111 116 120
f 111 120 121
f 111 121 122
f 111 122 117
f 111 117 112
f 113 123 124
f 113 124 125
f 113 125 126
f 113 126 120
f 113 120 114
f 114 120 116
f 114 116 115
f 117 122 118
f 119 124 123

