# https://github.com/mikedh/trimesh
v -2.13004617 -0.6445192200000001 0.18918413
v -2.14148985 -0.6445192200000001 0.18646509
v -2.12993727 -0.6445192200000001 0.18916529
v -2.11878631 -0.46992977 0.18481857
v -2.13004617 -0.46992977 0.18601348
v -2.14042788 -0.46992977 0.18484684
v -2.14668408 -0.6445192200000001 0.17531597
v -2.14603739 -0.46992977 0.17531597
v -2.11830298 -0.6445192200000001 0.18630513
v -2.11480388 -0.46992977 0.18246649
v -2.0800507599999998 -0.6445192200000001 0.16473143
v -2.14959094 -0.56129187 0.15863471
v -2.14953648 -0.57797151 0.15863471
v -2.149094 -0.6445192200000001 0.15863471
v -2.14784822 -0.46992977 0.16662254
v -2.1495024899999997 -0.46992977 0.15863471
v -2.14957734 -0.54462931 0.15863471
v -2.0800507599999998 -0.46996395 0.16191833
v -2.0800507599999998 -0.46992977 0.16166425
v -2.0800507599999998 -0.6445192200000001 0.11826284
v -2.14914846 -0.56129187 0.12529098
v -2.14932547 -0.57797151 0.14196287
v -2.149094 -0.46992977 0.12529098
v -2.1491416599999997 -0.54462931 0.12529098
v -2.1491008000000003 -0.6445192200000001 0.14196287
v -2.1491008000000003 -0.6445192200000001 0.14212283
v -2.0800507599999998 -0.46992977 0.12147113
v -2.10228457 -0.6445192200000001 0.09823218
v -2.10326489 -0.46992977 0.09895659
v -2.1474941899999997 -0.6445192200000001 0.1087791
v -2.1489851 -0.61131373 0.12529098
v -2.14792987 -0.46992977 0.11659754
v -2.1474737900000003 -0.6445192200000001 0.10861914
v -2.14874683 -0.6445192200000001 0.12546036
v -2.11337422 -0.6445192200000001 0.09460987
v -2.11337422 -0.46992977 0.0968491
v -2.14873997 -0.6445192200000001 0.12529098
v -2.14681344 -0.46992977 0.10861914
v -2.14692914 -0.49459036 0.10861914
v -2.14236801 -0.6445192200000001 0.09680204
v -2.13004617 -0.6445192200000001 0.09306689
v -2.13004617 -0.46992977 0.09582357
v -2.14404954 -0.46992977 0.10303051
v -2.1423203600000003 -0.6445192200000001 0.09669857
v -2.13016194 -0.6445192200000001 0.0930951
v -2.14151025 -0.46992977 0.09793105
f 1 2 7
f 1 7 14
f 1 14 26
f 1 26 25
f 1 25 34
f 1 34 37
f 1 37 30
f 1 30 33
f 1 33 40
f 1 40 44
f 1 44 45
f 1 45 41
f 1 41 35
f 1 35 28
f 1 28 20
f 1 20 11
f 1 11 9
f 1 9 3
f 1 3 4
f 1 4 5
f 1 5 6
f 1 6 2
f 2 6 8
f 2 8 7
f 3 9 4
f 4 10 19
f 4 19 27
f 4 27 29
f 4 29 36
f 4 36 42
f 4 42 46
f 4 46 43
f 4 43 38
f 4 38 32
f 4 32 23
f 4 23 16
f 4 16 15
f 4 15 8
f 4 8 6
f 4 6 5
f 4 9 11
f 4 11 10
f 7 12 13
f 7 13 14
f 7 8 15
f 7 15 16
f 7 16 17
f 7 17 12
f 10 18 19
f 10 11 18
f 11 20 27
f 11 27 19
f 11 19 18
f 12 21 22
f 12 22 13
f 12 17 23
f 12 23 24
f 12 24 21
f 13 22 25
f 13 25 26
f 13 26 14
f 16 23 17
f 20 28 29
f 20 29 27
f 21 30 31
f 21 31 22
f 21 24 30
f 22 31 25
f 23 32 33
f 23 33 30
f 23 30 24
f 25 31 34
f 28 35 29
f 29 35 36
f 30 37 31
f 31 37 34
f 32 38 39
f 32 39 33
f 33 39 40
f 35 41 36
f 36 41 42
f 38 43 44
f 38 44 40
f 38 40 39
f 41 45 46
f 41 46 42
f 43 46 44
f 44 46 45

