# https://github.com/mikedh/trimesh
v 1.32566543 1.48580546 1.92022852
v 1.27567227 1.48582206 1.92022852
v 1.32566543 1.49156800 1.90420375
v 1.35915497 1.49152648 1.90435890
v 1.35915497 1.48583866 1.92022852
v 1.35915497 1.48583866 1.92038374
v 1.32566543 1.48595492 1.97019615
v 1.27567227 1.48593832 1.97020647
v 1.27564775 1.48583038 1.92020784
v 1.27564775 1.49156800 1.90444169
v 1.27564775 1.48593832 1.97018578
v 1.35915497 1.49158460 1.90420375
v 1.32566543 1.50529348 1.89586547
v 1.34232437 1.50524365 1.89587578
v 1.35915497 1.48598815 1.97019615
v 1.35915497 1.48865351 1.98686234
v 1.35899148 1.48865351 1.98686234
v 1.30791116 1.48848745 1.98577610
v 1.30791116 1.48867011 1.98686234
v 1.27567227 1.48884449 1.98687271
v 1.27564775 1.50570034 1.89646551
v 1.27564775 1.48884449 1.98685197
v 1.35915497 1.50531839 1.89594820
v 1.31718066 1.51387086 1.89521369
v 1.32566543 1.51363006 1.89519300
v 1.34232437 1.51357194 1.89519300
v 1.35915497 1.50545954 1.89587578
v 1.35915497 1.49434962 1.99726963
v 1.35899148 1.49434962 1.99726963
v 1.30900649 1.49437453 1.99728001
v 1.30791116 1.49437453 1.99726963
v 1.27567227 1.49456551 1.99712479
v 1.27564775 1.52236522 1.89575168
v 1.27564775 1.49456551 1.99710417
v 1.31279113 1.53901349 1.89500680
v 1.31158136 1.55568666 1.89488264
v 1.35899148 1.51377952 1.89521369
v 1.31978821 1.55568666 1.89488264
v 1.35915497 1.51371312 1.89522406
v 1.35915497 1.50570034 1.99985602
v 1.32566543 1.49437453 1.99728001
v 1.30791116 1.49438285 1.99728001
v 1.32566543 1.50570034 1.99985602
v 1.30791116 1.50570034 1.99977317
v 1.27564775 1.50568374 1.99954560
v 1.30303118 1.56708719 1.89557579
v 1.30791116 1.57063273 1.89515164
v 1.31065768 1.57063273 1.89488264
v 1.31129526 1.57063273 1.89482059
v 1.27564775 1.53901349 1.89909320
v 1.31959203 1.57063273 1.89482059
v 1.35915497 1.51539038 1.89521369
v 1.35915497 1.52236522 2.00041464
v 1.32566543 1.52236522 2.00050774
v 1.30900649 1.52236522 2.00043538
v 1.27564775 1.52234862 2.00012496
v 1.27564775 1.54940100 1.90724522
v 1.29605863 1.56708719 1.90383133
v 1.27566410 1.56708719 1.93421534
v 1.27564775 1.56708719 1.95526793
v 1.30791116 1.57063273 1.99710417
v 1.32045849 1.57063273 1.89509990
v 1.35915497 1.53901349 1.89830695
v 1.35915497 1.53886403 1.89827590
v 1.35915497 1.52366056 1.89529648
v 1.35915497 1.57063273 1.99710417
v 1.27564775 1.56708719 1.99719727
v 1.27567227 1.53901349 1.99904909
v 1.27567227 1.52236522 2.00012496
v 1.27564775 1.53899686 1.99904909
v 1.27564775 1.55995459 1.93207385
v 1.32792150 1.57063273 1.89918631
v 1.32923754 1.57063273 1.89992082
v 1.35915497 1.54941761 1.90649002
v 1.35915497 1.57063273 1.93554984
v 1.33589948 1.57063273 1.90743148
f 1 2 3
f 1 3 4
f 1 4 5
f 1 5 6
f 1 6 7
f 1 7 8
f 1 8 2
f 2 9 10
f 2 10 3
f 2 8 11
f 2 11 9
f 3 12 4
f 3 10 13
f 3 13 14
f 3 14 12
f 4 12 23
f 4 23 27
f 4 27 39
f 4 39 52
f 4 52 65
f 4 65 64
f 4 64 63
f 4 63 74
f 4 74 75
f 4 75 66
f 4 66 53
f 4 53 40
f 4 40 28
f 4 28 16
f 4 16 15
f 4 15 6
f 4 6 5
f 6 15 7
f 7 15 16
f 7 16 8
f 8 16 17
f 8 17 18
f 8 18 19
f 8 19 20
f 8 20 22
f 8 22 11
f 9 11 22
f 9 22 34
f 9 34 45
f 9 45 56
f 9 56 70
f 9 70 67
f 9 67 60
f 9 60 71
f 9 71 57
f 9 57 50
f 9 50 33
f 9 33 21
f 9 21 10
f 10 21 13
f 12 14 23
f 13 24 25
f 13 25 26
f 13 26 14
f 13 21 24
f 14 26 27
f 14 27 23
f 16 28 29
f 16 29 17
f 17 19 18
f 17 29 19
f 19 29 30
f 19 30 31
f 19 31 20
f 20 32 34
f 20 34 22
f 20 31 32
f 21 33 24
f 24 33 35
f 24 35 25
f 25 35 36
f 25 36 26
f 26 37 27
f 26 36 38
f 26 38 37
f 27 37 39
f 28 40 41
f 28 41 30
f 28 30 29
f 30 42 31
f 30 41 40
f 30 40 43
f 30 43 42
f 31 42 32
f 32 42 44
f 32 44 45
f 32 45 34
f 33 46 47
f 33 47 48
f 33 48 49
f 33 49 36
f 33 36 35
f 33 50 46
f 36 49 51
f 36 51 38
f 37 38 51
f 37 51 52
f 37 52 39
f 40 53 54
f 40 54 43
f 42 43 44
f 43 54 55
f 43 55 44
f 44 55 45
f 45 55 56
f 46 50 57
f 46 57 58
f 46 58 47
f 47 58 59
f 47 59 60
f 47 60 67
f 47 67 61
f 47 61 66
f 47 66 75
f 47 75 76
f 47 76 73
f 47 73 72
f 47 72 62
f 47 62 51
f 47 51 49
f 47 49 48
f 51 62 63
f 51 63 64
f 51 64 65
f 51 65 52
f 53 66 54
f 54 61 55
f 54 66 61
f 55 61 67
f 55 67 68
f 55 68 69
f 55 69 56
f 56 69 68
f 56 68 70
f 57 71 59
f 57 59 58
f 59 71 60
f 62 72 63
f 63 72 73
f 63 73 74
f 67 70 68
f 73 76 74
f 74 76 75

