# https://github.com/mikedh/trimesh
v -2.04822197 1.56581344 0.13109861
v -1.88516143 1.56581344 0.12627787
v -2.04822197 1.56581344 0.18032303
v -2.04822197 1.78921871 0.13249451
v -2.04820600 1.79160571 0.13250017
v -1.88516143 1.56581344 0.18386083
v -1.88516143 1.79085425 0.12794509
v -1.88516143 1.73522394 0.18401342
v -1.88516143 1.75188872 0.18397950
v -2.04822197 1.79160571 0.17941309
v -2.04822197 1.79160571 0.13936668
v -1.88516143 1.79160571 0.12795069
v -1.88516143 1.75569023 0.18396257
v -1.88516143 1.76855350 0.18389474
v -1.88516143 1.78521828 0.18379866
v -1.88516143 1.79160571 0.18375908
f 1 2 6
f 1 6 3
f 1 3 10
f 1 10 11
f 1 11 4
f 1 4 5
f 1 5 2
f 2 5 7
f 2 7 12
f 2 12 16
f 2 16 15
f 2 15 14
f 2 14 13
f 2 13 9
f 2 9 8
f 2 8 6
f 3 6 8
f 3 8 9
f 3 9 10
f 4 11 5
f 5 11 10
f 5 10 16
f 5 16 12
f 5 12 7
f 9 13 10
f 10 13 14
f 10 14 15
f 10 15 16

