# https://github.com/mikedh/trimesh
v -0.36152202999999994 -0.26109411 0.94244207
v -0.3660745700000001 -0.27506764 0.94244207
v -0.3660974800000001 -0.27504738 0.92574881
v -0.36157934999999997 -0.26109411 0.92574881
v -0.3616596300000001 -0.24443532 0.94244207
v -0.36163666000000005 -0.24443532 0.9591227
v -0.36168259 -0.24443532 0.97527258
v -0.36157934999999997 -0.26109411 0.9591227
v -0.36604016000000006 -0.27458125 0.97527258
v -0.36618920999999993 -0.27503724 0.97527258
v -0.39046555000000005 -0.30101848 0.90824679
v -0.36618920999999993 -0.27496631 0.90913136
v -0.36172845 -0.26109411 0.90913136
v -0.36242792 -0.22777651000000002 0.84619991
v -0.36198073 -0.22777651000000002 0.90913136
v -0.36188895 -0.22777651000000002 0.92574881
v -0.36180873000000013 -0.22777651000000002 0.94244207
v -0.3617743200000001 -0.22777651000000002 0.9591227
v -0.36180873000000013 -0.22777651000000002 0.97527258
v -0.3616596300000001 -0.26053679 0.97527258
v -0.3616596300000001 -0.26109411 0.97527258
v -0.3789981900000001 -0.28145149 0.97527258
v -0.40156594 -0.30101848 0.95279165
v -0.3968758000000001 -0.30101848 0.94586666
v -0.39441028999999994 -0.30101848 0.94211352
v -0.3906261099999999 -0.30101848 0.92576145
v -0.39070638000000013 -0.30101848 0.8924381
v -0.36663646000000005 -0.27459138 0.84619991
v -0.3625196500000001 -0.26109411 0.84619991
v -0.36243943999999995 -0.24820482 0.84619991
v -0.36242792 -0.24443532 0.84619991
v -0.45332942 -0.22770558000000002 0.84617463
v -0.3640219 -0.2111076 0.84619991
v -0.36362051000000006 -0.2111076 0.90913136
v -0.3635173300000001 -0.2111076 0.92574881
v -0.36346002 -0.2111076 0.94244207
v -0.3634370600000001 -0.2111076 0.97527258
v -0.37952571999999996 -0.28151228 0.97527258
v -0.41234521 -0.30101848 0.95496519
v -0.39455938999999995 -0.30101848 0.88138087
v -0.3789981900000001 -0.28089417 0.84619991
v -0.45332942 -0.22784744 0.84617463
v -0.39679551999999996 -0.30101848 0.87590912
v -0.47866070000000005 -0.26113464000000003 0.8711703
v -0.47866070000000005 -0.24444544 0.87163787
v -0.45049699 -0.21138117 0.84619991
v -0.44852460000000005 -0.20867563 0.84619991
v -0.44242399999999993 -0.20037666 0.84619991
v -0.42897279999999993 -0.19784337000000002 0.84619991
v -0.41234521 -0.1976407 0.84619991
v -0.39568315 -0.19756979000000002 0.84619991
v -0.3789981900000001 -0.19799536 0.84619991
v -0.37060415000000013 -0.20002197 0.84619991
v -0.36813863999999996 -0.20062996 0.84619991
v -0.36720979 -0.20299098 0.84619991
v -0.36789786999999996 -0.2004881 0.92574881
v -0.36795519 -0.20049824 0.90913136
v -0.3678404900000001 -0.20043744000000002 0.97527258
v -0.3956488 -0.2823736 0.97527258
v -0.4188930500000001 -0.30101848 0.95500309
v -0.39648587 -0.282404 0.97527258
v -0.39553411000000005 -0.28249519 0.84619991
v -0.41234521 -0.30101848 0.86937587
v -0.45119646999999996 -0.24443532 0.84619991
v -0.47866070000000005 -0.27777318 0.87148622
v -0.41234521 -0.28249519 0.84619991
v -0.4262206500000001 -0.27606069 0.84619991
v -0.44343313000000006 -0.25741579000000003 0.84619991
v -0.47866070000000005 -0.23082657 0.87814585
v -0.44237814 -0.20032597000000002 0.85910212
v -0.42897279999999993 -0.19773190000000002 0.87577011
v -0.47866070000000005 -0.22571950000000002 0.89200844
v -0.47866070000000005 -0.22558777000000002 0.8924381
v -0.47866070000000005 -0.22549657 0.90867644
v -0.47866070000000005 -0.22543577 0.92534443
v -0.41234521 -0.1975799 0.87577011
v -0.39568315 -0.19749885 0.89246337
v -0.3789981900000001 -0.1979447 0.87577011
v -0.3789981900000001 -0.19783323000000003 0.97527258
v -0.47866070000000005 -0.30100834 0.95223563
v -0.46346654 -0.30101848 0.95215981
v -0.41234521 -0.28188721 0.97527258
v -0.42950032000000005 -0.30101848 0.87023517
v -0.47866070000000005 -0.29445224000000003 0.87458225
v -0.47866070000000005 -0.2781481 0.87154941
v -0.43912142 -0.30101848 0.87170105
v -0.47866070000000005 -0.30100834 0.87848702
v -0.47866070000000005 -0.29475623 0.87472126
v -0.44229786000000004 -0.20031586 0.87577011
v -0.42897279999999993 -0.19773190000000002 0.89246337
v -0.47866070000000005 -0.22543577 0.92577408
v -0.4422520000000001 -0.2004881 0.9591227
v -0.41234521 -0.1975799 0.89246337
v -0.39568315 -0.1975799 0.97527258
v -0.41296441000000006 -0.28166427 0.97527258
v -0.42573904000000007 -0.2754527 0.97527258
v -0.4432381700000001 -0.25694968 0.97527258
v -0.45102445999999996 -0.24508383 0.97527258
v -0.45131115999999993 -0.24443532 0.97527258
v -0.4532376899999999 -0.22871889 0.97527258
v -0.4533064600000001 -0.22777651000000002 0.97527258
v -0.47866070000000005 -0.26073945 0.95280429
v -0.46346654 -0.30101848 0.87684423
v -0.45683841999999997 -0.30101848 0.87489817
v -0.42897279999999993 -0.19799536 0.9591227
v -0.41234521 -0.19774203 0.97527258
v -0.41180623000000005 -0.19773190000000002 0.97527258
v -0.47866070000000005 -0.22921542 0.94245471
v -0.44226345 -0.20057932 0.97527258
v -0.45016443000000006 -0.21111771000000001 0.97527258
v -0.47866070000000005 -0.23452515000000002 0.95184389
v -0.47866070000000005 -0.24444544 0.95289274
v -0.42897279999999993 -0.19810683 0.97527258
v -0.4425616000000001 -0.20095423 0.97527258
f 1 2 3
f 1 3 4
f 1 4 5
f 1 5 18
f 1 18 6
f 1 6 7
f 1 7 8
f 1 8 2
f 2 8 9
f 2 9 10
f 2 10 11
f 2 11 3
f 3 11 12
f 3 12 4
f 4 12 13
f 4 13 14
f 4 14 15
f 4 15 16
f 4 16 17
f 4 17 5
f 5 17 18
f 6 18 19
f 6 19 7
f 7 19 37
f 7 37 58
f 7 58 79
f 7 79 94
f 7 94 107
f 7 107 106
f 7 106 113
f 7 113 109
f 7 109 114
f 7 114 110
f 7 110 101
f 7 101 100
f 7 100 99
f 7 99 98
f 7 98 97
f 7 97 96
f 7 96 95
f 7 95 82
f 7 82 61
f 7 61 59
f 7 59 38
f 7 38 22
f 7 22 10
f 7 10 9
f 7 9 21
f 7 21 20
f 7 20 8
f 8 20 21
f 8 21 9
f 10 22 23
f 10 23 24
f 10 24 25
f 10 25 26
f 10 26 11
f 11 27 28
f 11 28 12
f 11 26 25
f 11 25 24
f 11 24 23
f 11 23 39
f 11 39 60
f 11 60 81
f 11 81 103
f 11 103 104
f 11 104 86
f 11 86 83
f 11 83 63
f 11 63 43
f 11 43 40
f 11 40 27
f 12 28 13
f 13 28 29
f 13 29 30
f 13 30 31
f 13 31 14
f 14 31 42
f 14 42 32
f 14 32 33
f 14 33 15
f 15 33 34
f 15 34 35
f 15 35 16
f 16 35 17
f 17 35 36
f 17 36 18
f 18 37 19
f 18 36 37
f 22 38 39
f 22 39 23
f 27 40 28
f 28 41 42
f 28 42 29
f 28 40 43
f 28 43 41
f 29 42 30
f 30 42 31
f 32 44 45
f 32 45 46
f 32 46 47
f 32 47 48
f 32 48 49
f 32 49 50
f 32 50 51
f 32 51 52
f 32 52 53
f 32 53 54
f 32 54 55
f 32 55 33
f 32 42 44
f 33 55 34
f 34 55 54
f 34 54 35
f 35 56 36
f 35 54 57
f 35 57 56
f 36 56 58
f 36 58 37
f 38 59 39
f 39 59 61
f 39 61 60
f 41 62 42
f 41 43 63
f 41 63 62
f 42 64 65
f 42 65 44
f 42 62 66
f 42 66 67
f 42 67 68
f 42 68 64
f 44 65 85
f 44 85 84
f 44 84 88
f 44 88 87
f 44 87 80
f 44 80 102
f 44 102 112
f 44 112 111
f 44 111 108
f 44 108 91
f 44 91 75
f 44 75 74
f 44 74 73
f 44 73 72
f 44 72 69
f 44 69 45
f 45 69 46
f 46 69 47
f 47 69 48
f 48 70 71
f 48 71 49
f 48 69 72
f 48 72 73
f 48 73 74
f 48 74 75
f 48 75 70
f 49 71 50
f 50 71 76
f 50 76 51
f 51 76 77
f 51 77 78
f 51 78 52
f 52 78 57
f 52 57 53
f 53 57 54
f 56 57 78
f 56 78 58
f 58 78 79
f 60 80 81
f 60 61 82
f 60 82 80
f 62 63 66
f 63 83 66
f 64 68 84
f 64 84 85
f 64 85 65
f 66 83 86
f 66 86 87
f 66 87 67
f 67 87 88
f 67 88 84
f 67 84 68
f 70 89 90
f 70 90 71
f 70 75 91
f 70 91 92
f 70 92 89
f 71 90 93
f 71 93 76
f 76 93 77
f 77 93 94
f 77 94 79
f 77 79 78
f 80 82 95
f 80 95 96
f 80 96 97
f 80 97 98
f 80 98 99
f 80 99 100
f 80 100 101
f 80 101 102
f 80 87 103
f 80 103 81
f 86 104 87
f 87 104 103
f 89 92 90
f 90 92 105
f 90 105 106
f 90 106 107
f 90 107 94
f 90 94 93
f 91 108 109
f 91 109 92
f 92 109 105
f 101 110 111
f 101 111 112
f 101 112 102
f 105 109 113
f 105 113 106
f 108 111 114
f 108 114 109
f 110 114 111

