# https://github.com/mikedh/trimesh
v 0.85887162 1.56522577 1.96248766
v 0.85887162 1.56522577 1.99709261
v 0.85887162 1.57236810 1.93608069
v 0.85895072 1.56522577 1.93388424
v 0.85887162 1.64620314 1.99638104
v 0.85901002 1.56522577 1.99709261
v 0.85942523 2.03903153 1.99652338
v 0.85887162 1.57255362 1.93608069
v 1.04231324 1.56522577 1.93424926
v 0.85887162 1.64624952 1.93665611
v 0.85942523 2.03903153 1.93613636
v 0.85887162 1.64624952 1.93747902
v 1.05182341 1.56522577 1.99694407
v 1.06085907 2.03903153 1.99630689
v 1.06000890 1.56522577 1.93429259
v 1.06085907 2.03903153 1.93703973
v 1.06085907 1.56522577 1.99692559
v 1.06085907 1.56522577 1.93429879
f 1 2 5
f 1 5 12
f 1 12 10
f 1 10 8
f 1 8 3
f 1 3 4
f 1 4 9
f 1 9 15
f 1 15 18
f 1 18 17
f 1 17 13
f 1 13 6
f 1 6 2
f 2 6 7
f 2 7 5
f 3 8 4
f 4 8 10
f 4 10 11
f 4 11 9
f 5 7 12
f 6 13 7
f 7 14 16
f 7 16 11
f 7 11 10
f 7 10 12
f 7 13 14
f 9 11 15
f 11 16 15
f 13 17 14
f 14 17 18
f 14 18 16
f 15 16 18

