# https://github.com/mikedh/trimesh
v -2.214905775 -0.65950121 0.07520824
v -2.198224455 -0.6610609199999999 0.07520824
v -2.198224455 -0.66182838 0.04189981
v -2.214905775 -0.66063179 0.04189981
v -2.231570335 -0.66102791 0.04189981
v -2.231570335 -0.65999635 0.07520824
v -2.187072715 -0.66613616 0.07520824
v -2.187123175 -0.66635898 0.04189981
v -2.198224455 -0.6628682 0.02522929
v -2.214905775 -0.66137451 0.02522929
v -2.187476665 -0.66692014 0.02522929
v -2.231570335 -0.6618118900000001 0.02522929
v -2.243732035 -0.6660866400000001 0.02522929
v -2.244102355 -0.66555849 0.04189981
v -2.244380105 -0.66527791 0.0585769
v -2.244725185 -0.66514587 0.07520824
v -2.1840764549999996 -0.6780361500000001 0.07520824
v -2.184126975 -0.6780361500000001 0.04189981
v -2.198224455 -0.6667468400000001 0.01390245
v -2.188511925 -0.66818277 0.01529221
v -2.214905775 -0.6658473300000001 0.0132044
v -2.231570335 -0.66602063 0.01332178
v -2.1846992949999997 -0.6780361500000001 0.02522929
v -2.2423264749999996 -0.66750606 0.01465929
v -2.258208305 -0.68474539 0.01553364
v -2.252072695 -0.67565946 0.02522929
v -2.2530406149999997 -0.6743555800000001 0.07520824
v -2.183941785 -0.69471431 0.07520824
v -2.183992305 -0.69471431 0.04189981
v -2.184371025 -0.69471431 0.02522929
v -2.198224455 -0.6780361500000001 0.01028782
v -2.214905775 -0.6780361500000001 0.00917861
v -2.187594515 -0.6780361500000001 0.01414387
v -2.231570335 -0.6780361500000001 0.00947873
v -2.1873419949999997 -0.69471431 0.01378507
v -2.248032835 -0.67872937 0.01323041
v -2.260649065 -0.69471431 0.01385032
v -2.264941445 -0.69471431 0.02522929
v -2.259075185 -0.6839944099999999 0.02522929
v -2.2601861249999997 -0.6827317900000001 0.07520824
v -2.1840764549999996 -0.71138423 0.07520824
v -2.184211125 -0.71138423 0.04189981
v -2.1844888749999996 -0.71138423 0.02522929
v -2.187358875 -0.71138423 0.01380463
v -2.198224455 -0.69471431 0.00962879
v -2.214905775 -0.69471431 0.00877413
v -2.248251655 -0.71138423 0.00855226
v -2.248251655 -0.69471431 0.00995503
v -2.198224455 -0.71138423 0.00961579
v -2.262248165 -0.71138423 0.01269542
v -2.2685352549999998 -0.71138423 0.02522929
v -2.269317985 -0.71138423 0.04189981
v -2.266675225 -0.6947638300000001 0.07520824
v -2.1849854449999997 -0.72806238 0.07520824
v -2.185187395 -0.72806238 0.04189981
v -2.1856755549999995 -0.72806238 0.02522929
v -2.1880237549999997 -0.72806238 0.01453536
v -2.214905775 -0.71138423 0.00861751
v -2.231570335 -0.72806238 0.00907424
v -2.248251655 -0.72806238 0.00928299
v -2.198224455 -0.72806238 0.01069231
v -2.214905775 -0.72806238 0.00918517
v -2.261196095 -0.72806238 0.01323041
v -2.266894045 -0.72806238 0.02522929
v -2.2681564749999996 -0.72806238 0.04189981
v -2.269923945 -0.7114337500000001 0.07520824
v -2.187855455 -0.73860899 0.07520824
v -2.1879143149999996 -0.73855949 0.0585769
v -2.187973245 -0.73847694 0.04189981
v -2.188335145 -0.7380560899999999 0.02522929
v -2.1890673649999997 -0.73726384 0.01578807
v -2.231570335 -0.7394919799999999 0.01329566
v -2.214905775 -0.73946723 0.01337402
v -2.248251655 -0.73913714 0.01358933
v -2.2589741549999998 -0.7379818 0.01491384
v -2.198224455 -0.73857598 0.01432662
v -2.260808965 -0.73921143 0.02522929
v -2.268392175 -0.72806238 0.0585769
v -2.261549585 -0.73967356 0.04189981
v -2.2685267849999997 -0.72809539 0.07520824
v -2.198224455 -0.74234734 0.07520824
v -2.198224455 -0.7422152900000001 0.0585769
v -2.198224455 -0.74199247 0.04189981
v -2.198224455 -0.74130752 0.02522929
v -2.231570335 -0.74302403 0.02522929
v -2.214905775 -0.74297453 0.02522929
v -2.248251655 -0.7425124000000001 0.02522929
v -2.248251655 -0.74319735 0.04189981
v -2.261675845 -0.7397148 0.0585769
v -2.261717955 -0.7397148 0.07520824
v -2.214905775 -0.7436924899999999 0.0585769
v -2.214905775 -0.74380801 0.07520824
v -2.214905775 -0.74350268 0.04189981
v -2.231570335 -0.74350268 0.04189981
v -2.248251655 -0.7432716 0.0585769
v -2.231570335 -0.74358519 0.0585769
v -2.248251655 -0.74329638 0.07520824
v -2.231570335 -0.7436512200000001 0.07520824
f 1 2 3
f 1 3 4
f 1 4 5
f 1 5 6
f 1 6 16
f 1 16 27
f 1 27 40
f 1 40 53
f 1 53 66
f 1 66 80
f 1 80 90
f 1 90 97
f 1 97 98
f 1 98 92
f 1 92 81
f 1 81 67
f 1 67 54
f 1 54 41
f 1 41 28
f 1 28 17
f 1 17 7
f 1 7 2
f 2 7 8
f 2 8 3
f 3 9 10
f 3 10 4
f 3 8 11
f 3 11 9
f 4 10 5
f 5 12 13
f 5 13 14
f 5 14 6
f 5 10 12
f 6 14 15
f 6 15 16
f 7 17 18
f 7 18 8
f 8 18 11
f 9 19 10
f 9 11 20
f 9 20 19
f 10 21 22
f 10 22 12
f 10 19 21
f 11 18 23
f 11 23 20
f 12 22 24
f 12 24 13
f 13 24 25
f 13 25 26
f 13 26 14
f 14 26 27
f 14 27 15
f 15 27 16
f 17 28 29
f 17 29 18
f 18 29 30
f 18 30 23
f 19 20 31
f 19 31 32
f 19 32 21
f 20 23 33
f 20 33 31
f 21 32 22
f 22 34 24
f 22 32 34
f 23 30 35
f 23 35 33
f 24 36 25
f 24 34 36
f 25 37 38
f 25 38 39
f 25 39 26
f 25 36 37
f 26 39 40
f 26 40 27
f 28 41 29
f 29 41 42
f 29 42 43
f 29 43 30
f 30 43 44
f 30 44 35
f 31 45 32
f 31 33 45
f 32 46 47
f 32 47 34
f 32 45 46
f 33 35 45
f 34 47 48
f 34 48 36
f 35 44 49
f 35 49 45
f 36 48 37
f 37 50 51
f 37 51 38
f 37 48 50
f 38 51 52
f 38 52 53
f 38 53 40
f 38 40 39
f 41 54 42
f 42 54 55
f 42 55 43
f 43 55 56
f 43 56 57
f 43 57 44
f 44 57 49
f 45 49 58
f 45 58 46
f 46 58 47
f 47 59 60
f 47 60 50
f 47 50 48
f 47 58 59
f 49 61 62
f 49 62 58
f 49 57 61
f 50 60 63
f 50 63 51
f 51 64 65
f 51 65 52
f 51 63 64
f 52 65 66
f 52 66 53
f 54 67 68
f 54 68 69
f 54 69 55
f 55 69 70
f 55 70 56
f 56 70 71
f 56 71 57
f 57 71 61
f 58 62 59
f 59 72 60
f 59 62 73
f 59 73 72
f 60 74 75
f 60 75 63
f 60 72 74
f 61 76 62
f 61 71 76
f 62 76 73
f 63 75 64
f 64 75 77
f 64 77 65
f 65 78 66
f 65 77 79
f 65 79 78
f 66 78 80
f 67 81 68
f 68 81 69
f 69 81 82
f 69 82 83
f 69 83 70
f 70 83 84
f 70 84 71
f 71 84 76
f 72 85 74
f 72 73 85
f 73 86 85
f 73 76 86
f 74 87 75
f 74 85 87
f 75 87 77
f 76 84 86
f 77 87 88
f 77 88 79
f 78 79 80
f 79 89 80
f 79 88 89
f 80 89 90
f 81 91 82
f 81 92 91
f 82 91 93
f 82 93 83
f 83 93 86
f 83 86 84
f 85 94 88
f 85 88 87
f 85 86 93
f 85 93 94
f 88 95 89
f 88 94 96
f 88 96 95
f 89 95 97
f 89 97 90
f 91 92 94
f 91 94 93
f 92 98 96
f 92 96 94
f 95 96 98
f 95 98 97

