# https://github.com/mikedh/trimesh
v -2.0065800400000002 -0.26111788 0.18739382
v -2.0065800400000002 -0.25505167 0.18665952
v -2.07922699 -0.24293981 0.18947745
v -2.07922699 -0.26111788 0.18892672
v -2.0065800400000002 -0.27331894 0.18548458
v -2.0065800400000002 -0.24605527 0.18556719
v -2.07922699 -0.24078506 0.18869728
v -2.07922699 -0.27314053 0.18562229
v -2.0065800400000002 -0.28165656 0.17974768
v -2.0065800400000002 -0.23771765 0.17946313
v -2.07922699 -0.23117793 0.17893996
v -2.07922699 -0.29950526 0.16396891
v -2.0655510599999998 -0.29959445 0.16395973
v -2.0065800400000002 -0.29959445 0.1640607
v -2.07922699 -0.23028583 0.17671862
v -2.07922699 -0.23067013 0.17798528
v -2.0065800400000002 -0.23686673 0.17609441
v -2.07922699 -0.29959445 0.12064378
v -2.0065800400000002 -0.29959445 0.11893649
v -2.0065800400000002 -0.23564525 0.17111937
v -2.07922699 -0.22949669 0.15863585
v -2.07922699 -0.29959445 0.11817463
v -2.0065800400000002 -0.29145584 0.11017965
v -2.0065800400000002 -0.23547369 0.16610759
v -2.0065800400000002 -0.2352198 0.15863585
v -2.07922699 -0.22949669 0.15785568
v -2.07922699 -0.28151931 0.10360748
v -2.0633392600000002 -0.28217124 0.1026896
v -2.01331491 -0.28346134 0.10186344
v -2.0065800400000002 -0.28353682 0.10184508
v -2.0065800400000002 -0.23523351 0.15190765
v -2.0065800400000002 -0.23530215000000002 0.13523849
v -2.07922699 -0.22957902000000002 0.14196675
v -2.07922699 -0.27357285 0.0988252
v -2.07922699 -0.27318169000000003 0.09863244
v -2.0633392600000002 -0.27383362 0.09860488
v -2.0466621099999998 -0.27421104 0.09846723
v -2.01331491 -0.27512372 0.09831115
v -2.0065800400000002 -0.27519920000000003 0.09826528
v -2.0065800400000002 -0.23537076 0.1252976
v -2.07922699 -0.2295859 0.14118652
v -2.07922699 -0.26171490000000003 0.09583281
v -2.07922699 -0.26111788 0.09574102
v -2.0065800400000002 -0.26111788 0.09624589
v -2.07922699 -0.22978490000000001 0.1252976
v -2.0065800400000002 -0.23576878 0.11443876
v -2.07922699 -0.24344761 0.09571347
v -2.0065800400000002 -0.25254008 0.09742082
v -2.07922699 -0.22981234 0.12472844
v -2.0065800400000002 -0.23838328 0.10610418
v -2.07922699 -0.23110932 0.10861926
v -2.07922699 -0.24283687 0.09583281
v -2.0065800400000002 -0.24672777 0.0982561
v -2.07922699 -0.2344169 0.09937592
f 1 2 3
f 1 3 4
f 1 4 5
f 1 5 9
f 1 9 14
f 1 14 19
f 1 19 23
f 1 23 30
f 1 30 39
f 1 39 44
f 1 44 48
f 1 48 53
f 1 53 50
f 1 50 46
f 1 46 40
f 1 40 32
f 1 32 31
f 1 31 25
f 1 25 24
f 1 24 20
f 1 20 17
f 1 17 10
f 1 10 6
f 1 6 2
f 2 6 3
f 3 7 11
f 3 11 16
f 3 16 15
f 3 15 21
f 3 21 26
f 3 26 33
f 3 33 41
f 3 41 45
f 3 45 49
f 3 49 51
f 3 51 54
f 3 54 52
f 3 52 47
f 3 47 43
f 3 43 42
f 3 42 35
f 3 35 34
f 3 34 27
f 3 27 22
f 3 22 18
f 3 18 12
f 3 12 8
f 3 8 4
f 3 6 7
f 4 8 5
f 5 8 9
f 6 10 7
f 7 10 11
f 8 12 9
f 9 12 13
f 9 13 14
f 10 15 16
f 10 16 11
f 10 17 15
f 12 18 13
f 13 18 22
f 13 22 19
f 13 19 14
f 15 17 20
f 15 20 21
f 19 22 23
f 20 24 21
f 21 24 25
f 21 25 26
f 22 27 28
f 22 28 29
f 22 29 30
f 22 30 23
f 25 31 26
f 26 31 32
f 26 32 33
f 27 34 28
f 28 34 29
f 29 34 35
f 29 35 36
f 29 36 37
f 29 37 38
f 29 38 39
f 29 39 30
f 32 40 33
f 33 40 41
f 35 42 37
f 35 37 36
f 37 42 38
f 38 42 39
f 39 42 43
f 39 43 44
f 40 45 41
f 40 46 45
f 43 47 44
f 44 47 48
f 45 46 49
f 46 50 51
f 46 51 49
f 47 52 53
f 47 53 48
f 50 53 54
f 50 54 51
f 52 54 53

