# https://github.com/mikedh/trimesh
v 1.05771797 1.57375154 0.56985205
v 1.05771797 1.57375154 0.51113397
v 1.04230263 1.57375154 0.56984356
v 1.04230263 1.57235702 0.56985205
v 1.04230263 1.55567710 0.56986054
v 1.05771797 1.55443653 0.56985205
v 0.99231888 1.57375154 0.51102358
v 1.05771797 1.54848718 0.49351431
v 0.83179579 1.57245662 0.49723352
v 1.02562663 1.57375154 0.56982657
v 1.00897276 1.55567710 0.56982657
v 1.02562663 1.53901531 0.56979262
v 1.04230263 1.53901531 0.56979262
v 1.00897276 1.53901531 0.56978413
v 1.05771797 1.53901531 0.56978413
v 0.85906567 1.57375154 0.51104057
v 1.05771797 1.53901531 0.48778262
v 0.83179579 1.54969153 0.48655982
v 0.83179579 1.57245662 0.56912180
v 0.99231888 1.57375154 0.56977564
v 0.99231888 1.55567710 0.56979262
v 0.99231888 1.53901531 0.56975865
v 1.00897276 1.52236254 0.56966525
v 1.02562663 1.52236254 0.56966525
v 1.05771797 1.53778378 0.56977564
v 0.99231888 1.52236254 0.56964826
v 0.85906567 1.57375154 0.56911330
v 1.05771797 1.52236254 0.48353689
v 0.83179579 1.53288484 0.48404640
v 0.83179579 1.55568615 0.56900292
v 0.97564285 1.53901531 0.56969073
v 0.97564285 1.55567710 0.56973317
v 0.97703621 1.57375154 0.56971618
v 0.99231888 1.50570076 0.56922369
v 1.04230263 1.52236254 0.56965675
v 1.05771797 1.52236254 0.56963977
v 0.97564285 1.52236254 0.56957185
v 1.05771797 1.50570076 0.48320572
v 1.02562663 1.50570076 0.48311232
v 1.00897276 1.52236254 0.48346894
v 0.83179579 1.52236254 0.48361330
v 0.99231888 1.52236254 0.48347746
v 0.83179579 1.53901531 0.56873118
v 0.99231888 1.49255240 0.56536009
v 1.04230263 1.50570076 0.56918972
v 0.97564285 1.50570076 0.56911330
v 0.85899932 1.49329494 0.56491853
v 1.05771797 1.50570076 0.56917273
v 0.83179579 1.52236254 0.56837456
v 1.05771797 1.49054213 0.48870817
v 1.02562663 1.48934681 0.48908178
v 1.00897276 1.50570076 0.48311232
v 1.04230263 1.48933778 0.48910723
v 0.83179579 1.51623209 0.48340105
v 0.97564285 1.48518137 0.55352308
v 0.99231888 1.48516328 0.55352308
v 1.05771797 1.48510892 0.55352308
v 1.04230263 1.49259767 0.56533461
v 0.85906567 1.48603256 0.55352308
v 0.85899932 1.50570076 0.56813679
v 0.84234545 1.49343984 0.56477420
v 0.84234545 1.48621367 0.55353157
v 1.05771797 1.49260673 0.56531765
v 0.83179579 1.50570076 0.56776316
v 0.84234545 1.50570076 0.56794996
v 1.05771797 1.48932872 0.48914973
v 0.97564285 1.48932872 0.48910723
v 0.85899932 1.48953698 0.48903934
v 1.05771797 1.48124230 0.50354263
v 0.83179579 1.49975139 0.48534555
v 0.83179579 1.50570076 0.48319726
v 0.97564285 1.48211161 0.53686294
v 1.05771797 1.48199389 0.53686294
v 0.83179579 1.48386836 0.54298525
v 0.83179579 1.48251910 0.53685445
v 0.95898897 1.48215688 0.53686294
v 1.05771797 1.48487348 0.55228332
v 0.83179579 1.49363904 0.56458737
v 0.83179579 1.48905704 0.55766689
v 0.83179579 1.48640384 0.55353157
v 0.97564285 1.48128757 0.50354263
v 0.85906567 1.48950077 0.48909876
v 0.84234545 1.48954604 0.48906479
v 1.05771797 1.48143247 0.52021130
v 0.83179579 1.48956416 0.48908178
v 0.97564285 1.48152301 0.52021130
v 0.83179579 1.48192144 0.52021130
v 0.83179579 1.48174033 0.50354263
f 1 2 7
f 1 7 16
f 1 16 27
f 1 27 33
f 1 33 20
f 1 20 10
f 1 10 3
f 1 3 4
f 1 4 5
f 1 5 6
f 1 6 15
f 1 15 25
f 1 25 36
f 1 36 48
f 1 48 63
f 1 63 57
f 1 57 77
f 1 77 73
f 1 73 84
f 1 84 69
f 1 69 66
f 1 66 50
f 1 50 38
f 1 38 28
f 1 28 17
f 1 17 8
f 1 8 2
f 2 8 9
f 2 9 7
f 3 10 4
f 4 10 11
f 4 11 5
f 5 12 13
f 5 13 6
f 5 11 14
f 5 14 12
f 6 13 15
f 7 9 16
f 8 17 9
f 9 18 29
f 9 29 41
f 9 41 54
f 9 54 71
f 9 71 70
f 9 70 85
f 9 85 88
f 9 88 87
f 9 87 75
f 9 75 74
f 9 74 80
f 9 80 79
f 9 79 78
f 9 78 64
f 9 64 49
f 9 49 43
f 9 43 30
f 9 30 19
f 9 19 27
f 9 27 16
f 9 17 18
f 10 20 11
f 11 20 21
f 11 21 22
f 11 22 14
f 12 14 23
f 12 23 24
f 12 24 13
f 13 24 25
f 13 25 15
f 14 22 26
f 14 26 23
f 17 28 18
f 18 28 29
f 19 30 31
f 19 31 32
f 19 32 33
f 19 33 27
f 20 33 32
f 20 32 21
f 21 32 22
f 22 32 31
f 22 31 26
f 23 26 34
f 23 34 24
f 24 35 25
f 24 34 35
f 25 35 36
f 26 31 37
f 26 37 34
f 28 38 39
f 28 39 40
f 28 40 29
f 29 40 42
f 29 42 41
f 30 43 37
f 30 37 31
f 34 44 45
f 34 45 35
f 34 37 46
f 34 46 47
f 34 47 44
f 35 45 48
f 35 48 36
f 37 43 49
f 37 49 46
f 38 50 39
f 39 51 52
f 39 52 40
f 39 50 53
f 39 53 51
f 40 52 54
f 40 54 42
f 41 42 54
f 44 55 56
f 44 56 57
f 44 57 58
f 44 58 45
f 44 47 59
f 44 59 55
f 45 58 48
f 46 49 60
f 46 60 47
f 47 60 61
f 47 61 62
f 47 62 59
f 48 58 63
f 49 64 65
f 49 65 60
f 50 66 53
f 51 67 68
f 51 68 52
f 51 53 69
f 51 69 67
f 52 68 70
f 52 70 71
f 52 71 54
f 53 66 69
f 55 72 73
f 55 73 56
f 55 59 74
f 55 74 75
f 55 75 76
f 55 76 72
f 56 73 77
f 56 77 57
f 57 63 58
f 59 62 74
f 60 65 61
f 61 65 64
f 61 64 78
f 61 78 79
f 61 79 62
f 62 79 80
f 62 80 74
f 67 69 81
f 67 81 82
f 67 82 68
f 68 82 83
f 68 83 70
f 69 84 81
f 70 83 85
f 72 76 86
f 72 86 73
f 73 86 84
f 75 87 76
f 76 87 86
f 81 84 86
f 81 86 87
f 81 87 88
f 81 88 85
f 81 85 83
f 81 83 82

