# https://github.com/mikedh/trimesh
v -2.1814064349999995 -0.2610942 0.70895351
v -2.1856601749999998 -0.27475384 0.70895351
v -2.1856601749999998 -0.27475384 0.69230296
v -2.181429275 -0.2610942 0.69230296
v -2.181566095 -0.22777158 0.70895351
v -2.181486295 -0.24443289 0.72565269
v -2.181543315 -0.24443289 0.74974671
v -2.181452055 -0.2610942 0.72565269
v -2.1856944049999996 -0.27473356 0.72565269
v -2.211091175 -0.30101848 0.69229079
v -2.1857285849999997 -0.2746423 0.67562808
v -2.1815889349999997 -0.22777158 0.69230296
v -2.181554705 -0.2610942 0.67562808
v -2.181805615 -0.24443289 0.62549403
v -2.181714365 -0.22777158 0.62549403
v -2.181714365 -0.22767017 0.62549403
v -2.1816687349999997 -0.22777158 0.64227835
v -2.183139845 -0.21111028 0.72565269
v -2.181566095 -0.22777158 0.72565269
v -2.1815889349999997 -0.22777158 0.7423154
v -2.181566095 -0.2610942 0.74974671
v -2.181611715 -0.22777158 0.74974671
v -2.1857855949999996 -0.27470314 0.74974671
v -2.211148195 -0.30101848 0.70895351
v -2.211319245 -0.30101848 0.67564025
v -2.1860592949999997 -0.27438878 0.62549403
v -2.185933865 -0.27448004 0.64227835
v -2.182022285 -0.2610942 0.62549403
v -2.183367975 -0.21111028 0.62549403
v -2.183276725 -0.21111028 0.6589897
v -2.183242495 -0.21111028 0.67562808
v -2.187290945 -0.20053343 0.72565269
v -2.187290945 -0.20052329000000002 0.7423154
v -2.183139845 -0.21111028 0.7423154
v -2.1824784249999998 -0.21852319 0.74974671
v -2.198238825 -0.28100057 0.74974671
v -2.2173861949999996 -0.30101848 0.72506889
v -2.2126193049999996 -0.30101848 0.66552099
v -2.213748315 -0.30101848 0.65897756
v -2.217363355 -0.30101848 0.65169217
v -2.219632765 -0.30101848 0.64765421
v -2.198238825 -0.28050367 0.62549403
v -2.187484835 -0.20071596000000003 0.62549403
v -2.198238825 -0.19793739 0.69230296
v -2.198238825 -0.19787656 0.72565269
v -2.1873935849999997 -0.20061457 0.67562808
v -2.198238825 -0.19787656 0.7423154
v -2.187313725 -0.20054357 0.74974671
v -2.183185475 -0.21111028 0.74974671
v -2.207487465 -0.28242029 0.74974671
v -2.231185055 -0.30101848 0.73028661
v -2.223190845 -0.30101848 0.72750139
v -2.227159445 -0.30101848 0.64537982
v -2.214911495 -0.28184226 0.62549403
v -2.231584175 -0.30101848 0.64472305
v -2.198238825 -0.19822134000000002 0.62549403
v -2.198238825 -0.19797795 0.67562808
v -2.214911495 -0.19742021 0.69230296
v -2.214911495 -0.19748104 0.7423154
v -2.205651405 -0.1977143 0.74974671
v -2.198238825 -0.19791711 0.74974671
v -2.214911495 -0.19745063000000002 0.72565269
v -2.215242215 -0.28289689 0.74974671
v -2.231207835 -0.28260282000000003 0.74974671
v -2.2978985949999995 -0.30101848 0.72859602
v -2.231584175 -0.28146704 0.62549403
v -2.248234065 -0.30101848 0.64669336
v -2.214820245 -0.19775486 0.62549403
v -2.231584175 -0.19749118 0.69230296
v -2.231584175 -0.19775486 0.62549403
v -2.231584175 -0.1975926 0.6589897
v -2.231584175 -0.19754191 0.67562808
v -2.231584175 -0.19760274 0.74974671
v -2.222324145 -0.19755205 0.74974671
v -2.214911495 -0.19751149 0.74974671
v -2.231584175 -0.19751149 0.70895351
v -2.2470138649999996 -0.27492623 0.74974671
v -2.259535435 -0.26363954 0.74974671
v -2.263732165 -0.25981646 0.74974671
v -2.267404215 -0.25399566 0.74974671
v -2.2718974149999998 -0.24443289 0.74974671
v -2.2978985949999995 -0.26113477 0.7324759
v -2.2978985949999995 -0.30101848 0.65807752
v -2.244801465 -0.27518989 0.62549403
v -2.2623978649999996 -0.30101848 0.64970969
v -2.2978985949999995 -0.29297683 0.65253141
v -2.248222675 -0.19767372 0.69230296
v -2.248222675 -0.19768385 0.70895351
v -2.248222675 -0.19768385 0.67562808
v -2.248222675 -0.19790697000000002 0.62549403
v -2.248222675 -0.19774472 0.6589897
v -2.248222675 -0.19784614 0.74974671
v -2.271908805 -0.24430107 0.74974671
v -2.2978985949999995 -0.26041477 0.73251237
v -2.260881125 -0.25641931 0.62549403
v -2.2978985949999995 -0.28473237 0.65067051
v -2.268008625 -0.24451402 0.62549403
v -2.261337265 -0.20029006 0.70895351
v -2.2614627449999998 -0.20032048000000002 0.72565269
v -2.261565395 -0.20038131 0.74974671
v -2.2541755949999995 -0.19896161 0.74974671
v -2.260938145 -0.20038131 0.62549403
v -2.261097805 -0.20036103 0.64227835
v -2.261109195 -0.20032048000000002 0.6589897
v -2.2725816849999996 -0.23258845 0.74974671
v -2.2978985949999995 -0.24444303 0.73254887
v -2.2728439849999997 -0.22777158 0.74974671
v -2.2978985949999995 -0.27785692 0.65042726
v -2.270962305 -0.22777158 0.62549403
v -2.270950905 -0.22789328 0.62549403
v -2.2978985949999995 -0.22758905000000001 0.67564025
v -2.270015735 -0.21173899000000002 0.74974671
v -2.2978985949999995 -0.22757891000000002 0.70858862
v -2.2978985949999995 -0.22757891000000002 0.70897781
v -2.2978985949999995 -0.23176705 0.72455806
v -2.2610635649999997 -0.20047259 0.62549403
v -2.261018005 -0.20040159000000002 0.6256278
v -2.2978985949999995 -0.24401711 0.73236643
v -2.2978985949999995 -0.26111448 0.64990427
v -2.268248145 -0.21111028 0.62549403
v -2.2978985949999995 -0.24354051000000002 0.64970969
v -2.2978985949999995 -0.22760934 0.67527536
v -2.2978985949999995 -0.23248704 0.6566545
v -2.2978985949999995 -0.2320003 0.65739641
v -2.2978985949999995 -0.24158333 0.65018402
v -2.2978985949999995 -0.23333887 0.65564501
f 1 2 3
f 1 3 4
f 1 4 12
f 1 12 5
f 1 5 19
f 1 19 6
f 1 6 7
f 1 7 8
f 1 8 9
f 1 9 2
f 2 10 3
f 2 9 10
f 3 10 11
f 3 11 4
f 4 11 13
f 4 13 14
f 4 14 15
f 4 15 16
f 4 16 17
f 4 17 12
f 5 12 18
f 5 18 34
f 5 34 19
f 6 19 20
f 6 20 7
f 7 21 8
f 7 20 22
f 7 22 35
f 7 35 49
f 7 49 48
f 7 48 61
f 7 61 60
f 7 60 75
f 7 75 74
f 7 74 73
f 7 73 92
f 7 92 101
f 7 101 100
f 7 100 112
f 7 112 107
f 7 107 105
f 7 105 93
f 7 93 81
f 7 81 80
f 7 80 79
f 7 79 78
f 7 78 77
f 7 77 64
f 7 64 63
f 7 63 50
f 7 50 36
f 7 36 23
f 7 23 21
f 8 21 23
f 8 23 9
f 9 24 10
f 9 23 24
f 10 25 26
f 10 26 27
f 10 27 11
f 10 24 37
f 10 37 52
f 10 52 51
f 10 51 65
f 10 65 83
f 10 83 85
f 10 85 67
f 10 67 55
f 10 55 53
f 10 53 41
f 10 41 40
f 10 40 39
f 10 39 38
f 10 38 25
f 11 27 13
f 12 17 18
f 13 27 26
f 13 26 28
f 13 28 14
f 14 28 26
f 14 26 42
f 14 42 54
f 14 54 66
f 14 66 84
f 14 84 95
f 14 95 97
f 14 97 110
f 14 110 109
f 14 109 120
f 14 120 116
f 14 116 102
f 14 102 90
f 14 90 70
f 14 70 68
f 14 68 56
f 14 56 43
f 14 43 29
f 14 29 16
f 14 16 15
f 16 29 30
f 16 30 17
f 17 30 31
f 17 31 18
f 18 31 32
f 18 32 33
f 18 33 34
f 19 34 20
f 20 34 22
f 22 34 35
f 23 36 37
f 23 37 24
f 25 38 26
f 26 38 39
f 26 39 40
f 26 40 41
f 26 41 42
f 29 43 30
f 30 43 32
f 30 32 31
f 32 44 45
f 32 45 33
f 32 43 46
f 32 46 44
f 33 47 48
f 33 48 34
f 33 45 47
f 34 48 49
f 34 49 35
f 36 50 51
f 36 51 52
f 36 52 37
f 41 53 42
f 42 53 55
f 42 55 54
f 43 56 57
f 43 57 46
f 44 58 45
f 44 46 57
f 44 57 58
f 45 58 47
f 47 59 60
f 47 60 61
f 47 61 48
f 47 58 62
f 47 62 59
f 50 63 51
f 51 63 64
f 51 64 65
f 54 55 66
f 55 67 66
f 56 68 58
f 56 58 57
f 58 69 62
f 58 68 70
f 58 70 71
f 58 71 72
f 58 72 69
f 59 73 74
f 59 74 75
f 59 75 60
f 59 62 76
f 59 76 73
f 62 69 76
f 64 77 65
f 65 77 78
f 65 78 79
f 65 79 80
f 65 80 81
f 65 81 82
f 65 82 94
f 65 94 106
f 65 106 118
f 65 118 115
f 65 115 114
f 65 114 113
f 65 113 111
f 65 111 122
f 65 122 124
f 65 124 123
f 65 123 126
f 65 126 125
f 65 125 121
f 65 121 119
f 65 119 108
f 65 108 96
f 65 96 86
f 65 86 83
f 66 67 85
f 66 85 83
f 66 83 86
f 66 86 84
f 69 87 88
f 69 88 76
f 69 72 89
f 69 89 87
f 70 90 91
f 70 91 71
f 71 91 89
f 71 89 72
f 73 76 88
f 73 88 92
f 81 93 82
f 82 93 94
f 84 86 95
f 86 96 97
f 86 97 95
f 87 98 99
f 87 99 88
f 87 89 98
f 88 99 100
f 88 100 101
f 88 101 92
f 89 91 102
f 89 102 103
f 89 103 104
f 89 104 98
f 90 102 91
f 93 105 94
f 94 105 107
f 94 107 106
f 96 108 109
f 96 109 110
f 96 110 97
f 98 104 103
f 98 103 99
f 99 103 111
f 99 111 100
f 100 111 113
f 100 113 114
f 100 114 115
f 100 115 112
f 102 116 117
f 102 117 103
f 103 117 111
f 106 107 112
f 106 112 118
f 108 119 109
f 109 119 121
f 109 121 120
f 111 117 122
f 112 115 118
f 116 120 123
f 116 123 124
f 116 124 122
f 116 122 117
f 120 121 125
f 120 125 126
f 120 126 123

