# https://github.com/mikedh/trimesh
v 0.80899826 1.48336463 1.15355055
v 0.77448111 1.49040480 1.13822523
v 0.79233565 1.49037867 1.13818532
v 0.80899826 1.49034383 1.13823521
v 0.81363160 1.48336463 1.15355055
v 0.81363160 1.48339947 1.15818008
v 0.80899826 1.48349532 1.17021285
v 0.79233565 1.48340820 1.15355055
v 0.77448111 1.49148523 1.13776627
v 0.77448111 1.48347788 1.15355055
v 0.80899826 1.50570502 1.13173991
v 0.85511850 1.50570502 1.13171995
v 0.85511850 1.49038737 1.13825516
v 0.81362373 1.48840952 1.14248559
v 0.85511850 1.48341691 1.15355055
v 0.81363160 1.48349532 1.17021285
v 0.80899826 1.48372188 1.18686518
v 0.79233565 1.48353889 1.17021285
v 0.77448111 1.50570502 1.13184965
v 0.77448111 1.48361730 1.16903552
v 0.80899826 1.57229050 1.11941778
v 0.81363160 1.57236021 1.12085454
v 0.82352972 1.57234279 1.12394754
v 0.85511850 1.50958233 1.13191950
v 0.85511850 1.48355632 1.17022284
v 0.82565300 1.48351275 1.17021285
v 0.77567297 1.48362603 1.17021285
v 0.81362373 1.48373058 1.18686518
v 0.80899826 1.48608310 1.20353747
v 0.79233565 1.48616154 1.20353747
v 0.77448111 1.48625739 1.20353747
v 0.79233565 1.48383513 1.18686518
v 0.77448111 1.52236444 1.13291724
v 0.79587971 1.57229050 1.12403733
v 0.77448111 1.48363473 1.17021285
v 0.82352185 1.57236021 1.12394754
v 0.77448111 1.57229050 1.16154247
v 0.81363160 1.57236021 1.22132721
v 0.83400407 1.57236892 1.16157240
v 0.84121849 1.57236892 1.15552609
v 0.85511850 1.52651189 1.13405467
v 0.85511850 1.52236444 1.13261792
v 0.85511850 1.48382642 1.18686518
v 0.77448111 1.48395711 1.18686518
v 0.85511850 1.48623122 1.20353747
v 0.84232354 1.49287934 1.21505140
v 0.83400407 1.49287061 1.21507135
v 0.82565300 1.49286190 1.21508134
v 0.81363160 1.49284447 1.21506139
v 0.80899826 1.49284447 1.21506139
v 0.79233565 1.49283577 1.21504143
v 0.77448111 1.49286190 1.21504143
v 0.77448111 1.49239141 1.21422328
v 0.77448111 1.53911104 1.13806559
v 0.77448111 1.54853860 1.14393231
v 0.85511850 1.53793476 1.13905337
v 0.85511850 1.57236892 1.16324862
v 0.77448111 1.57229050 1.22128730
v 0.84232354 1.57236892 1.22127732
v 0.83400407 1.57236892 1.20890531
v 0.77566511 1.57229050 1.22129727
v 0.79233565 1.57229050 1.22132721
v 0.80899826 1.57229050 1.22134716
v 0.83400407 1.57235150 1.22129727
v 0.85511850 1.57236892 1.22125737
v 0.85511850 1.49291418 1.21500153
v 0.85511850 1.50271642 1.21814442
v 0.85511850 1.50570502 1.21910224
v 0.84232354 1.50570502 1.21915213
v 0.83400407 1.49928346 1.21711673
v 0.82565300 1.50570502 1.21917208
v 0.81362373 1.49641684 1.21621877
v 0.81362373 1.50570502 1.21915213
v 0.77448111 1.50479884 1.21874306
v 0.77448111 1.57116652 1.22127732
v 0.77448111 1.55567463 1.22111768
v 0.79233565 1.55567463 1.22114762
v 0.80899826 1.55567463 1.22116757
v 0.85511850 1.55568335 1.22115759
v 0.85511850 1.57235150 1.22125737
v 0.85511850 1.51848713 1.22012992
v 0.83400407 1.50570502 1.21916211
v 0.85511850 1.52236444 1.22042923
v 0.83400407 1.51403475 1.21980066
v 0.77448111 1.50570502 1.21902243
v 0.83400407 1.52236444 1.22040929
v 0.81362373 1.52236444 1.22034942
v 0.77448111 1.53900646 1.22078842
v 0.80899826 1.53900646 1.22085827
v 0.85511850 1.53901519 1.22092811
v 0.84232354 1.52236444 1.22041926
v 0.77448111 1.52119690 1.22012992
v 0.83400407 1.53069417 1.22065872
v 0.77448111 1.52236444 1.22020973
v 0.77448111 1.53783021 1.22074852
f 1 2 3
f 1 3 4
f 1 4 5
f 1 5 6
f 1 6 7
f 1 7 18
f 1 18 8
f 1 8 2
f 2 9 3
f 2 8 10
f 2 10 20
f 2 20 35
f 2 35 44
f 2 44 31
f 2 31 53
f 2 53 52
f 2 52 74
f 2 74 85
f 2 85 92
f 2 92 94
f 2 94 95
f 2 95 88
f 2 88 76
f 2 76 75
f 2 75 58
f 2 58 37
f 2 37 55
f 2 55 54
f 2 54 33
f 2 33 19
f 2 19 9
f 3 9 11
f 3 11 12
f 3 12 13
f 3 13 4
f 4 13 14
f 4 14 5
f 5 15 6
f 5 14 13
f 5 13 15
f 6 15 16
f 6 16 7
f 7 16 17
f 7 17 18
f 8 18 10
f 9 19 11
f 10 18 20
f 11 21 12
f 11 19 21
f 12 21 22
f 12 22 23
f 12 23 24
f 12 24 42
f 12 42 41
f 12 41 56
f 12 56 57
f 12 57 65
f 12 65 80
f 12 80 79
f 12 79 90
f 12 90 83
f 12 83 81
f 12 81 68
f 12 68 67
f 12 67 66
f 12 66 45
f 12 45 43
f 12 43 25
f 12 25 15
f 12 15 13
f 15 25 26
f 15 26 16
f 16 26 17
f 17 27 18
f 17 26 25
f 17 25 28
f 17 28 29
f 17 29 30
f 17 30 31
f 17 31 32
f 17 32 27
f 18 27 20
f 19 33 34
f 19 34 21
f 20 27 35
f 21 34 22
f 22 36 23
f 22 34 37
f 22 37 58
f 22 58 38
f 22 38 60
f 22 60 39
f 22 39 40
f 22 40 36
f 23 36 41
f 23 41 42
f 23 42 24
f 25 43 28
f 27 32 44
f 27 44 35
f 28 43 29
f 29 43 45
f 29 45 46
f 29 46 47
f 29 47 48
f 29 48 49
f 29 49 50
f 29 50 51
f 29 51 52
f 29 52 30
f 30 52 53
f 30 53 31
f 31 44 32
f 33 54 34
f 34 54 55
f 34 55 37
f 36 56 41
f 36 40 57
f 36 57 56
f 38 59 60
f 38 58 61
f 38 61 62
f 38 62 63
f 38 63 64
f 38 64 65
f 38 65 59
f 39 60 59
f 39 59 65
f 39 65 57
f 39 57 40
f 45 66 46
f 46 66 67
f 46 67 68
f 46 68 69
f 46 69 47
f 47 69 70
f 47 70 48
f 48 70 82
f 48 82 71
f 48 71 72
f 48 72 52
f 48 52 50
f 48 50 49
f 50 52 51
f 52 72 71
f 52 71 73
f 52 73 74
f 58 75 61
f 61 75 76
f 61 76 62
f 62 76 77
f 62 77 78
f 62 78 63
f 63 78 79
f 63 79 80
f 63 80 65
f 63 65 64
f 68 81 69
f 69 81 82
f 69 82 70
f 71 82 81
f 71 81 83
f 71 83 84
f 71 84 73
f 73 85 74
f 73 84 86
f 73 86 87
f 73 87 85
f 76 88 89
f 76 89 77
f 77 89 90
f 77 90 78
f 78 90 79
f 83 90 91
f 83 91 84
f 84 91 86
f 85 87 92
f 86 91 93
f 86 93 89
f 86 89 88
f 86 88 87
f 87 94 92
f 87 88 95
f 87 95 94
f 89 93 90
f 90 93 91

