# https://github.com/mikedh/trimesh
v -2.04822322 1.79162086 0.13937002
v -2.04822322 1.79162086 0.17941023
v -2.04822322 1.80570913 0.13253700
v -2.04819384 1.79162086 0.13250458
v -1.89804615 1.79162086 0.18026503
v -2.01470351 2.04149200 0.18238584
v -2.04822322 2.04149200 0.18210450
v -2.04822322 2.04149200 0.12767335
v -1.89804615 1.79162086 0.13216370
v -2.04801741 2.04149200 0.12766250
v -2.03136046 2.04149200 0.12730540
v -2.01470351 2.04149200 0.12718643
v -1.89804615 1.94629833 0.18103870
v -1.89806088 2.04146753 0.18236420
v -1.98136022 2.04149200 0.18243448
v -1.99803190 2.04149200 0.18243448
v -2.01061650 2.04149200 0.12718101
v -1.98136022 2.04149200 0.12717016
v -1.96471800 2.04149200 0.12719180
v -1.89806088 2.04149200 0.12729461
v -1.89804615 1.94629833 0.13219076
v -1.91210092 2.04149200 0.18221811
v -1.97875804 2.04149200 0.18242911
f 1 2 7
f 1 7 8
f 1 8 3
f 1 3 4
f 1 4 9
f 1 9 5
f 1 5 2
f 2 5 6
f 2 6 7
f 3 8 4
f 4 8 10
f 4 10 11
f 4 11 12
f 4 12 9
f 5 9 21
f 5 21 13
f 5 13 14
f 5 14 15
f 5 15 16
f 5 16 6
f 6 16 15
f 6 15 23
f 6 23 22
f 6 22 20
f 6 20 19
f 6 19 18
f 6 18 17
f 6 17 12
f 6 12 11
f 6 11 10
f 6 10 8
f 6 8 7
f 9 12 17
f 9 17 18
f 9 18 19
f 9 19 20
f 9 20 21
f 13 21 20
f 13 20 14
f 14 20 22
f 14 22 23
f 14 23 15

