# https://github.com/mikedh/trimesh
v -2.26479372 2.05458903 0.57159059
v -2.26574806 2.05466297 0.57161196
v -2.31589757 2.05461544 0.57305503
v -2.26479372 2.03667868 0.56763549
v -2.26479372 2.05466297 0.50794546
v -2.28137700 2.05466297 0.57202887
v -2.28875092 2.05466297 0.57214644
v -2.31838546 2.05461544 0.57305503
v -2.28137700 2.03667868 0.56771030
v -2.26706134 2.03667868 0.56764616
v -2.26479372 2.03667868 0.51091714
v -2.26479372 2.05466297 0.50283590
v -2.34810970 2.05461544 0.51085300
v -2.34803629 2.05461544 0.57287332
v -2.28875092 2.05466297 0.46986956
v -2.28875092 2.03667868 0.56769963
v -2.28242110 2.03667868 0.56771030
v -2.28875092 2.03667868 0.48554035
v -2.28921590 2.03895312 0.47780116
v -2.28331017 2.05466297 0.47205022
v -2.34810970 2.05454325 0.57284125
v -2.34803629 2.05461544 0.50285727
v -2.34810970 2.05457848 0.50293211
v -2.34810970 2.03895312 0.56767823
v -2.29804998 2.05461544 0.46386208
v -2.30226716 2.05461544 0.46388348
v -2.31470663 2.05461544 0.46395828
v -2.31809995 2.05461544 0.46456757
v -2.32944641 2.05461544 0.47206089
v -2.32359781 2.03895312 0.47774769
v -2.31470663 2.03895312 0.47280917
v -2.29804998 2.03895312 0.47286263
v -2.34803629 2.03895312 0.51085300
v -2.34810970 2.03903057 0.51085300
f 1 2 3
f 1 3 4
f 1 4 11
f 1 11 12
f 1 12 5
f 1 5 2
f 2 6 3
f 2 5 12
f 2 12 20
f 2 20 15
f 2 15 7
f 2 7 6
f 3 7 8
f 3 8 17
f 3 17 9
f 3 9 10
f 3 10 4
f 3 6 7
f 4 10 9
f 4 9 17
f 4 17 16
f 4 16 18
f 4 18 11
f 7 13 14
f 7 14 8
f 7 15 13
f 8 14 16
f 8 16 17
f 11 18 19
f 11 19 20
f 11 20 12
f 13 21 14
f 13 15 22
f 13 22 23
f 13 23 34
f 13 34 24
f 13 24 21
f 14 21 24
f 14 24 16
f 15 20 25
f 15 25 26
f 15 26 27
f 15 27 28
f 15 28 29
f 15 29 22
f 16 24 18
f 18 30 31
f 18 31 32
f 18 32 19
f 18 24 33
f 18 33 30
f 19 32 20
f 20 32 25
f 22 29 23
f 23 29 34
f 24 34 33
f 25 32 31
f 25 31 26
f 26 31 27
f 27 31 28
f 28 31 30
f 28 30 29
f 29 30 34
f 30 33 34

