# https://github.com/mikedh/trimesh
v -2.08665723 -0.71147569 0.20878072
v -2.08757087 -0.72600365 0.20878072
v -2.087443 -0.69922903 0.20878072
v -2.087443 -0.70006909 0.35884457
v -2.08673029 -0.71138509 0.35875642
v -2.08673029 -0.7114674400000001 0.35884457
v -2.08908761 -0.73437124 0.20878072
v -2.0875983099999997 -0.72481771 0.35884457
v -2.08747038 -0.69908902 0.20878072
v -2.08761656 -0.69897372 0.32540892
v -2.09042161 -0.6906308400000001 0.32540892
v -2.0905861 -0.69109204 0.34208267
v -2.0910977600000002 -0.69166032 0.35884457
v -2.09736571 -0.73939509 0.20878072
v -2.08941659 -0.73324294 0.34208267
v -2.08948965 -0.73315235 0.35875642
v -2.09783169 -0.7393786 0.35884457
v -2.09775863 -0.73939509 0.34208267
v -2.08954446 -0.7331852999999999 0.35884457
v -2.0908419 -0.69081203 0.20878072
v -2.09073228 -0.69077086 0.22535171
v -2.0875983099999997 -0.6989819500000001 0.30872044
v -2.11698282 -0.6649104100000001 0.35884457
v -2.0994215499999997 -0.68272447 0.35884457
v -2.1174122300000002 -0.66501747 0.20878072
v -2.1133828 -0.7423847 0.22535171
v -2.11327318 -0.7423517500000001 0.20878072
v -2.1133828 -0.74243412 0.35884457
v -2.1133828 -0.74243412 0.35875642
v -2.1133828 -0.74242586 0.2920467
v -2.117065 -0.66484451 0.35875642
v -2.11716556 -0.66477863 0.35884457
v -2.11754929 -0.66491864 0.20878072
v -2.1133828 -0.74236821 0.20878072
v -2.14672362 -0.7426811799999999 0.35884457
v -2.1300578 -0.74256586 0.35884457
v -2.1300578 -0.74256586 0.35875642
v -2.1300578 -0.65915356 0.35875642
v -2.13014918 -0.6591371 0.35884457
v -2.1300578 -0.65938416 0.20878072
v -2.14672362 -0.74254117 0.24204013
v -2.146614 -0.7424917600000001 0.20878072
v -2.1633986199999997 -0.74223644 0.35884457
v -2.1633986199999997 -0.74223644 0.35875642
v -2.14672362 -0.65854412 0.35875642
v -2.14681499 -0.65855235 0.35884457
v -2.14672362 -0.65878295 0.20878072
v -2.1633986199999997 -0.74202232 0.20878072
v -2.14672362 -0.7424917600000001 0.20878072
v -2.17468276 -0.7390903600000001 0.35884457
v -2.17474669 -0.73907389 0.35875642
v -2.17473757 -0.73904917 0.32540892
v -2.17465532 -0.7389833 0.24204013
v -2.1746461999999998 -0.73896684 0.22535171
v -2.17456395 -0.73896684 0.20878072
v -2.1633986199999997 -0.6599689200000001 0.2920467
v -2.1633986199999997 -0.6599195 0.35875642
v -2.1468333 -0.6587911900000001 0.20878072
v -2.1633986199999997 -0.6600512700000001 0.22535171
v -2.1633986199999997 -0.65998538 0.27538762
v -2.16347168 -0.6599524400000001 0.35884457
v -2.17885837 -0.72806261 0.35884457
v -2.17474669 -0.73905743 0.34208267
v -2.17887662 -0.72806261 0.32540892
v -2.17885837 -0.72806261 0.30872044
v -2.17874869 -0.72806261 0.20878072
v -2.17549597 -0.66537985 0.27538762
v -2.1755050899999997 -0.66537985 0.2920467
v -2.1634808 -0.66013363 0.20878072
v -2.17537716 -0.66544572 0.20878072
v -2.17548678 -0.66538808 0.35884457
v -2.1799365 -0.71138509 0.35884457
v -2.17997306 -0.71138509 0.34208267
v -2.17999131 -0.71138509 0.32540892
v -2.17999131 -0.71138509 0.27538762
v -2.17875787 -0.7279555600000001 0.20878072
v -2.17957102 -0.6780382899999999 0.27538762
v -2.1795893299999998 -0.6780382899999999 0.2920467
v -2.1795893299999998 -0.6780382899999999 0.32540892
v -2.1793609 -0.6780382899999999 0.20878072
v -2.17955277 -0.6780382899999999 0.35884457
v -2.17989082 -0.6947158099999999 0.35884457
v -2.1799456299999997 -0.6947158099999999 0.34208267
v -2.1799456299999997 -0.6947158099999999 0.30872044
v -2.1799365 -0.6947158099999999 0.2920467
v -2.17992738 -0.6947158099999999 0.27538762
v -2.17997306 -0.71138509 0.25871388
v -2.17990907 -0.71138509 0.20878072
v -2.1797812 -0.69460873 0.20878072
v -2.17990907 -0.71127802 0.20878072
f 1 2 7
f 1 7 14
f 1 14 27
f 1 27 34
f 1 34 42
f 1 42 49
f 1 49 48
f 1 48 55
f 1 55 66
f 1 66 76
f 1 76 88
f 1 88 90
f 1 90 89
f 1 89 80
f 1 80 70
f 1 70 69
f 1 69 58
f 1 58 47
f 1 47 40
f 1 40 33
f 1 33 25
f 1 25 20
f 1 20 9
f 1 9 3
f 1 3 4
f 1 4 5
f 1 5 6
f 1 6 2
f 2 6 8
f 2 8 7
f 3 9 10
f 3 10 4
f 4 10 11
f 4 11 12
f 4 12 13
f 4 13 24
f 4 24 23
f 4 23 32
f 4 32 39
f 4 39 46
f 4 46 61
f 4 61 71
f 4 71 81
f 4 81 82
f 4 82 72
f 4 72 62
f 4 62 50
f 4 50 43
f 4 43 35
f 4 35 36
f 4 36 28
f 4 28 17
f 4 17 19
f 4 19 8
f 4 8 6
f 4 6 5
f 7 8 15
f 7 15 16
f 7 16 17
f 7 17 18
f 7 18 14
f 8 19 16
f 8 16 15
f 9 20 21
f 9 21 11
f 9 11 22
f 9 22 10
f 10 22 11
f 11 23 24
f 11 24 12
f 11 21 25
f 11 25 23
f 12 24 13
f 14 26 27
f 14 18 28
f 14 28 29
f 14 29 30
f 14 30 26
f 16 19 17
f 17 28 18
f 20 25 21
f 23 31 32
f 23 25 31
f 25 33 31
f 26 34 27
f 26 30 35
f 26 35 34
f 28 36 37
f 28 37 29
f 29 37 30
f 30 37 35
f 31 33 32
f 32 38 39
f 32 33 40
f 32 40 38
f 34 35 41
f 34 41 42
f 35 37 36
f 35 43 44
f 35 44 41
f 38 40 39
f 39 45 46
f 39 40 47
f 39 47 45
f 41 48 49
f 41 49 42
f 41 44 48
f 43 50 51
f 43 51 44
f 44 51 52
f 44 52 53
f 44 53 54
f 44 54 55
f 44 55 48
f 45 56 57
f 45 57 46
f 45 47 58
f 45 58 59
f 45 59 60
f 45 60 56
f 46 57 61
f 50 62 51
f 51 63 52
f 51 62 64
f 51 64 63
f 52 63 64
f 52 64 65
f 52 65 66
f 52 66 54
f 52 54 53
f 54 66 55
f 56 60 67
f 56 67 57
f 57 67 68
f 57 68 61
f 58 69 59
f 59 69 70
f 59 70 67
f 59 67 60
f 61 68 71
f 62 72 73
f 62 73 74
f 62 74 64
f 64 74 75
f 64 75 76
f 64 76 65
f 65 76 66
f 67 77 78
f 67 78 68
f 67 70 77
f 68 78 79
f 68 79 71
f 70 80 77
f 71 79 81
f 72 82 83
f 72 83 73
f 73 83 74
f 74 83 84
f 74 84 75
f 75 84 85
f 75 85 86
f 75 86 87
f 75 87 76
f 76 87 88
f 77 86 78
f 77 80 89
f 77 89 86
f 78 85 84
f 78 84 83
f 78 83 79
f 78 86 85
f 79 83 81
f 81 83 82
f 86 89 90
f 86 90 87
f 87 90 88

