# https://github.com/mikedh/trimesh
v -2.0967086999999998 -0.51125528 1.4763843
v -2.11336897 -0.57796293 1.47633399
v -2.11336897 -0.6114043 1.47633399
v -2.0967086999999998 -0.6114043 1.47637592
v -2.08003185 -0.6114043 1.47637592
v -2.08003185 -0.49459295999999997 1.47637592
v -2.09670041 -0.39456066 1.47634237
v -2.11336062 -0.36120684000000003 1.47632561
v -2.13002918 -0.36120684000000003 1.47610759
v -2.13004588 -0.6114043 1.47605729
v -2.13002918 -0.37786916000000004 1.47610759
v -2.06337158 -0.6114043 1.47633399
v -2.06337158 -0.59465445 1.47633399
v -2.06337158 -0.51128447 1.47631723
v -2.06337158 -0.49459295999999997 1.47630882
v -2.06337158 -0.37789834 1.47625014
v -2.08003185 -0.37786916000000004 1.47630882
v -2.09670041 -0.36120684000000003 1.47631723
v -2.11336062 -0.34451533 1.47630882
v -2.14277429 -0.36120684000000003 1.47183131
v -2.11336062 -0.32776547 1.47627531
v -2.11336062 -0.31329171 1.47624176
v -2.13002918 -0.34451533 1.47606567
v -2.14277429 -0.6114043 1.47179776
v -2.06337158 -0.6114043 1.4270475
v -2.06337158 -0.36123602 1.47623338
v -2.08003185 -0.36120684000000003 1.47629206
v -2.09670041 -0.34451533 1.47630044
v -2.0967086999999998 -0.31329171 1.47624176
v -2.14269932 -0.32776547 1.47173905
v -2.1427493 -0.34451533 1.47178097
v -2.14777235 -0.36120684000000003 1.45942162
v -2.14782233 -0.61131677 1.45943841
v -2.14782233 -0.6114043 1.45943841
v -2.11551814 -0.31329171 1.47620821
v -2.13002918 -0.32785302 1.4759986
v -2.0991910899999997 -0.6114043 1.39645096
v -2.09862468 -0.57796293 1.39616588
v -2.06337158 -0.31329171 1.42062467
v -2.06337158 -0.31329171 1.4761579
v -2.06551241 -0.31329171 1.47616628
v -2.0821976700000002 -0.31329171 1.47620821
v -2.14267433 -0.31329171 1.47168036
v -2.14762241 -0.32785302 1.45942162
v -2.14824716 -0.32776547 1.44276082
v -2.14832213 -0.34451533 1.44276082
v -2.14838875 -0.36120684000000003 1.44276082
v -2.14845542 -0.61131677 1.44276082
v -2.14845542 -0.6114043 1.44276082
v -2.13003753 -0.31329171 1.47591474
v -2.11336897 -0.6114043 1.39130264
v -2.09920773 -0.61131677 1.39644258
v -2.11336897 -0.5946252599999999 1.39113495
v -2.11336897 -0.57796293 1.39097562
v -2.09834973 -0.5612714400000001 1.39611557
v -2.09584241 -0.31329171 1.39672767
v -2.1475474500000002 -0.31329171 1.45942162
v -2.1476306999999997 -0.31329171 1.4572751
v -2.14831378 -0.32776547 1.42610001
v -2.14817219 -0.31329171 1.44275244
v -2.14837211 -0.36120684000000003 1.42610001
v -2.14846377 -0.5946252599999999 1.42610001
v -2.14843043 -0.6114043 1.42610001
v -2.13004588 -0.6114043 1.39084987
v -2.11336897 -0.5612714400000001 1.39090018
v -2.11336897 -0.54460911 1.39083308
v -2.11336062 -0.46923472 1.39086663
v -2.11336062 -0.46123913 1.39088339
v -2.11336062 -0.44457681000000004 1.39095048
v -2.11336062 -0.42788531 1.39103431
v -2.11336062 -0.39456066 1.39123557
v -2.11336062 -0.34451533 1.39158772
v -2.11336897 -0.31329171 1.39194828
v -2.1481805400000002 -0.31329171 1.4405975
v -2.14822217 -0.31329171 1.42610001
v -2.1480555900000002 -0.31329171 1.40942242
v -2.14811386 -0.32776547 1.40943083
v -2.1481472 -0.36120684000000003 1.40943083
v -2.1483304800000003 -0.61131677 1.40941404
v -2.1483304800000003 -0.6114043 1.40941404
v -2.13004588 -0.5946252599999999 1.39081632
v -2.14330742 -0.6114043 1.3959982
v -2.13004588 -0.54460911 1.39074084
v -2.13002918 -0.46123913 1.39072408
v -2.13002918 -0.44457681000000004 1.39074922
v -2.13002918 -0.39456066 1.39088339
v -2.13002918 -0.34451533 1.39111816
v -2.13002918 -0.32785302 1.39125233
v -2.13004588 -0.31329171 1.39138649
v -2.1431325 -0.31329171 1.39621619
v -2.14316578 -0.32776547 1.39620781
v -2.14316578 -0.36120684000000003 1.39608205
v -2.14330742 -0.61131677 1.3959982
v -2.1431491400000002 -0.44457681000000004 1.39596465
v -2.14316578 -0.42788531 1.39598982
v -2.1431325 -0.32785302 1.39614074
v -2.14144978 -0.31329171 1.39558733
v -2.13010415 -0.32776547 1.39126071
f 1 2 3
f 1 3 4
f 1 4 5
f 1 5 6
f 1 6 7
f 1 7 8
f 1 8 2
f 2 8 9
f 2 9 11
f 2 11 3
f 3 10 24
f 3 24 34
f 3 34 49
f 3 49 63
f 3 63 80
f 3 80 82
f 3 82 64
f 3 64 51
f 3 51 37
f 3 37 25
f 3 25 12
f 3 12 5
f 3 5 4
f 3 11 10
f 5 12 13
f 5 13 6
f 6 13 14
f 6 14 15
f 6 15 16
f 6 16 17
f 6 17 7
f 7 17 18
f 7 18 8
f 8 18 28
f 8 28 19
f 8 19 9
f 9 20 11
f 9 19 21
f 9 21 22
f 9 22 23
f 9 23 20
f 10 11 24
f 11 20 24
f 12 25 39
f 12 39 40
f 12 40 26
f 12 26 16
f 12 16 15
f 12 15 14
f 12 14 13
f 16 26 27
f 16 27 17
f 17 27 28
f 17 28 18
f 19 28 29
f 19 29 21
f 20 23 30
f 20 30 31
f 20 31 32
f 20 32 33
f 20 33 34
f 20 34 24
f 21 29 22
f 22 29 42
f 22 42 41
f 22 41 40
f 22 40 39
f 22 39 56
f 22 56 73
f 22 73 89
f 22 89 97
f 22 97 90
f 22 90 76
f 22 76 75
f 22 75 74
f 22 74 60
f 22 60 58
f 22 58 57
f 22 57 43
f 22 43 50
f 22 50 35
f 22 35 23
f 23 35 36
f 23 36 30
f 25 37 38
f 25 38 39
f 26 40 41
f 26 41 27
f 27 41 42
f 27 42 28
f 28 42 29
f 30 36 43
f 30 43 31
f 31 43 32
f 32 43 44
f 32 44 45
f 32 45 46
f 32 46 47
f 32 47 48
f 32 48 33
f 33 48 49
f 33 49 34
f 35 50 36
f 36 50 43
f 37 51 52
f 37 52 38
f 38 53 54
f 38 54 55
f 38 55 39
f 38 52 51
f 38 51 53
f 39 55 56
f 43 57 44
f 44 57 58
f 44 58 45
f 45 59 46
f 45 58 60
f 45 60 59
f 46 59 47
f 47 59 61
f 47 61 62
f 47 62 48
f 48 62 49
f 49 62 63
f 51 64 53
f 53 64 54
f 54 65 55
f 54 64 65
f 55 65 66
f 55 66 56
f 56 66 67
f 56 67 68
f 56 68 69
f 56 69 70
f 56 70 71
f 56 71 72
f 56 72 73
f 59 60 74
f 59 74 75
f 59 75 76
f 59 76 77
f 59 77 61
f 61 77 78
f 61 78 79
f 61 79 62
f 62 79 80
f 62 80 63
f 64 81 66
f 64 66 65
f 64 82 81
f 66 81 83
f 66 83 84
f 66 84 67
f 67 84 85
f 67 85 68
f 68 85 86
f 68 86 69
f 69 86 87
f 69 87 70
f 70 87 71
f 71 87 72
f 72 87 88
f 72 88 89
f 72 89 73
f 76 90 77
f 77 90 91
f 77 91 92
f 77 92 78
f 78 92 79
f 79 93 82
f 79 82 80
f 79 92 93
f 81 82 83
f 82 93 84
f 82 84 83
f 84 94 95
f 84 95 92
f 84 92 85
f 84 93 94
f 85 92 96
f 85 96 86
f 86 96 87
f 87 96 90
f 87 90 97
f 87 97 98
f 87 98 88
f 88 98 89
f 89 98 97
f 90 96 91
f 91 96 92
f 92 95 93
f 93 95 94

