# https://github.com/mikedh/trimesh
v -1.27030122 -0.42793816 0.44056529
v -1.27030122 -0.42793816 0.39681265
v -1.3462642 -0.42793816 0.44054651
v -1.27030122 -0.43535359 0.44057466
v -1.27030122 -0.61136683 0.39488487
v -1.44629896 -0.42793816 0.39473946
v -1.3462642 -0.44458248 0.44056058
v -1.9799136800000001 -0.42793816 0.43958497
v -1.99663425 -0.61131296 0.4398289
v -1.27030122 -0.45203382000000003 0.44058402
v -1.32961578 -0.61136683 0.44068255
v -1.27030122 -0.61136683 0.44067319
v -1.44629896 -0.61136683 0.39296179
v -1.4630194699999999 -0.42793816 0.39465507
v -1.99663425 -0.42793816 0.43954274
v -2.0065800400000002 -0.61136683 0.4398054
v -1.99663425 -0.61136683 0.4398289
v -1.27030122 -0.61131296 0.44067319
v -1.4796679 -0.61136683 0.39281639
v -1.49638841 -0.42793816 0.39453781
v -2.0065800400000002 -0.42793816 0.43950523
v -2.0065800400000002 -0.61136683 0.39366067
v -1.49638841 -0.61136683 0.3927648
v -1.57977471 -0.42793816 0.39431267
v -2.0065800400000002 -0.42793816 0.39521319
v -1.86315845 -0.61136683 0.39297116
v -1.61314367 -0.61136683 0.39278824
v -1.59649521 -0.42793816 0.39427515
v -1.61314367 -0.42793816 0.39428452
v -1.84643794 -0.61136683 0.39291491
f 1 2 6
f 1 6 14
f 1 14 20
f 1 20 24
f 1 24 28
f 1 28 29
f 1 29 25
f 1 25 21
f 1 21 15
f 1 15 8
f 1 8 3
f 1 3 4
f 1 4 10
f 1 10 18
f 1 18 12
f 1 12 5
f 1 5 2
f 2 5 6
f 3 7 4
f 3 8 9
f 3 9 7
f 4 7 11
f 4 11 10
f 5 12 11
f 5 11 17
f 5 17 16
f 5 16 22
f 5 22 26
f 5 26 30
f 5 30 27
f 5 27 23
f 5 23 19
f 5 19 13
f 5 13 6
f 6 13 14
f 7 9 11
f 8 15 16
f 8 16 9
f 9 16 17
f 9 17 11
f 10 11 18
f 11 12 18
f 13 19 14
f 14 19 20
f 15 21 16
f 16 21 25
f 16 25 22
f 19 23 20
f 20 23 24
f 22 25 26
f 23 27 28
f 23 28 24
f 25 29 30
f 25 30 26
f 27 30 28
f 28 30 29

