# https://github.com/mikedh/trimesh
v -1.60286563 2.07368980 0.20134707
v -1.60956233 2.07368980 0.20179471
v -1.65821259 2.04852111 0.20178189
v -1.60286563 2.04852111 0.18064012
v -1.60286563 2.07368980 0.08124920
v -1.64209088 2.07368980 0.20179471
v -1.64209088 2.06725903 0.20179471
v -1.72576238 2.04852111 0.20178189
v -1.60286563 2.04852111 0.09591934
v -1.66359475 2.04852111 0.07299967
v -1.66359475 2.07368980 0.07274391
v -1.72871391 2.07368980 0.20178189
v -1.72761020 2.04852111 0.14151555
v -1.67292051 2.04852111 0.07246251
v -1.68024968 2.07368980 0.07183582
v -1.72955720 2.07368980 0.14311434
v -1.72954480 2.07368980 0.14151555
v -1.72940837 2.07368980 0.12487582
v -1.72922234 2.07368980 0.10821052
v -1.72739937 2.04852111 0.12487582
v -1.68024968 2.04852111 0.07209159
v -1.69690461 2.04852111 0.07132423
v -1.69690461 2.07368980 0.07113236
v -1.72866432 2.07368980 0.09155797
v -1.72663047 2.04852111 0.09155797
v -1.72689094 2.04852111 0.10088183
v -1.72708937 2.04852111 0.10821052
v -1.70624277 2.04852111 0.07246251
v -1.71357194 2.07368980 0.07288458
v -1.69867798 2.07368980 0.07123471
v -1.72553916 2.04852111 0.08625014
v -1.72524155 2.07368980 0.07893426
v -1.72411305 2.04852111 0.07947142
v -1.71357194 2.04852111 0.07337060
v -1.71503530 2.07368980 0.07340898
v -1.71948733 2.04852111 0.07677274
f 1 2 3
f 1 3 4
f 1 4 9
f 1 9 5
f 1 5 11
f 1 11 15
f 1 15 23
f 1 23 30
f 1 30 29
f 1 29 35
f 1 35 32
f 1 32 24
f 1 24 19
f 1 19 18
f 1 18 17
f 1 17 16
f 1 16 12
f 1 12 6
f 1 6 2
f 2 6 7
f 2 7 3
f 3 7 8
f 3 8 13
f 3 13 20
f 3 20 27
f 3 27 26
f 3 26 25
f 3 25 31
f 3 31 33
f 3 33 36
f 3 36 34
f 3 34 28
f 3 28 22
f 3 22 21
f 3 21 14
f 3 14 10
f 3 10 9
f 3 9 4
f 5 10 11
f 5 9 10
f 6 12 7
f 7 12 8
f 8 12 13
f 10 14 11
f 11 14 15
f 12 16 13
f 13 16 17
f 13 17 18
f 13 18 19
f 13 19 20
f 14 21 15
f 15 21 22
f 15 22 23
f 19 24 25
f 19 25 26
f 19 26 27
f 19 27 20
f 22 28 29
f 22 29 30
f 22 30 23
f 24 31 25
f 24 32 33
f 24 33 31
f 28 34 29
f 29 34 35
f 32 35 34
f 32 34 36
f 32 36 33

