# https://github.com/mikedh/trimesh
v 0.38228060 2.04480330 0.11505243
v 0.38228060 2.05704757 0.09413395
v 0.40296084 2.04480330 0.11847436
v 0.38228060 2.04480330 0.19007185
v 0.38228060 2.05995663 0.09157379
v 0.40296084 2.05767095 0.10335057
v 0.40296084 2.04480330 0.18354026
v 0.38450351 2.04480330 0.18940993
v 0.38228060 2.05472339 0.20492086
v 0.38228060 2.07044620 0.08517959
v 0.40296084 2.07237020 0.09570752
v 0.40296084 2.06222692 0.20492086
v 0.38228060 2.09087896 0.20492086
v 0.38228060 2.07237020 0.08421792
v 0.38228060 2.08902426 0.07897273
v 0.38228060 2.09234888 0.07838574
v 0.40296084 2.08890880 0.09294751
v 0.40296084 2.11131940 0.20492086
v 0.38235147 2.11396682 0.20492086
v 0.38228060 2.11401299 0.20352210
v 0.38228060 2.10569366 0.07733669
v 0.40296084 2.10089909 0.09409646
v 0.40296084 2.11906923 0.17018990
v 0.38228060 2.12003123 0.18146713
v 0.38228060 2.11886145 0.18608796
v 0.38228060 2.11823038 0.08976293
v 0.40296084 2.11707598 0.10341303
v 0.40296084 2.10907989 0.09565757
v 0.40296084 2.12055456 0.15353003
v 0.38228060 2.12267862 0.16357087
v 0.38228060 2.12205527 0.17018990
v 0.38228060 2.12182439 0.10301338
v 0.40296084 2.12021594 0.12021024
v 0.38228060 2.12324814 0.15353003
v 0.40296084 2.12040063 0.13687016
v 0.38228060 2.12342514 0.12021024
f 1 2 3
f 1 3 7
f 1 7 8
f 1 8 4
f 1 4 9
f 1 9 13
f 1 13 20
f 1 20 25
f 1 25 24
f 1 24 31
f 1 31 30
f 1 30 34
f 1 34 36
f 1 36 32
f 1 32 26
f 1 26 21
f 1 21 16
f 1 16 15
f 1 15 14
f 1 14 10
f 1 10 5
f 1 5 2
f 2 5 6
f 2 6 3
f 3 6 11
f 3 11 17
f 3 17 22
f 3 22 28
f 3 28 27
f 3 27 33
f 3 33 35
f 3 35 29
f 3 29 23
f 3 23 18
f 3 18 12
f 3 12 7
f 4 8 9
f 5 10 6
f 6 10 11
f 7 12 9
f 7 9 8
f 9 12 18
f 9 18 19
f 9 19 13
f 10 14 11
f 11 14 15
f 11 15 16
f 11 16 17
f 13 19 20
f 16 21 17
f 17 21 22
f 18 23 24
f 18 24 25
f 18 25 19
f 19 25 20
f 21 26 27
f 21 27 28
f 21 28 22
f 23 29 30
f 23 30 31
f 23 31 24
f 26 32 27
f 27 32 33
f 29 34 30
f 29 35 36
f 29 36 34
f 32 36 33
f 33 36 35

