# https://github.com/mikedh/trimesh
v -3.56031549 2.06375260 0.36102423
v -3.56031549 2.11113581 0.36102423
v -3.55720476 2.06373326 0.36102423
v -3.56031549 2.06309504 0.43683611
v -3.56031549 2.11137757 0.43683611
v -3.31473810 2.11168218 0.36102423
v -3.54806849 2.06302253 0.43683611
v -3.54804399 2.06368975 0.36102423
v -3.43140326 2.06240848 0.43683611
v -3.31473810 2.11176438 0.43683611
v -3.31008425 2.11168701 0.36102423
v -3.54054882 2.06365592 0.36102423
v -3.53136350 2.06361724 0.36102423
v -3.43140326 2.06323526 0.36102423
v -3.41472283 2.06236979 0.43683611
v -3.31008425 2.11175955 0.43683611
v -3.31008425 2.06324495 0.36102423
v -3.42390810 2.06322560 0.36102423
v -3.41472283 2.06321592 0.36102423
v -3.31008425 2.06239396 0.43683611
f 1 2 6
f 1 6 11
f 1 11 17
f 1 17 19
f 1 19 18
f 1 18 14
f 1 14 13
f 1 13 12
f 1 12 8
f 1 8 3
f 1 3 4
f 1 4 5
f 1 5 2
f 2 5 6
f 3 7 4
f 3 8 9
f 3 9 7
f 4 7 9
f 4 9 15
f 4 15 20
f 4 20 16
f 4 16 10
f 4 10 5
f 5 10 6
f 6 10 11
f 8 12 9
f 9 12 13
f 9 13 14
f 9 14 15
f 10 16 11
f 11 16 20
f 11 20 17
f 14 18 15
f 15 18 19
f 15 19 20
f 17 20 19

