# https://github.com/mikedh/trimesh
v 0.02795927 1.46387668 1.32488467
v 0.02795927 1.46392698 1.34154249
v 0.02795927 1.46407796 1.31628783
v 0.14722744 1.46412827 1.31644635
v 0.14846597 1.46407796 1.32217505
v 0.14846597 1.46407796 1.33890833
v 0.02795927 1.46397732 1.34973930
v 0.13642239 1.46412827 1.31642370
v 0.02795927 1.47253200 1.31049874
v 0.14846597 1.47087137 1.30947225
v 0.14846597 1.46553728 1.31477830
v 0.14846597 1.46412827 1.31815213
v 0.14846597 1.46448054 1.35929469
v 0.09616305 1.46417861 1.36655558
v 0.03644049 1.46407796 1.35820782
v 0.02795927 1.46407796 1.35820782
v 0.02795927 1.48918842 1.30519272
v 0.14846597 1.48908780 1.30247553
v 0.14846597 1.46986494 1.37045021
v 0.14846597 1.47223004 1.37417124
v 0.08645504 1.46417861 1.36657069
v 0.05310805 1.46417861 1.36660088
v 0.03644049 1.46417861 1.36660842
v 0.02795927 1.46417861 1.36660088
v 0.14846597 1.48918842 1.30245288
v 0.02795927 1.97796215 1.30620410
v 0.14846597 1.48803104 1.37919801
v 0.02795927 1.47253200 1.37161257
v 0.09763751 1.97796215 1.30609842
v 0.11975483 1.97796215 1.30608334
v 0.14846597 1.97796215 1.30609842
v 0.02795927 1.97796215 1.37515997
v 0.14846597 1.48918842 1.37954521
v 0.02795927 1.48918842 1.37623930
v 0.14846597 1.97796215 1.37562793
v 0.03074307 1.97796215 1.37517508
v 0.02795927 1.97247711 1.37518262
v 0.02795927 1.95582065 1.37522035
f 1 2 7
f 1 7 16
f 1 16 24
f 1 24 28
f 1 28 34
f 1 34 38
f 1 38 37
f 1 37 32
f 1 32 26
f 1 26 17
f 1 17 9
f 1 9 3
f 1 3 4
f 1 4 5
f 1 5 6
f 1 6 2
f 2 6 7
f 3 8 4
f 3 9 10
f 3 10 11
f 3 11 8
f 4 12 5
f 4 8 11
f 4 11 12
f 5 12 11
f 5 11 10
f 5 10 18
f 5 18 25
f 5 25 31
f 5 31 35
f 5 35 33
f 5 33 27
f 5 27 20
f 5 20 19
f 5 19 13
f 5 13 6
f 6 13 14
f 6 14 7
f 7 15 16
f 7 14 15
f 9 17 18
f 9 18 10
f 13 19 14
f 14 19 20
f 14 20 21
f 14 21 15
f 15 21 22
f 15 22 23
f 15 23 16
f 16 23 24
f 17 25 18
f 17 26 25
f 20 27 28
f 20 28 24
f 20 24 23
f 20 23 22
f 20 22 21
f 25 26 29
f 25 29 30
f 25 30 31
f 26 32 36
f 26 36 35
f 26 35 31
f 26 31 30
f 26 30 29
f 27 33 28
f 28 33 34
f 32 37 33
f 32 33 36
f 33 35 36
f 33 37 38
f 33 38 34

