# https://github.com/mikedh/trimesh
v -3.31008080 1.96982563 1.22154375
v -3.29987878 1.96982563 1.22153377
v -3.31008080 1.96982563 1.11986054
v -3.31008080 1.60571425 1.22143390
v -3.28392032 1.96982563 1.22148383
v -3.29804780 1.60571425 1.22140393
v -3.27465807 1.60571425 1.22133402
v -3.30088787 1.96982563 1.12305656
v -3.31008080 1.76701634 1.11953096
v -3.31008080 1.58903191 1.22141392
v -3.27465807 1.96982563 1.22145387
v -3.29804780 1.58903191 1.22138395
v -3.27465807 1.58903191 1.22132403
v -3.27465807 1.96982563 1.16376580
v -3.27465807 1.96922985 1.16375581
v -3.27465807 1.92049364 1.16336629
v -3.30047522 1.90567816 1.12320637
v -3.30020128 1.73905360 1.12301661
v -3.31008080 1.75041346 1.11952097
v -3.31008080 1.57238933 1.22133402
v -3.29804780 1.57238933 1.22132403
v -3.27465807 1.57238933 1.22127410
v -3.27465807 1.90428796 1.16325644
v -3.27465807 1.56404816 1.16167839
v -3.30005563 1.60571425 1.12303657
v -3.31008080 1.63375640 1.11954094
v -3.31008080 1.56404816 1.22124413
v -3.30404697 1.56404816 1.22124413
v -3.27465807 1.56404816 1.22121417
v -3.29683064 1.56404816 1.13053722
v -3.30017353 1.57238933 1.12393546
v -3.29999320 1.58903191 1.12319638
v -3.31008080 1.60047124 1.11966079
v -3.31008080 1.60571425 1.11962084
v -3.31008080 1.56404816 1.12232747
v -3.30114796 1.56404816 1.12493422
v -3.31008080 1.57238933 1.12084930
v -3.31008080 1.58374920 1.12004031
v -3.31008080 1.56623274 1.12180811
v -3.31008080 1.58903191 1.11979063
v -3.30844058 1.56404816 1.12266705
f 1 2 5
f 1 5 11
f 1 11 14
f 1 14 8
f 1 8 3
f 1 3 9
f 1 9 19
f 1 19 26
f 1 26 34
f 1 34 33
f 1 33 40
f 1 40 38
f 1 38 37
f 1 37 39
f 1 39 35
f 1 35 27
f 1 27 20
f 1 20 10
f 1 10 4
f 1 4 2
f 2 4 6
f 2 6 7
f 2 7 5
f 3 8 9
f 4 10 12
f 4 12 6
f 5 7 11
f 6 12 13
f 6 13 7
f 7 13 22
f 7 22 29
f 7 29 24
f 7 24 23
f 7 23 16
f 7 16 15
f 7 15 14
f 7 14 11
f 8 14 15
f 8 15 16
f 8 16 17
f 8 17 18
f 8 18 9
f 9 18 19
f 10 20 21
f 10 21 22
f 10 22 12
f 12 22 13
f 16 23 17
f 17 23 24
f 17 24 18
f 18 24 25
f 18 25 19
f 19 25 26
f 20 27 28
f 20 28 21
f 21 28 29
f 21 29 22
f 24 29 28
f 24 28 27
f 24 27 35
f 24 35 41
f 24 41 36
f 24 36 30
f 24 30 31
f 24 31 32
f 24 32 25
f 25 32 33
f 25 33 34
f 25 34 26
f 30 36 31
f 31 37 38
f 31 38 32
f 31 36 39
f 31 39 37
f 32 38 40
f 32 40 33
f 35 39 41
f 36 41 39

