# https://github.com/mikedh/trimesh
v -2.2149045249999997 -0.19886496 0.07525787
v -2.198276285 -0.19903145 0.07530379
v -2.1982257049999996 -0.19903145 0.07525787
v -2.1982257049999996 -0.19905522 0.05857839
v -2.2149045249999997 -0.19893632 0.05857839
v -2.231574925 -0.19926927 0.04189892
v -2.231625505 -0.19915828000000002 0.07530379
v -2.2149550949999997 -0.19887289000000002 0.07530379
v -2.187837255 -0.20106883 0.07530379
v -2.1878456649999998 -0.20103713 0.07525787
v -2.187837255 -0.20103713 0.05857839
v -2.1982257049999996 -0.19918207 0.04189892
v -2.2149045249999997 -0.19903938 0.04189892
v -2.1878794249999998 -0.20106883 0.04189892
v -2.231574925 -0.19949916 0.02523251
v -2.248253805 -0.19961015 0.05857839
v -2.248253805 -0.19945953 0.07525787
v -2.248287505 -0.19946745999999999 0.07530379
v -2.183924725 -0.21113691 0.07530379
v -2.183933135 -0.21108935 0.07525787
v -2.1839668349999997 -0.21108935 0.05857839
v -2.184017475 -0.21108935 0.04189892
v -2.188351605 -0.20146523 0.02523251
v -2.1982257049999996 -0.19972908 0.02523251
v -2.2149045249999997 -0.1992772 0.02523251
v -2.231574925 -0.20121945000000002 0.01494808
v -2.248253805 -0.20172682 0.01553841
v -2.248253805 -0.20041084 0.02523251
v -2.248253805 -0.19991933 0.04189892
v -2.2588530249999996 -0.20130668000000002 0.05857839
v -2.259190295 -0.20117982 0.07525787
v -2.259190295 -0.20117982 0.07530379
v -2.182044355 -0.22781662 0.07530379
v -2.182044355 -0.22776113 0.07525787
v -2.182137095 -0.22776113 0.04189892
v -2.1847257749999995 -0.21108935 0.02523251
v -2.182558705 -0.22776113 0.02523251
v -2.189152645 -0.20213113 0.01604345
v -2.1982257049999996 -0.20144937000000002 0.0152235
v -2.2149045249999997 -0.20109262 0.01483655
v -2.231574925 -0.21108935 0.01061907
v -2.248253805 -0.21108935 0.01153087
v -2.257242465 -0.20232932 0.01631887
v -2.2578749049999995 -0.20192501000000002 0.02523251
v -2.2584061349999995 -0.2015762 0.04189892
v -2.264544775 -0.21108935 0.05857839
v -2.265101285 -0.21108935 0.07525787
v -2.265101285 -0.21108935 0.07530379
v -2.182094935 -0.24448047 0.07530379
v -2.1821286349999998 -0.2444329 0.04189892
v -2.1824322049999996 -0.2444329 0.02523251
v -2.187634835 -0.21108935 0.01445616
v -2.186336325 -0.2444329 0.01314429
v -2.186437475 -0.22776113 0.01324925
v -2.1982257049999996 -0.21108935 0.01124876
v -2.2149045249999997 -0.21108935 0.01049454
v -2.231574925 -0.22776113 0.0083366
v -2.248253805 -0.22776113 0.00899909
v -2.259240935 -0.21108935 0.01461349
v -2.262757145 -0.21108935 0.02523251
v -2.2639376249999996 -0.21108935 0.04189892
v -2.267546645 -0.22776113 0.04189892
v -2.268179015 -0.22776113 0.07525787
v -2.268179015 -0.22776113 0.07530379
v -2.182415325 -0.26115225000000003 0.07530379
v -2.182398505 -0.26111262 0.07525787
v -2.1824912449999996 -0.26111262 0.04189892
v -2.183005595 -0.26111262 0.02523251
v -2.186707355 -0.26111262 0.01347231
v -2.1982257049999996 -0.22776113 0.00895317
v -2.1982257049999996 -0.26111262 0.00934668
v -2.1982257049999996 -0.2444329 0.00895317
v -2.2149045249999997 -0.22776113 0.00831036
v -2.231574925 -0.2444329 0.00855954
v -2.2149045249999997 -0.26111262 0.00868419
v -2.231574925 -0.26111262 0.00932044
v -2.248253805 -0.2444329 0.01000262
v -2.260944225 -0.22776113 0.01326238
v -2.266349225 -0.22776113 0.02523251
v -2.2637183849999998 -0.2444329 0.02523251
v -2.2656156349999996 -0.2444329 0.07530379
v -2.1862688749999997 -0.2736541 0.07530379
v -2.1862688749999997 -0.2736541 0.07525787
v -2.186361615 -0.27347969 0.04189892
v -2.1867663349999997 -0.27307538 0.02523251
v -2.1880480349999996 -0.27160877 0.01486935
v -2.1982257049999996 -0.27327357 0.01331486
v -2.2149045249999997 -0.27375716 0.0128295
v -2.231574925 -0.27305953 0.01343295
v -2.2419802549999996 -0.27145815 0.01494808
v -2.247823735 -0.26038328 0.01332142
v -2.2582712249999997 -0.25434243 0.01559733
v -2.260041975 -0.2444329 0.01413469
v -2.258836145 -0.2549053 0.02523251
v -2.259966105 -0.25579318 0.07530379
v -2.1982257049999996 -0.27875949 0.07530379
v -2.1982257049999996 -0.27875949 0.07525787
v -2.1982257049999996 -0.27831555 0.04189892
v -2.1982257049999996 -0.27766547 0.02523251
v -2.2149045249999997 -0.27851373 0.02523251
v -2.231574925 -0.27749108 0.02523251
v -2.2434474349999998 -0.27301989 0.02523251
v -2.251786895 -0.26323722 0.02523251
v -2.2437931749999995 -0.27353519 0.04189892
v -2.244391855 -0.27397121 0.07530379
v -2.2149045249999997 -0.27985350000000003 0.07530379
v -2.2149045249999997 -0.27906073 0.04189892
v -2.231574925 -0.2782997 0.04189892
v -2.2443496849999995 -0.27401084 0.07525787
v -2.231574925 -0.27931442 0.07530379
f 1 2 3
f 1 3 4
f 1 4 5
f 1 5 6
f 1 6 7
f 1 7 8
f 1 8 2
f 2 9 10
f 2 10 3
f 2 8 7
f 2 7 18
f 2 18 32
f 2 32 48
f 2 48 64
f 2 64 81
f 2 81 95
f 2 95 105
f 2 105 110
f 2 110 106
f 2 106 96
f 2 96 82
f 2 82 65
f 2 65 49
f 2 49 33
f 2 33 19
f 2 19 9
f 3 10 11
f 3 11 4
f 4 12 13
f 4 13 5
f 4 11 14
f 4 14 12
f 5 13 6
f 6 15 16
f 6 16 17
f 6 17 7
f 6 13 15
f 7 17 18
f 9 19 20
f 9 20 10
f 10 20 11
f 11 20 21
f 11 21 22
f 11 22 14
f 12 14 23
f 12 23 24
f 12 24 25
f 12 25 13
f 13 25 15
f 14 22 23
f 15 26 27
f 15 27 28
f 15 28 29
f 15 29 16
f 15 25 26
f 16 29 30
f 16 30 31
f 16 31 17
f 17 31 32
f 17 32 18
f 19 33 34
f 19 34 21
f 19 21 20
f 21 34 35
f 21 35 22
f 22 36 23
f 22 35 37
f 22 37 36
f 23 38 24
f 23 36 38
f 24 39 25
f 24 38 39
f 25 40 26
f 25 39 40
f 26 41 27
f 26 40 41
f 27 41 42
f 27 42 43
f 27 43 28
f 28 43 44
f 28 44 29
f 29 44 45
f 29 45 30
f 30 45 46
f 30 46 47
f 30 47 31
f 31 47 48
f 31 48 32
f 33 49 50
f 33 50 34
f 34 50 35
f 35 50 51
f 35 51 37
f 36 37 52
f 36 52 38
f 37 51 53
f 37 53 54
f 37 54 52
f 38 55 39
f 38 52 55
f 39 55 56
f 39 56 40
f 40 56 41
f 41 57 58
f 41 58 42
f 41 56 57
f 42 58 59
f 42 59 43
f 43 59 60
f 43 60 44
f 44 60 61
f 44 61 45
f 45 61 46
f 46 61 62
f 46 62 47
f 47 62 63
f 47 63 64
f 47 64 48
f 49 65 66
f 49 66 50
f 50 66 67
f 50 67 51
f 51 67 68
f 51 68 69
f 51 69 53
f 52 54 70
f 52 70 55
f 53 69 71
f 53 71 72
f 53 72 70
f 53 70 54
f 55 70 56
f 56 73 57
f 56 70 73
f 57 74 58
f 57 73 75
f 57 75 74
f 58 74 76
f 58 76 77
f 58 77 78
f 58 78 59
f 59 78 79
f 59 79 60
f 60 79 62
f 60 62 61
f 62 79 80
f 62 80 81
f 62 81 63
f 63 81 64
f 65 82 66
f 66 82 83
f 66 83 67
f 67 83 84
f 67 84 68
f 68 84 85
f 68 85 86
f 68 86 69
f 69 86 71
f 70 72 73
f 71 86 87
f 71 87 75
f 71 75 72
f 72 75 73
f 74 75 76
f 75 88 76
f 75 87 88
f 76 89 90
f 76 90 91
f 76 91 77
f 76 88 89
f 77 91 92
f 77 92 93
f 77 93 78
f 78 93 79
f 79 93 80
f 80 93 92
f 80 92 94
f 80 94 81
f 81 94 95
f 82 96 97
f 82 97 83
f 83 97 84
f 84 97 98
f 84 98 85
f 85 98 99
f 85 99 86
f 86 99 87
f 87 99 100
f 87 100 88
f 88 100 89
f 89 101 90
f 89 100 101
f 90 101 102
f 90 102 92
f 90 92 91
f 92 102 103
f 92 103 94
f 94 103 104
f 94 104 95
f 95 104 105
f 96 106 97
f 97 106 98
f 98 106 107
f 98 107 100
f 98 100 99
f 100 107 108
f 100 108 101
f 101 108 102
f 102 108 104
f 102 104 103
f 104 109 105
f 104 108 110
f 104 110 109
f 105 109 110
f 106 110 107
f 107 110 108

