# https://github.com/mikedh/trimesh
v 0.39233026 2.03912809 1.55191376
v 0.40967869 2.03912809 1.56089631
v 0.39233026 2.03912809 1.60200584
v 0.39232859 2.05836743 1.51211059
v 0.39232859 2.06066798 1.49930139
v 0.39232859 2.06343244 1.48710499
v 0.40967869 2.06343244 1.53587920
v 0.40967869 2.03912809 1.60137003
v 0.39538246 2.06343244 1.49097777
v 0.39233026 2.03913285 1.60217923
v 0.39232859 2.06343244 1.51211059
v 0.39233026 2.06343244 1.60519656
v 0.40967869 2.06343244 1.60476884
v 0.40163462 2.06343244 1.60503473
f 1 2 8
f 1 8 3
f 1 3 4
f 1 4 5
f 1 5 6
f 1 6 2
f 2 7 13
f 2 13 8
f 2 6 9
f 2 9 7
f 3 8 10
f 3 10 4
f 4 11 6
f 4 6 5
f 4 10 12
f 4 12 11
f 6 11 12
f 6 12 14
f 6 14 13
f 6 13 7
f 6 7 9
f 8 13 10
f 10 13 14
f 10 14 12

