# https://github.com/mikedh/trimesh
v 0.80899456 1.92233555 0.89683120
v 0.79233261 1.92233555 0.89682258
v 0.79114903 1.78784639 0.89669308
v 0.80944953 1.78784639 0.89669308
v 0.81362546 1.78784639 0.89668446
v 0.81362546 1.90571191 0.89679668
v 0.81362546 1.92233555 0.89680531
v 0.81362546 1.92698329 0.89680531
v 0.81362272 1.99364998 0.89679668
v 0.80899176 1.98902683 0.89680531
v 0.79233261 1.93900837 0.89681394
v 0.78719917 1.94156586 0.89678804
v 0.78719917 1.92233555 0.89679668
v 0.78719917 1.91722059 0.89679668
v 0.78719917 1.90057236 0.89678804
v 0.78719917 1.78784639 0.89668446
v 0.81362546 1.78784639 0.80932491
v 0.81362546 1.94269705 0.89679668
v 0.81362272 2.00567506 0.89678804
v 0.80899176 2.00567506 0.89678804
v 0.79233261 1.98902683 0.89675351
v 0.78511121 1.98902683 0.89671898
v 0.78511121 1.94269705 0.89677078
v 0.78719917 1.78784639 0.84867986
v 0.80899456 1.78784639 0.80871201
v 0.81362546 1.78905135 0.80930764
v 0.81362546 1.94269705 0.80947166
v 0.81362272 2.03906989 0.89649454
v 0.81362272 2.02697103 0.89664993
v 0.81362272 2.02234788 0.89670172
v 0.81362272 2.01029820 0.89677078
v 0.80899176 2.02234788 0.89670172
v 0.79233261 2.00567506 0.89671036
v 0.78511121 2.00567506 0.89667582
v 0.78511121 1.94269705 0.83293443
v 0.78724108 1.78784639 0.83186402
v 0.78719917 1.78787098 0.83187265
v 0.79841507 1.78784639 0.81030036
v 0.80899456 1.78905135 0.80870338
v 0.80899456 1.80572417 0.80864295
v 0.81362546 1.79935506 0.80927311
v 0.81362272 2.03906989 0.80972200
v 0.81362546 1.93900837 0.80945439
v 0.80899176 2.03906989 0.89647728
v 0.78511121 2.02234788 0.89656361
v 0.78511121 2.00567506 0.83295170
v 0.79837603 1.82237241 0.81027447
v 0.79837883 1.80572417 0.81026584
v 0.80899456 1.82237241 0.80865158
v 0.81362546 1.83904522 0.80927311
v 0.81362546 1.80572417 0.80925584
v 0.80895546 2.03906989 0.80918679
v 0.81362546 1.91581889 0.80938534
v 0.80899456 1.92233555 0.80878970
v 0.80899456 1.93900837 0.80884150
v 0.79233261 2.03906989 0.89636506
v 0.78511121 2.03902071 0.89630463
v 0.78511121 2.03902071 0.83301212
v 0.79839558 1.90571191 0.81031763
v 0.80899456 1.90571191 0.80875518
v 0.79846258 1.92233555 0.81032626
v 0.81362546 1.89921984 0.80935081
v 0.79900969 2.03902071 0.81055071
v 0.79897893 2.03906989 0.81057660
v 0.81362546 1.90571191 0.80935944
v 0.79855186 1.93900837 0.81035216
v 0.78511121 2.03906989 0.88835422
v 0.78511121 2.03906989 0.87047659
v 0.78750906 2.03906989 0.83214025
f 1 2 3
f 1 3 4
f 1 4 5
f 1 5 6
f 1 6 7
f 1 7 8
f 1 8 9
f 1 9 10
f 1 10 2
f 2 10 11
f 2 11 12
f 2 12 13
f 2 13 14
f 2 14 15
f 2 15 16
f 2 16 3
f 3 16 24
f 3 24 36
f 3 36 38
f 3 38 25
f 3 25 17
f 3 17 5
f 3 5 4
f 5 17 26
f 5 26 41
f 5 41 51
f 5 51 50
f 5 50 62
f 5 62 65
f 5 65 53
f 5 53 43
f 5 43 27
f 5 27 18
f 5 18 8
f 5 8 7
f 5 7 6
f 8 18 9
f 9 18 19
f 9 19 10
f 10 19 20
f 10 20 11
f 11 20 21
f 11 21 12
f 12 21 22
f 12 22 23
f 12 23 13
f 13 23 14
f 14 23 15
f 15 23 16
f 16 23 35
f 16 35 24
f 17 25 26
f 18 27 42
f 18 42 28
f 18 28 29
f 18 29 30
f 18 30 31
f 18 31 19
f 19 31 20
f 20 31 32
f 20 32 33
f 20 33 21
f 21 33 34
f 21 34 22
f 22 34 45
f 22 45 57
f 22 57 67
f 22 67 68
f 22 68 58
f 22 58 46
f 22 46 35
f 22 35 23
f 24 35 37
f 24 37 36
f 25 38 39
f 25 39 26
f 26 39 40
f 26 40 41
f 27 43 42
f 28 42 52
f 28 52 64
f 28 64 69
f 28 69 68
f 28 68 67
f 28 67 56
f 28 56 44
f 28 44 32
f 28 32 29
f 29 32 30
f 30 32 31
f 32 45 34
f 32 34 33
f 32 44 45
f 35 46 47
f 35 47 48
f 35 48 38
f 35 38 37
f 36 37 38
f 38 48 40
f 38 40 39
f 40 48 47
f 40 47 49
f 40 49 50
f 40 50 51
f 40 51 41
f 42 43 53
f 42 53 54
f 42 54 55
f 42 55 52
f 44 56 45
f 45 56 57
f 46 58 59
f 46 59 47
f 47 59 49
f 49 60 50
f 49 59 61
f 49 61 60
f 50 60 62
f 52 63 64
f 52 55 63
f 53 65 54
f 54 65 60
f 54 60 61
f 54 61 66
f 54 66 63
f 54 63 55
f 56 67 57
f 58 68 69
f 58 69 64
f 58 64 61
f 58 61 59
f 60 65 62
f 61 64 63
f 61 63 66

