# https://github.com/mikedh/trimesh
v 0.31036774 1.48902813 0.38253399
v 0.31381005 1.47344172 0.38253399
v 0.31385583 1.47353214 0.44770152
v 0.31163959 1.48362171 0.44770152
v 0.31045917 1.48902813 0.44770152
v 0.31053523 1.50569945 0.38253399
v 0.32291855 1.46510606 0.38253399
v 0.31969707 1.46810763 0.44770152
v 0.31065718 1.50569945 0.44770152
v 0.31277435 1.52235267 0.38253399
v 0.33125784 1.46377708 0.38253399
v 0.33127310 1.46375899 0.44770152
v 0.32585064 1.46468117 0.44770152
v 0.32294144 1.46519648 0.44770152
v 0.31212704 1.51653035 0.44770152
v 0.31291907 1.52235267 0.44770152
v 0.31505151 1.52900672 0.44770152
v 0.31620141 1.53233373 0.44770152
v 0.31612523 1.53199019 0.38253399
v 0.34172194 1.46377708 0.38253399
v 0.34175240 1.46377708 0.38687211
v 0.33939913 1.46378611 0.44770152
v 0.32779264 1.55208797 0.44770152
v 0.33014597 1.55609306 0.44770152
v 0.33259824 1.55611113 0.38253399
v 0.35004603 1.46404828 0.38253399
v 0.35069334 1.46402116 0.44372067
v 0.34377820 1.46380420 0.44770152
v 0.33055718 1.55611113 0.44770152
v 0.37257355 1.55611113 0.38253399
v 0.35664128 1.46531403 0.38253399
v 0.35069334 1.46402116 0.44770152
v 0.35016787 1.46400310 0.44770152
v 0.35898692 1.46576604 0.38253399
v 0.37577977 1.55611113 0.44770152
v 0.38480446 1.51511998 0.38253399
v 0.35898692 1.46576604 0.38687211
v 0.35118836 1.46412967 0.44770152
v 0.37565794 1.47188671 0.38253399
v 0.38701307 1.50569945 0.38687211
v 0.38700544 1.50569945 0.38253399
v 0.38694452 1.50569945 0.44770152
v 0.35898692 1.46582031 0.40353561
v 0.35734957 1.46554908 0.44770152
v 0.35898692 1.46588358 0.42019912
v 0.38583259 1.47850461 0.38253399
v 0.38587068 1.47857691 0.44770152
v 0.38231410 1.47631671 0.44770152
v 0.37565794 1.47213986 0.44770152
v 0.38817066 1.48902813 0.44770152
v 0.38803357 1.48902813 0.38253399
v 0.36894080 1.46971691 0.44770152
f 1 2 3
f 1 3 4
f 1 4 5
f 1 5 6
f 1 6 10
f 1 10 19
f 1 19 25
f 1 25 30
f 1 30 36
f 1 36 41
f 1 41 51
f 1 51 46
f 1 46 39
f 1 39 34
f 1 34 31
f 1 31 26
f 1 26 20
f 1 20 11
f 1 11 7
f 1 7 2
f 2 7 8
f 2 8 3
f 3 8 14
f 3 14 13
f 3 13 12
f 3 12 22
f 3 22 28
f 3 28 33
f 3 33 32
f 3 32 38
f 3 38 44
f 3 44 52
f 3 52 49
f 3 49 48
f 3 48 47
f 3 47 50
f 3 50 42
f 3 42 35
f 3 35 29
f 3 29 24
f 3 24 23
f 3 23 18
f 3 18 17
f 3 17 16
f 3 16 15
f 3 15 9
f 3 9 5
f 3 5 4
f 5 9 6
f 6 9 10
f 7 11 12
f 7 12 13
f 7 13 14
f 7 14 8
f 9 15 10
f 10 15 16
f 10 16 17
f 10 17 18
f 10 18 19
f 11 20 12
f 12 20 21
f 12 21 22
f 18 23 19
f 19 23 24
f 19 24 25
f 20 26 27
f 20 27 28
f 20 28 21
f 21 28 22
f 24 29 25
f 25 29 35
f 25 35 30
f 26 31 27
f 27 32 33
f 27 33 28
f 27 31 34
f 27 34 37
f 27 37 32
f 30 35 36
f 32 37 38
f 34 39 37
f 35 40 41
f 35 41 36
f 35 42 40
f 37 39 43
f 37 43 44
f 37 44 38
f 39 45 43
f 39 46 47
f 39 47 48
f 39 48 49
f 39 49 45
f 40 50 41
f 40 42 50
f 41 50 51
f 43 45 44
f 44 45 52
f 45 49 52
f 46 51 50
f 46 50 47

