# https://github.com/mikedh/trimesh
v -2.04823783 2.06881561 0.73535819
v -2.04823783 2.11554707 0.73535819
v -2.04805561 2.06880938 0.73535819
v -2.04823783 2.06636200 0.81445633
v -2.04823783 2.12624816 0.80353049
v -2.03136421 2.12632931 0.80353049
v -1.89309440 2.11620261 0.73535819
v -1.89309440 2.06558156 0.73535819
v -1.89309440 2.06298432 0.81445633
v -2.04823783 2.12669144 0.81445633
v -2.04823783 2.12626064 0.80373182
v -2.04228423 2.12672264 0.81445633
v -2.01470315 2.12637303 0.80353049
v -1.93138288 2.12637926 0.80353049
v -1.89309440 2.12611080 0.80353049
v -1.89309440 2.12656031 0.81445633
v -2.02562322 2.12675387 0.81445633
v -1.94230290 2.12674762 0.81445633
v -1.93138288 2.12671641 0.81445633
f 1 2 7
f 1 7 8
f 1 8 3
f 1 3 4
f 1 4 10
f 1 10 11
f 1 11 5
f 1 5 2
f 2 5 6
f 2 6 7
f 3 8 9
f 3 9 4
f 4 9 16
f 4 16 19
f 4 19 18
f 4 18 17
f 4 17 12
f 4 12 10
f 5 11 6
f 6 11 12
f 6 12 13
f 6 13 7
f 7 14 15
f 7 15 16
f 7 16 9
f 7 9 8
f 7 13 14
f 10 12 11
f 12 17 13
f 13 17 14
f 14 18 19
f 14 19 16
f 14 16 15
f 14 17 18

