# https://github.com/mikedh/trimesh
v -2.0800507599999998 -0.6445192200000001 0.1182601
v -2.06333717 -0.6445192200000001 0.11604466
v -2.0800507599999998 -0.6445192200000001 0.16473071
v -2.0800507599999998 -0.46992977 0.12146445
v -2.05485092 -0.6445192200000001 0.1157053
v -2.06434404 -0.6445192200000001 0.16487618
v -2.0800507599999998 -0.46996395 0.16191904
v -2.0800507599999998 -0.46992977 0.16166694
v -2.0065800400000002 -0.46992977 0.12200259
v -2.01331867 -0.6445192200000001 0.11536111
v -2.0210138300000002 -0.6445192200000001 0.11537083
v -2.03784247 -0.6445192200000001 0.11547747
v -2.06270432 -0.6445192200000001 0.16486646
v -2.0065800400000002 -0.46992977 0.16147304
v -2.08001479 -0.46992977 0.16191415
v -2.0065800400000002 -0.6445192200000001 0.11545809
v -2.0065800400000002 -0.6445192200000001 0.16429444
f 1 2 5
f 1 5 12
f 1 12 11
f 1 11 10
f 1 10 16
f 1 16 17
f 1 17 13
f 1 13 6
f 1 6 3
f 1 3 7
f 1 7 8
f 1 8 4
f 1 4 2
f 2 4 5
f 3 6 7
f 4 8 15
f 4 15 14
f 4 14 9
f 4 9 10
f 4 10 11
f 4 11 12
f 4 12 5
f 6 13 7
f 7 14 15
f 7 15 8
f 7 13 14
f 9 16 10
f 9 14 17
f 9 17 16
f 13 17 14

