# https://github.com/mikedh/trimesh
v -1.63222832 2.04851864 0.75743355
v -1.63222832 2.06477854 0.74808025
v -1.60286850 2.06562907 0.74808025
v -1.60286850 2.04851864 0.75831715
v -1.63222832 2.04851864 0.83987827
v -1.63222832 2.13702059 0.74808025
v -1.60286850 2.13646862 0.74808025
v -1.60286850 2.04851864 0.83853131
v -1.63222832 2.07184529 0.85815381
v -1.63222832 2.13987988 0.75820940
v -1.60286850 2.13940030 0.75820940
v -1.60286850 2.07496696 0.85815381
v -1.63222832 2.12992669 0.85815381
v -1.63222832 2.14083899 0.77487938
v -1.60286850 2.13971698 0.76416835
v -1.60286850 2.12422620 0.85815381
v -1.63222832 2.14044086 0.81018050
v -1.60286850 2.14032323 0.80820855
v -1.63222832 2.14095662 0.79154934
v -1.60286850 2.14044086 0.79154934
v -1.60286850 2.14032323 0.78082756
v -1.60286850 2.14024181 0.77487938
v -1.63222832 2.14065803 0.80820855
v -1.60286850 2.14040468 0.79749752
v -1.63222832 2.14094756 0.79353208
f 1 2 3
f 1 3 4
f 1 4 8
f 1 8 5
f 1 5 9
f 1 9 13
f 1 13 17
f 1 17 23
f 1 23 25
f 1 25 19
f 1 19 14
f 1 14 10
f 1 10 6
f 1 6 2
f 2 6 7
f 2 7 3
f 3 7 11
f 3 11 15
f 3 15 22
f 3 22 21
f 3 21 20
f 3 20 24
f 3 24 18
f 3 18 16
f 3 16 12
f 3 12 8
f 3 8 4
f 5 8 9
f 6 10 11
f 6 11 7
f 8 12 9
f 9 12 16
f 9 16 13
f 10 14 11
f 11 14 15
f 13 16 18
f 13 18 17
f 14 19 20
f 14 20 21
f 14 21 22
f 14 22 15
f 17 18 23
f 18 24 25
f 18 25 23
f 19 25 20
f 20 25 24

