# https://github.com/mikedh/trimesh
v 1.30791251 1.61607010 1.89507695
v 1.31097478 1.61607010 1.89473005
v 1.30791251 1.61607010 1.93258973
v 1.30791251 1.62801464 1.89498742
v 1.31959550 1.61607010 1.89473005
v 1.30791251 1.64347230 1.89487179
v 1.30791251 1.65570620 1.89480092
v 1.30963361 1.65570620 1.89465548
v 1.34671904 1.61607010 1.93258973
v 1.30791251 2.03830417 1.93258973
v 1.32274136 1.61607010 1.89674053
v 1.32003622 1.65570620 1.89465548
v 1.32836439 1.65570620 1.89979917
v 1.30791251 1.67236245 1.89479347
v 1.30969820 1.67236245 1.89463307
v 1.33497906 1.61607010 1.90839685
v 1.33499046 1.63904993 1.90824021
v 1.33499426 1.65570620 1.90813202
v 1.34617194 2.03822150 1.93258973
v 1.34522970 2.03830417 1.93258973
v 1.30791251 2.03830417 1.89572224
v 1.32792367 1.61607010 1.90006399
v 1.32005522 1.67236245 1.89463307
v 1.33059461 1.61607010 1.90320840
v 1.31950052 2.03830417 1.89448764
v 1.32782869 2.03830417 1.90162314
v 1.33533620 2.03830417 1.90995600
v 1.30791251 1.75572641 1.89495756
v 1.31255531 2.03830417 1.89448764
v 1.34610355 2.03830417 1.93256732
f 1 2 5
f 1 5 11
f 1 11 22
f 1 22 24
f 1 24 16
f 1 16 9
f 1 9 3
f 1 3 10
f 1 10 21
f 1 21 28
f 1 28 14
f 1 14 7
f 1 7 6
f 1 6 4
f 1 4 2
f 2 4 6
f 2 6 7
f 2 7 8
f 2 8 12
f 2 12 5
f 3 9 19
f 3 19 20
f 3 20 10
f 5 12 13
f 5 13 11
f 7 14 15
f 7 15 8
f 8 15 23
f 8 23 12
f 9 16 17
f 9 17 18
f 9 18 19
f 10 20 30
f 10 30 27
f 10 27 26
f 10 26 25
f 10 25 29
f 10 29 21
f 11 13 22
f 12 23 13
f 13 18 17
f 13 17 16
f 13 16 24
f 13 24 22
f 13 23 25
f 13 25 26
f 13 26 27
f 13 27 18
f 14 28 29
f 14 29 15
f 15 29 25
f 15 25 23
f 18 27 19
f 19 27 30
f 19 30 20
f 21 29 28

