# https://github.com/mikedh/trimesh
v -0.47887714000000003 -0.3279225 1.22744019
v -0.47910955999999993 -0.37787177 1.22752272
v -0.47887714000000003 -0.36103113 1.2274936
v -0.47887714000000003 -0.3279225 1.17927396
v -0.5958554300000001 -0.3279225 1.22751301
v -0.47887714000000003 -0.39455623 1.22754215
v -0.47887714000000003 -0.37771560000000004 1.22751787
v -1.19608585 -0.3279225 1.22777032
v -0.47887714000000003 -0.39455623 1.17914288
v -0.47895460999999995 -0.5938327400000001 1.1781816
v -0.94586075 -0.3279225 1.17874962
v -0.5784249000000001 -0.5938327400000001 1.22758583
v -0.47903209 -0.5938327400000001 1.22754215
v -0.47895460999999995 -0.5779551700000001 1.22753728
v -0.47887714000000003 -0.41121467 1.22753728
v -1.2128191799999999 -0.3279225 1.22777032
v -1.24613086 -0.5938327400000001 1.22770722
v -0.5950807499999999 -0.5938327400000001 1.22759069
v -0.47887714000000003 -0.39473844 1.17914288
v -0.47887714000000003 -0.46459974000000004 1.179206
v -0.47895460999999995 -0.5938327400000001 1.22555646
v -1.27030122 -0.5938327400000001 1.17912831
v -1.2128191799999999 -0.3279225 1.17879817
v -1.19608585 -0.3279225 1.17879332
v -0.47887714000000003 -0.46459974000000004 1.22746931
v -0.47887714000000003 -0.4278731 1.22751787
v -1.24613086 -0.3279225 1.2277509
v -1.27030122 -0.5938327400000001 1.22770236
v -1.27030122 -0.3279225 1.17890012
v -1.24613086 -0.3279225 1.17885644
v -1.27030122 -0.3279225 1.22773149
f 1 2 3
f 1 3 7
f 1 7 6
f 1 6 15
f 1 15 26
f 1 26 25
f 1 25 20
f 1 20 19
f 1 19 9
f 1 9 4
f 1 4 11
f 1 11 24
f 1 24 23
f 1 23 30
f 1 30 29
f 1 29 31
f 1 31 27
f 1 27 16
f 1 16 8
f 1 8 5
f 1 5 2
f 2 6 7
f 2 7 3
f 2 5 8
f 2 8 6
f 4 9 10
f 4 10 11
f 6 8 12
f 6 12 13
f 6 13 14
f 6 14 15
f 8 16 17
f 8 17 18
f 8 18 12
f 9 19 10
f 10 19 20
f 10 20 25
f 10 25 21
f 10 21 13
f 10 13 12
f 10 12 18
f 10 18 17
f 10 17 28
f 10 28 22
f 10 22 23
f 10 23 24
f 10 24 11
f 13 21 14
f 14 21 25
f 14 25 26
f 14 26 15
f 16 27 28
f 16 28 17
f 22 28 31
f 22 31 29
f 22 29 30
f 22 30 23
f 27 31 28

