# https://github.com/mikedh/trimesh
v -3.896741305 -0.65547995 0.95242606
v -3.896741305 -0.63726847 0.952175
v -3.9489699949999997 -0.65547995 0.96333642
v -3.896741305 -0.65547995 0.87164964
v -3.9252135949999998 -0.63726847 0.95332566
v -3.9493231250000003 -0.65547995 0.9633678
v -3.896741305 -0.63726847 0.87655564
v -3.949293665 -0.65547995 0.85650275
v -3.896741305 -0.6472166 0.87275846
v -3.9437169049999996 -0.63726847 0.95349303
v -3.9497498049999997 -0.63726847 0.95328382
v -3.965192555 -0.65547995 0.95888022
v -3.896741305 -0.63864661 0.87592801
v -3.906688225 -0.63726847 0.87379406
v -3.964802615 -0.65547995 0.860279
v -3.949293665 -0.63726847 0.86986089
v -3.932578165 -0.63726847 0.86996549
v -3.9233669849999995 -0.63726847 0.87117892
v -3.896741305 -0.64468322 0.87318734
v -3.9573939749999996 -0.63726847 0.9509302
v -3.9655015549999995 -0.65547995 0.9587024
v -3.965332355 -0.65547995 0.86050914
v -3.962271735 -0.63726847 0.87639873
v -3.9604765950000003 -0.63726847 0.94660999
v -3.9624042049999995 -0.63726847 0.9433986
v -3.9705191749999997 -0.65547995 0.94246761
v -3.970063045 -0.65547995 0.87575017
v -3.9640963449999997 -0.63726847 0.88284244
v -3.9664359549999997 -0.63726847 0.92577256
v -3.9714314550000003 -0.65547995 0.92577256
v -3.971696315 -0.65547995 0.89243477
v -3.966693425 -0.63726847 0.89243477
v -3.966627225 -0.63726847 0.91651497
v -3.971894925 -0.65547995 0.90910889
v -3.9717036549999998 -0.65547995 0.89272766
v -3.966686095 -0.63726847 0.90910889
f 1 2 3
f 1 3 6
f 1 6 12
f 1 12 21
f 1 21 26
f 1 26 30
f 1 30 34
f 1 34 35
f 1 35 31
f 1 31 27
f 1 27 22
f 1 22 15
f 1 15 8
f 1 8 4
f 1 4 9
f 1 9 19
f 1 19 13
f 1 13 7
f 1 7 2
f 2 5 6
f 2 6 3
f 2 7 14
f 2 14 18
f 2 18 17
f 2 17 16
f 2 16 23
f 2 23 28
f 2 28 32
f 2 32 36
f 2 36 33
f 2 33 29
f 2 29 25
f 2 25 24
f 2 24 20
f 2 20 11
f 2 11 10
f 2 10 5
f 4 8 9
f 5 10 6
f 6 10 11
f 6 11 12
f 7 13 14
f 8 15 16
f 8 16 17
f 8 17 18
f 8 18 14
f 8 14 19
f 8 19 9
f 11 20 12
f 12 20 21
f 13 19 14
f 15 22 16
f 16 22 23
f 20 24 21
f 21 24 25
f 21 25 26
f 22 27 23
f 23 27 28
f 25 29 26
f 26 29 30
f 27 31 32
f 27 32 28
f 29 33 34
f 29 34 30
f 31 35 32
f 32 35 34
f 32 34 36
f 33 36 34

