# https://github.com/mikedh/trimesh
v -0.4786621900000001 -0.6042655299999999 0.72795947
v -0.47873966999999995 -0.6780179 0.73040953
v -0.4786621900000001 -0.61132968 0.72805749
v -0.4786621900000001 -0.6042655299999999 0.68248627
v -0.4791270999999999 -0.6042655299999999 0.72795947
v -1.0459673299999999 -0.69470617 0.73212458
v -0.7459256000000001 -0.69469536 0.73185506
v -0.7292652100000001 -0.69469536 0.73183058
v -0.6959445 -0.69469536 0.73173256
v -0.5124478699999999 -0.69469536 0.73082604
v -0.47873966999999995 -0.69469536 0.7305157
v -0.67928411 -0.69469536 0.73165091
v -0.4786621900000001 -0.62429143 0.71865739
v -0.47873966999999995 -0.70856445 0.72373719
v -0.4786621900000001 -0.62429143 0.67455624
v -0.47873966999999995 -0.64470619 0.65346119
v -0.64596334 -0.6326733600000001 0.66120338
v -0.6458858599999999 -0.6042655299999999 0.6820861
v -0.48865837999999995 -0.6042655299999999 0.72792681
v -1.27022375 -0.6780179 0.7305157
v -1.2293864399999999 -0.69470617 0.73176524
v -1.21272608 -0.69470617 0.73180607
v -1.06262772 -0.69470617 0.73212458
v -1.06262772 -0.70855364 0.7248724
v -0.97924835 -0.70859685 0.72482338
v -0.8126445899999999 -0.70866165 0.72468456
v -0.7459256000000001 -0.70856445 0.7246927
v -0.6959445 -0.70857524 0.72457837
v -0.67928411 -0.70856445 0.72452121
v -0.5124478699999999 -0.70837002 0.72399037
v -0.47873966999999995 -0.7138355599999999 0.70945333
v -0.47873966999999995 -0.71397597 0.70897149
v -0.47873966999999995 -0.7139435700000001 0.67564242
v -0.47873966999999995 -0.71016306 0.65896566
v -0.47873966999999995 -0.7047299300000001 0.64950026
v -0.47873966999999995 -0.69469536 0.64869173
v -0.47873966999999995 -0.67839596 0.64934507
v -0.47873966999999995 -0.6635547500000001 0.65018625
v -0.47873966999999995 -0.65503239 0.65071712
v -0.47873966999999995 -0.65485956 0.65073346
v -0.64596334 -0.6446954 0.65304468
v -0.67928411 -0.6446954 0.65309368
v -0.67928411 -0.6326733600000001 0.66126057
v -1.2461243 -0.6042655299999999 0.68165326
v -0.7292652100000001 -0.6042655299999999 0.68197994
v -0.67928411 -0.6042655299999999 0.68203711
v -0.5791668400000001 -0.6042655299999999 0.72760013
v -1.09602595 -0.6042655299999999 0.72530522
v -1.27030122 -0.6042655299999999 0.72417821
v -1.27022375 -0.68547092 0.73101388
v -0.5959047 -0.6042655299999999 0.72753479
v -1.2293864399999999 -0.70795957 0.72467639
v -1.09594846 -0.70851043 0.72483972
v -1.07928809 -0.70856445 0.72486423
v -1.27022375 -0.69470617 0.7315774
v -0.8264378399999999 -0.7133927 0.71163388
v -0.8293049799999999 -0.7086724600000001 0.72466005
v -0.7959842400000001 -0.70866165 0.72466822
v -0.7959842400000001 -0.7143324200000001 0.70897149
v -0.6959445 -0.7144728499999999 0.67564242
v -0.84604284 -0.71460246 0.67563428
v -0.6959445 -0.71033588 0.65896566
v -0.7126048899999999 -0.71034668 0.65896566
v -0.96258796 -0.71027107 0.65896566
v -0.97924835 -0.7045570999999999 0.64975344
v -1.26278469 -0.70413584 0.64990859
v -1.2460468199999999 -0.69470617 0.64919809
v -1.2460468199999999 -0.6780179 0.64958191
v -1.2460468199999999 -0.66498055 0.65028427
v -1.19606569 -0.65664181 0.65082328
v -1.26278469 -0.6566958199999999 0.65084779
v -0.6959445 -0.6446954 0.6531345
v -1.2531759 -0.6042655299999999 0.6816696
v -1.27030122 -0.6042655299999999 0.68173493
v -1.27030122 -0.62429143 0.72497039
v -1.27022375 -0.70792717 0.72443956
v -1.07928809 -0.71406238 0.70896332
v -0.91252936 -0.7143216299999999 0.70896332
v -0.8293049799999999 -0.71435403 0.70896332
v -0.8264378399999999 -0.71435403 0.70896332
v -0.8126445899999999 -0.71434323 0.70897149
v -0.86262573 -0.71460246 0.67563428
v -0.97924835 -0.7102386700000001 0.65896566
v -1.27022375 -0.70413584 0.64991676
v -1.12926922 -0.7043626700000001 0.64984326
v -1.26278469 -0.69470617 0.64923074
v -1.27022375 -0.69470617 0.64926342
v -1.26278469 -0.6780179 0.64966359
v -1.26278469 -0.66503455 0.65034144
v -1.27022375 -0.6618373200000001 0.65059462
v -1.27022375 -0.6572359 0.65088045
v -1.27022375 -0.6513382999999999 0.65377153
v -1.27022375 -0.6446954 0.65722614
v -1.26278469 -0.6446954 0.65709546
v -0.7459256000000001 -0.6446954 0.65333868
v -0.7292652100000001 -0.6446954 0.65324883
v -1.26278469 -0.6042655299999999 0.68170225
v -1.27030122 -0.62429143 0.6753076
v -1.26991376 -0.6042655299999999 0.68172676
v -1.27022375 -0.71278781 0.70896332
v -1.09594846 -0.7139867799999999 0.70896332
v -1.09594846 -0.7140839999999999 0.67563428
v -0.8792086100000001 -0.71457006 0.67563428
v -1.11268632 -0.70989302 0.65896566
v -1.27022375 -0.70684702 0.65492306
v -1.27022375 -0.6780179 0.64972892
v -1.27022375 -0.6727467899999999 0.64999844
v -1.27022375 -0.6655530199999999 0.65038226
v -1.27022375 -0.7090289000000001 0.65896566
v -1.27022375 -0.71277702 0.67563428
v -1.11268632 -0.71397597 0.67563428
f 1 2 3
f 1 3 13
f 1 13 15
f 1 15 4
f 1 4 18
f 1 18 46
f 1 46 45
f 1 45 44
f 1 44 73
f 1 73 97
f 1 97 99
f 1 99 74
f 1 74 49
f 1 49 48
f 1 48 51
f 1 51 47
f 1 47 19
f 1 19 5
f 1 5 23
f 1 23 6
f 1 6 7
f 1 7 8
f 1 8 9
f 1 9 2
f 2 10 11
f 2 11 3
f 2 9 12
f 2 12 10
f 3 11 14
f 3 14 13
f 4 15 16
f 4 16 17
f 4 17 18
f 5 19 20
f 5 20 21
f 5 21 22
f 5 22 23
f 6 23 24
f 6 24 25
f 6 25 26
f 6 26 27
f 6 27 7
f 7 27 8
f 8 27 28
f 8 28 9
f 9 28 29
f 9 29 30
f 9 30 14
f 9 14 12
f 10 14 11
f 10 12 14
f 13 14 31
f 13 31 32
f 13 32 15
f 14 30 29
f 14 29 28
f 14 28 31
f 15 32 33
f 15 33 34
f 15 34 35
f 15 35 36
f 15 36 37
f 15 37 38
f 15 38 39
f 15 39 40
f 15 40 16
f 16 40 41
f 16 41 17
f 17 41 42
f 17 42 43
f 17 43 44
f 17 44 45
f 17 45 46
f 17 46 18
f 19 47 20
f 20 48 49
f 20 49 50
f 20 50 21
f 20 47 51
f 20 51 48
f 21 52 53
f 21 53 54
f 21 54 22
f 21 50 55
f 21 55 52
f 22 54 23
f 23 54 24
f 24 54 25
f 25 56 57
f 25 57 26
f 25 54 56
f 26 57 56
f 26 56 58
f 26 58 27
f 27 58 28
f 28 58 31
f 31 58 59
f 31 59 32
f 32 60 33
f 32 59 60
f 33 60 34
f 34 60 61
f 34 61 62
f 34 62 35
f 35 62 63
f 35 63 64
f 35 64 65
f 35 65 36
f 36 65 66
f 36 66 67
f 36 67 68
f 36 68 37
f 37 68 69
f 37 69 38
f 38 69 39
f 39 69 70
f 39 70 40
f 40 70 71
f 40 71 41
f 41 71 42
f 42 72 73
f 42 73 44
f 42 44 43
f 42 71 72
f 49 74 98
f 49 98 75
f 49 75 55
f 49 55 50
f 52 55 76
f 52 76 53
f 53 77 54
f 53 76 77
f 54 77 78
f 54 78 79
f 54 79 56
f 55 75 76
f 56 79 80
f 56 80 81
f 56 81 59
f 56 59 58
f 59 81 80
f 59 80 61
f 59 61 60
f 61 80 79
f 61 79 82
f 61 82 63
f 61 63 62
f 63 82 64
f 64 82 83
f 64 83 84
f 64 84 85
f 64 85 65
f 65 85 66
f 66 84 67
f 66 85 84
f 67 84 86
f 67 86 68
f 68 86 87
f 68 87 88
f 68 88 89
f 68 89 69
f 69 89 71
f 69 71 70
f 71 89 90
f 71 90 91
f 71 91 92
f 71 92 93
f 71 93 94
f 71 94 95
f 71 95 96
f 71 96 72
f 72 96 97
f 72 97 73
f 74 99 93
f 74 93 92
f 74 92 91
f 74 91 98
f 75 100 76
f 75 98 100
f 76 100 101
f 76 101 77
f 77 101 102
f 77 102 103
f 77 103 82
f 77 82 78
f 78 82 79
f 82 103 83
f 83 103 102
f 83 102 104
f 83 104 84
f 84 105 98
f 84 98 87
f 84 87 86
f 84 104 105
f 87 106 88
f 87 98 106
f 88 106 107
f 88 107 89
f 89 107 108
f 89 108 90
f 90 108 98
f 90 98 91
f 93 99 94
f 94 99 95
f 95 99 96
f 96 99 97
f 98 108 107
f 98 107 106
f 98 105 109
f 98 109 110
f 98 110 100
f 100 111 101
f 100 110 111
f 101 111 102
f 102 111 109
f 102 109 104
f 104 109 105
f 109 111 110

