# https://github.com/mikedh/trimesh
v -1.62868646 2.10583593 0.57485483
v -1.62877879 2.10583593 0.59151423
v -1.62881342 2.08919000 0.57485483
v -1.62879035 2.07168990 0.44148725
v -1.62879035 2.07119330 0.20179471
v -1.62879035 2.12557072 0.20179471
v -1.62879035 2.12666322 0.43807229
v -1.62879035 2.12665329 0.44079500
v -1.62942515 2.10583593 0.67319611
v -1.62895194 2.08919000 0.59151423
v -1.63016384 2.08919000 0.67319611
v -1.63466522 2.07412322 0.67319611
v -1.63989372 2.06579033 0.67319611
v -1.65661803 2.04859812 0.67319611
v -1.65822236 2.04851867 0.20179471
v -1.65673348 2.04851867 0.65949020
v -1.66243519 2.14454071 0.20179471
v -1.66207738 2.14472942 0.22491482
v -1.66192736 2.14488832 0.24162042
v -1.64693434 2.13775720 0.47480605
v -1.64693434 2.13784657 0.49146545
v -1.64692278 2.13826372 0.65819802
v -1.64692278 2.13823392 0.67319611
v -1.63786232 2.13153981 0.67319611
v -1.63319935 2.12250174 0.67319611
v -1.62979452 2.10747471 0.67319611
v -1.67187653 2.04851867 0.67319611
v -1.72575445 2.04851867 0.20179471
v -1.67078003 2.14791758 0.20179471
v -1.67065307 2.14796723 0.20830156
v -1.67041072 2.14801688 0.22491482
v -1.66063464 2.14560344 0.50817104
v -1.66062308 2.14567297 0.55819540
v -1.66078467 2.14578219 0.60817363
v -1.65979206 2.14511676 0.67319611
v -1.72506196 2.04851867 0.67319611
v -1.74244419 2.09329188 0.20179471
v -1.72581215 2.04851867 0.20830156
v -1.67668952 2.14836450 0.20179471
v -1.68026756 2.14875187 0.22491482
v -1.68026756 2.14868234 0.20830156
v -1.68026756 2.14935770 0.49146545
v -1.66906030 2.14837445 0.49146545
v -1.67026063 2.14802683 0.24162042
v -1.66650950 2.14754016 0.49649559
v -1.66903718 2.14837445 0.49649559
v -1.66118867 2.14586168 0.67319611
v -1.66896798 2.14836450 0.50817104
v -1.66895641 2.14833472 0.55819540
v -1.74201706 2.09359977 0.67319611
v -1.72536201 2.04851867 0.59151423
v -1.74497181 2.10100902 0.20179471
v -1.72591604 2.04851867 0.22491482
v -1.72596224 2.04851867 0.24162042
v -1.72598530 2.04851867 0.26760170
v -1.72599687 2.04851867 0.28426116
v -1.74246720 2.09331176 0.22491482
v -1.68026756 2.14862274 0.20179471
v -1.69689954 2.14915906 0.20830156
v -1.69689954 2.14912926 0.20179471
v -1.71356615 2.14954641 0.20179471
v -1.71356615 2.14955636 0.20830156
v -1.69689954 2.14954641 0.42487399
v -1.69691105 2.14964574 0.52487657
v -1.68025600 2.14936765 0.50817104
v -1.68025600 2.14935770 0.54153600
v -1.66952195 2.14806656 0.67319611
v -1.66900255 2.14831485 0.57485483
v -1.66911800 2.14823539 0.60817363
v -1.68025600 2.14934777 0.55819540
v -1.74559516 2.10583593 0.67319611
v -1.74572212 2.10583593 0.64149249
v -1.74220172 2.09335148 0.55819540
v -1.72541977 2.04851867 0.57485483
v -1.74654157 2.10584585 0.20179471
v -1.74246720 2.09330180 0.24162042
v -1.74654157 2.10584585 0.20830156
v -1.72599687 2.04851867 0.29159867
v -1.72655084 2.14863266 0.20179471
v -1.71356615 2.14978477 0.40821453
v -1.71356615 2.14997348 0.64149249
v -1.69691105 2.14965566 0.54153600
v -1.71356615 2.14997348 0.67319611
v -1.68025600 2.14920871 0.60817363
v -1.67921720 2.14884125 0.67319611
v -1.68025600 2.14930805 0.57485483
v -1.74568742 2.12087288 0.67319611
v -1.74576825 2.12250174 0.65819802
v -1.74582595 2.12250174 0.64149249
v -1.74575669 2.10583593 0.62483306
v -1.72598530 2.04851867 0.32491747
v -1.74656469 2.11609561 0.20179471
v -1.74659926 2.12250174 0.20830156
v -1.72975950 2.14760969 0.20179471
v -1.72671243 2.14886110 0.67319611
v -1.69691105 2.14947688 0.67319611
v -1.68025600 2.14892070 0.67319611
v -1.74568742 2.12250174 0.67319611
v -1.74246720 2.13588005 0.67319611
v -1.74210945 2.13734005 0.67319611
v -1.74653000 2.12250174 0.20179471
v -1.74247876 2.13759829 0.20830156
v -1.74244419 2.13761814 0.20179471
v -1.73488417 2.14595105 0.20179471
v -1.73503420 2.14566301 0.67319611
v -1.73493031 2.14594113 0.30825807
v -1.73493031 2.14594113 0.32491747
v -1.73959328 2.14082617 0.20179471
f 1 2 3
f 1 3 4
f 1 4 5
f 1 5 6
f 1 6 7
f 1 7 8
f 1 8 2
f 2 9 3
f 2 8 9
f 3 9 10
f 3 10 4
f 4 10 11
f 4 11 12
f 4 12 13
f 4 13 14
f 4 14 5
f 5 15 28
f 5 28 37
f 5 37 52
f 5 52 75
f 5 75 92
f 5 92 101
f 5 101 103
f 5 103 108
f 5 108 104
f 5 104 94
f 5 94 79
f 5 79 61
f 5 61 60
f 5 60 58
f 5 58 39
f 5 39 29
f 5 29 17
f 5 17 6
f 5 14 16
f 5 16 15
f 6 17 18
f 6 18 19
f 6 19 20
f 6 20 21
f 6 21 7
f 7 21 22
f 7 22 23
f 7 23 8
f 8 23 24
f 8 24 25
f 8 25 26
f 8 26 9
f 9 11 10
f 9 26 25
f 9 25 24
f 9 24 23
f 9 23 35
f 9 35 47
f 9 47 67
f 9 67 85
f 9 85 97
f 9 97 96
f 9 96 83
f 9 83 95
f 9 95 105
f 9 105 100
f 9 100 99
f 9 99 98
f 9 98 87
f 9 87 71
f 9 71 50
f 9 50 36
f 9 36 27
f 9 27 14
f 9 14 13
f 9 13 12
f 9 12 11
f 14 27 16
f 15 16 27
f 15 27 36
f 15 36 51
f 15 51 74
f 15 74 91
f 15 91 78
f 15 78 56
f 15 56 55
f 15 55 54
f 15 54 53
f 15 53 38
f 15 38 28
f 17 29 30
f 17 30 18
f 18 30 19
f 19 30 31
f 19 31 32
f 19 32 20
f 20 32 21
f 21 32 22
f 22 32 33
f 22 33 34
f 22 34 23
f 23 34 35
f 28 38 37
f 29 39 30
f 30 40 31
f 30 39 41
f 30 41 40
f 31 40 42
f 31 42 43
f 31 43 44
f 31 44 32
f 32 44 45
f 32 45 33
f 33 45 46
f 33 46 34
f 34 47 35
f 34 46 48
f 34 48 49
f 34 49 47
f 36 50 51
f 37 38 53
f 37 53 54
f 37 54 55
f 37 55 56
f 37 56 57
f 37 57 52
f 39 58 41
f 40 41 59
f 40 59 42
f 41 58 60
f 41 60 59
f 42 59 61
f 42 61 62
f 42 62 63
f 42 63 64
f 42 64 65
f 42 65 43
f 43 65 46
f 43 46 45
f 43 45 44
f 46 65 66
f 46 66 48
f 47 49 68
f 47 68 69
f 47 69 67
f 48 66 49
f 49 66 70
f 49 70 68
f 50 71 72
f 50 72 73
f 50 73 74
f 50 74 51
f 52 57 76
f 52 76 77
f 52 77 75
f 56 78 76
f 56 76 57
f 59 60 61
f 61 79 62
f 62 79 80
f 62 80 63
f 63 80 64
f 64 81 82
f 64 82 65
f 64 80 81
f 65 82 81
f 65 81 83
f 65 83 66
f 66 83 70
f 67 69 84
f 67 84 85
f 68 70 86
f 68 86 69
f 69 86 84
f 70 83 86
f 71 87 88
f 71 88 72
f 72 88 89
f 72 89 90
f 72 90 73
f 73 90 77
f 73 77 76
f 73 76 91
f 73 91 74
f 75 77 93
f 75 93 92
f 76 78 91
f 77 90 89
f 77 89 93
f 79 94 95
f 79 95 81
f 79 81 80
f 81 95 83
f 83 96 84
f 83 84 86
f 84 96 97
f 84 97 85
f 87 98 88
f 88 98 99
f 88 99 89
f 89 99 100
f 89 100 93
f 92 93 101
f 93 100 102
f 93 102 103
f 93 103 101
f 94 104 95
f 95 104 106
f 95 106 107
f 95 107 105
f 100 105 102
f 102 108 103
f 102 105 108
f 104 108 106
f 105 107 108
f 106 108 107

