# https://github.com/mikedh/trimesh
v -3.67161023 2.10950833 1.02048438
v -3.68166842 2.10945680 1.02048438
v -3.67161023 2.07774207 1.02048438
v -3.67161023 2.10952236 1.00353697
v -3.69805208 2.10933031 1.02048438
v -3.68138947 2.10948490 0.98686465
v -3.69805208 2.10937249 0.98686465
v -3.69805208 2.10935374 1.00353697
v -3.68116815 2.06369505 1.02048438
v -3.67161023 2.06386368 1.02039596
v -3.67161023 2.10951768 0.98686465
v -3.72074673 2.10915233 1.02048438
v -3.67161023 2.10950833 0.97708918
v -3.68138947 2.10946615 0.97021198
v -3.72074673 2.10916637 0.99289695
v -3.72074673 2.10916637 1.00956927
v -3.69805208 2.10930689 0.93687715
v -3.72074673 2.06216809 1.02048438
v -3.67161023 2.06316108 0.92011641
v -3.67161023 2.10949894 0.97021198
v -3.67161023 2.10948490 0.96043651
v -3.68138947 2.10943337 0.95353965
v -3.69805208 2.10927879 0.92011641
v -3.72074673 2.10906802 0.92011641
v -3.72074673 2.06207442 1.00353697
v -3.72074673 2.06167161 0.92011641
v -3.67161023 2.10939591 0.92011641
v -3.67161023 2.10945212 0.94376419
v -3.67161023 2.10943805 0.93687715
v -3.68138947 2.10936310 0.92011641
f 1 2 5
f 1 5 12
f 1 12 18
f 1 18 9
f 1 9 3
f 1 3 10
f 1 10 19
f 1 19 27
f 1 27 29
f 1 29 28
f 1 28 21
f 1 21 20
f 1 20 13
f 1 13 11
f 1 11 4
f 1 4 2
f 2 4 6
f 2 6 7
f 2 7 8
f 2 8 5
f 3 9 10
f 4 11 6
f 5 8 12
f 6 11 13
f 6 13 14
f 6 14 7
f 7 15 16
f 7 16 8
f 7 14 17
f 7 17 15
f 8 16 12
f 9 18 10
f 10 18 19
f 12 16 15
f 12 15 24
f 12 24 26
f 12 26 25
f 12 25 18
f 13 20 14
f 14 21 28
f 14 28 22
f 14 22 23
f 14 23 17
f 14 20 21
f 15 17 24
f 17 23 24
f 18 25 19
f 19 26 24
f 19 24 23
f 19 23 30
f 19 30 27
f 19 25 26
f 22 28 29
f 22 29 30
f 22 30 23
f 27 30 29

