# https://github.com/mikedh/trimesh
v -3.31008425 1.60570392 0.56922909
v -3.31008425 1.58903915 0.56921941
v -3.28710821 1.58903915 0.56917095
v -3.28710821 1.60570392 0.56917095
v -3.28587849 2.03898805 0.56899654
v -3.29804536 2.03903370 0.56895777
v -3.31007954 2.02698028 0.56890934
v -3.31008425 1.97219197 0.56887057
v -3.31008425 1.57260265 0.56915158
v -3.30990657 1.57260265 0.56915158
v -3.28710821 1.57260265 0.56912252
v -3.28587849 2.03451367 0.56898686
v -3.28587849 2.03903370 0.52686541
v -3.31007954 2.03903370 0.56888026
v -3.31008425 1.97219197 0.47063567
v -3.31008425 1.57260265 0.47378484
v -3.28710821 1.57260265 0.50113907
v -3.28587849 1.97219197 0.56879305
v -3.28587849 2.03903370 0.50250533
v -3.31007954 2.03903370 0.47052909
v -3.31008425 1.95561851 0.47054847
v -3.31008425 1.58301243 0.47262207
v -3.30213493 1.57260265 0.47517048
v -3.30193591 1.57260265 0.47521894
v -3.30129616 1.58903915 0.47449218
v -3.30074884 1.67240867 0.47364918
v -3.30058060 1.68907345 0.47360072
v -3.30052610 1.70573822 0.47356198
v -3.30045266 1.75573254 0.47353289
v -3.28587849 1.97223763 0.50351308
v -3.28587849 1.97219197 0.51600318
v -3.30037684 2.03898805 0.47358135
v -3.30039106 2.03903370 0.47357170
v -3.30043845 1.77239732 0.47353289
v -3.31008425 1.88343493 0.47023840
v -3.31008425 1.90009971 0.47027714
v -3.31008425 1.90566985 0.47029651
v -3.31008425 1.59995115 0.47168215
v -3.31008425 1.61666158 0.47142055
v -3.30123456 1.60570392 0.47424994
v -3.30092652 1.65574390 0.47371701
v -3.31008425 1.68354896 0.47058721
v -3.31008425 1.70025939 0.47051938
v -3.31008425 1.78362892 0.47032560
v -3.31008425 1.81686715 0.47025777
v -3.30049293 1.78901643 0.47351352
v -3.31008425 1.65008244 0.47094573
v -3.30110188 1.63907913 0.47385268
v -3.31008425 1.66683853 0.47074224
f 1 2 3
f 1 3 4
f 1 4 5
f 1 5 6
f 1 6 7
f 1 7 8
f 1 8 15
f 1 15 21
f 1 21 37
f 1 37 36
f 1 36 35
f 1 35 45
f 1 45 44
f 1 44 43
f 1 43 42
f 1 42 49
f 1 49 47
f 1 47 39
f 1 39 38
f 1 38 22
f 1 22 16
f 1 16 9
f 1 9 2
f 2 9 10
f 2 10 11
f 2 11 3
f 3 11 12
f 3 12 5
f 3 5 4
f 5 12 18
f 5 18 31
f 5 31 30
f 5 30 19
f 5 19 13
f 5 13 6
f 6 13 19
f 6 19 33
f 6 33 20
f 6 20 14
f 6 14 7
f 7 14 8
f 8 14 20
f 8 20 15
f 9 16 23
f 9 23 24
f 9 24 17
f 9 17 11
f 9 11 10
f 11 17 31
f 11 31 18
f 11 18 12
f 15 20 21
f 16 22 23
f 17 24 25
f 17 25 26
f 17 26 27
f 17 27 28
f 17 28 29
f 17 29 19
f 17 19 30
f 17 30 31
f 19 32 33
f 19 29 34
f 19 34 32
f 20 33 35
f 20 35 36
f 20 36 37
f 20 37 21
f 22 38 24
f 22 24 23
f 24 38 25
f 25 38 39
f 25 39 40
f 25 40 26
f 26 41 42
f 26 42 27
f 26 40 41
f 27 42 43
f 27 43 28
f 28 43 44
f 28 44 45
f 28 45 29
f 29 45 35
f 29 35 34
f 32 34 33
f 33 34 46
f 33 46 35
f 34 35 46
f 39 47 40
f 40 47 48
f 40 48 41
f 41 49 42
f 41 48 49
f 47 49 48

