# https://github.com/mikedh/trimesh
v 1.35893547 2.05460975 0.57593025
v 1.34504996 2.05461431 0.57590820
v 1.34233279 2.05461431 0.57590820
v 1.30790871 2.03912803 0.56908964
v 1.35893547 2.03912803 0.56905653
v 1.35893547 2.05461431 0.50142272
v 1.30790871 2.05461431 0.57574268
v 1.30790871 2.03912803 0.47197499
v 1.35893547 2.03912803 0.50970869
v 1.35893547 2.05461431 0.50110276
v 1.30790871 2.05461431 0.46339113
v 1.30891266 2.03912803 0.47150053
v 1.32324771 2.03912803 0.47381756
v 1.33021044 2.05461431 0.47005523
v 1.30871787 2.05461431 0.46325869
v 1.32312284 2.03912803 0.47379545
v 1.30900756 2.05461431 0.46321458
v 1.32627954 2.05461431 0.46675626
f 1 2 3
f 1 3 4
f 1 4 5
f 1 5 9
f 1 9 10
f 1 10 6
f 1 6 2
f 2 6 10
f 2 10 14
f 2 14 18
f 2 18 17
f 2 17 15
f 2 15 11
f 2 11 7
f 2 7 3
f 3 7 4
f 4 7 11
f 4 11 8
f 4 8 12
f 4 12 16
f 4 16 13
f 4 13 9
f 4 9 5
f 8 11 12
f 9 13 14
f 9 14 10
f 11 15 12
f 12 15 17
f 12 17 16
f 13 16 17
f 13 17 18
f 13 18 14

