# https://github.com/mikedh/trimesh
v -1.31290468 -0.22505263 1.70961472
v -1.34628471 -0.22529242 1.74293932
v -1.31290468 -0.22529242 1.74293932
v -1.27030122 -0.22514857 1.70961472
v -1.27030122 -0.2281219 1.70104898
v -1.27030122 -0.23056773 1.69415331
v -1.34628471 -0.23051978 1.69419637
v -1.36292592 -0.23056773 1.69409307
v -1.71302584 -0.23114321000000002 1.69340439
v -1.76885442 -0.22625157 1.70961472
v -1.34628471 -0.22754642 1.75961455
v -1.76885442 -0.22644341 1.74293932
v -1.27030122 -0.22754642 1.75961455
v -1.27030122 -0.22538835000000002 1.74293932
v -1.27030122 -0.24447531 1.68681868
v -1.67974341 -0.24447531 1.6852346
v -1.6964334399999998 -0.24447531 1.68518295
v -1.6964334399999998 -0.23119116 1.69326662
v -1.71302584 -0.24447531 1.68527766
v -1.76885442 -0.23114321000000002 1.69403283
v -1.76885442 -0.22965653 1.75960591
v -1.76314468 -0.23445226 1.76907558
v -1.36292592 -0.23301353 1.77010004
v -1.29626347 -0.23296558 1.77017751
v -1.27957345 -0.23296558 1.77019475
v -1.27030122 -0.22994427 1.76434077
v -1.27030122 -0.6946974699999999 1.68619024
v -1.4296371799999998 -0.6946974699999999 1.68505383
v -1.44637599 -0.6946974699999999 1.68495918
v -1.4296371799999998 -0.26116441 1.68598358
v -1.51308726 -0.26116441 1.68571674
v -1.71302584 -0.26116441 1.68512272
v -1.76885442 -0.26116441 1.68517436
v -1.56735422 -0.70246655 1.68457175
v -1.76885442 -0.25545751 1.68541543
v -1.76885442 -0.24447531 1.68597499
v -1.76885442 -0.23991937000000002 1.68872117
v -1.76885442 -0.23450021000000001 1.76906699
v -1.34628471 -0.24447531 1.77225225
v -1.34628471 -0.23301353 1.77013445
v -1.29626347 -0.24447531 1.7723469
v -1.27957345 -0.24447531 1.77236414
v -1.27030122 -0.23296558 1.77019475
v -1.27030122 -0.7090366699999999 1.6937487
v -1.56735422 -0.70304203 1.68457175
v -1.67974341 -0.6946974699999999 1.68442539
v -1.6964334399999998 -0.6946974699999999 1.6844168
v -1.71312344 -0.6946974699999999 1.68442539
v -1.72976465 -0.6946974699999999 1.68443404
v -1.76885442 -0.6946974699999999 1.68446845
v -1.76885442 -0.24447531 1.77017751
v -1.36292592 -0.24447531 1.77217472
v -1.76885442 -0.6946974699999999 1.77050464
v -1.3462359099999999 -0.6946974699999999 1.77192512
v -1.27030122 -0.24447531 1.77236414
v -1.27030122 -0.71493541 1.70960608
v -1.67974341 -0.7091805600000001 1.6929309
v -1.6964334399999998 -0.7033297700000001 1.68444263
v -1.67974341 -0.70328182 1.68445121
v -1.71312344 -0.70328182 1.68444263
v -1.76885442 -0.70030846 1.68447704
v -1.76885442 -0.70529603 1.76932524
v -1.3462359099999999 -0.70625515 1.76999674
v -1.27030122 -0.69982889 1.77107285
v -1.27030122 -0.6946974699999999 1.77192512
v -1.27030122 -0.7146956200000001 1.74293932
v -1.27957345 -0.71474357 1.74293932
v -1.3462359099999999 -0.71498336 1.70960608
v -1.71312344 -0.7091805600000001 1.6929309
v -1.76885442 -0.70913258 1.6929309
v -1.76314468 -0.70323387 1.68448569
v -1.74645468 -0.70323387 1.68446845
v -1.76885442 -0.70318589 1.68448569
v -1.76885442 -0.7110508799999999 1.75962314
v -1.3462359099999999 -0.71210593 1.75962314
v -1.27030122 -0.70625515 1.76999674
v -1.6964334399999998 -0.71124272 1.75962314
v -1.27030122 -0.7132569200000001 1.75216792
v -1.29621466 -0.71474357 1.74293932
v -1.6964334399999998 -0.71459972 1.74293932
v -1.76885442 -0.71474357 1.70960608
v -1.76885442 -0.71224982 1.75392412
v -1.27030122 -0.71205798 1.75962314
v -1.76885442 -0.71455177 1.74293932
f 1 2 3
f 1 3 14
f 1 14 4
f 1 4 5
f 1 5 6
f 1 6 7
f 1 7 8
f 1 8 9
f 1 9 10
f 1 10 2
f 2 11 13
f 2 13 3
f 2 10 12
f 2 12 11
f 3 13 14
f 4 14 13
f 4 13 26
f 4 26 43
f 4 43 55
f 4 55 65
f 4 65 64
f 4 64 76
f 4 76 83
f 4 83 78
f 4 78 66
f 4 66 56
f 4 56 44
f 4 44 27
f 4 27 15
f 4 15 6
f 4 6 5
f 6 15 16
f 6 16 17
f 6 17 18
f 6 18 8
f 6 8 7
f 8 18 9
f 9 18 19
f 9 19 20
f 9 20 10
f 10 20 37
f 10 37 36
f 10 36 35
f 10 35 33
f 10 33 50
f 10 50 61
f 10 61 73
f 10 73 70
f 10 70 81
f 10 81 84
f 10 84 82
f 10 82 74
f 10 74 62
f 10 62 53
f 10 53 51
f 10 51 38
f 10 38 21
f 10 21 12
f 11 12 21
f 11 21 22
f 11 22 23
f 11 23 24
f 11 24 25
f 11 25 26
f 11 26 13
f 15 27 28
f 15 28 29
f 15 29 30
f 15 30 16
f 16 30 31
f 16 31 29
f 16 29 17
f 17 32 33
f 17 33 19
f 17 19 18
f 17 29 34
f 17 34 32
f 19 33 35
f 19 35 36
f 19 36 37
f 19 37 20
f 21 38 22
f 22 38 23
f 23 39 40
f 23 40 24
f 23 38 39
f 24 40 41
f 24 41 42
f 24 42 25
f 25 42 55
f 25 55 43
f 25 43 26
f 27 44 45
f 27 45 28
f 28 45 29
f 29 45 34
f 29 31 30
f 32 34 46
f 32 46 47
f 32 47 48
f 32 48 49
f 32 49 50
f 32 50 33
f 34 45 46
f 38 51 52
f 38 52 39
f 39 52 53
f 39 53 54
f 39 54 41
f 39 41 40
f 41 54 42
f 42 54 65
f 42 65 55
f 44 56 57
f 44 57 58
f 44 58 45
f 45 58 59
f 45 59 46
f 46 59 58
f 46 58 47
f 47 58 60
f 47 60 48
f 48 60 49
f 49 61 50
f 49 60 61
f 51 53 52
f 53 62 54
f 54 63 64
f 54 64 65
f 54 62 63
f 56 66 67
f 56 67 68
f 56 68 57
f 57 69 58
f 57 68 69
f 58 69 70
f 58 70 71
f 58 71 60
f 60 71 72
f 60 72 73
f 60 73 61
f 62 74 63
f 63 75 76
f 63 76 64
f 63 74 77
f 63 77 75
f 66 78 67
f 67 79 68
f 67 78 75
f 67 75 79
f 68 79 80
f 68 80 81
f 68 81 69
f 69 81 70
f 70 73 71
f 71 73 72
f 74 82 77
f 75 78 83
f 75 83 76
f 75 77 84
f 75 84 80
f 75 80 79
f 77 82 84
f 80 84 81

