# https://github.com/mikedh/trimesh
v 0.26071175 2.06787380 1.25577630
v 0.24916981 2.04313615 1.25577630
v 0.16658558 2.06787380 1.25577630
v 0.26060470 2.06787380 1.32487767
v 0.17831241 2.04313615 1.25577630
v 0.24905305 2.04313615 1.32487767
v 0.16129145 2.06787380 1.29921220
v 0.16129145 2.04313615 1.30426290
v 0.26055606 2.06787380 1.34412343
v 0.24900435 2.04313615 1.33758412
v 0.16129145 2.06787380 1.38424982
v 0.16129145 2.04313615 1.37788327
v 0.26047816 2.06787380 1.36068439
v 0.24876110 2.04313615 1.38758592
v 0.16701378 2.06787380 1.39154674
v 0.17441966 2.04313615 1.39154674
v 0.26038089 2.06787380 1.37723203
v 0.24873189 2.04313856 1.39154674
v 0.21184829 2.04313615 1.39154674
v 0.26025434 2.06787380 1.39154674
f 1 2 5
f 1 5 3
f 1 3 7
f 1 7 11
f 1 11 15
f 1 15 20
f 1 20 17
f 1 17 13
f 1 13 9
f 1 9 4
f 1 4 2
f 2 4 6
f 2 6 10
f 2 10 14
f 2 14 19
f 2 19 16
f 2 16 12
f 2 12 8
f 2 8 5
f 3 5 8
f 3 8 7
f 4 9 6
f 6 9 10
f 7 8 12
f 7 12 11
f 9 13 10
f 10 13 14
f 11 12 15
f 12 16 15
f 13 17 14
f 14 17 18
f 14 18 19
f 15 16 19
f 15 19 18
f 15 18 20
f 17 20 18

