# https://github.com/mikedh/trimesh
v -3.78073016 2.04480330 0.08940590
v -3.76472130 2.04480330 0.09056487
v -3.79343905 2.04480330 0.09190682
v -3.79805326 2.05880830 0.06997863
v -3.78160391 2.05729788 0.06997863
v -3.78138004 2.05728947 0.06997863
v -3.76494512 2.05708810 0.06997863
v -3.76472130 2.05708810 0.06997863
v -3.75660493 2.04480330 0.09340118
v -3.80059500 2.04480330 0.10355705
v -3.80850198 2.06209767 0.06997863
v -3.79819047 2.05884186 0.06997863
v -3.75233011 2.06054528 0.06997863
v -3.75500191 2.04480330 0.09404163
v -3.80531751 2.04480330 0.12020906
v -3.81258183 2.07236855 0.06997863
v -3.74601900 2.07236855 0.06997863
v -3.74143370 2.05704613 0.09413313
v -3.75084260 2.04480330 0.09748794
v -3.80543309 2.04480330 0.13689152
v -3.81478424 2.08880702 0.06997863
v -3.80544751 2.04480330 0.14415005
v -3.80541860 2.04480330 0.15354352
v -3.81275516 2.08902520 0.38154747
v -3.74258908 2.08902520 0.06997863
v -3.74143370 2.05995790 0.09157130
v -3.74143370 2.04480330 0.11505488
v -3.74343393 2.04480330 0.11093760
v -3.81481309 2.08902520 0.06997863
v -3.80510091 2.04480330 0.16025309
v -3.80548363 2.06568074 0.38154747
v -3.80926015 2.07401324 0.38154747
v -3.81164305 2.08415827 0.38154747
v -3.81339055 2.10037017 0.38154747
v -3.74220636 2.10569023 0.06997863
v -3.74143370 2.08902520 0.07897560
v -3.74143370 2.07236855 0.08422127
v -3.74143370 2.07044697 0.08519719
v -3.74143370 2.04480330 0.19011072
v -3.81520302 2.10569023 0.06997863
v -3.81367212 2.10569023 0.38154747
v -3.79169882 2.04480330 0.38154747
v -3.74143370 2.10569023 0.07735917
v -3.74143370 2.09234813 0.07839612
v -3.74969449 2.12190214 0.06997863
v -3.74143370 2.11823514 0.08977188
v -3.74143370 2.05544341 0.38154747
v -3.74713105 2.04480330 0.38154747
v -3.81090657 2.12098750 0.06997863
v -3.81016997 2.12130635 0.38154747
v -3.76452633 2.12994934 0.06997863
v -3.74143370 2.12181821 0.10300809
v -3.74143370 2.11335145 0.38154747
v -3.81084875 2.12118887 0.07022259
v -3.81084875 2.12118887 0.06997863
v -3.79805326 2.12962207 0.38154747
v -3.81019166 2.12133991 0.35351971
v -3.81022051 2.12134832 0.33683719
v -3.76472130 2.13005004 0.06997863
v -3.74143370 2.12342094 0.12020906
v -3.74941286 2.12082805 0.38154747
v -3.74143370 2.12324474 0.15354352
v -3.81048051 2.12136510 0.17022598
v -3.79805326 2.12967244 0.33683719
v -3.79805326 2.12967244 0.32018525
v -3.79805326 2.12957174 0.15354352
v -3.79805326 2.12949622 0.06997863
v -3.78138004 2.13041926 0.38154747
v -3.79805326 2.12963885 0.37017165
v -3.78138004 2.13047800 0.06997863
v -3.76472130 2.13014234 0.10355705
v -3.74805529 2.12534254 0.12020906
v -3.76472130 2.12890043 0.38154747
v -3.75981824 2.12632433 0.38154747
v -3.78138004 2.13052834 0.13689152
v -3.76472130 2.13012556 0.12020906
f 1 2 9
f 1 9 14
f 1 14 19
f 1 19 28
f 1 28 27
f 1 27 39
f 1 39 48
f 1 48 42
f 1 42 30
f 1 30 23
f 1 23 22
f 1 22 20
f 1 20 15
f 1 15 10
f 1 10 3
f 1 3 4
f 1 4 5
f 1 5 6
f 1 6 7
f 1 7 8
f 1 8 2
f 2 8 9
f 3 10 11
f 3 11 12
f 3 12 4
f 4 12 11
f 4 11 16
f 4 16 21
f 4 21 29
f 4 29 40
f 4 40 49
f 4 49 55
f 4 55 67
f 4 67 70
f 4 70 59
f 4 59 51
f 4 51 45
f 4 45 35
f 4 35 25
f 4 25 17
f 4 17 13
f 4 13 8
f 4 8 7
f 4 7 6
f 4 6 5
f 8 13 14
f 8 14 9
f 10 15 11
f 11 15 16
f 13 17 18
f 13 18 19
f 13 19 14
f 15 20 16
f 16 20 22
f 16 22 23
f 16 23 24
f 16 24 21
f 17 25 26
f 17 26 18
f 18 26 38
f 18 38 37
f 18 37 36
f 18 36 44
f 18 44 43
f 18 43 46
f 18 46 52
f 18 52 60
f 18 60 62
f 18 62 53
f 18 53 47
f 18 47 39
f 18 39 27
f 18 27 28
f 18 28 19
f 21 24 29
f 23 30 31
f 23 31 32
f 23 32 33
f 23 33 24
f 24 33 32
f 24 32 31
f 24 31 42
f 24 42 48
f 24 48 47
f 24 47 53
f 24 53 61
f 24 61 74
f 24 74 73
f 24 73 68
f 24 68 56
f 24 56 50
f 24 50 41
f 24 41 34
f 24 34 29
f 25 35 36
f 25 36 37
f 25 37 38
f 25 38 26
f 29 34 41
f 29 41 40
f 30 42 31
f 35 43 44
f 35 44 36
f 35 45 46
f 35 46 43
f 39 47 48
f 40 41 50
f 40 50 49
f 45 51 52
f 45 52 46
f 49 54 55
f 49 50 54
f 50 56 57
f 50 57 58
f 50 58 54
f 51 59 52
f 52 59 60
f 53 62 61
f 54 63 64
f 54 64 65
f 54 65 55
f 54 58 63
f 55 65 66
f 55 66 67
f 56 68 69
f 56 69 58
f 56 58 57
f 58 69 63
f 59 70 71
f 59 71 60
f 60 72 73
f 60 73 62
f 60 71 72
f 61 62 74
f 62 73 74
f 63 69 64
f 64 69 68
f 64 68 75
f 64 75 65
f 65 75 66
f 66 75 70
f 66 70 67
f 68 73 76
f 68 76 71
f 68 71 75
f 70 75 71
f 71 76 72
f 72 76 73

