# https://github.com/mikedh/trimesh
v -2.26210905 2.05466092 0.90495962
v -2.28138218 2.05466092 0.90506059
v -2.26210905 2.03354608 0.89817639
v -2.26210905 2.05466092 0.83363014
v -2.28875104 2.05466092 0.90508812
v -2.28380102 2.03354608 0.89826817
v -2.28138218 2.03354608 0.89825900
v -2.26210905 2.03354608 0.83871527
v -2.29804634 2.05461544 0.81234420
v -2.28255706 2.05466092 0.82187193
v -2.35035410 2.05461544 0.90505141
v -2.33136608 2.05461544 0.90506059
v -2.28875104 2.03354608 0.89827735
v -2.28685912 2.03354608 0.89827735
v -2.28875104 2.05466092 0.81896221
v -2.28875104 2.03354608 0.82521306
v -2.30472414 2.05461544 0.81190361
v -2.29804634 2.03911262 0.81936608
v -2.35035410 2.03911262 0.89829571
v -2.35035410 2.05461544 0.83351081
v -2.31470189 2.05461544 0.81132534
v -2.31911631 2.05461544 0.81298672
v -2.35035410 2.03911262 0.83847662
v -2.31477965 2.03911262 0.81881535
f 1 2 3
f 1 3 8
f 1 8 4
f 1 4 10
f 1 10 15
f 1 15 5
f 1 5 2
f 2 5 6
f 2 6 7
f 2 7 3
f 3 7 6
f 3 6 14
f 3 14 13
f 3 13 16
f 3 16 8
f 4 8 9
f 4 9 10
f 5 11 12
f 5 12 13
f 5 13 14
f 5 14 6
f 5 15 20
f 5 20 11
f 8 16 9
f 9 17 15
f 9 15 10
f 9 16 18
f 9 18 17
f 11 19 13
f 11 13 12
f 11 20 23
f 11 23 19
f 13 19 23
f 13 23 16
f 15 17 21
f 15 21 22
f 15 22 20
f 16 23 24
f 16 24 18
f 17 18 21
f 18 24 21
f 20 22 23
f 21 24 22
f 22 24 23

