# https://github.com/mikedh/trimesh
v -1.83137949 1.46974305 0.45048610
v -1.83442710 1.46976093 0.45048610
v -1.81776044 1.47395603 0.45048610
v -1.81498117 1.47643372 0.58683186
v -1.83137949 1.47219392 0.58683186
v -1.84804616 1.46985040 0.45048610
v -1.81470413 1.47491311 0.45048610
v -1.80669546 1.48902793 0.58683186
v -1.80634916 1.48065564 0.49986739
v -1.84804616 1.47233703 0.58683186
v -1.86470424 1.47099532 0.45354241
v -1.86470424 1.47095059 0.45048610
v -1.86470424 1.47305259 0.58683186
v -1.80776907 1.47935864 0.45048610
v -1.80624521 1.48046780 0.47021193
v -1.80648768 1.48902793 0.53686333
v -1.80673009 1.50569200 0.58683186
v -1.80634916 1.48232831 0.49986739
v -1.89464365 1.48118339 0.52019381
v -1.87681678 1.47631743 0.45048610
v -1.89464365 1.48100448 0.50369779
v -1.89464365 1.48098660 0.50065483
v -1.89464365 1.48098660 0.50040124
v -1.87647911 1.47717614 0.58683186
v -1.89464365 1.48132650 0.52610622
v -1.80620193 1.48038730 0.45048610
v -1.80621064 1.48039624 0.45354241
v -1.80624521 1.48652341 0.47021193
v -1.80746604 1.52235604 0.58683186
v -1.80620193 1.48785615 0.45048610
v -1.80640107 1.49619267 0.45048610
v -1.80673009 1.50569200 0.45048610
v -1.89464365 1.48636239 0.48961745
v -1.89464365 1.48785615 0.48849634
v -1.87950079 1.48669334 0.45048610
v -1.87953542 1.48900108 0.58683186
v -1.89464365 1.49314250 0.56550449
v -1.89464365 1.48753416 0.55736323
v -1.89464365 1.48596881 0.55353286
v -1.89464365 1.48256980 0.54185485
v -1.89464365 1.48178269 0.53686333
v -1.81349200 1.56112259 0.51477520
v -1.81367385 1.56112259 0.52019381
v -1.81515438 1.56112259 0.53143137
v -1.81595953 1.56112259 0.53686333
v -1.82826262 1.56112259 0.58683186
v -1.80694658 1.50874214 0.45048610
v -1.80791624 1.52235604 0.45048610
v -1.81263488 1.56112259 0.48688146
v -1.89464365 1.50058453 0.48259728
v -1.88008087 1.48902793 0.45048610
v -1.87814150 1.50566515 0.58683186
v -1.89464365 1.56112259 0.56777336
v -1.89464365 1.52238289 0.56881436
v -1.89464365 1.50569200 0.56860083
v -1.86594230 1.56112259 0.58683186
v -1.82601152 1.56112259 0.45048610
v -1.82079070 1.56112259 0.45884089
v -1.81714573 1.56112259 0.46639488
v -1.81544007 1.56112259 0.47021193
v -1.81339681 1.56112259 0.48144953
v -1.89464365 1.50569200 0.48162298
v -1.87812415 1.50569200 0.45048610
v -1.89464365 1.52235604 0.48361158
v -1.86621940 1.56110471 0.58683186
v -1.89464365 1.56112259 0.50328404
v -1.86824538 1.56112259 0.45048610
v -1.89464365 1.53755317 0.48955070
f 1 2 6
f 1 6 12
f 1 12 20
f 1 20 35
f 1 35 51
f 1 51 63
f 1 63 67
f 1 67 57
f 1 57 48
f 1 48 47
f 1 47 32
f 1 32 31
f 1 31 30
f 1 30 26
f 1 26 14
f 1 14 7
f 1 7 3
f 1 3 4
f 1 4 5
f 1 5 2
f 2 5 6
f 3 7 4
f 4 8 17
f 4 17 29
f 4 29 46
f 4 46 56
f 4 56 65
f 4 65 52
f 4 52 36
f 4 36 24
f 4 24 13
f 4 13 10
f 4 10 5
f 4 7 9
f 4 9 8
f 5 10 6
f 6 11 12
f 6 10 13
f 6 13 11
f 7 14 15
f 7 15 9
f 8 16 17
f 8 9 16
f 9 15 28
f 9 28 18
f 9 18 16
f 11 13 19
f 11 19 12
f 12 19 21
f 12 21 22
f 12 22 23
f 12 23 20
f 13 24 25
f 13 25 19
f 14 26 27
f 14 27 15
f 15 27 26
f 15 26 30
f 15 30 28
f 16 18 28
f 16 28 17
f 17 28 30
f 17 30 31
f 17 31 32
f 17 32 29
f 19 25 41
f 19 41 40
f 19 40 39
f 19 39 38
f 19 38 37
f 19 37 55
f 19 55 54
f 19 54 53
f 19 53 66
f 19 66 68
f 19 68 64
f 19 64 62
f 19 62 50
f 19 50 34
f 19 34 33
f 19 33 23
f 19 23 22
f 19 22 21
f 20 33 34
f 20 34 35
f 20 23 33
f 24 36 37
f 24 37 38
f 24 38 39
f 24 39 40
f 24 40 41
f 24 41 25
f 29 42 43
f 29 43 44
f 29 44 45
f 29 45 46
f 29 32 47
f 29 47 48
f 29 48 49
f 29 49 42
f 34 50 51
f 34 51 35
f 36 52 53
f 36 53 54
f 36 54 55
f 36 55 37
f 42 49 61
f 42 61 60
f 42 60 59
f 42 59 58
f 42 58 57
f 42 57 67
f 42 67 66
f 42 66 53
f 42 53 56
f 42 56 46
f 42 46 45
f 42 45 44
f 42 44 43
f 48 57 58
f 48 58 59
f 48 59 60
f 48 60 61
f 48 61 49
f 50 62 51
f 51 62 64
f 51 64 63
f 52 65 53
f 53 65 56
f 63 64 67
f 64 68 67
f 66 67 68

