# https://github.com/mikedh/trimesh
v -2.33867006 1.48289158 1.15354842
v -2.38944618 1.48302516 1.15354842
v -2.38944618 1.48649018 1.14625935
v -2.38944618 1.49019088 1.13852540
v -2.33867006 1.48605018 1.14701221
v -2.33867006 1.48291515 1.16291642
v -2.33867006 1.48295443 1.17021406
v -2.38944618 1.48308801 1.16213791
v -2.38944618 1.49770235 1.13559095
v -2.33867006 1.50569307 1.13253672
v -2.33867006 1.49015160 1.13864517
v -2.38944618 1.48317444 1.17021406
v -2.33867006 1.48323729 1.18687114
v -2.34804395 1.48326873 1.18687114
v -2.38944618 1.48343372 1.18687114
v -2.38944618 1.50569307 1.13247683
v -2.33867006 1.52236600 1.13312704
v -2.33867006 1.48554732 1.20353678
v -2.38137448 1.48551588 1.20353678
v -2.38944618 1.48451803 1.19546918
v -2.38944618 1.51376238 1.13291314
v -2.38944618 1.52236600 1.13346924
v -2.33867006 1.53902318 1.13627536
v -2.33867006 1.49253232 1.21500938
v -2.38137448 1.49242232 1.21521470
v -2.38944618 1.48557089 1.20353678
v -2.38944618 1.53042744 1.13623258
v -2.33867006 1.55087966 1.14037333
v -2.33867006 1.49993379 1.21709685
v -2.38944618 1.49246947 1.21516337
v -2.38944618 1.48913805 1.20955968
v -2.33867006 1.50569307 1.21871380
v -2.36470424 1.50569307 1.21879935
v -2.38137448 1.50569307 1.21883357
v -2.38944618 1.50569307 1.21878225
v -2.38944618 1.53980103 1.13980868
v -2.33867006 1.55465895 1.14487340
v -2.38944618 1.54747750 1.14500173
v -2.38944618 1.56315254 1.16276243
v -2.33867006 1.51506669 1.21913301
v -2.33867006 1.52236600 1.21944956
v -2.38944618 1.52236600 1.21930412
v -2.34804395 1.52236600 1.21944100
v -2.33867006 1.56077183 1.15533647
v -2.33867006 1.56315254 1.16003331
v -2.38944618 1.56315254 1.21984310
v -2.33867006 1.53172388 1.21959499
v -2.38944618 1.53902318 1.21962921
v -2.33867006 1.53902318 1.21970622
v -2.33867006 1.56315254 1.21986021
v -2.38944618 1.55568824 1.21980887
v -2.33867006 1.55568824 1.21983455
v -2.34058360 1.56315254 1.21986021
v -2.33867006 1.54838892 1.21978321
f 1 2 3
f 1 3 4
f 1 4 5
f 1 5 11
f 1 11 10
f 1 10 17
f 1 17 23
f 1 23 28
f 1 28 37
f 1 37 44
f 1 44 45
f 1 45 50
f 1 50 52
f 1 52 54
f 1 54 49
f 1 49 47
f 1 47 41
f 1 41 40
f 1 40 32
f 1 32 29
f 1 29 24
f 1 24 18
f 1 18 13
f 1 13 7
f 1 7 6
f 1 6 2
f 2 6 7
f 2 7 8
f 2 8 12
f 2 12 15
f 2 15 20
f 2 20 26
f 2 26 31
f 2 31 30
f 2 30 35
f 2 35 42
f 2 42 48
f 2 48 51
f 2 51 46
f 2 46 39
f 2 39 38
f 2 38 36
f 2 36 27
f 2 27 22
f 2 22 21
f 2 21 16
f 2 16 9
f 2 9 4
f 2 4 3
f 4 9 10
f 4 10 11
f 4 11 5
f 7 12 8
f 7 13 14
f 7 14 15
f 7 15 12
f 9 16 10
f 10 16 17
f 13 18 19
f 13 19 14
f 14 19 20
f 14 20 15
f 16 21 17
f 17 21 22
f 17 22 23
f 18 24 25
f 18 25 19
f 19 25 26
f 19 26 20
f 22 27 23
f 23 27 28
f 24 29 25
f 25 30 31
f 25 31 26
f 25 29 32
f 25 32 33
f 25 33 34
f 25 34 35
f 25 35 30
f 27 36 28
f 28 36 38
f 28 38 39
f 28 39 37
f 32 40 33
f 33 40 41
f 33 41 34
f 34 42 35
f 34 41 43
f 34 43 42
f 37 39 44
f 39 45 44
f 39 46 53
f 39 53 50
f 39 50 45
f 41 47 43
f 42 43 48
f 43 47 49
f 43 49 48
f 46 51 52
f 46 52 53
f 48 49 51
f 49 54 51
f 50 53 52
f 51 54 52

