# https://github.com/mikedh/trimesh
v -3.1153699349999995 -0.6346137000000001 0.4434848
v -3.106846225 -0.63466124 0.4434848
v -3.1654654749999995 -0.6350256599999999 0.4434848
v -3.3322013649999995 -0.6597744999999999 0.46292024
v -3.282255365 -0.6597507499999999 0.46320025
v -3.2487586449999997 -0.6596636 0.46327594
v -3.0320767650000002 -0.65911697 0.46355601
v -3.090396945 -0.63491474 0.4434848
v -2.765299355 -0.65045803 0.45394052
v -2.7485510049999995 -0.6505531 0.45379416
v -2.7485510049999995 -0.64137132 0.44466814
v -3.224832425 -0.63561191 0.4434848
v -3.8258292549999995 -0.66965345 0.46720946
v -3.6323259549999998 -0.66871863 0.46773174
v -3.0320767650000002 -0.66746694 0.46780492
v -3.0154779449999998 -0.6674986199999999 0.46780999
v -2.5486174950000002 -0.66901968 0.46756021
v -2.498521995 -0.6692018900000001 0.46747695
v -3.432242895 -0.6681957700000001 0.467815
v -3.1988126550000002 -0.66773629 0.4678806
v -3.182064285 -0.6678155100000001 0.4679412
v -2.747653755 -0.64138715 0.44466814
v -2.5516082649999996 -0.64635435 0.44466814
v -3.0894997049999997 -0.6349464300000001 0.4434848
v -2.4369119149999996 -0.6696693 0.46719181
v -3.3322013649999995 -0.63680815 0.4434848
v -3.8258292549999995 -0.65231182 0.4434848
v -3.8258292549999995 -0.67712406 0.46795128
v -3.815810225 -0.67802718 0.46807993
v -3.815810225 -0.66961384 0.46724226
v -3.465290985 -0.63840843 0.4434848
v -3.565631585 -0.6422586 0.4434848
v -3.7657146150000003 -0.67802718 0.46821114
v -3.6323259549999998 -0.67802718 0.4685038
v -3.448991255 -0.66830669 0.46782764
v -3.7824629749999996 -0.67802718 0.46817332
v -3.1654654749999995 -0.66780759 0.46793864
v -3.1654654749999995 -0.67802718 0.46877129
v -2.5486174950000002 -0.67802718 0.46809007
v -2.515270355 -0.67802718 0.46804462
v -2.498521995 -0.67802718 0.46801939
v -2.298438825 -0.6802137 0.46779985
v -3.0154779449999998 -0.67802718 0.46863
v -2.298139785 -0.6801344899999999 0.46778977
v -2.315037715 -0.67138841 0.46670484
v -2.5486174950000002 -0.64646527 0.44466814
v -2.298139785 -0.67188751 0.46657368
v -2.2982893649999996 -0.65686708 0.44466814
v -2.298139785 -0.6581267 0.44466814
v -3.0894997049999997 -0.7149444899999999 0.4434848
v -3.8258292549999995 -0.71454045 0.4434848
v -3.8258292549999995 -0.6879695100000001 0.46855431
v -3.8258292549999995 -0.69470334 0.4688697
v -3.0820227649999996 -0.69471127 0.46925826
v -3.0320767650000002 -0.69471127 0.46924562
v -2.298139785 -0.69471127 0.46849121
v -2.298139785 -0.65809502 0.44521308
v -2.298139785 -0.71369278 0.44466814
v -3.515536065 -0.7154435800000001 0.4434848
v -2.2982893649999996 -0.71483357 0.44466814
v -2.515270355 -0.7154515 0.44466814
v -3.649074305 -0.7152693 0.4434848
v -3.8258292549999995 -0.71049222 0.4588252
v -3.8258292549999995 -0.70455852 0.46802947
v -3.0820227649999996 -0.7052715199999999 0.46841803
v -3.0320767650000002 -0.70531113 0.4684231
v -2.298139785 -0.70412281 0.46786045
v -2.298139785 -0.71047638 0.4588252
v -2.731952165 -0.71554657 0.44466814
v -2.848592525 -0.71551488 0.44466814
v -2.9653824149999997 -0.71150627 0.4588252
v -3.6323259549999998 -0.71099133 0.4588252
v -3.649074305 -0.71097548 0.4588252
v -3.565631585 -0.7153881200000001 0.4434848
v -2.6820061849999997 -0.7155307200000001 0.44466814
v -2.8319937250000002 -0.71147457 0.4588252
v -2.848592525 -0.71149834 0.4588252
v -3.8258292549999995 -0.7081076500000001 0.46253925
v -2.298139785 -0.710413 0.45895391
v -2.298139785 -0.70422579 0.46784279
f 1 2 8
f 1 8 24
f 1 24 50
f 1 50 59
f 1 59 74
f 1 74 62
f 1 62 51
f 1 51 27
f 1 27 32
f 1 32 31
f 1 31 26
f 1 26 12
f 1 12 3
f 1 3 4
f 1 4 5
f 1 5 6
f 1 6 7
f 1 7 2
f 2 7 9
f 2 9 10
f 2 10 11
f 2 11 8
f 3 12 13
f 3 13 4
f 4 13 14
f 4 14 5
f 5 14 6
f 6 14 7
f 7 15 16
f 7 16 17
f 7 17 18
f 7 18 9
f 7 14 19
f 7 19 20
f 7 20 21
f 7 21 15
f 8 11 22
f 8 22 23
f 8 23 24
f 9 18 25
f 9 25 10
f 10 25 22
f 10 22 11
f 12 26 13
f 13 27 51
f 13 51 63
f 13 63 78
f 13 78 64
f 13 64 53
f 13 53 52
f 13 52 28
f 13 28 29
f 13 29 30
f 13 30 14
f 13 26 31
f 13 31 32
f 13 32 27
f 14 33 34
f 14 34 35
f 14 35 19
f 14 30 29
f 14 29 36
f 14 36 33
f 15 21 37
f 15 37 16
f 16 37 38
f 16 38 17
f 17 39 40
f 17 40 41
f 17 41 42
f 17 42 18
f 17 38 43
f 17 43 39
f 18 42 44
f 18 44 25
f 19 35 21
f 19 21 20
f 21 35 34
f 21 34 38
f 21 38 37
f 22 25 45
f 22 45 23
f 23 46 24
f 23 45 47
f 23 47 46
f 24 46 48
f 24 48 49
f 24 49 58
f 24 58 50
f 25 44 45
f 28 52 29
f 29 52 36
f 33 36 52
f 33 52 34
f 34 52 53
f 34 53 38
f 38 53 54
f 38 54 55
f 38 55 43
f 39 56 40
f 39 43 56
f 40 56 41
f 41 56 42
f 42 56 44
f 43 55 56
f 44 47 45
f 44 56 67
f 44 67 80
f 44 80 79
f 44 79 68
f 44 68 58
f 44 58 49
f 44 49 57
f 44 57 47
f 46 47 48
f 47 57 48
f 48 57 49
f 50 58 60
f 50 60 61
f 50 61 59
f 51 62 63
f 53 64 65
f 53 65 54
f 54 65 66
f 54 66 55
f 55 66 67
f 55 67 56
f 58 68 60
f 59 69 70
f 59 70 71
f 59 71 72
f 59 72 73
f 59 73 74
f 59 61 75
f 59 75 69
f 60 68 61
f 61 68 76
f 61 76 77
f 61 77 75
f 62 74 73
f 62 73 63
f 63 73 78
f 64 78 73
f 64 73 65
f 65 73 72
f 65 72 66
f 66 72 71
f 66 71 77
f 66 77 76
f 66 76 79
f 66 79 80
f 66 80 67
f 68 79 76
f 69 75 77
f 69 77 71
f 69 71 70

