# https://github.com/mikedh/trimesh
v -1.83137330 1.47875454 1.01364157
v -1.83137330 1.47882788 1.03688396
v -1.84803305 1.47900208 1.03688396
v -1.84803305 1.47894706 1.01364157
v -1.82027393 1.47968971 1.01364157
v -1.82043099 1.47971722 1.03688396
v -1.82135177 1.48005646 1.23680344
v -1.83137330 1.47958886 1.23680344
v -1.86469280 1.47951552 1.02021672
v -1.86469280 1.47949719 1.01364157
v -1.84803305 1.47907545 1.05355120
v -1.86612749 1.48043236 1.23680344
v -1.86469280 1.47961637 1.05355120
v -1.81724033 1.48337546 1.01364157
v -1.81414253 1.48903243 1.23680344
v -1.81262218 1.48904158 1.01364157
v -1.84803305 1.47992810 1.23680344
v -1.87274432 1.48072577 1.22992247
v -1.87350094 1.48034069 1.02021672
v -1.87349379 1.48034069 1.01364157
v -1.87340099 1.48043236 1.07021843
v -1.86722673 1.48046905 1.23680344
v -1.80896761 1.50570073 1.23680344
v -1.80808963 1.50570073 1.01364157
v -1.87574221 1.48636438 1.23680344
v -1.88100994 1.48235776 1.20408061
v -1.88100994 1.48181681 1.18726045
v -1.88100994 1.48177098 1.17050584
v -1.88100994 1.48177098 1.17017817
v -1.88100994 1.48180763 1.15353277
v -1.87556376 1.48560341 1.01364157
v -1.80998114 1.52236907 1.23680344
v -1.80841084 1.51226537 1.01364157
v -1.80891760 1.52235989 1.01364157
v -1.87624182 1.48744628 1.23680344
v -1.88100994 1.48821643 1.22131579
v -1.88100994 1.48795972 1.22059493
v -1.88100994 1.48843647 1.13238746
v -1.87689140 1.48904158 1.01364157
v -1.81554867 1.57235569 1.15353277
v -1.81604834 1.57241987 1.20344712
v -1.81391412 1.53901904 1.23680344
v -1.81151579 1.52891538 1.01364157
v -1.81556298 1.57241987 1.15348910
v -1.87956809 1.50561824 1.23680344
v -1.88100994 1.50570073 1.23361416
v -1.88100994 1.49550537 1.12408659
v -1.87791923 1.50570073 1.01364157
v -1.87754092 1.49913609 1.01364157
v -1.81955300 1.57241987 1.21605130
v -1.83036686 1.57235569 1.23680344
v -1.81577708 1.53900989 1.01364157
v -1.83010275 1.57241987 1.01364157
v -1.87047449 1.57241071 1.23680344
v -1.88100994 1.57241987 1.22367499
v -1.88100994 1.50570073 1.12039490
v -1.86949655 1.57241987 1.01364157
v -1.88100994 1.50596663 1.12039490
v -1.88100994 1.52281831 1.12340942
v -1.88100994 1.53075825 1.12550648
v -1.88100994 1.53901904 1.12887051
v -1.88100994 1.55089225 1.13773931
v -1.88100994 1.57241987 1.15729000
v -1.83048822 1.57241987 1.23680344
v -1.87220894 1.57241987 1.22762881
f 1 2 3
f 1 3 4
f 1 4 10
f 1 10 20
f 1 20 31
f 1 31 39
f 1 39 49
f 1 49 48
f 1 48 57
f 1 57 53
f 1 53 52
f 1 52 43
f 1 43 34
f 1 34 33
f 1 33 24
f 1 24 16
f 1 16 14
f 1 14 5
f 1 5 6
f 1 6 7
f 1 7 2
f 2 7 8
f 2 8 3
f 3 9 10
f 3 10 4
f 3 8 11
f 3 11 12
f 3 12 13
f 3 13 9
f 5 14 7
f 5 7 6
f 7 15 23
f 7 23 32
f 7 32 42
f 7 42 51
f 7 51 64
f 7 64 54
f 7 54 45
f 7 45 35
f 7 35 25
f 7 25 22
f 7 22 12
f 7 12 17
f 7 17 8
f 7 14 16
f 7 16 15
f 8 17 11
f 9 13 18
f 9 18 10
f 10 19 20
f 10 18 21
f 10 21 19
f 11 17 12
f 12 22 13
f 13 22 18
f 15 16 23
f 16 24 23
f 18 22 25
f 18 25 26
f 18 26 27
f 18 27 28
f 18 28 21
f 19 21 28
f 19 28 29
f 19 29 20
f 20 29 30
f 20 30 31
f 23 24 33
f 23 33 34
f 23 34 32
f 25 35 36
f 25 36 37
f 25 37 26
f 26 37 36
f 26 36 46
f 26 46 55
f 26 55 63
f 26 63 62
f 26 62 61
f 26 61 60
f 26 60 59
f 26 59 58
f 26 58 56
f 26 56 47
f 26 47 38
f 26 38 30
f 26 30 29
f 26 29 28
f 26 28 27
f 30 38 39
f 30 39 31
f 32 40 41
f 32 41 42
f 32 34 40
f 34 43 44
f 34 44 40
f 35 45 46
f 35 46 36
f 38 47 48
f 38 48 49
f 38 49 39
f 40 44 41
f 41 44 53
f 41 53 57
f 41 57 63
f 41 63 55
f 41 55 65
f 41 65 64
f 41 64 50
f 41 50 42
f 42 50 51
f 43 52 44
f 44 52 53
f 45 54 55
f 45 55 46
f 47 56 48
f 48 56 58
f 48 58 59
f 48 59 60
f 48 60 61
f 48 61 62
f 48 62 63
f 48 63 57
f 50 64 51
f 54 64 65
f 54 65 55

