# https://github.com/mikedh/trimesh
v 1.06085907 1.57220097 1.93657475
v 1.27564774 1.57220097 1.93573438
v 1.06085907 1.57220097 1.99656618
v 1.06085907 1.97232902 1.93682688
v 1.27564774 1.57220097 1.99705839
v 1.27564774 2.03888762 1.93626260
v 1.25882795 1.57220097 1.99702239
v 1.06085907 2.03888762 1.99630808
v 1.06085907 1.98712998 1.93686890
v 1.27564774 2.03888762 1.99659014
v 1.06085907 1.98900293 1.93687492
v 1.06085907 2.03888762 1.93704295
f 1 2 5
f 1 5 7
f 1 7 3
f 1 3 8
f 1 8 12
f 1 12 11
f 1 11 9
f 1 9 4
f 1 4 2
f 2 4 6
f 2 6 10
f 2 10 5
f 3 7 8
f 4 9 6
f 5 10 8
f 5 8 7
f 6 9 11
f 6 11 12
f 6 12 8
f 6 8 10

