# https://github.com/mikedh/trimesh
v -2.04823788 1.57228537 0.83903409
v -1.88757657 1.79159374 0.83190135
v -1.89465349 1.57228537 0.83523773
v -2.04823788 1.57228537 0.89872531
v -2.04823788 1.87254379 0.83915079
v -1.88757657 1.80568952 0.83188761
v -1.88757657 1.79159374 0.90107314
v -1.89465349 1.57228537 0.89887633
v -1.88757657 1.94357187 0.90199991
v -1.88757657 1.94631782 0.90201364
v -2.04823788 1.93881225 0.89875276
v -2.04823788 1.88920244 0.83916452
v -2.04823788 1.90586109 0.83921944
v -2.04823788 1.92255636 0.83930182
v -2.04814353 1.94631782 0.83941853
v -1.88757657 1.89041065 0.83241622
v -1.88757657 1.94631782 0.83284185
v -2.04823788 1.94631782 0.89875276
v -2.04823788 1.93921500 0.83939106
v -2.04823788 1.94631782 0.86527213
f 1 2 3
f 1 3 8
f 1 8 4
f 1 4 11
f 1 11 18
f 1 18 20
f 1 20 19
f 1 19 14
f 1 14 13
f 1 13 12
f 1 12 5
f 1 5 6
f 1 6 2
f 2 7 8
f 2 8 3
f 2 6 16
f 2 16 17
f 2 17 10
f 2 10 9
f 2 9 7
f 4 8 7
f 4 7 9
f 4 9 10
f 4 10 11
f 5 12 6
f 6 12 13
f 6 13 14
f 6 14 15
f 6 15 16
f 10 17 15
f 10 15 20
f 10 20 18
f 10 18 11
f 14 19 15
f 15 17 16
f 15 19 20

