# https://github.com/mikedh/trimesh
v -2.84807347 1.57204284 1.54958760
v -2.81580357 1.55992381 1.54958760
v -2.81580357 1.55992381 1.50606471
v -3.07037448 1.54914460 1.51006654
v -3.07037448 1.56031279 1.54958760
v -2.81580357 1.48529057 1.54958760
v -2.81580357 1.55562768 1.50592762
v -3.07037448 1.52236516 1.50662172
v -3.07037448 1.53901371 1.50749577
v -3.07037448 1.54242813 1.50835701
v -3.07037448 1.48408041 1.54958760
v -2.81580357 1.48506583 1.53687090
v -2.98136437 1.48408905 1.54958760
v -2.98136437 1.48384702 1.53687520
v -2.96469366 1.48396802 1.53687520
v -2.81580357 1.53901371 1.50581622
v -3.07037448 1.50569930 1.50636465
v -3.07037448 1.48376921 1.53687520
v -3.01864296 1.48398531 1.54958760
v -2.81580357 1.48714041 1.52021676
v -2.99803508 1.48400259 1.54958760
v -2.99803508 1.48380378 1.53687520
v -3.07037448 1.48579194 1.52021247
v -3.06469298 1.48580922 1.52021247
v -2.81580357 1.50569930 1.50630897
v -3.01470579 1.50569930 1.50629181
v -3.03137649 1.50569930 1.50630897
v -3.06469298 1.50569930 1.50635177
v -3.07037448 1.49268992 1.50905111
v -3.07037448 1.48445210 1.53121098
v -3.04802228 1.48373464 1.53687520
v -3.00197226 1.48399395 1.54958760
v -2.81580357 1.48754668 1.51948832
v -3.03137649 1.48374328 1.53687520
v -3.07037448 1.48813448 1.51642057
v -2.81580357 1.49335553 1.50913676
v -2.89806068 1.49322586 1.50907680
f 1 2 3
f 1 3 4
f 1 4 5
f 1 5 11
f 1 11 19
f 1 19 32
f 1 32 21
f 1 21 13
f 1 13 6
f 1 6 2
f 2 6 12
f 2 12 20
f 2 20 33
f 2 33 36
f 2 36 25
f 2 25 16
f 2 16 7
f 2 7 3
f 3 7 8
f 3 8 9
f 3 9 10
f 3 10 4
f 4 10 9
f 4 9 8
f 4 8 17
f 4 17 29
f 4 29 35
f 4 35 23
f 4 23 30
f 4 30 18
f 4 18 11
f 4 11 5
f 6 13 14
f 6 14 15
f 6 15 12
f 7 16 17
f 7 17 8
f 11 18 19
f 12 15 20
f 13 21 14
f 14 21 22
f 14 22 23
f 14 23 24
f 14 24 20
f 14 20 15
f 16 25 26
f 16 26 27
f 16 27 28
f 16 28 17
f 17 28 29
f 18 30 31
f 18 31 19
f 19 31 32
f 20 24 33
f 21 32 22
f 22 32 34
f 22 34 23
f 23 35 36
f 23 36 24
f 23 34 31
f 23 31 30
f 24 36 33
f 25 36 37
f 25 37 29
f 25 29 26
f 26 29 27
f 27 29 28
f 29 37 36
f 29 36 35
f 31 34 32

