# https://github.com/mikedh/trimesh
v -2.13017255 -0.29717671 0.86932971
v -2.13003544 -0.29717671 0.86932971
v -2.1407107 -0.29717671 0.87429492
v -2.16339313 -0.27941266 0.84631837
v -2.15947565 -0.28021693000000003 0.84631837
v -2.14652823 -0.28152385 0.84631837
v -2.14223853 -0.2817249 0.84631837
v -2.11352308 -0.29717671 0.86966996
v -2.1431493699999997 -0.29717671 0.87558033
v -2.1746364199999997 -0.27359183 0.84631837
v -2.13003544 -0.28154395 0.84631837
v -2.08023392 -0.29717671 0.87401768
v -2.14759575 -0.29717671 0.89009789
v -2.17767252 -0.26110573 0.84631837
v -2.14830089 -0.29717671 0.89244187
v -2.1748616800000002 -0.27386328 0.87576936
v -2.17819158 -0.26110573 0.89242927
v -2.12624523 -0.28033755 0.84631837
v -2.07844169 -0.29717671 0.87428231
v -2.17783904 -0.24443747 0.84631837
v -2.14834008 -0.29717671 0.90640494
v -2.1750282 -0.2741146 0.90912698
v -2.17496945 -0.27400403 0.89242927
v -2.17793697 -0.22776921 0.84631837
v -2.17832869 -0.26110573 0.90912698
v -2.11533493 -0.27584376 0.84631837
v -2.07844169 -0.29446235 0.87292129
v -2.07844169 -0.29717671 0.95191094
v -2.14832046 -0.29717671 0.90911438
v -2.17503798 -0.27408444 0.9424468
v -2.17504776 -0.27413472 0.92577429
v -2.1783678799999997 -0.26110573 0.92577429
v -2.17758437 -0.21109090000000003 0.84631837
v -2.1783091299999997 -0.22776921 0.89242927
v -2.1784266199999998 -0.22776921 0.90912698
v -2.0989499 -0.25849189 0.84631837
v -2.07845148 -0.24443747 0.86454093
v -2.07844169 -0.2834038 0.87156028
v -2.09301487 -0.24852913000000001 0.84631837
v -2.09140867 -0.24443747 0.84631837
v -2.08992981 -0.23404243 0.84631837
v -2.07844169 -0.2834038 0.95204956
v -2.07845148 -0.24443747 0.95831278
v -2.0892932 -0.22776921 0.9750609
v -2.09105607 -0.24443747 0.9750609
v -2.09903805 -0.25769767 0.9750609
v -2.11588339 -0.27523052000000003 0.9750609
v -2.13003544 -0.28109155 0.9750609
v -2.1302313 -0.29717671 0.95492283
v -2.14805607 -0.29717671 0.92577429
v -2.17490087 -0.2739437 0.9750609
v -2.17497924 -0.27400403 0.95913191
v -2.1783581 -0.26110573 0.9424468
v -2.17845603 -0.22776921 0.92577429
v -2.17848543 -0.22776921 0.95913191
v -2.17445034 -0.19979107000000002 0.84631837
v -2.17807408 -0.21109090000000003 0.90912698
v -2.17822098 -0.21109090000000003 0.9750609
v -2.17813283 -0.21109090000000003 0.92577429
v -2.07845148 -0.23820447 0.86593976
v -2.08947928 -0.22740729 0.84631837
v -2.07845148 -0.22786975 0.87491242
v -2.07845148 -0.22371776000000002 0.89242927
v -2.07845148 -0.22323520000000002 0.92406041
v -2.07845148 -0.22319499 0.92694628
v -2.07845148 -0.22456223 0.94145124
v -2.07845148 -0.22478340000000002 0.9424468
v -2.07845148 -0.2289957 0.95362482
v -2.07845148 -0.22983013000000002 0.95511186
v -2.07845148 -0.24351256 0.95822456
v -2.09158497 -0.21113113 0.9750609
v -2.1467241 -0.28132277 0.9750609
v -2.16339313 -0.27985499 0.9750609
v -2.13200402 -0.29717671 0.95451956
v -2.14565658 -0.29717671 0.93973736
v -2.16392203 -0.27959361 0.9750609
v -2.1779957100000003 -0.26168881 0.9750609
v -2.17826995 -0.26110573 0.95913191
v -2.14484367 -0.29717671 0.94269885
v -2.14078907 -0.29717671 0.95157069
v -2.17846581 -0.22776921 0.9750609
v -2.16339313 -0.19563908000000002 0.84631837
v -2.1746952200000003 -0.19964027 0.90912698
v -2.17480294 -0.19954979 0.9750609
v -2.17474419 -0.19961012 0.92577429
v -2.09098755 -0.21499156000000003 0.84631837
v -2.09164372 -0.21109090000000003 0.84631837
v -2.09747104 -0.20186203000000003 0.84631837
v -2.0992926599999997 -0.19902704 0.84631837
v -2.0992926599999997 -0.19911751 0.9750609
v -2.14011327 -0.29717671 0.95250324
v -2.17814261 -0.26110573 0.9750609
v -2.1467241 -0.19448296 0.84631837
v -2.16339313 -0.19551846 0.92577429
v -2.16339313 -0.19547823 0.9750609
v -2.10259321 -0.19808202000000003 0.84631837
v -2.09938081 -0.19899686 0.85908424
v -2.11338597 -0.195247 0.9750609
v -2.11338597 -0.19500572 0.85908424
v -2.13003544 -0.19462372 0.84631837
v -2.1467241 -0.19469409 0.9750609
v -2.11338597 -0.19501577 0.84631837
v -2.13003544 -0.1948851 0.9750609
f 1 2 8
f 1 8 12
f 1 12 19
f 1 19 28
f 1 28 49
f 1 49 74
f 1 74 91
f 1 91 80
f 1 80 79
f 1 79 75
f 1 75 50
f 1 50 29
f 1 29 21
f 1 21 15
f 1 15 13
f 1 13 9
f 1 9 3
f 1 3 4
f 1 4 5
f 1 5 6
f 1 6 7
f 1 7 2
f 2 7 8
f 3 9 4
f 4 10 14
f 4 14 20
f 4 20 24
f 4 24 33
f 4 33 56
f 4 56 82
f 4 82 93
f 4 93 100
f 4 100 102
f 4 102 96
f 4 96 89
f 4 89 88
f 4 88 87
f 4 87 86
f 4 86 61
f 4 61 41
f 4 41 40
f 4 40 39
f 4 39 36
f 4 36 26
f 4 26 18
f 4 18 11
f 4 11 7
f 4 7 6
f 4 6 5
f 4 9 10
f 7 11 8
f 8 11 12
f 9 13 10
f 10 13 15
f 10 15 16
f 10 16 17
f 10 17 14
f 11 18 19
f 11 19 12
f 14 17 20
f 15 21 22
f 15 22 23
f 15 23 16
f 16 23 17
f 17 24 20
f 17 23 25
f 17 25 24
f 18 26 19
f 19 26 27
f 19 27 38
f 19 38 42
f 19 42 28
f 21 29 30
f 21 30 31
f 21 31 22
f 22 31 32
f 22 32 25
f 22 25 23
f 24 25 34
f 24 34 33
f 25 35 34
f 25 32 35
f 26 36 27
f 27 37 38
f 27 36 39
f 27 39 40
f 27 40 41
f 27 41 37
f 28 42 43
f 28 43 44
f 28 44 45
f 28 45 46
f 28 46 47
f 28 47 48
f 28 48 49
f 29 50 51
f 29 51 52
f 29 52 30
f 30 52 53
f 30 53 31
f 31 53 32
f 32 54 35
f 32 53 55
f 32 55 54
f 33 34 57
f 33 57 56
f 34 35 57
f 35 54 58
f 35 58 59
f 35 59 57
f 37 60 38
f 37 41 61
f 37 61 60
f 38 60 62
f 38 62 63
f 38 63 64
f 38 64 65
f 38 65 42
f 42 65 66
f 42 66 67
f 42 67 68
f 42 68 69
f 42 69 70
f 42 70 43
f 43 70 44
f 44 71 90
f 44 90 98
f 44 98 103
f 44 103 101
f 44 101 95
f 44 95 84
f 44 84 58
f 44 58 81
f 44 81 92
f 44 92 77
f 44 77 51
f 44 51 76
f 44 76 73
f 44 73 72
f 44 72 48
f 44 48 47
f 44 47 46
f 44 46 45
f 44 70 69
f 44 69 71
f 48 72 49
f 49 72 73
f 49 73 74
f 50 75 51
f 51 77 78
f 51 78 52
f 51 75 79
f 51 79 80
f 51 80 76
f 52 78 53
f 53 78 81
f 53 81 55
f 54 55 58
f 55 81 58
f 56 57 83
f 56 83 82
f 57 59 83
f 58 84 85
f 58 85 59
f 59 85 83
f 60 61 86
f 60 86 87
f 60 87 62
f 62 87 63
f 63 87 88
f 63 88 89
f 63 89 64
f 64 89 65
f 65 89 90
f 65 90 66
f 66 90 71
f 66 71 67
f 67 71 68
f 68 71 69
f 73 76 80
f 73 80 91
f 73 91 74
f 77 92 78
f 78 92 81
f 82 83 85
f 82 85 84
f 82 84 94
f 82 94 93
f 84 95 94
f 89 96 97
f 89 97 90
f 90 97 99
f 90 99 98
f 93 94 95
f 93 95 101
f 93 101 100
f 96 102 99
f 96 99 97
f 98 99 103
f 99 102 100
f 99 100 103
f 100 101 103

