# https://github.com/mikedh/trimesh
v -2.28874955 2.06270305 0.44716460
v -2.28874955 2.05466297 0.46987052
v -2.28874955 2.11368438 0.44716460
v -2.04823788 2.06453736 0.44716460
v -2.28874955 2.05466297 0.57215580
v -2.04823788 2.05466297 0.50434552
v -2.28874955 2.12154874 0.47020347
v -2.24802078 2.12159091 0.47020347
v -2.23135256 2.12158388 0.47020347
v -2.28062734 2.11367735 0.44716460
v -2.04823788 2.11329081 0.44716460
v -2.28874955 2.06453736 0.57798276
v -2.04823788 2.05466297 0.57118250
v -2.04823788 2.06551426 0.57798276
v -2.28874955 2.12372742 0.47758002
v -2.28874955 2.12646133 0.48687747
v -2.21468441 2.12155577 0.47020347
v -2.21371916 2.11361410 0.44716460
v -2.28135715 2.12645430 0.48687747
v -2.09805412 2.12107082 0.47020347
v -2.08138590 2.12097245 0.47020347
v -2.04823788 2.12075456 0.47020347
v -2.28874955 2.11560304 0.57798276
v -2.04823788 2.11546949 0.57798276
v -2.28874955 2.12540009 0.52019995
v -2.23135256 2.12540009 0.52019995
v -2.16472691 2.12538606 0.52019995
v -2.08138590 2.12535792 0.52019995
v -2.06471775 2.12534389 0.52019995
v -2.23135256 2.12636996 0.48687747
v -2.04823788 2.12605369 0.48687747
v -2.28874955 2.12310896 0.53686116
v -2.14805870 2.11565221 0.57798276
v -2.04823788 2.12292624 0.53686116
v -2.13139049 2.12310896 0.53686116
v -2.13139049 2.11563114 0.57798276
v -2.28874955 2.12438806 0.52757647
v -2.16472691 2.12312303 0.53686116
v -2.14805870 2.12312303 0.53686116
v -2.04823788 2.12525251 0.52019995
v -2.24802078 2.12311600 0.53686116
v -2.13918314 2.11564521 0.57798276
f 1 2 5
f 1 5 12
f 1 12 23
f 1 23 32
f 1 32 37
f 1 37 25
f 1 25 16
f 1 16 15
f 1 15 7
f 1 7 3
f 1 3 10
f 1 10 18
f 1 18 11
f 1 11 4
f 1 4 2
f 2 4 6
f 2 6 13
f 2 13 5
f 3 7 8
f 3 8 9
f 3 9 10
f 4 11 22
f 4 22 31
f 4 31 40
f 4 40 34
f 4 34 24
f 4 24 14
f 4 14 13
f 4 13 6
f 5 13 14
f 5 14 12
f 7 15 8
f 8 15 16
f 8 16 9
f 9 17 18
f 9 18 10
f 9 16 19
f 9 19 30
f 9 30 17
f 11 20 21
f 11 21 22
f 11 18 17
f 11 17 20
f 12 14 24
f 12 24 36
f 12 36 42
f 12 42 33
f 12 33 23
f 16 25 26
f 16 26 27
f 16 27 28
f 16 28 29
f 16 29 19
f 17 30 31
f 17 31 20
f 19 29 30
f 20 31 21
f 21 31 22
f 23 33 32
f 24 34 35
f 24 35 36
f 25 37 38
f 25 38 39
f 25 39 26
f 26 39 27
f 27 39 28
f 28 39 35
f 28 35 29
f 29 35 34
f 29 34 40
f 29 40 31
f 29 31 30
f 32 33 41
f 32 41 37
f 33 42 39
f 33 39 38
f 33 38 41
f 35 39 42
f 35 42 36
f 37 41 38

