# https://github.com/mikedh/trimesh
v 0.24735829 1.79499612 1.00702524
v 0.24773071 1.79499612 0.85637061
v 0.17824995 1.79499612 1.00702524
v 0.24732247 1.63918995 1.00702524
v 0.24768058 1.55495451 0.85637061
v 0.17507710 1.79499612 0.85637061
v 0.17506995 1.79417374 0.85637061
v 0.17461874 1.68909680 0.85637061
v 0.17752658 1.55495451 1.00702524
v 0.24731532 1.62253083 1.00702524
v 0.24723652 1.55495451 1.00702524
v 0.17472615 1.55495451 0.85637061
v 0.17456855 1.56916997 0.85637061
f 1 2 6
f 1 6 3
f 1 3 9
f 1 9 11
f 1 11 10
f 1 10 4
f 1 4 5
f 1 5 2
f 2 5 12
f 2 12 13
f 2 13 8
f 2 8 7
f 2 7 6
f 3 6 7
f 3 7 8
f 3 8 9
f 4 10 5
f 5 10 11
f 5 11 9
f 5 9 12
f 8 13 9
f 9 13 12

