# https://github.com/mikedh/trimesh
v 1.85948912 1.56443898 1.16271603
v 2.10895497 1.56443898 1.16281408
v 1.85948912 1.56443898 1.21980188
v 1.85948912 1.88899946 1.16444050
v 2.12327474 1.56443898 1.16283138
v 1.85948912 1.90562340 1.16453277
v 2.22613321 2.03750358 1.16560551
v 1.99238684 1.56443898 1.22008449
v 1.85948912 1.57291303 1.21984803
v 2.14226016 1.56443898 1.16287753
v 1.85948912 2.02796450 1.16536906
v 2.17373495 2.03750358 1.16558244
v 2.22613321 2.03750358 1.22146867
v 2.22613321 1.87232921 1.16500570
v 2.17369906 1.56443898 1.16296980
v 2.15643635 1.56443898 1.16291790
v 2.04230869 1.56443898 1.22018830
v 1.85948912 1.58907390 1.21989417
v 1.99238684 1.57240366 1.22011910
v 1.85948912 2.02796450 1.22103611
v 2.17373495 2.03750358 1.22106495
v 2.22613321 2.02231514 1.22157825
v 2.22613321 1.57249627 1.16402524
v 2.17369906 1.56443898 1.22032096
v 2.05102982 1.56443898 1.22020561
v 2.22613321 1.98902094 1.22160132
v 2.22613321 2.00564489 1.22163015
v 2.22613321 1.57249627 1.22036709
v 2.16766971 1.56443898 1.22033249
v 2.12560757 1.56443898 1.22032672
v 2.13436451 1.56443898 1.22033826
v 2.14226016 1.56443898 1.22034402
v 2.15101711 1.56443898 1.22034979
v 2.15894864 1.56443898 1.22034402
f 1 2 5
f 1 5 10
f 1 10 16
f 1 16 15
f 1 15 24
f 1 24 29
f 1 29 34
f 1 34 33
f 1 33 32
f 1 32 31
f 1 31 30
f 1 30 25
f 1 25 17
f 1 17 8
f 1 8 3
f 1 3 9
f 1 9 18
f 1 18 20
f 1 20 11
f 1 11 6
f 1 6 4
f 1 4 2
f 2 4 6
f 2 6 7
f 2 7 5
f 3 8 9
f 5 7 10
f 6 11 7
f 7 11 12
f 7 12 21
f 7 21 13
f 7 13 22
f 7 22 27
f 7 27 26
f 7 26 28
f 7 28 23
f 7 23 14
f 7 14 15
f 7 15 16
f 7 16 10
f 8 17 9
f 9 17 19
f 9 19 18
f 11 20 21
f 11 21 12
f 13 21 20
f 13 20 22
f 14 23 15
f 15 23 28
f 15 28 24
f 17 25 19
f 18 19 20
f 19 25 20
f 20 25 26
f 20 26 27
f 20 27 22
f 24 28 29
f 25 30 26
f 26 30 31
f 26 31 32
f 26 32 33
f 26 33 28
f 28 33 34
f 28 34 29

