# https://github.com/mikedh/trimesh
v -3.9024269149999995 -0.24151546000000002 1.78091021
v -3.9163492250000003 -0.260306 1.78091021
v -3.902773785 -0.22809242000000002 1.78091021
v -3.9054738650000003 -0.22844229 1.92554872
v -3.906964545 -0.23630154 1.92554872
v -3.9114365749999997 -0.24355494 1.92554872
v -3.9328215650000002 -0.27773119 1.78091021
v -3.921083735 -0.25614169 1.92554872
v -3.9277870649999995 -0.26447883 1.92554872
v -3.9361310649999997 -0.2744885 1.92554872
v -3.910995945 -0.21115361 1.78091021
v -3.9061957649999997 -0.21709287 1.92554872
v -3.949303325 -0.28354244 1.78091021
v -3.949303325 -0.28087149 1.92554872
v -3.919855545 -0.20083673000000002 1.78091021
v -3.9198086649999997 -0.20087088 1.79298817
v -3.919893055 -0.20093061 1.809668
v -3.913836655 -0.20875573 1.92554872
v -3.9660382050000003 -0.28255257 1.78091021
v -3.965972605 -0.28201496 1.92554872
v -3.9326246849999995 -0.19837912000000002 1.78091021
v -3.9198836950000002 -0.20092208 1.80750159
v -3.920033685 -0.20099887 1.82634777
v -3.914267925 -0.20830347 1.92554872
v -3.9826512349999996 -0.27971094 1.78091021
v -3.966816345 -0.28192962 1.92554872
v -3.982641815 -0.28016322 1.92554872
v -3.949303325 -0.19732953 1.78091021
v -3.965972605 -0.19709057000000002 1.92554872
v -3.9326340550000003 -0.19856687 1.809668
v -3.9326340550000003 -0.19868634000000002 1.82634777
v -3.920474315 -0.20122929 1.85969324
v -3.920718075 -0.20134023 1.87635888
v -3.9211774950000002 -0.20153648000000002 1.89303871
v -3.9216837250000003 -0.20174128000000002 1.90970434
v -3.9221712349999995 -0.20198024 1.92554872
v -3.991060845 -0.27551251 1.78091021
v -3.9832230749999997 -0.27986454 1.92554872
v -3.994210925 -0.2739253 1.78091021
v -3.965972605 -0.19636524 1.78091021
v -3.982641815 -0.19694551999999999 1.92554872
v -3.965119435 -0.19715886 1.92554872
v -3.9326340550000003 -0.19908739 1.85969324
v -3.9326340550000003 -0.19930073 1.87635888
v -3.9326340550000003 -0.19955674 1.89303871
v -3.9326340550000003 -0.19986392 1.90970434
v -3.932071575 -0.20034180000000001 1.92554872
v -3.9940609249999994 -0.27398503 1.92554872
v -3.997707935 -0.2610996 1.78091021
v -3.9941734049999997 -0.27385703 1.85969324
v -3.970557115 -0.19642498 1.78091021
v -3.9936390250000002 -0.20013702 1.92554872
v -3.9826512349999996 -0.19658711 1.78091021
v -3.949303325 -0.19854979 1.92554872
v -3.948459585 -0.19862661 1.92554872
v -3.9326340550000003 -0.20025648000000001 1.92554872
v -3.9971641250000003 -0.26175667 1.92554872
v -3.9975297850000002 -0.2610996 1.87635888
v -3.9975860249999995 -0.2610996 1.85969324
v -3.994154675 -0.27386557 1.87635888
v -3.9978204149999996 -0.25650863 1.78091021
v -3.997229785 -0.21109388 1.87635888
v -3.9938171650000003 -0.20070021 1.92554872
v -3.9936671749999997 -0.20011993 1.90970434
v -3.997464175 -0.21108535 1.78091021
v -3.9857075550000003 -0.19751725 1.78091021
v -3.9973235449999995 -0.2610996 1.92554872
v -3.997876655 -0.24443387 1.85969324
v -3.997932895 -0.24443387 1.8430276
v -3.9980172949999995 -0.24442534 1.78091021
v -3.998092315 -0.22776815 1.8430276
v -3.998045445 -0.22776815 1.85969324
v -3.997173545 -0.21109388 1.89303871
v -3.997107875 -0.21109388 1.90970434
v -3.9970234849999997 -0.21109388 1.92554872
v -3.9938078049999994 -0.20000046999999999 1.78091021
v -3.9982048050000003 -0.22776815 1.78091021
v -3.9975579349999997 -0.24443387 1.92554872
v -3.9980735349999996 -0.23985144 1.78091021
v -3.997689145 -0.22776815 1.92554872
v -3.997061005 -0.2119387 1.92554872
f 1 2 7
f 1 7 13
f 1 13 19
f 1 19 25
f 1 25 37
f 1 37 39
f 1 39 49
f 1 49 61
f 1 61 70
f 1 70 79
f 1 79 77
f 1 77 65
f 1 65 76
f 1 76 66
f 1 66 53
f 1 53 51
f 1 51 40
f 1 40 28
f 1 28 21
f 1 21 15
f 1 15 11
f 1 11 3
f 1 3 4
f 1 4 5
f 1 5 6
f 1 6 2
f 2 6 8
f 2 8 9
f 2 9 10
f 2 10 7
f 3 11 12
f 3 12 4
f 4 12 18
f 4 18 24
f 4 24 36
f 4 36 47
f 4 47 56
f 4 56 55
f 4 55 54
f 4 54 42
f 4 42 29
f 4 29 41
f 4 41 52
f 4 52 63
f 4 63 75
f 4 75 81
f 4 81 80
f 4 80 78
f 4 78 67
f 4 67 57
f 4 57 48
f 4 48 38
f 4 38 27
f 4 27 26
f 4 26 20
f 4 20 14
f 4 14 10
f 4 10 9
f 4 9 8
f 4 8 6
f 4 6 5
f 7 10 14
f 7 14 13
f 11 15 16
f 11 16 12
f 12 17 18
f 12 16 17
f 13 14 20
f 13 20 19
f 15 21 16
f 16 21 22
f 16 22 17
f 17 23 24
f 17 24 18
f 17 22 21
f 17 21 23
f 19 20 26
f 19 26 27
f 19 27 25
f 21 28 29
f 21 29 30
f 21 30 23
f 23 30 31
f 23 31 32
f 23 32 24
f 24 32 33
f 24 33 34
f 24 34 35
f 24 35 36
f 25 27 37
f 27 38 39
f 27 39 37
f 28 40 29
f 29 42 31
f 29 31 30
f 29 40 41
f 31 43 33
f 31 33 32
f 31 42 43
f 33 43 44
f 33 44 45
f 33 45 34
f 34 45 35
f 35 45 46
f 35 46 36
f 36 46 47
f 38 48 39
f 39 48 50
f 39 50 49
f 40 51 41
f 41 51 53
f 41 53 52
f 42 54 44
f 42 44 43
f 44 54 45
f 45 54 55
f 45 55 46
f 46 55 56
f 46 56 47
f 48 57 58
f 48 58 59
f 48 59 49
f 48 49 60
f 48 60 50
f 49 50 60
f 49 59 61
f 52 62 63
f 52 53 64
f 52 64 65
f 52 65 62
f 53 66 64
f 57 67 58
f 58 68 69
f 58 69 59
f 58 67 68
f 59 69 61
f 61 69 70
f 62 71 72
f 62 72 73
f 62 73 63
f 62 65 71
f 63 74 75
f 63 73 74
f 64 66 76
f 64 76 65
f 65 77 71
f 67 78 68
f 68 78 72
f 68 72 69
f 69 72 71
f 69 71 77
f 69 77 79
f 69 79 70
f 72 80 81
f 72 81 74
f 72 74 73
f 72 78 80
f 74 81 75

