# https://github.com/mikedh/trimesh
v 2.31865574 2.10568597 1.55352810
v 2.31814325 2.11735978 1.55352810
v 2.31803537 2.11708435 1.65478457
v 2.31841291 2.10568597 1.65478457
v 2.31771171 2.09007149 1.65478457
v 2.31790042 2.08904041 1.53690548
v 2.31865574 2.10568597 1.53690548
v 2.31131936 2.12542480 1.65478457
v 2.31754089 2.11771995 1.65478457
v 2.31813419 2.11735978 1.53690548
v 2.31731611 2.08236663 1.65478457
v 2.31728011 2.08173810 1.65478457
v 2.31738806 2.08055869 1.53690548
v 2.31739700 2.08051634 1.52024061
v 2.31788254 2.08904041 1.52024061
v 2.31832302 2.10568597 1.43902842
v 2.31806231 2.11558012 1.43902842
v 2.31801737 2.11704200 1.43902842
v 2.31098671 2.12536830 1.43902842
v 2.30298508 2.13115226 1.65478457
v 2.31712729 2.11810130 1.43902842
v 2.31221845 2.07236656 1.65478457
v 2.30896383 2.05930151 1.57019298
v 2.30951225 2.05930151 1.53690548
v 2.31736100 2.08059400 1.50963763
v 2.31824208 2.10410405 1.43902842
v 2.30266142 2.13107457 1.43902842
v 2.29233126 2.13144886 1.65478457
v 2.30393810 2.06100350 1.65478457
v 2.30258054 2.05930151 1.65478457
v 2.30947631 2.05930151 1.53325145
v 2.31763971 2.09339778 1.43902842
v 2.31700140 2.08506439 1.43902842
v 2.30133986 2.13110282 1.43902842
v 2.27948373 2.13097568 1.65351730
v 2.27946573 2.13097568 1.65478457
v 2.29233126 2.13128643 1.45358113
v 2.25470564 2.05930151 1.65478457
v 2.30169045 2.05930151 1.43902842
v 2.31126542 2.07236656 1.43902842
v 2.31628220 2.08345422 1.43902842
v 2.29233126 2.13125112 1.43902842
v 2.27115844 2.13042484 1.65351730
v 2.28201909 2.13090508 1.45358113
v 2.27114044 2.13042484 1.65478457
v 2.22682588 2.07904034 1.65478457
v 2.22682588 2.05930857 1.60179073
v 2.24584993 2.05930151 1.60652194
v 2.24584993 2.05930151 1.43902842
v 2.28223486 2.13087683 1.43902842
v 2.22682588 2.12606040 1.53690548
v 2.22682588 2.12548131 1.55352810
v 2.22682588 2.12457028 1.57019298
v 2.22682588 2.11480326 1.65467895
v 2.25902117 2.12559429 1.65478457
v 2.22682588 2.08240195 1.65478457
v 2.22682588 2.05930857 1.53838399
v 2.24145358 2.05930857 1.43902842
v 2.27497043 2.13007174 1.43902842
v 2.27390058 2.12994460 1.43902842
v 2.22682588 2.11497275 1.43902842
v 2.24108492 2.11756459 1.65478457
v 2.22682588 2.06523373 1.43902842
f 1 2 3
f 1 3 4
f 1 4 5
f 1 5 6
f 1 6 7
f 1 7 2
f 2 8 9
f 2 9 3
f 2 7 10
f 2 10 8
f 3 9 8
f 3 8 20
f 3 20 28
f 3 28 36
f 3 36 45
f 3 45 55
f 3 55 62
f 3 62 56
f 3 56 46
f 3 46 38
f 3 38 30
f 3 30 29
f 3 29 22
f 3 22 12
f 3 12 11
f 3 11 5
f 3 5 4
f 5 11 6
f 6 11 12
f 6 12 13
f 6 13 14
f 6 14 15
f 6 15 7
f 7 15 16
f 7 16 17
f 7 17 18
f 7 18 10
f 8 10 19
f 8 19 20
f 10 18 21
f 10 21 19
f 12 22 23
f 12 23 24
f 12 24 13
f 13 24 14
f 14 25 15
f 14 24 25
f 15 25 26
f 15 26 16
f 16 26 32
f 16 32 33
f 16 33 41
f 16 41 40
f 16 40 39
f 16 39 49
f 16 49 58
f 16 58 63
f 16 63 61
f 16 61 60
f 16 60 59
f 16 59 50
f 16 50 42
f 16 42 34
f 16 34 27
f 16 27 19
f 16 19 21
f 16 21 18
f 16 18 17
f 19 27 20
f 20 27 28
f 22 29 23
f 23 29 30
f 23 30 38
f 23 38 48
f 23 48 49
f 23 49 39
f 23 39 31
f 23 31 24
f 24 31 25
f 25 32 26
f 25 31 33
f 25 33 32
f 27 34 28
f 28 35 36
f 28 34 37
f 28 37 35
f 31 39 40
f 31 40 41
f 31 41 33
f 34 42 37
f 35 43 45
f 35 45 36
f 35 37 44
f 35 44 43
f 37 42 44
f 38 46 47
f 38 47 48
f 42 50 44
f 43 44 51
f 43 51 45
f 44 50 51
f 45 51 52
f 45 52 53
f 45 53 54
f 45 54 55
f 46 56 54
f 46 54 53
f 46 53 52
f 46 52 51
f 46 51 61
f 46 61 63
f 46 63 57
f 46 57 47
f 47 57 49
f 47 49 48
f 49 57 58
f 50 59 51
f 51 59 60
f 51 60 61
f 54 56 62
f 54 62 55
f 57 63 58

