# https://github.com/mikedh/trimesh
v -2.59798262 2.11542813 1.62016137
v -2.79801007 2.11523957 1.62016137
v -2.59798262 2.11530498 1.65480566
v -2.34812818 2.11517415 1.65480566
v -1.89689720 2.11502019 1.61825419
v -2.04655803 2.11496246 1.61825419
v -2.61462160 2.11527804 1.65480566
v -2.81464905 2.11519722 1.62016137
v -2.81572835 2.11494705 1.65480566
v -2.33139928 2.11515874 1.65480566
v -1.89689720 2.11480853 1.65471619
v -1.89689720 2.07611476 1.61825419
v -2.04655803 2.07747716 1.61825419
v -2.81572835 2.11519337 1.62016137
v -2.81572835 2.08039054 1.65480566
v -1.89806642 2.11458531 1.65480566
v -1.89689720 2.08239950 1.65480566
v -1.89689720 2.07903583 1.65480566
v -2.81572835 2.07816989 1.62016137
f 1 2 3
f 1 3 4
f 1 4 5
f 1 5 6
f 1 6 2
f 2 7 3
f 2 6 8
f 2 8 9
f 2 9 7
f 3 7 9
f 3 9 15
f 3 15 18
f 3 18 17
f 3 17 16
f 3 16 10
f 3 10 4
f 4 10 11
f 4 11 5
f 5 11 17
f 5 17 18
f 5 18 12
f 5 12 13
f 5 13 6
f 6 13 19
f 6 19 14
f 6 14 8
f 8 14 9
f 9 14 19
f 9 19 15
f 10 16 11
f 11 16 17
f 12 18 15
f 12 15 19
f 12 19 13

