# https://github.com/mikedh/trimesh
v 0.37549909 1.78778193 0.78696564
v 0.32727723 1.78778193 0.78696564
v 0.37542595 1.77215305 0.78696564
v 0.37249988 1.55611112 0.58678345
v 0.37400193 1.94267063 0.58694024
v 0.37521137 1.94270848 0.78557427
v 0.32567767 1.55611112 0.78696564
v 0.32789659 1.94270848 0.78557427
v 0.37529428 1.75550241 0.78696564
v 0.33263198 1.55611112 0.58678345
v 0.37323624 1.78778193 0.58678345
v 0.37401164 1.60557106 0.78696564
v 0.37384588 1.58892043 0.78696564
v 0.37347520 1.55611112 0.78696564
v 0.37354350 1.94270848 0.58694024
v 0.33426087 1.94270848 0.58694024
v 0.33442663 1.78778193 0.58678345
f 1 2 7
f 1 7 14
f 1 14 13
f 1 13 12
f 1 12 9
f 1 9 3
f 1 3 4
f 1 4 5
f 1 5 6
f 1 6 8
f 1 8 2
f 2 8 7
f 3 9 4
f 4 10 17
f 4 17 11
f 4 11 5
f 4 9 12
f 4 12 13
f 4 13 14
f 4 14 7
f 4 7 10
f 5 15 6
f 5 11 15
f 6 15 16
f 6 16 8
f 7 8 16
f 7 16 10
f 10 16 17
f 11 17 16
f 11 16 15

