# https://github.com/mikedh/trimesh
v 0.15270783 2.06599132 0.18173477
v 0.12456085 2.06614400 0.18173477
v 0.15270783 2.13098459 0.18173477
v 0.15270783 2.07324390 0.40778507
v 0.12456085 2.07615129 0.39151215
v 0.12456085 2.13007484 0.18173477
v 0.15270783 2.12412010 0.40817310
v 0.15270783 2.07326297 0.40817310
v 0.12456085 2.07643122 0.39631400
v 0.12456085 2.11983217 0.40817310
v 0.15270783 2.12085643 0.42466424
v 0.12456085 2.07743003 0.40817310
v 0.15270783 2.07550874 0.42400947
v 0.12456085 2.11672755 0.41942590
v 0.15270783 2.11725559 0.42944183
v 0.15270783 2.07553419 0.42415497
v 0.12456085 2.07813620 0.41118030
v 0.12456085 2.10584234 0.42354867
v 0.14824168 2.10584234 0.42944183
v 0.15270783 2.07945949 0.42944183
v 0.12456085 2.07977123 0.41789804
v 0.12456085 2.08918684 0.42202081
v 0.14835189 2.08918684 0.42944183
v 0.12456085 2.08260226 0.41923188
f 1 2 6
f 1 6 3
f 1 3 7
f 1 7 11
f 1 11 15
f 1 15 20
f 1 20 16
f 1 16 13
f 1 13 8
f 1 8 4
f 1 4 2
f 2 5 9
f 2 9 12
f 2 12 17
f 2 17 21
f 2 21 24
f 2 24 22
f 2 22 18
f 2 18 14
f 2 14 10
f 2 10 6
f 2 4 5
f 3 6 7
f 4 8 5
f 5 8 9
f 6 10 7
f 7 10 11
f 8 12 9
f 8 13 12
f 10 14 11
f 11 14 15
f 12 13 16
f 12 16 17
f 14 18 15
f 15 18 19
f 15 19 23
f 15 23 20
f 16 20 21
f 16 21 17
f 18 22 23
f 18 23 19
f 20 23 22
f 20 22 24
f 20 24 21

