# https://github.com/mikedh/trimesh
v -3.949293785 -0.29958425 0.094285
v -3.9826445550000003 -0.27803915 0.07863541
v -3.979273395 -0.27879548 0.07863541
v -3.961531175 -0.27997085 0.07863541
v -3.949293785 -0.27985842 0.07863541
v -3.944178645 -0.29958425 0.09466402
v -3.9611901449999998 -0.29958425 0.09735378
v -3.991929755 -0.2742575 0.07863541
v -3.945123725 -0.27864216 0.07863541
v -3.9326329749999998 -0.29958425 0.09597225
v -3.966490405 -0.29958425 0.10861419
v -3.9942973449999997 -0.2732661 0.07863541
v -3.9347180449999994 -0.27499339 0.07863541
v -3.9295638950000003 -0.29958425 0.09669356
v -3.9685364649999997 -0.29958425 0.1252908
v -3.9977853449999996 -0.26110355 0.07863541
v -3.9687410949999995 -0.29958425 0.13684457
v -3.9688287649999996 -0.29958425 0.14195518
v -3.9944045150000003 -0.27363404 0.1252908
v -3.928404465 -0.26844197000000003 0.07863541
v -3.9224027049999997 -0.29958425 0.09904104
v -3.997970475 -0.24444391000000001 0.07863541
v -3.9978535749999997 -0.26110355 0.1252908
v -3.9944045150000003 -0.27365449000000003 0.14195518
v -3.9685851850000002 -0.29958425 0.15863179
v -3.994151165 -0.27338875 0.20353879
v -3.9245364350000003 -0.26436393 0.07863541
v -3.8984930349999996 -0.27357273 0.09882096
v -3.8984930349999996 -0.28152438 0.10361362
v -3.8984930349999996 -0.29958425 0.11817511
v -3.9979607550000003 -0.24444391000000001 0.09193758
v -3.997999695 -0.22776381 0.10861419
v -3.997980255 -0.24106087 0.07863541
v -3.9978437949999996 -0.26110355 0.14195518
v -3.994209605 -0.27341942 0.19198501
v -3.9669191049999997 -0.29958425 0.17018557
v -3.966042205 -0.29958425 0.1753084
v -3.962369075 -0.29958425 0.1830109
v -3.960693215 -0.29958425 0.18607968
v -3.986210515 -0.27702731 0.20353879
v -3.996470015 -0.2648954 0.20353879
v -3.919791545 -0.2580578 0.07863541
v -3.8984930349999996 -0.27318435 0.09863756
v -3.8984930349999996 -0.29958425 0.1206448
v -3.997921745 -0.24444391000000001 0.1252908
v -3.998009475 -0.22776381 0.09193758
v -3.9979120249999998 -0.22776381 0.1753084
v -3.997210525 -0.21108374000000002 0.1753084
v -3.9979899749999994 -0.22776381 0.07863541
v -3.9975709950000002 -0.26110355 0.19198501
v -3.9976976749999995 -0.24956444 0.20353879
v -3.9977561249999995 -0.24444391000000001 0.20353879
v -3.997863295 -0.22776381 0.20353879
v -3.9526843949999995 -0.29958425 0.1881215
v -3.9826445550000003 -0.27862173 0.20353879
v -3.9975028249999998 -0.26110355 0.20353879
v -3.915241505 -0.24853216 0.07863541
v -3.9138774549999997 -0.24444391000000001 0.07863541
v -3.8984930349999996 -0.26170657 0.09583776
v -3.8984930349999996 -0.29950249 0.16397464
v -3.899272485 -0.29958425 0.16395019
v -3.9971910150000003 -0.21108374000000002 0.09193758
v -3.997210525 -0.21108374000000002 0.15863179
v -3.997385865 -0.2162247 0.20353879
v -3.997171515 -0.21108374000000002 0.20353879
v -3.9937516849999994 -0.19999433 0.15863179
v -3.993712735 -0.20000456 0.20353879
v -3.9978243549999997 -0.224391 0.07863541
v -3.949293785 -0.29958425 0.1886717
v -3.965925305 -0.28077827 0.20353879
v -3.9118801249999997 -0.23233244 0.07863541
v -3.8984930349999996 -0.26110355 0.09573995
v -3.8984930349999996 -0.27314346 0.18561508
v -3.9374168750000003 -0.29958425 0.18625085
v -3.993644505 -0.20010675 0.07863541
v -3.997152075 -0.21108374000000002 0.07863541
v -3.993741965 -0.20001479 0.14195518
v -3.9826445550000003 -0.19624337 0.15863179
v -3.9826445550000003 -0.19620248 0.20353879
v -3.949293785 -0.28119732000000003 0.20353879
v -3.9117534449999996 -0.22768206000000002 0.07863541
v -3.8984930349999996 -0.24345251 0.0957155
v -3.8984930349999996 -0.26110355 0.18892839
v -3.911889845 -0.24444391000000001 0.20353879
v -3.918563885 -0.25890611 0.20353879
v -3.9342503950000003 -0.27572927 0.20353879
v -3.9826445550000003 -0.19651933 0.07863541
v -3.9826445550000003 -0.19629445 0.14195518
v -3.9775099149999997 -0.19588564 0.20353879
v -3.9659740349999995 -0.19518041000000003 0.20353879
v -3.9659740349999995 -0.19520087000000003 0.19198501
v -3.913068775 -0.21443609000000002 0.07863541
v -3.8984930349999996 -0.24283926 0.09583776
v -3.8984930349999996 -0.24294147 0.18946636
v -3.910184815 -0.22752875 0.20353879
v -3.9659740349999995 -0.19542571 0.1252908
v -3.9659740349999995 -0.19548703 0.10861419
v -3.9659740349999995 -0.19556879 0.09193758
v -3.9659740349999995 -0.19565056 0.07863541
v -3.9659740349999995 -0.19525195 0.1753084
v -3.949293785 -0.19526218 0.20353879
v -3.949293785 -0.19529283 0.19198501
v -3.913750835 -0.21108374000000002 0.07863541
v -3.8984930349999996 -0.23441746000000002 0.09938338
v -3.8984930349999996 -0.24078491000000002 0.18869615
v -3.912308825 -0.21108374000000002 0.20353879
v -3.949293785 -0.19573233 0.09193758
v -3.949293785 -0.19579364 0.07863541
v -3.9526746150000003 -0.19576299000000003 0.07863541
v -3.9326329749999998 -0.19543594 0.20353879
v -3.918612615 -0.20191582000000002 0.07863541
v -3.8984930349999996 -0.23110596 0.10862641
v -3.8984930349999996 -0.23117751 0.17893954
v -3.914384105 -0.20742474 0.20353879
v -3.8984930349999996 -0.23067669000000002 0.17798594
v -3.8984930349999996 -0.23028831 0.17671438
v -3.9326329749999998 -0.19548703 0.19198501
v -3.936004145 -0.1960696 0.07863541
v -3.9284824249999994 -0.19658064 0.20353879
v -3.919177715 -0.19919713 0.19198501
v -3.919888995 -0.19958552000000002 0.07863541
v -3.8984930349999996 -0.22981817000000002 0.12472838
v -3.9191095449999995 -0.19916648 0.20353879
v -3.8984930349999996 -0.22949111 0.15863179
v -3.9224903749999998 -0.19888029000000002 0.07863541
v -3.9326329749999998 -0.19614117 0.07863541
v -3.8984930349999996 -0.22958309 0.14195518
v -3.919742815 -0.19957529000000002 0.09193758
v -3.8984930349999996 -0.2297875 0.1252908
f 1 2 3
f 1 3 4
f 1 4 5
f 1 5 6
f 1 6 10
f 1 10 14
f 1 14 21
f 1 21 30
f 1 30 44
f 1 44 61
f 1 61 74
f 1 74 69
f 1 69 54
f 1 54 39
f 1 39 38
f 1 38 37
f 1 37 36
f 1 36 25
f 1 25 18
f 1 18 17
f 1 17 15
f 1 15 11
f 1 11 7
f 1 7 2
f 2 8 12
f 2 12 16
f 2 16 22
f 2 22 33
f 2 33 49
f 2 49 68
f 2 68 76
f 2 76 75
f 2 75 87
f 2 87 99
f 2 99 109
f 2 109 108
f 2 108 118
f 2 118 126
f 2 126 125
f 2 125 121
f 2 121 111
f 2 111 103
f 2 103 92
f 2 92 81
f 2 81 71
f 2 71 58
f 2 58 57
f 2 57 42
f 2 42 27
f 2 27 20
f 2 20 13
f 2 13 9
f 2 9 5
f 2 5 4
f 2 4 3
f 2 7 8
f 5 9 10
f 5 10 6
f 7 11 12
f 7 12 8
f 9 13 14
f 9 14 10
f 11 15 12
f 12 15 17
f 12 17 18
f 12 18 19
f 12 19 16
f 13 20 21
f 13 21 14
f 16 19 23
f 16 23 22
f 18 24 19
f 18 25 26
f 18 26 24
f 19 24 23
f 20 27 21
f 21 28 29
f 21 29 30
f 21 27 28
f 22 31 32
f 22 32 33
f 22 23 34
f 22 34 31
f 23 24 34
f 24 26 35
f 24 35 34
f 25 36 26
f 26 36 37
f 26 37 38
f 26 38 39
f 26 39 40
f 26 40 55
f 26 55 70
f 26 70 80
f 26 80 86
f 26 86 85
f 26 85 84
f 26 84 95
f 26 95 106
f 26 106 114
f 26 114 123
f 26 123 119
f 26 119 110
f 26 110 101
f 26 101 90
f 26 90 89
f 26 89 79
f 26 79 67
f 26 67 65
f 26 65 64
f 26 64 53
f 26 53 52
f 26 52 51
f 26 51 56
f 26 56 41
f 26 41 35
f 27 42 43
f 27 43 28
f 28 43 59
f 28 59 72
f 28 72 82
f 28 82 93
f 28 93 104
f 28 104 112
f 28 112 122
f 28 122 129
f 28 129 127
f 28 127 124
f 28 124 116
f 28 116 115
f 28 115 113
f 28 113 105
f 28 105 94
f 28 94 83
f 28 83 73
f 28 73 60
f 28 60 44
f 28 44 30
f 28 30 29
f 31 34 45
f 31 45 32
f 32 46 33
f 32 45 47
f 32 47 48
f 32 48 46
f 33 46 49
f 34 35 50
f 34 50 51
f 34 51 52
f 34 52 53
f 34 53 47
f 34 47 45
f 35 41 50
f 39 54 55
f 39 55 40
f 41 56 50
f 42 57 43
f 43 57 58
f 43 58 59
f 44 60 61
f 46 62 49
f 46 48 63
f 46 63 62
f 47 53 64
f 47 64 65
f 47 65 48
f 48 66 63
f 48 65 67
f 48 67 66
f 49 62 68
f 50 56 51
f 54 69 55
f 55 69 70
f 58 71 72
f 58 72 59
f 60 73 74
f 60 74 61
f 62 75 76
f 62 76 68
f 62 63 66
f 62 66 77
f 62 77 75
f 66 78 77
f 66 67 79
f 66 79 78
f 69 74 80
f 69 80 70
f 71 81 72
f 72 81 82
f 73 83 84
f 73 84 85
f 73 85 86
f 73 86 74
f 74 86 80
f 75 77 78
f 75 78 88
f 75 88 87
f 78 79 89
f 78 89 90
f 78 90 91
f 78 91 100
f 78 100 88
f 81 92 82
f 82 92 93
f 83 94 95
f 83 95 84
f 87 96 97
f 87 97 98
f 87 98 99
f 87 88 96
f 88 100 96
f 90 101 91
f 91 101 102
f 91 102 100
f 92 103 93
f 93 103 104
f 94 105 106
f 94 106 95
f 96 100 102
f 96 102 97
f 97 102 107
f 97 107 108
f 97 108 98
f 98 108 109
f 98 109 99
f 101 110 102
f 102 110 107
f 103 111 112
f 103 112 104
f 105 113 106
f 106 113 115
f 106 115 116
f 106 116 114
f 107 110 117
f 107 117 108
f 108 117 118
f 110 119 120
f 110 120 117
f 111 121 112
f 112 121 122
f 114 116 123
f 116 124 123
f 117 120 121
f 117 121 125
f 117 125 126
f 117 126 118
f 119 123 120
f 120 123 127
f 120 127 128
f 120 128 121
f 121 128 129
f 121 129 122
f 123 124 127
f 127 129 128

