# https://github.com/mikedh/trimesh
v 2.29334782 1.79160571 1.01364157
v 2.29335217 1.79160571 1.01207846
v 2.25433150 1.79160571 1.01364157
v 2.29609461 1.56112258 1.01364157
v 2.29620261 1.56112258 1.00353209
v 2.29635806 1.56112258 0.98686564
v 2.29640992 1.56112258 0.97019920
v 2.29336946 1.79160571 1.00353209
v 2.25229736 1.79160571 0.90994829
v 2.25403348 1.56112258 1.01364157
v 2.29641421 1.56112258 0.96605797
v 2.29337375 1.79160571 1.00095397
v 2.29318373 1.79160571 0.90994829
v 2.25262554 1.56112258 0.90994829
v 2.29641421 1.56112258 0.94938138
v 2.29338668 1.79160571 0.98686564
v 2.29327010 1.79160571 0.93429835
v 2.29634513 1.56112258 0.93247133
v 2.29625011 1.56112258 0.91549023
v 2.29621554 1.56112258 0.90994829
v 2.29327874 1.79160571 0.93687647
v 2.29333054 1.79160571 0.95354291
v 2.29336511 1.79160571 0.97019920
f 1 2 8
f 1 8 12
f 1 12 16
f 1 16 23
f 1 23 22
f 1 22 21
f 1 21 17
f 1 17 13
f 1 13 9
f 1 9 3
f 1 3 10
f 1 10 4
f 1 4 5
f 1 5 6
f 1 6 7
f 1 7 2
f 2 7 8
f 3 9 10
f 4 10 14
f 4 14 20
f 4 20 19
f 4 19 18
f 4 18 15
f 4 15 11
f 4 11 7
f 4 7 6
f 4 6 5
f 7 11 12
f 7 12 8
f 9 13 20
f 9 20 14
f 9 14 10
f 11 15 16
f 11 16 12
f 13 17 15
f 13 15 18
f 13 18 19
f 13 19 20
f 15 17 21
f 15 21 22
f 15 22 23
f 15 23 16

