# https://github.com/mikedh/trimesh
v 0.75874774 1.94270846 0.89320908
v 0.75874774 1.94270846 0.83707612
v 0.74598176 1.94270846 0.89659745
v 0.75874774 1.94264783 0.89664178
v 0.75874774 1.90590296 0.83701279
v 0.39651317 1.87235658 0.83197140
v 0.39651317 1.88901607 0.83202206
v 0.39651317 1.94269331 0.83228173
v 0.39651317 1.94270846 0.83245273
v 0.52569774 1.94270846 0.89633778
v 0.75874774 1.93902488 0.89664811
v 0.75874774 1.80591565 0.83698112
v 0.39651317 1.78787670 0.83204740
v 0.75874774 1.80570342 0.83698112
v 0.39651317 1.94270846 0.89600845
v 0.51271902 1.94270846 0.89630611
v 0.72562714 1.78784638 0.89657845
v 0.74229387 1.78784638 0.89661011
v 0.75874774 1.90569073 0.89666711
v 0.75874774 1.92235023 0.89666078
v 0.39665497 1.78784638 0.83228173
v 0.39651317 1.78784638 0.83231340
v 0.75874774 1.78786154 0.83700012
v 0.39651317 1.78784638 0.89508376
v 0.47569768 1.78784638 0.89586277
v 0.49236435 1.78784638 0.89593244
v 0.75779031 1.78784638 0.89662911
v 0.75874774 1.78784638 0.89662911
v 0.74346404 1.78784638 0.83719646
v 0.75874774 1.78784638 0.84772891
f 1 2 9
f 1 9 15
f 1 15 16
f 1 16 10
f 1 10 3
f 1 3 4
f 1 4 11
f 1 11 20
f 1 20 19
f 1 19 28
f 1 28 30
f 1 30 23
f 1 23 14
f 1 14 12
f 1 12 5
f 1 5 2
f 2 5 6
f 2 6 7
f 2 7 8
f 2 8 9
f 3 10 4
f 4 10 11
f 5 12 6
f 6 13 22
f 6 22 24
f 6 24 15
f 6 15 9
f 6 9 8
f 6 8 7
f 6 12 14
f 6 14 13
f 10 16 17
f 10 17 18
f 10 18 19
f 10 19 20
f 10 20 11
f 13 21 22
f 13 14 23
f 13 23 21
f 15 24 25
f 15 25 26
f 15 26 17
f 15 17 16
f 17 26 25
f 17 25 24
f 17 24 22
f 17 22 21
f 17 21 29
f 17 29 30
f 17 30 28
f 17 28 27
f 17 27 18
f 18 27 19
f 19 27 28
f 21 23 29
f 23 30 29

