# https://github.com/mikedh/trimesh
v 1.30798641 2.08038571 1.65482671
v 1.30907462 2.08132858 1.83687005
v 1.30798641 2.08132515 1.83577468
v 1.30798641 2.11495141 1.65482671
v 1.34234331 2.08036852 1.65482671
v 1.50907530 2.08234371 1.87000519
v 1.30907462 2.08183784 1.85353242
v 1.30798641 2.08180688 1.85243706
v 1.30798641 2.08133204 1.83687005
v 1.34366472 2.08036852 1.65482671
v 1.66064986 2.08045799 1.65482671
v 1.90899892 2.08061284 1.65482671
v 1.77561332 2.08159355 1.82020767
v 1.32570898 2.08134235 1.83687005
v 2.10192609 2.08236434 1.87000519
v 1.30798641 2.11498237 1.70354996
v 1.52570964 2.11550887 1.87000519
v 1.50907530 2.11528177 1.65482671
v 1.50884211 2.08234371 1.87000519
v 1.32547577 2.08236779 1.87000519
v 1.30798641 2.08184130 1.85353242
v 2.04238451 2.08095694 1.65482671
v 1.77561332 2.08172087 1.83687005
v 2.05948522 2.08100856 1.65482671
v 2.07565317 2.08111522 1.65482671
v 2.07689689 2.08112556 1.65482671
v 2.10192609 2.08133546 1.65482671
v 2.10192609 2.11480344 1.87000519
v 1.30798641 2.11504433 1.87000519
v 1.54234397 2.11551921 1.87000519
v 1.52446595 2.11530585 1.65482671
v 1.30798641 2.08244692 1.87000519
v 1.30798641 2.08241253 1.86912047
v 2.10192609 2.11459700 1.65482671
v 1.99232604 2.11486194 1.65482671
v 1.90915437 2.11526455 1.87000519
v 1.52570964 2.11530585 1.65482671
v 1.62590430 2.11550544 1.87000519
v 1.79100396 2.11516131 1.65482671
v 1.89228683 2.11528520 1.87000519
v 1.77561332 2.11517508 1.65482671
v 1.72586576 2.11542974 1.87000519
v 1.77561332 2.11523015 1.70354996
v 1.79232538 2.11521293 1.70354996
f 1 2 3
f 1 3 9
f 1 9 8
f 1 8 21
f 1 21 33
f 1 33 32
f 1 32 29
f 1 29 16
f 1 16 4
f 1 4 18
f 1 18 31
f 1 31 37
f 1 37 41
f 1 41 39
f 1 39 35
f 1 35 34
f 1 34 27
f 1 27 26
f 1 26 25
f 1 25 24
f 1 24 22
f 1 22 12
f 1 12 11
f 1 11 10
f 1 10 5
f 1 5 2
f 2 6 7
f 2 7 8
f 2 8 9
f 2 9 3
f 2 5 10
f 2 10 11
f 2 11 12
f 2 12 13
f 2 13 14
f 2 14 15
f 2 15 6
f 4 16 17
f 4 17 18
f 6 19 7
f 6 15 28
f 6 28 36
f 6 36 40
f 6 40 42
f 6 42 38
f 6 38 30
f 6 30 17
f 6 17 29
f 6 29 32
f 6 32 20
f 6 20 19
f 7 20 21
f 7 21 8
f 7 19 20
f 12 22 15
f 12 15 13
f 13 15 23
f 13 23 14
f 14 23 15
f 15 22 24
f 15 24 25
f 15 25 26
f 15 26 27
f 15 27 34
f 15 34 28
f 16 29 17
f 17 30 31
f 17 31 18
f 20 32 33
f 20 33 21
f 28 34 35
f 28 35 36
f 30 37 31
f 30 38 37
f 35 39 36
f 36 39 40
f 37 38 41
f 38 42 43
f 38 43 41
f 39 41 43
f 39 43 44
f 39 44 40
f 40 44 43
f 40 43 42

