# https://github.com/mikedh/trimesh
v 1.84577559 1.61607007 1.93137891
v 1.85883996 1.55908924 1.93137891
v 1.83657518 1.61607007 1.90411964
v 1.78866974 1.61607007 1.93137891
v 1.84023583 1.55908924 1.90119512
v 1.83190583 1.61607007 1.89578458
v 1.77573551 1.55908924 1.93137891
v 1.79699157 1.61607007 1.90354708
v 1.83422423 1.55908924 1.89517578
v 1.83401275 1.58133832 1.89520474
v 1.82672400 1.61607007 1.89505615
v 1.79823618 1.61607007 1.90029639
v 1.80030242 1.61607007 1.89492567
v 1.79272896 1.55908924 1.90319916
v 1.83251595 1.55908924 1.89506706
v 1.82566649 1.57236395 1.89467205
v 1.82357590 1.61607007 1.89465751
v 1.80900659 1.61607007 1.89437123
v 1.79970858 1.55908924 1.89487859
v 1.82566649 1.55908924 1.89471914
v 1.82226619 1.55908924 1.89465393
v 1.80900659 1.57236395 1.89435674
v 1.81457886 1.61607007 1.89447631
v 1.80900659 1.55908924 1.89442195
f 1 2 3
f 1 3 6
f 1 6 11
f 1 11 17
f 1 17 23
f 1 23 18
f 1 18 13
f 1 13 12
f 1 12 8
f 1 8 4
f 1 4 7
f 1 7 2
f 2 5 6
f 2 6 3
f 2 7 14
f 2 14 19
f 2 19 24
f 2 24 21
f 2 21 20
f 2 20 15
f 2 15 9
f 2 9 5
f 4 8 7
f 5 9 10
f 5 10 6
f 6 10 11
f 7 8 12
f 7 12 13
f 7 13 14
f 9 15 10
f 10 15 16
f 10 16 17
f 10 17 11
f 13 18 19
f 13 19 14
f 15 20 16
f 16 20 21
f 16 21 22
f 16 22 23
f 16 23 17
f 18 23 22
f 18 22 19
f 19 22 24
f 21 24 22

