# https://github.com/mikedh/trimesh
v -3.74918505 2.03721467 1.44281247
v -3.78876511 2.03721467 1.44281247
v -3.74908336 2.03303168 1.44281247
v -3.74767191 2.03712172 1.23697710
v -3.74776549 2.03721467 1.23868970
v -3.78877733 2.03721467 1.43684856
v -3.78866342 1.56239745 1.44281247
v -3.74883117 2.02234178 1.44281247
v -3.77578598 2.03721467 1.23697710
v -3.74749298 2.02234178 1.23697710
v -3.78891967 2.03721467 1.23697710
v -3.78900514 1.56249041 1.23697710
v -3.78893594 1.56239745 1.23866955
v -3.74929484 1.56239745 1.44281247
v -3.74879863 2.01639262 1.44281247
v -3.74874576 2.00565625 1.44281247
v -3.74745638 2.00565625 1.23697710
v -3.75047031 1.56239745 1.23697710
v -3.74810715 1.56239745 1.23697710
v -3.74927451 1.56644102 1.44281247
v -3.74917283 1.58907570 1.44281247
v -3.74919721 1.58308007 1.44281247
f 1 2 7
f 1 7 14
f 1 14 20
f 1 20 22
f 1 22 21
f 1 21 16
f 1 16 15
f 1 15 8
f 1 8 3
f 1 3 4
f 1 4 5
f 1 5 9
f 1 9 11
f 1 11 6
f 1 6 2
f 2 6 7
f 3 8 4
f 4 9 5
f 4 8 10
f 4 10 17
f 4 17 19
f 4 19 18
f 4 18 12
f 4 12 11
f 4 11 9
f 6 11 12
f 6 12 7
f 7 12 13
f 7 13 18
f 7 18 19
f 7 19 14
f 8 15 10
f 10 15 16
f 10 16 17
f 12 18 13
f 14 19 20
f 16 21 17
f 17 21 19
f 19 21 22
f 19 22 20

