# https://github.com/mikedh/trimesh
v 0.17654279 1.79499612 0.86126020
v 0.15310641 1.88918634 0.83938788
v 0.15310641 1.87253353 0.83949510
v 0.15310641 1.83920394 0.83968810
v 0.15310641 1.82252717 0.83975243
v 0.15310641 1.79502008 0.83982747
v 0.15830022 1.79499612 0.84161801
v 0.17654279 1.79499612 0.75173783
v 0.17654279 2.03970858 0.85591005
v 0.15310641 2.03978047 0.83805839
v 0.15310641 1.79499612 0.75961829
v 0.17654279 1.79763182 0.75174856
v 0.15310641 1.97249832 0.75946819
v 0.15310641 1.98915113 0.75947892
v 0.15310641 2.03975651 0.75960757
v 0.17654279 2.03978047 0.84281884
v 0.16925446 2.03978047 0.84463081
v 0.16916731 2.03978047 0.75693787
v 0.17654279 1.82669636 0.75190938
v 0.17654279 2.03978047 0.75360341
v 0.17654279 1.84344501 0.75201661
f 1 2 3
f 1 3 4
f 1 4 5
f 1 5 6
f 1 6 7
f 1 7 11
f 1 11 8
f 1 8 12
f 1 12 19
f 1 19 21
f 1 21 20
f 1 20 16
f 1 16 9
f 1 9 10
f 1 10 2
f 2 10 15
f 2 15 14
f 2 14 13
f 2 13 11
f 2 11 6
f 2 6 5
f 2 5 4
f 2 4 3
f 6 11 7
f 8 11 13
f 8 13 14
f 8 14 15
f 8 15 12
f 9 16 17
f 9 17 10
f 10 17 16
f 10 16 20
f 10 20 18
f 10 18 15
f 12 15 19
f 15 18 20
f 15 20 21
f 15 21 19

