# https://github.com/mikedh/trimesh
v 2.07565466 2.11781064 1.13439247
v 2.17373036 2.11744135 1.13439247
v 2.17373036 2.11493225 1.09735258
v 1.99854900 2.11515490 1.09735258
v 1.99235960 2.11516036 1.09735258
v 1.87817920 2.11773461 1.13439247
v 2.17373036 2.06234438 1.13439247
v 2.17373036 2.06343056 1.09735258
v 1.98189002 2.11515490 1.09735258
v 1.97570062 2.11514948 1.09735258
v 1.85917988 2.11496482 1.09735258
v 1.87568496 2.11772919 1.13439247
v 1.85917988 2.06233350 1.13439247
v 1.94235180 2.06345771 1.09735258
v 1.85917988 2.06499469 1.09735258
v 1.85917988 2.11766401 1.13439247
v 1.85917988 2.06353919 1.09741785
v 1.93616240 2.06346316 1.09735258
v 1.86949556 2.06355004 1.09735258
v 1.92569276 2.06347401 1.09735258
f 1 2 3
f 1 3 4
f 1 4 5
f 1 5 6
f 1 6 12
f 1 12 16
f 1 16 13
f 1 13 7
f 1 7 2
f 2 7 8
f 2 8 3
f 3 8 14
f 3 14 18
f 3 18 20
f 3 20 19
f 3 19 15
f 3 15 11
f 3 11 10
f 3 10 9
f 3 9 5
f 3 5 4
f 5 9 6
f 6 9 10
f 6 10 11
f 6 11 12
f 7 13 8
f 8 13 14
f 11 15 17
f 11 17 13
f 11 13 16
f 11 16 12
f 13 17 18
f 13 18 14
f 15 19 17
f 17 19 20
f 17 20 18

