# https://github.com/mikedh/trimesh
v 0.40592583 1.52272064 0.89666446
v 0.39527374 1.50271719 0.90501964
v 0.40592583 1.51023209 0.89572581
v 0.40592583 1.55610207 0.89481032
v 0.39503187 1.50530385 0.90501964
v 0.39310608 1.48903064 0.90501964
v 0.40592583 1.50264459 0.89448586
v 0.37947701 1.55610207 0.90501964
v 0.39185950 1.51920823 0.90501964
v 0.40592583 1.55610207 0.82769078
v 0.39275257 1.48791429 0.90501964
v 0.40592583 1.49130868 0.88638562
v 0.33333347 1.55610207 0.90501964
v 0.40592583 1.54783386 0.81457281
v 0.37342066 1.55610207 0.78663338
v 0.38737541 1.47674176 0.90501964
v 0.40592583 1.48481030 0.87019675
v 0.31482954 1.53389318 0.90501964
v 0.31984394 1.55610207 0.85353273
v 0.40592583 1.54567377 0.81305475
v 0.38977559 1.50569411 0.78663338
v 0.32581655 1.55610207 0.78663338
v 0.40592583 1.53771416 0.81006495
v 0.37671396 1.47135971 0.90501964
v 0.40592583 1.48320385 0.85353273
v 0.31201069 1.52235762 0.90501964
v 0.31969504 1.55610207 0.83729751
v 0.39097568 1.48926661 0.78663338
v 0.40592583 1.52223054 0.80709835
v 0.40592583 1.50569411 0.80547598
v 0.31560166 1.53426529 0.78663338
v 0.32556531 1.55610207 0.78729390
v 0.37565341 1.47084237 0.90501964
v 0.40592583 1.48286803 0.83688033
v 0.31957411 1.55610207 0.82063351
v 0.31200139 1.52235762 0.90353633
v 0.31097797 1.50569411 0.85353273
v 0.31112687 1.50569411 0.87019675
v 0.31149904 1.50569411 0.90501964
v 0.39098498 1.48903064 0.78663338
v 0.40592583 1.49544734 0.80722581
v 0.31556447 1.53412006 0.78663338
v 0.31975089 1.55610207 0.80354073
v 0.36047073 1.46760224 0.90501964
v 0.35141874 1.46381755 0.82020474
v 0.35195834 1.46366326 0.80354073
v 0.35209788 1.46359975 0.78687673
v 0.35221882 1.46363605 0.78663338
v 0.36042418 1.46625901 0.78687673
v 0.37565341 1.47147770 0.78663338
v 0.40592583 1.48317661 0.83240723
v 0.31957411 1.55610207 0.82020474
v 0.31191759 1.52235762 0.88686074
v 0.31095008 1.48903064 0.87019675
v 0.31109897 1.48903064 0.90501964
v 0.31093148 1.50569411 0.83688033
v 0.38723581 1.47774011 0.78663338
v 0.40592583 1.49166265 0.80793270
v 0.31272703 1.52235762 0.78663338
v 0.31974160 1.55610207 0.80395792
v 0.35899151 1.46730275 0.90501964
v 0.35086060 1.46397187 0.82983463
v 0.34232961 1.46366326 0.82020474
v 0.34232961 1.46345453 0.80354073
v 0.35195834 1.46359066 0.78663338
v 0.35209788 1.46359975 0.78663338
v 0.36042418 1.46626810 0.78663338
v 0.38718002 1.47757674 0.78663338
v 0.40592583 1.48471046 0.82020474
v 0.31098727 1.50569411 0.82020474
v 0.31411320 1.47414601 0.90353633
v 0.31088499 1.48903064 0.82020474
v 0.31410391 1.47335643 0.80354073
v 0.31412250 1.47339273 0.82020474
v 0.31385273 1.47546204 0.90501964
v 0.31089429 1.48903064 0.80354073
v 0.40592583 1.48612632 0.81655442
v 0.31130366 1.50569411 0.78663338
v 0.34232961 1.46532419 0.90501964
v 0.33307300 1.46396278 0.83276647
v 0.33128675 1.46381755 0.80354073
v 0.34232961 1.46339099 0.78663338
v 0.33191010 1.46387203 0.82020474
v 0.31095938 1.48903064 0.78663338
v 0.31412250 1.47414601 0.90501964
v 0.31410391 1.47340179 0.78687673
v 0.32295115 1.46502467 0.80354073
v 0.32714688 1.46617732 0.90501964
v 0.32566766 1.46626810 0.90501964
v 0.33144494 1.46382664 0.78663338
v 0.32357444 1.46506097 0.82020474
v 0.31411320 1.47340179 0.78663338
v 0.31514580 1.47344717 0.90501964
v 0.32298835 1.46518805 0.78663338
v 0.32311858 1.46507006 0.78663338
v 0.32323028 1.46505191 0.78663338
f 1 2 3
f 1 3 7
f 1 7 12
f 1 12 17
f 1 17 25
f 1 25 34
f 1 34 51
f 1 51 69
f 1 69 77
f 1 77 58
f 1 58 41
f 1 41 30
f 1 30 29
f 1 29 23
f 1 23 20
f 1 20 14
f 1 14 10
f 1 10 4
f 1 4 2
f 2 5 9
f 2 9 8
f 2 8 13
f 2 13 18
f 2 18 26
f 2 26 39
f 2 39 55
f 2 55 75
f 2 75 85
f 2 85 93
f 2 93 89
f 2 89 88
f 2 88 79
f 2 79 61
f 2 61 44
f 2 44 33
f 2 33 24
f 2 24 16
f 2 16 11
f 2 11 6
f 2 6 3
f 2 4 5
f 3 6 7
f 4 8 9
f 4 9 5
f 4 10 15
f 4 15 22
f 4 22 32
f 4 32 43
f 4 43 60
f 4 60 52
f 4 52 35
f 4 35 27
f 4 27 19
f 4 19 13
f 4 13 8
f 6 11 7
f 7 11 12
f 10 14 15
f 11 16 12
f 12 16 17
f 13 19 18
f 14 20 15
f 15 21 28
f 15 28 40
f 15 40 57
f 15 57 68
f 15 68 50
f 15 50 67
f 15 67 48
f 15 48 66
f 15 66 65
f 15 65 82
f 15 82 90
f 15 90 96
f 15 96 95
f 15 95 94
f 15 94 92
f 15 92 84
f 15 84 78
f 15 78 59
f 15 59 42
f 15 42 31
f 15 31 22
f 15 20 23
f 15 23 21
f 16 24 25
f 16 25 17
f 18 19 27
f 18 27 26
f 21 23 29
f 21 29 30
f 21 30 28
f 22 31 32
f 24 33 25
f 25 33 34
f 26 27 35
f 26 35 36
f 26 36 37
f 26 37 38
f 26 38 39
f 28 30 40
f 30 41 40
f 31 42 43
f 31 43 32
f 33 44 45
f 33 45 46
f 33 46 47
f 33 47 48
f 33 48 49
f 33 49 50
f 33 50 34
f 34 50 51
f 35 52 53
f 35 53 36
f 36 53 37
f 37 54 55
f 37 55 38
f 37 53 56
f 37 56 54
f 38 55 39
f 40 41 58
f 40 58 57
f 42 59 43
f 43 59 60
f 44 61 45
f 45 62 63
f 45 63 64
f 45 64 46
f 45 61 62
f 46 64 65
f 46 65 47
f 47 65 66
f 47 66 48
f 48 67 49
f 49 67 50
f 50 68 51
f 51 68 69
f 52 60 59
f 52 59 53
f 53 59 70
f 53 70 56
f 54 71 55
f 54 56 72
f 54 72 73
f 54 73 74
f 54 74 71
f 55 71 75
f 56 70 76
f 56 76 72
f 57 58 68
f 58 77 68
f 59 78 70
f 61 79 62
f 62 79 63
f 63 80 64
f 63 79 80
f 64 81 82
f 64 82 65
f 64 80 83
f 64 83 81
f 68 77 69
f 70 78 84
f 70 84 76
f 71 85 75
f 71 74 85
f 72 76 86
f 72 86 73
f 73 87 74
f 73 86 87
f 74 87 85
f 76 84 86
f 79 88 80
f 80 88 89
f 80 89 83
f 81 87 90
f 81 90 82
f 81 83 91
f 81 91 87
f 83 89 91
f 84 92 86
f 85 87 91
f 85 91 93
f 86 92 94
f 86 94 87
f 87 94 95
f 87 95 96
f 87 96 90
f 89 93 91

