# https://github.com/mikedh/trimesh
v 0.38065398 2.06783601 1.87915636
v 0.31371635 2.06783601 1.87915636
v 0.37723270 2.04377924 1.87915636
v 0.37754730 2.06783601 1.65710022
v 0.31563671 2.06065311 1.87915636
v 0.31369668 2.06783601 1.75356509
v 0.32852221 2.04377924 1.87915636
v 0.37283486 2.04377924 1.65710022
v 0.31393260 2.06783601 1.65710022
v 0.31872372 2.05618088 1.87915636
v 0.31370324 2.06783601 1.70355032
v 0.31371635 2.06783601 1.69613830
v 0.31554492 2.06218154 1.68687871
v 0.31561048 2.06224043 1.67022885
v 0.31568261 2.06231577 1.65710022
v 0.33421122 2.04377924 1.65710022
v 0.31388015 2.06783601 1.66268642
v 0.31499441 2.06447535 1.65710022
v 0.31373602 2.06783601 1.68687871
v 0.31376881 2.06783601 1.67942324
v 0.31382781 2.06783601 1.67022885
v 0.31386703 2.06783601 1.66431662
f 1 2 5
f 1 5 10
f 1 10 7
f 1 7 3
f 1 3 4
f 1 4 9
f 1 9 17
f 1 17 22
f 1 22 21
f 1 21 20
f 1 20 19
f 1 19 12
f 1 12 11
f 1 11 6
f 1 6 2
f 2 6 5
f 3 7 16
f 3 16 8
f 3 8 4
f 4 8 16
f 4 16 15
f 4 15 18
f 4 18 9
f 5 6 11
f 5 11 12
f 5 12 13
f 5 13 10
f 7 10 14
f 7 14 15
f 7 15 16
f 9 18 17
f 10 13 14
f 12 19 13
f 13 19 20
f 13 20 14
f 14 20 21
f 14 21 22
f 14 22 15
f 15 22 18
f 17 18 22

