# https://github.com/mikedh/trimesh
v -1.72790650 1.82251668 0.14152538
v -1.72777191 1.80584725 0.12487939
v -1.72789428 1.80584725 0.14152538
v -1.72724559 1.82251668 0.15818264
v -1.72789428 1.85585556 0.14152538
v -1.72777191 1.83918612 0.12487939
v -1.72753933 1.80584725 0.10822214
v -1.72775963 1.79585548 0.12487939
v -1.72723332 1.80584725 0.15818264
v -1.72788206 1.79585548 0.14152538
v -1.72597267 1.80584725 0.18648983
v -1.72598489 1.83414077 0.18648983
v -1.72596039 1.87252499 0.18648983
v -1.72719660 1.87252499 0.15818264
v -1.72762504 2.04851864 0.14152538
v -1.72768619 1.90586387 0.12487939
v -1.72746589 1.90586387 0.10822214
v -1.72752711 1.85585556 0.10822214
v -1.72733125 1.79585548 0.09823005
v -1.72752711 1.79585548 0.10822214
v -1.72761276 1.79585548 0.14819055
v -1.72720888 1.79585548 0.15818264
v -1.72596039 1.80080189 0.18648983
v -1.72594817 1.88414908 0.18648983
v -1.72570337 2.04851864 0.18648983
v -1.72739246 2.04851864 0.12487939
v -1.72725781 2.04851864 0.11754886
v -1.72708645 2.04851864 0.10822214
v -1.72704973 1.92250858 0.09155362
v -1.72708645 1.90586387 0.09155362
v -1.72715988 1.87252499 0.09155362
v -1.72717216 1.79585548 0.09155362
v -1.72594817 1.79585548 0.18648983
v -1.64739366 2.04851864 0.18648983
v -1.72689065 2.04851864 0.10089160
v -1.72422236 2.00583103 0.07940746
v -1.72425908 1.98916160 0.07936234
v -1.72663357 2.04851864 0.09155362
v -1.72554428 2.04851864 0.08625306
v -1.72411221 2.04851864 0.07947512
v -1.72433251 1.95584745 0.07936234
v -1.72440595 1.87252499 0.07930596
v -1.72553201 1.79585548 0.08418923
v -1.64772417 1.79585548 0.18648983
v -1.60287785 2.04851864 0.18063667
v -1.71949782 2.04851864 0.07677971
v -1.71357384 2.04851864 0.07336255
v -1.71357384 2.03916990 0.07334002
v -1.71357384 2.02250047 0.07330616
v -1.71357384 1.79585548 0.07322725
v -1.72441822 1.79585548 0.07929469
v -1.60287785 1.79585548 0.18045624
v -1.60287785 1.87252499 0.18054643
v -1.60287785 1.88919444 0.18055775
v -1.60287785 2.04851864 0.09591809
v -1.69690336 2.04851864 0.07133258
v -1.69690336 2.03916990 0.07127619
v -1.69690336 1.79585548 0.07153559
v -1.60287785 1.79585548 0.09738420
v -1.64996401 1.79585548 0.07833606
v -1.66358682 1.79585548 0.07305809
v -1.66358682 2.02250047 0.07287760
v -1.66358682 2.03916990 0.07290019
v -1.66358682 2.04851864 0.07301297
v -1.68958396 2.04851864 0.07165963
v -1.68024509 2.03916990 0.07204307
v -1.68024509 2.02250047 0.07205434
v -1.68024509 1.88919444 0.07216711
v -1.68024509 2.04851864 0.07208819
v -1.67291348 2.04851864 0.07247163
f 1 2 3
f 1 3 9
f 1 9 4
f 1 4 5
f 1 5 6
f 1 6 2
f 2 6 7
f 2 7 20
f 2 20 8
f 2 8 10
f 2 10 3
f 3 10 9
f 4 9 11
f 4 11 12
f 4 12 13
f 4 13 14
f 4 14 5
f 5 14 15
f 5 15 16
f 5 16 6
f 6 16 17
f 6 17 18
f 6 18 7
f 7 18 19
f 7 19 20
f 8 20 19
f 8 19 32
f 8 32 43
f 8 43 51
f 8 51 50
f 8 50 58
f 8 58 61
f 8 61 60
f 8 60 59
f 8 59 52
f 8 52 44
f 8 44 33
f 8 33 22
f 8 22 21
f 8 21 10
f 9 10 21
f 9 21 22
f 9 22 23
f 9 23 11
f 11 23 33
f 11 33 44
f 11 44 34
f 11 34 25
f 11 25 24
f 11 24 13
f 11 13 12
f 13 24 14
f 14 24 25
f 14 25 15
f 15 25 34
f 15 34 45
f 15 45 55
f 15 55 64
f 15 64 70
f 15 70 69
f 15 69 65
f 15 65 56
f 15 56 47
f 15 47 46
f 15 46 40
f 15 40 39
f 15 39 38
f 15 38 35
f 15 35 28
f 15 28 27
f 15 27 26
f 15 26 17
f 15 17 16
f 17 26 27
f 17 27 28
f 17 28 29
f 17 29 30
f 17 30 31
f 17 31 18
f 18 31 19
f 19 31 32
f 22 33 23
f 28 35 29
f 29 36 37
f 29 37 30
f 29 35 38
f 29 38 39
f 29 39 40
f 29 40 36
f 30 37 41
f 30 41 31
f 31 42 43
f 31 43 32
f 31 41 42
f 34 44 45
f 36 40 37
f 37 40 46
f 37 46 47
f 37 47 48
f 37 48 49
f 37 49 41
f 41 49 42
f 42 50 51
f 42 51 43
f 42 49 50
f 44 52 53
f 44 53 54
f 44 54 45
f 45 54 53
f 45 53 52
f 45 52 59
f 45 59 55
f 47 56 57
f 47 57 48
f 48 57 49
f 49 57 50
f 50 57 58
f 55 59 60
f 55 60 61
f 55 61 62
f 55 62 63
f 55 63 64
f 56 65 57
f 57 66 67
f 57 67 68
f 57 68 58
f 57 65 69
f 57 69 66
f 58 68 61
f 61 68 67
f 61 67 62
f 62 67 66
f 62 66 63
f 63 66 69
f 63 69 70
f 63 70 64

