# https://github.com/mikedh/trimesh
v 0.81367642 2.06259064 0.20359655
v 0.81367642 2.11132429 0.20359655
v 0.82572262 2.06257010 0.20359655
v 0.81367642 2.06107234 0.44526194
v 0.81367642 2.11140637 0.21558993
v 0.99233732 2.11232965 0.20359655
v 0.94241097 2.06248803 0.20359655
v 0.81367642 2.11197571 0.44526194
v 1.17559415 2.06273425 0.20359655
v 1.30790868 2.06194946 0.44526194
v 0.81367642 2.11163719 0.25355714
v 0.81367642 2.11170898 0.26559780
v 0.81367642 2.11172951 0.27023430
v 0.81367642 2.11179618 0.28688785
v 1.09228680 2.11289900 0.28688785
v 1.22552052 2.11317598 0.20359655
v 0.81367642 2.11182184 0.30354134
v 1.00065838 2.11267843 0.44526194
v 1.09228680 2.11291438 0.30354134
v 1.29228250 2.06304712 0.20359655
v 1.30790868 2.06312407 0.20359655
v 1.30790868 2.11342731 0.44526194
v 1.10892892 2.11296567 0.30354134
v 1.12561941 2.11301183 0.30354134
v 1.30790868 2.11345297 0.27023430
v 1.24221101 2.11321702 0.20359655
v 1.20892676 2.11329394 0.44526194
v 1.30790868 2.11333498 0.20359655
v 1.30790868 2.11346322 0.30462950
v 1.21719945 2.11330935 0.44526194
v 1.30790868 2.11346322 0.28797600
f 1 2 6
f 1 6 16
f 1 16 26
f 1 26 28
f 1 28 21
f 1 21 20
f 1 20 9
f 1 9 7
f 1 7 3
f 1 3 4
f 1 4 8
f 1 8 17
f 1 17 14
f 1 14 13
f 1 13 12
f 1 12 11
f 1 11 5
f 1 5 2
f 2 5 6
f 3 7 4
f 4 7 9
f 4 9 10
f 4 10 22
f 4 22 30
f 4 30 27
f 4 27 18
f 4 18 8
f 5 11 6
f 6 11 12
f 6 12 13
f 6 13 14
f 6 14 15
f 6 15 16
f 8 18 19
f 8 19 15
f 8 15 17
f 9 20 10
f 10 20 21
f 10 21 28
f 10 28 25
f 10 25 31
f 10 31 29
f 10 29 22
f 14 17 15
f 15 19 23
f 15 23 16
f 16 23 24
f 16 24 25
f 16 25 26
f 18 27 23
f 18 23 19
f 22 29 30
f 23 27 24
f 24 27 31
f 24 31 25
f 25 28 26
f 27 30 31
f 29 31 30

