# https://github.com/mikedh/trimesh
v 0.02795933 2.07936466 1.89171507
v 0.02795933 2.07078450 1.92317347
v 0.02795933 2.12289334 1.89171507
v 0.14625969 2.07862523 1.89171507
v 0.02795933 2.07078450 2.00551893
v 0.14625969 2.07078450 1.92272167
v 0.02795933 2.13992116 1.92489046
v 0.14625969 2.12580225 1.89171507
v 0.02795933 2.08918654 2.00634351
v 0.08470641 2.07078450 2.00575616
v 0.14625969 2.07078450 2.00549628
v 0.02795933 2.14194413 1.94156285
v 0.08644360 2.14204877 1.94156285
v 0.14625969 2.14086987 1.93172431
v 0.14625969 2.13992116 1.92489046
v 0.14625969 2.13679603 1.91577481
v 0.02795933 2.10585161 2.00697604
v 0.08644360 2.08918654 2.00654676
v 0.10135997 2.07078450 2.00577869
v 0.10309716 2.08918654 2.00659194
v 0.14625969 2.08235728 2.00612881
v 0.13642740 2.07078450 2.00559797
v 0.02795933 2.14133026 1.97488505
v 0.06976686 2.14140700 1.97488505
v 0.10309716 2.14143489 1.97488505
v 0.14625969 2.14139305 1.97488505
v 0.10309716 2.14202784 1.94156285
v 0.14625969 2.14184647 1.94156285
v 0.02795933 2.12250969 2.00669363
v 0.10309716 2.10585161 2.00711158
v 0.10309716 2.07078450 2.00577869
v 0.11976228 2.08918654 2.00656941
v 0.14625969 2.08918654 2.00647905
v 0.11976228 2.07078450 2.00572219
v 0.02795933 2.13973978 1.99154618
v 0.10309716 2.13994906 1.99154618
v 0.14625969 2.14077220 1.98170763
v 0.02795933 2.12841814 2.00490893
v 0.10309716 2.12250969 2.00678399
v 0.11976228 2.10585161 2.00708893
v 0.13642740 2.08918654 2.00651291
v 0.14625969 2.09902235 2.00680664
v 0.02795933 2.13708899 1.99739731
v 0.10309716 2.13467540 2.00307906
v 0.14625969 2.13462655 2.00306773
v 0.14625969 2.13773076 1.99625647
v 0.14625969 2.13987234 1.99154618
v 0.02795933 2.13451494 2.00303388
v 0.14625969 2.11568741 2.00685182
v 0.14625969 2.12250969 2.00670496
v 0.14625969 2.12967378 2.00455881
v 0.14625969 2.10585161 2.00700990
f 1 2 5
f 1 5 9
f 1 9 17
f 1 17 29
f 1 29 38
f 1 38 48
f 1 48 43
f 1 43 35
f 1 35 23
f 1 23 12
f 1 12 7
f 1 7 3
f 1 3 8
f 1 8 4
f 1 4 2
f 2 4 6
f 2 6 11
f 2 11 22
f 2 22 34
f 2 34 31
f 2 31 19
f 2 19 10
f 2 10 5
f 3 7 8
f 4 8 16
f 4 16 15
f 4 15 14
f 4 14 28
f 4 28 26
f 4 26 37
f 4 37 47
f 4 47 46
f 4 46 45
f 4 45 51
f 4 51 50
f 4 50 49
f 4 49 52
f 4 52 42
f 4 42 33
f 4 33 21
f 4 21 11
f 4 11 6
f 5 10 9
f 7 12 13
f 7 13 14
f 7 14 15
f 7 15 16
f 7 16 8
f 9 10 18
f 9 18 17
f 10 19 20
f 10 20 18
f 11 21 22
f 12 23 24
f 12 24 13
f 13 24 25
f 13 25 26
f 13 26 27
f 13 27 14
f 14 27 28
f 17 18 20
f 17 20 30
f 17 30 29
f 19 31 20
f 20 31 32
f 20 32 40
f 20 40 30
f 21 33 34
f 21 34 22
f 23 35 36
f 23 36 24
f 24 36 25
f 25 36 26
f 26 28 27
f 26 36 37
f 29 30 39
f 29 39 38
f 30 40 39
f 31 34 41
f 31 41 32
f 32 41 42
f 32 42 40
f 33 42 41
f 33 41 34
f 35 43 36
f 36 44 45
f 36 45 46
f 36 46 47
f 36 47 37
f 36 43 48
f 36 48 44
f 38 39 44
f 38 44 48
f 39 40 49
f 39 49 50
f 39 50 51
f 39 51 45
f 39 45 44
f 40 42 52
f 40 52 49

