# https://github.com/mikedh/trimesh
v -2.531740545 -0.62307345 0.39095504
v -2.548437495 -0.62307345 0.39099691
v -2.531740545 -0.61131561 0.39449708
v -2.5150826649999996 -0.61131561 0.39450173
v -2.2981398449999997 -0.61131561 0.39506493
v -2.2981398449999997 -0.62307345 0.39236997
v -2.5650953750000003 -0.62307345 0.39105279
v -2.6818566949999996 -0.61131561 0.39501835
v -2.2981398449999997 -0.61131561 0.43809042
v -2.2981398449999997 -0.62307345 0.42568639
v -2.598450175 -0.62307345 0.39116915
v -2.6033656350000003 -0.62307345 0.39119707
v -2.6966420849999997 -0.61132828 0.39511145
v -2.6966420849999997 -0.61131561 0.39991484
v -2.298217855 -0.62307345 0.43826266
v -2.2981398449999997 -0.61132828 0.43809042
v -2.6818176949999994 -0.61131561 0.43806251
v -2.6966420849999997 -0.61132828 0.43816026
v -2.6966420849999997 -0.62307345 0.43850469
v -2.6200625549999996 -0.62307345 0.39131808
v -2.6966420849999997 -0.6126324000000001 0.39479958
v -2.6966420849999997 -0.62307345 0.39230484
f 1 2 3
f 1 3 4
f 1 4 5
f 1 5 6
f 1 6 10
f 1 10 15
f 1 15 19
f 1 19 22
f 1 22 20
f 1 20 12
f 1 12 11
f 1 11 7
f 1 7 2
f 2 7 3
f 3 7 8
f 3 8 14
f 3 14 17
f 3 17 9
f 3 9 5
f 3 5 4
f 5 9 16
f 5 16 10
f 5 10 6
f 7 11 8
f 8 11 12
f 8 12 13
f 8 13 14
f 9 15 16
f 9 17 18
f 9 18 19
f 9 19 15
f 10 16 15
f 12 20 13
f 13 21 22
f 13 22 19
f 13 19 18
f 13 18 14
f 13 20 21
f 14 18 17
f 20 22 21

