# https://github.com/mikedh/trimesh
v -2.08611163 -0.71144849 1.4928861
v -2.08777347 -0.72421134 1.52615627
v -2.0878098 -0.72383398 1.4928861
v -2.08666558 -0.69856825 1.4928861
v -2.08667464 -0.70060594 1.66247434
v -2.08661107 -0.7113814 1.66247434
v -2.0876191200000003 -0.7230960399999999 1.66247434
v -2.0896169899999997 -0.73254657 1.52615627
v -2.0896079199999997 -0.73238727 1.50948798
v -2.08776441 -0.72406876 1.56731236
v -2.08970776 -0.73221115 1.4928861
v -2.08668377 -0.69845924 1.4928861
v -2.09016187 -0.6909877 1.57619433
v -2.09026171 -0.6912392700000001 1.60953091
v -2.09028897 -0.6914405100000001 1.62619923
v -2.09046151 -0.6918430200000001 1.64288413
v -2.09082478 -0.69261449 1.66247434
v -2.08776441 -0.72399329 1.59284607
v -2.08776441 -0.72404362 1.57619433
v -2.0897986 -0.72996383 1.66247434
v -2.08987124 -0.7321608399999999 1.60953091
v -2.08976227 -0.7323285500000001 1.59284607
v -2.08968963 -0.73240403 1.56731236
v -2.08964418 -0.73248788 1.54284117
v -2.09801711 -0.73930536 1.55950949
v -2.09794441 -0.7393305 1.50948798
v -2.09799892 -0.73935567 1.4928861
v -2.08968057 -0.73243757 1.55950949
v -2.0980988199999997 -0.73926343 1.59284607
v -2.0980533699999997 -0.73928857 1.57619433
v -2.0980261799999997 -0.73929695 1.56731236
v -2.09042519 -0.6901743 1.4928861
v -2.09011642 -0.69084514 1.52615627
v -2.09011642 -0.69093738 1.55950949
v -2.0901346199999997 -0.69096253 1.56731236
v -2.09871635 -0.68171325 1.66247434
v -2.09023451 -0.6910799400000001 1.59284607
v -2.09051602 -0.7314313100000001 1.66247434
v -2.09885257 -0.7389615300000001 1.66247434
v -2.09880712 -0.73897832 1.65955245
v -2.09858919 -0.73907893 1.64288413
v -2.09820778 -0.7392131 1.60953091
v -2.0896987 -0.73241241 1.56729573
v -2.10621738 -0.7410244 1.56729573
v -2.11338245 -0.74258411 1.4928861
v -2.11338245 -0.74246671 1.59284607
v -2.11338245 -0.74251702 1.57619433
v -2.11703309 -0.6649085800000001 1.4928861
v -2.1163065999999997 -0.66411195 1.66247434
v -2.11338245 -0.74199712 1.66247434
v -2.11338245 -0.7421816 1.64288413
v -2.11338245 -0.74239123 1.60953091
v -2.11338245 -0.7425338100000001 1.55950949
v -2.1300646 -0.7431208 1.4928861
v -2.14671956 -0.74385033 1.66247434
v -2.14671956 -0.74385033 1.65955245
v -2.11715118 -0.6648331000000001 1.4928861
v -2.1300646 -0.6585607 1.66247434
v -2.13014637 -0.65935733 1.4928861
v -2.1300646 -0.74294468 1.66247434
v -2.14671956 -0.74357359 1.4928861
v -2.1633926 -0.74362393 1.66247434
v -2.1466923099999997 -0.6581833500000001 1.66247434
v -2.14681034 -0.6588290400000001 1.4928861
v -2.1633926 -0.74312918 1.4928861
v -2.17288248 -0.7403787 1.66247434
v -2.17490761 -0.7396827100000001 1.65955245
v -2.1747531899999997 -0.7394730700000001 1.4928861
v -2.1633926 -0.6599023900000001 1.57619433
v -2.1633926 -0.6599023900000001 1.59284607
v -2.1633926 -0.65992754 1.62619923
v -2.1633926 -0.6599694700000001 1.66247434
v -2.16345617 -0.66007848 1.4928861
v -2.17490761 -0.7396827100000001 1.66247434
v -2.1755342 -0.73763663 1.66247434
v -2.17834933 -0.7280602899999999 1.4928861
v -2.17480771 -0.73946466 1.50948798
v -2.1752163700000002 -0.6654452399999999 1.4928861
v -2.1750982800000003 -0.66548717 1.62619923
v -2.17498025 -0.66554587 1.66247434
v -2.1784311 -0.7280602899999999 1.66247434
v -2.1784311 -0.7280602899999999 1.65955245
v -2.1788034400000003 -0.7113814 1.4928861
v -2.17883063 -0.67804037 1.4928861
v -2.17863996 -0.67804877 1.64288413
v -2.17858545 -0.67804877 1.66247434
v -2.17794979 -0.6758433500000001 1.66247434
v -2.17879431 -0.7113814 1.66247434
v -2.17888515 -0.6947192799999999 1.4928861
v -2.17887608 -0.6947192799999999 1.66247434
v -2.17883063 -0.69178433 1.66247434
f 1 2 3
f 1 3 11
f 1 11 27
f 1 27 45
f 1 45 54
f 1 54 61
f 1 61 65
f 1 65 68
f 1 68 76
f 1 76 83
f 1 83 89
f 1 89 84
f 1 84 78
f 1 78 73
f 1 73 64
f 1 64 59
f 1 59 57
f 1 57 48
f 1 48 32
f 1 32 12
f 1 12 4
f 1 4 5
f 1 5 6
f 1 6 7
f 1 7 2
f 2 8 9
f 2 9 3
f 2 7 10
f 2 10 8
f 3 9 11
f 4 12 5
f 5 13 14
f 5 14 15
f 5 15 16
f 5 16 17
f 5 17 36
f 5 36 49
f 5 49 58
f 5 58 63
f 5 63 72
f 5 72 80
f 5 80 87
f 5 87 86
f 5 86 91
f 5 91 90
f 5 90 88
f 5 88 81
f 5 81 75
f 5 75 74
f 5 74 66
f 5 66 62
f 5 62 55
f 5 55 60
f 5 60 50
f 5 50 39
f 5 39 38
f 5 38 20
f 5 20 7
f 5 7 6
f 5 12 13
f 7 18 19
f 7 19 10
f 7 20 21
f 7 21 22
f 7 22 23
f 7 23 24
f 7 24 8
f 7 8 18
f 8 25 26
f 8 26 27
f 8 27 9
f 8 10 19
f 8 19 18
f 8 24 28
f 8 28 29
f 8 29 30
f 8 30 31
f 8 31 25
f 9 27 11
f 12 32 33
f 12 33 34
f 12 34 35
f 12 35 13
f 13 35 36
f 13 36 37
f 13 37 14
f 14 37 36
f 14 36 15
f 15 36 16
f 16 36 17
f 20 38 21
f 21 38 39
f 21 39 40
f 21 40 41
f 21 41 22
f 22 41 42
f 22 42 29
f 22 29 43
f 22 43 23
f 23 43 28
f 23 28 24
f 25 44 27
f 25 27 26
f 25 31 44
f 27 44 45
f 28 43 29
f 29 42 46
f 29 46 47
f 29 47 30
f 30 47 44
f 30 44 31
f 32 34 33
f 32 48 49
f 32 49 36
f 32 36 35
f 32 35 34
f 39 50 51
f 39 51 40
f 40 51 41
f 41 51 42
f 42 52 46
f 42 51 52
f 44 53 45
f 44 47 53
f 45 53 55
f 45 55 56
f 45 56 54
f 46 52 55
f 46 55 47
f 47 55 53
f 48 57 49
f 49 57 59
f 49 59 58
f 50 60 51
f 51 60 55
f 51 55 52
f 54 56 61
f 55 62 56
f 56 62 61
f 58 59 64
f 58 64 63
f 61 62 65
f 62 66 67
f 62 67 68
f 62 68 65
f 63 69 70
f 63 70 71
f 63 71 72
f 63 64 73
f 63 73 69
f 66 74 67
f 67 74 75
f 67 75 76
f 67 76 77
f 67 77 68
f 68 77 76
f 69 73 78
f 69 78 70
f 70 79 71
f 70 78 79
f 71 79 72
f 72 79 80
f 75 81 82
f 75 82 76
f 76 82 83
f 78 84 79
f 79 85 86
f 79 86 87
f 79 87 80
f 79 84 85
f 81 88 83
f 81 83 82
f 83 88 90
f 83 90 89
f 84 89 90
f 84 90 91
f 84 91 85
f 85 91 86

