# https://github.com/mikedh/trimesh
v 0.06876096 2.06667073 0.08464133
v -0.69687982 2.06667073 0.08599890
v 0.08634638 2.06667073 0.08464133
v -1.56346759 2.03890604 0.09734939
v -0.71361976 2.06667073 0.08609075
v -1.58003841 2.03890604 0.09738002
v -1.56346759 2.06447455 0.08846906
v -0.01341689 2.03891420 0.09808432
v -1.56312939 2.03890604 0.09734939
v 0.11965720 2.06667073 0.08471280
v 0.12456079 2.03891420 0.09815573
v -0.72985243 2.06667073 0.08624388
v -1.60286563 2.03890604 0.09743105
v -1.58003841 2.06447455 0.08871403
v -0.74135057 2.06667073 0.08635617
v -1.47976790 2.03890604 0.09740041
v 0.12456079 2.06667073 0.08483529
v 0.12456079 2.03891420 0.17928309
v -0.74135057 2.03890604 0.09880900
v -0.91331539 2.03890604 0.09813534
v -0.92988624 2.03890604 0.09810470
v -1.46319696 2.03890604 0.09742085
v -1.60286563 2.03890604 0.18027320
v -1.60286563 2.06447455 0.08944896
v -1.59677828 2.06447455 0.08915297
v -0.74135057 2.06667073 0.18699975
v 0.12456079 2.06667073 0.18262086
v -0.56532758 2.06667073 0.18891874
v 0.06960640 2.03891420 0.17947705
v -0.74135057 2.03890604 0.18056919
v -1.60286563 2.06447455 0.18227384
v -1.46370431 2.03890604 0.18058964
v -1.44696433 2.03890604 0.18062022
v -1.09711653 2.03890604 0.18095710
v -1.06380575 2.03890604 0.18096730
v -1.06346755 2.03890604 0.18096730
v -0.91348449 2.03890604 0.18095710
v -0.39691364 2.03891420 0.18084481
f 1 2 5
f 1 5 12
f 1 12 15
f 1 15 26
f 1 26 28
f 1 28 27
f 1 27 17
f 1 17 10
f 1 10 3
f 1 3 9
f 1 9 4
f 1 4 2
f 2 4 6
f 2 6 7
f 2 7 5
f 3 8 9
f 3 10 11
f 3 11 8
f 4 9 16
f 4 16 22
f 4 22 21
f 4 21 20
f 4 20 19
f 4 19 30
f 4 30 37
f 4 37 36
f 4 36 35
f 4 35 34
f 4 34 33
f 4 33 32
f 4 32 23
f 4 23 13
f 4 13 6
f 5 7 12
f 6 13 7
f 7 13 14
f 7 14 15
f 7 15 12
f 8 11 9
f 9 11 16
f 10 17 11
f 11 18 30
f 11 30 19
f 11 19 20
f 11 20 21
f 11 21 22
f 11 22 16
f 11 17 27
f 11 27 18
f 13 23 31
f 13 31 24
f 13 24 25
f 13 25 14
f 14 25 15
f 15 25 24
f 15 24 31
f 15 31 26
f 18 27 28
f 18 28 29
f 18 29 30
f 23 32 28
f 23 28 31
f 26 31 28
f 28 32 33
f 28 33 34
f 28 34 35
f 28 35 36
f 28 36 37
f 28 37 38
f 28 38 29
f 29 38 30
f 30 38 37

