# https://github.com/mikedh/trimesh
v -3.9492998649999995 -0.29961114 0.18868249
v -3.937420155 -0.29961114 0.18625211
v -3.9526916749999996 -0.29961114 0.18812801
v -3.9596747150000002 -0.4699131 0.18484749
v -3.9492998649999995 -0.4699131 0.18601187
v -3.9380414950000002 -0.4699131 0.18481976
v -3.9207634049999998 -0.29961114 0.17321308
v -3.934051135 -0.4699131 0.18247258
v -3.929701725 -0.4699131 0.17985736
v -3.929690335 -0.46122627 0.17990359
v -3.9294737149999994 -0.39451605 0.18005144
v -3.960689395 -0.29961114 0.18607652
v -3.9652896449999995 -0.4699131 0.17531079
v -3.9106450749999997 -0.29961114 0.16519192
v -3.9106450749999997 -0.4699131 0.16430475
v -3.9623710450000003 -0.29961114 0.18300851
v -3.967096725 -0.4699131 0.16662427
v -3.9660478049999996 -0.29961114 0.17531079
v -3.9106450749999997 -0.29961114 0.11398763
v -3.9106450749999997 -0.4699131 0.11819229
v -3.9687498549999995 -0.4699131 0.15864002
v -3.9669257250000003 -0.29961114 0.17019129
v -3.968875285 -0.36118595 0.15864002
v -3.9687669749999994 -0.46122627 0.15864002
v -3.912138605 -0.29961114 0.11136318
v -3.922513455 -0.4699131 0.09895253
v -3.968647215 -0.4699131 0.14994426
v -3.9685845349999997 -0.29961114 0.15864002
v -3.9688239349999996 -0.32782251 0.15864002
v -3.9688296549999995 -0.29961114 0.14196007
v -3.914036875 -0.29961114 0.1086186
v -3.932626065 -0.4699131 0.09685483
v -3.932626065 -0.29961114 0.09596772
v -3.9295649150000003 -0.29961114 0.09669773
v -3.922450715 -0.34451257 0.09879544
v -3.968339405 -0.4699131 0.12528931
v -3.9687441349999997 -0.29961114 0.13684058
v -3.968350795 -0.46122627 0.12528931
v -3.922399425 -0.29961114 0.09904491
v -3.9492998649999995 -0.4699131 0.09582905
v -3.9492998649999995 -0.29961114 0.09427659
v -3.944169465 -0.29961114 0.09466474
v -3.967176525 -0.4699131 0.11660279
v -3.966492495 -0.29961114 0.1086186
v -3.968538905 -0.29961114 0.12528931
v -3.9547666550000002 -0.4699131 0.09682709
v -3.961185315 -0.29961114 0.09735384
v -3.960757805 -0.4699131 0.09792676
v -3.9660649249999995 -0.4699131 0.1086186
v -3.9633001949999995 -0.4699131 0.10302782
f 1 2 7
f 1 7 14
f 1 14 19
f 1 19 25
f 1 25 31
f 1 31 39
f 1 39 34
f 1 34 33
f 1 33 42
f 1 42 41
f 1 41 47
f 1 47 44
f 1 44 45
f 1 45 37
f 1 37 30
f 1 30 28
f 1 28 22
f 1 22 18
f 1 18 16
f 1 16 12
f 1 12 3
f 1 3 4
f 1 4 5
f 1 5 6
f 1 6 2
f 2 6 8
f 2 8 9
f 2 9 10
f 2 10 11
f 2 11 7
f 3 12 4
f 4 13 17
f 4 17 21
f 4 21 27
f 4 27 36
f 4 36 43
f 4 43 49
f 4 49 50
f 4 50 48
f 4 48 46
f 4 46 40
f 4 40 32
f 4 32 26
f 4 26 20
f 4 20 15
f 4 15 9
f 4 9 8
f 4 8 6
f 4 6 5
f 4 12 13
f 7 11 14
f 9 15 10
f 10 15 14
f 10 14 11
f 12 16 13
f 13 16 18
f 13 18 17
f 14 15 20
f 14 20 19
f 17 18 21
f 18 22 23
f 18 23 24
f 18 24 21
f 19 20 25
f 20 26 25
f 21 24 27
f 22 28 29
f 22 29 23
f 23 29 30
f 23 30 24
f 24 30 27
f 25 26 31
f 26 32 33
f 26 33 34
f 26 34 35
f 26 35 31
f 27 30 36
f 28 30 29
f 30 37 38
f 30 38 36
f 31 35 39
f 32 40 41
f 32 41 42
f 32 42 33
f 34 39 35
f 36 38 44
f 36 44 43
f 37 45 38
f 38 45 44
f 40 46 41
f 41 46 48
f 41 48 47
f 43 44 49
f 44 47 49
f 47 48 50
f 47 50 49

