# https://github.com/mikedh/trimesh
v 0.85888977 1.56093569 0.87832457
v 0.85888977 1.56093569 0.89759580
v 0.85888977 1.57240230 0.83633943
v 0.85890887 1.56093569 0.83300476
v 0.87568465 1.56093569 0.89760216
v 0.85888977 1.57240230 0.89758946
v 0.85888977 1.57249591 0.83633943
v 0.85888977 1.59243376 0.83649187
v 0.85902349 2.03906998 0.83679040
v 0.97565144 1.56093569 0.83275704
v 0.88093902 1.56093569 0.89760216
v 0.85900439 1.57240230 0.89758946
v 0.85902349 2.02231469 0.89663669
v 0.85888977 1.58906399 0.89750688
v 0.85888977 1.59243376 0.83710164
v 0.85902349 2.03906998 0.89623018
v 1.05406576 2.03906998 0.83673324
v 1.00897371 1.56093569 0.83271892
v 0.99231259 1.56093569 0.83272527
v 1.05406576 1.56093569 0.89744971
v 1.05406576 1.57240230 0.89744336
v 0.89234577 1.57240230 0.89757040
v 0.87568465 1.57240230 0.89758311
v 0.89234577 2.02231469 0.89659858
v 0.89234577 2.03906998 0.89645249
v 0.85908083 2.03906998 0.89644614
v 0.85902349 2.03902317 0.89642708
v 0.85888977 1.59238696 0.89748783
v 1.05406576 1.56093569 0.83275704
v 1.04229598 1.56093569 0.83273798
v 1.05406576 2.03906998 0.89573474
v 1.05406576 1.58906399 0.89739890
v 1.05406576 1.88410692 0.89647790
v 1.05406576 1.90076861 0.89642073
v 1.05406576 1.90563607 0.89640168
v 1.05406576 1.92229775 0.89633180
v 1.05406576 2.00565299 0.89596341
v 1.05406576 2.02231469 0.89588719
v 1.05406576 2.03410891 0.89578555
f 1 2 6
f 1 6 14
f 1 14 28
f 1 28 15
f 1 15 8
f 1 8 7
f 1 7 3
f 1 3 4
f 1 4 10
f 1 10 19
f 1 19 18
f 1 18 30
f 1 30 29
f 1 29 20
f 1 20 11
f 1 11 5
f 1 5 2
f 2 5 6
f 3 7 4
f 4 7 8
f 4 8 9
f 4 9 10
f 5 11 12
f 5 12 6
f 6 12 13
f 6 13 14
f 8 15 16
f 8 16 9
f 9 16 26
f 9 26 25
f 9 25 31
f 9 31 17
f 9 17 18
f 9 18 19
f 9 19 10
f 11 20 21
f 11 21 22
f 11 22 23
f 11 23 12
f 12 23 13
f 13 24 25
f 13 25 26
f 13 26 27
f 13 27 28
f 13 28 14
f 13 23 22
f 13 22 21
f 13 21 24
f 15 28 16
f 16 28 27
f 16 27 26
f 17 29 30
f 17 30 18
f 17 31 39
f 17 39 38
f 17 38 37
f 17 37 36
f 17 36 35
f 17 35 34
f 17 34 33
f 17 33 32
f 17 32 21
f 17 21 20
f 17 20 29
f 21 32 24
f 24 33 34
f 24 34 35
f 24 35 36
f 24 36 37
f 24 37 38
f 24 38 39
f 24 39 25
f 24 32 33
f 25 39 31

