# https://github.com/mikedh/trimesh
v -2.931978335 -0.62156672 1.42210556
v -2.934767225 -0.62156672 1.42211099
v -2.9486342050000003 -0.57836807 1.42618888
v -2.931978335 -0.57836807 1.42618348
v -2.9315909949999996 -0.57836807 1.42618348
v -2.7651874149999998 -0.57836807 1.42655713
v -2.7651874149999998 -0.62156672 1.42248464
v -3.085522055 -0.62156672 1.42244131
v -3.0895504449999995 -0.57836807 1.4265084
v -2.752017685 -0.62156672 1.42251715
v -2.298126365 -0.57836807 1.42774856
v -3.0895504449999995 -0.62156672 1.42246839
v -3.0895504449999995 -0.57836807 1.47731163
v -2.735361825 -0.62156672 1.42256587
v -2.298126365 -0.57836807 1.47604437
v -2.298126365 -0.62156672 1.42413638
v -3.0895504449999995 -0.62156672 1.47743077
v -3.0895504449999995 -0.5854261700000001 1.47734411
v -3.0820359349999995 -0.57836807 1.47731163
v -2.298126365 -0.5946537199999999 1.47607688
v -3.065380075 -0.57836807 1.47729538
v -3.0153350749999994 -0.5946537199999999 1.47728995
v -3.0153350749999994 -0.61132421 1.47734411
v -2.298126365 -0.62156672 1.47612021
v -3.0895504449999995 -0.61132421 1.47741994
v -3.0820359349999995 -0.62156672 1.47742534
v -3.0820359349999995 -0.61132421 1.47741994
v -3.0895504449999995 -0.5946537199999999 1.47738204
v -3.0820359349999995 -0.5946537199999999 1.47738204
v -3.065380075 -0.5946537199999999 1.47736036
v -3.075606005 -0.62156672 1.47741994
v -3.0153350749999994 -0.62156672 1.47734953
f 1 2 3
f 1 3 4
f 1 4 5
f 1 5 6
f 1 6 7
f 1 7 10
f 1 10 14
f 1 14 16
f 1 16 24
f 1 24 32
f 1 32 31
f 1 31 26
f 1 26 17
f 1 17 12
f 1 12 8
f 1 8 2
f 2 8 3
f 3 8 9
f 3 9 13
f 3 13 19
f 3 19 21
f 3 21 15
f 3 15 11
f 3 11 6
f 3 6 5
f 3 5 4
f 6 10 7
f 6 11 10
f 8 12 9
f 9 12 17
f 9 17 25
f 9 25 28
f 9 28 18
f 9 18 13
f 10 11 14
f 11 15 20
f 11 20 24
f 11 24 16
f 11 16 14
f 13 18 19
f 15 21 22
f 15 22 23
f 15 23 20
f 17 26 27
f 17 27 25
f 18 28 29
f 18 29 19
f 19 29 21
f 20 23 24
f 21 29 30
f 21 30 22
f 22 30 23
f 23 30 29
f 23 29 27
f 23 27 31
f 23 31 32
f 23 32 24
f 25 27 29
f 25 29 28
f 26 31 27

