# https://github.com/mikedh/trimesh
v 1.30799344 2.06455230 1.01364157
v 1.30799344 2.06342260 1.09735257
v 1.30799344 2.11439637 1.01364157
v 1.31918102 2.06451534 1.01364157
v 1.80897756 2.06137964 1.09735257
v 1.80279046 2.06140074 1.09735257
v 1.30901048 2.06329064 1.09735257
v 1.30799344 2.11420635 1.09735257
v 1.30799344 2.11439637 1.02021325
v 1.30901048 2.11440164 1.01364157
v 1.32570713 2.06449424 1.01364157
v 1.82558942 2.06382908 1.01364157
v 1.84228612 2.06383963 1.01364157
v 2.17367635 2.06414582 1.01364157
v 1.82558942 2.06144300 1.09735257
v 1.30799344 2.11436469 1.03796988
v 1.30901048 2.11421690 1.09735257
v 1.30901048 2.11440164 1.02021325
v 1.32570713 2.11447555 1.01364157
v 2.17367635 2.11498762 1.01364157
v 2.17367635 2.06343315 1.09735257
v 1.32570713 2.11447555 1.02021325
v 1.32570713 2.11432776 1.09735257
v 1.33223324 2.11449141 1.01364157
v 2.17367635 2.11499817 1.02212247
v 2.00899831 2.11516182 1.01364157
v 2.00899831 2.11517240 1.02021325
v 2.17367635 2.11493484 1.09735257
v 1.34240378 2.11451251 1.02021325
v 1.74227573 2.11507208 1.09735257
v 1.72574857 2.11515654 1.07020549
v 1.72574857 2.11521990 1.05354688
v 1.72574857 2.11526213 1.03688006
v 1.39240896 2.11461810 1.01364157
v 2.17367635 2.11499290 1.07211472
v 1.99230160 2.11520405 1.03688006
v 1.99230160 2.11520405 1.05354688
v 1.99882777 2.11517240 1.01364157
v 1.99230160 2.11518822 1.02021325
v 1.99848874 2.11515654 1.09735257
v 1.39240896 2.11461282 1.02021325
v 1.99230160 2.11516182 1.09735257
v 1.74227573 2.11518295 1.07020549
v 1.74227573 2.11524100 1.05354688
v 1.74227573 2.11528323 1.03688006
v 1.74227573 2.11530964 1.02021325
v 1.73227468 2.11528854 1.01364157
v 1.74227573 2.11530436 1.01364157
v 1.99230160 2.11517767 1.01364157
v 1.97560502 2.11518822 1.01364157
v 1.75897238 2.11518822 1.07020549
f 1 2 8
f 1 8 16
f 1 16 9
f 1 9 3
f 1 3 10
f 1 10 19
f 1 19 24
f 1 24 34
f 1 34 47
f 1 47 48
f 1 48 50
f 1 50 49
f 1 49 38
f 1 38 26
f 1 26 20
f 1 20 14
f 1 14 13
f 1 13 12
f 1 12 11
f 1 11 4
f 1 4 5
f 1 5 6
f 1 6 7
f 1 7 2
f 2 7 6
f 2 6 5
f 2 5 15
f 2 15 21
f 2 21 28
f 2 28 40
f 2 40 42
f 2 42 30
f 2 30 23
f 2 23 17
f 2 17 8
f 3 9 18
f 3 18 10
f 4 11 5
f 5 12 13
f 5 13 14
f 5 14 15
f 5 11 12
f 8 17 16
f 9 16 18
f 10 18 22
f 10 22 19
f 14 20 25
f 14 25 35
f 14 35 28
f 14 28 21
f 14 21 15
f 16 22 18
f 16 17 23
f 16 23 22
f 19 22 24
f 20 26 27
f 20 27 25
f 22 23 29
f 22 29 24
f 23 30 31
f 23 31 32
f 23 32 33
f 23 33 29
f 24 29 34
f 25 27 36
f 25 36 37
f 25 37 35
f 26 38 27
f 27 38 39
f 27 39 36
f 28 35 40
f 29 33 41
f 29 41 34
f 30 42 43
f 30 43 31
f 31 43 32
f 32 43 44
f 32 44 45
f 32 45 33
f 33 45 46
f 33 46 41
f 34 41 46
f 34 46 47
f 35 37 40
f 36 39 48
f 36 48 46
f 36 46 37
f 37 42 40
f 37 46 42
f 38 49 39
f 39 49 50
f 39 50 48
f 42 46 45
f 42 45 44
f 42 44 51
f 42 51 43
f 43 51 44
f 46 48 47

