# https://github.com/mikedh/trimesh
v 1.35915182 2.05461431 0.90339692
v 1.35832179 2.05461431 0.90341557
v 1.35915182 2.03899684 0.89574922
v 1.35915182 2.05461431 0.90238967
v 1.34162149 2.05461431 0.90338759
v 1.34232702 2.03899684 0.89574922
v 1.35915182 2.03899684 0.83635825
v 1.35915182 2.05459291 0.82829084
v 1.35899412 2.05461431 0.82826287
v 1.32487969 2.05461431 0.90331298
v 1.27567523 2.05451188 0.90314511
v 1.29233403 2.03912067 0.89571191
v 1.32566822 2.03899684 0.89572124
v 1.32566822 2.03899684 0.82009287
v 1.32566822 2.05461431 0.81046796
v 1.30791378 2.05461431 0.90321972
v 1.27453809 2.05451188 0.90308915
v 1.27435548 2.03912067 0.89559067
v 1.27567523 2.03912067 0.89564663
v 1.30791378 2.03899684 0.89568393
v 1.30900943 2.03899684 0.81675400
v 1.30845330 2.05461431 0.80813634
v 1.27435548 2.05451188 0.90013266
v 1.30791378 2.05461431 0.80825758
v 1.27435548 2.05450425 0.90307049
v 1.27435548 2.05436513 0.90300521
v 1.27435548 2.05349680 0.90258551
v 1.27435548 2.03912067 0.83586394
v 1.30791378 2.03899684 0.81736022
v 1.30275926 2.05451188 0.80946071
v 1.27435548 2.05451188 0.82812297
f 1 2 3
f 1 3 7
f 1 7 8
f 1 8 4
f 1 4 9
f 1 9 15
f 1 15 22
f 1 22 24
f 1 24 16
f 1 16 10
f 1 10 5
f 1 5 2
f 2 5 6
f 2 6 3
f 3 6 13
f 3 13 20
f 3 20 29
f 3 29 21
f 3 21 14
f 3 14 7
f 4 8 9
f 5 10 11
f 5 11 12
f 5 12 13
f 5 13 6
f 7 14 15
f 7 15 8
f 8 15 9
f 10 16 11
f 11 16 17
f 11 17 18
f 11 18 19
f 11 19 12
f 12 19 20
f 12 20 13
f 14 21 15
f 15 21 22
f 16 23 17
f 16 24 31
f 16 31 23
f 17 23 25
f 17 25 26
f 17 26 27
f 17 27 18
f 18 28 29
f 18 29 20
f 18 20 19
f 18 27 26
f 18 26 25
f 18 25 23
f 18 23 31
f 18 31 28
f 21 29 30
f 21 30 22
f 22 30 24
f 24 30 31
f 28 31 30
f 28 30 29

