# https://github.com/mikedh/trimesh
v 2.31855608 2.10568171 1.95353169
v 2.31853713 2.10568171 1.93688303
v 2.31803346 2.11728212 1.93688303
v 2.31804288 2.11734619 1.95353169
v 2.31801439 2.11728212 1.97020653
v 2.31849910 2.10568171 1.97020653
v 2.31737781 2.03830422 1.99528419
v 2.31737781 2.03830422 1.99328163
v 2.31850852 2.10568171 1.92022131
v 2.31795741 2.11739197 1.88688476
v 2.31801439 2.11720886 1.92022131
v 2.31264540 2.12572375 1.88688476
v 2.31212278 2.12561387 1.97020653
v 2.31790042 2.11652218 1.98686824
v 2.31829000 2.10568171 1.98686824
v 2.31738722 2.03904584 1.99528419
v 2.31773889 2.10568171 1.99578153
v 2.30899637 2.03904584 1.99961653
v 2.30907237 2.03830422 1.99956407
v 2.31678855 2.03830422 1.97020653
v 2.31741571 2.08045751 1.87019688
v 2.31780541 2.08901818 1.87019688
v 2.31831849 2.10568171 1.87019688
v 2.31846107 2.10568171 1.90355959
v 2.31792891 2.11725464 1.87019688
v 2.31254085 2.12559557 1.87019688
v 2.30420698 2.13137286 1.87019688
v 2.30431153 2.13139119 1.88688476
v 2.30378891 2.13130878 1.97020653
v 2.30315221 2.13124471 1.98686824
v 2.31148608 2.12485394 1.98686824
v 2.31765330 2.11524953 1.99566375
v 2.30899637 2.10568171 2.00010076
v 2.30827414 2.03830422 1.99979975
v 2.31627541 2.03830422 1.95353169
v 2.31293997 2.07212573 1.87019688
v 2.31568627 2.03830422 1.93688303
v 2.31507812 2.03830422 1.92022131
v 2.31167610 2.03830422 1.90355959
v 2.29232863 2.13182151 1.87019688
v 2.29232863 2.13183066 1.88688476
v 2.29232863 2.13183066 1.90355959
v 2.30396946 2.13140034 1.92022131
v 2.30392195 2.13138204 1.93688303
v 2.29232863 2.13168418 1.97020653
v 2.29232863 2.13182151 1.92022131
v 2.29232863 2.13149189 1.98686824
v 2.30193585 2.13101580 1.99566375
v 2.30809359 2.12142968 1.99746991
v 2.29232863 2.10568171 2.00381785
v 2.29232863 2.03904584 2.00387031
v 2.29232863 2.03830422 2.00387031
v 2.29430520 2.03831338 1.87019688
v 2.29430520 2.03830422 1.87022305
v 2.27567037 2.13130878 1.87019688
v 2.22147650 2.12973399 1.97020653
v 2.28277840 2.13074113 1.99529730
v 2.29232863 2.13097917 1.99561142
v 2.22147650 2.12955088 1.97439486
v 2.22147650 2.12898320 1.98686824
v 2.29232863 2.12235443 1.99991753
v 2.22147650 2.10569086 2.00318962
v 2.27567037 2.07237294 2.00390953
v 2.29160640 2.03830422 2.00387031
v 2.29347848 2.03830422 1.87019688
v 2.26683290 2.13086932 1.87019688
v 2.22147650 2.12953255 1.92022131
v 2.22147650 2.12107262 1.99921074
v 2.22147650 2.08902732 2.00313728
v 2.27567037 2.05570937 2.00387031
v 2.27567037 2.03830422 2.00380486
v 2.25633239 2.03830422 1.87019688
v 2.22147650 2.11463607 1.87019688
v 2.22147650 2.12753658 1.90355959
v 2.22147650 2.12806764 1.90776104
v 2.22147650 2.07237294 2.00165824
v 2.22147650 2.03830422 1.99794115
v 2.22147650 2.07839744 1.87019688
v 2.22147650 2.03830422 1.93646424
v 2.22147650 2.06234733 1.89361227
f 1 2 3
f 1 3 4
f 1 4 5
f 1 5 6
f 1 6 7
f 1 7 8
f 1 8 2
f 2 8 9
f 2 9 10
f 2 10 11
f 2 11 3
f 3 11 10
f 3 10 4
f 4 10 12
f 4 12 5
f 5 12 13
f 5 13 14
f 5 14 6
f 6 14 15
f 6 15 16
f 6 16 7
f 7 16 17
f 7 17 18
f 7 18 19
f 7 19 34
f 7 34 52
f 7 52 64
f 7 64 71
f 7 71 77
f 7 77 79
f 7 79 72
f 7 72 65
f 7 65 54
f 7 54 39
f 7 39 38
f 7 38 37
f 7 37 35
f 7 35 20
f 7 20 8
f 8 20 21
f 8 21 22
f 8 22 23
f 8 23 24
f 8 24 9
f 9 24 25
f 9 25 10
f 10 25 12
f 12 25 26
f 12 26 27
f 12 27 28
f 12 28 29
f 12 29 13
f 13 29 30
f 13 30 31
f 13 31 14
f 14 31 32
f 14 32 15
f 15 32 17
f 15 17 16
f 17 32 33
f 17 33 18
f 18 33 34
f 18 34 19
f 20 35 21
f 21 36 53
f 21 53 65
f 21 65 72
f 21 72 78
f 21 78 73
f 21 73 66
f 21 66 55
f 21 55 40
f 21 40 27
f 21 27 26
f 21 26 25
f 21 25 23
f 21 23 22
f 21 35 37
f 21 37 38
f 21 38 39
f 21 39 36
f 23 25 24
f 27 40 28
f 28 41 42
f 28 42 43
f 28 43 44
f 28 44 29
f 28 40 41
f 29 45 30
f 29 44 46
f 29 46 45
f 30 45 47
f 30 47 48
f 30 48 31
f 31 48 32
f 32 48 49
f 32 49 33
f 33 49 50
f 33 50 51
f 33 51 52
f 33 52 34
f 36 39 53
f 39 54 53
f 40 55 56
f 40 56 41
f 41 56 42
f 42 46 43
f 42 56 46
f 43 46 44
f 45 56 47
f 45 46 56
f 47 57 58
f 47 58 48
f 47 56 59
f 47 59 60
f 47 60 57
f 48 58 61
f 48 61 49
f 49 61 50
f 50 62 63
f 50 63 51
f 50 61 62
f 51 63 52
f 52 63 64
f 53 54 65
f 55 66 67
f 55 67 56
f 56 67 75
f 56 75 74
f 56 74 73
f 56 73 78
f 56 78 80
f 56 80 79
f 56 79 77
f 56 77 76
f 56 76 69
f 56 69 62
f 56 62 68
f 56 68 60
f 56 60 59
f 57 60 68
f 57 68 58
f 58 68 61
f 61 68 62
f 62 69 70
f 62 70 63
f 63 70 64
f 64 70 71
f 66 73 74
f 66 74 75
f 66 75 67
f 69 71 70
f 69 76 71
f 71 76 77
f 72 79 80
f 72 80 78

