# https://github.com/mikedh/trimesh
v -2.26209790 2.05466092 0.83362263
v -2.26209790 2.03354403 0.83871225
v -2.26209790 2.05466092 0.90496233
v -2.16423219 2.05466092 0.83369341
v -2.26209790 2.03354403 0.89818087
v -2.04825881 2.03354403 0.83933518
v -2.11472370 2.05466092 0.90583301
v -2.16188762 2.05466092 0.83370050
v -2.13138703 2.03354403 0.89895246
v -2.04825881 2.05466092 0.83447209
v -2.04825881 2.03354403 0.89917899
v -2.12020839 2.03354403 0.89900909
v -2.09806037 2.05466092 0.90588964
v -2.04825881 2.05466092 0.90593212
v -2.05353410 2.03354403 0.89917899
v -2.10354506 2.03354403 0.89906572
v -2.08686075 2.03354403 0.89911527
v -2.07019742 2.03354403 0.89915067
v -2.08137613 2.05466092 0.90591796
f 1 2 5
f 1 5 3
f 1 3 7
f 1 7 13
f 1 13 19
f 1 19 14
f 1 14 10
f 1 10 8
f 1 8 4
f 1 4 2
f 2 4 6
f 2 6 11
f 2 11 15
f 2 15 18
f 2 18 17
f 2 17 16
f 2 16 12
f 2 12 9
f 2 9 5
f 3 5 7
f 4 8 6
f 5 9 7
f 6 10 14
f 6 14 11
f 6 8 10
f 7 9 12
f 7 12 16
f 7 16 13
f 11 14 15
f 13 16 17
f 13 17 18
f 13 18 15
f 13 15 19
f 14 19 15

