# https://github.com/mikedh/trimesh
v -2.08217995 -0.71098902 1.78198572
v -2.08253106 -0.71551723 1.78198572
v -2.08239818 -0.69823157 1.78198572
v -2.08412527 -0.71140688 1.92643093
v -2.08665902 -0.7243093 1.78198572
v -2.08616554 -0.72343946 1.92643093
v -2.08255003 -0.69549417 1.78198572
v -2.0862984300000003 -0.69931458 1.92643093
v -2.0907015700000002 -0.73264939 1.78198572
v -2.09476308 -0.7317880800000001 1.92643093
v -2.09194467 -0.73151519 1.87635941
v -2.0914702199999997 -0.731754 1.85968775
v -2.0911855 -0.73189042 1.84301609
v -2.08308143 -0.69371188 1.78198572
v -2.0910051999999997 -0.69093185 1.92643093
v -2.09352946 -0.73493482 1.78198572
v -2.10308543 -0.7369985299999999 1.92643093
v -2.10185175 -0.7374334300000001 1.90971681
v -2.10092176 -0.73776602 1.89303101
v -2.1002859899999997 -0.73802185 1.87635941
v -2.09981154 -0.7382009199999999 1.85968775
v -2.08758894 -0.6868129700000001 1.78198572
v -2.0993085799999998 -0.68198629 1.92643093
v -2.0990808100000002 -0.7385249899999999 1.79298698
v -2.0990333999999997 -0.73857616 1.78198572
v -2.09952681 -0.7383118 1.84301609
v -2.099356 -0.73837147 1.82634443
v -2.1133815499999997 -0.73867847 1.92643093
v -2.1133815499999997 -0.73934365 1.90971681
v -2.1133815499999997 -0.7398894 1.89303101
v -2.1133815499999997 -0.74029022 1.87635941
v -2.1133815499999997 -0.74059722 1.85968775
v -2.1133815499999997 -0.74080188 1.84301609
v -2.09610107 -0.67860079 1.78198572
v -2.11655107 -0.6648200200000001 1.92643093
v -2.10852293 -0.74036698 1.78198572
v -2.1133815499999997 -0.7412794300000001 1.78198572
v -2.1300641899999997 -0.7407507099999999 1.92643093
v -2.14671837 -0.74257565 1.92643093
v -2.14671837 -0.7427461900000001 1.90971681
v -2.14671837 -0.74289118 1.89303101
v -2.14671837 -0.74302761 1.87635941
v -2.1300641899999997 -0.74204693 1.84301609
v -2.11378962 -0.66177563 1.78198572
v -2.11658906 -0.66479444 1.92638847
v -2.1300641899999997 -0.65915762 1.92638847
v -2.1301021799999997 -0.65915762 1.92643093
v -2.14671837 -0.7434199 1.80728307
v -2.1300547 -0.7424051 1.78198572
v -2.14671837 -0.74313848 1.85968775
v -2.14671837 -0.74331755 1.82634443
v -2.163401 -0.74307878 1.92643093
v -2.1167124 -0.6606073299999999 1.78198572
v -2.14671837 -0.65847541 1.92638847
v -2.1300547 -0.65645434 1.78198572
v -2.1467563 -0.65847541 1.92643093
v -2.14671837 -0.7435222100000001 1.78198572
v -2.17487385 -0.7395739 1.92643093
v -2.1633915200000002 -0.7434454500000001 1.78198572
v -2.13195261 -0.6564031699999999 1.78198572
v -2.163401 -0.6597972000000001 1.92638847
v -2.16341049 -0.65980572 1.92643093
v -2.15237416 -0.65774201 1.78198572
v -2.17856529 -0.72805295 1.92643093
v -2.17489282 -0.73956537 1.92638847
v -2.17487385 -0.7396421 1.78198572
v -2.17516806 -0.6653657900000001 1.87635941
v -2.17517754 -0.66537432 1.89303101
v -2.1750826500000002 -0.66539137 1.92643093
v -2.1633915200000002 -0.65993364 1.79298698
v -2.17515852 -0.66538284 1.79298698
v -2.1633915200000002 -0.66002744 1.78198572
v -2.17907773 -0.71138129 1.92643093
v -2.17856529 -0.72805295 1.92638847
v -2.1783944799999997 -0.72805295 1.78198572
v -2.17516806 -0.66541696 1.78198572
v -2.17879306 -0.6780379599999999 1.89303101
v -2.17878358 -0.6780379599999999 1.92643093
v -2.17911572 -0.69472668 1.92643093
v -2.17907773 -0.71138129 1.92638847
v -2.17852736 -0.7223905500000001 1.78198572
v -2.17752145 -0.67374 1.78198572
v -2.1787361 -0.6780379599999999 1.78198572
v -2.17884047 -0.6947181499999999 1.78198572
v -2.17878358 -0.71138129 1.78198572
f 1 2 5
f 1 5 9
f 1 9 16
f 1 16 25
f 1 25 36
f 1 36 37
f 1 37 49
f 1 49 57
f 1 57 59
f 1 59 66
f 1 66 75
f 1 75 81
f 1 81 85
f 1 85 84
f 1 84 83
f 1 83 82
f 1 82 76
f 1 76 72
f 1 72 63
f 1 63 60
f 1 60 55
f 1 55 53
f 1 53 44
f 1 44 34
f 1 34 22
f 1 22 14
f 1 14 7
f 1 7 3
f 1 3 4
f 1 4 2
f 2 4 6
f 2 6 5
f 3 7 4
f 4 8 15
f 4 15 23
f 4 23 35
f 4 35 47
f 4 47 56
f 4 56 62
f 4 62 69
f 4 69 78
f 4 78 79
f 4 79 73
f 4 73 64
f 4 64 58
f 4 58 52
f 4 52 39
f 4 39 38
f 4 38 28
f 4 28 17
f 4 17 10
f 4 10 6
f 4 7 8
f 5 6 9
f 6 10 11
f 6 11 12
f 6 12 13
f 6 13 9
f 7 14 8
f 8 14 15
f 9 13 16
f 10 17 18
f 10 18 19
f 10 19 20
f 10 20 11
f 11 20 12
f 12 21 13
f 12 20 21
f 13 21 16
f 14 22 15
f 15 22 23
f 16 24 25
f 16 21 26
f 16 26 27
f 16 27 24
f 17 28 29
f 17 29 18
f 18 29 30
f 18 30 19
f 19 30 31
f 19 31 20
f 20 31 32
f 20 32 21
f 21 32 33
f 21 33 26
f 22 34 35
f 22 35 23
f 24 36 25
f 24 27 26
f 24 26 36
f 26 33 37
f 26 37 36
f 28 38 29
f 29 38 30
f 30 38 39
f 30 39 31
f 31 39 32
f 32 39 33
f 33 39 40
f 33 40 41
f 33 41 42
f 33 42 43
f 33 43 37
f 34 44 35
f 35 45 46
f 35 46 47
f 35 44 45
f 37 48 49
f 37 43 42
f 37 42 50
f 37 50 51
f 37 51 48
f 39 52 40
f 40 52 41
f 41 52 42
f 42 52 50
f 44 53 46
f 44 46 45
f 46 54 56
f 46 56 47
f 46 53 55
f 46 55 54
f 48 57 49
f 48 51 52
f 48 52 57
f 50 52 51
f 52 58 59
f 52 59 57
f 54 55 60
f 54 60 56
f 56 61 62
f 56 60 63
f 56 63 61
f 58 64 65
f 58 65 66
f 58 66 59
f 61 67 68
f 61 68 69
f 61 69 62
f 61 63 70
f 61 70 71
f 61 71 67
f 63 72 70
f 64 73 80
f 64 80 74
f 64 74 66
f 64 66 65
f 66 74 75
f 67 71 68
f 68 71 76
f 68 76 77
f 68 77 78
f 68 78 69
f 70 72 76
f 70 76 71
f 73 79 80
f 74 80 75
f 75 80 81
f 76 82 77
f 77 79 78
f 77 82 83
f 77 83 79
f 79 83 84
f 79 84 80
f 80 84 85
f 80 85 81

