# https://github.com/mikedh/trimesh
v -2.28874949 1.48268055 0.50353880
v -2.28137384 1.48268934 0.50353880
v -2.26478555 1.48273327 0.52012881
v -2.28874949 1.48273327 0.51282706
v -2.28874949 1.48594897 0.49726607
v -2.26478555 1.48274206 0.50347615
v -2.26478555 1.48341858 0.53679044
v -2.28874949 1.48347130 0.53686202
v -2.28874949 1.48279478 0.52020937
v -2.28874949 1.49006962 0.48938267
v -2.26478555 1.49010478 0.48942743
v -2.26478555 1.48672213 0.55345207
v -2.28874949 1.48543937 0.54615923
v -2.28137384 1.49008720 0.48939161
v -2.28874949 1.49699302 0.48697558
v -2.28874949 1.50569999 0.48400480
v -2.26478555 1.50569999 0.48416585
v -2.26478555 1.49340831 0.56468209
v -2.28874949 1.48711752 0.55353259
v -2.28874949 1.57235088 0.47709674
v -2.28874717 1.57242995 0.47709674
v -2.26478555 1.52235831 0.48517699
v -2.28137384 1.50569999 0.56758134
v -2.28137384 1.49371584 0.56452103
v -2.28874949 1.49383004 0.56441366
v -2.28874949 1.49085158 0.55965317
v -2.26478555 1.50563847 0.56777819
v -2.28874949 1.57242995 0.48090867
v -2.26484891 1.57242995 0.50992784
v -2.26478555 1.54842649 0.49391045
v -2.26478555 1.53901666 0.48916791
v -2.28874949 1.50569999 0.56746499
v -2.28874949 1.52235831 0.56807347
v -2.26478555 1.52228803 0.56810032
v -2.28137384 1.52235831 0.56810032
v -2.28874949 1.57242995 0.56849404
v -2.26478555 1.57235088 0.50996363
v -2.26478555 1.57242995 0.56796609
v -2.28874949 1.53164517 0.56820770
v -2.26478555 1.53894635 0.56832402
v -2.28137384 1.53901666 0.56832402
v -2.28874949 1.57235088 0.56850298
v -2.28137384 1.57242995 0.56849404
v -2.26478555 1.57242995 0.56847616
v -2.28874949 1.53901666 0.56830614
v -2.26478555 1.55561348 0.56846719
v -2.28137384 1.55568377 0.56846719
v -2.28874949 1.55568377 0.56845825
v -2.26478555 1.57228059 0.56847616
f 1 2 3
f 1 3 4
f 1 4 9
f 1 9 8
f 1 8 13
f 1 13 19
f 1 19 26
f 1 26 25
f 1 25 32
f 1 32 33
f 1 33 39
f 1 39 45
f 1 45 48
f 1 48 42
f 1 42 36
f 1 36 28
f 1 28 20
f 1 20 16
f 1 16 15
f 1 15 10
f 1 10 5
f 1 5 2
f 2 5 6
f 2 6 3
f 3 6 11
f 3 11 17
f 3 17 22
f 3 22 31
f 3 31 30
f 3 30 37
f 3 37 38
f 3 38 44
f 3 44 49
f 3 49 46
f 3 46 40
f 3 40 34
f 3 34 27
f 3 27 18
f 3 18 12
f 3 12 7
f 3 7 8
f 3 8 9
f 3 9 4
f 5 10 6
f 6 10 11
f 7 12 8
f 8 12 13
f 10 14 11
f 10 15 14
f 11 14 15
f 11 15 16
f 11 16 17
f 12 18 19
f 12 19 13
f 16 20 17
f 17 20 21
f 17 21 22
f 18 23 24
f 18 24 25
f 18 25 26
f 18 26 19
f 18 27 23
f 20 28 21
f 21 28 36
f 21 36 43
f 21 43 44
f 21 44 38
f 21 38 29
f 21 29 30
f 21 30 31
f 21 31 22
f 23 32 24
f 23 27 33
f 23 33 32
f 24 32 25
f 27 34 35
f 27 35 33
f 29 37 30
f 29 38 37
f 33 35 39
f 34 40 41
f 34 41 35
f 35 41 39
f 36 42 43
f 39 41 45
f 40 46 47
f 40 47 41
f 41 47 48
f 41 48 45
f 42 44 43
f 42 48 47
f 42 47 46
f 42 46 49
f 42 49 44

