# https://github.com/mikedh/trimesh
v -0.47891394 -0.6231446 1.21288976
v -0.47891394 -0.6231446 1.17181749
v -0.47895073999999993 -0.6231446 1.22754207
v -0.47891394 -0.6278546 1.22754207
v -0.47891394 -0.6345569 1.14979405
v -0.8550921599999999 -0.6231446 1.1739994
v -0.49088240000000005 -0.6231446 1.22755843
v -0.47891394 -0.6445277300000001 1.22757477
v -0.47891394 -0.6446838100000001 1.14699107
v -0.8550921599999999 -0.6446838100000001 1.14817601
v -0.8550921599999999 -0.63630133 1.15086459
v -0.8550921599999999 -0.6231446 1.2272724
v -0.5624354200000001 -0.6231446 1.22764015
v -0.5624354200000001 -0.62801068 1.22764832
v -0.47891394 -0.6780393 1.22759928
v -0.47891394 -0.66152223 1.14504616
v -0.8550921599999999 -0.66136615 1.145324
v -0.8550921599999999 -0.69471244 1.22749305
v -0.8292402699999999 -0.69471244 1.22757477
v -0.7458660800000001 -0.6231446 1.22743585
v -0.57425663 -0.6231446 1.22764832
v -0.57911763 -0.62801068 1.22765649
v -0.5624354200000001 -0.6446838100000001 1.22765649
v -0.47891394 -0.69471244 1.22754207
v -0.57911763 -0.6446838100000001 1.22766466
v -0.72918386 -0.69471244 1.22769735
v -0.7125016500000001 -0.69471244 1.22768918
v -0.47891394 -0.67817701 1.14458853
v -0.8550921599999999 -0.69471244 1.14433519
v -0.8550921599999999 -0.70274603 1.22478813
v -0.8550921599999999 -0.70931981 1.22256536
v -0.8292402699999999 -0.70931064 1.22263073
v -0.7458660800000001 -0.69471244 1.22768101
v -0.5957998500000001 -0.6231446 1.22764015
v -0.57911763 -0.6231446 1.22764832
v -0.47891394 -0.70906274 1.22256536
v -0.6791372099999999 -0.70925554 1.2226389
v -0.7625114399999999 -0.7092739 1.22266343
v -0.47891394 -0.69470327 1.14421261
v -0.8550921599999999 -0.7086404 1.1474487
v -0.47891394 -0.69488689 1.14425346
v -0.8550921599999999 -0.71313921 1.2152678
v -0.8550921599999999 -0.71626083 1.20928592
v -0.7791936500000001 -0.70929227 1.22264707
v -0.52907104 -0.70911781 1.22257353
v -0.6791372099999999 -0.71604966 1.20928592
v -0.47891394 -0.7156916 1.20947388
v -0.7791936500000001 -0.70860368 1.14742419
v -0.7625114399999999 -0.70860368 1.14743236
v -0.8550921599999999 -0.7155906000000001 1.15926536
v -0.47891394 -0.7084384100000001 1.14746504
v -0.8550921599999999 -0.7166280899999999 1.20011699
v -0.47891394 -0.7165178999999999 1.19285211
v -0.52907104 -0.71584768 1.20928592
v -0.47891394 -0.71576505 1.20928592
v -0.72918386 -0.70860368 1.14746504
v -0.8550921599999999 -0.71619657 1.16677539
v -0.72918386 -0.7154988 1.15926536
v -0.47891394 -0.7151958 1.15926536
v -0.7125016500000001 -0.71548043 1.15926536
v -0.8550921599999999 -0.71692188 1.19260695
v -0.47891394 -0.71652709 1.19260695
v -0.8550921599999999 -0.71693107 1.17593616
v -0.47891394 -0.716573 1.17593616
v -0.7125016500000001 -0.71680253 1.17593616
v -0.8550921599999999 -0.71693107 1.18345435
v -0.47891394 -0.716573 1.17619766
f 1 2 6
f 1 6 12
f 1 12 20
f 1 20 34
f 1 34 35
f 1 35 21
f 1 21 13
f 1 13 7
f 1 7 3
f 1 3 4
f 1 4 8
f 1 8 15
f 1 15 24
f 1 24 36
f 1 36 47
f 1 47 55
f 1 55 53
f 1 53 62
f 1 62 67
f 1 67 64
f 1 64 59
f 1 59 51
f 1 51 41
f 1 41 39
f 1 39 28
f 1 28 16
f 1 16 9
f 1 9 5
f 1 5 2
f 2 5 6
f 3 7 8
f 3 8 4
f 5 9 10
f 5 10 11
f 5 11 6
f 6 11 10
f 6 10 17
f 6 17 29
f 6 29 40
f 6 40 50
f 6 50 57
f 6 57 63
f 6 63 66
f 6 66 61
f 6 61 52
f 6 52 43
f 6 43 42
f 6 42 31
f 6 31 30
f 6 30 18
f 6 18 12
f 7 13 14
f 7 14 8
f 8 14 15
f 9 16 17
f 9 17 10
f 12 18 19
f 12 19 20
f 13 21 14
f 14 21 22
f 14 22 25
f 14 25 23
f 14 23 15
f 15 23 25
f 15 25 26
f 15 26 27
f 15 27 24
f 16 28 29
f 16 29 17
f 18 30 19
f 19 30 31
f 19 31 32
f 19 32 33
f 19 33 34
f 19 34 20
f 21 35 22
f 22 35 26
f 22 26 25
f 24 27 37
f 24 37 36
f 26 33 32
f 26 32 38
f 26 38 37
f 26 37 27
f 26 35 34
f 26 34 33
f 28 39 29
f 29 39 41
f 29 41 40
f 31 42 32
f 32 42 43
f 32 43 44
f 32 44 38
f 36 45 43
f 36 43 46
f 36 46 47
f 36 37 45
f 37 38 44
f 37 44 43
f 37 43 45
f 40 48 49
f 40 49 50
f 40 41 48
f 41 51 48
f 43 52 53
f 43 53 46
f 46 53 54
f 46 54 47
f 47 54 55
f 48 51 49
f 49 56 50
f 49 51 56
f 50 56 51
f 50 51 58
f 50 58 57
f 51 59 60
f 51 60 58
f 52 61 53
f 53 55 54
f 53 61 62
f 57 58 63
f 58 60 64
f 58 64 65
f 58 65 63
f 59 64 60
f 61 66 65
f 61 65 67
f 61 67 62
f 63 65 66
f 64 67 65

