# https://github.com/mikedh/trimesh
v -3.56031549 2.06406765 0.60364575
v -3.56031549 2.06413178 0.78326085
v -3.56031549 2.11055100 0.60364575
v -3.43140326 2.06345067 0.60364575
v -3.41472283 2.06326313 0.78326085
v -3.56031549 2.11257459 0.78326085
v -3.39826282 2.11321621 0.78326085
v -3.38148439 2.11124692 0.60364575
v -3.39809139 2.06329275 0.60364575
v -3.31833873 2.06292752 0.78326085
v -3.38145990 2.11324583 0.78326085
v -3.33151653 2.11142460 0.60364575
v -3.34817252 2.11137030 0.60364575
v -3.31008425 2.06323353 0.60364575
v -3.31473810 2.06291765 0.78326085
v -3.33141860 2.11331000 0.78326085
v -3.31028018 2.11333468 0.78326085
v -3.31481160 2.11143941 0.60364575
v -3.31008425 2.11143446 0.60364575
v -3.31008425 2.06299660 0.78326085
v -3.31008425 2.11333468 0.78326085
f 1 2 6
f 1 6 3
f 1 3 8
f 1 8 13
f 1 13 12
f 1 12 18
f 1 18 19
f 1 19 14
f 1 14 9
f 1 9 4
f 1 4 5
f 1 5 2
f 2 5 10
f 2 10 15
f 2 15 20
f 2 20 21
f 2 21 17
f 2 17 16
f 2 16 11
f 2 11 7
f 2 7 6
f 3 6 7
f 3 7 8
f 4 9 5
f 5 9 10
f 7 11 12
f 7 12 13
f 7 13 8
f 9 14 15
f 9 15 10
f 11 16 12
f 12 16 17
f 12 17 18
f 14 19 21
f 14 21 20
f 14 20 15
f 17 21 18
f 18 21 19

