# https://github.com/mikedh/trimesh
v 2.22489611 2.03965807 0.18152471
v 2.22489611 1.98903176 0.18133570
v 2.22489611 2.03965807 0.12817288
v 2.14301041 2.03965807 0.18160870
v 2.22489611 1.97236647 0.18125691
v 2.22489611 1.94632696 0.13219975
v 2.15899847 2.03965807 0.12799961
v 2.12634947 2.03965807 0.18161394
v 2.22489611 1.97159899 0.18125166
v 2.14235213 2.03965807 0.12797863
v 2.22489611 1.94632696 0.18102594
v 2.07556221 1.94632696 0.13243596
v 2.10901571 2.03965807 0.12799437
v 2.11675376 2.03965807 0.12798388
v 2.10901571 2.03965807 0.18155618
v 2.22489611 1.95493370 0.18110992
v 2.08296380 1.94632696 0.18037493
v 2.07547447 1.94632696 0.15336827
v 2.07547447 1.95570119 0.13239400
v 2.07547447 2.03965807 0.12840916
v 2.07559148 2.03965807 0.12840391
v 2.09234016 2.03965807 0.12809414
v 2.09234016 2.03965807 0.18141444
v 2.07567922 1.94632696 0.18033815
v 2.07547447 1.94632696 0.18033291
v 2.07547447 2.03965807 0.18126746
v 2.07567922 2.03965807 0.18127270
f 1 2 5
f 1 5 9
f 1 9 16
f 1 16 11
f 1 11 6
f 1 6 3
f 1 3 7
f 1 7 10
f 1 10 14
f 1 14 13
f 1 13 22
f 1 22 21
f 1 21 20
f 1 20 26
f 1 26 27
f 1 27 23
f 1 23 15
f 1 15 8
f 1 8 4
f 1 4 2
f 2 4 5
f 3 6 7
f 4 8 5
f 5 8 9
f 6 10 7
f 6 11 17
f 6 17 24
f 6 24 25
f 6 25 18
f 6 18 12
f 6 12 13
f 6 13 14
f 6 14 10
f 8 15 11
f 8 11 16
f 8 16 9
f 11 15 17
f 12 18 19
f 12 19 20
f 12 20 21
f 12 21 22
f 12 22 13
f 15 23 24
f 15 24 17
f 18 25 26
f 18 26 20
f 18 20 19
f 23 27 24
f 24 27 26
f 24 26 25

