# https://github.com/mikedh/trimesh
v -3.31009766 2.05295886 1.99792420
v -3.33140053 2.05295886 1.99797952
v -3.31472564 2.03590822 1.99665175
v -3.31009766 2.03590822 1.99663590
v -3.31009766 2.05295886 1.93227757
v -3.34805170 2.05295886 1.99801111
v -3.31784776 2.03590822 1.99665962
v -3.31009766 2.03590822 1.93227757
v -3.34090082 2.05295886 1.91726882
v -3.36589342 2.05295886 1.99798738
v -3.39062585 2.03590822 1.99669121
v -3.34805170 2.03590822 1.99669121
v -3.33140053 2.03590822 1.99668334
v -3.33677745 2.03590822 1.93227757
v -3.34090082 2.05256663 1.91726882
v -3.34213077 2.05295886 1.91726882
v -3.39062585 2.05295886 1.99793994
v -3.39062585 2.03590822 1.93675886
v -3.39062585 2.05295886 1.92650803
f 1 2 3
f 1 3 4
f 1 4 8
f 1 8 5
f 1 5 9
f 1 9 16
f 1 16 19
f 1 19 17
f 1 17 10
f 1 10 6
f 1 6 2
f 2 6 7
f 2 7 3
f 3 7 13
f 3 13 12
f 3 12 11
f 3 11 18
f 3 18 14
f 3 14 8
f 3 8 4
f 5 8 15
f 5 15 9
f 6 10 11
f 6 11 12
f 6 12 13
f 6 13 7
f 8 14 15
f 9 15 16
f 10 17 11
f 11 17 19
f 11 19 18
f 14 18 15
f 15 19 16
f 15 18 19

