# https://github.com/mikedh/trimesh
v -2.55843748 1.57249894 0.51082579
v -2.34826199 1.57249894 0.50985533
v -2.55843748 1.57249894 0.56956732
v -2.55843748 1.87235334 0.51105962
v -2.34811786 1.57249894 0.50985533
v -2.55843748 1.88275133 0.51107718
v -2.34811786 1.98901154 0.51060364
v -2.49788437 1.57249894 0.56946209
v -2.49802850 1.68906591 0.56925747
v -2.54803988 2.03840201 0.56863194
v -2.55843748 2.03840201 0.56864365
v -2.34811786 1.57249894 0.56852087
v -2.55843748 1.88899926 0.51108886
v -2.53348326 2.03840201 0.51129348
v -2.34811786 2.03840201 0.51084916
v -2.48122763 1.57249894 0.56940362
v -2.48137176 1.67237439 0.56925162
v -2.48137176 1.68906591 0.56922239
v -2.49802850 2.02234895 0.56853255
v -2.48137176 2.03840201 0.56842735
v -2.55843748 2.03840201 0.51157407
v -2.34811786 1.58896241 0.56853255
v -2.46469442 1.57249894 0.56929841
v -2.34811786 2.03840201 0.56769072
v -2.34811786 1.73895803 0.56843903
v -2.34811786 1.75564955 0.56841563
v -2.46469442 1.68906591 0.56914639
v -2.46469442 2.02234895 0.56840979
v -2.48137176 2.02234895 0.56847995
v -2.46469442 2.03840201 0.56836887
v -2.34811786 1.72231213 0.56845071
v -2.34811786 2.02225775 0.56779595
v -2.34811786 2.00561183 0.56788366
f 1 2 5
f 1 5 12
f 1 12 23
f 1 23 16
f 1 16 8
f 1 8 3
f 1 3 11
f 1 11 21
f 1 21 13
f 1 13 6
f 1 6 4
f 1 4 2
f 2 4 6
f 2 6 7
f 2 7 5
f 3 8 9
f 3 9 10
f 3 10 11
f 5 7 15
f 5 15 24
f 5 24 32
f 5 32 33
f 5 33 26
f 5 26 25
f 5 25 31
f 5 31 22
f 5 22 12
f 6 13 7
f 7 13 14
f 7 14 15
f 8 16 17
f 8 17 18
f 8 18 9
f 9 18 10
f 10 19 20
f 10 20 30
f 10 30 24
f 10 24 15
f 10 15 14
f 10 14 21
f 10 21 11
f 10 18 19
f 12 22 23
f 13 21 14
f 16 23 25
f 16 25 26
f 16 26 27
f 16 27 17
f 17 27 18
f 18 27 28
f 18 28 29
f 18 29 19
f 19 29 20
f 20 29 30
f 22 31 23
f 23 31 25
f 24 30 32
f 26 33 27
f 27 33 28
f 28 33 30
f 28 30 29
f 30 33 32

