# https://github.com/mikedh/trimesh
v 2.07547441 1.56583824 0.13110468
v 2.22526071 1.56583824 0.13096711
v 2.07547441 1.56583824 0.18031622
v 2.07547441 1.93920431 0.13247071
v 2.07557729 1.94631782 0.13243632
v 2.22565762 1.94631782 0.13219557
v 2.22526071 1.56583824 0.18116631
v 2.22565762 1.79160832 0.13216118
v 2.07547441 1.94631782 0.18033094
v 2.07547441 1.94631782 0.15337393
v 2.22565762 1.94631782 0.18092550
v 2.22565762 1.79160832 0.18026710
v 2.22565762 1.94628057 0.18103857
v 2.09964250 1.94631782 0.18044890
v 2.08298651 1.94631782 0.18037028
f 1 2 7
f 1 7 3
f 1 3 9
f 1 9 10
f 1 10 4
f 1 4 5
f 1 5 6
f 1 6 2
f 2 6 8
f 2 8 12
f 2 12 7
f 3 7 9
f 4 10 5
f 5 10 9
f 5 9 15
f 5 15 14
f 5 14 11
f 5 11 6
f 6 11 13
f 6 13 12
f 6 12 8
f 7 12 13
f 7 13 14
f 7 14 15
f 7 15 9
f 11 14 13

