# https://github.com/mikedh/trimesh
v -3.9059021549999997 -0.7113872299999999 0.20884997
v -3.905911335 -0.71153542 0.20884997
v -3.9066879849999996 -0.69927585 0.20884997
v -3.906121455 -0.70950177 0.35614353
v -3.906011835 -0.7113872299999999 0.35614353
v -3.9068250449999997 -0.72600156 0.20884997
v -3.906697115 -0.69914411 0.20884997
v -3.906761105 -0.69991805 0.35614353
v -3.9068616049999996 -0.7248241799999999 0.35614353
v -3.908259655 -0.73425148 0.20884997
v -3.910096255 -0.69081188 0.20884997
v -3.909977445 -0.69077071 0.22535851
v -3.9096758949999995 -0.69063075 0.32540451
v -3.9068433549999995 -0.69897945 0.30872295
v -3.9068616049999996 -0.6989712100000001 0.32540451
v -3.9098312650000002 -0.69109182 0.34208607
v -3.9102789949999996 -0.69157758 0.35614353
v -3.9071448449999995 -0.72614154 0.35614353
v -3.908369275 -0.73439142 0.20884997
v -3.908661695 -0.733247 0.34208607
v -3.936722585 -0.6649506700000001 0.20884997
v -3.9363662249999996 -0.66485187 0.35614353
v -3.918612255 -0.68280075 0.35614353
v -3.9087256349999997 -0.73316466 0.35614353
v -3.9166202949999995 -0.73938913 0.20884997
v -3.9157614049999996 -0.73841757 0.35614353
v -3.9170680849999995 -0.7393809 0.35614353
v -3.9170040850000003 -0.73939736 0.34208607
v -3.936850455 -0.6648930399999999 0.20884997
v -3.9493046949999995 -0.6591790399999999 0.35614353
v -3.9493046949999995 -0.65938488 0.20884997
v -3.932628985 -0.74238608 0.22535851
v -3.932628985 -0.74236961 0.20884997
v -3.932628985 -0.7424354900000001 0.35614353
v -3.932628985 -0.74242726 0.29205582
v -3.965971285 -0.6585615300000001 0.35614353
v -3.9494783149999995 -0.65937665 0.20884997
v -3.965971285 -0.74267426 0.35614353
v -3.965971285 -0.74254251 0.24204007
v -3.965797675 -0.74249313 0.20884997
v -3.9493046949999995 -0.7425672400000001 0.35614353
v -3.9826470049999996 -0.65996945 0.29205582
v -3.9826470049999996 -0.6599282900000001 0.35614353
v -3.965971285 -0.65878383 0.20884997
v -3.9826470049999996 -0.66005179 0.22535851
v -3.9826470049999996 -0.65998592 0.2753887
v -3.9826470049999996 -0.74222967 0.35614353
v -3.9826470049999996 -0.7420238100000001 0.20884997
v -3.965971285 -0.74249313 0.20884997
v -3.9947448850000002 -0.6653788 0.2753887
v -3.9947357649999997 -0.66538705 0.35614353
v -3.9826470049999996 -0.66010119 0.20884997
v -3.982774935 -0.66015058 0.20884997
v -3.994626145 -0.66544468 0.20884997
v -3.984437915 -0.74173566 0.35614353
v -3.993895125 -0.73896922 0.22535851
v -3.9937671850000003 -0.7389774499999999 0.20884997
v -3.9988201849999996 -0.67804184 0.2753887
v -3.9988384349999997 -0.67804184 0.29205582
v -3.994754015 -0.66538705 0.29205582
v -3.9953845450000003 -0.6673713 0.35614353
v -3.9986100049999997 -0.67804184 0.20884997
v -3.993995615 -0.7390680199999999 0.35614353
v -3.993995615 -0.73905979 0.34208607
v -3.9938859950000003 -0.7389445299999999 0.20884997
v -3.9939864949999997 -0.73904333 0.32540451
v -3.9990303549999995 -0.6945416200000001 0.20884997
v -3.999176535 -0.69471452 0.2753887
v -3.9991947850000003 -0.69471452 0.30872295
v -3.9988384349999997 -0.67804184 0.32540451
v -3.998811055 -0.67804184 0.35614353
v -3.9981074649999995 -0.72805993 0.35614353
v -3.998116595 -0.72805993 0.34208607
v -3.9981257149999996 -0.72805993 0.32540451
v -3.9939316849999997 -0.73882925 0.20884997
v -3.9981074649999995 -0.72805993 0.30872295
v -3.997997785 -0.72805993 0.20884997
v -3.9991582249999995 -0.7112061000000001 0.20884997
v -3.9992222249999996 -0.7113872299999999 0.2587072
v -3.9992404749999997 -0.7113872299999999 0.2753887
v -3.9991947850000003 -0.69471452 0.34208607
v -3.998865865 -0.68066006 0.35614353
v -3.9991856649999997 -0.7113872299999999 0.35614353
v -3.9992222249999996 -0.7113872299999999 0.34208607
v -3.9992404749999997 -0.7113872299999999 0.32540451
v -3.9980160949999997 -0.72788703 0.20884997
v -3.9991582249999995 -0.7113872299999999 0.20884997
v -3.9991582249999995 -0.69734099 0.35614353
v -3.999149105 -0.69471452 0.35614353
f 1 2 6
f 1 6 10
f 1 10 19
f 1 19 25
f 1 25 33
f 1 33 40
f 1 40 49
f 1 49 48
f 1 48 57
f 1 57 65
f 1 65 75
f 1 75 77
f 1 77 86
f 1 86 87
f 1 87 78
f 1 78 67
f 1 67 62
f 1 62 54
f 1 54 53
f 1 53 52
f 1 52 44
f 1 44 37
f 1 37 31
f 1 31 29
f 1 29 21
f 1 21 11
f 1 11 7
f 1 7 3
f 1 3 4
f 1 4 5
f 1 5 2
f 2 5 6
f 3 7 8
f 3 8 4
f 4 8 17
f 4 17 23
f 4 23 22
f 4 22 30
f 4 30 36
f 4 36 43
f 4 43 51
f 4 51 61
f 4 61 71
f 4 71 82
f 4 82 89
f 4 89 88
f 4 88 83
f 4 83 72
f 4 72 63
f 4 63 55
f 4 55 47
f 4 47 38
f 4 38 41
f 4 41 34
f 4 34 27
f 4 27 26
f 4 26 24
f 4 24 18
f 4 18 9
f 4 9 5
f 5 9 6
f 6 9 10
f 7 11 12
f 7 12 13
f 7 13 14
f 7 14 15
f 7 15 8
f 8 15 13
f 8 13 16
f 8 16 17
f 9 18 10
f 10 18 20
f 10 20 19
f 11 21 12
f 12 21 13
f 13 22 16
f 13 15 14
f 13 21 22
f 16 22 23
f 16 23 17
f 18 24 20
f 19 20 24
f 19 24 26
f 19 26 27
f 19 27 28
f 19 28 25
f 21 29 22
f 22 29 31
f 22 31 30
f 25 32 33
f 25 28 34
f 25 34 35
f 25 35 32
f 27 34 28
f 30 31 37
f 30 37 36
f 32 35 38
f 32 38 33
f 33 38 39
f 33 39 40
f 34 41 35
f 35 41 38
f 36 42 43
f 36 37 44
f 36 44 45
f 36 45 46
f 36 46 42
f 38 47 39
f 39 48 49
f 39 49 40
f 39 47 48
f 42 46 50
f 42 50 43
f 43 50 51
f 44 52 45
f 45 52 53
f 45 53 54
f 45 54 50
f 45 50 46
f 47 55 56
f 47 56 48
f 48 56 57
f 50 54 58
f 50 58 59
f 50 59 60
f 50 60 51
f 51 60 61
f 54 62 58
f 55 63 64
f 55 64 56
f 56 65 57
f 56 64 66
f 56 66 65
f 58 62 67
f 58 67 68
f 58 68 59
f 59 69 81
f 59 81 70
f 59 70 60
f 59 68 69
f 60 70 61
f 61 70 71
f 63 72 73
f 63 73 74
f 63 74 64
f 64 74 66
f 65 66 75
f 66 74 76
f 66 76 77
f 66 77 75
f 67 78 68
f 68 78 79
f 68 79 80
f 68 80 69
f 69 80 85
f 69 85 81
f 70 81 71
f 71 81 82
f 72 83 84
f 72 84 85
f 72 85 73
f 73 85 74
f 74 85 80
f 74 80 86
f 74 86 76
f 76 86 77
f 78 87 79
f 79 87 86
f 79 86 80
f 81 83 88
f 81 88 89
f 81 89 82
f 81 85 84
f 81 84 83

