# https://github.com/mikedh/trimesh
v 0.34233230 1.46305064 0.67020693
v 0.34233230 1.46311442 0.63688463
v 0.35400739 1.46339680 0.67020693
v 0.34233230 1.46305976 0.68685831
v 0.32982780 1.46366097 0.60354274
v 0.32997788 1.46367009 0.58673484
v 0.35355713 1.46345146 0.63688463
v 0.34064189 1.46367009 0.58673484
v 0.34233230 1.46330572 0.62021370
v 0.36215147 1.46511846 0.65355555
v 0.36234108 1.46509113 0.67020693
v 0.36233315 1.46508201 0.68685831
v 0.35399946 1.46340592 0.68685831
v 0.35381778 1.46346058 0.72018061
v 0.34233230 1.46313263 0.72018061
v 0.33042814 1.46371563 0.72018061
v 0.33021487 1.46370651 0.70350968
v 0.32147831 1.46483608 0.62021370
v 0.32149411 1.46486338 0.60354274
v 0.32998581 1.46369742 0.67020693
v 0.32150990 1.46484517 0.63688463
v 0.32164419 1.46489983 0.58689140
v 0.32171530 1.46489074 0.58673484
v 0.36188289 1.46524599 0.63688463
v 0.35232486 1.46366097 0.62021370
v 0.34897558 1.46413465 0.58673484
v 0.37565132 1.46998281 0.65355555
v 0.37565132 1.47012857 0.63688463
v 0.37565132 1.46997372 0.67020693
v 0.37565132 1.46998281 0.68685831
v 0.37565132 1.47004658 0.73685154
v 0.36215147 1.46508201 0.72018061
v 0.36190662 1.46510025 0.73685154
v 0.35357293 1.46352432 0.73685154
v 0.35208787 1.46360631 0.78662956
v 0.34234022 1.46340592 0.78662956
v 0.34218221 1.46340592 0.78662956
v 0.33145508 1.46383406 0.78662956
v 0.32174689 1.46491804 0.68685831
v 0.32323195 1.46505468 0.78662956
v 0.31395036 1.47319838 0.60354274
v 0.31390292 1.47323483 0.58689140
v 0.31390292 1.47323483 0.58673484
v 0.31410832 1.47340792 0.78662956
v 0.32165212 1.46490895 0.67020693
v 0.32158101 1.46497270 0.58673484
v 0.35898388 1.46640286 0.58673484
v 0.37551703 1.47149496 0.58673484
v 0.37565132 1.47154050 0.58673484
v 0.38736587 1.47729758 0.62021370
v 0.38740533 1.47725204 0.63688463
v 0.38739746 1.47723383 0.65355555
v 0.38701039 1.47759819 0.58689140
v 0.38723945 1.47738868 0.60354274
v 0.38730269 1.47731579 0.75352249
v 0.38728690 1.47737956 0.77019342
v 0.38718420 1.47757996 0.78662956
v 0.37565132 1.47148587 0.78662956
v 0.36041369 1.46626622 0.78662956
v 0.35220636 1.46364276 0.78662956
v 0.32311346 1.46507292 0.78662956
v 0.32188911 1.46498182 0.70350968
v 0.31050626 1.48903946 0.58673484
v 0.31101183 1.48881171 0.78662956
v 0.38701831 1.47760728 0.58673484
v 0.39087310 1.48903034 0.58673484
v 0.39114960 1.48903946 0.62021370
v 0.39119699 1.48903946 0.63688463
v 0.39100739 1.48903946 0.77019342
v 0.39098372 1.48903946 0.78662956
v 0.31064848 1.50570034 0.58689140
v 0.31064848 1.50570034 0.58673484
v 0.31097237 1.48903946 0.78662956
v 0.39088102 1.48920343 0.58673484
v 0.39024116 1.50570034 0.62021370
v 0.39031227 1.50570034 0.63688463
v 0.39035966 1.50570034 0.73685154
v 0.39026489 1.50570034 0.75352249
v 0.39096793 1.48927630 0.78662956
v 0.31129627 1.50546350 0.78662956
v 0.31130413 1.50570034 0.78662956
v 0.31237846 1.52235213 0.73685154
v 0.31244951 1.52235213 0.63688463
v 0.31248896 1.52235213 0.60354274
v 0.31249695 1.52221549 0.58673484
v 0.38940389 1.50570034 0.58673484
v 0.38986202 1.50570034 0.60354274
v 0.38645743 1.51677724 0.62021370
v 0.38651274 1.51683190 0.63688463
v 0.37251532 1.55610204 0.58673484
v 0.38667076 1.51713251 0.73685154
v 0.37342370 1.55610204 0.78662956
v 0.38976724 1.50570034 0.78662956
v 0.31272595 1.52235213 0.78662956
v 0.31246524 1.52235213 0.75352249
v 0.31243365 1.52235213 0.74759373
v 0.31556971 1.53412131 0.78662956
v 0.31251269 1.52235213 0.58673484
v 0.38936437 1.50584610 0.58673484
v 0.34841470 1.55610204 0.58673484
v 0.32582293 1.55610204 0.78662956
v 0.31560917 1.53425796 0.78662956
v 0.31550653 1.53270939 0.65355555
v 0.31553812 1.53265473 0.63688463
v 0.31561704 1.53254541 0.62021370
v 0.31571193 1.53241789 0.60354274
v 0.31581457 1.53228124 0.58689140
v 0.31579085 1.53219926 0.58673484
v 0.33263204 1.55609294 0.58673484
v 0.33264783 1.55610204 0.58689140
v 0.31587775 1.53235414 0.58673484
f 1 2 3
f 1 3 4
f 1 4 5
f 1 5 6
f 1 6 2
f 2 7 3
f 2 6 8
f 2 8 9
f 2 9 7
f 3 7 10
f 3 10 11
f 3 11 12
f 3 12 13
f 3 13 4
f 4 13 14
f 4 14 15
f 4 15 16
f 4 16 17
f 4 17 5
f 5 18 19
f 5 19 6
f 5 17 20
f 5 20 21
f 5 21 18
f 6 19 22
f 6 22 23
f 6 23 46
f 6 46 43
f 6 43 63
f 6 63 72
f 6 72 85
f 6 85 98
f 6 98 108
f 6 108 111
f 6 111 109
f 6 109 100
f 6 100 90
f 6 90 99
f 6 99 86
f 6 86 74
f 6 74 66
f 6 66 65
f 6 65 49
f 6 49 48
f 6 48 47
f 6 47 26
f 6 26 8
f 7 24 10
f 7 9 8
f 7 8 25
f 7 25 24
f 8 26 25
f 10 27 11
f 10 24 28
f 10 28 27
f 11 29 12
f 11 27 29
f 12 29 30
f 12 30 31
f 12 31 32
f 12 32 13
f 13 32 14
f 14 32 33
f 14 33 34
f 14 34 35
f 14 35 15
f 15 35 36
f 15 36 37
f 15 37 38
f 15 38 16
f 16 39 17
f 16 38 40
f 16 40 39
f 17 39 21
f 17 21 20
f 18 41 42
f 18 42 43
f 18 43 19
f 18 21 44
f 18 44 41
f 19 43 22
f 21 39 45
f 21 45 44
f 22 43 46
f 22 46 23
f 24 25 47
f 24 47 48
f 24 48 49
f 24 49 28
f 25 26 47
f 27 28 50
f 27 50 51
f 27 51 52
f 27 52 29
f 28 49 53
f 28 53 54
f 28 54 50
f 29 52 30
f 30 52 31
f 31 33 32
f 31 52 55
f 31 55 56
f 31 56 57
f 31 57 58
f 31 58 33
f 33 58 59
f 33 59 60
f 33 60 35
f 33 35 34
f 35 60 59
f 35 59 58
f 35 58 57
f 35 57 70
f 35 70 79
f 35 79 93
f 35 93 92
f 35 92 101
f 35 101 102
f 35 102 97
f 35 97 94
f 35 94 81
f 35 81 80
f 35 80 73
f 35 73 64
f 35 64 44
f 35 44 61
f 35 61 40
f 35 40 38
f 35 38 37
f 35 37 36
f 39 40 61
f 39 61 62
f 39 62 44
f 39 44 45
f 41 44 42
f 42 44 63
f 42 63 43
f 44 64 63
f 44 62 61
f 49 65 53
f 50 54 66
f 50 66 67
f 50 67 51
f 51 68 52
f 51 67 68
f 52 68 55
f 53 65 54
f 54 65 66
f 55 69 70
f 55 70 56
f 55 68 69
f 56 70 57
f 63 71 72
f 63 64 73
f 63 73 71
f 66 74 67
f 67 74 75
f 67 75 76
f 67 76 68
f 68 76 77
f 68 77 69
f 69 77 70
f 70 78 79
f 70 77 78
f 71 73 80
f 71 80 81
f 71 81 82
f 71 82 72
f 72 82 83
f 72 83 84
f 72 84 85
f 74 86 87
f 74 87 75
f 75 88 89
f 75 89 76
f 75 87 90
f 75 90 88
f 76 89 91
f 76 91 77
f 77 91 78
f 78 92 93
f 78 93 79
f 78 91 92
f 81 94 95
f 81 95 96
f 81 96 82
f 82 96 97
f 82 97 83
f 83 97 84
f 84 98 85
f 84 97 98
f 86 99 87
f 87 99 90
f 88 90 92
f 88 92 89
f 89 92 91
f 90 100 110
f 90 110 101
f 90 101 92
f 94 97 95
f 95 97 96
f 97 102 98
f 98 103 104
f 98 104 105
f 98 105 106
f 98 106 107
f 98 107 108
f 98 102 103
f 100 109 110
f 101 110 109
f 101 109 107
f 101 107 106
f 101 106 105
f 101 105 104
f 101 104 102
f 102 104 103
f 107 109 111
f 107 111 108

