# https://github.com/mikedh/trimesh
v -3.0896097849999995 -0.6280202500000001 2.02103448
v -2.414860665 -0.6281044 2.02133042
v -3.0896097849999995 -0.6280202500000001 1.97252581
v -3.1320830649999998 -0.6280202500000001 2.02104236
v -2.414860665 -0.6281044 1.97500963
v -2.4151286350000003 -0.6281044 2.02133042
v -2.414860665 -0.66136511 2.02136156
v -2.4151286350000003 -0.6281044 1.968765
v -3.265532265 -0.6280202500000001 1.96922442
v -3.1488312049999996 -0.6280202500000001 2.02104236
v -2.414860665 -0.6282054100000001 1.968765
v -2.765231785 -0.6281044 2.02127591
v -2.4151286350000003 -0.66136511 2.02136156
v -3.3822333149999997 -0.6280202500000001 2.02103448
v -3.7836527549999994 -0.6280202500000001 2.02101898
v -2.414860665 -0.6778692 2.02133042
v -2.414860665 -0.66336816 1.94684658
v -2.4318767550000002 -0.66315775 1.94684658
v -3.5322966449999997 -0.6280202500000001 1.96711431
v -3.515682515 -0.6280202500000001 1.96716882
v -3.498934365 -0.6280202500000001 1.96727003
v -3.2821464149999997 -0.6280202500000001 1.96900643
v -3.7836527549999994 -0.64468426 2.02102673
v -3.7836527549999994 -0.66136511 2.02103448
v -3.7836527549999994 -0.6780291199999999 2.02101122
v -3.7836527549999994 -0.6280202500000001 1.96762824
v -2.4151286350000003 -0.69470155 2.02076204
v -2.414860665 -0.69470155 2.02076204
v -3.7836527549999994 -0.67915689 2.02098784
v -3.7836527549999994 -0.69470155 2.02062964
v -2.414860665 -0.66351122 1.94679982
v -2.448490915 -0.66311567 1.94685433
v -3.5490447949999995 -0.6280202500000001 1.96709099
v -2.414860665 -0.6780291199999999 1.94215919
v -3.7836527549999994 -0.66494198 1.94681544
v -3.6991081349999995 -0.6280202500000001 1.96726228
v -3.7824468749999998 -0.66494198 1.94680763
v -2.531829655 -0.70460738 2.01920481
v -3.7836527549999994 -0.69538325 2.02053624
v -3.7836527549999994 -0.7046326199999999 2.01918918
v -2.414860665 -0.70454845 2.0191658
v -3.7323364649999995 -0.6780291199999999 1.94181661
v -3.515682515 -0.66404986 1.9468232
v -3.615635385 -0.66429393 1.94678425
v -2.414860665 -0.6781806100000001 1.94215919
v -3.7836527549999994 -0.6780291199999999 1.94194895
v -3.7323364649999995 -0.6647231499999999 1.94673755
v -3.7490845850000003 -0.6780291199999999 1.94183998
v -2.531829655 -0.7097664699999999 2.00977551
v -2.414860665 -0.7097244 2.00977551
v -3.7836527549999994 -0.70502818 2.01855853
v -3.7836527549999994 -0.7099768900000001 2.00975995
v -3.7836527549999994 -0.69470155 1.94182436
v -2.414860665 -0.69470155 1.94219032
v -2.414860665 -0.71353692 1.99309723
v -3.7836527549999994 -0.71023779 2.0086465
v -3.7836527549999994 -0.7138146599999999 1.99308948
v -3.7836527549999994 -0.70819266 1.94669085
v -2.414860665 -0.6948362100000001 1.94223708
v -2.414860665 -0.70797383 1.94687771
v -2.414860665 -0.71386516 1.97643452
v -3.7836527549999994 -0.71399982 1.97643452
v -3.7836527549999994 -0.7137052500000001 1.95976405
v -2.414860665 -0.70803276 1.9470023
v -2.414860665 -0.71345276 1.95976405
v -2.414860665 -0.71367158 1.9683134
v -2.414860665 -0.71346118 1.95991978
f 1 2 5
f 1 5 3
f 1 3 9
f 1 9 22
f 1 22 21
f 1 21 20
f 1 20 19
f 1 19 33
f 1 33 36
f 1 36 26
f 1 26 15
f 1 15 14
f 1 14 10
f 1 10 4
f 1 4 2
f 2 4 10
f 2 10 6
f 2 6 13
f 2 13 7
f 2 7 16
f 2 16 28
f 2 28 41
f 2 41 50
f 2 50 55
f 2 55 61
f 2 61 66
f 2 66 67
f 2 67 65
f 2 65 64
f 2 64 60
f 2 60 59
f 2 59 54
f 2 54 45
f 2 45 34
f 2 34 31
f 2 31 17
f 2 17 11
f 2 11 5
f 3 5 8
f 3 8 9
f 5 11 8
f 6 12 13
f 6 10 14
f 6 14 15
f 6 15 12
f 7 13 16
f 8 11 17
f 8 17 18
f 8 18 19
f 8 19 20
f 8 20 21
f 8 21 22
f 8 22 9
f 12 15 23
f 12 23 24
f 12 24 13
f 13 24 25
f 13 25 16
f 15 26 35
f 15 35 46
f 15 46 53
f 15 53 58
f 15 58 63
f 15 63 62
f 15 62 57
f 15 57 56
f 15 56 52
f 15 52 51
f 15 51 40
f 15 40 39
f 15 39 30
f 15 30 29
f 15 29 25
f 15 25 24
f 15 24 23
f 16 27 28
f 16 25 29
f 16 29 30
f 16 30 27
f 17 31 18
f 18 32 33
f 18 33 19
f 18 31 34
f 18 34 32
f 26 36 37
f 26 37 35
f 27 38 28
f 27 30 39
f 27 39 40
f 27 40 38
f 28 38 41
f 32 34 42
f 32 42 43
f 32 43 33
f 33 44 36
f 33 43 44
f 34 45 42
f 35 37 46
f 36 44 47
f 36 47 37
f 37 47 48
f 37 48 46
f 38 49 50
f 38 50 41
f 38 40 51
f 38 51 52
f 38 52 49
f 42 53 48
f 42 48 47
f 42 47 44
f 42 44 43
f 42 45 53
f 45 54 53
f 46 48 53
f 49 55 50
f 49 52 56
f 49 56 57
f 49 57 55
f 53 54 59
f 53 59 60
f 53 60 58
f 55 57 61
f 57 62 61
f 58 60 64
f 58 64 65
f 58 65 63
f 61 62 63
f 61 63 66
f 63 65 67
f 63 67 66

