# https://github.com/mikedh/trimesh
v -3.25780442 2.06406359 1.48867704
v -3.16100240 2.04978349 1.55168558
v -3.16469082 2.04978349 1.55172039
v -3.25780442 2.04978349 1.55261321
v -3.25780442 2.11138770 1.48867704
v -3.18580129 2.06396441 1.48867704
v -2.88142620 2.04977639 1.54913466
v -2.89535597 2.04977639 1.54923897
v -2.89806344 2.04977639 1.54927378
v -3.05078070 2.04977639 1.55133772
v -3.25780442 2.04978349 1.60065232
v -3.25780442 2.11991609 1.53689004
v -3.21468101 2.12029861 1.53689004
v -3.13137713 2.11242898 1.48867704
v -3.18136729 2.06397150 1.48867704
v -2.85694121 2.04977639 1.54914622
v -2.87883644 2.04977639 1.54913466
v -3.05078070 2.04977639 1.60058276
v -3.25780442 2.07012698 1.60712245
v -2.89806344 2.04977639 1.60119729
v -2.88735125 2.04977639 1.60122047
v -2.88142620 2.04977639 1.60123210
v -3.25780442 2.12014987 1.55352922
v -3.16469082 2.12064569 1.53689004
v -2.91058060 2.11405107 1.48867704
v -2.91473991 2.06486400 1.48867704
v -2.85694121 2.06508359 1.48867704
v -2.85694121 2.04977639 1.60119729
v -3.21468101 2.07009155 1.60712245
v -3.25780442 2.11455399 1.60712245
v -2.86474973 2.04977639 1.60122047
v -2.88123001 2.07028279 1.60712245
v -3.21424941 2.07009155 1.60712245
v -3.25780442 2.11969651 1.57019160
v -3.13137713 2.12092193 1.55352922
v -3.14801435 2.12073778 1.53689004
v -2.89986842 2.11411482 1.48867704
v -2.85694121 2.11429190 1.48867704
v -2.85694121 2.07035363 1.60712245
v -3.25780442 2.11459649 1.60697171
v -3.09794569 2.11599190 1.60712245
v -2.86455353 2.07032529 1.60712245
v -3.25780442 2.11908735 1.57996642
v -3.09802416 2.11968945 1.58686553
v -3.11470063 2.12056069 1.57019160
v -3.11470063 2.12101402 1.55352922
v -2.89806344 2.12203404 1.55352922
v -3.13137713 2.12081568 1.53689004
v -2.88319195 2.11419981 1.48867704
v -2.88142620 2.12165862 1.53689004
v -2.86474973 2.12160197 1.53689004
v -2.85694121 2.12155237 1.53689004
v -2.88142620 2.11420691 1.48867704
v -3.09802416 2.12092902 1.53689004
v -2.85694121 2.11699068 1.60712245
v -3.25780442 2.11592815 1.60207855
v -3.08483996 2.11606274 1.60712245
v -3.25780442 2.11864817 1.58686553
v -3.09802416 2.12065278 1.57019160
v -3.25780442 2.11706149 1.59578228
v -3.08138694 2.11976735 1.58686553
v -2.86474973 2.12167987 1.57019160
v -2.88142620 2.12208363 1.55352922
v -2.86474973 2.12212613 1.55352922
v -2.85694121 2.12214029 1.55352922
v -2.85694121 2.12065985 1.58686553
v -3.06471047 2.11614774 1.60712245
v -2.85694121 2.12170112 1.57019160
f 1 2 3
f 1 3 4
f 1 4 11
f 1 11 19
f 1 19 30
f 1 30 40
f 1 40 56
f 1 56 60
f 1 60 58
f 1 58 43
f 1 43 34
f 1 34 23
f 1 23 12
f 1 12 5
f 1 5 14
f 1 14 25
f 1 25 37
f 1 37 49
f 1 49 53
f 1 53 38
f 1 38 27
f 1 27 26
f 1 26 15
f 1 15 6
f 1 6 7
f 1 7 8
f 1 8 2
f 2 8 3
f 3 8 4
f 4 8 9
f 4 9 10
f 4 10 18
f 4 18 11
f 5 12 13
f 5 13 14
f 6 15 16
f 6 16 17
f 6 17 7
f 7 17 16
f 7 16 28
f 7 28 31
f 7 31 22
f 7 22 21
f 7 21 20
f 7 20 18
f 7 18 10
f 7 10 9
f 7 9 8
f 11 18 20
f 11 20 21
f 11 21 22
f 11 22 19
f 12 23 13
f 13 24 25
f 13 25 14
f 13 23 24
f 15 26 16
f 16 26 27
f 16 27 38
f 16 38 52
f 16 52 65
f 16 65 68
f 16 68 66
f 16 66 55
f 16 55 39
f 16 39 28
f 19 22 29
f 19 29 33
f 19 33 32
f 19 32 42
f 19 42 39
f 19 39 55
f 19 55 67
f 19 67 57
f 19 57 41
f 19 41 30
f 22 31 32
f 22 32 33
f 22 33 29
f 23 34 35
f 23 35 24
f 24 35 46
f 24 46 36
f 24 36 37
f 24 37 25
f 28 39 31
f 30 41 40
f 31 39 42
f 31 42 32
f 34 43 44
f 34 44 45
f 34 45 35
f 35 45 59
f 35 59 46
f 36 46 47
f 36 47 48
f 36 48 49
f 36 49 37
f 38 50 51
f 38 51 52
f 38 53 48
f 38 48 54
f 38 54 50
f 40 41 56
f 41 57 44
f 41 44 56
f 43 58 44
f 44 59 45
f 44 58 60
f 44 60 56
f 44 57 61
f 44 61 59
f 46 59 47
f 47 62 63
f 47 63 50
f 47 50 54
f 47 54 48
f 47 59 62
f 48 53 49
f 50 63 64
f 50 64 65
f 50 65 51
f 51 65 52
f 55 66 61
f 55 61 67
f 57 67 61
f 59 61 62
f 61 66 62
f 62 66 68
f 62 68 63
f 63 68 64
f 64 68 65

