# https://github.com/mikedh/trimesh
v 0.56338600 2.06313912 0.91951672
v 0.45210216 2.06313912 0.92006577
v 0.56338600 2.04788420 0.90038968
v 0.56338600 2.06313912 0.80838495
v 0.45210216 2.04788420 0.90028884
v 0.45899812 2.04788420 0.90033366
v 0.49233425 2.04788420 0.90040089
v 0.45210216 2.06313912 0.80644648
v 0.56338600 2.04788420 0.83462720
v 0.54621680 2.06313912 0.80655853
v 0.45210216 2.04788420 0.83429104
v 0.45344208 2.06313912 0.80626720
v 0.45839896 2.06313912 0.80560610
f 1 2 3
f 1 3 9
f 1 9 4
f 1 4 10
f 1 10 13
f 1 13 12
f 1 12 8
f 1 8 2
f 2 5 6
f 2 6 7
f 2 7 3
f 2 8 11
f 2 11 5
f 3 7 6
f 3 6 5
f 3 5 11
f 3 11 9
f 4 9 10
f 8 12 11
f 9 11 13
f 9 13 10
f 11 12 13

