# https://github.com/mikedh/trimesh
v -1.71357498 1.51758297 0.05808110
v -1.71357498 1.50980742 0.00820388
v -1.73024463 1.50825652 0.00820388
v -1.73024463 1.51035933 0.02486435
v -1.73008846 1.51290927 0.05808110
v -1.69692374 1.51702408 0.05808110
v -1.68025415 1.50975154 0.00820388
v -1.69692374 1.51007290 0.00820388
v -1.71357498 1.50307281 -0.00414488
v -1.73024463 1.50202489 -0.00336989
v -1.69692374 1.50330336 -0.00429473
v -1.74023725 1.49995004 -0.00190444
v -1.74166992 1.50220654 0.00820388
v -1.74236801 1.50338720 0.02486435
v -1.73074054 1.51262284 0.05808110
v -1.68074089 1.51305599 0.05808110
v -1.68025415 1.51107891 0.02486435
v -1.68025415 1.50303091 -0.00404069
v -1.66358450 1.50511277 0.02486435
v -1.66225280 1.50238118 0.00901153
v -1.66691845 1.50098398 -0.00259479
v -1.71357498 1.48917745 -0.00819612
v -1.69692374 1.48917745 -0.00845660
v -1.73024463 1.48917745 -0.00632678
v -1.74083414 1.48917745 -0.00248404
v -1.74437015 1.48917745 0.00820388
v -1.74597746 1.48917745 0.02486435
v -1.74636311 1.48917745 0.04153138
v -1.74249652 1.50361775 0.04153138
v -1.74257926 1.50377842 0.05808110
v -1.67945508 1.51270667 0.05808110
v -1.68025415 1.48917745 -0.00809181
v -1.66358450 1.50700600 0.05808110
v -1.65383989 1.50001989 0.05808110
v -1.65485938 1.49837116 0.02486435
v -1.65516247 1.49772843 0.01510126
v -1.65581455 1.48917745 0.00404201
v -1.66414473 1.48917745 -0.00398859
v -1.69692374 1.47251558 -0.00843049
v -1.71357498 1.47251558 -0.00790954
v -1.73075896 1.47240379 -0.00378665
v -1.73991574 1.47788091 -0.00148756
v -1.74127498 1.47551962 0.00820388
v -1.74218431 1.47426910 0.02486435
v -1.74244145 1.47373117 0.04153138
v -1.74648256 1.48917745 0.05808110
v -1.68025415 1.47251558 -0.00779879
v -1.65265512 1.48917745 0.05808110
v -1.65426237 1.48917745 0.02486435
v -1.65497877 1.48917745 0.01237880
v -1.65718303 1.47303256 0.00740278
v -1.66546731 1.47251558 -0.00372812
v -1.65498795 1.47892882 0.01242434
v -1.69692374 1.45780282 -0.00427518
v -1.71357498 1.45919305 -0.00386485
v -1.72554220 1.46176394 -0.00228866
v -1.73614095 1.46718518 0.00820388
v -1.73689412 1.46593466 0.02486435
v -1.73736249 1.46540373 0.04153138
v -1.74247816 1.47345171 0.05808110
v -1.73768394 1.46518015 0.05808110
v -1.66868181 1.46113520 -0.00224967
v -1.68025415 1.45870402 -0.00374767
v -1.65371132 1.47263434 0.05808110
v -1.65465732 1.47561740 0.02486435
v -1.65583291 1.46728299 0.02486435
v -1.66585307 1.45892760 0.00820388
v -1.65532776 1.46467717 0.03452980
v -1.69595939 1.44927976 0.00955858
v -1.71357498 1.45310117 0.00820388
v -1.72780159 1.46019907 0.00820388
v -1.72856388 1.45971004 0.02486435
v -1.73759209 1.46507537 0.05808110
v -1.68173283 1.45075383 0.00955858
v -1.65372050 1.47250160 0.05808110
v -1.65441854 1.47114630 0.04066514
v -1.66417233 1.45816612 0.02486435
v -1.67929898 1.44983168 0.02486435
v -1.65508898 1.46394361 0.04564109
v -1.68827206 1.44742846 0.01601304
v -1.68975992 1.44742846 0.01601304
v -1.70165371 1.44777777 0.02486435
v -1.70484068 1.44754022 0.03363751
v -1.71357498 1.45164108 0.02486435
v -1.71484242 1.45120096 0.05808110
v -1.72902308 1.45957032 0.04153138
v -1.72931699 1.45947251 0.05808110
v -1.65490528 1.46369211 0.05808110
v -1.66369471 1.45734175 0.05808110
v -1.67844484 1.44970594 0.04153138
v -1.66196807 1.45913020 0.04066514
v -1.66357532 1.45741161 0.05808110
v -1.68610457 1.44672285 0.05808110
v -1.68678419 1.44695341 0.04153138
v -1.68762915 1.44723283 0.02486435
v -1.69693292 1.44621985 0.05808110
v -1.69332347 1.44723283 0.02486435
v -1.69833811 1.44689750 0.04013101
v -1.70586928 1.44723984 0.04474880
v -1.71465878 1.45110315 0.05808110
v -1.70640203 1.44700929 0.05808110
v -1.71228917 1.45050933 0.04013101
v -1.67776516 1.44955225 0.05808110
f 1 2 3
f 1 3 4
f 1 4 5
f 1 5 15
f 1 15 30
f 1 30 46
f 1 46 60
f 1 60 61
f 1 61 73
f 1 73 87
f 1 87 85
f 1 85 100
f 1 100 101
f 1 101 96
f 1 96 93
f 1 93 103
f 1 103 89
f 1 89 92
f 1 92 88
f 1 88 75
f 1 75 64
f 1 64 48
f 1 48 34
f 1 34 33
f 1 33 31
f 1 31 16
f 1 16 6
f 1 6 7
f 1 7 8
f 1 8 2
f 2 9 10
f 2 10 3
f 2 8 11
f 2 11 9
f 3 10 12
f 3 12 13
f 3 13 4
f 4 13 14
f 4 14 15
f 4 15 5
f 6 16 17
f 6 17 7
f 7 18 11
f 7 11 8
f 7 17 19
f 7 19 20
f 7 20 21
f 7 21 18
f 9 22 10
f 9 11 23
f 9 23 22
f 10 22 24
f 10 24 12
f 11 18 23
f 12 24 25
f 12 25 26
f 12 26 13
f 13 26 27
f 13 27 14
f 14 27 28
f 14 28 29
f 14 29 15
f 15 29 30
f 16 31 17
f 17 31 19
f 18 32 23
f 18 21 32
f 19 33 34
f 19 34 35
f 19 35 36
f 19 36 20
f 19 31 33
f 20 36 21
f 21 36 37
f 21 37 38
f 21 38 32
f 22 23 39
f 22 39 40
f 22 40 24
f 23 32 39
f 24 41 42
f 24 42 25
f 24 40 41
f 25 42 26
f 26 42 43
f 26 43 27
f 27 43 44
f 27 44 45
f 27 45 28
f 28 46 30
f 28 30 29
f 28 45 46
f 32 47 39
f 32 38 47
f 34 48 35
f 35 48 36
f 36 48 49
f 36 49 50
f 36 50 37
f 37 51 52
f 37 52 38
f 37 50 53
f 37 53 51
f 38 52 47
f 39 54 40
f 39 47 54
f 40 54 55
f 40 55 56
f 40 56 41
f 41 56 42
f 42 56 57
f 42 57 43
f 43 57 44
f 44 57 58
f 44 58 59
f 44 59 45
f 45 60 46
f 45 59 61
f 45 61 60
f 47 52 62
f 47 62 63
f 47 63 54
f 48 64 65
f 48 65 53
f 48 53 49
f 49 53 50
f 51 53 66
f 51 66 67
f 51 67 62
f 51 62 52
f 53 65 68
f 53 68 66
f 54 63 69
f 54 69 55
f 55 69 70
f 55 70 56
f 56 70 71
f 56 71 57
f 57 71 58
f 58 71 72
f 58 72 59
f 59 72 73
f 59 73 61
f 62 74 63
f 62 67 74
f 63 74 69
f 64 75 65
f 65 75 76
f 65 76 68
f 66 68 67
f 67 68 77
f 67 77 78
f 67 78 74
f 68 76 75
f 68 75 79
f 68 79 77
f 69 74 80
f 69 80 81
f 69 81 82
f 69 82 70
f 70 82 83
f 70 83 84
f 70 84 71
f 71 84 72
f 72 84 85
f 72 85 86
f 72 86 73
f 73 86 87
f 74 78 80
f 75 88 79
f 77 89 90
f 77 90 78
f 77 79 91
f 77 91 92
f 77 92 89
f 78 90 93
f 78 93 94
f 78 94 95
f 78 95 80
f 79 88 92
f 79 92 91
f 80 95 96
f 80 96 81
f 81 96 97
f 81 97 83
f 81 83 82
f 83 97 98
f 83 98 99
f 83 99 84
f 84 100 85
f 84 99 101
f 84 101 102
f 84 102 100
f 85 87 86
f 89 103 90
f 90 103 93
f 93 96 94
f 94 96 95
f 96 101 99
f 96 99 98
f 96 98 97
f 100 102 101

