# https://github.com/mikedh/trimesh
v 0.39578337 1.48221348 1.53689624
v 0.39578337 1.48378908 1.52022773
v 0.45349173 1.48635055 1.53688581
v 0.39578337 1.48231031 1.55480442
v 0.45349173 1.48832226 1.52022773
v 0.39578337 1.48910565 1.50504893
v 0.45349173 1.48645617 1.54805367
v 0.45349173 1.48650898 1.55355433
v 0.39578337 1.48257439 1.57135838
v 0.45349173 1.49385889 1.50907025
v 0.39578337 1.48953698 1.50425720
v 0.45349173 1.48726600 1.57020198
v 0.39578337 1.48485416 1.58724553
v 0.45349173 1.49777590 1.50809094
v 0.39578337 1.50569793 1.50055888
v 0.45349173 1.50569793 1.50612200
v 0.45349173 1.49010031 1.58136989
v 0.45349173 1.49154389 1.58686006
v 0.39578337 1.49018835 1.60249722
v 0.39578337 1.52186766 1.50226740
v 0.45349173 1.53901448 1.50727834
v 0.45349173 1.52236942 1.50598658
v 0.45349173 1.51119933 1.50606991
v 0.45349173 1.49466868 1.59324621
v 0.45349173 1.49625311 1.59638192
v 0.45349173 1.50569793 1.59944479
v 0.39578337 1.49080448 1.60269511
v 0.39578337 1.55095915 1.50845560
v 0.45349173 1.54883780 1.51022659
v 0.45349173 1.52236942 1.60126787
v 0.39578337 1.50516097 1.60698728
v 0.39578337 1.55323014 1.50916401
v 0.45349173 1.57212859 1.55411688
v 0.45349173 1.57212859 1.60097622
v 0.39578337 1.57212859 1.60188258
v 0.39578337 1.57212859 1.54758487
f 1 2 3
f 1 3 4
f 1 4 9
f 1 9 13
f 1 13 19
f 1 19 27
f 1 27 31
f 1 31 35
f 1 35 36
f 1 36 32
f 1 32 28
f 1 28 20
f 1 20 15
f 1 15 11
f 1 11 6
f 1 6 2
f 2 5 3
f 2 6 5
f 3 5 10
f 3 10 14
f 3 14 16
f 3 16 23
f 3 23 22
f 3 22 21
f 3 21 29
f 3 29 33
f 3 33 34
f 3 34 30
f 3 30 26
f 3 26 25
f 3 25 24
f 3 24 18
f 3 18 17
f 3 17 12
f 3 12 8
f 3 8 7
f 3 7 4
f 4 8 9
f 4 7 8
f 5 6 10
f 6 11 10
f 8 12 9
f 9 12 13
f 10 11 14
f 11 15 16
f 11 16 14
f 12 17 13
f 13 17 18
f 13 18 19
f 15 20 21
f 15 21 22
f 15 22 23
f 15 23 16
f 18 24 19
f 19 25 26
f 19 26 27
f 19 24 25
f 20 28 21
f 21 28 29
f 26 30 31
f 26 31 27
f 28 32 29
f 29 32 33
f 30 34 31
f 31 34 35
f 32 36 33
f 33 36 35
f 33 35 34

