# https://github.com/mikedh/trimesh
v -2.07755996 -0.6949426400000001 1.23121416
v -2.07966518 -0.71186958 1.23121416
v -2.07757982 -0.6947126299999999 1.23121416
v -2.08640793 -0.69531747 1.36955437
v -2.08565323 -0.71138401 1.36955437
v -2.0803504 -0.7161460399999999 1.23121416
v -2.08753008 -0.72499711 1.36955437
v -2.08152217 -0.6802902399999999 1.23121416
v -2.08898986 -0.6882724 1.36955437
v -2.08925795 -0.7347256200000001 1.23121416
v -2.08818548 -0.72824279 1.36955437
v -2.08948637 -0.73333705 1.36955437
v -2.08935725 -0.73337111 1.35937115
v -2.08924805 -0.73357556 1.34270151
v -2.08919837 -0.73368631 1.32601837
v -2.08219743 -0.67940428 1.23121416
v -2.11679489 -0.66457299 1.36955437
v -2.09186964 -0.73645492 1.23121416
v -2.09769881 -0.73941949 1.35937115
v -2.09457074 -0.7370427500000001 1.36955437
v -2.09781797 -0.7393939300000001 1.36955437
v -2.1131901600000003 -0.66130175 1.23121416
v -2.12487825 -0.66102063 1.36955437
v -2.0974505199999998 -0.73945357 1.27599597
v -2.09747038 -0.7394621 1.25932637
v -2.0975498200000002 -0.7394621 1.24265675
v -2.09758954 -0.73945357 1.23121416
v -2.09758954 -0.73944504 1.34270151
v -2.09753992 -0.7394621 1.32601837
v -2.0975101 -0.7394621 1.30934874
v -2.11337887 -0.74257147 1.36955437
v -2.113925 -0.66100359 1.23121416
v -2.13005196 -0.6587972200000001 1.36955437
v -2.1133887700000002 -0.7426737 1.24265675
v -2.1133887700000002 -0.74265667 1.23121416
v -2.11337887 -0.7425885 1.35937115
v -2.11337887 -0.74261405 1.34270151
v -2.11337887 -0.74263961 1.32601837
v -2.13005196 -0.7428951699999999 1.36955437
v -2.13004206 -0.65617342 1.23121416
v -2.14022069 -0.6584734999999999 1.36955437
v -2.1301612199999997 -0.65615638 1.23121416
v -2.13004206 -0.74296334 1.24265675
v -2.13004206 -0.74295482 1.23121416
v -2.14671515 -0.74312518 1.36955437
v -2.14671515 -0.65831163 1.36955437
v -2.1470031599999997 -0.65706789 1.23121416
v -2.1414619999999998 -0.74311668 1.23121416
v -2.15321957 -0.74298037 1.36955437
v -2.14672511 -0.74318482 1.23121416
v -2.1633883000000003 -0.65981947 1.36955437
v -2.1519683599999997 -0.6574171600000001 1.23121416
v -2.1633883000000003 -0.74273331 1.36955437
v -2.1633883000000003 -0.74275889 1.23121416
v -2.1633883000000003 -0.6597854000000001 1.35937115
v -2.17056792 -0.6632440500000001 1.36955437
v -2.1633883000000003 -0.65987911 1.23121416
v -2.16783707 -0.74141291 1.36955437
v -2.17480824 -0.73933432 1.23121416
v -2.17517563 -0.66536523 1.30934874
v -2.1751458699999997 -0.66541635 1.35937115
v -2.16713205 -0.6615828699999999 1.23121416
v -2.17530476 -0.66538228 1.23121416
v -2.17515577 -0.6654419 1.36955437
v -2.17478838 -0.73932579 1.36955437
v -2.17841297 -0.7280639 1.23121416
v -2.17783701 -0.67406297 1.23121416
v -2.17898892 -0.67804127 1.23121416
v -2.17655597 -0.67035727 1.36955437
v -2.17697304 -0.73244255 1.36955437
v -2.17892934 -0.71138401 1.23121416
v -2.17836328 -0.72805537 1.36955437
v -2.17900878 -0.6947296700000001 1.23121416
v -2.1788597999999997 -0.6947211600000001 1.36955437
v -2.17879032 -0.6845496600000001 1.36955437
v -2.17873073 -0.67804127 1.36955437
v -2.17883994 -0.71138401 1.36955437
f 1 2 6
f 1 6 10
f 1 10 18
f 1 18 27
f 1 27 35
f 1 35 44
f 1 44 48
f 1 48 50
f 1 50 54
f 1 54 59
f 1 59 66
f 1 66 71
f 1 71 73
f 1 73 68
f 1 68 67
f 1 67 63
f 1 63 62
f 1 62 57
f 1 57 52
f 1 52 47
f 1 47 42
f 1 42 40
f 1 40 32
f 1 32 22
f 1 22 16
f 1 16 8
f 1 8 3
f 1 3 4
f 1 4 5
f 1 5 2
f 2 5 7
f 2 7 6
f 3 8 4
f 4 9 17
f 4 17 23
f 4 23 33
f 4 33 41
f 4 41 46
f 4 46 51
f 4 51 56
f 4 56 64
f 4 64 69
f 4 69 76
f 4 76 75
f 4 75 74
f 4 74 77
f 4 77 72
f 4 72 70
f 4 70 65
f 4 65 58
f 4 58 53
f 4 53 49
f 4 49 45
f 4 45 39
f 4 39 31
f 4 31 21
f 4 21 20
f 4 20 12
f 4 12 11
f 4 11 7
f 4 7 5
f 4 8 9
f 6 7 11
f 6 11 12
f 6 12 13
f 6 13 14
f 6 14 15
f 6 15 10
f 8 16 9
f 9 16 17
f 10 15 14
f 10 14 19
f 10 19 18
f 12 20 14
f 12 14 13
f 14 20 21
f 14 21 19
f 16 22 17
f 17 22 23
f 18 24 25
f 18 25 26
f 18 26 27
f 18 19 28
f 18 28 29
f 18 29 30
f 18 30 24
f 19 21 31
f 19 31 28
f 22 32 33
f 22 33 23
f 24 30 25
f 25 30 34
f 25 34 26
f 26 34 27
f 27 34 35
f 28 31 36
f 28 36 29
f 29 36 37
f 29 37 38
f 29 38 34
f 29 34 30
f 31 39 36
f 32 40 33
f 33 40 42
f 33 42 41
f 34 43 44
f 34 44 35
f 34 38 43
f 36 39 37
f 37 39 38
f 38 39 43
f 39 45 43
f 41 42 46
f 42 47 46
f 43 48 44
f 43 45 48
f 45 49 50
f 45 50 48
f 46 47 52
f 46 52 51
f 49 53 50
f 50 53 54
f 51 52 55
f 51 55 56
f 52 57 55
f 53 58 54
f 54 58 59
f 55 60 61
f 55 61 56
f 55 57 62
f 55 62 63
f 55 63 60
f 56 61 64
f 58 65 59
f 59 65 66
f 60 64 61
f 60 63 64
f 63 67 64
f 64 67 68
f 64 68 69
f 65 70 66
f 66 70 72
f 66 72 71
f 68 73 74
f 68 74 75
f 68 75 76
f 68 76 69
f 71 72 77
f 71 77 73
f 73 77 74

