# https://github.com/mikedh/trimesh
v -1.81554080 1.79160571 0.80040344
v -1.87043694 1.79160571 0.80040344
v -1.81548066 1.78962035 0.80040344
v -1.82901734 1.79160571 0.74239201
v -1.86692560 1.79160571 0.74239201
v -1.87076513 1.79156059 0.80040344
v -1.81546421 1.78901120 0.80040344
v -1.81515248 1.77233862 0.80040344
v -1.82683508 1.56112259 0.74239201
v -1.87078700 1.78901120 0.80040344
v -1.86723734 1.56123539 0.74239201
v -1.81510873 1.57238053 0.80040344
v -1.81515796 1.56112259 0.80040344
v -1.86660290 1.56112259 0.74239201
v -1.87098388 1.56112259 0.80040344
f 1 2 6
f 1 6 10
f 1 10 15
f 1 15 13
f 1 13 12
f 1 12 8
f 1 8 7
f 1 7 3
f 1 3 4
f 1 4 5
f 1 5 2
f 2 5 6
f 3 7 4
f 4 7 8
f 4 8 9
f 4 9 14
f 4 14 11
f 4 11 5
f 5 10 6
f 5 11 10
f 8 12 9
f 9 12 13
f 9 13 15
f 9 15 14
f 10 11 15
f 11 14 15

