# https://github.com/mikedh/trimesh
v 2.07547441 1.57228537 0.83903477
v 2.23613573 1.79159375 0.83189446
v 2.22905881 1.57228537 0.83524493
v 2.07547441 1.57228537 0.89872498
v 2.07547441 1.87254380 0.83914462
v 2.23613573 1.80568953 0.83188074
v 2.23613573 1.79159375 0.90107990
v 2.22905881 1.57228537 0.89887602
v 2.23613573 1.94631782 0.90202050
v 2.07547441 1.93881227 0.89875930
v 2.07547441 1.88920245 0.83916522
v 2.07547441 1.90586110 0.83922014
v 2.07556877 1.94631782 0.83941238
v 2.23613573 1.89041066 0.83240939
v 2.23613573 1.94631782 0.83283506
v 2.07547441 1.94631782 0.89875930
v 2.07547441 1.92255636 0.83930253
v 2.07547441 1.93921501 0.83938492
v 2.07547441 1.94631782 0.86527539
f 1 2 3
f 1 3 8
f 1 8 4
f 1 4 10
f 1 10 16
f 1 16 19
f 1 19 18
f 1 18 17
f 1 17 12
f 1 12 11
f 1 11 5
f 1 5 6
f 1 6 2
f 2 6 14
f 2 14 15
f 2 15 9
f 2 9 7
f 2 7 8
f 2 8 3
f 4 8 7
f 4 7 9
f 4 9 10
f 5 11 6
f 6 11 12
f 6 12 13
f 6 13 14
f 9 15 13
f 9 13 19
f 9 19 16
f 9 16 10
f 12 17 13
f 13 15 14
f 13 17 18
f 13 18 19

