# https://github.com/mikedh/trimesh
v -0.74141903 1.82233880 0.18040874
v -0.74141903 1.65582278 0.18031009
v -0.74141903 1.82233880 0.09912556
v -0.91360717 1.82233880 0.18098440
v -0.91360717 1.60585050 0.18093505
v -0.91360717 1.58918143 0.18092683
v -0.74141903 1.64464017 0.18030187
v -0.74141903 1.81699212 0.09911734
v -0.93030318 1.77250631 0.09838544
v -0.93013453 1.82233880 0.09848415
v -0.93030318 1.82233880 0.18102553
v -0.93030318 1.60585050 0.18095973
v -0.93030318 1.57251236 0.18094328
v -0.91360717 1.57251236 0.18091037
v -0.74141903 1.62800604 0.18028541
v -0.74141903 1.78368891 0.09906804
v -0.93030318 1.75583723 0.09836077
v -0.94691486 1.77250631 0.09833609
v -0.98030687 1.77250631 0.09825390
v -0.99683422 1.82233880 0.09832787
v -0.94691486 1.82233880 0.18103376
v -0.94691486 1.65582278 0.18098440
v -0.96361086 1.58918143 0.18096795
v -0.94691486 1.58918143 0.18095973
v -0.93030318 1.55587821 0.18092683
v -0.94691486 1.57251236 0.18095150
v -0.91360717 1.55587821 0.18088576
v -0.74141903 1.59466788 0.18024429
v -0.74141903 1.76701984 0.09904337
v -0.91360717 1.48920192 0.09808939
v -0.94691486 1.75583723 0.09831141
v -0.98030687 1.75583723 0.09822099
v -1.06344964 1.82233880 0.09817987
v -0.98030687 1.82233880 0.18105021
v -0.99691856 1.60585050 0.18098440
v -1.01361455 1.58918143 0.18097618
v -0.93030318 1.53920914 0.18087753
v -0.91360717 1.53920914 0.18084463
v -0.99691856 1.55587821 0.18093505
v -1.04692227 1.53920914 0.18091037
v -1.01361455 1.57251236 0.18095973
v -0.74141903 1.55587821 0.18017848
v -0.74141903 1.57251236 0.18021138
v -0.74141903 1.57803376 0.18021961
v -0.74141903 1.75583723 0.09903514
v -0.74141903 1.48920192 0.09884595
v -0.74141903 1.47959187 0.09934765
v -0.91360717 1.47882305 0.09896111
v -0.99691856 1.48920192 0.09790848
v -0.99691856 1.75583723 0.09818809
v -1.09684163 1.82233880 0.09811406
v -0.98039120 1.82233880 0.18105021
v -1.03031058 1.65582278 0.18099263
v -1.04692227 1.67249185 0.18099263
v -1.03031058 1.58918143 0.18096795
v -1.03031058 1.57251236 0.18095973
v -0.93030318 1.52254006 0.18078705
v -1.06361826 1.50587100 0.18081173
v -1.01361455 1.50587100 0.18078705
v -0.91360717 1.52254006 0.18075415
v -0.74141903 1.53920914 0.18010445
v -0.74141903 1.54469562 0.18012913
v -1.04692227 1.55587821 0.18093505
v -1.06361826 1.53920914 0.18090215
v -0.74141903 1.47214844 0.10820456
v -0.74698436 1.47955691 0.09933942
v -0.89691114 1.47889294 0.09900224
v -0.74698436 1.47211351 0.10820456
v -0.99691856 1.47850855 0.09885418
v -1.01361455 1.48920192 0.09787558
v -1.03031058 1.75583723 0.09813051
v -1.04692227 1.77250631 0.09812229
v -1.09692597 1.77250631 0.09804826
v -1.60286563 1.82233880 0.09737395
v -1.01378324 1.82233880 0.18103376
v -1.24702138 1.82233880 0.18091860
v -1.31355246 1.70583000 0.18085286
v -1.04692227 1.57251236 0.18095150
v -1.06361826 1.55587821 0.18092683
v -0.94691486 1.50587100 0.18068835
v -1.08031429 1.50587100 0.18080350
v -1.08031429 1.48920192 0.18050744
v -0.91360717 1.50587100 0.18061438
v -0.89691114 1.50587100 0.18055680
v -0.74141903 1.50587100 0.17989888
v -1.08031429 1.53920914 0.18088576
v -0.74141903 1.47005171 0.11369801
v -0.74141903 1.46578833 0.12487403
v -0.89691114 1.47148447 0.10820456
v -1.03031058 1.48920192 0.09785091
v -0.91360717 1.47141458 0.10820456
v -1.03031058 1.47113503 0.10820456
v -1.60286563 1.47798438 0.09842657
v -1.03031058 1.47850855 0.09882134
v -1.60286563 1.48920192 0.09703676
v -1.60286563 1.82233880 0.18045809
v -1.26371738 1.82233880 0.18090215
v -1.33016412 1.70583000 0.18083640
v -1.31355246 1.68916093 0.18083640
v -1.08031429 1.55587821 0.18091037
v -0.94691486 1.48920192 0.18028541
v -1.53017895 1.50587100 0.18034299
v -1.08031429 1.47379089 0.17336925
v -0.84699177 1.47344142 0.17299100
v -0.74141903 1.47351131 0.17286761
v -1.59687866 1.48920192 0.17976733
v -1.59687866 1.47389571 0.17296632
v -0.91360717 1.48920192 0.18017848
v -0.74141903 1.48920192 0.17954530
v -1.60286563 1.68322016 0.18053212
v -1.54687495 1.55587821 0.18040051
v -0.74141903 1.46550879 0.14153528
v -0.76359604 1.46547380 0.14153528
v -0.81359975 1.46568349 0.12487403
v -1.60286563 1.47033126 0.10820456
v -1.60286563 1.48200311 0.09792494
v -1.60286563 1.72249908 0.18055680
v -1.31355246 1.77250631 0.18085286
v -1.33016412 1.68916093 0.18081995
v -1.60286563 1.70583000 0.18055680
v -1.60286563 1.68916093 0.18054035
v -1.59687866 1.55587821 0.18033477
v -1.60286563 1.55587821 0.18032654
v -1.60286563 1.54990251 0.18031009
v -1.54687495 1.50587100 0.18030187
v -1.31355246 1.47372100 0.17308964
v -0.83029578 1.46568349 0.15819652
v -0.74141903 1.46578833 0.15819652
v -1.49687124 1.46599802 0.15819652
v -0.74141903 1.47868328 0.17507157
v -1.60286563 1.50587100 0.18013736
v -1.60286563 1.48920192 0.17963572
v -1.60286563 1.47400055 0.17283471
v -1.60286563 1.47123985 0.16769490
v -1.59687866 1.46617273 0.15819652
v -1.58018266 1.46610284 0.15819652
v -1.56357094 1.46606788 0.15819652
v -1.54687495 1.47379089 0.17286761
v -0.79698807 1.46543887 0.14153528
v -1.59687866 1.46550879 0.12487403
v -1.60286563 1.46718613 0.11892830
v -1.60286563 1.53920914 0.18026896
v -1.51356724 1.46536898 0.14153528
v -1.58018266 1.46540394 0.14153528
v -1.60286563 1.46627757 0.15819652
v -1.60286563 1.46592811 0.15225079
v -1.60286563 1.46543887 0.14153528
v -1.60286563 1.46550879 0.12487403
f 1 2 7
f 1 7 15
f 1 15 28
f 1 28 44
f 1 44 43
f 1 43 42
f 1 42 62
f 1 62 61
f 1 61 85
f 1 85 109
f 1 109 130
f 1 130 105
f 1 105 128
f 1 128 112
f 1 112 88
f 1 88 87
f 1 87 65
f 1 65 47
f 1 47 46
f 1 46 45
f 1 45 29
f 1 29 16
f 1 16 8
f 1 8 3
f 1 3 10
f 1 10 20
f 1 20 33
f 1 33 51
f 1 51 74
f 1 74 96
f 1 96 97
f 1 97 76
f 1 76 75
f 1 75 52
f 1 52 34
f 1 34 21
f 1 21 11
f 1 11 4
f 1 4 5
f 1 5 6
f 1 6 2
f 2 6 7
f 3 8 9
f 3 9 10
f 4 11 5
f 5 11 12
f 5 12 13
f 5 13 6
f 6 13 14
f 6 14 7
f 7 14 15
f 8 16 9
f 9 16 29
f 9 29 17
f 9 17 31
f 9 31 18
f 9 18 10
f 10 18 19
f 10 19 20
f 11 21 22
f 11 22 12
f 12 22 23
f 12 23 24
f 12 24 26
f 12 26 13
f 13 25 14
f 13 26 25
f 14 25 27
f 14 27 44
f 14 44 28
f 14 28 15
f 17 29 30
f 17 30 31
f 18 31 32
f 18 32 19
f 19 32 33
f 19 33 20
f 21 34 22
f 22 34 35
f 22 35 23
f 23 26 24
f 23 35 36
f 23 36 26
f 25 37 38
f 25 38 27
f 25 26 39
f 25 39 40
f 25 40 37
f 26 36 41
f 26 41 39
f 27 38 42
f 27 42 43
f 27 43 44
f 29 45 30
f 30 45 46
f 30 46 47
f 30 47 48
f 30 48 49
f 30 49 32
f 30 32 31
f 32 49 50
f 32 50 33
f 33 50 51
f 34 52 35
f 35 53 36
f 35 52 53
f 36 53 54
f 36 54 55
f 36 55 56
f 36 56 41
f 37 57 60
f 37 60 38
f 37 40 58
f 37 58 59
f 37 59 57
f 38 60 61
f 38 61 62
f 38 62 42
f 39 41 40
f 40 41 56
f 40 56 63
f 40 63 79
f 40 79 64
f 40 64 81
f 40 81 58
f 47 65 66
f 47 66 48
f 48 66 67
f 48 67 68
f 48 68 69
f 48 69 70
f 48 70 49
f 49 70 50
f 50 70 71
f 50 71 72
f 50 72 51
f 51 72 73
f 51 73 74
f 52 75 54
f 52 54 53
f 54 75 76
f 54 76 77
f 54 77 55
f 55 77 78
f 55 78 56
f 56 78 79
f 56 79 63
f 57 59 80
f 57 80 60
f 58 81 82
f 58 82 59
f 59 82 80
f 60 80 83
f 60 83 84
f 60 84 85
f 60 85 61
f 64 79 100
f 64 100 86
f 64 86 81
f 65 87 68
f 65 68 67
f 65 67 66
f 68 87 88
f 68 88 89
f 68 89 69
f 69 90 70
f 69 89 91
f 69 91 92
f 69 92 93
f 69 93 94
f 69 94 95
f 69 95 90
f 70 90 73
f 70 73 72
f 70 72 71
f 73 90 74
f 74 95 116
f 74 116 93
f 74 93 115
f 74 115 141
f 74 141 148
f 74 148 147
f 74 147 146
f 74 146 145
f 74 145 134
f 74 134 133
f 74 133 132
f 74 132 131
f 74 131 142
f 74 142 124
f 74 124 123
f 74 123 110
f 74 110 121
f 74 121 120
f 74 120 117
f 74 117 96
f 74 90 95
f 76 97 77
f 77 97 118
f 77 118 98
f 77 98 119
f 77 119 99
f 77 99 79
f 77 79 78
f 79 99 100
f 80 82 101
f 80 101 83
f 81 86 102
f 81 102 82
f 82 103 104
f 82 104 105
f 82 105 101
f 82 102 106
f 82 106 107
f 82 107 103
f 83 108 84
f 83 101 108
f 84 108 109
f 84 109 85
f 86 100 110
f 86 110 111
f 86 111 102
f 88 112 113
f 88 113 114
f 88 114 92
f 88 92 91
f 88 91 89
f 92 114 115
f 92 115 93
f 93 116 94
f 94 116 95
f 96 117 97
f 97 117 118
f 98 118 117
f 98 117 120
f 98 120 121
f 98 121 119
f 99 119 100
f 100 119 121
f 100 121 110
f 101 105 108
f 102 111 110
f 102 110 122
f 102 122 123
f 102 123 124
f 102 124 125
f 102 125 106
f 103 107 126
f 103 126 104
f 104 127 128
f 104 128 105
f 104 126 129
f 104 129 127
f 105 130 108
f 106 125 131
f 106 131 132
f 106 132 107
f 107 132 133
f 107 133 134
f 107 134 135
f 107 135 136
f 107 136 137
f 107 137 138
f 107 138 126
f 108 130 109
f 110 123 122
f 112 128 113
f 113 128 127
f 113 127 139
f 113 139 114
f 114 139 140
f 114 140 141
f 114 141 115
f 124 142 125
f 125 142 131
f 126 138 129
f 127 129 143
f 127 143 139
f 129 138 137
f 129 137 144
f 129 144 143
f 134 145 135
f 135 145 146
f 135 146 147
f 135 147 136
f 136 147 137
f 137 147 144
f 139 143 140
f 140 143 148
f 140 148 141
f 143 144 148
f 144 147 148

