# https://github.com/mikedh/trimesh
v -3.36496275 1.94270846 0.89320275
v -3.36496275 1.94270846 0.83707615
v -3.37772760 1.94270846 0.89659746
v -3.36496275 1.94264783 0.89664179
v -3.36496275 1.90590295 0.83701282
v -3.72720083 1.87235657 0.83196508
v -3.72720083 1.88901607 0.83202208
v -3.72720083 1.94269331 0.83228175
v -3.72720083 1.94270846 0.83244643
v -3.59802765 1.94270846 0.89633779
v -3.36496275 1.93902488 0.89664812
v -3.36496275 1.80591565 0.83698114
v -3.72720083 1.78787670 0.83204743
v -3.36496275 1.80570342 0.83698114
v -3.72720083 1.94270846 0.89600211
v -3.61100524 1.94270846 0.89630612
v -3.39808043 1.78784638 0.89657845
v -3.38141519 1.78784638 0.89661012
v -3.36496275 1.90569073 0.89666080
v -3.36496275 1.92235023 0.89666080
v -3.72705897 1.78784638 0.83228175
v -3.72720083 1.78784638 0.83231343
v -3.36496275 1.78786154 0.83700014
v -3.72720083 1.78784638 0.89508377
v -3.64802329 1.78784638 0.89586279
v -3.63135806 1.78784638 0.89593245
v -3.36592013 1.78784638 0.89662912
v -3.36496275 1.78784638 0.89662912
v -3.38024514 1.78784638 0.83719648
v -3.36496275 1.78784638 0.84773526
f 1 2 9
f 1 9 15
f 1 15 16
f 1 16 10
f 1 10 3
f 1 3 4
f 1 4 11
f 1 11 20
f 1 20 19
f 1 19 28
f 1 28 30
f 1 30 23
f 1 23 14
f 1 14 12
f 1 12 5
f 1 5 2
f 2 5 6
f 2 6 7
f 2 7 8
f 2 8 9
f 3 10 4
f 4 10 11
f 5 12 6
f 6 13 22
f 6 22 24
f 6 24 15
f 6 15 9
f 6 9 8
f 6 8 7
f 6 12 14
f 6 14 13
f 10 16 17
f 10 17 18
f 10 18 19
f 10 19 20
f 10 20 11
f 13 21 22
f 13 14 23
f 13 23 21
f 15 24 25
f 15 25 26
f 15 26 17
f 15 17 16
f 17 26 25
f 17 25 24
f 17 24 22
f 17 22 21
f 17 21 29
f 17 29 30
f 17 30 28
f 17 28 27
f 17 27 18
f 18 27 19
f 19 27 28
f 21 23 29
f 23 30 29

