# https://github.com/mikedh/trimesh
v -2.2315890649999996 -0.29818033 1.389622
v -2.228607415 -0.29818033 1.39069895
v -2.218176025 -0.327789 1.39652811
v -2.231606245 -0.327789 1.39182718
v -2.248275875 -0.327789 1.39198103
v -2.2482586949999996 -0.29818033 1.39078441
v -2.2156326249999996 -0.29818033 1.39634862
v -2.2139484749999996 -0.29818033 1.40005807
v -2.212453385 -0.327789 1.40940014
v -2.264945445 -0.327789 1.39582723
v -2.298121415 -0.29818033 1.3961264
v -2.294091505 -0.29818033 1.39564774
v -2.210562995 -0.29818033 1.4082719
v -2.2103482249999997 -0.29818033 1.41313524
v -2.211826135 -0.327789 1.42606709
v -2.273108435 -0.327789 1.39977603
v -2.298121415 -0.30510564 1.39869053
v -2.298121415 -0.29818033 1.47610217
v -2.2113878949999997 -0.29818033 1.44275968
v -2.211860485 -0.327789 1.44273404
v -2.274062215 -0.327789 1.40023756
v -2.298121415 -0.327789 1.42761412
v -2.298121415 -0.327789 1.47608505
v -2.235292495 -0.29818033 1.47693977
v -2.212341675 -0.29818033 1.45943519
v -2.212797095 -0.327789 1.45940954
v -2.281606485 -0.327789 1.47600814
v -2.2482586949999996 -0.327789 1.47584574
v -2.2315890649999996 -0.327789 1.47566625
v -2.2315890649999996 -0.29818033 1.47687995
v -2.218261975 -0.29818033 1.47217902
v -2.218459625 -0.327789 1.47162343
f 1 2 3
f 1 3 4
f 1 4 5
f 1 5 6
f 1 6 12
f 1 12 11
f 1 11 18
f 1 18 24
f 1 24 30
f 1 30 31
f 1 31 25
f 1 25 19
f 1 19 14
f 1 14 13
f 1 13 8
f 1 8 7
f 1 7 2
f 2 7 3
f 3 7 8
f 3 8 9
f 3 9 15
f 3 15 20
f 3 20 26
f 3 26 32
f 3 32 29
f 3 29 28
f 3 28 27
f 3 27 23
f 3 23 22
f 3 22 21
f 3 21 16
f 3 16 10
f 3 10 5
f 3 5 4
f 5 10 11
f 5 11 12
f 5 12 6
f 8 13 9
f 9 13 14
f 9 14 15
f 10 16 17
f 10 17 11
f 11 17 22
f 11 22 23
f 11 23 18
f 14 19 20
f 14 20 15
f 16 21 17
f 17 21 22
f 18 23 24
f 19 25 26
f 19 26 20
f 23 27 24
f 24 27 28
f 24 28 29
f 24 29 30
f 25 31 32
f 25 32 26
f 29 32 30
f 30 32 31

