# https://github.com/mikedh/trimesh
v -2.2981398449999997 -0.6230746 0.42568383
v -2.2981398449999997 -0.6230746 0.39236675
v -2.2982173149999996 -0.6230746 0.43825944
v -2.2981398449999997 -0.6278654800000001 0.43833483
v -2.2981398449999997 -0.6497992699999999 0.38269323
v -2.531782595 -0.63893752 0.38442062
v -2.865281295 -0.63606664 0.38359148
v -2.531782595 -0.6230746 0.39095969
v -2.5651711849999996 -0.64600497 0.44466659
v -2.551536875 -0.6463524 0.44466659
v -2.5485156250000003 -0.64647125 0.44466659
v -2.2982173149999996 -0.65686672 0.44466659
v -2.2981398449999997 -0.65811931 0.44466659
v -3.0153363549999996 -0.6230746 0.4409102
v -2.747530295 -0.6413786699999999 0.44466659
v -2.2981398449999997 -0.66151132 0.38149974
v -2.331683375 -0.66136503 0.38129875
v -2.348338935 -0.66136503 0.38119193
v -2.865281295 -0.64468839 0.3821153
v -2.531782595 -0.64727583 0.38251108
v -2.881936865 -0.64468839 0.38209646
v -2.881936865 -0.6360849399999999 0.38360407
v -2.920438335 -0.6230746 0.39045089
v -2.854125935 -0.6230746 0.39038177
v -2.2981398449999997 -0.71369894 0.44466659
v -3.032069385 -0.6230746 0.44095422
v -3.0275762449999997 -0.63809637 0.44466659
v -2.2981398449999997 -0.6947091599999999 0.3809721
v -2.331683375 -0.67803252 0.38102237
v -2.348338935 -0.67803252 0.3809721
v -2.3649944849999995 -0.66136503 0.38117309
v -2.6485264949999996 -0.66136503 0.38092814
v -2.7151487850000002 -0.66136503 0.38087786
v -2.881936865 -0.66136503 0.3808088
v -2.8985924350000003 -0.66136503 0.38080248
v -2.9153254649999996 -0.66136503 0.38082132
v -2.9319810349999997 -0.66136503 0.38084643
v -3.0895504449999995 -0.64566669 0.38261784
v -3.0653804949999994 -0.6369443699999999 0.38388045
v -3.048724935 -0.63685294 0.3838616
v -3.086994005 -0.6230746 0.39097228
v -2.2982173149999996 -0.7148418000000001 0.44466659
v -2.2981398449999997 -0.71556409 0.44234243
v -3.0895504449999995 -0.6230746 0.44096048
v -3.032069385 -0.63806893 0.44466659
v -2.2981398449999997 -0.7055892 0.38229751
v -2.331683375 -0.6947091599999999 0.3808716
v -2.4650828349999996 -0.6947091599999999 0.38070824
v -2.515127035 -0.6947091599999999 0.38065803
v -2.9153254649999996 -0.6947091599999999 0.38050099
v -2.9319810349999997 -0.6947091599999999 0.3805261
v -2.948636595 -0.66136503 0.38090297
v -3.0895504449999995 -0.66136503 0.38141177
v -3.0895504449999995 -0.6373283700000001 0.3839621
v -3.0820360849999995 -0.6371638 0.3839244
v -3.0895504449999995 -0.6230746 0.3909848
v -2.515127035 -0.71545438 0.44466659
v -2.515127035 -0.71627723 0.4421477
v -2.2981398449999997 -0.7156006500000001 0.4421477
v -3.0895504449999995 -0.6384346599999999 0.44466659
v -2.2981398449999997 -0.71172407 0.39212174
v -2.3150278149999997 -0.71186121 0.39212174
v -2.331683375 -0.71198008 0.39212174
v -2.348338935 -0.71205321 0.39212174
v -2.498471425 -0.7127114999999999 0.39212174
v -2.331683375 -0.70573548 0.38230377
v -2.4650828349999996 -0.7060097599999999 0.38215932
v -2.4817384549999995 -0.70605547 0.38215299
v -2.9153254649999996 -0.70611948 0.38207767
v -3.0895504449999995 -0.70541548 0.38236031
v -3.0895504449999995 -0.6947091599999999 0.38110402
v -2.612658925 -0.71550009 0.44466659
v -2.681915115 -0.71636866 0.4421477
v -2.665182055 -0.71635952 0.4421477
v -2.531782595 -0.71628637 0.4421477
v -2.665182055 -0.71646923 0.40879919
v -2.531782595 -0.71634123 0.40879919
v -2.515127035 -0.7163138099999999 0.40879919
v -2.2981398449999997 -0.7156098 0.42568383
v -3.0895504449999995 -0.71466808 0.44466659
v -2.2981398449999997 -0.71545438 0.40879919
v -2.515127035 -0.71276636 0.39212174
v -2.498471425 -0.7060920500000001 0.38215932
v -2.515127035 -0.70611034 0.38215932
v -2.681915115 -0.71287608 0.39212174
v -2.9153254649999996 -0.71276636 0.39212174
v -2.9319810349999997 -0.70606463 0.3821153
v -3.0895504449999995 -0.71150465 0.39212174
v -2.9319810349999997 -0.71266579 0.39212174
v -2.6793586849999995 -0.71552751 0.44466659
v -2.7318818149999995 -0.7155458100000001 0.44466659
v -2.848548265 -0.71550923 0.44466659
v -2.8985924350000003 -0.71547266 0.44466659
v -2.8985924350000003 -0.7161858 0.4421477
v -2.8985924350000003 -0.7162497999999999 0.42547025
v -2.8985924350000003 -0.71630465 0.40879919
v -2.681915115 -0.71647837 0.40879919
v -2.665182055 -0.71286693 0.39212174
v -2.2981398449999997 -0.7156098 0.42547025
v -3.0895504449999995 -0.71525322 0.4421477
v -2.9319810349999997 -0.71608523 0.4421477
v -2.9319810349999997 -0.71538123 0.44466659
v -2.9153254649999996 -0.71627723 0.40879919
v -2.9319810349999997 -0.7161858 0.40879919
v -3.0895504449999995 -0.7152258 0.40879919
v -2.9153254649999996 -0.71543608 0.44466659
v -2.9153254649999996 -0.7161492300000001 0.4421477
v -2.9153254649999996 -0.71622238 0.42547025
v -3.0895504449999995 -0.71525322 0.43469778
v -3.0895504449999995 -0.71524408 0.42547025
f 1 2 8
f 1 8 24
f 1 24 23
f 1 23 41
f 1 41 56
f 1 56 44
f 1 44 26
f 1 26 14
f 1 14 3
f 1 3 4
f 1 4 13
f 1 13 25
f 1 25 43
f 1 43 59
f 1 59 79
f 1 79 99
f 1 99 81
f 1 81 61
f 1 61 46
f 1 46 28
f 1 28 16
f 1 16 5
f 1 5 2
f 2 5 6
f 2 6 7
f 2 7 8
f 3 9 10
f 3 10 11
f 3 11 12
f 3 12 13
f 3 13 4
f 3 14 15
f 3 15 9
f 5 16 17
f 5 17 18
f 5 18 19
f 5 19 20
f 5 20 7
f 5 7 6
f 7 19 21
f 7 21 22
f 7 22 23
f 7 23 24
f 7 24 8
f 7 20 19
f 9 15 27
f 9 27 45
f 9 45 60
f 9 60 80
f 9 80 102
f 9 102 106
f 9 106 93
f 9 93 92
f 9 92 91
f 9 91 90
f 9 90 72
f 9 72 57
f 9 57 42
f 9 42 25
f 9 25 13
f 9 13 12
f 9 12 11
f 9 11 10
f 14 26 27
f 14 27 15
f 16 28 29
f 16 29 18
f 16 18 17
f 18 29 30
f 18 30 31
f 18 31 21
f 18 21 19
f 21 31 32
f 21 32 33
f 21 33 34
f 21 34 35
f 21 35 36
f 21 36 37
f 21 37 38
f 21 38 39
f 21 39 22
f 22 39 40
f 22 40 41
f 22 41 23
f 25 42 43
f 26 44 45
f 26 45 27
f 28 46 47
f 28 47 30
f 28 30 29
f 30 47 48
f 30 48 49
f 30 49 32
f 30 32 31
f 32 49 33
f 33 49 34
f 34 49 50
f 34 50 35
f 35 50 36
f 36 50 51
f 36 51 37
f 37 51 52
f 37 52 38
f 38 52 53
f 38 53 71
f 38 71 70
f 38 70 88
f 38 88 105
f 38 105 110
f 38 110 109
f 38 109 100
f 38 100 80
f 38 80 60
f 38 60 44
f 38 44 56
f 38 56 54
f 38 54 55
f 38 55 39
f 39 55 56
f 39 56 41
f 39 41 40
f 42 57 58
f 42 58 43
f 43 58 59
f 44 60 45
f 46 61 62
f 46 62 63
f 46 63 64
f 46 64 65
f 46 65 66
f 46 66 67
f 46 67 48
f 46 48 47
f 48 67 49
f 49 67 68
f 49 68 50
f 50 69 51
f 50 68 69
f 51 69 70
f 51 70 71
f 51 71 53
f 51 53 52
f 54 56 55
f 57 72 73
f 57 73 74
f 57 74 75
f 57 75 58
f 58 75 76
f 58 76 77
f 58 77 78
f 58 78 59
f 59 78 79
f 61 81 62
f 62 81 63
f 63 81 64
f 64 81 65
f 65 78 82
f 65 82 66
f 65 81 78
f 66 82 68
f 66 68 67
f 68 82 83
f 68 83 84
f 68 84 69
f 69 85 86
f 69 86 87
f 69 87 70
f 69 84 85
f 70 87 86
f 70 86 89
f 70 89 88
f 72 90 73
f 73 91 92
f 73 92 93
f 73 93 94
f 73 94 95
f 73 95 96
f 73 96 97
f 73 97 76
f 73 76 74
f 73 90 91
f 74 76 75
f 76 98 82
f 76 82 77
f 76 97 85
f 76 85 98
f 77 82 78
f 78 81 99
f 78 99 79
f 80 100 101
f 80 101 102
f 82 84 83
f 82 98 84
f 84 98 85
f 85 97 86
f 86 97 96
f 86 96 103
f 86 103 104
f 86 104 89
f 88 89 105
f 89 104 105
f 93 106 107
f 93 107 94
f 94 107 108
f 94 108 95
f 95 108 103
f 95 103 96
f 100 104 103
f 100 103 101
f 100 109 104
f 101 103 108
f 101 108 107
f 101 107 102
f 102 107 106
f 104 109 110
f 104 110 105

