# https://github.com/mikedh/trimesh
v -1.63222844 2.13107614 1.04944335
v -1.64691574 2.14047534 1.04944335
v -1.63222844 2.07136785 1.04944335
v -1.63222844 2.14065809 0.80824160
v -1.66213830 2.14655342 1.04944335
v -1.63801634 2.06881744 1.04944335
v -1.63222844 2.06881744 0.84793863
v -1.63222844 2.14095206 0.79354855
v -1.67046895 2.14770547 1.04944335
v -1.66950985 2.14807890 0.67489938
v -1.66955449 2.14807890 0.69154415
v -1.72695430 2.06881744 1.04944335
v -1.63222844 2.06881744 0.71242374
v -1.63222844 2.14095206 0.79156001
v -1.68024932 2.14824576 1.04944335
v -1.68024932 2.14892109 0.69154415
v -1.66952099 2.14807890 0.67324227
v -1.68024932 2.14893697 0.67489938
v -1.74188700 2.09374157 1.04944335
v -1.74190929 2.09368596 1.02484444
v -1.74208775 2.09351116 0.82488637
v -1.74211004 2.09352705 0.80824160
v -1.72709926 2.06881744 0.75823366
v -1.63798290 2.06881744 0.67324227
v -1.63222844 2.07046209 0.70399089
v -1.63222844 2.14083288 0.77487843
v -1.69691057 2.14884959 1.04152603
v -1.69691057 2.14883371 1.04944335
v -1.69691057 2.14923095 0.84156795
v -1.69691057 2.14948519 0.67489938
v -1.69691057 2.14943754 0.70822575
v -1.66117925 2.14587014 0.67324227
v -1.67921219 2.14884959 0.67324227
v -1.68024932 2.14892905 0.67324227
v -1.69691057 2.14948519 0.67324227
v -1.74542218 2.10585009 1.04944335
v -1.74557835 2.10585009 1.02484444
v -1.74596864 2.10585009 0.80824160
v -1.74212113 2.09353501 0.79156001
v -1.74211004 2.09350321 0.77487843
v -1.74209884 2.09350321 0.75823366
v -1.72702124 2.06881744 0.67324227
v -1.63467070 2.07410895 0.67324227
v -1.63422462 2.07558677 0.67324227
v -1.63222844 2.08224487 0.67324227
v -1.63222844 2.13988739 0.75823366
v -1.71357182 2.14972355 0.84156795
v -1.71357182 2.14929452 1.04944335
v -1.71357182 2.14993807 0.70822575
v -1.71357182 2.14998576 0.67324227
v -1.64691574 2.13824274 0.67324227
v -1.74488693 2.12251121 1.04944335
v -1.74555606 2.12251121 1.02484444
v -1.74562293 2.12251121 1.00819969
v -1.74612481 2.12251121 0.82488637
v -1.74614710 2.12251121 0.80824160
v -1.74595744 2.10585009 0.79156001
v -1.74208775 2.09351912 0.74155209
v -1.74208775 2.09359858 0.70822575
v -1.74205425 2.09359062 0.69154415
v -1.74202075 2.09359062 0.67324227
v -1.63222844 2.11825257 0.67324227
v -1.63222844 2.13023395 0.71625352
v -1.63319863 2.12251121 0.67324227
v -1.63365586 2.12340106 0.67324227
v -1.63786023 2.13155287 0.67324227
v -1.72665318 2.14852382 1.04152603
v -1.72657516 2.14851589 1.04944335
v -1.71969428 2.14892905 1.04944335
v -1.72542644 2.14897670 0.67324227
v -1.72706582 2.14882575 0.72490732
v -1.72677591 2.14860327 0.95819175
v -1.72668668 2.14853974 1.02484444
v -1.74322526 2.12949506 1.04944335
v -1.74136283 2.13731314 1.04944335
v -1.74188700 2.13760711 1.02484444
v -1.74204305 2.13760711 1.00819969
v -1.74231079 2.13758327 0.84156795
v -1.74231079 2.13757534 0.82488637
v -1.74228838 2.13762299 0.77487843
v -1.74613589 2.12251121 0.79156001
v -1.74579018 2.10585009 0.72490732
v -1.74561173 2.10585009 0.67324227
v -1.74574560 2.10585009 0.70822575
v -1.72712161 2.14860327 0.92486540
v -1.72721078 2.14861123 0.90818382
v -1.73555258 2.14623561 0.90818382
v -1.73502842 2.14593368 1.02484444
v -1.73095792 2.14703807 1.04944335
v -1.72670897 2.14886548 0.67324227
v -1.72670897 2.14886548 0.67489938
v -1.73798370 2.14169888 1.04944335
v -1.73490575 2.14564766 1.04944335
v -1.73498383 2.14571123 1.04152603
v -1.74206534 2.13786136 0.92486540
v -1.74205425 2.13790904 0.90818382
v -1.74221042 2.13765479 0.74155209
v -1.74218813 2.13763888 0.72490732
v -1.74211004 2.13734491 0.67324227
v -1.74246684 2.13589093 0.67324227
v -1.74608010 2.12251121 0.77487843
v -1.74570101 2.12251121 0.67324227
v -1.73539642 2.14597344 0.72490732
v -1.72752306 2.14855562 0.67324227
v -1.74141862 2.13816329 0.67324227
v -1.73503956 2.14567946 0.67324227
f 1 2 5
f 1 5 9
f 1 9 15
f 1 15 28
f 1 28 48
f 1 48 69
f 1 69 68
f 1 68 89
f 1 89 93
f 1 93 92
f 1 92 75
f 1 75 74
f 1 74 52
f 1 52 36
f 1 36 19
f 1 19 12
f 1 12 6
f 1 6 3
f 1 3 7
f 1 7 13
f 1 13 25
f 1 25 45
f 1 45 62
f 1 62 63
f 1 63 46
f 1 46 26
f 1 26 14
f 1 14 8
f 1 8 4
f 1 4 2
f 2 4 5
f 3 6 7
f 4 8 5
f 5 8 10
f 5 10 11
f 5 11 9
f 6 12 23
f 6 23 42
f 6 42 24
f 6 24 13
f 6 13 7
f 8 14 10
f 9 11 16
f 9 16 15
f 10 17 18
f 10 18 11
f 10 14 17
f 11 18 16
f 12 19 20
f 12 20 21
f 12 21 22
f 12 22 23
f 13 24 25
f 14 26 17
f 15 27 28
f 15 16 29
f 15 29 27
f 16 18 30
f 16 30 31
f 16 31 29
f 17 32 51
f 17 51 66
f 17 66 65
f 17 65 64
f 17 64 62
f 17 62 45
f 17 45 44
f 17 44 43
f 17 43 24
f 17 24 42
f 17 42 61
f 17 61 83
f 17 83 102
f 17 102 100
f 17 100 99
f 17 99 105
f 17 105 106
f 17 106 104
f 17 104 90
f 17 90 70
f 17 70 50
f 17 50 35
f 17 35 34
f 17 34 33
f 17 33 18
f 17 26 32
f 18 33 34
f 18 34 35
f 18 35 30
f 19 36 37
f 19 37 38
f 19 38 20
f 20 38 21
f 21 38 22
f 22 38 39
f 22 39 40
f 22 40 23
f 23 40 41
f 23 41 42
f 24 43 25
f 25 43 44
f 25 44 45
f 26 46 32
f 27 29 47
f 27 47 28
f 28 47 48
f 29 31 49
f 29 49 47
f 30 35 50
f 30 50 49
f 30 49 31
f 32 46 51
f 36 52 53
f 36 53 37
f 37 53 54
f 37 54 55
f 37 55 38
f 38 55 56
f 38 56 81
f 38 81 57
f 38 57 40
f 38 40 39
f 40 57 41
f 41 58 42
f 41 57 59
f 41 59 58
f 42 59 60
f 42 60 61
f 42 58 59
f 46 63 64
f 46 64 65
f 46 65 66
f 46 66 51
f 47 49 67
f 47 67 68
f 47 68 69
f 47 69 48
f 49 50 67
f 50 70 71
f 50 71 72
f 50 72 73
f 50 73 67
f 52 74 53
f 53 74 75
f 53 75 76
f 53 76 77
f 53 77 54
f 54 77 55
f 55 77 78
f 55 78 56
f 56 78 79
f 56 79 80
f 56 80 81
f 57 81 82
f 57 82 61
f 57 61 59
f 59 61 60
f 61 82 84
f 61 84 83
f 62 64 63
f 67 73 85
f 67 85 86
f 67 86 87
f 67 87 88
f 67 88 68
f 68 88 89
f 70 90 91
f 70 91 71
f 71 91 90
f 71 90 87
f 71 87 86
f 71 86 85
f 71 85 72
f 72 85 73
f 75 92 76
f 76 92 93
f 76 93 94
f 76 94 88
f 76 88 77
f 77 88 87
f 77 87 95
f 77 95 78
f 78 80 79
f 78 95 96
f 78 96 80
f 80 97 98
f 80 98 81
f 80 96 87
f 80 87 97
f 81 98 99
f 81 99 100
f 81 100 101
f 81 101 84
f 81 84 82
f 83 84 102
f 84 101 102
f 87 96 95
f 87 90 103
f 87 103 97
f 88 94 93
f 88 93 89
f 90 104 103
f 97 103 98
f 98 103 99
f 99 103 105
f 100 102 101
f 103 104 106
f 103 106 105

