# https://github.com/mikedh/trimesh
v -3.1488592950000003 -0.60895688 1.42581692
v -3.1511881749999997 -0.60896716 1.42581692
v -3.0895504449999995 -0.61017895 1.42581692
v -3.0895504449999995 -0.6356472900000001 1.40022689
v -3.682406295 -0.63518517 1.39972733
v -3.882612515 -0.6354727 1.40003526
v -3.882457265 -0.61503642 1.42581692
v -3.0895504449999995 -0.6244022 1.42581692
v -3.0895504449999995 -0.64469471 1.39659658
v -3.882534915 -0.64469471 1.39552563
v -3.882612515 -0.64469471 1.39552563
v -3.882612515 -0.62539834 1.4223132
v -3.882612515 -0.6255626599999999 1.42581692
v -3.3065246349999997 -0.71379812 1.42581692
v -3.0895504449999995 -0.71374677 1.42581349
v -3.0895504449999995 -0.66138264 1.39327423
v -3.882534915 -0.66137237 1.39176187
v -3.882612515 -0.66137237 1.39176187
v -3.882612515 -0.71362354 1.42581692
v -3.332297615 -0.71384946 1.42581692
v -3.349065545 -0.7138700099999999 1.42581692
v -3.0895504449999995 -0.71362354 1.41863157
v -3.0895504449999995 -0.67801922 1.39238802
v -3.882612515 -0.67800894 1.39116653
v -3.3993694249999997 -0.71384946 1.42581692
v -3.882612515 -0.71343868 1.40937962
v -3.415749235 -0.7135208399999999 1.40940357
v -3.332297615 -0.7135208399999999 1.40940357
v -3.0895504449999995 -0.7134489500000001 1.409407
v -3.0895504449999995 -0.69469687 1.39188506
v -3.098788345 -0.69469687 1.39185769
v -3.882612515 -0.6947071300000001 1.3908654
v -3.882612515 -0.7081499 1.395967
v -3.098788345 -0.7080882900000001 1.39636732
v -3.0895504449999995 -0.71105616 1.40358687
v -3.0895504449999995 -0.7080882900000001 1.39640155
f 1 2 7
f 1 7 13
f 1 13 19
f 1 19 25
f 1 25 21
f 1 21 20
f 1 20 14
f 1 14 8
f 1 8 3
f 1 3 4
f 1 4 5
f 1 5 6
f 1 6 2
f 2 6 7
f 3 8 15
f 3 15 22
f 3 22 29
f 3 29 35
f 3 35 36
f 3 36 30
f 3 30 23
f 3 23 16
f 3 16 9
f 3 9 4
f 4 9 10
f 4 10 5
f 5 10 11
f 5 11 6
f 6 11 18
f 6 18 24
f 6 24 32
f 6 32 33
f 6 33 26
f 6 26 19
f 6 19 13
f 6 13 12
f 6 12 7
f 7 12 13
f 8 14 15
f 9 16 17
f 9 17 10
f 10 17 18
f 10 18 11
f 14 20 15
f 15 20 21
f 15 21 22
f 16 23 17
f 17 24 18
f 17 23 24
f 19 26 25
f 21 25 26
f 21 26 27
f 21 27 28
f 21 28 29
f 21 29 22
f 23 30 31
f 23 31 24
f 24 31 32
f 26 33 27
f 27 33 28
f 28 34 35
f 28 35 29
f 28 33 34
f 30 36 34
f 30 34 31
f 31 34 32
f 32 34 33
f 34 36 35

