# https://github.com/mikedh/trimesh
v 0.40592583 1.50569501 0.80548387
v 0.40592583 1.49544871 0.80722224
v 0.40592583 1.52223123 0.80710514
v 0.69232105 1.52236280 0.80871742
v 0.70898748 1.52236280 0.80881649
v 0.72565391 1.52236280 0.80892459
v 0.77446263 1.52236280 0.80930287
v 0.77446263 1.50689685 0.80842018
v 0.77446263 1.50569501 0.80835713
v 0.77446263 1.49386965 0.80974422
v 0.77446263 1.49294854 0.80985231
v 0.40592583 1.49165895 0.80792480
v 0.40592583 1.53771473 0.81005947
v 0.65898826 1.53657430 0.81036572
v 0.67565463 1.53637254 0.81037472
v 0.69232105 1.53619709 0.81040175
v 0.70898748 1.53589004 0.81044678
v 0.72565391 1.53548651 0.81049182
v 0.77446263 1.53436364 0.81080707
v 0.77446263 1.48647441 0.81946288
v 0.40592583 1.48613228 0.81655360
v 0.77446263 1.48597438 0.82021047
v 0.40592583 1.54567142 0.81305883
v 0.42569465 1.54596092 0.81295075
v 0.44236101 1.54606618 0.81296877
v 0.64232183 1.54498715 0.81380643
v 0.65898826 1.54490820 0.81396855
v 0.69232105 1.54453099 0.81421174
v 0.77446263 1.54269754 0.81515750
v 0.40592583 1.48471111 0.82021047
v 0.77446263 1.48367595 0.83567565
v 0.40592583 1.54782946 0.81456302
v 0.40592583 1.57248026 0.83540544
v 0.77446263 1.57248026 0.83587381
v 0.40592583 1.48317592 0.83240609
v 0.77446263 1.48350929 0.83687359
v 0.40592583 1.57248026 0.89481624
v 0.77446263 1.57248026 0.89749135
v 0.40592583 1.48286890 0.83687359
v 0.77446263 1.48387774 0.85232977
v 0.40592583 1.48320224 0.85353673
v 0.40592583 1.52273125 0.89666270
v 0.44236101 1.57248026 0.89557284
v 0.77446263 1.55568965 0.89741028
v 0.74232027 1.57248026 0.89738327
v 0.77446263 1.48391282 0.85353673
v 0.40592583 1.48481640 0.87019985
v 0.77446263 1.48491291 0.86900190
v 0.77446263 1.48499185 0.87019985
v 0.49236029 1.57248026 0.89620334
v 0.47569387 1.57248026 0.89610426
v 0.45913568 1.57248026 0.89588809
v 0.40592583 1.51024794 0.89572596
v 0.47569387 1.49705408 0.89541071
v 0.49236029 1.50569501 0.89605922
v 0.52569309 1.50569501 0.89616731
v 0.77446263 1.50569501 0.89659064
v 0.77446263 1.52236280 0.89705000
v 0.77446263 1.53902184 0.89724816
v 0.77446263 1.55448780 0.89740128
v 0.40592583 1.49130806 0.88638560
v 0.77446263 1.49036063 0.88566503
v 0.77446263 1.49078172 0.88686298
v 0.40592583 1.50264218 0.89448298
v 0.46425827 1.49723829 0.89528462
v 0.49236029 1.49692247 0.89549177
v 0.77446263 1.49658034 0.89571695
v 0.52569309 1.49685232 0.89553681
f 1 2 12
f 1 12 21
f 1 21 30
f 1 30 35
f 1 35 39
f 1 39 41
f 1 41 47
f 1 47 61
f 1 61 64
f 1 64 53
f 1 53 42
f 1 42 37
f 1 37 33
f 1 33 32
f 1 32 23
f 1 23 13
f 1 13 3
f 1 3 4
f 1 4 5
f 1 5 6
f 1 6 7
f 1 7 8
f 1 8 9
f 1 9 10
f 1 10 11
f 1 11 2
f 2 11 12
f 3 13 14
f 3 14 15
f 3 15 16
f 3 16 17
f 3 17 4
f 4 17 18
f 4 18 5
f 5 18 6
f 6 18 7
f 7 19 29
f 7 29 34
f 7 34 38
f 7 38 44
f 7 44 60
f 7 60 59
f 7 59 58
f 7 58 57
f 7 57 67
f 7 67 63
f 7 63 62
f 7 62 49
f 7 49 48
f 7 48 46
f 7 46 40
f 7 40 36
f 7 36 31
f 7 31 22
f 7 22 20
f 7 20 11
f 7 11 10
f 7 10 9
f 7 9 8
f 7 18 19
f 11 20 12
f 12 20 22
f 12 22 21
f 13 23 24
f 13 24 25
f 13 25 14
f 14 25 15
f 15 25 16
f 16 25 26
f 16 26 17
f 17 26 27
f 17 27 28
f 17 28 18
f 18 28 19
f 19 28 29
f 21 22 30
f 22 31 30
f 23 32 24
f 24 32 25
f 25 32 33
f 25 33 34
f 25 34 26
f 26 34 27
f 27 34 28
f 28 34 29
f 30 31 36
f 30 36 35
f 33 37 43
f 33 43 52
f 33 52 51
f 33 51 50
f 33 50 45
f 33 45 38
f 33 38 34
f 35 36 39
f 36 40 41
f 36 41 39
f 37 42 43
f 38 42 44
f 38 45 42
f 40 46 41
f 41 46 48
f 41 48 49
f 41 49 47
f 42 50 51
f 42 51 52
f 42 52 43
f 42 53 54
f 42 54 55
f 42 55 56
f 42 56 57
f 42 57 58
f 42 58 59
f 42 59 60
f 42 60 44
f 42 45 50
f 47 49 62
f 47 62 63
f 47 63 61
f 53 64 65
f 53 65 54
f 54 66 55
f 54 65 61
f 54 61 66
f 55 66 56
f 56 66 57
f 57 66 68
f 57 68 67
f 61 68 66
f 61 65 64
f 61 63 68
f 63 67 68

