# https://github.com/mikedh/trimesh
v -1.83137878 1.46669082 0.20360789
v -1.84803311 1.46682022 0.20360789
v -1.81471700 1.47245821 0.20360789
v -1.83137878 1.46711598 0.28688107
v -1.86469488 1.46797555 0.20360789
v -1.84803311 1.46725462 0.28688107
v -1.80586123 1.47949185 0.20360789
v -1.80586862 1.47951960 0.22020940
v -1.80614960 1.48025900 0.42017606
v -1.81471700 1.47255066 0.22020940
v -1.83137878 1.46720840 0.30353086
v -1.84803311 1.46735631 0.30353086
v -1.86469488 1.46844694 0.27020707
v -1.87735012 1.47514783 0.27020707
v -1.87735012 1.47508313 0.25355727
v -1.87732795 1.47498147 0.22020940
v -1.87732056 1.47494449 0.20360789
v -1.80545472 1.48899330 0.20360789
v -1.80612004 1.48020354 0.40352626
v -1.80620873 1.48039764 0.45045498
v -1.81471700 1.47317917 0.30353086
v -1.81471700 1.47333628 0.32020480
v -1.81470961 1.47452857 0.42017606
v -1.83137878 1.46741174 0.32020480
v -1.86469488 1.46878889 0.30353086
v -1.86469488 1.46859482 0.28688107
v -1.84803311 1.46757810 0.32020480
v -1.87681052 1.47632164 0.45045498
v -1.87733534 1.47525876 0.28688107
v -1.88097227 1.48903025 0.25355727
v -1.88097227 1.48903025 0.23688334
v -1.88092053 1.48903025 0.20360789
v -1.80572080 1.50562080 0.20360789
v -1.80549168 1.48903025 0.22020940
v -1.80620873 1.48785645 0.45045498
v -1.80776848 1.47937172 0.45045498
v -1.81470961 1.47474115 0.43685000
v -1.83137878 1.46769827 0.33685460
v -1.84803311 1.46955604 0.43685000
v -1.81470961 1.47491677 0.45045498
v -1.86469488 1.46901998 0.32020480
v -1.86469488 1.47095169 0.45045498
v -1.86469488 1.47072984 0.43685000
v -1.87950121 1.48670112 0.45045498
v -1.87729099 1.47539740 0.30353086
v -1.88081705 1.48903025 0.30353086
v -1.87868814 1.50570398 0.20360789
v -1.87812630 1.50570398 0.45045498
v -1.87816326 1.50570398 0.43685000
v -1.80612004 1.51975279 0.20360789
v -1.80637872 1.51420719 0.31329359
v -1.80636394 1.49467751 0.45045498
v -1.81776253 1.47396479 0.45045498
v -1.83137878 1.46948210 0.43685000
v -1.83442430 1.46976862 0.45045498
v -1.84803311 1.46985180 0.45045498
v -1.88007783 1.48903025 0.45045498
v -1.86704559 1.55565116 0.20360789
v -1.86825051 1.56110432 0.45045498
v -1.80658573 1.52814507 0.20360789
v -1.80659312 1.52754431 0.22020940
v -1.80676312 1.52303390 0.30353086
v -1.80673355 1.52079719 0.31938320
v -1.80673355 1.50570398 0.45045498
v -1.80640829 1.49619330 0.45045498
v -1.83137878 1.46975938 0.45045498
v -1.82809668 1.55565116 0.20360789
v -1.86607718 1.56110432 0.37950611
v -1.82601211 1.56110432 0.45045498
v -1.82791191 1.55560494 0.20360789
v -1.80792369 1.52234996 0.45045498
v -1.80695534 1.52234996 0.33685460
v -1.82842195 1.56110432 0.37950611
f 1 2 5
f 1 5 17
f 1 17 32
f 1 32 47
f 1 47 58
f 1 58 67
f 1 67 70
f 1 70 60
f 1 60 50
f 1 50 33
f 1 33 18
f 1 18 7
f 1 7 3
f 1 3 4
f 1 4 2
f 2 4 6
f 2 6 5
f 3 7 8
f 3 8 9
f 3 9 10
f 3 10 11
f 3 11 4
f 4 11 6
f 5 6 12
f 5 12 13
f 5 13 14
f 5 14 15
f 5 15 16
f 5 16 17
f 6 11 12
f 7 18 8
f 8 18 19
f 8 19 9
f 9 20 10
f 9 19 18
f 9 18 20
f 10 21 11
f 10 20 21
f 11 21 22
f 11 22 23
f 11 23 24
f 11 24 12
f 12 25 26
f 12 26 13
f 12 24 27
f 12 27 25
f 13 26 28
f 13 28 29
f 13 29 14
f 14 29 30
f 14 30 15
f 15 30 17
f 15 17 16
f 17 30 31
f 17 31 32
f 18 33 34
f 18 34 20
f 20 35 52
f 20 52 65
f 20 65 64
f 20 64 71
f 20 71 69
f 20 69 59
f 20 59 48
f 20 48 57
f 20 57 44
f 20 44 28
f 20 28 42
f 20 42 56
f 20 56 55
f 20 55 66
f 20 66 53
f 20 53 40
f 20 40 36
f 20 36 22
f 20 22 21
f 20 34 35
f 22 36 23
f 23 36 37
f 23 37 24
f 24 38 39
f 24 39 27
f 24 37 40
f 24 40 38
f 25 27 41
f 25 41 28
f 25 28 26
f 27 39 42
f 27 42 43
f 27 43 41
f 28 43 42
f 28 44 45
f 28 45 29
f 28 41 43
f 29 45 46
f 29 46 30
f 30 47 31
f 30 46 48
f 30 48 49
f 30 49 47
f 31 47 32
f 33 50 51
f 33 51 52
f 33 52 35
f 33 35 34
f 36 40 37
f 38 40 53
f 38 53 54
f 38 54 39
f 39 54 55
f 39 55 56
f 39 56 42
f 44 57 46
f 44 46 45
f 46 57 48
f 47 49 59
f 47 59 58
f 48 59 49
f 50 60 61
f 50 61 62
f 50 62 51
f 51 62 63
f 51 63 64
f 51 64 65
f 51 65 52
f 53 66 54
f 54 66 55
f 58 59 68
f 58 68 73
f 58 73 67
f 59 69 73
f 59 73 68
f 60 70 69
f 60 69 71
f 60 71 61
f 61 72 62
f 61 71 72
f 62 72 63
f 63 72 64
f 64 72 71
f 67 73 70
f 69 70 73

