# https://github.com/mikedh/trimesh
v -2.231588285 -0.2844463 1.67214405
v -2.231588285 -0.29762542000000003 1.68209693
v -2.2951015349999997 -0.29762542000000003 1.68577173
v -2.278322335 -0.24443362000000002 1.67694374
v -2.2762137749999996 -0.2277691 1.67694374
v -2.2701112749999997 -0.21191651 1.67694374
v -2.261297725 -0.20044048 1.67694374
v -2.248233585 -0.19772742 1.67694374
v -2.231588285 -0.1970442 1.67694374
v -2.214920685 -0.19652932 1.67694374
v -2.1982419249999996 -0.19662832000000002 1.67694374
v -2.187130155 -0.19971765000000002 1.67694374
v -2.186639245 -0.19985629 1.67694374
v -2.182355205 -0.21109468 1.67694374
v -2.182299445 -0.21179771 1.67694374
v -2.181339995 -0.2277691 1.67694374
v -2.181339995 -0.22848203 1.67694374
v -2.181384605 -0.24513664000000002 1.67694374
v -2.1815184949999997 -0.26109815000000003 1.67694374
v -2.1857690749999996 -0.27461394 1.67694374
v -2.1982419249999996 -0.2809015 1.67694374
v -2.2165160349999997 -0.29762542000000003 1.69168559
v -2.2951015349999997 -0.29762542000000003 1.76995893
v -2.2951015349999997 -0.26134569 1.68542885
v -2.2951015349999997 -0.24444354000000001 1.68565388
v -2.2951015349999997 -0.22940289 1.69330336
v -2.261342335 -0.20038107 1.69292839
v -2.2951015349999997 -0.22490753000000002 1.70522757
v -2.2951015349999997 -0.22358070000000002 1.70962009
v -2.248233585 -0.19766802 1.69292839
v -2.231588285 -0.1970343 1.69292839
v -2.214920685 -0.19647982 1.70960942
v -2.1982419249999996 -0.19655902 1.70960942
v -2.1982419249999996 -0.19653922000000001 1.72629044
v -2.186605785 -0.19981669000000002 1.72629044
v -2.186605785 -0.19983649 1.70960942
v -2.182321745 -0.21109468 1.69292839
v -2.181261925 -0.2277691 1.72629044
v -2.1812842249999997 -0.2277691 1.70960942
v -2.181139185 -0.24443362000000002 1.72629044
v -2.1811614849999996 -0.26109815000000003 1.72629044
v -2.1812507649999997 -0.26109815000000003 1.70960942
v -2.1856017249999997 -0.27479216 1.70960942
v -2.185691005 -0.27471296 1.69292839
v -2.2110494249999997 -0.29762542000000003 1.70960942
v -2.215813215 -0.29762542000000003 1.69362477
v -2.264053335 -0.25957329 1.78159388
v -2.277351735 -0.24282955 1.78159388
v -2.2951015349999997 -0.25791972 1.77184455
v -2.2347455849999998 -0.29762542000000003 1.77380514
v -2.231588285 -0.28336702 1.78159388
v -2.2447304949999998 -0.27860431 1.78159388
v -2.247307655 -0.27731709 1.78159388
v -2.2610969049999996 -0.20086626000000002 1.78159388
v -2.248233585 -0.19776702000000002 1.70960942
v -2.2951015349999997 -0.2236302 1.72191927
v -2.269341485 -0.20606462 1.74293932
v -2.231588285 -0.19722244 1.74293932
v -2.231588285 -0.19713331 1.72629044
v -2.231588285 -0.19706400000000002 1.70960942
v -2.214920685 -0.19648972 1.72629044
v -2.1982419249999996 -0.19657882 1.74293932
v -2.186605785 -0.19981669000000002 1.74293932
v -2.182288285 -0.21109468 1.72629044
v -2.1812507649999997 -0.2277691 1.74293932
v -2.181139185 -0.24443362000000002 1.74293932
v -2.1811280249999996 -0.26109815000000003 1.74293932
v -2.185579415 -0.27480207 1.72629044
v -2.210870915 -0.29762542000000003 1.7262797
v -2.2951015349999997 -0.24415638 1.77212307
v -2.274875015 -0.22585809 1.78159388
v -2.231588285 -0.29762542000000003 1.77385869
v -2.231476755 -0.28337692000000003 1.78159388
v -2.2951015349999997 -0.22380844 1.74293932
v -2.2951015349999997 -0.22688786 1.75962034
v -2.2951015349999997 -0.23297739 1.77064462
v -2.2676122449999996 -0.20826279 1.78159388
v -2.2523280249999997 -0.19918297000000001 1.78159388
v -2.248233585 -0.19842054 1.78159388
v -2.236876445 -0.19777692000000002 1.78159388
v -2.231588285 -0.19749968 1.78159388
v -2.231588285 -0.19733134000000002 1.75962034
v -2.2951015349999997 -0.22365000000000002 1.72629044
v -2.214920685 -0.19656892 1.74293932
v -2.1982419249999996 -0.19667785 1.75962034
v -2.186728525 -0.19995529 1.78159388
v -2.186661605 -0.19986619 1.75962034
v -2.182355205 -0.21109468 1.75962034
v -2.182288285 -0.21109468 1.74293932
v -2.181273075 -0.2277691 1.75962034
v -2.1811614849999996 -0.24443362000000002 1.75962034
v -2.181206095 -0.24443362000000002 1.77629069
v -2.181183795 -0.26109815000000003 1.75962034
v -2.185579415 -0.27473276 1.75962034
v -2.185557115 -0.27477236 1.74293932
v -2.210893225 -0.29762542000000003 1.72941881
v -2.185657485 -0.27469315 1.78159388
v -2.269743115 -0.21103528 1.78159388
v -2.2196844749999998 -0.29762542000000003 1.77086959
v -2.1982419249999996 -0.28098072 1.78159388
v -2.2095321549999998 -0.28280262 1.78159388
v -2.214563675 -0.28306997 1.78159388
v -2.214920685 -0.19683625999999999 1.78159388
v -2.214920685 -0.19667785 1.75962034
v -2.1982419249999996 -0.19683625999999999 1.78159388
v -2.185378605 -0.20348031 1.78159388
v -2.1824779449999996 -0.21109468 1.78159388
v -2.1821097849999997 -0.21638219 1.78159388
v -2.181328835 -0.2277691 1.78159388
v -2.181239615 -0.24443362000000002 1.78159388
v -2.181295385 -0.26109815000000003 1.78159388
v -2.211127495 -0.29762542000000003 1.74293932
v -2.194270235 -0.27901028 1.78159388
v -2.2136823549999995 -0.29762542000000003 1.75962034
f 1 2 3
f 1 3 4
f 1 4 5
f 1 5 6
f 1 6 7
f 1 7 8
f 1 8 9
f 1 9 10
f 1 10 11
f 1 11 12
f 1 12 13
f 1 13 14
f 1 14 15
f 1 15 16
f 1 16 17
f 1 17 18
f 1 18 19
f 1 19 20
f 1 20 21
f 1 21 2
f 2 22 46
f 2 46 45
f 2 45 69
f 2 69 96
f 2 96 112
f 2 112 114
f 2 114 99
f 2 99 72
f 2 72 50
f 2 50 23
f 2 23 3
f 2 21 22
f 3 23 49
f 3 49 70
f 3 70 76
f 3 76 75
f 3 75 74
f 3 74 83
f 3 83 56
f 3 56 29
f 3 29 28
f 3 28 26
f 3 26 25
f 3 25 24
f 3 24 4
f 4 24 25
f 4 25 5
f 5 25 6
f 6 25 26
f 6 26 7
f 7 27 8
f 7 26 28
f 7 28 29
f 7 29 27
f 8 27 30
f 8 30 9
f 9 30 31
f 9 31 32
f 9 32 10
f 10 32 33
f 10 33 11
f 11 33 12
f 12 33 34
f 12 34 35
f 12 35 13
f 13 35 36
f 13 36 37
f 13 37 14
f 14 37 15
f 15 37 38
f 15 38 39
f 15 39 16
f 16 39 40
f 16 40 17
f 17 40 41
f 17 41 42
f 17 42 18
f 18 42 19
f 19 42 20
f 20 42 43
f 20 43 44
f 20 44 45
f 20 45 46
f 20 46 22
f 20 22 21
f 23 47 48
f 23 48 49
f 23 50 51
f 23 51 52
f 23 52 53
f 23 53 47
f 27 54 55
f 27 55 30
f 27 29 56
f 27 56 57
f 27 57 54
f 30 55 58
f 30 58 59
f 30 59 60
f 30 60 31
f 31 60 61
f 31 61 32
f 32 61 34
f 32 34 33
f 34 62 63
f 34 63 35
f 34 61 62
f 35 63 89
f 35 89 64
f 35 64 36
f 36 64 37
f 37 64 38
f 38 65 40
f 38 40 39
f 38 64 65
f 40 65 66
f 40 66 67
f 40 67 41
f 41 67 43
f 41 43 42
f 43 67 68
f 43 68 69
f 43 69 44
f 44 69 45
f 47 53 52
f 47 52 51
f 47 51 73
f 47 73 102
f 47 102 101
f 47 101 100
f 47 100 113
f 47 113 97
f 47 97 111
f 47 111 110
f 47 110 109
f 47 109 108
f 47 108 107
f 47 107 106
f 47 106 86
f 47 86 105
f 47 105 103
f 47 103 81
f 47 81 80
f 47 80 79
f 47 79 78
f 47 78 54
f 47 54 77
f 47 77 98
f 47 98 71
f 47 71 48
f 48 70 49
f 48 71 70
f 50 72 73
f 50 73 51
f 54 57 74
f 54 74 75
f 54 75 76
f 54 76 77
f 54 78 55
f 55 78 79
f 55 79 80
f 55 80 81
f 55 81 82
f 55 82 58
f 56 83 57
f 57 83 74
f 58 82 104
f 58 104 84
f 58 84 59
f 59 84 61
f 59 61 60
f 61 84 62
f 62 85 86
f 62 86 87
f 62 87 63
f 62 84 85
f 63 88 89
f 63 87 88
f 64 89 65
f 65 90 91
f 65 91 66
f 65 89 90
f 66 91 67
f 67 91 92
f 67 92 93
f 67 93 94
f 67 94 95
f 67 95 68
f 68 95 69
f 69 95 94
f 69 94 97
f 69 97 96
f 70 71 76
f 71 98 76
f 72 99 100
f 72 100 101
f 72 101 102
f 72 102 73
f 76 98 77
f 81 103 82
f 82 103 104
f 84 104 85
f 85 105 86
f 85 104 103
f 85 103 105
f 86 106 88
f 86 88 87
f 88 106 107
f 88 107 108
f 88 108 109
f 88 109 89
f 89 109 90
f 90 109 91
f 91 109 92
f 92 110 111
f 92 111 93
f 92 109 110
f 93 111 97
f 93 97 94
f 96 97 112
f 97 113 99
f 97 99 114
f 97 114 112
f 99 113 100

