# https://github.com/mikedh/trimesh
v -2.07843185 -0.24443938 0.73782793
v -2.00658707 -0.2611197 0.73158181
v -2.00658707 -0.24443938 0.73079303
v -2.00658707 -0.23272701 0.72321697
v -2.07843185 -0.22842144 0.72623455
v -2.07843185 -0.29717008 0.72755531
v -2.0684798 -0.32782093 0.72691327
v -2.0065800400000002 -0.32783097 0.72651889
v -2.0065800400000002 -0.29717008 0.72719761
v -2.00658707 -0.23130187000000002 0.71746614
v -2.07843185 -0.22829098 0.72571177
v -2.07843185 -0.29717008 0.65152884
v -2.0684798 -0.32783097 0.69459125
v -2.06333848 -0.32783097 0.72679405
v -2.0065800400000002 -0.32783097 0.67998947
v -2.0065800400000002 -0.29717008 0.65153799
v -2.00658707 -0.22883294 0.67563279
v -2.00658707 -0.22895337 0.69229825
v -2.00658707 -0.22909387 0.70224067
v -2.00658707 -0.22921432 0.70897289
v -2.07843185 -0.22532023 0.70897289
v -2.07843185 -0.29112823 0.64960272
v -2.02999379 -0.29146947 0.64956604
v -2.03000083 -0.29717008 0.65143711
v -2.03000083 -0.29980962 0.65230844
v -2.04666259 -0.29968919 0.65239101
v -2.0684798 -0.29931785 0.6524919
v -2.0684798 -0.32783097 0.67792576
v -2.0065800400000002 -0.29952861000000003 0.65230844
v -2.00658707 -0.29118846 0.6495752
v -2.00658707 -0.28311927 0.6487956
v -2.00658707 -0.27777995 0.64828196
v -2.00658707 -0.2611197 0.64777749
v -2.00658707 -0.24443938 0.64812603
v -2.00658707 -0.23495508 0.64967608
v -2.00658707 -0.23131190000000001 0.65895812
v -2.07843185 -0.22740778 0.65895812
v -2.07843185 -0.22605288 0.67563279
v -2.07843185 -0.22530016 0.70738616
v -2.07843185 -0.24603515 0.64412705
v -2.0133179 -0.29131892 0.64954767
v -2.01332493 -0.29717008 0.65146463
v -2.0183888999999997 -0.29717008 0.65145545
v -2.01332493 -0.29965909 0.65228095
v -2.07843185 -0.24443938 0.64415458
v -2.07843185 -0.23243596 0.64711711
v -2.07843185 -0.22774902 0.65806845
f 1 2 3
f 1 3 4
f 1 4 5
f 1 5 11
f 1 11 21
f 1 21 39
f 1 39 38
f 1 38 37
f 1 37 47
f 1 47 46
f 1 46 45
f 1 45 40
f 1 40 22
f 1 22 12
f 1 12 6
f 1 6 7
f 1 7 8
f 1 8 2
f 2 8 9
f 2 9 3
f 3 9 4
f 4 9 10
f 4 10 11
f 4 11 5
f 6 12 28
f 6 28 13
f 6 13 7
f 7 13 14
f 7 14 8
f 8 14 13
f 8 13 28
f 8 28 15
f 8 15 29
f 8 29 16
f 8 16 9
f 9 16 17
f 9 17 18
f 9 18 19
f 9 19 20
f 9 20 10
f 10 20 11
f 11 20 21
f 12 22 23
f 12 23 24
f 12 24 25
f 12 25 26
f 12 26 27
f 12 27 28
f 15 28 29
f 16 29 30
f 16 30 31
f 16 31 32
f 16 32 33
f 16 33 34
f 16 34 35
f 16 35 36
f 16 36 17
f 17 36 37
f 17 37 38
f 17 38 39
f 17 39 18
f 18 39 21
f 18 21 19
f 19 21 20
f 22 40 23
f 23 41 42
f 23 42 43
f 23 43 24
f 23 40 41
f 24 43 44
f 24 44 25
f 25 44 28
f 25 28 26
f 26 28 27
f 28 44 29
f 29 44 42
f 29 42 30
f 30 41 40
f 30 40 31
f 30 42 41
f 31 40 32
f 32 40 33
f 33 40 45
f 33 45 34
f 34 45 35
f 35 45 46
f 35 46 47
f 35 47 36
f 36 47 37
f 42 44 43

