# https://github.com/mikedh/trimesh
v -3.9492887749999994 -0.29447758 0.47157437
v -3.938159465 -0.29447758 0.46928349
v -3.9604252449999997 -0.29447758 0.46943009
v -3.9603323249999995 -0.63736327 0.46898105
v -3.9492959349999994 -0.63736327 0.47081377
v -3.944614025 -0.63736327 0.47032811
v -3.8992390849999996 -0.29447758 0.44226
v -3.938338205 -0.63736327 0.46898105
v -3.9671871349999996 -0.29447758 0.45881864
v -3.967230015 -0.63736327 0.45881864
v -3.8987887949999998 -0.46991449 0.43973085
v -3.8992390849999996 -0.29447758 0.44126119
v -3.8987887949999998 -0.63736327 0.44056476
v -3.9713329249999996 -0.29447758 0.4421409
v -3.9715902749999996 -0.63736327 0.4421409
v -3.8987887949999998 -0.46991449 0.3929049
v -3.8992390849999996 -0.29451113 0.38260502
v -3.8992748649999998 -0.29447758 0.38259583
v -3.8987887949999998 -0.63736327 0.3858031
v -3.9715831249999995 -0.29447758 0.42546316
v -3.971783275 -0.63736327 0.43278484
v -3.9326341749999996 -0.63736327 0.38083647
v -3.9492959349999994 -0.63736327 0.37887541
v -3.9326270149999996 -0.29447758 0.37938862
v -3.971633155 -0.29447758 0.40880372
v -3.9718118449999995 -0.63736327 0.42546316
v -3.9492887749999994 -0.29447758 0.37795908
v -3.954449595 -0.63736327 0.3795719
v -3.968273625 -0.29447758 0.39213516
v -3.971697455 -0.63736327 0.40880372
v -3.9612829449999998 -0.29447758 0.38098307
v -3.961240065 -0.63736327 0.38119384
v -3.968187855 -0.63736327 0.39212598
v -3.9641421450000003 -0.63736327 0.38569313
f 1 2 7
f 1 7 12
f 1 12 18
f 1 18 24
f 1 24 27
f 1 27 31
f 1 31 29
f 1 29 25
f 1 25 20
f 1 20 14
f 1 14 9
f 1 9 3
f 1 3 4
f 1 4 5
f 1 5 6
f 1 6 2
f 2 6 8
f 2 8 7
f 3 9 10
f 3 10 4
f 4 10 15
f 4 15 21
f 4 21 26
f 4 26 30
f 4 30 33
f 4 33 34
f 4 34 32
f 4 32 28
f 4 28 23
f 4 23 22
f 4 22 19
f 4 19 13
f 4 13 8
f 4 8 6
f 4 6 5
f 7 11 16
f 7 16 12
f 7 8 13
f 7 13 11
f 9 14 15
f 9 15 10
f 11 13 19
f 11 19 16
f 12 17 18
f 12 16 17
f 14 20 21
f 14 21 15
f 16 19 17
f 17 19 18
f 18 19 22
f 18 22 23
f 18 23 24
f 20 25 26
f 20 26 21
f 23 27 24
f 23 28 27
f 25 29 30
f 25 30 26
f 27 28 32
f 27 32 31
f 29 31 33
f 29 33 30
f 31 32 34
f 31 34 33

