# https://github.com/mikedh/trimesh
v 0.15434953 2.12888917 0.84515730
v 0.12456651 2.13442479 0.82100324
v 0.12456651 2.12480497 0.84515730
v 0.15434953 2.06853730 0.84515730
v 0.15434953 2.13904908 0.80819879
v 0.12456651 2.13898157 0.80819879
v 0.12456365 2.03977901 0.83794633
v 0.12456365 1.92251815 0.83886803
v 0.12456365 1.91067055 0.83895840
v 0.12456365 1.88920310 0.83909394
v 0.12456365 1.83921366 0.83936502
v 0.12456365 1.82253926 0.83942828
v 0.12456365 1.80586485 0.83943732
v 0.12456651 2.06965117 0.84515730
v 0.15310444 1.79502987 0.83982587
v 0.15434953 2.03977901 0.83852465
v 0.15434953 2.13972414 0.79154486
v 0.12456651 2.13982540 0.79154486
v 0.12456365 2.03977901 0.75971898
v 0.12456365 1.79499612 0.83943732
v 0.15309568 1.79499612 0.83981684
v 0.15310444 1.79499612 0.75961958
v 0.15434953 2.03977901 0.75939367
v 0.15434953 2.13972414 0.79030689
v 0.15434953 2.13942036 0.77489094
v 0.12456651 2.13948786 0.77489094
v 0.12456651 2.13931912 0.77008362
v 0.12456651 2.13888031 0.75820991
v 0.12456651 2.13756390 0.75284235
v 0.12456365 2.00102960 0.75960151
v 0.12456365 1.79499612 0.75969187
v 0.12456651 2.06782847 0.75284235
v 0.15434953 2.06681584 0.75284235
v 0.15434953 2.13894781 0.75820991
v 0.15434953 2.13877904 0.75697194
v 0.15434953 2.13786767 0.75284235
v 0.12456365 1.98435519 0.75957440
v 0.12456365 1.93919256 0.75958343
v 0.12456365 1.97247383 0.75957440
f 1 2 3
f 1 3 14
f 1 14 4
f 1 4 16
f 1 16 23
f 1 23 33
f 1 33 36
f 1 36 35
f 1 35 34
f 1 34 25
f 1 25 24
f 1 24 17
f 1 17 5
f 1 5 6
f 1 6 2
f 2 7 3
f 2 6 7
f 3 7 8
f 3 8 9
f 3 9 10
f 3 10 11
f 3 11 12
f 3 12 13
f 3 13 20
f 3 20 14
f 4 14 15
f 4 15 16
f 5 17 18
f 5 18 6
f 6 18 7
f 7 18 19
f 7 19 30
f 7 30 37
f 7 37 39
f 7 39 38
f 7 38 31
f 7 31 20
f 7 20 13
f 7 13 12
f 7 12 11
f 7 11 10
f 7 10 9
f 7 9 8
f 14 20 15
f 15 20 21
f 15 21 22
f 15 22 16
f 16 22 23
f 17 24 18
f 18 24 25
f 18 25 26
f 18 26 19
f 19 26 27
f 19 27 28
f 19 28 29
f 19 29 30
f 20 31 22
f 20 22 21
f 22 31 32
f 22 32 33
f 22 33 23
f 25 34 26
f 26 34 27
f 27 34 28
f 28 34 35
f 28 35 36
f 28 36 29
f 29 32 39
f 29 39 37
f 29 37 30
f 29 36 33
f 29 33 32
f 31 38 32
f 32 38 39

