# https://github.com/mikedh/trimesh
v -3.26463189 2.05451128 0.57603701
v -3.31007758 2.05489659 0.57650348
v -3.26472023 2.03904247 0.56896013
v -3.26463189 2.03904247 0.56868708
v -3.26463189 2.05451128 0.50039877
v -3.35486963 2.05489659 0.57634419
v -3.35486963 2.03889524 0.56876671
v -3.31007758 2.03889524 0.56888049
v -3.28138805 2.03904247 0.56900563
v -3.31007758 2.05489659 0.46182871
v -3.31007758 2.03889524 0.47054394
v -3.26472023 2.03904247 0.51126437
v -3.26463189 2.04141542 0.51091165
v -3.26463189 2.05450031 0.49812322
v -3.26472023 2.05451128 0.49810049
v -3.35486963 2.05489659 0.49588186
v -3.35486963 2.03889524 0.50993317
v -3.29197881 2.05451128 0.46998645
v -3.29743760 2.05451128 0.46571985
v -3.31471492 2.05489659 0.46026998
v -3.31460006 2.03889524 0.46912176
v -3.30039663 2.03904247 0.47358177
v -3.33374117 2.05489659 0.46782469
v -3.32730191 2.03889524 0.47404824
v -3.32065069 2.05489659 0.46118021
v -3.31471492 2.03889524 0.46908760
f 1 2 3
f 1 3 4
f 1 4 13
f 1 13 14
f 1 14 5
f 1 5 10
f 1 10 2
f 2 6 7
f 2 7 8
f 2 8 9
f 2 9 3
f 2 10 20
f 2 20 25
f 2 25 23
f 2 23 16
f 2 16 6
f 3 9 8
f 3 8 4
f 4 8 11
f 4 11 12
f 4 12 13
f 5 14 15
f 5 15 10
f 6 16 17
f 6 17 7
f 7 17 24
f 7 24 26
f 7 26 21
f 7 21 11
f 7 11 8
f 10 15 18
f 10 18 19
f 10 19 20
f 11 21 19
f 11 19 22
f 11 22 12
f 12 22 14
f 12 14 13
f 14 22 18
f 14 18 15
f 16 23 17
f 17 23 24
f 18 22 19
f 19 21 20
f 20 21 26
f 20 26 25
f 23 25 24
f 24 25 26

