# https://github.com/mikedh/trimesh
v 0.81367642 2.06346841 0.77025132
v 0.81367642 2.05451200 0.80280435
v 0.81367642 2.11237915 0.77025132
v 0.82572381 2.06342883 0.77025132
v 0.81367642 2.05451200 0.90372316
v 0.85901131 2.06332992 0.77025132
v 0.87570342 2.06330351 0.77025132
v 0.89234720 2.06329034 0.77025132
v 0.90903931 2.06329693 0.77025132
v 0.92568309 2.06330351 0.77025132
v 0.94237521 2.06331672 0.77025132
v 1.20896549 2.06358711 0.77025132
v 1.30790870 2.05451200 0.80840519
v 0.81367642 2.11704862 0.80354520
v 0.97566270 2.11836768 0.80354520
v 0.99235482 2.11849958 0.80354520
v 1.24230137 2.12003629 0.80354520
v 1.30790870 2.12037264 0.80354520
v 1.30790870 2.11486558 0.77025132
v 0.82494969 2.05451200 0.90376762
v 0.82717532 2.06354095 0.92162214
v 0.81483765 2.06359373 0.92162214
v 0.81367642 2.06360032 0.92162214
v 1.30790870 2.06388392 0.77025132
v 1.30790870 2.05451200 0.90317493
v 0.81367642 2.11788622 0.81557662
v 0.97566270 2.11968015 0.82022918
v 0.99235482 2.11981865 0.82022918
v 1.22560924 2.12146747 0.82022918
v 1.30790870 2.12188957 0.82022918
v 0.84236756 2.05451200 0.90376762
v 0.84236756 2.06351457 0.92162214
v 0.81367642 2.11101393 0.92162214
v 1.30790870 2.06388392 0.92162214
v 1.07697669 2.06364648 0.92162214
v 0.92747324 2.06352778 0.92162214
v 0.89234720 2.05451200 0.90372316
v 0.81367642 2.11819619 0.82022918
v 0.97566270 2.11860511 0.85350824
v 0.99235482 2.11875019 0.85350824
v 1.22560924 2.12063646 0.85350824
v 1.22560924 2.12111792 0.83688352
v 1.30790870 2.12155321 0.83688352
v 0.91078110 2.06352116 0.92162214
v 0.84391583 2.06351457 0.92162214
v 0.81367642 2.11704862 0.85350824
v 1.22560924 2.11379054 0.92162214
v 1.30790870 2.11427200 0.92162214
v 1.30757002 2.11427200 0.92162214
v 1.30790870 2.12107175 0.85350824
f 1 2 5
f 1 5 23
f 1 23 33
f 1 33 46
f 1 46 38
f 1 38 26
f 1 26 14
f 1 14 3
f 1 3 19
f 1 19 24
f 1 24 12
f 1 12 11
f 1 11 10
f 1 10 9
f 1 9 8
f 1 8 7
f 1 7 6
f 1 6 4
f 1 4 2
f 2 4 6
f 2 6 7
f 2 7 8
f 2 8 9
f 2 9 10
f 2 10 11
f 2 11 12
f 2 12 13
f 2 13 25
f 2 25 37
f 2 37 31
f 2 31 20
f 2 20 5
f 3 14 15
f 3 15 16
f 3 16 17
f 3 17 18
f 3 18 19
f 5 20 21
f 5 21 22
f 5 22 23
f 12 24 13
f 13 24 19
f 13 19 18
f 13 18 30
f 13 30 43
f 13 43 50
f 13 50 48
f 13 48 34
f 13 34 25
f 14 26 27
f 14 27 28
f 14 28 15
f 15 28 16
f 16 28 29
f 16 29 17
f 17 29 30
f 17 30 18
f 20 31 45
f 20 45 32
f 20 32 21
f 21 32 45
f 21 45 44
f 21 44 36
f 21 36 35
f 21 35 34
f 21 34 48
f 21 48 49
f 21 49 47
f 21 47 33
f 21 33 23
f 21 23 22
f 25 34 35
f 25 35 36
f 25 36 37
f 26 38 27
f 27 39 40
f 27 40 28
f 27 38 39
f 28 40 41
f 28 41 42
f 28 42 29
f 29 42 43
f 29 43 30
f 31 37 36
f 31 36 44
f 31 44 45
f 33 40 39
f 33 39 46
f 33 47 41
f 33 41 40
f 38 46 39
f 41 47 49
f 41 49 50
f 41 50 43
f 41 43 42
f 48 50 49

