# https://github.com/mikedh/trimesh
v 0.33899679 2.03723348 1.23645416
v 0.37238621 2.03723348 1.23645416
v 0.33527249 2.03723348 1.25175065
v 0.33557385 2.03724266 1.02048438
v 0.37603875 2.03723348 1.23686758
v 0.37519916 2.03724266 1.02048438
v 0.33512180 2.03723348 1.28507218
v 0.32234866 2.03724266 1.15356376
v 0.31844501 2.06597385 1.02048438
v 0.37452460 2.03723348 1.44283263
v 0.38302090 2.03724266 1.15575489
v 0.38302090 2.03724266 1.22446503
v 0.38302090 2.05509291 1.02048438
v 0.33511459 2.03723348 1.28684987
v 0.31466336 2.07431133 1.02048438
v 0.31472785 2.07416440 1.02048438
v 0.33507156 2.03723348 1.30173294
v 0.32230563 2.03724266 1.17022452
v 0.31371611 2.07237386 1.37019502
v 0.38149960 2.05869234 1.44283263
v 0.33494955 2.03723348 1.44283263
v 0.38302090 2.05444098 1.23641282
v 0.38302090 2.11125142 1.02048438
v 0.31084577 2.08901207 1.17022452
v 0.31156330 2.08902124 1.02048438
v 0.33493518 2.03723348 1.41839959
v 0.33493518 2.03723348 1.42017732
v 0.33494239 2.03723348 1.43783027
v 0.32231278 2.03724266 1.18510759
v 0.31370896 2.07237386 1.44283263
v 0.31083850 2.08901207 1.18688528
v 0.38149960 2.11210538 1.44283263
v 0.31655058 2.06320081 1.44283263
v 0.32239176 2.03724266 1.20354605
v 0.32234866 2.03724266 1.20176836
v 0.38302090 2.11124224 1.23641282
v 0.37318271 2.12072747 1.02048438
v 0.38302090 2.11989190 1.15356376
v 0.30972627 2.10568699 1.44283263
v 0.31007078 2.10568699 1.18688528
v 0.31084577 2.10568699 1.02048438
v 0.31092469 2.08902124 1.44283263
v 0.37331909 2.12086522 1.44283263
v 0.38302090 2.11813811 1.21764363
v 0.38302090 2.11879922 1.21297199
v 0.38302090 2.11996536 1.20354605
v 0.35898161 2.12890884 1.02048438
v 0.38302090 2.12014901 1.17022452
v 0.31314200 2.12235276 1.44283263
v 0.31393141 2.12184772 1.02048438
v 0.36818828 2.12381272 1.44283263
v 0.38302090 2.12011229 1.19618720
v 0.34661755 2.13053410 1.02048438
v 0.35898161 2.12894559 1.05359919
v 0.35898161 2.12910167 1.44283263
v 0.31718919 2.13077284 1.44283263
v 0.31719634 2.13077284 1.43683808
v 0.31722507 2.13075449 1.42017732
v 0.31315642 2.12235276 1.43683808
v 0.32218362 2.13017599 1.02048438
v 0.31726810 2.13072692 1.40740269
v 0.33829351 2.13085549 1.02048438
v 0.34016642 2.13095649 1.44283263
v 0.34848331 2.13058920 1.44283263
v 0.35537932 2.12962506 1.44283263
v 0.32263572 2.13094731 1.44283263
v 0.33051486 2.13085549 1.02048438
v 0.32566396 2.13103913 1.44283263
f 1 2 5
f 1 5 10
f 1 10 21
f 1 21 28
f 1 28 27
f 1 27 26
f 1 26 17
f 1 17 14
f 1 14 7
f 1 7 3
f 1 3 4
f 1 4 6
f 1 6 2
f 2 6 5
f 3 7 8
f 3 8 4
f 4 8 9
f 4 9 16
f 4 16 15
f 4 15 25
f 4 25 41
f 4 41 50
f 4 50 60
f 4 60 67
f 4 67 62
f 4 62 53
f 4 53 47
f 4 47 37
f 4 37 23
f 4 23 13
f 4 13 6
f 5 6 11
f 5 11 12
f 5 12 10
f 6 13 11
f 7 14 8
f 8 15 16
f 8 16 9
f 8 14 17
f 8 17 18
f 8 18 19
f 8 19 15
f 10 20 32
f 10 32 43
f 10 43 51
f 10 51 55
f 10 55 65
f 10 65 64
f 10 64 63
f 10 63 68
f 10 68 66
f 10 66 56
f 10 56 49
f 10 49 39
f 10 39 42
f 10 42 30
f 10 30 33
f 10 33 21
f 10 12 20
f 11 13 23
f 11 23 38
f 11 38 48
f 11 48 52
f 11 52 46
f 11 46 45
f 11 45 44
f 11 44 36
f 11 36 22
f 11 22 12
f 12 22 20
f 15 19 24
f 15 24 25
f 17 26 18
f 18 26 27
f 18 27 28
f 18 28 29
f 18 29 30
f 18 30 19
f 19 30 31
f 19 31 24
f 20 22 36
f 20 36 32
f 21 33 34
f 21 34 35
f 21 35 29
f 21 29 28
f 23 37 38
f 24 31 39
f 24 39 40
f 24 40 41
f 24 41 25
f 29 35 30
f 30 42 31
f 30 35 33
f 31 42 39
f 32 36 44
f 32 44 45
f 32 45 46
f 32 46 43
f 33 35 34
f 37 47 38
f 38 47 48
f 39 49 40
f 40 50 41
f 40 49 50
f 43 46 52
f 43 52 51
f 47 53 54
f 47 54 48
f 48 54 55
f 48 55 52
f 49 56 57
f 49 57 58
f 49 58 59
f 49 59 50
f 50 59 58
f 50 58 61
f 50 61 60
f 51 52 55
f 53 62 63
f 53 63 64
f 53 64 54
f 54 64 65
f 54 65 55
f 56 66 57
f 57 66 67
f 57 67 58
f 58 67 61
f 60 61 67
f 62 67 68
f 62 68 63
f 66 68 67

