# https://github.com/mikedh/trimesh
v -3.896733965 -0.6942354500000001 0.73716827
v -3.896733965 -0.70152617 0.7365392
v -3.8258292549999995 -0.6947109499999999 0.731394
v -3.8258292549999995 -0.68796966 0.73107477
v -3.8258292549999995 -0.67803738 0.73057716
v -3.8258292549999995 -0.61131143 0.72702808
v -3.886781205 -0.61133256 0.72728159
v -3.896733965 -0.6372833099999999 0.72787308
v -3.8258292549999995 -0.7083731200000001 0.72437097
v -3.8258292549999995 -0.70285753 0.72721586
v -3.896733965 -0.7134766100000001 0.72841766
v -3.8258292549999995 -0.61131143 0.68067424
v -3.8825821549999997 -0.61131143 0.72720647
v -3.886781205 -0.61131143 0.69225098
v -3.896733965 -0.6372833099999999 0.65578383
v -3.8258292549999995 -0.71155357 0.71518847
v -3.896733965 -0.71891824 0.71239991
v -3.8258292549999995 -0.71370908 0.70896353
v -3.886781205 -0.61133256 0.67886216
v -3.882602975 -0.61131143 0.68044892
v -3.8258292549999995 -0.64146755 0.65300466
v -3.896733965 -0.6408547099999999 0.65256338
v -3.896733965 -0.7192563599999999 0.70896353
v -3.8258292549999995 -0.71368795 0.67563231
v -3.8258292549999995 -0.64981489 0.65007529
v -3.896733965 -0.64212265 0.65205637
v -3.896733965 -0.71921411 0.69617559
v -3.8258292549999995 -0.71084562 0.65895734
v -3.896733965 -0.71902391 0.67935978
v -3.896733965 -0.71898164 0.67563231
v -3.896733965 -0.7170902800000001 0.65895734
v -3.8258292549999995 -0.66136381 0.64905187
v -3.896733965 -0.69455245 0.64124957
v -3.896733965 -0.64919148 0.64995323
v -3.896733965 -0.71070826 0.64525869
v -3.896733965 -0.71001088 0.64396301
v -3.8258292549999995 -0.70549909 0.64903309
v -3.8258292549999995 -0.67803738 0.64823503
v -3.8258292549999995 -0.68475752 0.64799091
v -3.8258292549999995 -0.6947109499999999 0.64766229
v -3.896733965 -0.6968136300000001 0.6415594
f 1 2 3
f 1 3 4
f 1 4 5
f 1 5 6
f 1 6 7
f 1 7 8
f 1 8 15
f 1 15 22
f 1 22 26
f 1 26 34
f 1 34 33
f 1 33 41
f 1 41 36
f 1 36 35
f 1 35 31
f 1 31 30
f 1 30 29
f 1 29 27
f 1 27 23
f 1 23 17
f 1 17 11
f 1 11 2
f 2 9 10
f 2 10 3
f 2 11 9
f 3 10 9
f 3 9 16
f 3 16 18
f 3 18 24
f 3 24 28
f 3 28 37
f 3 37 40
f 3 40 39
f 3 39 38
f 3 38 32
f 3 32 25
f 3 25 21
f 3 21 12
f 3 12 6
f 3 6 5
f 3 5 4
f 6 12 20
f 6 20 14
f 6 14 13
f 6 13 7
f 7 13 14
f 7 14 8
f 8 14 15
f 9 11 16
f 11 17 18
f 11 18 16
f 12 19 20
f 12 21 19
f 14 20 19
f 14 19 15
f 15 19 22
f 17 23 18
f 18 23 24
f 19 21 22
f 21 25 26
f 21 26 22
f 23 27 24
f 24 27 29
f 24 29 30
f 24 30 31
f 24 31 28
f 25 32 33
f 25 33 34
f 25 34 26
f 28 31 35
f 28 35 36
f 28 36 37
f 32 38 33
f 33 38 39
f 33 39 40
f 33 40 37
f 33 37 41
f 36 41 37

