# https://github.com/mikedh/trimesh
v -3.26469275 2.05450928 0.90368240
v -3.26469275 2.05450928 0.90354239
v -3.31008175 2.05489659 0.90391243
v -3.28140132 2.05450928 0.90376241
v -3.26473271 2.03920002 0.89651146
v -3.26469275 2.03920002 0.89561134
v -3.26469275 2.05450618 0.82907266
v -3.26473271 2.05450928 0.82907266
v -3.31008175 2.05489659 0.80238917
v -3.36678297 2.05489659 0.90371240
v -3.29805993 2.03920002 0.89660147
v -3.29805993 2.05450928 0.90377241
v -3.29788008 2.03920002 0.89660147
v -3.28121147 2.03920002 0.89658148
v -3.31008175 2.03906988 0.89648146
v -3.31008175 2.03906988 0.80973012
v -3.26473271 2.03920002 0.83675366
v -3.26469275 2.05232335 0.83263312
v -3.29845968 2.05450928 0.80460946
v -3.30327637 2.03920002 0.81046023
v -3.31471855 2.05489659 0.80173909
v -3.36678297 2.03906988 0.89621142
v -3.31471855 2.03906988 0.89648146
v -3.36678297 2.05489659 0.82880263
v -3.31475855 2.03906988 0.80919006
v -3.31008175 2.03920002 0.80966012
v -3.31495840 2.05489659 0.80174909
v -3.36678297 2.03906988 0.83725373
v -3.33009804 2.05489659 0.80494951
v -3.32473173 2.03906988 0.81058024
f 1 2 9
f 1 9 3
f 1 3 4
f 1 4 5
f 1 5 6
f 1 6 18
f 1 18 7
f 1 7 2
f 2 7 8
f 2 8 9
f 3 10 11
f 3 11 12
f 3 12 4
f 3 9 21
f 3 21 27
f 3 27 29
f 3 29 24
f 3 24 10
f 4 12 13
f 4 13 14
f 4 14 5
f 5 14 15
f 5 15 6
f 6 15 16
f 6 16 17
f 6 17 18
f 7 18 17
f 7 17 19
f 7 19 8
f 8 19 9
f 9 19 20
f 9 20 21
f 10 22 23
f 10 23 11
f 10 24 28
f 10 28 22
f 11 23 15
f 11 15 13
f 11 13 12
f 13 15 14
f 15 23 22
f 15 22 28
f 15 28 30
f 15 30 25
f 15 25 16
f 16 25 26
f 16 26 20
f 16 20 17
f 17 20 19
f 20 26 21
f 21 26 25
f 21 25 27
f 24 29 28
f 25 30 27
f 27 30 29
f 28 29 30

