# https://github.com/mikedh/trimesh
v -2.56569025 1.55164023 0.12783571
v -2.81575201 1.53438003 0.10432495
v -2.81575201 1.54324874 0.12783571
v -2.31475145 1.55125168 0.12783571
v -2.28874955 1.53528669 0.10434146
v -2.48139050 1.53490495 0.10412682
v -2.79800469 1.52577040 0.09596080
v -2.81575201 1.52619303 0.09653867
v -2.51471829 1.53484358 0.10413671
v -2.81575201 1.48244952 0.12783571
v -2.28874955 1.55100627 0.12783571
v -2.28874955 1.52235518 0.09629429
v -2.48139050 1.52499327 0.09579569
v -2.63136563 1.52584539 0.09584522
v -2.73134906 1.51754251 0.09485787
v -2.81575201 1.51728347 0.09495365
v -2.81575201 1.52561361 0.09599048
v -2.81466860 1.48244269 0.12783571
v -2.81575201 1.48251768 0.12019803
v -2.28874955 1.48304259 0.12783571
v -2.28874955 1.50410656 0.09543574
v -2.38924891 1.51418180 0.09519142
v -2.44806269 1.52376627 0.09578246
v -2.46472658 1.52461835 0.09579897
v -2.49805440 1.52503419 0.09579235
v -2.48139050 1.51666313 0.09505271
v -2.71468517 1.51754251 0.09485459
v -2.71468517 1.50569486 0.09410172
v -2.73134906 1.50569486 0.09411161
v -2.81575201 1.50569486 0.09434610
v -2.74801297 1.50569486 0.09415453
v -2.64802955 1.48204051 0.12783571
v -2.81466860 1.48251085 0.12019803
v -2.64802955 1.48208822 0.12019803
v -2.81575201 1.48289262 0.11910505
v -2.28874955 1.48306983 0.12019803
v -2.36474316 1.48239498 0.12783571
v -2.28874955 1.49749424 0.09519469
v -2.38280003 1.50644472 0.09487771
v -2.39905121 1.50733773 0.09483808
v -2.48139050 1.50569486 0.09450125
v -2.46472658 1.51629504 0.09507912
v -2.71468517 1.49529922 0.09444844
v -2.73134906 1.49533332 0.09445172
v -2.39807095 1.49600134 0.09475225
v -2.48139050 1.49567414 0.09464984
v -2.74801297 1.49536738 0.09446823
v -2.81575201 1.49569458 0.09459370
v -2.81575201 1.49634902 0.09457719
v -2.61470174 1.48203368 0.12019803
v -2.61470174 1.48200642 0.12783571
v -2.71468517 1.48789615 0.10353244
v -2.81575201 1.48832560 0.10353244
v -2.81466860 1.48831881 0.10353244
v -2.74801297 1.48802567 0.10353244
v -2.28874955 1.48699632 0.11179424
v -2.36474316 1.48247679 0.12019803
v -2.38140709 1.48865283 0.10353244
v -2.37377161 1.48233362 0.12783571
v -2.38140709 1.48236089 0.12019803
v -2.28874955 1.49735107 0.09519469
v -2.38140709 1.49614451 0.09480178
v -2.36474316 1.50290680 0.09491735
v -2.46472658 1.50569486 0.09455412
v -2.58137392 1.48790297 0.10353244
v -2.69802126 1.48788932 0.10353244
v -2.49805440 1.49564007 0.09463995
v -2.49805440 1.48799840 0.10353244
v -2.53138221 1.48793707 0.10353244
v -2.39807095 1.48853693 0.10353244
v -2.46472658 1.48812110 0.10353244
v -2.48139050 1.48803932 0.10353244
v -2.81575201 1.48880280 0.10294795
v -2.59803783 1.48202006 0.12019803
v -2.48139050 1.48200642 0.12783571
v -2.28874955 1.49166584 0.10187482
v -2.28874955 1.49566052 0.09717597
v -2.46472658 1.48204733 0.12783571
v -2.46472658 1.48206095 0.12019803
v -2.48139050 1.48202006 0.12019803
f 1 2 3
f 1 3 10
f 1 10 18
f 1 18 32
f 1 32 51
f 1 51 75
f 1 75 78
f 1 78 59
f 1 59 37
f 1 37 20
f 1 20 11
f 1 11 4
f 1 4 5
f 1 5 6
f 1 6 2
f 2 7 8
f 2 8 17
f 2 17 16
f 2 16 30
f 2 30 49
f 2 49 48
f 2 48 73
f 2 73 53
f 2 53 35
f 2 35 19
f 2 19 10
f 2 10 3
f 2 6 9
f 2 9 7
f 4 11 5
f 5 11 20
f 5 20 36
f 5 36 56
f 5 56 76
f 5 76 77
f 5 77 61
f 5 61 38
f 5 38 21
f 5 21 12
f 5 12 13
f 5 13 14
f 5 14 6
f 6 14 7
f 6 7 9
f 7 14 15
f 7 15 16
f 7 16 17
f 7 17 8
f 10 19 33
f 10 33 18
f 12 21 22
f 12 22 23
f 12 23 24
f 12 24 13
f 13 25 14
f 13 24 26
f 13 26 27
f 13 27 25
f 14 27 15
f 14 25 27
f 15 27 28
f 15 28 29
f 15 29 16
f 16 29 31
f 16 31 30
f 18 33 34
f 18 34 32
f 19 35 33
f 20 37 36
f 21 38 39
f 21 39 22
f 22 39 40
f 22 40 41
f 22 41 42
f 22 42 23
f 23 42 26
f 23 26 24
f 26 42 41
f 26 41 28
f 26 28 27
f 28 43 44
f 28 44 29
f 28 41 45
f 28 45 46
f 28 46 43
f 29 44 47
f 29 47 48
f 29 48 31
f 30 31 49
f 31 48 49
f 32 34 50
f 32 50 51
f 33 35 52
f 33 52 34
f 34 52 50
f 35 53 54
f 35 54 55
f 35 55 52
f 36 37 57
f 36 57 58
f 36 58 56
f 37 59 60
f 37 60 57
f 38 61 62
f 38 62 63
f 38 63 39
f 39 63 64
f 39 64 40
f 40 64 41
f 41 64 62
f 41 62 45
f 43 65 66
f 43 66 52
f 43 52 44
f 43 46 67
f 43 67 68
f 43 68 69
f 43 69 65
f 44 52 47
f 45 62 58
f 45 58 70
f 45 70 71
f 45 71 46
f 46 71 72
f 46 72 67
f 47 52 55
f 47 55 54
f 47 54 73
f 47 73 48
f 50 74 51
f 50 52 74
f 51 74 80
f 51 80 75
f 52 66 74
f 53 73 54
f 56 58 76
f 57 60 70
f 57 70 58
f 58 62 61
f 58 61 77
f 58 77 76
f 59 78 79
f 59 79 60
f 60 79 72
f 60 72 71
f 60 71 70
f 62 64 63
f 65 69 80
f 65 80 66
f 66 80 74
f 67 72 68
f 68 72 79
f 68 79 80
f 68 80 69
f 75 80 79
f 75 79 78

