# https://github.com/mikedh/trimesh
v -3.06465433 1.50570663 1.13128925
v -3.16467953 1.49022280 1.13803906
v -3.08133250 1.50570663 1.13129811
v -2.83400534 1.52237747 1.13183916
v -2.83400534 1.50570663 1.13134246
v -3.06465433 1.49020537 1.13800358
v -3.16467953 1.48315298 1.15355212
v -3.18131395 1.49024900 1.13805680
v -3.16467953 1.50570663 1.13136021
v -3.08133250 1.49017917 1.13803906
v -3.08133250 1.48304825 1.15355212
v -3.13132319 1.48310062 1.15355212
v -3.13132319 1.52236874 1.13202543
v -2.83400534 1.54002586 1.13567973
v -2.83400534 1.49051084 1.13815437
v -3.14795761 1.48331010 1.17020935
v -3.28120784 1.48354575 1.17038675
v -3.24802662 1.48333627 1.15355212
v -3.24802662 1.49031009 1.13825194
v -3.26470476 1.49037119 1.13824306
v -3.18131395 1.50570663 1.13140455
v -3.14795761 1.52236874 1.13206091
v -3.08133250 1.48326644 1.17020935
v -3.13132319 1.48329263 1.17020935
v -2.98143857 1.48330137 1.15355212
v -2.98143857 1.48341482 1.17020935
v -3.16467953 1.53901341 1.13743592
v -2.83400534 1.55567551 1.14176432
v -3.28120784 1.52236874 1.13263744
v -2.83400534 1.48480261 1.15113957
v -2.96476041 1.48334500 1.15355212
v -3.16467953 1.48358065 1.18686660
v -3.28120784 1.48383379 1.18686660
v -3.28120784 1.48343229 1.15372063
v -3.28120784 1.48343229 1.15355212
v -3.28120784 1.49039739 1.13829629
v -3.26470476 1.50569790 1.13170612
v -3.28120784 1.52220292 1.13262857
v -3.09801066 1.48354575 1.18686660
v -3.11464505 1.48354575 1.18686660
v -2.98143857 1.48366794 1.18686660
v -2.83400534 1.48374650 1.15355212
v -2.83400534 1.48392978 1.16760167
v -2.96476041 1.48370287 1.18686660
v -3.28120784 1.53992113 1.13868655
v -2.83400534 1.57217180 1.14870927
v -3.28120784 1.48619040 1.20353269
v -3.28120784 1.50569790 1.13179482
v -2.83400534 1.48654824 1.20352383
v -2.83400534 1.48397344 1.17020935
v -2.83400534 1.48429638 1.18685773
v -3.28120784 1.54004333 1.13874863
v -2.85401038 1.57220670 1.16019549
v -2.83400534 1.57217180 1.22120995
v -3.28120784 1.56403711 1.15371177
v -3.23905277 1.57220670 1.16383206
v -3.28120784 1.49287618 1.21504553
v -2.83400534 1.49298091 1.21533823
v -3.18131395 1.49309440 1.21554223
v -2.85401038 1.57220670 1.22122770
v -2.83400534 1.56956206 1.22120995
v -2.96476041 1.57220670 1.22178648
v -3.28120784 1.56403711 1.22120995
v -3.23905277 1.57220670 1.22124543
v -3.28120784 1.49300711 1.21508987
v -3.14795761 1.50570663 1.22039394
v -3.16467953 1.50570663 1.22027863
v -2.83400534 1.50570663 1.21971985
v -2.98143857 1.50570663 1.22021655
v -2.86477897 1.49304201 1.21539145
v -2.98143857 1.55567551 1.22183082
v -2.83400534 1.55567551 1.22118333
v -2.98143857 1.57220670 1.22183082
v -3.28120784 1.55568425 1.22114785
v -3.13132319 1.52236874 1.22178648
v -3.13132319 1.53901341 1.22185744
v -3.13132319 1.55567551 1.22186630
v -3.14813270 1.57220670 1.22177761
v -3.28120784 1.50569790 1.21915219
v -3.11464505 1.52236874 1.22179534
v -3.04806370 1.52236874 1.22175100
v -3.14795761 1.52236874 1.22167117
v -3.28120784 1.52236874 1.22041167
v -3.28120784 1.50586372 1.21916992
v -2.83400534 1.52237747 1.22081082
v -2.98143857 1.52236874 1.22159135
v -2.99811674 1.52236874 1.22166231
v -2.99811674 1.55567551 1.22185744
v -2.99811674 1.53901341 1.22178648
v -2.98143857 1.53901341 1.22175100
v -2.83400534 1.53901341 1.22108578
v -3.09801066 1.57220670 1.22185744
v -3.09801066 1.55567551 1.22190178
v -3.28120784 1.53902211 1.22090838
v -3.11464505 1.53901341 1.22186630
v -3.11464505 1.55567551 1.22189292
v -3.11482014 1.57220670 1.22185744
v -3.13145453 1.57220670 1.22183082
v -3.09801066 1.53901341 1.22186630
v -3.28120784 1.52253456 1.22042055
f 1 2 3
f 1 3 4
f 1 4 5
f 1 5 6
f 1 6 2
f 2 7 8
f 2 8 9
f 2 9 3
f 2 6 10
f 2 10 11
f 2 11 12
f 2 12 7
f 3 13 4
f 3 9 13
f 4 14 28
f 4 28 46
f 4 46 54
f 4 54 61
f 4 61 72
f 4 72 91
f 4 91 85
f 4 85 68
f 4 68 58
f 4 58 49
f 4 49 51
f 4 51 50
f 4 50 43
f 4 43 42
f 4 42 30
f 4 30 15
f 4 15 5
f 4 13 14
f 5 15 6
f 6 15 11
f 6 11 10
f 7 12 16
f 7 16 17
f 7 17 18
f 7 18 8
f 8 18 19
f 8 19 20
f 8 20 21
f 8 21 9
f 9 22 13
f 9 21 22
f 11 23 24
f 11 24 12
f 11 15 25
f 11 25 26
f 11 26 23
f 12 24 16
f 13 22 14
f 14 27 28
f 14 22 29
f 14 29 27
f 15 30 31
f 15 31 25
f 16 24 32
f 16 32 17
f 17 33 47
f 17 47 57
f 17 57 65
f 17 65 79
f 17 79 84
f 17 84 83
f 17 83 100
f 17 100 94
f 17 94 74
f 17 74 63
f 17 63 55
f 17 55 52
f 17 52 45
f 17 45 29
f 17 29 38
f 17 38 48
f 17 48 36
f 17 36 35
f 17 35 34
f 17 34 18
f 17 32 33
f 18 34 35
f 18 35 19
f 19 35 36
f 19 36 20
f 20 36 37
f 20 37 21
f 21 37 22
f 22 37 38
f 22 38 29
f 23 39 40
f 23 40 24
f 23 26 41
f 23 41 39
f 24 40 32
f 25 31 26
f 26 31 42
f 26 42 43
f 26 43 44
f 26 44 41
f 27 29 45
f 27 45 28
f 28 45 46
f 30 42 31
f 32 40 47
f 32 47 33
f 36 48 37
f 37 48 38
f 39 41 49
f 39 49 47
f 39 47 40
f 41 44 49
f 43 50 44
f 44 50 51
f 44 51 49
f 45 52 46
f 46 53 60
f 46 60 54
f 46 52 55
f 46 55 56
f 46 56 53
f 47 49 58
f 47 58 59
f 47 59 57
f 53 56 64
f 53 64 78
f 53 78 98
f 53 98 97
f 53 97 92
f 53 92 73
f 53 73 62
f 53 62 60
f 54 60 62
f 54 62 61
f 55 63 64
f 55 64 56
f 57 59 66
f 57 66 67
f 57 67 65
f 58 68 69
f 58 69 66
f 58 66 70
f 58 70 59
f 59 70 66
f 61 62 71
f 61 71 72
f 62 73 71
f 63 74 75
f 63 75 76
f 63 76 77
f 63 77 78
f 63 78 64
f 65 67 79
f 66 80 75
f 66 75 67
f 66 69 81
f 66 81 80
f 67 75 82
f 67 82 83
f 67 83 84
f 67 84 79
f 68 85 86
f 68 86 87
f 68 87 69
f 69 87 81
f 71 73 88
f 71 88 89
f 71 89 90
f 71 90 72
f 72 90 91
f 73 92 93
f 73 93 88
f 74 94 82
f 74 82 75
f 75 80 95
f 75 95 76
f 76 95 93
f 76 93 96
f 76 96 77
f 77 96 97
f 77 97 98
f 77 98 78
f 80 99 95
f 80 81 99
f 81 87 89
f 81 89 99
f 82 94 100
f 82 100 83
f 85 91 86
f 86 90 87
f 86 91 90
f 87 90 89
f 88 93 99
f 88 99 89
f 92 97 93
f 93 97 96
f 93 95 99

