# https://github.com/mikedh/trimesh
v -2.31470204 1.55929247 1.89441908
v -2.31470204 1.55568967 1.89443988
v -2.34807984 1.51085070 1.89514912
v -2.34807984 1.51601522 1.89514912
v -2.32399233 1.55929247 1.89487792
v -2.30163886 1.55929247 1.89464850
v -2.24072648 1.51792559 1.89506567
v -2.24072648 1.50884595 1.89506567
v -2.30101879 1.49716588 1.89509697
v -2.30959448 1.49716588 1.89509697
v -2.34803781 1.50251922 1.89535768
v -2.34807984 1.50254104 1.89535768
v -2.34807984 1.52433946 1.89543069
v -2.33091803 1.55929247 1.90321107
v -2.34807984 1.53901943 1.89887241
v -2.34807984 1.54963172 1.90699701
v -2.29803412 1.55929247 1.89472151
v -2.24072648 1.52624981 1.89539940
v -2.24072648 1.50051443 1.89533682
v -2.28992091 1.49758716 1.89522214
v -2.24072648 1.49119508 1.90368040
v -2.29648928 1.49232823 1.90188653
v -2.31497527 1.49235002 1.90194911
v -2.34807984 1.49127498 1.90369083
v -2.34803781 1.55929247 1.93185044
v -2.34807984 1.55929247 1.93251795
v -2.29129761 1.55929247 1.89506567
v -2.24072648 1.53360070 1.89744362
v -2.28949003 1.55929247 1.89518041
v -2.24072648 1.48851479 1.91093935
v -2.28137676 1.49119508 1.90361782
v -2.29803412 1.48511536 1.92022160
v -2.34807984 1.48528967 1.92016944
v -2.28137676 1.48508630 1.92022160
v -2.34807984 1.55929247 1.99817145
v -2.24072648 1.53901943 1.89912275
v -2.24072648 1.55929247 1.93287255
v -2.24072648 1.54905788 1.90727858
v -2.24072648 1.54468513 1.90368040
v -2.24072648 1.48510082 1.92022160
v -2.34803781 1.48527516 1.92022160
v -2.24072648 1.48520977 1.97021009
v -2.26470890 1.48525337 1.97021009
v -2.34807984 1.48559476 1.97015793
v -2.34807984 1.53897586 1.99997581
v -2.34443308 1.55929247 1.99818194
v -2.24072648 1.55929247 1.99807763
v -2.34803781 1.48559476 1.97021009
v -2.31470204 1.48542769 1.97021009
v -2.24072648 1.48744702 1.98687639
v -2.24804099 1.48745426 1.98687639
v -2.34807984 1.48788282 1.98682424
v -2.34807984 1.52230562 2.00095620
v -2.34803781 1.52235646 2.00095620
v -2.33136993 1.53901943 1.99999667
v -2.29803412 1.55929247 1.99829662
v -2.24072648 1.53901943 1.99985064
v -2.27778257 1.55929247 1.99825489
v -2.33136993 1.48779568 1.98687639
v -2.31470204 1.48772302 1.98687639
v -2.24072648 1.49353402 1.99772298
v -2.24804099 1.49352674 1.99773347
v -2.33136993 1.49370106 1.99774384
v -2.34807984 1.49373739 1.99768125
v -2.34803781 1.48789010 1.98687639
v -2.34807984 1.50565716 2.00050773
v -2.34803781 1.50569349 2.00051810
v -2.24804099 1.50569349 2.00052859
v -2.24072648 1.50569349 2.00052859
v -2.24072648 1.51300805 2.00068499
v -2.24072648 1.52235646 2.00088312
v -2.29803412 1.53901943 1.99999667
v -2.24072648 1.52967102 2.00044514
v -2.34803781 1.49375193 1.99771261
v -2.24072648 1.49886557 1.99896419
f 1 2 3
f 1 3 4
f 1 4 5
f 1 5 14
f 1 14 25
f 1 25 26
f 1 26 35
f 1 35 46
f 1 46 56
f 1 56 58
f 1 58 47
f 1 47 37
f 1 37 29
f 1 29 27
f 1 27 17
f 1 17 6
f 1 6 7
f 1 7 8
f 1 8 2
f 2 9 10
f 2 10 3
f 2 8 9
f 3 11 12
f 3 12 24
f 3 24 33
f 3 33 44
f 3 44 52
f 3 52 64
f 3 64 66
f 3 66 53
f 3 53 45
f 3 45 35
f 3 35 26
f 3 26 16
f 3 16 15
f 3 15 13
f 3 13 4
f 3 10 11
f 4 13 5
f 5 13 15
f 5 15 16
f 5 16 14
f 6 17 7
f 7 18 28
f 7 28 36
f 7 36 39
f 7 39 38
f 7 38 37
f 7 37 47
f 7 47 57
f 7 57 73
f 7 73 71
f 7 71 70
f 7 70 69
f 7 69 75
f 7 75 61
f 7 61 50
f 7 50 42
f 7 42 40
f 7 40 30
f 7 30 21
f 7 21 19
f 7 19 8
f 7 17 18
f 8 19 9
f 9 19 20
f 9 20 21
f 9 21 22
f 9 22 10
f 10 22 23
f 10 23 24
f 10 24 11
f 11 24 12
f 14 16 25
f 16 26 25
f 17 27 18
f 18 27 29
f 18 29 28
f 19 21 20
f 21 30 31
f 21 31 22
f 22 31 24
f 22 24 23
f 24 32 33
f 24 31 34
f 24 34 32
f 28 29 36
f 29 37 38
f 29 38 39
f 29 39 36
f 30 40 34
f 30 34 31
f 32 41 33
f 32 34 42
f 32 42 43
f 32 43 41
f 33 41 44
f 34 40 42
f 35 45 46
f 41 48 44
f 41 43 49
f 41 49 48
f 42 50 51
f 42 51 43
f 43 51 49
f 44 48 52
f 45 53 54
f 45 54 55
f 45 55 56
f 45 56 46
f 47 58 57
f 48 49 59
f 48 59 52
f 49 60 59
f 49 51 60
f 50 61 62
f 50 62 51
f 51 62 63
f 51 63 60
f 52 59 65
f 52 65 64
f 53 66 67
f 53 67 68
f 53 68 69
f 53 69 70
f 53 70 71
f 53 71 54
f 54 72 55
f 54 71 72
f 55 72 56
f 56 72 58
f 57 58 72
f 57 72 73
f 59 60 74
f 59 74 65
f 60 63 74
f 61 75 62
f 62 75 67
f 62 67 63
f 63 67 74
f 64 65 74
f 64 74 66
f 66 74 67
f 67 75 68
f 68 75 69
f 71 73 72

