# https://github.com/mikedh/trimesh
v 1.30801183 2.06382017 0.60319033
v 1.30801183 2.11429727 0.60319033
v 1.32255909 2.06353722 0.60319033
v 1.30801183 2.06387891 0.77019100
v 1.30801183 2.11582945 0.77819073
v 1.32606692 2.11445743 0.60319033
v 1.32436458 2.06353189 0.60319033
v 1.31703938 2.06384687 0.77819073
v 1.30801183 2.06390025 0.77819073
v 1.39240651 2.11652883 0.77819073
v 1.34241969 2.11456422 0.60319033
v 1.37517679 2.06360663 0.60319033
v 1.33375324 2.06382017 0.77819073
v 1.72560045 2.11801833 0.77819073
v 1.39240651 2.11484716 0.60319033
v 1.37610535 2.11476708 0.60319033
v 1.35041551 2.06385221 0.77819073
v 1.67561360 2.06561399 0.60319033
v 1.83496274 2.06679914 0.77819073
v 1.40262054 2.06401237 0.77819073
v 1.39240651 2.06396432 0.77819073
v 1.37574424 2.06390558 0.77819073
v 1.73426686 2.11803434 0.77819073
v 1.54236699 2.11547713 0.60319033
v 1.52606581 2.11541305 0.60319033
v 1.79224953 2.06648416 0.60319033
v 1.80891181 2.06678847 0.60319033
v 1.83496274 2.06738640 0.60319033
v 1.83496274 2.11805034 0.77819073
v 1.74226271 2.11803967 0.77819073
v 1.74226271 2.11561592 0.60319033
v 1.83496274 2.11557855 0.60319033
v 1.82593519 2.11559458 0.60319033
v 1.80927293 2.11562125 0.60319033
v 1.80891181 2.11806637 0.77819073
v 1.79224953 2.11807171 0.77819073
v 1.79224953 2.11562125 0.60319033
f 1 2 6
f 1 6 11
f 1 11 16
f 1 16 15
f 1 15 25
f 1 25 24
f 1 24 31
f 1 31 37
f 1 37 34
f 1 34 33
f 1 33 32
f 1 32 28
f 1 28 27
f 1 27 26
f 1 26 18
f 1 18 12
f 1 12 7
f 1 7 3
f 1 3 4
f 1 4 9
f 1 9 5
f 1 5 2
f 2 5 6
f 3 7 8
f 3 8 4
f 4 8 9
f 5 9 8
f 5 8 13
f 5 13 17
f 5 17 22
f 5 22 21
f 5 21 20
f 5 20 19
f 5 19 29
f 5 29 35
f 5 35 36
f 5 36 30
f 5 30 23
f 5 23 14
f 5 14 10
f 5 10 6
f 6 10 11
f 7 12 13
f 7 13 8
f 10 14 15
f 10 15 16
f 10 16 11
f 12 17 13
f 12 18 19
f 12 19 20
f 12 20 21
f 12 21 22
f 12 22 17
f 14 23 24
f 14 24 25
f 14 25 15
f 18 26 19
f 19 26 27
f 19 27 28
f 19 28 32
f 19 32 29
f 23 30 31
f 23 31 24
f 29 32 33
f 29 33 34
f 29 34 35
f 30 36 31
f 31 36 37
f 34 37 36
f 34 36 35

