# https://github.com/mikedh/trimesh
v -2.198229995 -0.19719939 1.92640493
v -2.198229995 -0.19719939 1.9260905
v -2.214604705 -0.1975533 1.9260905
v -2.198229995 -0.19733701 1.99310296
v -2.1980191049999998 -0.19724853 1.9260905
v -2.214904405 -0.19756314000000003 1.9260905
v -2.214904405 -0.19756314000000003 1.92640493
v -2.214904405 -0.1977401 1.99310296
v -2.187084105 -0.20019789 2.00977748
v -2.1869175949999997 -0.20011925000000003 1.99310296
v -2.198229995 -0.19754346 2.00977748
v -2.186817695 -0.20001112 1.92640493
v -2.186817695 -0.20001112 1.9260905
v -2.2312791049999996 -0.19854624 1.9260905
v -2.231578865 -0.19856592 1.92640493
v -2.231578865 -0.19906729 1.99310296
v -2.231578865 -0.19926393 2.00977748
v -2.214904405 -0.1979662 2.00977748
v -2.1881720849999997 -0.20113187 2.01998659
v -2.1832096849999996 -0.21109090000000003 2.00977748
v -2.182921085 -0.21109090000000003 1.99310296
v -2.1827101349999998 -0.21109090000000003 1.92640493
v -2.198229995 -0.20027655 2.02102804
v -2.214904405 -0.20048300000000002 2.0208119
v -2.1827101349999998 -0.21109090000000003 1.9260905
v -2.231578865 -0.19856592 1.9260905
v -2.248253265 -0.19995213 1.9260905
v -2.248253265 -0.20086644 1.99310296
v -2.249685375 -0.20151527000000002 2.01082884
v -2.256201905 -0.20292114 2.0170879
v -2.245089355 -0.20190855000000002 2.01911201
v -2.231578865 -0.20110238000000003 2.02004551
v -2.198229995 -0.21109090000000003 2.02510584
v -2.186739975 -0.21109090000000003 2.02142108
v -2.1821106749999997 -0.22776467 2.00977748
v -2.181910815 -0.22776467 1.99310296
v -2.1817443049999996 -0.22776467 1.94307945
v -2.181722115 -0.22776467 1.92640493
v -2.214904405 -0.21109090000000003 2.02502723
v -2.181722115 -0.22776467 1.9260905
v -2.259177115 -0.20173156 1.9260905
v -2.2581557549999998 -0.20232144000000002 1.99310296
v -2.2575673949999997 -0.20247874999999999 2.00596503
v -2.2951015349999997 -0.21227066 1.99310296
v -2.2951015349999997 -0.21483661 2.00710483
v -2.2951015349999997 -0.21545599 2.01044564
v -2.2951015349999997 -0.21776631000000002 2.01561404
v -2.2951015349999997 -0.21910335 2.01831615
v -2.293036625 -0.21862163 2.01867972
v -2.249685375 -0.20951792000000002 2.02138183
v -2.231578865 -0.21109090000000003 2.02396597
v -2.214904405 -0.22776467 2.02647163
v -2.198229995 -0.22776467 2.02628495
v -2.186129375 -0.22776467 2.02195177
v -2.182155055 -0.24443845 2.00977748
v -2.181910815 -0.24443845 1.99310296
v -2.186129375 -0.24443845 2.02194187
v -2.1817998249999997 -0.24443845 1.9764186
v -2.1816999249999998 -0.24443845 1.95975391
v -2.231578865 -0.22776467 2.02582309
v -2.181711025 -0.26111223 1.95975391
v -2.1817553949999997 -0.24443845 1.9260905
v -2.2593880649999996 -0.2017709 1.9260905
v -2.259376975 -0.2017709 1.92640493
v -2.2951015349999997 -0.21230015000000002 1.98991936
v -2.2951015349999997 -0.22186594 2.0190334
v -2.2951015349999997 -0.22515941 2.01958365
v -2.2951015349999997 -0.22728295 2.01992754
v -2.248253265 -0.22776467 2.02466366
v -2.214904405 -0.24443845 2.02630463
v -2.198229995 -0.24443845 2.02620634
v -2.1862737049999996 -0.26111223 2.02174541
v -2.1823770949999997 -0.26111223 2.00977748
v -2.1820440549999995 -0.26111223 1.99310296
v -2.1818553549999997 -0.26111223 1.9764186
v -2.231578865 -0.24443845 2.02557748
v -2.2951015349999997 -0.29762542000000003 2.02144076
v -2.186051655 -0.27488578 1.99310296
v -2.185940665 -0.27497427 1.9764186
v -2.185851855 -0.27507258 1.95975391
v -2.185874045 -0.27496443 1.94307945
v -2.181766545 -0.26111223 1.94307945
v -2.181899725 -0.26111223 1.9260905
v -2.267747455 -0.20916398 1.9260905
v -2.2951015349999997 -0.21650791000000003 1.94779583
v -2.2951015349999997 -0.21327344 1.95975391
v -2.2951015349999997 -0.21259508 1.9764186
v -2.2951015349999997 -0.24125313 2.02118526
v -2.2951015349999997 -0.24443845 2.02126386
v -2.2951015349999997 -0.2579269 2.02138183
v -2.214904405 -0.26111223 2.02565609
v -2.198229995 -0.26111223 2.02576416
v -2.1875392949999997 -0.27279173 2.02042877
v -2.186218235 -0.27466951 2.00977748
v -2.2951015349999997 -0.29762542000000003 1.96757534
v -2.251406085 -0.29762542000000003 2.02160788
v -2.212617515 -0.29762542000000003 1.99310296
v -2.2126064249999997 -0.29762542000000003 1.9764186
v -2.1859628549999996 -0.27473832 1.92640493
v -2.185896295 -0.27449254 1.9260905
v -2.274241795 -0.21734356999999999 1.9260905
v -2.2951015349999997 -0.22776467 1.94346265
v -2.248253265 -0.29762542000000003 2.02160788
v -2.234742775 -0.29762542000000003 2.02111655
v -2.231578865 -0.29762542000000003 2.02092987
v -2.2231417049999997 -0.29762542000000003 2.0194658
v -2.2213988049999998 -0.29762542000000003 2.01915137
v -2.2168249749999998 -0.29762542000000003 2.01148716
v -2.216081185 -0.29762542000000003 2.00977748
v -2.213205875 -0.29762542000000003 1.99625709
v -2.2951015349999997 -0.27371587000000003 1.94721611
v -2.263162525 -0.29762542000000003 1.94679361
v -2.213072695 -0.29762542000000003 1.95975391
v -2.185974005 -0.27473832 1.9260905
v -2.274308415 -0.21753037 1.9260905
v -2.2951015349999997 -0.24424183 1.94204772
v -2.2951015349999997 -0.26371751 1.94352157
v -2.244367755 -0.2745122 1.9260905
v -2.248253265 -0.29762542000000003 1.94130095
v -2.2184014149999998 -0.29762542000000003 1.94600754
v -2.198229995 -0.28130559 1.9260905
v -2.2745748949999998 -0.22674223 1.9260905
v -2.2951015349999997 -0.26111223 1.94260781
v -2.259443535 -0.25545927 1.9260905
v -2.231812005 -0.28117778 1.9260905
v -2.231578865 -0.28129575 1.9260905
v -2.215215255 -0.28277044 1.9260905
v -2.214904405 -0.28279009 1.9260905
v -2.231578865 -0.29762542000000003 1.94051487
v -2.268691095 -0.24331769 1.9260905
f 1 2 3
f 1 3 4
f 1 4 5
f 1 5 2
f 2 5 13
f 2 13 25
f 2 25 40
f 2 40 62
f 2 62 83
f 2 83 100
f 2 100 114
f 2 114 121
f 2 121 128
f 2 128 127
f 2 127 126
f 2 126 125
f 2 125 118
f 2 118 124
f 2 124 130
f 2 130 122
f 2 122 115
f 2 115 101
f 2 101 84
f 2 84 63
f 2 63 41
f 2 41 27
f 2 27 26
f 2 26 14
f 2 14 6
f 2 6 3
f 3 6 7
f 3 7 8
f 3 8 4
f 4 9 10
f 4 10 5
f 4 8 11
f 4 11 9
f 5 10 12
f 5 12 13
f 6 14 7
f 7 14 8
f 8 14 15
f 8 15 16
f 8 16 17
f 8 17 18
f 8 18 11
f 9 11 19
f 9 19 20
f 9 20 21
f 9 21 10
f 10 21 22
f 10 22 12
f 11 23 19
f 11 18 24
f 11 24 23
f 12 22 25
f 12 25 13
f 14 26 15
f 15 26 27
f 15 27 16
f 16 27 17
f 17 27 28
f 17 28 29
f 17 29 30
f 17 30 31
f 17 31 18
f 18 31 32
f 18 32 24
f 19 23 33
f 19 33 34
f 19 34 20
f 20 35 21
f 20 34 35
f 21 35 36
f 21 36 37
f 21 37 22
f 22 37 38
f 22 38 40
f 22 40 25
f 23 24 39
f 23 39 33
f 24 32 39
f 27 41 42
f 27 42 28
f 28 42 43
f 28 43 29
f 29 43 30
f 30 43 44
f 30 44 45
f 30 45 46
f 30 46 47
f 30 47 48
f 30 48 49
f 30 49 31
f 31 49 50
f 31 50 51
f 31 51 32
f 32 51 39
f 33 39 52
f 33 52 53
f 33 53 34
f 34 53 54
f 34 54 35
f 35 55 56
f 35 56 36
f 35 54 57
f 35 57 55
f 36 56 58
f 36 58 59
f 36 59 37
f 37 59 38
f 38 59 40
f 39 51 60
f 39 60 52
f 40 59 61
f 40 61 62
f 41 63 64
f 41 64 42
f 42 64 44
f 42 44 43
f 44 65 87
f 44 87 86
f 44 86 85
f 44 85 102
f 44 102 116
f 44 116 123
f 44 123 117
f 44 117 111
f 44 111 95
f 44 95 77
f 44 77 90
f 44 90 89
f 44 89 88
f 44 88 68
f 44 68 67
f 44 67 66
f 44 66 48
f 44 48 47
f 44 47 46
f 44 46 45
f 44 64 63
f 44 63 65
f 48 66 49
f 49 66 51
f 49 51 50
f 51 66 67
f 51 67 68
f 51 68 69
f 51 69 60
f 52 60 70
f 52 70 71
f 52 71 53
f 53 71 57
f 53 57 54
f 55 57 72
f 55 72 73
f 55 73 74
f 55 74 56
f 56 74 75
f 56 75 61
f 56 61 58
f 57 71 72
f 58 61 59
f 60 76 70
f 60 69 77
f 60 77 76
f 61 75 78
f 61 78 79
f 61 79 80
f 61 80 81
f 61 81 82
f 61 82 62
f 62 82 83
f 63 84 85
f 63 85 86
f 63 86 87
f 63 87 65
f 68 88 69
f 69 88 89
f 69 89 90
f 69 90 77
f 70 76 77
f 70 77 91
f 70 91 92
f 70 92 71
f 71 92 72
f 72 92 93
f 72 93 73
f 73 93 94
f 73 94 74
f 74 94 78
f 74 78 75
f 77 95 112
f 77 112 119
f 77 119 129
f 77 129 120
f 77 120 113
f 77 113 98
f 77 98 97
f 77 97 110
f 77 110 109
f 77 109 108
f 77 108 107
f 77 107 106
f 77 106 105
f 77 105 104
f 77 104 103
f 77 103 96
f 77 96 92
f 77 92 91
f 78 94 97
f 78 97 79
f 79 97 80
f 80 97 98
f 80 98 81
f 81 99 83
f 81 83 82
f 81 98 99
f 83 99 100
f 84 101 85
f 85 101 102
f 92 96 103
f 92 103 104
f 92 104 105
f 92 105 106
f 92 106 93
f 93 106 107
f 93 107 108
f 93 108 109
f 93 109 94
f 94 109 110
f 94 110 97
f 95 111 112
f 98 113 99
f 99 114 100
f 99 113 114
f 101 115 102
f 102 115 116
f 111 117 118
f 111 118 112
f 112 118 119
f 113 120 114
f 114 120 121
f 115 122 116
f 116 122 123
f 117 123 118
f 118 123 124
f 118 125 119
f 119 125 126
f 119 126 127
f 119 127 128
f 119 128 129
f 120 129 121
f 121 129 128
f 122 130 123
f 123 130 124

