# https://github.com/mikedh/trimesh
v -3.949297725 -0.65461375 1.38780914
v -3.932428945 -0.6611473999999999 1.38780914
v -3.949297725 -0.6587959800000001 1.36955612
v -3.959467225 -0.65847493 1.36955612
v -3.9659753449999995 -0.65831008 1.36955612
v -3.9826529649999998 -0.6598198399999999 1.36955612
v -3.9662468950000003 -0.65672222 1.38780914
v -3.936040105 -0.6645660600000001 1.36955612
v -3.9441274149999996 -0.66100857 1.36955612
v -3.900773655 -0.67955091 1.38780914
v -3.9826529649999998 -0.65980249 1.38780914
v -3.9898249549999996 -0.66323851 1.36955612
v -3.908237355 -0.68826242 1.36955612
v -3.895361985 -0.69471797 1.38780914
v -3.905652195 -0.69531666 1.36955612
v -3.9944117949999995 -0.66543373 1.36955612
v -3.994431895 -0.66544241 1.38780914
v -3.899123975 -0.71166377 1.38780914
v -3.9074426849999995 -0.7282538199999999 1.36955612
v -3.906768745 -0.72500003 1.36955612
v -3.904897795 -0.7113861100000001 1.36955612
v -3.9979927149999996 -0.67804113 1.36955612
v -3.995488085 -0.66916476 1.38780914
v -3.906124975 -0.72798484 1.38780914
v -3.9087302250000002 -0.73333843 1.36955612
v -3.9981235149999996 -0.69471797 1.36955612
v -3.998043055 -0.68296957 1.38780914
v -3.9980027949999997 -0.67804113 1.38780914
v -3.909021935 -0.73385904 1.38780914
v -3.9138099950000003 -0.73704344 1.36955612
v -3.998103415 -0.7113861100000001 1.36955612
v -3.998103415 -0.7113861100000001 1.38780914
v -3.998103415 -0.69471797 1.38780914
v -3.917360745 -0.73936014 1.38780914
v -3.9171494949999994 -0.73938618 1.37605861
v -3.917069035 -0.73940353 1.36955612
v -3.997912265 -0.71788505 1.36955612
v -3.997620555 -0.72806294 1.37605861
v -3.997630635 -0.72806294 1.38780914
v -3.9326301150000003 -0.74255319 1.38780914
v -3.9326301150000003 -0.7425705499999999 1.36955612
v -3.997610475 -0.72806294 1.36955612
v -3.9962223850000003 -0.73244473 1.36955612
v -3.9940496549999995 -0.7393341099999999 1.37605861
v -3.9940496549999995 -0.73936014 1.38780914
v -3.949297725 -0.7429610200000001 1.38780914
v -3.949297725 -0.74291763 1.37605861
v -3.949297725 -0.7428916 1.36955612
v -3.994039635 -0.7393254300000001 1.36955612
v -3.986012625 -0.74181567 1.38780914
v -3.9659753449999995 -0.74324736 1.38780914
v -3.9659753449999995 -0.74313454 1.36955612
v -3.987088915 -0.7414165500000001 1.36955612
v -3.9826529649999998 -0.74283085 1.38780914
v -3.970894145 -0.7431258700000001 1.38780914
v -3.9826529649999998 -0.74273542 1.36955612
v -3.9826529649999998 -0.74277014 1.37605861
f 1 2 3
f 1 3 4
f 1 4 5
f 1 5 6
f 1 6 7
f 1 7 11
f 1 11 17
f 1 17 23
f 1 23 28
f 1 28 27
f 1 27 33
f 1 33 32
f 1 32 39
f 1 39 45
f 1 45 50
f 1 50 54
f 1 54 55
f 1 55 51
f 1 51 46
f 1 46 40
f 1 40 34
f 1 34 29
f 1 29 24
f 1 24 18
f 1 18 14
f 1 14 10
f 1 10 2
f 2 8 9
f 2 9 3
f 2 10 8
f 3 9 8
f 3 8 13
f 3 13 15
f 3 15 21
f 3 21 20
f 3 20 19
f 3 19 25
f 3 25 30
f 3 30 36
f 3 36 41
f 3 41 48
f 3 48 52
f 3 52 56
f 3 56 53
f 3 53 49
f 3 49 43
f 3 43 42
f 3 42 37
f 3 37 31
f 3 31 26
f 3 26 22
f 3 22 16
f 3 16 12
f 3 12 6
f 3 6 5
f 3 5 4
f 6 11 7
f 6 12 11
f 8 10 13
f 10 14 15
f 10 15 13
f 11 12 16
f 11 16 17
f 14 18 19
f 14 19 20
f 14 20 21
f 14 21 15
f 16 22 17
f 17 22 23
f 18 24 25
f 18 25 19
f 22 26 27
f 22 27 28
f 22 28 23
f 24 29 25
f 25 29 30
f 26 31 32
f 26 32 33
f 26 33 27
f 29 34 35
f 29 35 36
f 29 36 30
f 31 37 38
f 31 38 39
f 31 39 32
f 34 40 35
f 35 40 36
f 36 40 41
f 37 42 38
f 38 42 43
f 38 43 44
f 38 44 39
f 39 44 45
f 40 46 41
f 41 46 47
f 41 47 48
f 43 49 44
f 44 49 45
f 45 49 50
f 46 51 47
f 47 51 48
f 48 51 52
f 49 53 54
f 49 54 50
f 51 55 56
f 51 56 52
f 53 56 57
f 53 57 54
f 54 57 55
f 55 57 56

