# https://github.com/mikedh/trimesh
v -0.59000104 -0.34095589 1.96927422
v -0.47586346 -0.34095589 1.96895687
v -0.59000104 -0.34095589 2.02136621
v -0.59000104 -0.30215721 1.96833779
v -0.47586346 -0.34095589 2.01898342
v -0.57931916 -0.30199345 1.96833779
v -0.47586346 -0.30025507 1.96833779
v -0.47903673999999996 -0.34095589 2.02148585
v -0.59000104 -0.33871363 2.02136621
v -0.59000104 -0.23001434 1.96833779
v -0.47594165 -0.34095589 2.0214806
v -0.47586346 -0.32781725 2.0214806
v -0.47586346 -0.21293283000000002 1.96833779
v -0.47903673999999996 -0.32781725 2.0214806
v -0.59000104 -0.31113885 2.02135583
v -0.59000104 -0.23003954000000001 1.9764276
v -0.47586346 -0.21226521 1.9931066
v -0.47586346 -0.21230299000000002 1.9899227
v -0.47586346 -0.21260534 1.9764276
v -0.47586346 -0.31113885 2.02147022
v -0.47903673999999996 -0.31113885 2.02147022
v -0.47586346 -0.25794183 2.02138183
v -0.59000104 -0.30536945 2.02134533
v -0.59000104 -0.23041745 1.9931066
v -0.47586346 -0.21483497000000001 2.00711151
v -0.59000104 -0.23356669000000002 2.01078965
v -0.47586346 -0.30795181 2.02146509
v -0.47586346 -0.24443788 2.02126219
v -0.59000104 -0.26111627 2.02117369
v -0.59000104 -0.27202525 2.02124657
v -0.59000104 -0.27778207 2.02128295
v -0.59000104 -0.28869105 2.0213142
v -0.47586346 -0.21545223000000002 2.0104463
v -0.59000104 -0.23561999 2.01710018
v -0.47586346 -0.24126344 2.02118931
v -0.59000104 -0.25534685 2.02068988
v -0.47586346 -0.21777007 2.0156175
v -0.59000104 -0.23599791 2.01820307
v -0.52907182 -0.24443788 2.02066387
v -0.47586346 -0.2272808 2.01993028
v -0.59000104 -0.24345531 2.01951411
v -0.47586346 -0.21910535 2.01831758
v -0.59000104 -0.24021789 2.01894704
v -0.47586346 -0.22186409 2.01904067
v -0.47586346 -0.22516451 2.01958699
f 1 2 5
f 1 5 11
f 1 11 8
f 1 8 3
f 1 3 9
f 1 9 15
f 1 15 23
f 1 23 32
f 1 32 31
f 1 31 30
f 1 30 29
f 1 29 36
f 1 36 41
f 1 41 43
f 1 43 38
f 1 38 34
f 1 34 26
f 1 26 24
f 1 24 16
f 1 16 10
f 1 10 4
f 1 4 2
f 2 4 6
f 2 6 7
f 2 7 13
f 2 13 19
f 2 19 18
f 2 18 17
f 2 17 25
f 2 25 33
f 2 33 37
f 2 37 42
f 2 42 44
f 2 44 45
f 2 45 40
f 2 40 35
f 2 35 28
f 2 28 22
f 2 22 27
f 2 27 20
f 2 20 12
f 2 12 5
f 3 8 9
f 4 10 13
f 4 13 7
f 4 7 6
f 5 12 11
f 8 11 12
f 8 12 14
f 8 14 15
f 8 15 9
f 10 16 17
f 10 17 18
f 10 18 19
f 10 19 13
f 12 20 21
f 12 21 14
f 14 21 15
f 15 21 22
f 15 22 23
f 16 24 17
f 17 24 26
f 17 26 25
f 20 27 21
f 21 27 22
f 22 28 29
f 22 29 30
f 22 30 31
f 22 31 32
f 22 32 23
f 25 26 33
f 26 34 33
f 28 35 29
f 29 35 36
f 33 34 38
f 33 38 37
f 35 39 36
f 35 40 39
f 36 39 40
f 36 40 41
f 37 38 42
f 38 43 44
f 38 44 42
f 40 45 41
f 41 45 44
f 41 44 43

