# https://github.com/mikedh/trimesh
v 0.34233331 1.46499138 1.55352846
v 0.34233331 1.46512582 1.60910380
v 0.32566712 1.46521887 1.60910380
v 0.32566712 1.46523955 1.57019626
v 0.32566712 1.46524992 1.55352846
v 0.34233331 1.46511548 1.48670140
v 0.35898281 1.46720428 1.53688456
v 0.35898281 1.46770062 1.60910380
v 0.35898281 1.46728699 1.55352846
v 0.31782273 1.47058565 1.60910380
v 0.31387133 1.47328451 1.57019626
v 0.31382114 1.47331554 1.53688456
v 0.31380445 1.47335690 1.52022875
v 0.32566712 1.46534296 1.52022875
v 0.35898281 1.46753518 1.48670140
v 0.32566712 1.46539467 1.50356095
v 0.32566712 1.46558079 1.48670140
v 0.37565740 1.47187822 1.48670140
v 0.37565740 1.47191956 1.60910380
v 0.36455493 1.46907591 1.60910380
v 0.31390471 1.47328451 1.60910380
v 0.31043783 1.48903320 1.52022875
v 0.31388802 1.47330520 1.60353191
v 0.31386298 1.47332588 1.58686405
v 0.31383795 1.47340861 1.50356095
v 0.31387967 1.47357407 1.48670140
v 0.38701045 1.47737938 1.48670140
v 0.38716917 1.47741041 1.60910380
v 0.37950020 1.47374985 1.60910380
v 0.31074694 1.48903320 1.60910380
v 0.31057147 1.48903320 1.57019626
v 0.31045452 1.48903320 1.53688456
v 0.31088058 1.50570219 1.55352846
v 0.31088058 1.50570219 1.53688456
v 0.31095580 1.50570219 1.52022875
v 0.31054643 1.48903320 1.50356095
v 0.31069676 1.48885742 1.48670140
v 0.38712739 1.47745177 1.48670140
v 0.39578212 1.48220844 1.53688456
v 0.39212308 1.48532093 1.60910380
v 0.39578212 1.48231183 1.55481056
v 0.39578212 1.48258071 1.57135856
v 0.39578212 1.48485562 1.58723551
v 0.31093911 1.49460675 1.60910380
v 0.31098084 1.50570219 1.57019626
v 0.31226735 1.52235049 1.60910380
v 0.31205015 1.52235049 1.50356095
v 0.31218379 1.52235049 1.48670140
v 0.31123142 1.50570219 1.48670140
v 0.31066338 1.48903320 1.48670140
v 0.39103707 1.48903320 1.48670140
v 0.39578212 1.48952956 1.50426792
v 0.39578212 1.48910559 1.50505877
v 0.39578212 1.48378020 1.52022875
v 0.39363514 1.48953990 1.60910380
v 0.39578212 1.49018101 1.60248942
v 0.31133167 1.50570219 1.60910380
v 0.31164078 1.51126543 1.60910380
v 0.31509097 1.53402499 1.60910380
v 0.32271816 1.57062027 1.57019626
v 0.32268478 1.57062027 1.56847075
v 0.32245089 1.57062027 1.55352846
v 0.31506593 1.53397331 1.48670140
v 0.32275994 1.57062027 1.53689654
v 0.39102873 1.48921935 1.48670140
v 0.39578212 1.52184382 1.50227878
v 0.39578212 1.50570219 1.50057723
v 0.39507204 1.50255867 1.60910380
v 0.39578212 1.49080144 1.60269309
v 0.32721262 1.54977368 1.60910380
v 0.33476465 1.57062027 1.60731838
v 0.33494007 1.57062027 1.49705439
v 0.32890851 1.54968062 1.48670140
v 0.32311918 1.57062027 1.53517109
v 0.32651924 1.57062027 1.52022875
v 0.32706224 1.57062027 1.51840739
v 0.38992597 1.50570219 1.48670140
v 0.39578212 1.55097319 1.50844982
v 0.39498847 1.50570219 1.60910380
v 0.39578212 1.50515415 1.60697089
v 0.39578212 1.50570219 1.60693495
v 0.37851445 1.54977368 1.60910380
v 0.37903236 1.57062027 1.60731838
v 0.37861471 1.57062027 1.49705439
v 0.37341851 1.54977368 1.48670140
v 0.37526472 1.54977368 1.48670140
v 0.39578212 1.55323778 1.50915680
v 0.39163020 1.51854518 1.60910380
v 0.39578212 1.57062027 1.60187828
v 0.39074465 1.52095454 1.60910380
v 0.38706057 1.57062027 1.50882128
v 0.38764536 1.57062027 1.51019929
v 0.39075299 1.57062027 1.52022875
v 0.39578212 1.57062027 1.54690204
f 1 2 3
f 1 3 4
f 1 4 5
f 1 5 6
f 1 6 7
f 1 7 2
f 2 8 20
f 2 20 19
f 2 19 29
f 2 29 28
f 2 28 40
f 2 40 55
f 2 55 68
f 2 68 79
f 2 79 88
f 2 88 90
f 2 90 82
f 2 82 70
f 2 70 59
f 2 59 46
f 2 46 58
f 2 58 57
f 2 57 44
f 2 44 30
f 2 30 21
f 2 21 10
f 2 10 3
f 2 7 9
f 2 9 8
f 3 10 11
f 3 11 12
f 3 12 4
f 4 12 5
f 5 12 13
f 5 13 14
f 5 14 6
f 6 15 7
f 6 14 16
f 6 16 17
f 6 17 26
f 6 26 37
f 6 37 50
f 6 50 49
f 6 49 48
f 6 48 63
f 6 63 73
f 6 73 85
f 6 85 86
f 6 86 77
f 6 77 65
f 6 65 51
f 6 51 38
f 6 38 27
f 6 27 18
f 6 18 15
f 7 15 18
f 7 18 19
f 7 19 9
f 8 9 20
f 9 19 20
f 10 21 11
f 11 21 12
f 12 22 13
f 12 21 23
f 12 23 24
f 12 24 22
f 13 22 25
f 13 25 16
f 13 16 14
f 16 25 17
f 17 25 26
f 18 27 28
f 18 28 29
f 18 29 19
f 21 30 31
f 21 31 32
f 21 32 23
f 22 24 32
f 22 32 33
f 22 33 34
f 22 34 35
f 22 35 36
f 22 36 26
f 22 26 25
f 23 32 24
f 26 36 37
f 27 38 39
f 27 39 28
f 28 39 41
f 28 41 42
f 28 42 43
f 28 43 40
f 30 44 45
f 30 45 33
f 30 33 31
f 31 33 32
f 33 45 46
f 33 46 47
f 33 47 34
f 34 47 35
f 35 47 48
f 35 48 49
f 35 49 50
f 35 50 36
f 36 50 37
f 38 51 52
f 38 52 53
f 38 53 54
f 38 54 39
f 39 54 53
f 39 53 52
f 39 52 67
f 39 67 66
f 39 66 78
f 39 78 87
f 39 87 94
f 39 94 89
f 39 89 81
f 39 81 80
f 39 80 69
f 39 69 56
f 39 56 43
f 39 43 42
f 39 42 41
f 40 43 56
f 40 56 55
f 44 57 45
f 45 57 58
f 45 58 46
f 46 59 60
f 46 60 61
f 46 61 62
f 46 62 47
f 47 62 48
f 48 62 64
f 48 64 63
f 51 65 66
f 51 66 67
f 51 67 52
f 55 56 68
f 56 69 68
f 59 70 71
f 59 71 60
f 60 71 83
f 60 83 89
f 60 89 94
f 60 94 93
f 60 93 92
f 60 92 91
f 60 91 84
f 60 84 72
f 60 72 76
f 60 76 75
f 60 75 74
f 60 74 64
f 60 64 62
f 60 62 61
f 63 72 73
f 63 64 74
f 63 74 75
f 63 75 76
f 63 76 72
f 65 77 66
f 66 77 78
f 68 69 80
f 68 80 81
f 68 81 79
f 70 82 83
f 70 83 71
f 72 84 86
f 72 86 85
f 72 85 73
f 77 86 84
f 77 84 87
f 77 87 78
f 79 81 89
f 79 89 88
f 82 90 83
f 83 90 88
f 83 88 89
f 84 91 87
f 87 91 92
f 87 92 93
f 87 93 94

