# https://github.com/mikedh/trimesh
v -2.81580358 2.04977639 1.50347398
v -2.82357527 2.04977639 1.50579327
v -2.85694119 2.06508609 1.48867701
v -2.81580358 2.06362058 1.48867701
v -2.81580358 2.04977639 1.60120825
v -2.82789198 2.04977639 1.50713844
v -2.85694119 2.11429485 1.48867701
v -2.85694119 2.04977639 1.54915212
v -2.81580358 2.11455098 1.48867701
v -2.81580358 2.07038618 1.60713402
v -2.85694119 2.07035771 1.60713402
v -2.85694119 2.04977639 1.60120825
v -2.81650424 2.11455098 1.48867701
v -2.85694119 2.12155133 1.53688312
v -2.81580358 2.12171495 1.53688312
v -2.81580358 2.11706229 1.60713402
v -2.85694119 2.11699115 1.60713402
v -2.85694119 2.12213469 1.55353554
v -2.81580358 2.12245483 1.55353554
v -2.83137918 2.11709075 1.60713402
v -2.81580358 2.12066918 1.58687513
v -2.85163390 2.11701958 1.60713402
v -2.84804200 2.12071898 1.58687513
v -2.85694119 2.12066918 1.58687513
v -2.85694119 2.12170073 1.57019953
v -2.81580358 2.12241927 1.55462560
v -2.84804200 2.11703383 1.60713402
v -2.83137918 2.12069764 1.58687513
v -2.81580358 2.12172919 1.57130121
v -2.84804200 2.12172207 1.57019953
v -2.81580358 2.12179321 1.57019953
f 1 2 3
f 1 3 4
f 1 4 9
f 1 9 15
f 1 15 19
f 1 19 26
f 1 26 31
f 1 31 29
f 1 29 21
f 1 21 16
f 1 16 10
f 1 10 5
f 1 5 12
f 1 12 8
f 1 8 6
f 1 6 2
f 2 6 3
f 3 7 13
f 3 13 9
f 3 9 4
f 3 6 8
f 3 8 12
f 3 12 11
f 3 11 17
f 3 17 24
f 3 24 25
f 3 25 18
f 3 18 14
f 3 14 7
f 5 10 11
f 5 11 12
f 7 14 13
f 9 13 15
f 10 16 20
f 10 20 27
f 10 27 22
f 10 22 17
f 10 17 11
f 13 14 15
f 14 18 19
f 14 19 15
f 16 21 28
f 16 28 20
f 17 22 23
f 17 23 24
f 18 25 19
f 19 25 26
f 20 23 27
f 20 28 23
f 21 29 28
f 22 27 23
f 23 28 29
f 23 29 30
f 23 30 25
f 23 25 24
f 25 30 26
f 26 30 31
f 29 31 30

