# https://github.com/mikedh/trimesh
v -3.31008431 1.56032419 1.99742042
v -3.31471825 1.56030653 1.99744069
v -3.31008431 1.56030653 1.99742042
v -3.31008431 1.57233294 1.99670254
v -3.33138224 1.56030653 1.99746083
v -3.33138224 1.57233294 1.99675320
v -3.31008431 1.56030653 1.89444411
v -3.31008431 1.57233294 1.89441377
v -3.34804622 1.56030653 1.99742042
v -3.34805003 1.57233294 1.99676321
v -3.34926991 1.57233294 1.99676321
v -3.31136940 1.56030653 1.89439357
v -3.31471825 1.57233294 1.89418125
v -3.31008431 1.56530193 1.89441377
v -3.34926991 1.56030653 1.99741029
v -3.34926991 1.57233294 1.93536166
v -3.31471825 1.56030653 1.89426208
v -3.32392873 1.57233294 1.89472718
v -3.32456168 1.56030653 1.89477772
v -3.34926991 1.56030653 1.93186337
v -3.32943732 1.57233294 1.90355374
v -3.33233741 1.56030653 1.90277524
f 1 2 3
f 1 3 7
f 1 7 14
f 1 14 8
f 1 8 4
f 1 4 2
f 2 5 9
f 2 9 15
f 2 15 20
f 2 20 22
f 2 22 19
f 2 19 17
f 2 17 12
f 2 12 7
f 2 7 3
f 2 4 6
f 2 6 5
f 4 8 13
f 4 13 18
f 4 18 21
f 4 21 16
f 4 16 11
f 4 11 10
f 4 10 6
f 5 6 10
f 5 10 11
f 5 11 9
f 7 12 13
f 7 13 14
f 8 14 13
f 9 11 15
f 11 16 20
f 11 20 15
f 12 17 13
f 13 17 19
f 13 19 18
f 16 21 22
f 16 22 20
f 18 19 22
f 18 22 21

