# https://github.com/mikedh/trimesh
v 0.40296084 2.04998293 0.83160177
v 0.45209256 2.04998293 0.83360519
v 0.40296084 2.04998293 0.90220708
v 0.40296084 2.06408717 0.61001160
v 0.45209256 2.04998293 0.90129643
v 0.45209256 2.06438597 0.61001160
v 0.40296084 2.06167668 0.92011642
v 0.40296084 2.11070285 0.61001160
v 0.45209256 2.06317077 0.92011642
v 0.45209256 2.11063645 0.61001160
v 0.40296084 2.10906931 0.92011642
v 0.40322060 2.11070285 0.61001160
v 0.40296084 2.11776823 0.82018836
v 0.42566294 2.11782137 0.82018836
v 0.45209256 2.10939469 0.92011642
v 0.44231911 2.11066965 0.61001160
v 0.45209256 2.11780146 0.82018836
v 0.42566294 2.10926851 0.92011642
v 0.40296084 2.11701789 0.85351795
v 0.40296084 2.11768192 0.82622897
v 0.40296084 2.11744952 0.83685316
v 0.45209256 2.11709094 0.85351795
v 0.44231911 2.10936149 0.92011642
v 0.44231911 2.11708429 0.85351795
v 0.40296084 2.11729678 0.84289376
f 1 2 5
f 1 5 3
f 1 3 7
f 1 7 11
f 1 11 19
f 1 19 25
f 1 25 21
f 1 21 20
f 1 20 13
f 1 13 8
f 1 8 4
f 1 4 2
f 2 4 6
f 2 6 10
f 2 10 17
f 2 17 22
f 2 22 15
f 2 15 9
f 2 9 5
f 3 5 7
f 4 8 12
f 4 12 16
f 4 16 10
f 4 10 6
f 5 9 7
f 7 9 15
f 7 15 23
f 7 23 18
f 7 18 11
f 8 13 14
f 8 14 12
f 10 16 17
f 11 18 19
f 12 14 17
f 12 17 16
f 13 20 14
f 14 20 21
f 14 21 22
f 14 22 17
f 15 22 24
f 15 24 19
f 15 19 23
f 18 23 19
f 19 24 25
f 21 25 24
f 21 24 22

