# https://github.com/mikedh/trimesh
v 2.22499177 1.50520347 1.89376129
v 2.22499177 1.52236304 1.89395345
v 2.22499177 1.49771844 1.89481850
v 1.93332567 1.49735351 1.89521363
v 1.89607051 1.50853865 1.89505341
v 1.89607051 1.51835746 1.89505341
v 2.22499177 1.52277888 1.89396418
v 2.22499177 1.49185431 1.90157838
v 1.93467812 1.49735351 1.89521363
v 2.22499177 1.49151486 1.90200551
v 1.89607051 1.49120086 1.90366080
v 1.89607051 1.50020496 1.89533111
v 1.89607051 1.52484109 1.89529904
v 2.09232848 1.53153687 1.89512821
v 2.22499177 1.53431193 1.89493599
v 1.89607051 1.52669112 1.89537379
v 2.22499177 1.48424199 1.91954068
v 1.89607051 1.48509911 1.92021344
v 2.22499177 1.48397040 1.92021344
v 2.22499177 1.54264562 1.89597186
v 1.89607051 1.53902190 1.89912217
v 1.92569431 1.53902190 1.89833193
v 1.94234166 1.53902190 1.89797954
v 1.89607051 1.48517550 1.97021308
v 2.22499177 1.48368188 1.93620007
v 2.22499177 1.48367339 1.93688357
v 2.22499177 1.48352062 1.95354302
v 2.22499177 1.55243047 1.90431223
v 1.94234166 1.54944326 1.90623449
v 1.89607051 1.54898498 1.90730238
v 1.92569431 1.54922260 1.90654414
v 1.89607051 1.48565922 1.97390806
v 2.22499177 1.48363095 1.96952965
v 2.22499177 1.48363944 1.97021308
v 2.22499177 1.48498878 1.98618910
v 2.22499177 1.48504818 1.98687253
v 2.22499177 1.57020956 1.93329540
v 1.89607051 1.57020956 1.93672335
v 1.89607051 1.48741590 1.98687253
v 1.92569431 1.48716979 1.98687253
v 2.22499177 1.49185431 1.99901475
v 2.22499177 1.57020956 1.99887587
v 1.89607051 1.57020956 1.99773324
v 1.89607051 1.48877374 1.98928601
v 1.92569431 1.49333943 1.99785067
v 2.22499177 1.50513558 2.00266700
v 2.22499177 1.53902190 2.00248544
v 1.89607051 1.53902190 1.99992242
v 1.89607051 1.49351765 1.99771190
v 2.22499177 1.50569569 2.00281649
v 2.22499177 1.53833450 2.00250678
v 1.89607051 1.52606312 2.00069133
v 1.89607051 1.52236304 2.00090495
v 1.89607051 1.50569569 2.00054184
v 2.22499177 1.52168414 2.00284855
v 2.22499177 1.52236304 2.00284855
f 1 2 7
f 1 7 15
f 1 15 20
f 1 20 28
f 1 28 37
f 1 37 42
f 1 42 47
f 1 47 51
f 1 51 56
f 1 56 55
f 1 55 50
f 1 50 46
f 1 46 41
f 1 41 36
f 1 36 35
f 1 35 34
f 1 34 33
f 1 33 27
f 1 27 26
f 1 26 25
f 1 25 19
f 1 19 17
f 1 17 10
f 1 10 8
f 1 8 3
f 1 3 4
f 1 4 5
f 1 5 6
f 1 6 2
f 2 6 7
f 3 8 9
f 3 9 4
f 4 9 8
f 4 8 10
f 4 10 11
f 4 11 12
f 4 12 5
f 5 12 11
f 5 11 18
f 5 18 24
f 5 24 32
f 5 32 39
f 5 39 44
f 5 44 49
f 5 49 54
f 5 54 53
f 5 53 52
f 5 52 48
f 5 48 43
f 5 43 38
f 5 38 30
f 5 30 21
f 5 21 16
f 5 16 13
f 5 13 6
f 6 13 7
f 7 14 15
f 7 13 16
f 7 16 14
f 10 17 11
f 11 17 19
f 11 19 18
f 14 20 15
f 14 16 20
f 16 21 22
f 16 22 23
f 16 23 20
f 18 19 25
f 18 25 26
f 18 26 27
f 18 27 24
f 20 23 29
f 20 29 28
f 21 30 31
f 21 31 29
f 21 29 22
f 22 29 23
f 24 27 33
f 24 33 34
f 24 34 35
f 24 35 36
f 24 36 32
f 28 29 38
f 28 38 37
f 29 31 30
f 29 30 38
f 32 36 40
f 32 40 39
f 36 41 40
f 37 38 43
f 37 43 42
f 39 40 45
f 39 45 44
f 40 41 45
f 41 46 45
f 42 43 47
f 43 48 47
f 44 45 49
f 45 46 50
f 45 50 49
f 47 48 52
f 47 52 53
f 47 53 51
f 49 50 54
f 50 55 53
f 50 53 54
f 51 53 56
f 53 55 56

