# https://github.com/mikedh/trimesh
v 0.83252589 1.73905840 1.60036831
v 0.83252589 1.58904413 1.60022824
v 0.84233004 1.58904413 1.60021787
v 0.85899554 1.56916881 1.60016601
v 0.85903187 1.58904413 1.60017638
v 0.84233004 1.73905840 1.60032158
v 0.84233004 1.75572666 1.60032158
v 0.84233004 1.87232003 1.60030602
v 0.83252589 1.87919833 1.60034751
v 0.83252589 1.57237588 1.60020231
v 0.84233004 1.57237588 1.60019712
v 0.84233004 1.56916881 1.60018675
v 0.85903187 1.56916881 1.56365394
v 0.85903187 1.57237588 1.60016601
v 0.85903187 1.73905840 1.60023342
v 0.85903187 1.88898828 1.60021268
v 0.84233004 1.88898828 1.60030084
v 0.83252589 1.88898828 1.60034232
v 0.83252589 1.57051915 1.60019712
v 0.83252589 1.56916881 1.60019194
v 0.85899554 1.56916881 1.55227860
v 0.85903187 1.57233368 1.55334195
v 0.85903187 1.95566130 1.60010891
v 0.84233004 1.95566130 1.60019194
v 0.83252589 1.89586658 1.60033195
v 0.83252589 1.56916881 1.54738198
v 0.83469018 1.56916881 1.54776059
v 0.83252589 1.73905840 1.54794733
v 0.83252589 1.75446071 1.54804592
v 0.83252589 1.88692058 1.54903662
v 0.83252589 1.88898828 1.54905217
v 0.83252589 1.90346224 1.54918187
v 0.83252589 1.90565654 1.54920262
v 0.83252589 2.00026470 1.55030227
v 0.85903187 1.92228259 1.55651128
v 0.85903187 1.90565654 1.55631416
v 0.85903187 2.00026470 1.60001038
v 0.85356408 2.00026470 1.60003631
v 0.84233004 2.00026470 1.60008298
v 0.83252589 1.95566130 1.60022824
v 0.83252589 2.00026470 1.60009854
v 0.85899554 2.00026470 1.55745530
v 0.85903187 2.00022250 1.55745530
v 0.85903187 2.00026470 1.59971468
v 0.83690117 2.00026470 1.60009335
v 0.83252589 1.97232956 1.60018157
v 0.83252589 1.99587610 1.60011409
f 1 2 3
f 1 3 4
f 1 4 5
f 1 5 6
f 1 6 7
f 1 7 8
f 1 8 9
f 1 9 18
f 1 18 25
f 1 25 40
f 1 40 46
f 1 46 47
f 1 47 41
f 1 41 34
f 1 34 33
f 1 33 32
f 1 32 31
f 1 31 30
f 1 30 29
f 1 29 28
f 1 28 26
f 1 26 20
f 1 20 19
f 1 19 10
f 1 10 2
f 2 10 11
f 2 11 3
f 3 11 4
f 4 12 20
f 4 20 26
f 4 26 27
f 4 27 21
f 4 21 13
f 4 13 14
f 4 14 5
f 4 11 12
f 5 14 13
f 5 13 22
f 5 22 36
f 5 36 35
f 5 35 43
f 5 43 44
f 5 44 37
f 5 37 23
f 5 23 16
f 5 16 15
f 5 15 6
f 6 15 7
f 7 15 8
f 8 16 17
f 8 17 9
f 8 15 16
f 9 17 18
f 10 19 11
f 11 19 12
f 12 19 20
f 13 21 22
f 16 23 17
f 17 23 24
f 17 24 25
f 17 25 18
f 21 27 28
f 21 28 29
f 21 29 30
f 21 30 31
f 21 31 32
f 21 32 33
f 21 33 34
f 21 34 35
f 21 35 36
f 21 36 22
f 23 37 24
f 24 37 38
f 24 38 39
f 24 39 40
f 24 40 25
f 26 28 27
f 34 41 45
f 34 45 39
f 34 39 38
f 34 38 37
f 34 37 44
f 34 44 42
f 34 42 43
f 34 43 35
f 39 45 46
f 39 46 40
f 41 47 45
f 42 44 43
f 45 47 46

