# https://github.com/mikedh/trimesh
v -3.515635035 -0.22561526 0.92577563
v -3.5990213950000003 -0.22569516 0.89242937
v -3.5323555449999997 -0.22561526 0.92577563
v -3.6657592049999996 -0.22929090000000002 0.94245685
v -3.282268695 -0.22937082 0.94245685
v -3.265548185 -0.22582502000000002 0.92577563
v -3.365654995 -0.22580504 0.89242937
v -3.5990213950000003 -0.23082908000000002 0.87766543
v -3.6157418449999996 -0.22569516 0.89242937
v -3.365654995 -0.23086904 0.87782724
v -3.6491108050000003 -0.22563524000000001 0.92577563
v -3.6657592049999996 -0.22564523 0.92577563
v -3.6824076649999995 -0.22932087 0.94245685
v -3.8258292549999995 -0.23475441 0.9516388
v -3.6657592049999996 -0.23457463 0.95173588
v -3.298917115 -0.23455465 0.95174397
v -3.0895504449999995 -0.23459461 0.95176015
v -3.0895504449999995 -0.22960054000000002 0.94245685
v -3.248899755 -0.22585499 0.92577563
v -3.348934485 -0.22584500000000002 0.89242937
v -3.0988476350000003 -0.23124858 0.87797286
v -3.232251315 -0.23108877 0.87773826
v -3.348934485 -0.23089899 0.87777869
v -3.6491108050000003 -0.23085905 0.87778679
v -3.6491108050000003 -0.22572513 0.89242937
v -3.6323903049999995 -0.22570515000000002 0.89242937
v -3.515635035 -0.23087901 0.87767353
v -3.232251315 -0.24444291 0.8709347
v -3.5323555449999997 -0.24444291 0.87086189
v -3.5990213950000003 -0.24444291 0.8708538
v -3.782514505 -0.24444291 0.87083764
v -3.6991281750000002 -0.23095891000000002 0.87772206
v -3.8258292549999995 -0.22594487000000002 0.92577563
v -3.8258292549999995 -0.22813227 0.93571802
v -3.8258292549999995 -0.22963049000000002 0.94245685
v -3.8258292549999995 -0.23267688 0.94793366
v -3.8258292549999995 -0.24444291 0.95246396
v -3.6991281750000002 -0.24444291 0.95265003
v -3.6657592049999996 -0.24444291 0.95269856
v -3.0988476350000003 -0.24444291 0.95286036
v -3.0988476350000003 -0.23459461 0.95176015
v -3.0895504449999995 -0.24444291 0.95285227
v -3.0895504449999995 -0.22632443000000002 0.92577563
v -3.0988476350000003 -0.2265142 0.89242937
v -3.248899755 -0.22608471000000002 0.89242937
v -3.265548185 -0.22604475000000002 0.89242937
v -3.0895504449999995 -0.22658412 0.89242937
v -3.0895504449999995 -0.23131849000000002 0.87802139
v -3.0895504449999995 -0.23854991 0.87440523
v -3.0895504449999995 -0.24444291 0.8714848
v -3.0988476350000003 -0.24444291 0.87143627
v -3.782514505 -0.23115868 0.87781105
v -3.782514505 -0.22622454 0.89242937
v -3.8258292549999995 -0.22615463000000002 0.90911059
v -3.8258292549999995 -0.22602479 0.91904489
v -3.0895504449999995 -0.25367196000000003 0.87139582
v -3.232251315 -0.26111312 0.87082954
v -3.248899755 -0.26111312 0.87077291
v -3.8258292549999995 -0.26111312 0.87031987
v -3.8258292549999995 -0.25117491000000003 0.87069201
v -3.8258292549999995 -0.24444291 0.87095898
v -3.7157765749999996 -0.23101885 0.87771398
v -3.8258292549999995 -0.32764413000000003 0.95201903
v -3.8158834649999998 -0.32764413000000003 0.95205138
v -3.799162905 -0.32764413000000003 0.95209183
v -3.782514505 -0.32764413000000003 0.95212419
v -3.6991281750000002 -0.26111312 0.95260958
v -3.4323208149999997 -0.31113372 0.95275519
v -3.4156723849999997 -0.31113372 0.95277137
v -3.1655134249999994 -0.29446351 0.95292508
v -3.1488649950000003 -0.29446351 0.95293318
v -3.0988476350000003 -0.26111312 0.95295744
v -3.0895504449999995 -0.26111312 0.95294936
v -3.8258292549999995 -0.23134846 0.87799713
v -3.8258292549999995 -0.22643428000000002 0.89242937
v -3.0895504449999995 -0.26111312 0.87136346
v -3.0895504449999995 -0.27034216 0.87167088
v -3.0895504449999995 -0.27778332 0.87192976
v -3.248899755 -0.27778332 0.87140392
v -3.265548185 -0.27778332 0.87138774
v -3.298917115 -0.27778332 0.87135538
v -3.315637625 -0.27778332 0.87133919
v -3.8258292549999995 -0.26785511 0.87057875
v -3.8258292549999995 -0.32764413000000003 0.90260637
v -3.7491455350000003 -0.32764413000000003 0.95218082
v -3.4156723849999997 -0.32764413000000003 0.95271475
v -3.1655134249999994 -0.31113372 0.95290082
v -3.1488649950000003 -0.31113372 0.9529089
v -3.1321444849999995 -0.29446351 0.95292508
v -3.1154960649999994 -0.29446351 0.95291699
v -3.0988476350000003 -0.29446351 0.95290082
v -3.0895504449999995 -0.29446351 0.95288463
v -3.0895504449999995 -0.28701237 0.87470457
v -3.265548185 -0.29446351 0.87514141
v -3.282268695 -0.29446351 0.8749958
v -3.298917115 -0.29446351 0.8749149
v -3.5657244749999997 -0.29446351 0.8738794
v -3.5823729349999995 -0.29446351 0.87383085
v -3.5990213950000003 -0.29446351 0.8738066
v -3.8158834649999998 -0.29446351 0.87360435
v -3.8258292549999995 -0.28451534 0.87201874
v -3.8258292549999995 -0.27778332 0.87096706
v -3.8258292549999995 -0.30545047000000003 0.8800034
v -3.8158834649999998 -0.30550041 0.87997103
v -3.432681165 -0.32764413000000003 0.9021857
v -3.399023925 -0.32764413000000003 0.95272284
v -3.1488649950000003 -0.32764413000000003 0.95284419
v -3.1486487949999997 -0.32764413000000003 0.95284419
v -3.1321444849999995 -0.31113372 0.95290082
v -3.0988476350000003 -0.31113372 0.95286036
v -3.0895504449999995 -0.30191466 0.95286845
v -3.1154960649999994 -0.31113372 0.95288463
v -3.0895504449999995 -0.29446351 0.87696162
v -3.282268695 -0.30451158 0.88122496
v -3.298917115 -0.30456153 0.88114406
v -3.5657244749999997 -0.30542052000000003 0.88010857
v -3.5823729349999995 -0.30546046 0.88006003
v -3.5990213950000003 -0.30549043 0.88002766
v -3.6657592049999996 -0.30556035 0.87997913
v -3.8258292549999995 -0.29446351 0.87362053
v -3.8258292549999995 -0.29891822 0.8761931
v -3.365654995 -0.32764413000000003 0.90212098
v -3.416032735 -0.32764413000000003 0.90216952
v -3.1152798649999998 -0.32764413000000003 0.95281182
v -3.0986314349999997 -0.32764413000000003 0.95278756
v -3.0895504449999995 -0.31858488 0.95281182
v -3.0895504449999995 -0.31113372 0.95284419
v -3.0895504449999995 -0.2994476 0.88026228
v -3.265548185 -0.30442169 0.8813544
v -3.0895504449999995 -0.32764413000000003 0.90262255
v -3.265548185 -0.32764413000000003 0.90216952
v -3.348934485 -0.32764413000000003 0.90212098
v -3.0895504449999995 -0.32764413000000003 0.95277137
v -3.0895504449999995 -0.30346283 0.88292383
f 1 2 9
f 1 9 3
f 1 3 4
f 1 4 5
f 1 5 6
f 1 6 7
f 1 7 2
f 2 8 9
f 2 7 10
f 2 10 8
f 3 9 11
f 3 11 4
f 4 11 12
f 4 12 13
f 4 13 14
f 4 14 15
f 4 15 16
f 4 16 17
f 4 17 5
f 5 17 18
f 5 18 6
f 6 18 19
f 6 19 7
f 7 19 20
f 7 20 21
f 7 21 22
f 7 22 23
f 7 23 10
f 8 24 25
f 8 25 26
f 8 26 9
f 8 10 23
f 8 23 27
f 8 27 28
f 8 28 29
f 8 29 30
f 8 30 31
f 8 31 32
f 8 32 24
f 9 26 12
f 9 12 11
f 12 33 13
f 12 26 25
f 12 25 33
f 13 33 34
f 13 34 35
f 13 35 36
f 13 36 14
f 14 36 35
f 14 35 34
f 14 34 33
f 14 33 55
f 14 55 54
f 14 54 75
f 14 75 74
f 14 74 61
f 14 61 60
f 14 60 59
f 14 59 83
f 14 83 102
f 14 102 101
f 14 101 120
f 14 120 121
f 14 121 103
f 14 103 84
f 14 84 63
f 14 63 37
f 14 37 38
f 14 38 39
f 14 39 15
f 15 39 40
f 15 40 41
f 15 41 16
f 16 41 17
f 17 41 40
f 17 40 42
f 17 42 73
f 17 73 92
f 17 92 111
f 17 111 127
f 17 127 126
f 17 126 133
f 17 133 130
f 17 130 134
f 17 134 128
f 17 128 113
f 17 113 93
f 17 93 78
f 17 78 77
f 17 77 76
f 17 76 56
f 17 56 50
f 17 50 49
f 17 49 48
f 17 48 47
f 17 47 43
f 17 43 18
f 18 43 19
f 19 43 44
f 19 44 45
f 19 45 46
f 19 46 20
f 20 46 21
f 21 44 47
f 21 47 48
f 21 48 49
f 21 49 50
f 21 50 51
f 21 51 28
f 21 28 22
f 21 46 45
f 21 45 44
f 22 28 27
f 22 27 23
f 24 32 25
f 25 32 52
f 25 52 53
f 25 53 54
f 25 54 55
f 25 55 33
f 28 51 56
f 28 56 57
f 28 57 58
f 28 58 59
f 28 59 29
f 29 59 30
f 30 59 31
f 31 59 60
f 31 60 61
f 31 61 52
f 31 52 62
f 31 62 32
f 32 62 52
f 37 63 64
f 37 64 65
f 37 65 66
f 37 66 67
f 37 67 38
f 38 67 39
f 39 67 68
f 39 68 69
f 39 69 70
f 39 70 71
f 39 71 72
f 39 72 40
f 40 72 73
f 40 73 42
f 43 47 44
f 50 56 51
f 52 61 74
f 52 74 75
f 52 75 53
f 53 75 54
f 56 76 57
f 57 76 77
f 57 77 78
f 57 78 58
f 58 78 79
f 58 79 80
f 58 80 81
f 58 81 82
f 58 82 59
f 59 82 83
f 63 84 105
f 63 105 123
f 63 123 122
f 63 122 132
f 63 132 131
f 63 131 130
f 63 130 133
f 63 133 125
f 63 125 124
f 63 124 108
f 63 108 107
f 63 107 106
f 63 106 86
f 63 86 85
f 63 85 66
f 63 66 65
f 63 65 64
f 66 85 67
f 67 85 86
f 67 86 68
f 68 86 69
f 69 86 87
f 69 87 70
f 70 87 88
f 70 88 71
f 71 88 109
f 71 109 89
f 71 89 72
f 72 89 90
f 72 90 73
f 73 90 91
f 73 91 92
f 78 93 94
f 78 94 95
f 78 95 96
f 78 96 97
f 78 97 79
f 79 97 98
f 79 98 99
f 79 99 80
f 80 99 81
f 81 99 82
f 82 99 100
f 82 100 101
f 82 101 102
f 82 102 83
f 84 103 104
f 84 104 105
f 86 106 88
f 86 88 87
f 88 107 108
f 88 108 109
f 88 106 107
f 89 109 90
f 90 109 112
f 90 112 91
f 91 110 111
f 91 111 92
f 91 112 110
f 93 113 94
f 94 114 95
f 94 113 114
f 95 114 115
f 95 115 116
f 95 116 96
f 96 116 117
f 96 117 97
f 97 117 118
f 97 118 98
f 98 118 99
f 99 118 119
f 99 119 100
f 100 119 104
f 100 104 120
f 100 120 101
f 103 121 104
f 104 121 120
f 104 119 122
f 104 122 123
f 104 123 105
f 108 124 109
f 109 124 112
f 110 125 126
f 110 126 127
f 110 127 111
f 110 112 124
f 110 124 125
f 113 128 129
f 113 129 114
f 114 129 130
f 114 130 115
f 115 130 116
f 116 130 117
f 117 130 118
f 118 130 131
f 118 131 119
f 119 131 132
f 119 132 122
f 125 133 126
f 128 134 129
f 129 134 130

