# https://github.com/mikedh/trimesh
v -2.2979114149999997 -0.31889352 0.9521182
v -2.2979114149999997 -0.38947678 0.95199677
v -2.2979114149999997 -0.31889352 0.90188183
v -2.2982989050000002 -0.31889352 0.95212326
v -2.2979114149999997 -0.38947678 0.90420417
v -2.331697095 -0.31889352 0.95232564
v -2.3394461149999994 -0.31889352 0.95236105
v -2.348357485 -0.31889352 0.95240154
v -2.3650178649999996 -0.31889352 0.95244707
v -2.331697095 -0.38947678 0.95207772
v -2.7318560549999997 -0.38947678 0.90328839
v -2.4817954650000003 -0.31889352 0.9014973
v -2.381678195 -0.31889352 0.95248248
v -2.3766413650000002 -0.38947678 0.95216373
v -2.748516435 -0.38947678 0.90326309
v -2.7151956950000002 -0.31889352 0.90114314
v -2.398416055 -0.31889352 0.95250779
v -2.3933017549999995 -0.38947678 0.95218397
v -2.765176825 -0.38947678 0.90325804
v -2.815235435 -0.31889352 0.90112796
v -2.398416055 -0.38947678 0.95218903
v -2.406165135 -0.31889352 0.95251284
v -2.4984558549999996 -0.38947678 0.95228011
v -3.0895504449999995 -0.38947678 0.90355655
v -3.0895504449999995 -0.31889352 0.90156308
v -3.0895504449999995 -0.31889352 0.95281136
v -3.0895504449999995 -0.38947678 0.9525432
f 1 2 5
f 1 5 3
f 1 3 12
f 1 12 16
f 1 16 20
f 1 20 25
f 1 25 26
f 1 26 22
f 1 22 17
f 1 17 13
f 1 13 9
f 1 9 8
f 1 8 7
f 1 7 6
f 1 6 4
f 1 4 2
f 2 4 6
f 2 6 7
f 2 7 8
f 2 8 9
f 2 9 10
f 2 10 14
f 2 14 18
f 2 18 21
f 2 21 23
f 2 23 27
f 2 27 24
f 2 24 19
f 2 19 15
f 2 15 11
f 2 11 5
f 3 5 11
f 3 11 12
f 9 13 10
f 10 13 14
f 11 15 12
f 12 15 16
f 13 17 14
f 14 17 18
f 15 19 16
f 16 19 20
f 17 21 18
f 17 22 23
f 17 23 21
f 19 24 20
f 20 24 25
f 22 26 27
f 22 27 23
f 24 27 26
f 24 26 25

