# https://github.com/mikedh/trimesh
v 1.85900721 2.06210700 1.52088935
v 1.90902151 2.03782131 1.55355737
v 1.89234298 2.03782131 1.55348489
v 1.86022446 2.03782131 1.55368623
v 1.85900721 2.03782131 1.55369428
v 1.85900721 2.06210938 1.60269631
v 1.85973326 2.06210938 1.52092958
v 1.90902151 2.06210938 1.52295926
v 2.07717387 2.03782131 1.55486212
v 1.87446848 2.03782131 1.59975652
v 1.85900721 2.03782369 1.59978871
v 1.85900721 2.06210938 1.60299433
v 1.92567876 2.06210938 1.52370831
v 2.07717387 2.06210938 1.53127930
v 2.07717387 2.03782131 1.59975652
v 2.05900045 2.03782131 1.59978066
v 2.07717387 2.06210938 1.60316343
v 1.99956836 2.06210938 1.60316343
v 1.99232890 2.06210938 1.60315538
v 2.07565764 2.03782131 1.59976457
f 1 2 3
f 1 3 4
f 1 4 5
f 1 5 11
f 1 11 12
f 1 12 6
f 1 6 7
f 1 7 8
f 1 8 9
f 1 9 2
f 2 9 15
f 2 15 20
f 2 20 16
f 2 16 10
f 2 10 5
f 2 5 4
f 2 4 3
f 5 10 11
f 6 12 19
f 6 19 18
f 6 18 17
f 6 17 14
f 6 14 13
f 6 13 8
f 6 8 7
f 8 13 9
f 9 14 17
f 9 17 15
f 9 13 14
f 10 16 11
f 11 16 17
f 11 17 18
f 11 18 19
f 11 19 12
f 15 17 20
f 16 20 17

