# https://github.com/mikedh/trimesh
v -3.70302285 1.55388261 0.12780442
v -3.71035028 1.55388261 0.12782480
v -3.71035028 1.58021707 0.13035778
v -3.49808977 1.58021707 0.13092355
v -3.48139736 1.58021707 0.13096939
v -3.31227862 1.58021707 0.13150452
v -3.41474512 1.55388261 0.12882372
v -3.71035028 1.55388261 0.17986609
v -3.71035028 1.58021707 0.17982020
v -3.31008431 1.58021707 0.13151472
v -3.39805265 1.55388261 0.12894603
v -3.71035028 1.55569220 0.17987116
v -3.33320293 1.55388261 0.17955007
v -3.71035028 1.57235747 0.17985077
v -3.33140042 1.57235747 0.17950423
v -3.31474722 1.58021707 0.17944302
v -3.31008431 1.58021707 0.17942776
v -3.31008431 1.55388261 0.12975130
v -3.33140042 1.55569220 0.17955007
v -3.31404185 1.55388261 0.17950930
v -3.31474722 1.57235747 0.17948385
v -3.31008431 1.57698971 0.17944814
v -3.31133817 1.58021707 0.17943288
v -3.31008431 1.55388261 0.17949404
v -3.31474722 1.55569220 0.17951442
v -3.31008431 1.55569220 0.17949910
v -3.31008431 1.56032444 0.17949404
v -3.31008431 1.57235747 0.17946853
f 1 2 3
f 1 3 4
f 1 4 5
f 1 5 6
f 1 6 7
f 1 7 11
f 1 11 18
f 1 18 24
f 1 24 20
f 1 20 13
f 1 13 8
f 1 8 2
f 2 8 12
f 2 12 14
f 2 14 9
f 2 9 3
f 3 9 16
f 3 16 23
f 3 23 17
f 3 17 10
f 3 10 6
f 3 6 5
f 3 5 4
f 6 10 7
f 7 10 11
f 8 13 12
f 9 14 15
f 9 15 16
f 10 17 22
f 10 22 28
f 10 28 27
f 10 27 26
f 10 26 24
f 10 24 18
f 10 18 11
f 12 13 19
f 12 19 14
f 13 20 19
f 14 19 15
f 15 19 21
f 15 21 16
f 16 21 22
f 16 22 23
f 17 23 22
f 19 20 25
f 19 25 21
f 20 24 26
f 20 26 25
f 21 25 27
f 21 27 28
f 21 28 22
f 25 26 27

