# https://github.com/mikedh/trimesh
v 0.78289807 2.05103034 1.92712537
v 0.81362809 2.05103034 1.92712537
v 0.78899144 2.03766693 1.92712537
v 0.42937127 2.05087206 1.93357918
v 0.74009420 2.05103034 1.93202640
v 0.81362809 2.05103034 1.99774314
v 0.81362809 2.03766693 1.92712537
v 0.42937127 2.03766693 1.93782861
v 0.42937127 2.05087206 1.99789561
v 0.74009420 2.05103034 1.99778474
v 0.81362809 2.03766693 1.99664092
v 0.80896404 2.05103034 1.99775697
v 0.80760999 2.03766693 1.99666166
v 0.42937127 2.03766693 1.99702215
v 0.43753336 2.05087206 1.99792338
v 0.75431205 2.05103034 1.99780548
v 0.79230137 2.05103034 1.99780548
v 0.79230137 2.03766693 1.99668944
v 0.45419597 2.05087206 1.99794413
v 0.50903608 2.03766693 1.99696672
v 0.77563870 2.05103034 1.99782623
v 0.52569875 2.03766693 1.99695277
f 1 2 7
f 1 7 3
f 1 3 4
f 1 4 5
f 1 5 10
f 1 10 16
f 1 16 21
f 1 21 17
f 1 17 12
f 1 12 6
f 1 6 2
f 2 6 11
f 2 11 7
f 3 7 11
f 3 11 13
f 3 13 18
f 3 18 22
f 3 22 20
f 3 20 14
f 3 14 8
f 3 8 4
f 4 8 14
f 4 14 9
f 4 9 10
f 4 10 5
f 6 12 13
f 6 13 11
f 9 14 15
f 9 15 10
f 10 15 16
f 12 17 13
f 13 17 18
f 14 19 15
f 14 20 21
f 14 21 19
f 15 19 16
f 16 19 21
f 17 21 18
f 18 21 22
f 20 22 21

