# https://github.com/mikedh/trimesh
v -1.50632652 2.06652103 1.30407747
v -1.50632652 2.06652103 1.37927642
v -1.50632652 2.12784519 1.30407747
v -0.74688479 2.06652103 1.30407747
v -0.79809824 2.06652103 1.37978509
v -0.81359707 2.08006118 1.42492577
v -1.41348341 2.08025421 1.42492577
v -1.43010531 2.08026163 1.42492577
v -1.46357378 2.08029131 1.42492577
v -1.48019569 2.08031357 1.42492577
v -1.50632652 2.08035813 1.42492577
v -1.50632652 2.13477116 1.31253544
v -1.48019569 2.13480826 1.31253544
v -1.46357378 2.13481568 1.31252361
v -1.16355573 2.13494932 1.31242896
v -1.39686150 2.12791198 1.30407747
v -0.74141903 2.06655817 1.30407747
v -0.74141903 2.06652103 1.36258529
v -0.79705003 2.06652103 1.37978509
v -0.74141903 2.08005375 1.42492577
v -1.50632652 2.12443044 1.42492577
v -1.50632652 2.14054651 1.32489707
v -1.46357378 2.14058361 1.32489707
v -1.24681503 2.12794169 1.30407747
v -1.44680208 2.14059103 1.32489707
v -1.16355573 2.14070237 1.32489707
v -0.94694674 2.13485279 1.31245262
v -0.76365645 2.12800848 1.30407747
v -0.74141903 2.12794911 1.30407747
v -0.74141903 2.06652103 1.37954852
v -0.78027836 2.06652103 1.37972594
v -0.74695965 2.06652103 1.37958399
v -0.74141903 2.12470510 1.42492577
v -1.50632652 2.13578814 1.40487507
v -1.46357378 2.12479418 1.42492577
v -1.50632652 2.14148925 1.33430136
v -1.29690540 2.14235779 1.34156458
v -1.01358413 2.14226871 1.34156458
v -0.91362803 2.14223160 1.34156458
v -0.94694674 2.14058361 1.32489707
v -0.76365645 2.13472660 1.31242896
v -0.74141903 2.13465236 1.31249995
v -0.74141903 2.13581782 1.40498153
v -0.74695965 2.13583269 1.40498153
v -0.91362803 2.12509855 1.42492577
v -1.50632652 2.14003429 1.39453626
v -1.44687695 2.12485358 1.42492577
v -1.38023959 2.12501689 1.42492577
v -1.31352731 2.13589948 1.40504069
v -1.33014922 2.14021987 1.39453626
v -1.50632652 2.14220931 1.34156458
v -1.36346790 2.14203857 1.37486409
v -1.18017764 2.14209797 1.37486409
v -1.01358413 2.14207571 1.37486409
v -0.91362803 2.14203115 1.37486409
v -0.74141903 2.14189013 1.34156458
v -0.76365645 2.14033863 1.32489707
v -0.74141903 2.14024955 1.32489707
v -0.74141903 2.13840859 1.32081597
v -0.74141903 2.14001203 1.39453626
v -0.74695965 2.14002687 1.39453626
v -0.75062847 2.14003429 1.39453626
v -0.88030934 2.14146699 1.39153160
v -0.76365645 2.13584754 1.40500519
v -0.93032482 2.12512824 1.42492577
v -1.50632652 2.14125915 1.39153160
v -1.33014922 2.14145215 1.39153160
v -1.16355573 2.12514308 1.42492577
v -1.14685893 2.12515050 1.42492577
v -1.09691832 2.13597372 1.40507618
v -1.09691832 2.14033121 1.39453626
v -1.50632652 2.14182331 1.37486409
v -1.44680208 2.14194207 1.37486409
v -1.09691832 2.14155607 1.39153160
v -1.01358413 2.14154123 1.39153160
v -0.89693124 2.14148925 1.39153160
v -0.74695965 2.14122201 1.39153160
v -0.74141903 2.14135565 1.38604280
v -0.74141903 2.14163031 1.37486409
v -0.74141903 2.14120717 1.39153160
v -0.88030934 2.14024955 1.39453626
v -0.88030934 2.13595888 1.40507618
v -1.50632652 2.14151151 1.38428025
v -0.89693124 2.14026440 1.39453626
f 1 2 11
f 1 11 21
f 1 21 34
f 1 34 46
f 1 46 66
f 1 66 83
f 1 83 72
f 1 72 51
f 1 51 36
f 1 36 22
f 1 22 12
f 1 12 3
f 1 3 16
f 1 16 24
f 1 24 28
f 1 28 29
f 1 29 17
f 1 17 4
f 1 4 18
f 1 18 30
f 1 30 32
f 1 32 31
f 1 31 19
f 1 19 5
f 1 5 2
f 2 5 6
f 2 6 7
f 2 7 8
f 2 8 9
f 2 9 10
f 2 10 11
f 3 12 13
f 3 13 14
f 3 14 15
f 3 15 16
f 4 17 18
f 5 19 20
f 5 20 6
f 6 20 33
f 6 33 45
f 6 45 65
f 6 65 69
f 6 69 68
f 6 68 48
f 6 48 47
f 6 47 35
f 6 35 21
f 6 21 11
f 6 11 10
f 6 10 9
f 6 9 8
f 6 8 7
f 12 22 13
f 13 23 14
f 13 22 23
f 14 23 15
f 15 24 16
f 15 23 25
f 15 25 26
f 15 26 27
f 15 27 28
f 15 28 24
f 17 29 42
f 17 42 59
f 17 59 58
f 17 58 56
f 17 56 79
f 17 79 78
f 17 78 80
f 17 80 60
f 17 60 43
f 17 43 33
f 17 33 20
f 17 20 30
f 17 30 18
f 19 31 20
f 20 31 32
f 20 32 30
f 21 35 34
f 22 36 23
f 23 36 37
f 23 37 25
f 25 37 26
f 26 37 38
f 26 38 39
f 26 39 40
f 26 40 27
f 27 40 41
f 27 41 28
f 28 41 29
f 29 41 42
f 33 43 44
f 33 44 45
f 34 35 47
f 34 47 48
f 34 48 49
f 34 49 50
f 34 50 46
f 36 51 37
f 37 52 53
f 37 53 54
f 37 54 38
f 37 51 52
f 38 54 39
f 39 54 55
f 39 55 56
f 39 56 57
f 39 57 40
f 40 57 41
f 41 57 58
f 41 58 59
f 41 59 42
f 43 60 61
f 43 61 44
f 44 61 62
f 44 62 63
f 44 63 64
f 44 64 65
f 44 65 45
f 46 50 67
f 46 67 66
f 48 68 49
f 49 68 69
f 49 69 70
f 49 70 71
f 49 71 50
f 50 71 67
f 51 72 73
f 51 73 52
f 52 73 66
f 52 66 67
f 52 67 74
f 52 74 53
f 53 74 54
f 54 75 76
f 54 76 55
f 54 74 75
f 55 76 63
f 55 63 77
f 55 77 78
f 55 78 79
f 55 79 56
f 56 58 57
f 60 80 77
f 60 77 61
f 61 77 62
f 62 77 63
f 63 76 81
f 63 81 64
f 64 81 82
f 64 82 65
f 65 82 69
f 66 73 83
f 67 71 74
f 69 82 70
f 70 82 71
f 71 75 74
f 71 82 75
f 72 83 73
f 75 82 84
f 75 84 76
f 76 84 82
f 76 82 81
f 77 80 78

