# https://github.com/mikedh/trimesh
v -0.45295266999999995 -0.29790449 0.3833899
v -0.47889055999999997 -0.29790449 0.3839516
v -0.47889055999999997 -0.29184499 0.38253148
v -0.45295266999999995 -0.2960678 0.38297658
v -0.45295266999999995 -0.29790449 0.44224032
v -0.47889055999999997 -0.29790449 0.44041744
v -0.47889055999999997 -0.27791191 0.38119611
v -0.45295266999999995 -0.24443791 0.37250577
v -0.45295266999999995 -0.29392253 0.38249969
v -0.45295266999999995 -0.27067816 0.46827943
v -0.47889055999999997 -0.27032437 0.46766476
v -0.47889055999999997 -0.27778395 0.38118549
v -0.47889055999999997 -0.26111093 0.38102655
v -0.47889055999999997 -0.24443791 0.38145048
v -0.47889055999999997 -0.23511908 0.38284943
v -0.45295266999999995 -0.22777241 0.37558982
v -0.45295266999999995 -0.26494233 0.4731121
v -0.45295266999999995 -0.24646275 0.48038232
v -0.45295266999999995 -0.24443791 0.48076385
v -0.47889055999999997 -0.26096038 0.4684172
v -0.47889055999999997 -0.23502123 0.3828706
v -0.45295266999999995 -0.22726056 0.37685094
v -0.45295266999999995 -0.22686913 0.47663064
v -0.47889055999999997 -0.23569869 0.46748459
v -0.47889055999999997 -0.24443791 0.46821585
v -0.47889055999999997 -0.23155112 0.39212258
v -0.45295266999999995 -0.22240544 0.39212258
v -0.45295266999999995 -0.22667342000000001 0.47657762
v -0.47889055999999997 -0.23565352 0.46738922
v -0.47889055999999997 -0.2291198 0.40865539
v -0.47889055999999997 -0.22910476000000002 0.40880378
v -0.45295266999999995 -0.22230758 0.39340493
v -0.45295266999999995 -0.22101289000000002 0.4588261
v -0.47889055999999997 -0.23216837 0.4588261
v -0.47889055999999997 -0.229037 0.4253366
v -0.47889055999999997 -0.22902947 0.44199657
v -0.47889055999999997 -0.22902947 0.44214489
f 1 2 3
f 1 3 4
f 1 4 9
f 1 9 8
f 1 8 16
f 1 16 22
f 1 22 27
f 1 27 32
f 1 32 33
f 1 33 28
f 1 28 23
f 1 23 19
f 1 19 18
f 1 18 17
f 1 17 10
f 1 10 5
f 1 5 6
f 1 6 2
f 2 6 11
f 2 11 20
f 2 20 25
f 2 25 24
f 2 24 29
f 2 29 34
f 2 34 37
f 2 37 36
f 2 36 35
f 2 35 31
f 2 31 30
f 2 30 26
f 2 26 21
f 2 21 15
f 2 15 14
f 2 14 13
f 2 13 12
f 2 12 7
f 2 7 3
f 3 7 8
f 3 8 9
f 3 9 4
f 5 10 11
f 5 11 6
f 7 12 8
f 8 13 14
f 8 14 15
f 8 15 16
f 8 12 13
f 10 17 11
f 11 17 18
f 11 18 19
f 11 19 20
f 15 21 16
f 16 21 22
f 19 23 24
f 19 24 25
f 19 25 20
f 21 26 22
f 22 26 27
f 23 28 24
f 24 28 29
f 26 30 27
f 27 30 31
f 27 31 32
f 28 33 34
f 28 34 29
f 31 35 33
f 31 33 32
f 33 35 36
f 33 36 37
f 33 37 34

