# https://github.com/mikedh/trimesh
v -0.74145221 1.63305226 2.00586905
v -0.76359013 1.50585658 2.00686625
v -0.74692861 1.50585658 2.00685874
v -0.74145221 1.51134949 2.00681332
v -0.74145221 1.63305226 1.93012910
v -0.74390829 1.63305226 2.00586154
v -0.81360787 1.52251356 2.00663963
v -0.76359013 1.48918344 2.00672272
v -0.74692861 1.48918344 2.00672272
v -0.81360787 1.50585658 2.00675288
v -0.74145221 1.49467635 2.00676051
v -0.74145221 1.50585658 2.00685111
v -0.74145221 1.55584367 1.92972873
v -0.83026940 1.55584367 1.92994021
v -1.08049090 1.48942648 1.93023484
v -0.83026940 1.63305226 1.93037836
v -0.81360787 1.63305226 2.00564243
v -0.83026940 1.63305226 2.00558951
v -1.08049090 1.50585658 2.00561227
v -0.76359013 1.47649628 2.00319481
v -0.74692861 1.47649628 2.00320244
v -1.08049090 1.48918344 2.00565757
v -1.08049090 1.47683653 2.00273406
v -0.74145221 1.48918344 2.00671521
v -0.74145221 1.53918670 1.92969094
v -0.84693092 1.50585658 1.92981939
v -1.08049090 1.48918344 1.93023484
v -1.08049090 1.63305226 1.93118673
v -1.08049090 1.63305226 2.00441111
v -0.74692861 1.47019321 1.99154600
v -1.08049090 1.47673932 2.00257539
v -1.08049090 1.47050107 1.99154600
v -0.74145221 1.47226723 1.99538361
v -0.74145221 1.47649628 2.00319481
v -0.74145221 1.50585658 1.92975895
v -0.78025164 1.48918344 1.92974381
v -0.79691317 1.48918344 1.92975138
v -0.83026940 1.50585658 1.92979668
v -0.84693092 1.48918344 1.92981939
v -1.08049090 1.47806801 1.93165505
v -0.74145221 1.47019321 1.99154600
v -0.99688458 1.46787612 1.97488111
v -0.93023851 1.46784373 1.97488111
v -1.08049090 1.46800576 1.97488111
v -0.74145221 1.48918344 1.92979668
v -0.78025164 1.47733886 1.93148130
v -0.79691317 1.47733886 1.93148130
v -0.74145221 1.48529465 1.93036328
v -0.74145221 1.47737125 1.93151909
v -1.08049090 1.47790597 1.93167776
v -0.81360787 1.48918344 1.92977403
v -0.74145221 1.46802198 1.97488111
v -0.91354381 1.46784373 1.97488111
v -0.98022307 1.46755208 1.95822374
v -0.93023851 1.46751965 1.95822374
v -1.08049090 1.46777891 1.95822374
v -0.99688458 1.46758447 1.95822374
v -0.74145221 1.47515141 1.93482789
v -0.74145221 1.47064690 1.94155886
v -0.79691317 1.47067929 1.94155886
v -0.89691548 1.47087372 1.94155886
v -0.98022307 1.47105197 1.94155886
v -1.08049090 1.47144087 1.94140776
v -0.74145221 1.46758447 1.95822374
v -1.08049090 1.46782754 1.95797447
v -1.08049090 1.47134365 1.94155886
f 1 2 3
f 1 3 4
f 1 4 12
f 1 12 11
f 1 11 24
f 1 24 34
f 1 34 33
f 1 33 41
f 1 41 52
f 1 52 64
f 1 64 59
f 1 59 58
f 1 58 49
f 1 49 48
f 1 48 45
f 1 45 35
f 1 35 25
f 1 25 13
f 1 13 5
f 1 5 16
f 1 16 28
f 1 28 29
f 1 29 18
f 1 18 17
f 1 17 6
f 1 6 7
f 1 7 2
f 2 8 9
f 2 9 3
f 2 7 10
f 2 10 8
f 3 9 11
f 3 11 12
f 3 12 4
f 5 13 14
f 5 14 15
f 5 15 16
f 6 17 7
f 7 17 18
f 7 18 19
f 7 19 10
f 8 20 21
f 8 21 9
f 8 10 22
f 8 22 23
f 8 23 20
f 9 21 34
f 9 34 24
f 9 24 11
f 10 19 22
f 13 25 26
f 13 26 15
f 13 15 14
f 15 27 40
f 15 40 50
f 15 50 63
f 15 63 66
f 15 66 65
f 15 65 56
f 15 56 44
f 15 44 32
f 15 32 31
f 15 31 23
f 15 23 22
f 15 22 19
f 15 19 29
f 15 29 28
f 15 28 16
f 15 26 39
f 15 39 27
f 18 29 19
f 20 30 21
f 20 23 31
f 20 31 32
f 20 32 30
f 21 30 33
f 21 33 34
f 25 35 36
f 25 36 37
f 25 37 38
f 25 38 26
f 26 38 51
f 26 51 39
f 27 39 40
f 30 41 33
f 30 32 42
f 30 42 43
f 30 43 53
f 30 53 41
f 32 44 42
f 35 45 36
f 36 46 47
f 36 47 37
f 36 45 48
f 36 48 49
f 36 49 46
f 37 47 50
f 37 50 40
f 37 40 51
f 37 51 38
f 39 51 40
f 41 53 52
f 42 44 54
f 42 54 55
f 42 55 43
f 43 55 53
f 44 56 57
f 44 57 54
f 46 49 58
f 46 58 59
f 46 59 47
f 47 59 60
f 47 60 61
f 47 61 62
f 47 62 50
f 50 62 63
f 52 53 64
f 53 55 64
f 54 57 61
f 54 61 60
f 54 60 55
f 55 60 59
f 55 59 64
f 56 65 57
f 57 62 61
f 57 65 62
f 62 65 66
f 62 66 63

