# https://github.com/mikedh/trimesh
v -2.12603587 -0.78148895 1.02048438
v -2.11597768 -0.78143742 1.02048438
v -2.12603587 -0.74972269 1.02048438
v -2.12603587 -0.78150298 1.00353697
v -2.09959402 -0.78131093 1.02048438
v -2.11625663 -0.78146552 0.98686465
v -2.09959402 -0.78135311 0.98686465
v -2.09959402 -0.78133436 1.00353697
v -2.11647795 -0.73567567 1.02048438
v -2.12603587 -0.73584430 1.02039596
v -2.12603587 -0.78149830 0.98686465
v -2.07689937 -0.78113295 1.02048438
v -2.12603587 -0.78148895 0.97708918
v -2.11625663 -0.78144677 0.97021198
v -2.07689937 -0.78114699 0.99289695
v -2.07689937 -0.78114699 1.00956927
v -2.09959402 -0.78128751 0.93687715
v -2.07689937 -0.73414871 1.02048438
v -2.12603587 -0.73514170 0.92011641
v -2.12603587 -0.78147956 0.97021198
v -2.12603587 -0.78146552 0.96043651
v -2.11625663 -0.78141399 0.95353965
v -2.09959402 -0.78125941 0.92011641
v -2.07689937 -0.78104864 0.92011641
v -2.07689937 -0.73405504 1.00353697
v -2.07689937 -0.73365223 0.92011641
v -2.12603587 -0.78137653 0.92011641
v -2.12603587 -0.78143274 0.94376419
v -2.12603587 -0.78141867 0.93687715
v -2.11625663 -0.78134372 0.92011641
f 1 2 5
f 1 5 12
f 1 12 18
f 1 18 9
f 1 9 3
f 1 3 10
f 1 10 19
f 1 19 27
f 1 27 29
f 1 29 28
f 1 28 21
f 1 21 20
f 1 20 13
f 1 13 11
f 1 11 4
f 1 4 2
f 2 4 6
f 2 6 7
f 2 7 8
f 2 8 5
f 3 9 10
f 4 11 6
f 5 8 12
f 6 11 13
f 6 13 14
f 6 14 7
f 7 15 16
f 7 16 8
f 7 14 17
f 7 17 15
f 8 16 12
f 9 18 10
f 10 18 19
f 12 16 15
f 12 15 24
f 12 24 26
f 12 26 25
f 12 25 18
f 13 20 14
f 14 21 28
f 14 28 22
f 14 22 23
f 14 23 17
f 14 20 21
f 15 17 24
f 17 23 24
f 18 25 19
f 19 26 24
f 19 24 23
f 19 23 30
f 19 30 27
f 19 25 26
f 22 28 29
f 22 29 30
f 22 30 23
f 27 30 29

