# https://github.com/mikedh/trimesh
v -1.99516207 1.55604951 0.63917736
v -1.99352235 1.53937543 0.63917736
v -1.99509080 1.57313275 0.63917736
v -1.99503730 1.57270653 0.50256782
v -1.99509080 1.55604951 0.50256782
v -1.98948535 1.52923118 0.63917736
v -1.99342430 1.53936690 0.50256782
v -1.98932491 1.52901806 0.50256782
v -1.99499275 1.58628616 0.63917736
v -1.99492148 1.58308946 0.50256782
v -1.98937841 1.52896692 0.63917736
v -1.97859532 1.52656298 0.50256782
v -1.97859532 1.52643511 0.63917736
v -1.98058263 1.52689546 0.63917736
v -1.99494820 1.58938060 0.63917736
v -1.99484126 1.58938913 0.50256782
v -1.96821325 1.52629874 0.50256782
v -1.96192163 1.52596627 0.63917736
v -1.96544172 1.52606003 0.63917736
v -1.99088447 1.60275566 0.63917736
v -1.99233710 1.59762387 0.50256782
v -1.96192163 1.52614529 0.50256782
v -1.94525683 1.52596627 0.63917736
v -1.97859532 1.60892744 0.63917736
v -1.99080426 1.60262779 0.50886672
v -1.99080426 1.60261926 0.50256782
v -1.94524794 1.52623906 0.50256782
v -1.93166654 1.52607709 0.63917736
v -1.96226027 1.61159564 0.63917736
v -1.97859532 1.60870581 0.52555675
v -1.97859532 1.60863762 0.50256782
v -1.97859532 1.60867171 0.50886672
v -1.92857420 1.52652037 0.50256782
v -1.92857420 1.52611119 0.63917736
v -1.95153957 1.61305334 0.63917736
v -1.96192163 1.60976286 0.50256782
v -1.91607117 1.52887316 0.50256782
v -1.91571469 1.52864298 0.63917736
v -1.93975832 1.61305334 0.63917736
v -1.94628165 1.61305334 0.63753245
v -1.94524794 1.60931958 0.50256782
v -1.94525683 1.61305334 0.63722485
v -1.90887055 1.53936690 0.50256782
v -1.90882600 1.53936690 0.50886672
v -1.90806849 1.53937543 0.63917736
v -1.92828905 1.60669401 0.63917736
v -1.93207651 1.60330123 0.50256782
v -1.94027523 1.60706057 0.50256782
v -1.90764075 1.54567510 0.50256782
v -1.90465534 1.55465147 0.63917736
v -1.91219460 1.58891175 0.63917736
v -1.91563453 1.58478585 0.50256782
v -1.90569799 1.55604951 0.50256782
v -1.90412066 1.56634720 0.63917736
v -1.90412066 1.57543439 0.63917736
v -1.90829131 1.57270653 0.50256782
v -1.90412066 1.57270653 0.63789352
f 1 2 6
f 1 6 11
f 1 11 14
f 1 14 13
f 1 13 19
f 1 19 18
f 1 18 23
f 1 23 28
f 1 28 34
f 1 34 38
f 1 38 45
f 1 45 50
f 1 50 54
f 1 54 55
f 1 55 51
f 1 51 46
f 1 46 39
f 1 39 35
f 1 35 29
f 1 29 24
f 1 24 20
f 1 20 15
f 1 15 9
f 1 9 3
f 1 3 4
f 1 4 5
f 1 5 2
f 2 5 7
f 2 7 8
f 2 8 6
f 3 9 4
f 4 10 16
f 4 16 21
f 4 21 26
f 4 26 31
f 4 31 36
f 4 36 41
f 4 41 48
f 4 48 47
f 4 47 52
f 4 52 56
f 4 56 53
f 4 53 49
f 4 49 43
f 4 43 37
f 4 37 33
f 4 33 27
f 4 27 22
f 4 22 17
f 4 17 12
f 4 12 8
f 4 8 7
f 4 7 5
f 4 9 10
f 6 8 11
f 8 12 13
f 8 13 14
f 8 14 11
f 9 15 16
f 9 16 10
f 12 17 18
f 12 18 19
f 12 19 13
f 15 20 16
f 16 20 21
f 17 22 18
f 18 22 23
f 20 24 25
f 20 25 26
f 20 26 21
f 22 27 23
f 23 27 28
f 24 29 30
f 24 30 26
f 24 26 25
f 26 30 32
f 26 32 31
f 27 33 34
f 27 34 28
f 29 35 32
f 29 32 30
f 31 32 35
f 31 35 36
f 33 37 34
f 34 37 38
f 35 39 42
f 35 42 40
f 35 40 36
f 36 40 42
f 36 42 39
f 36 39 41
f 37 43 44
f 37 44 45
f 37 45 38
f 39 46 47
f 39 47 48
f 39 48 41
f 43 49 50
f 43 50 44
f 44 50 45
f 46 51 47
f 47 51 52
f 49 53 50
f 50 53 54
f 51 55 56
f 51 56 52
f 53 57 54
f 53 56 55
f 53 55 57
f 54 57 55

