# https://github.com/mikedh/trimesh
v -2.98184252 -0.72175701 1.50347398
v -2.97407083 -0.72175701 1.50579327
v -2.94070491 -0.73706671 1.48867701
v -2.98184252 -0.73560120 1.48867701
v -2.98184252 -0.72175701 1.60120825
v -2.96975412 -0.72175701 1.50713844
v -2.94070491 -0.78627547 1.48867701
v -2.94070491 -0.72175701 1.54915212
v -2.98184252 -0.78653160 1.48867701
v -2.98184252 -0.74236680 1.60713402
v -2.94070491 -0.74233833 1.60713402
v -2.94070491 -0.72175701 1.60120825
v -2.98114186 -0.78653160 1.48867701
v -2.94070491 -0.79353195 1.53688312
v -2.98184252 -0.79369557 1.53688312
v -2.98184252 -0.78904291 1.60713402
v -2.94070491 -0.78897177 1.60713402
v -2.94070491 -0.79411531 1.55353554
v -2.98184252 -0.79443545 1.55353554
v -2.96626692 -0.78907137 1.60713402
v -2.98184252 -0.79264980 1.58687513
v -2.94601220 -0.78900020 1.60713402
v -2.94960410 -0.79269960 1.58687513
v -2.94070491 -0.79264980 1.58687513
v -2.94070491 -0.79368135 1.57019953
v -2.98184252 -0.79439989 1.55462560
v -2.94960410 -0.78901445 1.60713402
v -2.96626692 -0.79267826 1.58687513
v -2.98184252 -0.79370981 1.57130121
v -2.94960410 -0.79370269 1.57019953
v -2.98184252 -0.79377383 1.57019953
f 1 2 3
f 1 3 4
f 1 4 9
f 1 9 15
f 1 15 19
f 1 19 26
f 1 26 31
f 1 31 29
f 1 29 21
f 1 21 16
f 1 16 10
f 1 10 5
f 1 5 12
f 1 12 8
f 1 8 6
f 1 6 2
f 2 6 3
f 3 7 13
f 3 13 9
f 3 9 4
f 3 6 8
f 3 8 12
f 3 12 11
f 3 11 17
f 3 17 24
f 3 24 25
f 3 25 18
f 3 18 14
f 3 14 7
f 5 10 11
f 5 11 12
f 7 14 13
f 9 13 15
f 10 16 20
f 10 20 27
f 10 27 22
f 10 22 17
f 10 17 11
f 13 14 15
f 14 18 19
f 14 19 15
f 16 21 28
f 16 28 20
f 17 22 23
f 17 23 24
f 18 25 19
f 19 25 26
f 20 23 27
f 20 28 23
f 21 29 28
f 22 27 23
f 23 28 29
f 23 29 30
f 23 30 25
f 23 25 24
f 25 30 26
f 26 30 31
f 29 31 30

