# https://github.com/mikedh/trimesh
v -2.43291563 -0.76100326 0.09617156
v -2.44959607 -0.76100326 0.09618211
v -2.46625200 -0.74434435 0.09697081
v -2.23733061 -0.74434435 0.09694977
v -2.23733061 -0.76100326 0.09621364
v -2.23733061 -0.77326678 0.09711803
v -2.23733061 -0.77767055 0.09745450
v -2.46625200 -0.77767055 0.09773846
v -2.48756185 -0.76100326 0.09624517
v -2.48290800 -0.74434435 0.09701283
v -2.48290800 -0.73040321 0.10468937
v -2.23733061 -0.73035288 0.10465784
v -2.23733061 -0.78579869 0.10331184
v -2.48756185 -0.78860034 0.10574099
v -2.48756185 -0.77767055 0.09779103
v -2.48756185 -0.77304028 0.09735985
v -2.23733061 -0.78870939 0.10541501
v -2.48756185 -0.74434435 0.09703387
v -2.48756185 -0.73039481 0.10471041
v -2.48756185 -0.70669823 0.13039009
v -2.48339783 -0.70669823 0.13037954
v -2.31683830 -0.70669823 0.13023231
v -2.23772251 -0.70669823 0.13021127
v -2.23733061 -0.70669823 0.13021127
v -2.48756185 -0.79070577 0.11618321
v -2.33293090 -0.78873454 0.10566737
v -2.31627491 -0.78875132 0.10566737
v -2.31627491 -0.79177947 0.12020023
v -2.23733061 -0.79171236 0.12020023
v -2.48756185 -0.70669823 0.18032970
v -2.23733061 -0.70669823 0.17936219
v -2.48756185 -0.79150264 0.12020023
v -2.28293854 -0.79214855 0.13686779
v -2.29961897 -0.79215692 0.13686779
v -2.31627491 -0.79214855 0.13686779
v -2.33293090 -0.79213177 0.13686779
v -2.48290800 -0.79193045 0.13686779
v -2.48756185 -0.79181300 0.13224083
v -2.23733061 -0.79208984 0.13686779
v -2.26628260 -0.79213177 0.13686779
v -2.48756185 -0.73457212 0.20359066
v -2.44959607 -0.70669823 0.18046638
v -2.23733061 -0.73469794 0.20359066
v -2.39957920 -0.70669823 0.18042429
v -2.28293854 -0.79235824 0.15352486
v -2.31627491 -0.79239179 0.15352486
v -2.33293090 -0.79237502 0.15352486
v -2.48756185 -0.79213177 0.15352486
v -2.48756185 -0.79191367 0.13686779
v -2.23733061 -0.79229953 0.15352486
v -2.26628260 -0.79234146 0.15352486
v -2.44959607 -0.73453856 0.20359066
v -2.48756185 -0.78330741 0.20359066
v -2.41625964 -0.70669823 0.18048742
v -2.23733061 -0.78280410 0.20359066
v -2.24960211 -0.73461408 0.20359066
v -2.41194870 -0.70669823 0.18047693
v -2.31627491 -0.79098258 0.17019242
v -2.33293090 -0.79099096 0.17019242
v -2.34961134 -0.79099096 0.17019242
v -2.38292327 -0.79098258 0.17019242
v -2.43291563 -0.79093224 0.17019242
v -2.44959607 -0.79089031 0.17019242
v -2.48756185 -0.79061351 0.17019242
v -2.23733061 -0.79075611 0.17019242
v -2.36624284 -0.73450503 0.20359066
v -2.46617857 -0.78327385 0.20359066
v -2.26628260 -0.73459730 0.20359066
v -2.39950571 -0.78313965 0.20359066
f 1 2 3
f 1 3 4
f 1 4 5
f 1 5 6
f 1 6 7
f 1 7 2
f 2 7 8
f 2 8 9
f 2 9 3
f 3 9 10
f 3 10 11
f 3 11 12
f 3 12 4
f 4 12 24
f 4 24 31
f 4 31 43
f 4 43 55
f 4 55 65
f 4 65 50
f 4 50 39
f 4 39 29
f 4 29 17
f 4 17 13
f 4 13 7
f 4 7 6
f 4 6 5
f 7 13 8
f 8 14 15
f 8 15 16
f 8 16 9
f 8 13 17
f 8 17 14
f 9 16 15
f 9 15 14
f 9 14 25
f 9 25 32
f 9 32 38
f 9 38 49
f 9 49 48
f 9 48 64
f 9 64 53
f 9 53 41
f 9 41 30
f 9 30 20
f 9 20 19
f 9 19 18
f 9 18 10
f 10 18 19
f 10 19 11
f 11 19 20
f 11 20 21
f 11 21 22
f 11 22 12
f 12 22 23
f 12 23 24
f 14 17 26
f 14 26 27
f 14 27 28
f 14 28 25
f 17 29 28
f 17 28 27
f 17 27 26
f 20 30 42
f 20 42 54
f 20 54 57
f 20 57 44
f 20 44 31
f 20 31 24
f 20 24 23
f 20 23 22
f 20 22 21
f 25 28 32
f 28 29 33
f 28 33 34
f 28 34 35
f 28 35 36
f 28 36 37
f 28 37 38
f 28 38 32
f 29 39 40
f 29 40 33
f 30 41 42
f 31 44 43
f 33 40 51
f 33 51 45
f 33 45 46
f 33 46 34
f 34 46 35
f 35 46 47
f 35 47 36
f 36 47 37
f 37 48 49
f 37 49 38
f 37 47 48
f 39 50 51
f 39 51 40
f 41 52 42
f 41 53 67
f 41 67 69
f 41 69 55
f 41 55 43
f 41 43 56
f 41 56 68
f 41 68 66
f 41 66 52
f 42 52 54
f 43 44 56
f 44 57 56
f 45 51 58
f 45 58 46
f 46 58 59
f 46 59 60
f 46 60 61
f 46 61 62
f 46 62 47
f 47 62 48
f 48 62 63
f 48 63 64
f 50 65 58
f 50 58 51
f 52 66 54
f 53 64 63
f 53 63 62
f 53 62 61
f 53 61 60
f 53 60 59
f 53 59 58
f 53 58 67
f 54 66 68
f 54 68 56
f 54 56 57
f 55 58 65
f 55 69 58
f 58 69 67

