# https://github.com/mikedh/trimesh
v -2.48756185 -0.73557452 0.92162212
v -2.48756185 -0.78299925 0.92162212
v -2.49960920 -0.73552437 0.92162212
v -2.48765859 -0.73516829 1.09364918
v -2.48756185 -0.73517830 1.09359866
v -2.48756185 -0.78305441 0.94891812
v -2.84956340 -0.78563228 1.00354378
v -2.89959142 -0.78577771 0.92162212
v -2.50110908 -0.73551936 0.92162212
v -2.48756185 -0.73541404 1.09364918
v -2.51630135 -0.73548425 0.92162212
v -2.49960920 -0.73514322 1.09364918
v -2.48756185 -0.78308952 0.97021943
v -2.84956340 -0.78566238 1.02019754
v -2.89959142 -0.78592819 1.00354378
v -2.98184251 -0.78628927 0.93687824
v -2.98150382 -0.78625920 0.92162212
v -2.48756185 -0.78298921 1.09364918
v -2.58471489 -0.73549427 0.92162212
v -2.59961685 -0.73549930 0.92162212
v -2.75091047 -0.73562468 0.92162212
v -2.98184251 -0.73585538 0.92162212
v -2.98184251 -0.73620646 1.09364918
v -2.48756185 -0.78310457 0.98224247
v -2.88289928 -0.78568744 1.09364918
v -2.89281779 -0.78574764 1.09364918
v -2.89959142 -0.78578776 1.09364918
v -2.88289928 -0.78581786 1.03686813
v -2.88289928 -0.78584793 1.02019754
v -2.48756185 -0.78310958 0.98687319
v -2.48756185 -0.78311962 1.00354378
v -2.48756185 -0.78311459 1.02019754
v -2.48756185 -0.78310457 1.03686813
v -2.98184251 -0.78637454 1.00354378
v -2.98184251 -0.78635448 0.98687319
v -2.98184251 -0.78625920 0.92162212
v -2.98184251 -0.78618395 1.09364918
v -2.90946155 -0.78583791 1.09364918
v -2.98184251 -0.78634447 1.03796266
v -2.98184251 -0.78637454 1.02129207
f 1 2 8
f 1 8 17
f 1 17 36
f 1 36 22
f 1 22 21
f 1 21 20
f 1 20 19
f 1 19 11
f 1 11 9
f 1 9 3
f 1 3 4
f 1 4 5
f 1 5 10
f 1 10 18
f 1 18 33
f 1 33 32
f 1 32 31
f 1 31 30
f 1 30 24
f 1 24 13
f 1 13 6
f 1 6 2
f 2 6 7
f 2 7 8
f 3 9 4
f 4 10 5
f 4 9 11
f 4 11 12
f 4 12 23
f 4 23 37
f 4 37 38
f 4 38 27
f 4 27 26
f 4 26 25
f 4 25 18
f 4 18 10
f 6 13 14
f 6 14 7
f 7 14 15
f 7 15 8
f 8 15 16
f 8 16 17
f 11 19 12
f 12 19 20
f 12 20 21
f 12 21 22
f 12 22 23
f 13 24 14
f 14 25 26
f 14 26 27
f 14 27 28
f 14 28 29
f 14 29 15
f 14 24 30
f 14 30 31
f 14 31 32
f 14 32 33
f 14 33 18
f 14 18 25
f 15 29 34
f 15 34 35
f 15 35 16
f 16 35 34
f 16 34 40
f 16 40 39
f 16 39 37
f 16 37 23
f 16 23 22
f 16 22 36
f 16 36 17
f 27 38 39
f 27 39 28
f 28 39 40
f 28 40 29
f 29 40 34
f 37 39 38

