# https://github.com/mikedh/trimesh
v 0.24060853 -0.28813617 1.99850990
v 0.24060853 -0.28805353 1.99827303
v 0.23039406 -0.28805353 1.99850990
v 0.22478731 -0.28805353 1.99850990
v 0.24060853 -0.44453142 1.99840392
v 0.24060853 -0.28805353 1.93945755
v 0.22478731 -0.28805353 1.93482540
v 0.22478731 -0.44436610 1.99837901
v 0.24060853 -0.46118768 1.99838520
v 0.23448136 -0.28805353 1.93759966
v 0.24060852 -0.49421088 1.93919571
v 0.22478730 -0.52835001 1.93514953
v 0.24060852 -0.71028759 1.93898369
v 0.22478730 -0.67767769 1.99806107
v 0.24060852 -0.66114544 1.99809838
v 0.24060852 -0.51082581 1.93917699
v 0.24004628 -0.71028759 1.93885906
v 0.22478730 -0.71028759 1.93572937
v 0.24060852 -0.71028759 1.99793006
v 0.22478730 -0.69363133 1.99802984
v 0.24060852 -0.67767769 1.99807347
v 0.22478730 -0.71028759 1.99795497
v 0.22483070 -0.71028759 1.99795497
v 0.24060852 -0.69449927 1.99802364
v 0.22478730 -0.70962630 1.99796129
f 1 2 3
f 1 3 4
f 1 4 5
f 1 5 9
f 1 9 15
f 1 15 21
f 1 21 24
f 1 24 19
f 1 19 13
f 1 13 16
f 1 16 11
f 1 11 6
f 1 6 2
f 2 6 10
f 2 10 7
f 2 7 4
f 2 4 3
f 4 7 12
f 4 12 18
f 4 18 22
f 4 22 25
f 4 25 20
f 4 20 14
f 4 14 8
f 4 8 5
f 5 8 9
f 6 11 10
f 7 10 13
f 7 13 12
f 8 14 9
f 9 14 15
f 10 11 16
f 10 16 13
f 12 13 17
f 12 17 18
f 13 19 23
f 13 23 22
f 13 22 18
f 13 18 17
f 14 20 21
f 14 21 15
f 19 24 25
f 19 25 23
f 20 25 24
f 20 24 21
f 22 23 25

