# https://github.com/mikedh/trimesh
v -3.24153250 -0.29141359 0.89803747
v -3.24153250 -0.27766699 0.89810904
v -3.24153250 -0.29141359 0.83794138
v -3.23001688 -0.29141359 0.89805699
v -3.24153250 -0.26100526 0.89818062
v -3.21625531 -0.29141359 0.89807651
v -3.19959440 -0.27766699 0.89816761
v -3.24153250 -0.22932657 0.83182440
v -3.03298542 -0.29140023 0.83575488
v -3.03586432 -0.29141359 0.83582647
v -3.24153250 -0.24433014 0.89822617
v -3.19959440 -0.26100526 0.89823269
v -3.19959440 -0.29141359 0.89808952
v -3.18293351 -0.27766699 0.89818062
v -3.18293351 -0.26100526 0.89825221
v -3.24153250 -0.15571269 0.83182440
v -3.03298542 -0.23118529 0.83182440
v -3.03298542 -0.29141359 0.89729561
v -3.24153250 -0.23628010 0.89823919
v -3.18293351 -0.24433014 0.89829125
v -3.18293351 -0.29141359 0.89809603
v -3.16625219 -0.27766699 0.89818713
v -3.16625219 -0.26100526 0.89825871
v -3.24153250 -0.15489700 0.83687416
v -3.14959129 -0.15483015 0.83687416
v -3.14959129 -0.15565920 0.83182440
v -3.03298542 -0.15659527 0.83182440
v -3.03298542 -0.29141359 0.89794636
v -3.24153250 -0.22766841 0.89825221
v -3.16625219 -0.24433014 0.89829776
v -3.18293351 -0.22766841 0.89829776
v -3.19959440 -0.22766841 0.89829125
v -3.16335288 -0.29141359 0.89809603
v -3.14959129 -0.27766699 0.89816761
v -3.14959129 -0.26100526 0.89823919
v -3.24153250 -0.15517783 0.85353968
v -3.14959129 -0.15516445 0.85353968
v -3.13295081 -0.15487026 0.83687416
v -3.14454810 -0.15567258 0.83182440
v -3.03298542 -0.15573946 0.83687416
v -3.13295081 -0.15571269 0.83182440
v -3.03298542 -0.27766699 0.89801143
v -3.23291619 -0.21100666 0.89822617
v -3.24153250 -0.21100666 0.89821316
v -3.14959129 -0.24433014 0.89827824
v -3.14959129 -0.22766841 0.89829125
v -3.16625219 -0.22766841 0.89829776
v -3.19959440 -0.21100666 0.89824570
v -3.21625531 -0.21100666 0.89823919
v -3.24153250 -0.15587318 0.87019868
v -3.23291619 -0.15587318 0.87019868
v -3.14959129 -0.15595341 0.87019868
v -3.13295081 -0.15520456 0.85353968
v -3.11626949 -0.15531152 0.85353968
v -3.03298542 -0.15596676 0.85353968
v -3.03298542 -0.26100526 0.89802444
v -3.21625531 -0.19434495 0.89818713
v -3.24153250 -0.20295661 0.89818062
v -3.16625219 -0.21100666 0.89823269
v -3.18293351 -0.21100666 0.89824570
v -3.03298542 -0.19434495 0.89805047
v -3.14959129 -0.21100666 0.89821966
v -3.24153250 -0.15886855 0.87882103
v -3.16625219 -0.16154297 0.88687071
v -3.09960860 -0.16150285 0.88687071
v -3.13295081 -0.15599352 0.87019868
v -3.11626949 -0.15608713 0.87019868
v -3.03298542 -0.15671561 0.87019868
v -3.19959440 -0.17768320 0.89754289
v -3.21625531 -0.17768320 0.89751687
v -3.24153250 -0.19434495 0.89814158
v -3.19959440 -0.19434495 0.89818062
v -3.09960860 -0.17768320 0.89769907
v -3.03298542 -0.17768320 0.89746481
v -3.08294770 -0.17768320 0.89769257
v -3.24153250 -0.16167669 0.88687071
v -3.09960860 -0.16780115 0.89629998
v -3.08294770 -0.16780115 0.89629998
v -3.08294770 -0.16158308 0.88687071
v -3.03298542 -0.16209125 0.88687071
v -3.24153250 -0.17768320 0.89745830
v -3.03298542 -0.16810871 0.89603317
v -3.24153250 -0.16500635 0.89159511
v -3.24153250 -0.16814882 0.89600714
f 1 2 5
f 1 5 11
f 1 11 19
f 1 19 29
f 1 29 44
f 1 44 58
f 1 58 71
f 1 71 81
f 1 81 84
f 1 84 83
f 1 83 76
f 1 76 63
f 1 63 50
f 1 50 36
f 1 36 24
f 1 24 16
f 1 16 8
f 1 8 3
f 1 3 10
f 1 10 18
f 1 18 28
f 1 28 33
f 1 33 21
f 1 21 13
f 1 13 6
f 1 6 4
f 1 4 2
f 2 4 6
f 2 6 7
f 2 7 5
f 3 8 9
f 3 9 10
f 5 7 12
f 5 12 11
f 6 13 14
f 6 14 7
f 7 14 15
f 7 15 12
f 8 16 26
f 8 26 39
f 8 39 41
f 8 41 27
f 8 27 17
f 8 17 9
f 9 17 27
f 9 27 40
f 9 40 55
f 9 55 68
f 9 68 80
f 9 80 82
f 9 82 74
f 9 74 61
f 9 61 56
f 9 56 42
f 9 42 28
f 9 28 18
f 9 18 10
f 11 12 15
f 11 15 20
f 11 20 19
f 13 21 14
f 14 21 22
f 14 22 23
f 14 23 15
f 15 23 30
f 15 30 20
f 16 24 25
f 16 25 26
f 19 20 29
f 20 30 31
f 20 31 32
f 20 32 29
f 21 33 22
f 22 33 28
f 22 28 34
f 22 34 35
f 22 35 23
f 23 35 45
f 23 45 30
f 24 36 25
f 25 36 37
f 25 37 53
f 25 53 38
f 25 38 26
f 26 38 39
f 27 41 40
f 28 42 34
f 29 43 44
f 29 32 43
f 30 45 46
f 30 46 47
f 30 47 31
f 31 48 49
f 31 49 32
f 31 47 60
f 31 60 48
f 32 49 43
f 34 42 35
f 35 42 45
f 36 50 37
f 37 50 51
f 37 51 52
f 37 52 66
f 37 66 53
f 38 41 39
f 38 53 54
f 38 54 55
f 38 55 40
f 38 40 41
f 42 56 46
f 42 46 45
f 43 49 57
f 43 57 44
f 44 57 58
f 46 59 60
f 46 60 47
f 46 56 61
f 46 61 62
f 46 62 59
f 48 60 57
f 48 57 49
f 50 63 64
f 50 64 65
f 50 65 51
f 51 65 52
f 52 65 66
f 53 66 67
f 53 67 54
f 54 67 68
f 54 68 55
f 57 69 70
f 57 70 71
f 57 71 58
f 57 60 72
f 57 72 75
f 57 75 73
f 57 73 69
f 59 72 60
f 59 62 61
f 59 61 72
f 61 74 75
f 61 75 72
f 63 76 64
f 64 76 77
f 64 77 65
f 65 77 78
f 65 78 79
f 65 79 66
f 66 79 67
f 67 79 68
f 68 79 80
f 69 73 77
f 69 77 70
f 70 81 71
f 70 77 81
f 73 75 78
f 73 78 77
f 74 82 78
f 74 78 75
f 76 83 77
f 77 83 84
f 77 84 81
f 78 82 79
f 79 82 80

