# https://github.com/mikedh/trimesh
v 1.67433094 -0.15524396 1.92021833
v 1.67433094 -0.15532845 1.91999994
v 1.67411415 -0.15524396 1.92021833
v 1.67433094 -0.15595076 1.97020372
v 1.67433094 -0.16359518 1.90191330
v 1.65744969 -0.16221997 1.90365019
v 1.65744969 -0.15529004 1.92021833
v 1.65744969 -0.15601224 1.97020372
v 1.64078523 -0.15943110 1.98687593
v 1.65744969 -0.15940804 1.98687593
v 1.67433094 -0.15937731 1.98665748
v 1.67433094 -0.16374884 1.90175726
v 1.63615099 -0.16271165 1.90319255
v 1.64078523 -0.16228911 1.90367100
v 1.64078523 -0.15539759 1.92021833
v 1.64078523 -0.15613515 1.97020372
v 1.63615099 -0.15946183 1.98687593
v 1.63615099 -0.16126730 1.98976726
v 1.64078523 -0.16599223 1.99727655
v 1.67433094 -0.15942341 1.98687593
v 1.67433094 -0.17654844 1.89513209
v 1.66909874 -0.17045596 1.89523610
v 1.63615099 -0.16045291 1.90826804
v 1.63615099 -0.17225374 1.89530888
v 1.63615099 -0.15547443 1.92021833
v 1.63615099 -0.15552053 1.92484661
v 1.63615099 -0.15617356 1.97020372
v 1.63615099 -0.15708782 1.97484237
v 1.63615099 -0.16600760 1.99727655
v 1.67433094 -0.16607675 1.99719334
v 1.65744969 -0.16602295 1.99722445
v 1.63615099 -0.16924208 1.99799419
v 1.64078523 -0.17767781 1.99984541
v 1.67433094 -0.16598454 1.99705816
v 1.67433094 -0.17670210 1.89512166
v 1.63615099 -0.18009790 1.89511128
v 1.63615099 -0.17730903 1.89516326
v 1.67433094 -0.17767781 1.99969985
v 1.63615099 -0.17767781 1.99984541
v 1.63615099 -0.18231056 2.00003269
v 1.63615099 -0.19434188 2.00050071
v 1.64078523 -0.19434188 2.00049034
v 1.67433094 -0.19434188 2.00040713
v 1.67433094 -0.19475673 1.89510085
v 1.64078523 -0.23372406 1.89424802
v 1.64078523 -0.22767000 1.89428963
v 1.63615099 -0.22206922 1.89449765
v 1.63615099 -0.21100592 1.99965825
v 1.65744969 -0.21100592 1.99962702
v 1.67433094 -0.21100592 1.99956467
v 1.67433094 -0.19532528 1.89510085
v 1.65055445 -0.23372406 1.89476808
v 1.63615099 -0.23372406 1.89443524
v 1.63615099 -0.22767000 1.89446642
v 1.67433094 -0.19651613 1.89511128
v 1.65744969 -0.23372406 1.99738050
v 1.63615099 -0.23372406 1.99733890
v 1.64078523 -0.23372406 1.99734927
v 1.65140281 -0.23372406 1.99737013
v 1.67433094 -0.23372406 1.99733890
v 1.67433094 -0.20868571 1.89675460
v 1.67433094 -0.20988425 1.89699379
v 1.67433094 -0.22271458 1.90582393
v 1.65805510 -0.23372406 1.90287014
v 1.67433094 -0.23372406 1.97504002
v 1.67433094 -0.23244103 1.93187745
v 1.67430477 -0.23372406 1.93224146
f 1 2 3
f 1 3 4
f 1 4 11
f 1 11 20
f 1 20 34
f 1 34 30
f 1 30 38
f 1 38 43
f 1 43 50
f 1 50 60
f 1 60 65
f 1 65 66
f 1 66 63
f 1 63 62
f 1 62 61
f 1 61 55
f 1 55 51
f 1 51 44
f 1 44 35
f 1 35 21
f 1 21 12
f 1 12 5
f 1 5 2
f 2 5 6
f 2 6 7
f 2 7 3
f 3 7 4
f 4 8 9
f 4 9 10
f 4 10 11
f 4 7 8
f 5 12 13
f 5 13 6
f 6 13 14
f 6 14 7
f 7 14 15
f 7 15 8
f 8 16 17
f 8 17 9
f 8 15 16
f 9 17 18
f 9 18 19
f 9 19 10
f 10 19 20
f 10 20 11
f 12 21 22
f 12 22 13
f 13 23 14
f 13 22 24
f 13 24 37
f 13 37 36
f 13 36 47
f 13 47 54
f 13 54 53
f 13 53 57
f 13 57 48
f 13 48 41
f 13 41 40
f 13 40 39
f 13 39 32
f 13 32 29
f 13 29 18
f 13 18 17
f 13 17 28
f 13 28 27
f 13 27 26
f 13 26 25
f 13 25 23
f 14 23 25
f 14 25 15
f 15 25 26
f 15 26 27
f 15 27 16
f 16 27 28
f 16 28 17
f 18 29 19
f 19 30 31
f 19 31 20
f 19 29 32
f 19 32 33
f 19 33 30
f 20 31 34
f 21 35 22
f 22 35 36
f 22 36 37
f 22 37 24
f 30 34 31
f 30 33 38
f 32 39 33
f 33 39 40
f 33 40 41
f 33 41 42
f 33 42 43
f 33 43 38
f 35 44 45
f 35 45 46
f 35 46 36
f 36 46 47
f 41 48 49
f 41 49 42
f 42 49 43
f 43 49 50
f 44 51 45
f 45 52 64
f 45 64 67
f 45 67 65
f 45 65 60
f 45 60 56
f 45 56 59
f 45 59 58
f 45 58 57
f 45 57 53
f 45 53 54
f 45 54 47
f 45 47 46
f 45 51 55
f 45 55 52
f 48 56 49
f 48 57 58
f 48 58 59
f 48 59 56
f 49 56 60
f 49 60 50
f 52 55 61
f 52 61 62
f 52 62 63
f 52 63 64
f 63 66 67
f 63 67 64
f 65 67 66

