# https://github.com/mikedh/trimesh
v 2.05399571 -0.15419691 1.53689624
v 2.05399571 -0.15577251 1.52022773
v 1.99628735 -0.15833398 1.53688581
v 2.05399571 -0.15429374 1.55480442
v 1.99628735 -0.16030569 1.52022773
v 2.05399571 -0.16108908 1.50504893
v 1.99628735 -0.15843960 1.54805367
v 1.99628735 -0.15849241 1.55355433
v 2.05399571 -0.15455782 1.57135838
v 1.99628735 -0.16584232 1.50907025
v 2.05399571 -0.16152041 1.50425720
v 1.99628735 -0.15924943 1.57020198
v 2.05399571 -0.15683759 1.58724553
v 1.99628735 -0.16975933 1.50809094
v 2.05399571 -0.17768136 1.50055888
v 1.99628735 -0.17768136 1.50612200
v 1.99628735 -0.16208374 1.58136989
v 1.99628735 -0.16352732 1.58686006
v 2.05399571 -0.16217178 1.60249722
v 2.05399571 -0.19385109 1.50226740
v 1.99628735 -0.21099791 1.50727834
v 1.99628735 -0.19435285 1.50598658
v 1.99628735 -0.18318276 1.50606991
v 1.99628735 -0.16665211 1.59324621
v 1.99628735 -0.16823654 1.59638192
v 1.99628735 -0.17768136 1.59944479
v 2.05399571 -0.16278791 1.60269511
v 2.05399571 -0.22294258 1.50845560
v 1.99628735 -0.22082123 1.51022659
v 1.99628735 -0.19435285 1.60126787
v 2.05399571 -0.17714440 1.60698728
v 2.05399571 -0.22521357 1.50916401
v 1.99628735 -0.24411202 1.55411688
v 1.99628735 -0.24411202 1.60097622
v 2.05399571 -0.24411202 1.60188258
v 2.05399571 -0.24411202 1.54758487
f 1 2 3
f 1 3 4
f 1 4 9
f 1 9 13
f 1 13 19
f 1 19 27
f 1 27 31
f 1 31 35
f 1 35 36
f 1 36 32
f 1 32 28
f 1 28 20
f 1 20 15
f 1 15 11
f 1 11 6
f 1 6 2
f 2 5 3
f 2 6 5
f 3 5 10
f 3 10 14
f 3 14 16
f 3 16 23
f 3 23 22
f 3 22 21
f 3 21 29
f 3 29 33
f 3 33 34
f 3 34 30
f 3 30 26
f 3 26 25
f 3 25 24
f 3 24 18
f 3 18 17
f 3 17 12
f 3 12 8
f 3 8 7
f 3 7 4
f 4 8 9
f 4 7 8
f 5 6 10
f 6 11 10
f 8 12 9
f 9 12 13
f 10 11 14
f 11 15 16
f 11 16 14
f 12 17 13
f 13 17 18
f 13 18 19
f 15 20 21
f 15 21 22
f 15 22 23
f 15 23 16
f 18 24 19
f 19 25 26
f 19 26 27
f 19 24 25
f 20 28 21
f 21 28 29
f 26 30 31
f 26 31 27
f 28 32 29
f 29 32 33
f 30 34 31
f 31 34 35
f 32 36 33
f 33 36 35
f 33 35 34

