# https://github.com/mikedh/trimesh
v 0.14025990 -0.73128493 1.53689386
v 0.14080679 -0.73128493 1.57020573
v 0.14424993 -0.70980473 1.55353925
v 0.14414949 -0.70980473 1.53809794
v 0.14414949 -0.70980473 1.53689386
v 0.14029895 -0.73128493 1.53323947
v 0.14475777 -0.70980473 1.57020573
v 0.14427783 -0.70980473 1.55474327
v 0.14719639 -0.73128493 1.65480567
v 0.15630370 -0.70980473 1.43902839
v 0.14808368 -0.73128493 1.43902839
v 0.15608602 -0.70980473 1.65474225
v 0.19508219 -0.73128493 1.65480567
v 0.15607487 -0.71101373 1.65480567
v 0.19591922 -0.70980473 1.43902839
v 0.19726971 -0.73128493 1.43902839
v 0.15771551 -0.70980473 1.65480567
v 0.19425070 -0.70980473 1.65480567
v 0.19726971 -0.73128493 1.61308661
v 0.19726971 -0.70980473 1.60881960
v 0.19726971 -0.72113567 1.43902839
v 0.19726971 -0.70980473 1.49361169
f 1 2 3
f 1 3 4
f 1 4 5
f 1 5 6
f 1 6 11
f 1 11 16
f 1 16 19
f 1 19 13
f 1 13 9
f 1 9 2
f 2 7 8
f 2 8 3
f 2 9 7
f 3 8 7
f 3 7 12
f 3 12 17
f 3 17 18
f 3 18 20
f 3 20 22
f 3 22 15
f 3 15 10
f 3 10 5
f 3 5 4
f 5 10 11
f 5 11 6
f 7 9 12
f 9 13 18
f 9 18 17
f 9 17 14
f 9 14 12
f 10 15 21
f 10 21 16
f 10 16 11
f 12 14 17
f 13 19 20
f 13 20 18
f 15 22 21
f 16 21 22
f 16 22 20
f 16 20 19

