# https://github.com/mikedh/trimesh
v -1.93184722 -0.77702771 0.19473740
v -1.92986749 -0.79049725 0.19473740
v -1.93169845 -0.77382413 0.19473740
v -1.93122923 -0.77702771 0.09154945
v -1.92923806 -0.79369041 0.15819837
v -1.92930673 -0.79369041 0.17484722
v -1.92937539 -0.79369041 0.19473740
v -1.93104613 -0.76038580 0.19473740
v -1.92886041 -0.79369041 0.10821165
v -1.92899774 -0.79369041 0.12488732
v -1.92912362 -0.79369041 0.14152276
v -1.93109190 -0.77702771 0.07488725
v -1.92500395 -0.80318670 0.12488732
v -1.92506117 -0.80322831 0.14152276
v -1.92508406 -0.80324911 0.15819837
v -1.92595382 -0.80140812 0.19473740
v -1.92713245 -0.74612575 0.19473740
v -1.92710956 -0.74613614 0.19152283
v -1.92700657 -0.74628176 0.17484722
v -1.92694935 -0.74660423 0.15819837
v -1.93026804 -0.76038580 0.10821165
v -1.93092024 -0.77702771 0.05790354
v -1.92865453 -0.79369041 0.09154945
v -1.92488951 -0.80308270 0.10821165
v -1.91532277 -0.80807528 0.14152276
v -1.91532277 -0.80820009 0.15819837
v -1.91532277 -0.80826251 0.17484722
v -1.92511840 -0.80325951 0.19473740
v -1.91066528 -0.71096972 0.19473740
v -1.91196980 -0.71096972 0.14152276
v -1.92656036 -0.74768594 0.10821165
v -1.92628570 -0.74784195 0.09154945
v -1.92577071 -0.74838281 0.05790354
v -1.92992472 -0.76038580 0.09154945
v -1.92916940 -0.76068743 0.05790354
v -1.92807088 -0.79369041 0.05790354
v -1.92808232 -0.79369041 0.05821158
v -1.92837987 -0.79369041 0.07488725
v -1.92471785 -0.80292667 0.09154945
v -1.91532277 -0.80768003 0.10821165
v -1.91532277 -0.80790886 0.12488732
v -1.89866098 -0.81375434 0.05790354
v -1.89866098 -0.81388953 0.07488725
v -1.89866098 -0.81423279 0.17484722
v -1.91532277 -0.80826251 0.19473740
v -1.84529984 -0.71096972 0.19473740
v -1.91128321 -0.71096972 0.10762233
v -1.91495655 -0.73957300 0.05790354
v -1.92913507 -0.76038580 0.05790354
v -1.91068817 -0.71096972 0.09154945
v -1.90863978 -0.71096972 0.08037879
v -1.92800221 -0.79384643 0.05790354
v -1.92419154 -0.80246903 0.05790354
v -1.92446620 -0.80270825 0.07488725
v -1.91532277 -0.80740962 0.09154945
v -1.91532277 -0.80707674 0.07488725
v -1.91532277 -0.80671270 0.05821158
v -1.91532277 -0.80670230 0.05790354
v -1.88229675 -0.81715552 0.05790354
v -1.89866098 -0.81423279 0.19473740
v -1.88198782 -0.81721793 0.05790354
v -1.81496308 -0.74213169 0.19473740
v -1.81496308 -0.71096972 0.17916007
v -1.90379913 -0.73504850 0.05790354
v -1.89866098 -0.71096972 0.07441845
v -1.91548299 -0.80662949 0.05790354
v -1.89545685 -0.81461763 0.19473740
v -1.88198782 -0.81721793 0.05821158
v -1.88198782 -0.81711392 0.07488725
v -1.86534892 -0.81693707 0.05790354
v -1.81496308 -0.78912431 0.19473740
v -1.81496308 -0.71096972 0.09236652
v -1.89866098 -0.73344670 0.05790354
v -1.88199926 -0.71096972 0.07139135
v -1.88198782 -0.81621941 0.19473740
v -1.84898469 -0.81429519 0.05790354
v -1.81496308 -0.81318224 0.12488732
v -1.81496308 -0.81318224 0.12527571
v -1.81496308 -0.81315104 0.14152276
v -1.86534892 -0.81569935 0.19473740
v -1.81502030 -0.79830856 0.19473740
v -1.81496308 -0.79874541 0.19191122
v -1.81496308 -0.74608414 0.07859737
v -1.82150880 -0.78230113 0.05790354
v -1.83385636 -0.71096972 0.07804823
v -1.88198782 -0.73287463 0.05790354
v -1.86530314 -0.71096972 0.07181997
v -1.84868714 -0.81423279 0.05790354
v -1.81496308 -0.81160129 0.10821165
v -1.81496308 -0.81313024 0.14191115
v -1.86214473 -0.81537691 0.19473740
v -1.83270056 -0.80723276 0.19473740
v -1.81496308 -0.80657749 0.17424449
v -1.81496308 -0.76038580 0.07362815
v -1.82150880 -0.78905149 0.05790354
v -1.83923478 -0.75084791 0.05790354
v -1.81496308 -0.77723572 0.07082879
v -1.84868714 -0.71096972 0.07244952
v -1.86545192 -0.73644223 0.05790354
v -1.83473751 -0.80702475 0.05790354
v -1.81496308 -0.80602624 0.09528639
v -1.81496308 -0.81213173 0.15819837
v -1.84868714 -0.81391032 0.19473740
v -1.81496308 -0.79132933 0.07484702
v -1.82157747 -0.78929072 0.05790354
v -1.84852692 -0.74397272 0.05790354
v -1.84868714 -0.74385830 0.05790354
v -1.86380401 -0.73689991 0.05790354
v -1.86420456 -0.73672309 0.05790354
v -1.82640662 -0.79747645 0.05790354
v -1.81496308 -0.79172460 0.07527564
f 1 2 7
f 1 7 16
f 1 16 28
f 1 28 45
f 1 45 60
f 1 60 67
f 1 67 75
f 1 75 80
f 1 80 91
f 1 91 103
f 1 103 92
f 1 92 81
f 1 81 71
f 1 71 62
f 1 62 46
f 1 46 29
f 1 29 17
f 1 17 8
f 1 8 3
f 1 3 4
f 1 4 5
f 1 5 2
f 2 5 6
f 2 6 7
f 3 8 4
f 4 9 10
f 4 10 11
f 4 11 5
f 4 8 12
f 4 12 9
f 5 11 13
f 5 13 14
f 5 14 6
f 6 14 7
f 7 14 15
f 7 15 16
f 8 17 18
f 8 18 19
f 8 19 20
f 8 20 21
f 8 21 12
f 9 13 10
f 9 12 22
f 9 22 23
f 9 23 24
f 9 24 13
f 10 13 11
f 12 21 22
f 13 24 25
f 13 25 26
f 13 26 14
f 14 26 27
f 14 27 15
f 15 27 28
f 15 28 16
f 17 29 30
f 17 30 18
f 18 30 19
f 19 30 20
f 20 30 31
f 20 31 21
f 21 31 32
f 21 32 33
f 21 33 34
f 21 34 22
f 22 35 49
f 22 49 33
f 22 33 48
f 22 48 64
f 22 64 73
f 22 73 86
f 22 86 99
f 22 99 109
f 22 109 108
f 22 108 107
f 22 107 106
f 22 106 96
f 22 96 84
f 22 84 95
f 22 95 105
f 22 105 110
f 22 110 100
f 22 100 88
f 22 88 76
f 22 76 70
f 22 70 61
f 22 61 59
f 22 59 42
f 22 42 58
f 22 58 66
f 22 66 53
f 22 53 52
f 22 52 36
f 22 36 37
f 22 37 38
f 22 38 23
f 22 34 35
f 23 38 39
f 23 39 24
f 24 40 41
f 24 41 25
f 24 39 40
f 25 41 42
f 25 42 43
f 25 43 26
f 26 43 27
f 27 43 44
f 27 44 60
f 27 60 45
f 27 45 28
f 29 46 63
f 29 63 72
f 29 72 85
f 29 85 98
f 29 98 87
f 29 87 74
f 29 74 65
f 29 65 51
f 29 51 50
f 29 50 47
f 29 47 30
f 30 47 31
f 31 47 32
f 32 47 33
f 33 49 34
f 33 47 50
f 33 50 51
f 33 51 48
f 34 49 35
f 36 52 37
f 37 52 53
f 37 53 54
f 37 54 39
f 37 39 38
f 39 55 40
f 39 54 56
f 39 56 55
f 40 55 42
f 40 42 41
f 42 57 58
f 42 59 43
f 42 55 56
f 42 56 57
f 43 59 44
f 44 59 61
f 44 61 68
f 44 68 60
f 46 62 63
f 48 51 65
f 48 65 64
f 53 66 56
f 53 56 54
f 56 66 57
f 57 66 58
f 60 68 69
f 60 69 67
f 61 70 68
f 62 71 82
f 62 82 93
f 62 93 102
f 62 102 90
f 62 90 79
f 62 79 78
f 62 78 77
f 62 77 89
f 62 89 101
f 62 101 111
f 62 111 104
f 62 104 97
f 62 97 94
f 62 94 83
f 62 83 72
f 62 72 63
f 64 65 73
f 65 74 73
f 67 69 75
f 68 70 69
f 69 70 75
f 70 76 77
f 70 77 78
f 70 78 79
f 70 79 80
f 70 80 75
f 71 81 82
f 72 83 84
f 72 84 85
f 73 74 86
f 74 87 86
f 76 88 77
f 77 88 89
f 79 90 91
f 79 91 80
f 81 92 93
f 81 93 82
f 83 94 84
f 84 96 85
f 84 94 97
f 84 97 95
f 85 96 98
f 86 87 98
f 86 98 99
f 88 100 89
f 89 100 101
f 90 102 103
f 90 103 91
f 92 103 102
f 92 102 93
f 95 97 104
f 95 104 105
f 96 106 98
f 98 106 107
f 98 107 108
f 98 108 109
f 98 109 99
f 100 110 101
f 101 110 111
f 104 111 105
f 105 111 110

