# https://github.com/mikedh/trimesh
v 0.74424356 -0.28805353 1.93771452
v 0.66183793 -0.28805353 1.93259343
v 0.74424356 -0.28805353 1.99739075
v 0.74424356 -0.71028760 1.93758715
v 0.66183793 -0.28821885 1.93259343
v 0.60307657 -0.28805353 1.93259343
v 0.74076873 -0.28805353 1.99740351
v 0.72409348 -0.71028760 1.99743534
v 0.74076873 -0.56100123 1.99737812
v 0.74424356 -0.57765750 1.99735892
v 0.74424356 -0.71028760 1.99732078
v 0.66108082 -0.71028760 1.93259343
v 0.54592647 -0.28805353 1.93796296
v 0.60393072 -0.71028759 1.93259343
v 0.72409348 -0.28805353 1.99744809
v 0.70815590 -0.71028760 1.99749268
v 0.54592647 -0.28805353 1.99763287
v 0.54592647 -0.71028759 1.93814129
v 0.67410657 -0.28805353 1.99757553
v 0.69076238 -0.71028760 1.99753094
v 0.57411325 -0.28805353 1.99764562
v 0.54592647 -0.43919975 1.99765838
v 0.54592647 -0.71028759 1.99755002
v 0.65743129 -0.28805353 1.99760736
v 0.67482481 -0.71028760 1.99755002
v 0.59707815 -0.28805353 1.99764562
v 0.54592647 -0.57765750 1.99766470
v 0.62411963 -0.71028759 1.99758185
v 0.64077547 -0.28805353 1.99762011
v 0.57411325 -0.57765750 1.99765838
v 0.65743129 -0.57765750 1.99758185
v 0.65814956 -0.71028760 1.99756277
v 0.63040922 -0.28805353 1.99762643
v 0.62483787 -0.71028759 1.99758185
f 1 2 6
f 1 6 13
f 1 13 17
f 1 17 21
f 1 21 26
f 1 26 33
f 1 33 29
f 1 29 24
f 1 24 19
f 1 19 15
f 1 15 7
f 1 7 3
f 1 3 10
f 1 10 11
f 1 11 4
f 1 4 2
f 2 4 5
f 2 5 12
f 2 12 14
f 2 14 6
f 3 7 8
f 3 8 9
f 3 9 10
f 4 11 8
f 4 8 16
f 4 16 20
f 4 20 25
f 4 25 32
f 4 32 34
f 4 34 28
f 4 28 23
f 4 23 18
f 4 18 14
f 4 14 12
f 4 12 5
f 6 14 13
f 7 15 16
f 7 16 8
f 8 11 10
f 8 10 9
f 13 14 18
f 13 18 23
f 13 23 27
f 13 27 22
f 13 22 17
f 15 19 16
f 16 19 20
f 17 22 21
f 19 24 20
f 20 24 25
f 21 22 26
f 22 27 26
f 23 28 27
f 24 29 30
f 24 30 31
f 24 31 25
f 25 31 30
f 25 30 32
f 26 27 30
f 26 30 33
f 27 28 34
f 27 34 30
f 29 33 30
f 30 34 32

