# https://github.com/mikedh/trimesh
v 1.37415711 -0.76100617 0.09604364
v 1.14187038 -0.77767691 0.09743333
v 1.30748536 -0.76100617 0.09607523
v 1.42408837 -0.74435050 0.09664374
v 1.44078049 -0.76100617 0.09605419
v 1.14187038 -0.78872049 0.10539240
v 1.14187038 -0.76100617 0.09620153
v 1.17414183 -0.76100617 0.09617000
v 1.29079323 -0.76100617 0.09608572
v 1.44078049 -0.77767691 0.09763336
v 1.39075248 -0.74435050 0.09666478
v 1.14187038 -0.73058359 0.10402375
v 1.14187038 -0.72962067 0.10452914
v 1.35746498 -0.72968084 0.10446596
v 1.42408837 -0.72975609 0.10444486
v 1.45742426 -0.74435050 0.09667533
v 1.47406798 -0.76100617 0.09608572
v 1.63610266 -0.77304279 0.09735960
v 1.63610266 -0.77767691 0.09779126
v 1.50740387 -0.77767691 0.09768600
v 1.14187038 -0.78891611 0.10636099
v 1.62410367 -0.78864527 0.10575033
v 1.60741152 -0.78866032 0.10575033
v 1.55743188 -0.79159426 0.12020517
v 1.14187038 -0.74544130 0.09678059
v 1.17414183 -0.74435050 0.09680163
v 1.19078558 -0.74435050 0.09679108
v 1.14187038 -0.74435050 0.09682268
v 1.14187038 -0.72128531 0.11782585
v 1.30748536 -0.71540241 0.12194224
v 1.32412911 -0.71540241 0.12161590
v 1.34082124 -0.71540241 0.12140532
v 1.35746498 -0.71540241 0.12127901
v 1.37415711 -0.71540241 0.12125791
v 1.19078558 -0.72962818 0.10451859
v 1.47406798 -0.72981627 0.10448700
v 1.47406798 -0.74435050 0.09669637
v 1.63610266 -0.76100617 0.09624367
v 1.63610266 -0.78860766 0.10573984
v 1.17414183 -0.79166948 0.12020517
v 1.15744970 -0.79166948 0.12020517
v 1.14187038 -0.79166194 0.12020517
v 1.63610266 -0.79070653 0.11618349
v 1.57407566 -0.79157921 0.12020517
v 1.63610266 -0.79181993 0.13223849
v 1.54073977 -0.79197040 0.13687076
v 1.52409599 -0.79197791 0.13687076
v 1.17414183 -0.79205313 0.13687076
v 1.14187038 -0.71540241 0.12742728
v 1.42408837 -0.71540241 0.12138428
v 1.63610266 -0.73040305 0.10470808
v 1.63610266 -0.74046868 0.09915991
v 1.63610266 -0.74435050 0.09703326
v 1.14187038 -0.79168453 0.12130006
v 1.15744970 -0.79203811 0.13687076
v 1.63610266 -0.79150399 0.12020517
v 1.63610266 -0.79191774 0.13687076
v 1.63610266 -0.79213589 0.15352592
v 1.52409599 -0.79219606 0.15352592
v 1.17414183 -0.79224876 0.15352592
v 1.14187038 -0.71540241 0.18267765
v 1.47406798 -0.71540241 0.12173166
v 1.63610266 -0.71540241 0.12546908
v 1.47740640 -0.71540241 0.12178435
v 1.49076012 -0.71540241 0.12208964
v 1.14187038 -0.79199296 0.13687076
v 1.15744970 -0.79221866 0.15352592
v 1.14187038 -0.79218104 0.15352592
v 1.14187038 -0.79200801 0.13796571
v 1.63610266 -0.79062380 0.17019157
v 1.57407566 -0.79087957 0.17019157
v 1.49076012 -0.79109021 0.17019157
v 1.22412146 -0.79157167 0.17019157
v 1.17414183 -0.79163187 0.17019157
v 1.15744970 -0.79160928 0.17019157
v 1.14187038 -0.73510485 0.20359655
v 1.15744970 -0.73502963 0.20359655
v 1.27414948 -0.71540241 0.18322507
v 1.63610266 -0.71540241 0.18249866
v 1.14187038 -0.79157167 0.17019157
v 1.63610266 -0.78331153 0.20359655
v 1.45747263 -0.78431210 0.20359655
v 1.22421823 -0.78516218 0.20359655
v 1.20752609 -0.78519979 0.20359655
v 1.14187038 -0.78532017 0.20359655
v 1.27414948 -0.73471366 0.20359655
v 1.28614845 -0.71540241 0.18326721
v 1.63610266 -0.73457073 0.20359655
v 1.47406798 -0.71540241 0.18308821
v 1.39075248 -0.73459329 0.20359655
v 1.29079323 -0.71540241 0.18327770
v 1.62410367 -0.73455568 0.20359655
v 1.35746498 -0.71540241 0.18324617
v 1.50740387 -0.73447295 0.20359655
f 1 2 3
f 1 3 4
f 1 4 5
f 1 5 2
f 2 6 21
f 2 21 42
f 2 42 54
f 2 54 66
f 2 66 69
f 2 69 68
f 2 68 80
f 2 80 85
f 2 85 76
f 2 76 61
f 2 61 49
f 2 49 29
f 2 29 13
f 2 13 12
f 2 12 28
f 2 28 25
f 2 25 7
f 2 7 8
f 2 8 9
f 2 9 3
f 2 5 10
f 2 10 6
f 3 9 4
f 4 11 12
f 4 12 13
f 4 13 14
f 4 14 15
f 4 15 16
f 4 16 5
f 4 9 11
f 5 16 17
f 5 17 18
f 5 18 19
f 5 19 20
f 5 20 10
f 6 10 20
f 6 20 19
f 6 19 22
f 6 22 23
f 6 23 24
f 6 24 21
f 7 25 8
f 8 25 9
f 9 25 26
f 9 26 27
f 9 27 11
f 11 27 12
f 12 27 26
f 12 26 28
f 13 29 30
f 13 30 31
f 13 31 32
f 13 32 33
f 13 33 34
f 13 34 35
f 13 35 14
f 14 35 34
f 14 34 15
f 15 36 37
f 15 37 16
f 15 34 36
f 16 37 38
f 16 38 17
f 17 38 18
f 18 38 53
f 18 53 52
f 18 52 51
f 18 51 63
f 18 63 79
f 18 79 88
f 18 88 81
f 18 81 70
f 18 70 58
f 18 58 57
f 18 57 45
f 18 45 56
f 18 56 43
f 18 43 39
f 18 39 19
f 19 39 22
f 21 40 41
f 21 41 42
f 21 24 40
f 22 39 43
f 22 43 44
f 22 44 24
f 22 24 23
f 24 44 45
f 24 45 46
f 24 46 47
f 24 47 48
f 24 48 40
f 25 28 26
f 29 49 30
f 30 49 61
f 30 61 78
f 30 78 87
f 30 87 91
f 30 91 93
f 30 93 89
f 30 89 79
f 30 79 63
f 30 63 65
f 30 65 64
f 30 64 62
f 30 62 50
f 30 50 34
f 30 34 33
f 30 33 32
f 30 32 31
f 34 50 36
f 36 50 51
f 36 51 52
f 36 52 53
f 36 53 37
f 37 53 38
f 40 48 41
f 41 48 42
f 42 48 55
f 42 55 54
f 43 56 44
f 44 56 45
f 45 57 46
f 46 57 58
f 46 58 59
f 46 59 47
f 47 59 48
f 48 60 55
f 48 59 60
f 50 62 51
f 51 62 64
f 51 64 65
f 51 65 63
f 54 55 66
f 55 60 67
f 55 67 68
f 55 68 69
f 55 69 66
f 58 70 71
f 58 71 72
f 58 72 73
f 58 73 74
f 58 74 59
f 59 74 60
f 60 74 75
f 60 75 67
f 61 76 77
f 61 77 78
f 67 75 80
f 67 80 68
f 70 81 82
f 70 82 71
f 71 82 83
f 71 83 72
f 72 83 84
f 72 84 85
f 72 85 73
f 73 85 74
f 74 85 75
f 75 85 80
f 76 85 84
f 76 84 83
f 76 83 82
f 76 82 81
f 76 81 88
f 76 88 92
f 76 92 94
f 76 94 90
f 76 90 86
f 76 86 77
f 77 86 87
f 77 87 78
f 79 89 88
f 86 90 91
f 86 91 87
f 88 89 92
f 89 93 92
f 90 94 91
f 91 94 93
f 92 93 94

