# https://github.com/mikedh/trimesh
v 0.59028996 -0.23642241 1.16271603
v 0.34082411 -0.23642241 1.16281408
v 0.59028996 -0.23642241 1.21980188
v 0.59028996 -0.56098289 1.16444050
v 0.32650434 -0.23642241 1.16283138
v 0.59028996 -0.57760683 1.16453277
v 0.22364586 -0.70948700 1.16560551
v 0.45739224 -0.23642241 1.22008449
v 0.59028996 -0.24489646 1.21984803
v 0.30751892 -0.23642241 1.16287753
v 0.59028996 -0.69994792 1.16536906
v 0.27604412 -0.70948700 1.16558244
v 0.22364586 -0.70948700 1.22146867
v 0.22364586 -0.54431264 1.16500570
v 0.27608002 -0.23642241 1.16296980
v 0.29334273 -0.23642241 1.16291790
v 0.40747039 -0.23642241 1.22018830
v 0.59028996 -0.26105733 1.21989417
v 0.45739224 -0.24438709 1.22011910
v 0.59028996 -0.69994792 1.22103611
v 0.27604412 -0.70948700 1.22106495
v 0.22364586 -0.69429856 1.22157825
v 0.22364587 -0.24447970 1.16402524
v 0.27608002 -0.23642241 1.22032096
v 0.39874926 -0.23642241 1.22020561
v 0.22364586 -0.66100437 1.22160132
v 0.22364586 -0.67762831 1.22163015
v 0.22364587 -0.24447970 1.22036709
v 0.28210937 -0.23642241 1.22033249
v 0.32417151 -0.23642241 1.22032672
v 0.31541457 -0.23642241 1.22033826
v 0.30751892 -0.23642241 1.22034402
v 0.29876197 -0.23642241 1.22034979
v 0.29083044 -0.23642241 1.22034402
f 1 2 5
f 1 5 10
f 1 10 16
f 1 16 15
f 1 15 24
f 1 24 29
f 1 29 34
f 1 34 33
f 1 33 32
f 1 32 31
f 1 31 30
f 1 30 25
f 1 25 17
f 1 17 8
f 1 8 3
f 1 3 9
f 1 9 18
f 1 18 20
f 1 20 11
f 1 11 6
f 1 6 4
f 1 4 2
f 2 4 6
f 2 6 7
f 2 7 5
f 3 8 9
f 5 7 10
f 6 11 7
f 7 11 12
f 7 12 21
f 7 21 13
f 7 13 22
f 7 22 27
f 7 27 26
f 7 26 28
f 7 28 23
f 7 23 14
f 7 14 15
f 7 15 16
f 7 16 10
f 8 17 9
f 9 17 19
f 9 19 18
f 11 20 21
f 11 21 12
f 13 21 20
f 13 20 22
f 14 23 15
f 15 23 28
f 15 28 24
f 17 25 19
f 18 19 20
f 19 25 20
f 20 25 26
f 20 26 27
f 20 27 22
f 24 28 29
f 25 30 26
f 26 30 31
f 26 31 32
f 26 32 33
f 26 33 28
f 28 33 34
f 28 34 29

