# https://github.com/mikedh/trimesh
v -2.04675832 1.62786648 0.09428500
v -2.01340755 1.60632138 0.07863541
v -2.01677871 1.60707771 0.07863541
v -2.03452093 1.60825309 0.07863541
v -2.04675832 1.60814066 0.07863541
v -2.05187346 1.62786648 0.09466402
v -2.03486196 1.62786648 0.09735378
v -2.00412235 1.60253974 0.07863541
v -2.05092838 1.60692440 0.07863541
v -2.06341913 1.62786648 0.09597225
v -2.02956170 1.62786648 0.10861419
v -2.00175476 1.60154833 0.07863541
v -2.06133406 1.60327562 0.07863541
v -2.06648821 1.62786648 0.09669356
v -2.02751564 1.62786648 0.12529080
v -1.99826676 1.58938579 0.07863541
v -2.02731101 1.62786648 0.13684457
v -2.02722334 1.62786648 0.14195518
v -2.00164759 1.60191628 0.12529080
v -2.06764764 1.59672421 0.07863541
v -2.07364940 1.62786648 0.09904104
v -1.99808163 1.57272615 0.07863541
v -1.99819853 1.58938579 0.12529080
v -2.00164759 1.60193673 0.14195518
v -2.02746692 1.62786648 0.15863179
v -2.00190094 1.60167099 0.20353879
v -2.07151567 1.59264617 0.07863541
v -2.09755907 1.60185497 0.09882096
v -2.09755907 1.60980662 0.10361362
v -2.09755907 1.62786648 0.11817511
v -1.99809135 1.57272615 0.09193758
v -1.99805241 1.55604604 0.10861419
v -1.99807185 1.56934310 0.07863541
v -1.99820831 1.58938579 0.14195518
v -2.00184250 1.60170166 0.19198501
v -2.02913300 1.62786648 0.17018557
v -2.03000990 1.62786648 0.17530840
v -2.03368303 1.62786648 0.18301090
v -2.03535889 1.62786648 0.18607968
v -2.00984159 1.60530955 0.20353879
v -1.99958209 1.59317763 0.20353879
v -2.07626056 1.58634004 0.07863541
v -2.09755907 1.60146659 0.09863756
v -2.09755907 1.62786648 0.12064480
v -1.99813036 1.57272615 0.12529080
v -1.99804263 1.55604604 0.09193758
v -1.99814008 1.55604604 0.17530840
v -1.99884158 1.53936597 0.17530840
v -1.99806213 1.55604604 0.07863541
v -1.99848111 1.58938579 0.19198501
v -1.99835443 1.57784667 0.20353879
v -1.99829598 1.57272615 0.20353879
v -1.99818881 1.55604604 0.20353879
v -2.04336771 1.62786648 0.18812150
v -2.01340755 1.60690397 0.20353879
v -1.99854928 1.58938579 0.20353879
v -2.08081060 1.57681439 0.07863541
v -2.08217465 1.57272615 0.07863541
v -2.09755907 1.58998880 0.09583776
v -2.09755907 1.62778473 0.16397464
v -2.09677962 1.62786648 0.16395019
v -1.99886109 1.53936597 0.09193758
v -1.99884158 1.53936597 0.15863179
v -1.99866624 1.54450694 0.20353879
v -1.99888059 1.53936597 0.20353879
v -2.00230042 1.52827657 0.15863179
v -2.00233937 1.52828680 0.20353879
v -1.99822775 1.55267324 0.07863541
v -2.04675832 1.62786648 0.18867170
v -2.03012680 1.60906050 0.20353879
v -2.08417198 1.56061468 0.07863541
v -2.09755907 1.58938579 0.09573995
v -2.09755907 1.60142570 0.18561508
v -2.05863523 1.62786648 0.18625085
v -2.00240760 1.52838899 0.07863541
v -1.99890003 1.53936597 0.07863541
v -2.00231014 1.52829703 0.14195518
v -2.01340755 1.52452561 0.15863179
v -2.01340755 1.52448472 0.20353879
v -2.04675832 1.60947956 0.20353879
v -2.08429866 1.55596430 0.07863541
v -2.09755907 1.57173475 0.09571550
v -2.09755907 1.58938579 0.18892839
v -2.08416226 1.57272615 0.20353879
v -2.07748822 1.58718834 0.20353879
v -2.06180171 1.60401151 0.20353879
v -2.01340755 1.52480156 0.07863541
v -2.01340755 1.52457668 0.14195518
v -2.01854219 1.52416788 0.20353879
v -2.03007807 1.52346265 0.20353879
v -2.03007807 1.52348311 0.19198501
v -2.08298333 1.54271833 0.07863541
v -2.09755907 1.57112150 0.09583776
v -2.09755907 1.57122370 0.18946636
v -2.08586729 1.55581099 0.20353879
v -2.03007807 1.52370794 0.12529080
v -2.03007807 1.52376927 0.10861419
v -2.03007807 1.52385103 0.09193758
v -2.03007807 1.52393280 0.07863541
v -2.03007807 1.52353419 0.17530840
v -2.04675832 1.52354442 0.20353879
v -2.04675832 1.52357507 0.19198501
v -2.08230127 1.53936598 0.07863541
v -2.09755907 1.56269970 0.09938338
v -2.09755907 1.56906714 0.18869615
v -2.08374328 1.53936598 0.20353879
v -2.04675832 1.52401457 0.09193758
v -2.04675832 1.52407588 0.07863541
v -2.04337749 1.52404523 0.07863541
v -2.06341913 1.52371817 0.20353879
v -2.07743949 1.53019806 0.07863541
v -2.09755907 1.55938820 0.10862641
v -2.09755907 1.55945975 0.17893954
v -2.08166800 1.53570698 0.20353879
v -2.09755907 1.55895892 0.17798594
v -2.09755907 1.55857055 0.17671438
v -2.06341913 1.52376927 0.19198501
v -2.06004796 1.52435184 0.07863541
v -2.06756968 1.52486288 0.20353879
v -2.07687439 1.52747937 0.19198501
v -2.07616311 1.52786776 0.07863541
v -2.09755907 1.55810041 0.12472838
v -2.07694256 1.52744872 0.20353879
v -2.09755907 1.55777334 0.15863179
v -2.07356173 1.52716253 0.07863541
v -2.06341913 1.52442341 0.07863541
v -2.09755907 1.55786533 0.14195518
v -2.07630929 1.52785753 0.09193758
v -2.09755907 1.55806974 0.12529080
f 1 2 3
f 1 3 4
f 1 4 5
f 1 5 6
f 1 6 10
f 1 10 14
f 1 14 21
f 1 21 30
f 1 30 44
f 1 44 61
f 1 61 74
f 1 74 69
f 1 69 54
f 1 54 39
f 1 39 38
f 1 38 37
f 1 37 36
f 1 36 25
f 1 25 18
f 1 18 17
f 1 17 15
f 1 15 11
f 1 11 7
f 1 7 2
f 2 8 12
f 2 12 16
f 2 16 22
f 2 22 33
f 2 33 49
f 2 49 68
f 2 68 76
f 2 76 75
f 2 75 87
f 2 87 99
f 2 99 109
f 2 109 108
f 2 108 118
f 2 118 126
f 2 126 125
f 2 125 121
f 2 121 111
f 2 111 103
f 2 103 92
f 2 92 81
f 2 81 71
f 2 71 58
f 2 58 57
f 2 57 42
f 2 42 27
f 2 27 20
f 2 20 13
f 2 13 9
f 2 9 5
f 2 5 4
f 2 4 3
f 2 7 8
f 5 9 10
f 5 10 6
f 7 11 12
f 7 12 8
f 9 13 14
f 9 14 10
f 11 15 12
f 12 15 17
f 12 17 18
f 12 18 19
f 12 19 16
f 13 20 21
f 13 21 14
f 16 19 23
f 16 23 22
f 18 24 19
f 18 25 26
f 18 26 24
f 19 24 23
f 20 27 21
f 21 28 29
f 21 29 30
f 21 27 28
f 22 31 32
f 22 32 33
f 22 23 34
f 22 34 31
f 23 24 34
f 24 26 35
f 24 35 34
f 25 36 26
f 26 36 37
f 26 37 38
f 26 38 39
f 26 39 40
f 26 40 55
f 26 55 70
f 26 70 80
f 26 80 86
f 26 86 85
f 26 85 84
f 26 84 95
f 26 95 106
f 26 106 114
f 26 114 123
f 26 123 119
f 26 119 110
f 26 110 101
f 26 101 90
f 26 90 89
f 26 89 79
f 26 79 67
f 26 67 65
f 26 65 64
f 26 64 53
f 26 53 52
f 26 52 51
f 26 51 56
f 26 56 41
f 26 41 35
f 27 42 43
f 27 43 28
f 28 43 59
f 28 59 72
f 28 72 82
f 28 82 93
f 28 93 104
f 28 104 112
f 28 112 122
f 28 122 129
f 28 129 127
f 28 127 124
f 28 124 116
f 28 116 115
f 28 115 113
f 28 113 105
f 28 105 94
f 28 94 83
f 28 83 73
f 28 73 60
f 28 60 44
f 28 44 30
f 28 30 29
f 31 34 45
f 31 45 32
f 32 46 33
f 32 45 47
f 32 47 48
f 32 48 46
f 33 46 49
f 34 35 50
f 34 50 51
f 34 51 52
f 34 52 53
f 34 53 47
f 34 47 45
f 35 41 50
f 39 54 55
f 39 55 40
f 41 56 50
f 42 57 43
f 43 57 58
f 43 58 59
f 44 60 61
f 46 62 49
f 46 48 63
f 46 63 62
f 47 53 64
f 47 64 65
f 47 65 48
f 48 66 63
f 48 65 67
f 48 67 66
f 49 62 68
f 50 56 51
f 54 69 55
f 55 69 70
f 58 71 72
f 58 72 59
f 60 73 74
f 60 74 61
f 62 75 76
f 62 76 68
f 62 63 66
f 62 66 77
f 62 77 75
f 66 78 77
f 66 67 79
f 66 79 78
f 69 74 80
f 69 80 70
f 71 81 72
f 72 81 82
f 73 83 84
f 73 84 85
f 73 85 86
f 73 86 74
f 74 86 80
f 75 77 78
f 75 78 88
f 75 88 87
f 78 79 89
f 78 89 90
f 78 90 91
f 78 91 100
f 78 100 88
f 81 92 82
f 82 92 93
f 83 94 95
f 83 95 84
f 87 96 97
f 87 97 98
f 87 98 99
f 87 88 96
f 88 100 96
f 90 101 91
f 91 101 102
f 91 102 100
f 92 103 93
f 93 103 104
f 94 105 106
f 94 106 95
f 96 100 102
f 96 102 97
f 97 102 107
f 97 107 108
f 97 108 98
f 98 108 109
f 98 109 99
f 101 110 102
f 102 110 107
f 103 111 112
f 103 112 104
f 105 113 106
f 106 113 115
f 106 115 116
f 106 116 114
f 107 110 117
f 107 117 108
f 108 117 118
f 110 119 120
f 110 120 117
f 111 121 112
f 112 121 122
f 114 116 123
f 116 124 123
f 117 120 121
f 117 121 125
f 117 125 126
f 117 126 118
f 119 123 120
f 120 123 127
f 120 127 128
f 120 128 121
f 121 128 129
f 121 129 122
f 123 124 127
f 127 129 128

