# https://github.com/mikedh/trimesh
v -2.10701646 1.62546331 0.95193751
v -2.04656968 1.62546331 0.95493820
v -2.10701646 1.65611724 0.95180341
v -2.10701646 1.62546331 0.87489193
v -2.04479320 1.62546331 0.95452749
v -2.03970216 1.65614127 0.95062995
v -2.04804628 1.65614127 0.95123344
v -2.06343481 1.65614127 0.95164415
v -2.09678052 1.65614127 0.95176149
v -2.10701646 1.65614127 0.91436187
v -2.10701646 1.63557217 0.87994618
v -2.08009997 1.65614127 0.87621627
v -2.06343481 1.65614127 0.87093573
v -2.06329638 1.62546331 0.86967007
v -2.03668752 1.62546331 0.95250747
v -2.03431887 1.65614127 0.94229843
v -2.03601077 1.62546331 0.95156871
v -2.10473238 1.65614127 0.90111861
v -2.10701646 1.65611124 0.90128625
v -2.08949765 1.65614127 0.88261996
v -2.04675426 1.65614127 0.87122909
v -2.04675426 1.62546331 0.86930965
v -2.03195791 1.62546331 0.94270914
v -2.03114273 1.62546331 0.93974198
v -2.03016604 1.65610223 0.92577789
v -2.03017374 1.65614127 0.92577789
v -2.03364981 1.62546331 0.87556248
v -2.03608765 1.62546331 0.87428845
v -2.04662353 1.62546331 0.86933479
v -2.03406510 1.65614127 0.87798483
v -2.02874330 1.62546331 0.92577789
v -2.02848183 1.62546331 0.90910648
v -2.02845106 1.62546331 0.90639915
v -2.02985072 1.65614127 0.89243507
v -2.02920474 1.62546331 0.89008816
v -2.02849722 1.62546331 0.89243507
f 1 2 3
f 1 3 10
f 1 10 19
f 1 19 11
f 1 11 4
f 1 4 14
f 1 14 22
f 1 22 29
f 1 29 28
f 1 28 27
f 1 27 35
f 1 35 36
f 1 36 33
f 1 33 32
f 1 32 31
f 1 31 24
f 1 24 23
f 1 23 17
f 1 17 15
f 1 15 5
f 1 5 2
f 2 5 6
f 2 6 7
f 2 7 8
f 2 8 3
f 3 8 9
f 3 9 10
f 4 11 12
f 4 12 13
f 4 13 14
f 5 15 6
f 6 16 26
f 6 26 34
f 6 34 30
f 6 30 21
f 6 21 13
f 6 13 12
f 6 12 20
f 6 20 18
f 6 18 10
f 6 10 9
f 6 9 8
f 6 8 7
f 6 15 17
f 6 17 16
f 10 18 19
f 11 19 20
f 11 20 12
f 13 21 22
f 13 22 14
f 16 17 23
f 16 23 24
f 16 24 25
f 16 25 26
f 18 20 19
f 21 27 28
f 21 28 29
f 21 29 22
f 21 30 27
f 24 31 25
f 25 31 32
f 25 32 33
f 25 33 34
f 25 34 26
f 27 30 35
f 30 34 36
f 30 36 35
f 33 36 34

