# https://github.com/mikedh/trimesh
v -0.27091690 2.03975792 0.20878072
v -0.27000326 2.05428588 0.20878072
v -0.27013113 2.02751126 0.20878072
v -0.27013113 2.02835133 0.35884457
v -0.27084383 2.03966732 0.35875642
v -0.27084383 2.03974967 0.35884457
v -0.26848652 2.06265347 0.20878072
v -0.26997582 2.05309994 0.35884457
v -0.27010375 2.02737125 0.20878072
v -0.26995757 2.02725595 0.32540892
v -0.26715252 2.01891307 0.32540892
v -0.26698803 2.01937427 0.34208267
v -0.26647636 2.01994256 0.35884457
v -0.26020842 2.06767733 0.20878072
v -0.26815754 2.06152517 0.34208267
v -0.26808448 2.06143458 0.35875642
v -0.25974244 2.06766083 0.35884457
v -0.25981550 2.06767733 0.34208267
v -0.26802967 2.06146753 0.35884457
v -0.26673223 2.01909426 0.20878072
v -0.26684185 2.01905309 0.22535171
v -0.26997582 2.02726418 0.30872044
v -0.24059131 1.99319264 0.35884457
v -0.25815258 2.01100670 0.35884457
v -0.24016189 1.99329970 0.20878072
v -0.24419133 2.07066693 0.22535171
v -0.24430094 2.07063398 0.20878072
v -0.24419133 2.07071636 0.35884457
v -0.24419133 2.07071636 0.35875642
v -0.24419133 2.07070809 0.29204670
v -0.24050912 1.99312674 0.35875642
v -0.24040857 1.99306086 0.35884457
v -0.24002484 1.99320087 0.20878072
v -0.24419133 2.07065045 0.20878072
v -0.21085051 2.07096341 0.35884457
v -0.22751633 2.07084809 0.35884457
v -0.22751633 2.07084809 0.35875642
v -0.22751633 1.98743579 0.35875642
v -0.22742495 1.98741933 0.35884457
v -0.22751633 1.98766639 0.20878072
v -0.21085051 2.07082340 0.24204013
v -0.21096013 2.07077399 0.20878072
v -0.19417551 2.07051867 0.35884457
v -0.19417551 2.07051867 0.35875642
v -0.21085051 1.98682635 0.35875642
v -0.21075913 1.98683458 0.35884457
v -0.21085051 1.98706518 0.20878072
v -0.19417551 2.07030455 0.20878072
v -0.21085051 2.07077399 0.20878072
v -0.18289137 2.06737260 0.35884457
v -0.18282744 2.06735612 0.35875642
v -0.18283656 2.06733141 0.32540892
v -0.18291881 2.06726553 0.24204013
v -0.18292793 2.06724907 0.22535171
v -0.18301018 2.06724907 0.20878072
v -0.19417551 1.98825115 0.29204670
v -0.19417551 1.98820173 0.35875642
v -0.21074083 1.98707342 0.20878072
v -0.19417551 1.98833350 0.22535171
v -0.19417551 1.98826761 0.27538762
v -0.19410245 1.98823467 0.35884457
v -0.17871576 2.05634484 0.35884457
v -0.18282744 2.06733966 0.34208267
v -0.17869751 2.05634484 0.32540892
v -0.17871576 2.05634484 0.30872044
v -0.17882544 2.05634484 0.20878072
v -0.18207816 1.99366208 0.27538762
v -0.18206904 1.99366208 0.29204670
v -0.19409333 1.98841586 0.20878072
v -0.18219697 1.99372795 0.20878072
v -0.18208735 1.99367031 0.35884457
v -0.17763763 2.03966732 0.35884457
v -0.17760107 2.03966732 0.34208267
v -0.17758282 2.03966732 0.32540892
v -0.17758282 2.03966732 0.27538762
v -0.17881626 2.05623779 0.20878072
v -0.17800311 2.00632052 0.27538762
v -0.17798480 2.00632052 0.29204670
v -0.17798480 2.00632052 0.32540892
v -0.17821323 2.00632052 0.20878072
v -0.17802136 2.00632052 0.35884457
v -0.17768331 2.02299804 0.35884457
v -0.17762850 2.02299804 0.34208267
v -0.17762850 2.02299804 0.30872044
v -0.17763763 2.02299804 0.29204670
v -0.17764675 2.02299804 0.27538762
v -0.17760107 2.03966732 0.25871388
v -0.17766506 2.03966732 0.20878072
v -0.17779293 2.02289096 0.20878072
v -0.17766506 2.03956025 0.20878072
f 1 2 7
f 1 7 14
f 1 14 27
f 1 27 34
f 1 34 42
f 1 42 49
f 1 49 48
f 1 48 55
f 1 55 66
f 1 66 76
f 1 76 88
f 1 88 90
f 1 90 89
f 1 89 80
f 1 80 70
f 1 70 69
f 1 69 58
f 1 58 47
f 1 47 40
f 1 40 33
f 1 33 25
f 1 25 20
f 1 20 9
f 1 9 3
f 1 3 4
f 1 4 5
f 1 5 6
f 1 6 2
f 2 6 8
f 2 8 7
f 3 9 10
f 3 10 4
f 4 10 11
f 4 11 12
f 4 12 13
f 4 13 24
f 4 24 23
f 4 23 32
f 4 32 39
f 4 39 46
f 4 46 61
f 4 61 71
f 4 71 81
f 4 81 82
f 4 82 72
f 4 72 62
f 4 62 50
f 4 50 43
f 4 43 35
f 4 35 36
f 4 36 28
f 4 28 17
f 4 17 19
f 4 19 8
f 4 8 6
f 4 6 5
f 7 8 15
f 7 15 16
f 7 16 17
f 7 17 18
f 7 18 14
f 8 19 16
f 8 16 15
f 9 20 21
f 9 21 11
f 9 11 22
f 9 22 10
f 10 22 11
f 11 23 24
f 11 24 12
f 11 21 25
f 11 25 23
f 12 24 13
f 14 26 27
f 14 18 28
f 14 28 29
f 14 29 30
f 14 30 26
f 16 19 17
f 17 28 18
f 20 25 21
f 23 31 32
f 23 25 31
f 25 33 31
f 26 34 27
f 26 30 35
f 26 35 34
f 28 36 37
f 28 37 29
f 29 37 30
f 30 37 35
f 31 33 32
f 32 38 39
f 32 33 40
f 32 40 38
f 34 35 41
f 34 41 42
f 35 37 36
f 35 43 44
f 35 44 41
f 38 40 39
f 39 45 46
f 39 40 47
f 39 47 45
f 41 48 49
f 41 49 42
f 41 44 48
f 43 50 51
f 43 51 44
f 44 51 52
f 44 52 53
f 44 53 54
f 44 54 55
f 44 55 48
f 45 56 57
f 45 57 46
f 45 47 58
f 45 58 59
f 45 59 60
f 45 60 56
f 46 57 61
f 50 62 51
f 51 63 52
f 51 62 64
f 51 64 63
f 52 63 64
f 52 64 65
f 52 65 66
f 52 66 54
f 52 54 53
f 54 66 55
f 56 60 67
f 56 67 57
f 57 67 68
f 57 68 61
f 58 69 59
f 59 69 70
f 59 70 67
f 59 67 60
f 61 68 71
f 62 72 73
f 62 73 74
f 62 74 64
f 64 74 75
f 64 75 76
f 64 76 65
f 65 76 66
f 67 77 78
f 67 78 68
f 67 70 77
f 68 78 79
f 68 79 71
f 70 80 77
f 71 79 81
f 72 82 83
f 72 83 73
f 73 83 74
f 74 83 84
f 74 84 75
f 75 84 85
f 75 85 86
f 75 86 87
f 75 87 76
f 76 87 88
f 77 86 78
f 77 80 89
f 77 89 86
f 78 85 84
f 78 84 83
f 78 83 79
f 78 86 85
f 79 83 81
f 81 83 82
f 86 89 90
f 86 90 87
f 87 90 88

