# https://github.com/mikedh/trimesh
v -2.04846105 -0.70919529 1.44281247
v -2.00888099 -0.70919529 1.44281247
v -2.04856274 -0.70501230 1.44281247
v -2.04997419 -0.70910234 1.23697710
v -2.04988061 -0.70919529 1.23868970
v -2.00886877 -0.70919529 1.43684856
v -2.00898268 -0.23437807 1.44281247
v -2.04881493 -0.69432240 1.44281247
v -2.02186012 -0.70919529 1.23697710
v -2.05015312 -0.69432240 1.23697710
v -2.00872643 -0.70919529 1.23697710
v -2.00864096 -0.23447103 1.23697710
v -2.00871016 -0.23437807 1.23866955
v -2.04835126 -0.23437807 1.44281247
v -2.04884747 -0.68837324 1.44281247
v -2.04890034 -0.67763687 1.44281247
v -2.05018972 -0.67763687 1.23697710
v -2.04717579 -0.23437807 1.23697710
v -2.04953895 -0.23437807 1.23697710
v -2.04837159 -0.23842164 1.44281247
v -2.04847327 -0.26105632 1.44281247
v -2.04844889 -0.25506069 1.44281247
f 1 2 7
f 1 7 14
f 1 14 20
f 1 20 22
f 1 22 21
f 1 21 16
f 1 16 15
f 1 15 8
f 1 8 3
f 1 3 4
f 1 4 5
f 1 5 9
f 1 9 11
f 1 11 6
f 1 6 2
f 2 6 7
f 3 8 4
f 4 9 5
f 4 8 10
f 4 10 17
f 4 17 19
f 4 19 18
f 4 18 12
f 4 12 11
f 4 11 9
f 6 11 12
f 6 12 7
f 7 12 13
f 7 13 18
f 7 18 19
f 7 19 14
f 8 15 10
f 10 15 16
f 10 16 17
f 12 18 13
f 14 19 20
f 16 21 17
f 17 21 19
f 19 21 22
f 19 22 20

