# https://github.com/mikedh/trimesh
v -2.43268335 -0.61468908 0.89320275
v -2.43268335 -0.61468908 0.83707615
v -2.41991850 -0.61468908 0.89659746
v -2.43268335 -0.61462845 0.89664179
v -2.43268335 -0.57788357 0.83701282
v -2.07044527 -0.54433719 0.83196508
v -2.07044527 -0.56099669 0.83202208
v -2.07044527 -0.61467393 0.83228175
v -2.07044527 -0.61468908 0.83244643
v -2.19961845 -0.61468908 0.89633779
v -2.43268335 -0.61100550 0.89664812
v -2.43268335 -0.47789627 0.83698114
v -2.07044527 -0.45985732 0.83204743
v -2.43268335 -0.47768404 0.83698114
v -2.07044527 -0.61468908 0.89600211
v -2.18664086 -0.61468908 0.89630612
v -2.39956567 -0.45982700 0.89657845
v -2.41623091 -0.45982700 0.89661012
v -2.43268335 -0.57767135 0.89666080
v -2.43268335 -0.59433085 0.89666080
v -2.07058713 -0.45982700 0.83228175
v -2.07044527 -0.45982700 0.83231343
v -2.43268335 -0.45984216 0.83700014
v -2.07044527 -0.45982700 0.89508377
v -2.14962281 -0.45982700 0.89586279
v -2.16628804 -0.45982700 0.89593245
v -2.43172597 -0.45982700 0.89662912
v -2.43268335 -0.45982700 0.89662912
v -2.41740096 -0.45982700 0.83719648
v -2.43268335 -0.45982700 0.84773526
f 1 2 9
f 1 9 15
f 1 15 16
f 1 16 10
f 1 10 3
f 1 3 4
f 1 4 11
f 1 11 20
f 1 20 19
f 1 19 28
f 1 28 30
f 1 30 23
f 1 23 14
f 1 14 12
f 1 12 5
f 1 5 2
f 2 5 6
f 2 6 7
f 2 7 8
f 2 8 9
f 3 10 4
f 4 10 11
f 5 12 6
f 6 13 22
f 6 22 24
f 6 24 15
f 6 15 9
f 6 9 8
f 6 8 7
f 6 12 14
f 6 14 13
f 10 16 17
f 10 17 18
f 10 18 19
f 10 19 20
f 10 20 11
f 13 21 22
f 13 14 23
f 13 23 21
f 15 24 25
f 15 25 26
f 15 26 17
f 15 17 16
f 17 26 25
f 17 25 24
f 17 24 22
f 17 22 21
f 17 21 29
f 17 29 30
f 17 30 28
f 17 28 27
f 17 27 18
f 18 27 19
f 19 27 28
f 21 23 29
f 23 30 29

