# https://github.com/mikedh/trimesh
v -0.92082472 -0.73829464 1.30010035
v -0.92082472 -0.79817796 1.30010035
v -0.92971143 -0.73827250 1.30010035
v -0.92082472 -0.73770428 1.30238075
v -0.92082472 -0.80584510 1.31249539
v -1.06534674 -0.79841412 1.30010035
v -0.93204608 -0.73827250 1.30010035
v -0.93197077 -0.73770428 1.30234395
v -0.92082472 -0.73770428 1.37955854
v -0.92082472 -0.81144602 1.32489043
v -0.99869640 -0.80589677 1.31243408
v -1.07061851 -0.79842148 1.30010035
v -0.93204608 -0.73770428 1.30234395
v -1.01534015 -0.73827986 1.30010035
v -1.01534015 -0.73770428 1.30236847
v -0.93249794 -0.75122324 1.42535031
v -0.92082472 -0.75123799 1.42535031
v -0.99741611 -0.73770428 1.37964437
v -0.96540889 -0.75120848 1.42535031
v -0.94868983 -0.75121584 1.42535031
v -0.92082472 -0.81309162 1.34155200
v -0.99869640 -0.81149768 1.32489043
v -1.14871614 -0.80588938 1.31227470
v -1.14871614 -0.79850267 1.30010035
v -1.03205922 -0.73770428 1.30238075
v -1.03205922 -0.73829464 1.30010035
v -1.69020302 -0.73770428 1.30344739
v -1.68365093 -0.73770428 1.30343511
v -0.92082472 -0.79589038 1.42535031
v -0.99869640 -0.73770428 1.37964437
v -0.98250451 -0.75120848 1.42535031
v -0.92082472 -0.81283335 1.37487515
v -0.99869640 -0.81306947 1.34155200
v -1.26537306 -0.81143865 1.32489043
v -1.28201681 -0.80591891 1.31222568
v -1.28713797 -0.79856171 1.30010035
v -1.04516335 -0.73832415 1.30010035
v -1.69020302 -0.74030182 1.30010035
v -1.69020302 -0.73770428 1.37852871
v -0.92082472 -0.80701103 1.40497390
v -0.93204608 -0.79588298 1.42535031
v -0.98205265 -0.80697413 1.40499843
v -1.46532408 -0.73770428 1.37897005
v -1.01586733 -0.75124538 1.42535031
v -1.48196781 -0.73770428 1.37894553
v -1.51533065 -0.73770428 1.37888425
v -0.92082472 -0.81255293 1.38605645
v -1.53197438 -0.81252340 1.37487515
v -1.53197438 -0.81291450 1.34155200
v -1.28201681 -0.81143126 1.32489043
v -1.29873587 -0.79856171 1.30010035
v -1.54861816 -0.81128367 1.32489043
v -1.56533722 -0.80576394 1.31234825
v -1.57053372 -0.79853216 1.30010035
v -1.69020302 -0.79836244 1.30010035
v -1.69020302 -0.75218991 1.42535031
v -1.68109041 -0.75216042 1.42535031
v -1.66527502 -0.75211612 1.42535031
v -0.92082472 -0.81240535 1.39153673
v -1.46532408 -0.79549190 1.42535031
v -0.99869640 -0.80697413 1.40497390
v -1.51533065 -0.81189617 1.39153673
v -1.54861816 -0.81250865 1.37487515
v -0.99869640 -0.81234632 1.39153673
v -1.54861816 -0.81289975 1.34155200
v -1.69020302 -0.81273741 1.34155200
v -1.56533722 -0.81126153 1.32489043
v -1.69020302 -0.81101066 1.32489043
v -1.69020302 -0.80554993 1.31259347
v -1.62069085 -0.79846576 1.30010035
v -1.61526845 -0.79847316 1.30010035
v -1.58198100 -0.79851742 1.30010035
v -1.69020302 -0.79501224 1.42535031
v -1.51533065 -0.79543286 1.42535031
v -1.63198757 -0.80661257 1.40454477
v -1.53197438 -0.81188139 1.39153673
v -1.69020302 -0.81236847 1.37487515
v -1.69020302 -0.81188878 1.33336220
v -1.69020302 -0.80652400 1.40440992
v -1.63198757 -0.79519672 1.42535031
v -1.64863130 -0.80659778 1.40448350
v -1.69020302 -0.80906988 1.39808366
v -1.69020302 -0.81169691 1.39153673
v -1.66527502 -0.81173381 1.39153673
v -1.63198757 -0.81177810 1.39153673
v -1.69020302 -0.81203637 1.38334695
f 1 2 6
f 1 6 12
f 1 12 24
f 1 24 36
f 1 36 51
f 1 51 54
f 1 54 72
f 1 72 71
f 1 71 70
f 1 70 55
f 1 55 38
f 1 38 37
f 1 37 26
f 1 26 14
f 1 14 7
f 1 7 3
f 1 3 4
f 1 4 9
f 1 9 17
f 1 17 29
f 1 29 40
f 1 40 59
f 1 59 47
f 1 47 32
f 1 32 21
f 1 21 10
f 1 10 5
f 1 5 2
f 2 5 6
f 3 7 13
f 3 13 8
f 3 8 4
f 4 8 13
f 4 13 15
f 4 15 25
f 4 25 28
f 4 28 27
f 4 27 39
f 4 39 46
f 4 46 45
f 4 45 43
f 4 43 30
f 4 30 18
f 4 18 9
f 5 10 11
f 5 11 12
f 5 12 6
f 7 14 15
f 7 15 13
f 9 16 17
f 9 18 19
f 9 19 20
f 9 20 16
f 10 21 22
f 10 22 11
f 11 22 23
f 11 23 24
f 11 24 12
f 14 25 15
f 14 26 27
f 14 27 28
f 14 28 25
f 16 20 19
f 16 19 31
f 16 31 44
f 16 44 58
f 16 58 57
f 16 57 56
f 16 56 73
f 16 73 80
f 16 80 74
f 16 74 60
f 16 60 41
f 16 41 29
f 16 29 17
f 18 30 31
f 18 31 19
f 21 32 33
f 21 33 34
f 21 34 22
f 22 34 35
f 22 35 23
f 23 35 24
f 24 35 36
f 26 37 27
f 27 38 55
f 27 55 69
f 27 69 68
f 27 68 78
f 27 78 66
f 27 66 77
f 27 77 86
f 27 86 83
f 27 83 82
f 27 82 79
f 27 79 73
f 27 73 56
f 27 56 39
f 27 37 38
f 29 41 42
f 29 42 40
f 30 43 31
f 31 43 45
f 31 45 46
f 31 46 39
f 31 39 44
f 32 47 48
f 32 48 49
f 32 49 33
f 33 49 34
f 34 50 35
f 34 49 50
f 35 51 36
f 35 50 52
f 35 52 53
f 35 53 54
f 35 54 51
f 39 56 57
f 39 57 58
f 39 58 44
f 40 42 59
f 41 60 42
f 42 61 59
f 42 60 61
f 47 59 48
f 48 62 76
f 48 76 63
f 48 63 65
f 48 65 49
f 48 59 64
f 48 64 62
f 49 65 52
f 49 52 50
f 52 65 66
f 52 66 67
f 52 67 53
f 53 67 68
f 53 68 69
f 53 69 55
f 53 55 70
f 53 70 71
f 53 71 72
f 53 72 54
f 59 61 64
f 60 74 75
f 60 75 61
f 61 75 64
f 62 75 76
f 62 64 75
f 63 76 77
f 63 77 65
f 65 77 66
f 66 78 67
f 67 78 68
f 73 79 80
f 74 80 75
f 75 80 79
f 75 79 81
f 75 81 82
f 75 82 83
f 75 83 84
f 75 84 85
f 75 85 76
f 76 85 77
f 77 85 86
f 79 82 81
f 83 86 84
f 84 86 85

