# https://github.com/mikedh/trimesh
v -3.48294406 -0.23127309 1.89441908
v -3.48294406 -0.22767029 1.89443988
v -3.44956626 -0.18283132 1.89514912
v -3.44956626 -0.18799584 1.89514912
v -3.47365377 -0.23127309 1.89487792
v -3.49600724 -0.23127309 1.89464850
v -3.55691962 -0.18990621 1.89506567
v -3.55691962 -0.18082657 1.89506567
v -3.49662731 -0.16914650 1.89509697
v -3.48805162 -0.16914650 1.89509697
v -3.44960829 -0.17449984 1.89535768
v -3.44956626 -0.17452166 1.89535768
v -3.44956626 -0.19632008 1.89543069
v -3.46672807 -0.23127309 1.90321107
v -3.44956626 -0.21100005 1.89887241
v -3.44956626 -0.22161234 1.90699701
v -3.49961198 -0.23127309 1.89472151
v -3.55691962 -0.19823043 1.89539940
v -3.55691962 -0.17249505 1.89533682
v -3.50772519 -0.16956778 1.89522214
v -3.55691962 -0.16317570 1.90368040
v -3.50115682 -0.16430885 1.90188653
v -3.48267083 -0.16433064 1.90194911
v -3.44956626 -0.16325560 1.90369083
v -3.44960829 -0.23127309 1.93185044
v -3.44956626 -0.23127309 1.93251795
v -3.50634849 -0.23127309 1.89506567
v -3.55691962 -0.20558132 1.89744362
v -3.50815607 -0.23127309 1.89518041
v -3.55691962 -0.16049541 1.91093935
v -3.51626934 -0.16317570 1.90361782
v -3.49961198 -0.15709598 1.92022160
v -3.44956626 -0.15727029 1.92016944
v -3.51626934 -0.15706692 1.92022160
v -3.44956626 -0.23127309 1.99817145
v -3.55691962 -0.21100005 1.89912275
v -3.55691962 -0.23127309 1.93287255
v -3.55691962 -0.22103850 1.90727858
v -3.55691962 -0.21666575 1.90368040
v -3.55691962 -0.15708144 1.92022160
v -3.44960829 -0.15725578 1.92022160
v -3.55691962 -0.15719039 1.97021009
v -3.53293720 -0.15723399 1.97021009
v -3.44956626 -0.15757538 1.97015793
v -3.44956626 -0.21095648 1.99997581
v -3.45321302 -0.23127309 1.99818194
v -3.55691962 -0.23127309 1.99807763
v -3.44960829 -0.15757538 1.97021009
v -3.48294406 -0.15740831 1.97021009
v -3.55691962 -0.15942764 1.98687639
v -3.54960511 -0.15943488 1.98687639
v -3.44956626 -0.15986344 1.98682424
v -3.44956626 -0.19428624 2.00095620
v -3.44960829 -0.19433708 2.00095620
v -3.46627617 -0.21100005 1.99999667
v -3.49961198 -0.23127309 1.99829662
v -3.55691962 -0.21100005 1.99985064
v -3.51986353 -0.23127309 1.99825489
v -3.46627617 -0.15977630 1.98687639
v -3.48294406 -0.15970364 1.98687639
v -3.55691962 -0.16551464 1.99772298
v -3.54960511 -0.16550736 1.99773347
v -3.46627617 -0.16568168 1.99774384
v -3.44956626 -0.16571801 1.99768125
v -3.44960829 -0.15987072 1.98687639
v -3.44956626 -0.17763778 2.00050773
v -3.44960829 -0.17767411 2.00051810
v -3.54960511 -0.17767411 2.00052859
v -3.55691962 -0.17767411 2.00052859
v -3.55691962 -0.18498867 2.00068499
v -3.55691962 -0.19433708 2.00088312
v -3.49961198 -0.21100005 1.99999667
v -3.55691962 -0.20165164 2.00044514
v -3.44960829 -0.16573255 1.99771261
v -3.55691962 -0.17084619 1.99896419
f 1 2 3
f 1 3 4
f 1 4 5
f 1 5 14
f 1 14 25
f 1 25 26
f 1 26 35
f 1 35 46
f 1 46 56
f 1 56 58
f 1 58 47
f 1 47 37
f 1 37 29
f 1 29 27
f 1 27 17
f 1 17 6
f 1 6 7
f 1 7 8
f 1 8 2
f 2 9 10
f 2 10 3
f 2 8 9
f 3 11 12
f 3 12 24
f 3 24 33
f 3 33 44
f 3 44 52
f 3 52 64
f 3 64 66
f 3 66 53
f 3 53 45
f 3 45 35
f 3 35 26
f 3 26 16
f 3 16 15
f 3 15 13
f 3 13 4
f 3 10 11
f 4 13 5
f 5 13 15
f 5 15 16
f 5 16 14
f 6 17 7
f 7 18 28
f 7 28 36
f 7 36 39
f 7 39 38
f 7 38 37
f 7 37 47
f 7 47 57
f 7 57 73
f 7 73 71
f 7 71 70
f 7 70 69
f 7 69 75
f 7 75 61
f 7 61 50
f 7 50 42
f 7 42 40
f 7 40 30
f 7 30 21
f 7 21 19
f 7 19 8
f 7 17 18
f 8 19 9
f 9 19 20
f 9 20 21
f 9 21 22
f 9 22 10
f 10 22 23
f 10 23 24
f 10 24 11
f 11 24 12
f 14 16 25
f 16 26 25
f 17 27 18
f 18 27 29
f 18 29 28
f 19 21 20
f 21 30 31
f 21 31 22
f 22 31 24
f 22 24 23
f 24 32 33
f 24 31 34
f 24 34 32
f 28 29 36
f 29 37 38
f 29 38 39
f 29 39 36
f 30 40 34
f 30 34 31
f 32 41 33
f 32 34 42
f 32 42 43
f 32 43 41
f 33 41 44
f 34 40 42
f 35 45 46
f 41 48 44
f 41 43 49
f 41 49 48
f 42 50 51
f 42 51 43
f 43 51 49
f 44 48 52
f 45 53 54
f 45 54 55
f 45 55 56
f 45 56 46
f 47 58 57
f 48 49 59
f 48 59 52
f 49 60 59
f 49 51 60
f 50 61 62
f 50 62 51
f 51 62 63
f 51 63 60
f 52 59 65
f 52 65 64
f 53 66 67
f 53 67 68
f 53 68 69
f 53 69 70
f 53 70 71
f 53 71 54
f 54 72 55
f 54 71 72
f 55 72 56
f 56 72 58
f 57 58 72
f 57 72 73
f 59 60 74
f 59 74 65
f 60 63 74
f 61 75 62
f 62 75 67
f 62 67 63
f 63 67 74
f 64 65 74
f 64 74 66
f 66 74 67
f 67 75 68
f 68 75 69
f 71 73 72

