# https://github.com/mikedh/trimesh
v -2.98192726 -0.73653292 1.01364157
v -2.98192726 -0.73540322 1.09735257
v -2.98192726 -0.78637698 1.01364157
v -2.99311484 -0.73649596 1.01364157
v -3.48291137 -0.73336025 1.09735257
v -3.47672426 -0.73338135 1.09735257
v -2.98294430 -0.73527125 1.09735257
v -2.98192726 -0.78618696 1.09735257
v -2.98192726 -0.78637698 1.02021325
v -2.98294430 -0.78638226 1.01364157
v -2.99964094 -0.73647486 1.01364157
v -3.49952322 -0.73580970 1.01364157
v -3.51621993 -0.73582025 1.01364157
v -3.84761016 -0.73612644 1.01364157
v -3.49952322 -0.73342361 1.09735257
v -2.98192726 -0.78634530 1.03796988
v -2.98294430 -0.78619751 1.09735257
v -2.98294430 -0.78638226 1.02021325
v -2.99964094 -0.78645617 1.01364157
v -3.84761016 -0.78696824 1.01364157
v -3.84761016 -0.73541377 1.09735257
v -2.99964094 -0.78645617 1.02021325
v -2.99964094 -0.78630838 1.09735257
v -3.00616705 -0.78647202 1.01364157
v -3.84761016 -0.78697879 1.02212247
v -3.68293211 -0.78714243 1.01364157
v -3.68293211 -0.78715301 1.02021325
v -3.84761016 -0.78691546 1.09735257
v -3.01633759 -0.78649312 1.02021325
v -3.41620954 -0.78705270 1.09735257
v -3.39968238 -0.78713716 1.07020549
v -3.39968238 -0.78720052 1.05354688
v -3.39968238 -0.78724275 1.03688006
v -3.06634277 -0.78659871 1.01364157
v -3.84761016 -0.78697351 1.07211472
v -3.66623541 -0.78718466 1.03688006
v -3.66623541 -0.78718466 1.05354688
v -3.67276157 -0.78715301 1.01364157
v -3.66623541 -0.78716884 1.02021325
v -3.67242254 -0.78713716 1.09735257
v -3.06634277 -0.78659344 1.02021325
v -3.66623541 -0.78714243 1.09735257
v -3.41620954 -0.78716356 1.07020549
v -3.41620954 -0.78722162 1.05354688
v -3.41620954 -0.78726385 1.03688006
v -3.41620954 -0.78729025 1.02021325
v -3.40620849 -0.78726915 1.01364157
v -3.41620954 -0.78728498 1.01364157
v -3.66623541 -0.78715829 1.01364157
v -3.64953882 -0.78716884 1.01364157
v -3.43290619 -0.78716884 1.07020549
f 1 2 8
f 1 8 16
f 1 16 9
f 1 9 3
f 1 3 10
f 1 10 19
f 1 19 24
f 1 24 34
f 1 34 47
f 1 47 48
f 1 48 50
f 1 50 49
f 1 49 38
f 1 38 26
f 1 26 20
f 1 20 14
f 1 14 13
f 1 13 12
f 1 12 11
f 1 11 4
f 1 4 5
f 1 5 6
f 1 6 7
f 1 7 2
f 2 7 6
f 2 6 5
f 2 5 15
f 2 15 21
f 2 21 28
f 2 28 40
f 2 40 42
f 2 42 30
f 2 30 23
f 2 23 17
f 2 17 8
f 3 9 18
f 3 18 10
f 4 11 5
f 5 12 13
f 5 13 14
f 5 14 15
f 5 11 12
f 8 17 16
f 9 16 18
f 10 18 22
f 10 22 19
f 14 20 25
f 14 25 35
f 14 35 28
f 14 28 21
f 14 21 15
f 16 22 18
f 16 17 23
f 16 23 22
f 19 22 24
f 20 26 27
f 20 27 25
f 22 23 29
f 22 29 24
f 23 30 31
f 23 31 32
f 23 32 33
f 23 33 29
f 24 29 34
f 25 27 36
f 25 36 37
f 25 37 35
f 26 38 27
f 27 38 39
f 27 39 36
f 28 35 40
f 29 33 41
f 29 41 34
f 30 42 43
f 30 43 31
f 31 43 32
f 32 43 44
f 32 44 45
f 32 45 33
f 33 45 46
f 33 46 41
f 34 41 46
f 34 46 47
f 35 37 40
f 36 39 48
f 36 48 46
f 36 46 37
f 37 42 40
f 37 46 42
f 38 49 39
f 39 49 50
f 39 50 48
f 42 46 45
f 42 45 44
f 42 44 51
f 42 51 43
f 43 51 44
f 46 48 47

