# https://github.com/mikedh/trimesh
v -2.48756185 -0.72143583 1.22449744
v -2.48756185 -0.72143583 1.11776125
v -2.48292594 -0.72143583 1.22449744
v -2.48292594 -0.24442602 1.22133355
v -2.48756185 -0.24442602 1.22132297
v -2.48292594 -0.72143583 1.11639622
v -2.48756185 -0.27773026 1.11961302
v -2.48292594 -0.31103450 1.11788823
v -2.46626488 -0.72143583 1.22448686
v -2.46626488 -0.24442602 1.22132297
v -2.48756185 -0.23234561 1.22120657
v -2.47178288 -0.72143583 1.11984581
v -2.48756185 -0.27246586 1.11966592
v -2.48292594 -0.27773026 1.11804695
v -2.45877138 -0.72143583 1.22447628
v -2.45877138 -0.24442602 1.22130181
v -2.45877138 -0.23694504 1.22122774
v -2.46626488 -0.22774620 1.22114309
v -2.48292594 -0.22774620 1.22115367
v -2.48756185 -0.22774620 1.22115367
v -2.46767400 -0.72143583 1.12150712
v -2.48756185 -0.26105044 1.11979291
v -2.48292594 -0.26105044 1.11822683
v -2.46958470 -0.26105044 1.12358110
v -2.45877138 -0.72143583 1.15829920
v -2.45877138 -0.22774620 1.22112193
v -2.45877138 -0.21106636 1.22080447
v -2.48756185 -0.21106636 1.22085738
v -2.46295918 -0.72143583 1.13688213
v -2.45877138 -0.17770671 1.13182414
v -2.48756185 -0.25573062 1.12004686
v -2.48292594 -0.24442602 1.11941197
v -2.46980453 -0.24442602 1.12402553
v -2.45877138 -0.19438655 1.22023306
v -2.48756185 -0.19438655 1.22033888
v -2.48292594 -0.17770671 1.13175007
v -2.45877138 -0.16928368 1.13533722
v -2.48756185 -0.24442602 1.12086164
v -2.48756185 -0.23821958 1.12181398
v -2.48756185 -0.17770671 1.13177123
v -2.45877138 -0.18690557 1.21969340
v -2.48756185 -0.18236152 1.21949235
v -2.48292594 -0.16235685 1.13823657
v -2.46626488 -0.16241222 1.13819423
v -2.45877138 -0.16241222 1.13820483
v -2.48756185 -0.16235685 1.13826830
v -2.45877138 -0.17770671 1.21902678
v -2.48292594 -0.17770671 1.21913259
v -2.48756185 -0.17770671 1.21914317
v -2.48756185 -0.16041730 1.14249034
v -2.48292594 -0.15531915 1.15355866
v -2.45877138 -0.15543002 1.15355866
v -2.45877138 -0.16485049 1.21504810
v -2.48756185 -0.16839705 1.21621207
v -2.48756185 -0.15537458 1.15355866
v -2.48756185 -0.15537458 1.15818281
v -2.48756185 -0.15548539 1.17020345
v -2.48292594 -0.15548539 1.17020345
v -2.46626488 -0.15554082 1.17020345
v -2.45877138 -0.15559625 1.17020345
v -2.45877138 -0.15825613 1.20353538
v -2.46626488 -0.15820070 1.20353538
v -2.48292594 -0.15808989 1.20353538
v -2.48292594 -0.16485049 1.21506926
v -2.48756185 -0.16490592 1.21507984
v -2.48756185 -0.15576249 1.18685883
v -2.48292594 -0.15570706 1.18685883
v -2.45877138 -0.15576249 1.17936708
v -2.45877138 -0.15720327 1.19604362
v -2.48756185 -0.15814533 1.20353538
v -2.48756185 -0.15997401 1.20674158
v -2.45877138 -0.15592873 1.18685883
f 1 2 6
f 1 6 12
f 1 12 21
f 1 21 29
f 1 29 25
f 1 25 15
f 1 15 9
f 1 9 3
f 1 3 4
f 1 4 5
f 1 5 11
f 1 11 20
f 1 20 28
f 1 28 35
f 1 35 42
f 1 42 49
f 1 49 54
f 1 54 65
f 1 65 71
f 1 71 70
f 1 70 66
f 1 66 57
f 1 57 56
f 1 56 55
f 1 55 50
f 1 50 46
f 1 46 40
f 1 40 39
f 1 39 38
f 1 38 31
f 1 31 22
f 1 22 13
f 1 13 7
f 1 7 2
f 2 7 8
f 2 8 6
f 3 9 10
f 3 10 4
f 4 10 11
f 4 11 5
f 6 8 12
f 7 13 14
f 7 14 8
f 8 14 12
f 9 15 10
f 10 16 17
f 10 17 18
f 10 18 11
f 10 15 16
f 11 19 20
f 11 18 19
f 12 14 21
f 13 22 23
f 13 23 14
f 14 24 21
f 14 23 24
f 15 25 30
f 15 30 37
f 15 37 45
f 15 45 52
f 15 52 60
f 15 60 68
f 15 68 72
f 15 72 69
f 15 69 61
f 15 61 53
f 15 53 47
f 15 47 41
f 15 41 34
f 15 34 27
f 15 27 26
f 15 26 17
f 15 17 16
f 17 26 18
f 18 26 27
f 18 27 28
f 18 28 19
f 19 28 20
f 21 24 30
f 21 30 29
f 22 31 23
f 23 31 32
f 23 32 30
f 23 30 33
f 23 33 24
f 24 33 30
f 25 29 30
f 27 34 35
f 27 35 28
f 30 32 36
f 30 36 37
f 31 38 32
f 32 38 39
f 32 39 40
f 32 40 36
f 34 41 42
f 34 42 35
f 36 40 43
f 36 43 44
f 36 44 45
f 36 45 37
f 40 46 43
f 41 47 42
f 42 47 48
f 42 48 49
f 43 46 50
f 43 50 51
f 43 51 45
f 43 45 44
f 45 51 52
f 47 53 48
f 48 53 49
f 49 53 54
f 50 55 51
f 51 55 56
f 51 56 57
f 51 57 58
f 51 58 59
f 51 59 52
f 52 59 60
f 53 61 62
f 53 62 63
f 53 63 64
f 53 64 54
f 54 64 65
f 57 66 67
f 57 67 58
f 58 67 59
f 59 67 60
f 60 67 68
f 61 69 67
f 61 67 62
f 62 67 63
f 63 67 66
f 63 66 70
f 63 70 71
f 63 71 64
f 64 71 65
f 67 69 72
f 67 72 68

