# https://github.com/mikedh/trimesh
v -3.44973840 -0.23199953 1.54607316
v -3.46974754 -0.23199953 1.51101784
v -3.53132095 -0.23199953 1.54607316
v -3.44994076 -0.31515660 1.55125279
v -3.45721754 -0.67832571 1.55125279
v -3.47458793 -0.70694896 1.51184331
v -3.48294933 -0.32773774 1.50788696
v -3.48294933 -0.23199953 1.50829329
v -3.47430462 -0.64427714 1.51146261
v -3.47402943 -0.57758311 1.51112900
v -3.48294933 -0.64427714 1.50794257
v -3.48294933 -0.57758311 1.50775434
v -3.48294933 -0.56093299 1.50771589
v -3.48294933 -0.54423610 1.50770731
v -3.48294933 -0.41103512 1.50772013
v -3.51281731 -0.23199953 1.51079539
v -3.50795264 -0.63819704 1.51186042
v -3.53242984 -0.31515660 1.55125279
v -3.45784080 -0.70269288 1.55125279
v -3.48294933 -0.69427429 1.50833603
v -3.48294933 -0.66092726 1.50807084
v -3.45941920 -0.70975515 1.55125279
v -3.47451509 -0.70980193 1.51573976
v -3.47833560 -0.70980193 1.51036767
v -3.49959123 -0.36108475 1.50756187
v -3.49526885 -0.23199953 1.50813504
v -3.49912178 -0.69427429 1.50842585
v -3.49959123 -0.37773488 1.50759186
v -3.51007339 -0.23199953 1.50983730
v -3.49896800 -0.70980193 1.50855418
v -3.50787170 -0.64928154 1.51239078
v -3.52507212 -0.67762416 1.55125279
v -3.52554968 -0.66092726 1.55125279
v -3.52588156 -0.64427714 1.55125279
v -3.48150045 -0.70980193 1.50909736
v -3.46737589 -0.70980193 1.55125279
v -3.46744875 -0.70980193 1.54947775
v -3.49959123 -0.23199953 1.50808795
v -3.49959123 -0.62762703 1.50831469
v -3.50741846 -0.70980193 1.51980304
v -3.50758839 -0.67762416 1.51495702
v -3.50775839 -0.66092726 1.51318204
v -3.52389844 -0.70980193 1.55125279
f 1 2 8
f 1 8 26
f 1 26 38
f 1 38 29
f 1 29 16
f 1 16 3
f 1 3 18
f 1 18 4
f 1 4 5
f 1 5 6
f 1 6 2
f 2 7 8
f 2 6 9
f 2 9 10
f 2 10 11
f 2 11 12
f 2 12 13
f 2 13 14
f 2 14 15
f 2 15 7
f 3 16 17
f 3 17 18
f 4 18 34
f 4 34 33
f 4 33 32
f 4 32 43
f 4 43 36
f 4 36 22
f 4 22 19
f 4 19 5
f 5 19 6
f 6 20 21
f 6 21 9
f 6 19 22
f 6 22 23
f 6 23 24
f 6 24 20
f 7 25 26
f 7 26 8
f 7 15 25
f 9 21 11
f 9 11 10
f 11 21 27
f 11 27 12
f 12 27 28
f 12 28 13
f 13 28 25
f 13 25 14
f 14 25 15
f 16 29 27
f 16 27 17
f 17 27 30
f 17 30 31
f 17 31 32
f 17 32 33
f 17 33 34
f 17 34 18
f 20 24 35
f 20 35 30
f 20 30 27
f 20 27 21
f 22 36 37
f 22 37 23
f 23 37 36
f 23 36 43
f 23 43 40
f 23 40 30
f 23 30 35
f 23 35 24
f 25 28 29
f 25 29 38
f 25 38 26
f 27 29 39
f 27 39 28
f 28 39 29
f 30 40 41
f 30 41 42
f 30 42 31
f 31 42 43
f 31 43 32
f 40 43 41
f 41 43 42

