# https://github.com/mikedh/trimesh
v 2.04362126 -0.73458321 1.02049115
v 2.04362126 -0.73458795 1.08956731
v 2.04362126 -0.78114340 1.02049115
v 1.63615099 -0.73628408 1.02049115
v 1.63615099 -0.73587548 1.08956731
v 2.04362126 -0.78087261 1.08956731
v 2.04362126 -0.78111965 1.03687602
v 2.02411537 -0.78129068 1.05354492
v 2.02411537 -0.78130970 1.03687602
v 2.02411537 -0.78131443 1.02049115
v 1.63615099 -0.78311984 1.02049115
v 1.63615099 -0.78298207 1.08956731
v 2.04362126 -0.78089636 1.08686918
v 2.02411537 -0.78108639 1.08956731
v 2.04362126 -0.78111491 1.03974997
v 2.04362126 -0.78109115 1.05354492
v 2.04362126 -0.78108165 1.05641210
v 2.02411537 -0.78122419 1.07020029
v 2.00744160 -0.78135246 1.07020029
v 2.00744160 -0.78140948 1.05354492
v 2.00744160 -0.78143797 1.03687602
v 2.00744160 -0.78144273 1.02049115
v 1.63615099 -0.78311034 1.03224390
v 1.64081808 -0.78310560 1.02049115
v 1.63615099 -0.78307234 1.05354492
v 1.63690893 -0.78298207 1.08956731
v 2.04362126 -0.78101990 1.07020029
v 2.00744160 -0.78123844 1.08956731
v 1.99076785 -0.78132871 1.08956731
v 1.70747329 -0.78274451 1.08956731
v 1.69079947 -0.78282054 1.08956731
v 1.72442630 -0.78273977 1.02049115
v 1.99104704 -0.78152824 1.02049115
v 1.63615099 -0.78310560 1.03687602
v 1.64081808 -0.78309132 1.03687602
v 1.65745195 -0.78302007 1.03687602
v 1.63615099 -0.78308185 1.04891279
v 1.64081808 -0.78306283 1.05354492
v 1.64349065 -0.78297256 1.08956731
v 1.67683823 -0.78287278 1.08956731
v 1.67412572 -0.78288229 1.08956731
v 1.66016447 -0.78292979 1.08956731
f 1 2 6
f 1 6 13
f 1 13 27
f 1 27 17
f 1 17 16
f 1 16 15
f 1 15 7
f 1 7 3
f 1 3 10
f 1 10 22
f 1 22 33
f 1 33 32
f 1 32 24
f 1 24 11
f 1 11 4
f 1 4 5
f 1 5 2
f 2 5 12
f 2 12 26
f 2 26 39
f 2 39 42
f 2 42 41
f 2 41 40
f 2 40 31
f 2 31 30
f 2 30 29
f 2 29 28
f 2 28 14
f 2 14 6
f 3 7 8
f 3 8 9
f 3 9 10
f 4 11 23
f 4 23 34
f 4 34 37
f 4 37 25
f 4 25 12
f 4 12 5
f 6 14 13
f 7 15 8
f 8 15 16
f 8 16 17
f 8 17 18
f 8 18 19
f 8 19 20
f 8 20 21
f 8 21 9
f 9 21 22
f 9 22 10
f 11 24 23
f 12 25 26
f 13 14 27
f 14 18 27
f 14 28 18
f 17 27 18
f 18 28 19
f 19 28 29
f 19 29 30
f 19 30 20
f 20 30 21
f 21 30 31
f 21 31 32
f 21 32 33
f 21 33 22
f 23 24 35
f 23 35 34
f 24 36 35
f 24 32 36
f 25 37 38
f 25 38 39
f 25 39 26
f 31 40 35
f 31 35 36
f 31 36 32
f 34 35 38
f 34 38 37
f 35 40 38
f 38 40 41
f 38 41 42
f 38 42 39

