# https://github.com/mikedh/trimesh
v -3.76446578 1.64658600 0.87109824
v -3.74780355 1.64658600 0.87124567
v -3.76445433 1.61159562 0.85033393
v -3.78146064 1.61120539 0.85033393
v -3.79780183 1.60921878 0.85033393
v -3.77065822 1.64658600 0.87389958
v -3.74995940 1.60515096 0.85033393
v -3.73649657 1.64658600 0.87487022
v -3.69816073 1.62303046 0.87472278
v -3.81019816 1.60286871 0.85033393
v -3.77890340 1.64658600 0.87765926
v -3.73249439 1.58650282 0.85033393
v -3.69816073 1.62272301 0.87458763
v -3.73037295 1.64658600 0.87733982
v -3.69816073 1.63314091 0.88080463
v -3.69816073 1.62929775 0.87848248
v -3.81430357 1.58937631 0.85033393
v -3.81507187 1.58937631 0.90911290
v -3.81523242 1.58937631 0.92577349
v -3.81061100 1.60324712 0.90911290
v -3.78490087 1.64658600 0.89244002
v -3.72494881 1.57273843 0.85033393
v -3.69816073 1.60642806 0.87154055
v -3.69816073 1.64658600 0.90182696
v -3.69816073 1.63335375 0.88106265
v -3.81436088 1.58063759 0.85033393
v -3.81438385 1.57273843 0.85033393
v -3.81438385 1.55606509 0.85033393
v -3.81069127 1.60331806 0.92577349
v -3.81481959 1.55606509 0.90911290
v -3.81492277 1.55606509 0.92577349
v -3.81500304 1.55606509 0.94243408
v -3.81530125 1.58937631 0.94243408
v -3.81071423 1.60334171 0.94243408
v -3.81067982 1.60331806 0.95913154
v -3.81063396 1.60329442 0.97585356
v -3.78471741 1.64658600 0.90911290
v -3.69816073 1.60604967 0.87149141
v -3.72334333 1.55606509 0.85033393
v -3.69816073 1.64658600 0.95211591
v -3.81354672 1.54732637 0.85033393
v -3.81319120 1.53937991 0.90911290
v -3.81277836 1.53937991 0.85033393
v -3.81327148 1.53937991 0.92577349
v -3.81332879 1.53937991 0.94243408
v -3.81337466 1.53937991 0.97580442
v -3.81502600 1.55606509 0.95913154
v -3.81516360 1.57273843 0.95913154
v -3.81510628 1.57275026 0.97585356
v -3.81523242 1.58937631 0.95913154
v -3.81514069 1.58937631 0.97580442
v -3.81511773 1.58939996 0.97585356
v -3.79780183 1.60970361 0.97585356
v -3.77368568 1.64658600 0.95126813
v -3.77699977 1.64658600 0.94623064
v -3.77948824 1.64658600 0.94244637
v -3.78235508 1.64658600 0.93293656
v -3.78451100 1.64658600 0.92577349
v -3.78463714 1.64658600 0.91625140
v -3.69816073 1.58941179 0.87117196
v -3.69816073 1.57273843 0.87165114
v -3.72452452 1.54899370 0.85033393
v -3.76446578 1.64658600 0.95180874
v -3.78112808 1.61057867 0.97585356
v -3.76445433 1.61008202 0.97585356
v -3.75118640 1.60356640 0.97585356
v -3.73366408 1.58503651 0.97585356
v -3.72556807 1.57273843 0.97585356
v -3.72349243 1.55606509 0.97585356
v -3.69816073 1.58902156 0.95279166
v -3.81063396 1.53389308 0.85033393
v -3.80866156 1.52891473 0.85033393
v -3.80886798 1.52877282 0.90911290
v -3.80897116 1.52871371 0.97580442
v -3.80897116 1.52872552 0.97585356
v -3.81337466 1.53945088 0.97585356
v -3.81500304 1.55610056 0.97585356
v -3.72608408 1.53997116 0.85033393
v -3.69816073 1.55911595 0.87816302
v -3.72666893 1.53939175 0.97585356
v -3.69816073 1.56281720 0.95184560
v -3.69816073 1.57273843 0.95288995
v -3.79780183 1.52627775 0.85033393
v -3.79780183 1.52617132 0.90911290
v -3.79780183 1.52612402 0.97580442
v -3.79775596 1.52612402 0.97585356
v -3.72939817 1.53543034 0.85033393
v -3.69816073 1.55400752 0.89202228
v -3.73439803 1.52865458 0.85033393
v -3.73452417 1.52886744 0.97585356
v -3.69816073 1.55750775 0.94243408
v -3.78112808 1.52584022 0.85033393
v -3.78112808 1.52578109 0.89242773
v -3.78112808 1.52586387 0.97580442
v -3.78108222 1.52586387 0.97585356
v -3.69816073 1.55387746 0.89242773
v -3.73442093 1.52861909 0.85908197
v -3.74783790 1.52600576 0.87579171
v -3.74783790 1.52612402 0.85033393
v -3.69816073 1.55378285 0.90869515
v -3.69816073 1.55372372 0.92533117
v -3.74778059 1.52641964 0.97585356
v -3.74783790 1.52627775 0.95913154
v -3.73455858 1.52876101 0.95913154
v -3.69816073 1.55372372 0.92577349
v -3.76445433 1.52592297 0.85033393
v -3.76445433 1.52584022 0.89242773
v -3.76440847 1.52601759 0.97585356
v -3.73450121 1.52857179 0.87579171
v -3.74783790 1.52601759 0.89242773
v -3.75655323 1.52600576 0.85033393
f 1 2 3
f 1 3 4
f 1 4 5
f 1 5 6
f 1 6 11
f 1 11 21
f 1 21 37
f 1 37 59
f 1 59 58
f 1 58 57
f 1 57 56
f 1 56 55
f 1 55 54
f 1 54 63
f 1 63 40
f 1 40 24
f 1 24 14
f 1 14 8
f 1 8 2
f 2 7 3
f 2 8 9
f 2 9 7
f 3 7 12
f 3 12 22
f 3 22 39
f 3 39 62
f 3 62 78
f 3 78 87
f 3 87 89
f 3 89 99
f 3 99 111
f 3 111 106
f 3 106 92
f 3 92 83
f 3 83 72
f 3 72 71
f 3 71 43
f 3 43 41
f 3 41 28
f 3 28 27
f 3 27 26
f 3 26 17
f 3 17 10
f 3 10 5
f 3 5 4
f 5 10 11
f 5 11 6
f 7 9 13
f 7 13 12
f 8 14 15
f 8 15 16
f 8 16 9
f 9 16 15
f 9 15 25
f 9 25 24
f 9 24 40
f 9 40 70
f 9 70 82
f 9 82 81
f 9 81 91
f 9 91 105
f 9 105 101
f 9 101 100
f 9 100 96
f 9 96 88
f 9 88 79
f 9 79 61
f 9 61 60
f 9 60 38
f 9 38 23
f 9 23 13
f 10 17 18
f 10 18 19
f 10 19 20
f 10 20 21
f 10 21 11
f 12 13 22
f 13 23 22
f 14 24 25
f 14 25 15
f 17 26 18
f 18 26 27
f 18 27 28
f 18 28 19
f 19 29 20
f 19 28 30
f 19 30 31
f 19 31 32
f 19 32 33
f 19 33 29
f 20 29 21
f 21 29 34
f 21 34 35
f 21 35 36
f 21 36 37
f 22 23 38
f 22 38 39
f 28 41 30
f 29 33 34
f 30 42 31
f 30 41 43
f 30 43 42
f 31 42 44
f 31 44 32
f 32 44 45
f 32 45 46
f 32 46 47
f 32 47 33
f 33 47 48
f 33 48 49
f 33 49 50
f 33 50 36
f 33 36 35
f 33 35 34
f 36 50 51
f 36 51 52
f 36 52 49
f 36 49 77
f 36 77 76
f 36 76 75
f 36 75 86
f 36 86 95
f 36 95 108
f 36 108 102
f 36 102 90
f 36 90 80
f 36 80 69
f 36 69 68
f 36 68 67
f 36 67 66
f 36 66 65
f 36 65 64
f 36 64 53
f 36 53 54
f 36 54 55
f 36 55 56
f 36 56 57
f 36 57 58
f 36 58 59
f 36 59 37
f 38 60 39
f 39 60 61
f 39 61 62
f 40 63 64
f 40 64 65
f 40 65 66
f 40 66 67
f 40 67 68
f 40 68 69
f 40 69 70
f 42 43 71
f 42 71 72
f 42 72 44
f 44 72 73
f 44 73 45
f 45 73 74
f 45 74 46
f 46 74 75
f 46 75 76
f 46 76 77
f 46 77 47
f 47 77 48
f 48 77 49
f 49 52 51
f 49 51 50
f 53 64 63
f 53 63 54
f 61 78 62
f 61 79 78
f 69 80 81
f 69 81 82
f 69 82 70
f 72 83 73
f 73 84 74
f 73 83 84
f 74 85 86
f 74 86 75
f 74 84 85
f 78 79 87
f 79 88 89
f 79 89 87
f 80 90 81
f 81 90 91
f 83 92 84
f 84 92 93
f 84 93 85
f 85 94 95
f 85 95 86
f 85 93 94
f 88 96 89
f 89 97 98
f 89 98 99
f 89 96 100
f 89 100 101
f 89 101 97
f 90 102 103
f 90 103 104
f 90 104 105
f 90 105 91
f 92 106 107
f 92 107 93
f 93 107 95
f 93 95 94
f 95 107 108
f 97 109 98
f 97 101 105
f 97 105 109
f 98 109 110
f 98 110 107
f 98 107 106
f 98 106 111
f 98 111 99
f 102 108 103
f 103 108 110
f 103 110 104
f 104 110 109
f 104 109 105
f 107 110 108

