# https://github.com/mikedh/trimesh
v 0.22830257 -0.78662315 1.87000519
v 0.27390007 -0.78676203 1.87000519
v 0.22830257 -0.75043796 1.87000519
v 0.22830257 -0.78656975 1.65482671
v 0.32410528 -0.78681545 1.87000519
v 0.34776358 -0.75434776 1.87000519
v 0.34776358 -0.75331867 1.65482671
v 0.22830257 -0.75168424 1.65482671
v 0.25744572 -0.78658754 1.65482671
v 0.34077016 -0.78681186 1.87000519
v 0.34776358 -0.78658042 1.65482671
v 0.34776358 -0.78678695 1.87000519
f 1 2 5
f 1 5 10
f 1 10 12
f 1 12 6
f 1 6 3
f 1 3 8
f 1 8 4
f 1 4 2
f 2 4 5
f 3 6 7
f 3 7 8
f 4 8 7
f 4 7 11
f 4 11 9
f 4 9 5
f 5 9 11
f 5 11 10
f 6 12 11
f 6 11 7
f 10 11 12

