# https://github.com/mikedh/trimesh
v 1.08388229 -0.73409281 1.60384770
v 1.14077486 -0.73409281 1.60384770
v 1.08388229 -0.70980474 1.60085838
v 1.08388229 -0.73409281 1.53060314
v 1.14187037 -0.73409281 1.60383667
v 1.14187037 -0.70980474 1.60078113
v 1.08388229 -0.70980474 1.55163886
v 1.10822752 -0.73409281 1.50425052
v 1.14187037 -0.73409281 1.49255781
v 1.14187037 -0.70980474 1.50748255
v 1.12716333 -0.70980474 1.50879517
v 1.12279833 -0.73409281 1.49116794
v 1.14172847 -0.73409281 1.49252473
v 1.14086568 -0.70980474 1.50717367
v 1.13976450 -0.70980474 1.50728394
v 1.14077486 -0.73409281 1.49231513
f 1 2 3
f 1 3 7
f 1 7 4
f 1 4 8
f 1 8 12
f 1 12 16
f 1 16 13
f 1 13 9
f 1 9 5
f 1 5 2
f 2 5 6
f 2 6 3
f 3 6 10
f 3 10 14
f 3 14 15
f 3 15 11
f 3 11 7
f 4 7 8
f 5 9 10
f 5 10 6
f 7 11 8
f 8 11 12
f 9 13 14
f 9 14 10
f 11 15 12
f 12 15 14
f 12 14 16
f 13 16 14

