# https://github.com/mikedh/trimesh
v -3.74940822 -0.16888611 0.09502756
v -3.74940822 -0.17363336 0.09502756
v -3.74940822 -0.16176521 0.10353405
v -3.50889655 -0.16364646 0.10187792
v -3.50889655 -0.16932701 0.09519487
v -3.66625561 -0.18051909 0.09540397
v -3.74940822 -0.18196681 0.09536212
v -3.50889655 -0.16947400 0.09519487
v -3.50889655 -0.17608784 0.09543741
v -3.74940822 -0.15512931 0.12000330
v -3.56629354 -0.15496766 0.12020405
v -3.54962532 -0.15496766 0.12020405
v -3.53295711 -0.15497499 0.12020405
v -3.53295711 -0.16222083 0.10356749
v -3.50889655 -0.15898004 0.11179794
v -3.51628895 -0.19433467 0.09627384
v -3.74940822 -0.18212846 0.09537047
v -3.50889655 -0.19433467 0.09629894
v -3.74940822 -0.15504848 0.12020405
v -3.56629354 -0.15487944 0.13686571
v -3.53295711 -0.15490150 0.13686571
v -3.51628895 -0.15501910 0.12020405
v -3.50889655 -0.15504848 0.12020405
v -3.51628895 -0.20729043 0.10432030
v -3.53295711 -0.20729043 0.10430355
v -3.74940822 -0.19433467 0.09622366
v -3.50889655 -0.20726841 0.10434539
v -3.74940822 -0.15501910 0.13686571
v -3.61627458 -0.15507054 0.15352736
v -3.53295711 -0.15501174 0.15352736
v -3.51628895 -0.15503379 0.15352736
v -3.50889655 -0.15504848 0.15352736
v -3.51628895 -0.15496766 0.13686571
v -3.50889655 -0.15501910 0.12949679
v -3.50889655 -0.22994652 0.12986479
v -3.53295711 -0.22994652 0.12982300
v -3.54990785 -0.22994652 0.12983969
v -3.58289106 -0.22994652 0.12988988
v -3.59960636 -0.22994652 0.12992338
v -3.64534971 -0.22994652 0.13005719
v -3.74940822 -0.20676868 0.10439558
v -3.74940822 -0.19448165 0.09631569
v -3.74940822 -0.15517342 0.15352736
v -3.74940822 -0.16026608 0.17019743
v -3.73292835 -0.16026608 0.17019743
v -3.50889655 -0.16101564 0.17019743
v -3.50889655 -0.15499704 0.13686571
v -3.63291919 -0.16049389 0.17019743
v -3.50889655 -0.22994652 0.17985817
v -3.74940822 -0.22994652 0.13050888
v -3.74940822 -0.16729143 0.17943992
v -3.73292835 -0.16726202 0.17943992
v -3.50889655 -0.16815124 0.17902173
v -3.71626020 -0.16729877 0.17943157
v -3.69959198 -0.16736493 0.17942323
v -3.68292377 -0.16741637 0.17938973
v -3.63291919 -0.16758538 0.17928935
v -3.50889655 -0.22766841 0.17986651
v -3.74940822 -0.22766841 0.18040182
v -3.74940822 -0.22994652 0.18037673
v -3.74940822 -0.17755022 0.18040182
v -3.50889655 -0.17767515 0.17956539
v -3.68292377 -0.17767515 0.18027635
v -3.63291919 -0.17767515 0.18007560
v -3.73292835 -0.17767515 0.18038507
v -3.69959198 -0.17767515 0.18031820
v -3.50889655 -0.22029031 0.17984976
v -3.66625561 -0.19433467 0.18025961
v -3.74940822 -0.19433467 0.18047711
v -3.74940822 -0.21080314 0.18046036
v -3.74940822 -0.17767515 0.18041017
v -3.50889655 -0.18696393 0.17964067
v -3.50889655 -0.21100154 0.17982467
f 1 2 7
f 1 7 17
f 1 17 26
f 1 26 42
f 1 42 41
f 1 41 50
f 1 50 60
f 1 60 59
f 1 59 70
f 1 70 69
f 1 69 71
f 1 71 61
f 1 61 51
f 1 51 44
f 1 44 43
f 1 43 28
f 1 28 19
f 1 19 10
f 1 10 3
f 1 3 4
f 1 4 5
f 1 5 8
f 1 8 2
f 2 6 7
f 2 8 9
f 2 9 6
f 3 10 11
f 3 11 12
f 3 12 13
f 3 13 14
f 3 14 4
f 4 14 15
f 4 15 23
f 4 23 34
f 4 34 47
f 4 47 32
f 4 32 46
f 4 46 53
f 4 53 62
f 4 62 72
f 4 72 73
f 4 73 67
f 4 67 58
f 4 58 49
f 4 49 35
f 4 35 27
f 4 27 18
f 4 18 9
f 4 9 8
f 4 8 5
f 6 9 16
f 6 16 7
f 7 16 17
f 9 18 16
f 10 19 11
f 11 20 12
f 11 19 20
f 12 20 13
f 13 20 21
f 13 21 22
f 13 22 14
f 14 22 23
f 14 23 15
f 16 18 24
f 16 24 25
f 16 25 26
f 16 26 17
f 18 27 24
f 19 28 20
f 20 29 30
f 20 30 21
f 20 28 29
f 21 30 31
f 21 31 32
f 21 32 33
f 21 33 34
f 21 34 22
f 22 34 23
f 24 27 35
f 24 35 36
f 24 36 25
f 25 36 37
f 25 37 38
f 25 38 39
f 25 39 40
f 25 40 41
f 25 41 42
f 25 42 26
f 28 43 29
f 29 43 44
f 29 44 30
f 30 44 45
f 30 45 31
f 31 45 32
f 32 47 33
f 32 45 48
f 32 48 46
f 33 47 34
f 35 49 60
f 35 60 50
f 35 50 40
f 35 40 39
f 35 39 38
f 35 38 37
f 35 37 36
f 40 50 41
f 44 51 52
f 44 52 45
f 45 52 48
f 46 48 54
f 46 54 55
f 46 55 56
f 46 56 57
f 46 57 53
f 48 52 54
f 49 58 59
f 49 59 60
f 51 61 52
f 52 61 54
f 53 57 63
f 53 63 64
f 53 64 62
f 54 61 55
f 55 61 65
f 55 65 66
f 55 66 56
f 56 66 57
f 57 66 63
f 58 67 63
f 58 63 68
f 58 68 69
f 58 69 70
f 58 70 59
f 61 71 65
f 62 64 72
f 63 67 73
f 63 73 64
f 63 66 69
f 63 69 68
f 64 73 72
f 65 71 69
f 65 69 66

