# https://github.com/mikedh/trimesh
v -2.98194564 -0.73580105 0.60319033
v -2.98194564 -0.78627795 0.60319033
v -2.99649290 -0.73551811 0.60319033
v -2.98194564 -0.73585976 0.77019101
v -2.98194564 -0.78781013 0.77819073
v -3.00000074 -0.78643811 0.60319033
v -2.99829840 -0.73551277 0.60319033
v -2.99097320 -0.73582776 0.77819073
v -2.98194564 -0.73588113 0.77819073
v -3.06634033 -0.78850950 0.77819073
v -3.01635350 -0.78654489 0.60319033
v -3.04911060 -0.73558752 0.60319033
v -3.00768705 -0.73580105 0.77819073
v -3.39953426 -0.78999898 0.77819073
v -3.06634033 -0.78682784 0.60319033
v -3.05003916 -0.78674776 0.60319033
v -3.02434932 -0.73583309 0.77819073
v -3.34954741 -0.73759484 0.60319033
v -3.50889655 -0.73878003 0.77819073
v -3.07655435 -0.73599325 0.77819073
v -3.06634033 -0.73594521 0.77819073
v -3.04967806 -0.73588647 0.77819073
v -3.40820067 -0.79001501 0.77819073
v -3.21630080 -0.78745780 0.60319033
v -3.19999962 -0.78739373 0.60319033
v -3.46618334 -0.73846505 0.60319033
v -3.48284562 -0.73876933 0.60319033
v -3.50889655 -0.73936726 0.60319033
v -3.50889655 -0.79003101 0.77819073
v -3.41619652 -0.79002035 0.77819073
v -3.41619652 -0.78759659 0.60319033
v -3.50889655 -0.78755922 0.60319033
v -3.49986899 -0.78757522 0.60319033
v -3.48320674 -0.78760193 0.60319033
v -3.48284562 -0.79004705 0.77819073
v -3.42486298 -0.79002568 0.77819073
v -3.46618334 -0.79004705 0.77819073
v -3.46618334 -0.78760193 0.60319033
f 1 2 6
f 1 6 11
f 1 11 16
f 1 16 15
f 1 15 25
f 1 25 24
f 1 24 31
f 1 31 38
f 1 38 34
f 1 34 33
f 1 33 32
f 1 32 28
f 1 28 27
f 1 27 26
f 1 26 18
f 1 18 12
f 1 12 7
f 1 7 3
f 1 3 4
f 1 4 9
f 1 9 5
f 1 5 2
f 2 5 6
f 3 7 8
f 3 8 4
f 4 8 9
f 5 9 8
f 5 8 13
f 5 13 17
f 5 17 22
f 5 22 21
f 5 21 20
f 5 20 19
f 5 19 29
f 5 29 35
f 5 35 37
f 5 37 36
f 5 36 30
f 5 30 23
f 5 23 14
f 5 14 10
f 5 10 6
f 6 10 11
f 7 12 13
f 7 13 8
f 10 14 15
f 10 15 16
f 10 16 11
f 12 17 13
f 12 18 19
f 12 19 20
f 12 20 21
f 12 21 22
f 12 22 17
f 14 23 24
f 14 24 25
f 14 25 15
f 18 26 19
f 19 26 27
f 19 27 28
f 19 28 32
f 19 32 29
f 23 30 31
f 23 31 24
f 29 32 33
f 29 33 34
f 29 34 35
f 30 36 31
f 31 36 37
f 31 37 38
f 34 38 37
f 34 37 35

