# https://github.com/mikedh/trimesh
v -3.74940827 -0.73833958 0.81446407
v -3.74956015 -0.72313327 0.83554808
v -3.74940827 -0.72313327 0.83555842
v -3.74940827 -0.79867504 0.81446407
v -3.90455170 -0.73496286 0.81446407
v -3.90455170 -0.73347860 0.81594420
v -3.90455170 -0.72313327 0.83267064
v -3.74940827 -0.72313327 0.90426520
v -3.74940827 -0.79890508 0.82020861
v -3.75536187 -0.79869730 0.81446407
v -3.90455170 -0.79854146 0.81446407
v -3.90455170 -0.72313327 0.90506220
v -3.74940827 -0.73462889 0.92020501
v -3.90455170 -0.73252125 0.92020501
v -3.74940827 -0.79890508 0.82040527
v -3.76628189 -0.79894222 0.82020861
v -3.77202288 -0.79873441 0.81446407
v -3.90455170 -0.79885314 0.82020861
v -3.86626322 -0.79869730 0.81446407
v -3.74940827 -0.78677863 0.92020501
v -3.90455170 -0.78754304 0.92020501
v -3.74940827 -0.79857115 0.83687295
v -3.76628189 -0.79861567 0.83687295
v -3.90455170 -0.79867504 0.83687295
v -3.90455170 -0.79874925 0.83191505
v -3.84960222 -0.79892738 0.82020861
v -3.85534320 -0.79872698 0.81446407
v -3.74940827 -0.79763603 0.85354764
v -3.90455170 -0.79776222 0.85354764
v -3.88293942 -0.79778448 0.85354764
v -3.74940827 -0.79856373 0.83706961
v -3.90455170 -0.79804421 0.84857939
f 1 2 3
f 1 3 8
f 1 8 13
f 1 13 20
f 1 20 28
f 1 28 31
f 1 31 22
f 1 22 15
f 1 15 9
f 1 9 4
f 1 4 10
f 1 10 17
f 1 17 27
f 1 27 19
f 1 19 11
f 1 11 5
f 1 5 6
f 1 6 2
f 2 6 7
f 2 7 12
f 2 12 8
f 2 8 3
f 4 9 10
f 5 11 18
f 5 18 25
f 5 25 24
f 5 24 32
f 5 32 29
f 5 29 21
f 5 21 14
f 5 14 12
f 5 12 7
f 5 7 6
f 8 12 14
f 8 14 13
f 9 15 16
f 9 16 17
f 9 17 10
f 11 19 18
f 13 14 21
f 13 21 20
f 15 22 23
f 15 23 16
f 16 23 24
f 16 24 25
f 16 25 26
f 16 26 27
f 16 27 17
f 18 19 27
f 18 27 26
f 18 26 25
f 20 21 28
f 21 29 30
f 21 30 28
f 22 31 23
f 23 31 28
f 23 28 30
f 23 30 24
f 24 30 32
f 29 32 30

