# https://github.com/mikedh/trimesh
v 0.59085001 -0.72664640 0.83358430
v 0.59063800 -0.71089628 0.83864170
v 0.59076520 -0.71089628 0.83864170
v 0.59085001 -0.71101346 0.83861338
v 0.59085001 -0.72664640 0.83420054
v 0.48796126 -0.72664640 0.83369764
v 0.37432583 -0.71089628 0.83927210
v 0.59085001 -0.71089628 0.89800600
v 0.59085001 -0.72657547 0.90494045
v 0.59076520 -0.72664640 0.90496879
v 0.37432583 -0.72664640 0.83446970
v 0.37432583 -0.71089628 0.89925265
v 0.59085001 -0.71089628 0.89815475
v 0.45756521 -0.71089628 0.89899765
v 0.44077742 -0.72664640 0.90583293
v 0.37432583 -0.72664640 0.90593918
v 0.38102400 -0.71089628 0.89923848
v 0.40745626 -0.72664640 0.90591793
v 0.42411684 -0.72664640 0.90588960
v 0.44090462 -0.71089628 0.89908265
v 0.40756223 -0.71089628 0.89918181
v 0.42424404 -0.71089628 0.89913223
f 1 2 3
f 1 3 4
f 1 4 8
f 1 8 13
f 1 13 9
f 1 9 5
f 1 5 10
f 1 10 15
f 1 15 19
f 1 19 18
f 1 18 16
f 1 16 11
f 1 11 6
f 1 6 2
f 2 6 7
f 2 7 12
f 2 12 17
f 2 17 21
f 2 21 22
f 2 22 20
f 2 20 14
f 2 14 13
f 2 13 8
f 2 8 3
f 3 8 4
f 5 9 10
f 6 11 7
f 7 11 16
f 7 16 12
f 9 13 14
f 9 14 15
f 9 15 10
f 12 16 18
f 12 18 19
f 12 19 17
f 14 20 15
f 15 20 19
f 17 19 21
f 19 20 22
f 19 22 21

