# https://github.com/mikedh/trimesh
v -3.96933591 -0.70980193 1.50556618
v -3.96741240 -0.70980193 1.43900728
v -3.92227660 -0.70980193 1.50556618
v -3.96984977 -0.28512092 1.50556618
v -3.92779245 -0.70980193 1.43900728
v -3.96690796 -0.39436737 1.43900728
v -3.92725970 -0.69433782 1.43900728
v -3.92172972 -0.67766818 1.50556618
v -3.92270557 -0.28512092 1.50556618
v -3.96671937 -0.28512092 1.43900728
v -3.92709943 -0.67766818 1.43900728
v -3.92172030 -0.66806547 1.50556618
v -3.92259244 -0.29168902 1.50556618
v -3.92840531 -0.28512092 1.43900728
v -3.92169670 -0.46104595 1.50556618
v -3.92169670 -0.47771560 1.50556618
v -3.92257361 -0.29289456 1.50556618
v -3.92255471 -0.29434953 1.50556618
v -3.92223416 -0.34435844 1.50556618
f 1 2 5
f 1 5 3
f 1 3 8
f 1 8 12
f 1 12 16
f 1 16 15
f 1 15 19
f 1 19 18
f 1 18 17
f 1 17 13
f 1 13 9
f 1 9 4
f 1 4 2
f 2 4 6
f 2 6 10
f 2 10 14
f 2 14 11
f 2 11 7
f 2 7 5
f 3 5 7
f 3 7 8
f 4 9 14
f 4 14 10
f 4 10 6
f 7 11 8
f 8 11 12
f 9 13 14
f 11 14 15
f 11 15 16
f 11 16 12
f 13 17 14
f 14 17 18
f 14 18 19
f 14 19 15

