# https://github.com/mikedh/trimesh
v -2.03007867 1.52393212 0.07862856
v -2.03007867 1.52402291 0.05857774
v -2.01339878 1.52479890 0.05857774
v -2.01339878 1.52479890 0.07862856
v -2.04336849 1.52403944 0.07862856
v -2.03007867 1.52411372 0.04191007
v -2.04675015 1.52408893 0.07525232
v -2.01339878 1.52494751 0.04191007
v -2.00245919 1.52844779 0.04191007
v -2.00234927 1.52834048 0.05857774
v -2.00240843 1.52838175 0.07862856
v -2.04675015 1.52407245 0.07862856
v -2.03007867 1.52447697 0.02522857
v -2.04675015 1.52418801 0.05857774
v -2.04675015 1.52429532 0.04191007
v -2.04675015 1.52462557 0.02522857
v -2.06342157 1.52442743 0.07525232
v -2.01339878 1.52554189 0.02522857
v -2.00289880 1.52885231 0.02522857
v -1.99901836 1.53936968 0.04191007
v -1.99887462 1.53936968 0.05857774
v -1.99889997 1.53936968 0.07862856
v -2.06004844 1.52434486 0.07862856
v -2.03007867 1.52791121 0.01330830
v -2.01339878 1.52849733 0.01392153
v -2.04675015 1.52796074 0.01328074
v -2.06342157 1.52467510 0.04191007
v -2.06342157 1.52510437 0.02522857
v -2.06342157 1.52827442 0.01362523
v -2.06342157 1.52442743 0.07862856
v -2.07617038 1.52786167 0.07862856
v -2.07612810 1.52786167 0.07525232
v -2.07573918 1.52798549 0.04191007
v -2.00379491 1.52974389 0.01531344
v -1.99963553 1.53936968 0.02522857
v -1.99837584 1.55604553 0.02522857
v -1.99807996 1.55604553 0.04191007
v -1.99806303 1.55604553 0.07862856
v -1.99823211 1.55266908 0.07862856
v -2.03007867 1.53936968 0.00891917
v -2.04675015 1.53936968 0.00889162
v -2.01339878 1.53936968 0.00991829
v -2.07534184 1.52827442 0.02522857
v -2.07393001 1.52938065 0.01494820
v -2.06342157 1.53936968 0.00936708
v -2.07744694 1.53018968 0.07862856
v -2.08230801 1.53936968 0.07862856
v -2.08168243 1.53936968 0.04191007
v -2.00255217 1.53936968 0.01389398
v -1.99824905 1.57271315 0.02522857
v -1.99793623 1.57271315 0.04191007
v -2.00186737 1.55604553 0.01326703
v -1.99807149 1.56933670 0.07862856
v -2.03007867 1.55604553 0.00824392
v -2.01339878 1.55604553 0.00889162
v -2.06342157 1.55604553 0.00878140
v -2.04675015 1.55604553 0.00837489
v -2.08085390 1.53936968 0.02522857
v -2.07592520 1.53936968 0.01337033
v -2.08299281 1.54272133 0.07862856
v -2.08347471 1.55604553 0.04191007
v -2.00183355 1.57271315 0.01334277
v -1.99861256 1.58938901 0.02522857
v -1.99807149 1.58938901 0.04191007
v -1.99807996 1.57271315 0.07862856
v -2.03007867 1.57271315 0.00836797
v -2.01339878 1.57271315 0.00898120
v -2.06342157 1.57271315 0.01054535
v -2.04675015 1.58938901 0.00920176
v -2.04675015 1.57271315 0.00868490
v -2.07661841 1.55604553 0.01303276
v -2.08242640 1.55604553 0.02522857
v -2.08430319 1.55596298 0.07862856
v -2.08416793 1.56061902 0.07862856
v -2.08217274 1.57271315 0.07862856
v -2.08040587 1.57271315 0.04191007
v -2.00212943 1.58938901 0.01374237
v -2.00327079 1.59957615 0.01501022
v -2.00199416 1.60096306 0.02522857
v -1.99826592 1.58938901 0.07862856
v -2.00165606 1.60143361 0.04191007
v -2.00175745 1.60154919 0.07862856
v -2.03007867 1.58938901 0.00885035
v -2.01339878 1.58938901 0.00971849
v -2.06334553 1.58831582 0.01354949
v -2.07464016 1.57271315 0.01458987
v -2.05773197 1.59996416 0.01464510
v -2.04675015 1.60131804 0.01328074
v -2.07888412 1.57271315 0.02522857
v -2.08081167 1.57681607 0.07862856
v -2.07626336 1.58634279 0.07862856
v -2.07464863 1.58467519 0.04191007
v -2.07372712 1.58354420 0.02522857
v -2.01339878 1.60097131 0.01363215
v -2.01339878 1.60496692 0.02522857
v -2.01339878 1.60580897 0.04191007
v -2.01339878 1.60632080 0.07862856
v -2.00411614 1.60254809 0.07862856
v -2.03007867 1.60149966 0.01311542
v -2.07251819 1.58204174 0.01621605
v -2.05953272 1.60144186 0.02522857
v -2.04675015 1.60547049 0.02522857
v -2.06787690 1.59188214 0.02522857
v -2.03007867 1.60576768 0.02522857
v -2.07151216 1.59264989 0.07862856
v -2.06846866 1.59301313 0.04191007
v -2.03451706 1.60826081 0.07862856
v -2.01677191 1.60708030 0.07862856
v -2.05092647 1.60692344 0.07862856
v -2.06764865 1.59671979 0.07862856
v -2.06133341 1.60327456 0.07862856
v -2.04675015 1.60814524 0.07862856
f 1 2 3
f 1 3 4
f 1 4 11
f 1 11 22
f 1 22 39
f 1 39 38
f 1 38 53
f 1 53 65
f 1 65 80
f 1 80 82
f 1 82 98
f 1 98 97
f 1 97 108
f 1 108 107
f 1 107 112
f 1 112 109
f 1 109 111
f 1 111 110
f 1 110 105
f 1 105 91
f 1 91 90
f 1 90 75
f 1 75 74
f 1 74 73
f 1 73 60
f 1 60 47
f 1 47 46
f 1 46 31
f 1 31 30
f 1 30 23
f 1 23 12
f 1 12 5
f 1 5 2
f 2 6 3
f 2 5 7
f 2 7 6
f 3 6 8
f 3 8 9
f 3 9 10
f 3 10 4
f 4 10 11
f 5 12 7
f 6 13 8
f 6 7 14
f 6 14 15
f 6 15 16
f 6 16 13
f 7 12 17
f 7 17 14
f 8 13 18
f 8 18 19
f 8 19 9
f 9 19 20
f 9 20 21
f 9 21 10
f 10 21 22
f 10 22 11
f 12 23 17
f 13 24 25
f 13 25 18
f 13 16 26
f 13 26 24
f 14 17 15
f 15 17 27
f 15 27 16
f 16 27 28
f 16 28 29
f 16 29 26
f 17 23 30
f 17 30 31
f 17 31 32
f 17 32 33
f 17 33 27
f 18 25 34
f 18 34 19
f 19 35 20
f 19 34 35
f 20 35 36
f 20 36 37
f 20 37 21
f 21 37 38
f 21 38 39
f 21 39 22
f 24 40 25
f 24 26 41
f 24 41 40
f 25 42 34
f 25 40 42
f 26 29 41
f 27 33 43
f 27 43 28
f 28 43 44
f 28 44 29
f 29 45 41
f 29 44 45
f 31 46 32
f 32 46 33
f 33 46 47
f 33 47 48
f 33 48 43
f 34 42 49
f 34 49 35
f 35 49 36
f 36 50 51
f 36 51 37
f 36 49 52
f 36 52 50
f 37 51 38
f 38 51 53
f 40 54 55
f 40 55 42
f 40 41 54
f 41 45 56
f 41 56 57
f 41 57 54
f 42 55 49
f 43 48 58
f 43 58 44
f 44 58 59
f 44 59 45
f 45 59 56
f 47 60 48
f 48 60 61
f 48 61 58
f 49 55 52
f 50 52 62
f 50 62 63
f 50 63 64
f 50 64 51
f 51 64 65
f 51 65 53
f 52 55 62
f 54 66 67
f 54 67 55
f 54 57 66
f 55 67 62
f 56 68 69
f 56 69 70
f 56 70 57
f 56 59 71
f 56 71 68
f 57 70 66
f 58 61 72
f 58 72 59
f 59 72 71
f 60 73 61
f 61 73 74
f 61 74 75
f 61 75 76
f 61 76 72
f 62 67 77
f 62 77 63
f 63 77 78
f 63 78 79
f 63 79 64
f 64 80 65
f 64 79 81
f 64 81 82
f 64 82 80
f 66 83 67
f 66 70 83
f 67 83 84
f 67 84 77
f 68 85 69
f 68 71 86
f 68 86 85
f 69 85 87
f 69 87 88
f 69 88 83
f 69 83 70
f 71 72 86
f 72 76 89
f 72 89 86
f 75 90 76
f 76 90 91
f 76 91 92
f 76 92 93
f 76 93 89
f 77 84 78
f 78 84 94
f 78 94 95
f 78 95 79
f 79 95 96
f 79 96 81
f 81 96 97
f 81 97 98
f 81 98 82
f 83 99 94
f 83 94 84
f 83 88 99
f 85 86 100
f 85 100 87
f 86 89 100
f 87 101 102
f 87 102 88
f 87 100 103
f 87 103 101
f 88 102 104
f 88 104 99
f 89 93 100
f 91 105 106
f 91 106 92
f 92 106 103
f 92 103 93
f 93 103 100
f 94 99 104
f 94 104 95
f 95 104 96
f 96 104 107
f 96 107 108
f 96 108 97
f 101 109 102
f 101 103 106
f 101 106 105
f 101 105 110
f 101 110 111
f 101 111 109
f 102 109 112
f 102 112 104
f 104 112 107

