# https://github.com/mikedh/trimesh
v 0.15546774 -0.46358914 0.58678810
v 0.14456483 -0.46358914 0.53686148
v 0.19280105 -0.46358914 0.58678810
v 0.15432767 -0.23317370 0.58678810
v 0.14202780 -0.23310601 0.53686148
v 0.14411523 -0.46358914 0.53426234
v 0.22071663 -0.46358914 0.56763978
v 0.19300174 -0.46356657 0.58678810
v 0.19170110 -0.23310601 0.58678810
v 0.15387807 -0.23310601 0.58141366
v 0.14122492 -0.23310601 0.53142829
v 0.14173877 -0.46358914 0.52018012
v 0.22071663 -0.46358914 0.50658244
v 0.22071663 -0.23310601 0.56775726
v 0.19279300 -0.37751894 0.58678810
v 0.19229524 -0.23310601 0.58678810
v 0.13974766 -0.23310601 0.52018012
v 0.14051842 -0.46358914 0.50354278
v 0.19313824 -0.46358914 0.43689076
v 0.19313824 -0.46356657 0.43677328
v 0.22071663 -0.23310601 0.50329316
v 0.13956301 -0.23310601 0.51474691
v 0.13971554 -0.46358914 0.48687609
v 0.19172518 -0.46358914 0.43677328
v 0.19313824 -0.46090438 0.43677328
v 0.19247990 -0.23310601 0.43677328
v 0.13870392 -0.23310601 0.48687609
v 0.14169061 -0.46358914 0.47020942
v 0.15453647 -0.46358914 0.43677328
v 0.19182150 -0.23310601 0.43677328
v 0.13946663 -0.23310601 0.48144290
v 0.14163441 -0.44432205 0.47020942
v 0.14168257 -0.46099463 0.47020942
v 0.14132130 -0.31105425 0.47020942
v 0.14126509 -0.24438651 0.47020942
v 0.15453647 -0.44432205 0.43677328
v 0.15500211 -0.23317370 0.43677328
v 0.15500211 -0.23310601 0.43689076
v 0.14150596 -0.23310601 0.47020942
v 0.15468095 -0.26101397 0.43677328
f 1 2 6
f 1 6 12
f 1 12 18
f 1 18 23
f 1 23 28
f 1 28 29
f 1 29 24
f 1 24 19
f 1 19 13
f 1 13 7
f 1 7 3
f 1 3 8
f 1 8 15
f 1 15 16
f 1 16 9
f 1 9 4
f 1 4 5
f 1 5 2
f 2 5 6
f 3 7 8
f 4 9 10
f 4 10 5
f 5 10 9
f 5 9 16
f 5 16 14
f 5 14 21
f 5 21 26
f 5 26 30
f 5 30 38
f 5 38 39
f 5 39 31
f 5 31 27
f 5 27 22
f 5 22 17
f 5 17 11
f 5 11 12
f 5 12 6
f 7 13 21
f 7 21 14
f 7 14 8
f 8 14 15
f 11 17 12
f 12 17 18
f 13 19 20
f 13 20 21
f 14 16 15
f 17 22 23
f 17 23 18
f 19 24 20
f 20 24 29
f 20 29 36
f 20 36 40
f 20 40 37
f 20 37 30
f 20 30 26
f 20 26 25
f 20 25 21
f 21 25 26
f 22 27 23
f 23 27 28
f 27 31 32
f 27 32 33
f 27 33 28
f 28 33 29
f 29 33 32
f 29 32 34
f 29 34 35
f 29 35 36
f 30 37 38
f 31 39 35
f 31 35 34
f 31 34 32
f 35 37 40
f 35 40 36
f 35 39 37
f 37 39 38

