# https://github.com/mikedh/trimesh
v -2.05752950 -0.71679152 0.46517256
v -2.05752950 -0.72825707 0.38154747
v -2.06204476 -0.71679152 0.47165015
v -2.05752950 -0.71679152 0.57412458
v -2.05752950 -0.78485351 0.38154747
v -2.07689460 -0.73512880 0.38154747
v -2.07689460 -0.71679152 0.51214503
v -2.07689460 -0.71679152 0.57096626
v -2.05752950 -0.72801329 0.58705961
v -2.07689460 -0.78324604 0.38154747
v -2.05752950 -0.79461256 0.48685833
v -2.07689460 -0.73344513 0.58705961
v -2.05752950 -0.78472398 0.58705961
v -2.07689460 -0.79249467 0.48685833
v -2.05752950 -0.79446018 0.51224562
v -2.07689460 -0.79247941 0.50351498
v -2.07689460 -0.78295654 0.58705961
v -2.05752950 -0.79168711 0.54650434
v -2.05752950 -0.79439924 0.52019172
v -2.07689460 -0.79235752 0.52019172
v -2.07689460 -0.79080338 0.53686846
v -2.05752950 -0.79332506 0.53686846
v -2.05752950 -0.79402593 0.52892235
v -2.07689460 -0.79182423 0.52622674
f 1 2 3
f 1 3 7
f 1 7 8
f 1 8 4
f 1 4 9
f 1 9 13
f 1 13 18
f 1 18 22
f 1 22 23
f 1 23 19
f 1 19 15
f 1 15 11
f 1 11 5
f 1 5 2
f 2 5 10
f 2 10 6
f 2 6 3
f 3 6 7
f 4 8 9
f 5 11 10
f 6 10 14
f 6 14 16
f 6 16 20
f 6 20 24
f 6 24 21
f 6 21 17
f 6 17 12
f 6 12 8
f 6 8 7
f 8 12 9
f 9 12 17
f 9 17 13
f 10 11 14
f 11 15 16
f 11 16 14
f 13 17 18
f 15 19 20
f 15 20 16
f 17 21 22
f 17 22 18
f 19 23 20
f 20 23 22
f 20 22 24
f 21 24 22

