# https://github.com/mikedh/trimesh
v -0.02201129 -0.16036909 0.69153336
v -0.02196933 -0.16036909 0.67482631
v -0.01878034 -0.17702685 0.69153336
v -0.02197982 -0.16037826 0.72759617
v -0.02098328 -0.15779438 0.72759617
v -0.01493050 -0.14371133 0.37486324
v -0.02186443 -0.16036909 0.64151406
v -0.01870690 -0.17702685 0.70818951
v -0.01924192 -0.17414976 0.72759617
v -0.02083642 -0.16037826 0.40822645
v -0.01869641 -0.17702685 0.67482631
v -0.00573075 -0.21051647 0.24146145
v -0.00814344 -0.21050732 0.72759617
v -0.01523473 -0.14461842 0.72759617
v -0.01492001 -0.14371133 0.39157033
v -0.00757701 -0.13503428 0.37486324
v -0.00760849 -0.13499762 0.27492652
v -0.00781830 -0.13556568 0.20728327
v -0.01453192 -0.14371133 0.27492652
v -0.01858108 -0.17702685 0.72759617
v -0.01447947 -0.14460010 0.20728327
v -0.01963007 -0.16031410 0.20728327
v -0.01953565 -0.16135865 0.20728327
v -0.01630470 -0.17702685 0.24161428
v -0.00553143 -0.21051647 0.20728327
v -0.00580418 -0.21051647 0.25811757
v -0.00630772 -0.21051647 0.51391897
v 0.06281118 -0.21050732 0.72759617
v -0.00633919 -0.21051647 0.42488257
v -0.00638116 -0.21051647 0.44153869
v -0.00639165 -0.21051647 0.45447646
v -0.00639165 -0.21051647 0.47485093
v -0.00637067 -0.21051647 0.48799249
v -0.00787075 -0.13772810 0.72759617
v -0.00723083 -0.13524501 0.49150705
v 0.00135005 -0.12838216 0.37486324
v 0.00135005 -0.12825386 0.27492652
v 0.00135005 -0.12818973 0.20728327
v 0.00155980 -0.12851958 0.55818250
v -0.00691611 -0.13467691 0.20728327
v -0.00740917 -0.13507090 0.20728327
v -0.01405985 -0.14371133 0.20728327
v -0.01442702 -0.14371133 0.25827040
v -0.01604243 -0.17705435 0.20728327
v -0.01618930 -0.17702685 0.22490720
v 0.05659054 -0.21051647 0.20728327
v 0.06338809 -0.21051647 0.51391897
v 0.06331466 -0.21050732 0.57499145
v 0.08046592 -0.17546003 0.72759617
v -0.00459783 -0.13492431 0.72759617
v -0.00651753 -0.13571229 0.62480698
v 0.00235708 -0.12903269 0.72759617
v 0.00181157 -0.12876697 0.62480698
v 0.00160176 -0.12859290 0.57483862
v 0.01443111 -0.12019072 0.55818250
v 0.00208432 -0.12773160 0.20728327
v 0.06365036 -0.21049814 0.20728327
v 0.06365036 -0.21051647 0.20825107
v 0.06394409 -0.21051647 0.32504771
v 0.08084358 -0.17557916 0.57483862
v 0.08435766 -0.16036909 0.72759617
v 0.08511298 -0.16036909 0.57483862
v 0.01577384 -0.12070383 0.72759617
v 0.02411343 -0.11809247 0.72759617
v 0.02330566 -0.11788170 0.62480698
v 0.02276022 -0.11778091 0.55818250
v 0.02280218 -0.11766182 0.30823876
v 0.01434719 -0.12016321 0.22490720
v 0.01438915 -0.12016321 0.20728327
v 0.08070720 -0.17550584 0.20728327
v 0.06390213 -0.21051647 0.25827040
v 0.06396507 -0.21051647 0.30839159
v 0.08515494 -0.16036909 0.55818250
v 0.08074916 -0.17599147 0.32489488
v 0.08077015 -0.17595482 0.30823876
v 0.08021415 -0.14422444 0.72759617
v 0.08074916 -0.14371133 0.55818250
v 0.03466640 -0.11772596 0.72759617
v 0.03466640 -0.11723117 0.62480698
v 0.03466640 -0.11707540 0.57483862
v 0.03466640 -0.11704792 0.55818250
v 0.03465591 -0.11691047 0.30823876
v 0.02268678 -0.11770763 0.22490720
v 0.02224618 -0.11785423 0.20728327
v 0.08496611 -0.16037826 0.20728327
v 0.08073867 -0.17552417 0.22490720
v 0.06395458 -0.21051647 0.27492652
v 0.06396507 -0.21051647 0.29158264
v 0.08500807 -0.16037826 0.24161428
v 0.08072818 -0.14371133 0.32489488
v 0.07636425 -0.13534580 0.58487306
v 0.07586077 -0.13588639 0.72759617
v 0.07646916 -0.13526334 0.52487026
v 0.07645867 -0.13527248 0.54152638
v 0.07642720 -0.13529082 0.55818250
v 0.07639572 -0.13531830 0.57483862
v 0.07652161 -0.13523583 0.32489488
v 0.04408646 -0.11833986 0.72759617
v 0.04471583 -0.11804663 0.62480698
v 0.04494662 -0.11795502 0.59154570
v 0.04498858 -0.11793669 0.57483862
v 0.04485221 -0.11796417 0.29158264
v 0.04473681 -0.11800083 0.20728327
v 0.03524332 -0.11705707 0.20728327
v 0.03465591 -0.11701126 0.20728327
v 0.02341057 -0.11768012 0.20728327
v 0.02272874 -0.11772596 0.20728327
v 0.08472483 -0.15943451 0.20728327
v 0.08060230 -0.14383960 0.20728327
v 0.06753166 -0.12999478 0.72759617
v 0.06799325 -0.12990317 0.55818250
v 0.06799325 -0.12991232 0.57483862
v 0.07645867 -0.13597800 0.20728327
v 0.07620695 -0.13550155 0.20825107
v 0.07573488 -0.13519919 0.20728327
v 0.06786736 -0.13018719 0.20728327
v 0.06799325 -0.12998562 0.30823876
v 0.06799325 -0.12995812 0.32489488
v 0.05241550 -0.12167507 0.72759617
v 0.05328621 -0.12165674 0.59154570
v 0.05331769 -0.12163841 0.57483862
v 0.05318131 -0.12175753 0.29158264
v 0.05306591 -0.12185832 0.20728327
v 0.06503504 -0.12861122 0.72759617
v 0.07619646 -0.13550155 0.20728327
f 1 2 3
f 1 3 4
f 1 4 5
f 1 5 6
f 1 6 2
f 2 7 3
f 2 6 7
f 3 8 9
f 3 9 4
f 3 7 10
f 3 10 11
f 3 11 12
f 3 12 13
f 3 13 8
f 4 9 20
f 4 20 13
f 4 13 28
f 4 28 49
f 4 49 61
f 4 61 76
f 4 76 92
f 4 92 110
f 4 110 124
f 4 124 119
f 4 119 98
f 4 98 78
f 4 78 64
f 4 64 63
f 4 63 52
f 4 52 50
f 4 50 34
f 4 34 14
f 4 14 5
f 5 14 6
f 6 15 16
f 6 16 17
f 6 17 18
f 6 18 19
f 6 19 7
f 6 14 15
f 7 19 10
f 8 13 20
f 8 20 9
f 10 19 21
f 10 21 22
f 10 22 23
f 10 23 11
f 11 23 24
f 11 24 12
f 12 24 25
f 12 25 46
f 12 46 58
f 12 58 71
f 12 71 87
f 12 87 88
f 12 88 72
f 12 72 59
f 12 59 47
f 12 47 27
f 12 27 33
f 12 33 32
f 12 32 31
f 12 31 30
f 12 30 29
f 12 29 26
f 12 26 13
f 13 27 47
f 13 47 28
f 13 26 29
f 13 29 30
f 13 30 31
f 13 31 32
f 13 32 33
f 13 33 27
f 14 34 35
f 14 35 16
f 14 16 15
f 16 36 37
f 16 37 38
f 16 38 17
f 16 35 39
f 16 39 36
f 17 38 40
f 17 40 41
f 17 41 18
f 18 41 40
f 18 40 38
f 18 38 56
f 18 56 69
f 18 69 84
f 18 84 107
f 18 107 106
f 18 106 105
f 18 105 104
f 18 104 103
f 18 103 123
f 18 123 116
f 18 116 115
f 18 115 125
f 18 125 113
f 18 113 109
f 18 109 108
f 18 108 85
f 18 85 70
f 18 70 57
f 18 57 46
f 18 46 25
f 18 25 44
f 18 44 23
f 18 23 22
f 18 22 21
f 18 21 42
f 18 42 43
f 18 43 19
f 19 43 21
f 21 43 42
f 23 44 45
f 23 45 24
f 24 45 25
f 25 45 44
f 28 48 49
f 28 47 48
f 34 50 51
f 34 51 35
f 35 51 52
f 35 52 53
f 35 53 54
f 35 54 39
f 36 39 55
f 36 55 37
f 37 55 38
f 38 55 56
f 39 54 55
f 46 57 58
f 47 59 48
f 48 60 49
f 48 59 60
f 49 60 62
f 49 62 61
f 50 52 51
f 52 63 55
f 52 55 54
f 52 54 53
f 55 63 64
f 55 64 65
f 55 65 66
f 55 66 67
f 55 67 68
f 55 68 56
f 56 68 69
f 57 70 58
f 58 70 71
f 59 72 60
f 60 73 62
f 60 72 74
f 60 74 75
f 60 75 73
f 61 62 76
f 62 73 77
f 62 77 76
f 64 78 79
f 64 79 80
f 64 80 65
f 65 80 66
f 66 80 81
f 66 81 82
f 66 82 67
f 67 82 83
f 67 83 68
f 68 83 69
f 69 83 84
f 70 85 86
f 70 86 75
f 70 75 87
f 70 87 71
f 72 88 75
f 72 75 74
f 73 75 89
f 73 89 90
f 73 90 77
f 75 88 87
f 75 86 85
f 75 85 89
f 76 91 92
f 76 77 91
f 77 93 94
f 77 94 95
f 77 95 96
f 77 96 91
f 77 90 97
f 77 97 93
f 78 98 79
f 79 99 100
f 79 100 80
f 79 98 99
f 80 100 81
f 81 100 101
f 81 101 82
f 82 102 103
f 82 103 104
f 82 104 105
f 82 105 106
f 82 106 83
f 82 101 102
f 83 106 107
f 83 107 84
f 85 108 89
f 89 108 90
f 90 108 109
f 90 109 97
f 91 96 110
f 91 110 92
f 93 111 112
f 93 112 94
f 93 97 111
f 94 112 95
f 95 112 110
f 95 110 96
f 97 109 113
f 97 113 114
f 97 114 115
f 97 115 116
f 97 116 117
f 97 117 118
f 97 118 111
f 98 119 100
f 98 100 99
f 100 119 120
f 100 120 101
f 101 120 121
f 101 121 102
f 102 122 103
f 102 121 122
f 103 122 123
f 110 112 120
f 110 120 124
f 111 121 112
f 111 118 121
f 112 121 120
f 113 125 114
f 114 125 115
f 116 123 117
f 117 123 122
f 117 122 118
f 118 122 121
f 119 124 120

