# https://github.com/mikedh/trimesh
v -3.38090048 1.63071654 1.96834817
v -3.34753804 1.63071654 1.96837411
v -3.54764588 1.63071654 1.96835855
v -3.54764588 1.66923813 1.96914217
v -3.33082353 1.63071654 1.96839487
v -3.56449360 1.63071654 1.96837930
v -3.58120808 1.63071654 1.96840006
v -3.56429380 1.66923813 1.96917331
v -3.33082353 1.66923813 1.96945875
v -3.32729419 1.66923813 1.96946394
v -3.31417564 1.63071654 1.96842600
v -3.58680178 1.63071654 1.96843119
v -3.58680178 1.66923813 1.96927195
v -3.58100828 1.66923813 1.96924601
v -3.29772751 1.63071654 1.96845713
v -3.31417564 1.66923813 1.96950032
v -3.13158138 1.63071654 1.96879965
v -3.58680178 1.63071654 2.02134223
v -3.58680178 1.66923813 2.02136299
v -3.22727357 1.66923813 1.96977020
v -3.09828557 1.63071654 1.96891381
v -3.58680178 1.63365421 2.02134736
v -3.56429380 1.63071654 2.02133698
v -3.56429380 1.63942773 2.02135261
v -3.54764588 1.66923813 2.02136299
v -3.58680178 1.65609969 2.02136299
v -3.13078228 1.66923813 1.97017498
v -3.08170425 1.63071654 1.96897094
v -3.58680178 1.63942773 2.02135261
v -3.29746112 1.65609969 2.02130072
v -3.19750709 1.63071654 2.02120208
v -3.19750709 1.63942773 2.02123846
v -3.19750709 1.65609969 2.02126959
v -3.54764588 1.65609969 2.02135774
v -3.44755867 1.65609969 2.02134223
v -3.44755867 1.66923813 2.02134736
v -3.12725292 1.66923813 1.97019055
v -3.08077197 1.63071654 1.96897613
v -3.11053843 1.66923813 1.97027357
v -3.29746112 1.66923813 2.02131110
v -3.18951611 1.63071654 2.02119683
v -3.18079261 1.63942773 2.02122283
v -3.18079261 1.65609969 2.02125921
v -3.19750709 1.66923813 2.02126959
v -3.08077197 1.66923813 1.97049156
v -3.06525611 1.63071654 1.96910585
v -3.09741988 1.66923813 1.97035665
v -3.09389053 1.66923813 1.97038259
v -3.17286818 1.63071654 2.02118132
v -2.90650166 1.63942773 2.02095814
v -3.06758682 1.66923813 2.02116569
v -3.11766374 1.66923813 2.02120720
v -3.18079261 1.66923813 2.02125921
v -2.90650166 1.65609969 2.02099452
v -2.90650166 1.66355133 2.02101003
v -2.90650166 1.66923813 2.02102041
v -2.90650166 1.66923813 1.97271284
v -2.90650166 1.63071654 1.97116628
v -2.90650166 1.63071654 2.02092176
f 1 2 5
f 1 5 11
f 1 11 15
f 1 15 17
f 1 17 21
f 1 21 28
f 1 28 38
f 1 38 46
f 1 46 58
f 1 58 59
f 1 59 49
f 1 49 41
f 1 41 31
f 1 31 23
f 1 23 18
f 1 18 12
f 1 12 7
f 1 7 6
f 1 6 3
f 1 3 4
f 1 4 2
f 2 4 5
f 3 6 4
f 4 6 7
f 4 7 8
f 4 8 14
f 4 14 13
f 4 13 19
f 4 19 25
f 4 25 36
f 4 36 40
f 4 40 44
f 4 44 53
f 4 53 52
f 4 52 51
f 4 51 56
f 4 56 57
f 4 57 45
f 4 45 48
f 4 48 47
f 4 47 39
f 4 39 37
f 4 37 27
f 4 27 20
f 4 20 16
f 4 16 10
f 4 10 9
f 4 9 5
f 5 9 10
f 5 10 11
f 7 12 13
f 7 13 14
f 7 14 8
f 10 15 11
f 10 16 17
f 10 17 15
f 12 18 22
f 12 22 29
f 12 29 26
f 12 26 19
f 12 19 13
f 16 20 17
f 17 20 21
f 18 23 24
f 18 24 22
f 19 26 25
f 20 27 28
f 20 28 21
f 22 24 29
f 23 30 24
f 23 31 32
f 23 32 33
f 23 33 30
f 24 34 26
f 24 26 29
f 24 30 35
f 24 35 34
f 25 26 34
f 25 34 35
f 25 35 36
f 27 37 28
f 28 37 39
f 28 39 38
f 30 40 35
f 30 33 40
f 31 41 32
f 32 41 42
f 32 42 43
f 32 43 33
f 33 43 53
f 33 53 44
f 33 44 40
f 35 40 36
f 38 45 46
f 38 39 47
f 38 47 48
f 38 48 45
f 41 49 42
f 42 49 50
f 42 50 54
f 42 54 43
f 43 51 52
f 43 52 53
f 43 54 55
f 43 55 56
f 43 56 51
f 45 57 46
f 46 57 58
f 49 59 50
f 50 59 58
f 50 58 57
f 50 57 56
f 50 56 55
f 50 55 54

