# https://github.com/mikedh/trimesh
v 2.11581588 -0.71678673 0.71671415
v 2.11776467 -0.71679517 0.38154746
v 2.07392778 -0.71678673 0.71671415
v 2.12974715 -0.71678673 0.80352353
v 2.13155109 -0.73767201 0.38154746
v 2.07319607 -0.71679517 0.38154746
v 2.13087011 -0.71679517 0.48693200
v 2.06618335 -0.71679517 0.46522965
v 2.06618335 -0.71678673 0.81603208
v 2.13015288 -0.71678673 0.82015990
v 2.13532552 -0.74600761 0.38154746
v 2.06618335 -0.72826606 0.38154746
v 2.13921583 -0.76100995 0.53690368
v 2.13916504 -0.76100995 0.50356838
v 2.13881732 -0.76100995 0.38154746
v 2.13770175 -0.75614683 0.38154746
v 2.13886810 -0.76100995 0.82015990
v 2.06618335 -0.71678673 0.90584350
v 2.12982684 -0.71678673 0.84261275
v 2.13512264 -0.74628573 1.02048438
v 2.13821602 -0.76100995 1.02048438
v 2.13881732 -0.76100995 0.83685881
v 2.06618335 -0.78485355 0.38154746
v 2.14019384 -0.77766425 0.52026732
v 2.14016487 -0.77766425 0.50356838
v 2.13945484 -0.77234598 0.38154746
v 2.13970840 -0.77766425 0.83685881
v 2.13973738 -0.77766425 0.82015990
v 2.06618335 -0.72742324 1.02048438
v 2.07280488 -0.71678673 1.02048438
v 2.12964576 -0.71678673 0.85349520
v 2.13133372 -0.73795859 1.02048438
v 2.13894057 -0.77766425 1.02048438
v 2.07547811 -0.79280144 0.38154746
v 2.06618335 -0.79460510 0.48693200
v 2.13647019 -0.79325656 0.55354007
v 2.13646292 -0.79329027 0.53690368
v 2.13642668 -0.79334084 0.50356838
v 2.13623831 -0.79328183 0.38154746
v 2.13618753 -0.79355998 0.83685881
v 2.13973023 -0.77766425 0.38154746
v 2.13583979 -0.79382969 1.02048438
v 2.06618335 -0.77382094 1.02048438
v 2.11483788 -0.71678673 1.02048438
v 2.08588857 -0.79830511 0.38154746
v 2.06618335 -0.79445337 0.51232438
v 2.09079310 -0.80088417 0.38154746
v 2.09079310 -0.80119602 0.47023309
v 2.09056131 -0.80140673 0.65354596
v 2.09079310 -0.80144887 0.80352353
v 2.09076415 -0.80136458 0.88683049
v 2.09075692 -0.80112858 0.97013746
v 2.09079310 -0.80098529 1.00353531
v 2.09079310 -0.80089257 1.02048438
v 2.13582538 -0.79434382 0.93680216
v 2.13247116 -0.80269625 0.92604481
v 2.13644109 -0.79332397 0.52026732
v 2.12806645 -0.80227481 0.63690957
v 2.12411816 -0.80160056 0.38154746
v 2.12759552 -0.80216526 1.02048438
v 2.13244941 -0.80267938 0.94562069
v 2.13246388 -0.80269625 0.93680216
v 2.06618335 -0.78310891 1.02042186
v 2.06826256 -0.78358089 1.02048438
v 2.06618335 -0.79259914 0.82015990
v 2.10744117 -0.80240124 0.38154746
v 2.09900121 -0.80268782 0.64253844
v 2.09889255 -0.80269625 0.65354596
v 2.09887807 -0.80270466 0.67024487
v 2.09079310 -0.80144887 0.78688714
v 2.09899399 -0.80269625 0.93680216
v 2.09902297 -0.80269625 0.95350107
v 2.09912441 -0.80267938 0.97883089
v 2.09245216 -0.80140673 0.98539789
v 2.10316684 -0.80251925 1.02048438
v 2.07682561 -0.79285202 1.02048438
v 2.06618335 -0.79207662 0.85349520
v 2.06618335 -0.79227889 0.84555226
v 2.06618335 -0.79251486 0.82891589
v 2.09957354 -0.80265408 0.98996352
v 2.12411088 -0.80286482 0.93680216
v 2.11987284 -0.80283951 0.65354596
v 2.11972794 -0.80282267 0.63690957
v 2.11581588 -0.80267938 0.46010117
v 2.11926427 -0.80283111 1.02048438
v 2.11973515 -0.80289009 1.00353531
v 2.07659379 -0.79271716 1.02048438
v 2.11567825 -0.80267938 0.46010117
v 2.10744117 -0.80286482 0.65354596
v 2.10744117 -0.80287325 0.67024487
v 2.10744117 -0.80287325 0.95350107
v 2.10605018 -0.80283111 0.98539789
v 2.10947687 -0.80289009 1.00353531
v 2.11149086 -0.80283111 1.02048438
v 2.11809791 -0.80285638 0.70351764
f 1 2 6
f 1 6 3
f 1 3 9
f 1 9 18
f 1 18 30
f 1 30 44
f 1 44 31
f 1 31 19
f 1 19 10
f 1 10 4
f 1 4 2
f 2 5 11
f 2 11 16
f 2 16 15
f 2 15 26
f 2 26 41
f 2 41 39
f 2 39 59
f 2 59 66
f 2 66 47
f 2 47 45
f 2 45 34
f 2 34 23
f 2 23 12
f 2 12 6
f 2 4 7
f 2 7 5
f 3 6 8
f 3 8 9
f 4 10 7
f 5 7 11
f 6 12 8
f 7 13 14
f 7 14 15
f 7 15 16
f 7 16 11
f 7 10 17
f 7 17 13
f 8 12 23
f 8 23 35
f 8 35 46
f 8 46 65
f 8 65 79
f 8 79 78
f 8 78 77
f 8 77 63
f 8 63 43
f 8 43 29
f 8 29 18
f 8 18 9
f 10 19 20
f 10 20 21
f 10 21 22
f 10 22 17
f 13 24 14
f 13 17 24
f 14 24 25
f 14 25 15
f 15 25 26
f 17 22 27
f 17 27 28
f 17 28 24
f 18 29 30
f 19 31 20
f 20 32 44
f 20 44 30
f 20 30 29
f 20 29 43
f 20 43 64
f 20 64 87
f 20 87 76
f 20 76 54
f 20 54 75
f 20 75 94
f 20 94 85
f 20 85 60
f 20 60 42
f 20 42 33
f 20 33 21
f 20 31 32
f 21 33 27
f 21 27 22
f 23 34 35
f 24 36 37
f 24 37 38
f 24 38 39
f 24 39 25
f 24 28 40
f 24 40 36
f 25 39 41
f 25 41 26
f 27 33 42
f 27 42 28
f 28 42 40
f 31 44 32
f 34 45 35
f 35 45 47
f 35 47 48
f 35 48 49
f 35 49 50
f 35 50 51
f 35 51 52
f 35 52 53
f 35 53 54
f 35 54 46
f 36 40 55
f 36 55 56
f 36 56 37
f 37 57 38
f 37 56 57
f 38 57 56
f 38 56 39
f 39 58 59
f 39 56 58
f 40 42 55
f 42 60 61
f 42 61 62
f 42 62 55
f 43 63 64
f 46 54 65
f 47 66 67
f 47 67 48
f 48 67 68
f 48 68 49
f 49 68 69
f 49 69 70
f 49 70 50
f 50 70 69
f 50 69 71
f 50 71 72
f 50 72 51
f 51 72 73
f 51 73 74
f 51 74 52
f 52 74 53
f 53 74 54
f 54 76 77
f 54 77 78
f 54 78 79
f 54 79 65
f 54 74 73
f 54 73 80
f 54 80 75
f 55 62 56
f 56 62 81
f 56 81 82
f 56 82 83
f 56 83 84
f 56 84 58
f 58 84 59
f 59 84 66
f 60 85 61
f 61 86 62
f 61 85 86
f 62 86 81
f 63 87 64
f 63 77 87
f 66 84 88
f 66 88 89
f 66 89 67
f 67 89 68
f 68 89 69
f 69 89 90
f 69 90 91
f 69 91 72
f 69 72 71
f 72 91 92
f 72 92 73
f 73 92 93
f 73 93 80
f 75 80 94
f 76 87 77
f 80 93 94
f 81 86 95
f 81 95 82
f 82 95 90
f 82 90 89
f 82 89 84
f 82 84 83
f 84 89 88
f 85 94 93
f 85 93 86
f 86 90 95
f 86 93 90
f 90 93 91
f 91 93 92

