# https://github.com/mikedh/trimesh
v 0.19584221 -0.70949613 1.12338492
v 0.15473071 -0.70949613 1.12338492
v 0.22135667 -0.70949613 1.16520583
v 0.22134784 -0.73347059 1.12338492
v 0.13360433 -0.75143545 1.12338492
v 0.14522031 -0.70949613 1.14061906
v 0.22135667 -0.72766192 1.15398749
v 0.22135667 -0.70949613 1.22197711
v 0.22134784 -0.78799535 1.12338492
v 0.13235692 -0.75498825 1.12338492
v 0.13250736 -0.75333512 1.12472176
v 0.14161080 -0.70949613 1.15356416
v 0.22135667 -0.72766192 1.23035466
v 0.22134784 -0.79577677 1.20077700
v 0.22134784 -0.79573112 1.18686269
v 0.22134784 -0.79539318 1.17021899
v 0.22134784 -0.79400495 1.15355303
v 0.22134784 -0.79353918 1.15080136
v 0.19777086 -0.70949613 1.23645958
v 0.19770894 -0.70956006 1.23717256
v 0.22134784 -0.73283126 1.23718369
v 0.17726378 -0.80086395 1.12338492
v 0.13193229 -0.76032198 1.12338492
v 0.13260464 -0.75505217 1.22019465
v 0.14229202 -0.70949613 1.20352867
v 0.22134784 -0.79209613 1.22019465
v 0.22134784 -0.79575853 1.20352867
v 0.22134784 -0.78774878 1.23718369
v 0.17411424 -0.80177725 1.12338492
v 0.17411424 -0.80142105 1.23718369
v 0.19732854 -0.70949613 1.23648186
v 0.18216492 -0.70949613 1.23717256
v 0.20770591 -0.72766192 1.23718369
v 0.13097682 -0.77766579 1.12338492
v 0.13200310 -0.76318979 1.20352867
v 0.13206498 -0.76337246 1.22019465
v 0.13213579 -0.76495249 1.23718369
v 0.13274621 -0.75661395 1.23718369
v 0.14258397 -0.70949613 1.20467613
v 0.16639092 -0.80246223 1.12338492
v 0.15596932 -0.80244396 1.23718369
v 0.16414379 -0.80263577 1.12338492
v 0.15605776 -0.70949613 1.23717256
v 0.15085579 -0.72766192 1.23718369
v 0.13159612 -0.78888127 1.12338492
v 0.13172880 -0.78851596 1.20352867
v 0.13180843 -0.78826021 1.23718369
v 0.13129535 -0.77766579 1.20352867
v 0.13138381 -0.77766579 1.22019465
v 0.13149884 -0.77766579 1.23686063
v 0.13151650 -0.77744660 1.23718369
v 0.13286124 -0.75635821 1.23718369
v 0.14564500 -0.70949613 1.21621755
v 0.14914834 -0.80267231 1.22879502
v 0.14395524 -0.79827014 1.23718369
v 0.14911293 -0.80267231 1.22879502
v 0.16256021 -0.80267231 1.12338492
v 0.13875327 -0.74435728 1.23718369
v 0.14021299 -0.79721981 1.12338492
v 0.13177303 -0.78841549 1.22019465
v 0.13180843 -0.78826936 1.23686063
v 0.13198534 -0.78842463 1.23718369
v 0.13150766 -0.77766579 1.23718369
v 0.15581004 -0.80279104 1.12338492
v 0.14228314 -0.79765822 1.23718369
v 0.14854674 -0.80279104 1.12338492
v 0.14078801 -0.79675403 1.20352867
f 1 2 6
f 1 6 12
f 1 12 25
f 1 25 39
f 1 39 53
f 1 53 43
f 1 43 32
f 1 32 31
f 1 31 19
f 1 19 8
f 1 8 3
f 1 3 4
f 1 4 9
f 1 9 22
f 1 22 29
f 1 29 40
f 1 40 42
f 1 42 57
f 1 57 64
f 1 64 66
f 1 66 59
f 1 59 45
f 1 45 34
f 1 34 23
f 1 23 10
f 1 10 5
f 1 5 2
f 2 5 6
f 3 7 4
f 3 8 13
f 3 13 7
f 4 7 9
f 5 10 11
f 5 11 12
f 5 12 6
f 7 13 14
f 7 14 15
f 7 15 16
f 7 16 17
f 7 17 18
f 7 18 9
f 8 19 20
f 8 20 21
f 8 21 13
f 9 18 22
f 10 23 24
f 10 24 11
f 11 24 12
f 12 24 25
f 13 26 27
f 13 27 14
f 13 21 28
f 13 28 26
f 14 29 15
f 14 27 30
f 14 30 29
f 15 29 16
f 16 29 17
f 17 29 18
f 18 29 22
f 19 31 20
f 20 32 33
f 20 33 21
f 20 31 32
f 21 33 44
f 21 44 58
f 21 58 52
f 21 52 38
f 21 38 37
f 21 37 51
f 21 51 63
f 21 63 47
f 21 47 62
f 21 62 65
f 21 65 55
f 21 55 41
f 21 41 30
f 21 30 28
f 23 34 35
f 23 35 24
f 24 36 37
f 24 37 38
f 24 38 25
f 24 35 36
f 25 38 39
f 26 28 30
f 26 30 27
f 29 30 40
f 30 41 42
f 30 42 40
f 32 43 44
f 32 44 33
f 34 45 46
f 34 46 47
f 34 47 48
f 34 48 35
f 35 48 36
f 36 49 50
f 36 50 37
f 36 48 49
f 37 50 51
f 38 52 53
f 38 53 39
f 41 54 42
f 41 55 56
f 41 56 54
f 42 54 57
f 43 58 44
f 43 53 58
f 45 59 46
f 46 60 61
f 46 61 47
f 46 59 60
f 47 63 50
f 47 50 49
f 47 49 48
f 47 61 62
f 50 63 51
f 52 58 53
f 54 64 57
f 54 56 66
f 54 66 64
f 55 65 56
f 56 65 59
f 56 59 66
f 59 65 67
f 59 67 62
f 59 62 61
f 59 61 60
f 62 67 65

