# https://github.com/mikedh/trimesh
v -0.00203040 -0.46704473 0.25823577
v 0.06371241 -0.46704473 0.25823577
v -0.00233516 -0.46701962 0.25823577
v -0.00233516 -0.46704473 0.25819917
v 0.06564516 -0.46704473 0.14155113
v 0.06371986 -0.46036535 0.25823577
v -0.01029656 -0.46704473 0.19017432
v -0.00580668 -0.21051647 0.25823577
v 0.06557083 -0.46704473 0.13154802
v 0.06545931 -0.21051647 0.12487927
v 0.06552625 -0.21051647 0.14155113
v 0.06390571 -0.21056669 0.25823577
v -0.01029656 -0.46704473 0.07755684
v -0.01029656 -0.21051647 0.19422318
v 0.00858480 -0.21051647 0.25823577
v 0.06551880 -0.46704473 0.12487927
v 0.06551880 -0.46036535 0.12487927
v 0.06522888 -0.21051647 0.10820742
v 0.06390571 -0.21051647 0.25819917
v 0.00134444 -0.46704473 0.07304992
v -0.01029656 -0.21051647 0.07728201
v 0.00134444 -0.21051647 0.07270183
v 0.06528837 -0.46704473 0.10820742
v 0.06488692 -0.21051647 0.09170043
v 0.06508762 -0.46704473 0.09822260
v 0.03466932 -0.46704473 0.07152933
v 0.00149316 -0.21051647 0.07268353
v 0.01801064 -0.21051647 0.07185907
v 0.03466932 -0.21051647 0.07108963
v 0.06487947 -0.21051647 0.09155386
v 0.06494641 -0.46036535 0.09155386
v 0.06493151 -0.46704473 0.09155386
v 0.05133546 -0.46036535 0.07319649
v 0.05133546 -0.46704473 0.07323315
v 0.03481798 -0.21051647 0.07108963
v 0.06221083 -0.26038580 0.07924236
v 0.06216625 -0.21051647 0.07924236
v 0.06328873 -0.46704473 0.08417063
v 0.06220338 -0.46036535 0.07926066
v 0.06218854 -0.44369202 0.07922400
v 0.06218854 -0.46704473 0.07927896
v 0.05143214 -0.21051647 0.07304992
f 1 2 6
f 1 6 12
f 1 12 15
f 1 15 8
f 1 8 3
f 1 3 4
f 1 4 7
f 1 7 13
f 1 13 20
f 1 20 26
f 1 26 34
f 1 34 41
f 1 41 38
f 1 38 32
f 1 32 25
f 1 25 23
f 1 23 16
f 1 16 9
f 1 9 5
f 1 5 2
f 2 5 6
f 3 7 4
f 3 8 7
f 5 9 10
f 5 10 11
f 5 11 12
f 5 12 6
f 7 8 14
f 7 14 21
f 7 21 13
f 8 15 19
f 8 19 11
f 8 11 10
f 8 10 18
f 8 18 24
f 8 24 30
f 8 30 37
f 8 37 42
f 8 42 35
f 8 35 29
f 8 29 28
f 8 28 27
f 8 27 22
f 8 22 21
f 8 21 14
f 9 16 17
f 9 17 10
f 10 17 18
f 11 19 12
f 12 19 15
f 13 21 22
f 13 22 20
f 16 23 17
f 17 23 18
f 18 23 25
f 18 25 24
f 20 22 27
f 20 27 28
f 20 28 29
f 20 29 26
f 24 25 31
f 24 31 30
f 25 32 31
f 26 33 34
f 26 29 35
f 26 35 33
f 30 36 37
f 30 31 36
f 31 32 38
f 31 38 39
f 31 39 36
f 33 40 39
f 33 39 41
f 33 41 34
f 33 35 42
f 33 42 40
f 36 42 37
f 36 39 40
f 36 40 42
f 38 41 39

