# https://github.com/mikedh/trimesh
v -3.69788895 1.95143609 1.21288417
v -3.69788895 1.95143609 1.17182332
v -3.69781147 1.95143609 1.22753636
v -3.69788895 1.95614179 1.22753636
v -3.69788895 1.96284438 1.14979954
v -2.90654228 1.95143609 1.17427224
v -3.68588243 1.95143609 1.22755291
v -3.69788895 1.97281048 1.22756945
v -3.69788895 1.97296763 1.14699486
v -3.18083346 1.97296763 1.14812004
v -3.18083346 1.96459168 1.15088336
v -3.17231268 1.96462867 1.15092472
v -2.90654228 1.97595377 1.14805385
v -2.90654228 1.95143609 1.22773492
v -3.61430795 1.95143609 1.22763565
v -3.61430795 1.95629894 1.22764391
v -3.69788895 2.00631428 1.22759427
v -3.69788895 1.98981199 1.14505061
v -2.96401872 1.98965483 1.14477759
v -2.94736450 1.98965483 1.14477759
v -2.93071026 1.98965483 1.14478587
v -2.90654228 1.98965483 1.14481895
v -2.90654228 1.98352540 1.14625853
v -2.90654228 2.02298297 1.22804931
v -2.93071026 2.02298297 1.22807413
v -3.60253379 1.95143609 1.22764391
v -3.61430795 1.97296763 1.22765218
v -2.98075040 2.02298297 1.22804931
v -3.69788895 2.02299222 1.22753636
v -3.69788895 2.00645295 1.14459557
v -2.93071026 2.02298297 1.14355312
v -2.94736450 2.00631428 1.14414881
v -2.93071026 2.00631428 1.14415708
v -2.90654228 1.99886283 1.14448802
v -2.90654228 2.03764551 1.22287016
v -2.93071026 2.03770098 1.22289498
v -2.94736450 2.03772871 1.22289498
v -2.96401872 2.03776569 1.22288671
v -2.98075040 2.03777493 1.22288671
v -3.49765094 2.03753458 1.22263851
v -3.69788895 2.03734043 1.22256405
v -3.69788895 2.02298297 1.14421499
v -3.23079611 2.03727570 1.14730925
v -2.93071026 2.03709081 1.14708586
v -2.91405604 2.03709081 1.14709413
v -2.90654228 2.03709081 1.14710241
v -2.91405604 2.02298297 1.14360276
v -3.69788895 2.02316787 1.14425636
v -3.69788895 2.03671176 1.14746645
v -2.90654228 2.01553152 1.14389233
v -2.90654228 2.04073333 1.21680577
v -3.06409897 2.04505074 1.20927697
v -3.18083346 2.04517092 1.20927697
v -3.18083346 2.03790437 1.22263023
v -3.64769385 2.03739589 1.22257232
v -3.19748768 2.03789512 1.22262196
v -3.69788895 2.04396907 1.20946726
v -3.19748768 2.04516167 1.20927697
v -3.21414189 2.04456076 1.15927258
v -3.21414189 2.03728495 1.14730925
v -2.90654228 2.04092748 1.15383696
v -2.90654228 2.02298297 1.14362759
v -3.19748768 2.04454225 1.15927258
v -3.69788895 2.04346984 1.15927258
v -3.23079611 2.04453301 1.15927258
v -2.90654228 2.04456076 1.20927697
v -3.06409897 2.04559619 1.19260609
v -3.08075320 2.04564241 1.19260609
v -3.18083346 2.04583656 1.19260609
v -3.19748768 2.04585505 1.19260609
v -2.90654228 2.04482886 1.20183092
v -2.90654228 2.04514318 1.19260609
v -3.21414189 2.04585505 1.19260609
v -3.69788895 2.04404303 1.20928525
v -3.23079611 2.04582731 1.19260609
v -3.69788895 2.04479188 1.19284601
v -3.23079611 2.04584579 1.17594347
v -3.21414189 2.04586429 1.17594347
v -3.19748768 2.04586429 1.17594347
v -2.90654228 2.04401529 1.15927258
v -3.69788895 2.04484734 1.17594347
v -2.90654228 2.04515243 1.18516831
v -2.90654228 2.04516167 1.17594347
v -3.08075320 2.04561468 1.17594347
v -3.69788895 2.04484734 1.17619994
v -3.69788895 2.04480113 1.19260609
v -2.90654228 2.04465320 1.16849741
f 1 2 6
f 1 6 14
f 1 14 26
f 1 26 15
f 1 15 7
f 1 7 3
f 1 3 4
f 1 4 8
f 1 8 17
f 1 17 29
f 1 29 41
f 1 41 57
f 1 57 74
f 1 74 76
f 1 76 86
f 1 86 85
f 1 85 81
f 1 81 64
f 1 64 49
f 1 49 48
f 1 48 42
f 1 42 30
f 1 30 18
f 1 18 9
f 1 9 5
f 1 5 2
f 2 5 6
f 3 7 8
f 3 8 4
f 5 9 10
f 5 10 11
f 5 11 6
f 6 11 12
f 6 12 13
f 6 13 23
f 6 23 22
f 6 22 34
f 6 34 50
f 6 50 62
f 6 62 46
f 6 46 61
f 6 61 80
f 6 80 87
f 6 87 83
f 6 83 82
f 6 82 72
f 6 72 71
f 6 71 66
f 6 66 51
f 6 51 35
f 6 35 24
f 6 24 14
f 7 15 16
f 7 16 8
f 8 16 17
f 9 18 19
f 9 19 20
f 9 20 21
f 9 21 22
f 9 22 10
f 10 22 23
f 10 23 13
f 10 13 11
f 11 13 12
f 14 24 25
f 14 25 26
f 15 26 16
f 16 27 17
f 16 26 28
f 16 28 27
f 17 27 28
f 17 28 29
f 18 30 31
f 18 31 32
f 18 32 19
f 19 32 20
f 20 32 33
f 20 33 21
f 21 33 22
f 22 33 31
f 22 31 34
f 24 35 36
f 24 36 25
f 25 36 37
f 25 37 38
f 25 38 39
f 25 39 28
f 25 28 26
f 28 39 40
f 28 40 41
f 28 41 29
f 30 42 31
f 31 43 44
f 31 44 45
f 31 45 46
f 31 46 47
f 31 47 34
f 31 33 32
f 31 42 48
f 31 48 49
f 31 49 43
f 34 47 50
f 35 51 52
f 35 52 36
f 36 38 37
f 36 52 38
f 38 52 53
f 38 53 39
f 39 53 54
f 39 54 40
f 40 55 41
f 40 54 56
f 40 56 55
f 41 55 58
f 41 58 57
f 43 59 60
f 43 60 44
f 43 49 59
f 44 60 59
f 44 59 45
f 45 59 46
f 46 62 47
f 46 59 63
f 46 63 61
f 47 62 50
f 49 64 65
f 49 65 59
f 51 66 52
f 52 67 68
f 52 68 69
f 52 69 70
f 52 70 53
f 52 66 71
f 52 71 72
f 52 72 67
f 53 70 73
f 53 73 58
f 53 58 54
f 54 58 56
f 55 56 58
f 57 58 74
f 58 73 75
f 58 75 76
f 58 76 74
f 59 65 77
f 59 77 78
f 59 78 79
f 59 79 63
f 61 63 80
f 63 79 80
f 64 81 65
f 65 81 77
f 67 72 82
f 67 82 83
f 67 83 68
f 68 83 84
f 68 84 79
f 68 79 69
f 69 79 70
f 70 79 78
f 70 78 73
f 73 78 77
f 73 77 75
f 75 77 85
f 75 85 86
f 75 86 76
f 77 81 85
f 79 84 80
f 80 84 87
f 83 87 84

