# https://github.com/mikedh/trimesh
v 0.54592647 -0.28805353 1.93796004
v 0.49075668 -0.28805353 1.93790663
v 0.54592647 -0.28805353 1.99762977
v 0.54592647 -0.71028759 1.93814392
v 0.47408024 -0.28805353 1.93793631
v 0.47408024 -0.28805353 1.99785520
v 0.54592647 -0.43919975 1.99765945
v 0.54592647 -0.71028759 1.99755264
v 0.30746520 -0.71028759 1.93871344
v 0.41780472 -0.28805353 1.93809051
v 0.24078931 -0.28805353 1.99851371
v 0.54592647 -0.57765750 1.99765945
v 0.25746574 -0.66098013 1.99808062
v 0.24063987 -0.67780171 1.99806882
v 0.24063987 -0.69449927 1.99802126
v 0.24150654 -0.71028759 1.99792636
v 0.24078931 -0.44436610 1.99840690
v 0.24063987 -0.71028759 1.93898042
v 0.30746521 -0.28805353 1.93844057
v 0.40112828 -0.28805353 1.93813802
v 0.24063988 -0.28805353 1.99827637
v 0.24063988 -0.28813617 1.99850775
v 0.24063988 -0.44453142 1.99840690
v 0.24063987 -0.66114544 1.99809838
v 0.24063987 -0.71028759 1.99792636
v 0.24063987 -0.51082581 1.93917622
v 0.27411233 -0.28805353 1.93880243
v 0.29078877 -0.28805353 1.93852360
v 0.30115923 -0.28805353 1.93847020
v 0.24063988 -0.28805353 1.93945505
v 0.24063987 -0.49421088 1.93919398
f 1 2 5
f 1 5 10
f 1 10 20
f 1 20 19
f 1 19 29
f 1 29 28
f 1 28 27
f 1 27 30
f 1 30 21
f 1 21 11
f 1 11 6
f 1 6 3
f 1 3 7
f 1 7 12
f 1 12 8
f 1 8 4
f 1 4 2
f 2 4 5
f 3 6 7
f 4 8 16
f 4 16 25
f 4 25 18
f 4 18 9
f 4 9 5
f 5 9 10
f 6 11 7
f 7 11 12
f 8 13 14
f 8 14 15
f 8 15 16
f 8 12 17
f 8 17 13
f 9 18 19
f 9 19 20
f 9 20 10
f 11 21 22
f 11 22 23
f 11 23 17
f 11 17 12
f 13 24 14
f 13 17 23
f 13 23 24
f 14 24 23
f 14 23 22
f 14 22 21
f 14 21 30
f 14 30 31
f 14 31 26
f 14 26 18
f 14 18 25
f 14 25 15
f 15 25 16
f 18 26 27
f 18 27 28
f 18 28 29
f 18 29 19
f 26 31 27
f 27 31 30

