# https://github.com/mikedh/trimesh
v 0.15744627 -0.14172650 0.45048609
v 0.16049388 -0.14174442 0.45048609
v 0.14382722 -0.14593948 0.45048609
v 0.14104795 -0.14841718 0.58683185
v 0.15744627 -0.14417738 0.58683185
v 0.17411294 -0.14183385 0.45048609
v 0.14077091 -0.14689659 0.45048609
v 0.13276224 -0.16101138 0.58683185
v 0.13241594 -0.15263910 0.49986738
v 0.17411294 -0.14432049 0.58683185
v 0.19077102 -0.14297878 0.45354240
v 0.19077102 -0.14293404 0.45048609
v 0.19077102 -0.14503608 0.58683185
v 0.13383585 -0.15134212 0.45048609
v 0.13231199 -0.15245125 0.47021193
v 0.13255446 -0.16101138 0.53686333
v 0.13279687 -0.17767546 0.58683185
v 0.13241594 -0.15431177 0.49986738
v 0.22071043 -0.15316684 0.52019380
v 0.20288356 -0.14830089 0.45048609
v 0.22071043 -0.15298794 0.50369779
v 0.22071043 -0.15297006 0.50065483
v 0.22071043 -0.15297006 0.50040124
v 0.20254589 -0.14915959 0.58683185
v 0.22071043 -0.15330995 0.52610621
v 0.13226871 -0.15237075 0.45048609
v 0.13227741 -0.15237970 0.45354240
v 0.13231199 -0.15850687 0.47021193
v 0.13353282 -0.19433950 0.58683185
v 0.13226871 -0.15983963 0.45048609
v 0.13246785 -0.16817613 0.45048609
v 0.13279687 -0.17767546 0.45048609
v 0.22071043 -0.15834583 0.48961745
v 0.22071043 -0.15983963 0.48849633
v 0.20556757 -0.15867680 0.45048609
v 0.20560220 -0.16098455 0.58683185
v 0.22071043 -0.16512598 0.56550448
v 0.22071043 -0.15951762 0.55736323
v 0.22071043 -0.15795227 0.55353285
v 0.22071043 -0.15455328 0.54185484
v 0.22071043 -0.15375720 0.53686333
v 0.13955878 -0.23309709 0.51477519
v 0.13974063 -0.23309709 0.52019380
v 0.14122116 -0.23309709 0.53143136
v 0.14202631 -0.23309709 0.53686333
v 0.15432940 -0.23309709 0.58683185
v 0.13301336 -0.18072560 0.45048609
v 0.13398302 -0.19433950 0.45048609
v 0.13870165 -0.23309709 0.48688145
v 0.22071043 -0.17256801 0.48259728
v 0.20614765 -0.16101138 0.45048609
v 0.20420828 -0.17764860 0.58683185
v 0.22071043 -0.23309709 0.56777335
v 0.22071043 -0.19436635 0.56881436
v 0.22071043 -0.17767546 0.56860082
v 0.19200908 -0.23309709 0.58683185
v 0.15207830 -0.23309709 0.45048609
v 0.14685748 -0.23309709 0.45884088
v 0.14321251 -0.23309709 0.46639487
v 0.14150685 -0.23309709 0.47021193
v 0.13946359 -0.23309709 0.48144952
v 0.22071043 -0.17767546 0.48162297
v 0.20419093 -0.17767546 0.45048609
v 0.22071043 -0.19433950 0.48361158
v 0.19228618 -0.23308813 0.58683185
v 0.22071043 -0.23309709 0.50328404
v 0.19431216 -0.23309709 0.45048609
v 0.22071043 -0.20953663 0.48955069
f 1 2 6
f 1 6 12
f 1 12 20
f 1 20 35
f 1 35 51
f 1 51 63
f 1 63 67
f 1 67 57
f 1 57 48
f 1 48 47
f 1 47 32
f 1 32 31
f 1 31 30
f 1 30 26
f 1 26 14
f 1 14 7
f 1 7 3
f 1 3 4
f 1 4 5
f 1 5 2
f 2 5 6
f 3 7 4
f 4 8 17
f 4 17 29
f 4 29 46
f 4 46 56
f 4 56 65
f 4 65 52
f 4 52 36
f 4 36 24
f 4 24 13
f 4 13 10
f 4 10 5
f 4 7 9
f 4 9 8
f 5 10 6
f 6 11 12
f 6 10 13
f 6 13 11
f 7 14 15
f 7 15 9
f 8 16 17
f 8 9 16
f 9 15 28
f 9 28 18
f 9 18 16
f 11 13 19
f 11 19 12
f 12 19 21
f 12 21 22
f 12 22 23
f 12 23 20
f 13 24 25
f 13 25 19
f 14 26 27
f 14 27 15
f 15 27 26
f 15 26 30
f 15 30 28
f 16 18 28
f 16 28 17
f 17 28 30
f 17 30 31
f 17 31 32
f 17 32 29
f 19 25 41
f 19 41 40
f 19 40 39
f 19 39 38
f 19 38 37
f 19 37 55
f 19 55 54
f 19 54 53
f 19 53 66
f 19 66 68
f 19 68 64
f 19 64 62
f 19 62 50
f 19 50 34
f 19 34 33
f 19 33 23
f 19 23 22
f 19 22 21
f 20 33 34
f 20 34 35
f 20 23 33
f 24 36 37
f 24 37 38
f 24 38 39
f 24 39 40
f 24 40 41
f 24 41 25
f 29 42 43
f 29 43 44
f 29 44 45
f 29 45 46
f 29 32 47
f 29 47 48
f 29 48 49
f 29 49 42
f 34 50 51
f 34 51 35
f 36 52 53
f 36 53 54
f 36 54 55
f 36 55 37
f 42 49 61
f 42 61 60
f 42 60 59
f 42 59 58
f 42 58 57
f 42 57 67
f 42 67 66
f 42 66 53
f 42 53 56
f 42 56 46
f 42 46 45
f 42 45 44
f 42 44 43
f 48 57 58
f 48 58 59
f 48 59 60
f 48 60 61
f 48 61 49
f 50 62 51
f 51 62 64
f 51 64 63
f 52 65 53
f 53 65 56
f 63 64 67
f 64 68 67
f 66 67 68

