# https://github.com/mikedh/trimesh
v -0.44433146 2.00631932 1.94181655
v -0.39317059 2.02298846 1.94182430
v -0.42768545 2.00631932 1.94183981
v -0.44433146 1.99299353 1.94672884
v -0.56112487 1.99257307 1.94677542
v -0.66113648 1.99231536 1.94681419
v -0.91123345 2.00631932 1.94226660
v -0.39317059 2.03647702 1.94668226
v -0.39317059 2.00631932 1.94194847
v -1.08727291 2.02298846 1.94265463
v -0.39317059 2.00543773 1.94227441
v -0.39432561 1.99321732 1.94679868
v -0.51105114 1.97300143 1.96249789
v -0.66113648 1.97300143 1.96182275
v -0.52776503 1.99254593 1.94684526
v -1.08727291 1.99319019 1.94710130
v -0.91123345 1.99305457 1.94689954
v -0.96130720 2.00631932 1.94232869
v -0.39317059 2.04199721 1.95975075
v -1.08727291 2.02986497 1.94518455
v -1.08727291 2.03540552 1.94722548
v -1.08727291 2.01554228 1.94259254
v -0.39317059 1.99321732 1.94680644
v -0.49440518 1.97300143 1.96269191
v -0.90905928 1.97300143 1.96467856
v -0.91123345 1.97300143 1.96471738
v -0.92794735 1.97300143 1.96528392
v -1.08727291 1.97300144 1.97249330
v -1.08727291 2.00045326 1.94457144
v -1.08727291 2.00631932 1.94253827
v -0.39317059 2.04228205 1.97642778
v -1.08727291 2.03790792 1.95415550
v -1.08727291 2.03992205 1.95975075
v -1.08727291 2.04013907 1.96897780
v -1.08727291 2.04030860 1.97642778
v -0.39317059 1.97300143 1.96413534
v -1.08727291 1.97300144 2.02104987
v -0.39317059 2.04211250 1.99197955
v -1.08727291 2.04028148 1.99309705
v -0.39317059 1.97300143 2.02103436
v -1.08727291 1.98042049 2.02105774
v -1.02795895 1.97300144 2.02106550
v -0.39317059 2.04209896 1.99309705
v -1.08727291 2.03649736 2.00977408
v -0.39317059 1.98964343 2.02104987
v -0.81115390 1.98964343 2.02108876
v -0.79450794 1.97300143 2.02106550
v -1.08727291 1.98964344 2.02105774
v -1.02795895 1.98964344 2.02108100
v -0.39317059 2.03853183 2.00865664
v -1.08727291 2.03402209 2.01467869
v -0.39317059 2.03826056 2.00977408
v -0.39317059 2.00631932 2.02101886
v -0.41097156 2.00631932 2.02101886
v -1.02795895 2.00631932 2.02099560
v -1.08727291 1.99709637 2.02101886
v -1.08727291 2.03202153 2.01863643
v -0.39317059 2.03331680 2.01856664
v -0.39317059 2.00744507 2.02099560
v -1.04467287 2.00631932 2.02098784
v -0.39317059 2.02298846 2.02063858
v -1.08727291 2.00631932 2.02096458
v -1.07803271 2.00631932 2.02097234
v -1.08727291 2.02298846 2.02001784
v -0.39317059 2.03292347 2.01920290
v -0.39317059 2.02368017 2.02054554
f 1 2 3
f 1 3 4
f 1 4 5
f 1 5 6
f 1 6 7
f 1 7 2
f 2 8 19
f 2 19 31
f 2 31 38
f 2 38 43
f 2 43 50
f 2 50 52
f 2 52 58
f 2 58 65
f 2 65 66
f 2 66 61
f 2 61 59
f 2 59 53
f 2 53 45
f 2 45 40
f 2 40 36
f 2 36 23
f 2 23 11
f 2 11 9
f 2 9 3
f 2 7 10
f 2 10 8
f 3 9 11
f 3 11 12
f 3 12 4
f 4 12 13
f 4 13 14
f 4 14 15
f 4 15 5
f 5 15 6
f 6 15 14
f 6 14 16
f 6 16 17
f 6 17 18
f 6 18 7
f 7 18 10
f 8 10 20
f 8 20 21
f 8 21 19
f 10 18 22
f 10 22 30
f 10 30 29
f 10 29 16
f 10 16 28
f 10 28 37
f 10 37 41
f 10 41 48
f 10 48 56
f 10 56 62
f 10 62 64
f 10 64 57
f 10 57 51
f 10 51 44
f 10 44 39
f 10 39 35
f 10 35 34
f 10 34 33
f 10 33 32
f 10 32 21
f 10 21 20
f 11 23 12
f 12 23 13
f 13 23 24
f 13 24 36
f 13 36 40
f 13 40 47
f 13 47 42
f 13 42 37
f 13 37 28
f 13 28 27
f 13 27 26
f 13 26 25
f 13 25 14
f 14 25 16
f 16 25 26
f 16 26 27
f 16 27 28
f 16 29 18
f 16 18 17
f 18 29 30
f 18 30 22
f 19 21 32
f 19 32 33
f 19 33 34
f 19 34 35
f 19 35 31
f 23 36 24
f 31 35 39
f 31 39 38
f 37 42 41
f 38 39 43
f 39 44 43
f 40 45 46
f 40 46 47
f 41 42 49
f 41 49 48
f 42 47 46
f 42 46 49
f 43 44 50
f 44 51 52
f 44 52 50
f 45 53 46
f 46 53 54
f 46 54 49
f 48 49 55
f 48 55 56
f 49 54 55
f 51 57 52
f 52 57 58
f 53 59 54
f 54 59 55
f 55 60 56
f 55 59 61
f 55 61 60
f 56 60 63
f 56 63 62
f 57 64 65
f 57 65 58
f 60 61 63
f 61 66 64
f 61 64 62
f 61 62 63
f 64 66 65

