# https://github.com/mikedh/trimesh
v 0.22135672 -0.78721310 1.43900729
v 0.22135672 -0.73708960 1.43900729
v 0.22135672 -0.78721810 1.43864555
v 0.27601796 -0.78683262 1.43877882
v 0.27601796 -0.78682760 1.43900729
v 0.27601796 -0.73767534 1.43900729
v 0.27601796 -0.73643880 1.24453649
v 0.22135672 -0.73627358 1.24453649
v 0.22135672 -0.78722311 1.43687504
v 0.27601796 -0.78688268 1.42212077
v 0.27601796 -0.78716804 1.24453649
v 0.22135672 -0.78741836 1.24453649
v 0.27601796 -0.78688768 1.42019797
v 0.22135672 -0.78728817 1.40353992
v 0.27601796 -0.78699780 1.37020480
v 0.27601796 -0.78696278 1.38686282
v 0.27601796 -0.78704788 1.33688870
v 0.27601796 -0.78702284 1.35545054
f 1 2 8
f 1 8 12
f 1 12 14
f 1 14 9
f 1 9 3
f 1 3 4
f 1 4 5
f 1 5 6
f 1 6 2
f 2 6 7
f 2 7 8
f 3 9 10
f 3 10 4
f 4 10 13
f 4 13 16
f 4 16 15
f 4 15 18
f 4 18 17
f 4 17 11
f 4 11 7
f 4 7 6
f 4 6 5
f 7 11 12
f 7 12 8
f 9 13 10
f 9 14 15
f 9 15 16
f 9 16 13
f 11 17 14
f 11 14 12
f 14 18 15
f 14 17 18

