# https://github.com/mikedh/trimesh
v -2.43086063 -0.72687721 0.90371499
v -2.43086063 -0.72687721 0.82879187
v -2.39957485 -0.72687721 0.90381784
v -2.43086063 -0.61468908 0.89664067
v -2.24557126 -0.72687721 0.82988645
v -2.43086063 -0.61468908 0.83708564
v -2.07177679 -0.61468908 0.83271469
v -2.38291248 -0.72687721 0.90383987
v -2.23734557 -0.61468908 0.89629541
v -2.24936774 -0.72687721 0.90378110
v -2.19959169 -0.61470006 0.89633213
v -2.23734557 -0.72687721 0.82994522
v -2.07177679 -0.61468908 0.89570772
v -2.07177679 -0.67764665 0.83258247
v -2.07694426 -0.72195744 0.83162013
v -2.18292931 -0.61470006 0.89629541
v -2.12605244 -0.61468908 0.89591341
v -2.23734557 -0.72687721 0.90372968
v -2.16626700 -0.61470006 0.89622929
v -2.07177679 -0.62613192 0.89644233
v -2.07177679 -0.68677237 0.83259717
v -2.07694426 -0.72195744 0.90222373
v -2.07177679 -0.64437237 0.89691982
v -2.07177679 -0.68677237 0.89733856
v -2.07177679 -0.67764665 0.89731652
f 1 2 5
f 1 5 12
f 1 12 18
f 1 18 10
f 1 10 8
f 1 8 3
f 1 3 4
f 1 4 6
f 1 6 2
f 2 6 7
f 2 7 5
f 3 8 4
f 4 9 17
f 4 17 13
f 4 13 7
f 4 7 6
f 4 8 10
f 4 10 11
f 4 11 9
f 5 7 12
f 7 13 20
f 7 20 23
f 7 23 25
f 7 25 24
f 7 24 21
f 7 21 14
f 7 14 15
f 7 15 12
f 9 11 16
f 9 16 17
f 10 18 19
f 10 19 16
f 10 16 11
f 12 15 22
f 12 22 18
f 13 17 16
f 13 16 19
f 13 19 20
f 14 21 15
f 15 21 24
f 15 24 22
f 18 22 20
f 18 20 19
f 20 22 23
f 22 24 25
f 22 25 23

