# https://github.com/mikedh/trimesh
v -1.04465438 1.55294305 1.17593356
v -1.04465438 1.55295289 1.17716385
v -1.08727291 1.55303157 1.17593356
v -1.06134471 1.55364134 1.15926098
v -1.04465438 1.55363149 1.15926098
v -1.02796405 1.55295289 1.17593356
v -1.02672196 1.55295289 1.17716385
v -1.08727291 1.55304140 1.17716385
v -1.08727291 1.55371017 1.15926098
v -1.07803500 1.55368066 1.15926098
v -1.06134471 1.55936518 1.14694142
v -1.04465438 1.55936518 1.14691453
v -1.02796405 1.55364134 1.15926098
v -0.79453240 1.55407407 1.15926098
v -0.29421084 1.55460513 1.17593356
v -0.29428843 1.55460513 1.17716385
v -1.08727291 1.65117304 1.17716385
v -1.08727291 1.55941436 1.14704563
v -1.07803500 1.55939469 1.14701201
v -1.06134471 1.57272083 1.14297496
v -1.04465438 1.57272083 1.14295479
v -0.84452574 1.57272083 1.14283378
v -0.82783540 1.57272083 1.14282705
v -0.81114510 1.55952253 1.14689100
v -0.79453240 1.55954222 1.14690445
v -0.29421084 1.56026999 1.14733807
v -0.29421084 1.55538208 1.15925763
v -0.29421084 1.56560045 1.17716385
v -1.08727291 1.61991804 1.14776497
v -0.97797069 1.65271709 1.17716385
v -0.71108079 1.63126741 1.15069276
v -0.72777112 1.63114938 1.15083730
v -0.73646560 1.63109037 1.15091796
v -0.79453240 1.63076584 1.15164739
v -1.08727291 1.57272083 1.14310270
v -1.08727291 1.58194588 1.14324724
v -1.08727291 1.58940066 1.14339178
v -0.91120941 1.58940066 1.14319681
v -0.86121607 1.58940066 1.14318001
v -0.79453240 1.58940066 1.14315984
v -0.81114510 1.57272083 1.14283042
v -0.79453240 1.57272083 1.14284723
v -0.74446141 1.55967006 1.14692797
v -0.29421084 1.57272083 1.14353295
v -0.29421084 1.64101368 1.17716385
v -1.08727291 1.61378113 1.14616158
v -0.69446808 1.63137557 1.15056167
v -0.67785538 1.63144443 1.15047763
v -0.67785538 1.62274063 1.14731118
v -0.97439976 1.65276626 1.17716385
v -1.08727291 1.59862570 1.14381868
v -0.91120941 1.60607064 1.14404053
v -0.89459671 1.60607064 1.14403045
v -1.08727291 1.60607064 1.14417834
v -0.86121607 1.60607064 1.14402708
v -0.77784207 1.60607064 1.14403045
v -0.29421084 1.60607064 1.14453129
v -0.29421084 1.58940066 1.14369430
v -0.29421084 1.64114154 1.17307637
v -0.29428843 1.65172378 1.17716385
v -0.66116508 1.63147392 1.15044065
v -0.64447475 1.63150343 1.15041376
v -0.62778443 1.63152309 1.15038350
v -0.66116508 1.62274063 1.14727421
v -0.70797559 1.65338586 1.17716385
v -0.61109410 1.63154278 1.15035662
v -0.61109410 1.62274063 1.14721033
v -0.59448140 1.62274063 1.14720698
v -0.37766247 1.62274063 1.14737840
v -0.36097209 1.62274063 1.14739185
v -0.34428182 1.62274063 1.14745908
v -0.29421084 1.62274063 1.14780194
v -0.29421084 1.63120838 1.15076334
v -0.67459497 1.65333669 1.17716385
v -0.29428843 1.63121822 1.15077007
v -0.34428182 1.63145425 1.15046754
v -0.36097209 1.63151327 1.15040031
v -0.59448140 1.63156244 1.15033980
v -0.69446808 1.65340553 1.17716385
v -0.37766247 1.63154278 1.15036670
v -0.69128526 1.65340553 1.17716385
f 1 2 8
f 1 8 3
f 1 3 4
f 1 4 5
f 1 5 13
f 1 13 6
f 1 6 7
f 1 7 2
f 2 7 16
f 2 16 28
f 2 28 45
f 2 45 60
f 2 60 74
f 2 74 81
f 2 81 79
f 2 79 65
f 2 65 50
f 2 50 30
f 2 30 17
f 2 17 8
f 3 8 17
f 3 17 29
f 3 29 46
f 3 46 54
f 3 54 51
f 3 51 37
f 3 37 36
f 3 36 35
f 3 35 18
f 3 18 9
f 3 9 10
f 3 10 4
f 4 11 12
f 4 12 5
f 4 10 11
f 5 12 13
f 6 13 14
f 6 14 15
f 6 15 7
f 7 15 16
f 9 18 19
f 9 19 11
f 9 11 10
f 11 20 12
f 11 19 18
f 11 18 20
f 12 20 21
f 12 21 22
f 12 22 23
f 12 23 24
f 12 24 13
f 13 24 25
f 13 25 26
f 13 26 14
f 14 26 27
f 14 27 15
f 15 27 26
f 15 26 44
f 15 44 58
f 15 58 57
f 15 57 72
f 15 72 73
f 15 73 59
f 15 59 45
f 15 45 28
f 15 28 16
f 17 30 31
f 17 31 32
f 17 32 33
f 17 33 34
f 17 34 29
f 18 35 20
f 20 35 36
f 20 36 37
f 20 37 21
f 21 37 38
f 21 38 22
f 22 38 23
f 23 38 39
f 23 39 40
f 23 40 41
f 23 41 24
f 24 41 42
f 24 42 25
f 25 42 43
f 25 43 26
f 26 43 42
f 26 42 44
f 29 34 33
f 29 33 32
f 29 32 31
f 29 31 47
f 29 47 48
f 29 48 49
f 29 49 46
f 30 50 47
f 30 47 31
f 37 51 38
f 38 52 53
f 38 53 39
f 38 51 54
f 38 54 52
f 39 53 40
f 40 42 41
f 40 53 55
f 40 55 56
f 40 56 57
f 40 57 58
f 40 58 42
f 42 58 44
f 45 59 60
f 46 49 54
f 47 50 48
f 48 61 49
f 48 50 61
f 49 61 62
f 49 62 63
f 49 63 64
f 49 64 54
f 50 65 66
f 50 66 63
f 50 63 62
f 50 62 61
f 52 54 67
f 52 67 53
f 53 67 68
f 53 68 55
f 54 64 67
f 55 68 56
f 56 68 69
f 56 69 70
f 56 70 57
f 57 70 71
f 57 71 72
f 59 73 60
f 60 73 75
f 60 75 76
f 60 76 77
f 60 77 74
f 63 66 64
f 64 66 78
f 64 78 67
f 65 79 78
f 65 78 66
f 67 78 68
f 68 78 80
f 68 80 69
f 69 80 70
f 70 80 77
f 70 77 71
f 71 77 76
f 71 76 72
f 72 76 73
f 73 76 75
f 74 77 81
f 77 80 81
f 78 79 81
f 78 81 80

