# https://github.com/mikedh/trimesh
v -2.62920695 -0.76121346 1.87014584
v -2.48763504 -0.75360013 1.87015896
v -2.48763504 -0.78587240 1.87015896
v -2.63297694 -0.78673965 1.87014584
v -2.63297694 -0.75387643 1.87014584
v -2.53062428 -0.75322408 1.87015896
v -2.41634267 -0.75373826 1.87018506
v -2.40700207 -0.77149761 1.87018506
v -2.41634267 -0.78584170 1.87018506
v -2.64963246 -0.78689313 1.87014584
v -2.74962186 -0.75356943 1.87014584
v -2.53186219 -0.75322408 1.87015896
v -2.48763504 -0.72351516 1.89221464
v -2.40700207 -0.75373826 1.87019818
v -2.76622111 -0.75353873 1.87014584
v -2.40700207 -0.78578031 1.87021123
v -2.40700207 -0.79898084 1.90356954
v -2.64963246 -0.79995554 1.90355642
v -2.66628798 -0.78695453 1.87014584
v -2.49258668 -0.72351516 1.89259397
v -2.48763504 -0.72351516 1.99777054
v -2.40700207 -0.72494267 1.92651477
v -2.46827864 -0.72494267 1.89307802
v -2.78293289 -0.75357709 1.87014584
v -2.98178629 -0.75444434 1.87014584
v -2.98178629 -0.72352285 1.89447773
v -2.40700207 -0.73382234 1.89292102
v -2.40700207 -0.80132166 1.92023554
v -2.66628798 -0.80189723 1.92022249
v -2.66628798 -0.79997857 1.90355642
v -2.74962186 -0.78698522 1.87014584
v -2.49748205 -0.72351516 1.89297335
v -2.44689655 -0.72494267 1.99799299
v -2.41358551 -0.72494267 1.99794065
v -2.40700207 -0.72494267 1.99792754
v -2.49663804 -0.72351516 1.99775755
v -2.98178629 -0.72352285 1.99803221
v -2.97874777 -0.72352285 1.99803221
v -2.69959902 -0.74435206 2.00179973
v -2.68294350 -0.74435206 2.00178662
v -2.40700207 -0.72962426 1.90356954
v -2.40700207 -0.73193435 1.89766970
v -2.98178629 -0.78701592 1.87014584
v -2.62920695 -0.72351516 1.93113255
v -2.40700207 -0.80159792 1.97019441
v -2.68294350 -0.80192027 1.92022249
v -2.41634267 -0.80161327 1.97019441
v -2.81624393 -0.80189723 1.92022249
v -2.81624393 -0.79991715 1.90355642
v -2.96619988 -0.78702361 1.87014584
v -2.93288883 -0.78703127 1.87014584
v -2.91623331 -0.78703127 1.87014584
v -2.44965371 -0.74435206 2.00143351
v -2.41634267 -0.74435206 2.00135495
v -2.40700207 -0.74435206 2.00131573
v -2.62920695 -0.72351516 1.99756133
v -2.98178629 -0.74435206 2.00189128
v -2.96619988 -0.74435206 2.00189128
v -2.69959902 -0.76102159 2.00363116
v -2.68294350 -0.76102159 2.00361804
v -2.96619988 -0.79953344 1.90355642
v -2.98178629 -0.79942597 1.90355642
v -2.40700207 -0.80114510 1.97945627
v -2.68294350 -0.80188188 1.97019441
v -2.69959902 -0.80188188 1.97019441
v -2.98178629 -0.80188957 1.93688850
v -2.83289945 -0.80188957 1.92022249
v -2.89957779 -0.80179748 1.92022249
v -2.98178629 -0.80168236 1.92022249
v -2.43299819 -0.76102159 2.00314716
v -2.40700207 -0.76102159 2.00309483
v -2.98178629 -0.76102159 2.00356571
v -2.96619988 -0.76102159 2.00359194
v -2.94954436 -0.76102159 2.00360505
v -2.71625454 -0.76102159 2.00363116
v -2.69959902 -0.77766811 2.00378816
v -2.68294350 -0.77766811 2.00377504
v -2.64963246 -0.77766811 2.00372271
v -2.40700207 -0.77766811 2.00331727
v -2.40700207 -0.80076906 1.98686048
v -2.64963246 -0.80098396 1.98686048
v -2.71625454 -0.80103001 1.98686048
v -2.76622111 -0.80186654 1.97019441
v -2.98178629 -0.80178213 1.97019441
v -2.98178629 -0.80169770 1.92132131
v -2.88286600 -0.80182818 1.97019441
v -2.98178629 -0.77657829 2.00365738
v -2.94954436 -0.77766811 2.00373582
v -2.88286600 -0.77766811 2.00377504
v -2.71625454 -0.77766811 2.00378816
v -2.71625454 -0.79304829 1.99952353
v -2.69959902 -0.79302525 1.99952353
v -2.66628798 -0.79300990 1.99951041
v -2.64963246 -0.79301759 1.99949742
v -2.40700207 -0.79291781 1.99931419
v -2.40700207 -0.79640981 1.99378069
v -2.73291005 -0.79304829 1.99952353
v -2.79958841 -0.80095324 1.98686048
v -2.98178629 -0.80076137 1.98686048
v -2.86621048 -0.80089184 1.98686048
v -2.98178629 -0.77766811 2.00365738
v -2.96619988 -0.77766811 2.00369660
v -2.93288883 -0.79282572 1.99949742
v -2.88286600 -0.79289477 1.99951041
v -2.98178629 -0.79284873 1.99941886
v -2.86621048 -0.79292547 1.99951041
f 1 2 3
f 1 3 4
f 1 4 10
f 1 10 19
f 1 19 31
f 1 31 52
f 1 52 51
f 1 51 50
f 1 50 43
f 1 43 25
f 1 25 24
f 1 24 15
f 1 15 11
f 1 11 5
f 1 5 2
f 2 5 6
f 2 6 7
f 2 7 8
f 2 8 3
f 3 8 9
f 3 9 10
f 3 10 4
f 5 11 6
f 6 12 13
f 6 13 14
f 6 14 7
f 6 11 15
f 6 15 12
f 7 14 8
f 8 14 27
f 8 27 42
f 8 42 41
f 8 41 22
f 8 22 35
f 8 35 55
f 8 55 71
f 8 71 79
f 8 79 95
f 8 95 96
f 8 96 80
f 8 80 63
f 8 63 45
f 8 45 28
f 8 28 17
f 8 17 16
f 8 16 9
f 9 16 17
f 9 17 10
f 10 18 19
f 10 17 18
f 12 15 13
f 13 20 32
f 13 32 44
f 13 44 56
f 13 56 36
f 13 36 21
f 13 21 35
f 13 35 22
f 13 22 23
f 13 23 14
f 13 15 24
f 13 24 25
f 13 25 26
f 13 26 20
f 14 23 27
f 17 28 18
f 18 29 46
f 18 46 30
f 18 30 19
f 18 28 29
f 19 30 31
f 20 26 32
f 21 33 34
f 21 34 35
f 21 36 37
f 21 37 38
f 21 38 39
f 21 39 40
f 21 40 33
f 22 41 23
f 23 41 42
f 23 42 27
f 25 43 62
f 25 62 69
f 25 69 85
f 25 85 66
f 25 66 84
f 25 84 99
f 25 99 105
f 25 105 101
f 25 101 87
f 25 87 72
f 25 72 57
f 25 57 37
f 25 37 26
f 26 37 56
f 26 56 44
f 26 44 32
f 28 45 29
f 29 45 47
f 29 47 46
f 30 46 48
f 30 48 49
f 30 49 50
f 30 50 51
f 30 51 52
f 30 52 31
f 33 53 34
f 33 40 53
f 34 53 35
f 35 53 54
f 35 54 55
f 36 56 37
f 37 57 58
f 37 58 38
f 38 58 39
f 39 59 60
f 39 60 40
f 39 58 59
f 40 60 53
f 43 50 49
f 43 49 61
f 43 61 62
f 45 63 47
f 46 47 64
f 46 64 65
f 46 65 66
f 46 66 48
f 47 63 64
f 48 66 67
f 48 67 49
f 49 67 68
f 49 68 69
f 49 69 61
f 53 70 71
f 53 71 54
f 53 60 70
f 54 71 55
f 57 72 73
f 57 73 74
f 57 74 75
f 57 75 59
f 57 59 58
f 59 76 77
f 59 77 60
f 59 75 90
f 59 90 76
f 60 77 78
f 60 78 79
f 60 79 70
f 61 69 62
f 63 80 64
f 64 81 82
f 64 82 65
f 64 80 81
f 65 82 83
f 65 83 66
f 66 85 67
f 66 83 86
f 66 86 84
f 67 85 68
f 68 85 69
f 70 79 71
f 72 87 88
f 72 88 73
f 73 88 74
f 74 88 89
f 74 89 75
f 75 89 90
f 76 90 97
f 76 97 91
f 76 91 92
f 76 92 93
f 76 93 94
f 76 94 77
f 77 94 95
f 77 95 78
f 78 95 79
f 80 96 81
f 81 94 91
f 81 91 82
f 81 96 94
f 82 91 97
f 82 97 98
f 82 98 84
f 82 84 86
f 82 86 83
f 84 98 100
f 84 100 99
f 87 101 102
f 87 102 88
f 88 103 104
f 88 104 89
f 88 102 105
f 88 105 103
f 89 104 106
f 89 106 97
f 89 97 90
f 91 94 93
f 91 93 92
f 94 96 95
f 97 106 100
f 97 100 98
f 99 100 106
f 99 106 105
f 101 105 102
f 103 106 104
f 103 105 106

