# https://github.com/mikedh/trimesh
v -3.92778906 -0.70980193 1.43902838
v -3.92260240 -0.72496967 1.43902838
v -3.96741204 -0.70980193 1.43902838
v -3.92260240 -0.70980193 1.50487052
v -3.92260240 -0.79216595 1.43902838
v -3.98519886 -0.74434405 1.43902838
v -3.97955998 -0.70980193 1.53689385
v -3.92260240 -0.70980193 1.60662278
v -3.93294836 -0.79662918 1.43902838
v -3.92260240 -0.79870043 1.53689385
v -3.99022113 -0.75542428 1.43902838
v -3.99130362 -0.75257402 1.50962332
v -3.97956683 -0.70980193 1.53809794
v -3.99094050 -0.75702811 1.43902838
v -3.92946086 -0.70980193 1.65480566
v -3.92260240 -0.74162209 1.65480566
v -3.94783694 -0.80192644 1.43902838
v -3.92260240 -0.79837967 1.55353924
v -3.94506888 -0.80240301 1.65480566
v -3.94508944 -0.80240301 1.65353821
v -3.99182445 -0.76100565 1.52022737
v -3.99133795 -0.75249153 1.52022737
v -3.99157768 -0.76535891 1.43902838
v -3.99226290 -0.77767639 1.43902838
v -3.99132424 -0.75253737 1.53689385
v -3.99122148 -0.75371046 1.65480566
v -3.97946407 -0.70980193 1.55353924
v -3.96600059 -0.70980193 1.65480566
v -3.92260240 -0.79275250 1.65480566
v -3.94890578 -0.80205474 1.43902838
v -3.92260240 -0.79765564 1.57020572
v -3.93294836 -0.79758233 1.65480566
v -3.94569920 -0.80244885 1.65480566
v -3.95595611 -0.80288873 1.45356139
v -3.99259180 -0.77767639 1.53689385
v -3.99184495 -0.76100565 1.53689385
v -3.99199563 -0.78757439 1.43902838
v -3.99165314 -0.76204125 1.65480566
v -3.98615123 -0.74434405 1.65480566
v -3.96762441 -0.70980193 1.65474224
v -3.97895016 -0.70980193 1.57020572
v -3.97943666 -0.70980193 1.55474326
v -3.96763812 -0.71101167 1.65480566
v -3.95617534 -0.80285208 1.43902838
v -3.95340728 -0.80296208 1.65480566
v -3.95342099 -0.80296208 1.65353821
v -3.96627465 -0.80326451 1.45356139
v -3.96627465 -0.80323701 1.43902838
v -3.99195462 -0.78902241 1.43902838
v -3.99207109 -0.78934317 1.53689385
v -3.99207789 -0.78933402 1.55353924
v -3.99259180 -0.77767639 1.55353924
v -3.99229712 -0.77647580 1.65480566
v -3.96627465 -0.80342947 1.65480566
v -3.97527771 -0.80308120 1.43902838
v -3.99106389 -0.79008552 1.43902838
v -3.98493165 -0.79735321 1.43902838
v -3.98525370 -0.79740819 1.65480566
v -3.99148184 -0.78970062 1.65480566
v -3.99196833 -0.78907739 1.65480566
v -3.99206418 -0.78927904 1.57020572
v -3.99201626 -0.78906824 1.62020524
v -3.99199563 -0.78907739 1.63687173
v -3.99234516 -0.77767639 1.65480566
v -3.97692209 -0.80313621 1.65480566
v -3.97660005 -0.80305372 1.43902838
f 1 2 5
f 1 5 9
f 1 9 17
f 1 17 30
f 1 30 44
f 1 44 48
f 1 48 55
f 1 55 66
f 1 66 57
f 1 57 56
f 1 56 49
f 1 49 37
f 1 37 24
f 1 24 23
f 1 23 14
f 1 14 11
f 1 11 6
f 1 6 3
f 1 3 7
f 1 7 13
f 1 13 27
f 1 27 42
f 1 42 41
f 1 41 40
f 1 40 28
f 1 28 15
f 1 15 8
f 1 8 4
f 1 4 2
f 2 4 8
f 2 8 16
f 2 16 29
f 2 29 31
f 2 31 18
f 2 18 10
f 2 10 5
f 3 6 7
f 5 10 9
f 6 11 7
f 7 12 13
f 7 11 14
f 7 14 12
f 8 15 16
f 9 10 17
f 10 18 19
f 10 19 20
f 10 20 17
f 12 21 22
f 12 22 13
f 12 14 23
f 12 23 24
f 12 24 21
f 13 22 25
f 13 25 26
f 13 26 27
f 15 28 43
f 15 43 39
f 15 39 26
f 15 26 38
f 15 38 53
f 15 53 64
f 15 64 60
f 15 60 59
f 15 59 58
f 15 58 65
f 15 65 54
f 15 54 45
f 15 45 33
f 15 33 19
f 15 19 32
f 15 32 29
f 15 29 16
f 17 20 30
f 18 31 19
f 19 33 20
f 19 31 32
f 20 33 34
f 20 34 30
f 21 35 36
f 21 36 22
f 21 24 35
f 22 36 25
f 24 37 35
f 25 36 26
f 26 39 40
f 26 40 41
f 26 41 42
f 26 42 27
f 26 36 38
f 28 40 43
f 29 32 31
f 30 34 44
f 33 45 46
f 33 46 34
f 34 47 48
f 34 48 44
f 34 46 47
f 35 37 49
f 35 49 50
f 35 50 51
f 35 51 52
f 35 52 36
f 36 52 38
f 38 52 53
f 39 43 40
f 45 54 46
f 46 54 47
f 47 55 48
f 47 54 55
f 49 56 50
f 50 56 57
f 50 57 58
f 50 58 51
f 51 58 59
f 51 59 60
f 51 60 61
f 51 61 52
f 52 61 62
f 52 62 63
f 52 63 60
f 52 60 64
f 52 64 53
f 54 65 66
f 54 66 55
f 57 66 65
f 57 65 58
f 60 63 61
f 61 63 62

