# https://github.com/mikedh/trimesh
v -1.90824960 -0.21120284 1.90823118
v -1.90763048 -0.21120284 1.92554647
v -1.92576046 -0.17296722 1.92554647
v -1.92576046 -0.17296722 1.92488545
v -1.92570205 -0.17289802 1.90823118
v -1.83915228 -0.21120284 1.90823118
v -1.82418799 -0.21120284 1.92554647
v -1.92583056 -0.17246537 1.92554647
v -1.92745432 -0.16036910 1.92554647
v -1.92733749 -0.16036046 1.90823118
v -1.82457352 -0.17960374 1.90823118
v -1.80908357 -0.18402519 1.92554647
v -1.92535157 -0.14769312 1.92554647
v -1.92535157 -0.14770179 1.92488545
v -1.92530484 -0.14780562 1.90823118
v -1.82326513 -0.17127998 1.90823118
v -1.80811398 -0.16036910 1.92554647
v -1.82224886 -0.16036910 1.90823118
v -1.92127470 -0.13968952 1.92554647
v -1.92107609 -0.13946454 1.90823118
v -1.81657153 -0.14625681 1.92554647
v -1.82265769 -0.14893043 1.90823118
v -1.82629074 -0.14058938 1.90823118
v -1.92109946 -0.13936074 1.92554647
v -1.91274705 -0.13094178 1.90823118
v -1.81844063 -0.14474260 1.92554647
v -1.83461979 -0.13203202 1.90823118
v -1.92077241 -0.13903192 1.92554647
v -1.91277041 -0.13100237 1.92554647
v -1.89867058 -0.12453890 1.90823118
v -1.82625570 -0.13853872 1.92554647
v -1.84868457 -0.12672799 1.90823118
v -1.84868457 -0.12690970 1.92488545
v -1.83459642 -0.13223968 1.92554647
v -1.83425763 -0.13238676 1.92554647
v -1.89867058 -0.12469465 1.92554647
v -1.88266666 -0.12296414 1.92554647
v -1.88200081 -0.12288626 1.92488545
v -1.88200081 -0.12281706 1.90823118
v -1.86535434 -0.12392458 1.90823118
v -1.86535434 -0.12388131 1.92488545
v -1.86535434 -0.12388131 1.92554647
v -1.84933874 -0.12678858 1.92554647
v -1.84868457 -0.12691837 1.92554647
v -1.88200081 -0.12289490 1.92554647
f 1 2 3
f 1 3 4
f 1 4 5
f 1 5 10
f 1 10 15
f 1 15 20
f 1 20 25
f 1 25 30
f 1 30 39
f 1 39 40
f 1 40 32
f 1 32 27
f 1 27 23
f 1 23 22
f 1 22 18
f 1 18 16
f 1 16 11
f 1 11 6
f 1 6 7
f 1 7 2
f 2 7 12
f 2 12 17
f 2 17 21
f 2 21 26
f 2 26 31
f 2 31 35
f 2 35 34
f 2 34 44
f 2 44 43
f 2 43 42
f 2 42 45
f 2 45 37
f 2 37 36
f 2 36 29
f 2 29 28
f 2 28 24
f 2 24 19
f 2 19 13
f 2 13 9
f 2 9 8
f 2 8 3
f 3 8 4
f 4 8 5
f 5 8 9
f 5 9 10
f 6 11 12
f 6 12 7
f 9 13 14
f 9 14 15
f 9 15 10
f 11 16 12
f 12 16 18
f 12 18 17
f 13 19 20
f 13 20 15
f 13 15 14
f 17 18 22
f 17 22 23
f 17 23 21
f 19 24 20
f 20 24 25
f 21 23 27
f 21 27 26
f 24 28 25
f 25 28 29
f 25 29 30
f 26 27 31
f 27 32 33
f 27 33 34
f 27 34 35
f 27 35 31
f 29 36 30
f 30 36 37
f 30 37 38
f 30 38 39
f 32 40 41
f 32 41 42
f 32 42 43
f 32 43 33
f 33 43 44
f 33 44 34
f 37 45 38
f 38 45 42
f 38 42 39
f 39 42 41
f 39 41 40

