# https://github.com/mikedh/trimesh
v -0.26860711 1.55509233 0.74947573
v -0.26777106 1.57280813 0.74947573
v -0.26634271 1.53937724 0.74947573
v -0.26664754 1.53937724 0.77569420
v -0.26664754 1.53937724 0.77631980
v -0.26660400 1.53937724 0.79237695
v -0.26852874 1.55604993 0.79237695
v -0.26041180 1.58745444 0.74947573
v -0.26843296 1.55604993 0.80904075
v -0.26764909 1.56231716 0.84630206
v -0.26616856 1.57271408 0.84630206
v -0.26456606 1.57681813 0.84630206
v -0.25845222 1.52718480 0.74947573
v -0.25857419 1.52719335 0.75902094
v -0.25872222 1.52721047 0.77569420
v -0.25901834 1.52766363 0.77631980
v -0.25866997 1.52726176 0.79237695
v -0.25860031 1.52732161 0.80904075
v -0.26649080 1.53937724 0.80904075
v -0.25872222 1.52721047 0.77631980
v -0.24166969 1.60280187 0.74947573
v -0.25861773 1.58677043 0.84630206
v -0.25261709 1.59313170 0.84630206
v -0.24223580 1.60412713 0.84630206
v -0.24176552 1.60328922 0.77569420
v -0.26809324 1.55568229 0.84630206
v -0.24419538 1.52314061 0.74947573
v -0.25817358 1.52705657 0.77631980
v -0.25827807 1.52730450 0.84630206
v -0.25846963 1.52733017 0.82570454
v -0.26009825 1.53014315 0.84630206
v -0.26626434 1.53937724 0.82570454
v -0.26658658 1.54326756 0.84630206
v -0.24418666 1.52329451 0.84630206
v -0.25497728 1.52636401 0.84630206
v -0.22751733 1.60855608 0.74947573
v -0.23134065 1.60862449 0.84630206
v -0.22751733 1.60899214 0.77569420
v -0.23705387 1.52300382 0.74947573
v -0.22751733 1.52287556 0.82570454
v -0.22751733 1.52289265 0.84238729
v -0.26592467 1.53937724 0.84630206
v -0.22751733 1.52290121 0.84630206
v -0.21798952 1.60896649 0.74947573
v -0.22751733 1.60983005 0.84630206
v -0.21085671 1.60921443 0.74947573
v -0.22751733 1.52282427 0.74947573
v -0.21085671 1.52268745 0.80904075
v -0.21085671 1.52270457 0.82570454
v -0.21085671 1.52273877 0.84238729
v -0.22360690 1.52286700 0.84630206
v -0.21534192 1.61000960 0.84630206
v -0.19417866 1.60749587 0.74947573
v -0.21104834 1.60981295 0.84630206
v -0.19809782 1.60850479 0.84630206
v -0.21085671 1.52266181 0.74947573
v -0.19417866 1.52385028 0.82570454
v -0.19417866 1.52379896 0.74947573
v -0.19417866 1.52389301 0.84238729
v -0.21085671 1.52275586 0.84630206
v -0.18779490 1.60422973 0.74947573
v -0.19417866 1.60770107 0.84630206
v -0.18308324 1.52803128 0.82570454
v -0.18310065 1.52804837 0.84238729
v -0.18942353 1.52558593 0.74947573
v -0.19417866 1.52391013 0.84630206
v -0.18303099 1.60175876 0.74947573
v -0.18293521 1.60187846 0.84630206
v -0.17997408 1.53937724 0.84238729
v -0.18304841 1.52799708 0.74947573
v -0.17998278 1.53937724 0.84630206
v -0.18310936 1.52806546 0.84630206
v -0.18010469 1.58938676 0.74947573
v -0.18221236 1.59892013 0.84630206
v -0.17990441 1.58938676 0.84630206
v -0.17963442 1.55604993 0.84630206
v -0.18127175 1.53451224 0.74947573
v -0.17995666 1.53937724 0.74947573
v -0.18000891 1.58224743 0.74947573
v -0.17973891 1.57271408 0.84630206
v -0.17989571 1.57270553 0.74947573
v -0.17974762 1.55604993 0.74947573
f 1 2 8
f 1 8 21
f 1 21 36
f 1 36 44
f 1 44 46
f 1 46 53
f 1 53 61
f 1 61 67
f 1 67 73
f 1 73 79
f 1 79 81
f 1 81 82
f 1 82 78
f 1 78 77
f 1 77 70
f 1 70 65
f 1 65 58
f 1 58 56
f 1 56 47
f 1 47 39
f 1 39 27
f 1 27 13
f 1 13 3
f 1 3 4
f 1 4 5
f 1 5 6
f 1 6 7
f 1 7 2
f 2 7 9
f 2 9 10
f 2 10 11
f 2 11 12
f 2 12 8
f 3 13 14
f 3 14 4
f 4 14 15
f 4 15 16
f 4 16 5
f 5 16 6
f 6 17 18
f 6 18 19
f 6 19 9
f 6 9 7
f 6 16 20
f 6 20 17
f 8 12 22
f 8 22 23
f 8 23 24
f 8 24 25
f 8 25 21
f 9 19 26
f 9 26 10
f 10 26 33
f 10 33 42
f 10 42 31
f 10 31 29
f 10 29 35
f 10 35 34
f 10 34 43
f 10 43 51
f 10 51 60
f 10 60 66
f 10 66 72
f 10 72 71
f 10 71 76
f 10 76 80
f 10 80 75
f 10 75 74
f 10 74 68
f 10 68 62
f 10 62 55
f 10 55 54
f 10 54 52
f 10 52 45
f 10 45 37
f 10 37 24
f 10 24 23
f 10 23 22
f 10 22 12
f 10 12 11
f 13 27 14
f 14 27 15
f 15 27 28
f 15 28 20
f 15 20 16
f 17 20 29
f 17 29 18
f 18 30 19
f 18 29 30
f 19 30 29
f 19 29 31
f 19 31 32
f 19 32 33
f 19 33 26
f 20 28 34
f 20 34 35
f 20 35 29
f 21 25 36
f 24 37 25
f 25 38 36
f 25 37 38
f 27 39 40
f 27 40 41
f 27 41 34
f 27 34 28
f 31 42 32
f 32 42 33
f 34 41 43
f 36 38 44
f 37 45 38
f 38 46 44
f 38 45 46
f 39 47 40
f 40 48 41
f 40 47 48
f 41 48 49
f 41 49 50
f 41 50 43
f 43 50 51
f 45 52 46
f 46 52 54
f 46 54 55
f 46 55 53
f 47 56 48
f 48 57 49
f 48 56 58
f 48 58 57
f 49 57 50
f 50 59 66
f 50 66 60
f 50 60 51
f 50 57 59
f 53 55 62
f 53 62 61
f 57 63 64
f 57 64 59
f 57 58 65
f 57 65 63
f 59 64 66
f 61 62 68
f 61 68 67
f 63 69 64
f 63 65 70
f 63 70 69
f 64 69 71
f 64 71 72
f 64 72 66
f 67 68 74
f 67 74 75
f 67 75 73
f 69 76 71
f 69 70 77
f 69 77 78
f 69 78 76
f 73 75 79
f 75 80 81
f 75 81 79
f 76 78 82
f 76 82 80
f 80 82 81

