# https://github.com/mikedh/trimesh
v 0.19423711 -0.71028762 1.65480567
v 0.19726237 -0.73899154 1.65480567
v 0.15608215 -0.71028762 1.65480567
v 0.19408226 -0.71028762 1.83686355
v 0.19726237 -0.73884500 1.87019688
v 0.19726237 -0.73883585 1.85354076
v 0.19726237 -0.79454932 1.65480567
v 0.13755615 -0.74434947 1.65480567
v 0.13246022 -0.75312371 1.68689510
v 0.13244735 -0.75283978 1.70355121
v 0.13244085 -0.75273901 1.71310216
v 0.13243440 -0.75265658 1.72421327
v 0.13241509 -0.75261080 1.73688454
v 0.15546934 -0.71029677 1.87019688
v 0.15575962 -0.71028762 1.85425758
v 0.19345014 -0.71028762 1.87019688
v 0.19726237 -0.79596895 1.87019688
v 0.19203101 -0.79699474 1.65480567
v 0.18252291 -0.80270986 1.75910682
v 0.13249246 -0.75371901 1.65480567
v 0.13206032 -0.76203530 1.65480567
v 0.13201515 -0.76100949 1.73688454
v 0.13236348 -0.75243679 1.87019688
v 0.13683369 -0.74410220 1.87019688
v 0.15629500 -0.71028762 1.87019688
v 0.19127628 -0.79891808 1.87019688
v 0.19076673 -0.79758091 1.65480567
v 0.18295511 -0.80285644 1.87019688
v 0.17409850 -0.80321361 1.77019683
v 0.17540797 -0.80308537 1.75356176
v 0.17030559 -0.80296631 1.65480567
v 0.17800753 -0.80245345 1.65480567
v 0.17863970 -0.80240764 1.65480567
v 0.17954278 -0.80205046 1.65480567
v 0.13141529 -0.77647884 1.65480567
v 0.13200871 -0.76100949 1.75356176
v 0.13196997 -0.76100949 1.87019688
v 0.17409850 -0.80330520 1.87019688
v 0.15744317 -0.80383643 1.75356176
v 0.15744317 -0.80364408 1.70355121
v 0.15744317 -0.80351584 1.67021788
v 0.15744317 -0.80342426 1.65480567
v 0.13137010 -0.77767867 1.65480567
v 0.13145390 -0.77767867 1.87019688
v 0.13137010 -0.77767867 1.73688454
v 0.15744317 -0.80380895 1.87019688
v 0.15744317 -0.80384558 1.77019683
v 0.14590963 -0.80335100 1.75356176
v 0.14617411 -0.80327772 1.70355121
v 0.14653531 -0.80319529 1.67021788
v 0.14761899 -0.80315866 1.65480567
v 0.13174419 -0.78907230 1.65480567
v 0.13184741 -0.78924632 1.87019688
v 0.13177649 -0.78921884 1.73688454
v 0.13178292 -0.78916389 1.75356176
v 0.14556130 -0.80336930 1.87019688
v 0.13723363 -0.79759005 1.87019688
v 0.13762709 -0.79755343 1.73688454
v 0.14595475 -0.80332353 1.73688454
v 0.14604507 -0.80329605 1.72022843
v 0.13771095 -0.79753512 1.72022843
v 0.13820121 -0.79741603 1.67021788
v 0.13845924 -0.79740688 1.65480567
v 0.14616118 -0.80270072 1.65480567
v 0.14679334 -0.80313119 1.65480567
v 0.13223450 -0.78970426 1.65480567
v 0.13177649 -0.78920054 1.72022843
v 0.13783999 -0.79747100 1.70355121
f 1 2 7
f 1 7 18
f 1 18 27
f 1 27 34
f 1 34 33
f 1 33 32
f 1 32 31
f 1 31 42
f 1 42 51
f 1 51 65
f 1 65 64
f 1 64 63
f 1 63 66
f 1 66 52
f 1 52 43
f 1 43 35
f 1 35 21
f 1 21 20
f 1 20 8
f 1 8 3
f 1 3 15
f 1 15 25
f 1 25 16
f 1 16 4
f 1 4 5
f 1 5 6
f 1 6 2
f 2 6 5
f 2 5 17
f 2 17 7
f 3 8 9
f 3 9 10
f 3 10 11
f 3 11 12
f 3 12 13
f 3 13 14
f 3 14 15
f 4 16 5
f 5 16 25
f 5 25 14
f 5 14 24
f 5 24 23
f 5 23 37
f 5 37 44
f 5 44 53
f 5 53 57
f 5 57 56
f 5 56 46
f 5 46 38
f 5 38 28
f 5 28 26
f 5 26 17
f 7 17 19
f 7 19 18
f 8 20 9
f 9 20 21
f 9 21 10
f 10 13 11
f 10 21 13
f 11 13 12
f 13 21 22
f 13 22 23
f 13 23 24
f 13 24 14
f 14 25 15
f 17 26 19
f 18 19 27
f 19 26 28
f 19 28 29
f 19 29 30
f 19 30 31
f 19 31 32
f 19 32 33
f 19 33 34
f 19 34 27
f 21 35 22
f 22 35 36
f 22 36 23
f 23 36 37
f 28 38 29
f 29 39 31
f 29 31 30
f 29 38 39
f 31 40 41
f 31 41 42
f 31 39 40
f 35 43 37
f 35 37 36
f 37 43 45
f 37 45 44
f 38 46 47
f 38 47 39
f 39 47 48
f 39 48 49
f 39 49 50
f 39 50 40
f 40 50 41
f 41 50 51
f 41 51 42
f 43 52 45
f 44 45 53
f 45 52 54
f 45 54 55
f 45 55 53
f 46 56 47
f 47 56 48
f 48 56 57
f 48 57 58
f 48 58 59
f 48 59 49
f 49 59 60
f 49 60 61
f 49 61 62
f 49 62 50
f 50 62 63
f 50 63 64
f 50 64 65
f 50 65 51
f 52 66 61
f 52 61 58
f 52 58 57
f 52 57 67
f 52 67 54
f 53 55 54
f 53 54 57
f 54 67 57
f 58 61 59
f 59 61 60
f 61 68 62
f 61 66 68
f 62 66 63
f 62 68 66

