# https://github.com/mikedh/trimesh
v -2.01627065 -0.41107357 2.00405531
v -2.01627065 -0.39435809 2.00405531
v -2.03294417 -0.41107357 2.00393741
v -2.01627065 -0.54433568 2.00395052
v -1.99959713 -0.57767430 2.00273183
v -1.99959713 -0.56100499 2.00274495
v -1.99959713 -0.39435809 2.00274495
v -2.01627065 -0.37773496 2.00402908
v -2.03294417 -0.39435809 2.00393741
v -2.03294417 -0.54433568 2.00380628
v -2.08291669 -0.23616128 1.99750327
v -2.08302219 -0.69431328 1.99704467
v -2.01627065 -0.56100499 2.00392429
v -1.99959713 -0.70788884 2.00231245
v -1.98826721 -0.70788884 1.99832880
v -1.98843029 -0.57767430 1.99840748
v -1.99959713 -0.37773496 2.00271872
v -1.98832479 -0.23616128 1.99828946
v -1.99959713 -0.34435017 2.00265315
v -1.99959713 -0.23616128 2.00239113
v -2.00809700 -0.23616128 2.00295452
v -2.01627065 -0.36101948 2.00396363
v -2.03294417 -0.36101948 2.00385873
v -2.03294417 -0.56100499 2.00378017
v -2.03294417 -0.32768086 2.00372772
v -2.03294417 -0.29434224 2.00354425
v -2.03294417 -0.23616128 2.00281039
v -2.08302219 -0.23616128 1.96727221
v -2.08302219 -0.24438050 1.99713634
v -2.08302219 -0.57767430 1.99708401
v -2.08302219 -0.70788884 1.99701844
v -2.03294417 -0.70788884 2.00322977
v -2.01627065 -0.57767430 2.00385873
v -2.01627065 -0.70788884 2.00321666
v -1.98506296 -0.70788884 1.98687586
v -1.98683776 -0.23616128 1.99268098
v -2.01627065 -0.23616128 2.00343947
v -2.08291669 -0.23616128 1.93514100
v -2.08302219 -0.24433432 1.93805008
v -2.08302219 -0.70788884 1.99521008
v -2.02981669 -0.70788884 2.00322977
v -1.98504377 -0.70788884 1.98374403
v -1.98530281 -0.23616128 1.98687586
v -2.06307730 -0.23616128 1.89850203
v -2.06006498 -0.70788884 1.89250033
v -2.08302219 -0.66088230 1.93717216
v -2.08302219 -0.64421300 1.93719833
v -2.08302219 -0.70779648 1.93748664
v -2.08291669 -0.70788884 1.93747352
v -1.98501504 -0.70788884 1.97020752
v -1.98540831 -0.23616128 1.97868582
v -2.04695066 -0.23616128 1.87022345
v -2.04695066 -0.23620746 1.87021034
v -2.04746869 -0.69431328 1.87021034
v -2.04735359 -0.70788884 1.87021034
v -2.08302219 -0.67755162 1.93725078
v -1.98508215 -0.70788884 1.96708875
v -1.98552347 -0.23616128 1.97020752
v -2.04662444 -0.23616128 1.87021034
v -2.00817371 -0.70788884 1.87021034
v -1.98537958 -0.70788884 1.95353913
v -1.98672273 -0.32768086 1.92021546
v -1.98698165 -0.23616128 1.92021546
v -1.98594559 -0.65483334 1.93071180
v -1.98619498 -0.64430536 1.92021546
v -2.00797225 -0.23616128 1.87605474
v -2.00810660 -0.23625364 1.87021034
v -1.99108773 -0.64430536 1.89502943
v -1.99111646 -0.66097466 1.89506877
v -1.99117404 -0.67764397 1.89513428
v -1.99127000 -0.70216310 1.89522601
v -1.99133718 -0.70788884 1.89539636
v -1.98578251 -0.70788884 1.93688385
v -1.98909227 -0.32768086 1.90386160
v -1.98939923 -0.23616128 1.90324570
v -1.98619498 -0.66097466 1.92021546
v -1.98864141 -0.64430536 1.90354706
v -2.00336740 -0.23616128 1.87878036
v -1.99144268 -0.23616128 1.89569773
v -1.98867980 -0.66097466 1.90354706
v -1.98874692 -0.67764397 1.90354706
v -1.98931293 -0.69569853 1.90188289
v -1.98974459 -0.70788884 1.90076905
v -1.98586882 -0.70788884 1.93376507
v -1.98594559 -0.70479508 1.93071180
v -1.99073272 -0.23616128 1.89826617
v -1.98622383 -0.69431328 1.92021546
v -1.98627175 -0.70788884 1.92021546
v -1.98899630 -0.70788884 1.90341605
f 1 2 9
f 1 9 3
f 1 3 4
f 1 4 5
f 1 5 6
f 1 6 7
f 1 7 2
f 2 7 17
f 2 17 8
f 2 8 9
f 3 10 4
f 3 9 11
f 3 11 12
f 3 12 10
f 4 10 24
f 4 24 13
f 4 13 5
f 5 13 14
f 5 14 15
f 5 15 6
f 6 15 16
f 6 16 7
f 7 16 18
f 7 18 17
f 8 17 19
f 8 19 20
f 8 20 21
f 8 21 22
f 8 22 23
f 8 23 9
f 9 23 11
f 10 12 24
f 11 23 25
f 11 25 26
f 11 26 27
f 11 27 37
f 11 37 21
f 11 21 20
f 11 20 18
f 11 18 36
f 11 36 43
f 11 43 51
f 11 51 58
f 11 58 63
f 11 63 75
f 11 75 86
f 11 86 79
f 11 79 78
f 11 78 66
f 11 66 59
f 11 59 52
f 11 52 44
f 11 44 38
f 11 38 28
f 11 28 29
f 11 29 30
f 11 30 12
f 12 30 29
f 12 29 28
f 12 28 39
f 12 39 47
f 12 47 46
f 12 46 56
f 12 56 48
f 12 48 40
f 12 40 31
f 12 31 24
f 13 24 32
f 13 32 33
f 13 33 14
f 14 33 34
f 14 34 41
f 14 41 32
f 14 32 31
f 14 31 40
f 14 40 49
f 14 49 45
f 14 45 55
f 14 55 60
f 14 60 72
f 14 72 83
f 14 83 89
f 14 89 88
f 14 88 84
f 14 84 73
f 14 73 61
f 14 61 57
f 14 57 50
f 14 50 42
f 14 42 35
f 14 35 15
f 15 35 18
f 15 18 16
f 17 18 19
f 18 20 19
f 18 35 36
f 21 37 22
f 22 37 25
f 22 25 23
f 24 31 32
f 25 37 26
f 26 37 27
f 28 38 39
f 32 41 33
f 33 41 34
f 35 42 43
f 35 43 36
f 38 44 45
f 38 45 46
f 38 46 47
f 38 47 39
f 40 48 49
f 42 50 43
f 43 50 51
f 44 52 53
f 44 53 54
f 44 54 45
f 45 54 55
f 45 49 48
f 45 48 56
f 45 56 46
f 50 57 58
f 50 58 51
f 52 59 53
f 53 59 67
f 53 67 60
f 53 60 55
f 53 55 54
f 57 61 58
f 58 62 63
f 58 61 64
f 58 64 65
f 58 65 62
f 59 66 67
f 60 68 69
f 60 69 70
f 60 70 71
f 60 71 72
f 60 67 68
f 61 73 65
f 61 65 64
f 62 74 75
f 62 75 63
f 62 65 74
f 65 73 76
f 65 76 77
f 65 77 74
f 66 78 67
f 67 78 79
f 67 79 68
f 68 77 80
f 68 80 69
f 68 79 77
f 69 80 81
f 69 81 70
f 70 81 82
f 70 82 71
f 71 82 83
f 71 83 72
f 73 84 85
f 73 85 76
f 74 77 75
f 75 77 86
f 76 85 87
f 76 87 77
f 77 87 80
f 77 79 86
f 80 87 88
f 80 88 81
f 81 88 89
f 81 89 82
f 82 89 83
f 84 88 85
f 85 88 87

