# https://github.com/mikedh/trimesh
v -3.69792574 1.95142684 1.17181284
v -3.69792574 1.92211498 1.17818002
v -3.69792574 1.95142684 1.21289013
v -2.90650166 1.95142684 1.17426555
v -2.90650166 1.92211498 1.17912715
v -3.69792574 1.92211498 1.22556426
v -3.69792574 1.93960856 1.22754065
v -3.69784827 1.95142684 1.22754613
v -2.90650166 1.95142684 1.22774323
v -2.90650166 1.92211498 1.22769943
v -3.69792574 1.92277776 1.22754613
v -3.69784827 1.92211498 1.22754613
v -3.69792574 1.92293557 1.22754613
v -3.66926218 1.95142684 1.22757899
v -2.94732785 1.92293557 1.22770491
v -2.93152418 1.92211498 1.22770491
v -2.90650166 1.94705990 1.22773775
v -3.59768078 1.95142684 1.22765563
v -2.90650166 1.92293557 1.22770491
v -2.91401617 1.92211498 1.22770491
v -3.61433657 1.95142684 1.22763921
v -3.59845546 1.92211498 1.22758993
v -3.58102486 1.92293557 1.22760088
v -3.59768078 1.93960856 1.22763374
v -2.90650166 1.93038404 1.22771585
v -3.58179961 1.92211498 1.22759541
f 1 2 6
f 1 6 11
f 1 11 13
f 1 13 7
f 1 7 3
f 1 3 8
f 1 8 14
f 1 14 21
f 1 21 18
f 1 18 9
f 1 9 4
f 1 4 5
f 1 5 2
f 2 5 10
f 2 10 20
f 2 20 16
f 2 16 26
f 2 26 22
f 2 22 12
f 2 12 6
f 3 7 8
f 4 9 17
f 4 17 25
f 4 25 19
f 4 19 10
f 4 10 5
f 6 12 11
f 7 13 8
f 8 13 14
f 9 15 16
f 9 16 17
f 9 18 15
f 10 19 20
f 11 12 21
f 11 21 14
f 11 14 13
f 12 22 23
f 12 23 24
f 12 24 18
f 12 18 21
f 15 18 24
f 15 24 23
f 15 23 16
f 16 20 25
f 16 25 17
f 16 23 26
f 19 25 20
f 22 26 23

