# https://github.com/mikedh/trimesh
v 1.88638224 -0.73611945 0.78326087
v 1.88638224 -0.78455356 0.78326087
v 1.74078957 -0.73524570 0.78326087
v 1.64104982 -0.72688003 0.80176783
v 1.88638224 -0.72688003 0.82995786
v 1.88638224 -0.78822827 0.80355584
v 1.87411072 -0.78829643 0.80355584
v 1.72415814 -0.78895328 0.80355584
v 1.72430506 -0.78520424 0.78326087
v 1.64440547 -0.73491727 0.78326087
v 1.64080484 -0.73491107 0.78326087
v 1.64080484 -0.72688003 0.80176783
v 1.88638224 -0.72688003 0.88668623
v 1.88638224 -0.78933749 0.81581640
v 1.88638224 -0.78969691 0.82022836
v 1.72415814 -0.79014309 0.82022836
v 1.70747770 -0.79016785 0.82022836
v 1.63615099 -0.78903383 0.80355584
v 1.63615099 -0.78841418 0.80011915
v 1.65775475 -0.78529719 0.78326087
v 1.70752664 -0.78522900 0.78326087
v 1.63615099 -0.73497923 0.78326087
v 1.63615099 -0.72688003 0.80239479
v 1.63615099 -0.72688003 0.88668623
v 1.63615099 -0.72688623 0.90391606
v 1.87433115 -0.72688623 0.90379995
v 1.88638224 -0.72688623 0.90373029
v 1.88638224 -0.78884176 0.85355018
v 1.72415814 -0.78919495 0.85355018
v 1.70747770 -0.78920115 0.85355018
v 1.63615099 -0.79018645 0.82022836
v 1.63615099 -0.78987042 0.81558421
v 1.63615099 -0.78531576 0.78326087
v 1.63637141 -0.78531576 0.78326087
v 1.63615099 -0.73628676 1.02048438
v 1.75717610 -0.73621240 1.02048438
v 1.85713633 -0.73619380 1.02048438
v 1.85740580 -0.73619380 1.02048438
v 1.87411072 -0.73624337 1.02048438
v 1.88638224 -0.73630536 1.02048438
v 1.88638224 -0.78175262 1.02039150
v 1.72440305 -0.78273789 1.02048438
v 1.64109882 -0.78310351 1.02048438
v 1.63615099 -0.78310971 1.02048438
v 1.69079721 -0.78918258 0.85355018
v 1.63615099 -0.78903383 0.85355018
v 1.88638224 -0.74796152 1.02048438
v 1.87438015 -0.78177122 1.02048438
f 1 2 9
f 1 9 21
f 1 21 20
f 1 20 34
f 1 34 33
f 1 33 22
f 1 22 11
f 1 11 10
f 1 10 3
f 1 3 4
f 1 4 5
f 1 5 13
f 1 13 27
f 1 27 40
f 1 40 47
f 1 47 41
f 1 41 28
f 1 28 15
f 1 15 14
f 1 14 6
f 1 6 2
f 2 6 7
f 2 7 8
f 2 8 9
f 3 10 4
f 4 10 11
f 4 11 12
f 4 12 23
f 4 23 24
f 4 24 13
f 4 13 5
f 6 14 7
f 7 14 8
f 8 14 15
f 8 15 16
f 8 16 17
f 8 17 18
f 8 18 19
f 8 19 20
f 8 20 21
f 8 21 9
f 11 22 12
f 12 22 23
f 13 24 25
f 13 25 26
f 13 26 27
f 15 28 16
f 16 28 29
f 16 29 17
f 17 30 31
f 17 31 32
f 17 32 18
f 17 29 30
f 18 32 31
f 18 31 46
f 18 46 44
f 18 44 35
f 18 35 25
f 18 25 24
f 18 24 23
f 18 23 22
f 18 22 33
f 18 33 19
f 19 33 34
f 19 34 20
f 25 35 36
f 25 36 37
f 25 37 38
f 25 38 26
f 26 38 27
f 27 38 39
f 27 39 40
f 28 41 42
f 28 42 43
f 28 43 29
f 29 43 44
f 29 44 30
f 30 44 45
f 30 45 31
f 31 45 46
f 35 44 43
f 35 43 42
f 35 42 48
f 35 48 47
f 35 47 40
f 35 40 39
f 35 39 38
f 35 38 37
f 35 37 36
f 41 47 48
f 41 48 42
f 44 46 45

