# https://github.com/mikedh/trimesh
v 2.10744917 -0.13713640 1.44283263
v 2.09079270 -0.13943066 1.44283263
v 2.11816081 -0.13736487 1.44283263
v 2.12411351 -0.13749815 1.43685757
v 2.10744917 -0.13714594 1.43685757
v 2.09105359 -0.13964012 1.23661196
v 2.09079270 -0.13942116 1.43685757
v 2.07412043 -0.14337184 1.38685671
v 2.07412043 -0.14350512 1.42020408
v 2.07412043 -0.14358130 1.43685757
v 2.07412043 -0.14360985 1.44283263
v 2.07412043 -0.14312433 1.28687523
v 2.07412043 -0.14316242 1.30354890
v 2.12411351 -0.13758383 1.44283263
v 2.13575803 -0.14556141 1.44283263
v 2.13575016 -0.14548526 1.43685757
v 2.13585292 -0.14596124 1.23661196
v 2.12430323 -0.13838349 1.23661196
v 2.12411351 -0.13825975 1.23661196
v 2.10744917 -0.13770760 1.23661196
v 2.09079270 -0.13967817 1.23661196
v 2.06219929 -0.14873148 1.28687523
v 2.06243639 -0.14897902 1.37020322
v 2.07004129 -0.14563755 1.44283263
v 2.07412043 -0.14315291 1.27022174
v 2.13688051 -0.15103527 1.44283263
v 2.13910986 -0.16101201 1.37020322
v 2.13590823 -0.14578987 1.37020322
v 2.13897551 -0.16077401 1.23661196
v 2.13591610 -0.14583747 1.35352955
v 2.07438925 -0.14320051 1.23661196
v 2.06223088 -0.14875052 1.27022174
v 2.05843635 -0.16100247 1.23661196
v 2.05837311 -0.16101201 1.27022174
v 2.05835732 -0.16101201 1.28687523
v 2.05853911 -0.16101201 1.35352955
v 2.05858656 -0.16101201 1.37020322
v 2.05873675 -0.16101201 1.40353038
v 2.06270521 -0.14930267 1.44283263
v 2.07412043 -0.14325761 1.23687437
v 2.13891221 -0.16101201 1.44283263
v 2.13855649 -0.17768112 1.38685671
v 2.13857234 -0.17768112 1.37020322
v 2.13910986 -0.16101201 1.35352955
v 2.13846958 -0.17768112 1.44283263
v 2.13902296 -0.16101201 1.23661196
v 2.07412043 -0.14326715 1.23661196
v 2.06230991 -0.14899803 1.23661196
v 2.06219929 -0.14917893 1.23661196
v 2.05842050 -0.16135471 1.23661196
v 2.05908456 -0.17768112 1.27022174
v 2.05915573 -0.17768112 1.38685671
v 2.05919525 -0.17768112 1.40353038
v 2.05894228 -0.16101201 1.44283263
v 2.13770270 -0.19434072 1.38685671
v 2.13857234 -0.17768112 1.35352955
v 2.13771856 -0.19434072 1.37020322
v 2.13779759 -0.19407417 1.23661196
v 2.13855649 -0.17768112 1.23661196
v 2.13856435 -0.17741456 1.23661196
v 2.13752877 -0.19434072 1.44283263
v 2.13766324 -0.19434072 1.40353038
v 2.05943242 -0.17768112 1.23661196
v 2.05951145 -0.17799527 1.23661196
v 2.07407297 -0.23438088 1.23661196
v 2.05929014 -0.17768112 1.42020408
v 2.05924269 -0.17172174 1.44283263
v 2.13473031 -0.20595484 1.42020408
v 2.13477775 -0.20591675 1.40353038
v 2.13778174 -0.19434072 1.23687437
v 2.13778174 -0.19434072 1.23661196
v 2.13465915 -0.20594533 1.44283263
v 2.11509359 -0.23438088 1.23661196
v 2.07535366 -0.23438088 1.44283263
v 2.05944034 -0.17768112 1.44283263
v 2.13467500 -0.20595484 1.43685757
v 2.11472993 -0.23438088 1.44283263
v 2.13484094 -0.20573588 1.23661196
f 1 2 11
f 1 11 24
f 1 24 39
f 1 39 54
f 1 54 67
f 1 67 75
f 1 75 74
f 1 74 77
f 1 77 72
f 1 72 61
f 1 61 45
f 1 45 41
f 1 41 26
f 1 26 15
f 1 15 14
f 1 14 3
f 1 3 4
f 1 4 5
f 1 5 6
f 1 6 7
f 1 7 2
f 2 8 9
f 2 9 10
f 2 10 11
f 2 7 12
f 2 12 13
f 2 13 8
f 3 14 4
f 4 14 15
f 4 15 16
f 4 16 17
f 4 17 18
f 4 18 19
f 4 19 20
f 4 20 5
f 5 20 6
f 6 20 19
f 6 19 18
f 6 18 17
f 6 17 29
f 6 29 46
f 6 46 60
f 6 60 59
f 6 59 58
f 6 58 71
f 6 71 78
f 6 78 73
f 6 73 65
f 6 65 64
f 6 64 63
f 6 63 50
f 6 50 33
f 6 33 49
f 6 49 48
f 6 48 47
f 6 47 31
f 6 31 21
f 6 21 7
f 7 21 12
f 8 13 22
f 8 22 9
f 9 22 23
f 9 23 10
f 10 23 11
f 11 23 24
f 12 21 25
f 12 25 22
f 12 22 13
f 15 26 27
f 15 27 28
f 15 28 16
f 16 28 17
f 17 28 30
f 17 30 29
f 21 31 25
f 22 25 32
f 22 32 33
f 22 33 34
f 22 34 35
f 22 35 36
f 22 36 37
f 22 37 23
f 23 37 38
f 23 38 39
f 23 39 24
f 25 31 40
f 25 40 32
f 26 41 27
f 27 42 43
f 27 43 56
f 27 56 44
f 27 44 28
f 27 41 45
f 27 45 42
f 28 44 30
f 29 30 44
f 29 44 46
f 31 47 40
f 32 40 48
f 32 48 49
f 32 49 33
f 33 50 34
f 34 51 35
f 34 50 51
f 35 51 52
f 35 52 53
f 35 53 36
f 36 53 37
f 37 53 38
f 38 53 54
f 38 54 39
f 40 47 48
f 42 55 57
f 42 57 43
f 42 45 55
f 43 57 58
f 43 58 56
f 44 56 59
f 44 59 60
f 44 60 46
f 45 61 62
f 45 62 55
f 50 63 51
f 51 63 64
f 51 64 65
f 51 65 52
f 52 65 53
f 53 66 67
f 53 67 54
f 53 65 66
f 55 62 68
f 55 68 69
f 55 69 57
f 56 58 59
f 57 69 70
f 57 70 58
f 58 70 71
f 61 72 62
f 62 72 68
f 65 73 77
f 65 77 74
f 65 74 66
f 66 74 75
f 66 75 67
f 68 72 76
f 68 76 77
f 68 77 73
f 68 73 69
f 69 73 78
f 69 78 70
f 70 78 71
f 72 77 76

