# https://github.com/mikedh/trimesh
v 2.06749847 -0.72670541 0.20492086
v 2.06749847 -0.76286006 0.20492086
v 2.04681823 -0.73421032 0.20492086
v 2.06749847 -0.72729670 0.35352167
v 2.06749847 -0.78621773 0.21849294
v 2.06742761 -0.78594843 0.20492086
v 2.04681823 -0.78330241 0.20492086
v 2.04681823 -0.73512941 0.38153023
v 2.06749847 -0.72742547 0.38153023
v 2.06749847 -0.78649874 0.23481396
v 2.04681823 -0.78336682 0.20957166
v 2.04681823 -0.78324388 0.38153023
v 2.06749847 -0.78533379 0.38153023
v 2.06749847 -0.78650458 0.23687135
v 2.04681823 -0.78361853 0.23687135
v 2.04681823 -0.78355413 0.22623851
v 2.06749847 -0.78604210 0.31866662
v 2.06749847 -0.78591917 0.33547175
v 2.06749847 -0.78590746 0.33685488
v 2.04681823 -0.78350731 0.33685488
v 2.06749847 -0.78646944 0.25353813
v 2.06749847 -0.78627042 0.28687176
v 2.06749847 -0.78648116 0.25146345
v 2.04681823 -0.78363608 0.28687176
v 2.04681823 -0.78364196 0.27020497
v 2.04681823 -0.78363608 0.25353813
v 2.04681823 -0.78356584 0.32018810
v 2.04681823 -0.78360682 0.30352126
f 1 2 6
f 1 6 7
f 1 7 3
f 1 3 4
f 1 4 9
f 1 9 13
f 1 13 19
f 1 19 18
f 1 18 17
f 1 17 22
f 1 22 21
f 1 21 23
f 1 23 14
f 1 14 10
f 1 10 5
f 1 5 2
f 2 5 6
f 3 7 11
f 3 11 16
f 3 16 15
f 3 15 26
f 3 26 25
f 3 25 24
f 3 24 28
f 3 28 27
f 3 27 20
f 3 20 12
f 3 12 8
f 3 8 9
f 3 9 4
f 5 7 6
f 5 10 7
f 7 10 11
f 8 12 13
f 8 13 9
f 10 14 15
f 10 15 16
f 10 16 11
f 12 17 18
f 12 18 19
f 12 19 13
f 12 20 21
f 12 21 22
f 12 22 17
f 14 23 24
f 14 24 25
f 14 25 26
f 14 26 15
f 20 27 23
f 20 23 21
f 23 27 28
f 23 28 24

