# https://github.com/mikedh/trimesh
v 0.67423356 -0.73409281 1.52325311
v 0.67423356 -0.73409281 1.60200429
v 0.67423356 -0.70981425 1.55349162
v 0.69079433 -0.70980474 1.55335739
v 0.70747542 -0.70980474 1.55326262
v 1.04073603 -0.70980474 1.55160417
v 1.05617404 -0.70980474 1.55155678
v 1.05741711 -0.70980474 1.55155678
v 1.08388227 -0.70980474 1.55165155
v 1.07253432 -0.73409281 1.52961828
v 0.67423356 -0.73404528 1.60273874
v 0.68369685 -0.73409281 1.60277034
v 0.67423356 -0.70980474 1.55803252
v 0.68959138 -0.70980474 1.55337319
v 1.08388227 -0.73409281 1.53058967
v 1.08388227 -0.70980474 1.60086708
v 0.79080058 -0.73409281 1.60371800
v 0.67423356 -0.70980474 1.59959565
v 1.08388227 -0.73409281 1.60386016
v 1.05862006 -0.70980474 1.60089081
v 1.05741711 -0.73409281 1.60392334
v 1.06672001 -0.73409281 1.60390754
v 0.80748167 -0.73409281 1.60378911
v 0.79080058 -0.70980474 1.60041695
v 1.05741711 -0.70980474 1.60089081
v 0.85868775 -0.70980474 1.60057490
f 1 2 11
f 1 11 18
f 1 18 13
f 1 13 3
f 1 3 4
f 1 4 5
f 1 5 6
f 1 6 7
f 1 7 8
f 1 8 9
f 1 9 10
f 1 10 15
f 1 15 19
f 1 19 22
f 1 22 21
f 1 21 23
f 1 23 17
f 1 17 12
f 1 12 2
f 2 12 11
f 3 13 14
f 3 14 4
f 4 14 13
f 4 13 18
f 4 18 24
f 4 24 26
f 4 26 25
f 4 25 20
f 4 20 16
f 4 16 9
f 4 9 8
f 4 8 7
f 4 7 6
f 4 6 5
f 9 15 10
f 9 16 19
f 9 19 15
f 11 17 18
f 11 12 17
f 16 20 21
f 16 21 22
f 16 22 19
f 17 23 24
f 17 24 18
f 20 25 21
f 21 25 23
f 23 25 26
f 23 26 24

