# https://github.com/mikedh/trimesh
v 1.14179267 -0.75236914 1.65482671
v 1.14070446 -0.75331201 1.83687005
v 1.14179267 -0.75330858 1.83577468
v 1.14179267 -0.78693484 1.65482671
v 1.10743577 -0.75235195 1.65482671
v 0.94070378 -0.75432714 1.87000519
v 1.14070446 -0.75382127 1.85353242
v 1.14179267 -0.75379031 1.85243706
v 1.14179267 -0.75331547 1.83687005
v 1.10611436 -0.75235195 1.65482671
v 0.78912922 -0.75244142 1.65482671
v 0.54078016 -0.75259626 1.65482671
v 0.67416576 -0.75357698 1.82020767
v 1.12407010 -0.75332578 1.83687005
v 0.34785298 -0.75434776 1.87000519
v 1.14179267 -0.78696580 1.70354996
v 0.92406944 -0.78749230 1.87000519
v 0.94070378 -0.78726520 1.65482671
v 0.94093697 -0.75432714 1.87000519
v 1.12430331 -0.75435122 1.87000519
v 1.14179267 -0.75382473 1.85353242
v 0.40739456 -0.75294036 1.65482671
v 0.67416576 -0.75370430 1.83687005
v 0.39029385 -0.75299198 1.65482671
v 0.37412591 -0.75309864 1.65482671
v 0.37288218 -0.75310898 1.65482671
v 0.34785298 -0.75331888 1.65482671
v 0.34785298 -0.78678687 1.87000519
v 1.14179267 -0.78702776 1.87000519
v 0.90743511 -0.78750264 1.87000519
v 0.92531313 -0.78728928 1.65482671
v 1.14179267 -0.75443035 1.87000519
v 1.14179267 -0.75439596 1.86912047
v 0.34785298 -0.78658042 1.65482671
v 0.45745304 -0.78684536 1.65482671
v 0.54062471 -0.78724797 1.87000519
v 0.92406944 -0.78728928 1.65482671
v 0.82387478 -0.78748887 1.87000519
v 0.65877512 -0.78714474 1.65482671
v 0.55749225 -0.78726863 1.87000519
v 0.67416576 -0.78715851 1.65482671
v 0.72391332 -0.78741317 1.87000519
v 0.67416576 -0.78721358 1.70354996
v 0.65745370 -0.78719636 1.70354996
f 1 2 3
f 1 3 9
f 1 9 8
f 1 8 21
f 1 21 33
f 1 33 32
f 1 32 29
f 1 29 16
f 1 16 4
f 1 4 18
f 1 18 31
f 1 31 37
f 1 37 41
f 1 41 39
f 1 39 35
f 1 35 34
f 1 34 27
f 1 27 26
f 1 26 25
f 1 25 24
f 1 24 22
f 1 22 12
f 1 12 11
f 1 11 10
f 1 10 5
f 1 5 2
f 2 6 7
f 2 7 8
f 2 8 9
f 2 9 3
f 2 5 10
f 2 10 11
f 2 11 12
f 2 12 13
f 2 13 14
f 2 14 15
f 2 15 6
f 4 16 17
f 4 17 18
f 6 19 7
f 6 15 28
f 6 28 36
f 6 36 40
f 6 40 42
f 6 42 38
f 6 38 30
f 6 30 17
f 6 17 29
f 6 29 32
f 6 32 20
f 6 20 19
f 7 20 21
f 7 21 8
f 7 19 20
f 12 22 15
f 12 15 13
f 13 15 23
f 13 23 14
f 14 23 15
f 15 22 24
f 15 24 25
f 15 25 26
f 15 26 27
f 15 27 34
f 15 34 28
f 16 29 17
f 17 30 31
f 17 31 18
f 20 32 33
f 20 33 21
f 28 34 35
f 28 35 36
f 30 37 31
f 30 38 37
f 35 39 36
f 36 39 40
f 37 38 41
f 38 42 43
f 38 43 41
f 39 41 43
f 39 43 44
f 39 44 40
f 40 44 43
f 40 43 42

