# https://github.com/mikedh/trimesh
v 0.15744228 -0.15028240 0.91713237
v 0.17410346 -0.15059861 0.91713237
v 0.14776330 -0.15118238 0.91713237
v 0.15744228 -0.15029051 0.92021204
v 0.17410346 -0.15059861 0.93687632
v 0.19076464 -0.15135264 0.92021204
v 0.19098065 -0.15143373 0.91713237
v 0.19076464 -0.15131211 0.93687632
v 0.14555434 -0.15139320 0.91713237
v 0.14565888 -0.15143373 0.93687632
v 0.15744228 -0.15033915 0.93687632
v 0.17410346 -0.15064724 0.95354059
v 0.19076464 -0.15148237 1.01364157
v 0.19076464 -0.15145805 1.00353342
v 0.19953768 -0.15232561 0.92021204
v 0.19293874 -0.15162832 0.91713237
v 0.19957952 -0.15230129 0.93687632
v 0.19956558 -0.15231750 1.01364157
v 0.14409103 -0.15316884 0.91713237
v 0.13791016 -0.16100932 0.95354059
v 0.13805649 -0.16100932 0.97020487
v 0.14577732 -0.15148237 0.95354059
v 0.13763139 -0.16100932 0.91713237
v 0.14634178 -0.15166077 1.01364157
v 0.15744228 -0.15042021 0.95354059
v 0.17410346 -0.15091480 1.01364157
v 0.17410346 -0.15072023 0.97020487
v 0.20321001 -0.16091202 0.91713237
v 0.19949590 -0.15235803 0.91713237
v 0.20163513 -0.15758772 1.01364157
v 0.13388944 -0.17767945 0.98686915
v 0.13416117 -0.17767945 1.01364157
v 0.13826552 -0.16100932 0.98686915
v 0.14607695 -0.15158778 0.98686915
v 0.14592365 -0.15153915 0.97020487
v 0.13365250 -0.17767945 0.91713237
v 0.13378489 -0.17767945 0.97020487
v 0.14330359 -0.15534991 1.01364157
v 0.15074570 -0.15129590 1.01364157
v 0.15744228 -0.15074455 1.01364157
v 0.16400635 -0.15080940 1.01364157
v 0.20484057 -0.17767945 0.91713237
v 0.20295913 -0.16100932 1.01364157
v 0.13460714 -0.19434145 0.97020487
v 0.13471866 -0.19434145 0.98686915
v 0.13486499 -0.19434145 1.00353342
v 0.13447476 -0.18424695 1.01364157
v 0.13868359 -0.16100932 1.01364157
v 0.13458628 -0.19434145 0.91713237
v 0.13453746 -0.19434145 0.93687632
v 0.13455141 -0.19434145 0.95354059
v 0.19584449 -0.23310600 0.91713237
v 0.20361414 -0.17111195 1.01364157
v 0.20399740 -0.17767945 1.01364157
v 0.19574697 -0.23310600 1.01364157
v 0.14053022 -0.21100348 0.97020487
v 0.13497645 -0.19434145 1.01364157
v 0.14129674 -0.21100348 0.91713237
v 0.14078104 -0.21100348 0.93687632
v 0.14051627 -0.21100348 0.95354059
v 0.15352604 -0.23310600 0.91713237
v 0.15368632 -0.23310600 1.01364157
v 0.14077412 -0.21100348 0.98686915
v 0.15336583 -0.23310600 0.96605769
v 0.15337274 -0.23310600 0.97020487
v 0.15342156 -0.23310600 0.98686915
v 0.15358183 -0.23310600 1.00353342
v 0.15365151 -0.23310600 1.01056189
v 0.13757565 -0.20090085 1.01364157
v 0.15343550 -0.23310600 0.93247408
v 0.15336583 -0.23310600 0.94938397
v 0.14184022 -0.21100348 1.01364157
f 1 2 7
f 1 7 16
f 1 16 29
f 1 29 28
f 1 28 42
f 1 42 52
f 1 52 61
f 1 61 58
f 1 58 49
f 1 49 36
f 1 36 23
f 1 23 19
f 1 19 9
f 1 9 3
f 1 3 4
f 1 4 5
f 1 5 2
f 2 6 7
f 2 5 8
f 2 8 6
f 3 9 10
f 3 10 4
f 4 10 11
f 4 11 12
f 4 12 5
f 5 12 13
f 5 13 14
f 5 14 8
f 6 15 16
f 6 16 7
f 6 8 15
f 8 17 15
f 8 14 18
f 8 18 17
f 9 19 10
f 10 20 21
f 10 21 22
f 10 22 11
f 10 19 23
f 10 23 20
f 11 22 24
f 11 24 25
f 11 25 26
f 11 26 27
f 11 27 12
f 12 27 13
f 13 26 41
f 13 41 40
f 13 40 39
f 13 39 24
f 13 24 38
f 13 38 48
f 13 48 32
f 13 32 47
f 13 47 57
f 13 57 69
f 13 69 72
f 13 72 62
f 13 62 55
f 13 55 54
f 13 54 53
f 13 53 43
f 13 43 30
f 13 30 18
f 13 18 14
f 13 27 26
f 15 28 29
f 15 29 16
f 15 17 28
f 17 18 28
f 18 30 28
f 20 23 31
f 20 31 21
f 21 31 32
f 21 32 33
f 21 33 24
f 21 24 34
f 21 34 35
f 21 35 22
f 22 35 34
f 22 34 24
f 23 36 37
f 23 37 31
f 24 33 38
f 24 39 25
f 25 39 40
f 25 40 41
f 25 41 26
f 28 30 43
f 28 43 42
f 31 37 44
f 31 44 45
f 31 45 46
f 31 46 47
f 31 47 32
f 32 48 33
f 33 48 38
f 36 49 50
f 36 50 51
f 36 51 37
f 37 51 44
f 42 43 53
f 42 53 54
f 42 54 55
f 42 55 52
f 44 56 45
f 44 51 56
f 45 56 46
f 46 57 47
f 46 56 57
f 49 58 59
f 49 59 60
f 49 60 50
f 50 60 56
f 50 56 51
f 52 55 62
f 52 62 68
f 52 68 67
f 52 67 66
f 52 66 65
f 52 65 64
f 52 64 71
f 52 71 70
f 52 70 61
f 56 63 57
f 56 60 64
f 56 64 65
f 56 65 66
f 56 66 67
f 56 67 68
f 56 68 62
f 56 62 63
f 57 63 69
f 58 61 59
f 59 61 60
f 60 61 70
f 60 70 71
f 60 71 64
f 62 72 63
f 63 72 69

