# https://github.com/mikedh/trimesh
v -0.15591723 -0.79567187 1.89125003
v -0.05231002 -0.79940955 1.89125003
v -0.15591723 -0.74968543 1.89125003
v -0.15591723 -0.79582442 1.85817919
v -0.05231002 -0.74811915 1.89125003
v -0.15591723 -0.79589562 1.84152969
v -0.15591723 -0.79591085 1.83427687
v -0.15591723 -0.79592611 1.82488018
v -0.15591723 -0.79594137 1.80818514
v -0.15591723 -0.79594646 1.80093233
v -0.15591723 -0.79595153 1.79153563
v -0.15591723 -0.79595153 1.77484053
v -0.05231002 -0.79936887 1.70796893
v -0.05231002 -0.74747334 1.72849569
v -0.05231002 -0.74745807 1.71184624
v -0.05231002 -0.74750384 1.69154753
v -0.05231002 -0.74826155 1.42524713
v -0.15591723 -0.75154665 1.42524713
v -0.15591723 -0.79593121 1.70819703
v -0.15591723 -0.79592611 1.69154753
v -0.05231002 -0.79920615 1.42524713
v -0.15591723 -0.79562099 1.42524713
v -0.15591723 -0.79591595 1.67485243
f 1 2 5
f 1 5 3
f 1 3 18
f 1 18 22
f 1 22 23
f 1 23 20
f 1 20 19
f 1 19 12
f 1 12 11
f 1 11 10
f 1 10 9
f 1 9 8
f 1 8 7
f 1 7 6
f 1 6 4
f 1 4 2
f 2 4 6
f 2 6 7
f 2 7 8
f 2 8 9
f 2 9 10
f 2 10 11
f 2 11 12
f 2 12 13
f 2 13 21
f 2 21 17
f 2 17 16
f 2 16 15
f 2 15 14
f 2 14 5
f 3 5 14
f 3 14 15
f 3 15 16
f 3 16 17
f 3 17 18
f 12 19 13
f 13 19 20
f 13 20 21
f 17 21 22
f 17 22 18
f 20 23 21
f 21 23 22

