# https://github.com/mikedh/trimesh
v 2.06749847 -0.71678673 0.11505243
v 2.06749847 -0.72903100 0.09413395
v 2.04681823 -0.71678673 0.11847436
v 2.06749847 -0.71678673 0.19007185
v 2.06749847 -0.73194006 0.09157379
v 2.04681823 -0.72965438 0.10335057
v 2.04681823 -0.71678673 0.18354026
v 2.06527557 -0.71678673 0.18940993
v 2.06749847 -0.72670682 0.20492086
v 2.06749847 -0.74242963 0.08517959
v 2.04681823 -0.74435363 0.09570752
v 2.04681823 -0.73421035 0.20492086
v 2.06749847 -0.76286239 0.20492086
v 2.06749847 -0.74435363 0.08421792
v 2.06749847 -0.76100769 0.07897273
v 2.06749847 -0.76433231 0.07838574
v 2.04681823 -0.76089223 0.09294751
v 2.04681823 -0.78330283 0.20492086
v 2.06742761 -0.78595025 0.20492086
v 2.06749847 -0.78599642 0.20352210
v 2.06749847 -0.77767709 0.07733669
v 2.04681823 -0.77288252 0.09409646
v 2.04681823 -0.79105266 0.17018990
v 2.06749847 -0.79201466 0.18146713
v 2.06749847 -0.79084488 0.18608796
v 2.06749847 -0.79021381 0.08976293
v 2.04681823 -0.78905941 0.10341303
v 2.04681823 -0.78106332 0.09565757
v 2.04681823 -0.79253799 0.15353003
v 2.06749847 -0.79466205 0.16357087
v 2.06749847 -0.79403870 0.17018990
v 2.06749847 -0.79380782 0.10301338
v 2.04681823 -0.79219937 0.12021024
v 2.06749847 -0.79523157 0.15353003
v 2.04681823 -0.79238406 0.13687016
v 2.06749847 -0.79540857 0.12021024
f 1 2 3
f 1 3 7
f 1 7 8
f 1 8 4
f 1 4 9
f 1 9 13
f 1 13 20
f 1 20 25
f 1 25 24
f 1 24 31
f 1 31 30
f 1 30 34
f 1 34 36
f 1 36 32
f 1 32 26
f 1 26 21
f 1 21 16
f 1 16 15
f 1 15 14
f 1 14 10
f 1 10 5
f 1 5 2
f 2 5 6
f 2 6 3
f 3 6 11
f 3 11 17
f 3 17 22
f 3 22 28
f 3 28 27
f 3 27 33
f 3 33 35
f 3 35 29
f 3 29 23
f 3 23 18
f 3 18 12
f 3 12 7
f 4 8 9
f 5 10 6
f 6 10 11
f 7 12 9
f 7 9 8
f 9 12 18
f 9 18 19
f 9 19 13
f 10 14 11
f 11 14 15
f 11 15 16
f 11 16 17
f 13 19 20
f 16 21 17
f 17 21 22
f 18 23 24
f 18 24 25
f 18 25 19
f 19 25 20
f 21 26 27
f 21 27 28
f 21 28 22
f 23 29 30
f 23 30 31
f 23 31 24
f 26 32 27
f 27 32 33
f 29 34 30
f 29 35 36
f 29 36 34
f 32 36 33
f 33 36 35

