# https://github.com/mikedh/trimesh
v -3.84407313 -0.31514355 1.59951386
v -3.84407313 -0.31514355 1.55257483
v -3.83702554 -0.31514355 1.59952501
v -3.18304641 -0.31513541 1.60056452
v -3.28299326 -0.23201580 1.60054777
v -3.83286117 -0.23200766 1.59964237
v -3.83718576 -0.23200766 1.59963122
v -3.84407313 -0.23200766 1.59960327
v -3.84407313 -0.23200766 1.54861806
v -3.83286117 -0.23200766 1.54835538
v -3.51940600 -0.31514355 1.54608079
v -3.83286117 -0.31514355 1.59953061
v -3.16630851 -0.31513541 1.60058687
v -3.18304641 -0.23201580 1.60058687
v -3.81620332 -0.23200766 1.59966472
v -3.82052791 -0.23200766 1.59965918
v -3.81676391 -0.23200766 1.54817096
v -3.81620332 -0.23200766 1.54816536
v -3.53133877 -0.23200766 1.54608079
v -3.02591840 -0.23201580 1.54349327
v -3.46366642 -0.31514355 1.54608079
v -3.82036781 -0.31514355 1.59953621
v -3.45373579 -0.31514355 1.59964237
v -3.15381516 -0.31513541 1.60058687
v -3.03296596 -0.23201580 1.60050307
v -3.42066043 -0.23200766 1.59977654
v -3.44973152 -0.23200766 1.54608079
v -3.02591840 -0.23201580 1.60048626
v -3.02591840 -0.31513541 1.54879133
v -3.41641589 -0.23200766 1.54638263
v -3.41641589 -0.31514355 1.55255808
v -3.44957133 -0.31514355 1.59964237
v -3.02591840 -0.31513541 1.60043595
v -3.02591840 -0.24435393 1.60048626
v -3.41641589 -0.31514355 1.59962562
v -3.41641589 -0.23200766 1.59804406
f 1 2 11
f 1 11 21
f 1 21 31
f 1 31 35
f 1 35 32
f 1 32 23
f 1 23 22
f 1 22 12
f 1 12 3
f 1 3 4
f 1 4 5
f 1 5 6
f 1 6 7
f 1 7 8
f 1 8 9
f 1 9 2
f 2 9 10
f 2 10 11
f 3 12 4
f 4 13 5
f 4 12 13
f 5 13 14
f 5 14 15
f 5 15 16
f 5 16 6
f 6 16 15
f 6 15 26
f 6 26 36
f 6 36 30
f 6 30 27
f 6 27 19
f 6 19 18
f 6 18 17
f 6 17 10
f 6 10 9
f 6 9 8
f 6 8 7
f 10 17 11
f 11 18 19
f 11 19 20
f 11 20 21
f 11 17 18
f 12 22 13
f 13 22 23
f 13 23 32
f 13 32 24
f 13 24 14
f 14 24 25
f 14 25 26
f 14 26 15
f 19 27 20
f 20 28 34
f 20 34 33
f 20 33 29
f 20 29 21
f 20 27 30
f 20 30 36
f 20 36 28
f 21 29 31
f 24 33 34
f 24 34 25
f 24 32 35
f 24 35 33
f 25 34 28
f 25 28 26
f 26 28 36
f 29 33 35
f 29 35 31

