# https://github.com/mikedh/trimesh
v -3.03289202 -0.72659647 0.50109263
v -3.03293280 -0.70958624 0.50979629
v -3.03289202 -0.71101154 0.50975966
v -3.03289202 -0.72659647 0.50141498
v -3.44606172 -0.72659647 0.50295350
v -3.44952824 -0.72655985 0.50293154
v -3.44952824 -0.71038381 0.51085130
v -3.03289202 -0.70958624 0.56417962
v -3.23427707 -0.70958624 0.51169382
v -3.03289202 -0.72658983 0.57591637
v -3.03297359 -0.72659647 0.57593837
v -3.44952824 -0.72659647 0.51085863
v -3.44952824 -0.71038381 0.56768893
v -3.23921178 -0.70958624 0.51176708
v -3.03289202 -0.70958624 0.56900033
v -3.23921178 -0.70958624 0.56864136
v -3.04965371 -0.72659647 0.57587244
v -3.44952824 -0.72652489 0.57284665
v -3.44891651 -0.72659647 0.57287597
v -3.33293046 -0.72659647 0.57382837
v -3.08533859 -0.72659647 0.57565265
f 1 2 3
f 1 3 8
f 1 8 15
f 1 15 10
f 1 10 4
f 1 4 11
f 1 11 17
f 1 17 21
f 1 21 20
f 1 20 19
f 1 19 12
f 1 12 5
f 1 5 6
f 1 6 7
f 1 7 2
f 2 8 3
f 2 7 9
f 2 9 14
f 2 14 16
f 2 16 15
f 2 15 8
f 4 10 11
f 5 12 6
f 6 12 18
f 6 18 13
f 6 13 7
f 7 13 16
f 7 16 14
f 7 14 9
f 10 15 11
f 11 15 16
f 11 16 17
f 12 19 18
f 13 18 19
f 13 19 20
f 13 20 21
f 13 21 17
f 13 17 16

