# https://github.com/mikedh/trimesh
v -3.48294883 -0.29070992 1.22001121
v -3.47932013 -0.29070992 1.22001121
v -3.48294883 -0.27766280 1.22000147
v -3.49959862 -0.29070992 1.22000147
v -3.46628443 -0.29070992 1.21999172
v -3.49959862 -0.27766280 1.21999172
v -3.46628443 -0.26099814 1.21995274
v -3.48294883 -0.24433347 1.21994300
v -3.53342292 -0.27766280 1.21993325
v -3.53303674 -0.29070992 1.21994300
v -3.45899058 -0.29070992 1.21997223
v -3.45899058 -0.28703917 1.21997223
v -3.45899058 -0.27766280 1.21996249
v -3.49959862 -0.26099814 1.21996249
v -3.45899058 -0.27037450 1.21995274
v -3.45899058 -0.25370983 1.21992351
v -3.48294883 -0.23534278 1.21990401
v -3.49959862 -0.24433347 1.21992351
v -3.45899058 -0.24433347 1.21989427
v -3.46628443 -0.22766878 1.21984554
v -3.53342292 -0.26099814 1.21989427
v -3.53342292 -0.29070992 1.21993325
v -3.45899058 -0.29070992 1.16180057
v -3.49959862 -0.23534278 1.21988452
v -3.48294883 -0.22766878 1.21986503
v -3.53342292 -0.24433347 1.21984554
v -3.45899058 -0.23704516 1.21986503
v -3.45899058 -0.22766878 1.21982605
v -3.45899058 -0.22038049 1.21977732
v -3.45899058 -0.21100413 1.21970911
v -3.46628443 -0.21100413 1.21971885
v -3.53342292 -0.29070992 1.16371071
v -3.47270390 -0.29070992 1.12578072
v -3.45899058 -0.21100413 1.13628651
v -3.49959862 -0.22766878 1.21984554
v -3.48294883 -0.21100413 1.21971885
v -3.53342292 -0.22766878 1.21975783
v -3.45899058 -0.19435276 1.21944598
v -3.46628443 -0.19435276 1.21945572
v -3.50933351 -0.29070992 1.12636546
v -3.53342292 -0.21100413 1.13893731
v -3.48294883 -0.29070992 1.12050833
v -3.47265291 -0.27766280 1.12572225
v -3.45899058 -0.17768809 1.13254419
v -3.45899058 -0.19435276 1.13312891
v -3.49959862 -0.21100413 1.21969936
v -3.48294883 -0.19435276 1.21944598
v -3.51626302 -0.21100413 1.21965063
v -3.53342292 -0.21148291 1.21958242
v -3.45899058 -0.18705116 1.21913411
v -3.48294883 -0.17768809 1.21873455
v -3.50171902 -0.29070992 1.12223331
v -3.53342292 -0.19435276 1.13384036
v -3.53342292 -0.19386066 1.13380138
v -3.53342292 -0.17768809 1.13279757
v -3.49959862 -0.29070992 1.12109306
v -3.48294883 -0.27766280 1.12045961
v -3.48294883 -0.17768809 1.13237851
v -3.45899058 -0.16214060 1.13865470
v -3.48294883 -0.26099814 1.12088841
v -3.48294883 -0.24433347 1.12204814
v -3.49959862 -0.19435276 1.21941674
v -3.49959862 -0.17768809 1.21872480
v -3.51626302 -0.19435276 1.21934852
v -3.53342292 -0.19483153 1.21927056
v -3.46628443 -0.17768809 1.21871506
v -3.45899058 -0.17768809 1.21870531
v -3.45899058 -0.16452126 1.21501172
v -3.48294883 -0.16449467 1.21503121
v -3.49959862 -0.16448135 1.21504095
v -3.53342292 -0.16448135 1.21502146
v -3.53342292 -0.17722260 1.13297299
v -3.49959862 -0.17768809 1.13239801
v -3.49959862 -0.24433347 1.12215534
v -3.49959862 -0.26099814 1.12147315
v -3.49959862 -0.27766280 1.12110280
v -3.53342292 -0.16212731 1.13867419
v -3.45899058 -0.15803094 1.14702619
v -3.53342292 -0.17768809 1.21862733
v -3.53342292 -0.17816687 1.21864682
v -3.53342292 -0.19435276 1.21926082
v -3.45899058 -0.15753887 1.20353135
v -3.46628443 -0.15752555 1.20353135
v -3.53342292 -0.15775166 1.20386271
v -3.53342292 -0.15493210 1.15354602
v -3.51626302 -0.15486561 1.15354602
v -3.49959862 -0.15483900 1.15354602
v -3.46628443 -0.15483900 1.15354602
v -3.45899058 -0.15487891 1.15354602
v -3.45899058 -0.15522471 1.18686633
v -3.46628443 -0.15519809 1.18686633
v -3.53342292 -0.15755217 1.20353135
v -3.53342292 -0.15509170 1.17069833
v -3.49959862 -0.15490549 1.17021105
v -3.48294883 -0.15486561 1.17021105
v -3.46628443 -0.15487891 1.17021105
v -3.45899058 -0.15490549 1.16292131
v -3.45899058 -0.15494540 1.17021105
v -3.48294883 -0.15522471 1.18686633
v -3.53342292 -0.15542420 1.18734387
v -3.53342292 -0.15537101 1.18686633
f 1 2 3
f 1 3 6
f 1 6 4
f 1 4 10
f 1 10 22
f 1 22 32
f 1 32 40
f 1 40 52
f 1 52 56
f 1 56 42
f 1 42 33
f 1 33 23
f 1 23 11
f 1 11 5
f 1 5 2
f 2 5 3
f 3 5 7
f 3 7 8
f 3 8 14
f 3 14 6
f 4 6 9
f 4 9 10
f 5 11 12
f 5 12 13
f 5 13 7
f 6 14 9
f 7 13 15
f 7 15 16
f 7 16 8
f 8 17 24
f 8 24 18
f 8 18 14
f 8 16 19
f 8 19 20
f 8 20 17
f 9 14 18
f 9 18 21
f 9 21 26
f 9 26 37
f 9 37 49
f 9 49 65
f 9 65 81
f 9 81 80
f 9 80 79
f 9 79 71
f 9 71 84
f 9 84 92
f 9 92 100
f 9 100 101
f 9 101 93
f 9 93 85
f 9 85 77
f 9 77 72
f 9 72 55
f 9 55 54
f 9 54 53
f 9 53 41
f 9 41 32
f 9 32 22
f 9 22 10
f 11 23 34
f 11 34 45
f 11 45 44
f 11 44 59
f 11 59 78
f 11 78 89
f 11 89 97
f 11 97 98
f 11 98 90
f 11 90 82
f 11 82 68
f 11 68 67
f 11 67 50
f 11 50 38
f 11 38 30
f 11 30 29
f 11 29 28
f 11 28 27
f 11 27 19
f 11 19 16
f 11 16 15
f 11 15 13
f 11 13 12
f 17 20 25
f 17 25 35
f 17 35 24
f 18 24 26
f 18 26 21
f 19 27 20
f 20 28 29
f 20 29 30
f 20 30 31
f 20 31 25
f 20 27 28
f 23 33 34
f 24 35 26
f 25 31 36
f 25 36 46
f 25 46 35
f 26 35 37
f 30 38 39
f 30 39 31
f 31 39 36
f 32 41 40
f 33 42 43
f 33 43 44
f 33 44 45
f 33 45 34
f 35 46 37
f 36 39 47
f 36 47 46
f 37 46 48
f 37 48 49
f 38 50 39
f 39 50 51
f 39 51 47
f 40 41 53
f 40 53 54
f 40 54 55
f 40 55 52
f 42 56 57
f 42 57 43
f 43 57 44
f 44 58 59
f 44 57 60
f 44 60 61
f 44 61 58
f 46 47 62
f 46 62 48
f 47 51 63
f 47 63 62
f 48 62 64
f 48 64 49
f 49 64 65
f 50 66 51
f 50 67 66
f 51 66 68
f 51 68 69
f 51 69 70
f 51 70 71
f 51 71 63
f 52 55 56
f 55 72 73
f 55 73 74
f 55 74 75
f 55 75 76
f 55 76 56
f 56 76 57
f 57 76 75
f 57 75 60
f 58 61 73
f 58 73 77
f 58 77 59
f 59 77 78
f 60 75 74
f 60 74 61
f 61 74 73
f 62 63 79
f 62 79 80
f 62 80 64
f 63 71 79
f 64 80 81
f 64 81 65
f 66 67 68
f 68 82 83
f 68 83 69
f 69 83 70
f 70 83 71
f 71 83 84
f 72 77 73
f 77 85 86
f 77 86 87
f 77 87 78
f 78 87 88
f 78 88 89
f 82 90 91
f 82 91 83
f 83 91 92
f 83 92 84
f 85 93 94
f 85 94 86
f 86 94 95
f 86 95 87
f 87 95 88
f 88 95 96
f 88 96 89
f 89 96 97
f 90 98 96
f 90 96 91
f 91 99 92
f 91 96 95
f 91 95 99
f 92 99 100
f 93 101 94
f 94 101 99
f 94 99 95
f 96 98 97
f 99 101 100

