# https://github.com/mikedh/trimesh
v -2.01691594 -0.71678392 0.08940590
v -2.03292480 -0.71678392 0.09056487
v -2.00420705 -0.71678392 0.09190682
v -1.99959284 -0.73078892 0.06997863
v -2.01604219 -0.72927850 0.06997863
v -2.01626606 -0.72927009 0.06997863
v -2.03270098 -0.72906872 0.06997863
v -2.03292480 -0.72906872 0.06997863
v -2.04104117 -0.71678392 0.09340118
v -1.99705110 -0.71678392 0.10355705
v -1.98914412 -0.73407829 0.06997863
v -1.99945563 -0.73082248 0.06997863
v -2.04531599 -0.73252590 0.06997863
v -2.04264419 -0.71678392 0.09404163
v -1.99232859 -0.71678392 0.12020906
v -1.98506427 -0.74434917 0.06997863
v -2.05162710 -0.74434917 0.06997863
v -2.05621240 -0.72902675 0.09413313
v -2.04680350 -0.71678392 0.09748794
v -1.99221301 -0.71678392 0.13689152
v -1.98286186 -0.76078764 0.06997863
v -1.99219859 -0.71678392 0.14415005
v -1.99222750 -0.71678392 0.15354352
v -1.98489094 -0.76100582 0.38154747
v -2.05505702 -0.76100582 0.06997863
v -2.05621240 -0.73193852 0.09157130
v -2.05621240 -0.71678392 0.11505488
v -2.05421217 -0.71678392 0.11093760
v -1.98283301 -0.76100582 0.06997863
v -1.99254519 -0.71678392 0.16025309
v -1.99216247 -0.73766136 0.38154747
v -1.98838595 -0.74599386 0.38154747
v -1.98600305 -0.75613889 0.38154747
v -1.98425555 -0.77235079 0.38154747
v -2.05543974 -0.77767085 0.06997863
v -2.05621240 -0.76100582 0.07897560
v -2.05621240 -0.74434917 0.08422127
v -2.05621240 -0.74242759 0.08519719
v -2.05621240 -0.71678392 0.19011072
v -1.98244308 -0.77767085 0.06997863
v -1.98397398 -0.77767085 0.38154747
v -2.00594728 -0.71678392 0.38154747
v -2.05621240 -0.77767085 0.07735917
v -2.05621240 -0.76432875 0.07839612
v -2.04795161 -0.79388276 0.06997863
v -2.05621240 -0.79021576 0.08977188
v -2.05621240 -0.72742403 0.38154747
v -2.05051505 -0.71678392 0.38154747
v -1.98673953 -0.79296812 0.06997863
v -1.98747613 -0.79328697 0.38154747
v -2.03311977 -0.80192996 0.06997863
v -2.05621240 -0.79379883 0.10300809
v -2.05621240 -0.78533207 0.38154747
v -1.98679735 -0.79316949 0.07022259
v -1.98679735 -0.79316949 0.06997863
v -1.99959284 -0.80160269 0.38154747
v -1.98745444 -0.79332053 0.35351971
v -1.98742559 -0.79332894 0.33683719
v -2.03292480 -0.80203066 0.06997863
v -2.05621240 -0.79540156 0.12020906
v -2.04823324 -0.79280867 0.38154747
v -2.05621240 -0.79522536 0.15354352
v -1.98716559 -0.79334572 0.17022598
v -1.99959284 -0.80165306 0.33683719
v -1.99959284 -0.80165306 0.32018525
v -1.99959284 -0.80155236 0.15354352
v -1.99959284 -0.80147684 0.06997863
v -2.01626606 -0.80239988 0.38154747
v -1.99959284 -0.80161947 0.37017165
v -2.01626606 -0.80245862 0.06997863
v -2.03292480 -0.80212296 0.10355705
v -2.04959081 -0.79732316 0.12020906
v -2.03292480 -0.80088105 0.38154747
v -2.03782786 -0.79830495 0.38154747
v -2.01626606 -0.80250896 0.13689152
v -2.03292480 -0.80210618 0.12020906
f 1 2 9
f 1 9 14
f 1 14 19
f 1 19 28
f 1 28 27
f 1 27 39
f 1 39 48
f 1 48 42
f 1 42 30
f 1 30 23
f 1 23 22
f 1 22 20
f 1 20 15
f 1 15 10
f 1 10 3
f 1 3 4
f 1 4 5
f 1 5 6
f 1 6 7
f 1 7 8
f 1 8 2
f 2 8 9
f 3 10 11
f 3 11 12
f 3 12 4
f 4 12 11
f 4 11 16
f 4 16 21
f 4 21 29
f 4 29 40
f 4 40 49
f 4 49 55
f 4 55 67
f 4 67 70
f 4 70 59
f 4 59 51
f 4 51 45
f 4 45 35
f 4 35 25
f 4 25 17
f 4 17 13
f 4 13 8
f 4 8 7
f 4 7 6
f 4 6 5
f 8 13 14
f 8 14 9
f 10 15 11
f 11 15 16
f 13 17 18
f 13 18 19
f 13 19 14
f 15 20 16
f 16 20 22
f 16 22 23
f 16 23 24
f 16 24 21
f 17 25 26
f 17 26 18
f 18 26 38
f 18 38 37
f 18 37 36
f 18 36 44
f 18 44 43
f 18 43 46
f 18 46 52
f 18 52 60
f 18 60 62
f 18 62 53
f 18 53 47
f 18 47 39
f 18 39 27
f 18 27 28
f 18 28 19
f 21 24 29
f 23 30 31
f 23 31 32
f 23 32 33
f 23 33 24
f 24 33 32
f 24 32 31
f 24 31 42
f 24 42 48
f 24 48 47
f 24 47 53
f 24 53 61
f 24 61 74
f 24 74 73
f 24 73 68
f 24 68 56
f 24 56 50
f 24 50 41
f 24 41 34
f 24 34 29
f 25 35 36
f 25 36 37
f 25 37 38
f 25 38 26
f 29 34 41
f 29 41 40
f 30 42 31
f 35 43 44
f 35 44 36
f 35 45 46
f 35 46 43
f 39 47 48
f 40 41 50
f 40 50 49
f 45 51 52
f 45 52 46
f 49 54 55
f 49 50 54
f 50 56 57
f 50 57 58
f 50 58 54
f 51 59 52
f 52 59 60
f 53 62 61
f 54 63 64
f 54 64 65
f 54 65 55
f 54 58 63
f 55 65 66
f 55 66 67
f 56 68 69
f 56 69 58
f 56 58 57
f 58 69 63
f 59 70 71
f 59 71 60
f 60 72 73
f 60 73 62
f 60 71 72
f 61 62 74
f 62 73 74
f 63 69 64
f 64 69 68
f 64 68 75
f 64 75 65
f 65 75 66
f 66 75 70
f 66 70 67
f 68 73 76
f 68 76 71
f 68 71 75
f 70 75 71
f 71 76 72
f 72 76 73

