# https://github.com/mikedh/trimesh
v -0.22752819 1.62294912 0.37798007
v -0.22773080 1.62294912 0.37799349
v -0.21554846 1.62294912 0.38098540
v -0.19417402 1.60674956 0.35880759
v -0.21085111 1.60800170 0.35880759
v -0.22752819 1.60790388 0.35880759
v -0.24419568 1.62294912 0.37940228
v -0.20856510 1.62294912 0.39212133
v -0.18261862 1.60160405 0.35880759
v -0.24127307 1.60274858 0.35880759
v -0.27744381 1.62294912 0.38262225
v -0.24435003 1.62294912 0.37941564
v -0.20523742 1.62294912 0.40859701
v -0.18260903 1.60165296 0.37544430
v -0.18257044 1.60170188 0.40879830
v -0.17921377 1.58938591 0.35880759
v -0.20519884 1.62294912 0.40879830
v -0.24958755 1.59344558 0.35880759
v -0.25602112 1.58508167 0.35880759
v -0.26266684 1.57277549 0.35880759
v -0.27744381 1.62177524 0.38239418
v -0.27744381 1.62294912 0.44145455
v -0.20524703 1.62294912 0.42547526
v -0.18260903 1.60169210 0.42547526
v -0.17929094 1.58938591 0.40879830
v -0.17923309 1.58938591 0.37544430
v -0.17899196 1.57272659 0.35880759
v -0.26585956 1.55610640 0.35880759
v -0.27744381 1.62165785 0.38238077
v -0.27744381 1.62286109 0.44228642
v -0.27735697 1.62294912 0.44229984
v -0.20549782 1.62294912 0.44213881
v -0.18282123 1.60156493 0.49587279
v -0.18213637 1.59886499 0.49587279
v -0.17973462 1.58938591 0.49587279
v -0.17970569 1.58569796 0.49587279
v -0.17947421 1.55604769 0.49587279
v -0.17890512 1.55604769 0.35880759
v -0.26418118 1.53940793 0.35880759
v -0.27744381 1.57254071 0.37764465
v -0.27744381 1.57272659 0.37761781
v -0.27744381 1.60595720 0.38082442
v -0.27744381 1.59888456 0.46783182
v -0.24182291 1.60268990 0.49587279
v -0.23864951 1.62294912 0.46928086
v -0.20958755 1.62294912 0.45861455
v -0.20964540 1.62294912 0.45881578
v -0.18532903 1.60269968 0.49587279
v -0.17952241 1.55234998 0.49587279
v -0.17950314 1.53936880 0.35880759
v -0.17971534 1.53936880 0.49587279
v -0.17970569 1.53936880 0.49216977
v -0.27744381 1.56101713 0.38040849
v -0.25752581 1.52759086 0.35880759
v -0.27744381 1.55624335 0.39212133
v -0.27744381 1.58946416 0.47068959
v -0.26429695 1.57272659 0.49587279
v -0.25706282 1.58630447 0.49587279
v -0.25177705 1.59279017 0.49587279
v -0.25015659 1.59463903 0.49587279
v -0.24831432 1.59644876 0.49587279
v -0.22752819 1.60783541 0.49587279
v -0.22752819 1.62294912 0.47153489
v -0.21632010 1.62294912 0.46930770
v -0.19417402 1.60664195 0.49587279
v -0.18297553 1.52807020 0.40879830
v -0.18300445 1.52814845 0.35880759
v -0.18294660 1.52794305 0.49587279
v -0.18294660 1.52794305 0.47549281
v -0.27744381 1.55419883 0.44213881
v -0.27744381 1.55441404 0.42566307
v -0.27744381 1.55465860 0.40879830
v -0.24415709 1.52383444 0.35880759
v -0.24419568 1.52378554 0.37544430
v -0.24419568 1.52372685 0.39212133
v -0.24419568 1.52368773 0.40879830
v -0.25790197 1.52743433 0.49216977
v -0.27744381 1.57272659 0.47381569
v -0.26691091 1.55604769 0.49587279
v -0.26639967 1.55973563 0.49587279
v -0.21454535 1.60794300 0.49587279
v -0.22740283 1.62294912 0.47153489
v -0.21085111 1.60795280 0.49587279
v -0.21639727 1.62294912 0.46941500
v -0.19786820 1.60694520 0.49587279
v -0.19414503 1.52424531 0.35880759
v -0.19417402 1.52392247 0.45881578
v -0.19417402 1.52397141 0.44213881
v -0.19417402 1.52402032 0.42547526
v -0.19417402 1.52389313 0.49587279
v -0.19417402 1.52389313 0.47549281
v -0.25792130 1.52744415 0.49587279
v -0.27744381 1.55419883 0.44232668
v -0.22748961 1.52348229 0.35880759
v -0.22752819 1.52343339 0.37544430
v -0.22752819 1.52339423 0.39212133
v -0.22752819 1.52332576 0.42547526
v -0.22752819 1.52329642 0.44213881
v -0.22752819 1.52326708 0.45881578
v -0.24419568 1.52360945 0.47549281
v -0.24419568 1.52360945 0.49216977
v -0.27744381 1.56040084 0.47101160
v -0.26506859 1.53936880 0.49587279
v -0.21081252 1.52329642 0.35880759
v -0.21085111 1.52303230 0.44213881
v -0.21085111 1.52302252 0.49587279
v -0.21085111 1.52301274 0.45881578
v -0.25953209 1.53007558 0.49587279
v -0.27744381 1.55528467 0.45881578
v -0.24419568 1.52361923 0.49587279
v -0.22752819 1.52324751 0.47549281
v -0.22752819 1.52324751 0.49216977
v -0.24050144 1.52353120 0.49587279
v -0.27744381 1.55534337 0.45901707
v -0.22383401 1.52319861 0.49587279
v -0.22752819 1.52325729 0.49587279
f 1 2 7
f 1 7 12
f 1 12 11
f 1 11 22
f 1 22 31
f 1 31 45
f 1 45 63
f 1 63 82
f 1 82 84
f 1 84 64
f 1 64 47
f 1 47 46
f 1 46 32
f 1 32 23
f 1 23 17
f 1 17 13
f 1 13 8
f 1 8 3
f 1 3 4
f 1 4 5
f 1 5 6
f 1 6 2
f 2 6 7
f 3 8 9
f 3 9 4
f 4 9 16
f 4 16 27
f 4 27 38
f 4 38 50
f 4 50 67
f 4 67 86
f 4 86 104
f 4 104 94
f 4 94 73
f 4 73 54
f 4 54 39
f 4 39 28
f 4 28 20
f 4 20 19
f 4 19 18
f 4 18 10
f 4 10 6
f 4 6 5
f 6 10 11
f 6 11 12
f 6 12 7
f 8 13 9
f 9 14 15
f 9 15 16
f 9 13 17
f 9 17 14
f 10 18 11
f 11 18 19
f 11 19 20
f 11 20 21
f 11 21 29
f 11 29 42
f 11 42 41
f 11 41 40
f 11 40 53
f 11 53 55
f 11 55 72
f 11 72 71
f 11 71 70
f 11 70 93
f 11 93 109
f 11 109 114
f 11 114 102
f 11 102 78
f 11 78 56
f 11 56 43
f 11 43 30
f 11 30 22
f 14 17 15
f 15 17 23
f 15 23 24
f 15 24 25
f 15 25 26
f 15 26 16
f 16 26 27
f 20 28 21
f 21 28 29
f 22 30 31
f 23 32 33
f 23 33 24
f 24 33 25
f 25 27 26
f 25 33 34
f 25 34 35
f 25 35 36
f 25 36 37
f 25 37 27
f 27 37 38
f 28 39 40
f 28 40 41
f 28 41 42
f 28 42 29
f 30 43 31
f 31 43 44
f 31 44 45
f 32 46 33
f 33 46 47
f 33 47 48
f 33 48 65
f 33 65 85
f 33 85 83
f 33 83 81
f 33 81 62
f 33 62 44
f 33 44 61
f 33 61 60
f 33 60 59
f 33 59 58
f 33 58 57
f 33 57 80
f 33 80 79
f 33 79 103
f 33 103 108
f 33 108 92
f 33 92 110
f 33 110 113
f 33 113 116
f 33 116 115
f 33 115 106
f 33 106 90
f 33 90 68
f 33 68 51
f 33 51 49
f 33 49 37
f 33 37 36
f 33 36 35
f 33 35 34
f 37 49 38
f 38 49 51
f 38 51 52
f 38 52 50
f 39 53 40
f 39 54 55
f 39 55 53
f 43 56 57
f 43 57 58
f 43 58 59
f 43 59 60
f 43 60 61
f 43 61 44
f 44 62 45
f 45 62 63
f 47 64 65
f 47 65 48
f 50 66 67
f 50 52 68
f 50 68 69
f 50 69 66
f 51 68 52
f 54 70 71
f 54 71 72
f 54 72 55
f 54 73 74
f 54 74 75
f 54 75 76
f 54 76 77
f 54 77 70
f 56 78 79
f 56 79 80
f 56 80 57
f 62 81 63
f 63 81 83
f 63 83 82
f 64 84 65
f 65 84 82
f 65 82 85
f 66 69 67
f 67 69 87
f 67 87 88
f 67 88 89
f 67 89 86
f 68 90 91
f 68 91 69
f 69 91 87
f 70 77 92
f 70 92 93
f 73 94 75
f 73 75 74
f 75 94 95
f 75 95 96
f 75 96 76
f 76 96 97
f 76 97 98
f 76 98 99
f 76 99 100
f 76 100 77
f 77 100 101
f 77 101 92
f 78 102 79
f 79 102 103
f 82 83 85
f 86 89 104
f 87 91 105
f 87 105 88
f 88 105 89
f 89 105 104
f 90 106 107
f 90 107 91
f 91 107 105
f 92 108 109
f 92 109 93
f 92 101 110
f 94 104 105
f 94 105 95
f 95 105 96
f 96 105 97
f 97 105 98
f 98 105 99
f 99 105 107
f 99 107 111
f 99 111 100
f 100 111 112
f 100 112 101
f 101 112 113
f 101 113 110
f 102 114 103
f 103 114 109
f 103 109 108
f 106 115 112
f 106 112 107
f 107 112 111
f 112 115 116
f 112 116 113

