# https://github.com/mikedh/trimesh
v 2.04681823 -0.76088874 0.09294292
v 2.04681823 -0.74434704 0.09570711
v 2.04681823 -0.77287578 0.09410277
v 1.88639307 -0.77766851 0.09746313
v 1.88639307 -0.77326911 0.09712714
v 1.88639307 -0.76100259 0.09621655
v 1.88639307 -0.74433667 0.09695369
v 2.04681823 -0.72967896 0.10336005
v 2.04681823 -0.78104311 0.09567456
v 1.88639307 -0.78579445 0.10331665
v 1.88639307 -0.73036216 0.10466081
v 2.04681823 -0.68679269 0.13129440
v 2.04681823 -0.78905517 0.10343592
v 1.88639307 -0.78870320 0.10541964
v 1.88639307 -0.69431823 0.13206402
v 1.99768252 -0.68679269 0.13196645
v 2.04681823 -0.68679269 0.18073500
v 2.04681823 -0.79218131 0.12020517
v 1.88639307 -0.79171550 0.12020517
v 1.88639307 -0.69431823 0.17918491
v 1.99768252 -0.68679269 0.17959684
v 2.04681823 -0.73418186 0.20349874
v 1.88639307 -0.73470979 0.20368304
v 2.04681823 -0.79238835 0.13688775
v 1.88639307 -0.79229519 0.15352694
v 1.88639307 -0.79208815 0.13687690
v 2.04681823 -0.78326868 0.20349874
v 1.99077310 -0.73496856 0.20368304
v 1.99766685 -0.73498927 0.20368304
v 1.88639307 -0.78281321 0.20368304
v 2.04681823 -0.79254362 0.15351609
v 1.92412819 -0.79085632 0.17018782
v 1.88639307 -0.79075282 0.17018782
v 2.04681823 -0.79103230 0.17017697
v 1.99766685 -0.78289603 0.20368304
f 1 2 8
f 1 8 12
f 1 12 17
f 1 17 22
f 1 22 27
f 1 27 34
f 1 34 31
f 1 31 24
f 1 24 18
f 1 18 13
f 1 13 9
f 1 9 3
f 1 3 4
f 1 4 5
f 1 5 6
f 1 6 7
f 1 7 2
f 2 7 8
f 3 9 4
f 4 10 14
f 4 14 19
f 4 19 26
f 4 26 25
f 4 25 33
f 4 33 30
f 4 30 23
f 4 23 20
f 4 20 15
f 4 15 11
f 4 11 7
f 4 7 6
f 4 6 5
f 4 9 10
f 7 11 8
f 8 11 12
f 9 13 14
f 9 14 10
f 11 15 16
f 11 16 12
f 12 16 21
f 12 21 17
f 13 18 19
f 13 19 14
f 15 20 21
f 15 21 16
f 17 21 23
f 17 23 22
f 18 24 25
f 18 25 26
f 18 26 19
f 20 23 21
f 22 23 28
f 22 28 29
f 22 29 35
f 22 35 27
f 23 30 35
f 23 35 29
f 23 29 28
f 24 31 25
f 25 32 33
f 25 31 32
f 27 35 30
f 27 30 32
f 27 32 34
f 30 33 32
f 31 34 32

