# https://github.com/mikedh/trimesh
v 1.14077303 -0.23201047 1.50575913
v 1.14187037 -0.23201047 1.50606520
v 1.14168169 -0.31514635 1.50619508
v 1.14077303 -0.31514635 1.50594462
v 1.12639835 -0.23201047 1.50792035
v 1.14187037 -0.31514635 1.50625075
v 1.14187037 -0.23201047 1.60038923
v 1.12947686 -0.31514635 1.50801309
v 1.12322549 -0.23201047 1.50849542
v 1.14187037 -0.31514635 1.60050981
v 1.10744562 -0.23201047 1.60047274
v 1.14187037 -0.24435673 1.60043560
v 1.12570817 -0.31514635 1.50870880
v 1.11380126 -0.23201047 1.51232630
v 1.14187037 -0.30990510 1.60050981
v 1.14077800 -0.31514635 1.60051911
v 1.10312080 -0.23201047 1.60048203
v 1.14187037 -0.25992590 1.60046344
v 1.09114438 -0.31514635 1.55027295
v 1.09114438 -0.23201047 1.54505076
v 1.14187037 -0.27657749 1.60048203
v 1.14077800 -0.29433594 1.60050057
v 1.09114438 -0.23201047 1.60049127
v 1.09114438 -0.24435673 1.60049127
v 1.12410932 -0.31514635 1.60049127
v 1.09114438 -0.31514635 1.55182196
v 1.09114438 -0.31505684 1.60042636
v 1.10330452 -0.31514635 1.60045420
v 1.10744562 -0.31514635 1.60046344
f 1 2 3
f 1 3 4
f 1 4 5
f 1 5 9
f 1 9 14
f 1 14 20
f 1 20 23
f 1 23 17
f 1 17 11
f 1 11 7
f 1 7 2
f 2 6 3
f 2 7 12
f 2 12 18
f 2 18 21
f 2 21 15
f 2 15 10
f 2 10 6
f 3 6 10
f 3 10 16
f 3 16 25
f 3 25 29
f 3 29 28
f 3 28 26
f 3 26 19
f 3 19 13
f 3 13 8
f 3 8 4
f 4 8 9
f 4 9 5
f 7 11 12
f 8 13 9
f 9 13 14
f 10 15 16
f 11 17 12
f 12 17 18
f 13 19 14
f 14 19 20
f 15 21 16
f 16 21 22
f 16 22 17
f 16 17 23
f 16 23 24
f 16 24 25
f 17 22 21
f 17 21 18
f 19 26 27
f 19 27 24
f 19 24 23
f 19 23 20
f 24 27 28
f 24 28 29
f 24 29 25
f 26 28 27

