# https://github.com/mikedh/trimesh
v 0.64077035 -0.23107266 1.89441998
v 0.64077035 -0.22766806 1.89444085
v 0.67719179 -0.18274907 1.89513966
v 0.67719179 -0.18821817 1.89513966
v 0.65006302 -0.23107266 1.89487888
v 0.62750204 -0.23107266 1.89465989
v 0.55375280 -0.19034061 1.89505621
v 0.55375280 -0.18052524 1.89505621
v 0.62709118 -0.16915243 1.89509793
v 0.63565879 -0.16915243 1.89509793
v 0.67719179 -0.17595436 1.89531692
v 0.67719179 -0.18976111 1.89519181
v 0.65704764 -0.23107266 1.90320155
v 0.67719179 -0.19654134 1.89542123
v 0.67719179 -0.21100727 1.89894634
v 0.67719179 -0.22150356 1.90707087
v 0.62410639 -0.23107266 1.89472248
v 0.55375280 -0.19681660 1.89529606
v 0.55375280 -0.17218758 1.89532735
v 0.62255964 -0.16431354 1.90188743
v 0.55375280 -0.16318351 1.90366045
v 0.64103622 -0.16433526 1.90195002
v 0.67719179 -0.16325593 1.90370217
v 0.67719179 -0.16525524 1.90215864
v 0.67719179 -0.17441145 1.89536908
v 0.67719179 -0.23107266 1.93157990
v 0.61725473 -0.23107266 1.89506664
v 0.55375280 -0.19866376 1.89536908
v 0.67409828 -0.16325593 1.90369174
v 0.60744241 -0.16317627 1.90361872
v 0.55375280 -0.15707697 1.92022233
v 0.62410639 -0.15709869 1.92022233
v 0.67719179 -0.15836635 1.91716649
v 0.67719179 -0.23107266 1.99816109
v 0.61555085 -0.23107266 1.89518138
v 0.55375280 -0.21100727 1.89912366
v 0.60744241 -0.15707697 1.92022233
v 0.55375280 -0.15716387 1.97021034
v 0.67719179 -0.15725805 1.92022233
v 0.59077849 -0.15723632 1.97021034
v 0.67719179 -0.21100727 1.99995496
v 0.67409828 -0.23107266 1.99817158
v 0.55375280 -0.23107266 1.93289402
v 0.55375280 -0.22096752 1.90731072
v 0.55375280 -0.15764197 1.97391277
v 0.67719179 -0.15756955 1.96712327
v 0.64077035 -0.15741015 1.97021034
v 0.57411451 -0.15943843 1.98687653
v 0.67719179 -0.20792139 2.00015309
v 0.67409828 -0.21100727 1.99996534
v 0.67070264 -0.23107266 1.99818195
v 0.55375280 -0.23107266 1.99812986
v 0.55375280 -0.15939498 1.98687653
v 0.67719179 -0.15759126 1.97021034
v 0.64077035 -0.15970645 1.98687653
v 0.65743433 -0.15977890 1.98687653
v 0.65743433 -0.16568987 1.99774397
v 0.67409828 -0.16573333 1.99771262
v 0.67719179 -0.19433920 2.00095621
v 0.65743433 -0.21100727 1.99999669
v 0.62410639 -0.23107266 1.99829663
v 0.65403869 -0.23107266 1.99822367
v 0.55375280 -0.21100727 1.99992373
v 0.55745058 -0.23107266 1.99814023
v 0.55375280 -0.16550153 1.99771262
v 0.57411451 -0.16550877 1.99773348
v 0.67719179 -0.15946016 1.98378940
v 0.67719179 -0.16466124 1.99571025
v 0.67719179 -0.15988756 1.98687653
v 0.67409828 -0.17767840 2.00051811
v 0.67719179 -0.17767840 2.00050774
v 0.67719179 -0.16574782 1.99770225
v 0.55375280 -0.17767840 2.00053898
v 0.67409828 -0.19433920 2.00095621
v 0.62410639 -0.21100727 1.99999669
v 0.62069871 -0.23107266 1.99829663
v 0.55375280 -0.19804080 2.00069550
v 0.60744241 -0.23107266 1.99826540
v 0.55375280 -0.16821796 1.99834885
v 0.55375280 -0.19433920 2.00090400
f 1 2 3
f 1 3 4
f 1 4 5
f 1 5 13
f 1 13 26
f 1 26 34
f 1 34 42
f 1 42 51
f 1 51 62
f 1 62 61
f 1 61 76
f 1 76 78
f 1 78 64
f 1 64 52
f 1 52 43
f 1 43 35
f 1 35 27
f 1 27 17
f 1 17 6
f 1 6 7
f 1 7 8
f 1 8 2
f 2 9 10
f 2 10 3
f 2 8 9
f 3 11 25
f 3 25 24
f 3 24 23
f 3 23 33
f 3 33 39
f 3 39 46
f 3 46 54
f 3 54 67
f 3 67 69
f 3 69 68
f 3 68 72
f 3 72 71
f 3 71 59
f 3 59 49
f 3 49 41
f 3 41 34
f 3 34 26
f 3 26 16
f 3 16 15
f 3 15 14
f 3 14 12
f 3 12 4
f 3 10 11
f 4 12 5
f 5 12 14
f 5 14 15
f 5 15 16
f 5 16 13
f 6 17 7
f 7 18 28
f 7 28 36
f 7 36 44
f 7 44 43
f 7 43 52
f 7 52 63
f 7 63 77
f 7 77 80
f 7 80 73
f 7 73 79
f 7 79 65
f 7 65 53
f 7 53 45
f 7 45 38
f 7 38 31
f 7 31 21
f 7 21 19
f 7 19 8
f 7 17 18
f 8 19 9
f 9 20 10
f 9 19 21
f 9 21 20
f 10 20 22
f 10 22 23
f 10 23 24
f 10 24 25
f 10 25 11
f 13 16 26
f 17 27 28
f 17 28 18
f 20 29 23
f 20 23 22
f 20 21 30
f 20 30 29
f 21 31 30
f 23 29 30
f 23 30 32
f 23 32 33
f 27 35 28
f 28 35 36
f 30 31 37
f 30 37 32
f 31 38 37
f 32 39 33
f 32 37 38
f 32 38 40
f 32 40 39
f 34 41 50
f 34 50 42
f 35 43 44
f 35 44 36
f 38 45 40
f 39 40 47
f 39 47 46
f 40 45 48
f 40 48 47
f 41 49 50
f 42 50 51
f 45 53 48
f 46 47 54
f 47 55 56
f 47 56 54
f 47 48 55
f 48 53 57
f 48 57 58
f 48 58 55
f 49 59 60
f 49 60 50
f 50 60 61
f 50 61 62
f 50 62 51
f 52 64 63
f 53 65 66
f 53 66 57
f 54 56 67
f 55 58 56
f 56 58 68
f 56 68 69
f 56 69 67
f 57 70 58
f 57 66 70
f 58 70 71
f 58 71 72
f 58 72 68
f 59 71 70
f 59 70 73
f 59 73 74
f 59 74 75
f 59 75 60
f 60 75 76
f 60 76 61
f 63 64 78
f 63 78 76
f 63 76 75
f 63 75 77
f 65 79 66
f 66 79 73
f 66 73 70
f 73 80 74
f 74 80 75
f 75 80 77

