# https://github.com/mikedh/trimesh
v -1.92779109 -0.16037298 1.42494773
v -1.92547686 -0.14752455 1.42494773
v -1.92547686 -0.14755057 1.40830994
v -1.92777035 -0.16030357 1.40830994
v -1.92598303 -0.17349037 1.40830994
v -1.92598303 -0.17356846 1.42494773
v -1.92598303 -0.17355108 1.44158555
v -1.92587979 -0.17330819 1.75819311
v -1.92757413 -0.16037298 1.82484215
v -1.92538388 -0.14777615 1.82484215
v -1.92113767 -0.13918737 1.42494773
v -1.92123065 -0.13936956 1.74150636
v -1.92108605 -0.13917003 1.40830994
v -1.92595203 -0.17361182 1.40830994
v -1.90868848 -0.21120281 1.86408785
v -1.92584880 -0.17315202 1.82484215
v -1.92570408 -0.17289176 1.90817801
v -1.92732617 -0.16037298 1.90817801
v -1.92732617 -0.16036431 1.90817801
v -1.92530114 -0.14781084 1.90817801
v -1.92117903 -0.13943897 1.82484215
v -1.92123065 -0.13939558 1.75819311
v -1.91286233 -0.13051185 1.80815546
v -1.91282096 -0.13062465 1.57493263
v -1.91282096 -0.13064199 1.55824587
v -1.91282096 -0.13066801 1.54160805
v -1.91280034 -0.13091093 1.40830994
v -1.91285195 -0.13052055 1.82484215
v -1.90982491 -0.20740296 1.40830994
v -1.83921046 -0.21120281 1.86408785
v -1.90862649 -0.21120281 1.87402158
v -1.90849220 -0.21120281 1.89154019
v -1.90824424 -0.21120281 1.90817801
v -1.92107568 -0.13946499 1.90817801
v -1.89866712 -0.12405726 1.80815546
v -1.89866712 -0.12405726 1.79151763
v -1.89866712 -0.12406597 1.77483094
v -1.89866712 -0.12466455 1.40830994
v -1.89866712 -0.12409198 1.82484215
v -1.91285195 -0.13056391 1.84147998
v -1.83783644 -0.20740296 1.40830994
v -1.83913816 -0.21120281 1.90348029
v -1.83915884 -0.21120281 1.90817801
v -1.91273835 -0.13094565 1.90817801
v -1.91280034 -0.13066801 1.86408785
v -1.91281065 -0.13063332 1.85816673
v -1.88199241 -0.12260847 1.79151763
v -1.88199241 -0.12258245 1.77483094
v -1.88200272 -0.12283402 1.90817801
v -1.88199241 -0.12304225 1.40830994
v -1.89866712 -0.12416139 1.84147998
v -1.82534588 -0.17591952 1.40830994
v -1.82458133 -0.17959793 1.90817801
v -1.83774345 -0.20740296 1.50828353
v -1.89866712 -0.12454311 1.90817801
v -1.91275903 -0.13072008 1.87485343
v -1.86535899 -0.12351071 1.79151763
v -1.86535899 -0.12338927 1.60825715
v -1.86535899 -0.12335455 1.54160805
v -1.86535899 -0.12335455 1.52492135
v -1.86535899 -0.12339794 1.44158555
v -1.86535899 -0.12392715 1.90817801
v -1.86535899 -0.12355411 1.80815546
v -1.86535899 -0.12344130 1.42494773
v -1.86535899 -0.12351071 1.40830994
v -1.82502562 -0.17446203 1.40830994
v -1.82326930 -0.17127810 1.90817801
v -1.82371354 -0.16845857 1.41545442
v -1.82253574 -0.16183047 1.40830994
v -1.84869459 -0.12639966 1.79151763
v -1.84869459 -0.12608736 1.54160805
v -1.84869459 -0.12663391 1.89154019
v -1.84869459 -0.12606131 1.40830994
v -1.84869459 -0.12672933 1.90817801
v -1.82225685 -0.16037298 1.90817801
v -1.82256673 -0.14849621 1.40830994
v -1.83453038 -0.13196934 1.89154019
v -1.83466473 -0.13179583 1.40830994
v -1.83462336 -0.13203875 1.90817801
v -1.82265972 -0.14893866 1.90817801
v -1.82257710 -0.14847886 1.72486859
v -1.82262872 -0.14851355 1.84147998
v -1.82258742 -0.14838343 1.40830994
v -1.82624467 -0.14028050 1.87485343
v -1.82627566 -0.14022844 1.86408785
v -1.82623436 -0.14018505 1.77483094
v -1.82623436 -0.14010699 1.40830994
v -1.83453038 -0.13187391 1.40830994
v -1.82629635 -0.14059280 1.90817801
v -1.82392013 -0.14560727 1.86408785
v -1.82620336 -0.14055811 1.89154019
v -1.82264941 -0.14852223 1.85816673
f 1 2 3
f 1 3 4
f 1 4 5
f 1 5 6
f 1 6 7
f 1 7 8
f 1 8 9
f 1 9 10
f 1 10 2
f 2 11 3
f 2 10 12
f 2 12 11
f 3 13 27
f 3 27 38
f 3 38 50
f 3 50 65
f 3 65 73
f 3 73 78
f 3 78 88
f 3 88 87
f 3 87 83
f 3 83 76
f 3 76 69
f 3 69 66
f 3 66 52
f 3 52 41
f 3 41 29
f 3 29 14
f 3 14 5
f 3 5 4
f 3 11 13
f 5 14 6
f 6 14 15
f 6 15 7
f 7 15 8
f 8 16 9
f 8 15 16
f 9 16 17
f 9 17 18
f 9 18 19
f 9 19 20
f 9 20 10
f 10 21 22
f 10 22 12
f 10 20 21
f 11 12 23
f 11 23 24
f 11 24 25
f 11 25 26
f 11 26 27
f 11 27 13
f 12 22 21
f 12 21 28
f 12 28 23
f 14 29 15
f 15 30 42
f 15 42 43
f 15 43 33
f 15 33 32
f 15 32 31
f 15 31 17
f 15 17 16
f 15 29 41
f 15 41 30
f 17 31 32
f 17 32 33
f 17 33 43
f 17 43 53
f 17 53 67
f 17 67 75
f 17 75 80
f 17 80 89
f 17 89 79
f 17 79 74
f 17 74 62
f 17 62 49
f 17 49 55
f 17 55 44
f 17 44 34
f 17 34 20
f 17 20 19
f 17 19 18
f 20 34 21
f 21 34 28
f 23 35 36
f 23 36 37
f 23 37 24
f 23 28 35
f 24 37 25
f 25 37 26
f 26 37 38
f 26 38 27
f 28 39 35
f 28 34 40
f 28 40 39
f 30 41 42
f 34 44 45
f 34 45 46
f 34 46 40
f 35 47 48
f 35 48 36
f 35 39 49
f 35 49 47
f 36 48 37
f 37 48 50
f 37 50 38
f 39 40 51
f 39 51 49
f 40 46 51
f 41 52 53
f 41 53 54
f 41 54 42
f 42 53 43
f 42 54 53
f 44 55 56
f 44 56 45
f 45 56 46
f 46 56 55
f 46 55 51
f 47 57 48
f 47 49 57
f 48 57 58
f 48 58 59
f 48 59 60
f 48 60 61
f 48 61 50
f 49 62 63
f 49 63 57
f 49 51 55
f 50 61 64
f 50 64 65
f 52 66 53
f 53 66 68
f 53 68 69
f 53 69 67
f 57 70 71
f 57 71 58
f 57 63 72
f 57 72 70
f 58 71 59
f 59 71 73
f 59 73 60
f 60 73 61
f 61 73 64
f 62 74 72
f 62 72 63
f 64 73 65
f 66 69 68
f 67 69 75
f 69 76 75
f 70 72 77
f 70 77 71
f 71 78 73
f 71 77 78
f 72 74 77
f 74 79 77
f 75 76 81
f 75 81 82
f 75 82 80
f 76 83 81
f 77 79 84
f 77 84 85
f 77 85 86
f 77 86 87
f 77 87 88
f 77 88 78
f 79 89 84
f 80 90 84
f 80 84 91
f 80 91 89
f 80 82 92
f 80 92 90
f 81 83 86
f 81 86 84
f 81 84 82
f 82 84 90
f 82 90 92
f 83 87 86
f 84 89 91
f 84 86 85

