# https://github.com/mikedh/trimesh
v 0.70743668 -0.78991781 1.13439247
v 0.65744852 -0.78705396 1.09735258
v 0.70743668 -0.78705396 1.09735258
v 0.72410841 -0.78700848 1.09735258
v 0.72161847 -0.78987886 1.13439247
v 0.59059920 -0.78964506 1.13439247
v 0.59059920 -0.78694354 1.09735258
v 0.64077678 -0.78703447 1.09735258
v 0.65126428 -0.78704746 1.09735258
v 0.72410841 -0.78986586 1.13439247
v 0.72884469 -0.78697603 1.09735258
v 0.72884469 -0.78983987 1.13439247
v 0.59059920 -0.73432255 1.13439247
v 0.59059920 -0.73697862 1.09735258
v 0.72884469 -0.73527720 1.09735258
v 0.72884469 -0.73438750 1.13439247
v 0.59059920 -0.73552395 1.09741785
v 0.60801522 -0.72357497 1.13439247
v 0.59077515 -0.73552395 1.09735258
v 0.64697455 -0.73338095 1.09735258
v 0.64077678 -0.72357498 1.11676996
v 0.65265811 -0.72357498 1.12107406
v 0.65498566 -0.72357498 1.12233954
v 0.65738086 -0.72357498 1.13439247
v 0.61020743 -0.72357497 1.12273478
v 0.62411861 -0.72357497 1.11713619
v 0.62411861 -0.73342639 1.09735258
v 0.64077678 -0.73336796 1.09735258
f 1 2 3
f 1 3 4
f 1 4 5
f 1 5 10
f 1 10 12
f 1 12 16
f 1 16 24
f 1 24 18
f 1 18 13
f 1 13 6
f 1 6 7
f 1 7 8
f 1 8 9
f 1 9 2
f 2 9 8
f 2 8 7
f 2 7 14
f 2 14 19
f 2 19 27
f 2 27 28
f 2 28 20
f 2 20 15
f 2 15 11
f 2 11 4
f 2 4 3
f 4 10 5
f 4 11 12
f 4 12 10
f 6 13 17
f 6 17 14
f 6 14 7
f 11 15 16
f 11 16 12
f 13 18 17
f 14 17 19
f 15 20 21
f 15 21 22
f 15 22 23
f 15 23 24
f 15 24 16
f 17 18 25
f 17 25 26
f 17 26 19
f 18 24 23
f 18 23 22
f 18 22 21
f 18 21 26
f 18 26 25
f 19 26 27
f 20 28 21
f 21 28 27
f 21 27 26

