# https://github.com/mikedh/trimesh
v -1.99519976 1.55604681 0.35859485
v -1.99334784 1.53936692 0.35859485
v -1.99514787 1.57255499 0.35859485
v -1.99519976 1.57272670 0.20868792
v -1.99518247 1.55606317 0.20868792
v -1.98921136 1.52912190 0.35859485
v -1.99333054 1.53936692 0.24202993
v -1.98922000 1.52910554 0.24202993
v -1.99499209 1.58939022 0.35859485
v -1.99501804 1.58939839 0.20868792
v -1.99330460 1.53938331 0.20868792
v -1.97859305 1.52675074 0.35859485
v -1.98921136 1.52912190 0.22535893
v -1.97859305 1.52675891 0.24202993
v -1.99094209 1.60242341 0.35859485
v -1.99089020 1.60253789 0.20868792
v -1.98919400 1.52914641 0.20868792
v -1.96207288 1.52631738 0.35859485
v -1.97859305 1.52679162 0.22535893
v -1.96191716 1.52639915 0.24202993
v -1.99089885 1.60254607 0.35859485
v -1.97859305 1.60831861 0.20868792
v -1.99078630 1.60260331 0.35859485
v -1.97859305 1.60849032 0.35859485
v -1.97858440 1.52683250 0.20868792
v -1.96191716 1.52631738 0.35859485
v -1.96191716 1.52643186 0.22535893
v -1.94524985 1.52652180 0.24202993
v -1.94524985 1.52649725 0.25871560
v -1.94524985 1.52639097 0.35859485
v -1.96191716 1.60938154 0.20868792
v -1.96191716 1.60983125 0.35859485
v -1.96190845 1.52648092 0.20868792
v -1.94523256 1.52660357 0.20868792
v -1.94524985 1.52655451 0.22535893
v -1.92857390 1.52655451 0.35859485
v -1.94524985 1.60891549 0.20868792
v -1.96176138 1.60983125 0.35859485
v -1.94524985 1.60938972 0.35859485
v -1.92856525 1.52703689 0.20868792
v -1.92857390 1.52692243 0.22535893
v -1.92857390 1.52683250 0.24202993
v -1.92857390 1.52670985 0.29205761
v -1.91650178 1.52887659 0.34208529
v -1.91660567 1.52882754 0.35859485
v -1.91665756 1.52905647 0.24202993
v -1.91658832 1.52895836 0.29205761
v -1.93228639 1.60303664 0.20868792
v -1.94512866 1.60933248 0.35859485
v -1.91679605 1.52922000 0.20868792
v -1.91671816 1.52913006 0.22535893
v -1.91642389 1.52895019 0.35859485
v -1.90973452 1.53936692 0.29205761
v -1.90990759 1.53936692 0.24202993
v -1.91007203 1.53936692 0.20868792
v -1.90997678 1.53936692 0.22535893
v -1.91679605 1.58410008 0.20868792
v -1.93236428 1.60322471 0.35859485
v -1.90985565 1.53936692 0.34208529
v -1.90992489 1.53936692 0.35859485
v -1.90688736 1.55604681 0.20868792
v -1.90682682 1.55604681 0.24202993
v -1.90680088 1.55604681 0.27538661
v -1.90680953 1.55604681 0.29205761
v -1.91017586 1.57271034 0.20868792
v -1.91771333 1.58361768 0.35859485
v -1.91119698 1.57271034 0.34208529
v -1.91106720 1.57271034 0.32539962
v -1.90989895 1.53952230 0.35859485
v -1.90701720 1.55604681 0.32539962
v -1.91140471 1.57281664 0.35859485
v -1.91134412 1.57271034 0.35859485
v -1.90714698 1.55604681 0.34208529
v -1.90729411 1.55604681 0.35859485
f 1 2 6
f 1 6 12
f 1 12 18
f 1 18 26
f 1 26 30
f 1 30 36
f 1 36 45
f 1 45 52
f 1 52 60
f 1 60 69
f 1 69 74
f 1 74 72
f 1 72 71
f 1 71 66
f 1 66 58
f 1 58 49
f 1 49 39
f 1 39 38
f 1 38 32
f 1 32 24
f 1 24 23
f 1 23 21
f 1 21 15
f 1 15 9
f 1 9 3
f 1 3 4
f 1 4 5
f 1 5 2
f 2 5 7
f 2 7 8
f 2 8 6
f 3 9 4
f 4 10 16
f 4 16 22
f 4 22 31
f 4 31 37
f 4 37 48
f 4 48 57
f 4 57 65
f 4 65 61
f 4 61 55
f 4 55 50
f 4 50 40
f 4 40 34
f 4 34 33
f 4 33 25
f 4 25 17
f 4 17 11
f 4 11 5
f 4 9 10
f 5 11 7
f 6 8 12
f 7 11 13
f 7 13 8
f 8 13 14
f 8 14 12
f 9 15 10
f 10 15 16
f 11 17 13
f 12 14 18
f 13 17 14
f 14 17 19
f 14 19 27
f 14 27 20
f 14 20 18
f 15 21 16
f 16 21 23
f 16 23 24
f 16 24 22
f 17 25 19
f 18 20 26
f 19 25 27
f 20 27 35
f 20 35 28
f 20 28 29
f 20 29 30
f 20 30 26
f 22 24 32
f 22 32 31
f 25 33 27
f 27 33 34
f 27 34 35
f 28 35 36
f 28 36 29
f 29 36 30
f 31 32 38
f 31 38 39
f 31 39 37
f 34 40 41
f 34 41 42
f 34 42 35
f 35 42 43
f 35 43 36
f 36 44 45
f 36 43 46
f 36 46 47
f 36 47 44
f 37 39 48
f 39 49 48
f 40 50 41
f 41 50 51
f 41 51 42
f 42 51 46
f 42 46 43
f 44 52 45
f 44 47 46
f 44 46 53
f 44 53 52
f 46 54 53
f 46 51 55
f 46 55 56
f 46 56 54
f 48 49 58
f 48 58 57
f 50 55 51
f 52 59 60
f 52 53 59
f 53 54 61
f 53 61 62
f 53 62 63
f 53 63 64
f 53 64 59
f 54 56 61
f 55 61 56
f 57 58 66
f 57 66 67
f 57 67 68
f 57 68 65
f 59 64 60
f 60 64 69
f 61 65 62
f 62 65 63
f 63 65 64
f 64 70 69
f 64 65 70
f 65 68 70
f 66 71 67
f 67 71 72
f 67 72 74
f 67 74 73
f 67 73 70
f 67 70 68
f 69 70 73
f 69 73 74

