# https://github.com/mikedh/trimesh
v -3.76446304 1.62646257 1.38962200
v -3.76744469 1.62646257 1.39069895
v -3.77787608 1.65607124 1.39652811
v -3.76444586 1.65607124 1.39182718
v -3.74777623 1.65607124 1.39198103
v -3.74779341 1.62646257 1.39078441
v -3.78041948 1.62646257 1.39634862
v -3.78210363 1.62646257 1.40005807
v -3.78359872 1.65607124 1.40940014
v -3.73110666 1.65607124 1.39582723
v -3.69793069 1.62646257 1.39612640
v -3.70196060 1.62646257 1.39564774
v -3.78548911 1.62646257 1.40827190
v -3.78570388 1.62646257 1.41313524
v -3.78422597 1.65607124 1.42606709
v -3.72294367 1.65607124 1.39977603
v -3.69793069 1.63338788 1.39869053
v -3.69793069 1.62646257 1.47610217
v -3.78466421 1.62646257 1.44275968
v -3.78419162 1.65607124 1.44273404
v -3.72198989 1.65607124 1.40023756
v -3.69793069 1.65607124 1.42761412
v -3.69793069 1.65607124 1.47608505
v -3.76075961 1.62646257 1.47693977
v -3.78371043 1.62646257 1.45943519
v -3.78325501 1.65607124 1.45940954
v -3.71444562 1.65607124 1.47600814
v -3.74779341 1.65607124 1.47584574
v -3.76446304 1.65607124 1.47566625
v -3.76446304 1.62646257 1.47687995
v -3.77779013 1.62646257 1.47217902
v -3.77759248 1.65607124 1.47162343
f 1 2 3
f 1 3 4
f 1 4 5
f 1 5 6
f 1 6 12
f 1 12 11
f 1 11 18
f 1 18 24
f 1 24 30
f 1 30 31
f 1 31 25
f 1 25 19
f 1 19 14
f 1 14 13
f 1 13 8
f 1 8 7
f 1 7 2
f 2 7 3
f 3 7 8
f 3 8 9
f 3 9 15
f 3 15 20
f 3 20 26
f 3 26 32
f 3 32 29
f 3 29 28
f 3 28 27
f 3 27 23
f 3 23 22
f 3 22 21
f 3 21 16
f 3 16 10
f 3 10 5
f 3 5 4
f 5 10 11
f 5 11 12
f 5 12 6
f 8 13 9
f 9 13 14
f 9 14 15
f 10 16 17
f 10 17 11
f 11 17 22
f 11 22 23
f 11 23 18
f 14 19 20
f 14 20 15
f 16 21 17
f 17 21 22
f 18 23 24
f 19 25 26
f 19 26 20
f 23 27 24
f 24 27 28
f 24 28 29
f 24 29 30
f 25 31 32
f 25 32 26
f 29 32 30
f 30 32 31

