# https://github.com/mikedh/trimesh
v -3.24956936 -0.17767599 1.13157045
v -3.24956936 -0.19434644 1.13218392
v -3.26625560 -0.19434644 1.13218392
v -3.31624016 -0.17767599 1.13167562
v -3.33292643 -0.16217872 1.13822214
v -3.26625560 -0.16209944 1.13820460
v -3.24956936 -0.16214701 1.13817832
v -3.02942214 -0.17767599 1.13164057
v -3.02942214 -0.18122729 1.13177203
v -3.02942214 -0.19434644 1.13232414
v -3.02942214 -0.19788189 1.13298142
v -3.24956936 -0.21100106 1.13639927
v -3.26625560 -0.21100106 1.13640804
v -3.33292643 -0.19434644 1.13238549
v -3.33292643 -0.17767599 1.13171067
v -3.34957557 -0.16214701 1.13826595
v -3.26625560 -0.15505236 1.15354115
v -3.14963726 -0.15514749 1.15354115
v -3.13295102 -0.15516334 1.15354115
v -3.14963726 -0.16223421 1.13830978
v -3.40819995 -0.15500479 1.15354115
v -3.38291099 -0.15501272 1.15354115
v -3.02942214 -0.16251957 1.13823966
v -3.21627102 -0.16228970 1.13814325
v -3.02942214 -0.16575380 1.13678488
v -3.02942214 -0.21392612 1.13847628
v -3.23292019 -0.21100106 1.13647815
v -3.24956936 -0.22069576 1.14282309
v -3.26625560 -0.22067991 1.14283185
v -3.33292643 -0.21100106 1.13693387
v -3.34957557 -0.19434644 1.13250819
v -3.34957557 -0.17767599 1.13181584
v -3.40819995 -0.16217079 1.13852011
v -3.36626185 -0.16213908 1.13831854
v -3.40819995 -0.15506821 1.16213837
v -3.14963726 -0.15529018 1.17020977
v -3.13295102 -0.16225006 1.13833606
v -3.13295102 -0.15530604 1.17020977
v -3.11630186 -0.15526640 1.15354115
v -3.40819995 -0.15846889 1.14625848
v -3.02942214 -0.15580541 1.15354115
v -3.02942214 -0.22094150 1.14351543
v -3.02942214 -0.23597901 1.15556556
v -3.33292643 -0.22038660 1.14325251
v -3.34957557 -0.21100106 1.13730194
v -3.40819995 -0.19434644 1.13347218
v -3.36626185 -0.19434644 1.13274480
v -3.36626185 -0.17767599 1.13199111
v -3.40819995 -0.17767599 1.13247312
v -3.38291099 -0.16213908 1.13841493
v -3.40819995 -0.15515541 1.17020977
v -3.40819995 -0.15529018 1.17879824
v -3.40819995 -0.15541699 1.18686963
v -3.13295102 -0.15570238 1.18686963
v -3.11630186 -0.15577373 1.18686963
v -3.02942214 -0.15627313 1.18686963
v -3.02942214 -0.15621764 1.18332031
v -3.02942214 -0.15601945 1.17020977
v -3.02942214 -0.23597901 1.22109202
v -3.40819995 -0.23597901 1.16286576
v -3.34957557 -0.22023600 1.14355048
v -3.40819995 -0.21945915 1.14499650
v -3.40819995 -0.21178582 1.13980837
v -3.36626185 -0.21100106 1.13787159
v -3.40819995 -0.20240821 1.13623276
v -3.40819995 -0.18574566 1.13291131
v -3.40819995 -0.15650300 1.19546685
v -3.24956936 -0.15767620 1.20353827
v -3.13295102 -0.15789814 1.20353827
v -3.02942214 -0.15841340 1.20353827
v -3.02942214 -0.22767151 1.22107450
v -3.03116491 -0.23597901 1.22109202
v -3.40819995 -0.23597901 1.21983881
v -3.39959726 -0.21100106 1.13905469
v -3.38291099 -0.21100106 1.13845876
v -3.40819995 -0.15755729 1.20353827
v -3.23292019 -0.16440622 1.21539560
v -3.02942214 -0.16487391 1.21542189
v -3.02942214 -0.16349459 1.21288916
v -3.02942214 -0.22412022 1.22105697
v -3.03294478 -0.22767151 1.22106573
v -3.04125083 -0.23597901 1.22106573
v -3.40819995 -0.22767151 1.21980376
v -3.40790330 -0.23597901 1.21984757
v -3.40819995 -0.16111652 1.20955895
v -3.24956936 -0.16439829 1.21536930
v -3.40819995 -0.16445378 1.21516773
v -3.02942214 -0.17767599 1.21980376
v -3.02942214 -0.17493326 1.21886604
v -3.02942214 -0.21100106 1.22097810
v -3.31624016 -0.22767151 1.22019812
v -3.32458330 -0.23597901 1.22019812
v -3.40819995 -0.21100106 1.21962848
v -3.33292643 -0.22767151 1.22014553
v -3.34957557 -0.21100106 1.21990016
v -3.34123247 -0.23597901 1.22013677
v -3.40819995 -0.17767599 1.21877840
v -3.24956936 -0.17767599 1.21922535
v -3.03294478 -0.17767599 1.21979500
v -3.02942214 -0.19434644 1.22076777
v -3.02942214 -0.20744976 1.22093427
v -3.33292643 -0.21100106 1.21997027
v -3.33292643 -0.23597901 1.22017184
v -3.40819995 -0.19434644 1.21930422
v -3.34957557 -0.19434644 1.21960219
v -3.33292643 -0.19434644 1.21967230
f 1 2 3
f 1 3 4
f 1 4 5
f 1 5 6
f 1 6 7
f 1 7 8
f 1 8 2
f 2 8 9
f 2 9 10
f 2 10 11
f 2 11 3
f 3 11 12
f 3 12 13
f 3 13 14
f 3 14 15
f 3 15 4
f 4 15 16
f 4 16 5
f 5 16 6
f 6 17 18
f 6 18 19
f 6 19 20
f 6 20 7
f 6 16 21
f 6 21 22
f 6 22 17
f 7 20 23
f 7 23 24
f 7 24 25
f 7 25 8
f 8 25 23
f 8 23 41
f 8 41 58
f 8 58 57
f 8 57 56
f 8 56 70
f 8 70 79
f 8 79 78
f 8 78 89
f 8 89 88
f 8 88 100
f 8 100 101
f 8 101 90
f 8 90 80
f 8 80 71
f 8 71 59
f 8 59 43
f 8 43 42
f 8 42 26
f 8 26 11
f 8 11 10
f 8 10 9
f 11 26 27
f 11 27 12
f 12 27 26
f 12 26 28
f 12 28 13
f 13 28 29
f 13 29 30
f 13 30 31
f 13 31 14
f 14 31 32
f 14 32 15
f 15 32 33
f 15 33 34
f 15 34 16
f 16 34 21
f 17 22 35
f 17 35 36
f 17 36 18
f 18 36 38
f 18 38 19
f 19 37 20
f 19 38 39
f 19 39 23
f 19 23 37
f 20 37 23
f 21 40 33
f 21 33 49
f 21 49 66
f 21 66 46
f 21 46 65
f 21 65 63
f 21 63 62
f 21 62 60
f 21 60 73
f 21 73 83
f 21 83 93
f 21 93 104
f 21 104 97
f 21 97 87
f 21 87 85
f 21 85 76
f 21 76 67
f 21 67 53
f 21 53 52
f 21 52 51
f 21 51 35
f 21 35 22
f 21 34 40
f 23 25 24
f 23 39 41
f 26 42 28
f 28 42 43
f 28 43 29
f 29 44 30
f 29 43 44
f 30 44 45
f 30 45 46
f 30 46 47
f 30 47 31
f 31 48 32
f 31 47 49
f 31 49 48
f 32 48 33
f 33 40 50
f 33 50 34
f 33 48 49
f 34 50 40
f 35 51 36
f 36 51 52
f 36 52 53
f 36 53 38
f 38 53 54
f 38 54 55
f 38 55 56
f 38 56 57
f 38 57 58
f 38 58 41
f 38 41 39
f 43 59 72
f 43 72 82
f 43 82 92
f 43 92 103
f 43 103 96
f 43 96 84
f 43 84 73
f 43 73 60
f 43 60 44
f 44 60 61
f 44 61 45
f 45 61 62
f 45 62 63
f 45 63 64
f 45 64 65
f 45 65 46
f 46 66 47
f 47 66 49
f 53 67 68
f 53 68 54
f 54 69 55
f 54 68 69
f 55 69 70
f 55 70 56
f 59 71 72
f 60 62 61
f 63 65 74
f 63 74 75
f 63 75 64
f 64 75 65
f 65 75 74
f 67 76 68
f 68 76 77
f 68 77 69
f 69 78 79
f 69 79 70
f 69 77 78
f 71 80 81
f 71 81 72
f 72 81 82
f 73 84 83
f 76 85 86
f 76 86 77
f 77 86 87
f 77 87 88
f 77 88 89
f 77 89 78
f 80 90 91
f 80 91 81
f 81 91 92
f 81 92 82
f 83 84 94
f 83 94 95
f 83 95 93
f 84 96 94
f 85 87 86
f 87 97 98
f 87 98 99
f 87 99 88
f 88 99 100
f 90 101 102
f 90 102 94
f 90 94 91
f 91 94 103
f 91 103 92
f 93 95 105
f 93 105 104
f 94 96 103
f 94 102 95
f 95 102 106
f 95 106 105
f 97 104 105
f 97 105 106
f 97 106 100
f 97 100 98
f 98 100 99
f 100 106 102
f 100 102 101

