# https://github.com/mikedh/trimesh
v -3.46627641 -0.27770550 0.56851401
v -3.44952824 -0.27151164 0.56851401
v -3.46627641 -0.27151164 0.56851401
v -3.48293744 -0.27151164 0.56850444
v -3.49960429 -0.41104541 0.56844705
v -3.48293744 -0.41104541 0.56845661
v -3.44952824 -0.27151164 0.53198948
v -3.46627641 -0.41104541 0.56844705
v -3.44952824 -0.41095938 0.56842791
v -3.49960429 -0.27151164 0.56848531
v -3.50889655 -0.41104541 0.56842791
v -3.49960429 -0.42773440 0.56843748
v -3.48293744 -0.42773440 0.56844705
v -3.44958635 -0.27151164 0.51068509
v -3.44952824 -0.27770550 0.51074249
v -3.44952824 -0.42764838 0.56840878
v -3.50889655 -0.27151164 0.56845661
v -3.50889655 -0.42033619 0.56841835
v -3.50889655 -0.51096432 0.56832268
v -3.49960429 -0.52765331 0.56832268
v -3.44961541 -0.42773440 0.56840878
v -3.47389505 -0.27151164 0.47736526
v -3.47294199 -0.42773440 0.47603559
v -3.44952824 -0.41104541 0.51039809
v -3.48293744 -0.52765331 0.56829398
v -3.44952824 -0.67759621 0.56787308
v -3.50889655 -0.27151164 0.47682000
v -3.50889655 -0.52765331 0.56829398
v -3.50889655 -0.53690108 0.56827485
v -3.50889655 -0.67028401 0.56796874
v -3.49960429 -0.67763921 0.56795915
v -3.48293744 -0.66099323 0.56797828
v -3.48293744 -0.27151164 0.47236207
v -3.48293744 -0.42773440 0.47086014
v -3.44952824 -0.44438039 0.51038853
v -3.44952824 -0.46098336 0.51038853
v -3.47294780 -0.44438039 0.47603559
v -3.48293744 -0.44438039 0.47078361
v -3.48293744 -0.67763921 0.56793048
v -3.44961541 -0.67763921 0.56787308
v -3.44961541 -0.69432821 0.56778698
v -3.44952824 -0.69424219 0.56778698
v -3.50303295 -0.27151164 0.47368220
v -3.49960429 -0.27770550 0.47179767
v -3.50889655 -0.27770550 0.47677219
v -3.50889655 -0.67763921 0.56794961
v -3.50889655 -0.68693000 0.56791134
v -3.49960429 -0.69432821 0.56785394
v -3.49960429 -0.27151164 0.47188374
v -3.44952824 -0.66099323 0.51060856
v -3.48293744 -0.62765825 0.47211334
v -3.48293744 -0.52765331 0.47131934
v -3.44952824 -0.67763921 0.51070423
v -3.44961541 -0.71093117 0.51085729
v -3.47405196 -0.71093117 0.47773839
v -3.48293744 -0.71093117 0.47280214
v -3.49960429 -0.56098829 0.47192201
v -3.49960429 -0.54429930 0.47184547
v -3.49960429 -0.52765331 0.47177854
v -3.49960429 -0.46098336 0.47159674
v -3.49960429 -0.36102143 0.47146281
v -3.49960429 -0.71093117 0.47285953
v -3.44952824 -0.71093117 0.56768175
v -3.50889655 -0.36102143 0.47646606
v -3.50889655 -0.69432821 0.56786348
v -3.44952824 -0.69432821 0.51090513
v -3.50883265 -0.56098829 0.47706873
v -3.50842584 -0.71093117 0.47779579
v -3.50889655 -0.71093117 0.56768175
v -3.50889655 -0.44459545 0.47676260
v -3.50889655 -0.56098829 0.47764273
v -3.50889655 -0.54429930 0.47748006
v -3.50889655 -0.47767235 0.47695393
v -3.50889655 -0.46115541 0.47682959
v -3.50889655 -0.71093117 0.48541064
v -3.50889655 -0.59174250 0.47873326
v -3.50889655 -0.57591376 0.47814973
f 1 2 3
f 1 3 4
f 1 4 5
f 1 5 6
f 1 6 2
f 2 7 14
f 2 14 22
f 2 22 33
f 2 33 49
f 2 49 43
f 2 43 27
f 2 27 17
f 2 17 10
f 2 10 4
f 2 4 3
f 2 6 8
f 2 8 9
f 2 9 16
f 2 16 26
f 2 26 42
f 2 42 63
f 2 63 66
f 2 66 53
f 2 53 50
f 2 50 36
f 2 36 35
f 2 35 24
f 2 24 15
f 2 15 7
f 4 10 5
f 5 11 12
f 5 12 13
f 5 13 6
f 5 10 11
f 6 13 8
f 7 15 14
f 8 13 9
f 9 13 16
f 10 17 11
f 11 18 12
f 11 17 27
f 11 27 45
f 11 45 64
f 11 64 70
f 11 70 74
f 11 74 73
f 11 73 72
f 11 72 71
f 11 71 77
f 11 77 76
f 11 76 75
f 11 75 69
f 11 69 65
f 11 65 47
f 11 47 46
f 11 46 30
f 11 30 29
f 11 29 28
f 11 28 19
f 11 19 18
f 12 18 19
f 12 19 20
f 12 20 13
f 13 20 21
f 13 21 16
f 14 15 23
f 14 23 22
f 15 24 23
f 16 21 20
f 16 20 25
f 16 25 26
f 19 28 20
f 20 28 29
f 20 29 30
f 20 30 31
f 20 31 32
f 20 32 25
f 22 23 33
f 23 34 33
f 23 24 35
f 23 35 36
f 23 36 37
f 23 37 38
f 23 38 34
f 25 32 26
f 26 32 31
f 26 31 39
f 26 39 40
f 26 40 41
f 26 41 42
f 27 43 44
f 27 44 45
f 30 46 31
f 31 46 47
f 31 47 48
f 31 48 41
f 31 41 39
f 33 34 44
f 33 44 49
f 34 38 44
f 36 50 37
f 37 51 52
f 37 52 38
f 37 50 53
f 37 53 54
f 37 54 55
f 37 55 56
f 37 56 51
f 38 57 58
f 38 58 59
f 38 59 60
f 38 60 61
f 38 61 44
f 38 52 62
f 38 62 57
f 39 41 40
f 41 48 63
f 41 63 42
f 43 49 44
f 44 61 45
f 45 61 64
f 47 65 48
f 48 65 63
f 51 56 62
f 51 62 52
f 53 66 54
f 54 66 63
f 54 63 69
f 54 69 75
f 54 75 68
f 54 68 62
f 54 62 56
f 54 56 55
f 57 67 58
f 57 62 67
f 58 67 59
f 59 67 64
f 59 64 60
f 60 64 61
f 62 68 67
f 63 65 69
f 64 67 70
f 67 71 72
f 67 72 73
f 67 73 74
f 67 74 70
f 67 68 71
f 68 75 76
f 68 76 77
f 68 77 71

