# https://github.com/mikedh/trimesh
v -2.86389821 1.55333487 1.70960858
v -2.83056698 1.55357466 1.74294504
v -2.86389821 1.55357466 1.74294504
v -2.90650166 1.55343081 1.70960858
v -2.90650166 1.55640414 1.70104200
v -2.90650166 1.55884997 1.69414567
v -2.83056698 1.55880202 1.69418873
v -2.81387697 1.55884997 1.69408544
v -2.46367944 1.55942545 1.69339664
v -2.41365820 1.55448586 1.70960858
v -2.83056698 1.55582866 1.75961324
v -2.40794847 1.55472564 1.74294504
v -2.90650166 1.55582866 1.75961324
v -2.90650166 1.55462972 1.75039234
v -2.90650166 1.55367059 1.74294504
v -2.90650166 1.57275755 1.68681033
v -2.49705947 1.57275755 1.68522613
v -2.48036944 1.57275754 1.68517448
v -2.48036944 1.55947340 1.69326751
v -2.46367944 1.57275754 1.68527778
v -2.40794847 1.55942545 1.69402514
v -2.40794847 1.55453381 1.70960858
v -2.40794847 1.55793877 1.75961324
v -2.40794847 1.55956933 1.76283322
v -2.41365820 1.56273450 1.76907522
v -2.81387697 1.56129577 1.77009974
v -2.83056698 1.56124782 1.77013421
v -2.88058822 1.56119987 1.77018586
v -2.89722943 1.56119987 1.77020310
v -2.90650166 1.55822651 1.76434853
v -2.90650166 2.02297971 1.68618183
v -2.74716571 2.02297971 1.68505395
v -2.73042689 2.02297971 1.68495924
v -2.74716571 1.58944665 1.68598376
v -2.73042689 1.58944665 1.68592352
v -2.60944866 2.03074879 1.68457181
v -2.49705947 2.02297971 1.68442545
v -2.46367944 1.58944665 1.68512283
v -2.41365820 1.58944665 1.68515725
v -2.40794847 1.58944665 1.68516590
v -2.40794847 1.58373975 1.68540697
v -2.40794847 1.57275754 1.68597517
v -2.40794847 1.56820161 1.68872165
v -2.40794847 1.56278245 1.76906663
v -2.83056698 1.57275755 1.77225213
v -2.88058822 1.57275755 1.77234685
v -2.89722943 1.57275755 1.77236408
v -2.90650166 1.56119987 1.77020310
v -2.90650166 2.03731891 1.69374965
v -2.60944866 2.03132427 1.68457181
v -2.49705947 2.03156406 1.68445127
v -2.48036944 2.03161201 1.68444268
v -2.48036944 2.02297971 1.68441680
v -2.46367944 2.02297971 1.68442545
v -2.44703823 2.02297971 1.68443404
v -2.40794847 2.02297971 1.68446851
v -2.40794847 1.57275754 1.77018586
v -2.81387697 1.57275755 1.77218331
v -2.40794847 2.02297971 1.77050441
v -2.83056698 2.02297971 1.77192500
v -2.90650166 1.57275755 1.77236408
v -2.90650166 2.04321765 1.70960858
v -2.49705947 2.03746280 1.69293173
v -2.46367944 2.03156406 1.68444268
v -2.46367944 2.03746280 1.69293173
v -2.40794847 2.03741481 1.69293173
v -2.41365820 2.03151611 1.68448569
v -2.40794847 2.02859070 1.68447710
v -2.40794847 2.03357827 1.76932488
v -2.83056698 2.03453739 1.76999644
v -2.90650166 2.02811113 1.77107267
v -2.90650166 2.02297971 1.77192500
v -2.90650166 2.04297786 1.74294504
v -2.89722943 2.04302581 1.74294504
v -2.83056698 2.04326560 1.70960858
v -2.43034820 2.03151611 1.68446851
v -2.40794847 2.03146812 1.68448569
v -2.40794847 2.04302581 1.70960858
v -2.40794847 2.03933311 1.75962183
v -2.83056698 2.04038817 1.75962183
v -2.90650166 2.03453739 1.76999644
v -2.48036944 2.03952496 1.75962183
v -2.90650166 2.04153916 1.75216595
v -2.88058822 2.04302581 1.74294504
v -2.48036944 2.04288196 1.74294504
v -2.40794847 2.04283401 1.74294504
v -2.40794847 2.04053205 1.75392227
v -2.90650166 2.04034022 1.75962183
f 1 2 3
f 1 3 15
f 1 15 4
f 1 4 5
f 1 5 6
f 1 6 7
f 1 7 8
f 1 8 9
f 1 9 10
f 1 10 2
f 2 11 13
f 2 13 3
f 2 10 12
f 2 12 11
f 3 13 14
f 3 14 15
f 4 15 14
f 4 14 13
f 4 13 30
f 4 30 48
f 4 48 61
f 4 61 72
f 4 72 71
f 4 71 81
f 4 81 88
f 4 88 83
f 4 83 73
f 4 73 62
f 4 62 49
f 4 49 31
f 4 31 16
f 4 16 6
f 4 6 5
f 6 16 17
f 6 17 18
f 6 18 19
f 6 19 8
f 6 8 7
f 8 19 9
f 9 19 18
f 9 18 20
f 9 20 21
f 9 21 10
f 10 21 22
f 10 22 12
f 11 12 23
f 11 23 24
f 11 24 25
f 11 25 26
f 11 26 27
f 11 27 28
f 11 28 29
f 11 29 30
f 11 30 13
f 12 22 21
f 12 21 43
f 12 43 42
f 12 42 41
f 12 41 40
f 12 40 56
f 12 56 68
f 12 68 77
f 12 77 66
f 12 66 78
f 12 78 86
f 12 86 87
f 12 87 79
f 12 79 69
f 12 69 59
f 12 59 57
f 12 57 44
f 12 44 24
f 12 24 23
f 16 31 32
f 16 32 33
f 16 33 34
f 16 34 17
f 17 33 18
f 17 34 35
f 17 35 33
f 18 33 36
f 18 36 37
f 18 37 38
f 18 38 39
f 18 39 40
f 18 40 20
f 20 40 41
f 20 41 42
f 20 42 43
f 20 43 21
f 24 44 25
f 25 44 26
f 26 45 27
f 26 44 45
f 27 45 46
f 27 46 28
f 28 46 47
f 28 47 29
f 29 47 61
f 29 61 48
f 29 48 30
f 31 49 50
f 31 50 32
f 32 50 33
f 33 50 36
f 33 35 34
f 36 50 37
f 37 50 51
f 37 51 52
f 37 52 53
f 37 53 38
f 38 53 54
f 38 54 55
f 38 55 39
f 39 56 40
f 39 55 56
f 44 57 58
f 44 58 45
f 45 58 59
f 45 59 60
f 45 60 46
f 46 60 47
f 47 60 72
f 47 72 61
f 49 62 63
f 49 63 52
f 49 52 50
f 50 52 51
f 52 64 53
f 52 63 65
f 52 65 66
f 52 66 67
f 52 67 64
f 53 64 54
f 54 64 55
f 55 64 68
f 55 68 56
f 57 59 58
f 59 69 60
f 60 70 71
f 60 71 72
f 60 69 70
f 62 73 74
f 62 74 75
f 62 75 63
f 63 75 65
f 64 76 77
f 64 77 68
f 64 67 76
f 65 75 78
f 65 78 66
f 66 77 67
f 67 77 76
f 69 79 70
f 70 80 81
f 70 81 71
f 70 79 82
f 70 82 80
f 73 83 74
f 74 83 80
f 74 80 84
f 74 84 75
f 75 84 85
f 75 85 78
f 78 85 86
f 79 87 82
f 80 83 88
f 80 88 81
f 80 82 86
f 80 86 85
f 80 85 84
f 82 87 86

