# https://github.com/mikedh/trimesh
v -1.69020308 -0.75055390 1.89171507
v -1.69020308 -0.74197374 1.92317347
v -1.69020308 -0.79408258 1.89171507
v -1.80850344 -0.74981447 1.89171507
v -1.69020308 -0.74197374 2.00551893
v -1.80850344 -0.74197374 1.92272167
v -1.69020308 -0.81111040 1.92489046
v -1.80850344 -0.79699149 1.89171507
v -1.69020308 -0.76037578 2.00634351
v -1.74695016 -0.74197374 2.00575616
v -1.80850344 -0.74197374 2.00549628
v -1.69020308 -0.81313338 1.94156285
v -1.74868735 -0.81323802 1.94156285
v -1.80850344 -0.81205911 1.93172431
v -1.80850344 -0.81111040 1.92489046
v -1.80850344 -0.80798528 1.91577481
v -1.69020308 -0.77704086 2.00697604
v -1.74868735 -0.76037578 2.00654676
v -1.76360372 -0.74197374 2.00577869
v -1.76534091 -0.76037578 2.00659194
v -1.80850344 -0.75354652 2.00612881
v -1.79867115 -0.74197374 2.00559797
v -1.69020308 -0.81251951 1.97488505
v -1.73201061 -0.81259624 1.97488505
v -1.76534091 -0.81262414 1.97488505
v -1.80850344 -0.81258229 1.97488505
v -1.76534091 -0.81321708 1.94156285
v -1.80850344 -0.81303571 1.94156285
v -1.69020308 -0.79369893 2.00669363
v -1.76534091 -0.77704086 2.00711158
v -1.76534091 -0.74197374 2.00577869
v -1.78200603 -0.76037578 2.00656941
v -1.80850344 -0.76037578 2.00647905
v -1.78200603 -0.74197374 2.00572219
v -1.69020308 -0.81092903 1.99154618
v -1.76534091 -0.81113831 1.99154618
v -1.80850344 -0.81196144 1.98170763
v -1.69020308 -0.79960738 2.00490893
v -1.76534091 -0.79369893 2.00678399
v -1.78200603 -0.77704086 2.00708893
v -1.79867115 -0.76037578 2.00651291
v -1.80850344 -0.77021159 2.00680664
v -1.69020308 -0.80827823 1.99739731
v -1.76534091 -0.80586464 2.00307906
v -1.80850344 -0.80581580 2.00306773
v -1.80850344 -0.80892001 1.99625647
v -1.80850344 -0.81106159 1.99154618
v -1.69020308 -0.80570418 2.00303388
v -1.80850344 -0.78687665 2.00685182
v -1.80850344 -0.79369893 2.00670496
v -1.80850344 -0.80086302 2.00455881
v -1.80850344 -0.77704086 2.00700990
f 1 2 5
f 1 5 9
f 1 9 17
f 1 17 29
f 1 29 38
f 1 38 48
f 1 48 43
f 1 43 35
f 1 35 23
f 1 23 12
f 1 12 7
f 1 7 3
f 1 3 8
f 1 8 4
f 1 4 2
f 2 4 6
f 2 6 11
f 2 11 22
f 2 22 34
f 2 34 31
f 2 31 19
f 2 19 10
f 2 10 5
f 3 7 8
f 4 8 16
f 4 16 15
f 4 15 14
f 4 14 28
f 4 28 26
f 4 26 37
f 4 37 47
f 4 47 46
f 4 46 45
f 4 45 51
f 4 51 50
f 4 50 49
f 4 49 52
f 4 52 42
f 4 42 33
f 4 33 21
f 4 21 11
f 4 11 6
f 5 10 9
f 7 12 13
f 7 13 14
f 7 14 15
f 7 15 16
f 7 16 8
f 9 10 18
f 9 18 17
f 10 19 20
f 10 20 18
f 11 21 22
f 12 23 24
f 12 24 13
f 13 24 25
f 13 25 26
f 13 26 27
f 13 27 14
f 14 27 28
f 17 18 20
f 17 20 30
f 17 30 29
f 19 31 20
f 20 31 32
f 20 32 40
f 20 40 30
f 21 33 34
f 21 34 22
f 23 35 36
f 23 36 24
f 24 36 25
f 25 36 26
f 26 28 27
f 26 36 37
f 29 30 39
f 29 39 38
f 30 40 39
f 31 34 41
f 31 41 32
f 32 41 42
f 32 42 40
f 33 42 41
f 33 41 34
f 35 43 36
f 36 44 45
f 36 45 46
f 36 46 47
f 36 47 37
f 36 43 48
f 36 48 44
f 38 39 44
f 38 44 48
f 39 40 49
f 39 49 50
f 39 50 51
f 39 51 45
f 39 45 44
f 40 42 52
f 40 52 49

