# https://github.com/mikedh/trimesh
v -3.96914333 -0.61826610 0.43678824
v -3.96972335 -0.71347262 0.42822776
v -3.92991988 -0.61826610 0.43678824
v -3.96915978 -0.59429802 0.43678824
v -3.97029514 -0.71342505 0.20369139
v -3.97020466 -0.71347262 0.21679468
v -3.92899844 -0.71347262 0.42822776
v -3.96916800 -0.57760596 0.43678824
v -3.96918034 -0.51098042 0.43678824
v -3.96917623 -0.46095181 0.43676542
v -3.96917212 -0.44430731 0.43676542
v -3.96903634 -0.26102761 0.43676542
v -3.96929550 -0.22764350 0.37946707
v -3.96940249 -0.22764350 0.35351166
v -3.96946829 -0.22764350 0.33684721
v -3.96951765 -0.22764350 0.32018275
v -3.92948381 -0.61821854 0.43678824
v -3.96868669 -0.71347262 0.20369139
v -3.96971101 -0.22773863 0.20357725
v -3.96948475 -0.46095181 0.20357725
v -3.96948063 -0.46356738 0.20357725
v -3.96943539 -0.61821854 0.20362291
v -3.96913922 -0.61826610 0.20362291
v -3.92894903 -0.71347262 0.42363929
v -3.92871049 -0.67766317 0.42822776
v -3.96917212 -0.46366249 0.43678824
v -3.96871137 -0.23320752 0.43676542
v -3.93188619 -0.23315998 0.43676542
v -3.93154478 -0.22764350 0.37946707
v -3.96953821 -0.22764350 0.30354112
v -3.93124448 -0.23315998 0.43676542
v -3.93057393 -0.46361493 0.43678824
v -3.92869809 -0.71347262 0.20369139
v -3.96957934 -0.22764350 0.22026454
v -3.93059860 -0.22769106 0.20357725
v -3.96914333 -0.46361493 0.20357725
v -3.92889557 -0.61826610 0.20362291
v -3.92879686 -0.71347262 0.40702049
v -3.92863640 -0.67766317 0.42016944
v -3.93175864 -0.46361493 0.43678824
v -3.93113338 -0.22764350 0.22026454
v -3.92852125 -0.62763457 0.33684721
v -3.92869398 -0.67766317 0.20369139
v -3.92847189 -0.67766317 0.22021888
v -3.92848012 -0.71347262 0.22021888
v -3.92964015 -0.41101832 0.20357725
v -3.92961136 -0.46361493 0.20357725
v -3.92959491 -0.42766282 0.20357725
v -3.92890379 -0.61094251 0.20362291
v -3.92838958 -0.71347262 0.35714132
v -3.92836079 -0.71347262 0.35351166
v -3.92832377 -0.67766317 0.35351166
v -3.92827853 -0.67766317 0.33684721
v -3.92860761 -0.62763457 0.23688334
v -3.92841425 -0.67766317 0.23688334
v -3.92836901 -0.71347262 0.23688334
v -3.92874339 -0.61094251 0.22026454
v -3.92868164 -0.61826610 0.22752384
v -3.92832377 -0.71347262 0.34052252
v -3.92829498 -0.67766317 0.32018275
v -3.92831555 -0.71347262 0.33684721
v -3.92831555 -0.67766317 0.30354112
f 1 2 7
f 1 7 3
f 1 3 17
f 1 17 32
f 1 32 40
f 1 40 26
f 1 26 9
f 1 9 8
f 1 8 4
f 1 4 2
f 2 5 6
f 2 6 18
f 2 18 33
f 2 33 45
f 2 45 56
f 2 56 61
f 2 61 59
f 2 59 51
f 2 51 50
f 2 50 38
f 2 38 24
f 2 24 7
f 2 4 8
f 2 8 9
f 2 9 10
f 2 10 11
f 2 11 12
f 2 12 13
f 2 13 14
f 2 14 15
f 2 15 16
f 2 16 5
f 3 7 17
f 5 18 6
f 5 16 19
f 5 19 20
f 5 20 21
f 5 21 22
f 5 22 23
f 5 23 18
f 7 24 25
f 7 25 17
f 9 26 10
f 10 26 11
f 11 26 12
f 12 27 13
f 12 26 27
f 13 27 28
f 13 28 31
f 13 31 29
f 13 29 41
f 13 41 34
f 13 34 30
f 13 30 16
f 13 16 15
f 13 15 14
f 16 30 19
f 17 31 32
f 17 25 31
f 18 23 37
f 18 37 33
f 19 30 34
f 19 34 35
f 19 35 46
f 19 46 48
f 19 48 47
f 19 47 36
f 19 36 21
f 19 21 20
f 21 36 23
f 21 23 22
f 23 36 47
f 23 47 37
f 24 38 39
f 24 39 25
f 25 39 31
f 26 40 28
f 26 28 27
f 28 40 32
f 28 32 31
f 29 31 35
f 29 35 41
f 31 39 42
f 31 42 35
f 33 37 43
f 33 43 44
f 33 44 45
f 34 41 35
f 35 42 46
f 37 47 48
f 37 48 49
f 37 49 43
f 38 50 39
f 39 50 51
f 39 51 52
f 39 52 42
f 42 52 53
f 42 53 46
f 43 49 44
f 44 54 55
f 44 55 56
f 44 56 45
f 44 49 46
f 44 46 57
f 44 57 58
f 44 58 54
f 46 49 48
f 46 53 54
f 46 54 58
f 46 58 57
f 51 59 52
f 52 59 53
f 53 60 54
f 53 59 61
f 53 61 56
f 53 56 60
f 54 60 62
f 54 62 55
f 55 62 56
f 56 62 60

