# https://github.com/mikedh/trimesh
v 2.05471801 -0.50571761 1.55009419
v 1.99629867 -0.54434233 1.55768311
v 1.99629301 -0.24412083 1.55413625
v 2.05399160 -0.24412083 1.54758070
v 2.05471801 -0.50571761 1.60229069
v 2.05471801 -0.56098067 1.55089075
v 1.99629867 -0.54982750 1.55775845
v 1.99629301 -0.50571761 1.55734938
v 1.99629301 -0.24412083 1.60098820
v 2.05399160 -0.24412083 1.60189784
v 2.05471801 -0.52765828 1.60244680
v 2.05471801 -0.69235042 1.55358723
v 1.99629867 -0.71109141 1.56025579
v 1.99629867 -0.56098067 1.55791992
v 1.99629301 -0.50571761 1.60139727
v 2.05399160 -0.33115215 1.60211849
v 1.99629301 -0.34436227 1.60119813
v 2.05471801 -0.54434233 1.60253829
v 2.05471801 -0.71100000 1.55410395
v 2.04088241 -0.71109141 1.56088015
v 1.99629867 -0.71109141 1.60110127
v 1.99629301 -0.50548906 1.60139727
v 1.99629867 -0.59434877 1.60154795
v 1.99629867 -0.58881790 1.60155338
v 1.99629867 -0.57213384 1.60156947
v 2.05471801 -0.54708491 1.60254366
v 1.99629301 -0.37219949 1.60124117
v 1.99629867 -0.56098067 1.60156411
v 1.99629867 -0.54434233 1.60153722
v 2.05471801 -0.71109141 1.59536923
v 2.04077946 -0.71109141 1.60138112
v 2.05471801 -0.71100000 1.60204315
v 2.05471801 -0.62762546 1.60247368
v 1.99629301 -0.38883783 1.60126274
v 2.05471801 -0.59434877 1.60252750
v 2.05471801 -0.57766472 1.60254908
v 2.05471801 -0.61098711 1.60250599
v 2.05471801 -0.56098067 1.60255981
f 1 2 3
f 1 3 4
f 1 4 10
f 1 10 5
f 1 5 11
f 1 11 18
f 1 18 26
f 1 26 38
f 1 38 36
f 1 36 35
f 1 35 37
f 1 37 33
f 1 33 32
f 1 32 30
f 1 30 19
f 1 19 12
f 1 12 6
f 1 6 7
f 1 7 2
f 2 8 3
f 2 7 8
f 3 9 10
f 3 10 4
f 3 8 15
f 3 15 22
f 3 22 34
f 3 34 27
f 3 27 17
f 3 17 9
f 5 10 11
f 6 12 13
f 6 13 14
f 6 14 7
f 7 14 8
f 8 14 13
f 8 13 21
f 8 21 15
f 9 16 10
f 9 17 16
f 10 16 18
f 10 18 11
f 12 19 13
f 13 19 20
f 13 20 30
f 13 30 31
f 13 31 21
f 15 21 23
f 15 23 24
f 15 24 25
f 15 25 22
f 16 17 26
f 16 26 18
f 17 27 28
f 17 28 29
f 17 29 26
f 19 30 20
f 21 31 32
f 21 32 33
f 21 33 23
f 22 25 28
f 22 28 34
f 23 35 36
f 23 36 24
f 23 33 37
f 23 37 35
f 24 36 25
f 25 36 38
f 25 38 28
f 26 28 38
f 26 29 28
f 27 34 28
f 30 32 31

