# https://github.com/mikedh/trimesh
v -1.94503771 1.97275460 1.39088544
v -1.94524103 1.93961607 1.39212601
v -1.94524103 1.97275460 1.39088544
v -1.92856692 1.97275460 1.39199099
v -1.92856692 1.93961607 1.39258173
v -1.95869557 1.93961607 1.39664095
v -1.95893283 1.97275460 1.39600801
v -1.91189276 1.97275460 1.39437082
v -1.88975372 1.97275460 1.39761987
v -1.87870540 1.97275460 1.39931613
v -1.91189276 1.93961607 1.39637933
v -1.96444005 1.93961607 1.40941776
v -1.96478740 1.97275460 1.40941776
v -1.87870540 1.97275460 1.47606152
v -1.87870540 1.96641237 1.40399142
v -1.90290326 1.93961607 1.40036260
v -1.96509240 1.93961607 1.42609348
v -1.96525343 1.97275460 1.42609348
v -1.87874780 1.97275460 1.47619655
v -1.87870540 1.95628428 1.47612903
v -1.87870540 1.93961607 1.42765471
v -1.96508393 1.93961607 1.44276076
v -1.96499077 1.95628429 1.44276076
v -1.96486368 1.97275460 1.44276076
v -1.87870540 1.93961607 1.47609528
v -1.87870540 1.95613181 1.47612903
v -1.94524103 1.97275460 1.47709108
v -1.96430448 1.93961607 1.45943644
v -1.96416045 1.95628429 1.45943644
v -1.96398254 1.97275460 1.45943644
v -1.92856692 1.93961607 1.47605308
v -1.94541047 1.97275460 1.47703203
v -1.95856001 1.93961607 1.47185040
v -1.94524103 1.93961607 1.47597713
v -1.95851766 1.97275460 1.47226392
v -1.95858541 1.97275460 1.47211201
f 1 2 3
f 1 3 7
f 1 7 13
f 1 13 18
f 1 18 24
f 1 24 30
f 1 30 36
f 1 36 35
f 1 35 32
f 1 32 27
f 1 27 19
f 1 19 14
f 1 14 10
f 1 10 9
f 1 9 8
f 1 8 4
f 1 4 5
f 1 5 2
f 2 5 11
f 2 11 16
f 2 16 21
f 2 21 25
f 2 25 31
f 2 31 34
f 2 34 33
f 2 33 28
f 2 28 22
f 2 22 17
f 2 17 12
f 2 12 6
f 2 6 3
f 3 6 7
f 4 8 5
f 5 8 9
f 5 9 10
f 5 10 11
f 6 12 7
f 7 12 13
f 10 14 20
f 10 20 26
f 10 26 25
f 10 25 21
f 10 21 15
f 10 15 16
f 10 16 11
f 12 17 13
f 13 17 18
f 14 19 20
f 15 21 16
f 17 22 18
f 18 22 23
f 18 23 24
f 19 25 26
f 19 26 20
f 19 27 25
f 22 28 23
f 23 28 24
f 24 28 29
f 24 29 30
f 25 27 31
f 27 32 33
f 27 33 34
f 27 34 31
f 28 33 35
f 28 35 36
f 28 36 29
f 29 36 30
f 32 35 33

