# https://github.com/mikedh/trimesh
v -3.76446972 1.62646249 1.14099628
v -3.76385166 1.65548410 1.14412175
v -3.74778959 1.65548410 1.14461977
v -3.74778959 1.62646249 1.14293682
v -3.76741016 1.62646249 1.14176047
v -3.77760900 1.65548410 1.14744471
v -3.76446972 1.65548410 1.14410457
v -3.73140970 1.65548410 1.14798565
v -3.71873842 1.62646249 1.14847509
v -3.78048765 1.62646249 1.14568448
v -3.78204173 1.62646249 1.14867257
v -3.78371950 1.65548410 1.15925967
v -3.72314466 1.65548410 1.15191825
v -3.69792574 1.62646249 1.15579075
v -3.78665105 1.62646249 1.15925967
v -3.78666876 1.62646249 1.15944858
v -3.78812568 1.62646249 1.17594317
v -3.78503518 1.65548410 1.17594317
v -3.72291510 1.65548410 1.15215009
v -3.69792574 1.65548410 1.17905146
v -3.69792574 1.62646249 1.22744474
v -3.78810802 1.62646249 1.17781501
v -3.78498216 1.65548410 1.19260947
v -3.69792574 1.65548410 1.22744474
v -3.76076110 1.62646249 1.22870696
v -3.78794025 1.62646249 1.19260947
v -3.78438175 1.65548410 1.20866616
v -3.69854387 1.65548410 1.22744474
v -3.71444699 1.65548410 1.22740181
v -3.73112712 1.65548410 1.22734171
v -3.74841654 1.65548410 1.22726443
v -3.76446972 1.62646249 1.22867260
v -3.78688067 1.62646249 1.20928438
v -3.78435521 1.65548410 1.20928438
v -3.76446972 1.65548410 1.22710987
v -3.77743241 1.62646249 1.22462838
v -3.78680999 1.62646249 1.20945611
v -3.78084085 1.62646249 1.22343487
v -3.77852736 1.65548410 1.22182919
v -3.77829774 1.65548410 1.22231004
f 1 2 3
f 1 3 4
f 1 4 9
f 1 9 14
f 1 14 21
f 1 21 25
f 1 25 32
f 1 32 36
f 1 36 38
f 1 38 37
f 1 37 33
f 1 33 26
f 1 26 22
f 1 22 17
f 1 17 16
f 1 16 15
f 1 15 11
f 1 11 10
f 1 10 5
f 1 5 6
f 1 6 7
f 1 7 2
f 2 7 6
f 2 6 12
f 2 12 18
f 2 18 23
f 2 23 27
f 2 27 34
f 2 34 39
f 2 39 40
f 2 40 35
f 2 35 31
f 2 31 30
f 2 30 29
f 2 29 28
f 2 28 24
f 2 24 20
f 2 20 19
f 2 19 13
f 2 13 8
f 2 8 3
f 3 8 9
f 3 9 4
f 5 10 6
f 6 10 11
f 6 11 12
f 8 13 14
f 8 14 9
f 11 15 12
f 12 15 16
f 12 16 17
f 12 17 18
f 13 19 14
f 14 20 24
f 14 24 21
f 14 19 20
f 17 22 23
f 17 23 18
f 21 24 25
f 22 26 23
f 23 26 27
f 24 28 25
f 25 28 29
f 25 29 30
f 25 30 31
f 25 31 32
f 26 33 34
f 26 34 27
f 31 35 32
f 32 35 36
f 33 37 34
f 34 37 38
f 34 38 39
f 35 40 36
f 36 40 38
f 38 40 39

