# https://github.com/mikedh/trimesh
v -2.00976469 -0.45982700 0.58691197
v -2.00835557 -0.45984216 0.58691197
v -2.04714235 -0.45982700 0.58691197
v -2.00839264 -0.45982700 0.60238012
v -2.00817944 -0.59433085 0.58691197
v -2.00208428 -0.45982700 0.78516447
v -2.04794428 -0.61467393 0.58691197
v -2.04930232 -0.45982700 0.78516447
v -2.00819338 -0.61468908 0.58691197
v -2.00196840 -0.56099669 0.78516447
v -2.04748073 -0.61468908 0.58691197
v -2.04912619 -0.61468908 0.78516447
v -2.04931627 -0.47768404 0.78516447
v -2.04930697 -0.46100938 0.78516447
v -2.00202861 -0.61468908 0.78516447
f 1 2 5
f 1 5 9
f 1 9 11
f 1 11 7
f 1 7 3
f 1 3 8
f 1 8 6
f 1 6 4
f 1 4 2
f 2 4 6
f 2 6 5
f 3 7 8
f 5 6 10
f 5 10 9
f 6 8 14
f 6 14 13
f 6 13 12
f 6 12 15
f 6 15 10
f 7 11 12
f 7 12 13
f 7 13 14
f 7 14 8
f 9 10 15
f 9 15 12
f 9 12 11

