# https://github.com/mikedh/trimesh
v -2.90650166 1.65624506 0.44090280
v -2.90650166 1.75622039 0.44056613
v -2.90650166 1.65624506 0.39593980
v -2.83039453 1.65624506 0.44083732
v -2.83053868 1.75622039 0.44055211
v -2.90650166 1.75622039 0.39681415
v -2.90650166 1.75616167 0.39680949
v -2.74715235 1.65624506 0.39356912
v -2.19674505 1.65624506 0.44000037
v -2.19688920 1.75622039 0.43958419
v -2.73050392 1.75622039 0.39473809
v -2.73057600 1.65624506 0.39336342
v -2.18009659 1.65624506 0.43997228
v -2.18016864 1.75622039 0.43954680
v -2.71378341 1.75622039 0.39464922
v -2.71378341 1.65624506 0.39325117
v -2.17022285 1.65624506 0.43994890
v -2.17022285 1.75622039 0.43950940
v -2.69713499 1.75622039 0.39459316
v -2.68041448 1.75622039 0.39453704
v -2.69713499 1.65624506 0.39320441
v -2.17022285 1.65624506 0.39442951
v -2.17022285 1.75622039 0.39521033
v -2.66376605 1.75622039 0.39449028
v -2.59702818 1.75622039 0.39430790
v -2.58037972 1.75622039 0.39427050
v -2.51385808 1.65624506 0.39313428
v -2.31364444 1.65624506 0.39339145
v -2.33043699 1.65624506 0.39328392
v -2.56373129 1.75622039 0.39427987
v -2.49706550 1.65624506 0.39313893
v -2.34694130 1.65624506 0.39326519
f 1 2 6
f 1 6 7
f 1 7 3
f 1 3 8
f 1 8 12
f 1 12 16
f 1 16 21
f 1 21 27
f 1 27 31
f 1 31 32
f 1 32 29
f 1 29 28
f 1 28 22
f 1 22 17
f 1 17 13
f 1 13 9
f 1 9 4
f 1 4 5
f 1 5 2
f 2 5 10
f 2 10 14
f 2 14 18
f 2 18 23
f 2 23 30
f 2 30 26
f 2 26 25
f 2 25 24
f 2 24 20
f 2 20 19
f 2 19 15
f 2 15 11
f 2 11 6
f 3 7 8
f 4 9 5
f 5 9 10
f 6 11 7
f 7 12 8
f 7 11 12
f 9 13 10
f 10 13 14
f 11 15 16
f 11 16 12
f 13 17 14
f 14 17 18
f 15 19 16
f 16 19 20
f 16 20 24
f 16 24 21
f 17 22 23
f 17 23 18
f 21 24 25
f 21 25 26
f 21 26 27
f 22 28 23
f 23 28 29
f 23 29 30
f 26 30 31
f 26 31 27
f 29 32 30
f 30 32 31

