# https://github.com/mikedh/trimesh
v -3.74940822 -0.24426599 0.83903409
v -3.91006953 -0.46357436 0.83190135
v -3.90299261 -0.24426599 0.83523773
v -3.74940822 -0.24426599 0.89872531
v -3.74940822 -0.54452441 0.83915079
v -3.91006953 -0.47767014 0.83188761
v -3.91006953 -0.46357436 0.90107314
v -3.90299261 -0.24426599 0.89887633
v -3.91006953 -0.61555249 0.90199991
v -3.91006953 -0.61829844 0.90201364
v -3.74940822 -0.61079287 0.89875276
v -3.74940822 -0.56118306 0.83916452
v -3.74940822 -0.57784171 0.83921944
v -3.74940822 -0.59453698 0.83930182
v -3.74950257 -0.61829844 0.83941853
v -3.91006953 -0.56239127 0.83241622
v -3.91006953 -0.61829844 0.83284185
v -3.74940822 -0.61829844 0.89875276
v -3.74940822 -0.61119562 0.83939106
v -3.74940822 -0.61829844 0.86527213
f 1 2 3
f 1 3 8
f 1 8 4
f 1 4 11
f 1 11 18
f 1 18 20
f 1 20 19
f 1 19 14
f 1 14 13
f 1 13 12
f 1 12 5
f 1 5 6
f 1 6 2
f 2 7 8
f 2 8 3
f 2 6 16
f 2 16 17
f 2 17 10
f 2 10 9
f 2 9 7
f 4 8 7
f 4 7 9
f 4 9 10
f 4 10 11
f 5 12 6
f 6 12 13
f 6 13 14
f 6 14 15
f 6 15 16
f 10 17 15
f 10 15 20
f 10 20 18
f 10 18 11
f 14 19 15
f 15 17 16
f 15 19 20

