# https://github.com/mikedh/trimesh
v -0.26854980 1.55523495 1.37523046
v -0.26853220 1.55510910 1.37523046
v -0.26624693 1.57227504 1.37523046
v -0.26632601 1.57217437 1.24336235
v -0.26854097 1.55520138 1.24340109
v -0.26558771 1.53936946 1.37523046
v -0.26594805 1.53937784 1.32601554
v -0.26586898 1.53937784 1.34269594
v -0.25746622 1.58503623 1.37523046
v -0.25800241 1.58531310 1.35937633
v -0.25809032 1.58518725 1.35919559
v -0.25823972 1.58557319 1.34269594
v -0.26618538 1.57270294 1.32601554
v -0.26621180 1.57270294 1.30933514
v -0.26622057 1.57270294 1.29268057
v -0.26628212 1.57230860 1.24336235
v -0.26853220 1.55516784 1.24336235
v -0.26578107 1.53937784 1.24336235
v -0.26590417 1.53937784 1.29268057
v -0.26593930 1.53937784 1.30933514
v -0.25793209 1.52801778 1.35919559
v -0.25780905 1.52805135 1.37523046
v -0.25804636 1.52797582 1.34269594
v -0.25802877 1.52774930 1.24336235
v -0.25809909 1.52795065 1.32601554
v -0.24078384 1.60296566 1.37523046
v -0.24128482 1.60330966 1.34269594
v -0.25830127 1.58558159 1.32601554
v -0.25831880 1.58552286 1.29268057
v -0.25750142 1.58524599 1.24336235
v -0.25820459 1.58550607 1.27601306
v -0.25800241 1.58540539 1.25933267
v -0.25835399 1.52823591 1.24336235
v -0.24486217 1.52498898 1.37523046
v -0.24419419 1.52428423 1.24336235
v -0.24419419 1.52468696 1.34269594
v -0.22751173 1.60884706 1.37523046
v -0.22751173 1.60909876 1.34269594
v -0.24124970 1.60325093 1.27601306
v -0.24066956 1.60262168 1.24336235
v -0.24418535 1.52482959 1.37523046
v -0.24348219 1.52425906 1.24336235
v -0.22751173 1.52435973 1.37523046
v -0.22670312 1.60887223 1.37523046
v -0.21085570 1.60934207 1.32601554
v -0.21085570 1.60929173 1.24336235
v -0.22751173 1.60907359 1.32601554
v -0.21085570 1.60933367 1.37523046
v -0.22751173 1.60899809 1.27601306
v -0.22751173 1.60845273 1.24336235
v -0.22808310 1.60820942 1.24336235
v -0.24093330 1.60294889 1.25933267
v -0.22679979 1.52392346 1.24336235
v -0.22751173 1.52416677 1.32601554
v -0.21085570 1.52397380 1.37523046
v -0.19417330 1.60805001 1.30933514
v -0.21156764 1.60926656 1.24336235
v -0.19417330 1.60798289 1.24336235
v -0.19418207 1.60799128 1.37523046
v -0.19417330 1.60804162 1.32601554
v -0.21085570 1.52362981 1.24336235
v -0.21085570 1.52388150 1.34269594
v -0.19418207 1.52467017 1.37523046
v -0.19417330 1.52428423 1.24336235
v -0.18308097 1.60247905 1.24336235
v -0.18250967 1.60226929 1.37523046
v -0.18360838 1.52809328 1.37523046
v -0.18287008 1.52805973 1.24336235
v -0.18259757 1.60223574 1.24336235
v -0.17908178 1.58938226 1.37523046
v -0.18306344 1.52827787 1.37523046
v -0.18302825 1.52826108 1.35919559
v -0.17946856 1.53889123 1.24336235
v -0.17947732 1.53936946 1.37523046
v -0.17918729 1.58938226 1.24336235
v -0.17876538 1.55604878 1.37523046
v -0.17896751 1.57200657 1.24336235
v -0.17897634 1.57270294 1.24336235
v -0.17931909 1.53937784 1.24336235
v -0.17944213 1.54018329 1.37523046
v -0.17882687 1.55605716 1.24336235
f 1 2 6
f 1 6 22
f 1 22 34
f 1 34 41
f 1 41 43
f 1 43 55
f 1 55 63
f 1 63 67
f 1 67 71
f 1 71 74
f 1 74 80
f 1 80 76
f 1 76 70
f 1 70 66
f 1 66 59
f 1 59 48
f 1 48 44
f 1 44 37
f 1 37 26
f 1 26 9
f 1 9 3
f 1 3 4
f 1 4 5
f 1 5 2
f 2 5 7
f 2 7 8
f 2 8 6
f 3 9 10
f 3 10 11
f 3 11 12
f 3 12 13
f 3 13 14
f 3 14 15
f 3 15 4
f 4 15 16
f 4 16 30
f 4 30 40
f 4 40 51
f 4 51 50
f 4 50 57
f 4 57 46
f 4 46 58
f 4 58 65
f 4 65 69
f 4 69 75
f 4 75 78
f 4 78 77
f 4 77 81
f 4 81 79
f 4 79 73
f 4 73 68
f 4 68 64
f 4 64 61
f 4 61 53
f 4 53 42
f 4 42 35
f 4 35 24
f 4 24 33
f 4 33 18
f 4 18 17
f 4 17 5
f 5 17 18
f 5 18 19
f 5 19 20
f 5 20 7
f 6 21 22
f 6 8 23
f 6 23 21
f 7 20 24
f 7 24 25
f 7 25 23
f 7 23 8
f 9 26 10
f 10 26 12
f 10 12 11
f 12 27 28
f 12 28 13
f 12 26 27
f 13 28 14
f 14 28 15
f 15 29 16
f 15 28 29
f 16 29 31
f 16 31 32
f 16 32 30
f 18 33 19
f 19 33 20
f 20 33 24
f 21 23 22
f 22 23 35
f 22 35 36
f 22 36 34
f 23 25 35
f 24 35 25
f 26 37 27
f 27 38 39
f 27 39 29
f 27 29 28
f 27 37 38
f 29 39 31
f 30 32 40
f 31 39 32
f 32 39 40
f 34 36 41
f 35 42 36
f 36 42 43
f 36 43 41
f 37 44 38
f 38 45 46
f 38 46 47
f 38 47 39
f 38 44 48
f 38 48 45
f 39 47 49
f 39 49 50
f 39 50 51
f 39 51 52
f 39 52 40
f 40 52 51
f 42 53 54
f 42 54 43
f 43 54 55
f 45 56 46
f 45 48 56
f 46 57 49
f 46 49 47
f 46 56 58
f 48 59 60
f 48 60 56
f 49 57 50
f 53 61 62
f 53 62 54
f 54 62 55
f 55 62 64
f 55 64 63
f 56 65 58
f 56 60 66
f 56 66 65
f 59 66 60
f 61 64 62
f 63 64 67
f 64 68 67
f 65 66 69
f 66 70 69
f 67 68 71
f 68 72 71
f 68 73 74
f 68 74 72
f 69 70 75
f 70 76 77
f 70 77 78
f 70 78 75
f 71 72 74
f 73 79 74
f 74 79 80
f 76 80 79
f 76 79 81
f 76 81 77

