# https://github.com/mikedh/trimesh
v 0.06376998 -0.73815433 1.92077997
v 0.06223646 -0.65261491 1.92077997
v 0.06452596 -0.73815433 1.95822774
v -0.03090003 -0.73815433 1.92077997
v 0.06292764 -0.65261491 1.95822774
v -0.01180624 -0.65261491 1.92077997
v 0.06474197 -0.73815433 1.97487873
v -0.15591723 -0.73815433 1.92419815
v 0.06301401 -0.65261491 1.96712011
v -0.15591723 -0.65261491 1.93128836
v 0.06305723 -0.65261491 1.97487873
v 0.06262521 -0.65261491 1.99153813
v 0.06411557 -0.73815433 1.99153813
v -0.15591723 -0.73815433 2.00631085
v -0.15591723 -0.65261491 2.00610771
v 0.06169644 -0.65261491 1.99675853
v 0.06087568 -0.65261491 2.00131045
v 0.06152365 -0.73815433 2.00169967
v 0.02353037 -0.73815433 2.00716535
v 0.03465406 -0.65261491 2.00715688
v -0.15462129 -0.65261491 2.00611618
v 0.05132878 -0.65261491 2.00497402
v 0.05132878 -0.73815433 2.00537171
v 0.03465406 -0.73815433 2.00719920
v 0.04240822 -0.65261491 2.00615003
f 1 2 3
f 1 3 7
f 1 7 13
f 1 13 18
f 1 18 23
f 1 23 24
f 1 24 19
f 1 19 14
f 1 14 8
f 1 8 4
f 1 4 6
f 1 6 2
f 2 5 3
f 2 6 10
f 2 10 15
f 2 15 21
f 2 21 20
f 2 20 25
f 2 25 22
f 2 22 17
f 2 17 16
f 2 16 12
f 2 12 11
f 2 11 9
f 2 9 5
f 3 5 7
f 4 8 6
f 5 9 7
f 6 8 10
f 7 9 11
f 7 11 12
f 7 12 13
f 8 14 15
f 8 15 10
f 12 16 13
f 13 16 17
f 13 17 18
f 14 19 20
f 14 20 21
f 14 21 15
f 17 22 18
f 18 22 23
f 19 24 20
f 20 24 23
f 20 23 25
f 22 25 23

