# https://github.com/mikedh/trimesh
v 1.64075913 -0.23927695 1.50548923
v 1.67399989 -0.19435160 1.50625945
v 1.67399989 -0.21099818 1.50728949
v 1.65407282 -0.23927695 1.50869992
v 1.63614718 -0.23927695 1.50631512
v 1.37770454 -0.22123972 1.50995270
v 1.37770454 -0.21099818 1.50733586
v 1.37770454 -0.19434343 1.50653781
v 1.37770454 -0.17768046 1.50634296
v 1.49079857 -0.17768046 1.50608314
v 1.50744798 -0.17768046 1.50605530
v 1.52412636 -0.17768046 1.50609238
v 1.62408072 -0.17768046 1.50637079
v 1.64075913 -0.17768866 1.50645430
v 1.65743753 -0.17768866 1.50655640
v 1.67399989 -0.17759865 1.50667698
v 1.67399989 -0.22141152 1.51009188
v 1.67399989 -0.23921150 1.55170126
v 1.67399989 -0.23927695 1.55223014
v 1.63614718 -0.23927695 1.60021459
v 1.37770454 -0.22992703 1.54595724
v 1.37770454 -0.22384919 1.52021581
v 1.37770454 -0.22180415 1.51212412
v 1.37770454 -0.16477220 1.50907114
v 1.49079857 -0.16455133 1.50879273
v 1.50744798 -0.16470675 1.50880203
v 1.64075913 -0.16572111 1.50923816
v 1.65743753 -0.16577020 1.50937733
v 1.67399989 -0.16586017 1.50955365
v 1.67399989 -0.23927695 1.60028880
v 1.37770454 -0.22992703 1.60003827
v 1.63881570 -0.23927695 1.60023312
v 1.39078621 -0.16468222 1.50906185
v 1.37770454 -0.15933240 1.51784955
v 1.47414919 -0.16451861 1.50888553
v 1.45747077 -0.15766366 1.52021581
v 1.47414919 -0.15766366 1.52021581
v 1.49079857 -0.15780272 1.52021581
v 1.67399989 -0.16003589 1.52022511
v 1.67399989 -0.22778384 1.60026096
v 1.65743753 -0.23927695 1.60028880
v 1.37770454 -0.22413550 1.60004751
v 1.37770454 -0.15786817 1.52021581
v 1.39078621 -0.15779455 1.52021581
v 1.40746462 -0.16463314 1.50905255
v 1.40746462 -0.15774547 1.52021581
v 1.37770454 -0.15571678 1.53688182
v 1.47414919 -0.15585584 1.53688182
v 1.45747077 -0.15577406 1.53688182
v 1.67399989 -0.15768819 1.53689112
v 1.67399989 -0.16001955 1.52033645
v 1.67399989 -0.21099818 1.60012178
v 1.57410355 -0.19434343 1.60009395
v 1.55742515 -0.19434343 1.60010318
v 1.50744798 -0.19434343 1.60012178
v 1.42414300 -0.19434343 1.60009395
v 1.37770454 -0.20746437 1.60004751
v 1.37770454 -0.15615851 1.53335564
v 1.37770454 -0.15615035 1.55353859
v 1.40746462 -0.15613396 1.55353859
v 1.45747077 -0.15622395 1.55353859
v 1.47414919 -0.15632212 1.55353859
v 1.67399989 -0.15784361 1.55353859
v 1.67399989 -0.15768819 1.53700246
v 1.67399989 -0.19435160 1.59995471
v 1.62408072 -0.17768046 1.59892473
v 1.47414919 -0.17768046 1.59910104
v 1.42414300 -0.17768046 1.59912888
v 1.40746462 -0.19434343 1.60007535
v 1.37770454 -0.19434343 1.60001044
v 1.39078621 -0.19434343 1.60004751
v 1.37770454 -0.15662477 1.56666912
v 1.42414300 -0.15664114 1.57020460
v 1.44079241 -0.15671475 1.57020460
v 1.45747077 -0.15680475 1.57020460
v 1.67399989 -0.15845713 1.57019530
v 1.67399989 -0.17768866 1.59853497
v 1.64075913 -0.17768866 1.59888760
v 1.62408072 -0.16774161 1.59665121
v 1.63614718 -0.17768046 1.59889690
v 1.44079241 -0.16761888 1.59666051
v 1.42414300 -0.16762708 1.59666051
v 1.40746462 -0.16765160 1.59664192
v 1.40746462 -0.17768046 1.59910104
v 1.37770454 -0.19080959 1.59978769
v 1.37770454 -0.15675567 1.57020460
v 1.40746462 -0.15668203 1.57020460
v 1.42414300 -0.16142652 1.58687061
v 1.44079241 -0.16145926 1.58687061
v 1.62408072 -0.16240814 1.58687061
v 1.63614718 -0.16248995 1.58687061
v 1.64075913 -0.16253084 1.58686131
v 1.67399989 -0.15848985 1.57031594
v 1.67399989 -0.16819151 1.59619655
v 1.64075913 -0.16779069 1.59659554
v 1.63614718 -0.16778250 1.59661408
v 1.39078621 -0.16767616 1.59659554
v 1.39078621 -0.17768046 1.59901748
v 1.37770454 -0.17768046 1.59893397
v 1.37770454 -0.16159831 1.58687061
v 1.67399989 -0.16300529 1.58686131
v 1.37770454 -0.16772524 1.59653987
f 1 2 3
f 1 3 4
f 1 4 19
f 1 19 30
f 1 30 41
f 1 41 32
f 1 32 20
f 1 20 5
f 1 5 6
f 1 6 7
f 1 7 8
f 1 8 9
f 1 9 10
f 1 10 11
f 1 11 12
f 1 12 13
f 1 13 2
f 2 14 15
f 2 15 16
f 2 16 29
f 2 29 39
f 2 39 51
f 2 51 50
f 2 50 64
f 2 64 63
f 2 63 76
f 2 76 93
f 2 93 101
f 2 101 94
f 2 94 77
f 2 77 65
f 2 65 52
f 2 52 40
f 2 40 30
f 2 30 19
f 2 19 18
f 2 18 17
f 2 17 3
f 2 13 14
f 3 17 4
f 4 17 18
f 4 18 19
f 5 20 31
f 5 31 21
f 5 21 22
f 5 22 23
f 5 23 6
f 6 23 22
f 6 22 21
f 6 21 31
f 6 31 42
f 6 42 57
f 6 57 70
f 6 70 85
f 6 85 99
f 6 99 102
f 6 102 100
f 6 100 86
f 6 86 72
f 6 72 59
f 6 59 47
f 6 47 58
f 6 58 43
f 6 43 34
f 6 34 24
f 6 24 9
f 6 9 8
f 6 8 7
f 9 24 25
f 9 25 10
f 10 25 11
f 11 25 12
f 12 25 26
f 12 26 13
f 13 26 27
f 13 27 14
f 14 27 16
f 14 16 15
f 16 27 28
f 16 28 29
f 20 32 31
f 24 33 25
f 24 34 33
f 25 33 35
f 25 35 36
f 25 36 37
f 25 37 38
f 25 38 28
f 25 28 26
f 26 28 27
f 28 38 29
f 29 38 39
f 30 40 41
f 31 32 41
f 31 41 42
f 33 34 43
f 33 43 44
f 33 44 45
f 33 45 35
f 35 45 44
f 35 44 46
f 35 46 36
f 36 46 47
f 36 47 37
f 37 48 38
f 37 47 49
f 37 49 48
f 38 48 50
f 38 50 51
f 38 51 39
f 40 52 53
f 40 53 54
f 40 54 55
f 40 55 41
f 41 55 56
f 41 56 42
f 42 56 57
f 43 58 44
f 44 58 46
f 46 58 47
f 47 59 60
f 47 60 49
f 48 49 61
f 48 61 62
f 48 62 63
f 48 63 64
f 48 64 50
f 49 60 61
f 52 65 53
f 53 66 67
f 53 67 68
f 53 68 54
f 53 65 66
f 54 68 55
f 55 68 56
f 56 68 69
f 56 69 57
f 57 69 71
f 57 71 70
f 59 72 73
f 59 73 60
f 60 73 61
f 61 73 74
f 61 74 75
f 61 75 62
f 62 75 63
f 63 75 76
f 65 77 78
f 65 78 66
f 66 79 67
f 66 78 80
f 66 80 79
f 67 79 68
f 68 79 81
f 68 81 82
f 68 82 83
f 68 83 84
f 68 84 71
f 68 71 69
f 70 71 84
f 70 84 85
f 72 86 87
f 72 87 73
f 73 88 89
f 73 89 74
f 73 87 88
f 74 89 90
f 74 90 75
f 75 90 91
f 75 91 76
f 76 91 92
f 76 92 93
f 77 94 95
f 77 95 78
f 78 95 96
f 78 96 79
f 78 79 80
f 79 89 88
f 79 88 81
f 79 96 95
f 79 95 89
f 81 88 82
f 82 88 83
f 83 97 84
f 83 88 97
f 84 97 98
f 84 98 85
f 85 98 99
f 86 100 88
f 86 88 87
f 88 100 97
f 89 95 90
f 90 95 91
f 91 95 92
f 92 101 93
f 92 95 101
f 94 101 95
f 97 100 102
f 97 102 98
f 98 102 99

