# https://github.com/mikedh/trimesh
v -1.80850344 -0.74197374 1.92271475
v -1.80850344 -0.74197374 2.00549044
v -1.80850344 -0.71432808 1.93000840
v -1.69020308 -0.71432808 1.93006532
v -1.69020308 -0.74197374 1.92317818
v -1.80116104 -0.74197374 2.00557174
v -1.79867115 -0.71432808 2.00505950
v -1.80850344 -0.71432808 2.00493754
v -1.69020308 -0.71432808 2.00505950
v -1.69020308 -0.74197374 2.00552299
v -1.79867115 -0.74197374 2.00559606
v -1.79693396 -0.74197374 2.00561239
v -1.78200603 -0.74197374 2.00572624
v -1.78200603 -0.71432808 2.00516512
v -1.69221815 -0.71432808 2.00506760
v -1.74868735 -0.74197374 2.00575878
v -1.76534091 -0.74197374 2.00577500
v -1.76534091 -0.71432808 2.00519766
v -1.73201061 -0.71432808 2.00518145
v -1.73597137 -0.71432808 2.00518955
v -1.74868735 -0.71432808 2.00520577
v -1.76360372 -0.74197374 2.00577500
v -1.75262493 -0.71432808 2.00520577
f 1 2 8
f 1 8 3
f 1 3 4
f 1 4 5
f 1 5 10
f 1 10 16
f 1 16 22
f 1 22 17
f 1 17 13
f 1 13 12
f 1 12 11
f 1 11 6
f 1 6 2
f 2 6 7
f 2 7 8
f 3 8 7
f 3 7 14
f 3 14 18
f 3 18 23
f 3 23 21
f 3 21 20
f 3 20 19
f 3 19 15
f 3 15 9
f 3 9 4
f 4 9 10
f 4 10 5
f 6 11 7
f 7 11 12
f 7 12 13
f 7 13 14
f 9 15 10
f 10 15 16
f 13 17 14
f 14 17 18
f 15 19 16
f 16 19 20
f 16 20 21
f 16 21 22
f 17 22 21
f 17 21 23
f 17 23 18

