# https://github.com/mikedh/trimesh
v -1.91027075 -0.46618536 0.20801128
v -1.91183092 -0.46618536 0.15819742
v -1.84825279 -0.46618536 0.20801128
v -1.91053755 -0.21037600 0.20801128
v -1.91209765 -0.46035045 0.14153468
v -1.91209765 -0.46618536 0.14153468
v -1.91208150 -0.21035097 0.14153468
v -1.82953106 -0.46618536 0.18127307
v -1.84623999 -0.46611023 0.20801128
v -1.84599746 -0.21035097 0.20801128
v -1.91045672 -0.21035097 0.19153636
v -1.91185518 -0.21035097 0.12487188
v -1.91146715 -0.46035045 0.10820915
v -1.91145904 -0.46618536 0.10820915
v -1.91185518 -0.21037600 0.12487188
v -1.91160460 -0.21035097 0.10820915
v -1.82953106 -0.46618536 0.08143064
v -1.82953106 -0.21037600 0.18215851
v -1.84526991 -0.21037600 0.20801128
v -1.82953106 -0.21035097 0.18087056
v -1.91131355 -0.46618536 0.10239997
v -1.91125698 -0.21037600 0.09154635
v -1.91125698 -0.21035097 0.09154635
v -1.83374264 -0.46618536 0.07788879
v -1.82953106 -0.46330546 0.08141723
v -1.82953106 -0.21035097 0.08273200
v -1.91103060 -0.46618536 0.09154635
v -1.91105486 -0.44369718 0.09154635
v -1.91103871 -0.46035045 0.09154635
v -1.90903395 -0.21035097 0.07998170
v -1.90890460 -0.42701886 0.08006217
v -1.90888040 -0.46618536 0.08010246
v -1.91028691 -0.46618536 0.08756181
v -1.84868124 -0.46618536 0.07221378
v -1.83373453 -0.46035045 0.07787537
v -1.82953106 -0.46035045 0.08140382
v -1.83381536 -0.21035097 0.07780832
v -1.82953106 -0.21037600 0.08151111
v -1.89867070 -0.21035097 0.07382371
v -1.89867070 -0.21037600 0.07382371
v -1.89867070 -0.42701886 0.07397130
v -1.90888845 -0.44369718 0.08007564
v -1.89867070 -0.46618536 0.07405182
v -1.89867070 -0.44369718 0.07399812
v -1.86534981 -0.46618536 0.07165033
v -1.84868124 -0.46035045 0.07220037
v -1.84868124 -0.21037600 0.07194550
v -1.83362140 -0.32704912 0.07784855
v -1.82953106 -0.32704912 0.08122942
v -1.84868124 -0.21035097 0.07194550
v -1.82953106 -0.21889048 0.08141723
v -1.82953106 -0.31860979 0.08122942
v -1.88201023 -0.21035097 0.07096607
v -1.88201023 -0.44369718 0.07123441
v -1.89285854 -0.46618536 0.07307239
v -1.88201023 -0.46035045 0.07126123
v -1.87619002 -0.46618536 0.07139540
v -1.86534981 -0.21037600 0.07127464
v -1.86534981 -0.21035097 0.07127464
v -1.88201023 -0.46618536 0.07127464
f 1 2 6
f 1 6 14
f 1 14 21
f 1 21 27
f 1 27 33
f 1 33 32
f 1 32 43
f 1 43 55
f 1 55 60
f 1 60 57
f 1 57 45
f 1 45 34
f 1 34 24
f 1 24 17
f 1 17 8
f 1 8 3
f 1 3 9
f 1 9 19
f 1 19 10
f 1 10 4
f 1 4 2
f 2 5 6
f 2 4 7
f 2 7 5
f 3 8 9
f 4 10 11
f 4 11 7
f 5 7 12
f 5 12 15
f 5 15 6
f 6 13 14
f 6 15 16
f 6 16 13
f 7 11 10
f 7 10 20
f 7 20 26
f 7 26 37
f 7 37 50
f 7 50 59
f 7 59 53
f 7 53 39
f 7 39 30
f 7 30 23
f 7 23 16
f 7 16 12
f 8 17 25
f 8 25 36
f 8 36 49
f 8 49 52
f 8 52 51
f 8 51 38
f 8 38 26
f 8 26 20
f 8 20 18
f 8 18 19
f 8 19 9
f 10 19 18
f 10 18 20
f 12 16 15
f 13 21 14
f 13 16 22
f 13 22 21
f 16 23 22
f 17 24 25
f 21 22 28
f 21 28 29
f 21 29 27
f 22 23 30
f 22 30 31
f 22 31 32
f 22 32 33
f 22 33 28
f 24 34 35
f 24 35 36
f 24 36 25
f 26 38 37
f 27 29 33
f 28 33 29
f 30 39 40
f 30 40 41
f 30 41 31
f 31 41 42
f 31 42 32
f 32 42 41
f 32 41 44
f 32 44 43
f 34 45 46
f 34 46 35
f 35 46 47
f 35 47 48
f 35 48 49
f 35 49 36
f 37 38 51
f 37 51 52
f 37 52 48
f 37 48 50
f 39 53 40
f 40 53 41
f 41 54 44
f 41 53 54
f 43 44 55
f 44 54 56
f 44 56 55
f 45 57 58
f 45 58 46
f 46 58 47
f 47 58 59
f 47 59 50
f 47 50 48
f 48 52 49
f 53 59 58
f 53 58 54
f 54 57 56
f 54 58 57
f 55 56 60
f 56 57 60

