# https://github.com/mikedh/trimesh
v -3.89840373 -0.78505843 0.42823127
v -3.75824646 -0.78479244 0.42823127
v -3.89840373 -0.73583408 0.42823127
v -3.89840373 -0.78501411 0.28686831
v -3.74951032 -0.78477274 0.42823127
v -3.74940822 -0.73659267 0.42823127
v -3.74940822 -0.73517893 0.20825202
v -3.89840373 -0.73578976 0.41972580
v -3.89840373 -0.78499438 0.27020195
v -3.74940822 -0.78457569 0.25353552
v -3.74940822 -0.78469883 0.37020032
v -3.74940822 -0.78474809 0.42019954
v -3.74940822 -0.78474809 0.42039332
v -3.74940822 -0.76155211 0.42823127
v -3.74940822 -0.77095562 0.20825202
v -3.89840373 -0.73473561 0.20825202
v -3.89840373 -0.78496485 0.25353552
v -3.74940822 -0.78455107 0.23686915
v -3.74940822 -0.78451659 0.22020273
v -3.74946657 -0.78449689 0.20825202
v -3.89840373 -0.78486632 0.20825202
f 1 2 5
f 1 5 14
f 1 14 6
f 1 6 3
f 1 3 8
f 1 8 16
f 1 16 21
f 1 21 17
f 1 17 9
f 1 9 4
f 1 4 2
f 2 4 5
f 3 6 7
f 3 7 8
f 4 9 10
f 4 10 5
f 5 11 12
f 5 12 13
f 5 13 14
f 5 10 11
f 6 14 13
f 6 13 12
f 6 12 11
f 6 11 10
f 6 10 18
f 6 18 19
f 6 19 15
f 6 15 7
f 7 15 20
f 7 20 21
f 7 21 16
f 7 16 8
f 9 17 18
f 9 18 10
f 15 19 20
f 17 21 20
f 17 20 18
f 18 20 19

