# https://github.com/mikedh/trimesh
v -1.08727291 1.65624505 0.44090280
v -1.08727291 1.75622038 0.44056613
v -1.08727291 1.65624505 0.39593980
v -1.01116577 1.65624505 0.44083732
v -1.01130993 1.75622038 0.44055211
v -1.08727291 1.75622038 0.39681415
v -1.08727291 1.75616167 0.39680949
v -0.92792360 1.65624505 0.39356912
v -0.37751629 1.65624505 0.44000037
v -0.37766045 1.75622038 0.43958419
v -0.91127517 1.75622038 0.39473809
v -0.91134724 1.65624505 0.39336342
v -0.36086783 1.65624505 0.43997228
v -0.36093988 1.75622038 0.43954680
v -0.89455466 1.75622038 0.39464922
v -0.89455466 1.65624505 0.39325117
v -0.35099408 1.65624505 0.43994890
v -0.35099408 1.75622038 0.43950940
v -0.87790623 1.75622038 0.39459316
v -0.86118572 1.75622038 0.39453704
v -0.87790623 1.65624505 0.39320441
v -0.35099408 1.65624505 0.39442951
v -0.35099408 1.75622038 0.39521033
v -0.84453729 1.75622038 0.39449028
v -0.77779942 1.75622038 0.39430790
v -0.76115096 1.75622038 0.39427050
v -0.69462932 1.65624505 0.39313428
v -0.49441568 1.65624505 0.39339145
v -0.51120823 1.65624505 0.39328392
v -0.74450254 1.75622038 0.39427987
v -0.67783674 1.65624505 0.39313893
v -0.52771254 1.65624505 0.39326519
f 1 2 6
f 1 6 7
f 1 7 3
f 1 3 8
f 1 8 12
f 1 12 16
f 1 16 21
f 1 21 27
f 1 27 31
f 1 31 32
f 1 32 29
f 1 29 28
f 1 28 22
f 1 22 17
f 1 17 13
f 1 13 9
f 1 9 4
f 1 4 5
f 1 5 2
f 2 5 10
f 2 10 14
f 2 14 18
f 2 18 23
f 2 23 30
f 2 30 26
f 2 26 25
f 2 25 24
f 2 24 20
f 2 20 19
f 2 19 15
f 2 15 11
f 2 11 6
f 3 7 8
f 4 9 5
f 5 9 10
f 6 11 7
f 7 12 8
f 7 11 12
f 9 13 10
f 10 13 14
f 11 15 16
f 11 16 12
f 13 17 14
f 14 17 18
f 15 19 16
f 16 19 20
f 16 20 24
f 16 24 21
f 17 22 23
f 17 23 18
f 21 24 25
f 21 25 26
f 21 26 27
f 22 28 23
f 23 28 29
f 23 29 30
f 26 30 31
f 26 31 27
f 29 32 30
f 30 32 31

