# https://github.com/mikedh/trimesh
v 2.10744678 -0.13503407 0.67020693
v 2.10744678 -0.13509785 0.63688463
v 2.09577169 -0.13538023 0.67020693
v 2.10744678 -0.13504319 0.68685831
v 2.11995128 -0.13564440 0.60354274
v 2.11980119 -0.13565352 0.58673484
v 2.09622195 -0.13543489 0.63688463
v 2.10913719 -0.13565352 0.58673484
v 2.10744678 -0.13528915 0.62021370
v 2.08762761 -0.13710189 0.65355555
v 2.08743800 -0.13707456 0.67020693
v 2.08744593 -0.13706544 0.68685831
v 2.09577962 -0.13538935 0.68685831
v 2.09596130 -0.13544401 0.72018061
v 2.10744678 -0.13511606 0.72018061
v 2.11935094 -0.13569906 0.72018061
v 2.11956421 -0.13568994 0.70350968
v 2.12830077 -0.13681951 0.62021370
v 2.12828497 -0.13684681 0.60354274
v 2.11979327 -0.13568085 0.67020693
v 2.12826918 -0.13682860 0.63688463
v 2.12813489 -0.13688326 0.58689140
v 2.12806378 -0.13687417 0.58673484
v 2.08789618 -0.13722942 0.63688463
v 2.09745421 -0.13564440 0.62021370
v 2.10080350 -0.13611808 0.58673484
v 2.07412776 -0.14196624 0.65355555
v 2.07412776 -0.14211200 0.63688463
v 2.07412776 -0.14195715 0.67020693
v 2.07412776 -0.14196624 0.68685831
v 2.07412776 -0.14203001 0.73685154
v 2.08762761 -0.13706544 0.72018061
v 2.08787246 -0.13708368 0.73685154
v 2.09620615 -0.13550775 0.73685154
v 2.09769121 -0.13558974 0.78662956
v 2.10743886 -0.13538935 0.78662956
v 2.10759687 -0.13538935 0.78662956
v 2.11832400 -0.13581749 0.78662956
v 2.12803219 -0.13690147 0.68685831
v 2.12654713 -0.13703811 0.78662956
v 2.13582872 -0.14518181 0.60354274
v 2.13587616 -0.14521826 0.58689140
v 2.13587616 -0.14521826 0.58673484
v 2.13567076 -0.14539135 0.78662956
v 2.12812696 -0.13689238 0.67020693
v 2.12819807 -0.13695613 0.58673484
v 2.09079520 -0.13838629 0.58673484
v 2.07426205 -0.14347839 0.58673484
v 2.07412776 -0.14352393 0.58673484
v 2.06241321 -0.14928101 0.62021370
v 2.06237375 -0.14923547 0.63688463
v 2.06238162 -0.14921726 0.65355555
v 2.06276868 -0.14958162 0.58689140
v 2.06253963 -0.14937211 0.60354274
v 2.06247639 -0.14929922 0.75352249
v 2.06249218 -0.14936299 0.77019342
v 2.06259488 -0.14956339 0.78662956
v 2.07412776 -0.14346930 0.78662956
v 2.08936539 -0.13824965 0.78662956
v 2.09757272 -0.13562619 0.78662956
v 2.12666562 -0.13705635 0.78662956
v 2.12788997 -0.13696525 0.70350968
v 2.13927281 -0.16102289 0.58673484
v 2.13876725 -0.16079514 0.78662956
v 2.06276077 -0.14959071 0.58673484
v 2.05890598 -0.16101377 0.58673484
v 2.05862948 -0.16102289 0.62021370
v 2.05858209 -0.16102289 0.63688463
v 2.05877168 -0.16102289 0.77019342
v 2.05879535 -0.16102289 0.78662956
v 2.13913060 -0.17768377 0.58689140
v 2.13913060 -0.17768377 0.58673484
v 2.13880671 -0.16102289 0.78662956
v 2.05889806 -0.16118686 0.58673484
v 2.05953792 -0.17768377 0.62021370
v 2.05946681 -0.17768377 0.63688463
v 2.05941942 -0.17768377 0.73685154
v 2.05951419 -0.17768377 0.75352249
v 2.05881114 -0.16125973 0.78662956
v 2.13848281 -0.17744693 0.78662956
v 2.13847495 -0.17768377 0.78662956
v 2.13740062 -0.19433556 0.73685154
v 2.13732957 -0.19433556 0.63688463
v 2.13729012 -0.19433556 0.60354274
v 2.13728213 -0.19419892 0.58673484
v 2.06037519 -0.17768377 0.58673484
v 2.05991706 -0.17768377 0.60354274
v 2.06332165 -0.18876067 0.62021370
v 2.06326634 -0.18881533 0.63688463
v 2.07726376 -0.22808547 0.58673484
v 2.06310832 -0.18911594 0.73685154
v 2.07635538 -0.22808547 0.78662956
v 2.06001184 -0.17768377 0.78662956
v 2.13705313 -0.19433556 0.78662956
v 2.13731384 -0.19433556 0.75352249
v 2.13734543 -0.19433556 0.74759373
v 2.13420937 -0.20610474 0.78662956
v 2.13726639 -0.19433556 0.58673484
v 2.06041471 -0.17782953 0.58673484
v 2.10136438 -0.22808547 0.58673484
v 2.12395615 -0.22808547 0.78662956
v 2.13416991 -0.20624139 0.78662956
v 2.13427254 -0.20469282 0.65355555
v 2.13424096 -0.20463816 0.63688463
v 2.13416204 -0.20452884 0.62021370
v 2.13406715 -0.20440132 0.60354274
v 2.13396451 -0.20426467 0.58689140
v 2.13398823 -0.20418269 0.58673484
v 2.11714704 -0.22807637 0.58673484
v 2.11713125 -0.22808547 0.58689140
v 2.13390133 -0.20433757 0.58673484
f 1 2 3
f 1 3 4
f 1 4 5
f 1 5 6
f 1 6 2
f 2 7 3
f 2 6 8
f 2 8 9
f 2 9 7
f 3 7 10
f 3 10 11
f 3 11 12
f 3 12 13
f 3 13 4
f 4 13 14
f 4 14 15
f 4 15 16
f 4 16 17
f 4 17 5
f 5 18 19
f 5 19 6
f 5 17 20
f 5 20 21
f 5 21 18
f 6 19 22
f 6 22 23
f 6 23 46
f 6 46 43
f 6 43 63
f 6 63 72
f 6 72 85
f 6 85 98
f 6 98 108
f 6 108 111
f 6 111 109
f 6 109 100
f 6 100 90
f 6 90 99
f 6 99 86
f 6 86 74
f 6 74 66
f 6 66 65
f 6 65 49
f 6 49 48
f 6 48 47
f 6 47 26
f 6 26 8
f 7 24 10
f 7 9 8
f 7 8 25
f 7 25 24
f 8 26 25
f 10 27 11
f 10 24 28
f 10 28 27
f 11 29 12
f 11 27 29
f 12 29 30
f 12 30 31
f 12 31 32
f 12 32 13
f 13 32 14
f 14 32 33
f 14 33 34
f 14 34 35
f 14 35 15
f 15 35 36
f 15 36 37
f 15 37 38
f 15 38 16
f 16 39 17
f 16 38 40
f 16 40 39
f 17 39 21
f 17 21 20
f 18 41 42
f 18 42 43
f 18 43 19
f 18 21 44
f 18 44 41
f 19 43 22
f 21 39 45
f 21 45 44
f 22 43 46
f 22 46 23
f 24 25 47
f 24 47 48
f 24 48 49
f 24 49 28
f 25 26 47
f 27 28 50
f 27 50 51
f 27 51 52
f 27 52 29
f 28 49 53
f 28 53 54
f 28 54 50
f 29 52 30
f 30 52 31
f 31 33 32
f 31 52 55
f 31 55 56
f 31 56 57
f 31 57 58
f 31 58 33
f 33 58 59
f 33 59 60
f 33 60 35
f 33 35 34
f 35 60 59
f 35 59 58
f 35 58 57
f 35 57 70
f 35 70 79
f 35 79 93
f 35 93 92
f 35 92 101
f 35 101 102
f 35 102 97
f 35 97 94
f 35 94 81
f 35 81 80
f 35 80 73
f 35 73 64
f 35 64 44
f 35 44 61
f 35 61 40
f 35 40 38
f 35 38 37
f 35 37 36
f 39 40 61
f 39 61 62
f 39 62 44
f 39 44 45
f 41 44 42
f 42 44 63
f 42 63 43
f 44 64 63
f 44 62 61
f 49 65 53
f 50 54 66
f 50 66 67
f 50 67 51
f 51 68 52
f 51 67 68
f 52 68 55
f 53 65 54
f 54 65 66
f 55 69 70
f 55 70 56
f 55 68 69
f 56 70 57
f 63 71 72
f 63 64 73
f 63 73 71
f 66 74 67
f 67 74 75
f 67 75 76
f 67 76 68
f 68 76 77
f 68 77 69
f 69 77 70
f 70 78 79
f 70 77 78
f 71 73 80
f 71 80 81
f 71 81 82
f 71 82 72
f 72 82 83
f 72 83 84
f 72 84 85
f 74 86 87
f 74 87 75
f 75 88 89
f 75 89 76
f 75 87 90
f 75 90 88
f 76 89 91
f 76 91 77
f 77 91 78
f 78 92 93
f 78 93 79
f 78 91 92
f 81 94 95
f 81 95 96
f 81 96 82
f 82 96 97
f 82 97 83
f 83 97 84
f 84 98 85
f 84 97 98
f 86 99 87
f 87 99 90
f 88 90 92
f 88 92 89
f 89 92 91
f 90 100 110
f 90 110 101
f 90 101 92
f 94 97 95
f 95 97 96
f 97 102 98
f 98 103 104
f 98 104 105
f 98 105 106
f 98 106 107
f 98 107 108
f 98 102 103
f 100 109 110
f 101 110 109
f 101 109 107
f 101 107 106
f 101 106 105
f 101 105 104
f 101 104 102
f 102 104 103
f 107 109 111
f 107 111 108

