# https://github.com/mikedh/trimesh
v -3.46431156 1.95135569 0.39095504
v -3.44761461 1.95135569 0.39099691
v -3.46431156 1.93959785 0.39449708
v -3.48096944 1.93959785 0.39450173
v -3.69791226 1.93959785 0.39506493
v -3.69791226 1.95135569 0.39236997
v -3.43095673 1.95135569 0.39105279
v -3.31419541 1.93959785 0.39501835
v -3.69791226 1.93959785 0.43809042
v -3.69791226 1.95135569 0.42568639
v -3.39760193 1.95135569 0.39116915
v -3.39268647 1.95135569 0.39119707
v -3.29941002 1.93961052 0.39511145
v -3.29941002 1.93959785 0.39991484
v -3.69783425 1.95135569 0.43826266
v -3.69791226 1.93961052 0.43809042
v -3.31423441 1.93959785 0.43806251
v -3.29941002 1.93961052 0.43816026
v -3.29941002 1.95135569 0.43850469
v -3.37598955 1.95135569 0.39131808
v -3.29941002 1.94091464 0.39479958
v -3.29941002 1.95135569 0.39230484
f 1 2 3
f 1 3 4
f 1 4 5
f 1 5 6
f 1 6 10
f 1 10 15
f 1 15 19
f 1 19 22
f 1 22 20
f 1 20 12
f 1 12 11
f 1 11 7
f 1 7 2
f 2 7 3
f 3 7 8
f 3 8 14
f 3 14 17
f 3 17 9
f 3 9 5
f 3 5 4
f 5 9 16
f 5 16 10
f 5 10 6
f 7 11 8
f 8 11 12
f 8 12 13
f 8 13 14
f 9 15 16
f 9 17 18
f 9 18 19
f 9 19 15
f 10 16 15
f 12 20 13
f 13 21 22
f 13 22 19
f 13 19 18
f 13 18 14
f 13 20 21
f 14 18 17
f 20 22 21

