# https://github.com/mikedh/trimesh
v -2.00789059 -0.71678392 0.71675636
v -1.99227310 -0.73788834 0.71675636
v -2.04978918 -0.71678392 0.71675636
v -1.99396517 -0.71678392 0.80354004
v -1.99148827 -0.73960771 0.71675636
v -2.05752234 -0.72927462 0.71675636
v -2.05752234 -0.71678392 0.81605664
v -1.99355478 -0.71678392 0.82021893
v -1.98852900 -0.74621550 0.71675636
v -2.05752234 -0.78404162 0.71675636
v -2.05752234 -0.71678392 0.90587284
v -1.98489273 -0.76100714 0.83689780
v -1.98484242 -0.76100714 0.82021893
v -1.98535360 -0.76100714 0.71675636
v -1.99388595 -0.71678392 0.84266554
v -1.98858658 -0.74628291 1.02048438
v -1.98549045 -0.76100714 1.02048438
v -2.04756430 -0.79308518 0.71675636
v -2.05752234 -0.79173665 0.80354004
v -2.05752234 -0.72741199 1.02048438
v -2.05091243 -0.71678392 1.02048438
v -1.98399996 -0.77766984 0.83689780
v -1.98397112 -0.77766984 0.82021893
v -1.98474157 -0.77422266 0.71675636
v -1.99406596 -0.71678392 0.85354695
v -1.98865131 -0.74613962 1.02048438
v -1.98477042 -0.77766984 1.02048438
v -2.03595739 -0.79965080 0.71675636
v -2.05752234 -0.79260476 0.82021893
v -2.05752234 -0.77381812 1.02048438
v -2.00886984 -0.71678392 1.02048438
v -1.98786655 -0.79382688 1.02048438
v -1.98752096 -0.79355716 0.83689780
v -1.98755696 -0.79364145 0.80354004
v -1.98758569 -0.79360774 0.78689090
v -1.98775854 -0.79334646 0.71675636
v -1.98458314 -0.77766984 0.71675636
v -1.99237389 -0.73794734 1.02048438
v -2.03260925 -0.80142075 0.71675636
v -2.05752234 -0.79252048 0.82895972
v -2.03292605 -0.80137017 0.72020511
v -2.03292605 -0.80145446 0.78689090
v -2.03292605 -0.80144605 0.80354004
v -2.03295484 -0.80137017 0.88684524
v -2.03303406 -0.80115104 0.95353102
v -2.03296205 -0.80112576 0.97018017
v -2.03292605 -0.80099091 1.00353793
v -2.03292605 -0.80089819 1.02048438
v -2.05752234 -0.78310609 1.02042491
v -2.05545583 -0.78357807 1.02048438
v -1.99596688 -0.80201915 1.02048438
v -1.99125784 -0.80267657 0.94562268
v -1.99124342 -0.80269344 0.93685215
v -1.98788097 -0.79434100 0.93685215
v -1.99123626 -0.80269344 0.92608966
v -1.98971705 -0.79507426 0.71675636
v -2.02257920 -0.80261756 0.71675636
v -2.02459528 -0.80267657 0.87849093
v -2.05752234 -0.79227607 0.84560888
v -2.02470329 -0.80269344 0.92020300
v -2.02472492 -0.80269344 0.93685215
v -2.02469614 -0.80269344 0.95353102
v -2.02459528 -0.80267657 0.97886151
v -2.03126277 -0.80140391 0.98540225
v -2.02054875 -0.80252484 1.02048438
v -2.04688748 -0.79285761 1.02048438
v -2.05752234 -0.79208221 0.85354695
v -2.02414169 -0.80265970 0.98998076
v -2.04712507 -0.79271435 1.02048438
v -1.99611089 -0.80216245 1.02048438
v -2.00444166 -0.80283670 1.02048438
v -2.00397364 -0.80288727 1.00353793
v -1.99959582 -0.80286200 0.93685215
v -2.00580972 -0.80283670 0.71675636
v -1.99747895 -0.80168203 0.71675636
v -2.02133357 -0.80265127 0.71675636
v -2.01457966 -0.80282829 0.71675636
v -2.01626451 -0.80286200 0.88684524
v -2.01626451 -0.80287043 0.93685215
v -2.01626451 -0.80287043 0.95353102
v -2.01766142 -0.80283670 0.98540225
v -2.01423407 -0.80288727 1.00353793
v -2.01221798 -0.80283670 1.02048438
v -2.00426165 -0.80287884 0.87019609
f 1 2 5
f 1 5 9
f 1 9 14
f 1 14 24
f 1 24 37
f 1 37 36
f 1 36 56
f 1 56 75
f 1 75 74
f 1 74 77
f 1 77 76
f 1 76 57
f 1 57 39
f 1 39 28
f 1 28 18
f 1 18 10
f 1 10 6
f 1 6 3
f 1 3 7
f 1 7 11
f 1 11 21
f 1 21 31
f 1 31 25
f 1 25 15
f 1 15 8
f 1 8 4
f 1 4 2
f 2 4 5
f 3 6 7
f 4 8 9
f 4 9 5
f 6 10 19
f 6 19 29
f 6 29 40
f 6 40 59
f 6 59 67
f 6 67 49
f 6 49 30
f 6 30 20
f 6 20 11
f 6 11 7
f 8 12 13
f 8 13 14
f 8 14 9
f 8 15 16
f 8 16 17
f 8 17 12
f 10 18 19
f 11 20 21
f 12 22 13
f 12 17 22
f 13 22 23
f 13 23 14
f 14 23 24
f 15 25 16
f 16 26 38
f 16 38 31
f 16 31 21
f 16 21 20
f 16 20 30
f 16 30 50
f 16 50 69
f 16 69 66
f 16 66 48
f 16 48 65
f 16 65 83
f 16 83 71
f 16 71 70
f 16 70 51
f 16 51 32
f 16 32 27
f 16 27 17
f 16 25 26
f 17 27 22
f 18 28 29
f 18 29 19
f 22 27 32
f 22 32 23
f 23 32 33
f 23 33 34
f 23 34 35
f 23 35 36
f 23 36 37
f 23 37 24
f 25 31 38
f 25 38 26
f 28 39 29
f 29 39 41
f 29 41 42
f 29 42 43
f 29 43 44
f 29 44 45
f 29 45 46
f 29 46 47
f 29 47 48
f 29 48 40
f 30 49 50
f 32 51 52
f 32 52 53
f 32 53 54
f 32 54 33
f 33 54 55
f 33 55 34
f 34 55 35
f 35 55 36
f 36 55 56
f 39 57 58
f 39 58 42
f 39 42 41
f 40 48 59
f 42 58 60
f 42 60 61
f 42 61 62
f 42 62 43
f 43 62 44
f 44 62 63
f 44 63 64
f 44 64 46
f 44 46 45
f 46 64 47
f 47 64 48
f 48 66 67
f 48 67 59
f 48 64 63
f 48 63 68
f 48 68 65
f 49 69 50
f 49 67 69
f 51 70 52
f 52 70 71
f 52 71 72
f 52 72 53
f 53 73 55
f 53 55 54
f 53 72 73
f 55 73 74
f 55 74 75
f 55 75 56
f 57 76 58
f 58 76 77
f 58 77 60
f 60 77 78
f 60 78 79
f 60 79 61
f 61 79 80
f 61 80 62
f 62 80 81
f 62 81 63
f 63 81 82
f 63 82 68
f 65 68 83
f 66 69 67
f 68 82 83
f 71 83 82
f 71 82 72
f 72 84 73
f 72 82 84
f 73 84 74
f 74 84 77
f 77 84 78
f 78 82 79
f 78 84 82
f 79 82 80
f 80 82 81

