# https://github.com/mikedh/trimesh
v -1.92943440 -0.16037608 0.49157393
v -1.92637094 -0.14591739 0.49157393
v -1.92943440 -0.16037608 0.48547936
v -1.92844901 -0.16543462 0.48547936
v -1.92672440 -0.17427948 0.49157393
v -1.92669233 -0.17424918 0.70816993
v -1.92939161 -0.16037608 0.60822379
v -1.92172221 -0.13758745 0.49157393
v -1.92637094 -0.14593757 0.48547936
v -1.92748496 -0.15117784 0.48547936
v -1.92633875 -0.14609913 0.60822379
v -1.92172221 -0.13760766 0.50822746
v -1.92672440 -0.17427948 0.48547936
v -1.92668160 -0.17430976 0.69154150
v -1.91038955 -0.22083614 0.72537522
v -1.92669233 -0.17416841 0.72537522
v -1.92931662 -0.16037608 0.72537522
v -1.92171148 -0.13760766 0.48547936
v -1.91307810 -0.13036820 0.74170268
v -1.91312095 -0.13036820 0.69154150
v -1.91314235 -0.13037830 0.67486290
v -1.91317448 -0.13046917 0.65818431
v -1.92164723 -0.13770863 0.59157026
v -1.92628523 -0.14662416 0.72537522
v -1.91027171 -0.22083614 0.48547936
v -1.91028244 -0.22083614 0.49157393
v -1.91031456 -0.22083614 0.53110096
v -1.91038955 -0.22083614 0.70816993
v -1.84207222 -0.22083614 0.72537522
v -1.89934608 -0.21816046 0.74170268
v -1.91037882 -0.21816046 0.74152711
v -1.92666014 -0.17404726 0.74170268
v -1.92924164 -0.16037608 0.74170268
v -1.92624243 -0.14667464 0.74170268
v -1.91337803 -0.13164041 0.48547936
v -1.92141155 -0.13833463 0.74152711
v -1.92132590 -0.13826394 0.74170268
v -1.89867124 -0.12335088 0.74170268
v -1.89866057 -0.12329030 0.69154150
v -1.89866057 -0.12329030 0.67486290
v -1.89866057 -0.12336096 0.65818431
v -1.84395747 -0.22083614 0.48547936
v -1.84020843 -0.21816046 0.74170268
v -1.91037882 -0.21808980 0.74170268
v -1.92145441 -0.13841540 0.74170268
v -1.89866057 -0.12450192 0.48547936
v -1.88199360 -0.12031171 0.74170268
v -1.87747338 -0.11776731 0.57489167
v -1.87769833 -0.11769662 0.55823817
v -1.88603179 -0.11983716 0.55823817
v -1.88603179 -0.11983716 0.54155958
v -1.88592468 -0.11983716 0.52490605
v -1.82829735 -0.17702582 0.48547936
v -1.82420564 -0.18150884 0.69154150
v -1.82418418 -0.18207426 0.70816993
v -1.82425916 -0.18245794 0.74170268
v -1.88556049 -0.11984726 0.50822746
v -1.88491783 -0.11990785 0.48547936
v -1.86551951 -0.11919098 0.74170268
v -1.86609792 -0.11776731 0.57489167
v -1.86535882 -0.11918088 0.74170268
v -1.86571227 -0.11769662 0.55823817
v -1.87769833 -0.11769662 0.54155958
v -1.87759122 -0.11774711 0.52490605
v -1.82697990 -0.17095760 0.48547936
v -1.82480544 -0.16037608 0.48547936
v -1.82211689 -0.17423910 0.74170268
v -1.87658437 -0.11809040 0.48547936
v -1.87722703 -0.11788846 0.50822746
v -1.85776446 -0.11881738 0.57489167
v -1.84869191 -0.12381533 0.74170268
v -1.85737882 -0.11876689 0.55823817
v -1.85699323 -0.11869623 0.50822746
v -1.85693965 -0.11866592 0.48547936
v -1.86558376 -0.11769662 0.54155958
v -1.86535882 -0.11787836 0.50822746
v -1.86535882 -0.11805002 0.48547936
v -1.82000675 -0.16037608 0.74170268
v -1.82563026 -0.15431796 0.48547936
v -1.82368075 -0.15203607 0.54890818
v -1.87255685 -0.11807023 0.48547936
v -1.83501342 -0.13189284 0.74170268
v -1.83527050 -0.13169090 0.72537522
v -1.83482060 -0.13191301 0.70816993
v -1.83480993 -0.13189284 0.69154150
v -1.84860619 -0.12349224 0.49157393
v -1.85702536 -0.11871641 0.51677993
v -1.84859546 -0.12349224 0.48547936
v -1.86228462 -0.11826206 0.48547936
v -1.82147423 -0.14780550 0.74170268
v -1.82710841 -0.14371626 0.48547936
v -1.83479920 -0.13202409 0.74170268
v -1.83485272 -0.13194332 0.72537522
v -1.82654073 -0.13929383 0.74170268
v -1.83485272 -0.13187263 0.67486290
v -1.83540973 -0.13182215 0.48547936
v -1.82153848 -0.14762374 0.74170268
v -1.82651927 -0.14031361 0.67486290
v -1.82647641 -0.14013188 0.69154150
f 1 2 3
f 1 3 4
f 1 4 5
f 1 5 6
f 1 6 7
f 1 7 2
f 2 8 9
f 2 9 10
f 2 10 3
f 2 7 11
f 2 11 12
f 2 12 8
f 3 10 9
f 3 9 18
f 3 18 35
f 3 35 46
f 3 46 58
f 3 58 68
f 3 68 81
f 3 81 77
f 3 77 89
f 3 89 74
f 3 74 88
f 3 88 96
f 3 96 91
f 3 91 79
f 3 79 66
f 3 66 65
f 3 65 53
f 3 53 42
f 3 42 25
f 3 25 13
f 3 13 4
f 4 13 5
f 5 14 6
f 5 13 28
f 5 28 15
f 5 15 14
f 6 14 15
f 6 15 16
f 6 16 17
f 6 17 7
f 7 17 11
f 8 18 9
f 8 12 19
f 8 19 20
f 8 20 21
f 8 21 22
f 8 22 18
f 11 23 12
f 11 17 24
f 11 24 23
f 12 23 19
f 13 25 26
f 13 26 27
f 13 27 28
f 15 29 43
f 15 43 30
f 15 30 31
f 15 31 32
f 15 32 16
f 15 28 27
f 15 27 26
f 15 26 25
f 15 25 42
f 15 42 29
f 16 32 17
f 17 32 33
f 17 33 34
f 17 34 24
f 18 22 35
f 19 36 37
f 19 37 45
f 19 45 34
f 19 34 33
f 19 33 32
f 19 32 44
f 19 44 30
f 19 30 43
f 19 43 56
f 19 56 67
f 19 67 78
f 19 78 90
f 19 90 97
f 19 97 94
f 19 94 92
f 19 92 82
f 19 82 71
f 19 71 61
f 19 61 59
f 19 59 47
f 19 47 38
f 19 38 39
f 19 39 20
f 19 23 36
f 20 39 21
f 21 39 40
f 21 40 41
f 21 41 22
f 22 41 35
f 23 24 36
f 24 34 36
f 29 42 43
f 30 44 31
f 31 44 32
f 34 45 36
f 35 41 46
f 36 45 37
f 38 47 48
f 38 48 49
f 38 49 50
f 38 50 39
f 39 50 51
f 39 51 40
f 40 51 52
f 40 52 41
f 41 52 46
f 42 53 54
f 42 54 55
f 42 55 43
f 43 55 56
f 46 52 57
f 46 57 58
f 47 59 48
f 48 60 62
f 48 62 49
f 48 59 61
f 48 61 60
f 49 62 75
f 49 75 63
f 49 63 51
f 49 51 50
f 51 63 52
f 52 63 64
f 52 64 57
f 53 65 54
f 54 65 66
f 54 66 67
f 54 67 55
f 55 67 56
f 57 64 58
f 58 64 69
f 58 69 68
f 60 70 62
f 60 61 70
f 61 71 70
f 62 70 72
f 62 72 73
f 62 73 74
f 62 74 75
f 63 75 64
f 64 75 76
f 64 76 77
f 64 77 69
f 66 78 67
f 66 79 80
f 66 80 78
f 68 69 81
f 69 77 81
f 70 71 72
f 71 82 83
f 71 83 84
f 71 84 85
f 71 85 86
f 71 86 74
f 71 74 73
f 71 73 87
f 71 87 72
f 72 87 73
f 74 86 88
f 74 89 76
f 74 76 75
f 76 89 77
f 78 80 90
f 79 91 80
f 80 91 90
f 82 92 93
f 82 93 84
f 82 84 83
f 84 93 92
f 84 92 94
f 84 94 85
f 85 95 88
f 85 88 86
f 85 94 95
f 88 95 96
f 90 91 97
f 91 96 98
f 91 98 97
f 94 97 99
f 94 99 98
f 94 98 96
f 94 96 95
f 97 98 99

