# https://github.com/mikedh/trimesh
v 0.22296403 -0.78700433 1.61824704
v 0.37260520 -0.78694690 1.61824704
v 0.22296403 -0.74809065 1.61824704
v 0.22296403 -0.79385370 1.58687657
v 0.37260520 -0.74946195 1.61824704
v 0.34076104 -0.79377473 1.58687657
v 0.37260520 -0.79375318 1.58687657
v 0.37260520 -0.72515168 1.60043888
v 0.35972983 -0.72515168 1.60043888
v 0.34076104 -0.72515168 1.60042130
v 0.30743749 -0.72515168 1.60036867
v 0.22296403 -0.72515168 1.60019325
v 0.22296403 -0.79655325 1.57020883
v 0.37260520 -0.79630914 1.57020883
v 0.37260520 -0.72515168 1.54989171
v 0.22296403 -0.72515168 1.54985660
v 0.34076104 -0.79752252 1.55354109
v 0.35743015 -0.79750097 1.55354109
v 0.37260520 -0.79747942 1.55354109
v 0.37260520 -0.79642404 1.56869993
v 0.22296403 -0.79661786 1.56906841
v 0.37260520 -0.79849894 1.53687330
v 0.35754734 -0.72515168 1.54983908
v 0.37260520 -0.73732117 1.43900729
v 0.22296403 -0.73721349 1.43900729
v 0.35743015 -0.72515168 1.54983908
v 0.22296403 -0.79746506 1.55354109
v 0.30743749 -0.79839841 1.53687330
v 0.22296403 -0.78696124 1.43900729
v 0.37260520 -0.78691818 1.43900729
v 0.22296403 -0.79804663 1.53687330
v 0.24077565 -0.79821894 1.53687330
v 0.29078298 -0.79836253 1.53687330
f 1 2 5
f 1 5 3
f 1 3 12
f 1 12 16
f 1 16 25
f 1 25 29
f 1 29 31
f 1 31 27
f 1 27 21
f 1 21 13
f 1 13 4
f 1 4 2
f 2 4 6
f 2 6 7
f 2 7 14
f 2 14 20
f 2 20 19
f 2 19 22
f 2 22 30
f 2 30 24
f 2 24 15
f 2 15 8
f 2 8 5
f 3 5 8
f 3 8 9
f 3 9 10
f 3 10 11
f 3 11 12
f 4 13 6
f 6 13 7
f 7 13 14
f 8 15 23
f 8 23 26
f 8 26 16
f 8 16 12
f 8 12 11
f 8 11 10
f 8 10 9
f 13 17 18
f 13 18 19
f 13 19 20
f 13 20 14
f 13 21 22
f 13 22 17
f 15 24 25
f 15 25 23
f 16 26 25
f 17 22 18
f 18 22 19
f 21 27 22
f 22 27 28
f 22 28 29
f 22 29 30
f 23 25 26
f 24 30 29
f 24 29 25
f 27 31 32
f 27 32 33
f 27 33 28
f 28 33 29
f 29 33 32
f 29 32 31

