# https://github.com/mikedh/trimesh
v -2.53282517 -0.24436080 1.93607352
v -2.73479551 -0.24436080 1.93663768
v -2.53282517 -0.24436080 1.99662159
v -2.53282517 -0.31826857 1.93666164
v -2.53339652 -0.71101215 1.93613956
v -2.94974353 -0.24440647 1.93574945
v -2.73479551 -0.24436080 1.99654959
v -2.53282517 -0.31822290 1.99637554
v -2.53298840 -0.24436080 1.99662159
v -2.94974353 -0.24440647 1.99705373
v -2.53339652 -0.71101215 1.99651955
v -2.53282517 -0.31826857 1.93748384
v -2.73479551 -0.71101215 1.93704574
v -2.94966190 -0.71082944 1.93622957
v -2.94974353 -0.71078376 1.93622355
v -2.94974353 -0.71082944 1.99658559
v -2.94941704 -0.71082944 1.99658559
v -2.73479551 -0.71101215 1.99630354
v -2.94974353 -0.71082944 1.95034483
f 1 2 7
f 1 7 9
f 1 9 3
f 1 3 8
f 1 8 12
f 1 12 4
f 1 4 5
f 1 5 6
f 1 6 2
f 2 6 10
f 2 10 7
f 3 9 10
f 3 10 11
f 3 11 8
f 4 12 11
f 4 11 5
f 5 11 18
f 5 18 13
f 5 13 14
f 5 14 15
f 5 15 6
f 6 15 19
f 6 19 16
f 6 16 10
f 7 10 9
f 8 11 12
f 10 16 17
f 10 17 11
f 11 17 16
f 11 16 18
f 13 19 14
f 13 18 16
f 13 16 19
f 14 19 15

