# https://github.com/mikedh/trimesh
v -2.11340291 1.79818791 0.68154179
v -2.11340291 1.79818791 0.72733061
v -2.11340291 1.79816016 0.68135633
v -2.11346410 1.93959364 0.68045223
v -2.11346410 1.93959364 0.72721008
v -2.11346410 1.88956332 0.72732599
v -2.11346410 1.87288655 0.72734454
v -2.11346410 1.80617945 0.72733526
v -2.11340291 1.78958591 0.72732599
v -2.11340291 1.65611621 0.68004422
v -2.17022285 1.93959364 0.68066085
v -2.17022285 1.65611621 0.67998395
v -2.17022285 1.93959364 0.72702924
v -2.17022285 1.88956332 0.72714053
v -2.17022285 1.87288655 0.72715443
v -2.17022285 1.86617144 0.72715443
v -2.17022285 1.81614111 0.72714053
v -2.11346965 1.78953041 0.72732599
v -2.11340291 1.77290914 0.72730279
v -2.11340291 1.65611621 0.68022968
v -2.17022285 1.65611621 0.72651925
v -2.17022285 1.80617945 0.72713126
v -2.11346965 1.77285364 0.72730279
v -2.17022285 1.79818791 0.72712199
v -2.11340291 1.75623236 0.72727497
v -2.11340291 1.65619947 0.72679279
v -2.11346965 1.65611621 0.72679279
v -2.11340291 1.68955301 0.72704779
v -2.17022285 1.68949751 0.72673715
v -2.17022285 1.78953042 0.72710344
v -2.11340291 1.73955558 0.72723325
v -2.11340291 1.70622979 0.72712199
v -2.11346965 1.70617429 0.72712199
v -2.17022285 1.70617429 0.72682524
v -2.17022285 1.77285364 0.72706172
v -2.11346965 1.72282332 0.72718225
v -2.11340291 1.72290656 0.72718225
v -2.17022285 1.72282332 0.72689943
v -2.17022285 1.75617687 0.72701069
f 1 2 9
f 1 9 19
f 1 19 25
f 1 25 31
f 1 31 37
f 1 37 32
f 1 32 28
f 1 28 26
f 1 26 20
f 1 20 10
f 1 10 3
f 1 3 4
f 1 4 5
f 1 5 2
f 2 5 6
f 2 6 7
f 2 7 8
f 2 8 9
f 3 10 4
f 4 11 13
f 4 13 5
f 4 10 12
f 4 12 11
f 5 13 6
f 6 14 7
f 6 13 14
f 7 14 15
f 7 15 16
f 7 16 8
f 8 16 17
f 8 17 18
f 8 18 9
f 9 18 23
f 9 23 19
f 10 20 27
f 10 27 21
f 10 21 12
f 11 12 21
f 11 21 29
f 11 29 34
f 11 34 38
f 11 38 39
f 11 39 35
f 11 35 30
f 11 30 24
f 11 24 22
f 11 22 17
f 11 17 16
f 11 16 15
f 11 15 14
f 11 14 13
f 17 22 18
f 18 22 24
f 18 24 23
f 19 23 25
f 20 26 27
f 21 27 28
f 21 28 29
f 23 24 25
f 24 30 25
f 25 30 35
f 25 35 31
f 26 28 27
f 28 32 33
f 28 33 34
f 28 34 29
f 31 36 37
f 31 35 36
f 32 37 36
f 32 36 33
f 33 36 38
f 33 38 34
f 35 39 36
f 36 39 38

