# https://github.com/mikedh/trimesh
v -1.90462146 1.62618673 0.38338990
v -1.87868357 1.62618673 0.38395160
v -1.87868357 1.62012723 0.38253148
v -1.90462146 1.62435003 0.38297658
v -1.90462146 1.62618673 0.44224032
v -1.87868357 1.62618673 0.44041744
v -1.87868357 1.60619414 0.38119611
v -1.90462146 1.57272015 0.37250577
v -1.90462146 1.62220476 0.38249969
v -1.90462146 1.59896039 0.46827943
v -1.87868357 1.59860661 0.46766476
v -1.87868357 1.60606618 0.38118549
v -1.87868357 1.58939317 0.38102655
v -1.87868357 1.57272015 0.38145048
v -1.87868357 1.56340132 0.38284943
v -1.90462146 1.55605465 0.37558982
v -1.90462146 1.59322457 0.47311210
v -1.90462146 1.57474499 0.48038232
v -1.90462146 1.57272015 0.48076385
v -1.87868357 1.58924262 0.46841720
v -1.87868357 1.56330346 0.38287060
v -1.90462146 1.55554280 0.37685094
v -1.90462146 1.55515136 0.47663064
v -1.87868357 1.56398093 0.46748459
v -1.87868357 1.57272015 0.46821585
v -1.87868357 1.55983336 0.39212258
v -1.90462146 1.55068768 0.39212258
v -1.90462146 1.55495566 0.47657762
v -1.87868357 1.56393576 0.46738922
v -1.87868357 1.55740203 0.40865539
v -1.87868357 1.55738700 0.40880378
v -1.90462146 1.55058981 0.39340493
v -1.90462146 1.54929512 0.45882610
v -1.87868357 1.56045060 0.45882610
v -1.87868357 1.55731924 0.42533660
v -1.87868357 1.55731171 0.44199657
v -1.87868357 1.55731171 0.44214489
f 1 2 3
f 1 3 4
f 1 4 9
f 1 9 8
f 1 8 16
f 1 16 22
f 1 22 27
f 1 27 32
f 1 32 33
f 1 33 28
f 1 28 23
f 1 23 19
f 1 19 18
f 1 18 17
f 1 17 10
f 1 10 5
f 1 5 6
f 1 6 2
f 2 6 11
f 2 11 20
f 2 20 25
f 2 25 24
f 2 24 29
f 2 29 34
f 2 34 37
f 2 37 36
f 2 36 35
f 2 35 31
f 2 31 30
f 2 30 26
f 2 26 21
f 2 21 15
f 2 15 14
f 2 14 13
f 2 13 12
f 2 12 7
f 2 7 3
f 3 7 8
f 3 8 9
f 3 9 4
f 5 10 11
f 5 11 6
f 7 12 8
f 8 13 14
f 8 14 15
f 8 15 16
f 8 12 13
f 10 17 11
f 11 17 18
f 11 18 19
f 11 19 20
f 15 21 16
f 16 21 22
f 19 23 24
f 19 24 25
f 19 25 20
f 21 26 22
f 22 26 27
f 23 28 24
f 24 28 29
f 26 30 27
f 27 30 31
f 27 31 32
f 28 33 34
f 28 34 29
f 31 35 33
f 31 33 32
f 33 35 36
f 33 36 37
f 33 37 34

