# https://github.com/mikedh/trimesh
v -2.74956885 -0.19434674 1.89466441
v -2.84955416 -0.20433310 1.89502884
v -2.83294435 -0.19434674 1.89474768
v -2.76626028 -0.18009664 1.89493508
v -2.58298106 -0.16905086 1.89507044
v -2.66627496 -0.19434674 1.89468521
v -2.68292559 -0.20498437 1.89495594
v -2.73479551 -0.20369917 1.89492471
v -2.84955416 -0.19434674 1.89478934
v -2.73479551 -0.20486281 1.89496631
v -2.73291822 -0.20488018 1.89496631
v -2.69961702 -0.21329476 1.89723601
v -2.84955416 -0.21266086 1.89765248
v -2.86624558 -0.20375129 1.89510167
v -2.84955416 -0.18296228 1.89499760
v -2.83294435 -0.18244127 1.89496631
v -2.59963169 -0.16906820 1.89508087
v -2.56628966 -0.16217329 1.90355571
v -2.56628966 -0.16906820 1.89508087
v -2.63297372 -0.19434674 1.89469564
v -2.63297372 -0.20468045 1.89498717
v -2.68292559 -0.21332080 1.89727768
v -2.87791735 -0.20303922 1.89518500
v -2.86624558 -0.19434674 1.89494551
v -2.87934571 -0.18503770 1.89516414
v -2.86624558 -0.18397828 1.89507044
v -2.73291822 -0.21321661 1.89737138
v -2.69961702 -0.22144015 1.90556511
v -2.84955416 -0.22132726 1.90598158
v -2.94974353 -0.22142279 1.90721010
v -2.94974353 -0.21099355 1.89906840
v -2.84955416 -0.17462584 1.89572634
v -2.76626028 -0.17176888 1.89538277
v -2.93292967 -0.17767384 1.89624693
v -2.86624558 -0.17565052 1.89578886
v -2.61040562 -0.16917242 1.89513291
v -2.94974353 -0.16354531 1.90444066
v -2.81625293 -0.16300693 1.90390970
v -2.58298106 -0.16219934 1.90355571
v -2.54963903 -0.15567779 1.92022428
v -2.53282517 -0.15572122 1.92022428
v -2.53294760 -0.16246855 1.90362860
v -2.53282517 -0.16247722 1.90361817
v -2.55449548 -0.16918110 1.89513291
v -2.53282517 -0.18054818 1.89510167
v -2.58298106 -0.17767384 1.89496631
v -2.61628232 -0.20434177 1.89502884
v -2.53282517 -0.19199344 1.89510167
v -2.53282517 -0.20030382 1.89526827
v -2.63297372 -0.21301688 1.89740261
v -2.68292559 -0.22144884 1.90560672
v -2.63297372 -0.22140542 1.90574208
v -2.64962436 -0.22144015 1.90569005
v -2.94974353 -0.19434674 1.89575763
v -2.94974353 -0.17767384 1.89645519
v -2.53282517 -0.24434800 1.93608079
v -2.94974353 -0.24438273 1.93574760
v -2.94974353 -0.15779667 1.92021385
v -2.83294435 -0.15684144 1.92021385
v -2.81625293 -0.15672854 1.92021385
v -2.56628966 -0.15570387 1.92022428
v -2.56628966 -0.15633777 1.97020919
v -2.54963903 -0.15632040 1.97020919
v -2.53282517 -0.15632910 1.97020919
v -2.53282517 -0.17228122 1.89529950
v -2.53294760 -0.17224647 1.89529950
v -2.59963169 -0.20373392 1.89509130
v -2.53282517 -0.21100225 1.89886019
v -2.53294760 -0.20031249 1.89526827
v -2.58298106 -0.20306527 1.89516414
v -2.61628232 -0.21267820 1.89759001
v -2.53282517 -0.22116227 1.90715800
v -2.61628232 -0.22132726 1.90592948
v -2.53282517 -0.24434800 1.99662279
v -2.73479551 -0.24438273 1.93663256
v -2.94974353 -0.24438273 1.99703919
v -2.94974353 -0.15779667 1.92035964
v -2.83294435 -0.15692828 1.93688242
v -2.94974353 -0.15791823 1.97019876
v -2.83294435 -0.15711931 1.97019876
v -2.81625293 -0.15706722 1.97019876
v -2.54963903 -0.15960288 1.98687777
v -2.53282517 -0.15955946 1.98675283
v -2.81625293 -0.16000232 1.98686733
v -2.53282517 -0.21110644 1.89892266
v -2.53282517 -0.21100225 1.99969412
v -2.94958029 -0.24438273 1.99703919
v -2.93292967 -0.24438273 1.99700795
v -2.73479551 -0.24438273 1.99654995
v -2.78291088 -0.19434674 2.00101640
v -2.79960231 -0.19434674 2.00095393
v -2.94974353 -0.19434674 2.00012101
v -2.71626762 -0.21100225 1.99980868
v -2.94974353 -0.16082729 1.98686733
v -2.83294435 -0.16005445 1.98686733
v -2.53294760 -0.15958551 1.98687777
v -2.81625293 -0.16610705 1.99741398
v -2.53282517 -0.15958551 1.98687777
v -2.53282517 -0.21087199 1.99970449
v -2.69961702 -0.21100225 1.99980868
v -2.71626762 -0.19434674 2.00102677
v -2.73479551 -0.17954085 2.00029792
v -2.79960231 -0.17767384 2.00018348
v -2.81625293 -0.17767384 2.00015224
v -2.94974353 -0.17767384 1.99954832
v -2.94974353 -0.16654124 1.99711214
v -2.83294435 -0.16615915 1.99738275
v -2.66627496 -0.16607230 1.99744522
v -2.73479551 -0.17767384 2.00020422
v -2.53282517 -0.16602021 1.99719535
v -2.53294760 -0.16606363 1.99726831
v -2.53282517 -0.19434674 2.00050618
v -2.69961702 -0.19434674 2.00099554
v -2.66627496 -0.17767384 2.00012101
v -2.73291822 -0.17767384 2.00020422
v -2.53282517 -0.17758703 1.99982942
v -2.53294760 -0.17767384 1.99985028
f 1 2 3
f 1 3 4
f 1 4 5
f 1 5 6
f 1 6 7
f 1 7 8
f 1 8 2
f 2 9 3
f 2 8 10
f 2 10 11
f 2 11 12
f 2 12 13
f 2 13 14
f 2 14 9
f 3 9 15
f 3 15 16
f 3 16 4
f 4 16 17
f 4 17 5
f 5 17 18
f 5 18 19
f 5 19 20
f 5 20 6
f 6 20 7
f 7 20 21
f 7 21 22
f 7 22 12
f 7 12 11
f 7 11 8
f 8 11 10
f 9 14 23
f 9 23 24
f 9 24 25
f 9 25 26
f 9 26 15
f 12 27 13
f 12 22 28
f 12 28 29
f 12 29 27
f 13 29 30
f 13 30 31
f 13 31 14
f 13 27 29
f 14 31 23
f 15 32 33
f 15 33 16
f 15 26 34
f 15 34 35
f 15 35 32
f 16 33 17
f 17 36 37
f 17 37 38
f 17 38 39
f 17 39 18
f 17 33 36
f 18 39 40
f 18 40 41
f 18 41 42
f 18 42 43
f 18 43 19
f 19 44 45
f 19 45 46
f 19 46 20
f 19 43 44
f 20 47 21
f 20 46 45
f 20 45 48
f 20 48 49
f 20 49 47
f 21 47 50
f 21 50 22
f 22 51 28
f 22 50 52
f 22 52 53
f 22 53 51
f 23 31 54
f 23 54 24
f 24 54 25
f 25 54 55
f 25 55 34
f 25 34 26
f 28 51 56
f 28 56 57
f 28 57 29
f 29 57 30
f 30 57 76
f 30 76 92
f 30 92 105
f 30 105 106
f 30 106 94
f 30 94 79
f 30 79 77
f 30 77 58
f 30 58 37
f 30 37 55
f 30 55 54
f 30 54 31
f 32 35 34
f 32 34 55
f 32 55 37
f 32 37 33
f 33 37 36
f 37 58 59
f 37 59 60
f 37 60 38
f 38 60 61
f 38 61 39
f 39 61 40
f 40 61 62
f 40 62 63
f 40 63 64
f 40 64 41
f 41 64 83
f 41 83 98
f 41 98 110
f 41 110 116
f 41 116 112
f 41 112 99
f 41 99 86
f 41 86 74
f 41 74 56
f 41 56 72
f 41 72 85
f 41 85 68
f 41 68 49
f 41 49 48
f 41 48 45
f 41 45 65
f 41 65 43
f 41 43 42
f 43 65 66
f 43 66 44
f 44 66 65
f 44 65 45
f 47 49 67
f 47 67 50
f 49 68 69
f 49 69 67
f 50 67 70
f 50 70 71
f 50 71 72
f 50 72 73
f 50 73 52
f 51 53 56
f 52 73 56
f 52 56 53
f 56 73 72
f 56 74 89
f 56 89 75
f 56 75 57
f 57 75 89
f 57 89 88
f 57 88 87
f 57 87 76
f 58 77 59
f 59 78 60
f 59 77 79
f 59 79 78
f 60 78 80
f 60 80 61
f 61 80 81
f 61 81 62
f 62 82 83
f 62 83 63
f 62 81 84
f 62 84 82
f 63 83 64
f 67 69 70
f 68 85 71
f 68 71 69
f 69 71 70
f 71 85 72
f 74 86 87
f 74 87 88
f 74 88 89
f 76 90 91
f 76 91 92
f 76 87 100
f 76 100 93
f 76 93 90
f 78 79 80
f 79 94 80
f 80 95 84
f 80 84 81
f 80 94 95
f 82 96 83
f 82 84 97
f 82 97 96
f 83 96 98
f 84 95 97
f 86 99 100
f 86 100 87
f 90 101 102
f 90 102 103
f 90 103 104
f 90 104 91
f 90 93 101
f 91 104 105
f 91 105 92
f 93 100 101
f 94 106 95
f 95 107 97
f 95 106 107
f 96 97 108
f 96 108 98
f 97 107 104
f 97 104 103
f 97 103 109
f 97 109 108
f 98 108 111
f 98 111 110
f 99 112 113
f 99 113 101
f 99 101 100
f 101 113 114
f 101 114 115
f 101 115 102
f 102 109 103
f 102 115 109
f 104 107 106
f 104 106 105
f 108 115 114
f 108 114 111
f 108 109 115
f 110 111 116
f 111 117 116
f 111 114 117
f 112 116 117
f 112 117 113
f 113 117 114

