# https://github.com/mikedh/trimesh
v -2.51034185 -0.72175701 1.60065583
v -2.51632120 -0.72175701 1.60064540
v -2.48756185 -0.72175701 1.60064540
v -2.48756185 -0.41103127 1.60043780
v -2.51632120 -0.72175701 1.59962806
v -2.51632120 -0.26411422 1.60021458
v -2.48756185 -0.72175701 1.54763255
v -2.48756185 -0.26402462 1.60026131
v -2.51626207 -0.26402462 1.60021458
v -2.51632120 -0.72171222 1.55090785
v -2.51626207 -0.72175701 1.55088711
v -2.51632120 -0.26402462 1.55283882
v -2.50561525 -0.72175701 1.54763255
v -2.48756185 -0.26402462 1.54763255
v -2.51632120 -0.26402462 1.55192007
v -2.50564062 -0.26406942 1.54763255
v -2.50572505 -0.34431596 1.54763255
v -2.50577574 -0.41098646 1.54763255
v -2.50372068 -0.26402462 1.54763255
v -2.50564622 -0.26402462 1.54766366
f 1 2 5
f 1 5 11
f 1 11 13
f 1 13 7
f 1 7 3
f 1 3 4
f 1 4 2
f 2 4 6
f 2 6 12
f 2 12 15
f 2 15 10
f 2 10 5
f 3 7 14
f 3 14 8
f 3 8 4
f 4 8 9
f 4 9 6
f 5 10 11
f 6 9 12
f 7 13 18
f 7 18 17
f 7 17 16
f 7 16 19
f 7 19 14
f 8 14 19
f 8 19 20
f 8 20 15
f 8 15 12
f 8 12 9
f 10 15 16
f 10 16 11
f 11 16 17
f 11 17 18
f 11 18 13
f 15 20 16
f 16 20 19

