# https://github.com/mikedh/trimesh
v -1.99794064 2.02298492 1.67486011
v -1.99788512 2.02298492 1.70961401
v -1.99794064 2.00632776 1.74294301
v -1.99798501 2.00632776 1.72629426
v -1.99804054 2.00632776 1.70961401
v -1.99820712 2.00632776 1.67486011
v -1.99801835 2.03966153 1.67486011
v -1.99792949 2.02298492 1.75961271
v -1.99796283 2.03966153 1.70961401
v -1.99795173 2.03966153 1.72629426
v -1.99797392 2.02298492 1.78189840
v -1.99799617 2.01741310 1.78189840
v -1.99799617 2.00632776 1.75961271
v -1.99926211 2.00208812 1.78189840
v -2.00152753 1.99365744 1.74294301
v -2.00159415 1.99362827 1.72629426
v -2.00149425 1.99483404 1.67486011
v -1.99805169 2.04133407 1.67486011
v -1.99800726 2.03966153 1.77629295
v -1.99801835 2.03966153 1.78189840
v -1.99836260 2.05633813 1.67486011
v -1.99832932 2.05633813 1.70961401
v -1.99831817 2.05633813 1.72629426
v -1.99834042 2.05633813 1.75961271
v -1.99807388 2.00632776 1.78189840
v -2.00163858 1.99369634 1.78189840
v -2.02791309 1.97280924 1.72643042
v -2.02791309 1.97280924 1.72629426
v -2.00167192 1.99363799 1.70961401
v -2.00180516 1.99379357 1.67486011
v -1.99827380 2.05074685 1.78189840
v -2.00188293 2.06797775 1.67486011
v -2.00188293 2.06798746 1.67624314
v -2.00187178 2.06798746 1.69292332
v -2.00186069 2.06799719 1.72629426
v -2.00186069 2.06798746 1.74294301
v -2.00188293 2.06796801 1.75961271
v -2.00191621 2.06792911 1.77629295
v -2.00075017 2.06403954 1.78189840
v -1.99839594 2.05633813 1.77629295
v -2.01340993 1.98831897 1.78189840
v -2.03553114 1.97280924 1.77050936
v -2.03040061 1.97280924 1.75961271
v -2.02803524 1.97280924 1.74294301
v -2.02803524 1.97280924 1.70961401
v -2.03124460 1.97280924 1.69309098
v -2.03130012 1.97280924 1.69292332
v -2.03640846 1.97280924 1.68265535
v -2.01340993 1.98818284 1.67486011
v -1.99841813 2.05633813 1.78189840
v -2.01224388 2.07154644 1.67486011
v -2.01340993 2.07194512 1.67624314
v -2.01340993 2.07193540 1.72629426
v -2.01340993 2.07190623 1.74294301
v -2.00193840 2.06791939 1.78189840
v -2.02449272 1.98602412 1.78189840
v -2.04676941 1.97280924 1.77354784
v -2.04668061 1.97280924 1.68047606
v -2.04676941 1.98087041 1.67486011
v -2.01340993 2.07193540 1.67486011
v -2.02840173 2.07212988 1.67486011
v -2.03007855 2.07214932 1.67624314
v -2.03007855 2.07208125 1.72629426
v -2.01340993 2.07175066 1.77629295
v -2.03007855 2.07203264 1.74294301
v -2.00578079 2.06919324 1.78189840
v -2.04494821 1.98468221 1.78189840
v -2.04691381 1.97280924 1.77354784
v -2.09677539 1.97280924 1.68447847
v -2.11132298 1.97281896 1.68450990
v -2.06360467 1.98909690 1.67486011
v -2.03007855 2.07214932 1.67486011
v -2.04676941 2.07117693 1.67486011
v -2.06341585 2.07015591 1.67486011
v -2.06341585 2.07005865 1.70961401
v -2.01340993 2.07172146 1.78189840
v -2.04676941 2.07094356 1.74294301
v -2.03007855 2.07178954 1.78189840
v -2.01900685 2.07175066 1.78189840
v -2.04676941 1.98472111 1.78189840
v -2.11132298 1.97281896 1.77047792
v -2.10115073 1.97280924 1.77048842
v -2.10115073 1.97280924 1.70848243
v -2.11132298 2.02389899 1.68331546
v -2.09589806 2.02534785 1.67486011
v -2.08266085 2.00649307 1.67486011
v -2.07655310 2.06742347 1.67486011
v -2.07757476 2.06713176 1.70961401
v -2.07777467 2.06692754 1.75961271
v -2.07778577 2.06686922 1.77629295
v -2.07776358 2.06684978 1.78189840
v -2.06341585 2.06995173 1.72629426
v -2.04676941 2.07069074 1.78189840
v -2.06018430 1.98889269 1.78189840
v -2.11132298 2.00831146 1.77192381
v -2.06302716 1.99004011 1.78189840
v -2.08071750 2.00685286 1.78189840
v -2.08927949 2.01501127 1.78189840
v -2.09376589 2.02202225 1.78189840
v -2.09428787 2.02374340 1.78189840
v -2.11132298 2.03018067 1.68462513
v -2.09392137 2.03966153 1.67486011
v -2.07776358 2.06717065 1.67486011
v -2.08611456 2.06291154 1.75961271
v -2.08330498 2.06318384 1.78189840
v -2.06822437 2.06865843 1.78189840
v -2.06341585 2.06955302 1.78189840
v -2.11132298 2.02297519 1.77218575
v -2.09443220 2.02640777 1.78189840
v -2.11132298 2.03709441 1.69128885
v -2.08609231 2.06056808 1.67486011
v -2.08980141 2.05292505 1.67486011
v -2.09002351 2.05223464 1.67486011
v -2.08595907 2.06068476 1.67486011
v -2.08593689 2.06238646 1.69292332
v -2.08591464 2.06283377 1.70961401
v -2.08600351 2.06299907 1.74294301
v -2.08610341 2.06092787 1.78189840
v -2.11132298 2.04382339 1.70961401
v -2.11132298 2.04370670 1.74294301
v -2.09465430 2.03926286 1.78189840
v -2.09429896 2.04374560 1.78189840
v -2.11132298 2.03462452 1.77041506
v -2.11132298 2.04285100 1.70629264
v -2.11132298 2.04061447 1.75962320
v -2.09014566 2.05259443 1.78189840
f 1 2 3
f 1 3 4
f 1 4 5
f 1 5 6
f 1 6 17
f 1 17 30
f 1 30 49
f 1 49 59
f 1 59 71
f 1 71 86
f 1 86 85
f 1 85 102
f 1 102 113
f 1 113 112
f 1 112 111
f 1 111 114
f 1 114 103
f 1 103 87
f 1 87 74
f 1 74 73
f 1 73 72
f 1 72 61
f 1 61 60
f 1 60 51
f 1 51 32
f 1 32 21
f 1 21 18
f 1 18 7
f 1 7 9
f 1 9 2
f 2 8 3
f 2 9 10
f 2 10 8
f 3 8 11
f 3 11 12
f 3 12 13
f 3 13 14
f 3 14 15
f 3 15 4
f 4 15 5
f 5 15 16
f 5 16 17
f 5 17 6
f 7 18 9
f 8 10 19
f 8 19 20
f 8 20 11
f 9 18 21
f 9 21 22
f 9 22 23
f 9 23 10
f 10 23 24
f 10 24 19
f 11 20 31
f 11 31 50
f 11 50 39
f 11 39 55
f 11 55 66
f 11 66 76
f 11 76 79
f 11 79 78
f 11 78 93
f 11 93 107
f 11 107 106
f 11 106 91
f 11 91 105
f 11 105 118
f 11 118 126
f 11 126 122
f 11 122 121
f 11 121 109
f 11 109 100
f 11 100 99
f 11 99 98
f 11 98 97
f 11 97 96
f 11 96 94
f 11 94 80
f 11 80 67
f 11 67 56
f 11 56 41
f 11 41 26
f 11 26 14
f 11 14 25
f 11 25 12
f 12 25 13
f 13 25 14
f 14 26 15
f 15 26 27
f 15 27 28
f 15 28 16
f 16 29 17
f 16 28 29
f 17 29 30
f 19 24 20
f 20 24 31
f 21 32 33
f 21 33 22
f 22 33 34
f 22 34 23
f 23 34 35
f 23 35 36
f 23 36 24
f 24 36 37
f 24 37 38
f 24 38 39
f 24 39 40
f 24 40 31
f 26 41 42
f 26 42 43
f 26 43 44
f 26 44 27
f 27 44 43
f 27 43 42
f 27 42 57
f 27 57 68
f 27 68 82
f 27 82 83
f 27 83 69
f 27 69 58
f 27 58 48
f 27 48 47
f 27 47 46
f 27 46 45
f 27 45 28
f 28 45 29
f 29 45 30
f 30 45 46
f 30 46 47
f 30 47 48
f 30 48 49
f 31 40 50
f 32 51 33
f 33 35 34
f 33 51 35
f 35 51 52
f 35 52 53
f 35 53 36
f 36 53 37
f 37 53 54
f 37 54 38
f 38 54 55
f 38 55 39
f 39 50 40
f 41 56 57
f 41 57 42
f 48 58 49
f 49 58 59
f 51 60 52
f 52 60 61
f 52 61 53
f 53 61 62
f 53 62 63
f 53 63 54
f 54 64 55
f 54 63 65
f 54 65 64
f 55 64 66
f 56 67 57
f 57 67 68
f 58 69 70
f 58 70 59
f 59 70 71
f 61 72 62
f 62 73 63
f 62 72 73
f 63 73 74
f 63 74 75
f 63 75 65
f 64 76 66
f 64 65 76
f 65 77 78
f 65 78 79
f 65 79 76
f 65 75 77
f 67 80 68
f 68 80 81
f 68 81 82
f 69 83 70
f 70 83 82
f 70 82 81
f 70 81 95
f 70 95 108
f 70 108 123
f 70 123 125
f 70 125 120
f 70 120 119
f 70 119 124
f 70 124 110
f 70 110 101
f 70 101 84
f 70 84 85
f 70 85 86
f 70 86 71
f 74 87 88
f 74 88 75
f 75 88 89
f 75 89 90
f 75 90 91
f 75 91 92
f 75 92 77
f 77 93 78
f 77 92 93
f 80 94 81
f 81 94 96
f 81 96 97
f 81 97 98
f 81 98 99
f 81 99 100
f 81 100 95
f 84 101 102
f 84 102 85
f 87 103 88
f 88 103 89
f 89 103 104
f 89 104 90
f 90 104 91
f 91 106 92
f 91 104 105
f 92 106 107
f 92 107 93
f 95 100 109
f 95 109 108
f 101 110 111
f 101 111 112
f 101 112 113
f 101 113 102
f 103 114 115
f 103 115 116
f 103 116 117
f 103 117 104
f 104 118 105
f 104 117 119
f 104 119 120
f 104 120 118
f 108 121 122
f 108 122 123
f 108 109 121
f 110 124 111
f 111 124 119
f 111 119 114
f 114 119 115
f 115 119 116
f 116 119 117
f 118 120 125
f 118 125 123
f 118 123 126
f 122 126 123

