# https://github.com/mikedh/trimesh
v 2.11569369 -0.45982981 0.20380272
v 2.11579025 -0.56099950 0.20380272
v 2.07495782 -0.45982981 0.20380272
v 2.11554879 -0.45982981 0.30355291
v 2.11552863 -0.56099950 0.38685750
v 2.11555278 -0.56099950 0.37019662
v 2.11556888 -0.57767416 0.37019662
v 2.11583454 -0.61469189 0.20380272
v 2.07495377 -0.46075450 0.20380272
v 2.07477263 -0.46101219 0.23687004
v 2.07478067 -0.45982981 0.23687004
v 2.11541593 -0.45982981 0.37019662
v 2.11537570 -0.45982981 0.38685750
v 2.11529118 -0.45986013 0.40381212
v 2.11543608 -0.56128752 0.40381212
v 2.11545217 -0.57767416 0.40351845
v 2.11554074 -0.57767416 0.38685750
v 2.11557293 -0.59433366 0.37019662
v 2.07638261 -0.61469189 0.20380272
v 2.11556888 -0.61469189 0.37019662
v 2.07490549 -0.47768685 0.20380272
v 2.07471629 -0.47768685 0.23687004
v 2.07478473 -0.46101219 0.25355053
v 2.07478067 -0.45982981 0.23806428
v 2.11529118 -0.45982981 0.40351845
v 2.10597358 -0.45982981 0.40381212
v 2.11544818 -0.57767416 0.40381212
v 2.11545217 -0.59433366 0.40381212
v 2.11554074 -0.59433366 0.38685750
v 2.07488534 -0.61463126 0.20380272
v 2.07493767 -0.61469189 0.21652848
v 2.11552459 -0.61469189 0.38685750
v 2.07489339 -0.49408865 0.20380272
v 2.07488135 -0.51074815 0.20380272
v 2.07487729 -0.52740765 0.20380272
v 2.07487729 -0.61100831 0.20380272
v 2.07482901 -0.57767416 0.23687004
v 2.07473645 -0.47768685 0.25355053
v 2.07479277 -0.45982981 0.25472523
v 2.07486519 -0.46101219 0.32019424
v 2.07486925 -0.45982981 0.32019424
v 2.07571850 -0.45982981 0.40381212
v 2.11545217 -0.59462167 0.40381212
v 2.07493361 -0.61469189 0.23318936
v 2.07493361 -0.61469189 0.23687004
v 2.07486119 -0.59433366 0.23687004
v 2.11550450 -0.61469189 0.39053818
v 2.07518319 -0.61469189 0.33685518
v 2.07496587 -0.46101219 0.33685518
v 2.07496985 -0.45982981 0.33685518
v 2.07571445 -0.46073934 0.40381212
v 2.11542802 -0.61469189 0.40381212
v 2.11543202 -0.61469189 0.40351845
v 2.07577084 -0.61469189 0.40351845
v 2.07577084 -0.61461611 0.40381212
v 2.07571445 -0.46099704 0.40381212
v 2.07876533 -0.61469189 0.40381212
f 1 2 8
f 1 8 19
f 1 19 30
f 1 30 36
f 1 36 35
f 1 35 34
f 1 34 33
f 1 33 21
f 1 21 9
f 1 9 3
f 1 3 11
f 1 11 24
f 1 24 39
f 1 39 41
f 1 41 50
f 1 50 42
f 1 42 26
f 1 26 25
f 1 25 13
f 1 13 12
f 1 12 4
f 1 4 5
f 1 5 6
f 1 6 7
f 1 7 2
f 2 7 8
f 3 9 10
f 3 10 11
f 4 12 5
f 5 12 13
f 5 13 14
f 5 14 15
f 5 15 16
f 5 16 17
f 5 17 7
f 5 7 6
f 7 17 18
f 7 18 8
f 8 18 20
f 8 20 32
f 8 32 47
f 8 47 53
f 8 53 52
f 8 52 57
f 8 57 54
f 8 54 48
f 8 48 45
f 8 45 44
f 8 44 31
f 8 31 19
f 9 21 22
f 9 22 10
f 10 22 23
f 10 23 24
f 10 24 11
f 13 25 14
f 14 26 42
f 14 42 51
f 14 51 56
f 14 56 55
f 14 55 57
f 14 57 52
f 14 52 43
f 14 43 28
f 14 28 27
f 14 27 15
f 14 25 26
f 15 27 16
f 16 27 28
f 16 28 17
f 17 29 18
f 17 28 43
f 17 43 29
f 18 29 20
f 19 31 30
f 20 29 32
f 21 33 22
f 22 33 34
f 22 34 35
f 22 35 36
f 22 36 37
f 22 37 38
f 22 38 23
f 23 39 24
f 23 38 40
f 23 40 41
f 23 41 39
f 29 43 32
f 30 31 44
f 30 44 45
f 30 45 46
f 30 46 36
f 32 43 47
f 36 46 37
f 37 46 48
f 37 48 40
f 37 40 38
f 40 48 49
f 40 49 50
f 40 50 41
f 42 50 51
f 43 52 53
f 43 53 47
f 45 48 46
f 48 54 55
f 48 55 49
f 49 55 56
f 49 56 51
f 49 51 50
f 54 57 55

