# https://github.com/mikedh/trimesh
v -2.90644232 1.95630249 2.02103448
v -3.58119144 1.95638664 2.02133042
v -2.90644232 1.95630249 1.97252581
v -2.86396904 1.95630249 2.02104236
v -3.58119144 1.95638664 1.97500963
v -3.58092347 1.95638664 2.02133042
v -3.58119144 1.98964735 2.02136156
v -3.58092347 1.95638664 1.96876500
v -2.73051984 1.95630249 1.96922442
v -2.84722090 1.95630249 2.02104236
v -3.58119144 1.95648765 1.96876500
v -3.23082032 1.95638664 2.02127591
v -3.58092347 1.98964735 2.02136156
v -2.61381879 1.95630249 2.02103448
v -2.21239935 1.95630249 2.02101898
v -3.58119144 2.00615144 2.02133042
v -3.58119144 1.99165040 1.94684658
v -3.56417535 1.99143999 1.94684658
v -2.46375546 1.95630249 1.96711431
v -2.48036959 1.95630249 1.96716882
v -2.49711774 1.95630249 1.96727003
v -2.71390569 1.95630249 1.96900643
v -2.21239935 1.97296650 2.02102673
v -2.21239935 1.98964735 2.02103448
v -2.21239935 2.00631136 2.02101122
v -2.21239935 1.95630249 1.96762824
v -3.58092347 2.02298379 2.02076204
v -3.58119144 2.02298379 2.02076204
v -2.21239935 2.00743913 2.02098784
v -2.21239935 2.02298379 2.02062964
v -3.58119144 1.99179346 1.94679982
v -3.54756119 1.99139791 1.94685433
v -2.44700731 1.95630249 1.96709099
v -3.58119144 2.00631136 1.94215919
v -2.21239935 1.99322422 1.94681544
v -2.29694397 1.95630249 1.96726228
v -2.21360523 1.99322422 1.94680763
v -3.46422245 2.03288962 2.01920481
v -2.21239935 2.02366548 2.02053624
v -2.21239935 2.03291486 2.01918918
v -3.58119144 2.03283069 2.01916580
v -2.26371564 2.00631136 1.94181661
v -2.48036959 1.99233210 1.94682320
v -2.38041672 1.99257617 1.94678425
v -3.58119144 2.00646285 1.94215919
v -2.21239935 2.00631136 1.94194895
v -2.26371564 1.99300539 1.94673755
v -2.24696752 2.00631136 1.94183998
v -3.46422245 2.03804871 2.00977551
v -3.58119144 2.03800664 2.00977551
v -2.21239935 2.03331041 2.01855853
v -2.21239935 2.03825913 2.00975995
v -2.21239935 2.02298379 1.94182436
v -3.58119144 2.02298379 1.94219032
v -3.58119144 2.04181916 1.99309723
v -2.21239935 2.03852002 2.00864650
v -2.21239935 2.04209690 1.99308948
v -2.21239935 2.03647490 1.94669085
v -3.58119144 2.02311845 1.94223708
v -3.58119144 2.03625607 1.94687771
v -3.58119144 2.04214740 1.97643452
v -2.21239935 2.04228206 1.97643452
v -2.21239935 2.04198748 1.95976405
v -3.58119144 2.03631500 1.94700230
v -3.58119144 2.04173500 1.95976405
v -3.58119144 2.04195382 1.96831340
v -3.58119144 2.04174342 1.95991978
f 1 2 5
f 1 5 3
f 1 3 9
f 1 9 22
f 1 22 21
f 1 21 20
f 1 20 19
f 1 19 33
f 1 33 36
f 1 36 26
f 1 26 15
f 1 15 14
f 1 14 10
f 1 10 4
f 1 4 2
f 2 4 10
f 2 10 6
f 2 6 13
f 2 13 7
f 2 7 16
f 2 16 28
f 2 28 41
f 2 41 50
f 2 50 55
f 2 55 61
f 2 61 66
f 2 66 67
f 2 67 65
f 2 65 64
f 2 64 60
f 2 60 59
f 2 59 54
f 2 54 45
f 2 45 34
f 2 34 31
f 2 31 17
f 2 17 11
f 2 11 5
f 3 5 8
f 3 8 9
f 5 11 8
f 6 12 13
f 6 10 14
f 6 14 15
f 6 15 12
f 7 13 16
f 8 11 17
f 8 17 18
f 8 18 19
f 8 19 20
f 8 20 21
f 8 21 22
f 8 22 9
f 12 15 23
f 12 23 24
f 12 24 13
f 13 24 25
f 13 25 16
f 15 26 35
f 15 35 46
f 15 46 53
f 15 53 58
f 15 58 63
f 15 63 62
f 15 62 57
f 15 57 56
f 15 56 52
f 15 52 51
f 15 51 40
f 15 40 39
f 15 39 30
f 15 30 29
f 15 29 25
f 15 25 24
f 15 24 23
f 16 27 28
f 16 25 29
f 16 29 30
f 16 30 27
f 17 31 18
f 18 32 33
f 18 33 19
f 18 31 34
f 18 34 32
f 26 36 37
f 26 37 35
f 27 38 28
f 27 30 39
f 27 39 40
f 27 40 38
f 28 38 41
f 32 34 42
f 32 42 43
f 32 43 33
f 33 44 36
f 33 43 44
f 34 45 42
f 35 37 46
f 36 44 47
f 36 47 37
f 37 47 48
f 37 48 46
f 38 49 50
f 38 50 41
f 38 40 51
f 38 51 52
f 38 52 49
f 42 53 48
f 42 48 47
f 42 47 44
f 42 44 43
f 42 45 53
f 45 54 53
f 46 48 53
f 49 55 50
f 49 52 56
f 49 56 57
f 49 57 55
f 53 54 59
f 53 59 60
f 53 60 58
f 55 57 61
f 57 62 61
f 58 60 64
f 58 64 65
f 58 65 63
f 61 62 63
f 61 63 66
f 63 65 67
f 63 67 66

