# https://github.com/mikedh/trimesh
v -1.87868351 1.85639813 0.43754530
v -1.87868351 1.93945941 0.43808773
v -1.87868351 1.85639813 0.39634441
v -1.14475397 1.85639813 0.44050148
v -1.87868351 1.93959784 0.43808773
v -1.14475397 1.93959784 0.44063257
v -1.87868351 1.93959784 0.39506522
v -1.66169630 1.93959784 0.39450477
v -1.64504075 1.93959784 0.39449571
v -1.24499726 1.85639813 0.39606422
v -1.12809841 1.85639813 0.44054215
v -1.12809841 1.93959784 0.44065064
v -1.19479814 1.93959784 0.39465394
v -1.24484231 1.85639813 0.39606422
v -1.12794346 1.85639813 0.44054215
v -1.08727291 1.93959784 0.44067324
v -1.11144285 1.93959784 0.44066418
v -1.14475397 1.93959784 0.39472622
v -1.08727291 1.85639813 0.39621785
v -1.11128791 1.85639813 0.44053762
v -1.08727291 1.85639813 0.44050601
v -1.08727291 1.93959784 0.39490252
f 1 2 5
f 1 5 7
f 1 7 3
f 1 3 10
f 1 10 14
f 1 14 19
f 1 19 21
f 1 21 20
f 1 20 15
f 1 15 11
f 1 11 4
f 1 4 2
f 2 4 6
f 2 6 5
f 3 7 8
f 3 8 9
f 3 9 10
f 4 11 6
f 5 6 12
f 5 12 17
f 5 17 16
f 5 16 22
f 5 22 18
f 5 18 13
f 5 13 9
f 5 9 8
f 5 8 7
f 6 11 12
f 9 13 14
f 9 14 10
f 11 15 16
f 11 16 17
f 11 17 12
f 13 18 19
f 13 19 14
f 15 20 16
f 16 21 19
f 16 19 22
f 16 20 21
f 18 22 19

