# https://github.com/mikedh/trimesh
v -2.06210508 -0.16100634 0.07009814
v -2.05948490 -0.15059163 0.07009814
v -2.05957765 -0.15039863 0.05353125
v -2.06195822 -0.16100634 0.05353125
v -2.06158723 -0.17766678 0.03686065
v -2.06157949 -0.17766678 0.05353125
v -2.06107713 -0.17766678 0.07009814
v -2.04959158 -0.14341946 0.07009814
v -2.04959158 -0.14324187 0.05353125
v -2.04959158 -0.14349665 0.03686065
v -2.05939216 -0.15060707 0.03686065
v -2.05911392 -0.15098535 0.02019798
v -2.06159498 -0.16100634 0.03686065
v -2.06116988 -0.17766678 0.02019798
v -2.05921435 -0.18793480 0.02019798
v -2.05938441 -0.18811237 0.03686065
v -2.05919117 -0.18784987 0.05353125
v -2.05846464 -0.18680761 0.07009814
v -2.04949109 -0.14338084 0.07009814
v -2.03291979 -0.13747481 0.07009814
v -2.03291979 -0.13770643 0.02019798
v -2.04959158 -0.14397531 0.02019798
v -2.06106939 -0.16100634 0.02019798
v -2.05852651 -0.15182689 0.00353537
v -2.05999500 -0.16100634 0.00353537
v -2.06004138 -0.17766678 0.00353537
v -2.05858057 -0.18702380 0.00353537
v -2.05261368 -0.19535400 0.00353537
v -2.05314697 -0.19627273 0.02019798
v -2.05316247 -0.19645029 0.03686065
v -2.04504681 -0.20701169 0.07009814
v -2.05323203 -0.19618010 0.05353125
v -2.05341752 -0.19509153 0.07009814
v -2.01970295 -0.13630905 0.07009814
v -2.01932422 -0.13638624 0.02019798
v -2.00987145 -0.13588442 0.00780477
v -2.01576109 -0.13699615 0.00276128
v -2.03291979 -0.13948210 0.00353537
v -2.04959158 -0.14582048 0.00353537
v -2.05803179 -0.15252170 -0.00492361
v -2.05855739 -0.16100634 -0.00551418
v -2.05853420 -0.17766678 -0.00549820
v -2.05800866 -0.18614367 -0.00489965
v -2.04428166 -0.20573012 0.00353537
v -2.04481495 -0.20647128 0.02019798
v -2.04490001 -0.20688044 0.05353125
v -2.03291979 -0.21301038 0.07009814
v -2.01137093 -0.13579949 0.07009814
v -2.01137093 -0.13574545 0.05353125
v -2.01120857 -0.13573774 0.03686065
v -2.01099220 -0.13579177 0.02019798
v -2.00662523 -0.13588442 0.00780477
v -2.00048054 -0.13748253 0.00276128
v -1.99959940 -0.14562748 -0.00788432
v -2.01626344 -0.14540357 -0.00799602
v -2.03291979 -0.14693992 -0.00793212
v -2.04959158 -0.15002031 -0.00643985
v -2.04959158 -0.16100634 -0.00861841
v -2.04959158 -0.17766678 -0.00857061
v -2.04891912 -0.19275227 -0.00690274
v -2.04291361 -0.20427871 -0.00618450
v -2.03291979 -0.21032371 0.00353537
v -2.03291979 -0.21189866 0.02019798
v -2.03291979 -0.21234644 0.03686065
v -2.03291979 -0.21270929 0.05353125
v -2.01626344 -0.21460848 0.07009814
v -2.00556629 -0.13579949 0.07009814
v -2.00513350 -0.13574545 0.05353125
v -2.00517987 -0.13573774 0.03686065
v -2.00567453 -0.13579177 0.02019798
v -1.99734251 -0.13708880 0.02019798
v -1.98766556 -0.14609839 0.00353537
v -1.98910324 -0.14871559 -0.00675909
v -1.99959940 -0.16100634 -0.01115616
v -2.01626344 -0.16100634 -0.01123591
v -2.03291979 -0.16100634 -0.01108428
v -2.03291979 -0.17766678 -0.01102849
v -2.03291979 -0.19433493 -0.01052578
v -2.03291979 -0.20583822 -0.00744538
v -2.01626344 -0.21165931 0.00353537
v -2.01626344 -0.21329604 0.02019798
v -2.01626344 -0.21384417 0.03686065
v -2.01626344 -0.21425336 0.05353125
v -1.99959940 -0.21257803 0.07009814
v -1.99959940 -0.21188322 0.02019798
v -1.99959940 -0.21219975 0.03686065
v -1.99959940 -0.21243907 0.05353125
v -1.99728064 -0.13700387 0.07009814
v -1.99680147 -0.13698843 0.05353125
v -1.99684785 -0.13701159 0.03686065
v -1.98728683 -0.14541901 0.02019798
v -1.98391699 -0.16100634 0.00353537
v -1.98325228 -0.16100634 0.02019798
v -1.98792067 -0.16100634 -0.00789230
v -1.99959940 -0.17766678 -0.01142748
v -1.98771193 -0.17766678 -0.00813168
v -2.01626344 -0.19433493 -0.01127585
v -2.01626344 -0.20650216 -0.00805979
v -1.99959940 -0.20606209 -0.00798004
v -1.99959940 -0.21058621 0.00353537
v -1.98776605 -0.20667200 0.07009814
v -1.98746469 -0.20667200 0.02019798
v -1.98751869 -0.20668744 0.03686065
v -1.98761144 -0.20667972 0.05353125
v -1.98775831 -0.20618562 0.00353537
v -1.99717246 -0.13706562 0.07009814
v -1.98737183 -0.14534954 0.07009814
v -1.98731007 -0.14531866 0.05353125
v -1.98729458 -0.14534182 0.03686065
v -1.98364639 -0.17766678 0.00353537
v -1.98327540 -0.16100634 0.03686065
v -1.98314403 -0.17766678 0.02019798
v -1.99959940 -0.19433493 -0.01133176
v -1.98784330 -0.19433493 -0.00802796
v -1.98913411 -0.20470330 -0.00683085
v -1.98767331 -0.20656391 0.07009814
v -1.98338365 -0.19433493 0.02019798
v -1.98346090 -0.19433493 0.03686065
v -1.98388600 -0.19433493 0.00353537
v -1.98347639 -0.16091369 0.07009814
v -1.98332178 -0.16100634 0.05353125
v -1.98319041 -0.17766678 0.03686065
v -1.98377788 -0.19433493 0.07009814
v -1.98360001 -0.19433493 0.05353125
v -1.98326003 -0.17766678 0.05353125
v -1.98342227 -0.17756640 0.07009814
v -1.98342227 -0.17766678 0.07009814
f 1 2 3
f 1 3 4
f 1 4 5
f 1 5 6
f 1 6 7
f 1 7 18
f 1 18 33
f 1 33 31
f 1 31 47
f 1 47 66
f 1 66 84
f 1 84 101
f 1 101 116
f 1 116 123
f 1 123 127
f 1 127 126
f 1 126 120
f 1 120 107
f 1 107 106
f 1 106 88
f 1 88 67
f 1 67 48
f 1 48 34
f 1 34 20
f 1 20 19
f 1 19 8
f 1 8 2
f 2 8 3
f 3 8 9
f 3 9 10
f 3 10 11
f 3 11 4
f 4 11 12
f 4 12 13
f 4 13 5
f 5 13 14
f 5 14 15
f 5 15 16
f 5 16 6
f 6 17 7
f 6 16 17
f 7 17 18
f 8 19 9
f 9 19 20
f 9 20 21
f 9 21 10
f 10 21 22
f 10 22 11
f 11 22 12
f 12 23 13
f 12 22 24
f 12 24 23
f 13 23 14
f 14 23 25
f 14 25 26
f 14 26 27
f 14 27 15
f 15 27 28
f 15 28 29
f 15 29 16
f 16 29 30
f 16 30 31
f 16 31 32
f 16 32 17
f 17 32 31
f 17 31 33
f 17 33 18
f 20 34 35
f 20 35 21
f 21 35 36
f 21 36 37
f 21 37 38
f 21 38 22
f 22 38 39
f 22 39 24
f 23 24 25
f 24 39 40
f 24 40 25
f 25 40 41
f 25 41 26
f 26 41 42
f 26 42 43
f 26 43 27
f 27 43 28
f 28 43 44
f 28 44 29
f 29 44 45
f 29 45 31
f 29 31 30
f 31 46 47
f 31 45 46
f 34 48 49
f 34 49 50
f 34 50 35
f 35 50 51
f 35 51 36
f 36 51 70
f 36 70 52
f 36 52 37
f 37 53 54
f 37 54 55
f 37 55 56
f 37 56 38
f 37 52 53
f 38 56 57
f 38 57 40
f 38 40 39
f 40 57 58
f 40 58 41
f 41 58 42
f 42 58 59
f 42 59 43
f 43 59 60
f 43 60 61
f 43 61 44
f 44 61 62
f 44 62 63
f 44 63 45
f 45 63 64
f 45 64 65
f 45 65 47
f 45 47 46
f 47 65 66
f 48 67 68
f 48 68 49
f 49 68 69
f 49 69 50
f 50 69 70
f 50 70 51
f 52 70 71
f 52 71 53
f 53 71 72
f 53 72 73
f 53 73 54
f 54 73 74
f 54 74 55
f 55 74 75
f 55 75 76
f 55 76 56
f 56 76 57
f 57 76 58
f 58 76 59
f 59 76 77
f 59 77 78
f 59 78 60
f 60 78 61
f 61 78 79
f 61 79 62
f 62 79 80
f 62 80 81
f 62 81 63
f 63 81 82
f 63 82 64
f 64 82 83
f 64 83 65
f 65 83 66
f 66 83 85
f 66 85 86
f 66 86 87
f 66 87 84
f 67 88 68
f 68 88 89
f 68 89 69
f 69 89 90
f 69 90 70
f 70 90 71
f 71 91 72
f 71 90 91
f 72 92 73
f 72 91 93
f 72 93 92
f 73 92 94
f 73 94 74
f 74 95 75
f 74 94 96
f 74 96 95
f 75 95 76
f 76 95 97
f 76 97 77
f 77 97 78
f 78 97 98
f 78 98 79
f 79 98 80
f 80 98 99
f 80 99 100
f 80 100 81
f 81 100 85
f 81 85 82
f 82 85 83
f 84 87 102
f 84 102 103
f 84 103 104
f 84 104 101
f 85 100 105
f 85 105 102
f 85 102 86
f 86 102 87
f 88 106 89
f 89 106 107
f 89 107 108
f 89 108 109
f 89 109 90
f 90 109 91
f 91 109 93
f 92 93 110
f 92 110 96
f 92 96 94
f 93 109 108
f 93 108 111
f 93 111 112
f 93 112 110
f 95 113 97
f 95 96 113
f 96 110 114
f 96 114 113
f 97 113 98
f 98 113 99
f 99 113 115
f 99 115 100
f 100 115 105
f 101 104 116
f 102 105 117
f 102 117 103
f 103 118 104
f 103 117 118
f 104 118 116
f 105 115 119
f 105 119 117
f 107 120 121
f 107 121 108
f 108 121 111
f 110 112 117
f 110 117 119
f 110 119 114
f 111 121 112
f 112 121 122
f 112 122 117
f 113 114 115
f 114 119 115
f 116 118 124
f 116 124 123
f 117 122 125
f 117 125 118
f 118 125 124
f 120 126 125
f 120 125 121
f 121 125 122
f 123 124 127
f 124 125 127
f 125 126 127

