# https://github.com/mikedh/trimesh
v -2.17022285 1.58940015 0.18739388
v -2.17022285 1.58333394 0.18665952
v -2.09757589 1.57122209 0.18947751
v -2.09757589 1.58940014 0.18892678
v -2.17022285 1.60160121 0.18548464
v -2.17022285 1.57433755 0.18556725
v -2.09757589 1.56906736 0.18869728
v -2.09757589 1.60142279 0.18562229
v -2.17022285 1.60993882 0.17974774
v -2.17022285 1.56599993 0.17946319
v -2.09757589 1.55946022 0.17893996
v -2.09757589 1.62778749 0.16396897
v -2.11125183 1.62787671 0.16395979
v -2.17022285 1.62787671 0.16406076
v -2.09757589 1.55856813 0.17671862
v -2.09757589 1.55895242 0.17798534
v -2.17022285 1.56514902 0.17609447
v -2.09757589 1.62787671 0.12064384
v -2.17022285 1.62787671 0.11893655
v -2.17022285 1.56392752 0.17111943
v -2.09757589 1.55777211 0.15863591
v -2.09757589 1.62787671 0.11817469
v -2.17022285 1.61973810 0.11017977
v -2.17022285 1.56375599 0.16610765
v -2.17022285 1.56350208 0.15863591
v -2.17022285 1.56351580 0.15190771
v -2.17022285 1.56358443 0.13523855
v -2.09757589 1.55786132 0.14196681
v -2.09757589 1.60980158 0.10360754
v -2.11346363 1.61045349 0.10268966
v -2.16348797 1.61174359 0.10186356
v -2.17022285 1.61181907 0.10184519
v -2.17022285 1.56365305 0.12529766
v -2.09757589 1.55786818 0.14118658
v -2.09757589 1.60185511 0.09882526
v -2.09757589 1.60146396 0.09863250
v -2.11346363 1.60211587 0.09860500
v -2.13014077 1.60249329 0.09846729
v -2.16348797 1.60340598 0.09831127
v -2.17022285 1.60348147 0.09826534
v -2.09757589 1.55806719 0.12529766
v -2.17022285 1.56405105 0.11443882
v -2.09757589 1.58999716 0.09583293
v -2.09757589 1.58940014 0.09574114
v -2.17022285 1.58940015 0.09624595
v -2.09757589 1.55809464 0.12472856
v -2.17022285 1.56666558 0.10610424
v -2.09757589 1.55939160 0.10861932
v -2.09757589 1.57172990 0.09570440
v -2.17022285 1.58082237 0.09742088
v -2.17022285 1.57501004 0.09825616
v -2.09757589 1.56269919 0.09937604
v -2.09757589 1.57111916 0.09583293
f 1 2 3
f 1 3 4
f 1 4 5
f 1 5 9
f 1 9 14
f 1 14 19
f 1 19 23
f 1 23 32
f 1 32 40
f 1 40 45
f 1 45 50
f 1 50 51
f 1 51 47
f 1 47 42
f 1 42 33
f 1 33 27
f 1 27 26
f 1 26 25
f 1 25 24
f 1 24 20
f 1 20 17
f 1 17 10
f 1 10 6
f 1 6 2
f 2 6 3
f 3 7 11
f 3 11 16
f 3 16 15
f 3 15 21
f 3 21 28
f 3 28 34
f 3 34 41
f 3 41 46
f 3 46 48
f 3 48 52
f 3 52 53
f 3 53 49
f 3 49 44
f 3 44 43
f 3 43 36
f 3 36 35
f 3 35 29
f 3 29 22
f 3 22 18
f 3 18 12
f 3 12 8
f 3 8 4
f 3 6 7
f 4 8 5
f 5 8 9
f 6 10 7
f 7 10 11
f 8 12 9
f 9 12 13
f 9 13 14
f 10 15 16
f 10 16 11
f 10 17 15
f 12 18 13
f 13 18 22
f 13 22 19
f 13 19 14
f 15 17 20
f 15 20 21
f 19 22 23
f 20 24 21
f 21 24 25
f 21 25 26
f 21 26 27
f 21 27 28
f 22 29 30
f 22 30 31
f 22 31 32
f 22 32 23
f 27 33 28
f 28 33 34
f 29 35 30
f 30 35 31
f 31 35 36
f 31 36 37
f 31 37 38
f 31 38 39
f 31 39 40
f 31 40 32
f 33 41 34
f 33 42 41
f 36 43 38
f 36 38 37
f 38 43 39
f 39 43 40
f 40 43 44
f 40 44 45
f 41 42 46
f 42 47 48
f 42 48 46
f 44 49 45
f 45 49 50
f 47 51 52
f 47 52 48
f 49 53 51
f 49 51 50
f 51 53 52

