# https://github.com/mikedh/trimesh
v -0.92082472 -0.75123817 1.42535031
v -0.92082472 -0.75064474 1.55824921
v -0.92082472 -0.79589201 1.42535031
v -0.94914170 -0.75121079 1.42535031
v -0.92082472 -0.74928896 1.86369785
v -0.92082472 -0.79535792 1.85820512
v -0.93204608 -0.79536704 1.85820512
v -0.93204608 -0.79588745 1.42535031
v -0.96540889 -0.75120622 1.42535031
v -1.01541546 -0.75049410 1.57494205
v -0.92090003 -0.74928896 1.86374077
v -0.92082472 -0.74955828 1.86374077
v -1.01541546 -0.74926157 1.86374077
v -0.92082472 -0.79533053 1.86374077
v -0.93204608 -0.79533965 1.86374077
v -0.94876514 -0.79533509 1.86374077
v -0.94876514 -0.79535792 1.85820512
v -1.24865399 -0.79536704 1.70818428
v -1.24865399 -0.79538531 1.69153436
v -1.46532408 -0.79548576 1.42535031
v -0.98250451 -0.75120622 1.42535031
v -1.03205922 -0.75058540 1.55824921
v -1.03205922 -0.75042564 1.59163489
v -1.03755693 -0.74925701 1.86374077
v -1.29316285 -0.79491971 1.86374077
v -1.28201681 -0.79497904 1.85820512
v -1.31530432 -0.79501099 1.84151228
v -1.31530432 -0.79506577 1.82486236
v -1.31530432 -0.79511143 1.80816952
v -1.26537306 -0.79535336 1.70818428
v -1.51533065 -0.79543553 1.42535031
v -1.01586733 -0.75124733 1.42535031
v -1.04870297 -0.75059908 1.55824921
v -1.03205922 -0.75066758 1.54155637
v -1.04870297 -0.74926614 1.86374077
v -1.66256382 -0.75211463 1.42535031
v -1.29866056 -0.79495622 1.85820512
v -1.48196781 -0.79462296 1.86374077
v -1.48196781 -0.79467318 1.85820512
v -1.48196781 -0.79475990 1.84151228
v -1.33194807 -0.79509316 1.80816952
v -1.33194807 -0.79512511 1.79151966
v -1.33194807 -0.79525749 1.70818428
v -1.48196781 -0.79490601 1.79151966
v -1.63146037 -0.79519816 1.42535031
v -1.05427599 -0.74927528 1.86374077
v -1.66527502 -0.75211919 1.42535031
v -1.53197438 -0.79452256 1.86374077
v -1.53197438 -0.79456362 1.85820512
v -1.49868687 -0.79471884 1.84151228
v -1.49868687 -0.79482839 1.80816952
v -1.48196781 -0.79486490 1.80816952
v -1.49868687 -0.79486490 1.79151966
v -1.69020302 -0.79429887 1.78332342
v -1.69020302 -0.79500643 1.42535031
v -1.26537306 -0.74978655 1.86374077
v -1.69020302 -0.75163533 1.55824921
v -1.69020302 -0.75160337 1.56648837
v -1.69020302 -0.75155771 1.58313823
v -1.69020302 -0.75218768 1.42535031
v -1.69020302 -0.79406148 1.86374077
v -1.51533065 -0.79467318 1.84151228
v -1.69020302 -0.79410259 1.85820512
v -1.69020302 -0.79415736 1.84151228
v -1.69020302 -0.79428062 1.79151966
v -1.69020302 -0.75083191 1.86374077
f 1 2 5
f 1 5 12
f 1 12 14
f 1 14 6
f 1 6 3
f 1 3 8
f 1 8 20
f 1 20 31
f 1 31 45
f 1 45 55
f 1 55 60
f 1 60 47
f 1 47 36
f 1 36 32
f 1 32 21
f 1 21 9
f 1 9 4
f 1 4 2
f 2 4 5
f 3 6 7
f 3 7 8
f 4 9 10
f 4 10 5
f 5 11 12
f 5 10 13
f 5 13 11
f 6 14 15
f 6 15 7
f 7 15 16
f 7 16 17
f 7 17 8
f 8 17 18
f 8 18 19
f 8 19 20
f 9 21 10
f 10 22 23
f 10 23 24
f 10 24 13
f 10 21 22
f 11 13 24
f 11 24 35
f 11 35 46
f 11 46 56
f 11 56 66
f 11 66 61
f 11 61 48
f 11 48 38
f 11 38 25
f 11 25 16
f 11 16 15
f 11 15 14
f 11 14 12
f 16 25 26
f 16 26 27
f 16 27 17
f 17 27 28
f 17 28 29
f 17 29 30
f 17 30 18
f 18 30 19
f 19 30 20
f 20 30 31
f 21 32 33
f 21 33 34
f 21 34 22
f 22 34 33
f 22 33 23
f 23 35 24
f 23 33 36
f 23 36 35
f 25 37 26
f 25 38 39
f 25 39 37
f 26 37 27
f 27 37 40
f 27 40 28
f 28 41 29
f 28 40 41
f 29 41 42
f 29 42 30
f 30 42 43
f 30 43 31
f 31 44 45
f 31 43 44
f 32 36 33
f 35 36 46
f 36 47 46
f 37 39 40
f 38 48 39
f 39 48 49
f 39 49 40
f 40 49 50
f 40 50 51
f 40 51 52
f 40 52 41
f 41 52 44
f 41 44 42
f 42 44 43
f 44 52 51
f 44 51 53
f 44 53 45
f 45 53 54
f 45 54 55
f 46 47 57
f 46 57 58
f 46 58 59
f 46 59 56
f 47 60 57
f 48 61 63
f 48 63 49
f 49 62 50
f 49 63 62
f 50 62 51
f 51 62 64
f 51 64 65
f 51 65 54
f 51 54 53
f 54 65 64
f 54 64 63
f 54 63 61
f 54 61 66
f 54 66 59
f 54 59 58
f 54 58 57
f 54 57 60
f 54 60 55
f 56 59 66
f 62 63 64

