# https://github.com/mikedh/trimesh
v -2.09180864 2.03966115 1.12550068
v -2.09177172 2.03922655 1.12550068
v -2.08963053 2.05570803 1.12550068
v -2.08841224 2.06460903 1.07586735
v -2.08840306 2.06455890 1.05917623
v -2.08838457 2.06450039 1.04252912
v -2.08940903 2.05601727 1.02585267
v -2.08938135 2.05577488 1.00917623
v -2.08932595 2.05539879 0.99249978
v -2.08930752 2.05445437 0.97566200
v -2.09030424 2.03966115 0.97566200
v -2.09030424 2.03948564 0.97566200
v -2.08975972 2.02210152 0.97566200
v -2.09025814 2.02154154 1.12550068
v -2.08808922 2.06384013 1.12550068
v -2.08829230 2.06425801 1.10922024
v -2.08840306 2.06456725 1.09254379
v -2.08007820 2.06782676 1.07586735
v -2.08005977 2.06782676 1.06378169
v -2.08005053 2.06782676 1.05917623
v -2.08003210 2.06781841 1.04252912
v -2.07998594 2.06781005 1.02585267
v -2.07981059 2.06781841 0.99249978
v -2.08840306 2.06457559 1.06378169
v -2.08005977 2.06781841 1.09254379
v -2.07957059 2.06781841 0.97566200
v -2.08833841 2.06435828 1.02585267
v -2.08825538 2.06410756 1.00917623
v -2.08814463 2.06373146 0.99249978
v -2.08791388 2.06292914 0.97582333
v -2.08790463 2.06292914 0.97566200
v -2.08897526 2.02058041 0.97566200
v -2.08846765 2.01462133 0.98312753
v -2.08851381 2.01457119 0.99249978
v -2.08851381 2.01457954 1.09254379
v -2.08847689 2.01461296 1.10338275
v -2.08832922 2.01500578 1.11976586
v -2.08170259 2.01111108 1.12550068
v -2.07994902 2.06765962 1.12550068
v -2.07974600 2.06774321 1.12550068
v -2.07994902 2.06779334 1.10922024
v -2.06341936 2.07106958 1.06378169
v -2.06341936 2.07106958 1.04252912
v -2.06341936 2.07105285 1.09254379
v -2.06341936 2.07102777 0.97566200
v -2.06341936 2.07101942 1.10922024
v -2.08316082 2.01200536 0.97566200
v -2.08154568 2.01030872 0.97566200
v -2.06065982 1.99238971 0.97566200
v -2.06068755 1.99235628 0.99249978
v -2.06045680 1.99238135 1.06378169
v -2.06039221 1.99238971 1.07586735
v -2.06048447 1.99238971 1.05917623
v -2.06027221 1.99241478 1.09254379
v -2.05997687 1.99270730 1.12550068
v -2.06341936 2.07095256 1.12550068
v -2.04674210 2.07125345 1.09254379
v -2.04674210 2.07126180 1.04252912
v -2.04674210 2.07123673 0.99249978
v -2.06327175 2.07103614 0.97566200
v -2.04674210 2.07122003 1.12550068
v -2.04674210 2.07123673 1.10922024
v -2.04692669 1.98668137 0.97566200
v -2.04674210 1.98646406 1.04252912
v -2.04674210 1.98643064 1.06378169
v -2.04674210 1.98643900 1.07586735
v -2.05670971 1.99074324 1.06378169
v -2.04674210 1.98648077 1.09254379
v -2.04674210 1.98664794 1.12550068
v -2.04706512 1.98679001 1.12550068
v -2.03008326 2.07136209 1.12550068
v -2.03008326 2.07137882 1.09254379
v -2.03008326 2.07138716 1.00917623
v -2.03008326 2.07138716 0.99249978
v -2.04674210 2.07122003 0.97566200
v -2.04674210 1.98662286 0.97566200
v -2.03008326 1.98612976 1.04252912
v -2.04217363 1.98633870 1.06378169
v -2.03008326 1.98601275 1.12550068
v -2.03048936 1.98602111 1.12550068
v -2.02967716 2.07135374 1.12550068
v -2.01340594 2.07093587 1.12550068
v -2.01340594 2.07093587 0.99249978
v -2.03008326 2.07137047 0.97566200
v -2.03028628 1.98640556 0.97566200
v -2.03008326 1.98617990 1.02585267
v -2.01340594 1.98738342 1.00917623
v -2.01340594 1.98724969 1.06378169
v -2.01340594 1.98722463 1.07586735
v -2.02548706 1.98641391 1.06378169
v -2.01340594 1.98721626 1.09254379
v -2.01340594 1.98725805 1.10922024
v -2.01340594 1.98737506 1.12550068
v -2.00197090 2.06758438 1.12550068
v -2.00200782 2.06756768 0.99249978
v -2.00202625 2.06755933 0.97566200
v -2.01340594 2.07091914 0.97566200
v -2.03008326 1.98641391 0.97566200
v -2.03008326 1.98625513 1.00917623
v -2.01355361 1.98748372 0.97566200
v -2.01340594 1.98751714 0.97566200
v -2.00134330 1.99330071 0.97566200
v -2.00135254 1.99315862 1.07586735
v -2.00137097 1.99315028 1.09254379
v -2.00138022 1.99317534 1.10922024
v -2.00170323 1.99315028 1.12550068
v -1.99821457 2.05634321 1.12550068
v -1.99821457 2.05634321 1.10922024
v -2.00197090 2.06757603 1.10922024
v -2.00199858 2.06756768 1.00917623
v -1.99827917 2.05633486 0.99249978
v -1.99832533 2.05643515 0.97566200
v -2.00130638 1.99341772 0.97566200
v -1.99757778 2.00632208 1.07586735
v -1.99758697 2.00632208 1.09254379
v -1.99752238 2.00633044 0.97566200
v -1.99760546 2.00632208 1.10922024
v -1.99765156 2.00632208 1.12550068
v -2.00132481 1.99360995 1.12550068
v -2.00141713 1.99329236 1.12550068
v -1.99758697 2.03966115 1.12550068
v -1.99756854 2.03966115 1.10922024
v -1.99761464 2.03966950 0.97566200
v -1.99829765 2.05633486 0.97566200
v -1.99755005 2.02300416 1.10922024
v -1.99753162 2.02315459 0.97566200
v -1.99757778 2.02300416 1.12550068
v -1.99764237 2.00673162 1.12550068
v -1.99757778 2.02340532 1.12550068
f 1 2 14
f 1 14 38
f 1 38 55
f 1 55 70
f 1 70 69
f 1 69 80
f 1 80 79
f 1 79 93
f 1 93 106
f 1 106 120
f 1 120 119
f 1 119 118
f 1 118 128
f 1 128 127
f 1 127 129
f 1 129 121
f 1 121 107
f 1 107 94
f 1 94 82
f 1 82 81
f 1 81 71
f 1 71 61
f 1 61 56
f 1 56 40
f 1 40 39
f 1 39 15
f 1 15 3
f 1 3 4
f 1 4 5
f 1 5 6
f 1 6 7
f 1 7 8
f 1 8 9
f 1 9 10
f 1 10 11
f 1 11 12
f 1 12 13
f 1 13 2
f 2 13 14
f 3 15 16
f 3 16 17
f 3 17 4
f 4 18 19
f 4 19 20
f 4 20 21
f 4 21 22
f 4 22 23
f 4 23 24
f 4 24 5
f 4 17 25
f 4 25 18
f 5 23 6
f 5 24 23
f 6 23 26
f 6 26 27
f 6 27 8
f 6 8 7
f 8 27 9
f 9 27 28
f 9 28 10
f 10 28 29
f 10 29 30
f 10 30 31
f 10 31 26
f 10 26 45
f 10 45 60
f 10 60 75
f 10 75 84
f 10 84 97
f 10 97 96
f 10 96 112
f 10 112 124
f 10 124 123
f 10 123 126
f 10 126 116
f 10 116 113
f 10 113 102
f 10 102 101
f 10 101 100
f 10 100 98
f 10 98 85
f 10 85 76
f 10 76 63
f 10 63 49
f 10 49 48
f 10 48 47
f 10 47 32
f 10 32 13
f 10 13 12
f 10 12 11
f 13 32 33
f 13 33 34
f 13 34 14
f 14 35 36
f 14 36 37
f 14 37 38
f 14 34 35
f 15 39 16
f 16 39 17
f 17 39 40
f 17 40 41
f 17 41 25
f 18 42 43
f 18 43 19
f 18 25 44
f 18 44 42
f 19 43 20
f 20 43 45
f 20 45 21
f 21 45 23
f 21 23 22
f 23 45 26
f 25 41 46
f 25 46 44
f 26 31 29
f 26 29 28
f 26 28 27
f 29 31 30
f 32 47 33
f 33 47 48
f 33 48 49
f 33 49 34
f 34 49 50
f 34 50 35
f 35 51 52
f 35 52 36
f 35 50 53
f 35 53 51
f 36 52 54
f 36 54 55
f 36 55 37
f 37 55 38
f 40 56 41
f 41 56 46
f 42 44 57
f 42 57 58
f 42 58 43
f 43 58 59
f 43 59 60
f 43 60 45
f 44 46 61
f 44 61 62
f 44 62 57
f 46 56 61
f 49 63 50
f 50 63 64
f 50 64 65
f 50 65 66
f 50 66 67
f 50 67 51
f 50 51 53
f 51 67 52
f 52 67 68
f 52 68 54
f 54 68 69
f 54 69 70
f 54 70 55
f 57 62 71
f 57 71 72
f 57 72 58
f 58 73 74
f 58 74 59
f 58 72 73
f 59 74 84
f 59 84 75
f 59 75 60
f 61 71 62
f 63 76 64
f 64 76 77
f 64 77 78
f 64 78 65
f 65 78 79
f 65 79 80
f 65 80 66
f 66 80 68
f 66 68 67
f 68 80 69
f 71 81 72
f 72 81 82
f 72 82 73
f 73 82 83
f 73 83 74
f 74 83 97
f 74 97 84
f 76 85 86
f 76 86 77
f 77 86 87
f 77 87 88
f 77 88 89
f 77 89 90
f 77 90 79
f 77 79 78
f 79 89 91
f 79 91 92
f 79 92 93
f 79 90 89
f 82 94 83
f 83 95 96
f 83 96 97
f 83 94 95
f 85 98 99
f 85 99 86
f 86 99 100
f 86 100 87
f 87 100 101
f 87 101 102
f 87 102 88
f 88 102 89
f 89 103 91
f 89 102 103
f 91 103 104
f 91 104 105
f 91 105 92
f 92 105 93
f 93 105 106
f 94 107 108
f 94 108 109
f 94 109 110
f 94 110 95
f 95 110 108
f 95 108 111
f 95 111 112
f 95 112 96
f 98 100 99
f 102 113 103
f 103 114 115
f 103 115 104
f 103 113 116
f 103 116 114
f 104 115 105
f 105 117 118
f 105 118 119
f 105 119 120
f 105 120 106
f 105 115 117
f 107 121 122
f 107 122 108
f 108 122 123
f 108 123 111
f 108 110 109
f 111 123 124
f 111 124 112
f 114 125 115
f 114 116 125
f 115 125 117
f 116 126 125
f 117 125 127
f 117 127 128
f 117 128 118
f 121 129 125
f 121 125 122
f 122 125 126
f 122 126 123
f 125 129 127

