# https://github.com/mikedh/trimesh
v 1.68093638 -0.72688003 0.49587497
v 1.68093638 -0.72688003 0.57634952
v 1.68093638 -0.70902049 0.51041409
v 1.88638224 -0.70902049 0.51312291
v 1.88638224 -0.72688003 0.50125311
v 1.72413310 -0.72688003 0.57654693
v 1.68093638 -0.70902049 0.56878381
v 1.88638224 -0.70902049 0.56876011
v 1.88638224 -0.72688003 0.57595463
v 1.77611801 -0.70902049 0.56881540
v 1.72413310 -0.70902049 0.56883909
v 1.77066813 -0.72688003 0.57644429
f 1 2 7
f 1 7 3
f 1 3 4
f 1 4 5
f 1 5 9
f 1 9 12
f 1 12 6
f 1 6 2
f 2 6 7
f 3 7 11
f 3 11 10
f 3 10 8
f 3 8 4
f 4 8 9
f 4 9 5
f 6 10 11
f 6 11 7
f 6 12 8
f 6 8 10
f 8 12 9

