# https://github.com/mikedh/trimesh
v -0.98197734 -0.79870332 1.90523942
v -0.94868983 -0.79533644 1.86374482
v -0.93204608 -0.79534138 1.86374482
v -0.96533358 -0.79870332 1.90523942
v -1.26537306 -0.79853971 1.90523942
v -1.63191223 -0.79826695 1.90523942
v -1.29873587 -0.79491497 1.86374482
v -0.92082472 -0.79533149 1.86374482
v -0.94868983 -0.79869340 1.90523942
v -1.69020302 -0.79805869 1.90523942
v -1.69020302 -0.79406702 1.86374482
v -1.53197438 -0.79452321 1.86374482
v -1.48196781 -0.79462737 1.86374482
v -0.92082472 -0.74955870 1.86374482
v -0.92082472 -0.79864878 1.90523942
v -1.69020302 -0.74991077 1.90523942
v -1.69020302 -0.75082808 1.86374482
v -0.92082472 -0.74911241 1.87488723
v -0.92090003 -0.74928595 1.86374482
v -0.92082472 -0.74805129 1.90523942
v -1.61233135 -0.74961324 1.90523942
v -1.58198100 -0.75056034 1.86374482
v -1.54861816 -0.74937521 1.90523942
v -1.26537306 -0.74832398 1.90523942
v -1.01534015 -0.74926118 1.86374482
v -1.07905336 -0.74808103 1.90523942
v -1.03755693 -0.74926118 1.86374482
v -1.26537306 -0.74978183 1.86374482
v -1.05420068 -0.74927108 1.86374482
v -1.06534674 -0.74929588 1.86374482
v -1.04870297 -0.74926614 1.86374482
f 1 2 3
f 1 3 4
f 1 4 9
f 1 9 15
f 1 15 20
f 1 20 26
f 1 26 24
f 1 24 23
f 1 23 21
f 1 21 16
f 1 16 10
f 1 10 6
f 1 6 5
f 1 5 2
f 2 5 6
f 2 6 7
f 2 7 13
f 2 13 12
f 2 12 11
f 2 11 17
f 2 17 22
f 2 22 28
f 2 28 30
f 2 30 29
f 2 29 31
f 2 31 27
f 2 27 25
f 2 25 19
f 2 19 14
f 2 14 8
f 2 8 3
f 3 8 9
f 3 9 4
f 6 10 11
f 6 11 12
f 6 12 13
f 6 13 7
f 8 14 18
f 8 18 20
f 8 20 15
f 8 15 9
f 10 16 17
f 10 17 11
f 14 19 18
f 16 21 17
f 17 21 23
f 17 23 24
f 17 24 22
f 18 19 20
f 19 25 20
f 20 25 27
f 20 27 26
f 22 24 28
f 24 26 29
f 24 29 30
f 24 30 28
f 26 27 31
f 26 31 29

