# https://github.com/mikedh/trimesh
v -0.92082472 -0.74216755 0.85821881
v -0.92082472 -0.79550261 0.85821881
v -0.94871308 -0.74209751 0.85821881
v -0.92082472 -0.74189272 0.95820985
v -0.92082472 -0.79571281 0.87488399
v -1.09875070 -0.79606308 0.87488399
v -1.19869103 -0.79599303 0.85821881
v -1.01533994 -0.74205438 0.85821881
v -1.01533994 -0.74180650 0.95820985
v -0.92082472 -0.74189810 0.96368722
v -0.92082472 -0.79591220 0.90821433
v -0.93201398 -0.79593374 0.90821433
v -1.14867848 -0.79634333 0.90821433
v -1.21539012 -0.79646726 0.90821433
v -1.33202955 -0.79646187 0.87488399
v -1.21539012 -0.79601996 0.85821881
v -1.03203907 -0.74209751 0.85821881
v -1.03203907 -0.74184962 0.95820985
v -1.03203907 -0.74187117 0.97487503
v -1.01533994 -0.74183343 0.97487503
v -0.99872561 -0.74184422 0.97487503
v -0.92082472 -0.74191965 0.97487503
v -0.92082472 -0.79599303 0.92487951
v -0.94871308 -0.79604693 0.92487951
v -1.21539012 -0.79653734 0.92487951
v -1.23208922 -0.79656427 0.92487951
v -1.23208922 -0.79648882 0.90821433
v -1.34872864 -0.79648342 0.87488399
v -1.33202955 -0.79618164 0.85821881
v -1.23208922 -0.74297591 0.85821881
v -1.04873817 -0.74194122 0.95820985
v -1.04873817 -0.74195199 0.97487503
v -1.03203907 -0.74196817 0.99154020
v -1.03085233 -0.74205438 1.00703998
v -1.01533994 -0.74193044 0.99154020
v -0.99872561 -0.74193584 0.99154020
v -0.92082472 -0.74195199 0.98035239
v -0.92082472 -0.79601996 0.93605275
v -0.96541217 -0.79613315 0.94153011
v -1.23208922 -0.79660197 0.94153011
v -1.24870356 -0.79661815 0.94153011
v -1.31541521 -0.79663971 0.92487951
v -1.33202955 -0.79660197 0.90821433
v -1.31541521 -0.79658582 0.90821433
v -1.34872864 -0.79619782 0.85821881
v -1.36525822 -0.79648882 0.87488399
v -1.78680460 -0.74616619 0.85821881
v -1.26540265 -0.74324535 0.95820985
v -1.26540265 -0.74329924 0.97487503
v -1.78680460 -0.74666738 1.00703998
v -1.04873817 -0.74204899 0.99154020
v -1.03203907 -0.74205978 1.00703998
v -1.01533994 -0.74202206 1.00703998
v -1.01423799 -0.74202206 1.00703998
v -0.99753887 -0.74203821 1.00703998
v -0.92082472 -0.74202206 0.99154020
v -0.92082472 -0.79616548 1.00271345
v -0.94871308 -0.79609542 0.94153011
v -0.96541217 -0.79616548 0.95820985
v -1.23208922 -0.79672056 1.00703998
v -1.24870356 -0.79674750 1.00703998
v -0.96651415 -0.79625711 1.00703998
v -1.26540265 -0.79676365 1.00703998
v -1.33202955 -0.79668283 0.94153011
v -1.33202955 -0.79665049 0.92487951
v -1.49859675 -0.79674750 0.94153011
v -1.48198241 -0.79669358 0.92487951
v -1.36525822 -0.79620318 0.85821881
v -1.48198241 -0.79662894 0.90821433
v -1.49859675 -0.79662894 0.90821433
v -1.49859675 -0.79654269 0.89154916
v -1.49859675 -0.79645108 0.87488399
v -1.78680460 -0.79629481 0.87009129
v -1.39865642 -0.79620859 0.85821881
v -1.38195732 -0.79620859 0.85821881
v -1.78680460 -0.79610081 0.85821881
v -1.04873817 -0.74214060 1.00703998
v -1.78680460 -0.79656427 1.00703998
v -0.92082472 -0.74213521 1.00703998
v -0.92082472 -0.74205978 0.99703214
v -0.92082472 -0.79617088 1.00703998
v -0.94871308 -0.79622476 1.00703998
v -1.28201699 -0.79677445 1.00703998
v -1.49859675 -0.79686067 1.00703998
v -1.51648258 -0.79685527 1.00703998
v -1.53309692 -0.79684450 1.00703998
v -1.71526120 -0.79663431 0.95820985
v -1.78680460 -0.79640800 0.88675647
v -1.49859675 -0.79669358 0.92487951
v -1.78680460 -0.79636486 0.87488399
v -1.78680460 -0.79656964 0.99154020
v -1.73314704 -0.79667204 1.00703998
v -1.71526120 -0.79669898 1.00703998
v -1.71526120 -0.79668283 0.99154020
v -1.71526120 -0.79666126 0.97487503
v -1.78680460 -0.79651037 0.93673742
v -1.78680460 -0.79647802 0.92008681
v -1.78680460 -0.79653734 0.95820985
v -1.73196030 -0.79666126 0.99154020
v -1.73196030 -0.79663971 0.97487503
v -1.78680460 -0.79653194 0.95340259
f 1 2 7
f 1 7 16
f 1 16 29
f 1 29 45
f 1 45 68
f 1 68 75
f 1 75 74
f 1 74 76
f 1 76 47
f 1 47 30
f 1 30 17
f 1 17 8
f 1 8 3
f 1 3 4
f 1 4 10
f 1 10 22
f 1 22 37
f 1 37 56
f 1 56 80
f 1 80 79
f 1 79 81
f 1 81 57
f 1 57 38
f 1 38 23
f 1 23 11
f 1 11 5
f 1 5 2
f 2 5 6
f 2 6 7
f 3 8 9
f 3 9 4
f 4 9 10
f 5 11 6
f 6 11 12
f 6 12 13
f 6 13 14
f 6 14 15
f 6 15 7
f 7 15 16
f 8 17 18
f 8 18 9
f 9 18 19
f 9 19 20
f 9 20 21
f 9 21 10
f 10 21 22
f 11 23 24
f 11 24 12
f 12 24 13
f 13 24 14
f 14 24 25
f 14 25 26
f 14 26 27
f 14 27 28
f 14 28 15
f 15 28 29
f 15 29 16
f 17 30 18
f 18 31 32
f 18 32 19
f 18 30 31
f 19 32 51
f 19 51 33
f 19 33 34
f 19 34 20
f 20 34 35
f 20 35 36
f 20 36 21
f 21 36 22
f 22 36 37
f 23 38 39
f 23 39 24
f 24 39 25
f 25 40 26
f 25 39 40
f 26 40 41
f 26 41 42
f 26 42 43
f 26 43 44
f 26 44 28
f 26 28 27
f 28 45 29
f 28 44 43
f 28 43 46
f 28 46 68
f 28 68 45
f 30 47 31
f 31 47 32
f 32 48 49
f 32 49 50
f 32 50 51
f 32 47 48
f 33 51 77
f 33 77 52
f 33 52 34
f 34 53 35
f 34 52 77
f 34 77 50
f 34 50 78
f 34 78 92
f 34 92 93
f 34 93 86
f 34 86 85
f 34 85 84
f 34 84 83
f 34 83 63
f 34 63 61
f 34 61 60
f 34 60 62
f 34 62 82
f 34 82 81
f 34 81 79
f 34 79 55
f 34 55 54
f 34 54 53
f 35 53 54
f 35 54 36
f 36 54 55
f 36 55 56
f 36 56 37
f 38 57 58
f 38 58 39
f 39 58 57
f 39 57 59
f 39 59 40
f 40 60 61
f 40 61 41
f 40 59 62
f 40 62 60
f 41 61 63
f 41 63 42
f 42 63 64
f 42 64 65
f 42 65 43
f 43 65 66
f 43 66 67
f 43 67 46
f 46 67 69
f 46 69 70
f 46 70 71
f 46 71 72
f 46 72 73
f 46 73 74
f 46 74 75
f 46 75 68
f 47 76 73
f 47 73 90
f 47 90 88
f 47 88 97
f 47 97 96
f 47 96 101
f 47 101 98
f 47 98 91
f 47 91 78
f 47 78 50
f 47 50 49
f 47 49 48
f 50 77 51
f 55 79 80
f 55 80 56
f 57 81 82
f 57 82 59
f 59 82 62
f 63 83 64
f 64 83 84
f 64 84 66
f 64 66 65
f 66 84 85
f 66 85 86
f 66 86 87
f 66 87 88
f 66 88 89
f 66 89 67
f 67 89 70
f 67 70 69
f 70 89 90
f 70 90 71
f 71 90 72
f 72 90 73
f 73 76 74
f 78 91 92
f 86 93 94
f 86 94 95
f 86 95 87
f 87 95 96
f 87 96 97
f 87 97 88
f 88 90 89
f 91 98 99
f 91 99 92
f 92 99 93
f 93 99 94
f 94 99 100
f 94 100 95
f 95 100 96
f 96 100 99
f 96 99 101
f 98 101 99

