# https://github.com/mikedh/trimesh
v -2.04717484 -0.45978165 0.58678340
v -2.07985114 -0.45978165 0.56753795
v -2.00835789 -0.45978165 0.58678340
v -2.04642643 -0.22809176 0.58678340
v -2.07985114 -0.22809176 0.56781517
v -2.07985114 -0.45978165 0.51064787
v -1.99696968 -0.45978165 0.53685320
v -1.99504753 -0.26104776 0.53685320
v -2.00657183 -0.22809176 0.58678340
v -2.07985114 -0.22809176 0.50319193
v -2.04843358 -0.45978165 0.43772238
v -1.99494549 -0.45978165 0.52019035
v -1.99347414 -0.31103742 0.52019035
v -1.99489447 -0.22809176 0.53685320
v -1.99873870 -0.22809176 0.55351605
v -1.99334652 -0.29436663 0.52019035
v -1.99326147 -0.27769585 0.52019035
v -2.04713234 -0.22809176 0.43772238
v -2.04743853 -0.24437696 0.43772238
v -2.04769364 -0.26018587 0.43772238
v -2.04770216 -0.26104776 0.43772238
v -2.00842596 -0.45978165 0.43772238
v -1.99446919 -0.45978165 0.50355668
v -1.99400141 -0.45978165 0.48687926
v -1.99323596 -0.26104776 0.52019035
v -1.99324448 -0.24437696 0.52019035
v -1.99344010 -0.22809176 0.52019035
v -1.99320198 -0.32770822 0.48687926
v -1.99310840 -0.31103742 0.48687926
v -1.99298085 -0.22809176 0.48687926
v -2.04362827 -0.22809176 0.43772238
v -1.99510708 -0.41097141 0.47021641
v -1.99523464 -0.42764219 0.47021641
v -1.99580452 -0.44431298 0.47021641
v -1.99648491 -0.45978165 0.47021641
v -2.00690353 -0.22815980 0.43772238
v -1.99412902 -0.45978165 0.48571195
v -1.99313391 -0.22809176 0.50396524
v -1.99462231 -0.31103742 0.47021641
v -1.99469884 -0.32770822 0.47021641
v -1.99471583 -0.22809176 0.47021641
v -1.99460526 -0.24437696 0.47021641
v -2.00405435 -0.22809176 0.44783391
f 1 2 6
f 1 6 11
f 1 11 22
f 1 22 35
f 1 35 37
f 1 37 24
f 1 24 23
f 1 23 12
f 1 12 7
f 1 7 3
f 1 3 9
f 1 9 4
f 1 4 5
f 1 5 2
f 2 5 10
f 2 10 6
f 3 7 8
f 3 8 9
f 4 9 15
f 4 15 14
f 4 14 27
f 4 27 38
f 4 38 30
f 4 30 41
f 4 41 43
f 4 43 31
f 4 31 18
f 4 18 10
f 4 10 5
f 6 10 11
f 7 12 13
f 7 13 8
f 8 14 15
f 8 15 9
f 8 13 16
f 8 16 17
f 8 17 14
f 10 18 19
f 10 19 20
f 10 20 21
f 10 21 11
f 11 21 20
f 11 20 19
f 11 19 18
f 11 18 31
f 11 31 36
f 11 36 22
f 12 23 13
f 13 23 24
f 13 24 16
f 14 17 25
f 14 25 26
f 14 26 27
f 16 24 28
f 16 28 29
f 16 29 17
f 17 29 30
f 17 30 25
f 22 32 33
f 22 33 34
f 22 34 35
f 22 36 32
f 24 37 33
f 24 33 32
f 24 32 28
f 25 30 26
f 26 30 38
f 26 38 27
f 28 32 29
f 29 39 30
f 29 32 40
f 29 40 39
f 30 39 42
f 30 42 41
f 31 43 36
f 32 36 40
f 33 37 34
f 34 37 35
f 36 43 41
f 36 41 42
f 36 42 39
f 36 39 40

