# https://github.com/mikedh/trimesh
v -3.53294250 -0.22757987 0.83251227
v -3.53290012 -0.22757987 0.83665815
v -3.53290012 -0.22851919 0.83315459
v -3.53290012 -0.29070566 0.83815041
v -3.73258091 -0.22757987 0.83314161
v -3.53290012 -0.22757987 0.89854144
v -3.53290012 -0.29070566 0.84119333
v -3.74940822 -0.29070566 0.83933125
v -3.73376777 -0.22757987 0.83314811
v -3.53290012 -0.24430217 0.89859984
v -3.64958901 -0.22757987 0.89872960
v -3.53290012 -0.29067477 0.89859984
v -3.53294250 -0.29070566 0.89859984
v -3.74940822 -0.29070566 0.89845710
v -3.74940822 -0.22757987 0.83395263
v -3.53290012 -0.26096270 0.89863228
v -3.68292568 -0.22757987 0.89878150
v -3.53290012 -0.27762938 0.89863228
v -3.53294250 -0.27767264 0.89863228
v -3.69960456 -0.22767257 0.89879448
v -3.69960456 -0.24433926 0.89874258
v -3.74940822 -0.24433926 0.89872960
v -3.74940822 -0.26100596 0.89864526
v -3.74940822 -0.27767264 0.89854144
v -3.74940822 -0.22757987 0.89876853
v -3.69960456 -0.22757987 0.89878800
v -3.68292568 -0.22767257 0.89878150
v -3.74940822 -0.22767257 0.89876853
f 1 2 3
f 1 3 4
f 1 4 5
f 1 5 9
f 1 9 15
f 1 15 25
f 1 25 26
f 1 26 17
f 1 17 11
f 1 11 6
f 1 6 2
f 2 6 10
f 2 10 16
f 2 16 18
f 2 18 12
f 2 12 7
f 2 7 4
f 2 4 3
f 4 7 13
f 4 13 14
f 4 14 8
f 4 8 5
f 5 8 9
f 6 11 10
f 7 12 13
f 8 14 24
f 8 24 23
f 8 23 22
f 8 22 28
f 8 28 25
f 8 25 15
f 8 15 9
f 10 11 17
f 10 17 16
f 12 18 19
f 12 19 13
f 13 19 20
f 13 20 21
f 13 21 22
f 13 22 23
f 13 23 24
f 13 24 14
f 16 17 27
f 16 27 18
f 17 26 20
f 17 20 27
f 18 27 20
f 18 20 19
f 20 26 25
f 20 25 28
f 20 28 22
f 20 22 21

