# https://github.com/mikedh/trimesh
v -3.14881805 -0.26377287 1.16320283
v -3.31348682 -0.26377287 1.16370023
v -3.14881805 -0.26377287 1.22049160
v -3.14881805 -0.39518159 1.16352872
v -3.28291455 -0.70091757 1.16429485
v -3.33291189 -0.70091757 1.16431772
v -3.33016952 -0.26377287 1.16376313
v -3.33291189 -0.26377287 1.22014854
v -3.28291455 -0.70091757 1.22153790
v -3.14881805 -0.70057525 1.22160650
v -3.14881805 -0.41182697 1.16358017
v -3.19305135 -0.70091757 1.16443206
v -3.34301800 -0.70091757 1.16438061
v -3.40819992 -0.26377287 1.16412904
v -3.33291189 -0.26377287 1.16377456
v -3.35236235 -0.26377287 1.22008566
v -3.31625458 -0.70091757 1.22145212
v -3.30617384 -0.70091757 1.22148072
v -3.29959725 -0.70091757 1.22149787
v -3.14881805 -0.70091757 1.22160650
v -3.14881805 -0.70091757 1.16455786
v -3.16628792 -0.70091757 1.16449496
v -3.17636864 -0.70091757 1.16446636
v -3.18294523 -0.70091757 1.16444923
v -3.40819992 -0.70091757 1.16488375
v -3.40819992 -0.26377287 1.21989126
v -3.40616855 -0.70091757 1.22109765
v -3.40819992 -0.70091757 1.22108621
f 1 2 7
f 1 7 15
f 1 15 14
f 1 14 26
f 1 26 16
f 1 16 8
f 1 8 3
f 1 3 10
f 1 10 20
f 1 20 21
f 1 21 11
f 1 11 4
f 1 4 5
f 1 5 6
f 1 6 2
f 2 6 7
f 3 8 9
f 3 9 10
f 4 11 5
f 5 12 24
f 5 24 23
f 5 23 22
f 5 22 21
f 5 21 20
f 5 20 9
f 5 9 19
f 5 19 18
f 5 18 17
f 5 17 27
f 5 27 28
f 5 28 25
f 5 25 13
f 5 13 6
f 5 11 12
f 6 13 14
f 6 14 15
f 6 15 7
f 8 16 17
f 8 17 18
f 8 18 19
f 8 19 9
f 9 20 10
f 11 21 22
f 11 22 23
f 11 23 24
f 11 24 12
f 13 25 14
f 14 25 28
f 14 28 26
f 16 26 17
f 17 26 27
f 26 28 27

