# https://github.com/mikedh/trimesh
v 0.98640781 -0.26377567 1.16307353
v 0.81023072 -0.26377567 1.16369912
v 0.98640781 -0.26377567 1.22057002
v 0.98640781 -0.39437137 1.16342364
v 0.79079394 -0.70092039 1.16431323
v 0.79355169 -0.26377567 1.16376225
v 0.78800969 -0.26377567 1.22013956
v 0.83420181 -0.70092039 1.22152274
v 0.84077796 -0.70092039 1.22153422
v 0.98640781 -0.70092039 1.22170640
v 0.98640781 -0.41101677 1.16347528
v 0.84077796 -0.70092039 1.16429600
v 0.78069108 -0.70092039 1.16438209
v 0.71551296 -0.26377567 1.16412957
v 0.79079394 -0.26377567 1.16377373
v 0.77411493 -0.26377567 1.22009365
v 0.80744644 -0.70092039 1.22145387
v 0.82412548 -0.70092039 1.22149978
v 0.98640781 -0.70092039 1.16454853
v 0.98640781 -0.54430824 1.16394017
v 0.93066966 -0.70092039 1.16442801
v 0.71551296 -0.70092039 1.16488141
v 0.71551296 -0.26377567 1.21989278
v 0.71551296 -0.70092039 1.22108655
v 0.94077252 -0.70092039 1.16444522
f 1 2 6
f 1 6 15
f 1 15 14
f 1 14 23
f 1 23 16
f 1 16 7
f 1 7 3
f 1 3 10
f 1 10 19
f 1 19 20
f 1 20 11
f 1 11 4
f 1 4 5
f 1 5 2
f 2 5 6
f 3 7 8
f 3 8 9
f 3 9 10
f 4 11 12
f 4 12 5
f 5 12 21
f 5 21 25
f 5 25 19
f 5 19 10
f 5 10 9
f 5 9 8
f 5 8 18
f 5 18 17
f 5 17 24
f 5 24 22
f 5 22 13
f 5 13 14
f 5 14 15
f 5 15 6
f 7 16 17
f 7 17 18
f 7 18 8
f 11 20 12
f 12 20 21
f 13 22 14
f 14 22 24
f 14 24 23
f 16 23 17
f 17 23 24
f 19 25 20
f 20 25 21

