# https://github.com/mikedh/trimesh
v -0.15595067 -0.13568511 1.32489111
v -0.49756121 -0.13539554 1.32421141
v -0.16538038 -0.13562723 1.34154038
v -0.15595067 -0.13568511 1.34154038
v -0.15595067 -0.14031791 1.31677668
v -0.49756121 -0.14217104 1.31150022
v -0.48194532 -0.13556929 1.34154038
v -0.49756121 -0.13556929 1.34154038
v -0.15595067 -0.13603254 1.35820365
v -0.15595067 -0.14390835 1.31051218
v -0.16538038 -0.14390835 1.31049817
v -0.48194532 -0.14373460 1.31034403
v -0.49756121 -0.16041266 1.30433178
v -0.49756121 -0.13632211 1.35820365
v -0.48194532 -0.13620629 1.35820365
v -0.18203292 -0.13603254 1.35820365
v -0.15595067 -0.14419785 1.37135630
v -0.15595067 -0.16041266 1.30473119
v -0.16538038 -0.16041266 1.30470318
v -0.29870081 -0.16041266 1.30449995
v -0.44864029 -0.16041266 1.30433878
v -0.19871885 -0.39373187 1.30468214
v -0.21537139 -0.39373187 1.30468214
v -0.21537139 -0.41040994 1.30471018
v -0.21537139 -0.62699316 1.30516565
v -0.21537139 -0.64367123 1.30520768
v -0.23202388 -0.64367123 1.30522872
v -0.49756121 -0.61031511 1.30564214
v -0.49756121 -0.14448741 1.37110402
v -0.48194532 -0.14442953 1.37108301
v -0.19871885 -0.14419785 1.37130024
v -0.49756121 -0.15937028 1.37529438
v -0.15595067 -0.16041266 1.37591803
v -0.15595067 -0.36037574 1.30472419
v -0.16538038 -0.37711171 1.30470318
v -0.18203292 -0.36037574 1.30467513
v -0.18203292 -0.37711171 1.30467513
v -0.19871885 -0.37711171 1.30466113
v -0.18203292 -0.39373187 1.30468914
v -0.19871885 -0.41040994 1.30471018
v -0.15595067 -0.64367123 1.30518667
v -0.19871885 -0.62699316 1.30515862
v -0.19871885 -0.64367123 1.30520067
v -0.21537139 -0.67702736 1.30530579
v -0.23202388 -0.67702736 1.30532683
v -0.49756121 -0.67702736 1.30583836
v -0.49756121 -0.16041266 1.37558168
v -0.48194532 -0.72700364 1.37565175
v -0.43195434 -0.72700364 1.37568679
v -0.15595067 -0.72700364 1.37570780
v -0.15595067 -0.37711171 1.30472419
v -0.16538038 -0.39373187 1.30471018
v -0.18203292 -0.41040994 1.30471719
v -0.15595067 -0.63637458 1.30517266
v -0.15595067 -0.66973071 1.30527074
v -0.16538038 -0.67702736 1.30529878
v -0.15595067 -0.68640877 1.30534784
v -0.21537139 -0.72700364 1.30560009
v -0.49756121 -0.69364751 1.30590842
v -0.49756121 -0.72700364 1.37562373
v -0.15595067 -0.72700364 1.30576126
v -0.15595067 -0.38649313 1.30473119
v -0.15595067 -0.39373187 1.30473820
v -0.15595067 -0.40317119 1.30475220
v -0.16538038 -0.41040994 1.30473820
v -0.15595067 -0.67702736 1.30529878
v -0.15595067 -0.69364751 1.30539689
v -0.23202388 -0.72700364 1.30563513
v -0.15595067 -0.70302892 1.30548797
v -0.15595067 -0.71976489 1.30567719
v -0.39864928 -0.72700364 1.30601354
v -0.48194532 -0.72700364 1.30628680
v -0.49756121 -0.69468989 1.30592243
v -0.49756121 -0.72700364 1.30642696
f 1 2 3
f 1 3 4
f 1 4 9
f 1 9 17
f 1 17 33
f 1 33 50
f 1 50 61
f 1 61 70
f 1 70 69
f 1 69 67
f 1 67 57
f 1 57 66
f 1 66 55
f 1 55 41
f 1 41 54
f 1 54 64
f 1 64 63
f 1 63 62
f 1 62 51
f 1 51 34
f 1 34 18
f 1 18 10
f 1 10 5
f 1 5 6
f 1 6 2
f 2 7 3
f 2 6 13
f 2 13 28
f 2 28 46
f 2 46 59
f 2 59 73
f 2 73 74
f 2 74 60
f 2 60 47
f 2 47 32
f 2 32 29
f 2 29 14
f 2 14 8
f 2 8 7
f 3 7 9
f 3 9 4
f 5 10 6
f 6 10 11
f 6 11 12
f 6 12 13
f 7 8 16
f 7 16 9
f 8 14 15
f 8 15 16
f 9 16 17
f 10 18 19
f 10 19 20
f 10 20 11
f 11 20 21
f 11 21 12
f 12 21 13
f 13 21 22
f 13 22 23
f 13 23 24
f 13 24 25
f 13 25 26
f 13 26 27
f 13 27 28
f 14 29 15
f 15 29 30
f 15 30 31
f 15 31 17
f 15 17 16
f 17 31 29
f 17 29 32
f 17 32 33
f 18 34 19
f 19 34 51
f 19 51 35
f 19 35 37
f 19 37 36
f 19 36 20
f 20 36 37
f 20 37 21
f 21 37 38
f 21 38 22
f 22 39 53
f 22 53 40
f 22 40 24
f 22 24 23
f 22 38 39
f 24 40 41
f 24 41 42
f 24 42 25
f 25 42 43
f 25 43 26
f 26 43 44
f 26 44 45
f 26 45 27
f 27 45 46
f 27 46 28
f 29 31 30
f 32 47 33
f 33 47 48
f 33 48 49
f 33 49 50
f 35 51 52
f 35 52 37
f 37 52 39
f 37 39 38
f 39 52 65
f 39 65 53
f 40 53 41
f 41 55 44
f 41 44 43
f 41 43 42
f 41 53 54
f 44 55 56
f 44 56 57
f 44 57 58
f 44 58 45
f 45 58 59
f 45 59 46
f 47 60 48
f 48 60 74
f 48 74 72
f 48 72 71
f 48 71 68
f 48 68 58
f 48 58 61
f 48 61 50
f 48 50 49
f 51 62 52
f 52 62 63
f 52 63 64
f 52 64 65
f 53 65 54
f 54 65 64
f 55 66 56
f 56 66 57
f 57 67 58
f 58 68 59
f 58 67 69
f 58 69 70
f 58 70 61
f 59 68 71
f 59 71 72
f 59 72 73
f 72 74 73

