# https://github.com/mikedh/trimesh
v -1.99960065 -0.13620346 1.95354098
v -2.01626761 -0.13685903 1.97020341
v -1.99960065 -0.13624259 1.97020341
v -1.98782673 -0.14443219 1.95354098
v -1.99960065 -0.13627195 1.87175083
v -2.00112547 -0.13632088 1.87175083
v -2.01626761 -0.13688838 1.87175083
v -2.03293452 -0.13863979 1.97020341
v -2.01626761 -0.13724062 1.98687872
v -1.99960065 -0.13679054 1.98687872
v -1.98788455 -0.14451045 1.97020341
v -1.98448753 -0.16100703 1.97020341
v -1.98443925 -0.16100703 1.95354098
v -1.98442960 -0.16100703 1.93689148
v -1.98781708 -0.14452025 1.93689148
v -1.98785558 -0.14457896 1.87175083
v -1.98892692 -0.14381575 1.87175083
v -2.01779243 -0.13714278 1.87175083
v -2.03293452 -0.13902138 1.92021623
v -2.08302219 -0.15026371 1.97020341
v -2.03293452 -0.13941275 1.98687872
v -2.08302219 -0.15013651 1.92021623
v -2.03293452 -0.14650647 1.99911762
v -2.01626761 -0.14519537 1.99920786
v -1.99960065 -0.14496056 1.99878228
v -1.98926465 -0.14770996 1.99732493
v -1.98809686 -0.14493120 1.98687872
v -1.98480594 -0.16100703 1.98687872
v -1.98479629 -0.17767971 1.98687872
v -1.98455501 -0.17767971 1.97020341
v -1.98445857 -0.16100703 1.92021623
v -1.98755648 -0.14607598 1.87175083
v -2.03293452 -0.13983350 1.87175083
v -2.08302219 -0.15109538 1.98184900
v -2.08302219 -0.15149655 1.98745903
v -2.08302219 -0.15151611 1.98757509
v -2.08302219 -0.15281743 1.99457797
v -2.07759842 -0.15233800 1.99560974
v -2.04959182 -0.14458874 1.87175083
v -2.08302219 -0.15138891 1.90872538
v -2.08302219 -0.15966654 1.99781501
v -2.04959182 -0.16100703 2.00156786
v -2.03293452 -0.16100703 2.00314132
v -2.01626761 -0.16100703 2.00324444
v -1.99960065 -0.16100703 2.00247064
v -1.98817411 -0.16100703 1.99848568
v -1.98815480 -0.17767971 1.99849856
v -1.98830918 -0.23615152 1.99830508
v -1.98682298 -0.23615152 1.99268217
v -1.98529816 -0.23615152 1.98687872
v -1.98453581 -0.16100703 1.90355380
v -1.98470950 -0.16100703 1.87175083
v -2.05067270 -0.14508775 1.87175083
v -2.08302219 -0.15811082 1.90032964
v -2.06092186 -0.14995061 1.87175083
v -2.08302219 -0.16560571 1.99896276
v -2.08302219 -0.17767971 2.00128414
v -2.03293452 -0.17767971 2.00333480
v -2.01626761 -0.17767971 2.00341217
v -1.99960065 -0.17767971 2.00257388
v -1.99960065 -0.23615152 2.00239328
v -1.98540438 -0.23615152 1.97870227
v -1.98475766 -0.16253340 1.87175083
v -1.98552979 -0.23615152 1.97020341
v -2.08302219 -0.16639825 1.89368790
v -2.06534194 -0.16101680 1.87175083
v -2.08302219 -0.19433282 2.00137451
v -2.03293452 -0.19433282 2.00341217
v -2.01626761 -0.19433282 2.00348953
v -2.01626761 -0.23615152 2.00345079
v -2.00808371 -0.23615152 2.00294784
v -1.98535610 -0.17767971 1.87175083
v -1.98697736 -0.23615152 1.92021623
v -2.08302219 -0.17762100 1.89248853
v -2.06510066 -0.17767971 1.87175083
v -2.03293452 -0.23615152 2.00280598
v -2.03293452 -0.22766841 2.00306395
v -2.03293452 -0.21100550 2.00333480
v -2.08302219 -0.21100550 1.99996878
v -1.98545254 -0.17920608 1.87175083
v -1.98939971 -0.23615152 1.90324433
v -1.98641767 -0.19433282 1.87175083
v -2.08302219 -0.19423498 1.89345580
v -2.04749760 -0.23615152 1.87175083
v -2.08302219 -0.20705258 1.89461649
v -2.08292569 -0.23615152 1.99750554
v -2.08302219 -0.22766841 1.99787950
v -1.99073153 -0.23615152 1.89826623
v -1.98921637 -0.20607416 1.87175083
v -1.98668792 -0.19568308 1.87175083
v -2.00806440 -0.23615152 1.87175083
v -2.06308362 -0.23615152 1.89849833
v -2.08302219 -0.22146507 1.90524325
v -2.08302219 -0.21541828 1.89693787
v -2.08302219 -0.23615152 1.96726297
v -1.99143606 -0.23615152 1.89569981
v -2.08292569 -0.23615152 1.93513760
v -2.08302219 -0.23085814 1.93316437
f 1 2 3
f 1 3 4
f 1 4 5
f 1 5 6
f 1 6 7
f 1 7 2
f 2 8 9
f 2 9 3
f 2 7 8
f 3 9 10
f 3 10 11
f 3 11 4
f 4 11 12
f 4 12 13
f 4 13 14
f 4 14 15
f 4 15 16
f 4 16 17
f 4 17 5
f 5 17 16
f 5 16 32
f 5 32 52
f 5 52 63
f 5 63 72
f 5 72 80
f 5 80 82
f 5 82 90
f 5 90 89
f 5 89 91
f 5 91 84
f 5 84 75
f 5 75 66
f 5 66 55
f 5 55 53
f 5 53 39
f 5 39 33
f 5 33 18
f 5 18 7
f 5 7 6
f 7 18 19
f 7 19 8
f 8 20 21
f 8 21 9
f 8 19 22
f 8 22 20
f 9 21 23
f 9 23 24
f 9 24 10
f 10 24 25
f 10 25 26
f 10 26 27
f 10 27 11
f 11 27 12
f 12 27 28
f 12 28 29
f 12 29 30
f 12 30 13
f 13 30 14
f 14 30 31
f 14 31 16
f 14 16 15
f 16 31 32
f 18 33 19
f 19 33 22
f 20 34 21
f 20 22 40
f 20 40 54
f 20 54 65
f 20 65 74
f 20 74 83
f 20 83 85
f 20 85 94
f 20 94 93
f 20 93 98
f 20 98 95
f 20 95 87
f 20 87 79
f 20 79 67
f 20 67 57
f 20 57 56
f 20 56 41
f 20 41 37
f 20 37 36
f 20 36 35
f 20 35 34
f 21 34 35
f 21 35 36
f 21 36 37
f 21 37 38
f 21 38 23
f 22 33 39
f 22 39 40
f 23 38 41
f 23 41 42
f 23 42 43
f 23 43 24
f 24 43 44
f 24 44 25
f 25 44 45
f 25 45 26
f 26 45 46
f 26 46 28
f 26 28 27
f 28 46 47
f 28 47 29
f 29 47 48
f 29 48 49
f 29 49 50
f 29 50 30
f 30 50 31
f 31 51 32
f 31 50 51
f 32 51 52
f 37 41 38
f 39 53 40
f 40 53 55
f 40 55 54
f 41 56 42
f 42 57 43
f 42 56 57
f 43 58 44
f 43 57 58
f 44 58 59
f 44 59 45
f 45 59 60
f 45 60 46
f 46 60 47
f 47 60 61
f 47 61 48
f 48 61 71
f 48 71 70
f 48 70 76
f 48 76 86
f 48 86 95
f 48 95 97
f 48 97 92
f 48 92 84
f 48 84 91
f 48 91 96
f 48 96 88
f 48 88 81
f 48 81 73
f 48 73 64
f 48 64 62
f 48 62 50
f 48 50 49
f 50 62 52
f 50 52 51
f 52 62 64
f 52 64 63
f 54 55 65
f 55 66 65
f 57 67 58
f 58 68 69
f 58 69 59
f 58 67 68
f 59 69 60
f 60 69 70
f 60 70 71
f 60 71 61
f 63 64 72
f 64 73 72
f 65 66 74
f 66 75 74
f 67 76 77
f 67 77 78
f 67 78 68
f 67 79 76
f 68 70 69
f 68 78 70
f 70 78 77
f 70 77 76
f 72 73 80
f 73 81 82
f 73 82 80
f 74 75 83
f 75 84 85
f 75 85 83
f 76 79 86
f 79 87 86
f 81 88 89
f 81 89 90
f 81 90 82
f 84 92 93
f 84 93 94
f 84 94 85
f 86 87 95
f 88 96 89
f 89 96 91
f 92 97 93
f 93 97 98
f 95 98 97

