# https://github.com/mikedh/trimesh
v 2.11078228 -0.70921691 1.23645416
v 2.07739287 -0.70921691 1.23645416
v 2.11450658 -0.70921691 1.25175065
v 2.11420523 -0.70922609 1.02048438
v 2.07374033 -0.70921691 1.23686758
v 2.07457992 -0.70922609 1.02048438
v 2.11465727 -0.70921691 1.28507218
v 2.12743042 -0.70922609 1.15356376
v 2.13133406 -0.73795728 1.02048438
v 2.07525448 -0.70921691 1.44283263
v 2.06675818 -0.70922609 1.15575489
v 2.06675818 -0.70922609 1.22446503
v 2.06675817 -0.72707634 1.02048438
v 2.11466449 -0.70921691 1.28684987
v 2.13511571 -0.74629476 1.02048438
v 2.13505123 -0.74614783 1.02048438
v 2.11470752 -0.70921691 1.30173294
v 2.12747345 -0.70922609 1.17022452
v 2.13606297 -0.74435729 1.37019502
v 2.06827948 -0.73067577 1.44283263
v 2.11482953 -0.70921691 1.44283263
v 2.06675817 -0.72642441 1.23641282
v 2.06675817 -0.78323485 1.02048438
v 2.13893331 -0.76099550 1.17022452
v 2.13821577 -0.76100467 1.02048438
v 2.11484389 -0.70921691 1.41839959
v 2.11484389 -0.70921691 1.42017732
v 2.11483669 -0.70921691 1.43783027
v 2.12746630 -0.70922609 1.18510759
v 2.13607011 -0.74435729 1.44283263
v 2.13894057 -0.76099550 1.18688528
v 2.06827948 -0.78408881 1.44283263
v 2.13322850 -0.73518424 1.44283263
v 2.12738732 -0.70922609 1.20354605
v 2.12743042 -0.70922609 1.20176836
v 2.06675817 -0.78322567 1.23641282
v 2.07659637 -0.79271090 1.02048438
v 2.06675817 -0.79187533 1.15356376
v 2.14005280 -0.77767042 1.44283263
v 2.13970830 -0.77767042 1.18688528
v 2.13893331 -0.77767042 1.02048438
v 2.13885439 -0.76100467 1.44283263
v 2.07645999 -0.79284865 1.44283263
v 2.06675817 -0.79012154 1.21764363
v 2.06675817 -0.79078265 1.21297199
v 2.06675817 -0.79194879 1.20354605
v 2.09079747 -0.80089227 1.02048438
v 2.06675817 -0.79213244 1.17022452
v 2.13663708 -0.79433619 1.44283263
v 2.13584767 -0.79383115 1.02048438
v 2.08159080 -0.79579615 1.44283263
v 2.06675817 -0.79209572 1.19618720
v 2.10316152 -0.80251753 1.02048438
v 2.09079747 -0.80092902 1.05359919
v 2.09079747 -0.80108510 1.44283263
v 2.13258989 -0.80275627 1.44283263
v 2.13258274 -0.80275627 1.43683808
v 2.13255401 -0.80273792 1.42017732
v 2.13662266 -0.79433619 1.43683808
v 2.12759546 -0.80215942 1.02048438
v 2.13251098 -0.80271035 1.40740269
v 2.11148557 -0.80283892 1.02048438
v 2.10961266 -0.80293992 1.44283263
v 2.10129577 -0.80257263 1.44283263
v 2.09439975 -0.80160849 1.44283263
v 2.12714336 -0.80293074 1.44283263
v 2.11926422 -0.80283892 1.02048438
v 2.12411511 -0.80302256 1.44283263
f 1 2 5
f 1 5 10
f 1 10 21
f 1 21 28
f 1 28 27
f 1 27 26
f 1 26 17
f 1 17 14
f 1 14 7
f 1 7 3
f 1 3 4
f 1 4 6
f 1 6 2
f 2 6 5
f 3 7 8
f 3 8 4
f 4 8 9
f 4 9 16
f 4 16 15
f 4 15 25
f 4 25 41
f 4 41 50
f 4 50 60
f 4 60 67
f 4 67 62
f 4 62 53
f 4 53 47
f 4 47 37
f 4 37 23
f 4 23 13
f 4 13 6
f 5 6 11
f 5 11 12
f 5 12 10
f 6 13 11
f 7 14 8
f 8 15 16
f 8 16 9
f 8 14 17
f 8 17 18
f 8 18 19
f 8 19 15
f 10 20 32
f 10 32 43
f 10 43 51
f 10 51 55
f 10 55 65
f 10 65 64
f 10 64 63
f 10 63 68
f 10 68 66
f 10 66 56
f 10 56 49
f 10 49 39
f 10 39 42
f 10 42 30
f 10 30 33
f 10 33 21
f 10 12 20
f 11 13 23
f 11 23 38
f 11 38 48
f 11 48 52
f 11 52 46
f 11 46 45
f 11 45 44
f 11 44 36
f 11 36 22
f 11 22 12
f 12 22 20
f 15 19 24
f 15 24 25
f 17 26 18
f 18 26 27
f 18 27 28
f 18 28 29
f 18 29 30
f 18 30 19
f 19 30 31
f 19 31 24
f 20 22 36
f 20 36 32
f 21 33 34
f 21 34 35
f 21 35 29
f 21 29 28
f 23 37 38
f 24 31 39
f 24 39 40
f 24 40 41
f 24 41 25
f 29 35 30
f 30 42 31
f 30 35 33
f 31 42 39
f 32 36 44
f 32 44 45
f 32 45 46
f 32 46 43
f 33 35 34
f 37 47 38
f 38 47 48
f 39 49 40
f 40 50 41
f 40 49 50
f 43 46 52
f 43 52 51
f 47 53 54
f 47 54 48
f 48 54 55
f 48 55 52
f 49 56 57
f 49 57 58
f 49 58 59
f 49 59 50
f 50 59 58
f 50 58 61
f 50 61 60
f 51 52 55
f 53 62 63
f 53 63 64
f 53 64 54
f 54 64 65
f 54 65 55
f 56 66 57
f 57 66 67
f 57 67 58
f 58 67 61
f 60 61 67
f 62 67 68
f 62 68 63
f 66 68 67

