# https://github.com/mikedh/trimesh
v -3.33085028 1.55216303 1.70960059
v -3.29751128 1.55259553 1.74294462
v -3.38088243 1.55254747 1.74294462
v -3.39098374 1.55254747 1.74294462
v -3.39098374 1.55221108 1.70960059
v -3.34754347 1.55819400 1.69340051
v -3.06409111 1.55841026 1.69380017
v -3.08073688 1.55254747 1.70960059
v -3.08073688 1.55281177 1.74294462
v -3.06409111 1.55550290 1.75962088
v -3.39098374 1.55600748 1.75962088
v -3.08073688 1.55550290 1.75962088
v -3.19744697 1.55557497 1.75962088
v -3.26412490 1.55567108 1.75962088
v -3.39098374 1.55819400 1.69366413
v -3.38088243 1.55819400 1.69354508
v -3.36418924 1.55821804 1.69342598
v -3.34754347 1.57273080 1.68558535
v -3.04739792 1.55848234 1.69376618
v -2.90654908 1.55881871 1.69414036
v -3.06409111 1.55261957 1.70960059
v -3.06409111 1.55288387 1.74294462
v -2.90654908 1.55581525 1.75962088
v -2.96402678 1.55567108 1.75962088
v -3.04739792 1.55552692 1.75962088
v -2.96402678 1.56110137 1.77024234
v -2.98067256 1.56110137 1.77025087
v -3.39098374 1.56194234 1.76941750
v -2.99736575 1.56110137 1.77023387
v -3.26412490 1.56153386 1.76971511
v -3.39098374 1.56698818 1.68892741
v -3.38088243 1.57273080 1.68575545
v -3.36418924 1.57273080 1.68563635
v -3.39098374 1.57273080 1.68584897
v -3.39098374 1.79763088 1.68664834
v -3.37229870 1.79763088 1.68667387
v -3.33895974 1.79763088 1.68674192
v -3.33085028 1.79763088 1.68675892
v -3.04739792 1.57273080 1.68623169
v -2.90654908 1.57273080 1.68680144
v -2.90654908 1.55639191 1.70103705
v -2.90654908 1.55338845 1.70960059
v -2.90654908 1.55362873 1.74294462
v -2.90654908 1.55821804 1.76434912
v -2.91399463 1.56117344 1.77019982
v -2.93064040 1.56114941 1.77021681
v -2.96402678 1.57273080 1.77245336
v -2.98067256 1.57273080 1.77246189
v -3.26412490 1.57273080 1.77131386
v -3.39098374 1.56621928 1.76992773
v -3.39098374 1.58279845 1.68578945
v -3.39098374 1.79763088 1.76952802
v -2.90654908 1.79763088 1.68775385
v -2.90654908 1.58940610 1.68679291
v -2.90654908 1.56119748 1.77019982
v -2.90654908 1.56633943 1.77116929
v -2.90654908 1.57273080 1.77236838
v -2.90654908 1.79763088 1.77174757
v -2.96402678 1.79763088 1.77173904
v -2.98067256 1.79763088 1.77173057
v -2.98925627 1.79763088 1.77169652
v -3.39098374 1.57273080 1.77068458
v -2.99736575 1.79763088 1.77166252
v -3.23936967 1.79763088 1.77043797
v -3.23078594 1.79763088 1.77048896
f 1 2 3
f 1 3 4
f 1 4 5
f 1 5 6
f 1 6 7
f 1 7 8
f 1 8 9
f 1 9 2
f 2 9 10
f 2 10 3
f 3 10 12
f 3 12 4
f 4 11 28
f 4 28 50
f 4 50 62
f 4 62 52
f 4 52 35
f 4 35 51
f 4 51 34
f 4 34 31
f 4 31 15
f 4 15 5
f 4 12 13
f 4 13 14
f 4 14 11
f 5 15 16
f 5 16 6
f 6 16 17
f 6 17 18
f 6 18 19
f 6 19 7
f 7 19 20
f 7 20 8
f 8 20 21
f 8 21 22
f 8 22 9
f 9 22 23
f 9 23 24
f 9 24 25
f 9 25 10
f 10 25 26
f 10 26 27
f 10 27 12
f 11 14 29
f 11 29 30
f 11 30 28
f 12 27 29
f 12 29 13
f 13 29 14
f 15 31 16
f 16 32 33
f 16 33 17
f 16 31 34
f 16 34 32
f 17 33 18
f 18 33 35
f 18 35 36
f 18 36 37
f 18 37 38
f 18 38 39
f 18 39 19
f 19 39 20
f 20 40 54
f 20 54 53
f 20 53 58
f 20 58 57
f 20 57 56
f 20 56 55
f 20 55 44
f 20 44 23
f 20 23 43
f 20 43 42
f 20 42 41
f 20 41 21
f 20 39 40
f 21 41 42
f 21 42 43
f 21 43 22
f 22 43 23
f 23 44 24
f 24 44 45
f 24 45 46
f 24 46 26
f 24 26 25
f 26 46 47
f 26 47 48
f 26 48 27
f 27 48 29
f 28 49 50
f 28 30 48
f 28 48 49
f 29 48 30
f 32 34 51
f 32 51 33
f 33 51 35
f 35 52 64
f 35 64 65
f 35 65 63
f 35 63 61
f 35 61 60
f 35 60 59
f 35 59 58
f 35 58 53
f 35 53 38
f 35 38 37
f 35 37 36
f 38 53 39
f 39 53 54
f 39 54 40
f 44 55 45
f 45 55 46
f 46 55 47
f 47 55 56
f 47 56 57
f 47 57 58
f 47 58 48
f 48 58 59
f 48 59 60
f 48 60 61
f 48 61 49
f 49 62 50
f 49 61 63
f 49 63 62
f 52 62 64
f 62 63 65
f 62 65 64

