# https://github.com/mikedh/trimesh
v -2.11343953 1.58940276 1.47649589
v -2.11343953 1.57275159 1.47626442
v -2.08790964 1.55530656 1.49347354
v -2.11343953 1.62286968 1.47621814
v -2.08503899 1.53938146 1.49347354
v -2.11343953 1.56024384 1.47185511
v -2.08544747 1.57195774 1.49347354
v -2.08542475 1.57206423 1.49347354
v -2.07654034 1.58511411 1.49347354
v -2.05986086 1.60251071 1.49347354
v -2.04730016 1.60804820 1.49347354
v -2.04676685 1.60828054 1.49347354
v -2.03076812 1.60910342 1.49347354
v -2.03008732 1.60911310 1.49347354
v -2.06342366 1.62286968 1.47673893
v -2.11343953 1.62286968 1.39645675
v -2.07716442 1.52818064 1.49347354
v -2.11343953 1.55589711 1.45943722
v -2.01408859 1.60804820 1.49347354
v -2.04676685 1.62286968 1.47687780
v -2.06342366 1.62286968 1.39148034
v -2.04676685 1.60885172 1.37524337
v -2.06000836 1.60296572 1.37524337
v -2.11343953 1.62274383 1.39641047
v -2.06342366 1.52495690 1.45942565
v -2.06342366 1.52502466 1.49279073
v -2.06342366 1.52503435 1.49347354
v -2.11343953 1.55567445 1.44274892
v -2.11343953 1.55564541 1.42609530
v -2.07703959 1.52805479 1.37524337
v -2.06408180 1.52497626 1.37524337
v -2.06342366 1.52482136 1.37606505
v -2.06342366 1.52486977 1.40943014
v -2.01340778 1.60799011 1.49347354
v -2.03389977 1.62286968 1.47214443
v -2.04676685 1.62286968 1.39082067
v -2.03008732 1.60931640 1.37524337
v -2.07668783 1.58504635 1.37524337
v -2.11343953 1.60606362 1.39341304
v -2.08547013 1.57229657 1.37524337
v -2.04676685 1.52452125 1.49347354
v -2.06274285 1.52500530 1.49347354
v -2.11343953 1.55594552 1.40941857
v -2.11343953 1.56031161 1.39688494
v -2.08443762 1.53881999 1.37524337
v -2.06342366 1.52482136 1.37524337
v -2.04676685 1.52435666 1.37606505
v -2.04608604 1.52450189 1.49347354
v -2.00204987 1.60258817 1.49347354
v -2.02874843 1.62286968 1.45942565
v -2.00157328 1.60235583 1.49347354
v -2.01340778 1.60799011 1.37524337
v -2.02927035 1.60926800 1.37524337
v -2.03344590 1.62286968 1.39599384
v -2.11343953 1.58938340 1.39246406
v -2.08549280 1.57216105 1.37524337
v -2.08777348 1.55522913 1.37524337
v -2.11343953 1.57272254 1.39235990
v -2.08481205 1.53938146 1.37524337
v -2.04676685 1.52435666 1.37524337
v -2.03008732 1.52396945 1.37524337
v -2.03008732 1.52407594 1.49347354
v -2.02873710 1.62286968 1.45932151
v -2.00142578 1.60183305 1.49347354
v -1.99761333 1.58939308 1.45942565
v -2.00135773 1.60253007 1.45942565
v -2.02806762 1.62286968 1.44276049
v -2.00173216 1.60225901 1.37524337
v -2.02829456 1.62286968 1.40943014
v -2.08776215 1.55510327 1.37524337
v -2.01340778 1.52465679 1.37524337
v -2.01340778 1.52455030 1.40943014
v -2.01340778 1.52450189 1.42609530
v -2.01340778 1.52449224 1.44276049
v -2.01340778 1.52450189 1.45942565
v -2.01340778 1.52452125 1.47610240
v -2.01340778 1.52455030 1.49347354
v -1.99794237 1.58939308 1.49347354
v -1.99777215 1.58939308 1.47610240
v -1.99752256 1.58939308 1.44276049
v -1.99779488 1.57205456 1.49347354
v -1.99771544 1.55604232 1.49347354
v -2.00128962 1.60260753 1.44276049
v -2.02806762 1.62286968 1.44264475
v -2.00173216 1.60227838 1.37606505
v -2.00141445 1.60250103 1.40943014
v -1.99755661 1.58939308 1.42609530
v -1.99774949 1.58939308 1.40943014
v -1.99830547 1.58939308 1.37524337
v -2.02809035 1.62286968 1.42597956
v -2.00130095 1.60260753 1.42609530
v -2.00283278 1.52810318 1.37524337
v -2.00206120 1.52810318 1.42609530
v -2.00202715 1.52808384 1.44276049
v -2.00202715 1.52808384 1.45942565
v -2.00210659 1.52813223 1.49347354
v -1.99760200 1.55604232 1.44276049
v -1.99763599 1.55604232 1.47610240
v -1.99760200 1.55604232 1.45942565
v -1.99839624 1.53938146 1.49347354
v -1.99764738 1.55604232 1.42609530
v -1.99774949 1.55604232 1.40943014
v -1.99798776 1.55604232 1.37606505
v -1.99799909 1.55687488 1.37524337
v -2.00229947 1.52828716 1.37524337
v -2.00211792 1.52882927 1.37524337
v -1.99835085 1.53938146 1.42609530
v -1.99828280 1.53938146 1.44276049
v -1.99829414 1.53938146 1.45942565
v -1.99854373 1.53892644 1.49347354
v -1.99869129 1.53938146 1.37606505
v -1.99866856 1.54018497 1.37524337
v -1.99799909 1.55604232 1.37524337
v -1.99870262 1.53938146 1.37524337
f 1 2 3
f 1 3 4
f 1 4 16
f 1 16 24
f 1 24 39
f 1 39 55
f 1 55 58
f 1 58 44
f 1 44 43
f 1 43 29
f 1 29 28
f 1 28 18
f 1 18 6
f 1 6 2
f 2 5 3
f 2 6 5
f 3 7 4
f 3 5 17
f 3 17 27
f 3 27 42
f 3 42 41
f 3 41 48
f 3 48 62
f 3 62 77
f 3 77 96
f 3 96 110
f 3 110 100
f 3 100 82
f 3 82 81
f 3 81 78
f 3 78 64
f 3 64 51
f 3 51 49
f 3 49 34
f 3 34 19
f 3 19 14
f 3 14 13
f 3 13 12
f 3 12 11
f 3 11 10
f 3 10 9
f 3 9 8
f 3 8 7
f 4 7 8
f 4 8 9
f 4 9 10
f 4 10 11
f 4 11 12
f 4 12 13
f 4 13 14
f 4 14 15
f 4 15 20
f 4 20 35
f 4 35 50
f 4 50 63
f 4 63 67
f 4 67 84
f 4 84 90
f 4 90 69
f 4 69 54
f 4 54 36
f 4 36 21
f 4 21 16
f 5 6 17
f 6 18 17
f 14 19 20
f 14 20 15
f 16 21 22
f 16 22 23
f 16 23 24
f 17 25 26
f 17 26 27
f 17 18 28
f 17 28 29
f 17 29 30
f 17 30 31
f 17 31 32
f 17 32 33
f 17 33 25
f 19 34 20
f 20 34 35
f 21 36 22
f 22 37 53
f 22 53 52
f 22 52 68
f 22 68 89
f 22 89 104
f 22 104 113
f 22 113 112
f 22 112 114
f 22 114 106
f 22 106 105
f 22 105 92
f 22 92 71
f 22 71 61
f 22 61 60
f 22 60 46
f 22 46 31
f 22 31 30
f 22 30 45
f 22 45 59
f 22 59 70
f 22 70 57
f 22 57 56
f 22 56 40
f 22 40 38
f 22 38 23
f 22 36 37
f 23 38 24
f 24 38 40
f 24 40 39
f 25 41 42
f 25 42 26
f 25 33 41
f 26 42 27
f 29 43 30
f 30 43 44
f 30 44 45
f 31 46 32
f 32 46 60
f 32 60 47
f 32 47 48
f 32 48 33
f 33 48 41
f 34 49 35
f 35 49 51
f 35 51 50
f 36 52 53
f 36 53 37
f 36 54 52
f 39 40 56
f 39 56 57
f 39 57 55
f 44 58 59
f 44 59 45
f 47 60 61
f 47 61 62
f 47 62 48
f 50 51 63
f 51 64 65
f 51 65 66
f 51 66 67
f 51 67 63
f 52 54 68
f 54 69 68
f 55 57 58
f 57 70 58
f 58 70 59
f 61 71 72
f 61 72 73
f 61 73 74
f 61 74 75
f 61 75 62
f 62 75 76
f 62 76 77
f 64 78 79
f 64 79 65
f 65 80 66
f 65 79 81
f 65 81 82
f 65 82 80
f 66 80 83
f 66 83 67
f 67 83 84
f 68 69 85
f 68 85 86
f 68 86 87
f 68 87 88
f 68 88 89
f 69 90 91
f 69 91 86
f 69 86 85
f 71 92 93
f 71 93 72
f 72 93 73
f 73 93 94
f 73 94 74
f 74 94 95
f 74 95 75
f 75 95 76
f 76 95 77
f 77 95 96
f 78 81 79
f 80 97 87
f 80 87 91
f 80 91 83
f 80 82 98
f 80 98 99
f 80 99 97
f 82 100 98
f 83 91 84
f 84 91 90
f 86 91 87
f 87 97 101
f 87 101 102
f 87 102 103
f 87 103 104
f 87 104 88
f 88 104 89
f 92 105 93
f 93 105 106
f 93 106 107
f 93 107 108
f 93 108 94
f 94 108 95
f 95 108 109
f 95 109 96
f 96 109 110
f 97 99 108
f 97 108 101
f 98 100 109
f 98 109 99
f 99 109 108
f 100 110 109
f 101 107 102
f 101 108 107
f 102 107 111
f 102 111 103
f 103 111 112
f 103 112 113
f 103 113 104
f 106 114 111
f 106 111 107
f 111 114 112

