# https://github.com/mikedh/trimesh
v -0.64450908 1.62907613 1.96310629
v -0.62785343 1.62907613 1.96311763
v -0.66692417 1.62907613 1.96320840
v -0.29209423 1.66560328 1.96648181
v -0.49437477 1.62907613 1.96338995
v -0.67743121 1.62907613 1.96333317
v -0.91123295 1.66560328 1.97028848
v -0.89449948 1.66560328 1.97010693
v -0.87784382 1.66560328 1.96996511
v -0.66116472 1.66560328 1.96827451
v -0.29209423 1.66560328 2.02105762
v -0.29209423 1.65555616 1.96627188
v -0.47779692 1.62907613 1.96351472
v -1.08720688 1.62907614 1.97088418
v -1.08720688 1.66560328 1.97272793
v -0.29427346 1.63943073 2.02105190
v -0.29209423 1.63943073 2.02105190
v -1.08720688 1.66560328 2.02100657
v -1.08720688 1.66354739 2.02100657
v -0.29209423 1.63228334 1.96631726
v -0.46114125 1.62907613 1.96374165
v -1.08720688 1.62907614 2.02091007
v -0.29427346 1.63228334 2.02104629
v -0.29209423 1.63228334 2.02104629
v -1.08720688 1.65609966 2.02098951
v -0.41312008 1.62907613 1.96599961
v -0.41452105 1.62907613 1.96579534
v -0.42915310 1.62907613 1.96471178
v -1.08720688 1.63020598 2.02091580
v -0.79448775 1.62907614 2.02091007
v -1.08720688 1.63942715 2.02094979
v -0.75479439 1.62907613 2.02090447
v -0.56115302 1.62907613 2.02086474
v -0.53811530 1.62907613 2.02085902
v -0.52776389 1.62907613 2.02085341
v -0.51110822 1.62907613 2.02084196
v -0.41312008 1.62907613 2.02077397
f 1 2 5
f 1 5 13
f 1 13 21
f 1 21 28
f 1 28 27
f 1 27 26
f 1 26 37
f 1 37 36
f 1 36 35
f 1 35 34
f 1 34 33
f 1 33 32
f 1 32 30
f 1 30 22
f 1 22 14
f 1 14 6
f 1 6 3
f 1 3 4
f 1 4 2
f 2 4 5
f 3 6 7
f 3 7 8
f 3 8 9
f 3 9 10
f 3 10 4
f 4 11 17
f 4 17 24
f 4 24 20
f 4 20 12
f 4 12 13
f 4 13 5
f 4 10 9
f 4 9 8
f 4 8 7
f 4 7 15
f 4 15 18
f 4 18 11
f 6 14 15
f 6 15 7
f 11 16 17
f 11 18 19
f 11 19 16
f 12 20 21
f 12 21 13
f 14 22 29
f 14 29 31
f 14 31 25
f 14 25 19
f 14 19 18
f 14 18 15
f 16 23 24
f 16 24 17
f 16 19 23
f 19 25 23
f 20 24 37
f 20 37 26
f 20 26 27
f 20 27 28
f 20 28 21
f 22 30 24
f 22 24 23
f 22 23 29
f 23 25 31
f 23 31 29
f 24 30 32
f 24 32 33
f 24 33 34
f 24 34 35
f 24 35 36
f 24 36 37

