# https://github.com/mikedh/trimesh
v -2.50510089 -0.15370656 0.50354386
v -2.50510089 -0.15391116 0.52021926
v -2.49959320 -0.15389337 0.52021926
v -2.44159450 -0.15391116 0.51220640
v -2.44159450 -0.15385778 0.50354386
v -2.44159450 -0.16161470 0.48917536
v -2.50510089 -0.16155242 0.48909061
v -2.50510089 -0.15448936 0.53685696
v -2.44159450 -0.15400012 0.52021926
v -2.49959320 -0.15448936 0.53685696
v -2.48292713 -0.15450715 0.53685696
v -2.44159450 -0.17768001 0.48350704
v -2.48292713 -0.17768001 0.48323398
v -2.48755833 -0.17768001 0.48321515
v -2.49959320 -0.17768889 0.48317748
v -2.50510089 -0.17235158 0.48512657
v -2.50510089 -0.15570804 0.54236522
v -2.46626106 -0.15815433 0.55353235
v -2.44159450 -0.15431147 0.52886296
v -2.44159450 -0.15461390 0.53685696
v -2.44159450 -0.19435022 0.48411906
v -2.47214170 -0.24433420 0.47631335
v -2.48286496 -0.24441426 0.47301785
v -2.48292713 -0.24433420 0.47299901
v -2.50510089 -0.17768889 0.48319631
v -2.50510089 -0.15839451 0.55352294
v -2.46626106 -0.16535969 0.56486898
v -2.44159450 -0.16542198 0.56480306
v -2.44159450 -0.15828775 0.55353235
v -2.44159450 -0.21099376 0.48848800
v -2.47211065 -0.24441426 0.47636044
v -2.48755833 -0.24458327 0.47378049
v -2.49550903 -0.24458327 0.47517406
v -2.49569553 -0.24433420 0.47523057
v -2.49570796 -0.24458327 0.47522115
v -2.50510089 -0.18883499 0.48341286
v -2.50510089 -0.16077850 0.55724218
v -2.50510089 -0.16563546 0.56457709
v -2.50510089 -0.17768889 0.56775962
v -2.46626106 -0.17768001 0.56808918
v -2.44159450 -0.17768001 0.56809859
v -2.44159450 -0.22048529 0.49393036
v -2.44159450 -0.24441426 0.50982422
v -2.48755833 -0.24458327 0.56914374
v -2.50188081 -0.24458327 0.48669901
v -2.50510089 -0.22230887 0.48651072
v -2.50510089 -0.20548744 0.48406256
v -2.50510089 -0.19435022 0.48361063
v -2.50510089 -0.19435022 0.56837164
v -2.44960119 -0.19435022 0.56855997
v -2.44159450 -0.19435022 0.56857880
v -2.44159450 -0.18634424 0.56835281
v -2.44159450 -0.24441426 0.56917199
v -2.44960119 -0.24441426 0.56919083
v -2.48773858 -0.24458327 0.56914374
v -2.50197407 -0.24458327 0.48687788
v -2.50510089 -0.24458327 0.49550278
v -2.50510089 -0.19983878 0.56849404
v -2.50510089 -0.21100267 0.56872945
v -2.44159450 -0.20299669 0.56873887
v -2.44159450 -0.24433420 0.56917199
v -2.46626106 -0.24433420 0.56918141
v -2.46626106 -0.24441426 0.56918141
v -2.44159450 -0.22766397 0.56907785
v -2.44960119 -0.22766397 0.56907785
v -2.49983561 -0.24458327 0.56912490
v -2.50510089 -0.24458327 0.56911549
v -2.50510089 -0.22765509 0.56899309
v -2.44960119 -0.21099376 0.56886127
v -2.44159450 -0.21099376 0.56887069
v -2.49959320 -0.24433420 0.56912490
v -2.46626106 -0.22766397 0.56905901
v -2.48755833 -0.23229855 0.56905901
v -2.50510089 -0.24433420 0.56911549
v -2.48292713 -0.22766397 0.56903076
f 1 2 3
f 1 3 4
f 1 4 5
f 1 5 6
f 1 6 7
f 1 7 16
f 1 16 25
f 1 25 36
f 1 36 48
f 1 48 47
f 1 47 46
f 1 46 57
f 1 57 67
f 1 67 74
f 1 74 68
f 1 68 59
f 1 59 58
f 1 58 49
f 1 49 39
f 1 39 38
f 1 38 37
f 1 37 26
f 1 26 17
f 1 17 8
f 1 8 2
f 2 8 3
f 3 9 4
f 3 8 10
f 3 10 11
f 3 11 9
f 4 9 19
f 4 19 20
f 4 20 29
f 4 29 28
f 4 28 41
f 4 41 52
f 4 52 51
f 4 51 60
f 4 60 70
f 4 70 64
f 4 64 61
f 4 61 53
f 4 53 43
f 4 43 42
f 4 42 30
f 4 30 21
f 4 21 12
f 4 12 6
f 4 6 5
f 6 12 13
f 6 13 14
f 6 14 15
f 6 15 16
f 6 16 7
f 8 17 18
f 8 18 10
f 9 11 19
f 10 18 11
f 11 20 19
f 11 18 20
f 12 21 22
f 12 22 23
f 12 23 24
f 12 24 13
f 13 24 14
f 14 24 15
f 15 24 25
f 15 25 16
f 17 26 18
f 18 27 28
f 18 28 29
f 18 29 20
f 18 26 27
f 21 30 22
f 22 31 23
f 22 30 31
f 23 32 24
f 23 31 32
f 24 32 25
f 25 32 33
f 25 33 34
f 25 34 35
f 25 35 36
f 26 37 27
f 27 37 38
f 27 38 39
f 27 39 40
f 27 40 41
f 27 41 28
f 30 42 31
f 31 42 43
f 31 43 32
f 32 43 53
f 32 53 44
f 32 44 55
f 32 55 66
f 32 66 67
f 32 67 57
f 32 57 56
f 32 56 45
f 32 45 35
f 32 35 33
f 33 35 34
f 35 45 46
f 35 46 47
f 35 47 48
f 35 48 36
f 39 49 40
f 40 49 50
f 40 50 51
f 40 51 52
f 40 52 41
f 44 53 54
f 44 54 55
f 45 56 46
f 46 56 57
f 49 58 50
f 50 58 59
f 50 59 60
f 50 60 51
f 53 61 54
f 54 62 63
f 54 63 55
f 54 61 64
f 54 64 65
f 54 65 62
f 55 63 66
f 59 68 69
f 59 69 60
f 60 69 70
f 62 71 66
f 62 66 63
f 62 65 72
f 62 72 73
f 62 73 71
f 64 70 65
f 65 70 72
f 66 71 74
f 66 74 67
f 68 74 73
f 68 73 75
f 68 75 72
f 68 72 69
f 69 72 70
f 71 73 74
f 72 75 73

