# https://github.com/mikedh/trimesh
v -0.00949994 -0.65261491 1.39185895
v -0.03125665 -0.65261491 1.37595955
v 0.06227145 -0.65261491 1.39185895
v -0.01088260 -0.22015155 1.39185895
v -0.03125665 -0.64279390 1.37595955
v -0.03125665 -0.65261491 1.30500380
v 0.06227145 -0.65261491 1.39154343
v 0.06228063 -0.64397920 1.39185895
v 0.06201509 -0.22015155 1.39185895
v -0.03125665 -0.22015155 1.37542993
v -0.00621265 -0.65261491 1.27674318
v -0.03125665 -0.64469884 1.30499253
v -0.00896885 -0.22015155 1.27674318
v 0.06206999 -0.65261491 1.27674318
v 0.06207917 -0.64554547 1.27674318
v 0.06228063 -0.62700407 1.39154343
v 0.06228063 -0.61036762 1.39185895
v 0.06201509 -0.22015155 1.39167865
v -0.03125665 -0.22015155 1.30509392
v -0.03125665 -0.34477686 1.30480096
v -0.03125665 -0.32703976 1.30480096
v -0.03125665 -0.27704571 1.30485729
v -0.03125665 -0.26040925 1.30490238
v -0.03125665 -0.24373045 1.30495871
v -0.03125665 -0.22705165 1.30502633
v 0.06177697 -0.22015155 1.27674318
v 0.06207917 -0.64368287 1.27674318
v 0.06228063 -0.61036762 1.39154343
v 0.06206999 -0.62700407 1.27674318
f 1 2 6
f 1 6 11
f 1 11 14
f 1 14 7
f 1 7 3
f 1 3 8
f 1 8 17
f 1 17 9
f 1 9 4
f 1 4 2
f 2 5 10
f 2 10 19
f 2 19 25
f 2 25 24
f 2 24 23
f 2 23 22
f 2 22 21
f 2 21 20
f 2 20 12
f 2 12 6
f 2 4 5
f 3 7 8
f 4 9 18
f 4 18 26
f 4 26 13
f 4 13 19
f 4 19 10
f 4 10 5
f 6 12 13
f 6 13 11
f 7 14 15
f 7 15 8
f 8 15 16
f 8 16 28
f 8 28 17
f 9 17 28
f 9 28 18
f 11 13 26
f 11 26 29
f 11 29 27
f 11 27 15
f 11 15 14
f 12 20 13
f 13 20 21
f 13 21 22
f 13 22 23
f 13 23 24
f 13 24 25
f 13 25 19
f 15 27 28
f 15 28 16
f 18 28 29
f 18 29 26
f 27 29 28

