# https://github.com/mikedh/trimesh
v 0.72888013 -0.78983949 1.13439247
v 0.72888013 -0.78697698 1.09735258
v 0.75499745 -0.78980125 1.13439247
v 0.72888013 -0.73438682 1.13439247
v 0.77165303 -0.78976847 1.13439247
v 0.72888013 -0.73527180 1.09735258
v 1.09076657 -0.78622858 1.09735258
v 1.05742001 -0.78917850 1.13439247
v 0.74078709 -0.73426117 1.13439247
v 0.74078709 -0.73527726 1.09735258
v 0.75744263 -0.73416830 1.13439247
v 0.77413365 -0.73410822 1.13439247
v 0.79078920 -0.73406450 1.13439247
v 0.85744692 -0.73404266 1.13439247
v 0.85992753 -0.73404266 1.13439247
v 1.09083745 -0.78559489 1.09735258
v 1.09083745 -0.78622858 1.09738883
v 1.09083745 -0.78904736 1.13439247
v 0.97924515 -0.73563232 1.09735258
v 0.99076231 -0.73426662 1.13439247
v 1.09083745 -0.73621139 1.09735258
v 1.09083745 -0.73470913 1.13439247
v 0.99019531 -0.73565417 1.09735258
v 0.99324292 -0.73427211 1.13439247
v 1.00741787 -0.73571428 1.09735258
v 1.00741787 -0.73432128 1.13439247
f 1 2 3
f 1 3 5
f 1 5 8
f 1 8 18
f 1 18 22
f 1 22 26
f 1 26 24
f 1 24 20
f 1 20 15
f 1 15 14
f 1 14 13
f 1 13 12
f 1 12 11
f 1 11 9
f 1 9 4
f 1 4 6
f 1 6 2
f 2 5 3
f 2 6 10
f 2 10 19
f 2 19 23
f 2 23 25
f 2 25 21
f 2 21 16
f 2 16 7
f 2 7 8
f 2 8 5
f 4 9 6
f 6 9 11
f 6 11 12
f 6 12 13
f 6 13 14
f 6 14 15
f 6 15 10
f 7 16 17
f 7 17 18
f 7 18 8
f 10 15 19
f 15 20 19
f 16 21 22
f 16 22 18
f 16 18 17
f 19 20 23
f 20 24 23
f 21 25 22
f 22 25 26
f 23 24 26
f 23 26 25

