# https://github.com/mikedh/trimesh
v -1.92792472 -0.16035978 1.27489947
v -1.92550380 -0.14766707 1.27489947
v -1.92792472 -0.16035978 1.27480798
v -1.92607744 -0.17362049 1.27489947
v -1.92597421 -0.17348212 1.40829504
v -1.92777559 -0.16035978 1.40820358
v -1.92776415 -0.16028694 1.40829504
v -1.92546935 -0.14755054 1.40829504
v -1.92550380 -0.14766707 1.27480798
v -1.92607744 -0.17362049 1.27480798
v -1.92167155 -0.18195123 1.27489947
v -1.92169456 -0.18189297 1.40829504
v -1.92596276 -0.17356223 1.40820358
v -1.92593975 -0.17360592 1.40829504
v -1.92107496 -0.13916884 1.40829504
v -1.92113230 -0.13921980 1.40820358
v -1.92546935 -0.14755054 1.40820358
v -1.92104051 -0.13933633 1.27480798
v -1.92163716 -0.18200220 1.27480798
v -1.91315815 -0.19742571 1.27483415
v -1.91311225 -0.19742571 1.40820358
v -1.91439728 -0.19362445 1.40829504
v -1.91279098 -0.13090363 1.40829504
v -1.91276803 -0.13083082 1.38962122
v -1.91275653 -0.13078713 1.37486773
v -1.91271063 -0.13059780 1.27489947
v -1.91271063 -0.13059780 1.27480798
v -1.91436289 -0.19369726 1.27480798
v -1.89706059 -0.19742571 1.27480798
v -1.89723267 -0.19742571 1.40829504
v -1.89866688 -0.12467015 1.40829504
v -1.89866688 -0.12461919 1.39154218
v -1.91273358 -0.13074344 1.35820636
v -1.89866688 -0.12451724 1.32488360
v -1.89866688 -0.12445897 1.27489947
v -1.91264179 -0.13064876 1.32488360
v -1.89866688 -0.12445897 1.27480798
v -1.83216555 -0.19742571 1.27480798
v -1.83432260 -0.19742571 1.40820358
v -1.83300312 -0.19368999 1.40829504
v -1.88199562 -0.12304624 1.40829504
v -1.88199562 -0.12329384 1.27480798
v -1.88199562 -0.12304624 1.40820358
v -1.88199562 -0.12306809 1.39154218
v -1.82470763 -0.18008699 1.27480798
v -1.81070978 -0.19742571 1.30440643
v -1.82533867 -0.17591436 1.40829504
v -1.81070978 -0.19742571 1.37643588
v -1.86535882 -0.12351229 1.40829504
v -1.86535882 -0.12368709 1.30823529
v -1.86535882 -0.12381086 1.27480798
v -1.86535882 -0.12351229 1.40820358
v -1.82314723 -0.17170529 1.27480798
v -1.82141469 -0.16030151 1.27480798
v -1.81070978 -0.17878352 1.30312579
v -1.82501746 -0.17446521 1.40829504
v -1.81070978 -0.17769847 1.37881419
v -1.82253914 -0.16180893 1.40829504
v -1.84868761 -0.12606104 1.40829504
v -1.84868761 -0.12556587 1.37486773
v -1.84868761 -0.12534012 1.35820636
v -1.84868761 -0.12520904 1.34154500
v -1.84868761 -0.12526001 1.32488360
v -1.84868761 -0.12585716 1.27480798
v -1.82195399 -0.14676408 1.27480798
v -1.81070978 -0.16035978 1.30245934
v -1.81070978 -0.16035978 1.37954599
v -1.82257353 -0.14849722 1.40829504
v -1.83465531 -0.13179935 1.40829504
v -1.81070978 -0.13566614 1.35929100
v -1.81070978 -0.13557149 1.35552747
v -1.81070978 -0.13533116 1.34336141
v -1.81070978 -0.13524378 1.33890529
v -1.81070978 -0.13522921 1.33665764
v -1.81070978 -0.13525105 1.32447850
v -1.81070978 -0.13525835 1.32217857
v -1.81070978 -0.13530204 1.31815370
v -1.83380624 -0.13147894 1.27480798
v -1.82551081 -0.13840422 1.27480798
v -1.81070978 -0.13670020 1.31478223
v -1.81070978 -0.14205984 1.30947672
v -1.81070978 -0.16025055 1.30247243
v -1.81070978 -0.15918734 1.37919316
v -1.82259648 -0.14838799 1.40829504
v -1.81070978 -0.14338519 1.37416209
v -1.83452913 -0.13187946 1.40829504
v -1.83457502 -0.13182846 1.40820358
v -1.81070978 -0.14105489 1.37045084
v -1.82624515 -0.14010094 1.40829504
f 1 2 9
f 1 9 3
f 1 3 10
f 1 10 4
f 1 4 5
f 1 5 6
f 1 6 7
f 1 7 8
f 1 8 2
f 2 8 17
f 2 17 9
f 3 9 18
f 3 18 27
f 3 27 37
f 3 37 42
f 3 42 51
f 3 51 64
f 3 64 78
f 3 78 79
f 3 79 65
f 3 65 54
f 3 54 53
f 3 53 45
f 3 45 38
f 3 38 29
f 3 29 28
f 3 28 19
f 3 19 10
f 4 10 11
f 4 11 12
f 4 12 13
f 4 13 5
f 5 13 14
f 5 14 12
f 5 12 22
f 5 22 30
f 5 30 40
f 5 40 47
f 5 47 56
f 5 56 58
f 5 58 68
f 5 68 84
f 5 84 89
f 5 89 86
f 5 86 69
f 5 69 59
f 5 59 49
f 5 49 41
f 5 41 31
f 5 31 23
f 5 23 15
f 5 15 8
f 5 8 7
f 5 7 6
f 8 15 16
f 8 16 17
f 9 17 16
f 9 16 18
f 10 19 11
f 11 19 20
f 11 20 12
f 12 21 22
f 12 14 13
f 12 20 21
f 15 23 16
f 16 23 24
f 16 24 25
f 16 25 26
f 16 26 27
f 16 27 18
f 19 28 20
f 20 28 29
f 20 29 38
f 20 38 46
f 20 46 48
f 20 48 39
f 20 39 30
f 20 30 21
f 21 30 22
f 23 31 24
f 24 31 32
f 24 32 25
f 25 33 26
f 25 32 33
f 26 34 35
f 26 35 37
f 26 37 27
f 26 33 36
f 26 36 32
f 26 32 34
f 30 39 40
f 31 41 32
f 32 41 34
f 32 36 33
f 34 41 35
f 35 41 43
f 35 43 37
f 37 43 44
f 37 44 42
f 38 45 46
f 39 47 40
f 39 48 47
f 41 49 52
f 41 52 43
f 42 50 51
f 42 44 50
f 43 52 44
f 44 52 50
f 45 53 46
f 46 53 54
f 46 54 55
f 46 55 66
f 46 66 82
f 46 82 81
f 46 81 80
f 46 80 77
f 46 77 76
f 46 76 75
f 46 75 74
f 46 74 73
f 46 73 72
f 46 72 71
f 46 71 70
f 46 70 88
f 46 88 85
f 46 85 83
f 46 83 67
f 46 67 57
f 46 57 48
f 47 48 56
f 48 57 58
f 48 58 56
f 49 59 60
f 49 60 61
f 49 61 62
f 49 62 52
f 50 62 63
f 50 63 51
f 50 52 62
f 51 63 64
f 54 65 66
f 54 66 55
f 57 67 58
f 58 67 68
f 59 69 70
f 59 70 71
f 59 71 72
f 59 72 73
f 59 73 60
f 60 73 61
f 61 73 62
f 62 73 74
f 62 74 75
f 62 75 63
f 63 75 76
f 63 76 77
f 63 77 64
f 64 77 78
f 65 79 80
f 65 80 81
f 65 81 82
f 65 82 66
f 67 83 68
f 68 83 85
f 68 85 84
f 69 86 87
f 69 87 70
f 70 87 86
f 70 86 89
f 70 89 88
f 77 80 79
f 77 79 78
f 84 85 89
f 85 88 89

