# https://github.com/mikedh/trimesh
v 1.59071979 -0.24573497 0.51103914
v 1.45746208 -0.24573497 0.51101610
v 1.59071979 -0.24573497 0.56911673
v 1.59071979 -0.71133960 0.51120040
v 1.39203899 -0.71133960 0.51106793
v 1.39203899 -0.24573497 0.51113129
v 1.47412902 -0.24573497 0.56971570
v 1.59071979 -0.26104851 0.56914552
v 1.59071979 -0.71133960 0.56908794
v 1.39203899 -0.71133960 0.56932982
v 1.39203899 -0.24573497 0.56985393
v 1.59071979 -0.27772933 0.56914552
v 1.45746208 -0.24573497 0.56976753
v 1.45746208 -0.71133960 0.56939893
v 1.45746208 -0.26104850 0.56975603
v 1.40748071 -0.24573497 0.56984818
v 1.43941434 -0.24573497 0.56980785
v 1.42414765 -0.24573497 0.56983089
f 1 2 6
f 1 6 11
f 1 11 16
f 1 16 18
f 1 18 17
f 1 17 13
f 1 13 7
f 1 7 3
f 1 3 8
f 1 8 12
f 1 12 9
f 1 9 4
f 1 4 5
f 1 5 2
f 2 5 6
f 3 7 8
f 4 9 14
f 4 14 10
f 4 10 5
f 5 10 11
f 5 11 6
f 7 12 8
f 7 13 9
f 7 9 12
f 9 13 15
f 9 15 14
f 10 14 11
f 11 14 16
f 13 17 15
f 14 15 17
f 14 17 18
f 14 18 16

