# https://github.com/mikedh/trimesh
v -0.27914228 1.57272244 0.95831900
v -0.35098706 1.57272244 0.95246232
v -0.35098706 1.56304045 0.95162697
v -0.27914228 1.57180034 0.95822720
v -0.27914228 1.62544576 0.95191154
v -0.28779318 1.65611053 0.95180138
v -0.31091154 1.65614127 0.95188400
v -0.35099408 1.65614127 0.95202169
v -0.35099408 1.62545601 0.95212267
v -0.35098706 1.55790745 0.94245641
v -0.27914228 1.55810211 0.95511527
v -0.27914228 1.62544576 0.87428766
v -0.28779318 1.65614127 0.91435723
v -0.29423565 1.65614127 0.95181974
v -0.35099408 1.65614127 0.90263470
v -0.35099408 1.62545601 0.87518728
v -0.35098706 1.55422932 0.92576764
v -0.35098706 1.55642185 0.93571848
v -0.27914228 1.55306133 0.94245641
v -0.27914228 1.55728248 0.95362815
v -0.27914228 1.62274095 0.87291988
v -0.35098706 1.62274095 0.87363590
v -0.28779318 1.63556831 0.87995156
v -0.28779318 1.65611053 0.90129446
v -0.29423565 1.65614127 0.90178099
v -0.35099408 1.63373437 0.88000664
v -0.35098706 1.61279257 0.87202026
v -0.35098706 1.60606129 0.87096460
v -0.35098706 1.58940211 0.87031284
v -0.35098706 1.57946398 0.87068920
v -0.35098706 1.57272244 0.87096460
v -0.35098706 1.55962869 0.87799628
v -0.35098706 1.55472111 0.89244519
v -0.35098706 1.55444448 0.90911560
v -0.35098706 1.55431128 0.91904808
v -0.35099408 1.62720798 0.87619705
v -0.27914228 1.55147328 0.92694265
v -0.27914228 1.55284618 0.94144664
v -0.27914228 1.57272244 0.86453878
v -0.27914228 1.56648293 0.86593410
v -0.27914228 1.55614522 0.87491188
v -0.27914228 1.55199580 0.89244519
v -0.27914228 1.55151427 0.92406939
f 1 2 3
f 1 3 4
f 1 4 11
f 1 11 20
f 1 20 19
f 1 19 38
f 1 38 37
f 1 37 43
f 1 43 42
f 1 42 41
f 1 41 40
f 1 40 39
f 1 39 21
f 1 21 12
f 1 12 5
f 1 5 6
f 1 6 7
f 1 7 8
f 1 8 2
f 2 8 9
f 2 9 3
f 3 10 11
f 3 11 4
f 3 9 10
f 5 12 13
f 5 13 6
f 6 13 14
f 6 14 7
f 7 14 13
f 7 13 25
f 7 25 15
f 7 15 8
f 8 15 26
f 8 26 36
f 8 36 16
f 8 16 9
f 9 16 17
f 9 17 18
f 9 18 10
f 10 18 19
f 10 19 20
f 10 20 11
f 12 21 22
f 12 22 23
f 12 23 24
f 12 24 13
f 13 24 25
f 15 25 24
f 15 24 23
f 15 23 26
f 16 22 27
f 16 27 28
f 16 28 29
f 16 29 30
f 16 30 31
f 16 31 32
f 16 32 33
f 16 33 34
f 16 34 35
f 16 35 17
f 16 36 23
f 16 23 22
f 17 37 38
f 17 38 19
f 17 19 18
f 17 35 37
f 21 39 22
f 22 39 27
f 23 36 26
f 27 39 28
f 28 39 29
f 29 39 30
f 30 39 31
f 31 39 40
f 31 40 32
f 32 40 41
f 32 41 33
f 33 41 42
f 33 42 34
f 34 42 43
f 34 43 37
f 34 37 35

