# https://github.com/mikedh/trimesh
v 2.07109313 -0.61469189 0.79871456
v 2.07109313 -0.61527769 0.79870359
v 2.05197301 -0.61469189 0.83271338
v 2.07109313 -0.61469189 0.90883782
v 2.07109313 -0.64442571 0.79824296
v 2.05197301 -0.61469189 0.89572086
v 2.07109313 -0.65080582 0.79815522
v 2.05197301 -0.67767423 0.83257080
v 2.05197301 -0.62611821 0.89644470
v 2.07109313 -0.62364098 0.90907910
v 2.07109313 -0.68114658 0.80007451
v 2.05197301 -0.68678563 0.83259274
v 2.05197301 -0.64434808 0.89692727
v 2.07109313 -0.67767423 0.91004423
v 2.07109313 -0.68678563 0.80148930
v 2.05197301 -0.68678563 0.89734403
v 2.05197301 -0.67767423 0.89732209
v 2.07109313 -0.68678563 0.91019777
v 2.07109313 -0.68418136 0.91015390
f 1 2 3
f 1 3 6
f 1 6 4
f 1 4 10
f 1 10 14
f 1 14 19
f 1 19 18
f 1 18 15
f 1 15 11
f 1 11 7
f 1 7 5
f 1 5 2
f 2 5 3
f 3 5 7
f 3 7 8
f 3 8 12
f 3 12 16
f 3 16 17
f 3 17 13
f 3 13 9
f 3 9 6
f 4 6 9
f 4 9 10
f 7 11 12
f 7 12 8
f 9 13 10
f 10 13 14
f 11 15 12
f 12 15 18
f 12 18 16
f 13 17 18
f 13 18 19
f 13 19 14
f 16 18 17

