# https://github.com/mikedh/trimesh
v -0.28170417 2.01805061 0.19196581
v -0.27010917 2.02736916 0.20876766
v -0.27012963 2.02750352 0.20876766
v -0.27090879 2.03975870 0.20876766
v -0.28170417 2.02307938 0.19157354
v -0.28170417 2.00345380 0.18871005
v -0.26672603 2.01908707 0.20876766
v -0.27000666 2.05427875 0.20876766
v -0.28170417 2.03639980 0.18872311
v -0.28170417 1.99490300 0.18532349
v -0.24015283 1.99330032 0.20876766
v -0.26848932 2.06265681 0.20876766
v -0.26854061 2.06262800 0.20866305
v -0.28170417 2.03961474 0.17530774
v -0.28170417 1.97280145 0.16463821
v -0.24001953 1.99320436 0.20876766
v -0.26020574 2.06767595 0.20876766
v -0.26863288 2.06304066 0.19199193
v -0.28170417 2.04085274 0.15863662
v -0.23926090 1.97280145 0.18630417
v -0.28170417 1.97280145 0.11771062
v -0.22753261 1.98766698 0.20876766
v -0.24419210 2.07065098 0.20876766
v -0.26020574 2.06767595 0.20866305
v -0.26029800 2.06763758 0.19199193
v -0.26849958 2.06303105 0.17530774
v -0.28170417 2.04082395 0.12529432
v -0.28170417 2.04085274 0.12831473
v -0.28170417 2.04095832 0.14197856
v -0.22764539 1.97280145 0.18916767
v -0.28170417 1.99486462 0.09856820
v -0.25528479 1.97280145 0.09824137
v -0.21085260 1.98707198 0.20876766
v -0.22753261 1.97280145 0.18918073
v -0.21095511 2.07077572 0.20876766
v -0.21085260 2.07084292 0.09193901
v -0.22753261 2.07076612 0.07526789
v -0.24419210 2.07065098 0.20866305
v -0.24419210 2.07063178 0.07520252
v -0.25892422 2.06760878 0.07520252
v -0.26786398 2.06186025 0.12529432
v -0.28170417 2.04015216 0.11195744
v -0.28170417 2.00632326 0.09494636
v -0.26533173 2.02421180 0.07520252
v -0.26061583 2.01812738 0.07520252
v -0.25613569 2.01236929 0.07520252
v -0.23941465 1.99401050 0.07520252
v -0.22753261 1.98891457 0.07520252
v -0.24419210 1.97280145 0.09460635
v -0.21073982 1.98707198 0.20876766
v -0.19410078 1.98841553 0.20876766
v -0.21608111 1.97280145 0.18646103
v -0.21085260 2.07077572 0.20876766
v -0.19417259 2.07047823 0.09193901
v -0.21085260 2.07083330 0.07520252
v -0.22753261 2.07076612 0.07520252
v -0.26756667 2.05494092 0.07520252
v -0.26750518 2.05860692 0.09193901
v -0.26774093 2.06100614 0.10862319
v -0.28170417 2.03987386 0.10862319
v -0.28170417 2.02378954 0.09218741
v -0.26917620 2.03966273 0.07520252
v -0.21085260 1.98791650 0.07520252
v -0.22753261 1.97280145 0.09307655
v -0.18219822 1.99373219 0.20876766
v -0.21089357 1.97280145 0.17530774
v -0.19417259 2.07030549 0.20876766
v -0.19417259 2.07046864 0.10862319
v -0.18264929 2.06737843 0.09193901
v -0.18261857 2.06737843 0.07526789
v -0.18261857 2.06737843 0.07520252
v -0.19417259 2.07045902 0.07520252
v -0.26906343 2.04249380 0.07520252
v -0.28170417 2.03653416 0.09506404
v -0.19417259 1.98869384 0.07520252
v -0.22740957 1.97280145 0.09310273
v -0.17821018 2.00632326 0.20876766
v -0.20848436 1.97280145 0.15863662
v -0.18193168 1.99360743 0.12529432
v -0.17766685 2.00632326 0.10862319
v -0.17774885 2.00632326 0.12529432
v -0.18300815 2.06725369 0.20876766
v -0.18293640 2.06723450 0.20866305
v -0.18269032 2.06736883 0.10862319
v -0.17815895 2.05634207 0.07526789
v -0.17817947 2.05638045 0.07520252
v -0.18183942 1.99370339 0.07520252
v -0.18184968 1.99366501 0.07526789
v -0.21526092 1.97280145 0.09669845
v -0.17778989 2.02288743 0.20876766
v -0.20847410 1.97280145 0.14212236
v -0.18190091 1.99360743 0.10862319
v -0.17755407 2.00632326 0.07526789
v -0.17754380 2.00638084 0.07520252
v -0.17713372 2.02299301 0.07526789
v -0.17728753 2.02299301 0.10862319
v -0.17736954 2.02299301 0.12529432
v -0.17882532 2.05634207 0.20876766
v -0.17823070 2.05634207 0.09193901
v -0.17699022 2.03972030 0.07520252
v -0.18187019 1.99363622 0.09193901
v -0.20847410 1.97280145 0.14197856
v -0.20883296 1.97280145 0.12529432
v -0.21008370 1.97280145 0.10878011
v -0.21010416 1.97280145 0.10862319
v -0.21520970 1.97280145 0.09680306
v -0.17766685 2.03955717 0.20876766
v -0.17715423 2.03966273 0.10862319
v -0.17713372 2.02305059 0.07520252
v -0.17699022 2.03966273 0.07526789
v -0.17881507 2.05623652 0.20876766
v -0.17766685 2.03966273 0.20876766
f 1 2 3
f 1 3 4
f 1 4 5
f 1 5 9
f 1 9 14
f 1 14 19
f 1 19 29
f 1 29 28
f 1 28 27
f 1 27 42
f 1 42 60
f 1 60 74
f 1 74 61
f 1 61 43
f 1 43 31
f 1 31 21
f 1 21 15
f 1 15 10
f 1 10 6
f 1 6 2
f 2 7 11
f 2 11 16
f 2 16 22
f 2 22 33
f 2 33 50
f 2 50 51
f 2 51 65
f 2 65 77
f 2 77 90
f 2 90 107
f 2 107 112
f 2 112 111
f 2 111 98
f 2 98 82
f 2 82 67
f 2 67 53
f 2 53 35
f 2 35 23
f 2 23 17
f 2 17 12
f 2 12 8
f 2 8 4
f 2 4 3
f 2 6 7
f 4 8 5
f 5 8 9
f 6 10 7
f 7 10 11
f 8 12 13
f 8 13 9
f 9 13 14
f 10 15 16
f 10 16 11
f 12 17 18
f 12 18 13
f 13 18 19
f 13 19 14
f 15 20 16
f 15 21 32
f 15 32 49
f 15 49 64
f 15 64 76
f 15 76 89
f 15 89 106
f 15 106 105
f 15 105 104
f 15 104 103
f 15 103 102
f 15 102 91
f 15 91 78
f 15 78 66
f 15 66 52
f 15 52 34
f 15 34 30
f 15 30 20
f 16 20 22
f 17 23 38
f 17 38 24
f 17 24 25
f 17 25 18
f 18 25 26
f 18 26 27
f 18 27 28
f 18 28 29
f 18 29 19
f 20 30 22
f 21 31 32
f 22 30 34
f 22 34 33
f 23 35 36
f 23 36 37
f 23 37 56
f 23 56 38
f 24 38 39
f 24 39 25
f 25 39 40
f 25 40 26
f 26 40 41
f 26 41 27
f 27 41 42
f 31 43 44
f 31 44 45
f 31 45 46
f 31 46 47
f 31 47 32
f 32 47 48
f 32 48 49
f 33 34 50
f 34 51 50
f 34 52 51
f 35 53 36
f 36 54 55
f 36 55 56
f 36 56 37
f 36 53 54
f 38 56 39
f 39 56 55
f 39 55 72
f 39 72 71
f 39 71 86
f 39 86 100
f 39 100 109
f 39 109 94
f 39 94 87
f 39 87 75
f 39 75 63
f 39 63 48
f 39 48 47
f 39 47 46
f 39 46 45
f 39 45 44
f 39 44 62
f 39 62 73
f 39 73 57
f 39 57 40
f 40 57 58
f 40 58 59
f 40 59 41
f 41 59 42
f 42 59 60
f 43 61 62
f 43 62 44
f 48 63 64
f 48 64 49
f 51 52 65
f 52 66 65
f 53 67 68
f 53 68 54
f 54 69 70
f 54 70 71
f 54 71 72
f 54 72 55
f 54 68 69
f 57 73 61
f 57 61 74
f 57 74 60
f 57 60 58
f 58 60 59
f 61 73 62
f 63 75 64
f 64 75 76
f 65 66 78
f 65 78 79
f 65 79 80
f 65 80 81
f 65 81 77
f 67 82 83
f 67 83 84
f 67 84 68
f 68 84 69
f 69 85 70
f 69 84 85
f 70 85 71
f 71 85 86
f 75 87 88
f 75 88 89
f 75 89 76
f 77 81 90
f 78 91 92
f 78 92 79
f 79 92 93
f 79 93 80
f 80 93 94
f 80 94 95
f 80 95 96
f 80 96 97
f 80 97 81
f 81 97 90
f 82 98 83
f 83 98 99
f 83 99 85
f 83 85 84
f 85 99 100
f 85 100 86
f 87 94 93
f 87 93 88
f 88 93 101
f 88 101 102
f 88 102 103
f 88 103 104
f 88 104 105
f 88 105 106
f 88 106 89
f 90 97 108
f 90 108 107
f 91 102 92
f 92 102 101
f 92 101 93
f 94 109 95
f 95 109 100
f 95 100 110
f 95 110 96
f 96 108 97
f 96 110 108
f 98 111 99
f 99 108 100
f 99 111 108
f 100 108 110
f 107 108 112
f 108 111 112

