# https://github.com/mikedh/trimesh
v 2.11883327 -0.13573601 0.37019787
v 2.10814023 -0.13573601 0.37019787
v 2.11852511 -0.13575711 0.38253393
v 2.12728443 -0.13688582 0.35353377
v 2.11894884 -0.13575711 0.35353377
v 2.11854049 -0.13574656 0.28687718
v 2.09972756 -0.13603138 0.38253393
v 2.10805547 -0.13575711 0.38253393
v 2.11020489 -0.13574656 0.28687718
v 2.12716887 -0.13699129 0.37019787
v 2.12686071 -0.13708625 0.38253393
v 2.13596676 -0.14541958 0.38253393
v 2.13598214 -0.14532463 0.37019787
v 2.13599752 -0.14521913 0.35353377
v 2.13607465 -0.14550395 0.23686717
v 2.13605915 -0.14556725 0.20352139
v 2.12686846 -0.13708625 0.28687718
v 2.12668356 -0.13710735 0.27021302
v 2.11835560 -0.13576766 0.27021302
v 2.09079103 -0.13763476 0.32018792
v 2.09079103 -0.13765586 0.33685208
v 2.09079103 -0.13775078 0.38253393
v 2.09981232 -0.13604193 0.37019787
v 2.09079103 -0.13758201 0.25354886
v 2.09079103 -0.13758201 0.27021302
v 2.11042060 -0.13576766 0.27021302
v 2.10226984 -0.13614741 0.25354886
v 2.13941039 -0.16101028 0.38253393
v 2.13948740 -0.16101028 0.35353377
v 2.13951053 -0.16101028 0.33685208
v 2.13958754 -0.16101028 0.27021302
v 2.13960303 -0.16101028 0.25354886
v 2.13961841 -0.16101028 0.23686717
v 2.13962616 -0.16099973 0.20352139
v 2.13606690 -0.14547230 0.25354886
v 2.12531998 -0.13723392 0.20352139
v 2.12532767 -0.13723392 0.20353891
v 2.12576678 -0.13721282 0.22020307
v 2.12615200 -0.13717062 0.23686717
v 2.12642160 -0.13713897 0.25354886
v 2.11781635 -0.13582041 0.23686717
v 2.07411977 -0.14294066 0.20353891
v 2.07411977 -0.14386892 0.38253393
v 2.07411977 -0.14318328 0.32018792
v 2.07411977 -0.14335205 0.33685208
v 2.09079103 -0.13770858 0.20352139
v 2.09079103 -0.13765586 0.22020307
v 2.09079103 -0.13761366 0.23686717
v 2.07411977 -0.14294066 0.20352139
v 2.11106774 -0.13582041 0.23686717
v 2.11059781 -0.13579931 0.25354886
v 2.10273977 -0.13615796 0.23686717
v 2.13924087 -0.17767692 0.38253393
v 2.13928713 -0.17767692 0.37019787
v 2.13933338 -0.17767692 0.35353377
v 2.13951053 -0.17767692 0.20353891
v 2.13962616 -0.16101028 0.20353891
v 2.13951053 -0.17766637 0.20352139
v 2.11699201 -0.13590481 0.20352139
v 2.11743118 -0.13586261 0.22020307
v 2.06337284 -0.14980774 0.20353891
v 2.06395060 -0.15048285 0.38253393
v 2.06354231 -0.14998706 0.32018792
v 2.10476593 -0.13624236 0.20352139
v 2.10354873 -0.13617906 0.22020307
v 2.06337284 -0.14980774 0.20352139
v 2.11310157 -0.13590481 0.20352139
v 2.11187664 -0.13586261 0.22020307
v 2.13700675 -0.19433303 0.38253393
v 2.13743054 -0.19433303 0.35353377
v 2.13752293 -0.19433303 0.33685208
v 2.13775408 -0.19433303 0.28687718
v 2.13797748 -0.19433303 0.23686717
v 2.13805449 -0.19433303 0.20353891
v 2.13805449 -0.19432248 0.20352139
v 2.06093071 -0.16101028 0.20352139
v 2.06174729 -0.16101028 0.38253393
v 2.06135438 -0.16101028 0.32018792
v 2.13364789 -0.20397437 0.38253393
v 2.13404080 -0.20440686 0.35353377
v 2.13417170 -0.20452291 0.33685208
v 2.13426420 -0.20460728 0.32018792
v 2.13450298 -0.20489211 0.27021302
v 2.13457236 -0.20496593 0.25354886
v 2.13457236 -0.20499758 0.20352139
v 2.06335741 -0.17652713 0.20352139
v 2.06307237 -0.17767692 0.23686717
v 2.06287205 -0.17767692 0.25354886
v 2.06267178 -0.17767692 0.28687718
v 2.06257933 -0.17767692 0.30352382
v 2.06277190 -0.17767692 0.38253393
v 2.11554366 -0.24348912 0.38253393
v 2.11627556 -0.24348912 0.20353891
v 2.11627556 -0.24347857 0.20352139
v 2.07673137 -0.24348912 0.20352139
v 2.07679300 -0.24348912 0.38253393
v 2.07673137 -0.24348912 0.20353891
v 2.07726298 -0.24348912 0.20352139
f 1 2 8
f 1 8 3
f 1 3 4
f 1 4 5
f 1 5 6
f 1 6 9
f 1 9 2
f 2 7 8
f 2 9 7
f 3 10 4
f 3 8 7
f 3 7 22
f 3 22 43
f 3 43 62
f 3 62 77
f 3 77 91
f 3 91 96
f 3 96 92
f 3 92 79
f 3 79 69
f 3 69 53
f 3 53 28
f 3 28 12
f 3 12 11
f 3 11 10
f 4 10 12
f 4 12 13
f 4 13 14
f 4 14 15
f 4 15 16
f 4 16 17
f 4 17 18
f 4 18 19
f 4 19 6
f 4 6 5
f 6 19 26
f 6 26 9
f 7 20 21
f 7 21 22
f 7 9 23
f 7 23 24
f 7 24 25
f 7 25 20
f 9 26 27
f 9 27 23
f 10 11 12
f 12 28 13
f 13 28 29
f 13 29 14
f 14 29 30
f 14 30 31
f 14 31 32
f 14 32 33
f 14 33 34
f 14 34 35
f 14 35 15
f 15 35 34
f 15 34 16
f 16 34 58
f 16 58 75
f 16 75 85
f 16 85 94
f 16 94 98
f 16 98 95
f 16 95 86
f 16 86 76
f 16 76 66
f 16 66 49
f 16 49 46
f 16 46 64
f 16 64 67
f 16 67 59
f 16 59 36
f 16 36 37
f 16 37 38
f 16 38 39
f 16 39 40
f 16 40 18
f 16 18 17
f 18 40 41
f 18 41 19
f 19 41 50
f 19 50 26
f 20 25 42
f 20 42 21
f 21 42 22
f 22 42 44
f 22 44 45
f 22 45 43
f 23 27 46
f 23 46 47
f 23 47 48
f 23 48 24
f 24 48 49
f 24 49 42
f 24 42 25
f 26 50 51
f 26 51 52
f 26 52 27
f 27 52 46
f 28 53 54
f 28 54 55
f 28 55 29
f 29 55 30
f 30 55 56
f 30 56 31
f 31 56 32
f 32 56 33
f 33 56 57
f 33 57 34
f 34 57 56
f 34 56 58
f 36 59 37
f 37 59 60
f 37 60 41
f 37 41 39
f 37 39 38
f 39 41 40
f 41 60 59
f 41 59 67
f 41 67 50
f 42 49 66
f 42 66 61
f 42 61 44
f 43 45 63
f 43 63 62
f 44 63 45
f 44 61 63
f 46 49 47
f 46 52 65
f 46 65 64
f 47 49 48
f 50 52 51
f 50 67 68
f 50 68 65
f 50 65 52
f 53 69 70
f 53 70 71
f 53 71 72
f 53 72 73
f 53 73 54
f 54 73 55
f 55 73 74
f 55 74 56
f 56 74 75
f 56 75 58
f 61 66 76
f 61 76 63
f 62 63 77
f 63 78 77
f 63 76 78
f 64 65 67
f 65 68 67
f 69 79 80
f 69 80 70
f 70 80 81
f 70 81 82
f 70 82 83
f 70 83 84
f 70 84 71
f 71 84 72
f 72 84 73
f 73 84 74
f 74 84 85
f 74 85 75
f 76 86 87
f 76 87 88
f 76 88 89
f 76 89 90
f 76 90 91
f 76 91 78
f 77 78 91
f 79 92 80
f 80 92 81
f 81 92 82
f 82 92 83
f 83 92 84
f 84 93 85
f 84 92 93
f 85 93 94
f 86 95 87
f 87 95 88
f 88 95 89
f 89 95 90
f 90 96 91
f 90 95 97
f 90 97 96
f 92 96 97
f 92 97 95
f 92 95 98
f 92 98 93
f 93 98 94

