# https://github.com/mikedh/trimesh
v -2.95650415 -0.72387511 1.22533549
v -2.95650415 -0.72387511 1.15435732
v -2.91081124 -0.72387511 1.22533549
v -2.95650415 -0.72233286 1.22533549
v -2.95650415 -0.64181430 1.16215269
v -2.53059287 -0.64181430 1.16481368
v -2.53059287 -0.72387511 1.15947086
v -2.91081124 -0.72249353 1.22533549
v -2.60342639 -0.72387511 1.22532854
v -2.95650415 -0.64181430 1.22214648
v -2.93290726 -0.72236499 1.22533549
v -2.53059287 -0.64181430 1.22143086
v -2.53059287 -0.72387511 1.22514789
v -2.91623101 -0.72244530 1.22533549
v -2.63277655 -0.72353775 1.22532854
v -2.66629582 -0.64181430 1.22177824
v -2.69964831 -0.64181430 1.22184772
v -2.71632454 -0.64181430 1.22187551
v -2.88287854 -0.64181430 1.22209784
v -2.64932773 -0.72340119 1.22532854
f 1 2 7
f 1 7 13
f 1 13 9
f 1 9 3
f 1 3 8
f 1 8 14
f 1 14 11
f 1 11 4
f 1 4 10
f 1 10 5
f 1 5 2
f 2 5 6
f 2 6 7
f 3 9 8
f 4 11 10
f 5 10 19
f 5 19 18
f 5 18 17
f 5 17 16
f 5 16 12
f 5 12 6
f 6 12 13
f 6 13 7
f 8 9 15
f 8 15 14
f 9 13 16
f 9 16 17
f 9 17 18
f 9 18 19
f 9 19 10
f 9 10 15
f 10 11 20
f 10 20 15
f 11 14 20
f 12 16 13
f 14 15 20

