# https://github.com/mikedh/trimesh
v -1.99561218 1.57270265 1.78159388
v -1.99553686 1.58938903 1.78159388
v -1.99549922 1.55604170 1.78159388
v -1.99542390 1.55605017 1.85969163
v -1.99548980 1.57271112 1.84301699
v -1.99416254 1.59369409 1.78159388
v -1.99535799 1.58938054 1.84301699
v -1.99084905 1.60301609 1.92607893
v -1.99472734 1.54466887 1.78159388
v -1.99427550 1.53937227 1.87635208
v -1.99422844 1.53937227 1.89302672
v -1.99536741 1.55605017 1.87635208
v -1.99543332 1.57271112 1.85969163
v -1.99115966 1.60299066 1.78159388
v -1.99527330 1.58938054 1.85969163
v -1.99092431 1.60277032 1.92607893
v -1.97859287 1.60959232 1.92607893
v -1.99435077 1.53937227 1.78159388
v -1.99002069 1.52830450 1.90971544
v -1.99000184 1.52829604 1.92607893
v -1.99410606 1.53937227 1.92607893
v -1.99510386 1.55605017 1.92607893
v -1.99505680 1.57271112 1.92607893
v -1.99491557 1.58938054 1.92607893
v -1.98256528 1.60731267 1.78159388
v -1.96191245 1.61107537 1.92607893
v -1.96728744 1.61109232 1.78159388
v -1.97859287 1.60927029 1.78159388
v -1.99008653 1.52821976 1.78159388
v -1.97879995 1.52553333 1.92607893
v -1.97859287 1.52510962 1.78159388
v -1.96161120 1.61104994 1.92607893
v -1.94537319 1.61167705 1.78159388
v -1.96226075 1.61135502 1.78159388
v -1.97859287 1.52544012 1.90971544
v -1.97859287 1.52548248 1.92607893
v -1.96192187 1.52510115 1.78159388
v -1.94525087 1.60957537 1.92607893
v -1.94526023 1.61165164 1.78159388
v -1.96191245 1.52544012 1.85969163
v -1.96191245 1.52572827 1.90971544
v -1.96191245 1.52584689 1.92607893
v -1.94526023 1.52576215 1.78159388
v -1.94502495 1.60946521 1.92607893
v -1.93208158 1.60689742 1.78159388
v -1.94525087 1.52610115 1.84301699
v -1.94525087 1.52619437 1.85969163
v -1.94525087 1.52632996 1.87635208
v -1.94525087 1.52666046 1.90971544
v -1.94525087 1.52685538 1.92607893
v -1.93996998 1.52604180 1.78159388
v -1.93244868 1.60279573 1.92607893
v -1.92951176 1.60560082 1.78159388
v -1.92857980 1.52718588 1.85969163
v -1.92857980 1.52671978 1.79299312
v -1.93076369 1.52668588 1.80747559
v -1.92857980 1.52682147 1.80966776
v -1.92857980 1.52693166 1.82634241
v -1.92857980 1.52732994 1.87635208
v -1.92857980 1.52754181 1.89302672
v -1.92857980 1.52783841 1.90971544
v -1.92857980 1.52823672 1.92607893
v -1.92857980 1.52668588 1.78159388
v -1.91738739 1.58373650 1.92607893
v -1.89944555 1.57110944 1.78159388
v -1.91275600 1.58787207 1.78159388
v -1.91636132 1.52947401 1.87635208
v -1.91659667 1.52957571 1.89302672
v -1.91571177 1.52912655 1.79299312
v -1.91577767 1.52916045 1.80747559
v -1.91747208 1.52884689 1.80747559
v -1.91596596 1.52923674 1.82634241
v -1.91691670 1.52976215 1.90971544
v -1.91743445 1.53005027 1.92607893
v -1.92449443 1.52745707 1.78159388
v -1.90812468 1.57158400 1.92607893
v -1.90225072 1.55503321 1.92607893
v -1.90252370 1.54581294 1.92607893
v -1.90194011 1.55412645 1.78159388
v -1.91579652 1.52916892 1.80966776
v -1.90907542 1.53744854 1.92607893
v -1.91573062 1.52913502 1.78159388
v -1.90920717 1.53654178 1.78159388
v -1.90258960 1.54563497 1.92607893
v -1.90707034 1.53932143 1.78159388
f 1 2 6
f 1 6 14
f 1 14 25
f 1 25 28
f 1 28 27
f 1 27 34
f 1 34 33
f 1 33 39
f 1 39 45
f 1 45 53
f 1 53 66
f 1 66 65
f 1 65 79
f 1 79 85
f 1 85 83
f 1 83 82
f 1 82 75
f 1 75 63
f 1 63 51
f 1 51 43
f 1 43 37
f 1 37 31
f 1 31 29
f 1 29 18
f 1 18 9
f 1 9 3
f 1 3 4
f 1 4 5
f 1 5 2
f 2 5 7
f 2 7 8
f 2 8 6
f 3 9 4
f 4 10 11
f 4 11 12
f 4 12 13
f 4 13 5
f 4 9 10
f 5 13 7
f 6 8 14
f 7 13 15
f 7 15 16
f 7 16 8
f 8 16 24
f 8 24 23
f 8 23 22
f 8 22 21
f 8 21 20
f 8 20 30
f 8 30 36
f 8 36 42
f 8 42 50
f 8 50 62
f 8 62 74
f 8 74 81
f 8 81 84
f 8 84 78
f 8 78 77
f 8 77 76
f 8 76 64
f 8 64 52
f 8 52 44
f 8 44 38
f 8 38 32
f 8 32 26
f 8 26 17
f 8 17 14
f 9 18 10
f 10 19 20
f 10 20 11
f 10 18 19
f 11 20 21
f 11 21 12
f 12 21 22
f 12 22 13
f 13 22 23
f 13 23 24
f 13 24 15
f 14 17 25
f 15 24 16
f 17 26 27
f 17 27 28
f 17 28 25
f 18 29 19
f 19 29 20
f 20 29 31
f 20 31 30
f 26 32 33
f 26 33 34
f 26 34 27
f 30 31 35
f 30 35 36
f 31 37 35
f 32 38 33
f 33 38 39
f 35 37 36
f 36 37 40
f 36 40 41
f 36 41 42
f 37 43 40
f 38 44 45
f 38 45 39
f 40 46 47
f 40 47 41
f 40 43 46
f 41 47 42
f 42 47 48
f 42 48 49
f 42 49 50
f 43 51 46
f 44 52 53
f 44 53 45
f 46 51 47
f 47 54 48
f 47 51 55
f 47 55 56
f 47 56 57
f 47 57 58
f 47 58 54
f 48 54 59
f 48 59 49
f 49 59 50
f 50 59 60
f 50 60 61
f 50 61 62
f 51 63 55
f 52 64 65
f 52 65 66
f 52 66 53
f 54 67 68
f 54 68 59
f 54 58 67
f 55 63 69
f 55 69 70
f 55 70 71
f 55 71 72
f 55 72 57
f 55 57 56
f 57 72 67
f 57 67 58
f 59 68 60
f 60 68 73
f 60 73 61
f 61 73 74
f 61 74 62
f 63 75 69
f 64 76 65
f 65 77 78
f 65 78 79
f 65 76 77
f 67 72 80
f 67 80 81
f 67 81 68
f 68 81 73
f 69 75 82
f 69 82 83
f 69 83 81
f 69 81 70
f 70 81 80
f 70 80 71
f 71 80 72
f 73 81 74
f 78 84 85
f 78 85 79
f 81 83 84
f 83 85 84

