# https://github.com/mikedh/trimesh
v -0.20861963 1.70614187 1.17594244
v -0.20868666 1.72282246 1.19260083
v -0.20868666 1.67278066 1.19260083
v -0.20866990 1.67278066 1.17594244
v -0.20932339 1.70614187 1.15926732
v -0.20930664 1.72282246 1.15926732
v -0.20928153 1.85621176 1.15926732
v -0.20928153 1.90622580 1.15926732
v -0.20867825 1.87286460 1.17594244
v -0.20869501 1.88954520 1.19260083
v -0.20896316 1.88954520 1.20927594
v -0.20903855 1.67278066 1.20928431
v -0.20872018 1.65612783 1.19260083
v -0.20872853 1.65612783 1.17594244
v -0.20939878 1.65612783 1.15926732
v -0.21457648 1.73950307 1.14670869
v -0.21456813 1.75618366 1.14667521
v -0.21456813 1.77283651 1.14665848
v -0.21455137 1.87286460 1.14667521
v -0.21453462 1.92290640 1.14674215
v -0.20929829 1.92290640 1.15926732
v -0.20869501 1.90622580 1.17594244
v -0.20870342 1.90622580 1.19260083
v -0.20898827 1.90622580 1.20927594
v -0.21424136 1.93967027 1.22238679
v -0.21420784 1.88954520 1.22238679
v -0.21424976 1.68946127 1.22231986
v -0.21428329 1.67278066 1.22226129
v -0.20913069 1.65612783 1.20928431
v -0.21462676 1.65612783 1.14695132
v -0.21458489 1.72282246 1.14675051
v -0.22753749 1.73950307 1.14245833
v -0.22753749 1.75618366 1.14241650
v -0.22753749 1.77283651 1.14238302
v -0.22753749 1.78951711 1.14234956
v -0.22752909 1.79753823 1.14234118
v -0.22752909 1.87286460 1.14225752
v -0.21456813 1.93967027 1.14675888
v -0.20937367 1.93967027 1.15926732
v -0.20878722 1.93967027 1.17594244
v -0.20872018 1.92290640 1.17594244
v -0.20873694 1.92290640 1.19260083
v -0.20902179 1.92290640 1.20927594
v -0.20907206 1.93967027 1.20927594
v -0.22752909 1.93967027 1.22737344
v -0.21423301 1.90622580 1.22239516
v -0.22752909 1.93958701 1.22737344
v -0.21427488 1.70614187 1.22234496
v -0.22753749 1.72282246 1.22722283
v -0.22753749 1.70614187 1.22720610
v -0.22753749 1.68946127 1.22715589
v -0.22753749 1.67278066 1.22706387
v -0.21436702 1.65612783 1.22217763
v -0.22753749 1.65612783 1.14307747
v -0.22753749 1.67278066 1.14293524
v -0.22753749 1.72282246 1.14254200
v -0.24420999 1.73950307 1.14301890
v -0.24420999 1.82285055 1.14265077
v -0.24420999 1.83953116 1.14262566
v -0.24420999 1.88954520 1.14273443
v -0.22752909 1.93967027 1.14254200
v -0.20881233 1.93967027 1.19260083
v -0.24420999 1.93967027 1.22763280
v -0.24420999 1.93958701 1.22763280
v -0.22752909 1.92290640 1.22736507
v -0.24420999 1.72282246 1.22743200
v -0.24420999 1.70614187 1.22740689
v -0.24420999 1.68946127 1.22736507
v -0.24420999 1.65612783 1.22723957
v -0.22753749 1.65612783 1.22694673
v -0.24420999 1.65612783 1.14384722
v -0.24420999 1.68946127 1.14338704
v -0.24420999 1.70614187 1.14323644
v -0.24420999 1.72282246 1.14311094
v -0.25865392 1.70614187 1.14736130
v -0.25894713 1.83953116 1.14701826
v -0.25885498 1.93967027 1.14721069
v -0.24420999 1.93967027 1.14298543
v -0.26087414 1.93967027 1.22770811
v -0.26087414 1.93958701 1.22770811
v -0.26087414 1.72282246 1.22751566
v -0.26087414 1.68946127 1.22744873
v -0.26087414 1.65612783 1.22733996
v -0.25802555 1.65612783 1.14772107
v -0.25846123 1.68946127 1.14742823
v -0.29420242 1.65612783 1.17886246
v -0.29421078 1.93967027 1.17815128
v -0.25908120 1.85621176 1.14712703
v -0.27754663 1.93967027 1.22773321
v -0.27754663 1.73950307 1.22756587
v -0.27754663 1.72282246 1.22754914
v -0.27754663 1.68946127 1.22747384
v -0.27754663 1.67278066 1.22742364
v -0.27754663 1.65612783 1.22737344
v -0.27754663 1.70614187 1.22751566
v -0.29420242 1.65612783 1.22737344
v -0.29421078 1.79753823 1.17920550
v -0.29421078 1.93967027 1.22772484
v -0.29421078 1.93961475 1.22772484
v -0.29420242 1.73950307 1.22756587
v -0.29420242 1.70616962 1.22752403
v -0.29420242 1.72285022 1.22754914
v -0.29421078 1.79753823 1.22756587
f 1 2 3
f 1 3 4
f 1 4 5
f 1 5 6
f 1 6 7
f 1 7 8
f 1 8 9
f 1 9 10
f 1 10 2
f 2 10 11
f 2 11 3
f 3 12 13
f 3 13 4
f 3 11 12
f 4 13 14
f 4 14 15
f 4 15 5
f 5 15 16
f 5 16 17
f 5 17 6
f 6 17 18
f 6 18 7
f 7 19 8
f 7 18 19
f 8 20 21
f 8 21 22
f 8 22 9
f 8 19 20
f 9 22 23
f 9 23 10
f 10 23 11
f 11 23 24
f 11 24 25
f 11 25 26
f 11 26 12
f 12 27 28
f 12 28 29
f 12 29 13
f 12 26 27
f 13 29 53
f 13 53 70
f 13 70 69
f 13 69 83
f 13 83 94
f 13 94 96
f 13 96 86
f 13 86 84
f 13 84 71
f 13 71 54
f 13 54 30
f 13 30 15
f 13 15 14
f 15 30 31
f 15 31 16
f 16 31 32
f 16 32 33
f 16 33 17
f 17 34 35
f 17 35 36
f 17 36 37
f 17 37 18
f 17 33 34
f 18 37 19
f 19 37 20
f 20 37 38
f 20 38 21
f 21 38 39
f 21 39 40
f 21 40 41
f 21 41 22
f 22 41 23
f 23 41 42
f 23 42 43
f 23 43 24
f 24 43 25
f 25 44 62
f 25 62 40
f 25 40 39
f 25 39 38
f 25 38 61
f 25 61 78
f 25 78 77
f 25 77 87
f 25 87 98
f 25 98 89
f 25 89 79
f 25 79 63
f 25 63 45
f 25 45 46
f 25 46 26
f 25 43 44
f 26 46 45
f 26 45 47
f 26 47 48
f 26 48 27
f 27 48 49
f 27 49 50
f 27 50 51
f 27 51 28
f 28 51 52
f 28 52 53
f 28 53 29
f 30 54 55
f 30 55 56
f 30 56 32
f 30 32 31
f 32 56 57
f 32 57 58
f 32 58 33
f 33 58 34
f 34 58 35
f 35 58 59
f 35 59 37
f 35 37 36
f 37 59 60
f 37 60 61
f 37 61 38
f 40 62 42
f 40 42 41
f 42 62 44
f 42 44 43
f 45 63 64
f 45 64 47
f 47 64 65
f 47 65 48
f 48 65 49
f 49 66 50
f 49 65 64
f 49 64 66
f 50 67 68
f 50 68 51
f 50 66 67
f 51 68 69
f 51 69 52
f 52 69 70
f 52 70 53
f 54 71 72
f 54 72 73
f 54 73 55
f 55 73 56
f 56 74 57
f 56 73 74
f 57 74 75
f 57 75 58
f 58 76 59
f 58 75 76
f 59 76 60
f 60 77 78
f 60 78 61
f 60 76 77
f 63 79 80
f 63 80 64
f 64 80 81
f 64 81 66
f 66 81 67
f 67 81 82
f 67 82 68
f 68 82 83
f 68 83 69
f 71 84 72
f 72 85 73
f 72 84 85
f 73 85 74
f 74 85 75
f 75 85 86
f 75 86 76
f 76 87 88
f 76 88 77
f 76 86 87
f 77 88 87
f 79 89 80
f 80 89 90
f 80 90 81
f 81 90 91
f 81 91 95
f 81 95 82
f 82 92 93
f 82 93 94
f 82 94 83
f 82 95 92
f 84 86 85
f 86 96 103
f 86 103 97
f 86 97 87
f 87 97 103
f 87 103 99
f 87 99 98
f 89 98 99
f 89 99 100
f 89 100 90
f 90 100 91
f 91 101 95
f 91 100 102
f 91 102 101
f 92 95 101
f 92 101 96
f 92 96 93
f 93 96 94
f 96 101 103
f 99 103 102
f 99 102 100
f 101 102 103

