# https://github.com/mikedh/trimesh
v 0.06566275 -0.49370592 0.14152538
v 0.06552816 -0.47703650 0.12487939
v 0.06565053 -0.47703650 0.14152538
v 0.06500184 -0.49370592 0.15818264
v 0.06565053 -0.52704481 0.14152538
v 0.06552816 -0.51037537 0.12487939
v 0.06529558 -0.47703650 0.10822214
v 0.06551588 -0.46704473 0.12487939
v 0.06498957 -0.47703650 0.15818264
v 0.06563831 -0.46704473 0.14152538
v 0.06372892 -0.47703650 0.18648983
v 0.06374114 -0.50533002 0.18648983
v 0.06371664 -0.54371424 0.18648983
v 0.06495285 -0.54371424 0.15818264
v 0.06538129 -0.71970789 0.14152538
v 0.06544244 -0.57705312 0.12487939
v 0.06522214 -0.57705312 0.10822214
v 0.06528336 -0.52704481 0.10822214
v 0.06508750 -0.46704473 0.09823005
v 0.06528336 -0.46704473 0.10822214
v 0.06536901 -0.46704473 0.14819055
v 0.06496513 -0.46704473 0.15818264
v 0.06371664 -0.47199114 0.18648983
v 0.06370442 -0.55533833 0.18648983
v 0.06345962 -0.71970789 0.18648983
v 0.06514871 -0.71970789 0.12487939
v 0.06501406 -0.71970789 0.11754886
v 0.06484270 -0.71970789 0.10822214
v 0.06480598 -0.59369783 0.09155362
v 0.06484270 -0.57705312 0.09155362
v 0.06491613 -0.54371424 0.09155362
v 0.06492841 -0.46704473 0.09155362
v 0.06370442 -0.46704473 0.18648983
v -0.01485009 -0.71970789 0.18648983
v 0.06464690 -0.71970789 0.10089160
v 0.06197861 -0.67702027 0.07940746
v 0.06201533 -0.66035085 0.07936234
v 0.06438982 -0.71970789 0.09155362
v 0.06330053 -0.71970789 0.08625306
v 0.06186846 -0.71970789 0.07947512
v 0.06208876 -0.62703670 0.07936234
v 0.06216220 -0.54371424 0.07930596
v 0.06328826 -0.46704473 0.08418923
v -0.01451958 -0.46704473 0.18648983
v -0.05936590 -0.71970789 0.18063667
v 0.05725407 -0.71970789 0.07677971
v 0.05133009 -0.71970789 0.07336255
v 0.05133009 -0.71035914 0.07334002
v 0.05133009 -0.69368972 0.07330616
v 0.05133009 -0.46704473 0.07322725
v 0.06217447 -0.46704473 0.07929469
v -0.05936590 -0.46704473 0.18045624
v -0.05936590 -0.54371424 0.18054643
v -0.05936590 -0.56038369 0.18055775
v -0.05936590 -0.71970789 0.09591809
v 0.03465961 -0.71970789 0.07133258
v 0.03465961 -0.71035914 0.07127619
v 0.03465961 -0.46704473 0.07153559
v -0.05936590 -0.46704473 0.09738420
v -0.01227974 -0.46704473 0.07833606
v 0.00134307 -0.46704473 0.07305809
v 0.00134307 -0.69368972 0.07287760
v 0.00134307 -0.71035914 0.07290019
v 0.00134307 -0.71970789 0.07301297
v 0.02734021 -0.71970789 0.07165963
v 0.01800134 -0.71035914 0.07204307
v 0.01800134 -0.69368972 0.07205434
v 0.01800134 -0.56038369 0.07216711
v 0.01800134 -0.71970789 0.07208819
v 0.01066973 -0.71970789 0.07247163
f 1 2 3
f 1 3 9
f 1 9 4
f 1 4 5
f 1 5 6
f 1 6 2
f 2 6 7
f 2 7 20
f 2 20 8
f 2 8 10
f 2 10 3
f 3 10 9
f 4 9 11
f 4 11 12
f 4 12 13
f 4 13 14
f 4 14 5
f 5 14 15
f 5 15 16
f 5 16 6
f 6 16 17
f 6 17 18
f 6 18 7
f 7 18 19
f 7 19 20
f 8 20 19
f 8 19 32
f 8 32 43
f 8 43 51
f 8 51 50
f 8 50 58
f 8 58 61
f 8 61 60
f 8 60 59
f 8 59 52
f 8 52 44
f 8 44 33
f 8 33 22
f 8 22 21
f 8 21 10
f 9 10 21
f 9 21 22
f 9 22 23
f 9 23 11
f 11 23 33
f 11 33 44
f 11 44 34
f 11 34 25
f 11 25 24
f 11 24 13
f 11 13 12
f 13 24 14
f 14 24 25
f 14 25 15
f 15 25 34
f 15 34 45
f 15 45 55
f 15 55 64
f 15 64 70
f 15 70 69
f 15 69 65
f 15 65 56
f 15 56 47
f 15 47 46
f 15 46 40
f 15 40 39
f 15 39 38
f 15 38 35
f 15 35 28
f 15 28 27
f 15 27 26
f 15 26 17
f 15 17 16
f 17 26 27
f 17 27 28
f 17 28 29
f 17 29 30
f 17 30 31
f 17 31 18
f 18 31 19
f 19 31 32
f 22 33 23
f 28 35 29
f 29 36 37
f 29 37 30
f 29 35 38
f 29 38 39
f 29 39 40
f 29 40 36
f 30 37 41
f 30 41 31
f 31 42 43
f 31 43 32
f 31 41 42
f 34 44 45
f 36 40 37
f 37 40 46
f 37 46 47
f 37 47 48
f 37 48 49
f 37 49 41
f 41 49 42
f 42 50 51
f 42 51 43
f 42 49 50
f 44 52 53
f 44 53 54
f 44 54 45
f 45 54 53
f 45 53 52
f 45 52 59
f 45 59 55
f 47 56 57
f 47 57 48
f 48 57 49
f 49 57 50
f 50 57 58
f 55 59 60
f 55 60 61
f 55 61 62
f 55 62 63
f 55 63 64
f 56 65 57
f 57 66 67
f 57 67 68
f 57 68 58
f 57 65 69
f 57 69 66
f 58 68 61
f 61 68 67
f 61 67 62
f 62 67 66
f 62 66 63
f 63 66 69
f 63 69 70
f 63 70 64

