# https://github.com/mikedh/trimesh
v 0.37412441 -0.78979406 1.13439247
v 0.27604871 -0.78942477 1.13439247
v 0.27604871 -0.78691567 1.09735258
v 0.45123008 -0.78713832 1.09735258
v 0.45741948 -0.78714378 1.09735258
v 0.57159988 -0.78971803 1.13439247
v 0.27604871 -0.73432780 1.13439247
v 0.27604871 -0.73541398 1.09735258
v 0.46788906 -0.78713832 1.09735258
v 0.47407846 -0.78713290 1.09735258
v 0.59059920 -0.78694824 1.09735258
v 0.57409412 -0.78971261 1.13439247
v 0.59059920 -0.73431692 1.13439247
v 0.50742728 -0.73544113 1.09735258
v 0.59059920 -0.73697811 1.09735258
v 0.59059920 -0.78964743 1.13439247
v 0.59059920 -0.73552262 1.09741785
v 0.51361668 -0.73544658 1.09735258
v 0.58028352 -0.73553346 1.09735258
v 0.52408632 -0.73545744 1.09735258
f 1 2 3
f 1 3 4
f 1 4 5
f 1 5 6
f 1 6 12
f 1 12 16
f 1 16 13
f 1 13 7
f 1 7 2
f 2 7 8
f 2 8 3
f 3 8 14
f 3 14 18
f 3 18 20
f 3 20 19
f 3 19 15
f 3 15 11
f 3 11 10
f 3 10 9
f 3 9 5
f 3 5 4
f 5 9 6
f 6 9 10
f 6 10 11
f 6 11 12
f 7 13 8
f 8 13 14
f 11 15 17
f 11 17 13
f 11 13 16
f 11 16 12
f 13 17 18
f 13 18 14
f 15 19 17
f 17 19 20
f 17 20 18

