# https://github.com/mikedh/trimesh
v 1.67433570 -0.47919777 1.99656606
v 1.67433570 -0.24446410 1.99675369
v 1.67433570 -0.47919777 1.93599611
v 1.99511134 -0.47919777 1.99707461
v 2.00590767 -0.47917478 1.99710489
v 1.67433570 -0.24446410 1.93531190
v 2.02253702 -0.47917478 1.99712909
v 2.02409486 -0.24434915 1.99717152
v 2.00742933 -0.24434915 1.99714125
v 1.99511134 -0.24434915 1.99709285
v 1.99511134 -0.47919777 1.93770975
v 1.67433570 -0.47786444 1.93599009
v 2.04445585 -0.47917478 1.93642604
v 2.04445585 -0.47917478 1.99711097
v 2.02409485 -0.47917478 1.99712909
v 1.99511134 -0.24434915 1.93729800
v 2.04445585 -0.24434915 1.93677121
v 2.04445585 -0.46096803 1.93642604
v 2.04445585 -0.47763456 1.93642002
v 2.04445585 -0.24434915 1.99715937
f 1 2 6
f 1 6 12
f 1 12 3
f 1 3 11
f 1 11 4
f 1 4 5
f 1 5 2
f 2 5 7
f 2 7 8
f 2 8 9
f 2 9 10
f 2 10 16
f 2 16 6
f 3 12 13
f 3 13 11
f 4 11 13
f 4 13 14
f 4 14 15
f 4 15 7
f 4 7 5
f 6 16 17
f 6 17 18
f 6 18 19
f 6 19 12
f 7 15 8
f 8 15 20
f 8 20 17
f 8 17 16
f 8 16 10
f 8 10 9
f 12 19 13
f 13 19 18
f 13 18 17
f 13 17 20
f 13 20 14
f 14 20 15

