# https://github.com/mikedh/trimesh
v 1.67411368 -0.72601355 1.60085647
v 1.65744361 -0.72601355 1.60084670
v 1.67417322 -0.72601355 1.60003225
v 1.67417322 -0.72591827 1.60084670
v 1.67417322 -0.41099316 1.60050325
v 1.65744361 -0.41104080 1.60050325
v 1.63615099 -0.72601355 1.60080742
v 1.67417322 -0.72601355 1.54694638
v 1.67417322 -0.24428773 1.60030697
v 1.65744361 -0.24438300 1.60029720
v 1.63615099 -0.24438300 1.60023831
v 1.64078839 -0.41104080 1.60045420
v 1.63615099 -0.72601355 1.54327650
v 1.66769724 -0.72601355 1.54327650
v 1.65650567 -0.72596589 1.50450718
v 1.66266532 -0.72596589 1.51820551
v 1.67417322 -0.23933277 1.55173494
v 1.67417322 -0.23928513 1.60028736
v 1.66250158 -0.23928513 1.60028736
v 1.65744361 -0.23928513 1.60027759
v 1.63615099 -0.23928513 1.60021870
v 1.63615099 -0.70238225 1.50701918
v 1.63615469 -0.72596589 1.50171063
v 1.64078470 -0.72596589 1.50062140
v 1.65536679 -0.72596589 1.50421279
v 1.65408647 -0.23928513 1.50869712
v 1.67411368 -0.23928513 1.55173494
v 1.67417322 -0.23928513 1.55228444
v 1.63615099 -0.23928513 1.50631268
v 1.63615099 -0.69423518 1.50691123
v 1.63615099 -0.68818443 1.50683273
v 1.63615099 -0.67755987 1.50670518
v 1.63615099 -0.66093221 1.50662668
v 1.63615099 -0.62762923 1.50649912
v 1.63615099 -0.58837079 1.50637157
v 1.63615099 -0.57183841 1.50634212
v 1.63615099 -0.49427441 1.50624401
v 1.63615099 -0.47188185 1.50622440
v 1.63615099 -0.36101488 1.50618512
v 1.63615099 -0.23976157 1.50630284
v 1.64078839 -0.24438300 1.50540996
v 1.64078839 -0.23928513 1.50549823
f 1 2 7
f 1 7 13
f 1 13 14
f 1 14 8
f 1 8 3
f 1 3 4
f 1 4 5
f 1 5 6
f 1 6 2
f 2 6 7
f 3 8 17
f 3 17 28
f 3 28 18
f 3 18 9
f 3 9 5
f 3 5 4
f 5 9 6
f 6 9 10
f 6 10 11
f 6 11 12
f 6 12 7
f 7 12 11
f 7 11 21
f 7 21 29
f 7 29 40
f 7 40 39
f 7 39 38
f 7 38 37
f 7 37 36
f 7 36 35
f 7 35 34
f 7 34 33
f 7 33 32
f 7 32 31
f 7 31 30
f 7 30 22
f 7 22 13
f 8 14 15
f 8 15 16
f 8 16 17
f 9 18 19
f 9 19 10
f 10 19 20
f 10 20 21
f 10 21 11
f 13 22 23
f 13 23 24
f 13 24 14
f 14 25 15
f 14 24 25
f 15 25 26
f 15 26 17
f 15 17 16
f 17 26 27
f 17 27 28
f 18 28 27
f 18 27 26
f 18 26 42
f 18 42 29
f 18 29 21
f 18 21 20
f 18 20 19
f 22 30 23
f 23 30 31
f 23 31 32
f 23 32 33
f 23 33 34
f 23 34 35
f 23 35 36
f 23 36 37
f 23 37 38
f 23 38 39
f 23 39 40
f 23 40 24
f 24 40 41
f 24 41 26
f 24 26 25
f 26 41 42
f 29 42 40
f 40 42 41

