# https://github.com/mikedh/trimesh
v 1.07888136 -0.78789648 1.23883174
v 1.14186860 -0.78774952 1.24501589
v 1.07888136 -0.73382528 1.23883174
v 1.07888136 -0.79471835 1.20352955
v 1.15744215 -0.78757461 1.24501589
v 1.14186860 -0.73665896 1.24501589
v 1.09078575 -0.79466235 1.20352955
v 1.10744984 -0.79452943 1.20352955
v 1.07888136 -0.72364493 1.22555063
v 1.07888136 -0.79492824 1.18685971
v 1.18300396 -0.78725975 1.24501589
v 1.15539353 -0.73667297 1.24501589
v 1.14186860 -0.72358199 1.22566473
v 1.14076785 -0.72358199 1.22566473
v 1.12411394 -0.72358199 1.22565332
v 1.09078575 -0.72358199 1.22557345
v 1.09078575 -0.79487228 1.18685971
v 1.18300396 -0.79437550 1.17022410
v 1.18300396 -0.79382275 1.19574801
v 1.18300396 -0.79357086 1.20352955
v 1.18300396 -0.79407464 1.18685971
v 1.07888136 -0.72358199 1.18692817
v 1.07888136 -0.79505419 1.17022410
v 1.09078575 -0.79501220 1.17022410
v 1.18300396 -0.73672194 1.24501589
v 1.17199648 -0.73670095 1.24501589
v 1.18300396 -0.72370790 1.22574460
v 1.14186860 -0.72358199 1.13439706
v 1.10744984 -0.79492124 1.17022410
v 1.18300396 -0.79330499 1.15355425
v 1.07888136 -0.72358199 1.15817526
v 1.07888136 -0.79389970 1.15355425
v 1.09078575 -0.79387171 1.15355425
v 1.10744984 -0.79382275 1.15355425
v 1.18300396 -0.72370790 1.15775309
v 1.15724849 -0.72370790 1.12845251
v 1.11317781 -0.72358199 1.13439706
v 1.18282050 -0.78775653 1.12845251
v 1.18300396 -0.78774952 1.12845251
v 1.07888136 -0.73488878 1.13439706
v 1.07888136 -0.78905094 1.13439706
v 1.14186860 -0.78779151 1.12845251
v 1.18300396 -0.73479082 1.12845251
v 1.14755580 -0.72370790 1.12845251
v 1.14186860 -0.72379189 1.12845251
f 1 2 6
f 1 6 3
f 1 3 9
f 1 9 22
f 1 22 31
f 1 31 40
f 1 40 41
f 1 41 32
f 1 32 23
f 1 23 10
f 1 10 4
f 1 4 2
f 2 5 11
f 2 11 25
f 2 25 26
f 2 26 12
f 2 12 6
f 2 4 7
f 2 7 8
f 2 8 5
f 3 6 9
f 4 10 17
f 4 17 7
f 5 8 11
f 6 12 13
f 6 13 14
f 6 14 15
f 6 15 16
f 6 16 9
f 7 17 18
f 7 18 8
f 8 19 20
f 8 20 11
f 8 18 21
f 8 21 19
f 9 16 22
f 10 23 24
f 10 24 17
f 11 20 19
f 11 19 21
f 11 21 18
f 11 18 30
f 11 30 39
f 11 39 43
f 11 43 35
f 11 35 27
f 11 27 25
f 12 26 13
f 13 26 27
f 13 27 35
f 13 35 28
f 13 28 37
f 13 37 31
f 13 31 22
f 13 22 16
f 13 16 15
f 13 15 14
f 17 24 29
f 17 29 18
f 18 29 30
f 23 32 33
f 23 33 34
f 23 34 24
f 24 34 29
f 25 27 26
f 28 35 36
f 28 36 44
f 28 44 37
f 29 34 30
f 30 34 38
f 30 38 39
f 31 37 40
f 32 41 42
f 32 42 38
f 32 38 33
f 33 38 34
f 35 43 36
f 36 43 39
f 36 39 38
f 36 38 42
f 36 42 45
f 36 45 44
f 37 44 45
f 37 45 40
f 40 45 42
f 40 42 41

