# https://github.com/mikedh/trimesh
v -2.11343959 1.97298114 1.22779332
v -2.11343959 1.97300725 1.22779332
v -2.11343959 1.95630938 1.22775927
v -2.09677592 1.95628979 1.22776778
v -2.04675975 1.97300725 1.22760601
v -2.11343959 1.97300725 1.14744890
v -2.11343959 1.93967351 1.22772521
v -2.09677592 1.93967351 1.22772521
v -2.08010385 1.93967351 1.22770819
v -2.06343183 1.93967351 1.22764006
v -2.04675975 1.93967351 1.22736759
v -2.03346922 1.93967351 1.22238651
v -2.03341870 1.97300725 1.22259086
v -2.06343183 1.97300725 1.14196545
v -2.06343183 1.93967351 1.14298722
v -2.11343959 1.97296157 1.14745741
v -2.11343959 1.93967351 1.17814429
v -2.02829599 1.93967351 1.20928243
v -2.02825394 1.97300725 1.20928243
v -2.04675975 1.97300725 1.14081598
v -2.04675975 1.93967351 1.14253593
v -2.07808505 1.93967351 1.14721048
v -2.11343959 1.96441520 1.15069300
v -2.02803518 1.93967351 1.19261071
v -2.02750526 1.97300725 1.17593899
v -2.03325045 1.97300725 1.14582260
v -2.03379725 1.93967351 1.14675920
v -2.02801836 1.93967351 1.17593899
v -2.02767351 1.97300725 1.15925874
v -2.02860720 1.93967351 1.15925874
f 1 2 6
f 1 6 16
f 1 16 23
f 1 23 17
f 1 17 7
f 1 7 3
f 1 3 4
f 1 4 2
f 2 4 5
f 2 5 13
f 2 13 19
f 2 19 25
f 2 25 29
f 2 29 26
f 2 26 20
f 2 20 14
f 2 14 6
f 3 7 4
f 4 7 8
f 4 8 9
f 4 9 5
f 5 9 10
f 5 10 11
f 5 11 12
f 5 12 13
f 6 14 15
f 6 15 16
f 7 17 22
f 7 22 15
f 7 15 21
f 7 21 27
f 7 27 30
f 7 30 28
f 7 28 24
f 7 24 18
f 7 18 12
f 7 12 11
f 7 11 10
f 7 10 9
f 7 9 8
f 12 18 13
f 13 18 19
f 14 20 15
f 15 20 21
f 15 22 16
f 16 22 23
f 17 23 22
f 18 24 25
f 18 25 19
f 20 26 27
f 20 27 21
f 24 28 25
f 25 28 29
f 26 29 30
f 26 30 27
f 28 30 29

