# https://github.com/mikedh/trimesh
v -2.98192726 -0.73727518 1.25343657
v -2.98192726 -0.73751238 1.43900728
v -2.98192726 -0.78767894 1.25343657
v -2.98277478 -0.73727014 1.25343657
v -2.98192726 -0.78667975 1.43900728
v -2.99947143 -0.73720455 1.25343657
v -3.41832838 -0.73659392 1.43900728
v -2.98192726 -0.78767894 1.25354556
v -2.98294430 -0.78769408 1.25343657
v -2.98192726 -0.78702292 1.38687456
v -2.98294430 -0.78668985 1.43900728
v -3.48291137 -0.73620533 1.25343657
v -3.43290619 -0.73656868 1.43900728
v -2.98192726 -0.78763858 1.27022078
v -2.98294430 -0.78769408 1.25354556
v -2.99964094 -0.78775464 1.25343657
v -2.98192726 -0.78712383 1.37128922
v -2.98294430 -0.78703300 1.38687456
v -2.99752207 -0.78672517 1.43900728
v -3.71624065 -0.73657878 1.25343657
v -3.58292175 -0.73648794 1.43900728
v -2.98192726 -0.78759317 1.28687782
v -2.98294430 -0.78765372 1.27022078
v -2.99964094 -0.78775464 1.25354556
v -2.99972570 -0.78775464 1.25343657
v -2.98192726 -0.78742663 1.32021005
v -2.98294430 -0.78713897 1.37019934
v -2.98294430 -0.78734083 1.33688526
v -2.99964094 -0.78673020 1.43900728
v -2.99964094 -0.78706328 1.38687456
v -2.99964094 -0.78738121 1.33688526
v -3.84761016 -0.73703294 1.25343657
v -3.59953358 -0.73653336 1.43900728
v -3.58504060 -0.73649298 1.43900728
v -2.98192726 -0.78758810 1.28796770
v -2.98294430 -0.78760831 1.28687782
v -2.99964094 -0.78771428 1.27022078
v -3.64953882 -0.78728533 1.37019934
v -3.64953882 -0.78732065 1.35352415
v -3.64953882 -0.78736607 1.32021005
v -3.64953882 -0.78738625 1.30355301
v -3.64953882 -0.78736100 1.28687782
v -3.64953882 -0.78726009 1.27022078
v -3.64970834 -0.78706328 1.25343657
v -2.98192726 -0.78750736 1.30464292
v -2.98294430 -0.78743670 1.32021005
v -2.98294430 -0.78752754 1.30355301
v -3.36628909 -0.78712383 1.43900728
v -2.99964094 -0.78747205 1.32021005
v -3.38086689 -0.78713897 1.43900728
v -3.84761016 -0.78681097 1.25343657
v -3.84761016 -0.73767385 1.43900728
v -2.99964094 -0.78763858 1.28687782
v -3.39968238 -0.78715411 1.43900728
v -3.41620954 -0.78715411 1.43900728
v -3.54952846 -0.78709859 1.43686385
v -3.56622505 -0.78707842 1.43900728
v -3.78285772 -0.78690181 1.43686385
v -3.84761016 -0.78683618 1.43711816
v -3.66623541 -0.78726513 1.37019934
v -3.83286284 -0.78701786 1.37019934
v -3.83286284 -0.78704814 1.35352415
v -3.84761016 -0.78704310 1.33879257
v -3.84761016 -0.78705824 1.32213553
v -3.84761016 -0.78706328 1.30546031
v -3.84761016 -0.78706328 1.30355301
v -3.84761016 -0.78705317 1.28880327
v -3.84761016 -0.78704814 1.28687782
v -3.84761016 -0.78698254 1.27212805
v -3.84761016 -0.78697244 1.27022078
v -3.84761016 -0.78682611 1.43900728
v -3.53291652 -0.78709859 1.43900728
v -3.76624577 -0.78690684 1.43900728
v -3.78285772 -0.78689170 1.43900728
v -3.84761016 -0.78688667 1.42020681
v -3.79955430 -0.78699768 1.40353160
v -3.79955430 -0.78703300 1.38687456
v -3.81625101 -0.78700778 1.38687456
v -3.81625101 -0.78697244 1.40353160
v -3.84761016 -0.78695730 1.38687456
v -3.84761016 -0.78699264 1.37019934
v -3.84761016 -0.78702292 1.35352415
f 1 2 5
f 1 5 10
f 1 10 17
f 1 17 26
f 1 26 45
f 1 45 35
f 1 35 22
f 1 22 14
f 1 14 8
f 1 8 3
f 1 3 9
f 1 9 16
f 1 16 25
f 1 25 44
f 1 44 51
f 1 51 32
f 1 32 20
f 1 20 12
f 1 12 6
f 1 6 4
f 1 4 2
f 2 4 6
f 2 6 7
f 2 7 13
f 2 13 21
f 2 21 34
f 2 34 33
f 2 33 52
f 2 52 71
f 2 71 74
f 2 74 73
f 2 73 57
f 2 57 72
f 2 72 55
f 2 55 54
f 2 54 50
f 2 50 48
f 2 48 29
f 2 29 19
f 2 19 11
f 2 11 5
f 3 8 15
f 3 15 9
f 5 11 18
f 5 18 10
f 6 12 7
f 7 12 13
f 8 14 23
f 8 23 15
f 9 15 24
f 9 24 16
f 10 18 17
f 11 19 18
f 12 20 21
f 12 21 13
f 14 22 36
f 14 36 23
f 15 23 37
f 15 37 24
f 16 24 25
f 17 18 27
f 17 27 28
f 17 28 26
f 18 19 29
f 18 29 30
f 18 30 31
f 18 31 27
f 20 32 33
f 20 33 34
f 20 34 21
f 22 35 36
f 23 36 37
f 24 37 38
f 24 38 39
f 24 39 40
f 24 40 41
f 24 41 25
f 25 41 42
f 25 42 43
f 25 43 44
f 26 28 46
f 26 46 47
f 26 47 45
f 27 31 28
f 28 31 46
f 29 48 30
f 30 48 31
f 31 49 47
f 31 47 46
f 31 48 50
f 31 50 49
f 32 51 70
f 32 70 69
f 32 69 68
f 32 68 67
f 32 67 66
f 32 66 65
f 32 65 64
f 32 64 63
f 32 63 82
f 32 82 81
f 32 81 80
f 32 80 75
f 32 75 59
f 32 59 71
f 32 71 52
f 32 52 33
f 35 45 47
f 35 47 36
f 36 47 53
f 36 53 37
f 37 53 54
f 37 54 55
f 37 55 38
f 38 55 56
f 38 56 57
f 38 57 58
f 38 58 59
f 38 59 60
f 38 60 39
f 39 60 61
f 39 61 62
f 39 62 40
f 40 62 41
f 41 62 63
f 41 63 64
f 41 64 65
f 41 65 66
f 41 66 67
f 41 67 42
f 42 67 68
f 42 68 69
f 42 69 70
f 42 70 43
f 43 70 51
f 43 51 44
f 47 49 53
f 49 50 54
f 49 54 53
f 55 72 56
f 56 72 57
f 57 73 58
f 58 73 74
f 58 74 59
f 59 74 71
f 59 75 76
f 59 76 60
f 60 76 77
f 60 77 61
f 61 77 78
f 61 78 79
f 61 79 75
f 61 75 80
f 61 80 81
f 61 81 82
f 61 82 62
f 62 82 63
f 75 79 76
f 76 79 78
f 76 78 77

