# https://github.com/mikedh/trimesh
v -3.81488489 1.57271459 1.23996160
v -3.81488489 1.58939059 1.23996160
v -3.81477557 1.55605547 1.23996160
v -3.81477557 1.55605547 1.24265705
v -3.81461156 1.55604703 1.37628176
v -3.81465712 1.57271459 1.37628176
v -3.81119494 1.60108151 1.23996160
v -3.81465712 1.57294235 1.37628176
v -3.81457512 1.58938217 1.37628176
v -3.81031112 1.60308060 1.37628176
v -3.81331782 1.53937946 1.23996160
v -3.81320844 1.53937102 1.37628176
v -3.81048426 1.60331678 1.23996160
v -3.79779252 1.60972739 1.37628176
v -3.80839783 1.60463265 1.23996160
v -3.80902650 1.52860797 1.23996160
v -3.80902650 1.52860797 1.24265705
v -3.80899913 1.52858268 1.37628176
v -3.78114663 1.61166743 1.37628176
v -3.79386568 1.61068055 1.23996160
v -3.79775608 1.61019975 1.23996160
v -3.79962387 1.52629678 1.23996160
v -3.79781990 1.52578225 1.37605491
v -3.80883518 1.52854048 1.37628176
v -3.76448248 1.61145657 1.37628176
v -3.77666399 1.61165057 1.23996160
v -3.78114663 1.61168431 1.23996160
v -3.79781990 1.52585814 1.23996160
v -3.79759207 1.52577381 1.37628176
v -3.79781990 1.52578225 1.37628176
v -3.75145366 1.60418559 1.37628176
v -3.75047876 1.60431212 1.23996160
v -3.76061027 1.60965991 1.23996160
v -3.76448248 1.61110230 1.23996160
v -3.78382530 1.52565572 1.23996160
v -3.78114663 1.52552075 1.37605491
v -3.78114663 1.52552075 1.37628176
v -3.73367798 1.58489474 1.37628176
v -3.73337732 1.58582259 1.23996160
v -3.78114663 1.52562196 1.23996160
v -3.78090973 1.52552075 1.37628176
v -3.72505891 1.57356654 1.37628176
v -3.72264445 1.57268929 1.23996160
v -3.76448248 1.52584973 1.23996160
v -3.76425471 1.52573164 1.37628176
v -3.72443023 1.57208198 1.37628176
v -3.72180625 1.56290468 1.23996160
v -3.75048788 1.52611120 1.23996160
v -3.74780921 1.52603528 1.37605491
v -3.74780921 1.52603528 1.37628176
v -3.72310005 1.55612294 1.37628176
v -3.72180625 1.55764969 1.23996160
v -3.74780921 1.52616181 1.23996160
v -3.73451618 1.52865857 1.29268293
v -3.73457087 1.52862485 1.37605491
v -3.73663905 1.52827902 1.23996160
v -3.73450705 1.52868389 1.24265705
v -3.73457087 1.52862485 1.37628176
v -3.72310912 1.55523727 1.37628176
v -3.72679912 1.53937946 1.37628176
v -3.72544157 1.54209553 1.23996160
v -3.73441598 1.52866701 1.34269543
v -3.73450705 1.52869233 1.23996160
v -3.73292172 1.53050584 1.23996160
v -3.73447973 1.52865857 1.35936184
v -3.72666243 1.53937102 1.34269543
v -3.72642553 1.53930357 1.23996160
f 1 2 7
f 1 7 13
f 1 13 15
f 1 15 21
f 1 21 20
f 1 20 27
f 1 27 26
f 1 26 34
f 1 34 33
f 1 33 32
f 1 32 39
f 1 39 43
f 1 43 47
f 1 47 52
f 1 52 61
f 1 61 67
f 1 67 64
f 1 64 63
f 1 63 56
f 1 56 53
f 1 53 48
f 1 48 44
f 1 44 40
f 1 40 35
f 1 35 28
f 1 28 22
f 1 22 16
f 1 16 11
f 1 11 3
f 1 3 4
f 1 4 5
f 1 5 6
f 1 6 8
f 1 8 2
f 2 8 9
f 2 9 10
f 2 10 7
f 3 11 4
f 4 11 12
f 4 12 5
f 5 12 18
f 5 18 24
f 5 24 30
f 5 30 29
f 5 29 37
f 5 37 41
f 5 41 45
f 5 45 50
f 5 50 58
f 5 58 60
f 5 60 59
f 5 59 51
f 5 51 46
f 5 46 42
f 5 42 38
f 5 38 31
f 5 31 25
f 5 25 19
f 5 19 14
f 5 14 10
f 5 10 9
f 5 9 8
f 5 8 6
f 7 10 13
f 10 14 15
f 10 15 13
f 11 16 17
f 11 17 18
f 11 18 12
f 14 19 20
f 14 20 21
f 14 21 15
f 16 22 23
f 16 23 24
f 16 24 18
f 16 18 17
f 19 25 26
f 19 26 27
f 19 27 20
f 22 28 23
f 23 29 30
f 23 30 24
f 23 28 29
f 25 31 32
f 25 32 33
f 25 33 34
f 25 34 26
f 28 35 36
f 28 36 29
f 29 36 37
f 31 38 39
f 31 39 32
f 35 40 36
f 36 41 37
f 36 40 41
f 38 42 43
f 38 43 39
f 40 44 45
f 40 45 41
f 42 46 43
f 43 46 47
f 44 48 49
f 44 49 45
f 45 49 50
f 46 51 47
f 47 51 52
f 48 53 49
f 49 54 55
f 49 55 58
f 49 58 50
f 49 53 56
f 49 56 57
f 49 57 54
f 51 59 52
f 52 59 60
f 52 60 61
f 54 62 55
f 54 57 62
f 55 62 58
f 56 63 57
f 57 63 64
f 57 64 62
f 58 62 65
f 58 65 66
f 58 66 60
f 60 66 61
f 61 66 67
f 62 66 65
f 62 64 67
f 62 67 66

