# https://github.com/mikedh/trimesh
v 0.15675521 -0.61830125 0.92027187
v 0.19641997 -0.61830125 0.92027187
v 0.15638810 -0.61827097 0.92027187
v 0.15638810 -0.61830125 0.92020398
v 0.21364334 -0.61830125 0.90200700
v 0.19604571 -0.51102046 0.92027187
v 0.14202935 -0.61100180 0.85352700
v 0.14205092 -0.61830125 0.85352700
v 0.15638810 -0.57760906 0.92027187
v 0.14196455 -0.56101113 0.85352700
v 0.14197177 -0.57766963 0.85352700
v 0.14199334 -0.59434329 0.85352700
v 0.21364334 -0.61830125 0.83284490
v 0.21364334 -0.61557532 0.90199342
v 0.21364335 -0.46360429 0.90108357
v 0.19595219 -0.49434681 0.92027187
v 0.14173423 -0.61830125 0.84624820
v 0.15639531 -0.56093540 0.92027187
v 0.14201491 -0.54433747 0.85352700
v 0.14088493 -0.46360429 0.82021566
v 0.14067624 -0.54433747 0.82021566
v 0.14064024 -0.56101113 0.82021566
v 0.14064024 -0.57766963 0.82021566
v 0.15640973 -0.54427690 0.92027187
v 0.15657526 -0.46360429 0.92027187
v 0.14133840 -0.61100180 0.83687812
v 0.14134556 -0.61830125 0.83687812
v 0.19471419 -0.61830125 0.78154030
v 0.21364334 -0.56241953 0.83241035
v 0.21364335 -0.46360429 0.83189432
v 0.19577225 -0.46360429 0.92020398
v 0.19577225 -0.46364972 0.92027187
v 0.14239640 -0.46360429 0.85352700
v 0.14056825 -0.46360429 0.80353962
v 0.14011482 -0.56101113 0.80353962
v 0.14066183 -0.59434329 0.82021566
v 0.15759010 -0.46360429 0.92027187
v 0.14069782 -0.61830125 0.82021566
v 0.21364334 -0.54565500 0.83230172
v 0.15216322 -0.61830125 0.78154030
v 0.19405926 -0.46360429 0.78154030
v 0.21364335 -0.47859694 0.83189432
v 0.14487949 -0.46360429 0.79036719
v 0.14452679 -0.56101113 0.79000053
v 0.14089935 -0.61830125 0.80353962
v 0.14078419 -0.61830125 0.81292329
v 0.14527537 -0.61830125 0.79072026
v 0.15212728 -0.56117770 0.78154030
v 0.15225681 -0.46360429 0.78154030
v 0.14594469 -0.46360429 0.78907710
v 0.15212728 -0.56101113 0.78154030
v 0.15216322 -0.49434681 0.78154030
f 1 2 6
f 1 6 16
f 1 16 32
f 1 32 37
f 1 37 25
f 1 25 24
f 1 24 18
f 1 18 9
f 1 9 3
f 1 3 4
f 1 4 8
f 1 8 17
f 1 17 27
f 1 27 38
f 1 38 46
f 1 46 45
f 1 45 47
f 1 47 40
f 1 40 28
f 1 28 13
f 1 13 5
f 1 5 2
f 2 5 6
f 3 7 8
f 3 8 4
f 3 9 10
f 3 10 11
f 3 11 12
f 3 12 7
f 5 13 29
f 5 29 39
f 5 39 42
f 5 42 30
f 5 30 15
f 5 15 14
f 5 14 6
f 6 15 16
f 6 14 15
f 7 17 8
f 7 12 17
f 9 18 10
f 10 19 20
f 10 20 21
f 10 21 22
f 10 22 23
f 10 23 11
f 10 18 24
f 10 24 25
f 10 25 19
f 11 23 26
f 11 26 27
f 11 27 12
f 12 27 17
f 13 28 29
f 15 30 41
f 15 41 49
f 15 49 50
f 15 50 43
f 15 43 34
f 15 34 20
f 15 20 33
f 15 33 25
f 15 25 37
f 15 37 31
f 15 31 32
f 15 32 16
f 19 25 33
f 19 33 20
f 20 34 35
f 20 35 21
f 21 35 22
f 22 35 23
f 23 36 27
f 23 27 26
f 23 35 36
f 27 36 38
f 28 39 29
f 28 40 48
f 28 48 51
f 28 51 52
f 28 52 49
f 28 49 41
f 28 41 30
f 28 30 42
f 28 42 39
f 31 37 32
f 34 43 44
f 34 44 35
f 35 44 45
f 35 45 46
f 35 46 38
f 35 38 36
f 40 47 44
f 40 44 48
f 43 50 44
f 44 51 48
f 44 47 45
f 44 50 49
f 44 49 52
f 44 52 51

