# https://github.com/mikedh/trimesh
v -2.00594085 -0.71679233 0.38154747
v -1.99216169 -0.73766589 0.38154747
v -2.05051672 -0.71679233 0.38154747
v -1.99283547 -0.71679233 0.48687449
v -1.98838726 -0.74600012 0.38154747
v -2.05752944 -0.72826139 0.38154747
v -2.05752944 -0.71679233 0.46518561
v -1.99337877 -0.71679233 0.52021160
v -1.98852495 -0.74621922 0.71675636
v -1.98535181 -0.76100851 0.71675636
v -1.98459840 -0.76100851 0.57018450
v -1.98451865 -0.76100851 0.55351593
v -1.98449695 -0.76100851 0.53688017
v -1.98454046 -0.76100851 0.50354303
v -1.98488820 -0.76100851 0.38154747
v -1.98600377 -0.75613775 0.38154747
v -2.05752944 -0.78485675 0.38154747
v -2.05752944 -0.71679233 0.57412196
v -2.00788964 -0.71679233 0.71675636
v -1.99227035 -0.73788497 0.71675636
v -1.99148798 -0.73961250 0.71675636
v -1.98458386 -0.77766858 0.71675636
v -1.98367106 -0.77766858 0.57018450
v -1.98358416 -0.77766858 0.55351593
v -1.98355519 -0.77766858 0.53688017
v -1.98352622 -0.77766858 0.52021160
v -1.98354792 -0.77766858 0.50354303
v -1.98425066 -0.77235118 0.38154747
v -2.04823467 -0.79280337 0.38154747
v -2.05752944 -0.79460675 0.48687449
v -2.05752944 -0.72927265 0.71675636
v -2.04979228 -0.71679233 0.71675636
v -1.98775699 -0.79334271 0.71675636
v -1.98724260 -0.79325842 0.55351593
v -1.98726442 -0.79332584 0.52021160
v -1.98728611 -0.79334271 0.50354303
v -1.98724987 -0.79329213 0.53688017
v -1.98747447 -0.79328373 0.38154747
v -1.98397529 -0.77766858 0.38154747
v -2.03783149 -0.79830617 0.38154747
v -2.05752944 -0.79445506 0.51227107
v -2.03291967 -0.80088481 0.38154747
v -2.03291967 -0.80119660 0.47020591
v -2.03315875 -0.80140728 0.65352736
v -2.03318045 -0.80138201 0.67019594
v -2.03260812 -0.80141571 0.71675636
v -2.05752944 -0.78403936 0.71675636
v -1.98972027 -0.79507021 0.71675636
v -1.99549422 -0.80224998 0.65352736
v -1.98777154 -0.79391572 0.65352736
v -1.98770633 -0.79394102 0.63685879
v -1.99959463 -0.80160111 0.38154747
v -1.99564633 -0.80227528 0.63685879
v -2.05752944 -0.79439608 0.52021160
v -2.01626439 -0.80240167 0.38154747
v -2.02471157 -0.80268819 0.64250247
v -2.02482745 -0.80269663 0.65352736
v -2.02484920 -0.80270503 0.67019594
v -2.02458843 -0.80267132 0.69519879
v -2.02257443 -0.80262078 0.71675636
v -2.03595513 -0.79964607 0.71675636
v -2.02469709 -0.80268819 0.68686451
v -2.04756817 -0.79308989 0.71675636
v -2.05752944 -0.79402527 0.52893964
v -1.99747919 -0.80167696 0.71675636
v -2.00581049 -0.80283145 0.71675636
v -2.00561487 -0.80285673 0.70353308
v -2.00383267 -0.80283986 0.65352736
v -2.00788964 -0.80267976 0.46006690
v -2.00397757 -0.80282302 0.63685879
v -2.00802732 -0.80267976 0.46006690
v -2.01626439 -0.80286516 0.65352736
v -2.01626439 -0.80287359 0.67019594
v -2.01626439 -0.80286516 0.68686451
v -2.01725688 -0.80282302 0.70185964
v -2.01457638 -0.80283145 0.71675636
v -2.02133560 -0.80265449 0.71675636
f 1 2 5
f 1 5 16
f 1 16 15
f 1 15 28
f 1 28 39
f 1 39 38
f 1 38 52
f 1 52 55
f 1 55 42
f 1 42 40
f 1 40 29
f 1 29 17
f 1 17 6
f 1 6 3
f 1 3 7
f 1 7 18
f 1 18 32
f 1 32 19
f 1 19 8
f 1 8 4
f 1 4 2
f 2 4 5
f 3 6 7
f 4 8 9
f 4 9 10
f 4 10 11
f 4 11 12
f 4 12 13
f 4 13 14
f 4 14 15
f 4 15 16
f 4 16 5
f 6 17 30
f 6 30 41
f 6 41 54
f 6 54 64
f 6 64 47
f 6 47 31
f 6 31 18
f 6 18 7
f 8 19 20
f 8 20 21
f 8 21 9
f 9 21 20
f 9 20 19
f 9 19 32
f 9 32 31
f 9 31 47
f 9 47 63
f 9 63 61
f 9 61 46
f 9 46 60
f 9 60 77
f 9 77 76
f 9 76 66
f 9 66 65
f 9 65 48
f 9 48 33
f 9 33 22
f 9 22 10
f 10 22 23
f 10 23 24
f 10 24 11
f 11 24 12
f 12 24 25
f 12 25 26
f 12 26 13
f 13 26 27
f 13 27 14
f 14 27 15
f 15 27 28
f 17 29 30
f 18 31 32
f 22 33 23
f 23 33 24
f 24 34 25
f 24 33 34
f 25 34 26
f 26 35 36
f 26 36 27
f 26 34 37
f 26 37 35
f 27 36 38
f 27 38 39
f 27 39 28
f 29 40 30
f 30 40 42
f 30 42 43
f 30 43 44
f 30 44 45
f 30 45 46
f 30 46 41
f 33 48 49
f 33 49 50
f 33 50 51
f 33 51 34
f 34 51 37
f 35 37 51
f 35 51 36
f 36 51 49
f 36 49 38
f 38 49 53
f 38 53 52
f 41 46 54
f 42 55 56
f 42 56 43
f 43 56 57
f 43 57 44
f 44 57 58
f 44 58 46
f 44 46 45
f 46 59 60
f 46 61 54
f 46 58 62
f 46 62 59
f 47 64 63
f 48 65 49
f 49 51 50
f 49 65 66
f 49 66 67
f 49 67 68
f 49 68 53
f 52 69 55
f 52 53 69
f 53 68 70
f 53 70 69
f 54 61 63
f 54 63 64
f 55 69 71
f 55 71 72
f 55 72 56
f 56 72 57
f 57 72 58
f 58 72 73
f 58 73 74
f 58 74 62
f 59 75 76
f 59 76 77
f 59 77 60
f 59 62 75
f 62 74 75
f 66 76 67
f 67 73 68
f 67 76 74
f 67 74 73
f 68 73 72
f 68 72 69
f 68 69 70
f 69 72 71
f 74 76 75

