# https://github.com/mikedh/trimesh
v -1.93151880 -0.77703906 1.25576306
v -1.93118167 -0.76283367 1.25576306
v -1.93014621 -0.79370454 1.25576306
v -1.93017029 -0.79370454 1.27488535
v -1.93147063 -0.77704657 1.47498208
v -1.93112147 -0.76038110 1.25826270
v -1.93112147 -0.76038110 1.25576306
v -1.92612477 -0.80427986 1.25576306
v -1.92618497 -0.80435484 1.27488535
v -1.92618497 -0.80436986 1.29157050
v -1.92604049 -0.80415985 1.67482888
v -1.92989336 -0.79370454 1.67482888
v -1.93145859 -0.77704657 1.49160476
v -1.93104923 -0.76038110 1.49160476
v -1.92730471 -0.74598816 1.25576306
v -1.91532455 -0.80916999 1.25576306
v -1.91532455 -0.80928249 1.27488535
v -1.91532455 -0.80932749 1.29157050
v -1.91532455 -0.80894497 1.67482888
v -1.91532455 -0.80859998 1.89417289
v -1.92575152 -0.80388235 1.89417289
v -1.92952012 -0.79370454 1.89417289
v -1.92976092 -0.79102695 1.89417289
v -1.93100107 -0.77704657 1.89417289
v -1.93061578 -0.76038110 1.82480770
v -1.92725655 -0.74629568 1.49160476
v -1.92726859 -0.74626568 1.47498208
v -1.92293405 -0.73906545 1.25620048
v -1.92293405 -0.73906545 1.25576306
v -1.89867284 -0.81304012 1.25576306
v -1.89867284 -0.81304760 1.25826270
v -1.89867284 -0.81309261 1.27488535
v -1.89867284 -0.81313012 1.29157050
v -1.89867284 -0.81316010 1.30825564
v -1.89867284 -0.81331014 1.40824151
v -1.89866080 -0.81372263 1.69145151
v -1.89866080 -0.81374514 1.72482180
v -1.89866080 -0.81373015 1.89417289
v -1.91266366 -0.80942501 1.89417289
v -1.93049538 -0.76038110 1.89417289
v -1.92702779 -0.74718070 1.84149285
v -1.92703983 -0.74712818 1.82480770
v -1.92306649 -0.73990548 1.47891906
v -1.92283772 -0.73906545 1.32494079
v -1.82883904 -0.73906545 1.25576306
v -1.88199699 -0.81423264 1.25576306
v -1.88199699 -0.81553019 1.67482888
v -1.88199699 -0.81561267 1.72482180
v -1.88199699 -0.81568769 1.89417289
v -1.89599991 -0.81404516 1.89417289
v -1.92691942 -0.74762321 1.89417289
v -1.92700371 -0.74729321 1.85817800
v -1.92148922 -0.73990548 1.84361754
v -1.92158554 -0.73990548 1.82705738
v -1.92303037 -0.73990548 1.49160476
v -1.92278956 -0.73906545 1.34418807
v -1.80851500 -0.74508063 1.25576306
v -1.80851500 -0.73906545 1.30244396
v -1.86781353 -0.81400763 1.25576306
v -1.84869352 -0.81372263 1.27488535
v -1.80851500 -0.81259762 1.34156342
v -1.84868147 -0.81420266 1.87486315
v -1.87932406 -0.81556768 1.89417289
v -1.92117617 -0.74062550 1.89417289
v -1.92093537 -0.73990548 1.87636293
v -1.92124841 -0.73990548 1.86005270
v -1.92235611 -0.73906545 1.43698747
v -1.80851500 -0.79809219 1.25576306
v -1.80851500 -0.73906545 1.37937060
v -1.86535733 -0.81396263 1.25576306
v -1.85113768 -0.81365512 1.25576306
v -1.84869352 -0.81358762 1.25576306
v -1.83446183 -0.80968751 1.25576306
v -1.83201767 -0.80900500 1.25576306
v -1.80851500 -0.81048255 1.32494079
v -1.80851500 -0.81247008 1.37487125
v -1.84868147 -0.81404516 1.89417289
v -1.86535733 -0.81493768 1.89417289
v -1.92057416 -0.73990548 1.89417289
v -1.83192134 -0.73906545 1.43698747
v -1.83313741 -0.73990548 1.89417289
v -1.83269192 -0.73990548 1.88898611
v -1.80851500 -0.74973826 1.89417289
v -1.80851500 -0.81204259 1.39155640
v -1.82954942 -0.80962751 1.89417289
v -1.83202971 -0.81091004 1.87486315
v -1.84602058 -0.81356512 1.89417289
v -1.80851500 -0.79771715 1.89417289
v -1.82041082 -0.80472237 1.89417289
v -1.83202971 -0.81042253 1.89417289
f 1 2 7
f 1 7 15
f 1 15 29
f 1 29 45
f 1 45 57
f 1 57 68
f 1 68 74
f 1 74 73
f 1 73 72
f 1 72 71
f 1 71 70
f 1 70 59
f 1 59 46
f 1 46 30
f 1 30 16
f 1 16 8
f 1 8 3
f 1 3 4
f 1 4 5
f 1 5 2
f 2 6 7
f 2 5 6
f 3 8 9
f 3 9 4
f 4 9 10
f 4 10 11
f 4 11 12
f 4 12 5
f 5 12 13
f 5 13 14
f 5 14 6
f 6 15 7
f 6 14 15
f 8 16 17
f 8 17 9
f 9 17 18
f 9 18 10
f 10 18 11
f 11 19 20
f 11 20 21
f 11 21 22
f 11 22 12
f 11 18 19
f 12 22 23
f 12 23 24
f 12 24 13
f 13 24 14
f 14 24 25
f 14 25 26
f 14 26 27
f 14 27 15
f 15 28 29
f 15 27 28
f 16 30 17
f 17 31 32
f 17 32 18
f 17 30 31
f 18 32 33
f 18 33 34
f 18 34 35
f 18 35 36
f 18 36 37
f 18 37 38
f 18 38 19
f 19 38 39
f 19 39 20
f 20 39 38
f 20 38 50
f 20 50 49
f 20 49 63
f 20 63 78
f 20 78 77
f 20 77 87
f 20 87 90
f 20 90 85
f 20 85 89
f 20 89 88
f 20 88 83
f 20 83 81
f 20 81 79
f 20 79 64
f 20 64 51
f 20 51 40
f 20 40 24
f 20 24 23
f 20 23 22
f 20 22 21
f 24 40 25
f 25 40 41
f 25 41 42
f 25 42 26
f 26 42 43
f 26 43 44
f 26 44 27
f 27 44 28
f 28 44 56
f 28 56 67
f 28 67 80
f 28 80 69
f 28 69 58
f 28 58 45
f 28 45 29
f 30 46 47
f 30 47 31
f 31 47 32
f 32 47 33
f 33 47 34
f 34 47 48
f 34 48 35
f 35 48 36
f 36 48 37
f 37 48 49
f 37 49 50
f 37 50 38
f 40 51 52
f 40 52 41
f 41 53 54
f 41 54 55
f 41 55 42
f 41 52 53
f 42 55 43
f 43 55 56
f 43 56 44
f 45 58 57
f 46 59 47
f 47 59 60
f 47 60 61
f 47 61 48
f 48 61 49
f 49 61 62
f 49 62 63
f 51 64 65
f 51 65 66
f 51 66 53
f 51 53 52
f 53 66 67
f 53 67 54
f 54 67 56
f 54 56 55
f 57 58 69
f 57 69 83
f 57 83 88
f 57 88 84
f 57 84 76
f 57 76 61
f 57 61 75
f 57 75 68
f 59 70 60
f 60 70 71
f 60 71 72
f 60 72 61
f 61 72 73
f 61 73 74
f 61 74 75
f 61 76 62
f 62 77 78
f 62 78 63
f 62 76 77
f 64 79 65
f 65 79 67
f 65 67 66
f 67 79 81
f 67 81 80
f 68 75 74
f 69 80 81
f 69 81 82
f 69 82 83
f 76 84 85
f 76 85 86
f 76 86 87
f 76 87 77
f 81 83 82
f 84 88 89
f 84 89 85
f 85 90 86
f 86 90 87

