# https://github.com/mikedh/trimesh
v -3.44947477 -0.73409000 1.52326216
v -3.44947477 -0.73409000 1.60193347
v -3.44947477 -0.70981143 1.55349728
v -3.43291417 -0.70980193 1.55336305
v -3.41623329 -0.70980193 1.55326827
v -3.08297635 -0.70980193 1.55160219
v -3.06753852 -0.70980193 1.55155480
v -3.06629547 -0.70980193 1.55155480
v -3.03987069 -0.70980193 1.55165744
v -3.05117841 -0.73409000 1.52961875
v -3.44947477 -0.73404008 1.60273885
v -3.44001156 -0.73409000 1.60277045
v -3.44947477 -0.70980193 1.55844832
v -3.43411712 -0.70980193 1.55337884
v -3.03987069 -0.73409000 1.53059001
v -3.03987069 -0.70980193 1.60086743
v -3.33290903 -0.73409000 1.60371805
v -3.44947477 -0.70980193 1.59959612
v -3.03987069 -0.73409000 1.60386015
v -3.06509252 -0.70980193 1.60089116
v -3.06629547 -0.73409000 1.60392333
v -3.05699266 -0.73409000 1.60390753
v -3.31622812 -0.73409000 1.60378910
v -3.33290903 -0.70980193 1.60041735
v -3.06629547 -0.70980193 1.60089116
v -3.26502261 -0.70980193 1.60057525
f 1 2 11
f 1 11 18
f 1 18 13
f 1 13 3
f 1 3 4
f 1 4 5
f 1 5 6
f 1 6 7
f 1 7 8
f 1 8 9
f 1 9 10
f 1 10 15
f 1 15 19
f 1 19 22
f 1 22 21
f 1 21 23
f 1 23 17
f 1 17 12
f 1 12 2
f 2 12 11
f 3 13 14
f 3 14 4
f 4 14 13
f 4 13 18
f 4 18 24
f 4 24 26
f 4 26 25
f 4 25 20
f 4 20 16
f 4 16 9
f 4 9 8
f 4 8 7
f 4 7 6
f 4 6 5
f 9 15 10
f 9 16 19
f 9 19 15
f 11 17 18
f 11 12 17
f 16 20 21
f 16 21 22
f 16 22 19
f 17 23 24
f 17 24 18
f 20 25 21
f 21 25 23
f 23 25 26
f 23 26 24

