# https://github.com/mikedh/trimesh
v -0.00692511 -0.71901846 1.28408364
v -0.00664509 -0.71901846 1.04946632
v 0.06221912 -0.71901846 1.28408364
v -0.00657505 -0.65260704 1.28408364
v -0.00896224 -0.22015155 1.27673391
v 0.06254814 -0.71901846 1.04946632
v -0.00875922 -0.22015155 1.18173859
v -0.00832518 -0.22015155 1.04944335
v -0.00650508 -0.65260704 1.04944335
v 0.06254814 -0.71901846 1.05022426
v 0.06231014 -0.22015155 1.04944335
v 0.06177810 -0.22015155 1.27487349
v 0.06177113 -0.22015155 1.27673391
v 0.06207213 -0.65260704 1.28408364
v 0.06228915 -0.65260704 1.04944335
f 1 2 6
f 1 6 10
f 1 10 3
f 1 3 14
f 1 14 4
f 1 4 5
f 1 5 2
f 2 5 7
f 2 7 8
f 2 8 9
f 2 9 15
f 2 15 6
f 3 10 11
f 3 11 12
f 3 12 13
f 3 13 14
f 4 14 13
f 4 13 5
f 5 13 12
f 5 12 11
f 5 11 8
f 5 8 7
f 6 15 11
f 6 11 10
f 8 11 15
f 8 15 9

