# https://github.com/mikedh/trimesh
v 0.15771420 -0.70980473 1.65480126
v 0.19425434 -0.70980473 1.65480126
v 0.15608548 -0.70972161 1.65480126
v 0.15608548 -0.70980473 1.65474779
v 0.19668342 -0.70980473 1.60928762
v 0.19459849 -0.69558775 1.65480126
v 0.15586136 -0.70980473 1.60928762
v 0.15630555 -0.37645343 1.65480126
v 0.15594941 -0.28512373 1.60928762
v 0.15590542 -0.37196386 1.60928762
v 0.19462651 -0.69434063 1.65480126
v 0.19674345 -0.67767099 1.60928762
v 0.19473458 -0.67767099 1.65480126
v 0.19473058 -0.67891810 1.65480126
v 0.15631759 -0.35978379 1.65480126
v 0.15638560 -0.28512373 1.65480126
v 0.19629928 -0.28512373 1.60928762
v 0.19673147 -0.61099241 1.60928762
v 0.19463849 -0.61099241 1.65480126
v 0.19667145 -0.41103983 1.60928762
v 0.19400627 -0.28512373 1.65480126
f 1 2 6
f 1 6 11
f 1 11 14
f 1 14 13
f 1 13 19
f 1 19 21
f 1 21 16
f 1 16 15
f 1 15 8
f 1 8 3
f 1 3 4
f 1 4 7
f 1 7 5
f 1 5 2
f 2 5 6
f 3 7 4
f 3 8 9
f 3 9 10
f 3 10 7
f 5 11 6
f 5 7 10
f 5 10 9
f 5 9 17
f 5 17 20
f 5 20 18
f 5 18 12
f 5 12 13
f 5 13 14
f 5 14 11
f 8 15 9
f 9 15 16
f 9 16 21
f 9 21 17
f 12 18 13
f 13 18 20
f 13 20 19
f 17 21 20
f 19 20 21

