# https://github.com/mikedh/trimesh
v 1.66688101 -0.72301377 1.92712537
v 1.63615099 -0.72301377 1.92712537
v 1.66078764 -0.70965036 1.92712537
v 2.02040781 -0.72285549 1.93357918
v 1.70968488 -0.72301377 1.93202640
v 1.63615099 -0.72301377 1.99774314
v 1.63615099 -0.70965036 1.92712537
v 2.02040781 -0.70965036 1.93782861
v 2.02040781 -0.72285549 1.99789561
v 1.70968488 -0.72301377 1.99778474
v 1.63615099 -0.70965036 1.99664092
v 1.64081504 -0.72301377 1.99775697
v 1.64216909 -0.70965036 1.99666166
v 2.02040781 -0.70965036 1.99702215
v 2.01224572 -0.72285549 1.99792338
v 1.69546703 -0.72301377 1.99780548
v 1.65747771 -0.72301377 1.99780548
v 1.65747771 -0.70965036 1.99668944
v 1.99558311 -0.72285549 1.99794413
v 1.94074300 -0.70965036 1.99696672
v 1.67414038 -0.72301377 1.99782623
v 1.92408033 -0.70965036 1.99695277
f 1 2 7
f 1 7 3
f 1 3 4
f 1 4 5
f 1 5 10
f 1 10 16
f 1 16 21
f 1 21 17
f 1 17 12
f 1 12 6
f 1 6 2
f 2 6 11
f 2 11 7
f 3 7 11
f 3 11 13
f 3 13 18
f 3 18 22
f 3 22 20
f 3 20 14
f 3 14 8
f 3 8 4
f 4 8 14
f 4 14 9
f 4 9 10
f 4 10 5
f 6 12 13
f 6 13 11
f 9 14 15
f 9 15 10
f 10 15 16
f 12 17 13
f 13 17 18
f 14 19 15
f 14 20 21
f 14 21 19
f 15 19 16
f 16 19 21
f 17 21 18
f 18 21 22
f 20 22 21

