# https://github.com/mikedh/trimesh
v -0.19146526 -0.76037534 0.47803563
v -0.19299282 -0.77703831 0.47803563
v -0.19541154 -0.75801315 0.47803563
v -0.21896206 -0.75040606 0.48458803
v -0.21667066 -0.76037534 0.48520709
v -0.22055328 -0.78619238 0.48392230
v -0.21654341 -0.78813223 0.47803563
v -0.33703300 -0.77703831 0.51755453
v -0.33875153 -0.78596159 0.51703477
v -0.21520670 -0.74848092 0.47803563
v -0.23201035 -0.74886397 0.48612977
v -0.34868098 -0.74935018 0.51876341
v -0.33786044 -0.75089222 0.51735599
v -0.33633282 -0.76037534 0.51779981
v -0.23201035 -0.78751836 0.48534138
v -0.34868098 -0.78719422 0.51831956
v -0.23201035 -0.79002788 0.47803563
v -0.34868098 -0.76037534 0.52112273
v -0.34868098 -0.77703831 0.52067891
v -0.36535730 -0.77703831 0.52443401
v -0.42257872 -0.78553432 0.53333407
v -0.21743450 -0.74812734 0.47803563
v -0.23201035 -0.74609419 0.47803563
v -0.34868098 -0.74512673 0.50820478
v -0.36535730 -0.74791125 0.52069644
v -0.41965079 -0.75109848 0.53387135
v -0.36535730 -0.76037534 0.52509390
v -0.24868667 -0.78858895 0.48714592
v -0.36535730 -0.78842197 0.52003068
v -0.34868098 -0.79049933 0.50820478
v -0.36535730 -0.79176144 0.50820478
v -0.24868667 -0.79120160 0.47803563
v -0.38203363 -0.76037534 0.52834092
v -0.38203363 -0.77703831 0.52743572
v -0.41061251 -0.77703831 0.53244640
v -0.41895067 -0.77703831 0.53377792
v -0.43199895 -0.77703831 0.53499845
v -0.44867525 -0.77703831 0.53606133
v -0.43199895 -0.78601067 0.53373119
v -0.23608394 -0.74571114 0.47803563
v -0.36535730 -0.74371728 0.50820478
v -0.38203363 -0.74745945 0.52219145
v -0.43199895 -0.75023906 0.53451958
v -0.43199895 -0.76037534 0.53579269
v -0.41678659 -0.76037534 0.53418085
v -0.40844842 -0.76037534 0.53284936
v -0.38203363 -0.78871663 0.52128626
v -0.31539198 -0.79206101 0.49154341
v -0.44867525 -0.78993457 0.52487199
v -0.38203363 -0.79207577 0.50820478
v -0.29871565 -0.79203154 0.47803563
v -0.44867525 -0.76037534 0.53671541
v -0.46535158 -0.77703831 0.53674458
v -0.44867525 -0.78659999 0.53425679
v -0.24868667 -0.74500396 0.47803563
v -0.25218740 -0.74484680 0.47803563
v -0.31539198 -0.74404141 0.49154341
v -0.38203363 -0.74333423 0.50820478
v -0.44867525 -0.74555398 0.52487199
v -0.43199895 -0.74599108 0.52487199
v -0.44867525 -0.74977742 0.53491670
v -0.46535158 -0.76037534 0.53724685
v -0.43199895 -0.78937470 0.52487199
v -0.31539198 -0.79213961 0.47803563
v -0.46535158 -0.78691921 0.53458381
v -0.46535158 -0.79021448 0.52487199
v -0.48202790 -0.79032744 0.52487199
v -0.39870996 -0.79209050 0.50820478
v -0.48202790 -0.77703831 0.53710084
v -0.28515817 -0.74430168 0.47803563
v -0.48202790 -0.74521021 0.52487199
v -0.46535158 -0.74537719 0.52487199
v -0.68195285 -0.74197389 0.50820478
v -0.48202790 -0.74943365 0.53523204
v -0.46535158 -0.74959572 0.53508604
v -0.48202790 -0.76037534 0.53757971
v -0.38203363 -0.79199719 0.47803563
v -0.41538628 -0.79208557 0.50820478
v -0.48202790 -0.78707147 0.53475902
v -0.49870423 -0.78707635 0.53477654
v -0.49870423 -0.79029799 0.52487199
v -0.49870423 -0.76037534 0.53768483
v -0.49870423 -0.77703831 0.53717091
v -0.74865814 -0.74242078 0.47803563
v -0.73198182 -0.74205736 0.49154341
v -0.49870423 -0.74514638 0.52487199
v -0.49870423 -0.74937965 0.53529046
v -0.69862918 -0.74209664 0.50820478
v -0.61531120 -0.74521021 0.52487199
v -0.59863487 -0.74513165 0.52487199
v -0.58195855 -0.74506289 0.52487199
v -0.56528222 -0.74500886 0.52487199
v -0.54860589 -0.74500396 0.52487199
v -0.53199323 -0.74504814 0.52487199
v -0.43199895 -0.79204630 0.50820478
v -0.46223274 -0.79179091 0.47803563
v -0.51538056 -0.77703831 0.53710669
v -0.51538056 -0.78701744 0.53472397
v -0.46535158 -0.79192843 0.50820478
v -0.44867525 -0.79199226 0.50820478
v -0.54860589 -0.78689465 0.53460133
v -0.56528222 -0.78682589 0.53453711
v -0.51538056 -0.79020468 0.52487199
v -0.66527652 -0.79110828 0.50820478
v -0.64866386 -0.79118687 0.50820478
v -0.51538056 -0.74937473 0.53530798
v -0.53199323 -0.74935509 0.53531382
v -0.54860589 -0.74933545 0.53531382
v -0.51538056 -0.76037534 0.53768483
v -0.54860589 -0.76037534 0.53766146
v -0.76527081 -0.74239622 0.47803563
v -0.78175618 -0.74249934 0.47803563
v -0.74865814 -0.74242569 0.49154341
v -0.79862348 -0.74306414 0.47803563
v -0.71530549 -0.74339315 0.50820478
v -0.69862918 -0.74704202 0.52150233
v -0.68195285 -0.74680629 0.52288642
v -0.63198753 -0.74558346 0.52487199
v -0.61531120 -0.74977252 0.53479407
v -0.59863487 -0.74960556 0.53498677
v -0.56528222 -0.74939929 0.53524373
v -0.48202790 -0.79173199 0.47803563
v -0.47884541 -0.79174181 0.47803563
v -0.56528222 -0.77703831 0.53688475
v -0.53199323 -0.78695360 0.53466559
v -0.53199323 -0.79160429 0.49154341
v -0.54860589 -0.79148642 0.47803563
v -0.53199323 -0.79155029 0.47803563
v -0.48202790 -0.79179583 0.49154341
v -0.58195855 -0.78670806 0.53442615
v -0.58195855 -0.78972339 0.52487199
v -0.56528222 -0.78986582 0.52487199
v -0.68195285 -0.79095605 0.50820478
v -0.74547565 -0.79055333 0.47803563
v -0.72879932 -0.79066140 0.47803563
v -0.69551032 -0.79085782 0.47803563
v -0.67883400 -0.79095114 0.47803563
v -0.66527652 -0.79101497 0.47803563
v -0.56528222 -0.76037534 0.53758555
v -0.81529978 -0.74584864 0.47803563
v -0.79862348 -0.74704691 0.48780587
v -0.71530549 -0.74850057 0.51932987
v -0.65674742 -0.75244410 0.53317054
v -0.64560865 -0.75115744 0.53374871
v -0.63198753 -0.75029799 0.53434437
v -0.59863487 -0.76037534 0.53697237
v -0.58195855 -0.76037534 0.53731107
v -0.58195855 -0.77703831 0.53662779
v -0.59863487 -0.78653615 0.53425679
v -0.59863487 -0.78952696 0.52487199
v -0.69862918 -0.79062213 0.50820478
v -0.76215196 -0.79035690 0.47803563
v -0.61531120 -0.78923719 0.52487199
v -0.82860266 -0.74864791 0.47803563
v -0.81529978 -0.74964976 0.48498518
v -0.72612601 -0.75048461 0.51750199
v -0.69862918 -0.76037534 0.52669990
v -0.65891150 -0.76355274 0.53349175
v -0.65019145 -0.75895117 0.53413415
v -0.63198753 -0.76037534 0.53560580
v -0.68195285 -0.76037534 0.52975418
v -0.61531120 -0.76037534 0.53644093
v -0.59863487 -0.77703831 0.53624819
v -0.61531120 -0.78626606 0.53399983
v -0.68195285 -0.78816662 0.52164249
v -0.69862918 -0.78790141 0.52014747
v -0.71530549 -0.78940418 0.50820478
v -0.74865814 -0.79008681 0.49154341
v -0.77914655 -0.78983143 0.47803563
v -0.63198753 -0.78879031 0.52487199
v -0.84165094 -0.76037534 0.47803563
v -0.82414715 -0.75172219 0.48336749
v -0.72746266 -0.76037534 0.51803927
v -0.71530549 -0.76037534 0.52219729
v -0.71530549 -0.77703831 0.52101178
v -0.69862918 -0.77703831 0.52534501
v -0.65891150 -0.77171973 0.53349175
v -0.63198753 -0.77703831 0.53486997
v -0.61531120 -0.77703831 0.53564669
v -0.64198060 -0.78550487 0.53331654
v -0.63198753 -0.78583881 0.53360855
v -0.66527652 -0.78825990 0.52313754
v -0.71530549 -0.78675225 0.51814438
v -0.74865814 -0.78749380 0.50310651
v -0.79862348 -0.78715003 0.48573269
v -0.79862348 -0.78888362 0.47803563
v -0.79474080 -0.78915371 0.47803563
v -0.83528592 -0.77644900 0.47803563
v -0.82421081 -0.77015803 0.48339086
v -0.72618966 -0.77703831 0.51753116
v -0.72440746 -0.78565710 0.51682455
v -0.68195285 -0.77703831 0.52850444
v -0.65305571 -0.78283327 0.53259240
v -0.64796370 -0.77718074 0.53387135
v -0.81046237 -0.78625133 0.48422599
v -0.81434505 -0.78736612 0.47803563
v -0.81179905 -0.78763132 0.47803563
v -0.82542017 -0.78364359 0.47803563
v -0.82160114 -0.78127159 0.48188416
f 1 2 7
f 1 7 17
f 1 17 32
f 1 32 51
f 1 51 64
f 1 64 77
f 1 77 96
f 1 96 123
f 1 123 122
f 1 122 128
f 1 128 127
f 1 127 138
f 1 138 137
f 1 137 136
f 1 136 135
f 1 135 134
f 1 134 152
f 1 152 169
f 1 169 187
f 1 187 186
f 1 186 197
f 1 197 196
f 1 196 198
f 1 198 188
f 1 188 171
f 1 171 154
f 1 154 140
f 1 140 114
f 1 114 112
f 1 112 111
f 1 111 84
f 1 84 70
f 1 70 56
f 1 56 55
f 1 55 40
f 1 40 23
f 1 23 22
f 1 22 10
f 1 10 3
f 1 3 4
f 1 4 5
f 1 5 2
f 2 6 7
f 2 5 8
f 2 8 9
f 2 9 6
f 3 10 4
f 4 10 11
f 4 11 12
f 4 12 13
f 4 13 5
f 5 13 14
f 5 14 8
f 6 15 7
f 6 9 16
f 6 16 15
f 7 15 17
f 8 14 18
f 8 18 19
f 8 19 9
f 9 19 20
f 9 20 21
f 9 21 16
f 10 22 11
f 11 22 23
f 11 23 24
f 11 24 25
f 11 25 12
f 12 25 26
f 12 26 13
f 13 26 27
f 13 27 18
f 13 18 14
f 15 28 17
f 15 16 29
f 15 29 28
f 16 21 29
f 17 28 29
f 17 29 30
f 17 30 31
f 17 31 32
f 18 27 19
f 19 27 20
f 20 27 33
f 20 33 34
f 20 34 21
f 21 34 35
f 21 35 36
f 21 36 37
f 21 37 38
f 21 38 39
f 21 39 29
f 23 40 24
f 24 41 25
f 24 40 41
f 25 41 42
f 25 42 43
f 25 43 26
f 26 43 44
f 26 44 45
f 26 45 46
f 26 46 33
f 26 33 27
f 29 31 30
f 29 39 47
f 29 47 31
f 31 48 32
f 31 47 49
f 31 49 50
f 31 50 48
f 32 48 51
f 33 46 35
f 33 35 34
f 35 46 45
f 35 45 36
f 36 45 44
f 36 44 37
f 37 44 38
f 38 52 53
f 38 53 39
f 38 44 52
f 39 54 47
f 39 53 54
f 40 55 41
f 41 55 56
f 41 56 57
f 41 57 58
f 41 58 59
f 41 59 60
f 41 60 42
f 42 60 43
f 43 60 61
f 43 61 62
f 43 62 52
f 43 52 44
f 47 54 63
f 47 63 49
f 48 64 51
f 48 50 64
f 49 63 54
f 49 54 65
f 49 65 66
f 49 66 50
f 50 66 67
f 50 67 68
f 50 68 64
f 52 62 53
f 53 62 69
f 53 69 65
f 53 65 54
f 56 70 57
f 57 70 58
f 58 71 72
f 58 72 59
f 58 70 73
f 58 73 71
f 59 72 74
f 59 74 75
f 59 75 61
f 59 61 60
f 61 75 76
f 61 76 62
f 62 76 69
f 64 68 78
f 64 78 77
f 65 69 79
f 65 79 66
f 66 79 67
f 67 79 80
f 67 80 81
f 67 81 78
f 67 78 68
f 69 76 82
f 69 82 83
f 69 83 79
f 70 84 85
f 70 85 73
f 71 86 87
f 71 87 74
f 71 74 72
f 71 73 86
f 73 85 88
f 73 88 89
f 73 89 90
f 73 90 91
f 73 91 92
f 73 92 93
f 73 93 94
f 73 94 86
f 74 87 82
f 74 82 76
f 74 76 75
f 77 78 95
f 77 95 96
f 78 81 95
f 79 83 80
f 80 83 97
f 80 97 98
f 80 98 81
f 81 99 100
f 81 100 95
f 81 98 101
f 81 101 102
f 81 102 103
f 81 103 104
f 81 104 105
f 81 105 99
f 82 87 106
f 82 106 107
f 82 107 108
f 82 108 109
f 82 109 83
f 83 109 110
f 83 110 97
f 84 111 85
f 85 111 112
f 85 112 88
f 86 94 87
f 87 94 93
f 87 93 108
f 87 108 107
f 87 107 106
f 88 112 113
f 88 113 114
f 88 114 115
f 88 115 116
f 88 116 117
f 88 117 118
f 88 118 89
f 89 118 119
f 89 119 120
f 89 120 121
f 89 121 108
f 89 108 90
f 90 108 91
f 91 108 92
f 92 108 93
f 95 100 122
f 95 122 123
f 95 123 96
f 97 110 124
f 97 124 125
f 97 125 98
f 98 125 101
f 99 105 126
f 99 126 127
f 99 127 128
f 99 128 100
f 100 128 129
f 100 129 122
f 101 125 124
f 101 124 102
f 102 124 130
f 102 130 131
f 102 131 132
f 102 132 103
f 103 132 104
f 104 132 131
f 104 131 133
f 104 133 134
f 104 134 135
f 104 135 136
f 104 136 137
f 104 137 105
f 105 137 138
f 105 138 126
f 108 110 109
f 108 121 139
f 108 139 110
f 110 139 124
f 112 114 113
f 114 140 141
f 114 141 115
f 115 142 116
f 115 141 142
f 116 142 143
f 116 143 144
f 116 144 145
f 116 145 117
f 117 145 119
f 117 119 118
f 119 146 147
f 119 147 139
f 119 139 120
f 119 145 146
f 120 139 121
f 122 129 128
f 124 139 148
f 124 148 149
f 124 149 130
f 126 138 127
f 130 149 150
f 130 150 131
f 131 150 133
f 133 151 152
f 133 152 134
f 133 150 153
f 133 153 151
f 139 147 148
f 140 154 141
f 141 154 155
f 141 155 142
f 142 155 156
f 142 156 157
f 142 157 143
f 143 158 159
f 143 159 160
f 143 160 144
f 143 157 161
f 143 161 158
f 144 160 145
f 145 160 162
f 145 162 146
f 146 162 163
f 146 163 148
f 146 148 147
f 148 163 164
f 148 164 149
f 149 164 153
f 149 153 150
f 151 165 166
f 151 166 167
f 151 167 168
f 151 168 152
f 151 153 165
f 152 168 169
f 153 164 170
f 153 170 165
f 154 171 172
f 154 172 155
f 155 172 156
f 156 173 174
f 156 174 157
f 156 172 173
f 157 174 175
f 157 175 176
f 157 176 177
f 157 177 161
f 158 177 160
f 158 160 159
f 158 161 177
f 160 178 162
f 160 177 178
f 162 179 163
f 162 178 179
f 163 179 180
f 163 180 181
f 163 181 164
f 164 181 182
f 164 182 170
f 165 170 182
f 165 182 181
f 165 181 180
f 165 180 166
f 166 183 184
f 166 184 167
f 166 180 183
f 167 184 185
f 167 185 186
f 167 186 168
f 168 186 187
f 168 187 169
f 171 173 172
f 171 188 189
f 171 189 190
f 171 190 173
f 173 190 174
f 174 190 175
f 175 190 191
f 175 191 176
f 176 192 177
f 176 191 193
f 176 193 192
f 177 193 194
f 177 194 178
f 177 192 193
f 178 194 180
f 178 180 179
f 180 194 193
f 180 193 183
f 183 191 195
f 183 195 185
f 183 185 184
f 183 193 191
f 185 195 196
f 185 196 197
f 185 197 186
f 188 198 199
f 188 199 191
f 188 191 189
f 189 191 190
f 191 199 195
f 195 199 198
f 195 198 196

