# https://github.com/mikedh/trimesh
v -1.08727291 1.63969124 0.15925319
v -1.08727291 1.94528971 0.15913612
v -1.08727291 1.63969124 0.12094300
v -0.92770738 1.63969124 0.16166747
v -0.92792360 1.94528971 0.16155851
v -1.08727291 1.94528971 0.12093090
v -1.06154349 1.63969124 0.12084203
v -0.91098689 1.63969124 0.16181282
v -0.91127517 1.94528971 0.16173612
v -1.08374143 1.94528971 0.12091879
v -1.04489506 1.63969124 0.12082187
v -1.07797572 1.94528971 0.12090668
v -0.89433845 1.63969124 0.16186131
v -0.89455466 1.94528971 0.16179672
v -1.06132729 1.94528971 0.12088646
v -1.04467886 1.63969124 0.12082187
v -0.84432108 1.63969124 0.16185320
v -0.35524628 1.94528971 0.16206719
v -0.37203889 1.94528971 0.16205914
v -0.87790623 1.94528971 0.16181282
v -1.04467886 1.94528971 0.12089052
v -0.76107892 1.94528971 0.12104797
v -0.41102935 1.63969124 0.12138304
v -0.37744419 1.63969124 0.16158672
v -0.35099408 1.94528971 0.16205914
v -0.41102935 1.94528971 0.12141536
v -0.35099408 1.63969124 0.12143958
v -0.36086783 1.63969124 0.16155445
v -0.35099408 1.63969124 0.16151813
v -0.35099408 1.94528971 0.12149206
v -0.40000245 1.94528971 0.12142747
f 1 2 6
f 1 6 3
f 1 3 7
f 1 7 11
f 1 11 16
f 1 16 23
f 1 23 27
f 1 27 29
f 1 29 28
f 1 28 24
f 1 24 17
f 1 17 13
f 1 13 8
f 1 8 4
f 1 4 5
f 1 5 2
f 2 5 9
f 2 9 14
f 2 14 20
f 2 20 19
f 2 19 18
f 2 18 25
f 2 25 30
f 2 30 31
f 2 31 26
f 2 26 22
f 2 22 21
f 2 21 15
f 2 15 12
f 2 12 10
f 2 10 6
f 3 6 7
f 4 8 9
f 4 9 5
f 6 10 7
f 7 10 12
f 7 12 15
f 7 15 11
f 8 13 14
f 8 14 9
f 11 15 16
f 13 17 18
f 13 18 19
f 13 19 20
f 13 20 14
f 15 21 16
f 16 21 22
f 16 22 23
f 17 24 18
f 18 24 25
f 22 26 27
f 22 27 23
f 24 28 25
f 25 28 29
f 25 29 27
f 25 27 30
f 26 31 27
f 27 31 30

