# https://github.com/mikedh/trimesh
v -3.96862822 -0.46358633 0.74237678
v -3.96867567 -0.46358633 0.73686304
v -3.93071728 -0.46358633 0.74237678
v -3.97081173 -0.23310321 0.74237678
v -3.96860843 -0.46358633 0.63688418
v -3.93063425 -0.46358633 0.60354266
v -3.93040483 -0.23310321 0.74230064
v -3.93040876 -0.23321601 0.74237678
v -3.93104165 -0.23310321 0.74237678
v -3.97076822 -0.23310321 0.73142542
v -3.96857285 -0.46358633 0.61763170
v -3.96858077 -0.46358633 0.62020581
v -3.96860450 -0.46358633 0.63429482
v -3.93070542 -0.46358633 0.58945362
v -3.93070148 -0.46356377 0.58678811
v -3.93070542 -0.23310321 0.65354730
v -3.93041270 -0.23310321 0.73686304
v -3.96938377 -0.23310321 0.58687951
v -3.96939164 -0.23317089 0.58678811
v -3.96850955 -0.46358633 0.60354266
v -3.93072520 -0.46358633 0.58687951
v -3.93090718 -0.46358633 0.58678811
v -3.93091111 -0.37753869 0.58678811
v -3.93082016 -0.23310321 0.64230655
v -3.93200683 -0.23310321 0.58678811
v -3.96824848 -0.46358633 0.58678811
v -3.96847003 -0.46358633 0.60096855
v -3.93141347 -0.23310321 0.58678811
v -3.93134623 -0.23310321 0.59230188
v -3.93116032 -0.23310321 0.60898026
f 1 2 5
f 1 5 13
f 1 13 12
f 1 12 11
f 1 11 20
f 1 20 27
f 1 27 26
f 1 26 22
f 1 22 21
f 1 21 14
f 1 14 6
f 1 6 3
f 1 3 8
f 1 8 9
f 1 9 4
f 1 4 2
f 2 4 5
f 3 6 7
f 3 7 8
f 4 9 7
f 4 7 17
f 4 17 16
f 4 16 24
f 4 24 30
f 4 30 29
f 4 29 28
f 4 28 25
f 4 25 18
f 4 18 10
f 4 10 11
f 4 11 12
f 4 12 13
f 4 13 5
f 6 14 15
f 6 15 16
f 6 16 17
f 6 17 7
f 7 9 8
f 10 18 19
f 10 19 20
f 10 20 11
f 14 21 15
f 15 21 22
f 15 22 26
f 15 26 19
f 15 19 25
f 15 25 28
f 15 28 23
f 15 23 16
f 16 23 24
f 18 25 19
f 19 26 27
f 19 27 20
f 23 28 29
f 23 29 30
f 23 30 24

