# https://github.com/mikedh/trimesh
v -2.53284261 -0.23291632 0.87832455
v -2.53284261 -0.23291632 0.89760215
v -2.53284261 -0.24438292 0.83633941
v -2.53286174 -0.23291632 0.83300473
v -2.54962005 -0.23291632 0.89761485
v -2.53284261 -0.24438292 0.89759579
v -2.53284261 -0.24447653 0.83633941
v -2.53284261 -0.26441439 0.83649185
v -2.53297639 -0.71105059 0.83679039
v -2.64957751 -0.23291632 0.83275066
v -2.53295729 -0.24438292 0.89759579
v -2.72801862 -0.23291632 0.89744970
v -2.72801862 -0.24438292 0.89744335
v -2.56628281 -0.24438292 0.89757674
v -2.53297639 -0.69429531 0.89663668
v -2.53284261 -0.26104461 0.89750688
v -2.53284261 -0.26441439 0.83710162
v -2.53297639 -0.71105059 0.89623016
v -2.72803772 -0.71105059 0.83673321
v -2.66624027 -0.23291632 0.83272526
v -2.72801862 -0.23291632 0.83275066
v -2.72803772 -0.26441439 0.89738619
v -2.72801862 -0.26104461 0.89739889
v -2.56628281 -0.69429531 0.89659857
v -2.56628281 -0.71105059 0.89645248
v -2.53301460 -0.71105059 0.89644613
v -2.53297639 -0.71100379 0.89642707
v -2.53284261 -0.26436758 0.89748782
v -2.72803772 -0.71105059 0.89573473
v -2.72803772 -0.66097192 0.83651726
v -2.71622855 -0.23291632 0.83273161
v -2.69956579 -0.23291632 0.83272526
v -2.72803772 -0.46594593 0.83641563
v -2.72803772 -0.26441439 0.83637752
v -2.72803772 -0.55608754 0.89647788
v -2.72803772 -0.57274923 0.89642072
v -2.72803772 -0.59427837 0.89633815
v -2.72803772 -0.67763361 0.89596339
v -2.72803772 -0.69429531 0.89588717
v -2.72803772 -0.70608953 0.89578554
f 1 2 6
f 1 6 16
f 1 16 28
f 1 28 17
f 1 17 8
f 1 8 7
f 1 7 3
f 1 3 4
f 1 4 10
f 1 10 20
f 1 20 32
f 1 32 31
f 1 31 21
f 1 21 12
f 1 12 5
f 1 5 2
f 2 5 6
f 3 7 4
f 4 7 8
f 4 8 9
f 4 9 10
f 5 11 6
f 5 12 13
f 5 13 14
f 5 14 15
f 5 15 11
f 6 11 15
f 6 15 16
f 8 17 18
f 8 18 9
f 9 18 26
f 9 26 25
f 9 25 29
f 9 29 19
f 9 19 20
f 9 20 10
f 12 21 34
f 12 34 22
f 12 22 13
f 13 23 24
f 13 24 15
f 13 15 14
f 13 22 23
f 15 24 25
f 15 25 26
f 15 26 27
f 15 27 28
f 15 28 16
f 17 28 18
f 18 28 27
f 18 27 26
f 19 29 40
f 19 40 39
f 19 39 38
f 19 38 37
f 19 37 36
f 19 36 35
f 19 35 22
f 19 22 34
f 19 34 33
f 19 33 30
f 19 30 21
f 19 21 31
f 19 31 32
f 19 32 20
f 21 30 33
f 21 33 34
f 22 35 23
f 23 35 24
f 24 35 36
f 24 36 37
f 24 37 38
f 24 38 39
f 24 39 40
f 24 40 25
f 25 40 29

