# https://github.com/mikedh/trimesh
v -1.84047116 -0.38848273 1.00704001
v -1.84045734 -0.39371346 1.00704001
v -1.90958369 -0.38848273 1.00704001
v -1.83951516 -0.38848273 1.28532778
v -1.84045036 -0.40920150 1.00704001
v -1.91024876 -0.62702927 1.00704001
v -1.90958369 -0.38848273 1.00821456
v -1.83951516 -0.38848273 1.40454602
v -1.83951516 -0.56035667 1.28507610
v -1.84037419 -0.62702927 1.00821456
v -1.84038110 -0.62585554 1.00704001
v -1.91028339 -0.64369103 1.00704001
v -1.91028339 -0.64369103 1.00821456
v -1.91008252 -0.64369103 1.24161721
v -1.91005480 -0.62702927 1.22492163
v -1.91003400 -0.62702927 1.24161721
v -1.90862762 -0.38848273 1.77486932
v -1.83951516 -0.45747726 1.40538500
v -1.84013863 -0.38848273 1.69147529
v -1.84000702 -0.44372428 1.69147529
v -1.83997930 -0.46038605 1.69147529
v -1.83992387 -0.56035667 1.69147529
v -1.83989615 -0.57701844 1.67486357
v -1.83951516 -0.58059064 1.28507610
v -1.84037419 -0.64915139 1.00821456
v -1.84038110 -0.64915139 1.00704001
v -1.91028339 -0.64915139 1.00704001
v -1.91028339 -0.64915139 1.00821456
v -1.91008252 -0.64915139 1.24161721
v -1.90965295 -0.64369103 1.52485495
v -1.90965992 -0.62702927 1.50815937
v -1.90963220 -0.62702927 1.52485495
v -1.90952825 -0.62702927 1.57485783
v -1.90859299 -0.38848273 1.79148104
v -1.83951516 -0.47431764 1.40555282
v -1.84016634 -0.38848273 1.70296919
v -1.84018023 -0.38848273 1.70817081
v -1.84021486 -0.38848273 1.71958090
v -1.84002776 -0.46038605 1.70817081
v -1.84020097 -0.64915139 1.79693431
v -1.84015252 -0.64915139 1.78032260
v -1.84004165 -0.64915139 1.74147816
v -1.83992387 -0.57701844 1.69147529
v -1.84000702 -0.64915139 1.72486645
v -1.83951516 -0.64915139 1.40496553
v -1.83951516 -0.59368021 1.40555282
v -1.83951516 -0.57701844 1.40572060
v -1.83951516 -0.57446687 1.40572060
v -1.83951516 -0.64915139 1.28557946
v -1.90965295 -0.64915139 1.51940162
v -1.90961832 -0.64915139 1.54146667
v -1.90962523 -0.64369103 1.54146667
v -1.90955597 -0.64369103 1.57485783
v -1.90908491 -0.62702927 1.75817368
v -1.90842675 -0.38848273 1.86413613
v -1.90844058 -0.38848273 1.85817943
v -1.84023560 -0.38848273 1.72486645
v -1.84009708 -0.46038605 1.72486645
v -1.84033956 -0.64915139 1.83611444
v -1.84033264 -0.64915139 1.83426871
v -1.90959757 -0.64915139 1.55270891
v -1.90956288 -0.64915139 1.56940449
v -1.90889781 -0.64915139 1.84148391
v -1.90884244 -0.64915139 1.86413613
v -1.90902250 -0.64369103 1.79148104
v -1.90904331 -0.62702927 1.77486932
v -1.90885626 -0.64369103 1.85817943
v -1.90884244 -0.64721220 1.86413613
v -1.84139951 -0.38848273 1.86413613
v -1.84030493 -0.38848273 1.73820614
v -1.84038110 -0.64915139 1.84358130
v -1.84056814 -0.64915139 1.86413613
v -1.90893941 -0.64369103 1.82487220
v -1.84108081 -0.47704782 1.86413613
v -1.84095611 -0.47704782 1.85817943
v -1.84128865 -0.38848273 1.85817943
v -1.84092148 -0.38848273 1.82487220
v -1.84074827 -0.47704782 1.84148391
v -1.84063049 -0.47704782 1.82487220
v -1.84048505 -0.64915139 1.85775993
v -1.84056123 -0.64915139 1.86363282
v -1.84106006 -0.38848273 1.84148391
v -1.84121247 -0.38848273 1.85297781
v -1.84101154 -0.38848273 1.83628223
f 1 2 5
f 1 5 11
f 1 11 26
f 1 26 27
f 1 27 12
f 1 12 6
f 1 6 3
f 1 3 7
f 1 7 17
f 1 17 34
f 1 34 56
f 1 56 55
f 1 55 69
f 1 69 76
f 1 76 83
f 1 83 82
f 1 82 84
f 1 84 77
f 1 77 70
f 1 70 57
f 1 57 38
f 1 38 37
f 1 37 36
f 1 36 19
f 1 19 8
f 1 8 4
f 1 4 2
f 2 4 5
f 3 6 7
f 4 8 18
f 4 18 35
f 4 35 48
f 4 48 47
f 4 47 46
f 4 46 45
f 4 45 49
f 4 49 24
f 4 24 9
f 4 9 10
f 4 10 5
f 5 10 11
f 6 12 13
f 6 13 14
f 6 14 15
f 6 15 7
f 7 15 16
f 7 16 17
f 8 19 20
f 8 20 21
f 8 21 22
f 8 22 23
f 8 23 18
f 9 24 25
f 9 25 10
f 10 25 26
f 10 26 11
f 12 27 28
f 12 28 13
f 13 28 29
f 13 29 14
f 14 16 15
f 14 29 30
f 14 30 31
f 14 31 17
f 14 17 16
f 17 31 32
f 17 32 33
f 17 33 34
f 18 23 35
f 19 36 20
f 20 36 37
f 20 37 38
f 20 38 39
f 20 39 21
f 21 39 22
f 22 39 40
f 22 40 41
f 22 41 42
f 22 42 43
f 22 43 23
f 23 43 44
f 23 44 45
f 23 45 46
f 23 46 47
f 23 47 48
f 23 48 35
f 24 49 25
f 25 49 45
f 25 45 44
f 25 44 42
f 25 42 41
f 25 41 40
f 25 40 60
f 25 60 59
f 25 59 71
f 25 71 80
f 25 80 81
f 25 81 72
f 25 72 64
f 25 64 63
f 25 63 62
f 25 62 61
f 25 61 51
f 25 51 50
f 25 50 29
f 25 29 28
f 25 28 27
f 25 27 26
f 29 50 30
f 30 50 51
f 30 51 52
f 30 52 32
f 30 32 31
f 32 52 53
f 32 53 33
f 33 53 54
f 33 54 55
f 33 55 56
f 33 56 34
f 38 57 39
f 39 57 58
f 39 58 59
f 39 59 60
f 39 60 40
f 42 44 43
f 51 61 52
f 52 61 62
f 52 62 53
f 53 62 63
f 53 63 64
f 53 64 65
f 53 65 54
f 54 65 73
f 54 73 66
f 54 66 55
f 55 67 68
f 55 68 64
f 55 64 72
f 55 72 74
f 55 74 69
f 55 66 67
f 57 70 58
f 58 70 59
f 59 70 71
f 64 68 65
f 65 68 73
f 66 73 67
f 67 73 68
f 69 74 75
f 69 75 76
f 70 77 78
f 70 78 79
f 70 79 71
f 71 79 78
f 71 78 80
f 72 81 75
f 72 75 74
f 75 80 78
f 75 78 82
f 75 82 83
f 75 83 76
f 75 81 80
f 77 84 78
f 78 84 82

