# https://github.com/mikedh/trimesh
v -1.81659615 -0.80907075 0.75283750
v -1.81659615 -0.80627538 0.74033024
v -1.78737908 -0.80878565 0.75283750
v -1.81659615 -0.73803232 0.75283750
v -1.78680746 -0.80539922 0.74040308
v -1.81659615 -0.79345285 0.70556244
v -1.78680746 -0.80876480 0.75283750
v -1.78680746 -0.73904755 0.75283750
v -1.81659615 -0.74008363 0.72487952
v -1.81659615 -0.79247935 0.70322130
v -1.78680746 -0.79911314 0.72585093
v -1.78680746 -0.74300416 0.72487952
v -1.81659615 -0.74255915 0.70725761
v -1.81641530 -0.79222207 0.70322130
v -1.78680746 -0.77703531 0.70669902
v -1.78680746 -0.78653398 0.71020106
v -1.78680746 -0.79033068 0.71164852
v -1.81659615 -0.74460353 0.70322130
v -1.78680746 -0.74644625 0.71586942
v -1.81659615 -0.74264954 0.70696132
v -1.80981606 -0.77703531 0.70322130
v -1.81062675 -0.76030485 0.70322130
v -1.78680746 -0.77224424 0.70684476
v -1.78680746 -0.74792039 0.71220711
v -1.78680746 -0.76037438 0.70725761
f 1 2 3
f 1 3 7
f 1 7 8
f 1 8 4
f 1 4 9
f 1 9 13
f 1 13 20
f 1 20 18
f 1 18 10
f 1 10 6
f 1 6 2
f 2 5 3
f 2 6 5
f 3 5 7
f 4 8 9
f 5 6 10
f 5 10 11
f 5 11 17
f 5 17 16
f 5 16 15
f 5 15 23
f 5 23 25
f 5 25 24
f 5 24 19
f 5 19 12
f 5 12 8
f 5 8 7
f 8 12 13
f 8 13 9
f 10 14 15
f 10 15 16
f 10 16 17
f 10 17 11
f 10 18 22
f 10 22 21
f 10 21 14
f 12 19 20
f 12 20 13
f 14 21 15
f 15 21 22
f 15 22 23
f 18 20 24
f 18 24 25
f 18 25 22
f 19 24 20
f 22 25 23

