# https://github.com/mikedh/trimesh
v -1.83852690 -0.54429783 0.18477082
v -1.83856225 -0.56037558 0.18477082
v -1.83859050 -0.52704599 0.18477082
v -1.84613687 -0.46618536 0.20743329
v -1.84595311 -0.56037558 0.20743329
v -1.84567052 -0.71092179 0.20743329
v -1.83856934 -0.56099856 0.18477082
v -1.83885199 -0.51039318 0.18477082
v -1.83978463 -0.46618536 0.18477082
v -1.91027350 -0.46618536 0.20743329
v -1.84869471 -0.71096972 0.20743329
v -1.84342359 -0.71096972 0.18477082
v -1.91060556 -0.46618536 0.18477082
v -1.91070450 -0.71096972 0.20743329
v -1.91069741 -0.71096972 0.18477082
v -1.91064799 -0.52704599 0.18477082
v -1.91065503 -0.54372277 0.18477082
f 1 2 7
f 1 7 12
f 1 12 15
f 1 15 17
f 1 17 16
f 1 16 13
f 1 13 9
f 1 9 8
f 1 8 3
f 1 3 4
f 1 4 5
f 1 5 6
f 1 6 2
f 2 6 7
f 3 8 4
f 4 8 9
f 4 9 13
f 4 13 10
f 4 10 14
f 4 14 11
f 4 11 6
f 4 6 5
f 6 11 12
f 6 12 7
f 10 13 14
f 11 14 15
f 11 15 12
f 13 16 14
f 14 17 15
f 14 16 17

