# https://github.com/mikedh/trimesh
v 1.14187353 -0.67698053 1.89598545
v 1.14529352 -0.67698053 1.89693860
v 1.14878298 -0.72351794 1.89567116
v 1.14187353 -0.72351794 1.89446451
v 1.14187037 -0.67698053 1.92006753
v 1.15696191 -0.72351794 1.90261694
v 1.15642823 -0.72351794 1.90193756
v 1.17411239 -0.67698053 1.93671709
v 1.14187037 -0.72351794 1.92006753
v 1.14187037 -0.67698053 1.99655211
v 1.17413133 -0.72351794 1.92899060
v 1.17413133 -0.67698053 1.93923177
v 1.17413133 -0.67768205 1.93672728
v 1.14187037 -0.72351794 1.99805285
v 1.15813980 -0.67698053 1.99655211
v 1.17413133 -0.72351794 1.99762703
v 1.17413133 -0.67698053 1.99653184
v 1.16160400 -0.72351794 1.99801231
v 1.17413133 -0.72349973 1.99796153
v 1.17411239 -0.72351794 1.99796153
f 1 2 3
f 1 3 4
f 1 4 5
f 1 5 10
f 1 10 15
f 1 15 17
f 1 17 12
f 1 12 8
f 1 8 2
f 2 6 7
f 2 7 3
f 2 8 6
f 3 7 6
f 3 6 11
f 3 11 16
f 3 16 20
f 3 20 18
f 3 18 14
f 3 14 9
f 3 9 4
f 4 9 5
f 5 9 14
f 5 14 10
f 6 8 11
f 8 12 13
f 8 13 11
f 10 14 15
f 11 13 12
f 11 12 17
f 11 17 19
f 11 19 16
f 14 18 17
f 14 17 15
f 16 19 20
f 17 18 19
f 18 20 19

