# https://github.com/mikedh/trimesh
v -3.53293285 -0.73409000 1.60298538
v -3.53293285 -0.73409000 1.60268229
v -3.51625921 -0.73409000 1.60299665
v -3.51625921 -0.70980193 1.59980849
v -3.53292468 -0.70980193 1.59978602
v -3.53293285 -0.70980668 1.59978602
v -3.53293285 -0.73408523 1.52089089
v -3.53292468 -0.73409000 1.52089089
v -3.44960551 -0.73409000 1.60276091
v -3.44948300 -0.70980193 1.59960643
v -3.49959374 -0.70980193 1.59977481
v -3.53293285 -0.70980193 1.59968499
v -3.52840703 -0.73409000 1.50354699
v -3.53293285 -0.70980193 1.55368152
v -3.44948300 -0.73409000 1.60193019
v -3.44948300 -0.73404008 1.60273844
v -3.44948300 -0.70980193 1.55843008
v -3.49897289 -0.70980193 1.50855370
v -3.51625921 -0.73409000 1.49307327
v -3.44948300 -0.73409000 1.52325954
v -3.44948300 -0.70981143 1.55349072
v -3.44960551 -0.70980193 1.55349072
v -3.48149866 -0.70980193 1.50910374
v -3.48284660 -0.73409000 1.48833597
v -3.49968362 -0.73409000 1.48838086
v -3.45186842 -0.73409000 1.50543290
v -3.45560182 -0.73409000 1.49413973
v -3.47451387 -0.70980193 1.51573821
v -3.47833712 -0.70980193 1.51037226
v -3.46822347 -0.73409000 1.49017700
f 1 2 8
f 1 8 13
f 1 13 19
f 1 19 25
f 1 25 24
f 1 24 30
f 1 30 27
f 1 27 26
f 1 26 20
f 1 20 15
f 1 15 9
f 1 9 3
f 1 3 4
f 1 4 5
f 1 5 6
f 1 6 12
f 1 12 14
f 1 14 7
f 1 7 2
f 2 7 8
f 3 9 10
f 3 10 11
f 3 11 4
f 4 11 10
f 4 10 17
f 4 17 22
f 4 22 28
f 4 28 29
f 4 29 23
f 4 23 18
f 4 18 14
f 4 14 12
f 4 12 5
f 5 12 6
f 7 13 8
f 7 14 13
f 9 15 16
f 9 16 10
f 10 16 15
f 10 15 20
f 10 20 21
f 10 21 17
f 13 18 19
f 13 14 18
f 17 21 22
f 18 23 24
f 18 24 25
f 18 25 19
f 20 26 21
f 21 26 27
f 21 27 28
f 21 28 22
f 23 29 27
f 23 27 30
f 23 30 24
f 27 29 28

