# https://github.com/mikedh/trimesh
v 1.17417409 -0.23152967 1.54347391
v 1.17417409 -0.24432432 1.54966086
v 1.17417409 -0.23152758 1.60025434
v 1.37765748 -0.22993350 1.54594865
v 1.40742558 -0.22993350 1.54570898
v 1.59072376 -0.22993350 1.54508474
v 1.59072376 -0.25136136 1.55350676
v 1.17417409 -0.24432432 1.60041599
v 1.39078806 -0.25136136 1.55380777
v 1.37765748 -0.25136136 1.55384121
v 1.17417409 -0.23152758 1.60037141
v 1.37765748 -0.22993350 1.60004257
v 1.59072376 -0.22993350 1.54601559
v 1.59072376 -0.25136136 1.60016517
v 1.17739557 -0.24432432 1.60041599
v 1.17417409 -0.24432012 1.60041599
v 1.37765748 -0.25136136 1.60003142
v 1.18697845 -0.23152758 1.60037141
v 1.59072376 -0.22996706 1.60014843
v 1.58848096 -0.22993350 1.60014288
v 1.53848684 -0.22993350 1.60013174
v 1.52409211 -0.22993350 1.60012613
v 1.59072376 -0.24434110 1.60016517
f 1 2 8
f 1 8 16
f 1 16 11
f 1 11 3
f 1 3 4
f 1 4 5
f 1 5 6
f 1 6 7
f 1 7 2
f 2 7 9
f 2 9 10
f 2 10 17
f 2 17 8
f 3 11 12
f 3 12 4
f 4 12 22
f 4 22 21
f 4 21 20
f 4 20 13
f 4 13 6
f 4 6 5
f 6 13 19
f 6 19 23
f 6 23 14
f 6 14 7
f 7 14 17
f 7 17 10
f 7 10 9
f 8 15 16
f 8 17 14
f 8 14 15
f 11 16 18
f 11 18 19
f 11 19 20
f 11 20 21
f 11 21 22
f 11 22 12
f 13 20 19
f 14 23 15
f 15 23 19
f 15 19 18
f 15 18 16

