# https://github.com/mikedh/trimesh
v -3.96737091 -0.70948420 1.25342173
v -3.97806645 -0.70948420 1.21622700
v -3.92738929 -0.70948420 1.25342173
v -3.96703772 -0.24444602 1.25342173
v -3.97809208 -0.24440049 1.21604442
v -3.98112324 -0.70948420 1.20467211
v -3.98159746 -0.24440049 1.20347228
v -3.91664248 -0.70948420 1.22527789
v -3.91664248 -0.69432437 1.22638643
v -3.92699839 -0.69432437 1.25342173
v -3.92838898 -0.24440049 1.25342173
v -3.96727483 -0.24440049 1.23681974
v -3.98142443 -0.70948420 1.20352444
v -3.98208449 -0.24440049 1.15349673
v -3.98211012 -0.70948420 1.15356194
v -3.91664248 -0.70948420 1.15836125
v -3.91664248 -0.67766220 1.22692115
v -3.92685099 -0.67766220 1.25342173
v -3.92813262 -0.24440049 1.25342173
v -3.97844453 -0.24440049 1.13968563
v -3.97848941 -0.70948420 1.14061159
v -3.92781224 -0.70948420 1.12021447
v -3.92726113 -0.69432437 1.12021447
v -3.92693426 -0.67761668 1.12021447
v -3.91664248 -0.69874029 1.15793089
v -3.91664248 -0.66509730 1.22685594
v -3.92685099 -0.67752563 1.25342173
v -3.91664248 -0.24440049 1.22368681
v -3.96899867 -0.24440049 1.12021447
v -3.96808224 -0.70948420 1.12021447
v -3.92736365 -0.51094955 1.12021447
v -3.91664248 -0.24440049 1.15730488
v -3.91664248 -0.67766220 1.15755268
v -3.91664248 -0.68175946 1.15759179
v -3.92806217 -0.24440049 1.12021447
f 1 2 6
f 1 6 13
f 1 13 15
f 1 15 21
f 1 21 30
f 1 30 22
f 1 22 16
f 1 16 8
f 1 8 3
f 1 3 10
f 1 10 18
f 1 18 27
f 1 27 19
f 1 19 11
f 1 11 4
f 1 4 5
f 1 5 2
f 2 5 7
f 2 7 6
f 3 8 9
f 3 9 10
f 4 11 12
f 4 12 5
f 5 12 11
f 5 11 19
f 5 19 28
f 5 28 32
f 5 32 35
f 5 35 29
f 5 29 20
f 5 20 14
f 5 14 7
f 6 7 13
f 7 14 15
f 7 15 13
f 8 16 25
f 8 25 34
f 8 34 33
f 8 33 32
f 8 32 28
f 8 28 26
f 8 26 17
f 8 17 9
f 9 17 10
f 10 17 18
f 14 20 15
f 15 20 21
f 16 22 23
f 16 23 24
f 16 24 25
f 17 26 27
f 17 27 18
f 19 27 28
f 20 29 21
f 21 29 30
f 22 30 29
f 22 29 35
f 22 35 31
f 22 31 24
f 22 24 23
f 24 31 32
f 24 32 33
f 24 33 34
f 24 34 25
f 26 28 27
f 31 35 32

