# https://github.com/mikedh/trimesh
v 1.99622428 -0.23928513 1.55245402
v 1.97406066 -0.23928513 1.55224433
v 1.99622428 -0.23928513 1.60100531
v 1.99622428 -0.56098685 1.55791635
v 1.99073853 -0.70243406 1.56015494
v 1.97406066 -0.70243406 1.55976476
v 1.96548521 -0.70243406 1.55966236
v 1.67420475 -0.70243406 1.55677026
v 1.95741420 -0.23928513 1.55216630
v 1.84076334 -0.23928513 1.60085409
v 1.99622428 -0.34437314 1.60119551
v 1.99622428 -0.70243406 1.56032076
v 1.67420475 -0.23933046 1.55174686
v 1.94073627 -0.23928513 1.55213704
v 1.67420475 -0.70243406 1.60015665
v 1.82919279 -0.23928513 1.60083949
v 1.99622428 -0.56098685 1.60157102
v 1.99622428 -0.70243406 1.60112231
v 1.67420475 -0.23928513 1.55228337
v 1.68423039 -0.23928513 1.55190779
v 1.74082188 -0.23928513 1.55189319
v 1.80747054 -0.70243406 1.60083949
v 1.67420475 -0.62758491 1.60034685
v 1.82414847 -0.23928513 1.60082971
v 1.90741200 -0.59430855 1.60136616
v 1.92408987 -0.59430855 1.60141009
v 1.99622428 -0.57762503 1.60157102
v 1.94073627 -0.70243406 1.60111260
v 1.99622428 -0.59430855 1.60154664
v 1.67420475 -0.23928513 1.60029321
v 1.81607746 -0.70243406 1.60086869
v 1.90741200 -0.61099207 1.60137105
v 1.80747054 -0.61099207 1.60099065
v 1.67420475 -0.61090139 1.60037612
v 1.80747054 -0.23928513 1.60078095
v 1.67420475 -0.41097121 1.60050296
v 1.92408987 -0.61099207 1.60141009
v 1.99622428 -0.58882294 1.60155642
v 1.92408987 -0.70243406 1.60109305
v 1.67420475 -0.24431738 1.60030787
v 1.82414847 -0.70243406 1.60088824
v 1.67420475 -0.42765472 1.60049807
v 1.67420475 -0.54425800 1.60043954
v 1.90741200 -0.70243406 1.60106867
v 1.91598739 -0.70243406 1.60108333
f 1 2 9
f 1 9 14
f 1 14 21
f 1 21 20
f 1 20 19
f 1 19 30
f 1 30 35
f 1 35 24
f 1 24 16
f 1 16 10
f 1 10 3
f 1 3 11
f 1 11 17
f 1 17 27
f 1 27 38
f 1 38 29
f 1 29 18
f 1 18 12
f 1 12 4
f 1 4 5
f 1 5 6
f 1 6 7
f 1 7 8
f 1 8 2
f 2 8 9
f 3 10 11
f 4 12 5
f 5 12 18
f 5 18 28
f 5 28 39
f 5 39 45
f 5 45 44
f 5 44 41
f 5 41 31
f 5 31 22
f 5 22 15
f 5 15 8
f 5 8 7
f 5 7 6
f 8 13 14
f 8 14 9
f 8 15 23
f 8 23 34
f 8 34 43
f 8 43 42
f 8 42 36
f 8 36 40
f 8 40 30
f 8 30 19
f 8 19 13
f 10 16 17
f 10 17 11
f 13 19 20
f 13 20 21
f 13 21 14
f 15 22 23
f 16 24 17
f 17 25 26
f 17 26 37
f 17 37 27
f 17 24 25
f 18 29 28
f 22 31 32
f 22 32 33
f 22 33 34
f 22 34 23
f 24 35 25
f 25 36 32
f 25 32 26
f 25 35 36
f 26 32 37
f 27 37 38
f 28 29 37
f 28 37 39
f 29 38 37
f 30 40 35
f 31 41 32
f 32 41 37
f 32 36 33
f 33 36 42
f 33 42 43
f 33 43 34
f 35 40 36
f 37 41 44
f 37 44 45
f 37 45 39

