# https://github.com/mikedh/trimesh
v -3.03296000 -0.26100621 0.89802280
v -3.03163390 -0.24304174 0.89800567
v -3.03292997 -0.24304174 0.89799710
v -3.03296000 -0.24433946 0.89799710
v -3.03296000 -0.27766824 0.89801423
v -2.99830620 -0.24304174 0.89819419
v -3.03296000 -0.24304174 0.84013008
v -3.03296000 -0.29142224 0.89794569
v -2.99960228 -0.27766824 0.89812564
v -2.99960228 -0.26100621 0.89815991
v -2.98293843 -0.24433946 0.89824561
v -2.98285336 -0.24304174 0.89824561
v -3.03292997 -0.24304174 0.83499718
v -3.03296000 -0.24431576 0.83533139
v -3.03296000 -0.29142224 0.89729444
v -2.99960228 -0.29142224 0.89805708
v -2.98293843 -0.27766824 0.89815991
v -2.98293843 -0.26100621 0.89820276
v -2.99668986 -0.29142224 0.89806566
v -2.98184753 -0.24433946 0.89824561
v -2.98184753 -0.24304174 0.89824561
v -3.00337041 -0.24304174 0.81603381
v -3.03296000 -0.29139856 0.83575984
v -3.03292997 -0.29142224 0.83575984
v -2.98293843 -0.29142224 0.89809136
v -2.98184753 -0.27766824 0.89815991
v -2.98184753 -0.26100621 0.89820276
v -2.98184753 -0.24304174 0.81080667
v -3.00243964 -0.24304174 0.81549395
v -2.99291172 -0.29142224 0.81122654
v -2.98184753 -0.29142224 0.89809136
v -2.98184753 -0.29142224 0.81130367
v -2.98283835 -0.24304174 0.81071240
v -2.99475825 -0.24304174 0.81126940
v -2.99410771 -0.24304174 0.81104659
f 1 2 3
f 1 3 4
f 1 4 7
f 1 7 14
f 1 14 23
f 1 23 15
f 1 15 8
f 1 8 5
f 1 5 6
f 1 6 2
f 2 6 12
f 2 12 21
f 2 21 28
f 2 28 33
f 2 33 35
f 2 35 34
f 2 34 29
f 2 29 22
f 2 22 13
f 2 13 7
f 2 7 3
f 3 7 4
f 5 8 16
f 5 16 9
f 5 9 10
f 5 10 6
f 6 10 11
f 6 11 12
f 7 13 14
f 8 15 24
f 8 24 30
f 8 30 32
f 8 32 31
f 8 31 25
f 8 25 19
f 8 19 16
f 9 17 18
f 9 18 11
f 9 11 10
f 9 16 19
f 9 19 17
f 11 18 27
f 11 27 20
f 11 20 21
f 11 21 12
f 13 22 23
f 13 23 14
f 15 23 24
f 17 19 25
f 17 25 31
f 17 31 26
f 17 26 27
f 17 27 18
f 20 27 26
f 20 26 31
f 20 31 32
f 20 32 28
f 20 28 21
f 22 29 30
f 22 30 23
f 23 30 24
f 28 32 33
f 29 34 30
f 30 34 35
f 30 35 33
f 30 33 32

