# https://github.com/mikedh/trimesh
v -2.08725463 -0.18199652 0.18000223
v -2.06277177 -0.16101460 0.20350834
v -2.08725463 -0.17767670 0.17996301
v -2.08725463 -0.22584698 0.17984553
v -2.06033261 -0.14980955 0.20350834
v -2.08725463 -0.16730917 0.17931010
v -2.06035293 -0.17651300 0.20350834
v -2.08725463 -0.22584698 0.12783172
v -2.06686747 -0.22584698 0.18134728
v -2.04738482 -0.21690763 0.20350834
v -2.04959021 -0.14294191 0.20350834
v -2.08725463 -0.15316842 0.15354483
v -2.08725463 -0.15841391 0.16909801
v -2.06862571 -0.22584698 0.12559867
v -2.08725463 -0.20318123 0.09483182
v -2.03293291 -0.21301098 0.07011125
v -2.01636703 -0.21458905 0.07011125
v -2.01626541 -0.21459784 0.07011125
v -1.99962843 -0.21690763 0.20350834
v -2.06686747 -0.22584698 0.12555951
v -1.99094909 -0.21690763 0.15351866
v -1.99103039 -0.21690763 0.15644390
v -1.99241263 -0.21690763 0.17035169
v -2.03293291 -0.13770527 0.20350834
v -2.08725463 -0.15321250 0.13686851
v -2.03293291 -0.13756422 0.13685545
v -2.03293291 -0.13747606 0.08687889
v -2.03293291 -0.13747606 0.07011125
v -2.01626541 -0.21690763 0.08084566
v -2.08725463 -0.20091552 0.09445309
v -2.06107451 -0.17767670 0.07011125
v -2.05845242 -0.18681003 0.07011125
v -2.05341156 -0.19508819 0.07011125
v -2.04504729 -0.20700734 0.07011125
v -1.99959791 -0.21257020 0.07011125
v -1.99940485 -0.21690763 0.08712702
v -1.98915032 -0.20498848 0.20350834
v -1.99125403 -0.21690763 0.12021835
v -1.99107104 -0.21690763 0.13685545
v -1.99856132 -0.21690763 0.08836764
v -1.99250406 -0.21690763 0.10354209
v -1.98914007 -0.21033095 0.15351866
v -1.98566438 -0.19432119 0.20350834
v -1.98780873 -0.20749220 0.08687889
v -1.98829654 -0.20899973 0.10354209
v -1.98378419 -0.19433002 0.07020262
v -2.01894847 -0.13624182 0.20350834
v -2.08725463 -0.15329183 0.12021835
v -2.01971070 -0.13631233 0.07011125
v -2.04959021 -0.14341797 0.07011125
v -2.08725463 -0.19433002 0.09339533
v -2.06209084 -0.16111158 0.07011125
v -2.08725463 -0.17767670 0.09169766
v -1.98776808 -0.20666351 0.07011125
v -1.98770716 -0.20663707 0.07020262
v -1.98767665 -0.20656653 0.07011125
v -1.98401785 -0.19433002 0.08687889
v -1.98421097 -0.17765909 0.20350834
v -1.98378419 -0.19433002 0.07011125
v -1.98343860 -0.17767670 0.07020262
v -2.01062492 -0.13590681 0.20350834
v -2.01137695 -0.13579221 0.07011125
v -2.08725463 -0.15703861 0.10354209
v -2.05947888 -0.15059416 0.07011125
v -2.06209084 -0.16101460 0.07011125
v -2.08725463 -0.16502584 0.09313415
v -1.98408901 -0.16099696 0.20350834
v -1.98343860 -0.17767670 0.07011125
v -1.98343860 -0.17757093 0.07011125
v -1.98345899 -0.16101460 0.07020262
v -2.00672227 -0.13590681 0.20350834
v -2.00557386 -0.13579221 0.07011125
v -1.98765626 -0.14556024 0.20350834
v -1.98347925 -0.16091762 0.07011125
v -1.99839871 -0.13723803 0.20350834
v -1.99729089 -0.13700881 0.07011125
v -1.98738184 -0.14534867 0.07020262
v -1.99724011 -0.13701761 0.07020262
v -1.98738184 -0.14534867 0.07011125
v -1.99717913 -0.13707051 0.07011125
f 1 2 3
f 1 3 6
f 1 6 13
f 1 13 12
f 1 12 25
f 1 25 48
f 1 48 63
f 1 63 66
f 1 66 53
f 1 53 51
f 1 51 30
f 1 30 15
f 1 15 8
f 1 8 4
f 1 4 2
f 2 5 6
f 2 6 3
f 2 4 7
f 2 7 10
f 2 10 19
f 2 19 37
f 2 37 43
f 2 43 58
f 2 58 67
f 2 67 73
f 2 73 75
f 2 75 71
f 2 71 61
f 2 61 47
f 2 47 24
f 2 24 11
f 2 11 5
f 4 8 14
f 4 14 20
f 4 20 9
f 4 9 10
f 4 10 7
f 5 11 12
f 5 12 13
f 5 13 6
f 8 15 16
f 8 16 17
f 8 17 18
f 8 18 14
f 9 19 10
f 9 20 21
f 9 21 22
f 9 22 23
f 9 23 19
f 11 24 12
f 12 24 26
f 12 26 27
f 12 27 28
f 12 28 25
f 14 18 29
f 14 29 20
f 15 30 31
f 15 31 32
f 15 32 33
f 15 33 34
f 15 34 16
f 16 34 33
f 16 33 32
f 16 32 31
f 16 31 52
f 16 52 65
f 16 65 64
f 16 64 50
f 16 50 28
f 16 28 49
f 16 49 62
f 16 62 72
f 16 72 76
f 16 76 80
f 16 80 79
f 16 79 74
f 16 74 69
f 16 69 68
f 16 68 59
f 16 59 56
f 16 56 54
f 16 54 35
f 16 35 18
f 16 18 17
f 18 35 36
f 18 36 29
f 19 23 37
f 20 38 39
f 20 39 21
f 20 29 36
f 20 36 40
f 20 40 41
f 20 41 38
f 21 42 43
f 21 43 22
f 21 39 44
f 21 44 45
f 21 45 46
f 21 46 42
f 22 43 37
f 22 37 23
f 24 47 26
f 25 28 48
f 26 47 27
f 27 47 28
f 28 47 49
f 28 50 48
f 30 51 31
f 31 51 53
f 31 53 52
f 35 54 40
f 35 40 36
f 38 41 55
f 38 55 56
f 38 56 44
f 38 44 39
f 40 54 41
f 41 54 55
f 42 46 57
f 42 57 43
f 43 57 58
f 44 56 59
f 44 59 46
f 44 46 45
f 46 59 68
f 46 68 60
f 46 60 58
f 46 58 57
f 47 61 62
f 47 62 49
f 48 50 63
f 50 64 63
f 52 53 65
f 53 66 65
f 54 56 55
f 58 60 67
f 60 68 69
f 60 69 70
f 60 70 67
f 61 71 72
f 61 72 62
f 63 64 66
f 64 65 66
f 67 70 74
f 67 74 73
f 69 74 70
f 71 75 76
f 71 76 72
f 73 74 77
f 73 77 78
f 73 78 75
f 74 79 77
f 75 78 76
f 76 78 80
f 77 79 78
f 78 79 80

