# https://github.com/mikedh/trimesh
v 2.11454337 -0.61469189 0.89162483
v 2.07109313 -0.61469189 0.89162483
v 2.11460333 -0.61469189 0.89422321
v 2.11482161 -0.61479070 0.89162483
v 2.07109313 -0.68678563 0.89162483
v 2.07109313 -0.61469189 0.90885488
v 2.11361025 -0.61469189 1.02042131
v 2.11479592 -0.68678563 0.89162483
v 2.11376862 -0.68678563 1.02048438
v 2.07109313 -0.68678563 0.91020452
v 2.07109313 -0.62364098 0.90909453
v 2.07444897 -0.68678563 1.02048438
v 2.07447895 -0.67767423 1.02048438
v 2.07494548 -0.61469189 1.02048438
v 2.10543899 -0.61469189 1.02048438
v 2.11360596 -0.62768501 1.02048438
v 2.07109313 -0.68418136 0.91016668
v 2.07109313 -0.67767423 0.91005316
f 1 2 6
f 1 6 14
f 1 14 15
f 1 15 7
f 1 7 3
f 1 3 4
f 1 4 8
f 1 8 5
f 1 5 2
f 2 5 10
f 2 10 17
f 2 17 18
f 2 18 11
f 2 11 6
f 3 7 4
f 4 7 9
f 4 9 8
f 5 8 9
f 5 9 12
f 5 12 10
f 6 11 12
f 6 12 13
f 6 13 14
f 7 15 16
f 7 16 9
f 9 16 15
f 9 15 14
f 9 14 13
f 9 13 12
f 10 12 17
f 11 18 12
f 12 18 17

