# https://github.com/mikedh/trimesh
v -1.08727291 1.94910025 0.95249262
v -1.08727291 1.94910025 0.90203326
v -1.08518284 1.94910025 0.95250070
v -1.08727291 1.97296951 0.95254119
v -1.07754329 1.94910025 0.90200897
v -1.08727291 1.96452749 0.88391549
v -0.82788887 1.96352827 0.88215877
v -0.57780195 1.96246367 0.88068537
v -0.52771254 1.96233293 0.88056394
v -1.08727291 2.02298658 0.95263833
v -1.05188598 1.94910025 0.95254119
v -0.79451993 1.94910025 0.90166896
v -1.08727291 1.96703955 0.88211019
v -1.08727291 1.97225044 0.87840245
v -0.59445041 1.96255705 0.88076634
v -0.82788887 1.97296950 0.87598999
v -0.62781938 1.97296950 0.87475947
v -0.59445041 1.97296950 0.87456517
v -0.57780195 1.97296950 0.87450040
v -0.52771254 1.97296950 0.87439517
v -0.51106414 1.96233293 0.88054775
v -0.74464669 1.94910025 0.90161229
v -1.08727291 2.03309088 0.95173973
v -1.04467886 1.94910025 0.95254928
v -1.02795835 1.94910025 0.95256547
v -1.01130993 1.97296951 0.95260596
v -0.59445041 2.02298658 0.95283262
v -1.08727291 1.98964811 0.87169127
v -0.51106414 1.97296950 0.87437897
v -0.89455466 1.98964810 0.87143220
v -0.49441568 1.97296950 0.87439517
v -0.35099408 1.97296950 0.87461374
v -0.35099408 1.96682476 0.87834578
v -0.35099408 1.96266912 0.88087157
v -0.35099408 1.94910025 0.90213850
v -0.54443305 1.94910025 0.90183087
v -0.74450254 1.94910025 0.90161229
v -0.87790623 2.03961850 0.94245417
v -0.92792360 2.03957179 0.94245417
v -1.08727291 2.03591110 0.94759483
v -0.59445041 2.03335234 0.95186926
v -0.59445041 2.03986129 0.94245417
v -1.00179654 1.94910025 0.95256547
v -0.41102935 1.98964810 0.95264643
v -0.39430885 2.02298658 0.95277596
v -0.57780195 2.03334300 0.95186926
v -0.79451993 1.94910025 0.95254928
v -1.08727291 2.00631734 0.87110030
v -0.89455466 2.00631734 0.87080075
v -0.36093988 1.98964810 0.87126219
v -0.35099408 1.98964810 0.87126219
v -0.62781938 1.98964810 0.87134316
v -0.87790623 2.00631734 0.87078455
v -0.62781938 2.00631734 0.87069551
v -0.35099408 1.97970258 0.87324559
v -0.35099408 1.94910025 0.95232261
v -0.92792360 2.04412899 0.92577741
v -1.08727291 2.03940370 0.94245417
v -0.52771254 2.03985196 0.94245417
v -0.52771254 2.04435312 0.92577741
v -0.61109887 2.04436245 0.92577741
v -0.62781938 2.04436245 0.92577741
v -0.66118831 2.04434379 0.92577741
v -0.69448517 2.04432510 0.92577741
v -0.41102935 1.97296950 0.95256547
v -0.39430885 1.97296950 0.95254928
v -0.35099408 2.02298658 0.95274358
v -0.76115096 1.94910025 0.95254119
v -0.35099408 2.03316557 0.95179640
v -0.52771254 2.03332434 0.95183688
v -1.08727291 2.01554380 0.87080886
v -0.91127517 2.02298658 0.87036359
v -1.08727291 2.02298658 0.87057408
v -0.35099408 1.99638116 0.87100314
v -0.62781938 2.02298658 0.87014502
v -0.36093988 2.00631734 0.87063885
v -0.35531833 1.94910025 0.95233880
v -0.82788887 2.04424105 0.89243197
v -0.92792360 2.04411033 0.89243197
v -1.07797572 2.04389552 0.89243197
v -1.08727291 2.04387686 0.92577741
v -1.08727291 2.04140215 0.93500630
v -0.59445041 2.04449319 0.89243197
v -0.51106414 2.03981460 0.94245417
v -0.51106414 2.04433444 0.92577741
v -0.52771254 2.04447453 0.89243197
v -0.41102935 1.94910025 0.95243595
v -0.40151596 1.94910025 0.95242785
v -0.39430885 1.94910025 0.95241976
v -0.37766045 1.94910025 0.95239547
v -0.36093988 1.94910025 0.95235499
v -0.35099408 2.03687296 0.94622668
v -1.08727291 2.03765741 0.87722859
v -0.69448517 2.03789086 0.87702620
v -0.35099408 2.00631734 0.87063885
v -0.67783674 2.03789086 0.87701812
v -0.61109887 2.03792821 0.87702620
v -0.61109887 2.02298658 0.87014502
v -1.08727291 2.04387686 0.89243197
v -0.51106414 2.03795623 0.87704239
v -0.54443305 2.03795623 0.87705050
v -0.35099408 2.03937569 0.94245417
v -0.51106414 2.04445584 0.89243197
v -0.35099408 2.04197179 0.93251288
v -0.35099408 2.04372745 0.92577741
v -0.35099408 2.01305041 0.87045265
v -0.36093988 2.02298658 0.87017741
v -0.35099408 2.03757337 0.87707478
v -0.35099408 2.02298658 0.87018549
v -0.35099408 2.04377412 0.89243197
f 1 2 5
f 1 5 12
f 1 12 22
f 1 22 37
f 1 37 36
f 1 36 35
f 1 35 56
f 1 56 77
f 1 77 91
f 1 91 90
f 1 90 89
f 1 89 88
f 1 88 87
f 1 87 68
f 1 68 47
f 1 47 43
f 1 43 25
f 1 25 24
f 1 24 11
f 1 11 3
f 1 3 4
f 1 4 10
f 1 10 23
f 1 23 40
f 1 40 58
f 1 58 82
f 1 82 81
f 1 81 99
f 1 99 93
f 1 93 73
f 1 73 71
f 1 71 48
f 1 48 28
f 1 28 14
f 1 14 13
f 1 13 6
f 1 6 2
f 2 6 7
f 2 7 8
f 2 8 9
f 2 9 5
f 3 10 4
f 3 11 10
f 5 9 12
f 6 13 7
f 7 13 14
f 7 14 15
f 7 15 8
f 8 15 14
f 8 14 16
f 8 16 17
f 8 17 18
f 8 18 9
f 9 18 19
f 9 19 20
f 9 20 29
f 9 29 21
f 9 21 22
f 9 22 12
f 10 11 24
f 10 24 25
f 10 25 26
f 10 26 27
f 10 27 23
f 14 28 16
f 16 28 17
f 17 28 18
f 18 28 19
f 19 28 20
f 20 28 30
f 20 30 29
f 21 29 31
f 21 31 32
f 21 32 33
f 21 33 34
f 21 34 35
f 21 35 36
f 21 36 37
f 21 37 22
f 23 38 39
f 23 39 40
f 23 27 41
f 23 41 42
f 23 42 38
f 25 43 27
f 25 27 26
f 27 44 45
f 27 45 46
f 27 46 41
f 27 43 47
f 27 47 44
f 28 48 49
f 28 49 30
f 29 50 51
f 29 51 31
f 29 30 52
f 29 52 50
f 30 49 53
f 30 53 54
f 30 54 52
f 31 51 55
f 31 55 32
f 32 55 51
f 32 51 74
f 32 74 95
f 32 95 106
f 32 106 109
f 32 109 108
f 32 108 110
f 32 110 105
f 32 105 104
f 32 104 102
f 32 102 92
f 32 92 69
f 32 69 67
f 32 67 56
f 32 56 35
f 32 35 34
f 32 34 33
f 38 57 39
f 38 42 57
f 39 58 40
f 39 57 58
f 41 46 59
f 41 59 42
f 42 59 60
f 42 60 61
f 42 61 62
f 42 62 63
f 42 63 64
f 42 64 57
f 44 65 66
f 44 66 67
f 44 67 45
f 44 47 68
f 44 68 65
f 45 67 69
f 45 69 46
f 46 69 70
f 46 70 59
f 48 71 49
f 49 72 53
f 49 71 73
f 49 73 72
f 50 74 51
f 50 52 54
f 50 54 74
f 53 72 75
f 53 75 54
f 54 75 76
f 54 76 74
f 56 67 77
f 57 78 79
f 57 79 80
f 57 80 81
f 57 81 82
f 57 82 58
f 57 64 83
f 57 83 78
f 59 70 69
f 59 69 84
f 59 84 85
f 59 85 60
f 60 86 83
f 60 83 61
f 60 85 103
f 60 103 86
f 61 83 62
f 62 83 63
f 63 83 64
f 65 87 88
f 65 88 66
f 65 68 87
f 66 88 89
f 66 89 90
f 66 90 67
f 67 91 77
f 67 90 91
f 69 92 84
f 72 73 93
f 72 93 94
f 72 94 75
f 74 76 95
f 75 94 96
f 75 96 97
f 75 97 98
f 75 98 95
f 75 95 76
f 78 93 79
f 78 83 93
f 79 93 80
f 80 93 99
f 80 99 81
f 83 86 100
f 83 100 101
f 83 101 97
f 83 97 94
f 83 94 93
f 84 92 102
f 84 102 85
f 85 102 104
f 85 104 105
f 85 105 103
f 86 103 100
f 94 97 96
f 95 98 106
f 97 101 100
f 97 100 98
f 98 100 107
f 98 107 106
f 100 103 108
f 100 108 109
f 100 109 107
f 103 105 110
f 103 110 108
f 106 107 109

