# https://github.com/mikedh/trimesh
v -1.83051961 -0.21816756 0.84648110
v -1.78680466 -0.21816756 0.84030166
v -1.83051961 -0.21816756 0.75482234
v -1.83051961 -0.44368022 0.84566377
v -1.78680466 -0.46618536 0.83943941
v -1.78680466 -0.21816756 0.75980721
v -1.83051961 -0.24501835 0.75473253
v -1.83051961 -0.46035879 0.84556497
v -1.83051961 -0.46618536 0.84551107
v -1.78680466 -0.46618536 0.75968147
v -1.83051961 -0.24776169 0.75472354
v -1.78680466 -0.38888616 0.75965453
v -1.83051961 -0.46618536 0.75577441
v -1.78680466 -0.43889758 0.75965453
v -1.83051961 -0.44518542 0.75562172
f 1 2 6
f 1 6 3
f 1 3 7
f 1 7 11
f 1 11 15
f 1 15 13
f 1 13 9
f 1 9 8
f 1 8 4
f 1 4 5
f 1 5 2
f 2 5 10
f 2 10 14
f 2 14 12
f 2 12 6
f 3 6 7
f 4 8 5
f 5 8 9
f 5 9 13
f 5 13 10
f 6 11 7
f 6 12 11
f 10 13 15
f 10 15 11
f 10 11 14
f 11 12 14

