# https://github.com/mikedh/trimesh
v -0.02257957 -0.16036881 0.84733977
v -0.02257957 -0.16140598 0.84728859
v -0.02014792 -0.16036881 0.85835585
v -0.02257957 -0.14557563 0.84054587
v -0.02257957 -0.21051647 0.84313037
v -0.01748565 -0.17702708 0.85835585
v -0.02009552 -0.16024144 0.85835585
v -0.02257957 -0.13988941 0.82487260
v -0.01386965 -0.14539365 0.85835585
v 0.00340345 -0.12894466 0.85835585
v -0.01030604 -0.21051647 0.85820230
v -0.01029555 -0.21050738 0.85835585
v -0.02257957 -0.21051647 0.75642193
v -0.02257957 -0.13884315 0.80820134
v 0.01541495 -0.12068374 0.85835585
v 0.01551980 -0.12061096 0.85820230
v 0.06107130 -0.21051647 0.85835585
v -0.02257957 -0.16037791 0.74096617
v -0.02199264 -0.16037791 0.72764707
v -0.01924651 -0.17416124 0.72764707
v -0.01858620 -0.17702708 0.72764707
v -0.00814690 -0.21051647 0.72764707
v -0.02257957 -0.13881587 0.79878457
v 0.01559317 -0.12059276 0.85835585
v -0.02257957 -0.13879769 0.79154289
v 0.02385236 -0.11806356 0.85835585
v 0.01568747 -0.12051089 0.77488443
v 0.06274829 -0.21051647 0.85820230
v 0.06274829 -0.21050738 0.85835585
v -0.02257957 -0.14955141 0.74477893
v -0.02257957 -0.14605780 0.74809271
v -0.02099687 -0.15779411 0.72764707
v 0.06282167 -0.21051647 0.72764707
v 0.01576084 -0.12052907 0.75821317
v 0.01577133 -0.12070195 0.72764707
v -0.02257957 -0.13887954 0.78213891
v 0.03466902 -0.11761774 0.85835585
v 0.03466902 -0.11757226 0.84153106
v 0.02385236 -0.11806356 0.85820230
v 0.02410395 -0.11809086 0.72764707
v 0.07664642 -0.18565189 0.85835585
v 0.06280069 -0.21051647 0.84168459
v -0.02257957 -0.14057177 0.76546767
v -0.01525320 -0.14461124 0.72764707
v 0.06284265 -0.21051647 0.77488443
v 0.08047212 -0.17546224 0.72764707
v 0.07664642 -0.18565189 0.85820230
v 0.00234486 -0.12903562 0.72764707
v -0.02257957 -0.13927986 0.77488443
v 0.04424888 -0.11824550 0.85835585
v 0.04443753 -0.11820912 0.84153106
v 0.04446900 -0.11820912 0.82487260
v 0.04444802 -0.11821821 0.80820134
v 0.03466902 -0.11769964 0.74155471
v 0.03466902 -0.11772694 0.72764707
v 0.06284265 -0.21051647 0.79169642
v 0.08082844 -0.17702708 0.85835585
v -0.00460421 -0.13493107 0.72764707
v -0.00787438 -0.13772414 0.72764707
v 0.08371083 -0.16289803 0.72764707
v 0.08082844 -0.17702708 0.85820230
v 0.04440612 -0.11828189 0.85835585
v 0.04433275 -0.11825459 0.85820230
v 0.05280156 -0.12152075 0.82487260
v 0.05266537 -0.12156626 0.85835585
v 0.05278064 -0.12153896 0.80820134
v 0.04421747 -0.11829101 0.74155471
v 0.04409164 -0.11833649 0.72764707
v 0.08449690 -0.16036881 0.84153106
v 0.08442358 -0.16036881 0.85835585
v 0.08436064 -0.16036881 0.72764707
v 0.08441309 -0.16036881 0.74155471
v 0.08444445 -0.16036881 0.75821317
v 0.06742294 -0.12982714 0.85835585
v 0.06754871 -0.12985444 0.82487260
v 0.06758018 -0.12994543 0.75821317
v 0.06756969 -0.12997270 0.74155471
v 0.06504369 -0.12860801 0.72764707
v 0.05255003 -0.12163903 0.74155471
v 0.05260242 -0.12161173 0.75821317
v 0.05242426 -0.12166633 0.72764707
v 0.08028341 -0.14422003 0.82487260
v 0.08027292 -0.14421094 0.84153106
v 0.08024157 -0.14421094 0.85835585
v 0.08029390 -0.14416545 0.75821317
v 0.08023108 -0.14422003 0.72764707
v 0.08028341 -0.14418364 0.74155471
v 0.06762209 -0.12995452 0.85835585
v 0.06754871 -0.12989992 0.85820230
v 0.07589182 -0.13587724 0.85835585
v 0.07591274 -0.13583176 0.75821317
v 0.07590225 -0.13584994 0.74155471
v 0.06892178 -0.13097347 0.72764707
v 0.06753822 -0.13000000 0.72764707
v 0.07587084 -0.13588636 0.72764707
f 1 2 3
f 1 3 4
f 1 4 8
f 1 8 14
f 1 14 23
f 1 23 25
f 1 25 36
f 1 36 49
f 1 49 43
f 1 43 31
f 1 31 30
f 1 30 18
f 1 18 13
f 1 13 5
f 1 5 2
f 2 5 3
f 3 6 12
f 3 12 17
f 3 17 29
f 3 29 41
f 3 41 57
f 3 57 70
f 3 70 84
f 3 84 90
f 3 90 88
f 3 88 74
f 3 74 65
f 3 65 62
f 3 62 50
f 3 50 37
f 3 37 26
f 3 26 24
f 3 24 15
f 3 15 10
f 3 10 9
f 3 9 7
f 3 7 4
f 3 5 6
f 4 7 9
f 4 9 10
f 4 10 8
f 5 11 12
f 5 12 6
f 5 13 22
f 5 22 33
f 5 33 45
f 5 45 56
f 5 56 42
f 5 42 28
f 5 28 17
f 5 17 11
f 8 10 15
f 8 15 16
f 8 16 14
f 11 17 12
f 13 18 19
f 13 19 20
f 13 20 21
f 13 21 22
f 14 16 23
f 15 24 16
f 16 25 23
f 16 24 26
f 16 26 27
f 16 27 25
f 17 28 29
f 18 30 19
f 19 30 31
f 19 31 32
f 19 32 44
f 19 44 59
f 19 59 58
f 19 58 48
f 19 48 35
f 19 35 40
f 19 40 55
f 19 55 68
f 19 68 81
f 19 81 78
f 19 78 94
f 19 94 93
f 19 93 95
f 19 95 86
f 19 86 71
f 19 71 60
f 19 60 46
f 19 46 33
f 19 33 22
f 19 22 21
f 19 21 20
f 25 27 34
f 25 34 35
f 25 35 36
f 26 37 38
f 26 38 39
f 26 39 27
f 27 40 34
f 27 39 40
f 28 41 29
f 28 42 41
f 31 43 44
f 31 44 32
f 33 46 47
f 33 47 45
f 34 40 35
f 35 48 49
f 35 49 36
f 37 50 51
f 37 51 38
f 38 51 52
f 38 52 53
f 38 53 54
f 38 54 40
f 38 40 39
f 40 54 55
f 41 42 56
f 41 56 45
f 41 45 47
f 41 47 61
f 41 61 57
f 43 49 48
f 43 48 58
f 43 58 59
f 43 59 44
f 46 60 61
f 46 61 47
f 50 62 63
f 50 63 51
f 51 64 52
f 51 63 62
f 51 62 65
f 51 65 64
f 52 64 53
f 53 64 66
f 53 66 67
f 53 67 54
f 54 67 55
f 55 67 68
f 57 61 69
f 57 69 70
f 60 71 61
f 61 71 72
f 61 72 73
f 61 73 69
f 64 65 74
f 64 74 75
f 64 75 76
f 64 76 66
f 66 76 77
f 66 77 78
f 66 78 79
f 66 79 80
f 66 80 67
f 67 80 79
f 67 79 81
f 67 81 68
f 69 82 83
f 69 83 84
f 69 84 70
f 69 73 85
f 69 85 82
f 71 86 87
f 71 87 72
f 72 87 73
f 73 87 85
f 74 88 89
f 74 89 75
f 75 89 90
f 75 90 91
f 75 91 76
f 76 91 92
f 76 92 77
f 77 92 93
f 77 93 94
f 77 94 78
f 78 81 79
f 82 85 83
f 83 85 90
f 83 90 84
f 85 87 92
f 85 92 91
f 85 91 90
f 86 95 87
f 87 95 92
f 88 90 89
f 92 95 93

