# https://github.com/mikedh/trimesh
v -3.03983061 -0.73409000 1.60384769
v -2.98293803 -0.73409000 1.60384769
v -3.03983061 -0.70980193 1.60085837
v -3.03983061 -0.73409000 1.53060313
v -2.98184252 -0.73409000 1.60383666
v -2.98184252 -0.70980193 1.60078112
v -3.03983061 -0.70980193 1.55163885
v -3.01548537 -0.73409000 1.50425051
v -2.98184252 -0.73409000 1.49255781
v -2.98184252 -0.70980193 1.50748254
v -2.99654956 -0.70980193 1.50879516
v -3.00091456 -0.73409000 1.49116793
v -2.98198443 -0.73409000 1.49252472
v -2.98284721 -0.70980193 1.50717367
v -2.98394839 -0.70980193 1.50728394
v -2.98293803 -0.73409000 1.49231512
f 1 2 3
f 1 3 7
f 1 7 4
f 1 4 8
f 1 8 12
f 1 12 16
f 1 16 13
f 1 13 9
f 1 9 5
f 1 5 2
f 2 5 6
f 2 6 3
f 3 6 10
f 3 10 14
f 3 14 15
f 3 15 11
f 3 11 7
f 4 7 8
f 5 9 10
f 5 10 6
f 7 11 8
f 8 11 12
f 9 13 14
f 9 14 10
f 11 15 12
f 12 15 14
f 12 14 16
f 13 16 14

