# https://github.com/mikedh/trimesh
v 2.07054418 -0.50566117 1.60744511
v 2.05399696 -0.50571268 1.60226846
v 2.07051015 -0.50571268 1.60736750
v 2.07054418 -0.50571268 1.56122098
v 2.07054418 -0.32768647 1.60730104
v 2.05399696 -0.50571268 1.55079002
v 2.05399696 -0.33113778 1.60211325
v 2.07054418 -0.50571268 1.49524341
v 2.07054418 -0.24263979 1.60716800
v 2.06422562 -0.50571268 1.50898877
v 2.05399696 -0.50530059 1.55077893
v 2.05902460 -0.24261404 1.52021778
v 2.06400204 -0.47766428 1.50855645
v 2.06413000 -0.49432848 1.50876704
v 2.05399696 -0.24436545 1.60190266
v 2.07054418 -0.50105082 1.49496631
v 2.07054418 -0.24261404 1.60676894
v 2.05399696 -0.24261404 1.60189158
v 2.07054418 -0.49432848 1.49463374
v 2.05399696 -0.24261404 1.54689924
v 2.06212478 -0.24261404 1.51020811
v 2.07054418 -0.47766428 1.49421254
v 2.07054418 -0.48500477 1.49435664
v 2.06271439 -0.24261404 1.50882247
v 2.07054418 -0.24261404 1.49884600
v 2.07054418 -0.34435066 1.49574225
v 2.07054418 -0.27769386 1.49761558
v 2.07054418 -0.31102225 1.49658470
v 2.07054418 -0.32768647 1.49611913
v 2.07054418 -0.33299222 1.49598609
f 1 2 3
f 1 3 4
f 1 4 8
f 1 8 16
f 1 16 19
f 1 19 23
f 1 23 22
f 1 22 26
f 1 26 30
f 1 30 29
f 1 29 28
f 1 28 27
f 1 27 25
f 1 25 17
f 1 17 9
f 1 9 5
f 1 5 2
f 2 6 10
f 2 10 8
f 2 8 4
f 2 4 3
f 2 5 7
f 2 7 15
f 2 15 18
f 2 18 20
f 2 20 11
f 2 11 6
f 5 9 7
f 6 11 12
f 6 12 13
f 6 13 14
f 6 14 10
f 7 9 15
f 8 10 16
f 9 17 18
f 9 18 15
f 10 14 19
f 10 19 16
f 11 20 12
f 12 20 18
f 12 18 17
f 12 17 25
f 12 25 24
f 12 24 21
f 12 21 13
f 13 22 23
f 13 23 14
f 13 21 24
f 13 24 22
f 14 23 19
f 22 24 26
f 24 25 27
f 24 27 28
f 24 28 29
f 24 29 30
f 24 30 26

