# https://github.com/mikedh/trimesh
v -0.28778776 1.62546330 0.95193750
v -0.22734098 1.62546330 0.95493819
v -0.28778776 1.65611724 0.95180339
v -0.28778776 1.62546330 0.87489195
v -0.22556450 1.62546330 0.95452748
v -0.22047346 1.65614127 0.95062994
v -0.22881758 1.65614127 0.95123343
v -0.24420612 1.65614127 0.95164414
v -0.27755182 1.65614127 0.95176148
v -0.28778776 1.65614127 0.91436187
v -0.28778776 1.63557216 0.87994618
v -0.26087127 1.65614127 0.87621627
v -0.24420612 1.65614127 0.87093575
v -0.24406769 1.62546330 0.86967008
v -0.21745883 1.62546330 0.95250747
v -0.21509017 1.65614127 0.94229843
v -0.21678208 1.62546330 0.95156870
v -0.28550368 1.65614127 0.90111862
v -0.28778776 1.65611123 0.90128626
v -0.27026896 1.65614127 0.88261997
v -0.22752557 1.65614127 0.87122909
v -0.22752557 1.62546330 0.86931805
v -0.21272921 1.62546330 0.94270913
v -0.21191403 1.62546330 0.93974198
v -0.21093735 1.65610222 0.92577789
v -0.21094503 1.65614127 0.92577789
v -0.21442112 1.62546330 0.87556250
v -0.21685896 1.62546330 0.87428845
v -0.22739484 1.62546330 0.86933481
v -0.21483640 1.65614127 0.87798484
v -0.20951459 1.62546330 0.92577789
v -0.20925313 1.62546330 0.90910648
v -0.20922236 1.62546330 0.90639916
v -0.21062202 1.65614127 0.89243507
v -0.20996835 1.62546330 0.89008816
v -0.20926852 1.62546330 0.89243507
f 1 2 3
f 1 3 10
f 1 10 19
f 1 19 11
f 1 11 4
f 1 4 14
f 1 14 22
f 1 22 29
f 1 29 28
f 1 28 27
f 1 27 35
f 1 35 36
f 1 36 33
f 1 33 32
f 1 32 31
f 1 31 24
f 1 24 23
f 1 23 17
f 1 17 15
f 1 15 5
f 1 5 2
f 2 5 6
f 2 6 7
f 2 7 8
f 2 8 3
f 3 8 9
f 3 9 10
f 4 11 12
f 4 12 13
f 4 13 14
f 5 15 6
f 6 16 26
f 6 26 34
f 6 34 30
f 6 30 21
f 6 21 13
f 6 13 12
f 6 12 20
f 6 20 18
f 6 18 10
f 6 10 9
f 6 9 8
f 6 8 7
f 6 15 17
f 6 17 16
f 10 18 19
f 11 19 20
f 11 20 12
f 13 21 22
f 13 22 14
f 16 17 23
f 16 23 24
f 16 24 25
f 16 25 26
f 18 20 19
f 21 27 28
f 21 28 29
f 21 29 22
f 21 30 27
f 24 31 25
f 25 31 32
f 25 32 33
f 25 33 34
f 25 34 26
f 27 30 35
f 30 34 36
f 30 36 35
f 33 36 34

