# https://github.com/mikedh/trimesh
v -2.05611620 -0.76101691 0.02019876
v -2.05205030 -0.74434953 0.02019876
v -2.05123424 -0.74434953 0.00353501
v -2.05508348 -0.76101691 0.00353501
v -2.05575511 -0.77766987 0.02019876
v -2.05570457 -0.77766987 0.03686244
v -2.05543736 -0.77766987 0.06997052
v -2.05581293 -0.76101691 0.03686244
v -2.05167478 -0.74456572 0.06997052
v -2.05162424 -0.74434953 0.06997052
v -2.05192036 -0.74434953 0.03686244
v -2.04511011 -0.73322355 0.02019876
v -2.04475624 -0.73355501 0.00353501
v -2.04539896 -0.73267590 0.06997052
v -2.04531229 -0.73252456 0.06997052
v -2.04336964 -0.73457104 -0.00649087
v -2.04582508 -0.74434953 -0.00792890
v -2.04760167 -0.76101691 -0.00860327
v -2.04729113 -0.77766987 -0.00877386
v -2.05453464 -0.77766987 0.00353501
v -2.04718276 -0.79319149 0.00353501
v -2.04783997 -0.79376796 0.02019876
v -2.04793385 -0.79396251 0.03686244
v -2.04794827 -0.79394811 0.05352618
v -2.04794827 -0.79389048 0.06997052
v -2.05506184 -0.76123307 0.06997052
v -2.05505463 -0.76101691 0.06997052
v -2.03291962 -0.72906571 0.06997052
v -2.03291962 -0.73115543 0.00353501
v -2.03291962 -0.73046365 0.02019876
v -2.03291962 -0.73387208 -0.00733583
v -2.03291962 -0.74434953 -0.01115437
v -2.03291962 -0.76101691 -0.01259252
v -2.03291962 -0.77766987 -0.01284430
v -2.04482121 -0.79053247 -0.00751453
v -2.03291962 -0.80110362 0.00353501
v -2.03291962 -0.80196834 0.02019876
v -2.03291962 -0.80214129 0.03686244
v -2.03291962 -0.80211965 0.05352618
v -2.03312180 -0.80192510 0.06997052
v -2.01626600 -0.72926747 0.06997052
v -2.01626600 -0.73055014 0.02019876
v -2.01626600 -0.73118425 0.00353501
v -2.01626600 -0.73386487 -0.00739269
v -2.01626600 -0.74434953 -0.01134129
v -1.99959791 -0.76101691 -0.01299057
v -1.99959791 -0.77766987 -0.01302311
v -2.03291962 -0.79320588 -0.00887138
v -2.01478547 -0.80198995 0.00515180
v -2.00824971 -0.80268172 0.01178156
v -2.01626600 -0.79354459 -0.00883073
v -2.01478547 -0.80256642 0.02142555
v -2.01626600 -0.80251599 0.03686244
v -2.01626600 -0.80249439 0.05352618
v -2.01626600 -0.80245832 0.06997052
v -2.03291962 -0.80203319 0.06997052
v -2.01604213 -0.72928189 0.06997052
v -1.99959791 -0.73143647 0.02019876
v -1.99959791 -0.73203455 0.00353501
v -1.99959791 -0.73426840 -0.00701897
v -1.99959791 -0.74434953 -0.01102443
v -1.98866406 -0.74434953 -0.00770955
v -1.98727014 -0.76101691 -0.00900132
v -1.98708238 -0.77766987 -0.00902575
v -1.98854128 -0.79017940 -0.00751453
v -1.99959791 -0.79287442 -0.00883073
v -2.00788141 -0.80268172 0.01178156
v -2.00123008 -0.80097392 0.00515180
v -2.00824971 -0.80268172 0.01668885
v -1.99959791 -0.80147833 0.06997052
v -2.00788141 -0.80268172 0.01668885
v -1.99959791 -0.73078794 0.06997052
v -1.99959791 -0.73097527 0.05352618
v -1.99959791 -0.73117704 0.03686244
v -1.98906127 -0.73414591 0.02019876
v -1.98945121 -0.73446295 0.00353501
v -1.99027448 -0.73514033 -0.00599519
v -1.98558749 -0.74434953 0.00353501
v -1.98305987 -0.76101691 0.00353501
v -1.98277818 -0.77766987 0.00353501
v -1.98711135 -0.79264384 0.00353501
v -2.00123008 -0.80170173 0.02142555
v -1.99959791 -0.80156481 0.03686244
v -1.99959791 -0.80155760 0.05352618
v -1.98696687 -0.79327794 0.06997052
v -1.99945349 -0.73082397 0.06997052
v -1.98490143 -0.74434953 0.02019876
v -1.98893849 -0.73399457 0.03686244
v -1.98463416 -0.74434953 0.03686244
v -1.98272763 -0.76101691 0.02019876
v -1.98253988 -0.76101691 0.03686244
v -1.98261927 -0.77766987 0.02019876
v -1.98699572 -0.79312664 0.02019876
v -1.98688747 -0.79324191 0.03686244
v -1.98679354 -0.79324191 0.05352618
v -1.98680081 -0.79316988 0.06997052
v -1.98914067 -0.73407385 0.06997052
v -1.98896006 -0.73397296 0.05352618
v -1.98472083 -0.74434953 0.05352618
v -1.98257600 -0.76101691 0.05352618
v -1.98246764 -0.77766987 0.03686244
v -1.98234485 -0.77766987 0.05352618
v -1.98674299 -0.79296809 0.06997052
v -1.98506034 -0.74434953 0.06997052
v -1.98286484 -0.76079351 0.06997052
v -1.98283600 -0.76101691 0.06997052
v -1.98244594 -0.77766987 0.06997052
f 1 2 3
f 1 3 4
f 1 4 5
f 1 5 6
f 1 6 7
f 1 7 8
f 1 8 9
f 1 9 10
f 1 10 11
f 1 11 2
f 2 12 13
f 2 13 3
f 2 11 14
f 2 14 15
f 2 15 12
f 3 13 16
f 3 16 17
f 3 17 4
f 4 17 18
f 4 18 19
f 4 19 20
f 4 20 5
f 5 20 21
f 5 21 22
f 5 22 23
f 5 23 24
f 5 24 25
f 5 25 6
f 6 25 7
f 7 26 8
f 7 25 40
f 7 40 56
f 7 56 55
f 7 55 70
f 7 70 85
f 7 85 96
f 7 96 103
f 7 103 107
f 7 107 106
f 7 106 105
f 7 105 104
f 7 104 97
f 7 97 86
f 7 86 72
f 7 72 57
f 7 57 41
f 7 41 28
f 7 28 15
f 7 15 14
f 7 14 10
f 7 10 9
f 7 9 27
f 7 27 26
f 8 26 27
f 8 27 9
f 10 14 11
f 12 15 28
f 12 28 13
f 13 29 16
f 13 28 30
f 13 30 29
f 16 31 32
f 16 32 17
f 16 29 31
f 17 32 33
f 17 33 18
f 18 33 34
f 18 34 19
f 19 34 35
f 19 35 20
f 20 35 21
f 21 35 36
f 21 36 22
f 22 36 37
f 22 37 23
f 23 38 24
f 23 37 38
f 24 38 39
f 24 39 25
f 25 39 40
f 28 41 42
f 28 42 30
f 29 30 43
f 29 43 44
f 29 44 31
f 30 42 43
f 31 44 45
f 31 45 32
f 32 45 46
f 32 46 33
f 33 46 34
f 34 46 47
f 34 47 48
f 34 48 35
f 35 48 36
f 36 49 50
f 36 50 37
f 36 48 51
f 36 51 49
f 37 50 38
f 38 50 52
f 38 52 53
f 38 53 54
f 38 54 39
f 39 54 55
f 39 55 56
f 39 56 40
f 41 57 58
f 41 58 42
f 42 58 59
f 42 59 43
f 43 59 60
f 43 60 44
f 44 60 61
f 44 61 45
f 45 61 46
f 46 61 62
f 46 62 63
f 46 63 64
f 46 64 47
f 47 64 65
f 47 65 66
f 47 66 51
f 47 51 48
f 49 67 50
f 49 51 66
f 49 66 68
f 49 68 67
f 50 67 71
f 50 71 69
f 50 69 52
f 52 69 54
f 52 54 53
f 54 69 55
f 55 69 71
f 55 71 70
f 57 72 73
f 57 73 74
f 57 74 58
f 58 75 76
f 58 76 59
f 58 74 75
f 59 76 77
f 59 77 60
f 60 77 61
f 61 77 62
f 62 77 78
f 62 78 79
f 62 79 63
f 63 79 80
f 63 80 64
f 64 80 65
f 65 80 81
f 65 81 68
f 65 68 66
f 67 68 82
f 67 82 83
f 67 83 71
f 68 81 83
f 68 83 82
f 70 71 84
f 70 84 85
f 71 83 84
f 72 86 73
f 73 86 75
f 73 75 74
f 75 87 76
f 75 86 88
f 75 88 89
f 75 89 87
f 76 87 78
f 76 78 77
f 78 87 79
f 79 87 90
f 79 90 80
f 80 90 91
f 80 91 92
f 80 92 93
f 80 93 81
f 81 93 83
f 83 94 95
f 83 95 84
f 83 93 94
f 84 95 85
f 85 95 96
f 86 97 98
f 86 98 88
f 87 89 90
f 88 98 89
f 89 98 99
f 89 99 100
f 89 100 91
f 89 91 90
f 91 101 92
f 91 100 102
f 91 102 101
f 92 101 93
f 93 101 94
f 94 102 95
f 94 101 102
f 95 102 103
f 95 103 96
f 97 104 99
f 97 99 98
f 99 104 105
f 99 105 106
f 99 106 100
f 100 106 107
f 100 107 102
f 102 107 103

