# https://github.com/mikedh/trimesh
v -3.99658129 -0.77767359 0.20248165
v -3.99563941 -0.76100895 0.20248165
v -3.99404390 -0.79182856 0.20248165
v -3.99404390 -0.79181988 0.20354232
v -3.99328465 -0.79084725 0.42823127
v -3.99498578 -0.77767359 0.42823127
v -3.99309237 -0.74883395 0.20354232
v -3.99325580 -0.74959815 0.20248165
v -3.99452444 -0.76964088 0.42823127
v -3.99397667 -0.76100895 0.42823127
v -3.99315972 -0.75584196 0.42823127
v -3.99227542 -0.75037102 0.42823127
v -3.98364472 -0.79909707 0.20248165
v -3.98293345 -0.79964419 0.22020398
v -3.98293345 -0.79963549 0.23688769
v -3.98293345 -0.79960077 0.25354935
v -3.98293345 -0.79914920 0.38686449
v -3.99394782 -0.79183723 0.22020398
v -3.98830608 -0.79476375 0.42823127
v -3.99279446 -0.74830421 0.20248165
v -3.99309237 -0.74882528 0.20248165
v -3.96972782 -0.71348129 0.42823127
v -3.98758527 -0.74126148 0.32019586
v -3.98293345 -0.79958339 0.20248165
v -3.96626780 -0.80195413 0.27021095
v -3.96626780 -0.80199755 0.28687260
v -3.96626780 -0.80203230 0.30353420
v -3.96626780 -0.80216253 0.38686449
v -3.96626780 -0.80218861 0.42823127
v -3.97490822 -0.80052995 0.42823127
v -3.98293345 -0.79897551 0.42823127
v -3.98767176 -0.74119201 0.30353420
v -3.98793128 -0.74049728 0.20248165
v -3.92899594 -0.71348129 0.42823127
v -3.97040058 -0.71348129 0.20248165
v -3.96732501 -0.80138099 0.20248165
v -3.94960215 -0.80121598 0.25354935
v -3.96626780 -0.80161545 0.22020398
v -3.95064977 -0.80106836 0.20248165
v -3.94960215 -0.80104232 0.20354232
v -3.94960215 -0.80151126 0.40352608
v -3.94960215 -0.80150256 0.42823127
v -3.89840379 -0.73583396 0.42823127
v -3.89846143 -0.73396691 0.20248165
v -3.92894784 -0.71348129 0.42365706
v -3.92848656 -0.71348129 0.20248165
v -3.96626780 -0.80149388 0.20248165
v -3.96626780 -0.80150256 0.20354232
v -3.89840379 -0.78492476 0.20248165
v -3.94960215 -0.80103361 0.20248165
v -3.89840379 -0.78505503 0.42823127
v -3.89840379 -0.78501161 0.28687260
v -3.89840379 -0.73452267 0.20354232
v -3.89840379 -0.73964624 0.20248165
v -3.92837122 -0.71348129 0.23688769
v -3.92831352 -0.71348129 0.33685746
v -3.92832312 -0.71348129 0.34054779
v -3.92836156 -0.71348129 0.35351912
v -3.92839041 -0.71348129 0.35714311
v -3.92876527 -0.71348129 0.40352608
v -3.92879412 -0.71348129 0.40703963
f 1 2 8
f 1 8 21
f 1 21 20
f 1 20 33
f 1 33 35
f 1 35 46
f 1 46 44
f 1 44 54
f 1 54 49
f 1 49 50
f 1 50 39
f 1 39 47
f 1 47 36
f 1 36 24
f 1 24 13
f 1 13 3
f 1 3 4
f 1 4 5
f 1 5 6
f 1 6 2
f 2 7 8
f 2 6 9
f 2 9 10
f 2 10 11
f 2 11 12
f 2 12 7
f 3 13 14
f 3 14 15
f 3 15 16
f 3 16 17
f 3 17 18
f 3 18 4
f 4 18 5
f 5 19 31
f 5 31 30
f 5 30 29
f 5 29 42
f 5 42 51
f 5 51 43
f 5 43 34
f 5 34 22
f 5 22 12
f 5 12 11
f 5 11 10
f 5 10 9
f 5 9 6
f 5 18 19
f 7 20 21
f 7 21 8
f 7 12 20
f 12 22 23
f 12 23 20
f 13 24 14
f 14 24 25
f 14 25 26
f 14 26 27
f 14 27 28
f 14 28 29
f 14 29 15
f 15 29 16
f 16 29 17
f 17 29 30
f 17 30 31
f 17 31 18
f 18 31 19
f 20 32 22
f 20 22 33
f 20 23 32
f 22 34 45
f 22 45 61
f 22 61 60
f 22 60 59
f 22 59 58
f 22 58 57
f 22 57 56
f 22 56 55
f 22 55 46
f 22 46 35
f 22 35 33
f 22 32 23
f 24 36 25
f 25 37 26
f 25 36 38
f 25 38 39
f 25 39 40
f 25 40 37
f 26 37 27
f 27 37 41
f 27 41 28
f 28 41 29
f 29 41 42
f 34 43 44
f 34 44 45
f 36 47 48
f 36 48 38
f 37 40 49
f 37 49 41
f 38 48 39
f 39 48 47
f 39 50 40
f 40 50 49
f 41 51 42
f 41 49 52
f 41 52 51
f 43 51 52
f 43 52 49
f 43 49 54
f 43 54 53
f 43 53 44
f 44 53 54
f 44 46 55
f 44 55 56
f 44 56 57
f 44 57 58
f 44 58 59
f 44 59 60
f 44 60 61
f 44 61 45

