# https://github.com/mikedh/trimesh
v -3.81485048 1.57271728 1.49282166
v -3.81482197 1.58938910 1.49282166
v -3.81474587 1.55606267 1.49282166
v -3.81472690 1.55675123 1.67694148
v -3.81043899 1.60303125 1.49282166
v -3.81466983 1.57340584 1.67694148
v -3.81454625 1.58938050 1.67694148
v -3.81436560 1.58995715 1.67694148
v -3.81029639 1.60290214 1.67694148
v -3.81354797 1.53939085 1.49282166
v -3.81370960 1.53937364 1.67623854
v -3.81370960 1.53937364 1.67694148
v -3.81471736 1.55605407 1.67694148
v -3.79781304 1.60925412 1.49282166
v -3.79835500 1.60891844 1.67694148
v -3.79782258 1.60918526 1.67694148
v -3.80926960 1.52830499 1.49282166
v -3.80941220 1.52814148 1.67623854
v -3.80941220 1.52814148 1.67694148
v -3.78113691 1.61014064 1.49282166
v -3.78144114 1.61272276 1.67694148
v -3.78143165 1.61272276 1.67690545
v -3.79780356 1.52526671 1.49282166
v -3.79782258 1.52490522 1.67694148
v -3.76448928 1.60909058 1.49282166
v -3.78099430 1.61272276 1.67645486
v -3.76448928 1.61272276 1.67212896
v -3.75470608 1.61272276 1.67694148
v -3.78112742 1.52515482 1.49282166
v -3.78113691 1.52481916 1.66259404
v -3.78114645 1.52479334 1.67694148
v -3.75184437 1.60287632 1.49282166
v -3.74671981 1.60800611 1.67694148
v -3.76447980 1.52556796 1.49282166
v -3.76448928 1.52541304 1.56738883
v -3.76448928 1.52531836 1.67623854
v -3.76448928 1.52531836 1.67694148
v -3.75662659 1.52562823 1.56738883
v -3.74781315 1.52586921 1.57620280
v -3.73540591 1.58402691 1.49282166
v -3.74638707 1.60766183 1.67694148
v -3.74781315 1.52604136 1.49282166
v -3.76378575 1.52534418 1.67694148
v -3.74781315 1.52586921 1.59285740
v -3.74781315 1.52588641 1.56738883
v -3.73462627 1.52866650 1.49282166
v -3.73443614 1.52858903 1.57620280
v -3.72659247 1.57152950 1.49282166
v -3.73101344 1.58967313 1.67694148
v -3.71772195 1.57270867 1.67694148
v -3.74781315 1.52600692 1.67694148
v -3.74781315 1.52588641 1.60951200
v -3.73447413 1.52858903 1.59285740
v -3.72708683 1.53938226 1.49282166
v -3.72593641 1.54019133 1.67694148
v -3.72647837 1.57092702 1.49282166
v -3.71982312 1.55605407 1.67694148
v -3.72378771 1.55655328 1.49282166
v -3.74726171 1.52611884 1.67694148
v -3.73454069 1.52859765 1.60951200
v -3.72389233 1.55595939 1.49282166
v -3.73474037 1.52872674 1.67694148
f 1 2 5
f 1 5 14
f 1 14 20
f 1 20 25
f 1 25 32
f 1 32 40
f 1 40 48
f 1 48 56
f 1 56 58
f 1 58 61
f 1 61 54
f 1 54 46
f 1 46 42
f 1 42 34
f 1 34 29
f 1 29 23
f 1 23 17
f 1 17 10
f 1 10 3
f 1 3 4
f 1 4 2
f 2 4 6
f 2 6 7
f 2 7 8
f 2 8 9
f 2 9 5
f 3 10 11
f 3 11 12
f 3 12 13
f 3 13 4
f 4 13 12
f 4 12 19
f 4 19 24
f 4 24 31
f 4 31 37
f 4 37 43
f 4 43 51
f 4 51 59
f 4 59 62
f 4 62 55
f 4 55 57
f 4 57 50
f 4 50 49
f 4 49 41
f 4 41 33
f 4 33 28
f 4 28 21
f 4 21 16
f 4 16 15
f 4 15 9
f 4 9 8
f 4 8 7
f 4 7 6
f 5 9 15
f 5 15 16
f 5 16 14
f 10 17 18
f 10 18 11
f 11 18 19
f 11 19 12
f 14 16 21
f 14 21 22
f 14 22 20
f 17 23 24
f 17 24 18
f 18 24 19
f 20 22 26
f 20 26 27
f 20 27 28
f 20 28 25
f 21 28 27
f 21 27 26
f 21 26 22
f 23 29 30
f 23 30 24
f 24 30 31
f 25 28 32
f 28 33 32
f 29 34 35
f 29 35 30
f 30 35 31
f 31 36 37
f 31 35 38
f 31 38 39
f 31 39 36
f 32 33 41
f 32 41 40
f 34 42 38
f 34 38 35
f 36 39 44
f 36 44 37
f 37 44 43
f 38 42 45
f 38 45 39
f 39 45 46
f 39 46 47
f 39 47 44
f 40 41 49
f 40 49 50
f 40 50 48
f 42 46 45
f 43 44 52
f 43 52 51
f 44 47 53
f 44 53 52
f 46 54 55
f 46 55 47
f 47 55 53
f 48 50 56
f 50 57 58
f 50 58 56
f 51 52 59
f 52 53 60
f 52 60 59
f 53 55 60
f 54 61 57
f 54 57 55
f 55 62 60
f 57 61 58
f 59 60 62

