# https://github.com/mikedh/trimesh
v -3.76446793 1.62930072 0.64471177
v -3.76891300 1.62930072 0.64536538
v -3.76439994 1.65602853 0.64694913
v -3.74774164 1.65602853 0.64776195
v -3.74779263 1.62930072 0.64668098
v -3.77588227 1.65602853 0.64865016
v -3.77642620 1.62930072 0.64765302
v -3.73682877 1.65602853 0.64950488
v -3.73364160 1.62930072 0.64969761
v -3.78167869 1.65602853 0.65890671
v -3.77869549 1.62930072 0.65168355
v -3.69814069 1.65602853 0.68215153
v -3.69814069 1.63395244 0.66122783
v -3.69814069 1.62931119 0.65807713
v -3.69814922 1.62930072 0.65806875
v -3.78231614 1.62930072 0.65895699
v -3.78343799 1.62930072 0.66550978
v -3.78433893 1.65602853 0.67555684
v -3.69814069 1.65602853 0.72750989
v -3.69814069 1.62930072 0.66541760
v -3.78474688 1.62930072 0.67563225
v -3.78496785 1.62930072 0.69229911
v -3.78430494 1.65602853 0.69222373
v -3.69814069 1.62930072 0.72859924
v -3.76446793 1.65602853 0.72900146
v -3.76488441 1.62930072 0.73030865
v -3.78491686 1.62930072 0.70897438
v -3.78415196 1.65602853 0.70889896
v -3.77844899 1.65602853 0.72314418
v -3.77287360 1.62930072 0.72750989
v -3.77867849 1.62930072 0.72506308
f 1 2 3
f 1 3 4
f 1 4 5
f 1 5 9
f 1 9 15
f 1 15 20
f 1 20 24
f 1 24 26
f 1 26 30
f 1 30 31
f 1 31 27
f 1 27 22
f 1 22 21
f 1 21 17
f 1 17 16
f 1 16 11
f 1 11 7
f 1 7 2
f 2 6 3
f 2 7 6
f 3 6 10
f 3 10 18
f 3 18 23
f 3 23 28
f 3 28 29
f 3 29 25
f 3 25 19
f 3 19 12
f 3 12 8
f 3 8 4
f 4 8 5
f 5 8 9
f 6 7 10
f 7 11 10
f 8 12 13
f 8 13 14
f 8 14 15
f 8 15 9
f 10 11 16
f 10 16 17
f 10 17 18
f 12 19 24
f 12 24 20
f 12 20 14
f 12 14 13
f 14 20 15
f 17 21 18
f 18 21 22
f 18 22 23
f 19 25 26
f 19 26 24
f 22 27 23
f 23 27 28
f 25 29 30
f 25 30 26
f 27 31 28
f 28 31 29
f 29 31 30

