# https://github.com/mikedh/trimesh
v -3.84411497 -0.24430954 1.55219598
v -3.91285917 -0.24430954 1.54572060
v -3.84411497 -0.24430954 1.59955558
v -3.84411497 -0.27770871 1.55229087
v -3.91285917 -0.39435520 1.54614487
v -3.91285917 -0.24430954 1.60219043
v -3.91285917 -0.40761462 1.60255324
v -3.91285917 -0.41103200 1.60255885
v -3.91285917 -0.57424595 1.60274303
v -3.84411497 -0.39435520 1.59968958
v -3.84411497 -0.29433994 1.55235786
v -3.84411497 -0.54430972 1.55392089
v -3.91285917 -0.41103200 1.54625651
v -3.91285917 -0.59092275 1.60274863
v -3.84411497 -0.41103200 1.59968397
v -3.84411497 -0.70980193 1.55519364
v -3.91285917 -0.70980193 1.54841683
v -3.84411497 -0.56098652 1.59960583
v -3.84411497 -0.54430972 1.59962818
v -3.91285917 -0.60759956 1.60269838
v -3.84411497 -0.70980193 1.59935465
v -3.91285917 -0.70980193 1.60227972
f 1 2 6
f 1 6 3
f 1 3 10
f 1 10 15
f 1 15 19
f 1 19 18
f 1 18 21
f 1 21 16
f 1 16 12
f 1 12 11
f 1 11 4
f 1 4 5
f 1 5 2
f 2 5 13
f 2 13 17
f 2 17 22
f 2 22 20
f 2 20 14
f 2 14 9
f 2 9 8
f 2 8 7
f 2 7 6
f 3 6 7
f 3 7 8
f 3 8 9
f 3 9 10
f 4 11 5
f 5 11 12
f 5 12 13
f 9 14 10
f 10 14 15
f 12 16 17
f 12 17 13
f 14 18 19
f 14 19 15
f 14 20 21
f 14 21 18
f 16 21 22
f 16 22 17
f 20 22 21

