# https://github.com/mikedh/trimesh
v 0.64076406 -0.29071272 1.22001122
v 0.64439276 -0.29071272 1.22001122
v 0.64076406 -0.27766561 1.22000147
v 0.62411426 -0.29071272 1.22000147
v 0.65742846 -0.29071272 1.21999173
v 0.62411426 -0.27766561 1.21999173
v 0.65742846 -0.26100093 1.21995275
v 0.64076406 -0.24433627 1.21994300
v 0.59028996 -0.27766561 1.21993325
v 0.59067615 -0.29071272 1.21994300
v 0.66472231 -0.29071272 1.21997224
v 0.66472231 -0.28704197 1.21997224
v 0.66472231 -0.27766561 1.21996249
v 0.62411426 -0.26100093 1.21996249
v 0.66472231 -0.27037730 1.21995275
v 0.66472231 -0.25371264 1.21992351
v 0.63309130 -0.23534559 1.21989427
v 0.62411426 -0.23534559 1.21988453
v 0.62411426 -0.24433627 1.21992351
v 0.66472231 -0.24433627 1.21989427
v 0.65742846 -0.22767159 1.21984555
v 0.64076406 -0.22767159 1.21986504
v 0.59028996 -0.26100093 1.21989427
v 0.59028996 -0.29071272 1.21993325
v 0.66472231 -0.29071272 1.16180057
v 0.59028996 -0.24433627 1.21984555
v 0.62411426 -0.22767159 1.21984555
v 0.66472231 -0.23704797 1.21986504
v 0.66472231 -0.22767159 1.21982605
v 0.66472231 -0.22038329 1.21977733
v 0.66472231 -0.21100694 1.21970911
v 0.65742846 -0.21100694 1.21971885
v 0.64076406 -0.21100694 1.21971885
v 0.59028996 -0.29071272 1.16371071
v 0.65100899 -0.29071272 1.12578072
v 0.66472231 -0.21100694 1.13628651
v 0.59028996 -0.22767159 1.21975784
v 0.62411426 -0.21100694 1.21969936
v 0.66472231 -0.19435556 1.21944598
v 0.65742846 -0.19435556 1.21945573
v 0.64076406 -0.19435556 1.21944598
v 0.61437937 -0.29071272 1.12636546
v 0.59028996 -0.21100694 1.13893731
v 0.64076406 -0.29071272 1.12050834
v 0.65105998 -0.27766561 1.12572225
v 0.66472231 -0.17769089 1.13254419
v 0.66472231 -0.19435556 1.13312892
v 0.60744986 -0.21100694 1.21965064
v 0.59028996 -0.21148572 1.21958242
v 0.62411426 -0.19435556 1.21941675
v 0.66472231 -0.18705396 1.21913411
v 0.64076406 -0.17769089 1.21873455
v 0.62411426 -0.17769089 1.21872481
v 0.62199387 -0.29071272 1.12223331
v 0.59028996 -0.19435556 1.13384036
v 0.59028996 -0.19386346 1.13380138
v 0.59028996 -0.17769089 1.13279757
v 0.62411426 -0.29071272 1.12109306
v 0.64076406 -0.27766561 1.12045961
v 0.64076406 -0.17769089 1.13237852
v 0.66472231 -0.16214339 1.13865470
v 0.64076406 -0.26100093 1.12088841
v 0.64076406 -0.24433627 1.12204814
v 0.60744986 -0.19435556 1.21934853
v 0.59028996 -0.19483434 1.21927056
v 0.59028996 -0.17769089 1.21862734
v 0.59028996 -0.17816966 1.21864683
v 0.65742846 -0.17769089 1.21871506
v 0.66472231 -0.17769089 1.21870531
v 0.66472231 -0.16452406 1.21501172
v 0.64076406 -0.16449748 1.21503121
v 0.62411426 -0.16448416 1.21504096
v 0.59028996 -0.16448416 1.21502146
v 0.59028996 -0.17722541 1.13297299
v 0.62411426 -0.17769089 1.13239801
v 0.62411426 -0.24433627 1.12215534
v 0.62411426 -0.26100093 1.12147315
v 0.62411426 -0.27766561 1.12110281
v 0.59028996 -0.16213011 1.13867419
v 0.65742846 -0.16213011 1.13866444
v 0.66472231 -0.15803375 1.14702619
v 0.59028996 -0.19435556 1.21926082
v 0.66472231 -0.15754168 1.20353136
v 0.65742846 -0.15752836 1.20353136
v 0.59028996 -0.15775447 1.20386272
v 0.59028996 -0.15493491 1.15354602
v 0.60744986 -0.15486842 1.15354602
v 0.62411426 -0.15484180 1.15354602
v 0.65742846 -0.15484180 1.15354602
v 0.66472231 -0.15488170 1.15354602
v 0.66472231 -0.15522751 1.18686633
v 0.65742846 -0.15520090 1.18686633
v 0.59028996 -0.15755497 1.20353136
v 0.59028996 -0.15509450 1.17069834
v 0.62411426 -0.15490830 1.17021105
v 0.64076406 -0.15486842 1.17021105
v 0.65742846 -0.15488170 1.17021105
v 0.66472231 -0.15490830 1.16292131
v 0.66472231 -0.15494820 1.17021105
v 0.64076406 -0.15522751 1.18686633
v 0.59028996 -0.15542701 1.18734387
v 0.59028996 -0.15537380 1.18686633
f 1 2 3
f 1 3 6
f 1 6 4
f 1 4 10
f 1 10 24
f 1 24 34
f 1 34 42
f 1 42 54
f 1 54 58
f 1 58 44
f 1 44 35
f 1 35 25
f 1 25 11
f 1 11 5
f 1 5 2
f 2 5 3
f 3 5 7
f 3 7 8
f 3 8 14
f 3 14 6
f 4 6 9
f 4 9 10
f 5 11 12
f 5 12 13
f 5 13 7
f 6 14 9
f 7 15 16
f 7 16 8
f 7 13 15
f 8 17 18
f 8 18 19
f 8 19 14
f 8 16 20
f 8 20 21
f 8 21 22
f 8 22 17
f 9 14 19
f 9 19 23
f 9 23 26
f 9 26 37
f 9 37 49
f 9 49 65
f 9 65 82
f 9 82 67
f 9 67 66
f 9 66 73
f 9 73 85
f 9 85 93
f 9 93 101
f 9 101 102
f 9 102 94
f 9 94 86
f 9 86 79
f 9 79 74
f 9 74 57
f 9 57 56
f 9 56 55
f 9 55 43
f 9 43 34
f 9 34 24
f 9 24 10
f 11 25 36
f 11 36 47
f 11 47 46
f 11 46 61
f 11 61 81
f 11 81 90
f 11 90 98
f 11 98 99
f 11 99 91
f 11 91 83
f 11 83 70
f 11 70 69
f 11 69 51
f 11 51 39
f 11 39 31
f 11 31 30
f 11 30 29
f 11 29 28
f 11 28 20
f 11 20 16
f 11 16 15
f 11 15 13
f 11 13 12
f 17 22 18
f 18 26 19
f 18 22 27
f 18 27 26
f 19 26 23
f 20 28 21
f 21 29 30
f 21 30 31
f 21 31 32
f 21 32 22
f 21 28 29
f 22 32 33
f 22 33 38
f 22 38 27
f 25 35 36
f 26 27 37
f 27 38 37
f 31 39 40
f 31 40 32
f 32 40 33
f 33 40 41
f 33 41 38
f 34 43 42
f 35 44 45
f 35 45 46
f 35 46 47
f 35 47 36
f 37 38 48
f 37 48 49
f 38 41 50
f 38 50 48
f 39 51 40
f 40 51 52
f 40 52 41
f 41 52 53
f 41 53 50
f 42 43 55
f 42 55 56
f 42 56 57
f 42 57 54
f 44 58 59
f 44 59 45
f 45 59 46
f 46 60 61
f 46 59 62
f 46 62 63
f 46 63 60
f 48 50 64
f 48 64 49
f 49 64 65
f 50 53 66
f 50 66 67
f 50 67 64
f 51 68 52
f 51 69 68
f 52 68 70
f 52 70 71
f 52 71 72
f 52 72 73
f 52 73 53
f 53 73 66
f 54 57 58
f 57 74 75
f 57 75 76
f 57 76 77
f 57 77 78
f 57 78 58
f 58 78 59
f 59 78 77
f 59 77 62
f 60 63 75
f 60 75 79
f 60 79 61
f 61 79 80
f 61 80 81
f 62 77 76
f 62 76 63
f 63 76 75
f 64 67 82
f 64 82 65
f 68 69 70
f 70 83 84
f 70 84 71
f 71 84 72
f 72 84 73
f 73 84 85
f 74 79 75
f 79 86 87
f 79 87 88
f 79 88 80
f 80 88 81
f 81 88 89
f 81 89 90
f 83 91 92
f 83 92 84
f 84 92 93
f 84 93 85
f 86 94 95
f 86 95 87
f 87 95 96
f 87 96 88
f 88 96 89
f 89 96 97
f 89 97 90
f 90 97 98
f 91 99 97
f 91 97 92
f 92 100 93
f 92 97 96
f 92 96 100
f 93 100 101
f 94 102 95
f 95 102 100
f 95 100 96
f 97 99 98
f 100 102 101

