# https://github.com/mikedh/trimesh
v -2.04675438 1.98289599 1.38780914
v -2.06362316 1.98942964 1.38780914
v -2.04675438 1.98707822 1.36955612
v -2.03658488 1.98675717 1.36955612
v -2.03007676 1.98659232 1.36955612
v -2.01339914 1.98810208 1.36955612
v -2.02980521 1.98500446 1.38780914
v -2.06001200 1.99284830 1.36955612
v -2.05192469 1.98929080 1.36955612
v -2.09527845 2.00783315 1.38780914
v -2.01339914 1.98808473 1.38780914
v -2.00622715 1.99152075 1.36955612
v -2.08781475 2.01654466 1.36955612
v -2.10069012 2.02300021 1.38780914
v -2.09039991 2.02359890 1.36955612
v -2.00164031 1.99371597 1.36955612
v -2.00162021 1.99372465 1.38780914
v -2.09692813 2.03994601 1.38780914
v -2.08860942 2.05653606 1.36955612
v -2.08928336 2.05328226 1.36955612
v -2.09115431 2.03966834 1.36955612
v -1.99805939 2.00632337 1.36955612
v -2.00056402 1.99744700 1.38780914
v -2.08992713 2.05626708 1.38780914
v -2.08732188 2.06162066 1.36955612
v -1.99792859 2.02300021 1.36955612
v -1.99800905 2.01125181 1.38780914
v -1.99804931 2.00632337 1.38780914
v -2.08703017 2.06214128 1.38780914
v -2.08224211 2.06532567 1.36955612
v -1.99794869 2.03966834 1.36955612
v -1.99794869 2.03966834 1.38780914
v -1.99794869 2.02300021 1.38780914
v -2.07869136 2.06764238 1.38780914
v -2.07890261 2.06766841 1.37605861
v -2.07898307 2.06768577 1.36955612
v -1.99813984 2.04616729 1.36955612
v -1.99843155 2.05634518 1.37605861
v -1.99842147 2.05634518 1.38780914
v -2.06342199 2.07083543 1.38780914
v -2.06342199 2.07085279 1.36955612
v -1.99844163 2.05634518 1.36955612
v -1.99982972 2.06072697 1.36955612
v -2.00200245 2.06761635 1.37605861
v -2.00200245 2.06764238 1.38780914
v -2.04675438 2.07124326 1.38780914
v -2.04675438 2.07119987 1.37605861
v -2.04675438 2.07117384 1.36955612
v -2.00201247 2.06760767 1.36955612
v -2.01003948 2.07009790 1.38780914
v -2.03007676 2.07152960 1.38780914
v -2.03007676 2.07141678 1.36955612
v -2.00896319 2.06969878 1.36955612
v -2.01339914 2.07111309 1.38780914
v -2.02515796 2.07140811 1.38780914
v -2.01339914 2.07101766 1.36955612
v -2.01339914 2.07105237 1.37605861
f 1 2 3
f 1 3 4
f 1 4 5
f 1 5 6
f 1 6 7
f 1 7 11
f 1 11 17
f 1 17 23
f 1 23 28
f 1 28 27
f 1 27 33
f 1 33 32
f 1 32 39
f 1 39 45
f 1 45 50
f 1 50 54
f 1 54 55
f 1 55 51
f 1 51 46
f 1 46 40
f 1 40 34
f 1 34 29
f 1 29 24
f 1 24 18
f 1 18 14
f 1 14 10
f 1 10 2
f 2 8 9
f 2 9 3
f 2 10 8
f 3 9 8
f 3 8 13
f 3 13 15
f 3 15 21
f 3 21 20
f 3 20 19
f 3 19 25
f 3 25 30
f 3 30 36
f 3 36 41
f 3 41 48
f 3 48 52
f 3 52 56
f 3 56 53
f 3 53 49
f 3 49 43
f 3 43 42
f 3 42 37
f 3 37 31
f 3 31 26
f 3 26 22
f 3 22 16
f 3 16 12
f 3 12 6
f 3 6 5
f 3 5 4
f 6 11 7
f 6 12 11
f 8 10 13
f 10 14 15
f 10 15 13
f 11 12 16
f 11 16 17
f 14 18 19
f 14 19 20
f 14 20 21
f 14 21 15
f 16 22 17
f 17 22 23
f 18 24 25
f 18 25 19
f 22 26 27
f 22 27 28
f 22 28 23
f 24 29 25
f 25 29 30
f 26 31 32
f 26 32 33
f 26 33 27
f 29 34 35
f 29 35 36
f 29 36 30
f 31 37 38
f 31 38 39
f 31 39 32
f 34 40 35
f 35 40 36
f 36 40 41
f 37 42 38
f 38 42 43
f 38 43 44
f 38 44 39
f 39 44 45
f 40 46 41
f 41 46 47
f 41 47 48
f 43 49 44
f 44 49 45
f 45 49 50
f 46 51 47
f 47 51 48
f 48 51 52
f 49 53 54
f 49 54 50
f 51 55 56
f 51 56 52
f 53 56 57
f 53 57 54
f 54 57 55
f 55 57 56

