# https://github.com/mikedh/trimesh
v 1.62506537 -0.71005472 1.22179167
v 1.60841852 -0.71005472 1.22178149
v 1.63614748 -0.71005472 1.22177133
v 1.65744343 -0.27774480 1.22142547
v 1.64078082 -0.27774480 1.22142547
v 1.59466058 -0.71005472 1.22176115
v 1.63614748 -0.71005472 1.12060053
v 1.67529797 -0.70782090 1.22168995
v 1.65744343 -0.70782090 1.22173063
v 1.67529797 -0.27655952 1.22138479
v 1.67529797 -0.26105962 1.22136445
v 1.65744343 -0.26105962 1.22139495
v 1.64078082 -0.26105962 1.22140513
v 1.63614748 -0.26566400 1.22140513
v 1.59466058 -0.71005472 1.16509289
v 1.62411817 -0.26105962 1.22137461
v 1.59466058 -0.26105962 1.22129323
v 1.62832526 -0.71005472 1.12301130
v 1.64078082 -0.70782090 1.11908490
v 1.65089206 -0.70782090 1.12315370
v 1.65320480 -0.70782090 1.12417091
v 1.67529797 -0.70782090 1.16500134
v 1.67529797 -0.24432888 1.22127289
v 1.67411397 -0.24432888 1.22128307
v 1.65744343 -0.24432888 1.22132375
v 1.64078082 -0.24437448 1.22133393
v 1.62411817 -0.24437448 1.22131359
v 1.62665980 -0.71005472 1.12353006
v 1.59466058 -0.70020772 1.16498100
v 1.62663611 -0.69428130 1.12314354
v 1.59466058 -0.24437448 1.22125255
v 1.64078082 -0.69432690 1.11861699
v 1.64078082 -0.67759613 1.11835251
v 1.65317320 -0.69432690 1.12402849
v 1.65363103 -0.57762190 1.12354024
v 1.67529797 -0.67878141 1.16450292
v 1.67529797 -0.24432888 1.16154286
v 1.63614748 -0.24432888 1.22132375
v 1.63614748 -0.69428130 1.12009193
v 1.59466058 -0.68324905 1.16483859
v 1.59466058 -0.57762190 1.16407569
v 1.59466058 -0.56695434 1.16401466
v 1.59466058 -0.56102791 1.16399431
v 1.59466058 -0.39440420 1.16348571
v 1.62627303 -0.41104378 1.12302147
v 1.62673872 -0.67764173 1.12300113
v 1.63614748 -0.67759613 1.11987832
v 1.59466058 -0.24437448 1.16325176
v 1.64078082 -0.64431698 1.11825079
v 1.65387571 -0.49433284 1.12340801
v 1.65371782 -0.56093674 1.12356058
v 1.67529797 -0.57981013 1.16344503
v 1.65408093 -0.31106954 1.12328593
v 1.65413618 -0.26105962 1.12358092
v 1.65390730 -0.24437448 1.12402849
v 1.65389937 -0.24432888 1.12402849
v 1.67529797 -0.34439428 1.16172596
v 1.65412832 -0.32770912 1.12334697
v 1.63614748 -0.24432888 1.12086500
v 1.59466058 -0.38423810 1.16346537
v 1.64078082 -0.44441411 1.11787443
v 1.59466058 -0.26771546 1.16327210
v 1.59466058 -0.26105962 1.16326193
v 1.62612306 -0.27774480 1.12304181
v 1.62625723 -0.24437448 1.12393694
v 1.62605991 -0.26105962 1.12320456
v 1.59466058 -0.25116705 1.16325176
v 1.65394676 -0.44441411 1.12332663
v 1.65393096 -0.46105368 1.12336731
v 1.67529797 -0.41108937 1.16217352
v 1.67529797 -0.42772894 1.16229559
v 1.67529797 -0.49123286 1.16276351
v 1.64078082 -0.31106954 1.11788461
v 1.64078082 -0.27774480 1.11803718
v 1.64078082 -0.26105962 1.11823045
v 1.64078082 -0.24437448 1.11942057
v 1.64078082 -0.24432888 1.11943075
v 1.63614748 -0.24437448 1.12085482
v 1.63614748 -0.25572586 1.12005124
f 1 2 6
f 1 6 15
f 1 15 28
f 1 28 18
f 1 18 7
f 1 7 3
f 1 3 4
f 1 4 5
f 1 5 2
f 2 5 6
f 3 7 22
f 3 22 8
f 3 8 9
f 3 9 4
f 4 10 11
f 4 11 12
f 4 12 13
f 4 13 5
f 4 9 10
f 5 13 14
f 5 14 6
f 6 14 16
f 6 16 17
f 6 17 31
f 6 31 48
f 6 48 67
f 6 67 63
f 6 63 62
f 6 62 60
f 6 60 44
f 6 44 43
f 6 43 42
f 6 42 41
f 6 41 40
f 6 40 29
f 6 29 15
f 7 18 19
f 7 19 20
f 7 20 21
f 7 21 22
f 8 22 36
f 8 36 52
f 8 52 72
f 8 72 71
f 8 71 70
f 8 70 57
f 8 57 37
f 8 37 23
f 8 23 11
f 8 11 10
f 8 10 9
f 11 23 24
f 11 24 25
f 11 25 12
f 12 25 13
f 13 25 26
f 13 26 27
f 13 27 16
f 13 16 14
f 15 29 30
f 15 30 28
f 16 27 31
f 16 31 17
f 18 28 32
f 18 32 19
f 19 32 20
f 20 32 33
f 20 33 21
f 21 33 34
f 21 34 35
f 21 35 36
f 21 36 22
f 23 37 56
f 23 56 77
f 23 77 59
f 23 59 38
f 23 38 25
f 23 25 24
f 25 38 26
f 26 38 27
f 27 38 31
f 28 30 39
f 28 39 32
f 29 40 30
f 30 40 41
f 30 41 42
f 30 42 43
f 30 43 44
f 30 44 45
f 30 45 46
f 30 46 47
f 30 47 33
f 30 33 39
f 31 38 59
f 31 59 48
f 32 39 33
f 33 47 49
f 33 49 35
f 33 35 34
f 35 50 51
f 35 51 52
f 35 52 36
f 35 49 50
f 37 53 54
f 37 54 55
f 37 55 56
f 37 57 58
f 37 58 53
f 44 60 45
f 45 61 46
f 45 60 62
f 45 62 63
f 45 63 64
f 45 64 61
f 46 61 49
f 46 49 47
f 48 59 65
f 48 65 66
f 48 66 64
f 48 64 67
f 49 61 68
f 49 68 50
f 50 68 69
f 50 69 57
f 50 57 51
f 51 57 70
f 51 70 71
f 51 71 72
f 51 72 52
f 53 73 74
f 53 74 54
f 53 58 68
f 53 68 61
f 53 61 73
f 54 74 75
f 54 75 55
f 55 75 56
f 56 75 76
f 56 76 77
f 57 69 68
f 57 68 58
f 59 77 76
f 59 76 78
f 59 78 65
f 61 64 73
f 63 67 64
f 64 66 74
f 64 74 73
f 65 78 79
f 65 79 66
f 66 79 75
f 66 75 74
f 75 79 78
f 75 78 76

