# https://github.com/mikedh/trimesh
v 2.04366114 -0.24414598 1.16303969
v 1.74044053 -0.24414598 1.16396978
v 2.04366114 -0.24414598 1.22059603
v 2.04366114 -0.42768508 1.16352195
v 1.72955633 -0.24423739 1.16400997
v 1.72955633 -0.24414598 1.20256267
v 1.97429735 -0.24414598 1.22079124
v 1.97411287 -0.24437448 1.22079698
v 2.04366114 -0.71103728 1.22121609
v 2.04366114 -0.43202676 1.16353918
v 1.72955633 -0.56099772 1.16529601
v 1.72955633 -0.24414598 1.22114145
v 1.95763283 -0.24414598 1.22082569
v 1.95744835 -0.26101000 1.22085439
v 1.72955633 -0.71099157 1.22169262
v 1.74080948 -0.71103728 1.22164669
v 2.04366114 -0.71103728 1.16502618
v 2.04366114 -0.44866228 1.16361382
v 1.72955633 -0.57763324 1.16538788
v 1.72955633 -0.24428308 1.22114720
v 1.72955633 -0.25557145 1.22117590
v 1.72955633 -0.26101000 1.22118739
v 1.72955633 -0.71103728 1.20364203
v 1.74084024 -0.71103728 1.16620314
v 1.72955633 -0.71099157 1.16612850
f 1 2 6
f 1 6 12
f 1 12 13
f 1 13 7
f 1 7 3
f 1 3 9
f 1 9 17
f 1 17 18
f 1 18 10
f 1 10 4
f 1 4 2
f 2 5 6
f 2 4 5
f 3 7 8
f 3 8 9
f 4 10 5
f 5 10 11
f 5 11 19
f 5 19 25
f 5 25 23
f 5 23 15
f 5 15 22
f 5 22 21
f 5 21 20
f 5 20 12
f 5 12 6
f 7 13 8
f 8 13 14
f 8 14 9
f 9 15 16
f 9 16 23
f 9 23 24
f 9 24 17
f 9 14 15
f 10 18 11
f 11 18 17
f 11 17 19
f 12 20 13
f 13 20 21
f 13 21 22
f 13 22 14
f 14 22 15
f 15 23 16
f 17 24 25
f 17 25 19
f 23 25 24

