# https://github.com/mikedh/trimesh
v -1.16148700 1.96930226 0.11771951
v -1.08727291 1.96930226 0.11801813
v -1.08727291 1.95569927 0.12081305
v -1.16148700 1.95569927 0.12077291
v -1.17752285 1.95569927 0.12076843
v -1.17814258 1.95569927 0.12076843
v -1.87868351 1.95569927 0.12119195
v -1.86179553 1.96930226 0.11894532
v -1.08727291 1.96930226 0.16325364
v -1.08727291 1.95569927 0.15937999
v -1.87868351 1.95569927 0.16019571
v -1.87868351 1.96930226 0.11906120
v -1.08742783 1.96930226 0.16325364
v -1.87860604 1.95569927 0.16127002
v -1.77844020 1.95569927 0.16110058
v -1.87868351 1.95614270 0.16127444
v -1.87868351 1.96930226 0.15297893
v -1.51698655 1.96930226 0.16309761
v -1.54929059 1.96930226 0.16307978
v -1.56610110 1.96930226 0.16303076
v -1.87860604 1.96930226 0.16158648
v -1.87868351 1.95628785 0.16127891
f 1 2 3
f 1 3 4
f 1 4 5
f 1 5 6
f 1 6 7
f 1 7 8
f 1 8 12
f 1 12 17
f 1 17 21
f 1 21 20
f 1 20 19
f 1 19 18
f 1 18 13
f 1 13 9
f 1 9 2
f 2 9 10
f 2 10 3
f 3 10 15
f 3 15 14
f 3 14 11
f 3 11 7
f 3 7 6
f 3 6 5
f 3 5 4
f 7 11 16
f 7 16 22
f 7 22 17
f 7 17 12
f 7 12 8
f 9 13 14
f 9 14 15
f 9 15 10
f 11 14 16
f 13 18 14
f 14 18 19
f 14 19 20
f 14 20 21
f 14 21 22
f 14 22 16
f 17 22 21

