# https://github.com/mikedh/trimesh
v -3.78114758 1.52714720 0.07525787
v -3.79777582 1.52731369 0.07530379
v -3.79782640 1.52731369 0.07525787
v -3.79782640 1.52733746 0.05857839
v -3.78114758 1.52721856 0.05857839
v -3.76447718 1.52755151 0.04189892
v -3.76442660 1.52744052 0.07530379
v -3.78109701 1.52715513 0.07530379
v -3.80821485 1.52935107 0.07530379
v -3.80820644 1.52931937 0.07525787
v -3.80821485 1.52931937 0.05857839
v -3.79782640 1.52746431 0.04189892
v -3.78114758 1.52732162 0.04189892
v -3.80817268 1.52935107 0.04189892
v -3.76447718 1.52778140 0.02523251
v -3.74779830 1.52789239 0.05857839
v -3.74779830 1.52774177 0.07525787
v -3.74776460 1.52774970 0.07530379
v -3.81212738 1.53941915 0.07530379
v -3.81211897 1.53937159 0.07525787
v -3.81208527 1.53937159 0.05857839
v -3.81203463 1.53937159 0.04189892
v -3.80770050 1.52974747 0.02523251
v -3.79782640 1.52801132 0.02523251
v -3.78114758 1.52755944 0.02523251
v -3.76447718 1.52950169 0.01494808
v -3.74779830 1.53000906 0.01553841
v -3.74779830 1.52869308 0.02523251
v -3.74779830 1.52820157 0.04189892
v -3.73719908 1.52958892 0.05857839
v -3.73686181 1.52946206 0.07525787
v -3.73686181 1.52946206 0.07530379
v -3.81400775 1.55609886 0.07530379
v -3.81400775 1.55604337 0.07525787
v -3.81391501 1.55604337 0.04189892
v -3.81132633 1.53937159 0.02523251
v -3.81349340 1.55604337 0.02523251
v -3.80689946 1.53041337 0.01604345
v -3.79782640 1.52973161 0.01522350
v -3.78114758 1.52937486 0.01483655
v -3.76447718 1.53937159 0.01061907
v -3.74779830 1.53937159 0.01153087
v -3.73880964 1.53061156 0.01631887
v -3.73817720 1.53020725 0.02523251
v -3.73764597 1.52985844 0.04189892
v -3.73150733 1.53937159 0.05857839
v -3.73095082 1.53937159 0.07525787
v -3.73095082 1.53937159 0.07530379
v -3.81395717 1.57276271 0.07530379
v -3.81392347 1.57271514 0.04189892
v -3.81361990 1.57271514 0.02523251
v -3.80841727 1.53937159 0.01445616
v -3.80971578 1.57271514 0.01314429
v -3.80961463 1.55604337 0.01324925
v -3.79782640 1.53937159 0.01124876
v -3.78114758 1.53937159 0.01049454
v -3.76447718 1.55604337 0.00833660
v -3.74779830 1.55604337 0.00899909
v -3.73681117 1.53937159 0.01461349
v -3.73329496 1.53937159 0.02523251
v -3.73211448 1.53937159 0.04189892
v -3.72850546 1.55604337 0.04189892
v -3.72787309 1.55604337 0.07525787
v -3.72787309 1.55604337 0.07530379
v -3.81363678 1.58943449 0.07530379
v -3.81365360 1.58939486 0.07525787
v -3.81356086 1.58939486 0.04189892
v -3.81304651 1.58939486 0.02523251
v -3.80934475 1.58939486 0.01347231
v -3.79782640 1.55604337 0.00895317
v -3.79782640 1.58939486 0.00934668
v -3.79782640 1.57271514 0.00895317
v -3.78114758 1.55604337 0.00831036
v -3.76447718 1.57271514 0.00855954
v -3.78114758 1.58939486 0.00868419
v -3.76447718 1.58939486 0.00932044
v -3.74779830 1.57271514 0.01000262
v -3.73510788 1.55604337 0.01326238
v -3.72970288 1.55604337 0.02523251
v -3.73233372 1.57271514 0.02523251
v -3.73043647 1.57271514 0.07530379
v -3.80978323 1.60193634 0.07530379
v -3.80978323 1.60193634 0.07525787
v -3.80969049 1.60176193 0.04189892
v -3.80928577 1.60135762 0.02523251
v -3.80800407 1.59989101 0.01486935
v -3.79782640 1.60155581 0.01331486
v -3.78114758 1.60203940 0.01282950
v -3.76447718 1.60134177 0.01343295
v -3.75407185 1.59974039 0.01494808
v -3.74822837 1.58866552 0.01332142
v -3.73778088 1.58262467 0.01559733
v -3.73601013 1.57271514 0.01413469
v -3.73721596 1.58318754 0.02523251
v -3.73608600 1.58407542 0.07530379
v -3.79782640 1.60704173 0.07530379
v -3.79782640 1.60704173 0.07525787
v -3.79782640 1.60659779 0.04189892
v -3.79782640 1.60594771 0.02523251
v -3.78114758 1.60679597 0.02523251
v -3.76447718 1.60577332 0.02523251
v -3.75260467 1.60130213 0.02523251
v -3.74426521 1.59151946 0.02523251
v -3.75225893 1.60181743 0.04189892
v -3.75166025 1.60225345 0.07530379
v -3.78114758 1.60813574 0.07530379
v -3.78114758 1.60734297 0.04189892
v -3.76447718 1.60658194 0.04189892
v -3.75170242 1.60229308 0.07525787
v -3.76447718 1.60759666 0.07530379
f 1 2 3
f 1 3 4
f 1 4 5
f 1 5 6
f 1 6 7
f 1 7 8
f 1 8 2
f 2 9 10
f 2 10 3
f 2 8 7
f 2 7 18
f 2 18 32
f 2 32 48
f 2 48 64
f 2 64 81
f 2 81 95
f 2 95 105
f 2 105 110
f 2 110 106
f 2 106 96
f 2 96 82
f 2 82 65
f 2 65 49
f 2 49 33
f 2 33 19
f 2 19 9
f 3 10 11
f 3 11 4
f 4 12 13
f 4 13 5
f 4 11 14
f 4 14 12
f 5 13 6
f 6 15 16
f 6 16 17
f 6 17 7
f 6 13 15
f 7 17 18
f 9 19 20
f 9 20 10
f 10 20 11
f 11 20 21
f 11 21 22
f 11 22 14
f 12 14 23
f 12 23 24
f 12 24 25
f 12 25 13
f 13 25 15
f 14 22 23
f 15 26 27
f 15 27 28
f 15 28 29
f 15 29 16
f 15 25 26
f 16 29 30
f 16 30 31
f 16 31 17
f 17 31 32
f 17 32 18
f 19 33 34
f 19 34 21
f 19 21 20
f 21 34 35
f 21 35 22
f 22 36 23
f 22 35 37
f 22 37 36
f 23 38 24
f 23 36 38
f 24 39 25
f 24 38 39
f 25 40 26
f 25 39 40
f 26 41 27
f 26 40 41
f 27 41 42
f 27 42 43
f 27 43 28
f 28 43 44
f 28 44 29
f 29 44 45
f 29 45 30
f 30 45 46
f 30 46 47
f 30 47 31
f 31 47 48
f 31 48 32
f 33 49 50
f 33 50 34
f 34 50 35
f 35 50 51
f 35 51 37
f 36 37 52
f 36 52 38
f 37 51 53
f 37 53 54
f 37 54 52
f 38 55 39
f 38 52 55
f 39 55 56
f 39 56 40
f 40 56 41
f 41 57 58
f 41 58 42
f 41 56 57
f 42 58 59
f 42 59 43
f 43 59 60
f 43 60 44
f 44 60 61
f 44 61 45
f 45 61 46
f 46 61 62
f 46 62 47
f 47 62 63
f 47 63 64
f 47 64 48
f 49 65 66
f 49 66 50
f 50 66 67
f 50 67 51
f 51 67 68
f 51 68 69
f 51 69 53
f 52 54 70
f 52 70 55
f 53 69 71
f 53 71 72
f 53 72 70
f 53 70 54
f 55 70 56
f 56 73 57
f 56 70 73
f 57 74 58
f 57 73 75
f 57 75 74
f 58 74 76
f 58 76 77
f 58 77 78
f 58 78 59
f 59 78 79
f 59 79 60
f 60 79 62
f 60 62 61
f 62 79 80
f 62 80 81
f 62 81 63
f 63 81 64
f 65 82 66
f 66 82 83
f 66 83 67
f 67 83 84
f 67 84 68
f 68 84 85
f 68 85 86
f 68 86 69
f 69 86 71
f 70 72 73
f 71 86 87
f 71 87 75
f 71 75 72
f 72 75 73
f 74 75 76
f 75 88 76
f 75 87 88
f 76 89 90
f 76 90 91
f 76 91 77
f 76 88 89
f 77 91 92
f 77 92 93
f 77 93 78
f 78 93 79
f 79 93 80
f 80 93 92
f 80 92 94
f 80 94 81
f 81 94 95
f 82 96 97
f 82 97 83
f 83 97 84
f 84 97 98
f 84 98 85
f 85 98 99
f 85 99 86
f 86 99 87
f 87 99 100
f 87 100 88
f 88 100 89
f 89 101 90
f 89 100 101
f 90 101 102
f 90 102 92
f 90 92 91
f 92 102 103
f 92 103 94
f 94 103 104
f 94 104 95
f 95 104 105
f 96 106 97
f 97 106 98
f 98 106 107
f 98 107 100
f 98 100 99
f 100 107 108
f 100 108 101
f 101 108 102
f 102 108 104
f 102 104 103
f 104 109 105
f 104 108 110
f 104 110 109
f 105 109 110
f 106 110 107
f 107 110 108

