# https://github.com/mikedh/trimesh
v -2.04776475 -0.45980433 0.74758813
v -2.04717859 -0.45980433 0.58678343
v -2.00842972 -0.45980433 0.74758813
v -2.04738620 -0.32769528 0.74758813
v -2.00835235 -0.45980433 0.58678343
v -2.04723963 -0.27767803 0.74758813
v -2.04643770 -0.22809176 0.58678343
v -2.00836862 -0.45980433 0.71901638
v -2.00617861 -0.22809176 0.60398946
v -2.00663453 -0.22809176 0.74758813
v -2.00834424 -0.45980433 0.70234557
v -2.00656128 -0.22809176 0.58678343
v -2.00619083 -0.22809176 0.60284030
v -2.04708900 -0.26102830 0.74758813
v -2.04659649 -0.22809176 0.74758813
v -2.00834424 -0.45980433 0.70352623
f 1 2 5
f 1 5 11
f 1 11 16
f 1 16 8
f 1 8 3
f 1 3 10
f 1 10 15
f 1 15 14
f 1 14 6
f 1 6 4
f 1 4 2
f 2 4 6
f 2 6 7
f 2 7 12
f 2 12 5
f 3 8 9
f 3 9 10
f 5 12 13
f 5 13 9
f 5 9 11
f 6 14 7
f 7 14 15
f 7 15 10
f 7 10 9
f 7 9 13
f 7 13 12
f 8 16 9
f 9 16 11

