# https://github.com/mikedh/trimesh
v -0.02056456 -0.16036900 1.05822371
v -0.02055431 -0.16036900 1.04946619
v -0.02054399 -0.16037901 1.04156805
v -0.01748130 -0.17703102 0.85839677
v -0.01740936 -0.17703102 0.99156016
v -0.01751212 -0.17544510 1.27638415
v -0.02004039 -0.16029872 1.27638415
v -0.01960873 -0.15901393 1.27638415
v -0.01424385 -0.14461032 1.27638415
v -0.01429523 -0.14463041 1.05822371
v -0.01428498 -0.14465046 1.04156805
v -0.02009177 -0.16024853 0.85839677
v -0.02014315 -0.16037901 0.85839677
v -0.01028696 -0.21050562 0.85839677
v -0.00875559 -0.22015152 1.18172927
v -0.00888922 -0.22015152 1.27638415
v -0.00682343 -0.13703212 1.27638415
v -0.00606286 -0.13608860 1.24151776
v -0.00622732 -0.13598823 1.15819856
v -0.01421303 -0.14467055 1.02487147
v -0.01386357 -0.14539323 0.85839677
v 0.06107029 -0.21051567 0.85839677
v -0.00832399 -0.22015152 1.04946619
v 0.06176916 -0.22015152 1.27638415
v -0.00588816 -0.13618898 1.27638415
v -0.00598067 -0.13612875 1.25817344
v 0.00245721 -0.12924310 1.27638415
v 0.00211806 -0.12895205 1.15819856
v 0.00257028 -0.12860074 1.05822371
v 0.00263192 -0.12869107 1.02487147
v 0.00264223 -0.12877136 1.00821582
v 0.00329997 -0.12884163 0.89158531
v -0.00568264 -0.13636964 1.00821582
v 0.00341304 -0.12895205 0.85839677
v 0.06274549 -0.21051567 0.85839677
v 0.06230358 -0.22015152 1.04946619
v 0.08002210 -0.17537486 1.24151776
v 0.07981658 -0.17523431 1.27638415
v 0.06229333 -0.22015152 1.05462248
v 0.08069016 -0.17703102 1.05822371
v 0.08059765 -0.17703102 1.07487937
v 0.01656831 -0.12228721 1.27638415
v 0.01578725 -0.12028978 1.07487937
v 0.00940485 -0.12424449 1.04946619
v 0.01556117 -0.12032993 1.04156805
v 0.01550973 -0.12036006 1.02487147
v 0.01556117 -0.12051062 0.89158531
v 0.01550973 -0.12058086 0.87492965
v 0.01541728 -0.12069128 0.85839677
v 0.07664082 -0.18564307 0.85839677
v 0.08083404 -0.17703102 0.85839677
v 0.08344451 -0.16036900 1.24151776
v 0.07996047 -0.17521425 1.25817344
v 0.08330074 -0.16036900 1.25817344
v 0.08280733 -0.16177422 1.27638415
v 0.08420507 -0.16036900 1.05822371
v 0.08417431 -0.16036900 1.07487937
v 0.08443121 -0.16037901 0.85839677
v 0.01800718 -0.12159463 1.27638415
v 0.02436902 -0.11830240 1.09153502
v 0.02412237 -0.11826222 1.07487937
v 0.02389623 -0.11819198 1.04156805
v 0.02384485 -0.11817189 1.02487147
v 0.01574612 -0.12026972 1.05822371
v 0.02386541 -0.11807152 0.85839677
v 0.01565361 -0.12029983 1.04946619
v 0.01560223 -0.12060095 0.85839677
v 0.07962132 -0.14461032 1.27638415
v 0.08311573 -0.16036900 1.27638415
v 0.08014548 -0.14421886 1.07487937
v 0.08012486 -0.14423895 1.09153502
v 0.07979608 -0.14440957 1.22486210
v 0.08027912 -0.14435938 0.85839677
v 0.08017624 -0.14410844 0.97490451
v 0.08018661 -0.14417872 0.99156016
v 0.03311524 -0.12012918 1.27638415
v 0.02510902 -0.11846297 1.10823160
v 0.03466718 -0.11998865 1.27638415
v 0.03466718 -0.11804142 1.09153502
v 0.03466718 -0.11788081 1.07487937
v 0.03466718 -0.11761986 0.85839677
v 0.07565418 -0.13627931 1.27638415
v 0.07577750 -0.13607856 1.22486210
v 0.08014548 -0.14416868 1.04946619
v 0.07596251 -0.13581758 1.04156805
v 0.07570556 -0.13620903 1.25817344
v 0.08023799 -0.14421886 0.85839677
v 0.07599333 -0.13576742 0.97490451
v 0.07597277 -0.13580756 1.02487147
v 0.05132711 -0.12196603 1.27638415
v 0.04382449 -0.11844292 1.09153502
v 0.04423559 -0.11832244 1.07487937
v 0.04430753 -0.11830240 1.05822371
v 0.04441029 -0.11824217 0.90824096
v 0.04441029 -0.11824217 0.89158531
v 0.04424584 -0.11825221 0.85839677
v 0.06810012 -0.13033718 1.27638415
v 0.07565418 -0.13626927 1.27482908
v 0.06732931 -0.12972492 1.27482908
v 0.06731905 -0.12972492 1.27638415
v 0.07573637 -0.13613879 1.24151776
v 0.06748350 -0.12966469 1.15819856
v 0.06744238 -0.12972492 1.22486210
v 0.07589057 -0.13588785 0.85839677
v 0.07598302 -0.13579752 0.92489661
v 0.07599333 -0.13576742 0.95820792
v 0.06763764 -0.12968477 1.02487147
v 0.06583906 -0.12900224 1.27638415
v 0.05257071 -0.12139391 1.07487937
v 0.05264266 -0.12135376 1.05822371
v 0.05274542 -0.12149428 0.89158531
v 0.04440004 -0.11829235 0.85839677
v 0.06762739 -0.12996581 0.85839677
v 0.06757595 -0.12984535 0.87492965
v 0.06764795 -0.12979516 0.92489661
v 0.05274542 -0.12148424 0.90824096
v 0.05266322 -0.12157457 0.85839677
v 0.06742181 -0.12983534 0.85839677
f 1 2 3
f 1 3 4
f 1 4 5
f 1 5 6
f 1 6 7
f 1 7 8
f 1 8 9
f 1 9 10
f 1 10 11
f 1 11 2
f 2 11 3
f 3 11 12
f 3 12 13
f 3 13 4
f 4 13 12
f 4 12 21
f 4 21 34
f 4 34 49
f 4 49 67
f 4 67 65
f 4 65 81
f 4 81 96
f 4 96 112
f 4 112 117
f 4 117 118
f 4 118 113
f 4 113 104
f 4 104 87
f 4 87 73
f 4 73 58
f 4 58 51
f 4 51 50
f 4 50 35
f 4 35 22
f 4 22 14
f 4 14 15
f 4 15 16
f 4 16 5
f 5 16 6
f 6 16 24
f 6 24 38
f 6 38 55
f 6 55 69
f 6 69 68
f 6 68 82
f 6 82 97
f 6 97 100
f 6 100 108
f 6 108 90
f 6 90 78
f 6 78 76
f 6 76 59
f 6 59 42
f 6 42 27
f 6 27 25
f 6 25 17
f 6 17 9
f 6 9 8
f 6 8 7
f 9 17 18
f 9 18 19
f 9 19 10
f 10 19 11
f 11 20 21
f 11 21 12
f 11 19 20
f 14 22 23
f 14 23 15
f 15 23 36
f 15 36 39
f 15 39 24
f 15 24 16
f 17 25 26
f 17 26 18
f 18 26 27
f 18 27 28
f 18 28 19
f 19 28 29
f 19 29 30
f 19 30 31
f 19 31 32
f 19 32 33
f 19 33 20
f 20 33 21
f 21 33 34
f 22 35 36
f 22 36 23
f 24 37 38
f 24 39 40
f 24 40 41
f 24 41 37
f 25 27 26
f 27 42 43
f 27 43 28
f 28 44 29
f 28 43 45
f 28 45 44
f 29 44 46
f 29 46 47
f 29 47 48
f 29 48 49
f 29 49 30
f 30 49 32
f 30 32 31
f 32 49 34
f 32 34 33
f 35 50 36
f 36 50 51
f 36 51 40
f 36 40 39
f 37 52 53
f 37 53 38
f 37 41 52
f 38 53 52
f 38 52 54
f 38 54 55
f 40 56 57
f 40 57 52
f 40 52 41
f 40 51 58
f 40 58 56
f 42 59 43
f 43 59 60
f 43 60 61
f 43 61 62
f 43 62 63
f 43 63 64
f 43 64 45
f 44 45 46
f 45 65 46
f 45 64 66
f 45 66 65
f 46 65 47
f 47 65 67
f 47 67 48
f 48 67 49
f 52 68 54
f 52 57 68
f 54 69 55
f 54 68 69
f 56 70 71
f 56 71 57
f 56 58 70
f 57 71 72
f 57 72 68
f 58 73 74
f 58 74 75
f 58 75 70
f 59 76 77
f 59 77 60
f 60 77 78
f 60 78 79
f 60 79 80
f 60 80 61
f 61 80 62
f 62 80 63
f 63 81 65
f 63 65 64
f 63 80 81
f 64 65 66
f 68 72 82
f 70 83 71
f 70 75 74
f 70 74 84
f 70 84 85
f 70 85 83
f 71 83 72
f 72 83 86
f 72 86 82
f 73 87 74
f 74 87 88
f 74 88 89
f 74 89 84
f 76 78 77
f 78 90 91
f 78 91 79
f 79 91 80
f 80 91 92
f 80 92 93
f 80 93 81
f 81 94 95
f 81 95 96
f 81 93 94
f 82 86 98
f 82 98 97
f 83 99 100
f 83 100 97
f 83 97 101
f 83 101 86
f 83 85 99
f 84 89 85
f 85 89 88
f 85 88 102
f 85 102 103
f 85 103 99
f 86 101 97
f 86 97 98
f 87 104 105
f 87 105 106
f 87 106 88
f 88 106 107
f 88 107 102
f 90 108 109
f 90 109 92
f 90 92 91
f 92 109 110
f 92 110 93
f 93 110 94
f 94 110 95
f 95 111 112
f 95 112 96
f 95 110 111
f 99 103 110
f 99 110 100
f 100 110 109
f 100 109 108
f 102 110 103
f 102 107 110
f 104 113 114
f 104 114 105
f 105 114 115
f 105 115 106
f 106 115 107
f 107 115 111
f 107 111 116
f 107 116 110
f 110 116 111
f 111 115 114
f 111 114 117
f 111 117 112
f 113 118 114
f 114 118 117

