# https://github.com/mikedh/trimesh
v 1.59466058 -0.23548092 1.16263208
v 1.39042793 -0.23548092 1.16219719
v 1.59466058 -0.23548092 1.22120685
v 1.59466058 -0.56691982 1.16400139
v 1.39042793 -0.23548092 1.22185919
v 1.39786474 -0.70142006 1.16444802
v 1.39042793 -0.70142006 1.16445978
v 1.47413211 -0.23548092 1.22179454
v 1.59466058 -0.24437463 1.22126562
v 1.59466058 -0.57763788 1.16406016
v 1.42415352 -0.23548092 1.22188270
v 1.39042793 -0.70142006 1.22220005
v 1.39078776 -0.70142006 1.22220592
v 1.40040368 -0.70142006 1.22221768
v 1.42415352 -0.70142006 1.22223531
v 1.40746063 -0.70142006 1.16446565
v 1.59466058 -0.26102183 1.22130677
v 1.45745925 -0.23548092 1.22185331
v 1.47413211 -0.70142006 1.22217067
v 1.59466058 -0.70142006 1.22171814
v 1.59466058 -0.68322217 1.16482415
v 1.41453760 -0.70142006 1.16448330
v 1.44078639 -0.23548092 1.22187683
v 1.44078639 -0.70142006 1.22222944
v 1.44968257 -0.23548092 1.22186507
v 1.45745925 -0.70142006 1.22220592
v 1.46707513 -0.70142006 1.22218830
v 1.59466058 -0.70142006 1.16498870
v 1.59466058 -0.70023424 1.16497694
f 1 2 5
f 1 5 11
f 1 11 23
f 1 23 25
f 1 25 18
f 1 18 8
f 1 8 3
f 1 3 9
f 1 9 17
f 1 17 20
f 1 20 28
f 1 28 29
f 1 29 21
f 1 21 10
f 1 10 4
f 1 4 2
f 2 4 6
f 2 6 7
f 2 7 12
f 2 12 5
f 3 8 9
f 4 10 6
f 5 12 13
f 5 13 14
f 5 14 15
f 5 15 11
f 6 10 16
f 6 16 22
f 6 22 28
f 6 28 20
f 6 20 19
f 6 19 27
f 6 27 26
f 6 26 24
f 6 24 15
f 6 15 14
f 6 14 13
f 6 13 12
f 6 12 7
f 8 17 9
f 8 18 19
f 8 19 20
f 8 20 17
f 10 21 22
f 10 22 16
f 11 15 24
f 11 24 23
f 18 25 26
f 18 26 27
f 18 27 19
f 21 29 22
f 22 29 28
f 23 24 25
f 24 26 25

