# https://github.com/mikedh/trimesh
v 1.59071979 -0.72648771 0.49810292
v 1.59071979 -0.71134628 0.51120568
v 1.59071979 -0.72649543 0.49980664
v 1.57850378 -0.72649543 0.49858423
v 1.30743075 -0.72649543 0.50038732
v 1.17476499 -0.71069515 0.50972351
v 1.59071979 -0.71134628 0.56908702
v 1.34073971 -0.71069515 0.51068616
v 1.39196547 -0.71069515 0.51117513
v 1.59071979 -0.72649543 0.57603951
v 1.17476499 -0.72649543 0.50151040
v 1.17476499 -0.71069515 0.56917869
v 1.39196547 -0.71069515 0.56920927
v 1.47409772 -0.71134628 0.56936207
v 1.45744322 -0.71134628 0.56940027
v 1.47409772 -0.72649543 0.57615410
v 1.17476499 -0.72649543 0.52540859
v 1.17476499 -0.72644747 0.57577975
v 1.18828403 -0.72649543 0.57583322
v 1.39074386 -0.72649543 0.57614647
v 1.39078457 -0.71069515 0.56920927
f 1 2 7
f 1 7 10
f 1 10 3
f 1 3 4
f 1 4 5
f 1 5 6
f 1 6 2
f 2 6 8
f 2 8 9
f 2 9 13
f 2 13 7
f 3 10 16
f 3 16 20
f 3 20 19
f 3 19 17
f 3 17 11
f 3 11 5
f 3 5 4
f 5 11 6
f 6 11 17
f 6 17 18
f 6 18 12
f 6 12 21
f 6 21 13
f 6 13 9
f 6 9 8
f 7 13 14
f 7 14 10
f 10 14 15
f 10 15 13
f 10 13 16
f 12 18 19
f 12 19 20
f 12 20 21
f 13 21 16
f 13 15 14
f 16 21 20
f 17 19 18

