# https://github.com/mikedh/trimesh
v -0.29421078 1.58940275 1.47649589
v -0.29421078 1.57275158 1.47626442
v -0.26868089 1.55530656 1.49347354
v -0.29421078 1.62286967 1.47621814
v -0.26581023 1.53938145 1.49347354
v -0.29421078 1.56024383 1.47185511
v -0.26621871 1.57195773 1.49347354
v -0.26619599 1.57206422 1.49347354
v -0.25731158 1.58511410 1.49347354
v -0.24063211 1.60251070 1.49347354
v -0.22807141 1.60804819 1.49347354
v -0.22753808 1.60828054 1.49347354
v -0.21153937 1.60910341 1.49347354
v -0.21085856 1.60911309 1.49347354
v -0.24419490 1.62286967 1.47673893
v -0.29421078 1.62286967 1.39645675
v -0.25793567 1.52818063 1.49347354
v -0.29421078 1.55589710 1.45943722
v -0.19485983 1.60804819 1.49347354
v -0.22753808 1.62286967 1.47687780
v -0.24419490 1.62286967 1.39148034
v -0.22753808 1.60885171 1.37524337
v -0.24077960 1.60296571 1.37524337
v -0.29421078 1.62274382 1.39641047
v -0.24419490 1.52495689 1.45942565
v -0.24419490 1.52502465 1.49279073
v -0.24419490 1.52503434 1.49347354
v -0.29421078 1.55567444 1.44274892
v -0.29421078 1.55564540 1.42609530
v -0.25781084 1.52805478 1.37524337
v -0.24485305 1.52497625 1.37524337
v -0.24419490 1.52482136 1.37606505
v -0.24419490 1.52486976 1.40943014
v -0.19417903 1.60799010 1.49347354
v -0.21467101 1.62286967 1.47214443
v -0.22753808 1.62286967 1.39082067
v -0.21085856 1.60931639 1.37524337
v -0.25745908 1.58504634 1.37524337
v -0.29421078 1.60606361 1.39341304
v -0.26624138 1.57229657 1.37524337
v -0.22753808 1.52452124 1.49347354
v -0.24351410 1.52500529 1.49347354
v -0.29421078 1.55594551 1.40941857
v -0.29421078 1.56031160 1.39688494
v -0.26520886 1.53881998 1.37524337
v -0.24419490 1.52482136 1.37524337
v -0.22753808 1.52435666 1.37606505
v -0.22685729 1.52450189 1.49347354
v -0.18282111 1.60258816 1.49347354
v -0.20951967 1.62286967 1.45942565
v -0.18234452 1.60235582 1.49347354
v -0.19417903 1.60799010 1.37524337
v -0.21004160 1.60926799 1.37524337
v -0.21421714 1.62286967 1.39599384
v -0.29421078 1.58938339 1.39246406
v -0.26626404 1.57216104 1.37524337
v -0.26854472 1.55522912 1.37524337
v -0.29421078 1.57272253 1.39235990
v -0.26558330 1.53938145 1.37524337
v -0.22753808 1.52435666 1.37524337
v -0.21085856 1.52396944 1.37524337
v -0.21085856 1.52407593 1.49347354
v -0.20950834 1.62286967 1.45932151
v -0.18219703 1.60183304 1.49347354
v -0.17838456 1.58939307 1.45942565
v -0.18212898 1.60253007 1.45942565
v -0.20883887 1.62286967 1.44276049
v -0.18250340 1.60225900 1.37524337
v -0.20906580 1.62286967 1.40943014
v -0.26853340 1.55510326 1.37524337
v -0.19417903 1.52465678 1.37524337
v -0.19417903 1.52455029 1.40943014
v -0.19417903 1.52450189 1.42609530
v -0.19417903 1.52449223 1.44276049
v -0.19417903 1.52450189 1.45942565
v -0.19417903 1.52452124 1.47610240
v -0.19417903 1.52455029 1.49347354
v -0.17871362 1.58939307 1.49347354
v -0.17854340 1.58939307 1.47610240
v -0.17829380 1.58939307 1.44276049
v -0.17856612 1.57205455 1.49347354
v -0.17848668 1.55604231 1.49347354
v -0.18206087 1.60260752 1.44276049
v -0.20883887 1.62286967 1.44264475
v -0.18250340 1.60227837 1.37606505
v -0.18218570 1.60250103 1.40943014
v -0.17832786 1.58939307 1.42609530
v -0.17852074 1.58939307 1.40943014
v -0.17907670 1.58939307 1.37524337
v -0.20886159 1.62286967 1.42597956
v -0.18207219 1.60260752 1.42609530
v -0.18360403 1.52810318 1.37524337
v -0.18283245 1.52810318 1.42609530
v -0.18279839 1.52808383 1.44276049
v -0.18279839 1.52808383 1.45942565
v -0.18287783 1.52813223 1.49347354
v -0.17837324 1.55604231 1.44276049
v -0.17840724 1.55604231 1.47610240
v -0.17837324 1.55604231 1.45942565
v -0.17916749 1.53938145 1.49347354
v -0.17841862 1.55604231 1.42609530
v -0.17852074 1.55604231 1.40943014
v -0.17875899 1.55604231 1.37606505
v -0.17877033 1.55687487 1.37524337
v -0.18307071 1.52828715 1.37524337
v -0.18288916 1.52882926 1.37524337
v -0.17912210 1.53938145 1.42609530
v -0.17905404 1.53938145 1.44276049
v -0.17906538 1.53938145 1.45942565
v -0.17931498 1.53892644 1.49347354
v -0.17946252 1.53938145 1.37606505
v -0.17943981 1.54018496 1.37524337
v -0.17877033 1.55604231 1.37524337
v -0.17947386 1.53938145 1.37524337
f 1 2 3
f 1 3 4
f 1 4 16
f 1 16 24
f 1 24 39
f 1 39 55
f 1 55 58
f 1 58 44
f 1 44 43
f 1 43 29
f 1 29 28
f 1 28 18
f 1 18 6
f 1 6 2
f 2 5 3
f 2 6 5
f 3 7 4
f 3 5 17
f 3 17 27
f 3 27 42
f 3 42 41
f 3 41 48
f 3 48 62
f 3 62 77
f 3 77 96
f 3 96 110
f 3 110 100
f 3 100 82
f 3 82 81
f 3 81 78
f 3 78 64
f 3 64 51
f 3 51 49
f 3 49 34
f 3 34 19
f 3 19 14
f 3 14 13
f 3 13 12
f 3 12 11
f 3 11 10
f 3 10 9
f 3 9 8
f 3 8 7
f 4 7 8
f 4 8 9
f 4 9 10
f 4 10 11
f 4 11 12
f 4 12 13
f 4 13 14
f 4 14 15
f 4 15 20
f 4 20 35
f 4 35 50
f 4 50 63
f 4 63 67
f 4 67 84
f 4 84 90
f 4 90 69
f 4 69 54
f 4 54 36
f 4 36 21
f 4 21 16
f 5 6 17
f 6 18 17
f 14 19 20
f 14 20 15
f 16 21 22
f 16 22 23
f 16 23 24
f 17 25 26
f 17 26 27
f 17 18 28
f 17 28 29
f 17 29 30
f 17 30 31
f 17 31 32
f 17 32 33
f 17 33 25
f 19 34 20
f 20 34 35
f 21 36 22
f 22 37 53
f 22 53 52
f 22 52 68
f 22 68 89
f 22 89 104
f 22 104 113
f 22 113 112
f 22 112 114
f 22 114 106
f 22 106 105
f 22 105 92
f 22 92 71
f 22 71 61
f 22 61 60
f 22 60 46
f 22 46 31
f 22 31 30
f 22 30 45
f 22 45 59
f 22 59 70
f 22 70 57
f 22 57 56
f 22 56 40
f 22 40 38
f 22 38 23
f 22 36 37
f 23 38 24
f 24 38 40
f 24 40 39
f 25 41 42
f 25 42 26
f 25 33 41
f 26 42 27
f 29 43 30
f 30 43 44
f 30 44 45
f 31 46 32
f 32 46 60
f 32 60 47
f 32 47 48
f 32 48 33
f 33 48 41
f 34 49 35
f 35 49 51
f 35 51 50
f 36 52 53
f 36 53 37
f 36 54 52
f 39 40 56
f 39 56 57
f 39 57 55
f 44 58 59
f 44 59 45
f 47 60 61
f 47 61 62
f 47 62 48
f 50 51 63
f 51 64 65
f 51 65 66
f 51 66 67
f 51 67 63
f 52 54 68
f 54 69 68
f 55 57 58
f 57 70 58
f 58 70 59
f 61 71 72
f 61 72 73
f 61 73 74
f 61 74 75
f 61 75 62
f 62 75 76
f 62 76 77
f 64 78 79
f 64 79 65
f 65 80 66
f 65 79 81
f 65 81 82
f 65 82 80
f 66 80 83
f 66 83 67
f 67 83 84
f 68 69 85
f 68 85 86
f 68 86 87
f 68 87 88
f 68 88 89
f 69 90 91
f 69 91 86
f 69 86 85
f 71 92 93
f 71 93 72
f 72 93 73
f 73 93 94
f 73 94 74
f 74 94 95
f 74 95 75
f 75 95 76
f 76 95 77
f 77 95 96
f 78 81 79
f 80 97 87
f 80 87 91
f 80 91 83
f 80 82 98
f 80 98 99
f 80 99 97
f 82 100 98
f 83 91 84
f 84 91 90
f 86 91 87
f 87 97 101
f 87 101 102
f 87 102 103
f 87 103 104
f 87 104 88
f 88 104 89
f 92 105 93
f 93 105 106
f 93 106 107
f 93 107 108
f 93 108 94
f 94 108 95
f 95 108 109
f 95 109 96
f 96 109 110
f 97 99 108
f 97 108 101
f 98 100 109
f 98 109 99
f 99 109 108
f 100 110 109
f 101 107 102
f 101 108 107
f 102 107 111
f 102 111 103
f 103 111 112
f 103 112 113
f 103 113 104
f 106 114 111
f 106 111 107
f 111 114 112

