# https://github.com/mikedh/trimesh
v -2.90650166 1.66560329 2.02101480
v -2.90650166 1.66560329 1.97272560
v -2.88774145 1.66560329 2.02101480
v -2.90650166 1.72282655 2.02114196
v -2.90650166 1.68202190 1.97267264
v -2.73049310 1.95627240 1.96922001
v -2.73049310 1.66560329 1.97028437
v -2.88057465 1.68947715 2.02106776
v -2.89722696 1.72282655 2.02114196
v -2.61371618 1.66560329 2.02099894
v -2.90650166 1.73028180 2.02114721
v -2.90650166 1.68947715 1.97265678
v -2.73049310 1.95630085 1.96922001
v -2.71377053 1.95627240 1.96900291
v -2.90650166 1.90624830 1.97250320
v -2.71377053 1.66560329 1.97010437
v -2.61371618 1.75617596 2.02111548
v -2.86385206 1.75617596 2.02115782
v -2.18869591 1.71429001 2.02099357
v -2.18869591 1.72282655 2.02100419
v -2.18869591 1.73950125 2.02102005
v -2.53038439 1.66560328 2.02098307
v -2.90650166 1.73950126 2.02115245
v -2.71377053 1.95630085 1.96900291
v -2.90650166 1.92292300 1.97250320
v -2.90650166 1.95630085 1.97251376
v -2.69711823 1.66560329 1.96996135
v -2.49707978 1.95627240 1.96726598
v -2.18869591 1.84768764 2.02106776
v -2.81382488 1.83952102 2.02116832
v -2.86385206 1.85622418 2.02117369
v -2.88057465 1.85622418 2.02117369
v -2.18869591 1.69761531 2.02096184
v -2.18869591 1.66560328 2.02089301
v -2.18869591 1.67280244 2.02090888
v -2.89722696 1.85622418 2.02116307
v -2.90650166 1.86365097 2.02115245
v -2.49707978 1.95630085 1.96726598
v -2.90650166 1.95630085 2.02104653
v -2.48035722 1.66560328 1.96827213
v -2.48035722 1.95630085 1.96716005
v -2.18869591 1.86436234 2.02106776
v -2.81382488 1.85622418 2.02116832
v -2.83054745 1.87289889 2.02116832
v -2.86385206 1.87289889 2.02116832
v -2.88057465 1.87289889 2.02116307
v -2.89722696 1.87289889 2.02115782
v -2.18869591 1.66560328 1.96846274
v -2.90650166 1.87289889 2.02114721
v -2.86385206 1.95630085 2.02105715
v -2.46370488 1.66560328 1.96819799
v -2.46370488 1.95630085 1.96710709
v -2.18869591 1.95627240 2.02105190
v -2.83054745 1.88957359 2.02114721
v -2.84719975 1.88957359 2.02114721
v -2.18869591 1.69018853 1.96821917
v -2.29605764 1.66560328 1.96804442
v -2.84719975 1.95630085 2.02105715
v -2.44705260 1.66560328 1.96816620
v -2.44705260 1.95630085 1.96708061
v -2.18869591 1.95630085 1.99372204
v -2.19684638 1.95630085 2.02104128
v -2.18869591 1.70137139 1.96811324
v -2.31362338 1.66560328 1.96799145
v -2.29697105 1.95630085 1.96725542
v -2.18869591 1.95627240 1.96756251
v -2.19684638 1.95630085 1.96758369
v -2.18869591 1.70908273 1.96806028
v -2.18869591 1.72282655 1.96799676
v -2.18869591 1.73950125 1.96796497
f 1 2 7
f 1 7 16
f 1 16 27
f 1 27 40
f 1 40 51
f 1 51 59
f 1 59 64
f 1 64 57
f 1 57 48
f 1 48 34
f 1 34 22
f 1 22 10
f 1 10 3
f 1 3 9
f 1 9 4
f 1 4 11
f 1 11 23
f 1 23 37
f 1 37 49
f 1 49 39
f 1 39 26
f 1 26 25
f 1 25 15
f 1 15 12
f 1 12 5
f 1 5 2
f 2 5 6
f 2 6 7
f 3 8 9
f 3 10 8
f 4 9 11
f 5 12 6
f 6 13 24
f 6 24 14
f 6 14 7
f 6 12 15
f 6 15 25
f 6 25 13
f 7 14 16
f 8 10 9
f 9 17 18
f 9 18 11
f 9 10 19
f 9 19 20
f 9 20 21
f 9 21 17
f 10 22 19
f 11 18 23
f 13 25 26
f 13 26 39
f 13 39 50
f 13 50 58
f 13 58 62
f 13 62 61
f 13 61 67
f 13 67 65
f 13 65 60
f 13 60 52
f 13 52 41
f 13 41 38
f 13 38 24
f 14 27 16
f 14 24 38
f 14 38 28
f 14 28 27
f 17 21 29
f 17 29 18
f 18 30 31
f 18 31 32
f 18 32 23
f 18 29 30
f 19 33 35
f 19 35 34
f 19 34 48
f 19 48 56
f 19 56 63
f 19 63 68
f 19 68 69
f 19 69 70
f 19 70 66
f 19 66 61
f 19 61 53
f 19 53 42
f 19 42 29
f 19 29 21
f 19 21 20
f 19 22 33
f 22 34 35
f 22 35 33
f 23 36 37
f 23 32 36
f 27 28 40
f 28 38 41
f 28 41 40
f 29 42 43
f 29 43 30
f 30 43 31
f 31 43 44
f 31 44 45
f 31 45 32
f 32 45 46
f 32 46 47
f 32 47 36
f 36 47 37
f 37 47 49
f 39 49 47
f 39 47 46
f 39 46 45
f 39 45 50
f 40 41 51
f 41 52 51
f 42 53 44
f 42 44 43
f 44 54 55
f 44 55 45
f 44 53 54
f 45 55 50
f 48 57 56
f 50 55 54
f 50 54 58
f 51 52 59
f 52 60 59
f 53 61 62
f 53 62 58
f 53 58 54
f 56 57 63
f 57 64 63
f 59 60 64
f 60 65 64
f 61 66 67
f 63 64 68
f 64 65 69
f 64 69 68
f 65 67 66
f 65 66 70
f 65 70 69

