# https://github.com/mikedh/trimesh
v -2.63039711 1.55648407 0.67562847
v -2.58037972 1.55650099 0.67562847
v -2.33029290 1.55687350 0.70897402
v -2.56373129 1.55679731 0.70897402
v -2.58037972 1.55679731 0.70897402
v -2.59702818 1.55680576 0.70897402
v -2.73050392 1.55688195 0.70897402
v -2.76380079 1.55664492 0.67562847
v -2.39703071 1.55981110 0.65895567
v -2.18016864 1.55959098 0.65895567
v -2.17022285 1.55959098 0.65895567
v -2.34694130 1.55660259 0.67562847
v -2.33029290 1.55661106 0.67562847
v -2.31364444 1.55689042 0.70897402
v -2.49706550 1.56063227 0.72565526
v -2.54701078 1.56060688 0.72565526
v -2.71378341 1.56061535 0.72565526
v -2.78052130 1.56067460 0.72565526
v -2.79716971 1.56069154 0.72565526
v -2.90650166 1.56081852 0.72565526
v -2.74715235 1.55690736 0.70897402
v -2.76380079 1.55678884 0.69230123
v -2.88055604 1.55685656 0.67562847
v -2.64711762 1.56022592 0.65895567
v -2.18016864 1.56323972 0.64967331
v -2.17022285 1.56323125 0.64966487
v -2.17022285 1.55711053 0.67562847
v -2.17022285 1.55723752 0.69230123
v -2.21353760 1.55722905 0.70897402
v -2.21353760 1.56082699 0.72337478
v -2.41367917 1.56072539 0.72557924
v -2.48041707 1.56064920 0.72565526
v -2.44704813 1.56434872 0.73401700
v -2.46369656 1.56434025 0.73402544
v -2.68041448 1.56432333 0.73404232
v -2.89720447 1.56435719 0.73400853
v -2.90650166 1.56436566 0.73400853
v -2.90650166 1.56240161 0.72938847
v -2.90650166 1.55882061 0.71642355
v -2.90650166 1.55721213 0.70897402
v -2.90650166 1.55705127 0.69230123
v -2.89720447 1.55689042 0.67562847
v -2.89720447 1.56060688 0.65991009
v -2.79716971 1.56053916 0.65928507
v -2.78066544 1.56123334 0.65735091
v -2.18016864 1.57272132 0.64811920
v -2.77526010 1.56429793 0.65055170
v -2.17022285 1.57272132 0.64811076
v -2.17022285 1.55737298 0.70224243
v -2.17022285 1.55749149 0.70897402
v -2.17022285 1.55957406 0.71747088
v -2.17022285 1.56100476 0.72322275
v -2.43414738 1.56436566 0.73400853
v -2.42931861 1.56144499 0.72731916
v -2.46369656 1.57272132 0.73404232
v -2.68041448 1.56654134 0.73404232
v -2.90650166 1.56476355 0.73400853
v -2.90650166 1.55693275 0.67562847
v -2.90650166 1.56064074 0.65996922
v -2.19688920 1.58939879 0.64781515
v -2.18016864 1.58939879 0.64777293
v -2.73050392 1.57426209 0.65009563
v -2.90650166 1.56731173 0.65536604
v -2.90650166 1.57272132 0.65164126
v -2.90650166 1.58194896 0.65129498
v -2.90650166 1.58939879 0.65105004
v -2.76365664 1.57160385 0.65032367
v -2.74715235 1.57432981 0.65017164
v -2.17022285 1.58939879 0.64776446
v -2.17022285 1.57272132 0.73079899
v -2.41367917 1.57272132 0.73383119
v -2.43414738 1.56599953 0.73400853
v -2.17022285 1.58939879 0.73159294
v -2.45382279 1.58118705 0.73400853
v -2.46369656 1.58127171 0.73401700
v -2.48041707 1.57272132 0.73404232
v -2.90650166 1.56848847 0.73387341
v -2.50657888 1.58111084 0.73400009
v -2.18016864 1.60606779 0.64830502
v -2.17022285 1.60606779 0.64827123
v -2.73050392 1.58939879 0.64983377
v -2.90650166 1.59862642 0.65148924
v -2.74715235 1.60163175 0.65041659
v -2.42931861 1.57201867 0.73393252
v -2.17022285 1.64296986 0.72660123
v -2.31364444 1.58939879 0.73242911
v -2.46369656 1.58961043 0.73306256
v -2.90650166 1.57310228 0.73370448
v -2.78052130 1.58939879 0.73265715
v -2.86390762 1.58939879 0.73252200
v -2.71378341 1.60406142 0.65032367
v -2.69713499 1.61355996 0.65065307
v -2.17022285 1.61947748 0.64956351
v -2.68041448 1.61394938 0.65063619
v -2.73050392 1.60274923 0.65035745
v -2.90650166 1.60606780 0.65184398
v -2.74715235 1.60997049 0.65083888
v -2.71378341 1.61240016 0.65071220
v -2.17022285 1.64296986 0.67335643
v -2.17663715 1.64296986 0.72659279
v -2.22665452 1.64296986 0.72652521
v -2.90650166 1.58032354 0.73313013
v -2.86390762 1.64296987 0.72515692
v -2.90650166 1.58939879 0.73239532
v -2.90650166 1.61529543 0.65394709
v -2.90650166 1.62274527 0.65568700
v -2.17022285 1.62781623 0.65230853
v -2.71378341 1.62274527 0.65409067
v -2.69713499 1.62274527 0.65395552
v -2.46369656 1.62365109 0.65271394
v -2.17022285 1.63405547 0.66064493
v -2.17930384 1.64296986 0.67324663
v -2.87702456 1.64296987 0.72508091
v -2.89720447 1.64296987 0.72486975
v -2.90160082 1.64296987 0.72481908
v -2.90650166 1.64296987 0.72475995
v -2.88055604 1.64296987 0.72505556
v -2.90650166 1.62851041 0.65985942
v -2.17022285 1.63044907 0.65567009
v -2.90650166 1.63315810 0.66322945
v -2.48041707 1.63441950 0.66101655
v -2.39703071 1.63466499 0.66078851
v -2.38031026 1.63463960 0.66075473
v -2.19688920 1.63431790 0.66075473
v -2.18016864 1.64296986 0.67323819
v -2.90650166 1.64296987 0.67424330
v -2.89893419 1.64296987 0.67418416
v -2.41367917 1.64296986 0.67266385
v -2.39703071 1.64296986 0.67264694
v -2.89720447 1.64296987 0.67417572
v -2.19688920 1.64296986 0.67308617
f 1 2 3
f 1 3 4
f 1 4 5
f 1 5 6
f 1 6 7
f 1 7 8
f 1 8 9
f 1 9 10
f 1 10 11
f 1 11 2
f 2 11 12
f 2 12 3
f 3 12 13
f 3 13 14
f 3 14 32
f 3 32 15
f 3 15 16
f 3 16 4
f 4 16 5
f 5 16 17
f 5 17 6
f 6 17 7
f 7 18 19
f 7 19 20
f 7 20 21
f 7 21 22
f 7 22 8
f 7 17 18
f 8 22 23
f 8 23 24
f 8 24 9
f 9 25 26
f 9 26 10
f 9 24 25
f 10 26 11
f 11 26 48
f 11 48 69
f 11 69 80
f 11 80 93
f 11 93 107
f 11 107 119
f 11 119 111
f 11 111 99
f 11 99 85
f 11 85 73
f 11 73 70
f 11 70 52
f 11 52 51
f 11 51 50
f 11 50 49
f 11 49 28
f 11 28 27
f 11 27 13
f 11 13 12
f 13 27 14
f 14 27 28
f 14 28 29
f 14 29 30
f 14 30 31
f 14 31 32
f 15 32 33
f 15 33 34
f 15 34 16
f 16 35 17
f 16 34 35
f 17 35 36
f 17 36 18
f 18 36 37
f 18 37 19
f 19 37 38
f 19 38 20
f 20 38 37
f 20 37 57
f 20 57 77
f 20 77 88
f 20 88 102
f 20 102 104
f 20 104 116
f 20 116 126
f 20 126 120
f 20 120 118
f 20 118 106
f 20 106 105
f 20 105 96
f 20 96 82
f 20 82 66
f 20 66 65
f 20 65 64
f 20 64 63
f 20 63 59
f 20 59 58
f 20 58 41
f 20 41 40
f 20 40 39
f 20 39 21
f 21 39 40
f 21 40 41
f 21 41 22
f 22 41 23
f 23 41 42
f 23 42 24
f 24 42 43
f 24 43 44
f 24 44 45
f 24 45 25
f 25 46 26
f 25 45 47
f 25 47 46
f 26 46 48
f 28 49 29
f 29 49 50
f 29 50 51
f 29 51 52
f 29 52 30
f 30 52 53
f 30 53 31
f 31 53 54
f 31 54 32
f 32 54 33
f 33 54 53
f 33 53 55
f 33 55 34
f 34 55 35
f 35 56 57
f 35 57 37
f 35 37 36
f 35 55 76
f 35 76 56
f 41 58 42
f 42 58 43
f 43 58 59
f 43 59 47
f 43 47 45
f 43 45 44
f 46 60 61
f 46 61 69
f 46 69 48
f 46 47 62
f 46 62 60
f 47 59 63
f 47 63 64
f 47 64 65
f 47 65 66
f 47 66 67
f 47 67 68
f 47 68 62
f 52 70 53
f 53 71 72
f 53 72 55
f 53 70 73
f 53 73 71
f 55 74 75
f 55 75 76
f 55 72 74
f 56 76 75
f 56 75 57
f 57 75 78
f 57 78 77
f 60 79 80
f 60 80 61
f 60 62 81
f 60 81 79
f 61 80 69
f 62 68 81
f 66 82 83
f 66 83 81
f 66 81 67
f 67 81 68
f 71 74 84
f 71 84 72
f 71 73 74
f 72 84 74
f 73 85 86
f 73 86 74
f 74 86 85
f 74 85 75
f 75 85 87
f 75 87 78
f 77 78 88
f 78 87 89
f 78 89 90
f 78 90 88
f 79 81 91
f 79 91 92
f 79 92 80
f 80 92 94
f 80 94 93
f 81 83 95
f 81 95 91
f 82 96 83
f 83 96 97
f 83 97 98
f 83 98 92
f 83 92 95
f 85 99 112
f 85 112 125
f 85 125 131
f 85 131 129
f 85 129 128
f 85 128 130
f 85 130 127
f 85 127 126
f 85 126 116
f 85 116 115
f 85 115 114
f 85 114 117
f 85 117 113
f 85 113 103
f 85 103 101
f 85 101 100
f 85 100 87
f 87 100 101
f 87 101 89
f 88 90 102
f 89 101 90
f 90 103 104
f 90 104 102
f 90 101 103
f 91 95 92
f 92 98 96
f 92 96 105
f 92 105 106
f 92 106 94
f 93 94 107
f 94 106 108
f 94 108 109
f 94 109 110
f 94 110 107
f 96 98 97
f 99 111 112
f 103 113 104
f 104 114 115
f 104 115 116
f 104 113 117
f 104 117 114
f 106 118 107
f 106 107 108
f 107 110 109
f 107 109 108
f 107 118 120
f 107 120 121
f 107 121 122
f 107 122 123
f 107 123 119
f 111 119 124
f 111 124 112
f 112 124 125
f 119 123 124
f 120 126 121
f 121 126 127
f 121 127 122
f 122 128 129
f 122 129 123
f 122 127 130
f 122 130 128
f 123 129 131
f 123 131 124
f 124 131 125

