# https://github.com/mikedh/trimesh
v 0.66185354 -0.28805353 1.93259343
v 0.65284816 -0.32768963 1.90354899
v 0.65285391 -0.31103336 1.90354899
v 0.65279061 -0.28805353 1.90354899
v 0.60306829 -0.28805353 1.93259343
v 0.66108824 -0.71028760 1.93259343
v 0.64959703 -0.32768963 1.89484133
v 0.65199652 -0.71028760 1.90433756
v 0.64914245 -0.58662625 1.89518674
v 0.65154770 -0.28805353 1.90029723
v 0.61320724 -0.28805353 1.90411976
v 0.61319574 -0.29437709 1.90415732
v 0.61325326 -0.32768963 1.90402589
v 0.61324175 -0.34434588 1.90407846
v 0.61321302 -0.71028759 1.90588831
v 0.60391415 -0.71028759 1.93259343
v 0.64077002 -0.32768963 1.89423300
v 0.64948193 -0.28805353 1.89492389
v 0.63867550 -0.71028760 1.89445831
v 0.64700761 -0.71028760 1.89600536
v 0.64664512 -0.71028760 1.89591899
v 0.61786818 -0.28805353 1.89578381
v 0.61745965 -0.32768963 1.89569369
v 0.61342015 -0.46102235 1.90418360
v 0.62018140 -0.71028759 1.89755611
v 0.61779338 -0.44436610 1.89583638
v 0.61787390 -0.46102235 1.89585140
v 0.62579179 -0.32768963 1.89460851
v 0.62620032 -0.28805353 1.89465733
v 0.63519992 -0.28805353 1.89447709
v 0.64077002 -0.28805353 1.89436819
v 0.62851354 -0.71028759 1.89445831
v 0.62305848 -0.28805353 1.89505531
v 0.62612552 -0.44436610 1.89461978
f 1 2 3
f 1 3 4
f 1 4 10
f 1 10 18
f 1 18 31
f 1 31 30
f 1 30 29
f 1 29 33
f 1 33 22
f 1 22 11
f 1 11 5
f 1 5 16
f 1 16 6
f 1 6 2
f 2 7 3
f 2 6 8
f 2 8 9
f 2 9 7
f 3 7 4
f 4 7 10
f 5 11 12
f 5 12 13
f 5 13 14
f 5 14 15
f 5 15 16
f 6 16 15
f 6 15 25
f 6 25 32
f 6 32 19
f 6 19 21
f 6 21 20
f 6 20 8
f 7 17 18
f 7 18 10
f 7 9 19
f 7 19 17
f 8 20 9
f 9 20 21
f 9 21 19
f 11 22 23
f 11 23 13
f 11 13 12
f 13 23 14
f 14 23 24
f 14 24 15
f 15 24 23
f 15 23 26
f 15 26 27
f 15 27 25
f 17 28 29
f 17 29 30
f 17 30 31
f 17 31 18
f 17 19 32
f 17 32 28
f 22 33 23
f 23 33 28
f 23 28 34
f 23 34 32
f 23 32 26
f 25 27 32
f 26 32 27
f 28 33 29
f 28 32 34

