# https://github.com/mikedh/trimesh
v 0.37430467 -0.23782167 0.13110468
v 0.22451837 -0.23782167 0.13096711
v 0.37430467 -0.23782167 0.18031622
v 0.37430466 -0.61118774 0.13247071
v 0.37420178 -0.61830125 0.13243632
v 0.22412146 -0.61830125 0.13219557
v 0.22451837 -0.23782167 0.18116631
v 0.22412146 -0.46359174 0.13216118
v 0.37430466 -0.61830125 0.18033094
v 0.37430466 -0.61830125 0.15337393
v 0.22412146 -0.61830125 0.18092550
v 0.22412146 -0.46359174 0.18026710
v 0.22412146 -0.61826400 0.18103857
v 0.35013658 -0.61830125 0.18044890
v 0.36679256 -0.61830125 0.18037028
f 1 2 7
f 1 7 3
f 1 3 9
f 1 9 10
f 1 10 4
f 1 4 5
f 1 5 6
f 1 6 2
f 2 6 8
f 2 8 12
f 2 12 7
f 3 7 9
f 4 10 5
f 5 10 9
f 5 9 15
f 5 15 14
f 5 14 11
f 5 11 6
f 6 11 13
f 6 13 12
f 6 12 8
f 7 12 13
f 7 13 14
f 7 14 15
f 7 15 9
f 11 14 13

