# https://github.com/mikedh/trimesh
v -3.97964974 -0.23831414 1.53687555
v -3.97821809 -0.28512094 1.53687555
v -3.97828342 -0.28512094 1.54609140
v -3.97830958 -0.28512094 1.55353757
v -3.97951897 -0.23831414 1.55956460
v -3.96892219 -0.23831414 1.43902394
v -3.96671913 -0.28512094 1.43902394
v -3.97800887 -0.28512094 1.56275341
v -3.97916599 -0.23831414 1.57019953
v -3.92788824 -0.23831414 1.43902394
v -3.92840472 -0.28512094 1.43902394
v -3.97774083 -0.28512094 1.57019953
v -3.97844036 -0.23831414 1.57609298
v -3.91287234 -0.23831414 1.54104940
v -3.91287234 -0.28512094 1.54592445
v -3.97589736 -0.28512094 1.58113504
v -3.97704792 -0.23831414 1.58335551
v -3.91287234 -0.23831414 1.60237151
v -3.91287234 -0.28512094 1.60200422
v -3.96775203 -0.28512094 1.60956722
v -3.96962822 -0.23831414 1.60956722
v -3.92668541 -0.23831414 1.60945039
v -3.92671157 -0.23837829 1.60956722
v -3.92747643 -0.28512094 1.60956722
v -3.92922840 -0.23831414 1.60956722
f 1 2 3
f 1 3 4
f 1 4 5
f 1 5 9
f 1 9 13
f 1 13 17
f 1 17 21
f 1 21 25
f 1 25 22
f 1 22 18
f 1 18 14
f 1 14 10
f 1 10 6
f 1 6 2
f 2 6 7
f 2 7 11
f 2 11 15
f 2 15 19
f 2 19 24
f 2 24 20
f 2 20 16
f 2 16 12
f 2 12 8
f 2 8 4
f 2 4 3
f 4 8 5
f 5 8 9
f 6 10 11
f 6 11 7
f 8 12 9
f 9 12 13
f 10 14 11
f 11 14 15
f 12 16 13
f 13 16 17
f 14 18 19
f 14 19 15
f 16 20 21
f 16 21 17
f 18 22 23
f 18 23 19
f 19 23 24
f 20 24 23
f 20 23 25
f 20 25 21
f 22 25 23

