# https://github.com/mikedh/trimesh
v -2.09837097 1.57271744 0.73782763
v -2.08556598 1.53937290 0.74947311
v -2.08782853 1.55508548 0.74947311
v -2.09527946 1.57271744 0.74105441
v -2.09837097 1.61168920 0.72874172
v -2.09837097 1.55669948 0.72624278
v -2.07768593 1.52717622 0.74947311
v -2.09837097 1.55656863 0.72572119
v -2.09837097 1.55359361 0.70898079
v -2.08699958 1.57281340 0.74947311
v -2.07963644 1.58745289 0.74947311
v -2.06090190 1.60280778 0.74947311
v -2.04676083 1.60856587 0.74947311
v -2.03721308 1.60896719 0.74947311
v -2.03008404 1.60922020 0.74947311
v -2.06414949 1.61168920 0.73062198
v -2.09837097 1.61168920 0.64869116
v -2.06342777 1.52313683 0.74947311
v -2.09837097 1.55358489 0.70739168
v -2.07711057 1.52735069 0.62554577
v -2.07744211 1.52715877 0.72564840
v -2.06342777 1.52307576 0.67563348
v -2.06342777 1.52305831 0.69230108
v -2.06342777 1.52306705 0.72564840
v -2.01340731 1.60750150 0.74947311
v -2.02977193 1.61168920 0.72602444
v -2.04676083 1.61168920 0.73128918
v -2.06918179 1.61168920 0.64224975
v -2.04676083 1.60811221 0.62554577
v -2.06063859 1.60281651 0.62554577
v -2.06897698 1.59374317 0.62554577
v -2.07575492 1.58540267 0.62554577
v -2.08276701 1.57271744 0.62554577
v -2.08569272 1.55604515 0.62554577
v -2.09837097 1.57430527 0.64413000
v -2.04676083 1.52279658 0.74232811
v -2.04676083 1.52282275 0.74947311
v -2.09837097 1.55433518 0.67563348
v -2.09837097 1.55568746 0.65895374
v -2.08403481 1.53937290 0.62554577
v -2.06342777 1.52340727 0.62554577
v -2.06342777 1.52316301 0.65895374
v -2.04676083 1.52284894 0.65895374
v -2.04676083 1.52277039 0.67563348
v -2.04676083 1.52273550 0.69230108
v -2.04676083 1.52273550 0.70898079
v -2.04676083 1.52275295 0.72564840
v -2.00701942 1.60423858 0.74947311
v -2.00202613 1.60198770 0.70898079
v -2.00196762 1.60205749 0.69230108
v -2.01340731 1.60770216 0.70898079
v -2.02438859 1.61168920 0.70855621
v -2.02439831 1.61168920 0.70898079
v -2.02960619 1.61168920 0.72556347
v -2.04728746 1.61168920 0.63823449
v -2.03008404 1.60820818 0.62554577
v -2.04676083 1.61168920 0.63818597
v -2.09837097 1.57271744 0.64415428
v -2.03962200 1.52275295 0.74947311
v -2.03008404 1.52257847 0.72564840
v -2.09837097 1.55603643 0.65806821
v -2.09837097 1.56070398 0.64711419
v -2.04676083 1.52304956 0.62554577
v -2.03008404 1.52287509 0.62554577
v -2.03008404 1.52263954 0.67563348
v -2.03008404 1.52258720 0.69230108
v -2.03008404 1.52256101 0.70898079
v -2.00226016 1.60176959 0.74947311
v -1.99898335 1.58938971 0.70898079
v -1.99889556 1.58938971 0.69230108
v -2.01340731 1.60774579 0.69230108
v -1.99885655 1.58938971 0.67563348
v -1.99884683 1.58938971 0.65895374
v -2.00194812 1.60200515 0.67563348
v -2.02432030 1.61168920 0.69230108
v -2.01340731 1.60677738 0.62554577
v -2.03142012 1.61168920 0.64249237
v -2.03053266 1.61168920 0.64274713
v -2.03008404 1.52266572 0.74947311
v -2.01340731 1.52370390 0.72564840
v -2.01340731 1.52393073 0.62554577
v -2.01340731 1.52386967 0.64227403
v -2.01340731 1.52375626 0.67563348
v -2.01340731 1.52371264 0.69230108
v -2.01340731 1.52368645 0.70898079
v -1.99932468 1.58938971 0.74947311
v -1.99923689 1.58225316 0.74947311
v -1.99911987 1.57271743 0.74947311
v -1.99896385 1.55604515 0.74947311
v -1.99894434 1.55604515 0.74232811
v -2.01340731 1.60760620 0.67563348
v -2.02467141 1.61168920 0.67563348
v -1.99890534 1.55604515 0.72564840
v -1.99881755 1.55604515 0.67563348
v -1.99875904 1.55604515 0.64227403
v -1.99873954 1.55604515 0.62560642
v -1.99885655 1.58938971 0.64227403
v -1.99888584 1.58938971 0.62560642
v -2.00194812 1.60183939 0.65895374
v -2.00202613 1.60159509 0.62554577
v -2.02553937 1.61168920 0.65895374
v -2.01340731 1.52379989 0.74947311
v -2.00226016 1.52797887 0.74232811
v -2.00226995 1.52799631 0.74947311
v -2.00864805 1.52558839 0.74947311
v -2.00226995 1.52807483 0.62554577
v -2.00227967 1.52803994 0.62560642
v -2.00226016 1.52796140 0.70898079
v -2.00226016 1.52796140 0.72564840
v -2.00226995 1.52802247 0.64227403
v -2.00225044 1.52798758 0.67563348
v -2.00226016 1.52797012 0.69230108
v -1.99918816 1.53937290 0.74947311
v -1.99915887 1.53937290 0.74232811
v -1.99912965 1.53937290 0.72564840
v -1.99907114 1.53937290 0.67563348
v -1.99907114 1.53937290 0.64227403
v -1.99908086 1.53937290 0.62560642
v -1.99908086 1.53941649 0.62554577
v -1.99874926 1.55609749 0.62554577
v -1.99880783 1.57276105 0.62554577
v -1.99889556 1.58942460 0.62554577
v -2.00197735 1.60169107 0.64227403
v -2.00049496 1.53450467 0.74947311
f 1 2 3
f 1 3 4
f 1 4 5
f 1 5 17
f 1 17 35
f 1 35 58
f 1 58 62
f 1 62 61
f 1 61 39
f 1 39 38
f 1 38 19
f 1 19 9
f 1 9 8
f 1 8 6
f 1 6 2
f 2 7 18
f 2 18 37
f 2 37 59
f 2 59 79
f 2 79 102
f 2 102 105
f 2 105 104
f 2 104 124
f 2 124 113
f 2 113 89
f 2 89 88
f 2 88 87
f 2 87 86
f 2 86 68
f 2 68 48
f 2 48 25
f 2 25 15
f 2 15 14
f 2 14 13
f 2 13 12
f 2 12 11
f 2 11 10
f 2 10 3
f 2 6 8
f 2 8 9
f 2 9 7
f 3 10 4
f 4 10 5
f 5 10 11
f 5 11 12
f 5 12 13
f 5 13 14
f 5 14 15
f 5 15 16
f 5 16 27
f 5 27 26
f 5 26 54
f 5 54 53
f 5 53 52
f 5 52 75
f 5 75 92
f 5 92 101
f 5 101 78
f 5 78 77
f 5 77 57
f 5 57 55
f 5 55 28
f 5 28 17
f 7 9 19
f 7 19 20
f 7 20 21
f 7 21 22
f 7 22 23
f 7 23 24
f 7 24 18
f 15 25 26
f 15 26 27
f 15 27 16
f 17 28 29
f 17 29 30
f 17 30 31
f 17 31 32
f 17 32 33
f 17 33 34
f 17 34 35
f 18 36 37
f 18 24 36
f 19 38 20
f 20 38 39
f 20 39 40
f 20 40 34
f 20 34 33
f 20 33 32
f 20 32 31
f 20 31 30
f 20 30 29
f 20 29 56
f 20 56 76
f 20 76 100
f 20 100 122
f 20 122 121
f 20 121 120
f 20 120 119
f 20 119 106
f 20 106 81
f 20 81 64
f 20 64 63
f 20 63 41
f 20 41 42
f 20 42 22
f 20 22 21
f 22 42 43
f 22 43 44
f 22 44 45
f 22 45 23
f 23 45 46
f 23 46 24
f 24 46 47
f 24 47 36
f 25 48 49
f 25 49 50
f 25 50 51
f 25 51 52
f 25 52 53
f 25 53 54
f 25 54 26
f 28 55 29
f 29 55 57
f 29 57 56
f 34 40 58
f 34 58 35
f 36 59 37
f 36 47 60
f 36 60 59
f 39 61 40
f 40 61 62
f 40 62 58
f 41 63 42
f 42 63 43
f 43 63 64
f 43 64 44
f 44 64 65
f 44 65 66
f 44 66 45
f 45 66 67
f 45 67 46
f 46 67 60
f 46 60 47
f 48 68 49
f 49 68 69
f 49 69 70
f 49 70 50
f 50 71 51
f 50 70 72
f 50 72 73
f 50 73 74
f 50 74 71
f 51 71 52
f 52 71 75
f 56 57 77
f 56 77 78
f 56 78 76
f 59 60 79
f 60 67 85
f 60 85 80
f 60 80 79
f 64 81 65
f 65 81 82
f 65 82 83
f 65 83 66
f 66 83 84
f 66 84 85
f 66 85 67
f 68 86 69
f 69 86 87
f 69 87 88
f 69 88 89
f 69 89 70
f 70 89 90
f 70 90 72
f 71 74 91
f 71 91 92
f 71 92 75
f 72 90 93
f 72 93 94
f 72 94 95
f 72 95 96
f 72 96 73
f 73 96 97
f 73 97 74
f 74 97 98
f 74 98 99
f 74 99 100
f 74 100 91
f 76 78 101
f 76 101 92
f 76 92 91
f 76 91 100
f 79 80 102
f 80 85 103
f 80 103 104
f 80 104 105
f 80 105 102
f 81 106 107
f 81 107 82
f 82 107 83
f 83 107 84
f 84 107 85
f 85 108 109
f 85 109 103
f 85 107 110
f 85 110 111
f 85 111 112
f 85 112 108
f 89 113 114
f 89 114 90
f 90 114 93
f 93 114 94
f 94 114 115
f 94 115 95
f 95 115 96
f 96 115 116
f 96 116 117
f 96 117 118
f 96 118 119
f 96 119 120
f 96 120 121
f 96 121 97
f 97 121 98
f 98 121 122
f 98 122 100
f 98 100 123
f 98 123 99
f 99 123 100
f 103 115 124
f 103 124 104
f 103 109 116
f 103 116 115
f 106 119 118
f 106 118 107
f 107 118 110
f 108 112 111
f 108 111 109
f 109 111 116
f 110 118 111
f 111 118 117
f 111 117 116
f 113 124 114
f 114 124 115

