# https://github.com/mikedh/trimesh
v 0.67642092 -0.26382637 0.89867691
v 0.67642092 -0.25869385 0.89868980
v 0.67642092 -0.26382637 0.83764999
v 0.88215997 -0.26382637 0.89816787
v 0.88215997 -0.26100830 0.89818076
v 0.88215997 -0.24433562 0.89822586
v 0.69077997 -0.24433562 0.89867047
v 0.67642092 -0.24433562 0.89870269
v 0.88215997 -0.23628857 0.89823875
v 0.88215997 -0.22767362 0.89825164
v 0.67642092 -0.22894874 0.83288176
v 0.82409952 -0.23011668 0.83288176
v 0.84077453 -0.23017025 0.83288176
v 0.85742939 -0.23021311 0.83288176
v 0.87414469 -0.23019168 0.83288176
v 0.88215997 -0.26382637 0.83784329
v 0.67642092 -0.24202115 0.89870269
v 0.88215997 -0.21961588 0.89823875
v 0.70745498 -0.22767362 0.89862536
v 0.67642092 -0.15540031 0.83288176
v 0.88215997 -0.23013810 0.83288176
v 0.67642092 -0.22767362 0.89867691
v 0.88215997 -0.21100095 0.89821298
v 0.67642092 -0.22535918 0.89867047
v 0.88215997 -0.20296463 0.89818076
v 0.88215997 -0.19434969 0.89814210
v 0.67642092 -0.15496098 0.83456352
v 0.67811257 -0.15538958 0.83288176
v 0.88215997 -0.15555030 0.83288176
v 0.70745498 -0.21100095 0.89854160
v 0.67642092 -0.21100095 0.89858026
v 0.88215997 -0.17767698 0.89745909
v 0.70745498 -0.17767698 0.89790369
v 0.72410984 -0.19434969 0.89839984
v 0.67642092 -0.15437164 0.83687677
v 0.72811748 -0.15526101 0.83288176
v 0.69476746 -0.15534672 0.83288176
v 0.88215997 -0.15489667 0.83687677
v 0.87809192 -0.15553960 0.83288176
v 0.72410984 -0.15441450 0.83687677
v 0.70745498 -0.19434969 0.89842561
v 0.69077997 -0.19434969 0.89844495
v 0.67642092 -0.20869720 0.89856093
v 0.88215997 -0.16814054 0.89600928
v 0.70745498 -0.16759408 0.89631857
v 0.67642092 -0.16752980 0.89637012
v 0.67642092 -0.17767698 0.89794235
v 0.67642092 -0.15470382 0.85353980
v 0.70745498 -0.15470382 0.85353980
v 0.70745498 -0.15438237 0.83687677
v 0.74477237 -0.15522885 0.83288176
v 0.88215997 -0.15518600 0.85353980
v 0.72410984 -0.15473598 0.85353980
v 0.67642092 -0.19434969 0.89842561
v 0.88215997 -0.16501175 0.89159545
v 0.67642092 -0.16083287 0.88686588
v 0.88215997 -0.16166862 0.88686588
v 0.67642092 -0.15531456 0.86788960
v 0.88215997 -0.15588248 0.87020284
v 0.67642092 -0.16007207 0.88455264
v 0.88215997 -0.15886128 0.87881787
v 0.67642092 -0.15543243 0.87020284
f 1 2 8
f 1 8 17
f 1 17 22
f 1 22 24
f 1 24 31
f 1 31 43
f 1 43 54
f 1 54 47
f 1 47 46
f 1 46 56
f 1 56 60
f 1 60 62
f 1 62 58
f 1 58 48
f 1 48 35
f 1 35 27
f 1 27 20
f 1 20 11
f 1 11 3
f 1 3 16
f 1 16 4
f 1 4 5
f 1 5 6
f 1 6 2
f 2 7 8
f 2 6 9
f 2 9 10
f 2 10 7
f 3 11 12
f 3 12 13
f 3 13 14
f 3 14 15
f 3 15 16
f 4 16 21
f 4 21 29
f 4 29 38
f 4 38 52
f 4 52 59
f 4 59 61
f 4 61 57
f 4 57 55
f 4 55 44
f 4 44 32
f 4 32 26
f 4 26 25
f 4 25 23
f 4 23 18
f 4 18 10
f 4 10 9
f 4 9 6
f 4 6 5
f 7 10 8
f 8 10 17
f 10 18 19
f 10 19 17
f 11 20 28
f 11 28 37
f 11 37 36
f 11 36 51
f 11 51 39
f 11 39 29
f 11 29 21
f 11 21 15
f 11 15 14
f 11 14 13
f 11 13 12
f 15 21 16
f 17 19 22
f 18 23 19
f 19 24 22
f 19 23 25
f 19 25 26
f 19 26 24
f 20 27 28
f 24 26 30
f 24 30 31
f 26 32 33
f 26 33 34
f 26 34 30
f 27 35 36
f 27 36 37
f 27 37 28
f 29 39 40
f 29 40 38
f 30 34 41
f 30 41 31
f 31 41 42
f 31 42 43
f 32 44 33
f 33 45 46
f 33 46 47
f 33 47 41
f 33 41 34
f 33 44 45
f 35 48 49
f 35 49 50
f 35 50 51
f 35 51 36
f 38 40 52
f 39 51 40
f 40 51 50
f 40 50 49
f 40 49 53
f 40 53 52
f 41 47 42
f 42 47 54
f 42 54 43
f 44 55 45
f 45 56 46
f 45 55 57
f 45 57 56
f 48 58 49
f 49 58 53
f 52 53 59
f 53 58 59
f 56 57 61
f 56 61 59
f 56 59 60
f 58 62 59
f 59 62 60

