# https://github.com/mikedh/trimesh
v -2.09931814 2.02228477 0.95972364
v -2.09931814 2.01876885 0.95967399
v -2.09031426 2.03965856 0.97564958
v -2.08931605 2.05445118 0.97564958
v -2.09931814 2.03801209 0.95715414
v -2.08975524 2.02209611 0.97564958
v -2.09931814 1.98376398 0.95242477
v -2.08791853 2.06292367 0.97564958
v -2.09931814 2.04578141 0.94569690
v -2.08897669 2.02057826 0.97564958
v -2.04708170 1.98376398 0.96333584
v -2.04675230 1.98661959 0.97564958
v -2.04694196 1.98667962 0.97564958
v -2.06065737 1.99238227 0.97564958
v -2.08154997 2.01030490 0.97564958
v -2.08316708 2.01199427 0.97564958
v -2.09931814 1.98376398 0.87165304
v -2.09931814 2.04946887 0.91538422
v -2.09931814 2.04940025 0.92577394
v -2.09931814 2.04901437 0.93131016
v -2.09931814 2.04655321 0.94245708
v -2.07957352 2.06782025 0.97564958
v -2.08712995 2.06349823 0.94245708
v -2.08699021 2.06362688 0.89243249
v -2.08719985 2.06343821 0.87576176
v -2.08760911 2.06289798 0.84886267
v -2.09931814 2.04954604 0.89243249
v -2.04673232 1.98376398 0.96336066
v -2.03028175 1.98640520 0.97564958
v -2.09931814 2.02282503 0.86405625
v -2.09145222 2.02385408 0.84886267
v -2.08768897 2.01667643 0.84886267
v -2.08015245 2.00790377 0.84886267
v -2.06185521 1.99130177 0.84886267
v -2.04675230 1.98558197 0.84886267
v -2.04675230 1.98376398 0.85650912
v -2.06342241 2.07102748 0.97564958
v -2.07927406 2.06763158 0.84886267
v -2.08868719 2.05967362 0.84886267
v -2.09931814 2.04347462 0.87488042
v -2.03086075 1.98376398 0.95887955
v -2.03008213 1.98641379 0.97564958
v -2.09931814 2.04032745 0.87085860
v -2.09191140 2.03966714 0.84886267
v -2.03025181 1.98587353 0.84886267
v -2.03125002 1.98376398 0.86028269
v -2.06327271 2.07103603 0.97564958
v -2.06342241 2.07086454 0.90911563
v -2.06342241 2.07071018 0.84886267
v -2.08976526 2.05456264 0.84886267
v -2.03055127 1.98376398 0.95870577
v -2.01355176 1.98748571 0.97564958
v -2.01340200 1.98789733 0.84886267
v -2.03072101 1.98376398 0.86050612
v -2.04675230 2.07121612 0.97564958
v -2.04675230 2.07119038 0.94245708
v -2.04675230 2.07117323 0.92577394
v -2.04675230 2.07093311 0.84886267
v -2.02554026 1.98376398 0.94246949
v -2.01340200 1.98751144 0.97564958
v -2.00155324 1.99354853 0.84886267
v -2.01340200 1.98737421 0.89243249
v -2.02435239 1.98376398 0.89243249
v -2.02598948 1.98376398 0.87574934
v -2.03008213 2.07136190 0.97564958
v -2.03008213 2.07136190 0.94245708
v -2.03008213 2.07133617 0.92577394
v -2.03008213 2.07107892 0.84886267
v -2.02462190 1.98376398 0.92577394
v -2.00123380 1.99324838 0.95912781
v -2.00133364 1.99329984 0.97564958
v -2.02416273 1.98376398 0.90933907
v -2.01340200 1.98735707 0.92577394
v -2.00117392 1.99318836 0.94245708
v -1.99931722 2.00138647 0.84886267
v -1.99757033 2.00632591 0.89243249
v -1.99745057 2.00632591 0.90911563
v -2.00135356 1.99330841 0.89243249
v -2.00127370 1.99323124 0.90911563
v -2.00120386 1.99317121 0.92577394
v -2.01340200 1.98730563 0.90911563
v -2.02416273 1.98376398 0.90911563
v -2.02993237 2.07136190 0.97564958
v -2.01340200 2.07093311 0.94245708
v -2.01340200 2.07090742 0.92577394
v -2.01340200 2.07055580 0.84886267
v -1.99742063 2.00632591 0.95912781
v -1.99753043 2.00632591 0.97564958
v -1.99734077 2.00632591 0.94245708
v -1.99735073 2.00632591 0.92577394
v -1.99790975 2.00632591 0.84886267
v -1.99785983 2.02299652 0.84886267
v -2.01340200 2.07091598 0.97564958
v -2.01340200 2.07092456 0.95912781
v -2.00201241 2.06757156 0.94245708
v -2.00202237 2.06755441 0.92577394
v -2.01330216 2.07089024 0.97564958
v -2.00201241 2.06756300 0.97564958
v -2.00205231 2.06752012 0.90911563
v -2.00224197 2.06734003 0.84886267
v -1.99753043 2.02315089 0.97564958
v -1.99753043 2.03966714 0.94245708
v -1.99756037 2.03966714 0.95912781
v -1.99745057 2.02299652 0.92577394
v -1.99751045 2.02299652 0.90911563
v -1.99793969 2.03966714 0.84886267
v -1.99787981 2.03966714 0.85907862
v -1.99826909 2.05634635 0.94245708
v -1.99828907 2.05634635 0.92577394
v -1.99832903 2.05634635 0.90911563
v -1.99828907 2.05634635 0.97564958
v -1.99827911 2.05634635 0.95912781
v -2.00085448 2.06307806 0.84886267
v -1.99762025 2.03982150 0.97564958
v -1.99756037 2.03966714 0.92577394
v -1.99770011 2.03966714 0.89243249
v -1.99762025 2.03966714 0.90911563
v -1.99838891 2.04988904 0.84886267
v -1.99867834 2.05634635 0.84886267
f 1 2 3
f 1 3 4
f 1 4 5
f 1 5 9
f 1 9 21
f 1 21 20
f 1 20 19
f 1 19 18
f 1 18 27
f 1 27 40
f 1 40 43
f 1 43 30
f 1 30 17
f 1 17 7
f 1 7 2
f 2 6 3
f 2 7 6
f 3 6 10
f 3 10 16
f 3 16 15
f 3 15 14
f 3 14 13
f 3 13 12
f 3 12 29
f 3 29 42
f 3 42 52
f 3 52 60
f 3 60 71
f 3 71 88
f 3 88 101
f 3 101 114
f 3 114 111
f 3 111 98
f 3 98 97
f 3 97 93
f 3 93 83
f 3 83 65
f 3 65 55
f 3 55 47
f 3 47 37
f 3 37 22
f 3 22 8
f 3 8 4
f 4 8 5
f 5 8 9
f 6 7 10
f 7 11 12
f 7 12 13
f 7 13 14
f 7 14 15
f 7 15 16
f 7 16 10
f 7 17 36
f 7 36 46
f 7 46 54
f 7 54 64
f 7 64 63
f 7 63 82
f 7 82 72
f 7 72 69
f 7 69 59
f 7 59 51
f 7 51 41
f 7 41 28
f 7 28 11
f 8 18 19
f 8 19 20
f 8 20 21
f 8 21 9
f 8 22 23
f 8 23 24
f 8 24 25
f 8 25 26
f 8 26 27
f 8 27 18
f 11 28 12
f 12 28 29
f 17 30 31
f 17 31 32
f 17 32 33
f 17 33 34
f 17 34 35
f 17 35 36
f 22 37 38
f 22 38 24
f 22 24 23
f 24 38 25
f 25 38 26
f 26 38 49
f 26 49 58
f 26 58 68
f 26 68 86
f 26 86 100
f 26 100 113
f 26 113 119
f 26 119 118
f 26 118 106
f 26 106 92
f 26 92 91
f 26 91 75
f 26 75 61
f 26 61 53
f 26 53 45
f 26 45 35
f 26 35 34
f 26 34 33
f 26 33 32
f 26 32 31
f 26 31 44
f 26 44 50
f 26 50 39
f 26 39 40
f 26 40 27
f 28 41 42
f 28 42 29
f 30 43 44
f 30 44 31
f 35 45 36
f 36 45 46
f 37 47 48
f 37 48 38
f 38 48 49
f 39 50 43
f 39 43 40
f 41 51 52
f 41 52 42
f 43 50 44
f 45 53 54
f 45 54 46
f 47 55 56
f 47 56 57
f 47 57 48
f 48 57 49
f 49 57 58
f 51 59 52
f 52 59 60
f 53 61 62
f 53 62 63
f 53 63 64
f 53 64 54
f 55 65 66
f 55 66 56
f 56 66 57
f 57 66 67
f 57 67 58
f 58 67 68
f 59 69 60
f 60 70 71
f 60 69 72
f 60 72 73
f 60 73 74
f 60 74 70
f 61 75 76
f 61 76 77
f 61 77 78
f 61 78 62
f 62 78 79
f 62 79 80
f 62 80 81
f 62 81 63
f 63 81 82
f 65 83 66
f 66 84 85
f 66 85 67
f 66 83 84
f 67 85 68
f 68 85 86
f 70 87 88
f 70 88 71
f 70 74 89
f 70 89 87
f 72 82 81
f 72 81 73
f 73 81 74
f 74 81 80
f 74 80 90
f 74 90 89
f 75 91 76
f 76 91 92
f 76 92 77
f 77 90 79
f 77 79 78
f 77 92 90
f 79 90 80
f 83 93 94
f 83 94 84
f 84 95 96
f 84 96 85
f 84 94 97
f 84 97 98
f 84 98 95
f 85 96 99
f 85 99 100
f 85 100 86
f 87 101 88
f 87 89 101
f 89 90 102
f 89 102 103
f 89 103 101
f 90 104 102
f 90 92 105
f 90 105 104
f 92 106 107
f 92 107 105
f 93 97 94
f 95 108 96
f 95 98 108
f 96 109 110
f 96 110 99
f 96 108 109
f 98 111 112
f 98 112 108
f 99 110 100
f 100 110 113
f 101 103 114
f 102 104 115
f 102 115 109
f 102 109 108
f 102 108 112
f 102 112 111
f 102 111 103
f 103 111 114
f 104 105 117
f 104 117 115
f 105 107 116
f 105 116 117
f 106 118 107
f 107 118 110
f 107 110 116
f 109 115 110
f 110 117 116
f 110 118 119
f 110 119 113
f 110 115 117

