# https://github.com/mikedh/trimesh
v 0.22071908 -0.17768337 0.80594457
v 0.22071908 -0.19454326 0.80700286
v 0.22071908 -0.16293210 0.80862248
v 0.56524014 -0.16569908 0.81050900
v 0.56524014 -0.17132200 0.81007647
v 0.56524014 -0.17768337 0.80961635
v 0.56524014 -0.19434754 0.81063782
v 0.22071908 -0.20375171 0.80854887
v 0.56524014 -0.20360046 0.81152126
v 0.54075674 -0.20392075 0.81132802
v 0.22071908 -0.15542299 0.82045685
v 0.52409729 -0.15730919 0.82020839
v 0.52409729 -0.16495173 0.81038016
v 0.56524014 -0.16169541 0.81564396
v 0.22071908 -0.20676779 0.80957035
v 0.56524014 -0.24419762 0.83838324
v 0.22071908 -0.15337668 0.83658876
v 0.45742556 -0.15391051 0.83687404
v 0.47408507 -0.15396388 0.83687404
v 0.49074452 -0.15403508 0.83687404
v 0.56524014 -0.15437316 0.83687404
v 0.56524014 -0.15814551 0.82020839
v 0.22071908 -0.24425990 0.83524520
v 0.56524014 -0.24419762 0.89858573
v 0.37433042 -0.24425990 0.83903662
v 0.22071908 -0.15343897 0.84026974
v 0.56524014 -0.15469345 0.85353048
v 0.22071908 -0.15370587 0.85353048
v 0.22071908 -0.15378592 0.85691699
v 0.56524014 -0.15453329 0.84572680
v 0.22071908 -0.24425990 0.89887100
v 0.44090093 -0.24419762 0.89873297
v 0.37433042 -0.24425990 0.89871456
v 0.56524014 -0.22766693 0.89853972
v 0.22071908 -0.19462334 0.89995690
v 0.56524014 -0.15549418 0.87019615
v 0.22071908 -0.15432866 0.87019615
v 0.56524014 -0.21984644 0.89847530
v 0.22071908 -0.17768337 0.89988328
v 0.54075674 -0.16096584 0.88686180
v 0.56524014 -0.15848359 0.87903970
v 0.22071908 -0.15492478 0.87358264
v 0.56524014 -0.21100280 0.89839248
v 0.22071908 -0.16994297 0.89859494
v 0.56524014 -0.19434754 0.89820843
v 0.56524014 -0.17768337 0.89761947
v 0.55741625 -0.16772760 0.89621149
v 0.54075674 -0.16760305 0.89629431
v 0.56524014 -0.16118829 0.88686180
v 0.22071908 -0.16038756 0.88969616
v 0.22071908 -0.16623290 0.89757346
v 0.56524014 -0.16778989 0.89616548
v 0.56524014 -0.16469373 0.89183112
f 1 2 8
f 1 8 15
f 1 15 23
f 1 23 31
f 1 31 35
f 1 35 39
f 1 39 44
f 1 44 51
f 1 51 50
f 1 50 42
f 1 42 37
f 1 37 29
f 1 29 28
f 1 28 26
f 1 26 17
f 1 17 11
f 1 11 3
f 1 3 4
f 1 4 5
f 1 5 6
f 1 6 7
f 1 7 2
f 2 7 9
f 2 9 10
f 2 10 8
f 3 11 12
f 3 12 13
f 3 13 4
f 4 13 14
f 4 14 22
f 4 22 21
f 4 21 30
f 4 30 27
f 4 27 36
f 4 36 41
f 4 41 49
f 4 49 53
f 4 53 52
f 4 52 46
f 4 46 45
f 4 45 43
f 4 43 38
f 4 38 34
f 4 34 24
f 4 24 16
f 4 16 9
f 4 9 7
f 4 7 6
f 4 6 5
f 8 10 15
f 9 16 10
f 10 16 15
f 11 17 18
f 11 18 19
f 11 19 20
f 11 20 21
f 11 21 12
f 12 21 22
f 12 22 13
f 13 22 14
f 15 16 23
f 16 24 33
f 16 33 25
f 16 25 23
f 17 26 18
f 18 27 19
f 18 26 28
f 18 28 29
f 18 29 27
f 19 27 30
f 19 30 20
f 20 30 21
f 23 25 33
f 23 33 31
f 24 32 33
f 24 34 35
f 24 35 32
f 27 29 37
f 27 37 36
f 31 33 32
f 31 32 35
f 34 38 39
f 34 39 35
f 36 40 41
f 36 37 42
f 36 42 40
f 38 43 39
f 39 43 45
f 39 45 46
f 39 46 47
f 39 47 48
f 39 48 44
f 40 48 49
f 40 49 41
f 40 42 50
f 40 50 48
f 44 48 51
f 46 52 47
f 47 52 53
f 47 53 48
f 48 53 49
f 48 50 51

