# https://github.com/mikedh/trimesh
v -3.89965097 -0.72311559 0.90404250
v -3.89965097 -0.61833948 0.89885227
v -3.89965097 -0.72311559 0.90366440
v -3.89601810 -0.72311559 0.90406313
v -3.89960686 -0.61830869 0.89883853
v -3.89965097 -0.61830869 0.83817130
v -3.86264555 -0.72311559 0.90424874
v -3.84601071 -0.72311559 0.90433123
v -3.83293526 -0.72311559 0.90439310
v -3.83293526 -0.61830869 0.89897601
v -3.84021572 -0.61830869 0.89896227
v -3.89965097 -0.72306427 0.83416349
v -3.89960686 -0.72311559 0.83417035
v -3.89965097 -0.61830869 0.83764197
v -3.76627837 -0.72311559 0.90428998
v -3.82356622 -0.61830869 0.89895539
v -3.74942294 -0.72311559 0.90426249
v -3.74942294 -0.72311559 0.83555214
v -3.74949649 -0.61830869 0.83941559
v -3.74942294 -0.61830869 0.89875603
v -3.74942294 -0.62767708 0.83945684
v -3.74942294 -0.61830869 0.86526360
f 1 2 6
f 1 6 14
f 1 14 12
f 1 12 3
f 1 3 13
f 1 13 18
f 1 18 17
f 1 17 15
f 1 15 9
f 1 9 8
f 1 8 7
f 1 7 4
f 1 4 2
f 2 5 6
f 2 4 7
f 2 7 8
f 2 8 9
f 2 9 10
f 2 10 11
f 2 11 5
f 3 12 13
f 5 11 10
f 5 10 16
f 5 16 20
f 5 20 22
f 5 22 19
f 5 19 14
f 5 14 6
f 9 15 10
f 10 15 17
f 10 17 16
f 12 14 18
f 12 18 13
f 14 19 18
f 16 17 20
f 17 18 21
f 17 21 22
f 17 22 20
f 18 19 21
f 19 22 21

