# https://github.com/mikedh/trimesh
v -2.98202316 -0.75236901 1.65484774
v -2.53296003 -0.75111894 1.66117011
v -2.51631405 -0.75115810 1.66117011
v -2.49966806 -0.75120796 1.66117011
v -2.49058842 -0.75123646 1.66117011
v -2.48756191 -0.75124715 1.66117011
v -2.98202316 -0.78692997 1.65484774
v -3.01632396 -0.75235122 1.65484774
v -2.54973207 -0.75112249 1.66117011
v -2.51631405 -0.75269312 1.82424579
v -2.49966806 -0.75268957 1.82418255
v -3.01771113 -0.75235122 1.65484774
v -2.48756191 -0.78517773 1.66117011
v -2.48756191 -0.75270024 1.82051558
v -2.74960995 -0.78635657 1.66117011
v -2.75868960 -0.78638151 1.66117011
v -2.66638007 -0.78695846 1.87012534
v -3.18290987 -0.78726119 1.65484774
v -3.33448916 -0.75244024 1.65484774
v -3.58291782 -0.75259697 1.65484774
v -3.77585984 -0.75434567 1.86999886
v -3.44949778 -0.75370458 1.83686950
v -2.53069009 -0.75320953 1.87012534
v -2.48756191 -0.75285694 1.83684846
v -2.48756191 -0.78527745 1.68690230
v -2.64973409 -0.78690148 1.87012534
v -2.66638007 -0.78622481 1.70357236
v -2.66638007 -0.78614288 1.68690230
v -2.68302605 -0.78621411 1.68690230
v -2.74960995 -0.78699053 1.87012534
v -3.21620183 -0.78749625 1.86999886
v -3.19955585 -0.78748915 1.86999886
v -3.19829480 -0.78728614 1.65484774
v -3.71621174 -0.75293887 1.65484774
v -2.98189705 -0.75443826 1.87012534
v -2.78290191 -0.75356925 1.87012534
v -2.76625593 -0.75353364 1.87012534
v -3.73336216 -0.75299227 1.65484774
v -3.75076477 -0.75310627 1.65484774
v -3.77585984 -0.75331638 1.65484774
v -3.77585984 -0.78678397 1.86999886
v -2.48756191 -0.75359420 1.87012534
v -2.48756191 -0.78588289 1.87012534
v -2.91632197 -0.78703684 1.87012534
v -3.19955585 -0.78728614 1.65484774
v -2.93296795 -0.78704039 1.87012534
v -3.29981007 -0.78748558 1.86999886
v -2.98189705 -0.78702257 1.87012534
v -3.77585984 -0.78657740 1.65484774
v -3.66614773 -0.78684095 1.65484774
v -3.58304395 -0.78724340 1.86999886
v -3.44949778 -0.78715435 1.65484774
v -2.96638602 -0.78702972 1.87012534
v -3.39968593 -0.78740723 1.86999886
v -3.44949778 -0.78720779 1.70355126
v -3.56614577 -0.78726477 1.86999886
v -3.46488269 -0.78714011 1.65484774
v -3.46614376 -0.78719354 1.70355126
f 1 2 3
f 1 3 4
f 1 4 5
f 1 5 6
f 1 6 13
f 1 13 7
f 1 7 18
f 1 18 33
f 1 33 45
f 1 45 52
f 1 52 57
f 1 57 50
f 1 50 49
f 1 49 40
f 1 40 39
f 1 39 38
f 1 38 34
f 1 34 20
f 1 20 19
f 1 19 12
f 1 12 8
f 1 8 2
f 2 9 10
f 2 10 11
f 2 11 3
f 2 8 12
f 2 12 9
f 3 11 4
f 4 11 5
f 5 11 6
f 6 11 14
f 6 14 24
f 6 24 42
f 6 42 43
f 6 43 25
f 6 25 13
f 7 13 15
f 7 15 16
f 7 16 17
f 7 17 18
f 9 12 19
f 9 19 20
f 9 20 21
f 9 21 22
f 9 22 10
f 10 23 11
f 10 22 21
f 10 21 23
f 11 24 14
f 11 23 24
f 13 25 26
f 13 26 27
f 13 27 28
f 13 28 15
f 15 28 29
f 15 29 27
f 15 27 26
f 15 26 17
f 15 17 16
f 17 26 43
f 17 43 42
f 17 42 23
f 17 23 37
f 17 37 36
f 17 36 35
f 17 35 48
f 17 48 53
f 17 53 46
f 17 46 44
f 17 44 30
f 17 30 31
f 17 31 32
f 17 32 33
f 17 33 18
f 20 34 21
f 21 35 36
f 21 36 37
f 21 37 23
f 21 34 38
f 21 38 39
f 21 39 40
f 21 40 49
f 21 49 41
f 21 41 48
f 21 48 35
f 23 42 24
f 25 43 26
f 27 29 28
f 30 44 31
f 31 45 33
f 31 33 32
f 31 44 46
f 31 46 47
f 31 47 45
f 41 49 50
f 41 50 51
f 41 51 48
f 45 47 52
f 46 53 47
f 47 54 55
f 47 55 52
f 47 53 48
f 47 48 54
f 48 51 56
f 48 56 54
f 50 57 51
f 51 57 56
f 52 55 58
f 52 58 57
f 54 56 58
f 54 58 55
f 56 57 58

