# https://github.com/mikedh/trimesh
v -2.00854583 -0.70789823 1.73636287
v -1.98945514 -0.73417118 1.73636287
v -2.04635085 -0.70789823 1.73636287
v -2.00816954 -0.70789823 1.87007289
v -1.98628153 -0.74402939 1.73636287
v -1.98945514 -0.73416179 1.77022227
v -2.06644756 -0.75075476 1.73636287
v -2.04734054 -0.70791699 1.87007289
v -2.04667803 -0.70789823 1.87007289
v -1.98956148 -0.73420870 1.87007289
v -1.98945514 -0.73416179 1.78689680
v -1.98618342 -0.74434831 1.75356091
v -1.98618342 -0.74434831 1.73636287
v -2.06644756 -0.78481297 1.73636287
v -2.06644756 -0.74889755 1.87007289
v -1.98624887 -0.74426391 1.87007289
v -1.98947148 -0.73418057 1.80353200
v -1.98405683 -0.76100693 1.73689949
v -1.98407316 -0.76100693 1.87007289
v -1.98405683 -0.76100693 1.73636287
v -2.03454803 -0.80148098 1.73636287
v -2.03935750 -0.80240021 1.87007289
v -2.06636578 -0.78588229 1.87007289
v -2.06644756 -0.78570407 1.86617257
v -2.06644756 -0.75016383 1.87007289
v -1.98288714 -0.77766555 1.73636287
v -1.98310803 -0.77752485 1.87007289
v -1.98292803 -0.77766555 1.77022227
v -1.98290347 -0.77766555 1.75356091
v -2.03428630 -0.80152789 1.73636287
v -2.03917756 -0.80248461 1.87007289
v -1.98620798 -0.79433352 1.87007289
v -1.98614253 -0.79433352 1.73689949
v -1.98614253 -0.79433352 1.73636287
v -1.98309981 -0.77766555 1.87007289
v -2.02621326 -0.80287857 1.73636287
v -2.03090818 -0.80301927 1.87007289
v -1.99048572 -0.80308492 1.87007289
v -1.99058395 -0.80311306 1.73636287
v -2.01658614 -0.80340384 1.73636287
v -2.01637347 -0.80357267 1.87007289
v -1.99060028 -0.80316935 1.87007289
v -1.99087017 -0.80313183 1.73636287
v -2.01626714 -0.80341323 1.73636287
v -1.99973661 -0.80372276 1.87007289
v -1.99959761 -0.80365710 1.73636287
v -1.99959761 -0.80372276 1.87007289
f 1 2 5
f 1 5 13
f 1 13 20
f 1 20 26
f 1 26 34
f 1 34 39
f 1 39 43
f 1 43 46
f 1 46 44
f 1 44 40
f 1 40 36
f 1 36 30
f 1 30 21
f 1 21 14
f 1 14 7
f 1 7 3
f 1 3 9
f 1 9 4
f 1 4 2
f 2 4 6
f 2 6 5
f 3 7 8
f 3 8 9
f 4 9 8
f 4 8 15
f 4 15 25
f 4 25 23
f 4 23 22
f 4 22 31
f 4 31 37
f 4 37 41
f 4 41 45
f 4 45 47
f 4 47 42
f 4 42 38
f 4 38 32
f 4 32 35
f 4 35 27
f 4 27 19
f 4 19 16
f 4 16 10
f 4 10 11
f 4 11 6
f 5 6 11
f 5 11 12
f 5 12 13
f 7 14 24
f 7 24 25
f 7 25 15
f 7 15 8
f 10 16 17
f 10 17 11
f 11 17 16
f 11 16 12
f 12 18 20
f 12 20 13
f 12 16 19
f 12 19 18
f 14 21 22
f 14 22 23
f 14 23 24
f 18 26 20
f 18 19 26
f 19 27 28
f 19 28 29
f 19 29 26
f 21 30 31
f 21 31 22
f 23 25 24
f 26 29 32
f 26 32 33
f 26 33 34
f 27 35 28
f 28 35 32
f 28 32 29
f 30 36 31
f 31 36 37
f 32 38 33
f 33 38 34
f 34 38 39
f 36 40 37
f 37 40 41
f 38 42 39
f 39 42 43
f 40 44 41
f 41 44 46
f 41 46 45
f 42 47 43
f 43 47 46
f 45 46 47

