# https://github.com/mikedh/trimesh
v -2.08008747 -0.72143360 1.16293219
v -2.08008747 -0.69832571 1.16509436
v -2.08008747 -0.72143360 1.22406910
v -2.44511281 -0.72143360 1.16306469
v -2.44511281 -0.69832571 1.16509436
v -2.08008747 -0.69832571 1.22117216
v -2.39958737 -0.69832571 1.22166000
v -2.39958737 -0.72143360 1.22445455
v -2.44511281 -0.72143360 1.22445455
v -2.44511281 -0.69832571 1.22166000
f 1 2 6
f 1 6 3
f 1 3 8
f 1 8 9
f 1 9 4
f 1 4 5
f 1 5 2
f 2 5 10
f 2 10 7
f 2 7 6
f 3 6 7
f 3 7 8
f 4 9 10
f 4 10 5
f 7 10 9
f 7 9 8

