# https://github.com/mikedh/trimesh
v -2.61627928 -0.17767503 0.80802277
v -2.61627928 -0.16470308 0.80975951
v -2.56626698 -0.16490124 0.80981214
v -2.58293138 -0.17767503 0.80811047
v -2.53282353 -0.19433583 0.80881219
v -2.61627928 -0.19433583 0.80859290
v -2.63292455 -0.19433583 0.80857536
v -2.66625335 -0.19433583 0.80856659
v -2.71624652 -0.19433583 0.80857536
v -2.69958212 -0.17767503 0.80806660
v -2.69958212 -0.16466499 0.80979460
v -2.53282353 -0.16499270 0.80989109
v -2.63292455 -0.16462688 0.80978583
v -2.64958895 -0.15736349 0.82020639
v -2.63292455 -0.15743209 0.82020639
v -2.56626698 -0.17767503 0.80815433
v -2.53282353 -0.17780459 0.80825081
v -2.53282353 -0.19445015 0.80882097
v -2.63292455 -0.20931987 0.81032090
v -2.64958895 -0.20951040 0.81031212
v -2.53282353 -0.20861105 0.81044369
v -2.69958212 -0.20970096 0.81031212
v -2.71624652 -0.20977716 0.81032090
v -2.72801862 -0.19887067 0.80910165
v -2.72801862 -0.19433583 0.80859290
v -2.71624652 -0.17767503 0.80809292
v -2.71624652 -0.16471834 0.80983846
v -2.72801862 -0.15964237 0.81716267
v -2.72801862 -0.15751593 0.82020639
v -2.71624652 -0.15747021 0.82020639
v -2.69958212 -0.15742446 0.82020639
v -2.66625335 -0.15737875 0.82020639
v -2.64958895 -0.16460402 0.80981214
v -2.66625335 -0.16462688 0.80980338
v -2.53282353 -0.15804945 0.82012745
v -2.53282353 -0.17767503 0.80825081
v -2.72801862 -0.15506178 0.83687227
v -2.71624652 -0.15506178 0.83687227
v -2.64958895 -0.15509226 0.83687227
v -2.53282353 -0.15549621 0.83687227
v -2.53293821 -0.15799611 0.82020639
v -2.71624652 -0.21810754 0.81265411
v -2.53282353 -0.21694909 0.81359267
v -2.64958895 -0.21784841 0.81284708
v -2.72801862 -0.21207127 0.81101384
v -2.72801862 -0.20962472 0.81032966
v -2.72801862 -0.17767503 0.80815433
v -2.72801862 -0.16476406 0.80988233
v -2.72801862 -0.15576297 0.83197777
v -2.72801862 -0.15542000 0.84864366
v -2.72801862 -0.15557241 0.85352938
v -2.71624652 -0.15558004 0.85352938
v -2.64958895 -0.15564865 0.85352938
v -2.63292455 -0.15567151 0.85352938
v -2.53282353 -0.15596113 0.85340658
v -2.66625335 -0.23291630 0.83272335
v -2.69958212 -0.23291630 0.83272335
v -2.71624652 -0.23291630 0.83273211
v -2.72645154 -0.23291630 0.83274967
v -2.72801862 -0.23291630 0.83275843
v -2.72801862 -0.21795513 0.81276814
v -2.53284264 -0.23291630 0.83300403
v -2.53282353 -0.23078226 0.83237249
v -2.72801862 -0.15615928 0.86530953
v -2.72801862 -0.15642605 0.87020403
v -2.61627928 -0.15660898 0.87020403
v -2.54960258 -0.15682236 0.87020403
v -2.53282353 -0.15689860 0.87007246
v -2.72801862 -0.23291630 0.89744837
v -2.53282353 -0.23291630 0.87832645
v -2.72801862 -0.16215747 0.88686992
v -2.69958212 -0.16214987 0.88686992
v -2.59961488 -0.16224133 0.88686992
v -2.54960258 -0.16237851 0.88686992
v -2.53282353 -0.15690620 0.87020403
v -2.72801862 -0.22766503 0.89745713
v -2.55485800 -0.23291630 0.89760625
v -2.54960258 -0.22766503 0.89762379
v -2.53282353 -0.23291630 0.89760625
v -2.72801862 -0.16834621 0.89584318
v -2.71624652 -0.16829286 0.89587826
v -2.69958212 -0.16824714 0.89590458
v -2.68291775 -0.16825474 0.89591335
v -2.59961488 -0.16827760 0.89589581
v -2.58293138 -0.16829286 0.89586949
v -2.53293821 -0.16836907 0.89579932
v -2.53293821 -0.16246235 0.88686992
v -2.53282353 -0.16242423 0.88673835
v -2.72801862 -0.19433583 0.89736942
v -2.53282353 -0.22754308 0.89760625
v -2.54960258 -0.21100422 0.89752730
v -2.72801862 -0.17491600 0.89662384
v -2.72801862 -0.17767503 0.89693084
v -2.59961488 -0.17767503 0.89694839
v -2.53293821 -0.17767503 0.89681681
v -2.53282353 -0.17760643 0.89680804
v -2.53282353 -0.16833098 0.89573791
v -2.53282353 -0.16246998 0.88686992
v -2.72801862 -0.18945038 0.89725539
v -2.54960258 -0.19433583 0.89736065
v -2.53282353 -0.21087467 0.89750099
v -2.53282353 -0.19433583 0.89732556
f 1 2 3
f 1 3 4
f 1 4 5
f 1 5 6
f 1 6 7
f 1 7 8
f 1 8 9
f 1 9 10
f 1 10 11
f 1 11 2
f 2 12 3
f 2 11 13
f 2 13 14
f 2 14 15
f 2 15 12
f 3 12 16
f 3 16 4
f 4 16 5
f 5 16 17
f 5 17 36
f 5 36 12
f 5 12 35
f 5 35 40
f 5 40 55
f 5 55 68
f 5 68 75
f 5 75 88
f 5 88 98
f 5 98 97
f 5 97 96
f 5 96 102
f 5 102 101
f 5 101 90
f 5 90 79
f 5 79 70
f 5 70 63
f 5 63 43
f 5 43 21
f 5 21 18
f 5 18 6
f 6 19 20
f 6 20 7
f 6 18 21
f 6 21 19
f 7 20 22
f 7 22 8
f 8 22 23
f 8 23 9
f 9 23 24
f 9 24 25
f 9 25 10
f 10 25 26
f 10 26 11
f 11 26 27
f 11 27 28
f 11 28 29
f 11 29 30
f 11 30 31
f 11 31 32
f 11 32 33
f 11 33 34
f 11 34 13
f 12 36 16
f 12 15 35
f 13 34 33
f 13 33 14
f 14 33 32
f 14 32 37
f 14 37 38
f 14 38 39
f 14 39 40
f 14 40 15
f 15 40 41
f 15 41 35
f 16 36 17
f 19 21 20
f 20 42 22
f 20 21 42
f 21 43 44
f 21 44 42
f 22 42 23
f 23 42 45
f 23 45 46
f 23 46 24
f 24 46 45
f 24 45 61
f 24 61 60
f 24 60 69
f 24 69 76
f 24 76 89
f 24 89 99
f 24 99 93
f 24 93 92
f 24 92 80
f 24 80 71
f 24 71 65
f 24 65 64
f 24 64 51
f 24 51 50
f 24 50 37
f 24 37 49
f 24 49 29
f 24 29 28
f 24 28 48
f 24 48 47
f 24 47 25
f 25 47 26
f 26 47 48
f 26 48 27
f 27 48 28
f 29 49 30
f 30 49 31
f 31 49 32
f 32 49 37
f 35 41 40
f 37 50 38
f 38 50 39
f 39 50 51
f 39 51 52
f 39 52 53
f 39 53 54
f 39 54 55
f 39 55 40
f 42 56 57
f 42 57 58
f 42 58 59
f 42 59 60
f 42 60 61
f 42 61 45
f 42 44 62
f 42 62 56
f 43 63 62
f 43 62 44
f 51 64 52
f 52 64 53
f 53 64 54
f 54 64 65
f 54 65 66
f 54 66 55
f 55 66 67
f 55 67 68
f 56 62 70
f 56 70 79
f 56 79 77
f 56 77 69
f 56 69 60
f 56 60 59
f 56 59 58
f 56 58 57
f 62 63 70
f 65 71 72
f 65 72 73
f 65 73 66
f 66 73 74
f 66 74 67
f 67 74 75
f 67 75 68
f 69 77 78
f 69 78 76
f 71 80 81
f 71 81 82
f 71 82 72
f 72 82 83
f 72 83 84
f 72 84 73
f 73 84 85
f 73 85 86
f 73 86 74
f 74 86 87
f 74 87 75
f 75 87 88
f 76 78 89
f 77 79 78
f 78 79 90
f 78 90 91
f 78 91 89
f 80 92 81
f 81 92 82
f 82 92 93
f 82 93 83
f 83 93 94
f 83 94 84
f 84 94 86
f 84 86 85
f 86 95 96
f 86 96 97
f 86 97 87
f 86 94 95
f 87 97 98
f 87 98 88
f 89 91 100
f 89 100 99
f 90 101 91
f 91 101 100
f 93 99 94
f 94 100 95
f 94 99 100
f 95 100 102
f 95 102 96
f 100 101 102

