# https://github.com/mikedh/trimesh
v -2.09834664 2.02047844 0.19298126
v -2.08935768 2.02741699 0.20884997
v -2.09014757 2.03966262 0.20884997
v -2.09834664 2.02309838 0.19277198
v -2.09834664 2.00523858 0.18940988
v -2.08595806 2.01908690 0.20884997
v -2.09834664 1.99492192 0.18532820
v -2.08922772 2.05427869 0.20884997
v -2.09834664 2.03635169 0.18992005
v -2.05933119 1.99323288 0.20884997
v -2.09834664 1.97280110 0.16464531
v -2.08778786 2.06253202 0.20884997
v -2.09834664 2.03737857 0.18969765
v -2.05920123 1.99317528 0.20884997
v -2.05849132 1.97280110 0.18630936
v -2.09834664 1.97280110 0.11804658
v -2.08768790 2.06267596 0.20884997
v -2.08777790 2.06261838 0.20866681
v -2.09834664 2.04078545 0.17545118
v -2.04675271 1.98766667 0.20884997
v -2.04687265 1.97280110 0.18916129
v -2.09834664 1.99492192 0.09855413
v -2.07450943 1.97280110 0.09824017
v -2.07942883 2.06767596 0.20884997
v -2.07943885 2.06767596 0.20866681
v -2.08786784 2.06304066 0.19198704
v -2.09834664 2.04191790 0.15864056
v -2.09834664 2.04081424 0.17530727
v -2.04658274 1.98765709 0.20884997
v -2.04675271 1.97280110 0.18917435
v -2.09834664 2.00632303 0.09464255
v -2.08455822 2.02421162 0.07520246
v -2.07984882 2.01813680 0.07520246
v -2.07535932 2.01236907 0.07520246
v -2.05864132 1.99401021 0.07520246
v -2.04675271 1.98891428 0.07520246
v -2.06342074 1.97280110 0.09461643
v -2.06359071 2.07062218 0.20884997
v -2.07952884 2.06763755 0.19198704
v -2.06342074 2.07063179 0.07520246
v -2.08772786 2.06303106 0.17530727
v -2.09834664 2.04188911 0.12529414
v -2.09834664 2.04201385 0.14197391
v -2.03008463 1.98707166 0.20884997
v -2.03531404 1.97280110 0.18646634
v -2.01340659 1.98837685 0.20884997
v -2.02990470 1.98708126 0.20884997
v -2.09834664 2.02395252 0.09116272
v -2.08840783 2.03966262 0.07520246
v -2.03008463 1.98791620 0.07520246
v -2.04675271 1.97280110 0.09307273
v -2.06342074 2.07065099 0.20884997
v -2.06342074 2.07065099 0.20866681
v -2.07814898 2.06760878 0.07520246
v -2.04675271 2.07076616 0.07520246
v -2.08708797 2.06186025 0.12529414
v -2.09834664 2.04107335 0.10920303
v -2.03012465 1.97280110 0.17530727
v -2.00142799 1.99373191 0.20884997
v -2.01327663 1.98843444 0.20884997
v -2.09834664 2.03743615 0.09415856
v -2.08828783 2.04249371 0.07520246
v -2.01340659 1.98869355 0.07520246
v -2.04664268 1.97280110 0.09309885
v -2.03025461 2.07077572 0.20884997
v -2.03008463 2.07083330 0.09194766
v -2.04675271 2.07076616 0.07526789
v -2.08679799 2.05494086 0.07520246
v -2.08673799 2.05860687 0.09194766
v -2.08696797 2.06100612 0.10861431
v -2.03008463 2.07083330 0.07520246
v -2.09834664 2.04102538 0.10861431
v -2.02773494 1.97280110 0.15879753
v -1.99743846 2.00632303 0.20884997
v -2.02771490 1.97280110 0.15864056
v -2.00116807 1.99360716 0.12529414
v -2.00120803 1.99364554 0.14197391
v -1.99689853 2.00632303 0.10861431
v -1.99697851 2.00632303 0.12529414
v -1.99706851 2.00632303 0.14197391
v -2.00106805 1.99370312 0.07520246
v -2.00107807 1.99366474 0.07526789
v -2.03448414 1.97280110 0.09669648
v -2.03008463 2.07077572 0.20884997
v -2.01340659 2.07047824 0.09194766
v -2.01340659 2.07045902 0.07520246
v -1.99701853 2.02299283 0.20884997
v -2.02770494 1.97280110 0.14211776
v -2.00112805 1.99360716 0.10861431
v -1.99677859 2.00632303 0.07526789
v -1.99650859 2.02299283 0.10861431
v -1.99636861 2.02299283 0.07526789
v -1.99658857 2.02299283 0.12529414
v -1.99677859 2.00638062 0.07520246
v -2.00109805 1.99363592 0.09194766
v -2.02770494 1.97280110 0.14197391
v -2.02806488 1.97280110 0.12529414
v -2.02932474 1.97280110 0.10861431
v -2.03443416 1.97280110 0.09680115
v -2.01340659 2.07030549 0.20884997
v -2.01340659 2.07046864 0.10861431
v -2.00187798 2.06737844 0.09194766
v -2.00184798 2.06737844 0.07526789
v -2.00184798 2.06737844 0.07520246
v -1.99689853 2.03948989 0.20884997
v -1.99637863 2.03966262 0.10861431
v -1.99620866 2.03966262 0.07526789
v -1.99636861 2.02305041 0.07520246
v -2.00216790 2.06723450 0.20884997
v -2.00191794 2.06736883 0.10861431
v -1.99738848 2.05634202 0.07526789
v -1.99740846 2.05638040 0.07520246
v -1.99689853 2.03966262 0.20884997
v -1.99804841 2.05634202 0.20884997
v -1.99621862 2.03972021 0.07520246
v -1.99746846 2.05634202 0.09194766
v -2.00211792 2.06711933 0.20884997
f 1 2 3
f 1 3 4
f 1 4 9
f 1 9 13
f 1 13 19
f 1 19 28
f 1 28 27
f 1 27 43
f 1 43 42
f 1 42 57
f 1 57 72
f 1 72 61
f 1 61 48
f 1 48 31
f 1 31 22
f 1 22 16
f 1 16 11
f 1 11 7
f 1 7 5
f 1 5 2
f 2 6 10
f 2 10 14
f 2 14 20
f 2 20 29
f 2 29 44
f 2 44 47
f 2 47 46
f 2 46 60
f 2 60 59
f 2 59 74
f 2 74 87
f 2 87 105
f 2 105 113
f 2 113 114
f 2 114 117
f 2 117 109
f 2 109 100
f 2 100 84
f 2 84 65
f 2 65 52
f 2 52 38
f 2 38 24
f 2 24 17
f 2 17 12
f 2 12 8
f 2 8 3
f 2 5 7
f 2 7 6
f 3 8 4
f 4 8 9
f 6 7 10
f 7 11 10
f 8 12 13
f 8 13 9
f 10 11 15
f 10 15 14
f 11 16 23
f 11 23 37
f 11 37 51
f 11 51 64
f 11 64 83
f 11 83 99
f 11 99 98
f 11 98 97
f 11 97 96
f 11 96 88
f 11 88 75
f 11 75 73
f 11 73 58
f 11 58 45
f 11 45 30
f 11 30 21
f 11 21 15
f 12 17 18
f 12 18 13
f 13 18 19
f 14 15 20
f 15 21 20
f 16 22 23
f 17 24 25
f 17 25 26
f 17 26 18
f 18 26 27
f 18 27 28
f 18 28 19
f 20 21 30
f 20 30 29
f 22 31 32
f 22 32 33
f 22 33 34
f 22 34 35
f 22 35 23
f 23 35 36
f 23 36 37
f 24 38 25
f 25 39 26
f 25 38 40
f 25 40 39
f 26 39 41
f 26 41 42
f 26 42 43
f 26 43 27
f 29 30 44
f 30 45 46
f 30 46 47
f 30 47 44
f 31 48 49
f 31 49 32
f 32 49 62
f 32 62 68
f 32 68 54
f 32 54 40
f 32 40 55
f 32 55 71
f 32 71 86
f 32 86 104
f 32 104 112
f 32 112 115
f 32 115 108
f 32 108 94
f 32 94 81
f 32 81 63
f 32 63 50
f 32 50 36
f 32 36 35
f 32 35 34
f 32 34 33
f 36 50 51
f 36 51 37
f 38 52 53
f 38 53 40
f 39 40 54
f 39 54 41
f 40 53 55
f 41 54 56
f 41 56 42
f 42 56 57
f 45 58 59
f 45 59 60
f 45 60 46
f 48 61 62
f 48 62 49
f 50 63 51
f 51 63 64
f 52 65 66
f 52 66 67
f 52 67 55
f 52 55 53
f 54 68 69
f 54 69 70
f 54 70 56
f 55 67 66
f 55 66 71
f 56 70 57
f 57 70 72
f 58 73 59
f 59 73 75
f 59 75 76
f 59 76 77
f 59 77 78
f 59 78 79
f 59 79 80
f 59 80 74
f 61 68 62
f 61 72 68
f 63 81 82
f 63 82 83
f 63 83 64
f 65 84 66
f 66 85 71
f 66 84 85
f 68 72 69
f 69 72 70
f 71 85 86
f 74 80 87
f 75 88 89
f 75 89 76
f 76 89 90
f 76 90 77
f 77 90 78
f 78 91 93
f 78 93 79
f 78 90 92
f 78 92 91
f 79 93 87
f 79 87 80
f 81 94 90
f 81 90 82
f 82 90 95
f 82 95 96
f 82 96 97
f 82 97 98
f 82 98 99
f 82 99 83
f 84 100 101
f 84 101 85
f 85 102 103
f 85 103 104
f 85 104 86
f 85 101 102
f 87 93 106
f 87 106 105
f 88 96 89
f 89 96 95
f 89 95 90
f 90 94 108
f 90 108 92
f 91 92 107
f 91 107 93
f 92 108 107
f 93 107 106
f 100 109 110
f 100 110 101
f 101 110 102
f 102 111 103
f 102 110 111
f 103 111 104
f 104 111 112
f 105 106 113
f 106 107 114
f 106 114 113
f 107 108 115
f 107 115 111
f 107 111 116
f 107 116 114
f 109 117 110
f 110 117 111
f 111 115 112
f 111 117 116
f 114 116 117

