# https://github.com/mikedh/trimesh
v -0.20930037 1.62617589 1.99309747
v -0.21269611 1.62617589 2.00977641
v -0.20931660 1.62617589 1.98970543
v -0.20992440 1.97277530 1.97643416
v -0.21013510 1.97277530 1.99309747
v -0.21332014 1.97277530 2.00977641
v -0.21763972 1.62617589 2.01885054
v -0.21769644 1.97277530 2.01892867
v -0.20964886 1.62617589 1.97304212
v -0.21058898 1.97277530 1.95991161
v -0.21015133 1.62617589 1.95975529
v -0.22752700 1.62617589 2.02037461
v -0.22753511 1.97277530 2.02062475
v -0.21059709 1.97277530 1.95975529
v -0.21084019 1.62617589 1.95730110
v -0.24420576 1.62617589 2.02114065
v -0.22768100 1.97277530 2.02063262
v -0.24420576 1.97277530 2.02145317
v -0.24436780 1.97277530 2.02146104
v -0.21518411 1.97277530 1.94716399
v -0.21481135 1.62617589 1.94668721
v -0.29208611 1.72281923 2.02113277
v -0.29208611 1.62617589 2.02103902
v -0.29209423 1.97277530 2.02128128
v -0.22753511 1.97277530 1.94228694
v -0.21716158 1.62617589 1.94573373
v -0.29209423 1.79760923 2.02113277
v -0.29208611 1.62617589 1.96544519
v -0.29209423 1.97277530 1.96369442
v -0.24420576 1.92289267 1.94177891
v -0.24420576 1.93958806 1.94185704
v -0.24420576 1.97277530 1.94212280
v -0.22752700 1.62617589 1.94173203
v -0.23093085 1.62617589 1.94161478
v -0.29209423 1.79760923 1.96597665
v -0.26930486 1.67697472 1.95130638
v -0.26868894 1.62617589 1.95174408
v -0.29209423 1.80629627 1.96581252
v -0.25902854 1.97277530 1.94699985
v -0.25969312 1.95624955 1.94688266
v -0.26240804 1.92340167 1.94745319
v -0.26087634 1.90623119 1.94632770
v -0.26949124 1.91817587 1.95106411
v -0.26950746 1.90623119 1.95104849
v -0.26932108 1.68949628 1.95129075
v -0.24420576 1.90623119 1.94177110
v -0.24420576 1.62617589 1.94225568
v -0.24420576 1.72281923 1.94186491
v -0.24420576 1.73948070 1.94181016
v -0.24420576 1.82285594 1.94175547
v -0.24420576 1.83955135 1.94174766
v -0.26087634 1.68949628 1.94671853
v -0.26251344 1.67195252 1.94772676
v -0.26034953 1.62617589 1.94720305
v -0.26087634 1.85621284 1.94641370
v -0.24745555 1.62617589 1.94320136
f 1 2 7
f 1 7 12
f 1 12 16
f 1 16 23
f 1 23 28
f 1 28 37
f 1 37 54
f 1 54 56
f 1 56 47
f 1 47 34
f 1 34 33
f 1 33 26
f 1 26 21
f 1 21 15
f 1 15 11
f 1 11 9
f 1 9 3
f 1 3 4
f 1 4 5
f 1 5 6
f 1 6 2
f 2 6 8
f 2 8 7
f 3 9 4
f 4 10 14
f 4 14 20
f 4 20 25
f 4 25 32
f 4 32 39
f 4 39 29
f 4 29 24
f 4 24 19
f 4 19 18
f 4 18 17
f 4 17 13
f 4 13 8
f 4 8 6
f 4 6 5
f 4 9 11
f 4 11 10
f 7 8 13
f 7 13 12
f 10 11 14
f 11 15 14
f 12 13 17
f 12 17 18
f 12 18 19
f 12 19 16
f 14 15 20
f 15 21 20
f 16 22 23
f 16 19 22
f 19 24 22
f 20 21 26
f 20 26 25
f 22 27 23
f 22 24 27
f 23 27 35
f 23 35 28
f 24 29 38
f 24 38 35
f 24 35 27
f 25 30 31
f 25 31 32
f 25 26 33
f 25 33 34
f 25 34 30
f 28 36 37
f 28 35 38
f 28 38 29
f 28 29 36
f 29 39 40
f 29 40 41
f 29 41 42
f 29 42 43
f 29 43 44
f 29 44 45
f 29 45 36
f 30 34 46
f 30 46 42
f 30 42 31
f 31 42 32
f 32 42 40
f 32 40 39
f 34 47 48
f 34 48 49
f 34 49 50
f 34 50 51
f 34 51 46
f 36 45 52
f 36 52 53
f 36 53 54
f 36 54 37
f 40 42 41
f 42 46 51
f 42 51 50
f 42 50 49
f 42 49 55
f 42 55 45
f 42 45 44
f 42 44 43
f 45 55 52
f 47 56 52
f 47 52 48
f 48 52 49
f 49 52 55
f 52 56 54
f 52 54 53

