# https://github.com/mikedh/trimesh
v -3.96627066 -0.15027960 0.91713237
v -3.94960942 -0.15059580 0.91713237
v -3.97594958 -0.15117957 0.91713237
v -3.96627066 -0.15028770 0.92021205
v -3.94960942 -0.15059580 0.93687632
v -3.93294824 -0.15134984 0.92021205
v -3.93273223 -0.15143093 0.91713237
v -3.93294824 -0.15130931 0.93687632
v -3.97815854 -0.15139040 0.91713237
v -3.97805405 -0.15143093 0.93687632
v -3.96627066 -0.15033634 0.93687632
v -3.94960942 -0.15064444 0.95354059
v -3.93294824 -0.15147957 1.01364157
v -3.93294824 -0.15145525 1.00353342
v -3.92417514 -0.15232280 0.92021205
v -3.93077414 -0.15162551 0.91713237
v -3.92413336 -0.15229848 0.93687632
v -3.92414730 -0.15231469 1.01364157
v -3.97962191 -0.15316603 0.91713237
v -3.98580278 -0.16100652 0.95354059
v -3.98565645 -0.16100652 0.97020487
v -3.97793556 -0.15147957 0.95354059
v -3.98608149 -0.16100652 0.91713237
v -3.97737116 -0.15165797 1.01364157
v -3.96627066 -0.15041740 0.95354059
v -3.94960942 -0.15091201 1.01364157
v -3.94960942 -0.15071743 0.97020487
v -3.92050287 -0.16090922 0.91713237
v -3.92421698 -0.15235523 0.91713237
v -3.92207769 -0.15758492 1.01364157
v -3.98982350 -0.17767664 0.98686915
v -3.98955170 -0.17767664 1.01364157
v -3.98544741 -0.16100652 0.98686915
v -3.97763593 -0.15158498 0.98686915
v -3.97778923 -0.15153634 0.97020487
v -3.99006037 -0.17767664 0.91713237
v -3.98992799 -0.17767664 0.97020487
v -3.98040929 -0.15534710 1.01364157
v -3.97296718 -0.15129309 1.01364157
v -3.96627066 -0.15074175 1.01364157
v -3.95970653 -0.15080660 1.01364157
v -3.91887922 -0.17767664 0.91713237
v -3.92075374 -0.16100652 1.01364157
v -3.98910574 -0.19433866 0.97020487
v -3.98899428 -0.19433866 0.98686915
v -3.98884795 -0.19433866 1.00353342
v -3.98923812 -0.18424414 1.01364157
v -3.98502928 -0.16100652 1.01364157
v -3.98912666 -0.19433866 0.91713237
v -3.98917542 -0.19433866 0.93687632
v -3.98916147 -0.19433866 0.95354059
v -3.92786833 -0.23310319 0.91713237
v -3.92009868 -0.17110914 1.01364157
v -3.91971542 -0.17767664 1.01364157
v -3.92796590 -0.23310319 1.01364157
v -3.98318272 -0.21100067 0.97020487
v -3.98873643 -0.19433866 1.01364157
v -3.98241620 -0.21100067 0.91713237
v -3.98293184 -0.21100067 0.93687632
v -3.98319661 -0.21100067 0.95354059
v -3.97018683 -0.23310319 0.91713237
v -3.97002656 -0.23310319 1.01364157
v -3.98293881 -0.21100067 0.98686915
v -3.97034711 -0.23310319 0.96605769
v -3.97034014 -0.23310319 0.97020487
v -3.97029132 -0.23310319 0.98686915
v -3.97013104 -0.23310319 1.00353342
v -3.97006137 -0.23310319 1.01056189
v -3.98613722 -0.20089805 1.01364157
v -3.97027743 -0.23310319 0.93247408
v -3.97034711 -0.23310319 0.94938397
v -3.98187266 -0.21100067 1.01364157
f 1 2 7
f 1 7 16
f 1 16 29
f 1 29 28
f 1 28 42
f 1 42 52
f 1 52 61
f 1 61 58
f 1 58 49
f 1 49 36
f 1 36 23
f 1 23 19
f 1 19 9
f 1 9 3
f 1 3 4
f 1 4 5
f 1 5 2
f 2 6 7
f 2 5 8
f 2 8 6
f 3 9 10
f 3 10 4
f 4 10 11
f 4 11 12
f 4 12 5
f 5 12 13
f 5 13 14
f 5 14 8
f 6 15 16
f 6 16 7
f 6 8 15
f 8 17 15
f 8 14 18
f 8 18 17
f 9 19 10
f 10 20 21
f 10 21 22
f 10 22 11
f 10 19 23
f 10 23 20
f 11 22 24
f 11 24 25
f 11 25 26
f 11 26 27
f 11 27 12
f 12 27 13
f 13 26 41
f 13 41 40
f 13 40 39
f 13 39 24
f 13 24 38
f 13 38 48
f 13 48 32
f 13 32 47
f 13 47 57
f 13 57 69
f 13 69 72
f 13 72 62
f 13 62 55
f 13 55 54
f 13 54 53
f 13 53 43
f 13 43 30
f 13 30 18
f 13 18 14
f 13 27 26
f 15 28 29
f 15 29 16
f 15 17 28
f 17 18 28
f 18 30 28
f 20 23 31
f 20 31 21
f 21 31 32
f 21 32 33
f 21 33 24
f 21 24 34
f 21 34 35
f 21 35 22
f 22 35 34
f 22 34 24
f 23 36 37
f 23 37 31
f 24 33 38
f 24 39 25
f 25 39 40
f 25 40 41
f 25 41 26
f 28 30 43
f 28 43 42
f 31 37 44
f 31 44 45
f 31 45 46
f 31 46 47
f 31 47 32
f 32 48 33
f 33 48 38
f 36 49 50
f 36 50 51
f 36 51 37
f 37 51 44
f 42 43 53
f 42 53 54
f 42 54 55
f 42 55 52
f 44 56 45
f 44 51 56
f 45 56 46
f 46 57 47
f 46 56 57
f 49 58 59
f 49 59 60
f 49 60 50
f 50 60 56
f 50 56 51
f 52 55 62
f 52 62 68
f 52 68 67
f 52 67 66
f 52 66 65
f 52 65 64
f 52 64 71
f 52 71 70
f 52 70 61
f 56 63 57
f 56 60 64
f 56 64 65
f 56 65 66
f 56 66 67
f 56 67 68
f 56 68 62
f 56 62 63
f 57 63 69
f 58 61 59
f 59 61 60
f 60 61 70
f 60 70 71
f 60 71 64
f 62 72 63
f 63 72 69

