# https://github.com/mikedh/trimesh
v -2.10689694 1.93959367 0.95204251
v -2.08009466 1.82286655 0.95189036
v -2.09677604 1.93959367 0.95198646
v -2.10689694 1.93959367 0.90205213
v -2.10807861 1.79820042 0.95200248
v -2.10807861 1.79489866 0.95201048
v -2.09677604 1.78951594 0.95197044
v -2.08808243 1.79820042 0.95193040
v -2.06343630 1.83954185 0.95178628
v -2.08009466 1.83954185 0.95189036
v -2.08009466 1.79820042 0.95188236
v -2.06343630 1.93959367 0.95172221
v -2.06343630 1.85621715 0.95177826
v -2.08861186 1.93959367 0.88386725
v -2.08939453 1.73949003 0.88254603
v -2.10807861 1.65614127 0.90137150
v -2.10807861 1.79820042 0.90258863
v -2.10807861 1.77822335 0.95199447
v -2.10807861 1.72819745 0.95193841
v -2.09677604 1.75616533 0.95193040
v -2.06343630 1.65614127 0.95165014
v -2.08009466 1.78951594 0.95187435
v -2.04790588 1.83954185 0.95125778
v -2.04789825 1.85621715 0.95125778
v -2.04785990 1.93959367 0.95124176
v -2.06343630 1.73949003 0.95172221
v -2.04805170 1.65614127 0.95122575
v -2.04776781 1.70613944 0.95124176
v -2.08260377 1.93959367 0.87878255
v -2.08944058 1.72284247 0.88248198
v -2.08948656 1.70613944 0.88242592
v -2.08952497 1.68946412 0.88236987
v -2.08948656 1.67278883 0.88244193
v -2.08949425 1.65614127 0.88262610
v -2.10807861 1.65614127 0.95180229
v -2.10807861 1.72284247 0.95193040
v -2.10807861 1.70613944 0.95189837
v -2.03942709 1.70613944 0.95066523
v -2.03944242 1.92291837 0.95066523
v -2.03951918 1.93959367 0.95064121
v -2.03971098 1.65614127 0.95063320
v -2.03950385 1.68946412 0.95065722
v -2.06369723 1.93959367 0.87079914
v -2.08009466 1.88956776 0.87715704
v -2.08009466 1.87289246 0.87702891
v -2.08009466 1.73949003 0.87606803
v -2.08009466 1.67278883 0.87600396
v -2.08009466 1.72284247 0.87600396
v -2.08009466 1.70613944 0.87595592
v -2.08009466 1.68946412 0.87591589
v -2.08009466 1.65614127 0.87622016
v -2.03432448 1.65614127 0.94228946
v -2.03432448 1.88956776 0.94228946
v -2.03434750 1.90624306 0.94228946
v -2.03440887 1.92291837 0.94232949
v -2.03446260 1.93959367 0.94230547
v -2.06341328 1.93959367 0.87068703
v -2.06343630 1.92291837 0.87055892
v -2.06343630 1.90624306 0.87044681
v -2.06343630 1.67278883 0.87084718
v -2.06343630 1.65614127 0.87094326
v -2.06343630 1.88956776 0.87038275
v -2.06343630 1.83954185 0.87025463
v -2.06343630 1.82286655 0.87023861
v -2.06343630 1.70613944 0.87068703
v -2.06343630 1.68946412 0.87075909
v -2.03017332 1.65614127 0.92577814
v -2.03018865 1.88956776 0.92577814
v -2.03022700 1.90624306 0.92577814
v -2.03047254 1.93959367 0.92577814
v -2.04674729 1.93959367 0.87100733
v -2.04676261 1.92291837 0.87075909
v -2.04676261 1.90624306 0.87058294
v -2.04676261 1.88956776 0.87049485
v -2.04676261 1.72284247 0.87066301
v -2.04676261 1.65614127 0.87123954
v -2.04676261 1.70613944 0.87076711
v -2.04676261 1.68946412 0.87091123
v -2.04676261 1.67278883 0.87107138
v -2.04676261 1.87289246 0.87045481
v -2.04676261 1.82286655 0.87037474
v -2.04676261 1.80619124 0.87038275
v -2.02985102 1.65614127 0.89243521
v -2.02969756 1.85621715 0.89243521
v -2.02969756 1.87289246 0.89243521
v -2.02972058 1.88956776 0.89243521
v -2.02978965 1.90624306 0.89243521
v -2.02988943 1.92291837 0.89243521
v -2.03002750 1.93959367 0.89243521
v -2.03412498 1.93959367 0.87790973
v -2.03400987 1.90624306 0.87767751
v -2.03405591 1.92291837 0.87777361
v -2.03397152 1.88956776 0.87764548
v -2.03407124 1.72284247 0.87765349
v -2.03409426 1.70613944 0.87770954
v -2.03406360 1.65614127 0.87798981
v -2.03399454 1.80619124 0.87758944
v -2.03395613 1.87289246 0.87762947
v -2.03404822 1.73949003 0.87763748
v -2.03399454 1.78951594 0.87762947
v -2.03399454 1.79820042 0.87760545
v -2.03394850 1.85621715 0.87762947
f 1 2 3
f 1 3 12
f 1 12 25
f 1 25 40
f 1 40 56
f 1 56 70
f 1 70 89
f 1 89 90
f 1 90 71
f 1 71 57
f 1 57 43
f 1 43 29
f 1 29 14
f 1 14 4
f 1 4 17
f 1 17 5
f 1 5 6
f 1 6 7
f 1 7 8
f 1 8 2
f 2 9 10
f 2 10 3
f 2 8 11
f 2 11 9
f 3 10 9
f 3 9 13
f 3 13 12
f 4 14 15
f 4 15 16
f 4 16 17
f 5 17 16
f 5 16 35
f 5 35 37
f 5 37 36
f 5 36 19
f 5 19 18
f 5 18 6
f 6 18 7
f 7 18 19
f 7 19 20
f 7 20 21
f 7 21 8
f 8 21 22
f 8 22 11
f 9 23 24
f 9 24 25
f 9 25 13
f 9 11 26
f 9 26 27
f 9 27 28
f 9 28 23
f 11 22 21
f 11 21 26
f 12 13 25
f 14 29 15
f 15 30 16
f 15 29 30
f 16 30 31
f 16 31 32
f 16 32 33
f 16 33 34
f 16 34 51
f 16 51 61
f 16 61 76
f 16 76 96
f 16 96 83
f 16 83 67
f 16 67 52
f 16 52 41
f 16 41 27
f 16 27 21
f 16 21 35
f 19 36 21
f 19 21 20
f 21 27 26
f 21 36 37
f 21 37 35
f 23 28 38
f 23 38 24
f 24 38 39
f 24 39 25
f 25 39 40
f 27 41 42
f 27 42 38
f 27 38 28
f 29 43 44
f 29 44 45
f 29 45 46
f 29 46 32
f 29 32 31
f 29 31 30
f 32 47 33
f 32 46 48
f 32 48 49
f 32 49 50
f 32 50 47
f 33 47 34
f 34 47 51
f 38 42 52
f 38 52 53
f 38 53 39
f 39 53 54
f 39 54 55
f 39 55 56
f 39 56 40
f 41 52 42
f 43 57 58
f 43 58 44
f 44 58 45
f 45 58 46
f 46 58 59
f 46 59 48
f 47 50 66
f 47 66 60
f 47 60 61
f 47 61 51
f 48 59 62
f 48 62 49
f 49 62 63
f 49 63 50
f 50 63 64
f 50 64 65
f 50 65 66
f 52 67 53
f 53 68 54
f 53 67 68
f 54 69 55
f 54 68 69
f 55 69 56
f 56 69 70
f 57 71 72
f 57 72 73
f 57 73 58
f 58 73 59
f 59 73 74
f 59 74 62
f 60 66 75
f 60 75 61
f 61 75 77
f 61 77 78
f 61 78 79
f 61 79 76
f 62 74 63
f 63 74 80
f 63 80 81
f 63 81 64
f 64 81 82
f 64 82 75
f 64 75 65
f 65 75 66
f 67 83 84
f 67 84 85
f 67 85 68
f 68 85 86
f 68 86 69
f 69 87 88
f 69 88 70
f 69 86 87
f 70 88 89
f 71 90 72
f 72 90 73
f 73 91 74
f 73 90 92
f 73 92 91
f 74 91 93
f 74 93 80
f 75 94 95
f 75 95 96
f 75 96 77
f 75 82 94
f 76 79 96
f 77 96 78
f 78 96 79
f 80 93 81
f 81 97 82
f 81 93 98
f 81 98 97
f 82 97 99
f 82 99 94
f 83 96 99
f 83 99 100
f 83 100 101
f 83 101 84
f 84 101 102
f 84 102 85
f 85 98 93
f 85 93 86
f 85 102 98
f 86 93 91
f 86 91 87
f 87 91 92
f 87 92 88
f 88 92 90
f 88 90 89
f 94 96 95
f 94 99 96
f 97 98 102
f 97 102 101
f 97 101 99
f 99 101 100

