# https://github.com/mikedh/trimesh
v -3.81272212 2.02299653 0.24203762
v -3.81256467 2.03966575 0.24203762
v -3.81254719 2.03966575 0.20883559
v -3.81268717 2.02316473 0.20883559
v -3.81270464 2.02299653 0.22536322
v -3.81266964 2.00631887 0.20883559
v -3.81269588 2.00631887 0.24203762
v -3.81269588 2.00631887 0.25871203
v -3.81266964 2.02299653 0.35875839
v -3.81266964 2.02302175 0.35878773
v -3.81253842 2.03969098 0.35878773
v -3.81173356 2.05634339 0.24203762
v -3.81175110 2.05636024 0.35878773
v -3.81168108 2.05634339 0.20883559
v -3.81268717 2.02299653 0.20883559
v -3.80939777 1.99403981 0.20883559
v -3.80937153 1.99391365 0.24203762
v -3.80937153 1.99392206 0.25871203
v -3.80932781 1.99387161 0.35878773
v -3.81262592 2.00631887 0.34208398
v -3.81260844 2.00631887 0.35875839
v -3.81260844 2.00634410 0.35878773
v -3.80857544 2.06723476 0.25871203
v -3.80856667 2.06723476 0.24203762
v -3.80859291 2.06726840 0.35875839
v -3.80859291 2.06726840 0.35878773
v -3.80851419 2.06718431 0.20883559
v -3.80936276 1.99392206 0.20883559
v -3.80924909 1.99386320 0.20883559
v -3.79782378 1.98820306 0.35875839
v -3.80931905 1.99385479 0.35875839
v -3.79780624 1.98820306 0.35878773
v -3.79782378 2.07111193 0.24203762
v -3.80853172 2.06721795 0.22536322
v -3.79782378 2.07117079 0.35875839
v -3.79782378 2.07117079 0.35878773
v -3.79792874 2.07098576 0.20883559
v -3.79782378 2.07106985 0.22536322
v -3.79782378 1.98860675 0.20883559
v -3.79782378 1.98844696 0.22536322
v -3.78111448 1.98647054 0.35878773
v -3.78114949 2.07233141 0.25871203
v -3.78114949 2.07231460 0.24203762
v -3.78114949 2.07239028 0.35878773
v -3.79782378 2.07101939 0.20883559
v -3.78114949 2.07227255 0.22536322
v -3.78114949 2.07223050 0.20883559
v -3.79766626 1.98858994 0.20883559
v -3.78114949 1.98689105 0.22536322
v -3.76445767 1.98727793 0.35878773
v -3.76447515 1.98743772 0.22536322
v -3.76447515 2.07214638 0.24203762
v -3.76447515 2.07223891 0.35875839
v -3.76447515 2.07223891 0.35878773
v -3.76464137 2.07204546 0.20883559
v -3.74780086 2.07191088 0.22536322
v -3.78114949 1.98727793 0.20883559
v -3.78098327 1.98727793 0.20883559
v -3.76447515 1.98763116 0.20883559
v -3.75145765 1.99313150 0.35878773
v -3.75148390 1.99302217 0.20883559
v -3.76435270 1.98768161 0.20883559
v -3.74780086 2.07194452 0.24203762
v -3.74780086 2.07197819 0.29204610
v -3.74780086 2.07196134 0.35878773
v -3.74780086 2.07185202 0.20883559
v -3.73309492 2.06820194 0.20883559
v -3.73424099 2.01110434 0.34208398
v -3.73467840 2.01080998 0.35878773
v -3.73384730 2.01091931 0.20883559
v -3.73312993 2.06822717 0.22536322
v -3.73333116 2.06826924 0.29204610
v -3.73319995 2.06824399 0.24203762
v -3.73350615 2.06821035 0.35878773
v -3.73347991 2.06821035 0.35875839
v -3.73336617 2.06821035 0.34208398
v -3.73333993 2.06825239 0.30872050
v -3.73301620 2.06808421 0.20883559
v -3.72623629 2.02299653 0.30872050
v -3.72635003 2.02299653 0.32540958
v -3.72652495 2.02299653 0.34208398
v -3.72584260 2.02299653 0.22536322
v -3.72684863 2.02299653 0.35878773
v -3.72512523 2.02435899 0.20883559
v -3.72530022 2.05634339 0.27538637
v -3.72527398 2.05634339 0.25871203
v -3.72569385 2.05634339 0.35878773
v -3.72551016 2.05634339 0.34208398
v -3.72544890 2.05634339 0.32540958
v -3.72538765 2.05634339 0.30872050
v -3.72529145 2.05634339 0.20883559
v -3.72383924 2.03966575 0.35878773
v -3.72335806 2.03861447 0.20883559
v -3.72361177 2.03966575 0.30872050
v -3.72356806 2.03966575 0.29204610
v -3.72353305 2.03966575 0.27538637
v -3.72527398 2.05618361 0.20883559
f 1 2 3
f 1 3 4
f 1 4 5
f 1 5 6
f 1 6 7
f 1 7 8
f 1 8 9
f 1 9 10
f 1 10 11
f 1 11 2
f 2 12 3
f 2 11 13
f 2 13 12
f 3 14 27
f 3 27 37
f 3 37 45
f 3 45 47
f 3 47 55
f 3 55 66
f 3 66 67
f 3 67 78
f 3 78 91
f 3 91 97
f 3 97 93
f 3 93 84
f 3 84 70
f 3 70 61
f 3 61 62
f 3 62 59
f 3 59 58
f 3 58 57
f 3 57 48
f 3 48 39
f 3 39 29
f 3 29 28
f 3 28 16
f 3 16 6
f 3 6 15
f 3 15 4
f 3 12 14
f 4 15 5
f 5 15 6
f 6 16 7
f 7 16 17
f 7 17 8
f 8 17 18
f 8 18 19
f 8 19 20
f 8 20 9
f 9 20 21
f 9 21 22
f 9 22 10
f 10 22 19
f 10 19 32
f 10 32 41
f 10 41 50
f 10 50 60
f 10 60 69
f 10 69 83
f 10 83 92
f 10 92 87
f 10 87 74
f 10 74 65
f 10 65 54
f 10 54 44
f 10 44 36
f 10 36 26
f 10 26 13
f 10 13 11
f 12 23 24
f 12 24 14
f 12 13 25
f 12 25 23
f 13 26 25
f 14 24 27
f 16 28 17
f 17 28 29
f 17 29 30
f 17 30 31
f 17 31 19
f 17 19 18
f 19 31 32
f 19 22 21
f 19 21 20
f 23 25 24
f 24 33 34
f 24 34 27
f 24 25 35
f 24 35 33
f 25 26 36
f 25 36 35
f 27 34 33
f 27 33 38
f 27 38 37
f 29 39 40
f 29 40 30
f 30 41 32
f 30 32 31
f 30 40 41
f 33 42 43
f 33 43 46
f 33 46 38
f 33 35 44
f 33 44 42
f 35 36 44
f 37 38 45
f 38 46 47
f 38 47 45
f 39 48 40
f 40 48 49
f 40 49 41
f 41 49 51
f 41 51 50
f 42 52 43
f 42 44 53
f 42 53 52
f 43 52 46
f 44 54 53
f 46 52 47
f 47 52 56
f 47 56 55
f 48 57 49
f 49 57 58
f 49 58 59
f 49 59 51
f 50 51 61
f 50 61 60
f 51 59 62
f 51 62 61
f 52 63 56
f 52 53 63
f 53 54 64
f 53 64 63
f 54 65 64
f 55 56 66
f 56 67 66
f 56 63 67
f 60 68 69
f 60 61 70
f 60 70 68
f 63 71 67
f 63 64 71
f 64 65 72
f 64 72 73
f 64 73 71
f 65 74 75
f 65 75 76
f 65 76 77
f 65 77 72
f 67 71 78
f 68 79 80
f 68 80 81
f 68 81 69
f 68 70 82
f 68 82 79
f 69 81 83
f 70 84 82
f 71 85 86
f 71 86 78
f 71 73 72
f 71 72 77
f 71 77 76
f 71 76 85
f 74 87 75
f 75 88 76
f 75 87 88
f 76 88 89
f 76 89 90
f 76 90 85
f 78 86 91
f 79 82 84
f 79 84 80
f 80 84 92
f 80 92 81
f 81 92 83
f 84 93 94
f 84 94 92
f 85 95 96
f 85 96 86
f 85 90 94
f 85 94 95
f 86 96 93
f 86 93 97
f 86 97 91
f 87 92 88
f 88 92 94
f 88 94 89
f 89 94 90
f 93 95 94
f 93 96 95

