# https://github.com/mikedh/trimesh
v 0.66473685 -0.23514142 1.16002760
v 0.71551296 -0.23514142 1.16276211
v 0.71551296 -0.29071811 1.16424672
v 0.66473685 -0.29071811 1.16179388
v 0.66473685 -0.23514142 1.21986402
v 0.71551296 -0.23514142 1.21984055
v 0.71551296 -0.29071811 1.21987577
v 0.66473685 -0.29071811 1.21997551
v 0.66473685 -0.23705109 1.21987577
v 0.66665038 -0.23514142 1.21986402
v 0.71551296 -0.23627309 1.21984641
v 0.71551296 -0.28626764 1.21988162
v 0.71551296 -0.27767133 1.21988749
v 0.71551296 -0.25293793 1.21988749
v 0.66473685 -0.28500539 1.21996964
v 0.66473685 -0.24434708 1.21990509
v 0.71551296 -0.24434708 1.21987577
v 0.66473685 -0.26101192 1.21994030
v 0.66473685 -0.27037537 1.21995205
f 1 2 3
f 1 3 4
f 1 4 8
f 1 8 15
f 1 15 19
f 1 19 18
f 1 18 16
f 1 16 9
f 1 9 5
f 1 5 10
f 1 10 6
f 1 6 2
f 2 6 11
f 2 11 17
f 2 17 14
f 2 14 13
f 2 13 12
f 2 12 7
f 2 7 3
f 3 7 8
f 3 8 4
f 5 9 10
f 6 10 9
f 6 9 11
f 7 12 8
f 8 12 13
f 8 13 14
f 8 14 15
f 9 16 11
f 11 16 17
f 14 18 19
f 14 19 15
f 14 17 18
f 16 18 17

