# https://github.com/mikedh/trimesh
v -1.99343861 2.02300136 0.35878773
v -1.99330381 2.03967676 0.35878773
v -1.99338243 2.00634552 0.35878773
v -1.99334873 2.00632600 0.37546273
v -1.99307916 2.02298185 0.48366677
v -1.99302302 2.03965723 0.48366677
v -1.99328134 2.03965723 0.37546273
v -1.99251750 2.05635213 0.35878773
v -1.99243891 2.05633260 0.48366677
v -1.99252879 2.05633260 0.39213773
v -1.99254000 2.05633260 0.37546273
v -1.99009124 1.99386828 0.35878773
v -1.99009124 1.99384876 0.37546273
v -1.99009124 1.99386828 0.39213773
v -1.99003512 1.99388780 0.42546327
v -1.99000142 1.99387805 0.44213827
v -1.98993403 1.99395615 0.48366677
v -1.99303425 2.00632600 0.48366677
v -1.99305673 2.01450748 0.48366677
v -1.99274218 2.04784847 0.48366677
v -1.98934990 2.06725752 0.35878773
v -1.98939480 2.06733562 0.39213773
v -1.98938360 2.06729655 0.37546273
v -1.98939480 2.06734536 0.48366677
v -1.98939480 2.06734536 0.40881273
v -1.97856651 1.98820568 0.35878773
v -1.96596340 1.97288739 0.39351914
v -1.96872665 1.97288739 0.40825037
v -1.96873786 1.97288739 0.40881273
v -1.96869295 1.97288739 0.42494982
v -1.98436258 1.99121272 0.48366677
v -1.96868168 1.97288739 0.42629456
v -1.96762585 1.97288739 0.44205269
v -1.96281822 1.97288739 0.45872769
v -1.95619093 1.97288739 0.46936347
v -1.97858893 2.07115299 0.35878773
v -1.97858893 2.07129944 0.39213773
v -1.97858893 2.07123108 0.37546273
v -1.97858893 2.07134826 0.42546327
v -1.97858893 2.07132871 0.40881273
v -1.97858893 2.07133848 0.48366677
v -1.97858893 2.07135801 0.44213827
v -1.96188591 1.98647762 0.35878773
v -1.94516039 1.97288739 0.37758990
v -1.95753883 1.97288739 0.38058502
v -1.91318083 1.97287762 0.38274887
v -1.92307682 1.97287762 0.40080528
v -1.92307682 1.97287762 0.44847081
v -1.97858894 1.98838143 0.48366677
v -1.94525021 1.97288739 0.47112390
v -1.96185221 1.98564775 0.48366677
v -1.96191959 2.07237336 0.35878773
v -1.96191959 2.07259792 0.42546327
v -1.96191959 2.07256864 0.40881273
v -1.96191959 2.07245147 0.37546273
v -1.96191959 2.07261745 0.44213827
v -1.97009702 2.07194381 0.48366677
v -1.94521651 1.98727820 0.35878773
v -1.87868512 1.97287761 0.38460712
v -1.92179632 1.97287762 0.44865421
v -1.87868512 1.97287761 0.43921645
v -1.93502846 1.97288739 0.46886224
v -1.94525021 1.98544274 0.48366677
v -1.94525021 2.07222691 0.35878773
v -1.94525021 2.07239290 0.40881273
v -1.94525021 2.07229527 0.37546273
v -1.94525021 2.07237336 0.44213827
v -1.94525021 2.07239290 0.42546327
v -1.96191959 2.07251982 0.48366677
v -1.94525021 2.07231480 0.48366677
v -1.93223152 1.99312628 0.35878773
v -1.87868512 1.97809110 0.38269997
v -1.87868512 2.00017524 0.46655174
v -1.93051290 1.99155444 0.48366677
v -1.92858088 2.07194381 0.35878773
v -1.92858088 2.07199262 0.39213773
v -1.92858088 2.07198284 0.37546273
v -1.92858088 2.07202191 0.48366677
v -1.91544982 2.01081704 0.35878773
v -1.87868512 1.98980683 0.38151418
v -1.90762059 2.02298185 0.35878773
v -1.90461025 2.03964745 0.35878773
v -1.87868512 2.00843483 0.46777420
v -1.90137525 2.02875184 0.48365460
v -1.90483491 2.02001386 0.48365460
v -1.91179918 2.00760496 0.48365460
v -1.92307682 2.00095629 0.48366677
v -1.92307681 2.07050862 0.35878773
v -1.91380987 2.06823382 0.48365460
v -1.92307681 2.07052815 0.36905683
v -1.92307681 2.07059651 0.48366677
v -1.87868512 2.02298184 0.38098850
v -1.90646366 2.05633260 0.35878773
v -1.87868512 2.02299162 0.46848328
v -1.90040924 2.03826110 0.48365460
v -1.91427036 2.06819478 0.35878773
v -1.90545269 2.05649857 0.48365460
v -1.87868512 2.03250088 0.46782311
v -1.87868512 2.03870043 0.45892325
v -1.87868512 2.03873948 0.45881327
v -1.87868512 2.04384560 0.44232161
v -1.87868512 2.04387488 0.44213827
v -1.87868512 2.04389441 0.42567107
v -1.87868512 2.04389441 0.42547550
v -1.87868512 2.03386771 0.38230878
v -1.87868512 2.03239348 0.46784756
v -1.87868512 2.04373819 0.40903280
v -1.87868512 2.04372845 0.40882495
v -1.87868512 2.03999893 0.39213773
f 1 2 8
f 1 8 21
f 1 21 36
f 1 36 52
f 1 52 64
f 1 64 75
f 1 75 88
f 1 88 96
f 1 96 93
f 1 93 82
f 1 82 81
f 1 81 79
f 1 79 71
f 1 71 58
f 1 58 43
f 1 43 26
f 1 26 12
f 1 12 3
f 1 3 4
f 1 4 5
f 1 5 6
f 1 6 7
f 1 7 2
f 2 7 9
f 2 9 10
f 2 10 11
f 2 11 8
f 3 12 13
f 3 13 14
f 3 14 4
f 4 14 15
f 4 15 16
f 4 16 17
f 4 17 18
f 4 18 19
f 4 19 5
f 5 19 18
f 5 18 17
f 5 17 31
f 5 31 49
f 5 49 51
f 5 51 63
f 5 63 74
f 5 74 87
f 5 87 91
f 5 91 78
f 5 78 70
f 5 70 69
f 5 69 57
f 5 57 41
f 5 41 24
f 5 24 9
f 5 9 20
f 5 20 6
f 6 20 7
f 7 20 9
f 8 11 22
f 8 22 23
f 8 23 21
f 9 24 10
f 10 24 11
f 11 24 25
f 11 25 22
f 12 26 27
f 12 27 28
f 12 28 29
f 12 29 13
f 13 29 14
f 14 29 16
f 14 16 15
f 16 29 30
f 16 30 17
f 17 30 32
f 17 32 33
f 17 33 34
f 17 34 35
f 17 35 31
f 21 23 37
f 21 37 38
f 21 38 36
f 22 25 42
f 22 42 39
f 22 39 40
f 22 40 37
f 22 37 23
f 24 41 42
f 24 42 25
f 26 43 44
f 26 44 45
f 26 45 27
f 27 45 46
f 27 46 47
f 27 47 28
f 28 47 29
f 29 47 48
f 29 48 30
f 30 48 32
f 31 35 49
f 32 48 33
f 33 48 34
f 34 48 35
f 35 48 50
f 35 50 51
f 35 51 49
f 36 38 55
f 36 55 52
f 37 40 53
f 37 53 54
f 37 54 55
f 37 55 38
f 39 42 56
f 39 56 53
f 39 53 40
f 41 57 56
f 41 56 42
f 43 58 44
f 44 59 46
f 44 46 45
f 44 58 59
f 46 59 61
f 46 61 60
f 46 60 48
f 46 48 47
f 48 60 50
f 50 60 61
f 50 61 62
f 50 62 63
f 50 63 51
f 52 55 64
f 53 56 65
f 53 65 54
f 54 65 66
f 54 66 55
f 55 66 64
f 56 67 68
f 56 68 65
f 56 57 69
f 56 69 70
f 56 70 67
f 58 71 59
f 59 71 72
f 59 72 80
f 59 80 92
f 59 92 105
f 59 105 109
f 59 109 108
f 59 108 107
f 59 107 104
f 59 104 103
f 59 103 102
f 59 102 101
f 59 101 100
f 59 100 99
f 59 99 98
f 59 98 106
f 59 106 94
f 59 94 83
f 59 83 73
f 59 73 61
f 61 73 62
f 62 73 74
f 62 74 63
f 64 66 75
f 65 76 77
f 65 77 75
f 65 75 66
f 65 68 78
f 65 78 76
f 67 70 78
f 67 78 68
f 71 79 72
f 72 79 81
f 72 81 82
f 72 82 80
f 73 83 84
f 73 84 85
f 73 85 86
f 73 86 74
f 74 86 87
f 75 77 88
f 76 78 89
f 76 89 77
f 77 90 88
f 77 89 90
f 78 91 89
f 80 82 92
f 82 93 92
f 83 94 95
f 83 95 84
f 84 95 87
f 84 87 85
f 85 87 86
f 87 95 91
f 88 90 96
f 89 91 97
f 89 97 98
f 89 98 99
f 89 99 100
f 89 100 101
f 89 101 102
f 89 102 103
f 89 103 104
f 89 104 96
f 89 96 90
f 91 95 97
f 92 93 105
f 93 96 105
f 94 106 95
f 95 106 97
f 96 107 108
f 96 108 109
f 96 109 105
f 96 104 107
f 97 106 98

