# https://github.com/mikedh/trimesh
v -2.01293062 -0.70921410 1.23645415
v -2.04632004 -0.70921410 1.23645415
v -2.00919910 -0.70921410 1.25175064
v -2.00950768 -0.70922328 1.02048438
v -2.04997258 -0.70921410 1.23686757
v -2.04913298 -0.70922328 1.02048438
v -2.00905563 -0.70921410 1.28507217
v -1.99628249 -0.70922328 1.15356375
v -1.99237883 -0.73795447 1.02048438
v -2.04845843 -0.70921410 1.44283262
v -2.05695472 -0.70922328 1.15575488
v -2.05695472 -0.70922328 1.22446503
v -2.05695472 -0.72707352 1.02048438
v -2.00904842 -0.70921410 1.28684986
v -1.98859719 -0.74629194 1.02048438
v -1.98866168 -0.74614502 1.02048438
v -2.00900538 -0.70921410 1.30173293
v -1.99623946 -0.70922328 1.17022452
v -1.98764994 -0.74435448 1.37019502
v -2.05542621 -0.73067296 1.44283262
v -2.00888337 -0.70921410 1.44283262
v -2.05695472 -0.72642159 1.23641282
v -2.05695472 -0.78323204 1.02048438
v -1.98477960 -0.76099268 1.17022452
v -1.98549713 -0.76100186 1.02048438
v -2.00886901 -0.70921410 1.41839959
v -2.00886901 -0.70921410 1.42017731
v -2.00887622 -0.70921410 1.43783026
v -1.99624661 -0.70922328 1.18510759
v -1.98764279 -0.74435448 1.44283262
v -1.98477233 -0.76099268 1.18688528
v -2.05542621 -0.78408600 1.44283262
v -1.99048441 -0.73518143 1.44283262
v -1.99632559 -0.70922328 1.20354605
v -1.99628249 -0.70922328 1.20176835
v -2.05695472 -0.78322286 1.23641282
v -2.04711654 -0.79270809 1.02048438
v -2.05695472 -0.79187251 1.15356375
v -1.98366010 -0.77766760 1.44283262
v -1.98400461 -0.77766760 1.18688528
v -1.98477960 -0.77766760 1.02048438
v -1.98485852 -0.76100186 1.44283262
v -2.04725292 -0.79284584 1.44283262
v -2.05695472 -0.79011872 1.21764362
v -2.05695472 -0.79077983 1.21297198
v -2.05695472 -0.79194598 1.20354605
v -2.03291544 -0.80088946 1.02048438
v -2.05695472 -0.79212962 1.17022452
v -1.98707583 -0.79433337 1.44283262
v -1.98786524 -0.79382834 1.02048438
v -2.04212211 -0.79579334 1.44283262
v -2.05695472 -0.79209290 1.19618720
v -2.02055137 -0.80251471 1.02048438
v -2.03291544 -0.80092621 1.05359919
v -2.03291544 -0.80108228 1.44283262
v -1.99112301 -0.80275346 1.44283262
v -1.99113017 -0.80275346 1.43683807
v -1.99115890 -0.80273510 1.42017731
v -1.98709025 -0.79433337 1.43683807
v -1.99611745 -0.80215660 1.02048438
v -1.99120193 -0.80270753 1.40740268
v -2.01222734 -0.80283610 1.02048438
v -2.01410025 -0.80293710 1.44283262
v -2.02241713 -0.80256982 1.44283262
v -2.02931315 -0.80160567 1.44283262
v -1.99656955 -0.80292792 1.44283262
v -2.00444869 -0.80283610 1.02048438
v -1.99959779 -0.80301975 1.44283262
f 1 2 5
f 1 5 10
f 1 10 21
f 1 21 28
f 1 28 27
f 1 27 26
f 1 26 17
f 1 17 14
f 1 14 7
f 1 7 3
f 1 3 4
f 1 4 6
f 1 6 2
f 2 6 5
f 3 7 8
f 3 8 4
f 4 8 9
f 4 9 16
f 4 16 15
f 4 15 25
f 4 25 41
f 4 41 50
f 4 50 60
f 4 60 67
f 4 67 62
f 4 62 53
f 4 53 47
f 4 47 37
f 4 37 23
f 4 23 13
f 4 13 6
f 5 6 11
f 5 11 12
f 5 12 10
f 6 13 11
f 7 14 8
f 8 15 16
f 8 16 9
f 8 14 17
f 8 17 18
f 8 18 19
f 8 19 15
f 10 20 32
f 10 32 43
f 10 43 51
f 10 51 55
f 10 55 65
f 10 65 64
f 10 64 63
f 10 63 68
f 10 68 66
f 10 66 56
f 10 56 49
f 10 49 39
f 10 39 42
f 10 42 30
f 10 30 33
f 10 33 21
f 10 12 20
f 11 13 23
f 11 23 38
f 11 38 48
f 11 48 52
f 11 52 46
f 11 46 45
f 11 45 44
f 11 44 36
f 11 36 22
f 11 22 12
f 12 22 20
f 15 19 24
f 15 24 25
f 17 26 18
f 18 26 27
f 18 27 28
f 18 28 29
f 18 29 30
f 18 30 19
f 19 30 31
f 19 31 24
f 20 22 36
f 20 36 32
f 21 33 34
f 21 34 35
f 21 35 29
f 21 29 28
f 23 37 38
f 24 31 39
f 24 39 40
f 24 40 41
f 24 41 25
f 29 35 30
f 30 42 31
f 30 35 33
f 31 42 39
f 32 36 44
f 32 44 45
f 32 45 46
f 32 46 43
f 33 35 34
f 37 47 38
f 38 47 48
f 39 49 40
f 40 50 41
f 40 49 50
f 43 46 52
f 43 52 51
f 47 53 54
f 47 54 48
f 48 54 55
f 48 55 52
f 49 56 57
f 49 57 58
f 49 58 59
f 49 59 50
f 50 59 58
f 50 58 61
f 50 61 60
f 51 52 55
f 53 62 63
f 53 63 64
f 53 64 54
f 54 64 65
f 54 65 55
f 56 66 57
f 57 66 67
f 57 67 58
f 58 67 61
f 60 61 67
f 62 67 68
f 62 68 63
f 66 68 67

