# https://github.com/mikedh/trimesh
v -3.78114633 1.98778345 0.07520824
v -3.79782765 1.98934316 0.07520824
v -3.79782765 1.99011062 0.04189981
v -3.78114633 1.98891403 0.04189981
v -3.76448177 1.98931015 0.04189981
v -3.76448177 1.98827859 0.07520824
v -3.80897939 1.99441840 0.07520824
v -3.80892893 1.99464122 0.04189981
v -3.79782765 1.99115044 0.02522929
v -3.78114633 1.98965675 0.02522929
v -3.80857544 1.99520238 0.02522929
v -3.76448177 1.99009413 0.02522929
v -3.75232007 1.99436888 0.02522929
v -3.75194975 1.99384073 0.04189981
v -3.75167200 1.99356015 0.05857690
v -3.75132692 1.99342811 0.07520824
v -3.81197565 2.00631839 0.07520824
v -3.81192513 2.00631839 0.04189981
v -3.79782765 1.99502908 0.01390245
v -3.80754018 1.99646501 0.01529221
v -3.78114633 1.99412957 0.01320440
v -3.76448177 1.99430287 0.01332178
v -3.81135281 2.00631839 0.02522929
v -3.75372563 1.99578830 0.01465929
v -3.73784380 2.01302763 0.01553364
v -3.74397941 2.00394170 0.02522929
v -3.74301149 2.00263782 0.07520824
v -3.81211032 2.02299655 0.07520824
v -3.81205980 2.02299655 0.04189981
v -3.81168108 2.02299655 0.02522929
v -3.79782765 2.00631839 0.01028782
v -3.78114633 2.00631839 0.00917861
v -3.80845759 2.00631839 0.01414387
v -3.76448177 2.00631839 0.00947873
v -3.80871011 2.02299655 0.01378507
v -3.74801927 2.00701161 0.01323041
v -3.73540304 2.02299655 0.01385032
v -3.73111066 2.02299655 0.02522929
v -3.73697692 2.01227665 0.02522929
v -3.73586598 2.01101403 0.07520824
v -3.81197565 2.03966647 0.07520824
v -3.81184098 2.03966647 0.04189981
v -3.81156323 2.03966647 0.02522929
v -3.80869323 2.03966647 0.01380463
v -3.79782765 2.02299655 0.00962879
v -3.78114633 2.02299655 0.00877413
v -3.74780045 2.03966647 0.00855226
v -3.74780045 2.02299655 0.00995503
v -3.79782765 2.03966647 0.00961579
v -3.73380394 2.03966647 0.01269542
v -3.72751685 2.03966647 0.02522929
v -3.72673412 2.03966647 0.04189981
v -3.72937688 2.02304607 0.07520824
v -3.81106666 2.05634462 0.07520824
v -3.81086471 2.05634462 0.04189981
v -3.81037655 2.05634462 0.02522929
v -3.80802835 2.05634462 0.01453536
v -3.78114633 2.03966647 0.00861751
v -3.76448177 2.05634462 0.00907424
v -3.74780045 2.05634462 0.00928299
v -3.79782765 2.05634462 0.01069231
v -3.78114633 2.05634462 0.00918517
v -3.73485601 2.05634462 0.01323041
v -3.72915806 2.05634462 0.02522929
v -3.72789563 2.05634462 0.04189981
v -3.72612816 2.03971599 0.07520824
v -3.80819665 2.06689123 0.07520824
v -3.80813779 2.06684173 0.05857690
v -3.80807886 2.06675918 0.04189981
v -3.80771696 2.06633833 0.02522929
v -3.80698474 2.06554608 0.01578807
v -3.76448177 2.06777422 0.01329566
v -3.78114633 2.06774947 0.01337402
v -3.74780045 2.06741938 0.01358933
v -3.73707795 2.06626404 0.01491384
v -3.79782765 2.06685822 0.01432662
v -3.73524314 2.06749367 0.02522929
v -3.72765993 2.05634462 0.05857690
v -3.73450252 2.06795580 0.04189981
v -3.72752532 2.05637763 0.07520824
v -3.79782765 2.07062958 0.07520824
v -3.79782765 2.07049753 0.05857690
v -3.79782765 2.07027471 0.04189981
v -3.79782765 2.06958976 0.02522929
v -3.76448177 2.07130627 0.02522929
v -3.78114633 2.07125677 0.02522929
v -3.74780045 2.07079464 0.02522929
v -3.74780045 2.07147959 0.04189981
v -3.73437626 2.06799704 0.05857690
v -3.73433415 2.06799704 0.07520824
v -3.78114633 2.07197473 0.05857690
v -3.78114633 2.07209025 0.07520824
v -3.78114633 2.07178492 0.04189981
v -3.76448177 2.07178492 0.04189981
v -3.74780045 2.07155384 0.05857690
v -3.76448177 2.07186743 0.05857690
v -3.74780045 2.07157862 0.07520824
v -3.76448177 2.07193346 0.07520824
f 1 2 3
f 1 3 4
f 1 4 5
f 1 5 6
f 1 6 16
f 1 16 27
f 1 27 40
f 1 40 53
f 1 53 66
f 1 66 80
f 1 80 90
f 1 90 97
f 1 97 98
f 1 98 92
f 1 92 81
f 1 81 67
f 1 67 54
f 1 54 41
f 1 41 28
f 1 28 17
f 1 17 7
f 1 7 2
f 2 7 8
f 2 8 3
f 3 9 10
f 3 10 4
f 3 8 11
f 3 11 9
f 4 10 5
f 5 12 13
f 5 13 14
f 5 14 6
f 5 10 12
f 6 14 15
f 6 15 16
f 7 17 18
f 7 18 8
f 8 18 11
f 9 19 10
f 9 11 20
f 9 20 19
f 10 21 22
f 10 22 12
f 10 19 21
f 11 18 23
f 11 23 20
f 12 22 24
f 12 24 13
f 13 24 25
f 13 25 26
f 13 26 14
f 14 26 27
f 14 27 15
f 15 27 16
f 17 28 29
f 17 29 18
f 18 29 30
f 18 30 23
f 19 20 31
f 19 31 32
f 19 32 21
f 20 23 33
f 20 33 31
f 21 32 22
f 22 34 24
f 22 32 34
f 23 30 35
f 23 35 33
f 24 36 25
f 24 34 36
f 25 37 38
f 25 38 39
f 25 39 26
f 25 36 37
f 26 39 40
f 26 40 27
f 28 41 29
f 29 41 42
f 29 42 43
f 29 43 30
f 30 43 44
f 30 44 35
f 31 45 32
f 31 33 45
f 32 46 47
f 32 47 34
f 32 45 46
f 33 35 45
f 34 47 48
f 34 48 36
f 35 44 49
f 35 49 45
f 36 48 37
f 37 50 51
f 37 51 38
f 37 48 50
f 38 51 52
f 38 52 53
f 38 53 40
f 38 40 39
f 41 54 42
f 42 54 55
f 42 55 43
f 43 55 56
f 43 56 57
f 43 57 44
f 44 57 49
f 45 49 58
f 45 58 46
f 46 58 47
f 47 59 60
f 47 60 50
f 47 50 48
f 47 58 59
f 49 61 62
f 49 62 58
f 49 57 61
f 50 60 63
f 50 63 51
f 51 64 65
f 51 65 52
f 51 63 64
f 52 65 66
f 52 66 53
f 54 67 68
f 54 68 69
f 54 69 55
f 55 69 70
f 55 70 56
f 56 70 71
f 56 71 57
f 57 71 61
f 58 62 59
f 59 72 60
f 59 62 73
f 59 73 72
f 60 74 75
f 60 75 63
f 60 72 74
f 61 76 62
f 61 71 76
f 62 76 73
f 63 75 64
f 64 75 77
f 64 77 65
f 65 78 66
f 65 77 79
f 65 79 78
f 66 78 80
f 67 81 68
f 68 81 69
f 69 81 82
f 69 82 83
f 69 83 70
f 70 83 84
f 70 84 71
f 71 84 76
f 72 85 74
f 72 73 85
f 73 86 85
f 73 76 86
f 74 87 75
f 74 85 87
f 75 87 77
f 76 84 86
f 77 87 88
f 77 88 79
f 78 79 80
f 79 89 80
f 79 88 89
f 80 89 90
f 81 91 82
f 81 92 91
f 82 91 93
f 82 93 83
f 83 93 86
f 83 86 84
f 85 94 88
f 85 88 87
f 85 86 93
f 85 93 94
f 88 95 89
f 88 94 96
f 88 96 95
f 89 95 97
f 89 97 90
f 91 92 94
f 91 94 93
f 92 98 96
f 92 96 94
f 95 96 98
f 95 98 97

