# https://github.com/mikedh/trimesh
v 0.88215997 -0.26383709 0.83784520
v 0.67405692 -0.26383709 0.83755199
v 0.88215997 -0.26383709 0.89816442
v 0.88215997 -0.38573882 0.83773750
v 0.67405692 -0.26383709 0.83868896
v 0.88215997 -0.39436167 0.83773150
v 0.88215997 -0.43576887 0.83772553
v 0.88215997 -0.46102463 0.83772553
v 0.85743040 -0.66096973 0.83778536
v 0.84076750 -0.66096973 0.83780331
v 0.67405692 -0.46098086 0.83781528
v 0.67411801 -0.26383709 0.89867905
v 0.67405692 -0.26388085 0.89868503
v 0.67411801 -0.67764642 0.89834394
v 0.69078092 -0.71099978 0.89823024
v 0.70744386 -0.71099978 0.89816442
v 0.88215997 -0.71099978 0.89730870
v 0.88215997 -0.66096973 0.83780331
v 0.87409331 -0.66096973 0.83779734
v 0.88215997 -0.66902356 0.83782726
v 0.87409331 -0.67764642 0.83785119
v 0.85743040 -0.67764642 0.83784520
v 0.84076750 -0.67764642 0.83786316
v 0.80744168 -0.71099978 0.83804866
v 0.67405692 -0.56090964 0.83800079
v 0.67405692 -0.67764642 0.89834394
v 0.67411801 -0.71099978 0.89827213
v 0.88215997 -0.71099978 0.83798882
v 0.88215997 -0.67764642 0.83785718
v 0.87411370 -0.71099978 0.83798882
v 0.85743040 -0.71099978 0.83799481
v 0.82410459 -0.71099978 0.83802473
v 0.67411801 -0.71099978 0.83848549
v 0.67405692 -0.71091223 0.83846755
v 0.67405692 -0.69432310 0.89829008
v 0.67405692 -0.71099978 0.88578342
v 0.67405692 -0.71099978 0.83865904
f 1 2 5
f 1 5 12
f 1 12 3
f 1 3 17
f 1 17 28
f 1 28 29
f 1 29 20
f 1 20 18
f 1 18 8
f 1 8 7
f 1 7 6
f 1 6 4
f 1 4 2
f 2 4 6
f 2 6 7
f 2 7 8
f 2 8 9
f 2 9 10
f 2 10 11
f 2 11 25
f 2 25 34
f 2 34 37
f 2 37 36
f 2 36 35
f 2 35 26
f 2 26 13
f 2 13 5
f 3 12 13
f 3 13 14
f 3 14 15
f 3 15 16
f 3 16 17
f 5 13 12
f 8 18 19
f 8 19 9
f 9 19 20
f 9 20 21
f 9 21 22
f 9 22 23
f 9 23 10
f 10 23 24
f 10 24 25
f 10 25 11
f 13 26 14
f 14 26 27
f 14 27 15
f 15 27 36
f 15 36 37
f 15 37 33
f 15 33 24
f 15 24 32
f 15 32 31
f 15 31 30
f 15 30 28
f 15 28 17
f 15 17 16
f 18 20 19
f 20 29 21
f 21 29 28
f 21 28 22
f 22 28 30
f 22 30 31
f 22 31 32
f 22 32 23
f 23 32 24
f 24 33 34
f 24 34 25
f 26 35 27
f 27 35 36
f 33 37 34

