# https://github.com/mikedh/trimesh
v -3.45897604 -0.15487220 1.15354842
v -3.40819992 -0.15500578 1.15354842
v -3.40819992 -0.15847080 1.14625935
v -3.40819992 -0.16217150 1.13852540
v -3.45897604 -0.15803080 1.14701221
v -3.45897604 -0.15489577 1.16291642
v -3.45897604 -0.15493505 1.17021406
v -3.40819992 -0.15506863 1.16213791
v -3.40819992 -0.16968297 1.13559095
v -3.45897604 -0.17767369 1.13253672
v -3.45897604 -0.16213222 1.13864517
v -3.40819992 -0.15515506 1.17021406
v -3.45897604 -0.15521791 1.18687114
v -3.44960215 -0.15524935 1.18687114
v -3.40819992 -0.15541434 1.18687114
v -3.40819992 -0.17767369 1.13247683
v -3.45897604 -0.19434662 1.13312704
v -3.45897604 -0.15752794 1.20353678
v -3.41627162 -0.15749650 1.20353678
v -3.40819992 -0.15649865 1.19546918
v -3.40819992 -0.18574300 1.13291314
v -3.40819992 -0.19434662 1.13346924
v -3.45897604 -0.21100380 1.13627536
v -3.45897604 -0.16451294 1.21500938
v -3.41627162 -0.16440294 1.21521470
v -3.40819992 -0.15755151 1.20353678
v -3.40819992 -0.20240806 1.13623258
v -3.45897604 -0.22286028 1.14037333
v -3.45897604 -0.17191441 1.21709685
v -3.40819992 -0.16445009 1.21516337
v -3.40819992 -0.16111867 1.20955968
v -3.45897604 -0.17767369 1.21871380
v -3.43294186 -0.17767369 1.21879935
v -3.41627162 -0.17767369 1.21883357
v -3.40819992 -0.17767369 1.21878225
v -3.40819992 -0.21178165 1.13980868
v -3.45897604 -0.22663957 1.14487340
v -3.40819992 -0.21945812 1.14500173
v -3.40819992 -0.23513316 1.16276243
v -3.45897604 -0.18704731 1.21913301
v -3.45897604 -0.19434662 1.21944956
v -3.40819992 -0.19434662 1.21930412
v -3.44960215 -0.19434662 1.21944100
v -3.45897604 -0.23275245 1.15533647
v -3.45897604 -0.23513316 1.16003331
v -3.40819992 -0.23513316 1.21984310
v -3.45897604 -0.20370450 1.21959499
v -3.40819992 -0.21100380 1.21962921
v -3.45897604 -0.21100380 1.21970622
v -3.45897604 -0.23513316 1.21986021
v -3.40819992 -0.22766886 1.21980887
v -3.45897604 -0.22766886 1.21983455
v -3.45706250 -0.23513316 1.21986021
v -3.45897604 -0.22036954 1.21978321
f 1 2 3
f 1 3 4
f 1 4 5
f 1 5 11
f 1 11 10
f 1 10 17
f 1 17 23
f 1 23 28
f 1 28 37
f 1 37 44
f 1 44 45
f 1 45 50
f 1 50 52
f 1 52 54
f 1 54 49
f 1 49 47
f 1 47 41
f 1 41 40
f 1 40 32
f 1 32 29
f 1 29 24
f 1 24 18
f 1 18 13
f 1 13 7
f 1 7 6
f 1 6 2
f 2 6 7
f 2 7 8
f 2 8 12
f 2 12 15
f 2 15 20
f 2 20 26
f 2 26 31
f 2 31 30
f 2 30 35
f 2 35 42
f 2 42 48
f 2 48 51
f 2 51 46
f 2 46 39
f 2 39 38
f 2 38 36
f 2 36 27
f 2 27 22
f 2 22 21
f 2 21 16
f 2 16 9
f 2 9 4
f 2 4 3
f 4 9 10
f 4 10 11
f 4 11 5
f 7 12 8
f 7 13 14
f 7 14 15
f 7 15 12
f 9 16 10
f 10 16 17
f 13 18 19
f 13 19 14
f 14 19 20
f 14 20 15
f 16 21 17
f 17 21 22
f 17 22 23
f 18 24 25
f 18 25 19
f 19 25 26
f 19 26 20
f 22 27 23
f 23 27 28
f 24 29 25
f 25 30 31
f 25 31 26
f 25 29 32
f 25 32 33
f 25 33 34
f 25 34 35
f 25 35 30
f 27 36 28
f 28 36 38
f 28 38 39
f 28 39 37
f 32 40 33
f 33 40 41
f 33 41 34
f 34 42 35
f 34 41 43
f 34 43 42
f 37 39 44
f 39 45 44
f 39 46 53
f 39 53 50
f 39 50 45
f 41 47 43
f 42 43 48
f 43 47 49
f 43 49 48
f 46 51 52
f 46 52 53
f 48 49 51
f 49 54 51
f 50 53 52
f 51 54 52

