# https://github.com/mikedh/trimesh
v 2.06923293 -0.67763969 1.22526055
v 2.04366114 -0.70919811 1.22120067
v 2.06923293 -0.69427874 1.22525306
v 2.06923293 -0.64431510 1.22519314
v 2.06908523 -0.23438088 1.22459390
v 2.04366364 -0.24437360 1.22059392
v 2.06923293 -0.70919811 1.22523808
v 2.04366114 -0.64431510 1.22111077
v 2.04366114 -0.70919811 1.16504381
v 2.06923293 -0.62762957 1.22514070
v 2.06908523 -0.23438088 1.14873681
v 2.04366364 -0.23438088 1.22055647
v 2.04366364 -0.24153845 1.22058644
v 2.06923293 -0.51705887 1.22470625
v 2.06923293 -0.70919811 1.15276675
v 2.04366114 -0.62762957 1.22106583
v 2.06923293 -0.69302384 1.15245214
v 2.06923293 -0.70794321 1.15273678
v 2.04366114 -0.56098040 1.16427976
v 2.04366364 -0.23438088 1.16091649
v 2.06923293 -0.51705887 1.15185290
v 2.06923293 -0.67763969 1.15234728
v 2.04366114 -0.51705887 1.22045909
v 2.04366114 -0.54434135 1.16423482
v 2.04366114 -0.51705887 1.16422732
f 1 2 3
f 1 3 7
f 1 7 15
f 1 15 18
f 1 18 17
f 1 17 22
f 1 22 21
f 1 21 14
f 1 14 10
f 1 10 4
f 1 4 5
f 1 5 6
f 1 6 2
f 2 7 3
f 2 6 8
f 2 8 16
f 2 16 23
f 2 23 25
f 2 25 24
f 2 24 19
f 2 19 9
f 2 9 15
f 2 15 7
f 4 10 5
f 5 11 20
f 5 20 12
f 5 12 13
f 5 13 6
f 5 10 14
f 5 14 21
f 5 21 11
f 6 13 8
f 8 13 16
f 9 17 18
f 9 18 15
f 9 19 20
f 9 20 17
f 11 17 20
f 11 21 22
f 11 22 17
f 12 20 25
f 12 25 23
f 12 23 16
f 12 16 13
f 19 24 20
f 20 24 25

