# https://github.com/mikedh/trimesh
v 1.67529803 -0.71103728 1.22172223
v 1.67529803 -0.71103728 1.16500047
v 1.72411242 -0.71103728 1.22172223
v 1.67529803 -0.27650295 1.22139775
v 1.72955633 -0.71099157 1.16612723
v 1.72415492 -0.71103728 1.16608004
v 1.67529803 -0.67881741 1.16448723
v 1.72955633 -0.71103728 1.20364088
v 1.72955633 -0.71099157 1.22168682
v 1.72955633 -0.26101000 1.22118538
v 1.72411242 -0.26101000 1.22120898
v 1.70744617 -0.26101000 1.22127388
v 1.69078523 -0.26101000 1.22133287
v 1.67529803 -0.26101000 1.22138006
v 1.67529803 -0.57982693 1.16343126
v 1.67529803 -0.49125651 1.16274694
v 1.67529803 -0.42768508 1.16228089
v 1.67529803 -0.42274926 1.16224550
v 1.67529803 -0.41104956 1.16216291
v 1.67529803 -0.34437040 1.16170276
v 1.72955633 -0.56099772 1.16529543
v 1.72955633 -0.25557145 1.22117359
v 1.72411242 -0.24437448 1.22116769
v 1.67529803 -0.25986746 1.22137416
v 1.67529803 -0.24414598 1.16146090
v 1.72955633 -0.24423739 1.16400939
v 1.72955633 -0.24414598 1.22114409
v 1.72430894 -0.24414598 1.22116179
v 1.67529803 -0.24414598 1.22129157
v 1.72411242 -0.24414598 1.16402119
v 1.72955633 -0.24414598 1.20256130
f 1 2 6
f 1 6 8
f 1 8 3
f 1 3 4
f 1 4 14
f 1 14 24
f 1 24 29
f 1 29 25
f 1 25 20
f 1 20 19
f 1 19 18
f 1 18 17
f 1 17 16
f 1 16 15
f 1 15 7
f 1 7 2
f 2 5 6
f 2 7 5
f 3 8 9
f 3 9 10
f 3 10 11
f 3 11 12
f 3 12 13
f 3 13 4
f 4 13 14
f 5 8 6
f 5 7 15
f 5 15 16
f 5 16 17
f 5 17 18
f 5 18 19
f 5 19 20
f 5 20 21
f 5 21 26
f 5 26 31
f 5 31 27
f 5 27 22
f 5 22 10
f 5 10 9
f 5 9 8
f 10 22 11
f 11 22 23
f 11 23 12
f 12 23 13
f 13 23 14
f 14 23 24
f 20 25 26
f 20 26 21
f 22 27 23
f 23 27 28
f 23 28 29
f 23 29 24
f 25 29 28
f 25 28 27
f 25 27 31
f 25 31 30
f 25 30 26
f 26 30 31

