# https://github.com/mikedh/trimesh
v -2.08752585 1.55605510 1.00917443
v -2.08598746 1.57271505 1.00917443
v -2.08751708 1.55605510 0.97506090
v -2.08552417 1.53936971 1.00917443
v -2.08536684 1.53936971 1.06377896
v -2.08660803 1.55144903 1.12124537
v -2.08719365 1.55650469 1.12124537
v -2.07791095 1.58591407 1.05918566
v -2.07804205 1.58605828 1.00917443
v -2.08597870 1.57271505 0.99250402
v -2.08569027 1.57271505 1.05918566
v -2.07782352 1.58592255 1.07587038
v -2.08543680 1.53936971 0.99250402
v -2.08574270 1.57271505 0.97506090
v -2.08522698 1.53942061 0.97506090
v -2.07769243 1.52737524 1.02584484
v -2.07764871 1.52738371 1.05918566
v -2.07976401 1.53068348 1.06379327
v -2.07764871 1.52740067 0.99250402
v -2.07770990 1.52737524 1.00917443
v -2.08532312 1.53936971 1.07587038
v -2.08516579 1.53936971 1.09254079
v -2.08489483 1.53936971 1.10922551
v -2.08469378 1.53936971 1.12124537
v -2.08507841 1.57187528 1.12124537
v -2.08536684 1.57270657 1.09254079
v -2.08556789 1.57270657 1.07587038
v -2.06092761 1.60351559 0.97506090
v -2.07801586 1.58601586 0.99250402
v -2.06073533 1.60337138 1.09254079
v -2.06077898 1.60340532 1.07587038
v -2.08565532 1.57271505 1.06377896
v -2.07766619 1.58584621 1.09254079
v -2.07750885 1.52740067 0.97506090
v -2.07751762 1.52740067 0.97581930
v -2.07777110 1.58598193 0.97506090
v -2.06341871 1.52352411 0.97581930
v -2.06341871 1.52354108 1.00917443
v -2.06341871 1.52354955 1.02584484
v -2.06341871 1.52358348 1.07587038
v -2.07764000 1.52739221 1.06379327
v -2.07761376 1.52741765 1.07587038
v -2.06404804 1.52369376 0.97506090
v -2.06341871 1.52352411 0.97506090
v -2.07752639 1.52746008 1.09254079
v -2.07740400 1.52751094 1.10922551
v -2.07727285 1.52754488 1.12124537
v -2.07666976 1.58509974 1.12124537
v -2.07730786 1.58553235 1.10922551
v -2.04674132 1.60936015 1.00917443
v -2.04674132 1.60937712 0.97506090
v -2.04674132 1.60929228 1.07587038
v -2.04674132 1.60924987 1.09254079
v -2.06005351 1.60290483 1.12124537
v -2.04674132 1.60885118 1.12124537
v -2.04674132 1.52316783 0.97581930
v -2.04674132 1.52325265 1.09254079
v -2.06341871 1.52364289 1.09254079
v -2.04674132 1.52316783 0.97506090
v -2.06341871 1.52379557 1.12124537
v -2.03009012 1.60957220 1.12124537
v -2.03009012 1.60962311 1.00917443
v -2.03009012 1.60961461 0.97506090
v -2.03009012 1.52296425 0.97506090
v -2.03009012 1.52304060 1.07587038
v -2.03009012 1.52308299 1.09254079
v -2.03474018 1.52327812 1.12124537
v -2.04674132 1.52334599 1.10922551
v -2.04674132 1.52341382 1.12124537
v -2.01340397 1.60809623 1.12124537
v -2.01341268 1.60817257 0.99250402
v -2.01341268 1.60813863 0.97506090
v -2.01341268 1.52375313 0.97506090
v -2.01341268 1.52372770 0.99250402
v -2.01340397 1.52388038 1.07587038
v -2.01340397 1.52393128 1.09254079
v -2.01340397 1.52403306 1.12124537
v -2.01807150 1.52380403 1.12124537
v -2.03009012 1.52323571 1.12124537
v -2.00194478 1.60220077 1.12124537
v -2.00190106 1.60223471 0.97581930
v -2.00190106 1.60223471 0.97506090
v -2.01288825 1.60788416 0.97506090
v -2.00200597 1.52782482 0.97506090
v -2.00198850 1.52779087 0.99250402
v -2.00205840 1.52793508 1.10922551
v -2.00205840 1.52796055 1.12124537
v -2.00523132 1.52685779 1.12124537
v -1.99954976 1.59294620 1.12124537
v -1.99863200 1.58938347 1.12124537
v -1.99864948 1.58939195 0.97506090
v -1.99858829 1.53936970 0.97506090
v -1.99857958 1.53936970 0.97581930
v -1.99857958 1.53936970 1.12124537
v -1.99840477 1.57270657 1.12124537
v -1.99833481 1.55679309 0.97506090
v -1.99823867 1.55604663 1.12124537
v -1.99857081 1.54012467 0.97506090
v -1.99833481 1.55605510 0.97506090
f 1 2 3
f 1 3 4
f 1 4 5
f 1 5 6
f 1 6 7
f 1 7 2
f 2 8 9
f 2 9 10
f 2 10 3
f 2 7 11
f 2 11 12
f 2 12 8
f 3 13 4
f 3 10 14
f 3 14 36
f 3 36 28
f 3 28 51
f 3 51 63
f 3 63 72
f 3 72 83
f 3 83 82
f 3 82 91
f 3 91 96
f 3 96 99
f 3 99 98
f 3 98 92
f 3 92 84
f 3 84 73
f 3 73 64
f 3 64 59
f 3 59 44
f 3 44 43
f 3 43 34
f 3 34 15
f 3 15 13
f 4 16 17
f 4 17 18
f 4 18 5
f 4 13 19
f 4 19 20
f 4 20 16
f 5 18 21
f 5 21 6
f 6 21 22
f 6 22 23
f 6 23 24
f 6 24 47
f 6 47 60
f 6 60 69
f 6 69 67
f 6 67 79
f 6 79 78
f 6 78 77
f 6 77 88
f 6 88 87
f 6 87 94
f 6 94 97
f 6 97 95
f 6 95 90
f 6 90 89
f 6 89 80
f 6 80 70
f 6 70 61
f 6 61 55
f 6 55 54
f 6 54 48
f 6 48 25
f 6 25 7
f 7 25 26
f 7 26 27
f 7 27 11
f 8 12 9
f 9 28 29
f 9 29 10
f 9 12 30
f 9 30 31
f 9 31 28
f 10 29 14
f 11 27 32
f 11 32 12
f 12 27 26
f 12 26 33
f 12 33 30
f 12 32 27
f 13 15 34
f 13 34 35
f 13 35 19
f 14 29 36
f 16 20 37
f 16 37 38
f 16 38 39
f 16 39 17
f 17 39 40
f 17 40 41
f 17 41 18
f 18 41 42
f 18 42 21
f 19 35 20
f 20 35 43
f 20 43 44
f 20 44 37
f 21 42 45
f 21 45 46
f 21 46 22
f 22 46 47
f 22 47 23
f 23 47 24
f 25 48 49
f 25 49 33
f 25 33 26
f 28 50 51
f 28 36 29
f 28 31 52
f 28 52 50
f 30 53 31
f 30 33 54
f 30 54 55
f 30 55 53
f 31 53 52
f 33 49 54
f 34 43 35
f 37 56 38
f 37 44 59
f 37 59 56
f 38 56 39
f 39 56 40
f 40 57 58
f 40 58 42
f 40 42 41
f 40 56 57
f 42 58 45
f 45 58 46
f 46 58 60
f 46 60 47
f 48 54 49
f 50 52 61
f 50 61 51
f 51 61 62
f 51 62 63
f 52 53 61
f 53 55 61
f 56 59 64
f 56 64 57
f 57 65 66
f 57 66 67
f 57 67 68
f 57 68 60
f 57 60 58
f 57 64 65
f 60 68 69
f 61 70 71
f 61 71 62
f 62 71 63
f 63 71 72
f 64 73 74
f 64 74 65
f 65 75 66
f 65 74 75
f 66 75 76
f 66 76 77
f 66 77 78
f 66 78 79
f 66 79 67
f 67 69 68
f 70 80 71
f 71 81 82
f 71 82 83
f 71 83 72
f 71 80 81
f 73 84 85
f 73 85 74
f 74 85 86
f 74 86 75
f 75 86 87
f 75 87 88
f 75 88 76
f 76 88 77
f 80 89 81
f 81 89 90
f 81 90 82
f 82 90 91
f 84 92 93
f 84 93 85
f 85 93 94
f 85 94 87
f 85 87 86
f 90 95 91
f 91 95 97
f 91 97 96
f 92 98 93
f 93 98 99
f 93 99 97
f 93 97 94
f 96 97 99

