# https://github.com/mikedh/trimesh
v -2.01774761 -0.45982700 0.40383001
v -2.04798517 -0.45982700 0.40383001
v -2.00848253 -0.45982700 0.41904499
v -2.00843127 -0.45985732 0.40383001
v -2.04799369 -0.46073653 0.40383001
v -2.08066493 -0.45982700 0.51110567
v -1.99647633 -0.45982700 0.47022767
v -1.99530646 -0.54433719 0.47022767
v -1.99523815 -0.56099669 0.47022767
v -1.99509295 -0.61468908 0.47022767
v -2.00828613 -0.56099669 0.40383001
v -2.04799369 -0.46099423 0.40383001
v -2.08066493 -0.47678968 0.51110567
v -2.08066493 -0.45982700 0.56752129
v -1.99413653 -0.45982700 0.48571147
v -1.99399992 -0.45982700 0.48689428
v -1.99343635 -0.61468908 0.48689428
v -1.99471720 -0.61468908 0.47390149
v -2.00829465 -0.61468908 0.40383001
v -2.00828613 -0.61127836 0.40383001
v -2.00826902 -0.59461886 0.40383001
v -2.00826902 -0.57767135 0.40383001
v -2.04793397 -0.61461329 0.40383001
v -2.08066493 -0.54433719 0.51128490
v -2.08066493 -0.61468908 0.56879368
v -2.04713979 -0.45982700 0.58691191
v -1.99446102 -0.45982700 0.50352506
v -1.99399139 -0.61100550 0.52017375
v -1.99397428 -0.61468908 0.52017375
v -1.99369253 -0.61468908 0.50352506
v -1.99348755 -0.61468908 0.49056810
v -2.04494519 -0.61468908 0.40383001
v -2.08066493 -0.61468908 0.51221680
v -2.08066493 -0.56099669 0.51142825
v -2.04793397 -0.61468908 0.58685814
v -2.04793397 -0.61467393 0.58691191
v -2.04791686 -0.61096002 0.58691191
v -2.00977197 -0.45982700 0.58691191
v -1.99491360 -0.45982700 0.51900889
v -1.99494776 -0.45982700 0.52017375
v -1.99440130 -0.61468908 0.52386548
v -2.04747280 -0.61468908 0.58691191
v -2.00836296 -0.45984216 0.58691191
v -2.00836296 -0.45982700 0.58685814
v -1.99697159 -0.45982700 0.53684039
v -1.99599812 -0.61468908 0.53684039
v -2.00819219 -0.61468908 0.58691191
v -2.00820072 -0.57767135 0.58691191
v -2.00818367 -0.59433085 0.58691191
f 1 2 6
f 1 6 14
f 1 14 26
f 1 26 38
f 1 38 44
f 1 44 45
f 1 45 40
f 1 40 39
f 1 39 27
f 1 27 16
f 1 16 15
f 1 15 7
f 1 7 3
f 1 3 4
f 1 4 11
f 1 11 22
f 1 22 21
f 1 21 20
f 1 20 19
f 1 19 32
f 1 32 23
f 1 23 12
f 1 12 5
f 1 5 2
f 2 5 6
f 3 7 4
f 4 7 8
f 4 8 9
f 4 9 10
f 4 10 11
f 5 12 13
f 5 13 6
f 6 13 24
f 6 24 34
f 6 34 33
f 6 33 25
f 6 25 14
f 7 15 8
f 8 15 16
f 8 16 9
f 9 16 17
f 9 17 18
f 9 18 10
f 10 19 20
f 10 20 21
f 10 21 22
f 10 22 11
f 10 18 17
f 10 17 31
f 10 31 30
f 10 30 29
f 10 29 41
f 10 41 46
f 10 46 47
f 10 47 42
f 10 42 35
f 10 35 25
f 10 25 33
f 10 33 32
f 10 32 19
f 12 23 13
f 13 23 24
f 14 25 26
f 16 27 28
f 16 28 29
f 16 29 30
f 16 30 31
f 16 31 17
f 23 32 33
f 23 33 34
f 23 34 24
f 25 35 36
f 25 36 37
f 25 37 26
f 26 37 36
f 26 36 42
f 26 42 47
f 26 47 49
f 26 49 48
f 26 48 43
f 26 43 38
f 27 39 28
f 28 40 41
f 28 41 29
f 28 39 40
f 35 42 36
f 38 43 44
f 40 45 41
f 41 45 46
f 43 48 46
f 43 46 45
f 43 45 44
f 46 48 49
f 46 49 47

