# https://github.com/mikedh/trimesh
v 0.15743876 -0.15408759 1.87019223
v 0.17410531 -0.15446256 1.87019223
v 0.14195943 -0.16161796 1.87019223
v 0.14193285 -0.16162838 1.88688768
v 0.15743876 -0.15408759 1.87021840
v 0.22477848 -0.15550411 1.95353843
v 0.22477848 -0.15595198 1.92021303
v 0.19076303 -0.15596238 1.87019223
v 0.22477848 -0.15564990 1.93688232
v 0.13503940 -0.17767858 1.87019223
v 0.13426852 -0.17767858 1.97020772
v 0.14191515 -0.16163879 1.90355691
v 0.14189744 -0.16167005 1.92021303
v 0.15743876 -0.15415009 1.90355691
v 0.20742964 -0.15528538 1.97020772
v 0.22409624 -0.15560824 1.97020772
v 0.22477848 -0.15561866 1.96952679
v 0.15743876 -0.15422302 1.92021303
v 0.22477848 -0.15622277 1.91954521
v 0.20316775 -0.16331569 1.87019223
v 0.13563306 -0.19434328 1.87019223
v 0.13519002 -0.26048132 1.92021303
v 0.13459641 -0.26048132 1.97020772
v 0.13470275 -0.26048132 1.98687695
v 0.13464070 -0.17767858 1.98687695
v 0.14165819 -0.16218039 1.97020772
v 0.14187974 -0.16175337 1.93688232
v 0.15743876 -0.15442090 1.93688232
v 0.19076303 -0.15516040 1.97020772
v 0.17410531 -0.15620194 1.98687695
v 0.19076303 -0.15636859 1.98687695
v 0.20742964 -0.15661855 1.98687695
v 0.22477848 -0.15697269 1.98619602
v 0.22477848 -0.15562910 1.97020772
v 0.22477848 -0.16350318 1.90199866
v 0.20563982 -0.17765775 1.87019223
v 0.22477848 -0.16383645 1.90157963
v 0.22477848 -0.16970035 1.89482291
v 0.13814947 -0.21100798 1.87019223
v 0.13837985 -0.26048132 1.90355691
v 0.14202148 -0.26048132 1.99957850
v 0.14187086 -0.16289908 1.98687695
v 0.14211894 -0.17767858 1.99925115
v 0.14444926 -0.16546126 1.99788941
v 0.15743876 -0.15505623 1.97020772
v 0.17410531 -0.15510833 1.97020772
v 0.15743876 -0.15628526 1.98687695
v 0.15743876 -0.16338858 1.99922504
v 0.17410531 -0.16332609 1.99915947
v 0.20742964 -0.16360730 1.99908092
v 0.22409624 -0.15701432 1.98687695
v 0.22477848 -0.16383645 1.99901547
v 0.22477848 -0.15703519 1.98687695
v 0.19388193 -0.26048132 1.87019223
v 0.22477848 -0.17718904 1.89376224
v 0.22477848 -0.19434328 1.89395870
v 0.22477848 -0.19475989 1.89397175
v 0.22477848 -0.20631062 1.89494075
v 0.22477848 -0.21463257 1.89597520
v 0.15540080 -0.24433741 1.87019223
v 0.15572869 -0.26048132 1.87021840
v 0.14250881 -0.26048132 1.99972262
v 0.15743876 -0.22767269 2.00383430
v 0.15743876 -0.21100798 2.00366407
v 0.15743876 -0.17767858 2.00328427
v 0.17410531 -0.17767858 2.00317948
v 0.22409624 -0.17767858 2.00282602
v 0.22477848 -0.17712655 2.00266879
v 0.19269466 -0.26048132 1.87019223
v 0.21014096 -0.26048132 1.90355691
v 0.22477848 -0.26048132 1.93380508
v 0.15743876 -0.26048132 2.00395208
v 0.15743876 -0.24433741 2.00389975
v 0.17410531 -0.22767269 2.00396520
v 0.17410531 -0.21100798 2.00376874
v 0.22477848 -0.17767858 2.00281291
v 0.22477848 -0.26048132 1.99858333
v 0.15797038 -0.26048132 2.00395208
v 0.17410531 -0.26048132 2.00392598
v 0.22477848 -0.19434328 2.00285213
v 0.22477848 -0.19366629 2.00285213
v 0.22477848 -0.21100798 2.00248556
v 0.22477848 -0.21032058 2.00251167
f 1 2 8
f 1 8 20
f 1 20 36
f 1 36 54
f 1 54 69
f 1 69 60
f 1 60 39
f 1 39 21
f 1 21 10
f 1 10 3
f 1 3 4
f 1 4 5
f 1 5 6
f 1 6 2
f 2 7 8
f 2 6 9
f 2 9 7
f 3 10 11
f 3 11 4
f 4 12 5
f 4 11 12
f 5 12 13
f 5 13 14
f 5 14 6
f 6 15 16
f 6 16 17
f 6 17 34
f 6 34 33
f 6 33 53
f 6 53 52
f 6 52 68
f 6 68 76
f 6 76 81
f 6 81 80
f 6 80 83
f 6 83 82
f 6 82 77
f 6 77 71
f 6 71 59
f 6 59 58
f 6 58 57
f 6 57 56
f 6 56 55
f 6 55 38
f 6 38 37
f 6 37 35
f 6 35 19
f 6 19 7
f 6 7 9
f 6 14 18
f 6 18 15
f 7 19 20
f 7 20 8
f 10 21 22
f 10 22 23
f 10 23 11
f 11 23 24
f 11 24 25
f 11 25 26
f 11 26 13
f 11 13 12
f 13 18 14
f 13 26 27
f 13 27 18
f 15 28 29
f 15 29 30
f 15 30 31
f 15 31 32
f 15 32 16
f 15 18 28
f 16 32 33
f 16 33 34
f 16 34 17
f 18 27 26
f 18 26 28
f 19 35 20
f 20 35 37
f 20 37 38
f 20 38 36
f 21 39 40
f 21 40 22
f 22 40 61
f 22 61 69
f 22 69 54
f 22 54 70
f 22 70 71
f 22 71 77
f 22 77 79
f 22 79 78
f 22 78 72
f 22 72 62
f 22 62 41
f 22 41 24
f 22 24 23
f 24 41 25
f 25 42 26
f 25 41 43
f 25 43 44
f 25 44 42
f 26 42 45
f 26 45 28
f 28 45 46
f 28 46 29
f 29 46 30
f 30 47 48
f 30 48 49
f 30 49 50
f 30 50 31
f 30 46 45
f 30 45 47
f 31 50 32
f 32 51 33
f 32 50 52
f 32 52 51
f 33 51 53
f 36 38 55
f 36 55 56
f 36 56 57
f 36 57 58
f 36 58 59
f 36 59 54
f 39 60 61
f 39 61 40
f 41 62 43
f 42 44 47
f 42 47 45
f 43 62 63
f 43 63 64
f 43 64 65
f 43 65 44
f 44 65 48
f 44 48 47
f 48 65 49
f 49 65 50
f 50 65 66
f 50 66 67
f 50 67 52
f 51 52 53
f 52 67 68
f 54 59 70
f 59 71 70
f 60 69 61
f 62 72 73
f 62 73 63
f 63 73 74
f 63 74 64
f 64 74 65
f 65 74 75
f 65 75 66
f 66 75 67
f 67 76 68
f 67 75 74
f 67 74 76
f 72 78 74
f 72 74 73
f 74 78 79
f 74 79 80
f 74 80 81
f 74 81 76
f 77 82 79
f 79 82 83
f 79 83 80

