# https://github.com/mikedh/trimesh
v -2.48292814 -0.59431617 0.89682256
v -2.46626631 -0.59431617 0.89682256
v -2.48292814 -0.57769253 0.89681394
v -2.48755910 -0.59431617 0.89680530
v -2.48755910 -0.59896391 0.89680530
v -2.48755910 -0.66563060 0.89679667
v -2.48292534 -0.66100745 0.89680530
v -2.46626631 -0.61098899 0.89681394
v -2.46113288 -0.61354648 0.89678804
v -2.46113288 -0.59431617 0.89679667
v -2.46113288 -0.58920121 0.89679667
v -2.46113288 -0.57255298 0.89678804
v -2.46113288 -0.45982701 0.89667583
v -2.46508273 -0.45982701 0.89668446
v -2.48755910 -0.57769253 0.89679667
v -2.48338317 -0.45982701 0.89668446
v -2.48755910 -0.45982701 0.89667583
v -2.48755910 -0.67765568 0.89678804
v -2.48292534 -0.67765568 0.89678804
v -2.46626631 -0.66100745 0.89675351
v -2.45904491 -0.66100745 0.89671898
v -2.45904491 -0.61467767 0.89677077
v -2.46113288 -0.45982701 0.84867595
v -2.48755910 -0.45982701 0.80932484
v -2.48755910 -0.68227881 0.89677077
v -2.48292534 -0.69432850 0.89670173
v -2.46626631 -0.67765568 0.89671036
v -2.45904491 -0.67765568 0.89667583
v -2.45904491 -0.61467767 0.83294069
v -2.46117478 -0.45982701 0.83186174
v -2.46113288 -0.45985160 0.83187900
v -2.48292814 -0.45982701 0.80872064
v -2.48755910 -0.46103197 0.80931621
v -2.48755910 -0.69432850 0.89670173
v -2.45904491 -0.69432850 0.89656362
v -2.48755910 -0.69895165 0.89664993
v -2.48755910 -0.71105050 0.89649457
v -2.48292534 -0.71105050 0.89647730
v -2.45904491 -0.67765568 0.83295794
v -2.47230967 -0.49435303 0.81028295
v -2.47231247 -0.47770479 0.81027432
v -2.47234877 -0.45982701 0.81030883
v -2.48292814 -0.46103197 0.80871201
v -2.48292814 -0.47770479 0.80864296
v -2.48755910 -0.47133568 0.80928168
v -2.46626631 -0.71105050 0.89636509
v -2.45904491 -0.71100133 0.89630467
v -2.48755910 -0.71105050 0.80972190
v -2.45904491 -0.71100133 0.83301837
v -2.47232922 -0.57769253 0.81031747
v -2.48292814 -0.49435303 0.80866021
v -2.48755910 -0.51102584 0.80928168
v -2.48755910 -0.47770479 0.80926443
v -2.45904491 -0.71105050 0.88835505
v -2.48288910 -0.71105050 0.80918673
v -2.48755910 -0.59431617 0.80941116
v -2.48292814 -0.59431617 0.80879832
v -2.48292814 -0.61098899 0.80885011
v -2.45904491 -0.71105050 0.87047916
v -2.46144276 -0.71105050 0.83213795
v -2.47291264 -0.71105050 0.81057641
v -2.47239622 -0.59431617 0.81033473
v -2.48292814 -0.57769253 0.80875516
v -2.48755910 -0.57120046 0.80935938
v -2.47294333 -0.71100133 0.81055053
v -2.48755910 -0.58779950 0.80939389
v -2.47251346 -0.61467767 0.81036063
v -2.48755910 -0.57769253 0.80936801
f 1 2 3
f 1 3 15
f 1 15 4
f 1 4 5
f 1 5 6
f 1 6 7
f 1 7 2
f 2 7 8
f 2 8 9
f 2 9 10
f 2 10 11
f 2 11 12
f 2 12 13
f 2 13 14
f 2 14 3
f 3 14 16
f 3 16 17
f 3 17 15
f 4 15 17
f 4 17 24
f 4 24 33
f 4 33 45
f 4 45 53
f 4 53 52
f 4 52 64
f 4 64 68
f 4 68 66
f 4 66 56
f 4 56 48
f 4 48 37
f 4 37 36
f 4 36 34
f 4 34 25
f 4 25 18
f 4 18 6
f 4 6 5
f 6 18 7
f 7 18 19
f 7 19 8
f 8 19 20
f 8 20 9
f 9 20 21
f 9 21 22
f 9 22 10
f 10 22 11
f 11 22 12
f 12 22 13
f 13 23 30
f 13 30 42
f 13 42 32
f 13 32 24
f 13 24 17
f 13 17 16
f 13 16 14
f 13 22 29
f 13 29 23
f 18 25 19
f 19 25 26
f 19 26 27
f 19 27 20
f 20 27 28
f 20 28 21
f 21 28 35
f 21 35 47
f 21 47 54
f 21 54 59
f 21 59 49
f 21 49 39
f 21 39 29
f 21 29 22
f 23 29 31
f 23 31 30
f 24 32 43
f 24 43 33
f 25 34 26
f 26 35 28
f 26 28 27
f 26 34 36
f 26 36 37
f 26 37 38
f 26 38 35
f 29 39 40
f 29 40 41
f 29 41 42
f 29 42 31
f 30 31 42
f 32 42 43
f 33 43 44
f 33 44 45
f 35 38 46
f 35 46 47
f 37 48 55
f 37 55 61
f 37 61 60
f 37 60 59
f 37 59 54
f 37 54 46
f 37 46 38
f 39 49 50
f 39 50 40
f 40 50 41
f 41 50 44
f 41 44 42
f 42 44 43
f 44 51 52
f 44 52 53
f 44 53 45
f 44 50 51
f 46 54 47
f 48 56 57
f 48 57 58
f 48 58 55
f 49 59 60
f 49 60 61
f 49 61 62
f 49 62 50
f 50 62 63
f 50 63 51
f 51 63 52
f 52 63 64
f 55 65 61
f 55 58 65
f 56 66 57
f 57 66 63
f 57 63 67
f 57 67 65
f 57 65 58
f 61 65 62
f 62 65 67
f 62 67 63
f 63 66 68
f 63 68 64

