# https://github.com/mikedh/trimesh
v 0.66870092 -0.72357498 1.15874137
v 0.66186421 -0.55371173 1.15874548
v 0.66103797 -0.70806738 1.15874548
v 0.59400921 -0.72357497 1.15874137
v 0.65497636 -0.72357498 1.12234309
v 0.65101328 -0.29071815 1.12577379
v 0.66241264 -0.29071815 1.15874548
v 0.66247844 -0.39439872 1.15874548
v 0.66246381 -0.40414392 1.15874548
v 0.66244918 -0.41105031 1.15874548
v 0.66190811 -0.54430548 1.15874548
v 0.60442878 -0.70806737 1.15874548
v 0.60272508 -0.29071815 1.15874548
v 0.61438033 -0.29071815 1.12635721
v 0.61021983 -0.72357497 1.12274162
v 0.60358793 -0.56841428 1.15874548
v 0.60272508 -0.40138985 1.15874548
v 0.60269582 -0.39439872 1.15874548
v 0.60268121 -0.38469588 1.15874548
v 0.60267388 -0.37770475 1.15874548
v 0.60270315 -0.30139551 1.15874548
v 0.65264384 -0.72357498 1.12107762
v 0.64076921 -0.29071815 1.12049832
v 0.62199941 -0.29071815 1.12222805
v 0.62411259 -0.72357497 1.11713746
v 0.62411987 -0.29071815 1.12108585
v 0.64076921 -0.72357498 1.11677179
f 1 2 3
f 1 3 12
f 1 12 4
f 1 4 15
f 1 15 25
f 1 25 27
f 1 27 22
f 1 22 5
f 1 5 6
f 1 6 7
f 1 7 8
f 1 8 9
f 1 9 10
f 1 10 11
f 1 11 2
f 2 11 10
f 2 10 9
f 2 9 8
f 2 8 7
f 2 7 13
f 2 13 21
f 2 21 20
f 2 20 19
f 2 19 18
f 2 18 17
f 2 17 16
f 2 16 12
f 2 12 3
f 4 13 14
f 4 14 15
f 4 12 16
f 4 16 17
f 4 17 18
f 4 18 19
f 4 19 20
f 4 20 21
f 4 21 13
f 5 22 6
f 6 23 26
f 6 26 24
f 6 24 14
f 6 14 13
f 6 13 7
f 6 22 23
f 14 24 15
f 15 24 26
f 15 26 25
f 22 27 23
f 23 27 25
f 23 25 26

