# https://github.com/mikedh/trimesh
v -3.03297630 -0.72658872 0.82826189
v -3.03297630 -0.71077918 0.83635080
v -3.03297630 -0.72659337 0.90312183
v -3.04416963 -0.72659337 0.82850246
v -3.44729197 -0.72659647 0.83350915
v -3.44729197 -0.71319605 0.83779417
v -3.44729197 -0.71097890 0.83850834
v -3.03297630 -0.71077918 0.89575462
v -3.24151301 -0.71077918 0.83799714
v -3.03297630 -0.72659337 0.90340750
v -3.24151301 -0.72659647 0.83244918
v -3.28292024 -0.72659647 0.83248676
v -3.29841248 -0.72659647 0.83250932
v -3.31516193 -0.72659647 0.83257698
v -3.36536974 -0.72659647 0.83284761
v -3.44729197 -0.72659647 0.90506136
v -3.44729197 -0.71097890 0.89826548
v -3.16603911 -0.71077918 0.89718295
v -3.24151301 -0.71077918 0.89729572
v -3.16628245 -0.72659337 0.90427954
v -3.24151301 -0.72659647 0.90439982
v -3.43289474 -0.72659647 0.90503129
v -3.43289474 -0.71097890 0.89822789
v -3.18270746 -0.71077918 0.89723557
v -3.23271246 -0.71077918 0.89728820
v -3.41622641 -0.72659647 0.90498619
f 1 2 8
f 1 8 10
f 1 10 3
f 1 3 4
f 1 4 5
f 1 5 6
f 1 6 7
f 1 7 2
f 2 7 9
f 2 9 19
f 2 19 25
f 2 25 24
f 2 24 18
f 2 18 8
f 3 10 21
f 3 21 11
f 3 11 4
f 4 11 12
f 4 12 13
f 4 13 14
f 4 14 15
f 4 15 5
f 5 15 14
f 5 14 13
f 5 13 12
f 5 12 11
f 5 11 21
f 5 21 26
f 5 26 22
f 5 22 16
f 5 16 17
f 5 17 7
f 5 7 6
f 7 17 19
f 7 19 9
f 8 18 10
f 10 18 20
f 10 20 21
f 16 22 17
f 17 22 23
f 17 23 24
f 17 24 25
f 17 25 19
f 18 24 23
f 18 23 20
f 20 23 26
f 20 26 21
f 22 26 23

