# https://github.com/mikedh/trimesh
v -3.92787066 -0.70949332 1.12338492
v -3.96898216 -0.70949332 1.12338492
v -3.90235621 -0.70949332 1.16520583
v -3.90236503 -0.73346778 1.12338492
v -3.99010853 -0.75143265 1.12338492
v -3.97849257 -0.70949332 1.14061906
v -3.90235621 -0.72765911 1.15398749
v -3.90235621 -0.70949332 1.22197711
v -3.90236503 -0.78799255 1.12338492
v -3.99135595 -0.75498544 1.12338492
v -3.99120551 -0.75333232 1.12471063
v -3.98210208 -0.70949332 1.15356416
v -3.90235621 -0.72765911 1.23035466
v -3.90236503 -0.79577397 1.20077700
v -3.90236503 -0.79572831 1.18686269
v -3.90236503 -0.79539038 1.17021899
v -3.90236503 -0.79400215 1.15355302
v -3.90236503 -0.79353636 1.15080135
v -3.92594201 -0.70949332 1.23645958
v -3.92600394 -0.70955725 1.23717256
v -3.90236503 -0.73282846 1.23718369
v -3.94644910 -0.80086115 1.12338492
v -3.99178058 -0.76031917 1.12338492
v -3.99110823 -0.75504937 1.22019465
v -3.98142085 -0.70949332 1.20352867
v -3.90236503 -0.79209332 1.22019465
v -3.90236503 -0.79575573 1.20352867
v -3.90236503 -0.78774596 1.23718369
v -3.94959863 -0.80177445 1.12338492
v -3.94959863 -0.80141825 1.23718369
v -3.92638434 -0.70949332 1.23648185
v -3.94154795 -0.70949332 1.23717256
v -3.91600697 -0.72765911 1.23718369
v -3.99273605 -0.77766298 1.12338492
v -3.99170977 -0.76318698 1.20352867
v -3.99164790 -0.76336964 1.22019465
v -3.99157709 -0.76494969 1.23718369
v -3.99096667 -0.75661114 1.23718369
v -3.98112890 -0.70949332 1.20467613
v -3.95732196 -0.80245943 1.12338492
v -3.96774356 -0.80244116 1.23718369
v -3.95956908 -0.80263297 1.12338492
v -3.96765511 -0.70949332 1.23717256
v -3.97285708 -0.72765911 1.23718369
v -3.99211675 -0.78887846 1.12338492
v -3.99198407 -0.78851314 1.20352867
v -3.99190444 -0.78825740 1.23718369
v -3.99241752 -0.77766298 1.20352867
v -3.99232906 -0.77766298 1.22019465
v -3.99221403 -0.77766298 1.23686063
v -3.99219638 -0.77744378 1.23718369
v -3.99085163 -0.75635540 1.23718369
v -3.97806788 -0.70949332 1.21621754
v -3.97456453 -0.80266951 1.22879501
v -3.97975763 -0.79826734 1.23718369
v -3.97459994 -0.80266951 1.22879501
v -3.96115267 -0.80266951 1.12338492
v -3.98495961 -0.74435448 1.23718369
v -3.98349988 -0.79721701 1.12338492
v -3.99193984 -0.78841268 1.22019465
v -3.99190444 -0.78826655 1.23686063
v -3.99172753 -0.78842183 1.23718369
v -3.99220520 -0.77766298 1.23718369
v -3.96790283 -0.80278824 1.12338492
v -3.98142973 -0.79765540 1.23718369
v -3.97516613 -0.80278824 1.12338492
v -3.98292487 -0.79675122 1.20352867
f 1 2 6
f 1 6 12
f 1 12 25
f 1 25 39
f 1 39 53
f 1 53 43
f 1 43 32
f 1 32 31
f 1 31 19
f 1 19 8
f 1 8 3
f 1 3 4
f 1 4 9
f 1 9 22
f 1 22 29
f 1 29 40
f 1 40 42
f 1 42 57
f 1 57 64
f 1 64 66
f 1 66 59
f 1 59 45
f 1 45 34
f 1 34 23
f 1 23 10
f 1 10 5
f 1 5 2
f 2 5 6
f 3 7 4
f 3 8 13
f 3 13 7
f 4 7 9
f 5 10 11
f 5 11 12
f 5 12 6
f 7 13 14
f 7 14 15
f 7 15 16
f 7 16 17
f 7 17 18
f 7 18 9
f 8 19 20
f 8 20 21
f 8 21 13
f 9 18 22
f 10 23 24
f 10 24 11
f 11 24 12
f 12 24 25
f 13 26 27
f 13 27 14
f 13 21 28
f 13 28 26
f 14 29 15
f 14 27 30
f 14 30 29
f 15 29 16
f 16 29 17
f 17 29 18
f 18 29 22
f 19 31 20
f 20 32 33
f 20 33 21
f 20 31 32
f 21 33 44
f 21 44 58
f 21 58 52
f 21 52 38
f 21 38 37
f 21 37 51
f 21 51 63
f 21 63 47
f 21 47 62
f 21 62 65
f 21 65 55
f 21 55 41
f 21 41 30
f 21 30 28
f 23 34 35
f 23 35 24
f 24 36 37
f 24 37 38
f 24 38 25
f 24 35 36
f 25 38 39
f 26 28 30
f 26 30 27
f 29 30 40
f 30 41 42
f 30 42 40
f 32 43 44
f 32 44 33
f 34 45 46
f 34 46 47
f 34 47 48
f 34 48 35
f 35 48 36
f 36 49 50
f 36 50 37
f 36 48 49
f 37 50 51
f 38 52 53
f 38 53 39
f 41 54 42
f 41 55 56
f 41 56 54
f 42 54 57
f 43 58 44
f 43 53 58
f 45 59 46
f 46 60 61
f 46 61 47
f 46 59 60
f 47 63 50
f 47 50 49
f 47 49 48
f 47 61 62
f 50 63 51
f 52 58 53
f 54 64 57
f 54 56 66
f 54 66 64
f 55 65 56
f 56 65 59
f 56 59 66
f 59 65 67
f 59 67 62
f 59 62 61
f 59 61 60
f 62 67 65

