# https://github.com/mikedh/trimesh
v -2.04675224 1.62789337 0.18868249
v -2.05863195 1.62789337 0.18625211
v -2.04336043 1.62789337 0.18812801
v -2.03637739 1.79819533 0.18484749
v -2.04675224 1.79819533 0.18601187
v -2.05801061 1.79819533 0.18481976
v -2.07528870 1.62789337 0.17321308
v -2.06200097 1.79819533 0.18247258
v -2.06635038 1.79819533 0.17985736
v -2.06636177 1.78950851 0.17990359
v -2.06657839 1.72279829 0.18005144
v -2.03536271 1.62789337 0.18607652
v -2.03076246 1.79819533 0.17531079
v -2.08540703 1.62789337 0.16519192
v -2.08540703 1.79819533 0.16430475
v -2.03368106 1.62789337 0.18300851
v -2.02895538 1.79819533 0.16662427
v -2.03000430 1.62789337 0.17531079
v -2.08540703 1.62789337 0.11398763
v -2.08540703 1.79819533 0.11819229
v -2.02730225 1.79819533 0.15864002
v -2.02912638 1.62789337 0.17019129
v -2.02717682 1.68946818 0.15864002
v -2.02728513 1.78950851 0.15864002
v -2.08391350 1.62789337 0.11136318
v -2.07353865 1.79819533 0.09895253
v -2.02740489 1.79819533 0.14994426
v -2.02746757 1.62789337 0.15864002
v -2.02722817 1.65610474 0.15864002
v -2.02722245 1.62789337 0.14196007
v -2.08201523 1.62789337 0.10861860
v -2.06342604 1.79819533 0.09685483
v -2.06342604 1.62789337 0.09596772
v -2.06648719 1.62789337 0.09669773
v -2.07360139 1.67279481 0.09879544
v -2.02771270 1.79819533 0.12528931
v -2.02730797 1.62789337 0.13684058
v -2.02770131 1.78950851 0.12528931
v -2.07365268 1.62789337 0.09904491
v -2.04675224 1.79819533 0.09582905
v -2.04675224 1.62789337 0.09427659
v -2.05188264 1.62789337 0.09466474
v -2.02887558 1.79819533 0.11660279
v -2.02955961 1.62789337 0.10861860
v -2.02751320 1.62789337 0.12528931
v -2.04128545 1.79819533 0.09682709
v -2.03486679 1.62789337 0.09735384
v -2.03529430 1.79819533 0.09792676
v -2.02998718 1.79819533 0.10861860
v -2.03275191 1.79819533 0.10302782
f 1 2 7
f 1 7 14
f 1 14 19
f 1 19 25
f 1 25 31
f 1 31 39
f 1 39 34
f 1 34 33
f 1 33 42
f 1 42 41
f 1 41 47
f 1 47 44
f 1 44 45
f 1 45 37
f 1 37 30
f 1 30 28
f 1 28 22
f 1 22 18
f 1 18 16
f 1 16 12
f 1 12 3
f 1 3 4
f 1 4 5
f 1 5 6
f 1 6 2
f 2 6 8
f 2 8 9
f 2 9 10
f 2 10 11
f 2 11 7
f 3 12 4
f 4 13 17
f 4 17 21
f 4 21 27
f 4 27 36
f 4 36 43
f 4 43 49
f 4 49 50
f 4 50 48
f 4 48 46
f 4 46 40
f 4 40 32
f 4 32 26
f 4 26 20
f 4 20 15
f 4 15 9
f 4 9 8
f 4 8 6
f 4 6 5
f 4 12 13
f 7 11 14
f 9 15 10
f 10 15 14
f 10 14 11
f 12 16 13
f 13 16 18
f 13 18 17
f 14 15 20
f 14 20 19
f 17 18 21
f 18 22 23
f 18 23 24
f 18 24 21
f 19 20 25
f 20 26 25
f 21 24 27
f 22 28 29
f 22 29 23
f 23 29 30
f 23 30 24
f 24 30 27
f 25 26 31
f 26 32 33
f 26 33 34
f 26 34 35
f 26 35 31
f 27 30 36
f 28 30 29
f 30 37 38
f 30 38 36
f 31 35 39
f 32 40 41
f 32 41 42
f 32 42 33
f 34 39 35
f 36 38 44
f 36 44 43
f 37 45 38
f 38 45 44
f 40 46 41
f 41 46 48
f 41 48 47
f 43 44 49
f 44 47 49
f 47 48 50
f 47 50 49

