# https://github.com/mikedh/trimesh
v -2.95491901 -0.23217590 0.83069584
v -2.91203146 -0.23217590 0.83225041
v -2.95491901 -0.29155199 0.83371238
v -2.95491901 -0.23217590 0.89827034
v -2.91203146 -0.29155199 0.83594171
v -2.91203146 -0.23217590 0.89817111
v -2.95491901 -0.29155199 0.89807850
v -2.95491901 -0.23299549 0.89827034
v -2.94959953 -0.23217590 0.89827034
v -2.91203146 -0.29155199 0.89795281
v -2.91317765 -0.23217590 0.89817773
v -2.91626774 -0.26100658 0.89811157
v -2.91203146 -0.25677498 0.89809834
v -2.93293573 -0.29155199 0.89803219
v -2.94959953 -0.27767140 0.89815788
v -2.95491901 -0.28210645 0.89813803
v -2.95491901 -0.26100658 0.89821080
v -2.94959953 -0.26100658 0.89820419
v -2.93293573 -0.23217590 0.89823726
v -2.91203146 -0.27767140 0.89803219
v -2.91626774 -0.29155199 0.89797927
v -2.91626774 -0.23217590 0.89819096
v -2.91626774 -0.27767140 0.89805865
v -2.91203146 -0.26100658 0.89808511
v -2.93293573 -0.26100658 0.89817111
v -2.93293573 -0.27767140 0.89811819
v -2.95491901 -0.27767140 0.89815788
v -2.92077271 -0.23217590 0.89820419
f 1 2 3
f 1 3 7
f 1 7 16
f 1 16 27
f 1 27 17
f 1 17 8
f 1 8 4
f 1 4 9
f 1 9 19
f 1 19 28
f 1 28 22
f 1 22 11
f 1 11 6
f 1 6 2
f 2 5 3
f 2 6 13
f 2 13 24
f 2 24 20
f 2 20 10
f 2 10 5
f 3 5 10
f 3 10 21
f 3 21 14
f 3 14 7
f 4 8 9
f 6 11 12
f 6 12 13
f 7 14 15
f 7 15 16
f 8 17 9
f 9 17 18
f 9 18 25
f 9 25 19
f 10 20 23
f 10 23 21
f 11 22 12
f 12 23 20
f 12 20 24
f 12 24 13
f 12 22 25
f 12 25 26
f 12 26 23
f 14 21 26
f 14 26 15
f 15 25 18
f 15 18 17
f 15 17 27
f 15 27 16
f 15 26 25
f 19 25 28
f 21 23 26
f 22 28 25

