# https://github.com/mikedh/trimesh
v 2.05142619 -0.75047105 1.65710022
v 2.05142619 -0.75072339 1.85727973
v 2.05142619 -0.78429153 1.65710022
v 1.77057884 -0.75089621 1.65710022
v 2.05142619 -0.78517297 1.85727973
v 1.75748974 -0.75091696 1.65710022
v 1.67411761 -0.75107252 1.65710022
v 1.67058112 -0.75107944 1.65710022
v 1.63615099 -0.75116238 1.65710022
v 1.66269512 -0.75264532 1.83047418
v 1.63615099 -0.75285964 1.83686206
v 1.63615099 -0.75344037 1.85727973
v 2.05142619 -0.78433299 1.66419353
v 1.66102850 -0.78516260 1.65710022
v 2.05142619 -0.78449547 1.69752412
v 1.67395501 -0.78577445 1.85727973
v 1.67411761 -0.78538386 1.72021478
v 1.67411761 -0.78532508 1.70355926
v 1.65745129 -0.78522483 1.67022867
v 1.63615099 -0.78516260 1.65710022
v 1.63615099 -0.75270410 1.82050045
v 1.63615099 -0.78574333 1.85727973
v 2.05142619 -0.78436410 1.67022867
v 1.65745129 -0.78516952 1.65710022
v 2.05142619 -0.78444707 1.68688419
v 1.65745129 -0.78578482 1.85727973
v 1.65745129 -0.78540803 1.72021478
v 1.65745129 -0.78535274 1.70355926
v 1.65745129 -0.78529051 1.68688419
v 1.63615099 -0.78528360 1.68688419
v 1.63615099 -0.78519717 1.66558472
v 1.64436220 -0.78516606 1.65710022
v 1.63615099 -0.78533546 1.70355926
f 1 2 5
f 1 5 15
f 1 15 25
f 1 25 23
f 1 23 13
f 1 13 3
f 1 3 14
f 1 14 24
f 1 24 32
f 1 32 20
f 1 20 9
f 1 9 8
f 1 8 7
f 1 7 6
f 1 6 4
f 1 4 2
f 2 4 6
f 2 6 7
f 2 7 8
f 2 8 9
f 2 9 10
f 2 10 11
f 2 11 12
f 2 12 22
f 2 22 26
f 2 26 16
f 2 16 5
f 3 13 14
f 5 16 17
f 5 17 18
f 5 18 19
f 5 19 14
f 5 14 15
f 9 20 31
f 9 31 30
f 9 30 33
f 9 33 22
f 9 22 12
f 9 12 11
f 9 11 21
f 9 21 10
f 10 21 11
f 13 23 14
f 14 19 24
f 14 23 25
f 14 25 15
f 16 26 27
f 16 27 17
f 17 27 28
f 17 28 18
f 18 28 29
f 18 29 19
f 19 29 30
f 19 30 31
f 19 31 32
f 19 32 24
f 20 32 31
f 22 33 26
f 26 33 27
f 27 33 30
f 27 30 28
f 28 30 29

