# https://github.com/mikedh/trimesh
v 2.07494948 -0.61469191 1.02048439
v 2.07009535 -0.61465406 0.90546204
v 2.07349595 -0.61469191 0.91697105
v 2.10543601 -0.61469191 1.02048439
v 2.07492206 -0.49431542 1.02048439
v 2.06986683 -0.42778858 0.90510063
v 2.10803670 -0.61469191 0.90546204
v 2.07001310 -0.45972752 0.90510063
v 2.08329097 -0.45980320 0.90510063
v 2.11360839 -0.61469191 1.02041662
v 2.11361299 -0.61124825 1.02048439
v 2.07492206 -0.49405052 1.02048439
v 2.06986683 -0.42763722 0.90510063
v 2.11379580 -0.61469191 0.90546204
v 2.11355357 -0.45980320 0.90510063
v 2.11655647 -0.22809455 1.02047310
v 2.11364040 -0.59459762 1.02048439
v 2.07492659 -0.47736205 1.02048439
v 2.07494030 -0.36073196 1.02047310
v 2.07505914 -0.26075249 1.02047310
v 2.07016395 -0.26101739 0.90510063
v 2.11644221 -0.22809455 0.90510063
v 2.07520542 -0.22809455 1.02047310
v 2.11358558 -0.45980320 1.02048439
v 2.11364953 -0.56099362 1.02048439
v 2.11365871 -0.57764426 1.02048439
v 2.11365871 -0.57794699 1.02048439
v 2.07494489 -0.45980320 1.02048439
v 2.07509115 -0.24406403 1.02047310
v 2.07022792 -0.24432891 0.90510063
v 2.07032847 -0.22809455 0.90510063
f 1 2 3
f 1 3 7
f 1 7 14
f 1 14 10
f 1 10 4
f 1 4 11
f 1 11 17
f 1 17 27
f 1 27 26
f 1 26 25
f 1 25 24
f 1 24 28
f 1 28 18
f 1 18 12
f 1 12 5
f 1 5 6
f 1 6 2
f 2 7 3
f 2 6 8
f 2 8 9
f 2 9 7
f 4 10 11
f 5 12 13
f 5 13 6
f 6 13 21
f 6 21 30
f 6 30 31
f 6 31 22
f 6 22 15
f 6 15 9
f 6 9 8
f 7 9 15
f 7 15 14
f 10 14 16
f 10 16 11
f 11 16 17
f 12 18 19
f 12 19 13
f 13 19 20
f 13 20 21
f 14 15 22
f 14 22 16
f 16 22 31
f 16 31 23
f 16 23 28
f 16 28 24
f 16 24 25
f 16 25 26
f 16 26 27
f 16 27 17
f 18 28 19
f 19 28 20
f 20 28 29
f 20 29 21
f 21 29 30
f 23 29 28
f 23 31 29
f 29 31 30

