# https://github.com/mikedh/trimesh
v -1.92978119 -0.16036711 0.22488025
v -1.92690011 -0.17447255 0.22488025
v -1.92686876 -0.17474381 0.24154490
v -1.92977070 -0.16036711 0.24154490
v -1.92651387 -0.14573726 0.32489530
v -1.92655559 -0.14579150 0.25820954
v -1.92656608 -0.14584575 0.24154490
v -1.92655559 -0.14593617 0.22488025
v -1.92652436 -0.14599044 0.20775349
v -1.92972897 -0.16036711 0.20775349
v -1.92965590 -0.16074688 0.20775349
v -1.92687925 -0.17436403 0.20775349
v -1.91074110 -0.21035097 0.24154490
v -1.91080374 -0.21035097 0.25820954
v -1.92682704 -0.17489753 0.25820954
v -1.92968725 -0.16036711 0.34155994
v -1.92651387 -0.14580054 0.34155994
v -1.92202531 -0.13735538 0.30823066
v -1.92650350 -0.14568299 0.30823066
v -1.92649301 -0.14579150 0.35819741
v -1.92637821 -0.14592714 0.48547936
v -1.92192088 -0.13745483 0.25820954
v -1.92181651 -0.13766279 0.20775349
v -1.91053236 -0.21035097 0.20775349
v -1.91054279 -0.21035097 0.20821561
v -1.91081417 -0.21035097 0.27487419
v -1.91078288 -0.21035097 0.30823066
v -1.91076202 -0.21035097 0.32489530
v -1.92673310 -0.17428267 0.48547936
v -1.92684790 -0.17443637 0.34155994
v -1.92945753 -0.16036711 0.47484986
v -1.92749509 -0.15117147 0.48547936
v -1.91368482 -0.13109836 0.30823066
v -1.91347602 -0.13074571 0.20821561
v -1.91347602 -0.13074571 0.20775349
v -1.92171214 -0.13759046 0.48547936
v -1.91370568 -0.13093558 0.20775349
v -1.84521782 -0.21035097 0.20775349
v -1.91073067 -0.21035097 0.34155994
v -1.91044885 -0.21035097 0.48547936
v -1.92845545 -0.16542156 0.48547936
v -1.92943667 -0.16036711 0.48547936
v -1.89867404 -0.12379247 0.30823066
v -1.91307935 -0.13054680 0.20775349
v -1.91338208 -0.13163183 0.48547936
v -1.82790008 -0.17703142 0.20775349
v -1.84302566 -0.21035097 0.40819134
v -1.84311960 -0.21035097 0.48547936
v -1.89867404 -0.12357545 0.20775349
v -1.89867404 -0.12448869 0.48547936
v -1.88492635 -0.11989539 0.48547936
v -1.82414216 -0.16449023 0.20775349
v -1.82806710 -0.17703142 0.39152670
v -1.84302566 -0.21035097 0.42485599
v -1.82828632 -0.17703142 0.48547936
v -1.89826693 -0.12347599 0.20775349
v -1.88511428 -0.11974167 0.30823066
v -1.88506207 -0.11973261 0.29153883
v -1.88486370 -0.11975976 0.27487419
v -1.87658592 -0.11807794 0.48547936
v -1.82314008 -0.15622589 0.20775349
v -1.82343238 -0.15407394 0.39152670
v -1.82452840 -0.16240155 0.39152670
v -1.82698151 -0.17096428 0.48547936
v -1.88338144 -0.11986827 0.20775349
v -1.87660678 -0.11805985 0.44152063
v -1.87678423 -0.11810509 0.30823066
v -1.87673201 -0.11812316 0.29153883
v -1.87653371 -0.11816837 0.27487419
v -1.87255655 -0.11805985 0.48547936
v -1.86535393 -0.11799658 0.45818521
v -1.86535393 -0.11797849 0.44152063
v -1.82320272 -0.15043907 0.20775349
v -1.82321315 -0.15016780 0.24154490
v -1.82343238 -0.15095444 0.39152670
v -1.82346367 -0.15366704 0.40819134
v -1.82479984 -0.16036711 0.48547936
v -1.87528104 -0.11851196 0.20775349
v -1.86661702 -0.11810509 0.30823066
v -1.86535393 -0.11798752 0.42485599
v -1.86666917 -0.11812316 0.29153883
v -1.86673182 -0.11816837 0.27487419
v -1.87505139 -0.11847581 0.20775349
v -1.86535393 -0.11804179 0.48547936
v -1.86227455 -0.11825879 0.48547936
v -1.85692993 -0.11865662 0.48547936
v -1.85690907 -0.11864759 0.47484986
v -1.85685686 -0.11862047 0.44152063
v -1.82657440 -0.14232845 0.20775349
v -1.82661613 -0.14186731 0.22488025
v -1.82321315 -0.15020398 0.22488025
v -1.82655348 -0.14184016 0.24154490
v -1.82651176 -0.14193964 0.25820954
v -1.82626124 -0.14255450 0.34155994
v -1.82632388 -0.14254544 0.35819741
v -1.82346367 -0.15114434 0.40819134
v -1.82359939 -0.15264529 0.44152063
v -1.82365155 -0.15228361 0.45359091
v -1.82365155 -0.15191289 0.45359091
v -1.82562448 -0.15430902 0.48547936
v -1.85685686 -0.11862950 0.42485599
v -1.85687778 -0.11863856 0.40819134
v -1.85691950 -0.11865662 0.39152670
v -1.86535393 -0.11801467 0.40819134
v -1.85915338 -0.11882843 0.24154490
v -1.85702387 -0.11870186 0.36659768
v -1.86699277 -0.11826785 0.25820954
v -1.86960246 -0.11847581 0.20775349
v -1.86000931 -0.11886461 0.22488025
v -1.85162710 -0.12172185 0.48547936
v -1.84857901 -0.12331324 0.39152670
v -1.82674142 -0.14211142 0.20775349
v -1.83494618 -0.13180361 0.22488025
v -1.83488354 -0.13176746 0.24154490
v -1.83506098 -0.13187597 0.20821561
v -1.83460173 -0.13158662 0.34155994
v -1.83465388 -0.13159565 0.35819741
v -1.83540550 -0.13181267 0.48547936
v -1.82643868 -0.14257259 0.37486205
v -1.82657440 -0.14262683 0.39152670
v -1.82710674 -0.14370282 0.48547936
v -1.82359939 -0.15171399 0.44152063
v -1.84868344 -0.12328612 0.35819741
v -1.84868344 -0.12346694 0.27487419
v -1.85696128 -0.11868377 0.37771648
v -1.84868344 -0.12355736 0.24154490
v -1.84868344 -0.12381959 0.20775349
v -1.85866277 -0.11882843 0.25820954
v -1.84868344 -0.12362972 0.22488025
v -1.86149163 -0.11896406 0.20775349
v -1.86090709 -0.11911779 0.20775349
v -1.86126197 -0.11898215 0.20775349
v -1.84859994 -0.12348503 0.48547936
v -1.83507142 -0.13187597 0.20775349
v -1.83484176 -0.13173128 0.25820954
f 1 2 3
f 1 3 4
f 1 4 5
f 1 5 6
f 1 6 7
f 1 7 8
f 1 8 9
f 1 9 10
f 1 10 11
f 1 11 12
f 1 12 2
f 2 12 3
f 3 12 13
f 3 13 14
f 3 14 15
f 3 15 4
f 4 15 16
f 4 16 17
f 4 17 5
f 5 18 19
f 5 19 6
f 5 17 20
f 5 20 21
f 5 21 18
f 6 19 18
f 6 18 7
f 7 9 8
f 7 18 22
f 7 22 9
f 9 23 37
f 9 37 35
f 9 35 44
f 9 44 49
f 9 49 56
f 9 56 65
f 9 65 78
f 9 78 83
f 9 83 108
f 9 108 130
f 9 130 132
f 9 132 131
f 9 131 127
f 9 127 134
f 9 134 112
f 9 112 89
f 9 89 73
f 9 73 61
f 9 61 52
f 9 52 46
f 9 46 38
f 9 38 24
f 9 24 12
f 9 12 11
f 9 11 10
f 9 22 23
f 12 24 25
f 12 25 13
f 13 25 24
f 13 24 38
f 13 38 47
f 13 47 54
f 13 54 48
f 13 48 40
f 13 40 39
f 13 39 28
f 13 28 27
f 13 27 26
f 13 26 14
f 14 26 15
f 15 26 27
f 15 27 28
f 15 28 29
f 15 29 30
f 15 30 16
f 16 30 29
f 16 29 31
f 16 31 32
f 16 32 21
f 16 21 17
f 17 21 20
f 18 33 34
f 18 34 35
f 18 35 22
f 18 21 36
f 18 36 33
f 21 32 42
f 21 42 41
f 21 41 29
f 21 29 40
f 21 40 48
f 21 48 55
f 21 55 64
f 21 64 77
f 21 77 100
f 21 100 121
f 21 121 118
f 21 118 133
f 21 133 110
f 21 110 86
f 21 86 85
f 21 85 84
f 21 84 70
f 21 70 60
f 21 60 51
f 21 51 50
f 21 50 45
f 21 45 36
f 22 35 37
f 22 37 23
f 28 39 29
f 29 41 31
f 29 39 40
f 31 41 42
f 31 42 32
f 33 43 44
f 33 44 34
f 33 36 45
f 33 45 43
f 34 44 35
f 38 46 47
f 43 49 44
f 43 45 50
f 43 50 51
f 43 51 49
f 46 52 53
f 46 53 54
f 46 54 47
f 48 54 53
f 48 53 55
f 49 51 57
f 49 57 58
f 49 58 59
f 49 59 56
f 51 60 57
f 52 61 62
f 52 62 63
f 52 63 55
f 52 55 53
f 55 63 64
f 56 59 65
f 57 60 66
f 57 66 58
f 58 66 67
f 58 67 68
f 58 68 59
f 59 68 69
f 59 69 65
f 60 70 71
f 60 71 72
f 60 72 66
f 61 73 74
f 61 74 75
f 61 75 62
f 62 75 96
f 62 96 76
f 62 76 63
f 63 76 77
f 63 77 64
f 65 69 78
f 66 72 67
f 67 79 81
f 67 81 68
f 67 72 80
f 67 80 79
f 68 81 82
f 68 82 69
f 69 82 108
f 69 108 83
f 69 83 78
f 70 84 71
f 71 84 85
f 71 85 86
f 71 86 72
f 72 86 87
f 72 87 88
f 72 88 101
f 72 101 80
f 73 89 90
f 73 90 91
f 73 91 74
f 74 91 92
f 74 92 93
f 74 93 94
f 74 94 75
f 75 95 96
f 75 94 95
f 76 97 77
f 76 96 122
f 76 122 97
f 77 97 98
f 77 98 99
f 77 99 100
f 79 80 81
f 80 101 102
f 80 102 103
f 80 103 104
f 80 104 81
f 81 105 82
f 81 104 103
f 81 103 106
f 81 106 105
f 82 107 108
f 82 105 109
f 82 109 107
f 86 110 87
f 87 110 111
f 87 111 88
f 88 111 101
f 89 112 90
f 90 113 114
f 90 114 92
f 90 92 91
f 90 112 115
f 90 115 113
f 92 114 116
f 92 116 93
f 93 116 94
f 94 116 95
f 95 117 118
f 95 118 119
f 95 119 96
f 95 116 117
f 96 119 120
f 96 120 121
f 96 121 122
f 97 122 99
f 97 99 98
f 99 122 121
f 99 121 100
f 101 111 123
f 101 123 102
f 102 123 124
f 102 124 103
f 103 125 106
f 103 124 126
f 103 126 125
f 105 127 109
f 105 106 128
f 105 128 127
f 106 125 129
f 106 129 128
f 107 109 108
f 108 109 130
f 109 127 131
f 109 131 132
f 109 132 130
f 110 133 111
f 111 133 116
f 111 116 123
f 112 134 115
f 113 129 114
f 113 115 129
f 114 129 126
f 114 126 135
f 114 135 116
f 115 134 127
f 115 127 129
f 116 135 126
f 116 126 124
f 116 124 123
f 116 133 117
f 117 133 118
f 118 121 120
f 118 120 119
f 125 126 129
f 127 128 129

