# https://github.com/mikedh/trimesh
v -0.05231002 -0.77704454 2.00696340
v 0.01798930 -0.79369926 2.00775985
v 0.03465305 -0.77704454 2.00783221
v -0.05231002 -0.76038186 2.00681856
v -0.05231002 -0.79369926 2.00667384
v 0.03465305 -0.79369926 2.00783221
v 0.03465305 -0.81036197 2.00442947
v 0.05132997 -0.77704454 2.00790457
v 0.03465305 -0.73815433 2.00718060
v 0.01798930 -0.73815433 2.00710824
v -0.05231002 -0.73815433 2.00631180
v -0.05231002 -0.80586390 2.00305390
v 0.05132997 -0.79369926 2.00775985
v 0.01701219 -0.81195417 2.00327110
v 0.02191096 -0.81892816 2.00023053
v 0.03465305 -0.81913513 2.00044773
v 0.05132997 -0.81904757 2.00030289
v 0.05132997 -0.81036197 2.00421239
v 0.06799372 -0.77704454 2.00580504
v 0.05132997 -0.73815433 2.00537064
v -0.05231002 -0.73815433 1.92363410
v -0.05231002 -0.80701031 2.00052009
v 0.06799372 -0.79369926 2.00558784
v -0.05231002 -0.81099885 1.99154278
v -0.05231002 -0.81130137 1.98785054
v -0.05231002 -0.81234429 1.97481901
v 0.01291887 -0.81848233 1.99154278
v 0.02123754 -0.81895202 1.99154278
v 0.03465305 -0.81941379 1.99154278
v 0.05132997 -0.81948543 1.99154278
v 0.06025608 -0.81881669 2.00001332
v 0.06667329 -0.81030625 2.00211286
v 0.07793652 -0.79369926 2.00167845
v 0.07798933 -0.77704454 2.00182318
v 0.07743476 -0.76721252 2.00117157
v 0.06153688 -0.73815433 2.00167845
v -0.02100277 -0.73815433 1.88678388
v -0.02426425 -0.73816229 1.26836595
v -0.05231002 -0.73816229 1.30289947
v 0.07736872 -0.80470956 2.00102685
v -0.05231002 -0.81338720 1.34163202
v 0.01800253 -0.81783747 1.26836595
v 0.03012401 -0.81851416 1.26836595
v 0.03844269 -0.81888038 1.26836595
v 0.05131680 -0.81937397 1.26836595
v 0.06256679 -0.81913513 1.97481901
v 0.06140479 -0.81903166 1.99154278
v 0.05843389 -0.81926251 1.26836595
v 0.06313459 -0.81917495 1.26836595
v 0.07091187 -0.81661145 1.97481901
v 0.06973670 -0.81528991 1.99154278
v 0.08041895 -0.79369926 1.99154278
v 0.08041895 -0.77704454 1.99154278
v 0.07834589 -0.76604224 1.99154278
v 0.06411170 -0.73815433 1.99154278
v 0.06387400 -0.73815433 1.88678388
v 0.06421732 -0.73816229 1.26836595
v -0.05231002 -0.74476210 1.26836595
v 0.07834589 -0.80695458 1.99154278
v -0.05231002 -0.81151631 1.32490825
v 0.00135196 -0.81638060 1.26836595
v 0.07099109 -0.81746330 1.92486483
v 0.07103073 -0.81731205 1.94151624
v 0.07114952 -0.81712894 1.95816765
v 0.07091187 -0.81782156 1.80816034
v 0.07116275 -0.81771805 1.84146317
v 0.07147967 -0.81720854 1.26836595
v 0.07883441 -0.80828410 1.97481901
v 0.08138277 -0.79369926 1.97481901
v 0.08132996 -0.77704454 1.97481901
v 0.07878160 -0.76554865 1.97481901
v 0.06473231 -0.73815433 1.97481901
v 0.07929659 -0.76491972 1.26836595
v 0.06428336 -0.73816229 1.29160548
v -0.05231002 -0.79589654 1.26836595
v -0.01532497 -0.81129342 1.26836595
v 0.07917773 -0.80918369 1.90821348
v 0.07912492 -0.80912797 1.92486483
v 0.07904565 -0.80897672 1.94151624
v 0.07894003 -0.80880157 1.95816765
v 0.07929659 -0.80949418 1.80816034
v 0.07933617 -0.80943846 1.82481176
v 0.07930970 -0.80939070 1.84146317
v 0.07633880 -0.81218506 1.26836595
v 0.08155443 -0.79369926 1.95816765
v 0.08152808 -0.77704454 1.95816765
v 0.07891368 -0.76546904 1.95816765
v 0.06448143 -0.73816229 1.50829068
v 0.06444179 -0.73816229 1.45276194
v 0.08238640 -0.77705250 1.26836595
v 0.07923054 -0.80916779 1.89148964
v 0.08210912 -0.79369130 1.84146317
v 0.08192422 -0.79369926 1.88678388
v 0.08176579 -0.79369926 1.92486483
v 0.08168652 -0.79369926 1.94151624
v 0.07946825 -0.80888117 1.26836595
v 0.08258441 -0.79369130 1.26836595
v 0.07924378 -0.80915983 1.88678388
v 0.08253160 -0.78708358 1.26836595
f 1 2 3
f 1 3 4
f 1 4 11
f 1 11 21
f 1 21 39
f 1 39 58
f 1 58 75
f 1 75 60
f 1 60 41
f 1 41 26
f 1 26 25
f 1 25 24
f 1 24 22
f 1 22 12
f 1 12 5
f 1 5 2
f 2 6 3
f 2 5 7
f 2 7 6
f 3 6 8
f 3 8 9
f 3 9 10
f 3 10 4
f 4 10 11
f 5 12 7
f 6 7 13
f 6 13 8
f 7 12 14
f 7 14 15
f 7 15 16
f 7 16 17
f 7 17 18
f 7 18 13
f 8 13 19
f 8 19 20
f 8 20 9
f 9 20 36
f 9 36 55
f 9 55 72
f 9 72 56
f 9 56 37
f 9 37 21
f 9 21 11
f 9 11 10
f 12 22 15
f 12 15 14
f 13 18 23
f 13 23 19
f 15 22 24
f 15 24 25
f 15 25 26
f 15 26 27
f 15 27 28
f 15 28 29
f 15 29 16
f 16 29 30
f 16 30 17
f 17 30 31
f 17 31 18
f 18 31 32
f 18 32 23
f 19 23 33
f 19 33 34
f 19 34 35
f 19 35 20
f 20 35 36
f 21 37 38
f 21 38 39
f 23 32 40
f 23 40 33
f 26 41 27
f 27 41 42
f 27 42 28
f 28 42 43
f 28 43 44
f 28 44 45
f 28 45 29
f 29 45 30
f 30 46 47
f 30 47 31
f 30 45 48
f 30 48 49
f 30 49 46
f 31 47 50
f 31 50 51
f 31 51 40
f 31 40 32
f 33 40 52
f 33 52 34
f 34 52 53
f 34 53 35
f 35 53 54
f 35 54 55
f 35 55 36
f 37 56 57
f 37 57 38
f 38 57 73
f 38 73 90
f 38 90 99
f 38 99 97
f 38 97 96
f 38 96 84
f 38 84 67
f 38 67 49
f 38 49 48
f 38 48 45
f 38 45 44
f 38 44 43
f 38 43 42
f 38 42 61
f 38 61 76
f 38 76 75
f 38 75 58
f 38 58 39
f 40 51 59
f 40 59 52
f 41 60 61
f 41 61 42
f 46 62 63
f 46 63 64
f 46 64 47
f 46 49 65
f 46 65 66
f 46 66 62
f 47 64 50
f 49 67 65
f 50 64 68
f 50 68 59
f 50 59 51
f 52 59 69
f 52 69 53
f 53 69 70
f 53 70 54
f 54 70 71
f 54 71 55
f 55 71 72
f 56 72 57
f 57 72 74
f 57 74 73
f 59 68 69
f 60 75 76
f 60 76 61
f 62 77 64
f 62 64 63
f 62 66 77
f 64 77 78
f 64 78 79
f 64 79 80
f 64 80 68
f 65 67 66
f 66 67 81
f 66 81 82
f 66 82 83
f 66 83 77
f 67 84 81
f 68 80 69
f 69 80 85
f 69 85 86
f 69 86 70
f 70 86 71
f 71 86 87
f 71 87 72
f 72 87 73
f 72 73 88
f 72 88 89
f 72 89 74
f 73 74 89
f 73 89 88
f 73 87 90
f 77 91 92
f 77 92 78
f 77 83 91
f 78 92 93
f 78 93 94
f 78 94 95
f 78 95 79
f 79 95 85
f 79 85 80
f 81 84 96
f 81 96 82
f 82 92 83
f 82 96 97
f 82 97 92
f 83 92 98
f 83 98 91
f 85 95 86
f 86 95 94
f 86 94 93
f 86 93 92
f 86 92 90
f 86 90 87
f 90 92 99
f 91 98 92
f 92 97 99

