# https://github.com/mikedh/trimesh
v 1.63610266 -0.74944906 1.62235151
v 1.63610266 -0.78502885 1.62235151
v 1.60736595 -0.74928193 1.62235151
v 1.63610266 -0.75286256 1.83685652
v 1.63610266 -0.78507343 1.63225282
v 1.37418277 -0.78639202 1.62235151
v 1.60523733 -0.74927078 1.62235151
v 1.63610266 -0.75359057 1.87024927
v 1.59290086 -0.75321172 1.87024927
v 1.63610266 -0.78528142 1.68690440
v 1.47413226 -0.78693058 1.87024927
v 1.45749013 -0.78699003 1.87024927
v 1.17418707 -0.78706803 1.62235151
v 1.59072385 -0.74922992 1.62235151
v 1.63610266 -0.78589056 1.87024927
v 1.57403334 -0.74921878 1.62235151
v 1.54070072 -0.74921508 1.62235151
v 1.35734714 -0.75352742 1.87024927
v 1.55802015 -0.78640686 1.87024927
v 1.37423116 -0.78702344 1.87024927
v 1.14187040 -0.78715344 1.62235151
v 1.15749658 -0.78712003 1.62235151
v 1.53857211 -0.74921878 1.62235151
v 1.14187040 -0.75331943 1.83685652
v 1.34065665 -0.75356458 1.87024927
v 1.20761646 -0.78706430 1.87024927
v 1.14187040 -0.75042596 1.62235151
v 1.19092595 -0.78706803 1.87024927
v 1.15759333 -0.78706061 1.87024927
v 1.14187040 -0.78705316 1.87024927
v 1.47403549 -0.74935992 1.62235151
v 1.14187040 -0.75379114 1.85243658
v 1.45739339 -0.74940823 1.62235151
v 1.14187040 -0.75382458 1.85350435
v 1.14187040 -0.75443744 1.87024927
f 1 2 6
f 1 6 13
f 1 13 22
f 1 22 21
f 1 21 27
f 1 27 33
f 1 33 31
f 1 31 23
f 1 23 17
f 1 17 16
f 1 16 14
f 1 14 7
f 1 7 3
f 1 3 4
f 1 4 8
f 1 8 15
f 1 15 10
f 1 10 5
f 1 5 2
f 2 5 6
f 3 7 4
f 4 7 9
f 4 9 8
f 5 10 11
f 5 11 6
f 6 12 13
f 6 11 12
f 7 14 9
f 8 9 18
f 8 18 25
f 8 25 35
f 8 35 30
f 8 30 29
f 8 29 28
f 8 28 26
f 8 26 20
f 8 20 12
f 8 12 11
f 8 11 19
f 8 19 15
f 9 14 16
f 9 16 17
f 9 17 18
f 10 15 19
f 10 19 11
f 12 20 21
f 12 21 22
f 12 22 13
f 17 23 24
f 17 24 18
f 18 24 25
f 20 26 21
f 21 26 28
f 21 28 29
f 21 29 30
f 21 30 35
f 21 35 34
f 21 34 32
f 21 32 24
f 21 24 27
f 23 31 24
f 24 32 25
f 24 31 33
f 24 33 27
f 25 32 34
f 25 34 35

