# https://github.com/mikedh/trimesh
v -3.53285238 -0.72656965 0.57159059
v -3.53189804 -0.72664359 0.57161196
v -3.48174853 -0.72659606 0.57305503
v -3.53285238 -0.70865930 0.56763549
v -3.53285238 -0.72664359 0.50794546
v -3.51626910 -0.72664359 0.57202887
v -3.50889518 -0.72664359 0.57214644
v -3.47926064 -0.72659606 0.57305503
v -3.51626910 -0.70865930 0.56771030
v -3.53058476 -0.70865930 0.56764616
v -3.53285238 -0.70865930 0.51091714
v -3.53285238 -0.72664359 0.50283590
v -3.44953640 -0.72659606 0.51085300
v -3.44960981 -0.72659606 0.57287332
v -3.50889518 -0.72664359 0.46986956
v -3.50889518 -0.70865930 0.56769963
v -3.51522500 -0.70865930 0.56771030
v -3.50889518 -0.70865930 0.48554035
v -3.50843020 -0.71093374 0.47780116
v -3.51433593 -0.72664359 0.47205022
v -3.44953640 -0.72652387 0.57284125
v -3.44960981 -0.72659606 0.50285727
v -3.44953640 -0.72655910 0.50293211
v -3.44953640 -0.71093374 0.56767823
v -3.49959612 -0.72659606 0.46386208
v -3.49537894 -0.72659606 0.46388348
v -3.48293947 -0.72659606 0.46395828
v -3.47954615 -0.72659606 0.46456757
v -3.46819969 -0.72659606 0.47206089
v -3.47404829 -0.71093374 0.47774769
v -3.48293947 -0.71093374 0.47280917
v -3.49959612 -0.71093374 0.47286263
v -3.44960981 -0.71093374 0.51085300
v -3.44953640 -0.71101119 0.51085300
f 1 2 3
f 1 3 4
f 1 4 11
f 1 11 12
f 1 12 5
f 1 5 2
f 2 6 3
f 2 5 12
f 2 12 20
f 2 20 15
f 2 15 7
f 2 7 6
f 3 7 8
f 3 8 17
f 3 17 9
f 3 9 10
f 3 10 4
f 3 6 7
f 4 10 9
f 4 9 17
f 4 17 16
f 4 16 18
f 4 18 11
f 7 13 14
f 7 14 8
f 7 15 13
f 8 14 16
f 8 16 17
f 11 18 19
f 11 19 20
f 11 20 12
f 13 21 14
f 13 15 22
f 13 22 23
f 13 23 34
f 13 34 24
f 13 24 21
f 14 21 24
f 14 24 16
f 15 20 25
f 15 25 26
f 15 26 27
f 15 27 28
f 15 28 29
f 15 29 22
f 16 24 18
f 18 30 31
f 18 31 32
f 18 32 19
f 18 24 33
f 18 33 30
f 19 32 20
f 20 32 25
f 22 29 23
f 23 29 34
f 24 34 33
f 25 32 31
f 25 31 26
f 26 31 27
f 27 31 28
f 28 31 30
f 28 30 29
f 29 30 34
f 30 33 34

