# https://github.com/mikedh/trimesh
v -1.80850344 -0.79728949 1.42965228
v -1.80850344 -0.75035462 1.42965228
v -1.80850344 -0.79767412 1.42959813
v -1.80848031 -0.79766688 1.42965228
v -1.80850344 -0.73867714 1.37921271
v -1.69020308 -0.75220529 1.42965228
v -1.69020308 -0.73867714 1.37884718
v -1.80850344 -0.80686225 1.40681504
v -1.69020308 -0.79493076 1.42965228
v -1.69020308 -0.80906857 1.39808355
v -1.69020308 -0.80652113 1.40440542
v -1.80850344 -0.73867714 1.30309306
v -1.69020308 -0.73867714 1.30317428
v -1.80850344 -0.81205145 1.39154507
v -1.69020308 -0.81169581 1.39154507
v -1.74868735 -0.73867714 1.30310659
v -1.80850344 -0.74349617 1.29135631
v -1.69020308 -0.74433079 1.29135631
v -1.69020308 -0.81203694 1.38334152
v -1.80850344 -0.81247238 1.37488078
v -1.73201061 -0.81246511 1.37488078
v -1.69020308 -0.81237078 1.37488078
v -1.80850344 -0.79829828 1.29135631
v -1.69020308 -0.79643308 1.29135631
v -1.80850344 -0.81259576 1.34155221
v -1.78200603 -0.81272638 1.34155221
v -1.76534091 -0.81279171 1.34155221
v -1.74868735 -0.81281348 1.34155221
v -1.73201061 -0.81282074 1.34155221
v -1.71534549 -0.81279171 1.34155221
v -1.69020308 -0.81274091 1.34155221
v -1.69020308 -0.81101360 1.32488792
v -1.80850344 -0.80751544 1.31552020
v -1.80850344 -0.81048381 1.32488792
v -1.79867115 -0.81065797 1.32488792
v -1.78200603 -0.81081765 1.32488792
v -1.76534091 -0.81091925 1.32488792
v -1.74868735 -0.81097006 1.32488792
v -1.73201061 -0.81100634 1.32488792
v -1.71534549 -0.81101360 1.32488792
f 1 2 5
f 1 5 12
f 1 12 17
f 1 17 23
f 1 23 33
f 1 33 34
f 1 34 25
f 1 25 20
f 1 20 14
f 1 14 8
f 1 8 3
f 1 3 4
f 1 4 9
f 1 9 6
f 1 6 2
f 2 6 7
f 2 7 5
f 3 8 4
f 4 8 10
f 4 10 11
f 4 11 9
f 5 7 13
f 5 13 16
f 5 16 12
f 6 9 11
f 6 11 10
f 6 10 15
f 6 15 19
f 6 19 22
f 6 22 31
f 6 31 32
f 6 32 24
f 6 24 18
f 6 18 13
f 6 13 7
f 8 14 15
f 8 15 10
f 12 16 17
f 13 18 17
f 13 17 16
f 14 19 15
f 14 20 21
f 14 21 22
f 14 22 19
f 17 18 24
f 17 24 23
f 20 25 26
f 20 26 27
f 20 27 28
f 20 28 29
f 20 29 21
f 21 29 30
f 21 30 31
f 21 31 22
f 23 24 32
f 23 32 33
f 25 34 35
f 25 35 36
f 25 36 37
f 25 37 26
f 26 37 27
f 27 37 38
f 27 38 39
f 27 39 28
f 28 39 40
f 28 40 29
f 29 40 32
f 29 32 30
f 30 32 31
f 32 40 33
f 33 40 39
f 33 39 38
f 33 38 37
f 33 37 36
f 33 36 35
f 33 35 34

