# https://github.com/mikedh/trimesh
v -0.03089508 -0.73815031 1.92071101
v 0.06377314 -0.73815031 1.92071101
v -0.01183819 -0.71535751 1.92071101
v -0.02546094 -0.73815031 1.39899729
v 0.06245664 -0.71535751 1.87484717
v 0.06226054 -0.71535751 1.92071101
v 0.06409060 -0.73815031 1.84154739
v -0.00644136 -0.71535751 1.82397818
v -0.00759919 -0.71977994 1.39899729
v 0.06431472 -0.73815031 1.39899729
v 0.06251267 -0.71535751 1.85819731
v 0.06254999 -0.71535751 1.84650147
v 0.06414663 -0.73815031 1.82397818
v 0.06260601 -0.71535751 1.82397818
v 0.06251267 -0.71977994 1.39899729
v 0.06435203 -0.73815031 1.40824154
v 0.06254063 -0.71977994 1.40425783
v 0.06259666 -0.71535751 1.82985161
v 0.06417464 -0.73815031 1.80814544
v 0.06260601 -0.71535751 1.82484645
v 0.06449210 -0.73815031 1.50824306
v 0.06448274 -0.73815031 1.49159317
v 0.06445473 -0.73815031 1.45824230
v 0.06275539 -0.71977994 1.52494400
v 0.06272737 -0.71977994 1.50099066
v 0.06260601 -0.71977994 1.43434001
v 0.06258736 -0.71977994 1.42494252
v 0.06254999 -0.71977994 1.40824154
v 0.06438940 -0.73815031 1.41937555
v 0.06447344 -0.73815031 1.54159392
v 0.06448274 -0.73815031 1.52494400
v 0.06443607 -0.73815031 1.44159241
v 0.06442671 -0.73815031 1.43602541
f 1 2 6
f 1 6 3
f 1 3 4
f 1 4 10
f 1 10 16
f 1 16 29
f 1 29 33
f 1 33 32
f 1 32 23
f 1 23 22
f 1 22 21
f 1 21 31
f 1 31 30
f 1 30 19
f 1 19 13
f 1 13 7
f 1 7 2
f 2 5 6
f 2 7 5
f 3 6 5
f 3 5 11
f 3 11 12
f 3 12 18
f 3 18 20
f 3 20 14
f 3 14 8
f 3 8 9
f 3 9 4
f 4 9 15
f 4 15 10
f 5 7 11
f 7 12 11
f 7 13 12
f 8 14 15
f 8 15 9
f 10 15 17
f 10 17 16
f 12 13 18
f 13 19 20
f 13 20 18
f 14 20 21
f 14 21 22
f 14 22 23
f 14 23 24
f 14 24 25
f 14 25 26
f 14 26 27
f 14 27 28
f 14 28 17
f 14 17 15
f 16 17 29
f 17 28 29
f 19 30 20
f 20 30 31
f 20 31 21
f 23 32 24
f 24 32 25
f 25 32 33
f 25 33 26
f 26 33 27
f 27 33 28
f 28 33 29

