# https://github.com/mikedh/trimesh
v -2.23733061 -0.73604827 0.60364575
v -2.23733061 -0.73611240 0.78326085
v -2.23733061 -0.78253162 0.60364575
v -2.36624284 -0.73543129 0.60364575
v -2.38292327 -0.73524375 0.78326085
v -2.23733061 -0.78455521 0.78326085
v -2.39938328 -0.78519683 0.78326085
v -2.41616171 -0.78322754 0.60364575
v -2.39955471 -0.73527337 0.60364575
v -2.47930737 -0.73490814 0.78326085
v -2.41618620 -0.78522645 0.78326085
v -2.46612957 -0.78340522 0.60364575
v -2.44947358 -0.78335092 0.60364575
v -2.48756185 -0.73521415 0.60364575
v -2.48290800 -0.73489827 0.78326085
v -2.46622750 -0.78529062 0.78326085
v -2.48736592 -0.78531530 0.78326085
v -2.48283450 -0.78342003 0.60364575
v -2.48756185 -0.78341508 0.60364575
v -2.48756185 -0.73497722 0.78326085
v -2.48756185 -0.78531530 0.78326085
f 1 2 6
f 1 6 3
f 1 3 8
f 1 8 13
f 1 13 12
f 1 12 18
f 1 18 19
f 1 19 14
f 1 14 9
f 1 9 4
f 1 4 5
f 1 5 2
f 2 5 10
f 2 10 15
f 2 15 20
f 2 20 21
f 2 21 17
f 2 17 16
f 2 16 11
f 2 11 7
f 2 7 6
f 3 6 7
f 3 7 8
f 4 9 5
f 5 9 10
f 7 11 12
f 7 12 13
f 7 13 8
f 9 14 15
f 9 15 10
f 11 16 12
f 12 16 17
f 12 17 18
f 14 19 21
f 14 21 20
f 14 20 15
f 17 21 18
f 18 21 19

