# https://github.com/mikedh/trimesh
v 2.05683316 -0.31163290 0.18152966
v 2.05683316 -0.31101456 0.18152966
v 2.02460949 -0.22762947 0.17979247
v 2.05683316 -0.32768700 0.18151321
v 2.05683316 -0.29436503 0.18149676
v 2.02460949 -0.22719433 0.17979247
v 2.02460949 -0.24434770 0.17975408
v 2.05683316 -0.45980691 0.18115701
v 2.05683316 -0.22586603 0.18135430
v 2.02460949 -0.22586603 0.17978698
v 2.02460949 -0.29436503 0.17954040
v 2.02460949 -0.45937178 0.17855399
v 2.02460949 -0.45980691 0.17854851
v 2.05683316 -0.45980691 0.13024756
v 2.02460949 -0.31053362 0.17945820
v 2.05683316 -0.22586603 0.12555115
v 2.02460949 -0.22586603 0.12783635
v 2.02460949 -0.45980691 0.13172720
v 2.05507922 -0.22586603 0.12559502
f 1 2 6
f 1 6 3
f 1 3 4
f 1 4 8
f 1 8 14
f 1 14 16
f 1 16 9
f 1 9 5
f 1 5 2
f 2 5 6
f 3 6 10
f 3 10 17
f 3 17 18
f 3 18 13
f 3 13 12
f 3 12 15
f 3 15 11
f 3 11 7
f 3 7 4
f 4 7 8
f 5 9 6
f 6 9 10
f 7 11 8
f 8 12 13
f 8 13 18
f 8 18 14
f 8 11 15
f 8 15 12
f 9 16 19
f 9 19 17
f 9 17 10
f 14 18 19
f 14 19 16
f 17 19 18

