# https://github.com/mikedh/trimesh
v -0.17834324 2.02299301 1.12550069
v -0.17841129 2.00672955 1.12550069
v -0.17836591 2.03967099 1.12550069
v -0.17836591 2.03967099 1.12591460
v -0.17849067 2.00632465 1.20928710
v -0.17842263 2.00632465 1.12591460
v -0.17842263 2.00632465 1.12550069
v -0.17837724 2.04006626 1.12550069
v -0.17915985 2.05633933 1.23120381
v -0.17858139 2.03967099 1.20928710
v -0.17861545 2.03441693 1.23120381
v -0.17857006 2.02299301 1.23120381
v -0.17855873 2.00632465 1.22595745
v -0.18217675 1.99357997 1.20928710
v -0.18218808 1.99346429 1.19260639
v -0.18208603 1.99360889 1.12550069
v -0.17898970 2.05633933 1.12550069
v -0.17898970 2.05633933 1.12591460
v -0.17914852 2.05633933 1.22595745
v -0.17863811 2.03967099 1.23120381
v -0.18275521 2.06761867 1.23120381
v -0.17858139 2.00632465 1.23120381
v -0.18225613 1.99365710 1.23120381
v -0.17973825 2.00233352 1.23120381
v -0.18218808 1.99329075 1.12591460
v -0.20828552 1.97300724 1.17593603
v -0.18218808 1.99329075 1.12550069
v -0.17908047 2.05661890 1.12550069
v -0.18275521 2.06762830 1.20928710
v -0.19417635 2.07106030 1.20928710
v -0.19417635 2.07105067 1.22595745
v -0.19417635 2.07104103 1.23120381
v -0.19044489 1.98986840 1.23120381
v -0.21419460 1.97300724 1.22259441
v -0.20902274 1.97300724 1.20928710
v -0.20844434 1.97300724 1.15926566
v -0.18247168 1.99314615 1.12550069
v -0.18274388 2.06758012 1.12550069
v -0.18274388 2.06759941 1.14258497
v -0.18274388 2.06760903 1.15926566
v -0.18275521 2.06762830 1.19260639
v -0.19417635 2.07106030 1.19260639
v -0.21084878 2.07149414 1.19260639
v -0.21084878 2.07146520 1.23120381
v -0.19942759 2.07117600 1.23120381
v -0.19417635 1.98815240 1.23120381
v -0.22753255 1.97300724 1.22760276
v -0.21402444 1.97300724 1.14582383
v -0.19417635 1.98738116 1.12550069
v -0.19389280 2.07085785 1.12550069
v -0.19417635 2.07101211 1.15926566
v -0.19417635 2.07104103 1.17593603
v -0.21084878 2.07143628 1.15926566
v -0.22753255 2.07122420 1.12550069
v -0.22753255 2.07129168 1.19260639
v -0.21610002 2.07139772 1.23120381
v -0.20559754 1.98570372 1.23120381
v -0.29421084 1.97300724 1.22779936
v -0.21055391 1.98534703 1.23120381
v -0.22739645 1.98444081 1.23120381
v -0.22753255 1.97300724 1.14082583
v -0.21084878 1.98601221 1.12550069
v -0.19417635 2.07093500 1.12550069
v -0.21045180 2.07134953 1.12550069
v -0.21084878 2.07135916 1.12550069
v -0.24419359 2.07095427 1.12550069
v -0.24419359 2.07095427 1.19260639
v -0.24419359 2.07093500 1.23120381
v -0.23277246 2.07114708 1.23120381
v -0.22753255 2.07124350 1.23120381
v -0.27539483 2.00768397 1.23120381
v -0.27605268 2.00856125 1.23120381
v -0.27999956 2.02298336 1.23120381
v -0.28001095 2.02321473 1.23120381
v -0.29421084 2.02301229 1.22782006
v -0.29421084 1.97300724 1.14744843
v -0.22753255 1.98445046 1.23120381
v -0.24366052 1.98928997 1.23120381
v -0.24438641 1.98958883 1.23120381
v -0.22753255 1.98664848 1.12550069
v -0.21125709 1.98602186 1.12550069
v -0.24419359 1.97300724 1.14196409
v -0.26052577 2.06774400 1.12550069
v -0.25999270 2.06773434 1.23120381
v -0.27791271 2.04016265 1.23120381
v -0.29421084 2.03727052 1.22269788
v -0.27723220 2.04442374 1.23120381
v -0.26832889 2.06302018 1.23120381
v -0.29421084 1.98964667 1.14418887
v -0.27102825 2.02153729 1.12550069
v -0.26247652 2.01110633 1.12550069
v -0.24075706 1.99270269 1.12550069
v -0.22785008 1.98679310 1.12550069
v -0.26072992 2.06765722 1.12550069
v -0.26569763 2.06474580 1.23120381
v -0.26823817 2.06402277 1.20928710
v -0.29421084 2.04390314 1.20925605
v -0.26830621 2.06336722 1.22595745
v -0.29421084 2.02299301 1.14292644
v -0.27257076 2.03967099 1.12550069
v -0.27254803 2.03923716 1.12550069
v -0.26886196 2.06383962 1.12550069
v -0.29421084 2.04468403 1.17590498
v -0.29421084 2.04462619 1.19257534
v -0.29421084 2.03704879 1.14676548
v -0.27040446 2.05570307 1.12550069
v -0.29421084 2.04376820 1.15923462
f 1 2 7
f 1 7 16
f 1 16 27
f 1 27 37
f 1 37 49
f 1 49 62
f 1 62 81
f 1 81 80
f 1 80 93
f 1 93 92
f 1 92 91
f 1 91 90
f 1 90 101
f 1 101 100
f 1 100 106
f 1 106 102
f 1 102 94
f 1 94 83
f 1 83 66
f 1 66 54
f 1 54 65
f 1 65 64
f 1 64 63
f 1 63 50
f 1 50 38
f 1 38 28
f 1 28 17
f 1 17 8
f 1 8 3
f 1 3 4
f 1 4 5
f 1 5 2
f 2 5 6
f 2 6 7
f 3 8 4
f 4 8 9
f 4 9 10
f 4 10 11
f 4 11 12
f 4 12 5
f 5 12 13
f 5 13 14
f 5 14 15
f 5 15 16
f 5 16 6
f 6 16 7
f 8 17 18
f 8 18 19
f 8 19 9
f 9 20 10
f 9 19 21
f 9 21 32
f 9 32 45
f 9 45 44
f 9 44 56
f 9 56 70
f 9 70 69
f 9 69 68
f 9 68 84
f 9 84 95
f 9 95 88
f 9 88 87
f 9 87 85
f 9 85 74
f 9 74 73
f 9 73 72
f 9 72 71
f 9 71 79
f 9 79 78
f 9 78 77
f 9 77 60
f 9 60 59
f 9 59 57
f 9 57 46
f 9 46 33
f 9 33 23
f 9 23 24
f 9 24 22
f 9 22 12
f 9 12 11
f 9 11 20
f 10 20 11
f 12 22 13
f 13 22 14
f 14 23 15
f 14 22 24
f 14 24 23
f 15 25 16
f 15 23 26
f 15 26 25
f 16 25 27
f 17 28 18
f 18 28 21
f 18 21 19
f 21 28 29
f 21 29 30
f 21 30 31
f 21 31 32
f 23 33 34
f 23 34 35
f 23 35 26
f 25 26 27
f 26 35 34
f 26 34 47
f 26 47 58
f 26 58 76
f 26 76 82
f 26 82 61
f 26 61 48
f 26 48 36
f 26 36 27
f 27 36 37
f 28 38 39
f 28 39 40
f 28 40 29
f 29 40 41
f 29 41 42
f 29 42 30
f 30 42 43
f 30 43 31
f 31 43 44
f 31 44 45
f 31 45 32
f 33 46 34
f 34 46 47
f 36 48 37
f 37 48 49
f 38 50 51
f 38 51 52
f 38 52 42
f 38 42 39
f 39 42 40
f 40 42 41
f 42 52 43
f 43 52 51
f 43 51 53
f 43 53 54
f 43 54 55
f 43 55 44
f 44 55 56
f 46 57 47
f 47 57 59
f 47 59 60
f 47 60 58
f 48 61 49
f 49 61 62
f 50 63 51
f 51 63 64
f 51 64 53
f 53 64 65
f 53 65 54
f 54 66 55
f 55 66 67
f 55 67 68
f 55 68 69
f 55 69 70
f 55 70 56
f 58 71 72
f 58 72 73
f 58 73 74
f 58 74 75
f 58 75 86
f 58 86 97
f 58 97 104
f 58 104 103
f 58 103 107
f 58 107 105
f 58 105 99
f 58 99 89
f 58 89 76
f 58 60 77
f 58 77 78
f 58 78 79
f 58 79 71
f 61 80 81
f 61 81 62
f 61 82 80
f 66 83 67
f 67 83 68
f 68 83 84
f 74 85 75
f 75 85 87
f 75 87 88
f 75 88 86
f 76 89 90
f 76 90 91
f 76 91 92
f 76 92 93
f 76 93 80
f 76 80 82
f 83 94 84
f 84 94 96
f 84 96 95
f 86 88 97
f 88 95 98
f 88 98 97
f 89 99 100
f 89 100 101
f 89 101 90
f 94 102 96
f 95 96 98
f 96 102 103
f 96 103 104
f 96 104 98
f 97 98 104
f 99 105 102
f 99 102 106
f 99 106 100
f 102 105 107
f 102 107 103

