# https://github.com/mikedh/trimesh
v -2.98296096 -0.22766871 1.50573373
v -2.98296096 -0.21099138 1.50577092
v -2.98188553 -0.21099138 1.50581741
v -2.98296096 -0.23199953 1.50576162
v -3.33290137 -0.17768076 1.50672854
v -3.24953511 -0.17768076 1.50645888
v -2.99960840 -0.19434340 1.50598478
v -2.98188553 -0.17768076 1.50631017
v -3.23293068 -0.17768076 1.50643099
v -3.21624022 -0.17768076 1.50640315
v -2.98188553 -0.22761733 1.50592899
v -2.98205760 -0.23199953 1.50601268
v -2.99732852 -0.23199953 1.50791849
v -3.42125756 -0.23199220 1.54637959
v -3.42125756 -0.21978514 1.51140486
v -3.42125756 -0.21099871 1.50923869
v -3.42125756 -0.19434340 1.50741650
v -3.34954881 -0.19434340 1.50697023
v -3.33290137 -0.19434340 1.50689585
v -3.36623926 -0.17768076 1.50690515
v -3.38288670 -0.16564255 1.50937810
v -3.36623926 -0.16553979 1.50935021
v -3.24953511 -0.16528286 1.50906202
v -2.99960840 -0.17768076 1.50627297
v -2.98188553 -0.16534893 1.50913640
v -3.21624022 -0.16516541 1.50904342
v -2.98188553 -0.23199953 1.50606847
v -3.00051174 -0.23199953 1.50849493
v -3.42125756 -0.23199220 1.59977141
v -3.00993239 -0.23199953 1.51233452
v -3.04499095 -0.23199953 1.54532905
v -3.42125756 -0.17768076 1.50727702
v -3.38288670 -0.17768076 1.50700743
v -3.42125756 -0.16584807 1.50959197
v -3.42125756 -0.16402767 1.51279008
v -3.42125756 -0.15981430 1.52021825
v -3.41622459 -0.15977758 1.52021825
v -3.36623926 -0.15946928 1.52021825
v -3.23293068 -0.16521682 1.50906202
v -2.98296096 -0.16533424 1.50914570
v -2.98188553 -0.15912428 1.52021825
v -3.21624022 -0.15902152 1.52021825
v -2.99960840 -0.15910962 1.52021825
v -2.98296096 -0.15911695 1.52021825
v -2.98188553 -0.23199953 1.60039429
v -3.42125756 -0.22766136 1.59977141
v -3.04499095 -0.23199953 1.60048727
v -3.33290137 -0.23199220 1.60036639
v -3.33290137 -0.21099871 1.60042218
v -3.31621089 -0.19434340 1.60057096
v -3.42125756 -0.17412802 1.50796498
v -3.42125756 -0.15906557 1.52525714
v -3.42125756 -0.15739198 1.53688753
v -2.98188553 -0.15703962 1.53688753
v -3.41622459 -0.15737729 1.53688753
v -3.39953414 -0.15733324 1.53688753
v -3.38288670 -0.15730388 1.53688753
v -3.01629885 -0.15701027 1.53688753
v -2.98188553 -0.22766871 1.60037569
v -3.01629885 -0.22766871 1.60047797
v -3.01629885 -0.23199953 1.60047797
v -3.33290137 -0.19434340 1.60044078
v -3.42125756 -0.21602688 1.59972492
v -3.28287300 -0.23199220 1.60054306
v -3.29956348 -0.23199220 1.60051517
v -3.31621089 -0.23199220 1.60045008
v -3.32055557 -0.23199220 1.60043148
v -3.03729098 -0.23199953 1.60049657
v -3.31621089 -0.21099871 1.60052446
v -3.29956348 -0.19434340 1.60061745
v -3.31621089 -0.17768076 1.59987370
v -3.33290137 -0.17768076 1.59978071
v -3.29956348 -0.22766136 1.60053376
v -3.29956348 -0.21099871 1.60058026
v -3.42125756 -0.15757547 1.55353817
v -2.98188553 -0.15732591 1.55245973
v -2.98296096 -0.15733324 1.55353817
v -3.39953414 -0.15751676 1.55353817
v -3.38288670 -0.15747271 1.55353817
v -2.99960840 -0.15733324 1.55353817
v -3.36623926 -0.15746538 1.55353817
v -2.98188553 -0.21099138 1.60023627
v -2.98296096 -0.21099138 1.60024557
v -3.01629885 -0.21099138 1.60039429
v -3.03294629 -0.21099138 1.60044078
v -3.16629790 -0.19434340 1.60068254
v -3.03294629 -0.22766871 1.60050587
v -3.03294629 -0.23199953 1.60049657
v -3.42125756 -0.17768076 1.59889748
v -3.42125756 -0.19434340 1.59945533
v -3.42125756 -0.19936423 1.59952971
v -3.42125756 -0.21099871 1.59968773
v -3.28287300 -0.22766136 1.60056166
v -3.18298835 -0.23199220 1.60058955
v -3.31621089 -0.22766136 1.60046867
v -3.28287300 -0.19434340 1.60066394
v -3.16629790 -0.17768076 1.60016189
v -3.33290137 -0.16702253 1.59715898
v -3.42125756 -0.16721338 1.59683360
v -3.28287300 -0.21099871 1.60062675
v -3.42125756 -0.15803059 1.57020745
v -3.39953414 -0.15788378 1.57020745
v -3.38288670 -0.15783240 1.57020745
v -2.98188553 -0.15734793 1.55353817
v -3.01629885 -0.15784706 1.57019815
v -2.99960840 -0.15785439 1.57019815
v -2.98188553 -0.15793516 1.57019815
v -2.98188553 -0.20991234 1.60022698
v -3.01629885 -0.19434340 1.60024557
v -3.03294629 -0.19434340 1.60031996
v -3.18298835 -0.19434340 1.60070113
v -3.16629790 -0.23199220 1.60058026
v -3.26622556 -0.21099871 1.60063605
v -3.19963579 -0.21099871 1.60065464
v -3.23293068 -0.19434340 1.60070113
v -3.26622556 -0.19434340 1.60069184
v -3.14965046 -0.17768076 1.60010610
v -3.14965046 -0.16688308 1.59738214
v -3.16629790 -0.16683903 1.59741004
v -3.31621089 -0.16700786 1.59718688
v -3.38288670 -0.16157599 1.58686738
v -3.39953414 -0.16162737 1.58686738
v -3.42125756 -0.16337436 1.58987029
v -3.42125756 -0.15914631 1.57522775
v -3.42125756 -0.16175215 1.58686738
v -3.41622459 -0.16172280 1.58686738
v -3.16629790 -0.16128971 1.58686738
v -3.14965046 -0.16132639 1.58686738
v -3.01629885 -0.16190629 1.58686738
v -2.98188553 -0.16192831 1.58577965
v -2.99960840 -0.16199439 1.58686738
v -2.98188553 -0.19434340 1.59990159
v -3.01629885 -0.17768076 1.59905556
v -2.98188553 -0.16771988 1.59648032
v -2.99960840 -0.16755838 1.59655470
v -2.98188553 -0.16222193 1.58686738
v -2.98296096 -0.16770518 1.59648032
v -2.98188553 -0.17768076 1.59870228
f 1 2 3
f 1 3 4
f 1 4 5
f 1 5 6
f 1 6 2
f 2 7 8
f 2 8 3
f 2 6 9
f 2 9 10
f 2 10 7
f 3 11 4
f 3 8 25
f 3 25 41
f 3 41 54
f 3 54 76
f 3 76 104
f 3 104 107
f 3 107 130
f 3 130 136
f 3 136 134
f 3 134 138
f 3 138 132
f 3 132 108
f 3 108 82
f 3 82 59
f 3 59 45
f 3 45 27
f 3 27 11
f 4 11 12
f 4 12 27
f 4 27 45
f 4 45 61
f 4 61 88
f 4 88 68
f 4 68 47
f 4 47 31
f 4 31 30
f 4 30 28
f 4 28 13
f 4 13 14
f 4 14 15
f 4 15 16
f 4 16 17
f 4 17 18
f 4 18 19
f 4 19 5
f 5 19 18
f 5 18 20
f 5 20 21
f 5 21 6
f 6 21 22
f 6 22 23
f 6 23 9
f 7 24 8
f 7 10 24
f 8 24 25
f 9 23 10
f 10 23 26
f 10 26 24
f 11 27 12
f 13 28 14
f 14 29 46
f 14 46 63
f 14 63 92
f 14 92 91
f 14 91 90
f 14 90 89
f 14 89 99
f 14 99 123
f 14 123 125
f 14 125 124
f 14 124 101
f 14 101 75
f 14 75 53
f 14 53 52
f 14 52 36
f 14 36 35
f 14 35 34
f 14 34 51
f 14 51 32
f 14 32 17
f 14 17 16
f 14 16 15
f 14 28 30
f 14 30 31
f 14 31 47
f 14 47 29
f 17 32 33
f 17 33 18
f 18 33 20
f 20 33 21
f 21 33 34
f 21 34 35
f 21 35 36
f 21 36 37
f 21 37 22
f 22 37 38
f 22 38 26
f 22 26 39
f 22 39 23
f 23 39 26
f 24 26 25
f 25 40 41
f 25 26 40
f 26 38 42
f 26 42 43
f 26 43 44
f 26 44 40
f 29 47 48
f 29 48 49
f 29 49 50
f 29 50 46
f 32 51 33
f 33 51 34
f 36 52 37
f 37 52 38
f 38 52 53
f 38 53 42
f 40 44 41
f 41 44 54
f 42 53 55
f 42 55 56
f 42 56 57
f 42 57 58
f 42 58 43
f 43 58 44
f 44 58 54
f 45 59 60
f 45 60 61
f 46 62 63
f 46 50 62
f 47 64 65
f 47 65 66
f 47 66 67
f 47 67 48
f 47 68 64
f 48 67 69
f 48 69 50
f 48 50 49
f 50 70 71
f 50 71 72
f 50 72 62
f 50 69 73
f 50 73 74
f 50 74 70
f 53 75 55
f 54 58 77
f 54 77 76
f 55 75 78
f 55 78 79
f 55 79 56
f 56 79 57
f 57 79 58
f 58 80 77
f 58 79 81
f 58 81 80
f 59 82 83
f 59 83 84
f 59 84 60
f 60 84 85
f 60 85 86
f 60 86 87
f 60 87 61
f 61 87 88
f 62 72 89
f 62 89 90
f 62 90 91
f 62 91 92
f 62 92 63
f 64 93 73
f 64 73 65
f 64 68 94
f 64 94 93
f 65 73 95
f 65 95 66
f 66 95 67
f 67 95 69
f 68 88 94
f 69 95 73
f 70 96 71
f 70 74 100
f 70 100 96
f 71 96 97
f 71 97 98
f 71 98 99
f 71 99 72
f 72 99 89
f 73 93 100
f 73 100 74
f 75 101 102
f 75 102 103
f 75 103 78
f 76 77 104
f 77 80 103
f 77 103 105
f 77 105 106
f 77 106 107
f 77 107 104
f 78 103 79
f 79 103 81
f 80 81 103
f 82 108 83
f 83 109 110
f 83 110 84
f 83 108 109
f 84 110 85
f 85 110 86
f 86 110 97
f 86 97 111
f 86 111 87
f 87 111 88
f 88 111 112
f 88 112 94
f 93 94 113
f 93 113 100
f 94 112 111
f 94 111 114
f 94 114 115
f 94 115 116
f 94 116 113
f 96 116 97
f 96 100 116
f 97 110 117
f 97 117 118
f 97 118 119
f 97 119 120
f 97 120 98
f 97 116 115
f 97 115 111
f 98 121 122
f 98 122 99
f 98 120 119
f 98 119 121
f 99 122 123
f 100 113 116
f 101 124 102
f 102 122 121
f 102 121 103
f 102 124 125
f 102 125 126
f 102 126 122
f 103 121 127
f 103 127 105
f 105 127 106
f 106 127 128
f 106 128 129
f 106 129 107
f 107 129 131
f 107 131 130
f 108 132 109
f 109 132 133
f 109 133 117
f 109 117 110
f 111 115 114
f 117 133 134
f 117 134 118
f 118 128 119
f 118 134 135
f 118 135 131
f 118 131 129
f 118 129 128
f 119 128 127
f 119 127 121
f 122 126 123
f 123 126 125
f 130 131 136
f 131 135 137
f 131 137 136
f 132 138 133
f 133 138 134
f 134 136 137
f 134 137 135

