# https://github.com/mikedh/trimesh
v -3.96808242 -0.70948420 1.12019018
v -3.96760516 -0.70948420 1.01364157
v -3.96765082 -0.70948420 1.12019018
v -3.96900373 -0.24440049 1.12019018
v -3.92786052 -0.70948420 1.01364157
v -3.96754710 -0.24440049 1.01364157
v -3.92777749 -0.70948420 1.11867789
v -3.92780658 -0.70943868 1.12019018
v -3.92805972 -0.24440049 1.12019018
v -3.92744966 -0.70948420 1.08686767
v -3.92737909 -0.69432437 1.01364157
v -3.92683132 -0.69432437 1.08686767
v -3.92814269 -0.24440049 1.01364157
v -3.92753264 -0.70948420 1.10353414
v -3.92693092 -0.69432437 1.10353414
v -3.92725458 -0.69432437 1.12019018
v -3.92787298 -0.24440049 1.10353414
v -3.92735835 -0.51094955 1.12019018
v -3.92663212 -0.67766220 1.10353414
v -3.92752435 -0.70948420 1.10201142
v -3.92660721 -0.67766220 1.08686767
v -3.92723801 -0.67766220 1.01364157
v -3.92810949 -0.24440049 1.02021221
v -3.92692675 -0.67761668 1.12019018
v -3.92788955 -0.24440049 1.08686767
v -3.92803898 -0.24440049 1.03687868
f 1 2 5
f 1 5 10
f 1 10 20
f 1 20 14
f 1 14 7
f 1 7 3
f 1 3 8
f 1 8 16
f 1 16 24
f 1 24 18
f 1 18 9
f 1 9 4
f 1 4 2
f 2 4 6
f 2 6 13
f 2 13 22
f 2 22 11
f 2 11 5
f 3 7 8
f 4 9 17
f 4 17 25
f 4 25 26
f 4 26 23
f 4 23 13
f 4 13 6
f 5 11 12
f 5 12 10
f 7 14 15
f 7 15 16
f 7 16 8
f 9 18 19
f 9 19 17
f 10 12 20
f 11 21 12
f 11 22 21
f 12 21 19
f 12 19 15
f 12 15 14
f 12 14 20
f 13 23 21
f 13 21 22
f 15 19 24
f 15 24 16
f 17 19 21
f 17 21 25
f 18 24 19
f 21 23 26
f 21 26 25

