# https://github.com/mikedh/trimesh
v -2.08300753 -0.19429559 1.50578463
v -2.08300753 -0.21095079 1.50752218
v -2.09962043 -0.21099880 1.50740946
v -2.13295400 -0.21099880 1.50724978
v -2.14963866 -0.21099880 1.50718404
v -2.21630568 -0.21099880 1.50712771
v -2.44956841 -0.21099081 1.50729675
v -2.09962043 -0.19434361 1.50580340
v -2.08300753 -0.17764842 1.50580340
v -2.08300753 -0.22065097 1.51053706
v -2.14963866 -0.22097111 1.51009563
v -2.21630568 -0.22129125 1.50989840
v -2.44956841 -0.22137928 1.51010505
v -2.44956841 -0.19434361 1.50625426
v -2.38290139 -0.16561123 1.50919398
v -2.29954971 -0.16549118 1.50908127
v -2.08300753 -0.16561123 1.50890281
v -2.44956841 -0.17768043 1.50665808
v -2.08300753 -0.23866675 1.55190957
v -2.44956841 -0.23867474 1.55154330
v -2.39958606 -0.16565924 1.50923153
v -2.44956841 -0.16004882 1.52020162
v -2.39958606 -0.15989676 1.52021098
v -2.29954971 -0.15968067 1.52021098
v -2.08300753 -0.15940055 1.52021098
v -2.44956841 -0.16589936 1.50947574
v -2.41013509 -0.16572325 1.50927850
v -2.08300753 -0.23866675 1.60134058
v -2.41013509 -0.23867474 1.55174053
v -2.44956841 -0.23867474 1.55178750
v -2.44956841 -0.15769579 1.53686333
v -2.08300753 -0.15691946 1.53689147
v -2.08300753 -0.19434361 1.60173504
v -2.29954971 -0.23866675 1.60083340
v -2.44389919 -0.23867474 1.60028867
v -2.41013509 -0.23867474 1.60031680
v -2.44956841 -0.23865073 1.60028867
v -2.44956841 -0.15784787 1.55351563
v -2.08300753 -0.15699951 1.55355319
v -2.08300753 -0.17768043 1.60052345
v -2.28290087 -0.19434361 1.60120909
v -2.31623438 -0.23866675 1.60077707
v -2.31623438 -0.19434361 1.60107760
v -2.44956841 -0.22763798 1.60025106
v -2.44956841 -0.15846412 1.57017735
v -2.08300753 -0.15775181 1.57020555
v -2.08300753 -0.16754005 1.59712352
v -2.39958606 -0.16786019 1.59639091
v -2.41013509 -0.16791622 1.59638149
v -2.41623490 -0.16794024 1.59636272
v -2.44956841 -0.17766442 1.59853234
v -2.44956841 -0.19431962 1.59995994
v -2.44956841 -0.21096679 1.60012898
v -2.44956841 -0.16300210 1.58683907
v -2.43291963 -0.16292205 1.58686726
v -2.08300753 -0.16208970 1.58686726
v -2.41013509 -0.16790820 1.59637213
v -2.44956841 -0.16818033 1.59618426
v -2.43291963 -0.16809229 1.59628761
f 1 2 3
f 1 3 4
f 1 4 5
f 1 5 6
f 1 6 7
f 1 7 8
f 1 8 9
f 1 9 17
f 1 17 25
f 1 25 32
f 1 32 39
f 1 39 46
f 1 46 56
f 1 56 47
f 1 47 40
f 1 40 33
f 1 33 28
f 1 28 19
f 1 19 10
f 1 10 2
f 2 10 11
f 2 11 3
f 3 11 4
f 4 11 12
f 4 12 5
f 5 12 6
f 6 12 7
f 7 13 20
f 7 20 30
f 7 30 37
f 7 37 44
f 7 44 53
f 7 53 52
f 7 52 51
f 7 51 58
f 7 58 54
f 7 54 45
f 7 45 38
f 7 38 31
f 7 31 22
f 7 22 26
f 7 26 18
f 7 18 14
f 7 14 8
f 7 12 13
f 8 14 9
f 9 15 16
f 9 16 17
f 9 14 18
f 9 18 15
f 10 19 11
f 11 19 12
f 12 19 20
f 12 20 13
f 15 21 22
f 15 22 23
f 15 23 24
f 15 24 16
f 15 18 21
f 16 24 25
f 16 25 17
f 18 26 27
f 18 27 21
f 19 28 36
f 19 36 29
f 19 29 20
f 20 29 36
f 20 36 35
f 20 35 30
f 21 27 26
f 21 26 22
f 22 31 23
f 23 31 24
f 24 32 25
f 24 31 32
f 28 33 34
f 28 34 35
f 28 35 36
f 30 35 37
f 31 38 39
f 31 39 32
f 33 40 41
f 33 41 34
f 34 41 42
f 34 42 35
f 35 42 37
f 37 43 44
f 37 42 41
f 37 41 43
f 38 45 39
f 39 45 46
f 40 43 41
f 40 47 48
f 40 48 49
f 40 49 50
f 40 50 51
f 40 51 43
f 43 51 52
f 43 52 53
f 43 53 44
f 45 54 55
f 45 55 56
f 45 56 46
f 47 56 48
f 48 56 55
f 48 55 57
f 48 57 49
f 49 57 50
f 50 54 58
f 50 58 59
f 50 59 51
f 50 57 54
f 51 59 58
f 54 57 55

