# https://github.com/mikedh/trimesh
v -3.90235615 -0.70949264 1.16518280
v -3.84769491 -0.70949264 1.16558380
v -3.90235615 -0.73312931 1.13672236
v -3.90235615 -0.70949264 1.22199817
v -3.84769491 -0.73422870 1.13672236
v -3.84769491 -0.70949264 1.22106953
v -3.90235615 -0.79017869 1.13672236
v -3.90235615 -0.73627524 1.24450692
v -3.84769491 -0.73643591 1.24450692
v -3.84769491 -0.78982350 1.13672236
v -3.88293900 -0.79014486 1.13672236
v -3.90235615 -0.79353603 1.15079957
v -3.90235615 -0.78741334 1.24450692
v -3.84769491 -0.78715963 1.24450692
v -3.84769491 -0.79391658 1.15354325
v -3.86643792 -0.79000109 1.13672236
v -3.88293900 -0.79411957 1.15354325
v -3.90235615 -0.79400963 1.15354325
v -3.84769491 -0.79587858 1.20353105
v -3.90235615 -0.79576017 1.20353105
v -3.84769491 -0.79534579 1.17021641
v -3.90235615 -0.79539652 1.17021641
v -3.90235615 -0.79577707 1.20078737
v -3.90235615 -0.79573481 1.18687901
v -3.84769491 -0.79563330 1.18687901
v -3.84769491 -0.79537962 1.17212643
f 1 2 3
f 1 3 7
f 1 7 12
f 1 12 18
f 1 18 22
f 1 22 24
f 1 24 23
f 1 23 20
f 1 20 13
f 1 13 8
f 1 8 4
f 1 4 6
f 1 6 2
f 2 5 3
f 2 6 9
f 2 9 14
f 2 14 19
f 2 19 25
f 2 25 26
f 2 26 21
f 2 21 15
f 2 15 10
f 2 10 5
f 3 5 10
f 3 10 16
f 3 16 11
f 3 11 7
f 4 8 9
f 4 9 6
f 7 11 12
f 8 13 14
f 8 14 9
f 10 15 16
f 11 16 15
f 11 15 17
f 11 17 12
f 12 17 18
f 13 19 14
f 13 20 19
f 15 21 17
f 17 21 22
f 17 22 18
f 19 20 23
f 19 23 24
f 19 24 25
f 21 26 24
f 21 24 22
f 24 26 25

