# https://github.com/mikedh/trimesh
v -0.98202651 -0.77703677 0.70539737
v -1.26540265 -0.76038417 0.70620514
v -0.92082472 -0.76038417 0.70586109
v -0.92082472 -0.77703677 0.70541233
v -0.99872561 -0.79089366 0.71091725
v -1.03212383 -0.79095088 0.71094717
v -1.76518897 -0.79047894 0.71153056
v -1.76518897 -0.77703677 0.70651928
v -1.36525822 -0.74691337 0.71162032
v -1.31549997 -0.74694913 0.71154552
v -1.76518897 -0.76038417 0.70710270
v -0.92082472 -0.75588674 0.70765616
v -0.92082472 -0.79081500 0.71091725
v -1.13206414 -0.79925929 0.72388673
v -1.51529584 -0.79897327 0.72405127
v -1.76518897 -0.79878736 0.72488899
v -1.78680460 -0.79032880 0.71166521
v -1.78680460 -0.78653211 0.71021418
v -1.78680460 -0.77703677 0.70671375
v -1.78680460 -0.77224618 0.70684839
v -1.36525822 -0.74147929 0.72488899
v -1.34881340 -0.74689194 0.71162032
v -0.92082472 -0.74664884 0.71135106
v -1.76518897 -0.74787150 0.71212893
v -1.41527075 -0.74160085 0.72488899
v -1.78680460 -0.76038417 0.70726724
v -1.78680460 -0.74792153 0.71221870
v -0.92082472 -0.79915204 0.72447012
v -1.03212383 -0.79928073 0.72415600
v -1.11536503 -0.80621631 0.74155334
v -1.41527075 -0.80636649 0.74155334
v -1.48198241 -0.80638079 0.74155334
v -1.51529584 -0.80635933 0.74155334
v -1.78680460 -0.80539406 0.74043142
v -1.78680460 -0.79910196 0.72586130
v -0.92082472 -0.74112180 0.72488899
v -1.78680460 -0.73813306 0.75386462
v -1.78680460 -0.74644147 0.71588364
v -1.78680460 -0.74300941 0.72488899
v -0.92082472 -0.80580877 0.74155334
v -0.94871308 -0.80587313 0.74155334
v -0.92082472 -0.80847576 0.75274270
v -0.92082472 -0.80976994 0.75821770
v -0.96541217 -0.80985574 0.75821770
v -1.08205160 -0.81000589 0.75821770
v -1.09875070 -0.81002734 0.75821770
v -1.33211431 -0.81024183 0.75821770
v -1.41527075 -0.81029187 0.75821770
v -1.44866898 -0.81030618 0.75821770
v -1.54860928 -0.81030618 0.75821770
v -1.56530837 -0.81029902 0.75821770
v -1.78680460 -0.81007739 0.75821770
v -1.78680460 -0.80891908 0.75341585
v -1.53199494 -0.80632357 0.74155334
v -1.76518897 -0.80580162 0.74161318
v -0.92082472 -0.73813306 0.75286237
v -1.44883849 -0.73813306 0.75313162
v -1.43213940 -0.73813306 0.75310172
v -1.41552506 -0.73813306 0.75308676
v -1.78680460 -0.73813306 0.84336450
v -0.92082472 -0.81043489 0.77488206
v -1.08205160 -0.81054215 0.77488206
v -1.51529584 -0.81079953 0.77488206
v -1.59862181 -0.81083529 0.77488206
v -1.63185048 -0.81083529 0.77488206
v -1.73187554 -0.81080668 0.77488206
v -1.78680460 -0.81052785 0.77009517
v -0.92082472 -0.73813306 0.84583275
v -1.78680460 -0.74616976 0.85821881
v -1.23208922 -0.74297368 0.85821881
v -1.03212383 -0.74210135 0.85821881
v -1.01533994 -0.74205847 0.85821881
v -1.23208922 -0.73813306 0.84523437
v -0.92082472 -0.81059935 0.78604150
v -0.94871308 -0.81070661 0.79153146
v -1.48198241 -0.81104982 0.79153146
v -1.64854958 -0.81114989 0.79153146
v -1.74857464 -0.81117850 0.79153146
v -1.78197289 -0.81069945 0.77488206
v -1.78680460 -0.81068515 0.77488206
v -0.94871308 -0.73813306 0.84586267
v -0.94871308 -0.74210135 0.85821881
v -0.92082472 -0.74216570 0.85821881
v -1.78680460 -0.79609178 0.85821881
v -1.01457706 -0.73813306 0.84587761
v -1.03212383 -0.73813306 0.84584771
v -0.92082472 -0.81067799 0.79153146
v -0.92082472 -0.81046349 0.80270586
v -0.92082472 -0.81035625 0.80819582
v -1.74857464 -0.81027045 0.80819582
v -1.76518897 -0.81024183 0.80819582
v -1.78680460 -0.81017750 0.80819582
v -1.76518897 -0.81112131 0.79153146
v -1.78680460 -0.81092825 0.78672961
v -0.92082472 -0.79549833 0.85821881
v -1.39865642 -0.79620619 0.85821881
v -1.19877578 -0.79599167 0.85821881
v -1.33211431 -0.79617758 0.85821881
v -1.34881340 -0.79619904 0.85821881
v -1.78680460 -0.81101405 0.79153146
v -1.78197289 -0.81104266 0.79153146
f 1 2 3
f 1 3 4
f 1 4 5
f 1 5 6
f 1 6 7
f 1 7 8
f 1 8 2
f 2 9 10
f 2 10 3
f 2 8 11
f 2 11 9
f 3 12 23
f 3 23 36
f 3 36 56
f 3 56 68
f 3 68 83
f 3 83 95
f 3 95 89
f 3 89 88
f 3 88 87
f 3 87 74
f 3 74 61
f 3 61 43
f 3 43 42
f 3 42 40
f 3 40 28
f 3 28 13
f 3 13 4
f 3 10 12
f 4 13 5
f 5 13 6
f 6 13 14
f 6 14 15
f 6 15 7
f 7 16 17
f 7 17 18
f 7 18 8
f 7 15 16
f 8 18 19
f 8 19 20
f 8 20 11
f 9 21 22
f 9 22 23
f 9 23 10
f 9 11 24
f 9 24 25
f 9 25 21
f 10 23 12
f 11 20 26
f 11 26 27
f 11 27 24
f 13 28 29
f 13 29 14
f 14 29 30
f 14 30 31
f 14 31 32
f 14 32 33
f 14 33 15
f 15 33 34
f 15 34 16
f 16 34 35
f 16 35 17
f 17 35 34
f 17 34 53
f 17 53 52
f 17 52 67
f 17 67 80
f 17 80 94
f 17 94 100
f 17 100 92
f 17 92 84
f 17 84 69
f 17 69 60
f 17 60 37
f 17 37 39
f 17 39 38
f 17 38 27
f 17 27 26
f 17 26 20
f 17 20 19
f 17 19 18
f 21 36 23
f 21 23 22
f 21 25 37
f 21 37 36
f 24 27 38
f 24 38 25
f 25 38 39
f 25 39 37
f 28 40 41
f 28 41 29
f 29 41 30
f 30 41 42
f 30 42 43
f 30 43 44
f 30 44 45
f 30 45 46
f 30 46 47
f 30 47 48
f 30 48 31
f 31 48 49
f 31 49 32
f 32 49 50
f 32 50 51
f 32 51 33
f 33 51 52
f 33 52 53
f 33 53 54
f 33 54 34
f 34 54 55
f 34 55 53
f 36 37 57
f 36 57 58
f 36 58 59
f 36 59 56
f 37 60 73
f 37 73 86
f 37 86 85
f 37 85 81
f 37 81 68
f 37 68 56
f 37 56 59
f 37 59 58
f 37 58 57
f 40 42 41
f 43 61 44
f 44 61 45
f 45 61 46
f 46 61 47
f 47 61 62
f 47 62 48
f 48 63 64
f 48 64 49
f 48 62 63
f 49 64 65
f 49 65 50
f 50 65 66
f 50 66 51
f 51 66 52
f 52 66 67
f 53 55 54
f 60 69 70
f 60 70 71
f 60 71 72
f 60 72 73
f 61 74 75
f 61 75 62
f 62 75 76
f 62 76 77
f 62 77 63
f 63 77 64
f 64 77 78
f 64 78 65
f 65 78 66
f 66 78 79
f 66 79 67
f 67 79 80
f 68 81 72
f 68 72 82
f 68 82 83
f 69 84 96
f 69 96 99
f 69 99 98
f 69 98 97
f 69 97 95
f 69 95 83
f 69 83 82
f 69 82 72
f 69 72 71
f 69 71 70
f 72 81 85
f 72 85 86
f 72 86 73
f 74 87 75
f 75 87 88
f 75 88 89
f 75 89 76
f 76 89 77
f 77 89 78
f 78 89 90
f 78 90 91
f 78 91 92
f 78 92 93
f 78 93 80
f 78 80 79
f 80 93 94
f 84 92 91
f 84 91 90
f 84 90 96
f 89 95 97
f 89 97 98
f 89 98 99
f 89 99 96
f 89 96 90
f 92 100 101
f 92 101 93
f 93 101 94
f 94 101 100

