# https://github.com/mikedh/trimesh
v 0.15546929 -0.71028761 1.87019223
v 0.15607893 -0.71028761 1.65480567
v 0.15653419 -0.71028761 1.87019223
v 0.15531878 -0.56100443 1.87019223
v 0.19423944 -0.71028761 1.65480567
v 0.15622938 -0.26331309 1.65480567
v 0.19346391 -0.71028761 1.86947542
v 0.19345229 -0.71024387 1.87019223
v 0.15552329 -0.39435153 1.87019223
v 0.19459831 -0.69558681 1.65480567
v 0.19408512 -0.71028761 1.83614275
v 0.15575092 -0.26331309 1.87019223
v 0.19422788 -0.26331309 1.65480567
v 0.19408125 -0.71028761 1.83685962
v 0.19428963 -0.69431798 1.83685962
v 0.19381118 -0.26331309 1.87019223
v 0.19462533 -0.69431798 1.65480567
v 0.19435138 -0.69431798 1.82020380
v 0.19460989 -0.26331309 1.77251350
v 0.19473720 -0.67764833 1.65480567
v 0.19463689 -0.26331309 1.80584612
v 0.19457901 -0.26331309 1.82020380
v 0.19456357 -0.26331309 1.82250187
v 0.19446326 -0.26331309 1.83685962
v 0.19420857 -0.26331309 1.85353647
v 0.19472952 -0.67891714 1.65480567
v 0.19464458 -0.26331309 1.80352694
v 0.19466389 -0.26331309 1.78916926
f 1 2 5
f 1 5 11
f 1 11 14
f 1 14 7
f 1 7 3
f 1 3 8
f 1 8 16
f 1 16 12
f 1 12 9
f 1 9 4
f 1 4 2
f 2 4 6
f 2 6 13
f 2 13 20
f 2 20 26
f 2 26 17
f 2 17 10
f 2 10 5
f 3 7 8
f 4 9 6
f 5 10 11
f 6 9 12
f 6 12 16
f 6 16 25
f 6 25 24
f 6 24 23
f 6 23 22
f 6 22 21
f 6 21 27
f 6 27 28
f 6 28 19
f 6 19 13
f 7 14 8
f 8 14 15
f 8 15 16
f 10 17 11
f 11 17 18
f 11 18 15
f 11 15 14
f 13 19 20
f 15 18 21
f 15 21 22
f 15 22 23
f 15 23 24
f 15 24 25
f 15 25 16
f 17 26 18
f 18 26 20
f 18 20 27
f 18 27 21
f 19 28 20
f 20 28 27

