# https://github.com/mikedh/trimesh
v -0.28008938 2.02228476 0.95972364
v -0.28008938 2.01876884 0.95967399
v -0.27108551 2.03965856 0.97564958
v -0.27008729 2.05445117 0.97564958
v -0.28008938 2.03801209 0.95715414
v -0.27052649 2.02209611 0.97564958
v -0.28008938 1.98376397 0.95242477
v -0.26868978 2.06292367 0.97564958
v -0.28008938 2.04578141 0.94569690
v -0.26974793 2.02057825 0.97564958
v -0.22785294 1.98376397 0.96333584
v -0.22752354 1.98661958 0.97564958
v -0.22771320 1.98667961 0.97564958
v -0.24142862 1.99238226 0.97564958
v -0.26232122 2.01030490 0.97564958
v -0.26393833 2.01200283 0.97564958
v -0.28008938 1.98376397 0.87165304
v -0.28008938 2.04946886 0.91538422
v -0.28008938 2.04940025 0.92577394
v -0.28008938 2.04901436 0.93131016
v -0.28008938 2.04655320 0.94245708
v -0.26034476 2.06782025 0.97564958
v -0.26790120 2.06349823 0.94245708
v -0.26776146 2.06362687 0.89243249
v -0.26797110 2.06343820 0.87576176
v -0.26839032 2.06289797 0.84886267
v -0.28008938 2.04954603 0.89243249
v -0.22750356 1.98376397 0.96336066
v -0.21105299 1.98640519 0.97564958
v -0.28008938 2.02282502 0.86405625
v -0.27222346 2.02385408 0.84886267
v -0.26846022 2.01667643 0.84886267
v -0.26092370 2.00790377 0.84886267
v -0.24262646 1.99130176 0.84886267
v -0.22752354 1.98558196 0.84886267
v -0.22752354 1.98376397 0.85650912
v -0.24419365 2.07102748 0.97564958
v -0.26004530 2.06763158 0.84886267
v -0.26945843 2.05967361 0.84886267
v -0.28008938 2.04347462 0.87488042
v -0.21163199 1.98376397 0.95887955
v -0.21085337 1.98641378 0.97564958
v -0.28008938 2.04032745 0.87085860
v -0.27268264 2.03966713 0.84886267
v -0.21102305 1.98587352 0.84886267
v -0.21202127 1.98376397 0.86028269
v -0.24404395 2.07103602 0.97564958
v -0.24419365 2.07086454 0.90911563
v -0.24419365 2.07071017 0.84886267
v -0.27053650 2.05456264 0.84886267
v -0.21132251 1.98376397 0.95870577
v -0.19432300 1.98748570 0.97564958
v -0.19417324 1.98789733 0.84886267
v -0.21149225 1.98376397 0.86050612
v -0.22752354 2.07121611 0.97564958
v -0.22752354 2.07119038 0.94245708
v -0.22752354 2.07117323 0.92577394
v -0.22752354 2.07093311 0.84886267
v -0.20631151 1.98376397 0.94246949
v -0.19417324 1.98751143 0.97564958
v -0.18232448 1.99354852 0.84886267
v -0.19417324 1.98737421 0.89243249
v -0.20512363 1.98376397 0.89243249
v -0.20676073 1.98376397 0.87574934
v -0.21085337 2.07136190 0.97564958
v -0.21085337 2.07136190 0.94245708
v -0.21085337 2.07133617 0.92577394
v -0.21085337 2.07107891 0.84886267
v -0.20539315 1.98376397 0.92577394
v -0.18200504 1.99324837 0.95912781
v -0.18210488 1.99329983 0.97564958
v -0.20493397 1.98376397 0.90933907
v -0.19417324 1.98735706 0.92577394
v -0.18194516 1.99318835 0.94245708
v -0.18008847 2.00138646 0.84886267
v -0.17834157 2.00632590 0.89243249
v -0.17822181 2.00632590 0.90911563
v -0.18212480 1.99330840 0.89243249
v -0.18204494 1.99323123 0.90911563
v -0.18197510 1.99317120 0.92577394
v -0.19417324 1.98730562 0.90911563
v -0.20493397 1.98376397 0.90911563
v -0.21070360 2.07136190 0.97564958
v -0.19417324 2.07093311 0.94245708
v -0.19417324 2.07090741 0.92577394
v -0.19417324 2.07055579 0.84886267
v -0.17819187 2.00632590 0.95912781
v -0.17830167 2.00632590 0.97564958
v -0.17811201 2.00632590 0.94245708
v -0.17812197 2.00632590 0.92577394
v -0.17868099 2.00632590 0.84886267
v -0.17863107 2.02299652 0.84886267
v -0.19417324 2.07091598 0.97564958
v -0.19417324 2.07092455 0.95912781
v -0.18278366 2.06757155 0.94245708
v -0.18279362 2.06755441 0.92577394
v -0.19407340 2.07089023 0.97564958
v -0.18278366 2.06756299 0.97564958
v -0.18282356 2.06752011 0.90911563
v -0.18301322 2.06734003 0.84886267
v -0.17830167 2.02315088 0.97564958
v -0.17830167 2.03966713 0.94245708
v -0.17833161 2.03966713 0.95912781
v -0.17822181 2.02299652 0.92577394
v -0.17828168 2.02299652 0.90911563
v -0.17871093 2.03966713 0.84886267
v -0.17865105 2.03966713 0.85907862
v -0.17904033 2.05634634 0.94245708
v -0.17906031 2.05634634 0.92577394
v -0.17910027 2.05634634 0.90911563
v -0.17906031 2.05634634 0.97564958
v -0.17905035 2.05634634 0.95912781
v -0.18162572 2.06307806 0.84886267
v -0.17839149 2.03982150 0.97564958
v -0.17833161 2.03966713 0.92577394
v -0.17847135 2.03966713 0.89243249
v -0.17839149 2.03966713 0.90911563
v -0.17916014 2.04988903 0.84886267
v -0.17944959 2.05634634 0.84886267
f 1 2 3
f 1 3 4
f 1 4 5
f 1 5 9
f 1 9 21
f 1 21 20
f 1 20 19
f 1 19 18
f 1 18 27
f 1 27 40
f 1 40 43
f 1 43 30
f 1 30 17
f 1 17 7
f 1 7 2
f 2 6 3
f 2 7 6
f 3 6 10
f 3 10 16
f 3 16 15
f 3 15 14
f 3 14 13
f 3 13 12
f 3 12 29
f 3 29 42
f 3 42 52
f 3 52 60
f 3 60 71
f 3 71 88
f 3 88 101
f 3 101 114
f 3 114 111
f 3 111 98
f 3 98 97
f 3 97 93
f 3 93 83
f 3 83 65
f 3 65 55
f 3 55 47
f 3 47 37
f 3 37 22
f 3 22 8
f 3 8 4
f 4 8 5
f 5 8 9
f 6 7 10
f 7 11 12
f 7 12 13
f 7 13 14
f 7 14 15
f 7 15 16
f 7 16 10
f 7 17 36
f 7 36 46
f 7 46 54
f 7 54 64
f 7 64 63
f 7 63 82
f 7 82 72
f 7 72 69
f 7 69 59
f 7 59 51
f 7 51 41
f 7 41 28
f 7 28 11
f 8 18 19
f 8 19 20
f 8 20 21
f 8 21 9
f 8 22 23
f 8 23 24
f 8 24 25
f 8 25 26
f 8 26 27
f 8 27 18
f 11 28 12
f 12 28 29
f 17 30 31
f 17 31 32
f 17 32 33
f 17 33 34
f 17 34 35
f 17 35 36
f 22 37 38
f 22 38 24
f 22 24 23
f 24 38 25
f 25 38 26
f 26 38 49
f 26 49 58
f 26 58 68
f 26 68 86
f 26 86 100
f 26 100 113
f 26 113 119
f 26 119 118
f 26 118 106
f 26 106 92
f 26 92 91
f 26 91 75
f 26 75 61
f 26 61 53
f 26 53 45
f 26 45 35
f 26 35 34
f 26 34 33
f 26 33 32
f 26 32 31
f 26 31 44
f 26 44 50
f 26 50 39
f 26 39 40
f 26 40 27
f 28 41 42
f 28 42 29
f 30 43 44
f 30 44 31
f 35 45 36
f 36 45 46
f 37 47 48
f 37 48 38
f 38 48 49
f 39 50 43
f 39 43 40
f 41 51 52
f 41 52 42
f 43 50 44
f 45 53 54
f 45 54 46
f 47 55 56
f 47 56 57
f 47 57 48
f 48 57 49
f 49 57 58
f 51 59 52
f 52 59 60
f 53 61 62
f 53 62 63
f 53 63 64
f 53 64 54
f 55 65 66
f 55 66 56
f 56 66 57
f 57 66 67
f 57 67 58
f 58 67 68
f 59 69 60
f 60 70 71
f 60 69 72
f 60 72 73
f 60 73 74
f 60 74 70
f 61 75 76
f 61 76 77
f 61 77 78
f 61 78 62
f 62 78 79
f 62 79 80
f 62 80 81
f 62 81 63
f 63 81 82
f 65 83 66
f 66 84 85
f 66 85 67
f 66 83 84
f 67 85 68
f 68 85 86
f 70 87 88
f 70 88 71
f 70 74 89
f 70 89 87
f 72 82 81
f 72 81 73
f 73 81 74
f 74 81 80
f 74 80 90
f 74 90 89
f 75 91 76
f 76 91 92
f 76 92 77
f 77 90 79
f 77 79 78
f 77 92 90
f 79 90 80
f 83 93 94
f 83 94 84
f 84 95 96
f 84 96 85
f 84 94 97
f 84 97 98
f 84 98 95
f 85 96 99
f 85 99 100
f 85 100 86
f 87 101 88
f 87 89 101
f 89 90 102
f 89 102 103
f 89 103 101
f 90 104 102
f 90 92 105
f 90 105 104
f 92 106 107
f 92 107 105
f 93 97 94
f 95 108 96
f 95 98 108
f 96 109 110
f 96 110 99
f 96 108 109
f 98 111 112
f 98 112 108
f 99 110 100
f 100 110 113
f 101 103 114
f 102 104 115
f 102 115 109
f 102 109 108
f 102 108 112
f 102 112 111
f 102 111 103
f 103 111 114
f 104 105 117
f 104 117 115
f 105 107 116
f 105 116 117
f 106 118 107
f 107 118 110
f 107 110 116
f 109 115 110
f 110 117 116
f 110 118 119
f 110 119 113
f 110 115 117

