# https://github.com/mikedh/trimesh
v 2.06912509 -0.73981944 1.87915636
v 2.13606272 -0.73981944 1.87915636
v 2.07254637 -0.71576267 1.87915636
v 2.07223178 -0.73981944 1.65710022
v 2.13414237 -0.73263654 1.87915636
v 2.13608239 -0.73981944 1.75356509
v 2.12125687 -0.71576267 1.87915636
v 2.07694422 -0.71576267 1.65710022
v 2.13584648 -0.73981944 1.65710022
v 2.13105535 -0.72816431 1.87915636
v 2.13607584 -0.73981944 1.70355032
v 2.13606272 -0.73981944 1.69613830
v 2.13423416 -0.73416497 1.68687871
v 2.13416860 -0.73422386 1.67022885
v 2.13409647 -0.73429920 1.65710022
v 2.11556786 -0.71576267 1.65710022
v 2.13589893 -0.73981944 1.66268642
v 2.13478467 -0.73645878 1.65710022
v 2.13604306 -0.73981944 1.68687871
v 2.13601026 -0.73981944 1.67942324
v 2.13595127 -0.73981944 1.67022885
v 2.13591204 -0.73981944 1.66431662
f 1 2 5
f 1 5 10
f 1 10 7
f 1 7 3
f 1 3 4
f 1 4 9
f 1 9 17
f 1 17 22
f 1 22 21
f 1 21 20
f 1 20 19
f 1 19 12
f 1 12 11
f 1 11 6
f 1 6 2
f 2 6 5
f 3 7 16
f 3 16 8
f 3 8 4
f 4 8 16
f 4 16 15
f 4 15 18
f 4 18 9
f 5 6 11
f 5 11 12
f 5 12 13
f 5 13 10
f 7 10 14
f 7 14 15
f 7 15 16
f 9 18 17
f 10 13 14
f 12 19 13
f 13 19 20
f 13 20 14
f 14 20 21
f 14 21 22
f 14 22 15
f 15 22 18
f 17 18 22

