# https://github.com/mikedh/trimesh
v -2.02852901 1.62617590 1.99309747
v -2.03193286 1.62617590 2.00977641
v -2.02855334 1.62617590 1.98970543
v -2.02915304 1.97277531 1.97643416
v -2.02936375 1.97277531 1.99309747
v -2.03254877 1.97277531 2.00977641
v -2.03686836 1.62617590 2.01885054
v -2.03692514 1.97277531 2.01892867
v -2.02887749 1.62617590 1.97304212
v -2.02981762 1.97277531 1.95991161
v -2.02938808 1.62617590 1.95975529
v -2.04676381 1.62617590 2.02037461
v -2.04676381 1.97277531 2.02062475
v -2.02982573 1.97277531 1.95975529
v -2.03006883 1.62617590 1.95730110
v -2.06343439 1.62617590 2.02114065
v -2.04690963 1.97277531 2.02063262
v -2.06343439 1.97277531 2.02145317
v -2.06359650 1.97277531 2.02146104
v -2.03441274 1.97277531 1.94716399
v -2.03404810 1.62617590 1.94668721
v -2.11132298 1.72281924 2.02113277
v -2.11132298 1.62617590 2.02103902
v -2.11132298 1.97277531 2.02128128
v -2.04676381 1.97277531 1.94228694
v -2.03639021 1.62617590 1.94573373
v -2.11132298 1.62617590 1.96544519
v -2.11132298 1.97277531 1.96369442
v -2.06343439 1.92289267 1.94177891
v -2.06343439 1.93958807 1.94185704
v -2.06343439 1.97277531 1.94212280
v -2.04676381 1.62617590 1.94173203
v -2.05015138 1.62617590 1.94161478
v -2.08852544 1.67697472 1.95130638
v -2.08790952 1.62617590 1.95174408
v -2.07825723 1.97277531 1.94699985
v -2.07892182 1.95624956 1.94688266
v -2.08163675 1.92340168 1.94745319
v -2.08010504 1.90623120 1.94632770
v -2.08871999 1.91817588 1.95106411
v -2.08873615 1.90623120 1.95104849
v -2.08854166 1.68949629 1.95129075
v -2.06343439 1.90623120 1.94177110
v -2.06343439 1.62617590 1.94225568
v -2.06343439 1.72281924 1.94186491
v -2.06343439 1.73948071 1.94181016
v -2.06343439 1.82285595 1.94175547
v -2.06343439 1.83955136 1.94174766
v -2.08009693 1.68949629 1.94671853
v -2.08174213 1.67195253 1.94772676
v -2.07958640 1.62617590 1.94720305
v -2.08010504 1.85621284 1.94641370
v -2.06668425 1.62617590 1.94320136
f 1 2 7
f 1 7 12
f 1 12 16
f 1 16 23
f 1 23 27
f 1 27 35
f 1 35 51
f 1 51 53
f 1 53 44
f 1 44 33
f 1 33 32
f 1 32 26
f 1 26 21
f 1 21 15
f 1 15 11
f 1 11 9
f 1 9 3
f 1 3 4
f 1 4 5
f 1 5 6
f 1 6 2
f 2 6 8
f 2 8 7
f 3 9 4
f 4 10 14
f 4 14 20
f 4 20 25
f 4 25 31
f 4 31 36
f 4 36 28
f 4 28 24
f 4 24 19
f 4 19 18
f 4 18 17
f 4 17 13
f 4 13 8
f 4 8 6
f 4 6 5
f 4 9 11
f 4 11 10
f 7 8 13
f 7 13 12
f 10 11 14
f 11 15 14
f 12 13 17
f 12 17 18
f 12 18 19
f 12 19 16
f 14 15 20
f 15 21 20
f 16 22 23
f 16 19 22
f 19 24 22
f 20 21 26
f 20 26 25
f 22 24 28
f 22 28 27
f 22 27 23
f 25 29 30
f 25 30 31
f 25 26 32
f 25 32 33
f 25 33 29
f 27 28 34
f 27 34 35
f 28 36 37
f 28 37 38
f 28 38 39
f 28 39 40
f 28 40 41
f 28 41 42
f 28 42 34
f 29 33 43
f 29 43 39
f 29 39 30
f 30 39 31
f 31 39 37
f 31 37 36
f 33 44 45
f 33 45 46
f 33 46 47
f 33 47 48
f 33 48 43
f 34 42 49
f 34 49 50
f 34 50 51
f 34 51 35
f 37 39 38
f 39 43 48
f 39 48 47
f 39 47 46
f 39 46 52
f 39 52 42
f 39 42 41
f 39 41 40
f 42 52 49
f 44 53 49
f 44 49 45
f 45 49 46
f 46 49 52
f 49 53 51
f 49 51 50

