# https://github.com/mikedh/trimesh
v 1.68093638 -0.70902049 0.56878765
v 1.68093638 -0.69433936 0.56881054
v 1.68093638 -0.70902049 0.51040813
v 1.72413310 -0.70902049 0.56883343
v 1.68093638 -0.61469189 0.56879337
v 1.68093638 -0.61469189 0.51194100
v 1.88638224 -0.61469189 0.51316499
v 1.88638224 -0.70902049 0.51311921
v 1.72612403 -0.70902049 0.56883343
v 1.77611801 -0.70902049 0.56881626
v 1.88638224 -0.70902049 0.56876479
v 1.88638224 -0.69433936 0.56874763
v 1.88638224 -0.63208765 0.56860463
v 1.88638224 -0.62768331 0.56859319
v 1.88638224 -0.61469189 0.56852456
f 1 2 5
f 1 5 6
f 1 6 3
f 1 3 8
f 1 8 11
f 1 11 10
f 1 10 9
f 1 9 4
f 1 4 2
f 2 4 5
f 3 6 7
f 3 7 8
f 4 9 5
f 5 9 10
f 5 10 11
f 5 11 12
f 5 12 13
f 5 13 14
f 5 14 15
f 5 15 7
f 5 7 6
f 7 15 14
f 7 14 13
f 7 13 12
f 7 12 11
f 7 11 8

