# https://github.com/mikedh/trimesh
v 0.15743846 -0.13837610 0.07021489
v 0.17409702 -0.13865607 0.07021489
v 0.14077210 -0.14376530 0.07021489
v 0.15743846 -0.13841112 0.10354268
v 0.17409702 -0.13874357 0.18685568
v 0.19077132 -0.14109695 0.07021489
v 0.19077132 -0.13986340 0.18685568
v 0.19077132 -0.13991588 0.17019831
v 0.13170485 -0.15098294 0.07021489
v 0.13192467 -0.15146413 0.20377453
v 0.14077210 -0.14443895 0.20377453
v 0.15720297 -0.13876106 0.20377453
v 0.15743846 -0.13868232 0.20377453
v 0.15743846 -0.13862984 0.18685568
v 0.17409702 -0.13879605 0.20352616
v 0.20657419 -0.14770218 0.12020004
v 0.20268823 -0.14803462 0.07021489
v 0.20707660 -0.14713352 0.15352789
v 0.19052795 -0.13994214 0.20377453
v 0.19077132 -0.13995963 0.20377453
v 0.13093558 -0.16100894 0.07021489
v 0.13152436 -0.16100894 0.20377453
v 0.17386152 -0.13879605 0.20377453
v 0.17409702 -0.13880481 0.20377453
v 0.21112736 -0.15067675 0.12020004
v 0.21112736 -0.15401875 0.09988173
v 0.21112736 -0.16173508 0.08783977
v 0.20687245 -0.16100894 0.07021489
v 0.21112736 -0.15111419 0.11381955
v 0.20624445 -0.14685359 0.17019831
v 0.21112736 -0.14992435 0.15352789
v 0.20337905 -0.14686232 0.20377453
v 0.13093558 -0.17767515 0.07021489
v 0.13177554 -0.17767515 0.20352616
v 0.13177554 -0.17743894 0.20377453
v 0.21112736 -0.17764014 0.08475413
v 0.20658986 -0.17767515 0.07021489
v 0.21112736 -0.15135041 0.17019831
v 0.20699023 -0.16100894 0.20377453
v 0.21112736 -0.16079895 0.18730027
v 0.13170485 -0.19569739 0.07021489
v 0.13217585 -0.19179549 0.20377453
v 0.21112736 -0.19567990 0.08870273
v 0.20239771 -0.19156803 0.07021489
v 0.20695882 -0.16125389 0.20377453
v 0.21112736 -0.22774379 0.18413613
v 0.21112736 -0.19457758 0.18747020
v 0.21112736 -0.17767515 0.18886920
v 0.13186185 -0.19762210 0.07021489
v 0.13264691 -0.20012423 0.20377453
v 0.21112736 -0.19825201 0.09071625
v 0.19683179 -0.19990551 0.07021489
v 0.20476070 -0.17767515 0.20377453
v 0.21112736 -0.22774379 0.12386105
v 0.19311070 -0.22767380 0.20377453
v 0.19311857 -0.22774379 0.20352616
v 0.13232510 -0.20274883 0.07021489
v 0.15399216 -0.22767380 0.20377453
v 0.13264691 -0.20013297 0.20352616
v 0.13705101 -0.22774379 0.15344945
v 0.13990067 -0.22774379 0.17011987
v 0.21112736 -0.20643204 0.09967252
v 0.18850251 -0.20678198 0.07021489
v 0.21112736 -0.20882917 0.10237901
v 0.18366669 -0.22774379 0.09422032
v 0.15467517 -0.22774379 0.20377453
v 0.13737288 -0.20544343 0.07021489
v 0.14805727 -0.22774379 0.09415493
v 0.14225579 -0.22774379 0.10350346
v 0.13737288 -0.22774379 0.12012160
v 0.13734147 -0.22767380 0.12020004
v 0.13710597 -0.22774379 0.13679208
v 0.15398429 -0.22774379 0.20347382
v 0.17410489 -0.21108630 0.07021489
v 0.17417552 -0.22774379 0.09263828
v 0.13866035 -0.20608205 0.07021489
v 0.13925694 -0.20636203 0.07021489
v 0.15744633 -0.21130501 0.07021489
v 0.15743846 -0.22774379 0.09258594
f 1 2 6
f 1 6 17
f 1 17 28
f 1 28 37
f 1 37 44
f 1 44 52
f 1 52 63
f 1 63 74
f 1 74 78
f 1 78 77
f 1 77 76
f 1 76 67
f 1 67 57
f 1 57 49
f 1 49 41
f 1 41 33
f 1 33 21
f 1 21 9
f 1 9 3
f 1 3 4
f 1 4 5
f 1 5 2
f 2 5 7
f 2 7 8
f 2 8 6
f 3 9 10
f 3 10 11
f 3 11 12
f 3 12 13
f 3 13 14
f 3 14 4
f 4 14 5
f 5 14 13
f 5 13 15
f 5 15 7
f 6 16 17
f 6 8 18
f 6 18 16
f 7 15 19
f 7 19 20
f 7 20 18
f 7 18 8
f 9 21 10
f 10 22 35
f 10 35 42
f 10 42 50
f 10 50 58
f 10 58 66
f 10 66 55
f 10 55 53
f 10 53 45
f 10 45 39
f 10 39 32
f 10 32 20
f 10 20 19
f 10 19 24
f 10 24 23
f 10 23 13
f 10 13 12
f 10 12 11
f 10 21 22
f 13 23 15
f 15 23 24
f 15 24 19
f 16 25 17
f 16 18 25
f 17 26 27
f 17 27 28
f 17 25 29
f 17 29 26
f 18 20 30
f 18 30 31
f 18 31 25
f 20 32 30
f 21 33 22
f 22 34 35
f 22 33 34
f 25 31 38
f 25 38 40
f 25 40 48
f 25 48 47
f 25 47 46
f 25 46 54
f 25 54 64
f 25 64 62
f 25 62 51
f 25 51 43
f 25 43 36
f 25 36 27
f 25 27 26
f 25 26 29
f 27 36 28
f 28 36 37
f 30 32 31
f 31 32 38
f 32 39 40
f 32 40 38
f 33 41 42
f 33 42 34
f 34 42 35
f 36 43 37
f 37 43 44
f 39 45 46
f 39 46 47
f 39 47 48
f 39 48 40
f 41 49 50
f 41 50 42
f 43 51 44
f 44 51 52
f 45 53 46
f 46 53 55
f 46 55 56
f 46 56 66
f 46 66 73
f 46 73 61
f 46 61 60
f 46 60 72
f 46 72 70
f 46 70 69
f 46 69 68
f 46 68 79
f 46 79 75
f 46 75 65
f 46 65 54
f 49 57 50
f 50 57 59
f 50 59 60
f 50 60 61
f 50 61 58
f 51 62 52
f 52 62 64
f 52 64 54
f 52 54 63
f 54 65 63
f 55 66 56
f 57 67 68
f 57 68 69
f 57 69 70
f 57 70 71
f 57 71 72
f 57 72 60
f 57 60 59
f 58 61 73
f 58 73 66
f 63 65 74
f 65 75 74
f 67 76 68
f 68 76 77
f 68 77 78
f 68 78 79
f 70 72 71
f 74 75 78
f 75 79 78

