# https://github.com/mikedh/trimesh
v -2.23733061 -0.73611663 0.78326088
v -2.23733061 -0.78455074 0.78326088
v -2.38292327 -0.73524288 0.78326088
v -2.48266302 -0.72687721 0.80176783
v -2.23733061 -0.72687721 0.82995787
v -2.23733061 -0.78822546 0.80355584
v -2.24960211 -0.78829361 0.80355584
v -2.39955471 -0.78895046 0.80355584
v -2.39938328 -0.78520142 0.78326088
v -2.47930737 -0.73491446 0.78326088
v -2.48290800 -0.73490826 0.78326088
v -2.48290800 -0.72687721 0.80176783
v -2.23733061 -0.72687721 0.88668624
v -2.23733061 -0.78933468 0.81581640
v -2.23733061 -0.78969410 0.82022836
v -2.39955471 -0.79014027 0.82022836
v -2.41623514 -0.79016504 0.82022836
v -2.48756185 -0.78903102 0.80355584
v -2.48756185 -0.78841136 0.80011916
v -2.46595809 -0.78529437 0.78326088
v -2.41618620 -0.78522619 0.78326088
v -2.48756185 -0.73497642 0.78326088
v -2.48756185 -0.72687721 0.80239479
v -2.48756185 -0.72687721 0.88668624
v -2.48756185 -0.72688341 0.90391606
v -2.24938169 -0.72688341 0.90379995
v -2.23733061 -0.72688341 0.90373029
v -2.23733061 -0.78883894 0.85355018
v -2.39955471 -0.78919213 0.85355018
v -2.41623514 -0.78919833 0.85355018
v -2.48756185 -0.79018363 0.82022836
v -2.48756185 -0.78986761 0.81558421
v -2.48756185 -0.78531294 0.78326088
v -2.48736592 -0.78531294 0.78326088
v -2.48756185 -0.73628394 1.02048438
v -2.36653675 -0.73620959 1.02048438
v -2.26657652 -0.73619099 1.02048438
v -2.26630710 -0.73619099 1.02048438
v -2.24960211 -0.73624055 1.02048438
v -2.23733061 -0.73630254 1.02048438
v -2.23733061 -0.78174981 1.02039150
v -2.39930979 -0.78273508 1.02048438
v -2.48261403 -0.78310070 1.02048438
v -2.48756185 -0.78310690 1.02048438
v -2.43291563 -0.78917976 0.85355018
v -2.48756185 -0.78903102 0.85355018
v -2.23733061 -0.74795871 1.02048438
v -2.24933270 -0.78176840 1.02048438
f 1 2 9
f 1 9 21
f 1 21 20
f 1 20 34
f 1 34 33
f 1 33 22
f 1 22 11
f 1 11 10
f 1 10 3
f 1 3 4
f 1 4 5
f 1 5 13
f 1 13 27
f 1 27 40
f 1 40 47
f 1 47 41
f 1 41 28
f 1 28 15
f 1 15 14
f 1 14 6
f 1 6 2
f 2 6 7
f 2 7 8
f 2 8 9
f 3 10 4
f 4 10 11
f 4 11 12
f 4 12 23
f 4 23 24
f 4 24 13
f 4 13 5
f 6 14 7
f 7 14 8
f 8 14 15
f 8 15 16
f 8 16 17
f 8 17 18
f 8 18 19
f 8 19 20
f 8 20 21
f 8 21 9
f 11 22 12
f 12 22 23
f 13 24 25
f 13 25 26
f 13 26 27
f 15 28 16
f 16 28 29
f 16 29 17
f 17 30 31
f 17 31 32
f 17 32 18
f 17 29 30
f 18 32 31
f 18 31 46
f 18 46 44
f 18 44 35
f 18 35 25
f 18 25 24
f 18 24 23
f 18 23 22
f 18 22 33
f 18 33 19
f 19 33 34
f 19 34 20
f 25 35 36
f 25 36 37
f 25 37 38
f 25 38 26
f 26 38 27
f 27 38 39
f 27 39 40
f 28 41 42
f 28 42 43
f 28 43 29
f 29 43 44
f 29 44 30
f 30 44 45
f 30 45 31
f 31 45 46
f 35 44 43
f 35 43 42
f 35 42 48
f 35 48 47
f 35 47 40
f 35 40 39
f 35 39 38
f 35 38 37
f 35 37 36
f 41 47 48
f 41 48 42
f 44 46 45

