# https://github.com/mikedh/trimesh
v -2.48756185 -0.74223778 1.60713402
v -2.48756185 -0.78630674 1.60713402
v -2.51630135 -0.74215496 1.60713402
v -2.51630135 -0.75115924 1.66115175
v -2.49960923 -0.75120984 1.66115175
v -2.48756185 -0.75124665 1.66115175
v -2.48756185 -0.78517487 1.66115175
v -2.69972127 -0.78798152 1.60713402
v -2.53294510 -0.74211356 1.60713402
v -2.53294510 -0.75112243 1.66115175
v -2.74955575 -0.78635275 1.66115175
v -2.71283305 -0.78805055 1.60713402
v -2.58297313 -0.74206755 1.60713402
v -2.54963724 -0.75112702 1.66115175
v -2.75860336 -0.78638494 1.66115175
v -2.96626316 -0.78907197 1.60713402
v -2.94957103 -0.78901215 1.60713402
v -2.94599069 -0.78899836 1.60713402
v -2.73300876 -0.78813337 1.60713402
v -2.91642868 -0.74226079 1.60713402
v -2.98184248 -0.74237121 1.60713402
v -2.69062526 -0.75146751 1.66115175
v -2.97531079 -0.78690026 1.66115175
v -2.98184248 -0.78691408 1.66115175
v -2.98184248 -0.78904437 1.60713402
v -2.98184248 -0.75245675 1.66115175
f 1 2 8
f 1 8 12
f 1 12 19
f 1 19 18
f 1 18 17
f 1 17 16
f 1 16 25
f 1 25 21
f 1 21 20
f 1 20 13
f 1 13 9
f 1 9 3
f 1 3 4
f 1 4 5
f 1 5 6
f 1 6 7
f 1 7 2
f 2 7 8
f 3 9 4
f 4 9 10
f 4 10 14
f 4 14 22
f 4 22 26
f 4 26 24
f 4 24 23
f 4 23 15
f 4 15 11
f 4 11 7
f 4 7 6
f 4 6 5
f 7 11 12
f 7 12 8
f 9 13 10
f 10 13 14
f 11 15 16
f 11 16 17
f 11 17 18
f 11 18 19
f 11 19 12
f 13 20 14
f 14 20 21
f 14 21 22
f 15 23 16
f 16 23 24
f 16 24 25
f 21 25 24
f 21 24 26
f 21 26 22

