# https://github.com/mikedh/trimesh
v -2.05621240 -0.72670257 0.20492093
v -2.05621240 -0.76285725 0.20492093
v -2.07689264 -0.73420748 0.20492093
v -2.05621240 -0.72729382 0.35352168
v -2.05621240 -0.78621498 0.21849295
v -2.05628530 -0.78594568 0.20492093
v -2.07689264 -0.78329963 0.20492093
v -2.07689264 -0.73512656 0.38154747
v -2.05621240 -0.72742263 0.38154747
v -2.05621240 -0.78649595 0.23481397
v -2.07689264 -0.78336403 0.20957174
v -2.07689264 -0.78324110 0.38154747
v -2.05621240 -0.78533100 0.38154747
v -2.05621240 -0.78650767 0.23687136
v -2.07689264 -0.78361575 0.23687136
v -2.07689264 -0.78355137 0.22623852
v -2.05621240 -0.78603935 0.31866663
v -2.05621240 -0.78591641 0.33547176
v -2.05621240 -0.78590470 0.33685489
v -2.07689264 -0.78350452 0.33685489
v -2.05621240 -0.78646669 0.25353820
v -2.05621240 -0.78626764 0.28687177
v -2.05621240 -0.78647840 0.25146347
v -2.07689264 -0.78360406 0.30352127
v -2.07689264 -0.78363333 0.28687177
v -2.07689264 -0.78363917 0.27020498
v -2.07689264 -0.78363333 0.25353820
v -2.07689264 -0.78356308 0.32018805
f 1 2 6
f 1 6 7
f 1 7 3
f 1 3 4
f 1 4 9
f 1 9 13
f 1 13 19
f 1 19 18
f 1 18 17
f 1 17 22
f 1 22 21
f 1 21 23
f 1 23 14
f 1 14 10
f 1 10 5
f 1 5 2
f 2 5 6
f 3 7 11
f 3 11 16
f 3 16 15
f 3 15 27
f 3 27 26
f 3 26 25
f 3 25 24
f 3 24 28
f 3 28 20
f 3 20 12
f 3 12 8
f 3 8 9
f 3 9 4
f 5 7 6
f 5 10 7
f 7 10 11
f 8 12 13
f 8 13 9
f 10 14 15
f 10 15 16
f 10 16 11
f 12 17 18
f 12 18 19
f 12 19 13
f 12 20 21
f 12 21 22
f 12 22 17
f 14 23 24
f 14 24 25
f 14 25 26
f 14 26 27
f 14 27 15
f 20 28 23
f 20 23 21
f 23 28 24

