# https://github.com/mikedh/trimesh
v -3.01438823 -0.78802313 1.23883332
v -2.99769159 -0.78795372 1.23883332
v -2.98294430 -0.78769217 1.25343657
v -2.99964094 -0.78775622 1.25343657
v -2.99972570 -0.78775622 1.25343657
v -3.59953358 -0.78761742 1.23883332
v -2.98294430 -0.78781493 1.23883332
v -2.98192726 -0.78768147 1.25343657
v -3.64970834 -0.78706226 1.25343657
v -3.83286284 -0.78741459 1.23883332
v -2.98192726 -0.78779892 1.23883332
v -2.98192726 -0.73727303 1.25343657
v -3.84761016 -0.78681135 1.25343657
v -3.84591505 -0.78739322 1.23883332
v -2.98192726 -0.73373380 1.23883332
v -2.98955516 -0.73369646 1.23883332
v -2.99947143 -0.73720896 1.25343657
v -3.84761016 -0.73703282 1.25343657
v -3.84761016 -0.78738789 1.23883332
v -2.99964094 -0.73366975 1.23883332
v -3.48291137 -0.73620539 1.25343657
v -3.84761016 -0.73421958 1.23883332
v -3.71624065 -0.73657905 1.25343657
v -3.49952322 -0.73348826 1.23883332
v -3.83921948 -0.73419291 1.23883332
v -3.71624065 -0.73389929 1.23883332
f 1 2 3
f 1 3 4
f 1 4 5
f 1 5 6
f 1 6 10
f 1 10 14
f 1 14 19
f 1 19 22
f 1 22 25
f 1 25 26
f 1 26 24
f 1 24 20
f 1 20 16
f 1 16 15
f 1 15 11
f 1 11 7
f 1 7 2
f 2 7 3
f 3 7 8
f 3 8 12
f 3 12 17
f 3 17 21
f 3 21 23
f 3 23 18
f 3 18 13
f 3 13 9
f 3 9 5
f 3 5 4
f 5 9 10
f 5 10 6
f 7 11 8
f 8 11 15
f 8 15 12
f 9 13 10
f 10 13 14
f 12 15 16
f 12 16 17
f 13 18 22
f 13 22 19
f 13 19 14
f 16 20 17
f 17 20 21
f 18 23 22
f 20 24 21
f 21 24 23
f 22 23 25
f 23 26 25
f 23 24 26

