# https://github.com/mikedh/trimesh
v 0.22135672 -0.70948700 1.16518281
v 0.27601796 -0.70948700 1.16558380
v 0.22135672 -0.73313212 1.13672236
v 0.22135672 -0.70948700 1.22199817
v 0.27601796 -0.73423150 1.13672236
v 0.27601796 -0.70948700 1.22106954
v 0.22135672 -0.79018149 1.13672236
v 0.22135672 -0.73627805 1.24450693
v 0.27601796 -0.73643872 1.24450693
v 0.27601796 -0.78982630 1.13672236
v 0.24077387 -0.79014767 1.13672236
v 0.22135672 -0.79353884 1.15079957
v 0.22135672 -0.78741614 1.24450693
v 0.27601796 -0.78716243 1.24450693
v 0.27601796 -0.79391939 1.15354325
v 0.25727495 -0.79000391 1.13672236
v 0.24077387 -0.79412234 1.15354325
v 0.22135672 -0.79401240 1.15354325
v 0.27601796 -0.79588135 1.20353106
v 0.22135672 -0.79576294 1.20353106
v 0.27601796 -0.79534858 1.17021641
v 0.22135672 -0.79539932 1.17021641
v 0.22135672 -0.79577987 1.20078737
v 0.22135672 -0.79573758 1.18687901
v 0.27601796 -0.79563611 1.18687901
v 0.27601796 -0.79538241 1.17212643
f 1 2 3
f 1 3 7
f 1 7 12
f 1 12 18
f 1 18 22
f 1 22 24
f 1 24 23
f 1 23 20
f 1 20 13
f 1 13 8
f 1 8 4
f 1 4 6
f 1 6 2
f 2 5 3
f 2 6 9
f 2 9 14
f 2 14 19
f 2 19 25
f 2 25 26
f 2 26 21
f 2 21 15
f 2 15 10
f 2 10 5
f 3 5 10
f 3 10 16
f 3 16 11
f 3 11 7
f 4 8 9
f 4 9 6
f 7 11 12
f 8 13 14
f 8 14 9
f 10 15 16
f 11 16 15
f 11 15 17
f 11 17 12
f 12 17 18
f 13 19 14
f 13 20 19
f 15 21 17
f 17 21 22
f 17 22 18
f 19 20 23
f 19 23 24
f 19 24 25
f 21 26 24
f 21 24 22
f 24 26 25

