# https://github.com/mikedh/trimesh
v -2.09462325 -0.22586323 0.12780442
v -2.08729582 -0.22586323 0.12782480
v -2.08729582 -0.25219769 0.13035778
v -2.29955633 -0.25219769 0.13092355
v -2.31624874 -0.25219769 0.13096939
v -2.48536748 -0.25219769 0.13150452
v -2.38290098 -0.22586323 0.12882372
v -2.08729582 -0.22586323 0.17986609
v -2.08729582 -0.25219769 0.17982020
v -2.48756179 -0.25219769 0.13151472
v -2.39959345 -0.22586323 0.12894603
v -2.08729582 -0.22767282 0.17987116
v -2.46444317 -0.22586323 0.17955007
v -2.08729582 -0.24433809 0.17985077
v -2.46624568 -0.24433809 0.17950423
v -2.48289888 -0.25219769 0.17944302
v -2.48756179 -0.25219769 0.17942776
v -2.48756179 -0.22586323 0.12975130
v -2.46624568 -0.22767282 0.17955007
v -2.48360425 -0.22586323 0.17950930
v -2.48289888 -0.24433809 0.17948385
v -2.48756179 -0.24897033 0.17944814
v -2.48630793 -0.25219769 0.17943288
v -2.48756179 -0.22586323 0.17949404
v -2.48289888 -0.22767282 0.17951442
v -2.48756179 -0.22767282 0.17949910
v -2.48756179 -0.23230506 0.17949404
v -2.48756179 -0.24433809 0.17946853
f 1 2 3
f 1 3 4
f 1 4 5
f 1 5 6
f 1 6 7
f 1 7 11
f 1 11 18
f 1 18 24
f 1 24 20
f 1 20 13
f 1 13 8
f 1 8 2
f 2 8 12
f 2 12 14
f 2 14 9
f 2 9 3
f 3 9 16
f 3 16 23
f 3 23 17
f 3 17 10
f 3 10 6
f 3 6 5
f 3 5 4
f 6 10 7
f 7 10 11
f 8 13 12
f 9 14 15
f 9 15 16
f 10 17 22
f 10 22 28
f 10 28 27
f 10 27 26
f 10 26 24
f 10 24 18
f 10 18 11
f 12 13 19
f 12 19 14
f 13 20 19
f 14 19 15
f 15 19 21
f 15 21 16
f 16 21 22
f 16 22 23
f 17 23 22
f 19 20 25
f 19 25 21
f 20 24 26
f 20 26 25
f 21 25 27
f 21 27 28
f 21 28 22
f 25 26 27

