# https://github.com/mikedh/trimesh
v 0.15487807 -0.61825874 0.20361854
v 0.19480742 -0.61825874 0.20361854
v 0.15428493 -0.61821143 0.20361854
v 0.15393248 -0.71087151 0.20355333
v 0.19451517 -0.71091881 0.20355333
v 0.19478160 -0.69431662 0.20355333
v 0.19501371 -0.67766712 0.20355333
v 0.19479883 -0.61097458 0.20361854
v 0.15425912 -0.59432509 0.20361854
v 0.14098662 -0.71091881 0.17018669
v 0.15393248 -0.71091881 0.20352073
v 0.15425054 -0.57762830 0.20361854
v 0.15423338 -0.46363606 0.20361854
v 0.15398405 -0.22779982 0.20356418
v 0.13990347 -0.22779982 0.17009972
v 0.22486836 -0.71091881 0.18122919
v 0.22486836 -0.66097035 0.18132700
v 0.22450728 -0.23787464 0.18115313
v 0.19454091 -0.54432932 0.20361854
v 0.13826158 -0.71091881 0.15351424
v 0.13705816 -0.22779982 0.15343812
v 0.15589243 -0.46363606 0.20361854
v 0.19310539 -0.22779982 0.20356418
v 0.22486836 -0.71091881 0.12850554
v 0.22486836 -0.64432084 0.18125095
v 0.22450728 -0.23787464 0.13098356
v 0.21111443 -0.22779982 0.18410937
v 0.19397360 -0.39434201 0.20356418
v 0.19405955 -0.41103880 0.20356418
v 0.22486836 -0.62686728 0.18109877
v 0.22486836 -0.61825874 0.18101181
v 0.19408536 -0.46373065 0.20361854
v 0.13827882 -0.71091881 0.13688524
v 0.13710972 -0.22779982 0.13680919
v 0.18830867 -0.71091881 0.10072538
v 0.18365816 -0.22779982 0.09422592
v 0.22486836 -0.61825874 0.13221173
v 0.21111443 -0.22779982 0.12387553
v 0.13848510 -0.71091881 0.12021280
v 0.13737622 -0.22779982 0.12013668
v 0.18009932 -0.71091881 0.09458456
v 0.17418512 -0.22779982 0.09264996
v 0.17412497 -0.71091881 0.09334555
v 0.14420159 -0.71091881 0.10195348
v 0.14226747 -0.22779982 0.10350775
v 0.15744836 -0.22779982 0.09259560
v 0.17119365 -0.71091881 0.09330210
v 0.14446808 -0.71091881 0.10112748
v 0.14806127 -0.22779982 0.09416071
v 0.15744836 -0.71091881 0.09362814
v 0.14910143 -0.50554358 0.09520410
v 0.14549104 -0.71091881 0.10035583
f 1 2 8
f 1 8 19
f 1 19 32
f 1 32 22
f 1 22 13
f 1 13 12
f 1 12 9
f 1 9 3
f 1 3 4
f 1 4 5
f 1 5 2
f 2 5 6
f 2 6 7
f 2 7 8
f 3 9 4
f 4 10 11
f 4 11 5
f 4 9 12
f 4 12 13
f 4 13 14
f 4 14 15
f 4 15 10
f 5 16 6
f 5 11 10
f 5 10 20
f 5 20 33
f 5 33 39
f 5 39 44
f 5 44 48
f 5 48 52
f 5 52 50
f 5 50 47
f 5 47 43
f 5 43 41
f 5 41 35
f 5 35 24
f 5 24 16
f 6 16 7
f 7 16 17
f 7 17 18
f 7 18 8
f 8 18 19
f 10 15 21
f 10 21 20
f 13 22 23
f 13 23 14
f 14 23 27
f 14 27 38
f 14 38 36
f 14 36 42
f 14 42 46
f 14 46 49
f 14 49 45
f 14 45 40
f 14 40 34
f 14 34 21
f 14 21 15
f 16 24 37
f 16 37 31
f 16 31 30
f 16 30 25
f 16 25 17
f 17 25 18
f 18 26 38
f 18 38 27
f 18 27 23
f 18 23 28
f 18 28 29
f 18 29 19
f 18 25 30
f 18 30 31
f 18 31 37
f 18 37 26
f 19 29 28
f 19 28 23
f 19 23 32
f 20 21 33
f 21 34 33
f 22 32 23
f 24 35 36
f 24 36 26
f 24 26 37
f 26 36 38
f 33 34 39
f 34 40 39
f 35 41 36
f 36 41 43
f 36 43 42
f 39 40 45
f 39 45 44
f 42 43 47
f 42 47 46
f 44 45 48
f 45 49 48
f 46 47 50
f 46 50 49
f 48 51 52
f 48 49 51
f 49 50 51
f 50 52 51

