# https://github.com/mikedh/trimesh
v 1.08575000 -0.72438517 1.99803997
v 1.10744885 -0.72438517 1.99809111
v 1.08575000 -0.71028899 1.99658942
v 1.08575000 -0.72438517 1.92635587
v 1.12411027 -0.72438517 1.99812175
v 1.08575000 -0.71028899 1.93646949
v 1.14077719 -0.72438517 1.99815239
v 1.12411027 -0.71028899 1.99663019
v 1.10836625 -0.72438517 1.90403441
v 1.12194588 -0.71028899 1.90162350
v 1.14187037 -0.72438517 1.99814213
v 1.14187037 -0.71028899 1.99664044
v 1.14082113 -0.71028899 1.99664044
v 1.11147001 -0.72438517 1.90210362
v 1.13027934 -0.71028899 1.89449288
v 1.14187037 -0.72438517 1.89438053
v 1.14187037 -0.71028899 1.89572897
v 1.12601098 -0.72438517 1.89378799
v 1.13722297 -0.71028899 1.89449288
v 1.14121666 -0.72438517 1.89418639
v 1.14033222 -0.72438517 1.89394124
v 1.13768991 -0.71028899 1.89461549
f 1 2 3
f 1 3 6
f 1 6 4
f 1 4 9
f 1 9 14
f 1 14 18
f 1 18 21
f 1 21 20
f 1 20 16
f 1 16 11
f 1 11 7
f 1 7 5
f 1 5 2
f 2 5 3
f 3 5 7
f 3 7 8
f 3 8 13
f 3 13 12
f 3 12 17
f 3 17 22
f 3 22 19
f 3 19 15
f 3 15 10
f 3 10 6
f 4 6 9
f 6 10 9
f 7 11 12
f 7 12 13
f 7 13 8
f 9 10 15
f 9 15 14
f 11 16 17
f 11 17 12
f 14 15 18
f 15 19 18
f 16 20 17
f 17 20 21
f 17 21 22
f 18 19 21
f 19 22 21

