# https://github.com/mikedh/trimesh
v 1.17472428 -0.26287892 0.56977793
v 1.17472428 -0.26038835 0.56977793
v 1.17472428 -0.26287892 0.50951501
v 1.28890215 -0.26287892 0.56989684
v 1.17472428 -0.24372729 0.56973549
v 1.30742841 -0.24433919 0.56990537
v 1.30742841 -0.22766739 0.56987139
v 1.17472428 -0.21100631 0.48795792
v 1.37411016 -0.21100631 0.48776260
v 1.39199831 -0.21100631 0.48777106
v 1.39195576 -0.26287892 0.51161296
v 1.30555664 -0.26287892 0.56990537
v 1.30742841 -0.26100026 0.56991383
v 1.17472428 -0.22766739 0.56966754
v 1.29077392 -0.22766739 0.56984588
v 1.32410416 -0.24433919 0.56990537
v 1.32410416 -0.22766739 0.56988838
v 1.30742841 -0.21100631 0.56979492
v 1.17472428 -0.19434525 0.48485774
v 1.29077392 -0.19434525 0.48377054
v 1.30742841 -0.19434525 0.48361766
v 1.32410416 -0.19434525 0.48355817
v 1.34077992 -0.19434525 0.48352419
v 1.35743441 -0.19434525 0.48351573
v 1.37411016 -0.19434525 0.48351573
v 1.39199831 -0.19559055 0.48384696
v 1.39199831 -0.26224554 0.51161296
v 1.39199831 -0.26287892 0.51420352
v 1.30742841 -0.26287892 0.56990537
v 1.32410416 -0.26287892 0.56989684
v 1.39199831 -0.24433919 0.56985441
v 1.17472428 -0.21100631 0.56949767
v 1.29077392 -0.21100631 0.56976094
v 1.29077392 -0.19434525 0.56961658
v 1.39199831 -0.22766739 0.56985441
v 1.32410416 -0.21100631 0.56981191
v 1.30742841 -0.19434525 0.56964203
v 1.17472428 -0.17768419 0.48441607
v 1.29077392 -0.17768419 0.48333733
v 1.30742841 -0.17768419 0.48326938
v 1.34077992 -0.17768419 0.48315047
v 1.39199831 -0.17768419 0.48319297
v 1.39199831 -0.19434525 0.48353272
v 1.39199831 -0.26287892 0.56982043
v 1.39199831 -0.25976570 0.56982889
v 1.17472428 -0.21039441 0.56948914
v 1.27411944 -0.19434525 0.56957408
v 1.32410416 -0.17768419 0.56934478
v 1.39199831 -0.21100631 0.56977793
v 1.34077992 -0.19434525 0.56965056
v 1.32410416 -0.19434525 0.56965056
v 1.39199831 -0.20976104 0.56976947
v 1.39199831 -0.19434525 0.56964203
v 1.17472428 -0.16251531 0.48950378
v 1.17472428 -0.16194635 0.48969917
v 1.29077392 -0.16140961 0.48915557
v 1.34077992 -0.16127004 0.48908762
v 1.35743441 -0.16124855 0.48911307
v 1.39199831 -0.16251531 0.48869691
v 1.17472428 -0.19373334 0.56924286
v 1.30742841 -0.17768419 0.56929382
v 1.29077392 -0.17768419 0.56924286
v 1.32410416 -0.16423295 0.56549712
v 1.20745896 -0.16463016 0.56527628
v 1.34077992 -0.17768419 0.56932779
v 1.39199831 -0.19311071 0.56960806
v 1.17472428 -0.15436729 0.50353542
v 1.29077392 -0.15341185 0.50353542
v 1.30742841 -0.15333672 0.50353542
v 1.34077992 -0.15321861 0.50353542
v 1.35743441 -0.15320788 0.50353542
v 1.39199831 -0.15322934 0.50353542
v 1.39199831 -0.16130226 0.48913858
v 1.19078320 -0.17768419 0.56887760
v 1.17472428 -0.17768419 0.56876721
v 1.34077992 -0.16421149 0.56547164
v 1.32410416 -0.15662167 0.55352946
v 1.29077392 -0.15675050 0.55352946
v 1.29077392 -0.16431883 0.56540369
v 1.27411944 -0.15683640 0.55352946
v 1.17472428 -0.16472678 0.56513189
v 1.19078320 -0.16469456 0.56522532
v 1.39199831 -0.17768419 0.56917491
v 1.17472428 -0.15431362 0.51959704
v 1.17472428 -0.15431362 0.52020858
v 1.29077392 -0.15350847 0.52020858
v 1.30742841 -0.15343331 0.52020858
v 1.32410416 -0.15340112 0.52020858
v 1.34077992 -0.15340112 0.52020858
v 1.39199831 -0.15341185 0.52020858
v 1.34077992 -0.15667535 0.55352946
v 1.39199831 -0.17670728 0.56889458
v 1.39199831 -0.16459793 0.56532725
v 1.39199831 -0.15709405 0.55352946
v 1.39076464 -0.15708329 0.55352946
v 1.32410416 -0.15386272 0.53686479
v 1.30742841 -0.15389495 0.53686479
v 1.29077392 -0.15393786 0.53686479
v 1.39076464 -0.15397008 0.53686479
v 1.37411016 -0.15393786 0.53686479
v 1.17472428 -0.15470007 0.53686479
v 1.17472428 -0.15743755 0.55291791
v 1.17472428 -0.15754493 0.55352946
v 1.17472428 -0.15467860 0.53625324
v 1.39199831 -0.15392713 0.53562470
v 1.39199831 -0.15685786 0.55228937
v 1.39199831 -0.15398080 0.53686479
f 1 2 5
f 1 5 14
f 1 14 32
f 1 32 46
f 1 46 60
f 1 60 75
f 1 75 81
f 1 81 103
f 1 103 102
f 1 102 101
f 1 101 104
f 1 104 85
f 1 85 84
f 1 84 67
f 1 67 55
f 1 55 54
f 1 54 38
f 1 38 19
f 1 19 8
f 1 8 3
f 1 3 11
f 1 11 28
f 1 28 44
f 1 44 30
f 1 30 29
f 1 29 12
f 1 12 4
f 1 4 2
f 2 4 6
f 2 6 7
f 2 7 5
f 3 8 9
f 3 9 10
f 3 10 11
f 4 12 13
f 4 13 6
f 5 7 15
f 5 15 14
f 6 13 16
f 6 16 17
f 6 17 7
f 7 17 36
f 7 36 18
f 7 18 15
f 8 19 20
f 8 20 21
f 8 21 22
f 8 22 23
f 8 23 9
f 9 23 24
f 9 24 25
f 9 25 10
f 10 25 26
f 10 26 43
f 10 43 42
f 10 42 59
f 10 59 73
f 10 73 72
f 10 72 90
f 10 90 105
f 10 105 107
f 10 107 106
f 10 106 94
f 10 94 93
f 10 93 92
f 10 92 83
f 10 83 66
f 10 66 53
f 10 53 52
f 10 52 49
f 10 49 35
f 10 35 31
f 10 31 45
f 10 45 44
f 10 44 28
f 10 28 27
f 10 27 11
f 11 27 28
f 12 29 13
f 13 29 30
f 13 30 31
f 13 31 16
f 14 15 18
f 14 18 33
f 14 33 34
f 14 34 32
f 16 31 35
f 16 35 17
f 17 35 49
f 17 49 36
f 18 34 33
f 18 36 37
f 18 37 34
f 19 38 20
f 20 39 21
f 20 38 39
f 21 39 40
f 21 40 41
f 21 41 22
f 22 41 23
f 23 41 24
f 24 41 25
f 25 42 43
f 25 43 26
f 25 41 42
f 30 44 45
f 30 45 31
f 32 34 47
f 32 47 46
f 34 37 48
f 34 48 47
f 36 50 51
f 36 51 37
f 36 49 52
f 36 52 53
f 36 53 50
f 37 51 48
f 38 54 39
f 39 54 55
f 39 55 56
f 39 56 40
f 40 56 41
f 41 57 42
f 41 56 57
f 42 58 59
f 42 57 58
f 46 47 60
f 47 48 61
f 47 61 62
f 47 62 60
f 48 63 64
f 48 64 61
f 48 51 50
f 48 50 53
f 48 53 65
f 48 65 63
f 53 66 65
f 55 67 68
f 55 68 56
f 56 68 69
f 56 69 57
f 57 69 70
f 57 70 71
f 57 71 58
f 58 71 72
f 58 72 73
f 58 73 59
f 60 74 75
f 60 62 74
f 61 64 62
f 62 64 74
f 63 65 76
f 63 76 77
f 63 77 78
f 63 78 79
f 63 79 64
f 64 80 81
f 64 81 82
f 64 82 74
f 64 79 78
f 64 78 80
f 65 66 83
f 65 83 76
f 67 84 68
f 68 84 85
f 68 85 86
f 68 86 87
f 68 87 69
f 69 87 70
f 70 87 88
f 70 88 71
f 71 88 89
f 71 89 90
f 71 90 72
f 74 82 81
f 74 81 75
f 76 91 77
f 76 83 92
f 76 92 93
f 76 93 94
f 76 94 95
f 76 95 91
f 77 96 97
f 77 97 98
f 77 98 78
f 77 91 99
f 77 99 100
f 77 100 96
f 78 98 80
f 80 101 102
f 80 102 103
f 80 103 81
f 80 98 101
f 85 104 86
f 86 104 98
f 86 98 87
f 87 98 97
f 87 97 96
f 87 96 88
f 88 96 89
f 89 96 90
f 90 100 105
f 90 96 100
f 91 95 106
f 91 106 99
f 94 106 95
f 98 104 101
f 99 106 107
f 99 107 105
f 99 105 100

