# https://github.com/mikedh/trimesh
v -3.76446889 1.96920664 0.86920934
v -3.76429974 1.96920664 0.86921773
v -3.74779383 1.94004784 0.87121475
v -3.76446889 1.94004784 0.87114762
v -3.77641707 1.96920664 0.87406765
v -3.74846181 1.96920664 0.87003164
v -3.69814910 1.96920664 0.87631639
v -3.72965588 1.94004784 0.87893433
v -3.77856488 1.94004784 0.87771767
v -3.77928361 1.96920664 0.87541019
v -3.69814910 1.96920664 0.95212777
v -3.69814910 1.96204112 0.88032723
v -3.69814910 1.94004784 0.90330138
v -3.77871708 1.94004784 0.87810365
v -3.78428108 1.94004784 0.89243522
v -3.78452632 1.96920664 0.89243522
v -3.69814910 1.94004784 0.95201868
v -3.76446889 1.96920664 0.95493031
v -3.78428108 1.94004784 0.89286316
v -3.78445863 1.96920664 0.90535714
v -3.74779383 1.94004784 0.95182570
v -3.76647289 1.96920664 0.95479606
v -3.77344061 1.94004784 0.95114604
v -3.76446889 1.94004784 0.95165788
v -3.76403762 1.94004784 0.95166627
v -3.78443328 1.96920664 0.90910785
v -3.78415422 1.94004784 0.90954418
v -3.77479352 1.96920664 0.95265639
v -3.77892004 1.94004784 0.94245311
v -3.78425573 1.96920664 0.92202138
v -3.78391745 1.94004784 0.92578048
v -3.77601962 1.96920664 0.95070133
v -3.78040827 1.96920664 0.94245311
v -3.78154134 1.96920664 0.93870240
v -3.78379065 1.94004784 0.92620841
v -3.78419651 1.96920664 0.92578048
f 1 2 3
f 1 3 4
f 1 4 5
f 1 5 10
f 1 10 16
f 1 16 20
f 1 20 26
f 1 26 30
f 1 30 36
f 1 36 34
f 1 34 33
f 1 33 32
f 1 32 28
f 1 28 22
f 1 22 18
f 1 18 11
f 1 11 7
f 1 7 6
f 1 6 2
f 2 6 3
f 3 6 7
f 3 7 8
f 3 8 13
f 3 13 17
f 3 17 21
f 3 21 25
f 3 25 24
f 3 24 23
f 3 23 29
f 3 29 35
f 3 35 31
f 3 31 27
f 3 27 19
f 3 19 15
f 3 15 14
f 3 14 9
f 3 9 4
f 4 9 5
f 5 9 10
f 7 11 17
f 7 17 13
f 7 13 12
f 7 12 8
f 8 12 13
f 9 14 10
f 10 14 15
f 10 15 16
f 11 18 17
f 15 19 16
f 16 19 20
f 17 18 21
f 18 22 23
f 18 23 24
f 18 24 25
f 18 25 21
f 19 26 20
f 19 27 26
f 22 28 23
f 23 28 29
f 26 27 30
f 27 31 30
f 28 32 29
f 29 32 33
f 29 33 34
f 29 34 35
f 30 31 36
f 31 35 34
f 31 34 36

