# https://github.com/mikedh/trimesh
v 0.79174806 -0.19434746 1.89470472
v 0.85745633 -0.19434746 1.89474638
v 0.85745633 -0.20403749 1.89497562
v 0.79174806 -0.20394614 1.89498605
v 0.79174806 -0.18220791 1.89494439
v 0.84078058 -0.18258987 1.89495482
v 0.94080577 -0.18321261 1.89499648
v 0.87413206 -0.20394614 1.89498605
v 0.95742300 -0.18324582 1.89500692
v 0.97409873 -0.18328734 1.89501735
v 0.94080577 -0.19434746 1.89484014
v 1.09062412 -0.21100402 1.89828967
v 0.79174806 -0.21227444 1.89942562
v 0.85745633 -0.21236575 1.89934223
v 0.79174806 -0.17436123 1.89562180
v 0.95742300 -0.20338981 1.89507987
v 0.97409873 -0.20329019 1.89510073
v 0.79174806 -0.17387962 1.89566347
v 0.97409873 -0.17495076 1.89577809
v 0.99077448 -0.17521648 1.89578852
v 0.99077448 -0.18355306 1.89503815
v 1.09062412 -0.18568701 1.89520492
v 0.97409873 -0.19434746 1.89490273
v 0.99077448 -0.20319053 1.89513197
v 1.00742096 -0.20300787 1.89516326
v 1.01847961 -0.20279198 1.89519449
v 1.09062412 -0.21086284 1.89825837
v 1.09062412 -0.22139984 1.90648090
v 0.79174806 -0.22064422 1.90776277
v 0.79174806 -0.16354192 1.90400061
v 1.05741892 -0.16353363 1.90418819
v 1.09062412 -0.16355855 1.90419862
v 1.09062412 -0.17743346 1.89586147
v 1.09062412 -0.18736430 1.89520492
v 0.99077448 -0.19434746 1.89495482
v 1.09062412 -0.19563448 1.89528831
v 1.09062412 -0.24260665 1.93553595
v 0.79174806 -0.24260665 1.93665105
v 0.79174806 -0.15781262 1.92021642
v 1.05741892 -0.15777938 1.92021642
v 1.09062412 -0.15782090 1.92021642
v 1.09062412 -0.24260665 1.99711633
v 0.79174806 -0.24260665 1.99746013
v 0.79174806 -0.15810322 1.97020808
v 1.09062412 -0.15796205 1.97020808
v 1.09062412 -0.15782090 1.92037271
v 1.00742096 -0.24260665 1.99729348
v 1.09062412 -0.19434746 2.00041988
v 0.94080577 -0.21100402 1.99997177
v 0.92413003 -0.21100402 2.00002387
v 0.79174806 -0.21100402 2.00005510
v 0.82586019 -0.24260665 1.99746013
v 0.87413206 -0.21100402 2.00007596
v 0.79174806 -0.16032020 1.98687200
v 0.85745633 -0.16025380 1.98687200
v 1.09062412 -0.15798696 1.97036442
v 0.95742300 -0.24260665 1.99739767
v 1.09062412 -0.17783203 1.99985709
v 0.95742300 -0.19434746 2.00099305
v 0.94080577 -0.19434746 2.00104514
v 0.87413206 -0.19434746 2.00115982
v 0.79174806 -0.19434746 2.00114933
v 0.89253389 -0.24260665 1.99742890
v 0.79174806 -0.16561779 1.99700165
v 0.85745633 -0.16588348 1.99766863
v 1.09062412 -0.16062744 1.98687200
v 1.09062412 -0.17768258 1.99984672
v 0.97409873 -0.17768258 2.00028434
v 0.95742300 -0.17768258 2.00034693
v 0.94080577 -0.17768258 2.00039902
v 0.87413206 -0.17768258 2.00047198
v 0.79174806 -0.17768258 2.00049284
v 0.79174806 -0.19337595 2.00111810
v 0.79174806 -0.16594991 1.99762691
v 0.79174806 -0.17699339 2.00032607
v 0.94080577 -0.16607445 1.99758518
v 1.09062412 -0.16633186 1.99728299
f 1 2 3
f 1 3 4
f 1 4 13
f 1 13 29
f 1 29 38
f 1 38 43
f 1 43 51
f 1 51 62
f 1 62 73
f 1 73 72
f 1 72 75
f 1 75 74
f 1 74 64
f 1 64 54
f 1 54 44
f 1 44 39
f 1 39 30
f 1 30 18
f 1 18 15
f 1 15 5
f 1 5 6
f 1 6 7
f 1 7 2
f 2 8 3
f 2 7 9
f 2 9 10
f 2 10 11
f 2 11 8
f 3 8 12
f 3 12 4
f 4 12 14
f 4 14 13
f 5 15 6
f 6 15 10
f 6 10 9
f 6 9 7
f 8 11 16
f 8 16 17
f 8 17 12
f 10 15 18
f 10 18 19
f 10 19 20
f 10 20 21
f 10 21 11
f 11 21 22
f 11 22 23
f 11 23 17
f 11 17 16
f 12 17 24
f 12 24 25
f 12 25 26
f 12 26 27
f 12 27 36
f 12 36 34
f 12 34 22
f 12 22 33
f 12 33 32
f 12 32 41
f 12 41 46
f 12 46 45
f 12 45 56
f 12 56 66
f 12 66 77
f 12 77 67
f 12 67 58
f 12 58 48
f 12 48 42
f 12 42 37
f 12 37 28
f 12 28 14
f 13 14 28
f 13 28 29
f 17 23 24
f 18 30 31
f 18 31 32
f 18 32 19
f 19 32 20
f 20 32 33
f 20 33 21
f 21 33 22
f 22 34 23
f 23 35 36
f 23 36 25
f 23 25 24
f 23 34 35
f 25 36 26
f 26 36 27
f 28 37 38
f 28 38 29
f 30 39 40
f 30 40 31
f 31 40 32
f 32 40 41
f 34 36 35
f 37 42 47
f 37 47 57
f 37 57 63
f 37 63 52
f 37 52 43
f 37 43 38
f 39 44 45
f 39 45 40
f 40 45 46
f 40 46 41
f 42 48 49
f 42 49 50
f 42 50 47
f 43 52 53
f 43 53 51
f 44 54 55
f 44 55 45
f 45 55 56
f 47 50 57
f 48 58 59
f 48 59 49
f 49 60 50
f 49 59 60
f 50 60 61
f 50 61 53
f 50 53 57
f 51 53 62
f 52 63 53
f 53 61 62
f 53 63 57
f 54 64 65
f 54 65 55
f 55 65 66
f 55 66 56
f 58 67 68
f 58 68 69
f 58 69 59
f 59 69 70
f 59 70 60
f 60 70 61
f 61 70 71
f 61 71 72
f 61 72 73
f 61 73 62
f 64 74 65
f 65 74 75
f 65 75 72
f 65 72 71
f 65 71 70
f 65 70 76
f 65 76 77
f 65 77 66
f 67 77 68
f 68 77 69
f 69 77 70
f 70 77 76

