# https://github.com/mikedh/trimesh
v -0.03001537 -0.74000471 0.84790754
v -0.02292033 -0.74000471 0.86412527
v -0.03001537 -0.71970791 0.83987339
v -0.03001537 -0.74000471 0.71242964
v -0.00712366 -0.71970791 0.86412527
v 0.06469047 -0.74000471 0.86412527
v -0.03001537 -0.71970791 0.75743947
v -0.02425763 -0.74000471 0.67324924
v 0.06269387 -0.71970791 0.86412527
v 0.06478339 -0.74000471 0.82115200
v 0.06287960 -0.71970791 0.79153783
v -0.00562846 -0.71970791 0.67489342
v -0.00562846 -0.71978739 0.67324924
v -0.02236314 -0.73695902 0.67324924
v 0.06477409 -0.74000471 0.67324924
v 0.06485766 -0.74000471 0.75822420
v 0.06287960 -0.71970791 0.78421368
v 0.00962032 -0.71970791 0.67324924
v 0.06281457 -0.71970791 0.67324924
f 1 2 3
f 1 3 7
f 1 7 4
f 1 4 8
f 1 8 15
f 1 15 16
f 1 16 10
f 1 10 6
f 1 6 2
f 2 5 3
f 2 6 9
f 2 9 5
f 3 5 9
f 3 9 11
f 3 11 17
f 3 17 19
f 3 19 18
f 3 18 12
f 3 12 7
f 4 7 8
f 6 10 11
f 6 11 9
f 7 12 13
f 7 13 14
f 7 14 8
f 8 14 13
f 8 13 18
f 8 18 19
f 8 19 15
f 10 16 11
f 11 16 17
f 12 18 13
f 15 19 16
f 16 19 17

