# https://github.com/mikedh/trimesh
v 0.18216636 -0.70949617 1.23719484
v 0.19770875 -0.70956041 1.23719484
v 0.15605408 -0.70949617 1.23719484
v 0.19642378 -0.70949617 1.25230706
v 0.22134797 -0.73282441 1.23719484
v 0.19632698 -0.70949617 1.30355036
v 0.19593974 -0.70949617 1.43709110
v 0.19593098 -0.70949617 1.43900729
v 0.13874271 -0.74435088 1.23719484
v 0.13790663 -0.74435088 1.35352937
v 0.13790663 -0.74435088 1.37020221
v 0.15630930 -0.70949617 1.43900729
v 0.22134797 -0.78774948 1.23719484
v 0.22134797 -0.73709178 1.43900729
v 0.13285492 -0.75636372 1.23719484
v 0.13274054 -0.75661150 1.23719484
v 0.13277570 -0.75703365 1.43900729
v 0.13349740 -0.75542765 1.43900729
v 0.13851389 -0.74435088 1.43900729
v 0.17410470 -0.80142337 1.23719484
v 0.22134797 -0.78721721 1.43900729
v 0.17588249 -0.80192814 1.43900729
v 0.17584732 -0.80193729 1.43687378
v 0.17560091 -0.80196483 1.42020095
v 0.13212446 -0.76494433 1.23719484
v 0.13214210 -0.76536648 1.43900729
v 0.15595728 -0.80245124 1.23719484
v 0.17410470 -0.80148763 1.25355162
v 0.16726646 -0.80281831 1.42020095
v 0.16674717 -0.80277242 1.40352812
v 0.17481758 -0.80205660 1.43900729
v 0.16754808 -0.80285500 1.43900729
v 0.16751286 -0.80285500 1.43687378
v 0.13149074 -0.77767300 1.23719484
v 0.13144675 -0.77767300 1.43687378
v 0.13153485 -0.77608536 1.43900729
v 0.14906621 -0.80268066 1.30797538
v 0.14394404 -0.79826646 1.23719484
v 0.15744465 -0.80316703 1.42020095
v 0.15744465 -0.80324047 1.43900729
v 0.13180761 -0.78826340 1.23719484
v 0.13174597 -0.78898838 1.42020095
v 0.13175479 -0.78902509 1.43900729
v 0.13145557 -0.77767300 1.43900729
v 0.14227188 -0.79766077 1.23719484
v 0.14753484 -0.80298351 1.40352812
v 0.14844130 -0.80308445 1.43900729
v 0.14727077 -0.80302938 1.42020095
v 0.13198367 -0.78842859 1.23719484
v 0.13894513 -0.79732121 1.42020095
v 0.13878670 -0.79735792 1.43687378
v 0.13877794 -0.79735792 1.43900729
v 0.13175479 -0.78902509 1.43687378
v 0.14711241 -0.80305691 1.43900729
v 0.14712118 -0.80305691 1.43687378
f 1 2 5
f 1 5 13
f 1 13 20
f 1 20 27
f 1 27 38
f 1 38 45
f 1 45 49
f 1 49 41
f 1 41 34
f 1 34 25
f 1 25 16
f 1 16 15
f 1 15 9
f 1 9 3
f 1 3 12
f 1 12 8
f 1 8 7
f 1 7 6
f 1 6 4
f 1 4 2
f 2 4 6
f 2 6 7
f 2 7 8
f 2 8 5
f 3 9 10
f 3 10 11
f 3 11 12
f 5 8 14
f 5 14 21
f 5 21 13
f 8 12 19
f 8 19 18
f 8 18 17
f 8 17 26
f 8 26 36
f 8 36 44
f 8 44 43
f 8 43 52
f 8 52 54
f 8 54 47
f 8 47 40
f 8 40 32
f 8 32 31
f 8 31 22
f 8 22 21
f 8 21 14
f 9 15 10
f 10 15 16
f 10 16 11
f 11 16 17
f 11 17 18
f 11 18 19
f 11 19 12
f 13 21 22
f 13 22 23
f 13 23 24
f 13 24 20
f 16 25 26
f 16 26 17
f 20 24 28
f 20 28 29
f 20 29 30
f 20 30 27
f 22 31 23
f 23 31 24
f 24 31 32
f 24 32 33
f 24 33 29
f 24 29 28
f 25 34 35
f 25 35 36
f 25 36 26
f 27 37 38
f 27 30 39
f 27 39 40
f 27 40 37
f 29 33 40
f 29 40 30
f 30 40 39
f 32 40 33
f 34 41 42
f 34 42 35
f 35 42 43
f 35 43 44
f 35 44 36
f 37 45 38
f 37 40 46
f 37 46 45
f 40 47 48
f 40 48 46
f 41 49 50
f 41 50 51
f 41 51 52
f 41 52 42
f 42 52 53
f 42 53 43
f 43 53 52
f 45 46 48
f 45 48 50
f 45 50 49
f 47 54 55
f 47 55 48
f 48 51 50
f 48 55 51
f 51 55 54
f 51 54 52

