# https://github.com/mikedh/trimesh
v -1.99543570 1.58939440 0.70897295
v -1.99535531 1.57271256 0.70897295
v -1.99535531 1.57271256 0.72565048
v -1.99531058 1.57256722 0.74218685
v -1.99538209 1.58939440 0.72565048
v -1.99114529 1.60303229 0.72565048
v -1.99118996 1.60304941 0.70897295
v -1.99118996 1.60305794 0.69229542
v -1.99539998 1.58939440 0.69229542
v -1.99516756 1.55604783 0.64228300
v -1.99524801 1.55604783 0.69229542
v -1.99526591 1.55604783 0.70897295
v -1.99526591 1.55604783 0.72565048
v -1.99524801 1.55604783 0.74218685
v -1.99531058 1.57271256 0.74218685
v -1.99529274 1.58939440 0.74218685
v -1.99108272 1.60300665 0.74218685
v -1.97859574 1.61013768 0.70897295
v -1.99089503 1.60275868 0.63917739
v -1.99091286 1.60277578 0.64228300
v -1.99111845 1.60294680 0.67562796
v -1.99528380 1.58939440 0.67562796
v -1.99515867 1.55647536 0.63917739
v -1.99515867 1.55604783 0.63917739
v -1.99485474 1.55295259 0.63917739
v -1.99356762 1.53936600 0.65896054
v -1.99363913 1.53936600 0.69229542
v -1.99370169 1.53936600 0.72565048
v -1.99370169 1.53936600 0.74218685
v -1.99096648 1.60306649 0.74218685
v -1.97859574 1.60982987 0.72565048
v -1.96921928 1.61304482 0.70950737
v -1.96924612 1.61304482 0.70897295
v -1.96813775 1.61304482 0.67562796
v -1.96746738 1.61304482 0.66013016
v -1.97859574 1.60894063 0.63917739
v -1.98831179 1.60405835 0.63917739
v -1.99495303 1.58939440 0.63917739
v -1.99514078 1.58939440 0.65896054
v -1.99508716 1.57314009 0.63917739
v -1.99510499 1.56961733 0.63917739
v -1.99355867 1.53979351 0.63917739
v -1.99352289 1.53936600 0.64228300
v -1.99275417 1.53744215 0.63917739
v -1.98942911 1.52891742 0.65896054
v -1.98955423 1.52879769 0.72565048
v -1.98955423 1.52878916 0.74218685
v -1.97859574 1.60934248 0.74218685
v -1.96662715 1.61304482 0.72567064
v -1.96731541 1.61304482 0.65896054
v -1.96247075 1.61304482 0.64364422
v -1.96183611 1.61304482 0.64237375
v -1.96226517 1.61160835 0.63917739
v -1.99498881 1.58629061 0.63917739
v -1.99351394 1.53936600 0.63917739
v -1.98939332 1.52896015 0.63917739
v -1.98939332 1.52895161 0.64228300
v -1.97859574 1.52620693 0.69229542
v -1.97859574 1.52613851 0.72565048
v -1.97859574 1.52613851 0.74218685
v -1.97848844 1.60936813 0.74218685
v -1.95972665 1.61304482 0.74007948
v -1.95153903 1.61304482 0.63917739
v -1.98087499 1.52695080 0.63917739
v -1.97859574 1.52626678 0.67562796
v -1.96191656 1.52570245 0.69229542
v -1.96191656 1.52574520 0.74218685
v -1.96191656 1.52571957 0.72565048
v -1.96181827 1.61189906 0.74218685
v -1.96133560 1.61192473 0.74218685
v -1.94596149 1.61304482 0.74025089
v -1.93975820 1.61304482 0.63917739
v -1.97859574 1.52642068 0.63917739
v -1.96191656 1.52577085 0.67562796
v -1.94524639 1.52576230 0.69229542
v -1.94524639 1.52579650 0.67562796
v -1.94539836 1.52585635 0.74218685
v -1.94524639 1.52577085 0.70897295
v -1.94594360 1.61159980 0.74218685
v -1.90412954 1.61304482 0.73021815
v -1.92827229 1.60670040 0.63917739
v -1.92836169 1.61304482 0.64189984
v -1.96501821 1.52604446 0.63917739
v -1.96191656 1.52595897 0.63917739
v -1.94524639 1.52595041 0.64228300
v -1.94524639 1.52586491 0.65896054
v -1.92857622 1.52594188 0.69229542
v -1.92857622 1.52595041 0.67562796
v -1.92857622 1.52600172 0.65896054
v -1.92871918 1.52607867 0.74218685
v -1.92857622 1.52595041 0.70897295
v -1.92857622 1.52601026 0.72565048
v -1.92835275 1.60280143 0.74218685
v -1.90412954 1.58392215 0.74218685
v -1.90412954 1.61304482 0.64966385
v -1.91218309 1.58892414 0.63917739
v -1.94524639 1.52596752 0.63917739
v -1.92857622 1.52608722 0.64228300
v -1.93166893 1.52607867 0.63917739
v -1.91546348 1.52855829 0.70897295
v -1.91534730 1.52858392 0.72565048
v -1.91569590 1.52862669 0.64228300
v -1.91568696 1.52858392 0.65896054
v -1.91564229 1.52854120 0.69229542
v -1.91571380 1.52863525 0.63917739
v -1.92857622 1.52608722 0.74218685
v -1.91539197 1.52860105 0.74218685
v -1.90412954 1.54706991 0.74218685
v -1.90412954 1.57544016 0.63917739
v -1.92857622 1.52610431 0.63917739
v -1.90700771 1.53756186 0.72565048
v -1.91519533 1.52870363 0.74218685
v -1.90806247 1.53936600 0.63917739
v -1.90663233 1.54034076 0.65775056
v -1.90739210 1.53845111 0.67562796
v -1.90712395 1.53779273 0.70897295
v -1.90643569 1.54053740 0.74218685
v -1.90412954 1.54572749 0.74124911
v -1.90412954 1.56634253 0.63917739
v -1.90412954 1.54450479 0.66094692
v -1.90412954 1.54348729 0.70897295
v -1.90412954 1.54317092 0.72565048
v -1.90464800 1.55464556 0.63917739
v -1.90412954 1.55464556 0.64142593
v -1.90412954 1.55172134 0.64537854
v -1.90412954 1.54656543 0.65244681
f 1 2 3
f 1 3 4
f 1 4 5
f 1 5 6
f 1 6 7
f 1 7 8
f 1 8 9
f 1 9 10
f 1 10 2
f 2 10 11
f 2 11 12
f 2 12 13
f 2 13 3
f 3 13 14
f 3 14 4
f 4 14 29
f 4 29 47
f 4 47 60
f 4 60 67
f 4 67 77
f 4 77 90
f 4 90 106
f 4 106 107
f 4 107 112
f 4 112 117
f 4 117 108
f 4 108 94
f 4 94 93
f 4 93 79
f 4 79 70
f 4 70 69
f 4 69 61
f 4 61 48
f 4 48 30
f 4 30 17
f 4 17 16
f 4 16 15
f 4 15 5
f 5 15 16
f 5 16 17
f 5 17 6
f 6 18 7
f 6 17 18
f 7 18 8
f 8 18 19
f 8 19 20
f 8 20 21
f 8 21 9
f 9 21 22
f 9 22 23
f 9 23 24
f 9 24 10
f 10 24 25
f 10 25 26
f 10 26 27
f 10 27 28
f 10 28 11
f 11 28 12
f 12 28 29
f 12 29 13
f 13 29 14
f 17 30 31
f 17 31 18
f 18 31 32
f 18 32 33
f 18 33 34
f 18 34 35
f 18 35 36
f 18 36 37
f 18 37 19
f 19 37 36
f 19 36 53
f 19 53 63
f 19 63 72
f 19 72 81
f 19 81 96
f 19 96 109
f 19 109 119
f 19 119 123
f 19 123 113
f 19 113 105
f 19 105 110
f 19 110 99
f 19 99 97
f 19 97 84
f 19 84 83
f 19 83 73
f 19 73 64
f 19 64 56
f 19 56 44
f 19 44 55
f 19 55 42
f 19 42 25
f 19 25 24
f 19 24 23
f 19 23 41
f 19 41 40
f 19 40 54
f 19 54 38
f 19 38 39
f 19 39 22
f 19 22 21
f 19 21 20
f 22 39 40
f 22 40 41
f 22 41 23
f 25 42 26
f 26 42 43
f 26 43 44
f 26 44 45
f 26 45 46
f 26 46 27
f 27 46 28
f 28 46 47
f 28 47 29
f 30 48 31
f 31 48 32
f 32 48 49
f 32 49 62
f 32 62 71
f 32 71 80
f 32 80 95
f 32 95 82
f 32 82 72
f 32 72 63
f 32 63 52
f 32 52 51
f 32 51 50
f 32 50 35
f 32 35 34
f 32 34 33
f 35 50 36
f 36 50 51
f 36 51 52
f 36 52 53
f 38 54 39
f 39 54 40
f 42 55 43
f 43 55 44
f 44 56 45
f 45 56 57
f 45 57 58
f 45 58 46
f 46 58 59
f 46 59 47
f 47 59 60
f 48 61 49
f 49 61 62
f 52 63 53
f 56 64 65
f 56 65 58
f 56 58 57
f 58 66 59
f 58 65 66
f 59 66 60
f 60 66 68
f 60 68 67
f 61 69 62
f 62 69 70
f 62 70 71
f 64 73 65
f 65 73 74
f 65 74 66
f 66 75 78
f 66 78 68
f 66 74 86
f 66 86 76
f 66 76 75
f 67 68 78
f 67 78 77
f 70 79 71
f 71 79 80
f 72 82 81
f 73 83 74
f 74 83 84
f 74 84 85
f 74 85 86
f 75 87 91
f 75 91 78
f 75 76 88
f 75 88 87
f 76 86 89
f 76 89 88
f 77 78 91
f 77 91 92
f 77 92 90
f 79 93 80
f 80 93 94
f 80 94 108
f 80 108 118
f 80 118 122
f 80 122 121
f 80 121 120
f 80 120 126
f 80 126 125
f 80 125 124
f 80 124 119
f 80 119 109
f 80 109 95
f 81 82 95
f 81 95 96
f 84 97 85
f 85 98 89
f 85 89 86
f 85 97 99
f 85 99 98
f 87 100 101
f 87 101 91
f 87 88 100
f 88 89 102
f 88 102 103
f 88 103 104
f 88 104 100
f 89 98 105
f 89 105 102
f 90 92 106
f 91 101 107
f 91 107 92
f 92 107 106
f 95 109 96
f 98 99 110
f 98 110 105
f 100 104 103
f 100 103 102
f 100 102 101
f 101 102 111
f 101 111 112
f 101 112 107
f 102 105 111
f 105 113 114
f 105 114 115
f 105 115 116
f 105 116 111
f 108 117 118
f 111 116 120
f 111 120 121
f 111 121 122
f 111 122 117
f 111 117 112
f 113 123 124
f 113 124 125
f 113 125 126
f 113 126 120
f 113 120 114
f 114 120 116
f 114 116 115
f 117 122 118
f 119 124 123

