# https://github.com/mikedh/trimesh
v -3.69791226 1.95135684 0.42568383
v -3.69791226 1.95135684 0.39236675
v -3.69783479 1.95135684 0.43825944
v -3.69791226 1.95614772 0.43833483
v -3.69791226 1.97808151 0.38269323
v -3.46426951 1.96721976 0.38442062
v -3.13077081 1.96434888 0.38359148
v -3.46426951 1.95135684 0.39095969
v -3.43088092 1.97428721 0.44466659
v -3.44451523 1.97463464 0.44466659
v -3.44753648 1.97475349 0.44466659
v -3.69783479 1.98514896 0.44466659
v -3.69791226 1.98640155 0.44466659
v -2.98071575 1.95135684 0.44091020
v -3.24852181 1.96966091 0.44466659
v -3.69791226 1.98979356 0.38149974
v -3.66436873 1.98964727 0.38129875
v -3.64771317 1.98964727 0.38119193
v -3.13077081 1.97297063 0.38211530
v -3.46426951 1.97555807 0.38251108
v -3.11411524 1.97297063 0.38209646
v -3.11411524 1.96436718 0.38360407
v -3.07561377 1.95135684 0.39045089
v -3.14192617 1.95135684 0.39038177
v -3.69791226 2.04198118 0.44466659
v -2.96398272 1.95135684 0.44095422
v -2.96847586 1.96637861 0.44466659
v -3.69791226 2.02299140 0.38097210
v -3.66436873 2.00631476 0.38102237
v -3.64771317 2.00631476 0.38097210
v -3.63105762 1.98964727 0.38117309
v -3.34752561 1.98964727 0.38092814
v -3.28090332 1.98964727 0.38087786
v -3.11411524 1.98964727 0.38080880
v -3.09745967 1.98964727 0.38080248
v -3.08072664 1.98964727 0.38082132
v -3.06407107 1.98964727 0.38084643
v -2.90650166 1.97394893 0.38261784
v -2.93067161 1.96522661 0.38388045
v -2.94732717 1.96513518 0.38386160
v -2.90905810 1.95135684 0.39097228
v -3.69783479 2.04312404 0.44466659
v -3.69791226 2.04384633 0.44234243
v -2.90650166 1.95135684 0.44096048
v -2.96398272 1.96635117 0.44466659
v -3.69791226 2.03387144 0.38229751
v -3.66436873 2.02299140 0.38087160
v -3.53096927 2.02299140 0.38070824
v -3.48092507 2.02299140 0.38065803
v -3.08072664 2.02299140 0.38050099
v -3.06407107 2.02299140 0.38052610
v -3.04741551 1.98964727 0.38090297
v -2.90650166 1.98964727 0.38141177
v -2.90650166 1.96561061 0.38396210
v -2.91401602 1.96544604 0.38392440
v -2.90650166 1.95135684 0.39098480
v -3.48092507 2.04373662 0.44466659
v -3.48092507 2.04455947 0.44214770
v -3.69791226 2.04388289 0.44214770
v -2.90650166 1.96671690 0.44466659
v -3.69791226 2.04000631 0.39212174
v -3.68102429 2.04014344 0.39212174
v -3.66436873 2.04026232 0.39212174
v -3.64771317 2.04033545 0.39212174
v -3.49758068 2.04099374 0.39212174
v -3.66436873 2.03401772 0.38230377
v -3.53096927 2.03429200 0.38215932
v -3.51431365 2.03433771 0.38215299
v -3.08072664 2.03440172 0.38207767
v -2.90650166 2.03369772 0.38236031
v -2.90650166 2.02299140 0.38110402
v -3.38339318 2.04378233 0.44466659
v -3.31413699 2.04465090 0.44214770
v -3.33087005 2.04464176 0.44214770
v -3.46426951 2.04456861 0.44214770
v -3.33087005 2.04475147 0.40879919
v -3.46426951 2.04462347 0.40879919
v -3.48092507 2.04459605 0.40879919
v -3.69791226 2.04389204 0.42568383
v -2.90650166 2.04295032 0.44466659
v -3.69791226 2.04373662 0.40879919
v -3.48092507 2.04104860 0.39212174
v -3.49758068 2.03437429 0.38215932
v -3.48092507 2.03439258 0.38215932
v -3.31413699 2.04115832 0.39212174
v -3.08072664 2.04104860 0.39212174
v -3.06407107 2.03434687 0.38211530
v -2.90650166 2.03978689 0.39212174
v -3.06407107 2.04094803 0.39212174
v -3.31669342 2.04380975 0.44466659
v -3.26417029 2.04382805 0.44466659
v -3.14750384 2.04379146 0.44466659
v -3.09745967 2.04375490 0.44466659
v -3.09745967 2.04446804 0.44214770
v -3.09745967 2.04453204 0.42547025
v -3.09745967 2.04458689 0.40879919
v -3.31413699 2.04476061 0.40879919
v -3.33087005 2.04114917 0.39212174
v -3.69791226 2.04389204 0.42547025
v -2.90650166 2.04353546 0.44214770
v -3.06407107 2.04436747 0.44214770
v -3.06407107 2.04366347 0.44466659
v -3.08072664 2.04455947 0.40879919
v -3.06407107 2.04446804 0.40879919
v -2.90650166 2.04350804 0.40879919
v -3.08072664 2.04371832 0.44466659
v -3.08072664 2.04443147 0.44214770
v -3.08072664 2.04450462 0.42547025
v -2.90650166 2.04353546 0.43469778
v -2.90650166 2.04352632 0.42547025
f 1 2 8
f 1 8 24
f 1 24 23
f 1 23 41
f 1 41 56
f 1 56 44
f 1 44 26
f 1 26 14
f 1 14 3
f 1 3 4
f 1 4 13
f 1 13 25
f 1 25 43
f 1 43 59
f 1 59 79
f 1 79 99
f 1 99 81
f 1 81 61
f 1 61 46
f 1 46 28
f 1 28 16
f 1 16 5
f 1 5 2
f 2 5 6
f 2 6 7
f 2 7 8
f 3 9 10
f 3 10 11
f 3 11 12
f 3 12 13
f 3 13 4
f 3 14 15
f 3 15 9
f 5 16 17
f 5 17 18
f 5 18 19
f 5 19 20
f 5 20 7
f 5 7 6
f 7 19 21
f 7 21 22
f 7 22 23
f 7 23 24
f 7 24 8
f 7 20 19
f 9 15 27
f 9 27 45
f 9 45 60
f 9 60 80
f 9 80 102
f 9 102 106
f 9 106 93
f 9 93 92
f 9 92 91
f 9 91 90
f 9 90 72
f 9 72 57
f 9 57 42
f 9 42 25
f 9 25 13
f 9 13 12
f 9 12 11
f 9 11 10
f 14 26 27
f 14 27 15
f 16 28 29
f 16 29 18
f 16 18 17
f 18 29 30
f 18 30 31
f 18 31 21
f 18 21 19
f 21 31 32
f 21 32 33
f 21 33 34
f 21 34 35
f 21 35 36
f 21 36 37
f 21 37 38
f 21 38 39
f 21 39 22
f 22 39 40
f 22 40 41
f 22 41 23
f 25 42 43
f 26 44 45
f 26 45 27
f 28 46 47
f 28 47 30
f 28 30 29
f 30 47 48
f 30 48 49
f 30 49 32
f 30 32 31
f 32 49 33
f 33 49 34
f 34 49 50
f 34 50 35
f 35 50 36
f 36 50 51
f 36 51 37
f 37 51 52
f 37 52 38
f 38 52 53
f 38 53 71
f 38 71 70
f 38 70 88
f 38 88 105
f 38 105 110
f 38 110 109
f 38 109 100
f 38 100 80
f 38 80 60
f 38 60 44
f 38 44 56
f 38 56 54
f 38 54 55
f 38 55 39
f 39 55 56
f 39 56 41
f 39 41 40
f 42 57 58
f 42 58 43
f 43 58 59
f 44 60 45
f 46 61 62
f 46 62 63
f 46 63 64
f 46 64 65
f 46 65 66
f 46 66 67
f 46 67 48
f 46 48 47
f 48 67 49
f 49 67 68
f 49 68 50
f 50 69 51
f 50 68 69
f 51 69 70
f 51 70 71
f 51 71 53
f 51 53 52
f 54 56 55
f 57 72 73
f 57 73 74
f 57 74 75
f 57 75 58
f 58 75 76
f 58 76 77
f 58 77 78
f 58 78 59
f 59 78 79
f 61 81 62
f 62 81 63
f 63 81 64
f 64 81 65
f 65 78 82
f 65 82 66
f 65 81 78
f 66 82 68
f 66 68 67
f 68 82 83
f 68 83 84
f 68 84 69
f 69 85 86
f 69 86 87
f 69 87 70
f 69 84 85
f 70 87 86
f 70 86 89
f 70 89 88
f 72 90 73
f 73 91 92
f 73 92 93
f 73 93 94
f 73 94 95
f 73 95 96
f 73 96 97
f 73 97 76
f 73 76 74
f 73 90 91
f 74 76 75
f 76 98 82
f 76 82 77
f 76 97 85
f 76 85 98
f 77 82 78
f 78 81 99
f 78 99 79
f 80 100 101
f 80 101 102
f 82 84 83
f 82 98 84
f 84 98 85
f 85 97 86
f 86 97 96
f 86 96 103
f 86 103 104
f 86 104 89
f 88 89 105
f 89 104 105
f 93 106 107
f 93 107 94
f 94 107 108
f 94 108 95
f 95 108 103
f 95 103 96
f 100 104 103
f 100 103 101
f 100 109 104
f 101 103 108
f 101 108 107
f 101 107 102
f 102 107 106
f 104 109 110
f 104 110 105

