# https://github.com/mikedh/trimesh
v -1.99332029 2.02112992 0.74047103
v -1.99328217 2.03966446 0.74047103
v -1.99330120 2.00633142 0.74047103
v -1.99329166 2.02300652 0.84807698
v -1.99329166 2.03966446 0.84807698
v -1.99276734 2.05447152 0.74047103
v -1.99294848 2.00488327 0.74047103
v -1.99320589 2.00632285 0.84807698
v -1.99266250 2.05633955 0.84807698
v -1.99270061 2.05633955 0.74233538
v -1.99270061 2.05633955 0.74047103
v -1.99009798 1.99350377 0.74047103
v -1.99001216 1.99356375 0.84807698
v -1.98946877 2.06740199 0.84807698
v -1.98951642 2.06745341 0.74047103
v -1.97858160 1.98759978 0.74047103
v -1.97859108 1.98739414 0.84807698
v -1.98610345 1.99144723 0.84807698
v -1.98230918 2.06992983 0.84807698
v -1.97858160 2.07136940 0.74233538
v -1.98829616 2.06789042 0.74047103
v -1.96199338 1.98585173 0.74047103
v -1.96201247 1.98498627 0.84807698
v -1.97289963 1.98619449 0.84807698
v -1.97859108 2.07124087 0.84807698
v -1.97672258 2.07148937 0.74047103
v -1.97858160 2.07136940 0.74047103
v -1.94523357 1.98590314 0.74047103
v -1.95491956 1.98486630 0.84807698
v -1.96759906 2.07193495 0.84807698
v -1.96190756 2.07238912 0.74047103
v -1.96191709 2.07231200 0.82571524
v -1.93076178 1.99180712 0.74047103
v -1.94524311 1.98529475 0.84807698
v -1.96191709 2.07228626 0.84807698
v -1.94523357 2.07216632 0.74233538
v -1.94523357 2.07216632 0.74047103
v -1.94524310 2.07214062 0.84807698
v -1.90259998 2.01054732 0.74047103
v -1.93153402 1.99149864 0.84807698
v -1.94069564 1.98725704 0.84807698
v -1.92858821 2.07190924 0.75901978
v -1.92858821 2.07190068 0.74047103
v -1.93427011 2.07196924 0.84807698
v -1.89944442 2.01430051 0.74047103
v -1.91231460 2.00927912 0.84807698
v -1.92858821 2.07190068 0.77848492
v -1.91290563 2.06821603 0.79236751
v -1.91290563 2.06821603 0.77848492
v -1.91309632 2.06820748 0.74047103
v -1.91294382 2.06821603 0.75901978
v -1.91304865 2.06820748 0.74233538
v -1.92857866 2.07186638 0.84807698
v -1.89592659 2.02263804 0.74047103
v -1.90274300 2.02206392 0.84807698
v -1.90701397 2.01604856 0.84807698
v -1.92857866 2.07189209 0.79236751
v -1.91294382 2.06819892 0.80904139
v -1.90476413 2.06064114 0.74047103
v -1.91289610 2.06820748 0.77848492
v -1.91839694 2.06943285 0.84807698
v -1.91302004 2.06819034 0.82571524
v -1.90165622 2.03402612 0.84807698
v -1.90181826 2.02736808 0.84807698
v -1.89859596 2.03972444 0.74047103
v -1.90198985 2.04679379 0.84807698
v -1.90427787 2.05970713 0.74047103
v -1.91036020 2.06547400 0.84807698
v -1.90459247 2.05958716 0.80904139
v -1.91320122 2.06818178 0.84807698
v -1.91312494 2.06818178 0.84238912
v -1.90485943 2.05929582 0.84807698
f 1 2 6
f 1 6 11
f 1 11 15
f 1 15 21
f 1 21 27
f 1 27 26
f 1 26 31
f 1 31 37
f 1 37 43
f 1 43 50
f 1 50 59
f 1 59 67
f 1 67 65
f 1 65 54
f 1 54 45
f 1 45 39
f 1 39 33
f 1 33 28
f 1 28 22
f 1 22 16
f 1 16 12
f 1 12 7
f 1 7 3
f 1 3 4
f 1 4 5
f 1 5 2
f 2 5 6
f 3 7 8
f 3 8 4
f 4 8 13
f 4 13 18
f 4 18 17
f 4 17 24
f 4 24 23
f 4 23 29
f 4 29 34
f 4 34 41
f 4 41 40
f 4 40 46
f 4 46 56
f 4 56 55
f 4 55 64
f 4 64 63
f 4 63 66
f 4 66 72
f 4 72 68
f 4 68 70
f 4 70 61
f 4 61 53
f 4 53 44
f 4 44 38
f 4 38 35
f 4 35 30
f 4 30 25
f 4 25 19
f 4 19 14
f 4 14 9
f 4 9 5
f 5 9 10
f 5 10 6
f 6 10 11
f 7 12 13
f 7 13 8
f 9 14 15
f 9 15 10
f 10 15 11
f 12 16 17
f 12 17 18
f 12 18 13
f 14 19 20
f 14 20 15
f 15 20 21
f 16 22 23
f 16 23 24
f 16 24 17
f 19 25 20
f 20 26 27
f 20 27 21
f 20 25 26
f 22 28 29
f 22 29 23
f 25 30 26
f 26 30 32
f 26 32 31
f 28 33 34
f 28 34 29
f 30 35 32
f 31 36 37
f 31 32 38
f 31 38 36
f 32 35 38
f 33 39 40
f 33 40 41
f 33 41 34
f 36 42 37
f 36 38 42
f 37 42 43
f 38 44 42
f 39 45 46
f 39 46 40
f 42 44 47
f 42 47 48
f 42 48 49
f 42 49 43
f 43 49 51
f 43 51 52
f 43 52 50
f 44 53 47
f 45 54 55
f 45 55 56
f 45 56 46
f 47 53 57
f 47 57 48
f 48 57 53
f 48 53 58
f 48 58 59
f 48 59 60
f 48 60 49
f 49 60 51
f 50 52 59
f 51 59 52
f 51 60 59
f 53 61 62
f 53 62 58
f 54 63 64
f 54 64 55
f 54 65 66
f 54 66 63
f 58 62 59
f 59 62 68
f 59 68 69
f 59 69 67
f 61 70 71
f 61 71 62
f 62 71 68
f 65 67 69
f 65 69 72
f 65 72 66
f 68 71 70
f 68 72 69

