# https://github.com/mikedh/trimesh
v -1.59497526 1.58940266 1.94181028
v -1.67834429 1.57272533 1.94285341
v -1.69505800 1.57272533 1.94285341
v -1.66169709 1.58940266 1.94186480
v -1.59497526 1.60429872 1.94670660
v -1.34486831 1.60452581 1.94680000
v -1.26149933 1.60454000 1.94682338
v -1.34486831 1.58940266 1.94200489
v -1.69505800 1.56129958 1.94770303
v -1.51160628 1.57272533 1.94301683
v -1.08737000 1.56156926 1.94806105
v -1.72835235 1.58940267 1.94195038
v -1.76750647 1.56135636 1.94771078
v -1.76750647 1.57272533 1.94297013
v -1.66169709 1.60420644 1.94673773
v -1.61162247 1.60430581 1.94672998
v -1.27821308 1.61288576 1.95248256
v -1.32822116 1.60454709 1.94681556
v -1.27821308 1.60454709 1.94682338
v -1.24485217 1.60451871 1.94683894
v -1.26149933 1.58940266 1.94209054
v -1.26149933 1.61287866 1.95249038
v -1.66169709 1.55821962 1.95976089
v -1.71170515 1.56128538 1.94774191
v -1.08737000 1.57272533 1.94349169
v -1.08737000 1.56774342 1.94553119
v -1.08737000 1.55875185 1.95976089
v -1.74506612 1.58940267 1.94199708
v -1.74506612 1.60378065 1.94680000
v -1.76750647 1.55824090 1.95976089
v -1.76750647 1.58940267 1.94212942
v -1.64504994 1.61262317 1.95284840
v -1.62833617 1.61265156 1.95281727
v -1.64504994 1.60428452 1.94676111
v -1.34486831 1.61286447 1.95255264
v -1.29486025 1.61289995 1.95251370
v -1.74519924 1.63070566 1.96838586
v -1.72835235 1.63070566 1.96837030
v -1.71170515 1.63070566 1.96836254
v -1.56168097 1.63070565 1.96835473
v -1.52832005 1.63070565 1.96837811
v -1.08737000 1.60412840 1.94695572
v -1.08737000 1.58940266 1.94239411
v -1.51160628 1.63070565 1.96840149
v -1.47824537 1.63070565 1.96846375
v -1.32822116 1.63071276 1.96876733
v -1.31150739 1.63071276 1.96880621
v -1.26249816 1.63071276 1.96897750
v -1.24485217 1.61285027 1.95254483
v -1.66169709 1.55822671 1.97643488
v -1.67834429 1.55821962 1.95976089
v -1.08737000 1.55887250 1.97643488
v -1.76750647 1.59432071 1.94375638
v -1.76750647 1.60366000 1.94687007
v -1.76750647 1.55832605 1.97643488
v -1.76750647 1.63070566 1.96844037
v -1.76197957 1.63070566 1.96840924
v -1.39927125 1.63071276 1.96871282
v -1.08737000 1.63071275 1.97117266
v -1.22820501 1.61277931 1.95261491
v -1.24605077 1.63071276 1.96910985
v -1.66169709 1.55836154 1.99309330
v -1.08737000 1.55900734 1.99310105
v -1.76750647 1.55870219 1.99309330
v -1.67834429 1.55841122 1.99309330
v -1.76750647 1.63070566 2.02133472
v -1.39927125 1.63071276 2.02119456
v -1.08737000 1.63071275 2.02091437
v -1.64504994 1.56137056 2.00976722
v -1.67834429 1.56142734 2.00965826
v -1.76750647 1.56184605 2.01077922
v -1.08737000 1.56021378 2.00025485
v -1.08737000 1.56170409 2.00909000
v -1.74506612 1.63070566 2.02133472
v -1.38695233 1.63071276 2.02120243
v -1.76750647 1.62273603 2.02132696
v -1.08737000 1.63019469 2.02091437
v -1.34486831 1.63071276 2.02116343
v -1.62833617 1.56433700 2.01815870
v -1.76750647 1.56428732 2.01819758
v -1.76750647 1.56390409 2.01709225
v -1.08737000 1.56347119 2.01281871
v -1.60203369 1.56437958 2.01811200
v -1.76171321 1.62273603 2.02132696
v -1.37829581 1.62274312 2.02116343
v -1.37829581 1.63071276 2.02119456
v -1.76750647 1.60606580 2.02127245
v -1.39494299 1.62274312 2.02117130
v -1.08737000 1.62274312 2.02088323
v -1.34486831 1.62274312 2.02113230
v -1.62833617 1.57272533 2.01957542
v -1.76750647 1.57173179 2.01950540
v -1.08737000 1.56571375 2.01743477
v -1.08737000 1.57405241 2.01936524
v -1.37829581 1.60605869 2.02107778
v -1.76750647 1.58940267 2.02116343
v -1.08737000 1.61351736 2.02083647
v -1.34486831 1.60605869 2.02104665
v -1.09476135 1.60605869 2.02080534
v -1.76750647 1.58363303 2.02068081
v -1.64504994 1.57272533 2.01958329
v -1.08737000 1.58940266 2.02068081
v -1.36158207 1.58940266 2.02092999
v -1.08737000 1.60605869 2.02079759
v -1.08737000 1.59684004 2.02073532
f 1 2 3
f 1 3 4
f 1 4 5
f 1 5 6
f 1 6 7
f 1 7 8
f 1 8 2
f 2 9 3
f 2 8 10
f 2 10 11
f 2 11 9
f 3 12 4
f 3 9 13
f 3 13 14
f 3 14 12
f 4 12 15
f 4 15 5
f 5 15 16
f 5 16 17
f 5 17 6
f 6 17 18
f 6 18 19
f 6 19 7
f 7 20 21
f 7 21 8
f 7 19 17
f 7 17 22
f 7 22 20
f 8 21 10
f 9 23 24
f 9 24 13
f 9 11 23
f 10 21 25
f 10 25 26
f 10 26 11
f 11 26 25
f 11 25 43
f 11 43 42
f 11 42 59
f 11 59 68
f 11 68 77
f 11 77 89
f 11 89 97
f 11 97 104
f 11 104 105
f 11 105 102
f 11 102 94
f 11 94 93
f 11 93 82
f 11 82 73
f 11 73 72
f 11 72 63
f 11 63 52
f 11 52 27
f 11 27 23
f 12 14 28
f 12 28 29
f 12 29 15
f 13 30 55
f 13 55 64
f 13 64 71
f 13 71 81
f 13 81 80
f 13 80 92
f 13 92 100
f 13 100 96
f 13 96 87
f 13 87 76
f 13 76 66
f 13 66 56
f 13 56 54
f 13 54 53
f 13 53 31
f 13 31 14
f 13 24 30
f 14 31 28
f 15 32 33
f 15 33 34
f 15 34 16
f 15 29 32
f 16 34 35
f 16 35 36
f 16 36 17
f 17 36 37
f 17 37 38
f 17 38 39
f 17 39 40
f 17 40 41
f 17 41 22
f 17 19 18
f 20 22 42
f 20 42 21
f 21 42 43
f 21 43 25
f 22 41 44
f 22 44 45
f 22 45 46
f 22 46 47
f 22 47 48
f 22 48 49
f 22 49 42
f 23 50 51
f 23 51 24
f 23 27 50
f 24 51 30
f 27 52 50
f 28 31 53
f 28 53 54
f 28 54 29
f 29 54 32
f 30 51 50
f 30 50 55
f 32 54 56
f 32 56 57
f 32 57 33
f 33 57 35
f 33 35 34
f 35 57 37
f 35 37 36
f 37 57 58
f 37 58 38
f 38 58 39
f 39 58 40
f 40 58 41
f 41 58 46
f 41 46 44
f 42 49 60
f 42 60 59
f 44 46 45
f 46 58 67
f 46 67 75
f 46 75 86
f 46 86 78
f 46 78 68
f 46 68 59
f 46 59 61
f 46 61 48
f 46 48 47
f 48 61 49
f 49 61 60
f 50 62 55
f 50 52 63
f 50 63 62
f 55 62 65
f 55 65 64
f 56 66 67
f 56 67 58
f 56 58 57
f 59 60 61
f 62 69 70
f 62 70 71
f 62 71 65
f 62 63 72
f 62 72 73
f 62 73 69
f 64 65 71
f 66 74 75
f 66 75 67
f 66 76 84
f 66 84 74
f 68 78 77
f 69 79 80
f 69 80 81
f 69 81 71
f 69 71 70
f 69 73 79
f 73 82 83
f 73 83 79
f 74 84 75
f 75 85 86
f 75 84 87
f 75 87 88
f 75 88 85
f 76 87 84
f 77 78 90
f 77 90 89
f 78 86 85
f 78 85 90
f 79 91 92
f 79 92 80
f 79 83 93
f 79 93 94
f 79 94 91
f 82 93 83
f 85 88 87
f 85 87 95
f 85 95 98
f 85 98 90
f 87 96 95
f 89 90 97
f 90 98 99
f 90 99 97
f 91 100 101
f 91 101 92
f 91 94 100
f 92 101 100
f 94 102 103
f 94 103 100
f 95 103 102
f 95 102 98
f 95 96 103
f 96 100 103
f 97 99 104
f 98 102 105
f 98 105 99
f 99 105 104

