# https://github.com/mikedh/trimesh
v -2.90650166 1.93966617 0.72435075
v -2.90650166 1.93966617 0.68131148
v -2.88055604 1.93966617 0.72447483
v -2.90650166 2.00630782 0.73052285
v -2.76380079 1.93966617 0.68086471
v -2.90650166 1.97297692 0.65721048
v -2.19688920 1.96911132 0.65256072
v -2.86390762 1.93966617 0.72454104
v -2.88055604 2.02298838 0.73182181
v -2.90650166 2.01375719 0.73103583
v -2.23025811 1.93966617 0.72695693
v -2.21353760 1.93966617 0.72700658
v -2.34694130 1.93966617 0.68010354
v -2.90650166 1.97962097 0.65376038
v -2.73050392 1.98167457 0.65063297
v -2.19688920 1.97744655 0.64994626
v -2.17022285 1.97809082 0.65007863
v -2.18016864 1.96958445 0.65267655
v -2.17022285 1.93966617 0.68064132
v -2.18024074 1.93966617 0.68052550
v -2.38038231 2.02298838 0.73217757
v -2.38038231 2.03675964 0.72490509
v -2.76380079 2.03650797 0.72469825
v -2.88055604 2.03615564 0.72468170
v -2.89720447 2.02298838 0.73168944
v -2.19688920 1.93966617 0.72703139
v -2.90650166 2.02298838 0.73158187
v -2.90650166 1.98551000 0.65087290
v -2.90650166 1.99012056 0.65059160
v -2.90650166 1.99383517 0.65036822
v -2.19688920 1.98964742 0.64890378
v -2.24690657 1.97812102 0.64996281
v -2.17022285 1.98964742 0.64905271
v -2.17022285 1.96974551 0.65299095
v -2.17022285 1.93966617 0.72703139
v -2.34694130 2.02298838 0.73207830
v -2.33036494 2.03677977 0.72478926
v -2.31364444 2.03679991 0.72472306
v -2.44712018 2.03686030 0.72478097
v -2.69713499 2.03661870 0.72469825
v -2.74715235 2.03655830 0.72464860
v -2.49713757 2.04231646 0.70897841
v -2.69713499 2.04185339 0.70897841
v -2.74715235 2.04172252 0.70897841
v -2.90650166 2.03621604 0.72444176
v -2.90650166 2.00630782 0.64972287
v -2.19688920 2.00630781 0.64823363
v -2.17022285 2.00630781 0.64823363
v -2.17022285 2.00630781 0.73057250
v -2.33036494 2.02298838 0.73202865
v -2.17022285 2.03665897 0.72436730
v -2.31364444 2.04227621 0.70897841
v -2.44712018 2.04239699 0.70897841
v -2.49713757 2.04241713 0.67562751
v -2.90650166 2.04106821 0.70897841
v -2.73050392 2.04175274 0.67562751
v -2.90650166 2.04105813 0.67562751
v -2.90650166 2.02298838 0.64925955
v -2.18016864 2.02298838 0.64766274
v -2.17022285 2.02298838 0.64765448
v -2.17022285 2.01304245 0.64799369
v -2.17022285 2.01625374 0.73107719
v -2.17022285 2.02298838 0.73139159
v -2.17022285 2.03114241 0.72721342
v -2.17022285 2.04198426 0.70897841
v -2.33036494 2.04250774 0.67562751
v -2.41367917 2.04246747 0.67562751
v -2.43039967 2.04245740 0.67562751
v -2.33036494 2.03915552 0.65895621
v -2.41367917 2.03903472 0.65895621
v -2.49713757 2.03875285 0.65895621
v -2.69713499 2.03806831 0.65895621
v -2.90650166 2.03731331 0.65895621
v -2.90650166 2.03241082 0.64990489
v -2.17022285 2.03378996 0.64901961
v -2.17022285 2.04197419 0.67562751
v -2.17022285 2.03913537 0.65895621
v -2.31364444 2.03915552 0.65895621
v -2.41367917 2.03341749 0.64935056
v -2.18016864 2.03377989 0.64903616
f 1 2 5
f 1 5 13
f 1 13 20
f 1 20 19
f 1 19 35
f 1 35 26
f 1 26 12
f 1 12 11
f 1 11 8
f 1 8 3
f 1 3 4
f 1 4 10
f 1 10 27
f 1 27 45
f 1 45 55
f 1 55 57
f 1 57 73
f 1 73 74
f 1 74 58
f 1 58 46
f 1 46 30
f 1 30 29
f 1 29 28
f 1 28 14
f 1 14 6
f 1 6 2
f 2 6 7
f 2 7 5
f 3 8 4
f 4 9 10
f 4 8 11
f 4 11 12
f 4 12 9
f 5 7 13
f 6 14 15
f 6 15 7
f 7 16 17
f 7 17 18
f 7 18 19
f 7 19 20
f 7 20 13
f 7 15 16
f 9 21 22
f 9 22 23
f 9 23 24
f 9 24 25
f 9 25 10
f 9 12 26
f 9 26 21
f 10 25 27
f 14 28 15
f 15 28 29
f 15 29 30
f 15 30 31
f 15 31 32
f 15 32 16
f 16 32 31
f 16 31 33
f 16 33 17
f 17 33 48
f 17 48 61
f 17 61 60
f 17 60 75
f 17 75 77
f 17 77 76
f 17 76 65
f 17 65 51
f 17 51 64
f 17 64 63
f 17 63 62
f 17 62 49
f 17 49 35
f 17 35 19
f 17 19 34
f 17 34 18
f 18 34 19
f 21 26 35
f 21 35 36
f 21 36 37
f 21 37 22
f 22 37 38
f 22 38 39
f 22 39 40
f 22 40 23
f 23 41 42
f 23 42 43
f 23 43 44
f 23 44 45
f 23 45 24
f 23 40 41
f 24 45 25
f 25 45 27
f 30 46 31
f 31 46 47
f 31 47 48
f 31 48 33
f 35 49 50
f 35 50 36
f 36 50 37
f 37 50 51
f 37 51 38
f 38 52 53
f 38 53 39
f 38 51 52
f 39 53 40
f 40 53 41
f 41 53 42
f 42 53 54
f 42 54 43
f 43 54 44
f 44 55 45
f 44 54 56
f 44 56 57
f 44 57 55
f 46 58 59
f 46 59 47
f 47 59 60
f 47 60 61
f 47 61 48
f 49 62 50
f 50 62 63
f 50 63 64
f 50 64 51
f 51 65 52
f 52 65 66
f 52 66 53
f 53 67 68
f 53 68 54
f 53 66 67
f 54 68 69
f 54 69 70
f 54 70 56
f 56 70 71
f 56 71 72
f 56 72 73
f 56 73 57
f 58 74 59
f 59 75 60
f 59 74 75
f 65 76 66
f 66 76 77
f 66 77 78
f 66 78 69
f 66 69 67
f 67 69 68
f 69 78 75
f 69 75 70
f 70 79 74
f 70 74 71
f 70 75 80
f 70 80 79
f 71 74 72
f 72 74 73
f 74 79 75
f 75 79 80
f 75 78 77

