# https://github.com/mikedh/trimesh
v 2.10596202 -0.45982981 0.40383000
v 2.07572190 -0.45982981 0.40383000
v 2.11522794 -0.45982981 0.41904498
v 2.11528772 -0.45986013 0.40383000
v 2.07571338 -0.46073934 0.40383000
v 2.04304786 -0.45982981 0.51110566
v 2.12723515 -0.45982981 0.47022766
v 2.12840513 -0.54434001 0.47022766
v 2.12847345 -0.56099950 0.47022766
v 2.12861864 -0.61469189 0.47022766
v 2.11542433 -0.56099950 0.40383000
v 2.07571338 -0.46099704 0.40383000
v 2.04304786 -0.47679249 0.51110566
v 2.04304786 -0.45982981 0.56752128
v 2.12958365 -0.45982981 0.48571146
v 2.12971174 -0.45982981 0.48689427
v 2.13029247 -0.61469189 0.48689427
v 2.12899439 -0.61469189 0.47390148
v 2.11541581 -0.61469189 0.40383000
v 2.11542433 -0.61128117 0.40383000
v 2.11544144 -0.59462167 0.40383000
v 2.11544144 -0.57767416 0.40383000
v 2.07578167 -0.61461611 0.40383000
v 2.04304786 -0.54434001 0.51128489
v 2.04304786 -0.61469189 0.56879367
v 2.07657586 -0.45982981 0.58691190
v 2.12925058 -0.45982981 0.50352505
v 2.12972027 -0.61100831 0.52017374
v 2.12973736 -0.61469189 0.52017374
v 2.13002771 -0.61469189 0.50352505
v 2.07877064 -0.61469189 0.40383000
v 2.04304786 -0.61469189 0.51221679
v 2.04304786 -0.56099950 0.51142824
v 2.07578167 -0.61469189 0.58685814
v 2.07578167 -0.61467674 0.58691190
v 2.07579021 -0.61096283 0.58691190
v 2.07656734 -0.46098188 0.58691190
v 2.11393838 -0.45982981 0.58691190
v 2.12880651 -0.45982981 0.51900888
v 2.12931036 -0.61469189 0.52386548
v 2.12876383 -0.45982981 0.52017374
v 2.07623426 -0.61469189 0.58691190
v 2.11535603 -0.45982981 0.58685814
v 2.11535603 -0.45984497 0.58691190
v 2.12674835 -0.45982981 0.53684038
v 2.12771342 -0.61469189 0.53684038
v 2.11551826 -0.61469189 0.58691190
v 2.11550975 -0.57767416 0.58691190
v 2.11552680 -0.59433366 0.58691190
f 1 2 6
f 1 6 14
f 1 14 26
f 1 26 38
f 1 38 43
f 1 43 45
f 1 45 41
f 1 41 39
f 1 39 27
f 1 27 16
f 1 16 15
f 1 15 7
f 1 7 3
f 1 3 4
f 1 4 11
f 1 11 22
f 1 22 21
f 1 21 20
f 1 20 19
f 1 19 31
f 1 31 23
f 1 23 12
f 1 12 5
f 1 5 2
f 2 5 6
f 3 7 4
f 4 7 8
f 4 8 9
f 4 9 10
f 4 10 11
f 5 12 13
f 5 13 6
f 6 13 24
f 6 24 33
f 6 33 32
f 6 32 25
f 6 25 14
f 7 15 8
f 8 15 16
f 8 16 9
f 9 16 17
f 9 17 18
f 9 18 10
f 10 19 20
f 10 20 21
f 10 21 22
f 10 22 11
f 10 18 17
f 10 17 30
f 10 30 29
f 10 29 40
f 10 40 46
f 10 46 47
f 10 47 42
f 10 42 34
f 10 34 25
f 10 25 32
f 10 32 31
f 10 31 19
f 12 23 13
f 13 23 24
f 14 25 26
f 16 27 28
f 16 28 29
f 16 29 30
f 16 30 17
f 23 31 32
f 23 32 33
f 23 33 24
f 25 34 35
f 25 35 36
f 25 36 37
f 25 37 26
f 26 37 36
f 26 36 35
f 26 35 42
f 26 42 47
f 26 47 49
f 26 49 48
f 26 48 44
f 26 44 38
f 27 39 28
f 28 40 29
f 28 39 41
f 28 41 40
f 34 42 35
f 38 44 43
f 40 45 46
f 40 41 45
f 43 44 45
f 44 48 46
f 44 46 45
f 46 48 49
f 46 49 47

