# https://github.com/mikedh/trimesh
v 1.09062411 -0.24261616 1.99712253
v 1.09062411 -0.28805349 1.99683178
v 1.14187037 -0.24261616 1.99712253
v 1.09062411 -0.24261616 1.93554054
v 1.09062411 -0.28805349 1.99534844
v 1.09077961 -0.28805349 1.99683178
v 1.14187037 -0.28805349 1.99680173
v 1.14187037 -0.24261616 1.89514740
v 1.11387454 -0.24261616 1.90741569
v 1.09062411 -0.28795565 1.93636244
v 1.09077961 -0.28805349 1.93636244
v 1.14187037 -0.28805349 1.89507725
v 1.14187037 -0.24434630 1.89513739
v 1.13851950 -0.24434630 1.89481666
v 1.13912145 -0.24261616 1.89488681
v 1.12054117 -0.24261616 1.89990836
v 1.12185042 -0.28805349 1.90006876
v 1.13880543 -0.28805349 1.89473649
v 1.13877031 -0.27767266 1.89473649
v 1.14187037 -0.26101170 1.89509728
v 1.13871513 -0.26101170 1.89476653
v 1.13020753 -0.24434630 1.89481666
v 1.13848439 -0.24261616 1.89482667
v 1.12185042 -0.24261616 1.89917671
v 1.13018245 -0.28805349 1.89473649
v 1.12703725 -0.28805349 1.89674107
v 1.13020753 -0.27767266 1.89473649
v 1.13018245 -0.26101170 1.89476653
v 1.13018245 -0.24261616 1.89482667
v 1.12931965 -0.24261616 1.89508726
f 1 2 6
f 1 6 3
f 1 3 8
f 1 8 15
f 1 15 23
f 1 23 29
f 1 29 30
f 1 30 24
f 1 24 16
f 1 16 9
f 1 9 4
f 1 4 10
f 1 10 5
f 1 5 2
f 2 5 11
f 2 11 17
f 2 17 26
f 2 26 25
f 2 25 18
f 2 18 12
f 2 12 7
f 2 7 6
f 3 6 7
f 3 7 12
f 3 12 20
f 3 20 13
f 3 13 8
f 4 9 10
f 5 10 11
f 8 13 14
f 8 14 15
f 9 16 17
f 9 17 10
f 10 17 11
f 12 18 19
f 12 19 20
f 13 20 21
f 13 21 14
f 14 21 28
f 14 28 22
f 14 22 29
f 14 29 23
f 14 23 15
f 16 24 25
f 16 25 26
f 16 26 17
f 18 25 27
f 18 27 19
f 19 27 28
f 19 28 21
f 19 21 20
f 22 28 29
f 24 30 25
f 25 30 27
f 27 30 28
f 28 30 29

