# https://github.com/mikedh/trimesh
v -3.69792574 1.65620474 1.22744019
v -3.69792574 1.65620474 1.17927396
v -3.58094745 1.65620474 1.22751301
v -3.69769332 1.70615401 1.22752272
v -3.69792574 1.68931337 1.22749360
v -3.69792574 1.92211498 1.17818160
v -3.23094214 1.65620474 1.17874962
v -2.98071703 1.65620474 1.22777032
v -3.69792574 1.72283847 1.22754215
v -3.69792574 1.70599784 1.22751787
v -3.69792574 1.92211498 1.22556131
v -2.90650166 1.92211498 1.17912831
v -2.96398371 1.65620474 1.17879817
v -2.98071703 1.65620474 1.17879332
v -2.96398371 1.65620474 1.22777032
v -2.94818004 1.92211498 1.22770236
v -3.58179961 1.92211498 1.22759554
v -3.59845546 1.92211498 1.22759069
v -3.69784827 1.92211498 1.22754699
v -3.69792574 1.90623741 1.22753728
v -2.90650166 1.92211498 1.22770236
v -2.90650166 1.65620474 1.17890012
v -2.93067203 1.65620474 1.17885644
v -2.93067203 1.65620474 1.22775090
v -2.90650166 1.65620474 1.22773149
f 1 2 7
f 1 7 14
f 1 14 13
f 1 13 23
f 1 23 22
f 1 22 25
f 1 25 24
f 1 24 15
f 1 15 8
f 1 8 3
f 1 3 4
f 1 4 5
f 1 5 10
f 1 10 9
f 1 9 20
f 1 20 11
f 1 11 6
f 1 6 2
f 2 6 7
f 3 8 4
f 4 9 10
f 4 10 5
f 4 8 9
f 6 11 19
f 6 19 18
f 6 18 17
f 6 17 16
f 6 16 21
f 6 21 12
f 6 12 13
f 6 13 14
f 6 14 7
f 8 15 21
f 8 21 16
f 8 16 17
f 8 17 18
f 8 18 9
f 9 19 20
f 9 18 19
f 11 20 19
f 12 21 25
f 12 25 22
f 12 22 23
f 12 23 13
f 15 24 21
f 21 24 25

