# https://github.com/mikedh/trimesh
v -3.69792574 1.93961607 1.42765704
v -3.69792574 1.93961607 1.47610264
v -3.69792574 1.93958831 1.42765704
v -3.69794268 1.65607702 1.42761565
v -3.72183476 1.88957487 1.39992534
v -3.72190239 1.90622751 1.40001638
v -3.72214770 1.93961607 1.40037223
v -3.74779049 1.93961607 1.47605299
v -3.69792574 1.93958831 1.47610264
v -3.69792574 1.88957487 1.42766530
v -3.69794268 1.65607702 1.47608609
v -3.72200390 1.65607702 1.40023154
v -3.72191086 1.80617287 1.39999983
v -3.69792574 1.87289447 1.42768185
v -3.69792574 1.79729146 1.42788874
v -3.73113785 1.80617287 1.39554752
v -3.73113785 1.87289447 1.39567166
v -3.73113785 1.88957487 1.39571305
v -3.73113785 1.90622751 1.39586201
v -3.73113785 1.93961607 1.39638336
v -3.76445994 1.93961607 1.47597853
v -3.74779049 1.93958831 1.47605299
v -3.69792574 1.79729146 1.47594543
v -3.71445146 1.65607702 1.47601163
v -3.76445994 1.93958831 1.47597853
v -3.73110404 1.65607702 1.39582061
v -3.72202084 1.65610478 1.40021499
v -3.73112944 1.67281293 1.39577925
v -3.74776508 1.65607702 1.39197244
v -3.74779049 1.75618718 1.39183177
v -3.74779049 1.78952022 1.39184829
v -3.74779049 1.79729146 1.39188142
v -3.74779049 1.80617287 1.39192279
v -3.74779049 1.93961607 1.39258483
v -3.77778035 1.93961607 1.47184896
v -3.74779049 1.65607702 1.47585439
v -3.77778035 1.93958831 1.47184896
v -3.77758580 1.65610478 1.47165036
v -3.76446841 1.65607702 1.47567233
v -3.73112944 1.65610478 1.39581235
v -3.76444306 1.65607702 1.39181519
v -3.76446841 1.67281293 1.39173244
v -3.76446841 1.73950678 1.39158349
v -3.76446841 1.75618718 1.39156694
v -3.76446841 1.78952022 1.39157523
v -3.76445994 1.79729146 1.39158349
v -3.75553742 1.79726370 1.39173244
v -3.76445994 1.88957487 1.39186487
v -3.76445994 1.93961607 1.39212968
v -3.78352292 1.93961607 1.45943552
v -3.78352292 1.93958831 1.45943552
v -3.78325227 1.65610478 1.45943552
v -3.77759427 1.65607702 1.47163381
v -3.77788180 1.65607702 1.39651576
v -3.76446841 1.65610478 1.39181519
v -3.77794103 1.67281293 1.39637510
v -3.77792409 1.68949333 1.39635026
v -3.77783111 1.73950678 1.39630887
v -3.77783111 1.77283982 1.39630887
v -3.77786492 1.85621407 1.39633371
v -3.76446841 1.79726370 1.39158349
v -3.77786492 1.87289447 1.39635026
v -3.76445994 1.80617287 1.39160833
v -3.77789874 1.88957487 1.39638336
v -3.77791568 1.93961607 1.39663991
v -3.78430941 1.93961607 1.44276007
v -3.78430941 1.93958831 1.44276007
v -3.78419102 1.65610478 1.44275181
v -3.78326074 1.65607702 1.45941068
v -3.78359902 1.65607702 1.40940095
v -3.77789874 1.65610478 1.39652405
v -3.78360749 1.65610478 1.40941750
v -3.78366665 1.93958831 1.40942579
v -3.78366665 1.93961607 1.40942579
v -3.78432635 1.93961607 1.42609294
v -3.78432635 1.93958831 1.42609294
v -3.78422484 1.65610478 1.42610120
v -3.78419102 1.65607702 1.44272697
v -3.78422484 1.65607702 1.42607639
f 1 2 9
f 1 9 23
f 1 23 15
f 1 15 14
f 1 14 10
f 1 10 3
f 1 3 4
f 1 4 5
f 1 5 6
f 1 6 7
f 1 7 20
f 1 20 34
f 1 34 49
f 1 49 65
f 1 65 74
f 1 74 75
f 1 75 66
f 1 66 50
f 1 50 35
f 1 35 21
f 1 21 8
f 1 8 2
f 2 8 22
f 2 22 9
f 3 10 4
f 4 11 24
f 4 24 36
f 4 36 39
f 4 39 53
f 4 53 69
f 4 69 78
f 4 78 79
f 4 79 70
f 4 70 54
f 4 54 41
f 4 41 29
f 4 29 26
f 4 26 12
f 4 12 13
f 4 13 5
f 4 10 14
f 4 14 15
f 4 15 23
f 4 23 11
f 5 13 16
f 5 16 17
f 5 17 18
f 5 18 6
f 6 18 19
f 6 19 7
f 7 19 20
f 8 21 25
f 8 25 22
f 9 22 11
f 9 11 23
f 11 22 25
f 11 25 24
f 12 26 27
f 12 27 13
f 13 27 26
f 13 26 28
f 13 28 16
f 16 28 29
f 16 29 30
f 16 30 31
f 16 31 17
f 17 31 18
f 18 31 32
f 18 32 33
f 18 33 34
f 18 34 19
f 19 34 20
f 21 35 37
f 21 37 25
f 24 25 36
f 25 37 38
f 25 38 39
f 25 39 36
f 26 29 40
f 26 40 28
f 28 40 29
f 29 41 42
f 29 42 43
f 29 43 30
f 30 43 44
f 30 44 45
f 30 45 31
f 31 45 46
f 31 46 47
f 31 47 48
f 31 48 32
f 32 48 33
f 33 48 34
f 34 48 49
f 35 50 51
f 35 51 37
f 37 51 52
f 37 52 53
f 37 53 38
f 38 53 39
f 41 54 55
f 41 55 42
f 42 55 56
f 42 56 43
f 43 56 57
f 43 57 44
f 44 57 58
f 44 58 59
f 44 59 60
f 44 60 45
f 45 61 46
f 45 60 62
f 45 62 61
f 46 63 47
f 46 61 63
f 47 63 48
f 48 63 61
f 48 61 64
f 48 64 65
f 48 65 49
f 50 66 67
f 50 67 51
f 51 67 68
f 51 68 69
f 51 69 52
f 52 69 53
f 54 70 71
f 54 71 56
f 54 56 55
f 56 71 72
f 56 72 73
f 56 73 74
f 56 74 64
f 56 64 57
f 57 59 58
f 57 64 60
f 57 60 59
f 60 64 62
f 61 62 64
f 64 74 65
f 66 75 76
f 66 76 67
f 67 76 77
f 67 77 68
f 68 77 79
f 68 79 78
f 68 78 69
f 70 79 72
f 70 72 71
f 72 79 76
f 72 76 73
f 73 76 75
f 73 75 74
f 76 79 77

