# https://github.com/mikedh/trimesh
v -1.84599984 -0.21035097 0.20802469
v -1.91054345 -0.21037600 0.20802469
v -1.91054345 -0.21035097 0.20821478
v -1.84529638 -0.21035097 0.20821478
v -1.84526324 -0.21037600 0.20802469
v -1.91026473 -0.46618536 0.20802469
v -1.91074253 -0.21035097 0.24153870
v -1.84321264 -0.21035097 0.39153695
v -1.84602636 -0.46618536 0.22489033
v -1.84623874 -0.46611023 0.20802469
v -1.91080225 -0.21035097 0.25821419
v -1.84825613 -0.46618536 0.20802469
v -1.91033107 -0.46618536 0.25821419
v -1.84302679 -0.21035097 0.40818532
v -1.84302679 -0.21037600 0.40818532
v -1.84585381 -0.46618536 0.24153870
v -1.84618563 -0.46618536 0.21402681
v -1.84627194 -0.46618536 0.20821478
v -1.91034437 -0.46618536 0.26907777
v -1.91080893 -0.21037600 0.27488974
v -1.91080893 -0.21035097 0.27488974
v -1.84302679 -0.21035097 0.42486087
v -1.84302679 -0.21037600 0.42486087
v -1.84509730 -0.46618536 0.48547936
v -1.84511059 -0.46618536 0.47486029
v -1.84513711 -0.46618536 0.45818474
v -1.84517693 -0.46618536 0.44153637
v -1.84570122 -0.46618536 0.27488974
v -1.84576094 -0.46618536 0.25821419
v -1.84582067 -0.46618536 0.24737786
v -1.91035098 -0.46618536 0.28572614
v -1.91035098 -0.46618536 0.29156530
v -1.91034437 -0.46618536 0.30821367
v -1.91079564 -0.21037600 0.29156530
v -1.91079564 -0.21035097 0.29156530
v -1.84311972 -0.21035097 0.48547936
v -1.84311972 -0.21037600 0.48547936
v -1.91008556 -0.46618536 0.48547936
v -1.91076244 -0.21035097 0.32488916
v -1.91078234 -0.21035097 0.30821367
v -1.91044391 -0.21035097 0.48547936
v -1.91044391 -0.21037600 0.48547936
f 1 2 3
f 1 3 7
f 1 7 11
f 1 11 21
f 1 21 35
f 1 35 40
f 1 40 39
f 1 39 41
f 1 41 36
f 1 36 22
f 1 22 14
f 1 14 8
f 1 8 4
f 1 4 5
f 1 5 10
f 1 10 12
f 1 12 6
f 1 6 2
f 2 6 7
f 2 7 3
f 4 8 5
f 5 9 10
f 5 8 9
f 6 11 7
f 6 12 18
f 6 18 17
f 6 17 9
f 6 9 16
f 6 16 30
f 6 30 29
f 6 29 28
f 6 28 27
f 6 27 26
f 6 26 25
f 6 25 24
f 6 24 38
f 6 38 33
f 6 33 32
f 6 32 31
f 6 31 19
f 6 19 13
f 6 13 11
f 8 14 15
f 8 15 9
f 9 17 10
f 9 15 16
f 10 17 18
f 10 18 12
f 11 13 19
f 11 19 20
f 11 20 21
f 14 22 23
f 14 23 15
f 15 23 24
f 15 24 25
f 15 25 26
f 15 26 27
f 15 27 28
f 15 28 29
f 15 29 30
f 15 30 16
f 19 31 20
f 20 31 32
f 20 32 33
f 20 33 34
f 20 34 35
f 20 35 21
f 22 36 37
f 22 37 23
f 23 37 24
f 24 37 36
f 24 36 41
f 24 41 42
f 24 42 38
f 33 39 40
f 33 40 34
f 33 38 39
f 34 40 35
f 38 42 39
f 39 42 41

