# https://github.com/mikedh/trimesh
v -3.48224552 -0.72438238 1.89377135
v -3.47202020 -0.72438238 1.89486498
v -3.48357465 -0.72438238 1.89377135
v -3.48504240 -0.71028482 1.89445615
v -3.47706762 -0.71028482 1.89592124
v -3.47670886 -0.71028482 1.89600296
v -3.46579859 -0.72438238 1.90212554
v -3.49887186 -0.72438238 1.89378834
v -3.49520245 -0.71028482 1.89445615
v -3.47171851 -0.71028482 1.90433677
v -3.45010182 -0.72438238 1.92857496
v -3.50234553 -0.72438238 1.89504559
v -3.50523208 -0.72135614 1.89653452
v -3.50353602 -0.71028482 1.89755323
v -3.46436344 -0.71028482 1.92857496
v -3.53339658 -0.72438238 1.92857496
v -3.51422614 -0.72438238 1.90170992
v -3.51567758 -0.72438238 1.90280361
v -3.51049969 -0.71028482 1.90588704
v -3.51796886 -0.71028482 1.92857496
f 1 2 7
f 1 7 11
f 1 11 16
f 1 16 18
f 1 18 17
f 1 17 12
f 1 12 8
f 1 8 3
f 1 3 9
f 1 9 4
f 1 4 2
f 2 5 6
f 2 6 7
f 2 4 5
f 3 8 9
f 4 9 14
f 4 14 19
f 4 19 20
f 4 20 15
f 4 15 10
f 4 10 6
f 4 6 5
f 6 10 7
f 7 10 11
f 8 12 9
f 9 12 13
f 9 13 14
f 10 15 11
f 11 15 20
f 11 20 16
f 12 17 13
f 13 17 14
f 14 17 18
f 14 18 19
f 16 20 19
f 16 19 18

