# https://github.com/mikedh/trimesh
v -3.78293943 -0.17767486 1.13229331
v -3.73291923 -0.16208052 1.13852564
v -3.71624583 -0.17767486 1.13232779
v -3.78293943 -0.19434134 1.13269844
v -3.79958208 -0.19434134 1.13270707
v -3.79958208 -0.17767486 1.13231055
v -3.84766422 -0.16203250 1.13868942
v -3.84766422 -0.15551954 1.15183507
v -3.84766422 -0.15467941 1.15354185
v -3.53342292 -0.16212051 1.13867219
v -3.53342292 -0.17767486 1.13279328
v -3.76626603 -0.21099981 1.13689643
v -3.78293943 -0.21099981 1.13685334
v -3.71624583 -0.19434134 1.13296568
v -3.84766422 -0.21099981 1.13697402
v -3.84766422 -0.19434134 1.13285361
v -3.84766422 -0.17958714 1.13248294
v -3.84766422 -0.17767486 1.13243985
v -3.84766422 -0.15475943 1.16829945
v -3.53342292 -0.15492746 1.15403319
v -3.53342292 -0.15492746 1.15354185
v -3.53342292 -0.19386125 1.13379321
v -3.69960319 -0.19434134 1.13303463
v -3.76626603 -0.22058524 1.14301672
v -3.53342292 -0.19434134 1.13382769
v -3.53342292 -0.21099981 1.13893079
v -3.53342292 -0.21961710 1.14427525
v -3.78293943 -0.22060124 1.14299085
v -3.84766422 -0.22056923 1.14307705
v -3.84766422 -0.21209598 1.13767225
v -3.84766422 -0.15477543 1.17021312
v -3.53342292 -0.15507948 1.17021312
v -3.53342292 -0.21987314 1.14443903
v -3.53342292 -0.23641159 1.16271363
v -3.78293943 -0.23641159 1.16281706
v -3.79958208 -0.23641159 1.16283430
v -3.81382520 -0.23641159 1.16286878
v -3.84766422 -0.23641159 1.16296362
v -3.84766422 -0.15504747 1.18495348
v -3.53342292 -0.15535950 1.18686713
v -3.53342292 -0.15508747 1.17069583
v -3.53342292 -0.23641159 1.21980452
v -3.84766422 -0.23641159 1.22032173
v -3.84766422 -0.15508747 1.18686713
v -3.53342292 -0.15755184 1.20353840
v -3.84766422 -0.15677572 1.20162473
v -3.84766422 -0.15699978 1.20353840
v -3.66628715 -0.23641159 1.22008898
v -3.53342292 -0.22766630 1.21976142
v -3.71624583 -0.22766630 1.22016658
v -3.84766422 -0.22766630 1.22030449
v -3.84166544 -0.23641159 1.22033897
v -3.53342292 -0.16447289 1.21502899
v -3.84766422 -0.16404081 1.21545999
v -3.83292882 -0.16407282 1.21545999
v -3.68296055 -0.23641159 1.22012347
v -3.53342292 -0.21148789 1.21958902
v -3.78293943 -0.21099981 1.22016658
v -3.79958208 -0.22766630 1.22032173
v -3.74168661 -0.23641159 1.22023552
v -3.83292882 -0.22766630 1.22033034
v -3.84766422 -0.21099981 1.22016658
v -3.82499204 -0.23641159 1.22035621
v -3.53342292 -0.17767486 1.21862358
v -3.76626603 -0.16422484 1.21545999
v -3.76626603 -0.17767486 1.21942524
v -3.84766422 -0.17611460 1.21898562
v -3.78293943 -0.17767486 1.21943385
v -3.53342292 -0.21099981 1.21958040
v -3.78293943 -0.19434134 1.21995107
v -3.79958208 -0.21099981 1.22019243
v -3.81625542 -0.22766630 1.22033897
v -3.79958208 -0.23641159 1.22033034
v -3.81625542 -0.21099981 1.22019243
v -3.84766422 -0.19434134 1.21994245
v -3.81625542 -0.23641159 1.22034760
v -3.53342292 -0.19434134 1.21927008
v -3.79958208 -0.19434134 1.21996830
v -3.84766422 -0.17767486 1.21943385
v -3.81625542 -0.19434134 1.21995969
f 1 2 3
f 1 3 4
f 1 4 5
f 1 5 6
f 1 6 2
f 2 6 7
f 2 7 8
f 2 8 9
f 2 9 10
f 2 10 3
f 3 10 11
f 3 11 4
f 4 12 13
f 4 13 5
f 4 11 14
f 4 14 12
f 5 15 16
f 5 16 17
f 5 17 6
f 5 13 15
f 6 17 18
f 6 18 7
f 7 18 17
f 7 17 16
f 7 16 15
f 7 15 30
f 7 30 29
f 7 29 38
f 7 38 43
f 7 43 51
f 7 51 62
f 7 62 75
f 7 75 79
f 7 79 67
f 7 67 54
f 7 54 47
f 7 47 46
f 7 46 44
f 7 44 39
f 7 39 31
f 7 31 19
f 7 19 9
f 7 9 8
f 9 19 20
f 9 20 21
f 9 21 10
f 10 21 20
f 10 20 32
f 10 32 41
f 10 41 40
f 10 40 45
f 10 45 53
f 10 53 64
f 10 64 77
f 10 77 69
f 10 69 57
f 10 57 49
f 10 49 42
f 10 42 34
f 10 34 33
f 10 33 27
f 10 27 26
f 10 26 25
f 10 25 22
f 10 22 11
f 11 22 23
f 11 23 14
f 12 24 13
f 12 14 23
f 12 23 25
f 12 25 26
f 12 26 27
f 12 27 24
f 13 28 29
f 13 29 30
f 13 30 15
f 13 24 28
f 19 31 20
f 20 31 32
f 22 25 23
f 24 27 33
f 24 33 34
f 24 34 28
f 28 35 36
f 28 36 29
f 28 34 35
f 29 36 37
f 29 37 38
f 31 39 40
f 31 40 41
f 31 41 32
f 34 42 48
f 34 48 56
f 34 56 60
f 34 60 73
f 34 73 76
f 34 76 63
f 34 63 52
f 34 52 43
f 34 43 38
f 34 38 37
f 34 37 36
f 34 36 35
f 39 44 40
f 40 44 46
f 40 46 47
f 40 47 45
f 42 49 50
f 42 50 48
f 43 52 51
f 45 47 54
f 45 54 55
f 45 55 53
f 48 50 56
f 49 57 58
f 49 58 50
f 50 58 59
f 50 59 60
f 50 60 56
f 51 52 61
f 51 61 62
f 52 63 61
f 53 55 65
f 53 65 66
f 53 66 64
f 54 67 68
f 54 68 66
f 54 66 55
f 55 66 65
f 57 69 70
f 57 70 58
f 58 70 71
f 58 71 59
f 59 71 72
f 59 72 76
f 59 76 73
f 59 73 60
f 61 63 72
f 61 72 74
f 61 74 62
f 62 74 75
f 63 76 72
f 64 66 77
f 66 68 78
f 66 78 70
f 66 70 77
f 67 79 68
f 68 79 78
f 69 77 70
f 70 78 71
f 71 78 74
f 71 74 72
f 74 78 80
f 74 80 75
f 75 80 79
f 78 79 80

