# https://github.com/mikedh/trimesh
v -2.04675671 1.97280109 0.18918407
v -2.03531303 1.97280109 0.18646503
v -2.04686562 1.97280109 0.18916529
v -2.05801658 1.79821201 0.18481851
v -2.04675671 1.79821201 0.18601342
v -2.03637500 1.79821201 0.18484678
v -2.03011881 1.97280109 0.17531597
v -2.03076550 1.79821201 0.17531597
v -2.05849991 1.97280109 0.18630507
v -2.06199901 1.79821201 0.18246643
v -2.09674527 1.97280109 0.16473143
v -2.02720509 1.88957392 0.15863471
v -2.02726640 1.90625353 0.15863471
v -2.02770888 1.97280109 0.15863471
v -2.02895467 1.79821201 0.16662254
v -2.02730040 1.79821201 0.15863471
v -2.09674527 1.79824618 0.16191827
v -2.09674527 1.79821201 0.16166425
v -2.09674527 1.97280109 0.11826290
v -2.02765443 1.88957392 0.12529104
v -2.02747741 1.90625353 0.14196287
v -2.02770208 1.97280109 0.14196287
v -2.02770888 1.79821201 0.12529104
v -2.02766123 1.87291139 0.12529104
v -2.02770208 1.97280109 0.14212283
v -2.09674527 1.79821201 0.12147119
v -2.07451832 1.97280109 0.09823218
v -2.07353799 1.79821201 0.09894728
v -2.02930870 1.97280109 0.10877910
v -2.02781779 1.93959567 0.12529104
v -2.02805605 1.97280109 0.12546036
v -2.02887302 1.79821201 0.11659760
v -2.02932910 1.97280109 0.10861920
v -2.06342867 1.97280109 0.09460993
v -2.06342867 1.79821201 0.09684916
v -2.02806291 1.97280109 0.12529104
v -2.02998945 1.79821201 0.10861920
v -2.02987374 1.82287255 0.10861920
v -2.03443487 1.97280109 0.09680210
v -2.04675671 1.97280109 0.09306695
v -2.04675671 1.79821201 0.09582363
v -2.03275334 1.79821201 0.10303057
v -2.03448252 1.97280109 0.09669862
v -2.04664095 1.97280109 0.09309516
v -2.03529263 1.79821201 0.09793111
f 1 2 7
f 1 7 14
f 1 14 25
f 1 25 22
f 1 22 31
f 1 31 36
f 1 36 29
f 1 29 33
f 1 33 39
f 1 39 43
f 1 43 44
f 1 44 40
f 1 40 34
f 1 34 27
f 1 27 19
f 1 19 11
f 1 11 9
f 1 9 3
f 1 3 4
f 1 4 5
f 1 5 6
f 1 6 2
f 2 6 8
f 2 8 7
f 3 9 4
f 4 10 18
f 4 18 26
f 4 26 28
f 4 28 35
f 4 35 41
f 4 41 45
f 4 45 42
f 4 42 37
f 4 37 32
f 4 32 23
f 4 23 16
f 4 16 15
f 4 15 8
f 4 8 6
f 4 6 5
f 4 9 11
f 4 11 10
f 7 12 13
f 7 13 14
f 7 8 15
f 7 15 16
f 7 16 12
f 10 17 18
f 10 11 17
f 11 19 26
f 11 26 18
f 11 18 17
f 12 20 21
f 12 21 22
f 12 22 13
f 12 16 23
f 12 23 24
f 12 24 20
f 13 22 25
f 13 25 14
f 19 27 28
f 19 28 26
f 20 29 30
f 20 30 21
f 20 24 29
f 21 30 22
f 22 30 31
f 23 32 33
f 23 33 29
f 23 29 24
f 27 34 28
f 28 34 35
f 29 36 30
f 30 36 31
f 32 37 38
f 32 38 33
f 33 38 39
f 34 40 35
f 35 40 41
f 37 42 43
f 37 43 39
f 37 39 38
f 40 44 45
f 40 45 41
f 42 45 43
f 43 45 44

