# https://github.com/mikedh/trimesh
v -1.78680460 -0.71053089 0.83792867
v -1.78680460 -0.71053089 0.75974712
v -1.78214241 -0.71053089 0.83793667
v -1.78680460 -0.59366497 0.83887292
v -1.78680460 -0.67700179 0.75961908
v -1.78197289 -0.67700179 0.75961108
v -1.68194777 -0.71053089 0.75957907
v -1.73196030 -0.61034854 0.83882491
v -1.73196030 -0.59366497 0.83896096
v -0.93226829 -0.71053089 0.83890493
v -1.26531789 -0.51032816 0.84023330
v -1.78680460 -0.58180021 0.83896096
v -1.78680460 -0.67218300 0.75960307
v -1.78680460 -0.66031824 0.75957107
v -1.66524867 -0.71053089 0.75956306
v -1.26531789 -0.49372559 0.84036934
v -0.93209874 -0.71053089 0.83890493
v -1.01542473 -0.49372559 0.84053740
v -1.78680460 -0.57702191 0.83899297
v -1.78680460 -0.63885636 0.75957107
v -1.68194777 -0.66031824 0.75953106
v -1.63193524 -0.67700179 0.75951505
v -1.64863434 -0.71053089 0.75955506
v -1.26531789 -0.47704202 0.84045738
v -1.78680460 -0.51514696 0.83934505
v -1.78680460 -0.56033835 0.83909699
v -0.93209874 -0.64367517 0.83940108
v -0.92082472 -0.71053089 0.83889694
v -0.92082472 -0.64914187 0.83935307
v -0.92082472 -0.64367517 0.83939307
v -0.92082472 -0.63249881 0.83947310
v -0.92082472 -0.49372559 0.84046536
v -0.99872561 -0.47704202 0.84060941
v -1.01542473 -0.47704202 0.84061742
v -1.03203907 -0.47704202 0.84060941
v -1.26531789 -0.39374570 0.84087348
v -1.78680460 -0.39374570 0.75965109
v -1.63176572 -0.71053089 0.75955506
v -1.68194777 -0.29684337 0.75966710
v -1.66219707 -0.29684337 0.75966710
v -1.64863434 -0.29684337 0.75967509
v -0.92082472 -0.54369528 0.76013122
v -1.34864389 -0.66031824 0.75974712
v -1.33202955 -0.67700179 0.75976313
v -1.34847434 -0.71053089 0.75975511
v -1.78680460 -0.51032816 0.83936907
v -0.92082472 -0.71053089 0.76024325
v -0.92082472 -0.48254922 0.84052139
v -0.96541217 -0.39374570 0.84094550
v -1.01542473 -0.39374570 0.84096950
v -1.19869103 -0.37706214 0.84098551
v -1.24870356 -0.37706214 0.84096150
v -1.26531789 -0.37706214 0.84095350
v -1.78680460 -0.37706214 0.75966710
v -1.78680460 -0.29684337 0.75975511
v -0.92082472 -0.29684337 0.76035529
v -0.92082472 -0.56033835 0.76013122
v -1.33186000 -0.71053089 0.75977112
v -1.66524867 -0.29684337 0.84038534
v -1.78680460 -0.49850389 0.83940907
v -1.28201699 -0.37706214 0.84092149
v -1.28201699 -0.36041907 0.84098551
v -0.92082472 -0.47704202 0.84054538
v -0.93209874 -0.39374570 0.84091349
v -0.96541217 -0.37706214 0.84100151
v -1.01542473 -0.37706214 0.84102553
v -1.19869103 -0.32709244 0.84116957
v -1.19869103 -0.34373551 0.84111354
v -1.18199193 -0.36041907 0.84105754
v -1.24870356 -0.36041907 0.84102553
v -1.26531789 -0.36041907 0.84101751
v -1.78680460 -0.29684337 0.83991321
v -0.92082472 -0.29684337 0.84106553
v -1.66838510 -0.29684337 0.84037734
v -1.78680460 -0.49372559 0.83942507
v -1.28201699 -0.29684337 0.84120958
v -0.92082472 -0.39374570 0.84088948
v -0.93209874 -0.37706214 0.84096950
v -0.92082472 -0.37706214 0.84095350
v -0.93209874 -0.36041907 0.84100151
v -1.08518799 -0.29684337 0.84124959
v -1.09875070 -0.29684337 0.84125759
v -1.11536503 -0.29684337 0.84126559
v -1.11536503 -0.32709244 0.84117757
v -1.26845426 -0.29684337 0.84122558
v -1.21539012 -0.32709244 0.84116157
v -1.21539012 -0.34373551 0.84110555
v -1.26531789 -0.34373551 0.84107354
v -1.78502449 -0.29684337 0.83992123
v -0.92294390 -0.29684337 0.84107354
v -0.92082472 -0.29923252 0.84106553
v -1.68508419 -0.29684337 0.84032133
v -1.71526120 -0.29684337 0.84021730
v -1.73196030 -0.29684337 0.84015328
v -1.76527373 -0.29684337 0.84000923
v -0.92082472 -0.34924271 0.84100151
v -0.92082472 -0.34373551 0.84100953
v -0.93209874 -0.34373551 0.84102553
v -0.92082472 -0.33255914 0.84102553
f 1 2 7
f 1 7 15
f 1 15 23
f 1 23 38
f 1 38 45
f 1 45 58
f 1 58 47
f 1 47 28
f 1 28 17
f 1 17 10
f 1 10 3
f 1 3 4
f 1 4 12
f 1 12 19
f 1 19 26
f 1 26 25
f 1 25 46
f 1 46 60
f 1 60 75
f 1 75 72
f 1 72 55
f 1 55 54
f 1 54 37
f 1 37 20
f 1 20 14
f 1 14 13
f 1 13 5
f 1 5 2
f 2 5 6
f 2 6 7
f 3 8 9
f 3 9 4
f 3 10 11
f 3 11 8
f 4 9 12
f 5 13 6
f 6 13 7
f 7 13 14
f 7 14 15
f 8 11 16
f 8 16 9
f 9 16 12
f 10 17 18
f 10 18 16
f 10 16 11
f 12 16 19
f 14 20 21
f 14 21 22
f 14 22 23
f 14 23 15
f 16 18 24
f 16 24 25
f 16 25 26
f 16 26 19
f 17 27 18
f 17 28 29
f 17 29 27
f 18 27 30
f 18 30 31
f 18 31 32
f 18 32 33
f 18 33 34
f 18 34 35
f 18 35 36
f 18 36 24
f 20 37 21
f 21 37 22
f 22 38 23
f 22 37 39
f 22 39 40
f 22 40 41
f 22 41 42
f 22 42 43
f 22 43 44
f 22 44 45
f 22 45 38
f 24 36 25
f 25 36 46
f 27 29 30
f 28 47 57
f 28 57 42
f 28 42 56
f 28 56 73
f 28 73 91
f 28 91 99
f 28 99 97
f 28 97 96
f 28 96 79
f 28 79 77
f 28 77 63
f 28 63 48
f 28 48 32
f 28 32 31
f 28 31 30
f 28 30 29
f 32 48 33
f 33 49 50
f 33 50 34
f 33 48 49
f 34 50 51
f 34 51 52
f 34 52 53
f 34 53 35
f 35 53 36
f 36 53 46
f 37 54 39
f 39 54 55
f 39 55 72
f 39 72 89
f 39 89 95
f 39 95 94
f 39 94 93
f 39 93 92
f 39 92 74
f 39 74 59
f 39 59 76
f 39 76 85
f 39 85 83
f 39 83 82
f 39 82 81
f 39 81 90
f 39 90 73
f 39 73 56
f 39 56 41
f 39 41 40
f 41 56 42
f 42 57 43
f 43 57 44
f 44 57 45
f 45 57 58
f 46 59 60
f 46 53 61
f 46 61 62
f 46 62 59
f 47 58 57
f 48 63 49
f 49 63 64
f 49 64 78
f 49 78 65
f 49 65 66
f 49 66 50
f 50 66 67
f 50 67 68
f 50 68 69
f 50 69 51
f 51 70 52
f 51 69 70
f 52 70 71
f 52 71 53
f 53 71 62
f 53 62 61
f 59 74 75
f 59 75 60
f 59 62 76
f 62 71 76
f 63 77 64
f 64 77 79
f 64 79 78
f 65 78 80
f 65 80 81
f 65 81 82
f 65 82 83
f 65 83 66
f 66 83 84
f 66 84 67
f 67 84 83
f 67 83 85
f 67 85 86
f 67 86 87
f 67 87 68
f 68 87 69
f 69 87 70
f 70 87 71
f 71 88 76
f 71 87 86
f 71 86 88
f 72 75 89
f 73 90 91
f 74 92 75
f 75 92 93
f 75 93 94
f 75 94 95
f 75 95 89
f 76 88 85
f 78 79 80
f 79 96 80
f 80 96 97
f 80 97 98
f 80 98 81
f 81 98 90
f 85 88 86
f 90 98 99
f 90 99 91
f 97 99 98

