# https://github.com/mikedh/trimesh
v -3.94154651 -0.70949337 1.23719483
v -3.92600412 -0.70955760 1.23719483
v -3.96765880 -0.70949337 1.23719483
v -3.92728909 -0.70949337 1.25230706
v -3.90236491 -0.73282160 1.23719483
v -3.92738589 -0.70949337 1.30355035
v -3.92777314 -0.70949337 1.43709110
v -3.92778190 -0.70949337 1.43900728
v -3.98497016 -0.74434807 1.23719483
v -3.98580624 -0.74434807 1.35352937
v -3.98580624 -0.74434807 1.37020220
v -3.96740357 -0.70949337 1.43900728
v -3.90236491 -0.78774668 1.23719483
v -3.90236491 -0.73708897 1.43900728
v -3.99085795 -0.75636092 1.23719483
v -3.99097233 -0.75660869 1.23719483
v -3.99093717 -0.75703085 1.43900728
v -3.99021547 -0.75542485 1.43900728
v -3.98519898 -0.74434807 1.43900728
v -3.94960817 -0.80142057 1.23719483
v -3.90236491 -0.78721440 1.43900728
v -3.94783038 -0.80192534 1.43900728
v -3.94786555 -0.80193449 1.43687378
v -3.94811196 -0.80196202 1.42020094
v -3.99158841 -0.76494152 1.23719483
v -3.99157077 -0.76536367 1.43900728
v -3.96775560 -0.80244843 1.23719483
v -3.94960817 -0.80148482 1.25355161
v -3.95644642 -0.80281551 1.42020094
v -3.95696570 -0.80276961 1.40352811
v -3.94889529 -0.80205378 1.43900728
v -3.95616479 -0.80285220 1.43900728
v -3.95620002 -0.80285220 1.43687378
v -3.99222213 -0.77767019 1.23719483
v -3.99226612 -0.77767019 1.43687378
v -3.99217802 -0.77608255 1.43900728
v -3.97464667 -0.80267785 1.30797538
v -3.97976883 -0.79826364 1.23719483
v -3.96626822 -0.80316423 1.42020094
v -3.96626822 -0.80323766 1.43900728
v -3.99190527 -0.78826059 1.23719483
v -3.99196690 -0.78898557 1.42020094
v -3.99195808 -0.78902229 1.43900728
v -3.99225730 -0.77767019 1.43900728
v -3.98144100 -0.79765797 1.23719483
v -3.97617804 -0.80298070 1.40352811
v -3.97527157 -0.80308165 1.43900728
v -3.97644209 -0.80302657 1.42020094
v -3.99172920 -0.78842579 1.23719483
v -3.98476774 -0.79731840 1.42020094
v -3.98492617 -0.79735511 1.43687378
v -3.98493493 -0.79735511 1.43900728
v -3.99195808 -0.78902229 1.43687378
v -3.97660046 -0.80305411 1.43900728
v -3.97659170 -0.80305411 1.43687378
f 1 2 5
f 1 5 13
f 1 13 20
f 1 20 27
f 1 27 38
f 1 38 45
f 1 45 49
f 1 49 41
f 1 41 34
f 1 34 25
f 1 25 16
f 1 16 15
f 1 15 9
f 1 9 3
f 1 3 12
f 1 12 8
f 1 8 7
f 1 7 6
f 1 6 4
f 1 4 2
f 2 4 6
f 2 6 7
f 2 7 8
f 2 8 5
f 3 9 10
f 3 10 11
f 3 11 12
f 5 8 14
f 5 14 21
f 5 21 13
f 8 12 19
f 8 19 18
f 8 18 17
f 8 17 26
f 8 26 36
f 8 36 44
f 8 44 43
f 8 43 52
f 8 52 54
f 8 54 47
f 8 47 40
f 8 40 32
f 8 32 31
f 8 31 22
f 8 22 21
f 8 21 14
f 9 15 10
f 10 15 16
f 10 16 11
f 11 16 17
f 11 17 18
f 11 18 19
f 11 19 12
f 13 21 22
f 13 22 23
f 13 23 24
f 13 24 20
f 16 25 26
f 16 26 17
f 20 24 28
f 20 28 29
f 20 29 30
f 20 30 27
f 22 31 23
f 23 31 24
f 24 31 32
f 24 32 33
f 24 33 29
f 24 29 28
f 25 34 35
f 25 35 36
f 25 36 26
f 27 37 38
f 27 30 39
f 27 39 40
f 27 40 37
f 29 33 40
f 29 40 30
f 30 40 39
f 32 40 33
f 34 41 42
f 34 42 35
f 35 42 43
f 35 43 44
f 35 44 36
f 37 45 38
f 37 40 46
f 37 46 45
f 40 47 48
f 40 48 46
f 41 49 50
f 41 50 51
f 41 51 52
f 41 52 42
f 42 52 53
f 42 53 43
f 43 53 52
f 45 46 48
f 45 48 50
f 45 50 49
f 47 54 55
f 47 55 48
f 48 51 50
f 48 55 51
f 51 55 54
f 51 54 52

