# https://github.com/mikedh/trimesh
v -1.87892041 1.94004500 0.90330496
v -1.91042737 1.94004500 0.87893890
v -1.87892041 1.94004500 0.95201326
v -1.87892041 1.64658768 0.90182726
v -1.90290302 1.78952460 0.88289529
v -1.91227023 1.92292474 0.87777103
v -1.92856722 1.94004500 0.87121675
v -1.91190504 1.78952460 0.87655551
v -1.92856722 1.94004500 0.95182259
v -1.91189651 1.83953529 0.95199738
v -1.89521740 1.83953528 0.95206092
v -1.87892041 1.85622467 0.95206887
v -1.87892041 1.64658768 0.95211654
v -1.91114074 1.64658768 0.87734203
v -1.92856722 1.85622467 0.87110551
v -1.92899181 1.94004500 0.87120880
v -1.91727222 1.64658768 0.87487127
v -1.92855869 1.70616388 0.87113730
v -1.92855869 1.73951392 0.87112141
v -1.92855869 1.82284591 0.87108964
v -1.92855869 1.83769688 0.87108964
v -1.94523786 1.94004500 0.95165575
v -1.92856722 1.83953529 0.95188614
v -1.94523786 1.64658768 0.95180670
v -1.91190504 1.78952460 0.95200532
v -1.89522587 1.80615653 0.95206887
v -1.88070380 1.83772559 0.95207682
v -1.87892041 1.80615653 0.95209271
v -1.89522587 1.78952460 0.95206887
v -1.92856722 1.83953529 0.87108964
v -1.94523786 1.85622467 0.87097840
v -1.94523786 1.87288533 0.87100225
v -1.94523786 1.94004500 0.87115320
v -1.92855869 1.64658768 0.87125647
v -1.92855869 1.67278511 0.87117702
v -1.92855869 1.68947450 0.87115320
v -1.94523786 1.68947450 0.87104991
v -1.94523786 1.80615653 0.87095458
v -1.95420583 1.94004500 0.95113936
v -1.95446062 1.64658768 0.95126647
v -1.95421436 1.92292474 0.95114730
v -1.95940322 1.85622467 0.87759625
v -1.95941175 1.87288533 0.87761214
v -1.95933529 1.94004500 0.87771543
v -1.94560305 1.94004500 0.87132003
v -1.94523786 1.64658768 0.87109758
v -1.95142034 1.64658768 0.87390202
v -1.95964101 1.65612446 0.87763597
v -1.95969200 1.94004500 0.94245591
v -1.95976840 1.92292474 0.94245591
v -1.95982786 1.88957471 0.94245591
v -1.96026098 1.64658768 0.94244797
v -1.95966647 1.64658768 0.87765981
v -1.96567069 1.64658768 0.89243676
v -1.96505071 1.94004500 0.89242881
v -1.96468553 1.94004500 0.92578021
v -1.96477893 1.92292474 0.92578021
v -1.96484686 1.88957471 0.92578021
v -1.96528850 1.64658768 0.92577227
v -1.96560269 1.64658768 0.89959484
v -1.96492332 1.94004500 0.90910451
v -1.96505071 1.94004500 0.89286577
v -1.96495732 1.92292474 0.90910451
v -1.96549230 1.64658768 0.90911246
v -1.96540737 1.64658768 0.91625465
f 1 2 7
f 1 7 16
f 1 16 33
f 1 33 45
f 1 45 44
f 1 44 55
f 1 55 62
f 1 62 61
f 1 61 56
f 1 56 49
f 1 49 39
f 1 39 22
f 1 22 9
f 1 9 3
f 1 3 12
f 1 12 28
f 1 28 13
f 1 13 4
f 1 4 5
f 1 5 2
f 2 6 7
f 2 5 8
f 2 8 6
f 3 9 10
f 3 10 11
f 3 11 12
f 4 13 24
f 4 24 40
f 4 40 52
f 4 52 59
f 4 59 65
f 4 65 64
f 4 64 60
f 4 60 54
f 4 54 53
f 4 53 47
f 4 47 46
f 4 46 34
f 4 34 17
f 4 17 14
f 4 14 5
f 5 14 8
f 6 8 7
f 7 15 16
f 7 8 15
f 8 14 17
f 8 17 18
f 8 18 19
f 8 19 20
f 8 20 21
f 8 21 15
f 9 22 23
f 9 23 10
f 10 23 24
f 10 24 25
f 10 25 26
f 10 26 11
f 11 27 12
f 11 26 28
f 11 28 27
f 12 27 28
f 13 28 26
f 13 26 29
f 13 29 25
f 13 25 24
f 15 30 31
f 15 31 16
f 15 21 30
f 16 31 32
f 16 32 33
f 17 34 35
f 17 35 36
f 17 36 18
f 18 36 37
f 18 37 38
f 18 38 19
f 19 38 20
f 20 38 21
f 21 38 30
f 22 39 24
f 22 24 23
f 24 39 41
f 24 41 40
f 25 29 26
f 30 38 31
f 31 42 43
f 31 43 32
f 31 38 42
f 32 43 44
f 32 44 45
f 32 45 33
f 34 46 35
f 35 46 36
f 36 46 37
f 37 46 47
f 37 47 48
f 37 48 38
f 38 48 42
f 39 49 50
f 39 50 51
f 39 51 52
f 39 52 40
f 39 40 41
f 42 48 43
f 43 48 53
f 43 53 54
f 43 54 44
f 44 54 55
f 47 53 48
f 49 56 57
f 49 57 50
f 50 57 58
f 50 58 59
f 50 59 51
f 51 59 52
f 54 60 61
f 54 61 62
f 54 62 55
f 56 61 57
f 57 61 58
f 58 61 63
f 58 63 60
f 58 60 64
f 58 64 65
f 58 65 59
f 60 63 61

