# https://github.com/mikedh/trimesh
v 0.65385087 -0.31515452 1.53684826
v 0.64964978 -0.41103566 1.51119058
v 0.64952092 -0.32770944 1.51135408
v 0.64942641 -0.31515452 1.51146590
v 0.65359314 -0.31515452 1.53684826
v 0.65380792 -0.39434724 1.53684826
v 0.64971421 -0.56099966 1.51109885
v 0.64077079 -0.41103566 1.50771531
v 0.64077079 -0.32770944 1.50788160
v 0.64294868 -0.31515452 1.50889096
v 0.61094225 -0.31515452 1.53273062
v 0.60997140 -0.31519314 1.53684826
v 0.65323661 -0.52762282 1.53684826
v 0.64969705 -0.57764945 1.51112466
v 0.64077079 -0.56099966 1.50770958
v 0.64077079 -0.54431124 1.50770094
v 0.62410818 -0.36104767 1.50756045
v 0.62410818 -0.34435925 1.50768664
v 0.62825342 -0.31515452 1.50793322
v 0.64077079 -0.31515452 1.50802787
v 0.61537097 -0.31515452 1.51135980
v 0.61000579 -0.32770944 1.53684826
v 0.61515192 -0.36104767 1.51109313
v 0.61516908 -0.37769745 1.51111321
v 0.65013521 -0.70976612 1.53684826
v 0.64913432 -0.70702333 1.51183867
v 0.64941783 -0.64432586 1.51145726
v 0.64077079 -0.64432586 1.50793608
v 0.64077079 -0.57764945 1.50774684
v 0.62410818 -0.37769745 1.50758626
v 0.61755740 -0.31515452 1.51049672
v 0.62410818 -0.31515452 1.50792178
v 0.61095083 -0.46102365 1.53684826
v 0.61575756 -0.63822223 1.51185297
v 0.62410818 -0.62767608 1.50830885
v 0.62248019 -0.64401681 1.50904575
v 0.61573611 -0.62767608 1.51182144
v 0.63443909 -0.70980473 1.53684826
v 0.64947797 -0.70980474 1.53543175
v 0.64927177 -0.70980474 1.51897281
v 0.64925460 -0.70980474 1.51793764
v 0.64920733 -0.70980474 1.51572397
v 0.64538855 -0.70980474 1.51036481
v 0.64222272 -0.70980474 1.50909165
v 0.64077079 -0.69431388 1.50833180
v 0.64077079 -0.66097566 1.50806513
v 0.64934052 -0.66097566 1.51155763
v 0.62458073 -0.69431387 1.50841781
v 0.61252726 -0.61098766 1.53684826
v 0.62473106 -0.70980473 1.50854686
v 0.61583916 -0.64934782 1.51238632
v 0.61348518 -0.69381166 1.53684826
v 0.61270769 -0.62767608 1.53684826
v 0.62428432 -0.66097566 1.50838628
v 0.61382886 -0.70980473 1.53684826
v 0.61628590 -0.70980473 1.51979571
v 0.61611841 -0.67766407 1.51495268
v 0.61595086 -0.66097566 1.51317770
f 1 2 3
f 1 3 4
f 1 4 10
f 1 10 20
f 1 20 19
f 1 19 32
f 1 32 31
f 1 31 21
f 1 21 11
f 1 11 5
f 1 5 12
f 1 12 22
f 1 22 33
f 1 33 49
f 1 49 53
f 1 53 52
f 1 52 55
f 1 55 38
f 1 38 25
f 1 25 13
f 1 13 6
f 1 6 7
f 1 7 2
f 2 8 9
f 2 9 3
f 2 7 8
f 3 9 10
f 3 10 4
f 5 11 12
f 6 13 14
f 6 14 7
f 7 14 15
f 7 15 16
f 7 16 8
f 8 17 9
f 8 16 17
f 9 17 18
f 9 18 19
f 9 19 20
f 9 20 10
f 11 21 12
f 12 21 23
f 12 23 24
f 12 24 22
f 13 25 26
f 13 26 27
f 13 27 14
f 14 27 28
f 14 28 29
f 14 29 15
f 15 29 30
f 15 30 17
f 15 17 16
f 17 30 23
f 17 23 18
f 18 31 32
f 18 32 19
f 18 23 31
f 21 31 23
f 22 24 34
f 22 34 33
f 23 30 24
f 24 30 35
f 24 35 36
f 24 36 37
f 24 37 34
f 25 38 39
f 25 39 40
f 25 40 41
f 25 41 42
f 25 42 26
f 26 42 43
f 26 43 44
f 26 44 45
f 26 45 46
f 26 46 47
f 26 47 27
f 27 47 46
f 27 46 28
f 28 46 48
f 28 48 29
f 29 48 30
f 30 48 35
f 33 34 49
f 34 37 36
f 34 36 48
f 34 48 50
f 34 50 51
f 34 51 52
f 34 52 53
f 34 53 49
f 35 48 54
f 35 54 36
f 36 54 48
f 38 55 56
f 38 56 50
f 38 50 44
f 38 44 43
f 38 43 42
f 38 42 41
f 38 41 40
f 38 40 39
f 44 50 45
f 45 48 46
f 45 50 48
f 50 56 57
f 50 57 58
f 50 58 51
f 51 58 52
f 52 58 55
f 55 58 57
f 55 57 56

