# https://github.com/mikedh/trimesh
v -2.73299177 -0.17768725 1.13128925
v -2.63296657 -0.16220342 1.13803906
v -2.71631360 -0.17768725 1.13129811
v -2.96364076 -0.19435809 1.13183916
v -2.96364076 -0.17768725 1.13134246
v -2.73299177 -0.16218599 1.13800358
v -2.63296657 -0.15513360 1.15355212
v -2.61633215 -0.16222962 1.13805680
v -2.63296657 -0.17768725 1.13136021
v -2.71631360 -0.16215979 1.13803906
v -2.71631360 -0.15502887 1.15355212
v -2.66632291 -0.15508124 1.15355212
v -2.66632291 -0.19434936 1.13202543
v -2.96364076 -0.21200648 1.13567973
v -2.96364076 -0.16249146 1.13815437
v -2.64968849 -0.15529072 1.17020935
v -2.51643826 -0.15552637 1.17038675
v -2.54961948 -0.15531689 1.15355212
v -2.54961948 -0.16229071 1.13825194
v -2.53294134 -0.16235181 1.13824306
v -2.61633215 -0.17768725 1.13140455
v -2.64968849 -0.19434936 1.13206091
v -2.71631360 -0.15524706 1.17020935
v -2.66632291 -0.15527325 1.17020935
v -2.81620753 -0.15528199 1.15355212
v -2.81620753 -0.15539544 1.17020935
v -2.63296657 -0.21099403 1.13743592
v -2.96364076 -0.22765613 1.14176432
v -2.51643826 -0.19434936 1.13263744
v -2.96364076 -0.15678323 1.15113957
v -2.83288569 -0.15532562 1.15355212
v -2.63296657 -0.15556127 1.18686660
v -2.51643826 -0.15581441 1.18686660
v -2.51643826 -0.15541291 1.15372063
v -2.51643826 -0.15541291 1.15355212
v -2.51643826 -0.16237801 1.13829629
v -2.53294134 -0.17767852 1.13170612
v -2.51643826 -0.19418354 1.13262857
v -2.69963544 -0.15552637 1.18686660
v -2.68300105 -0.15552637 1.18686660
v -2.81620753 -0.15564856 1.18686660
v -2.96364076 -0.15572712 1.15355212
v -2.96364076 -0.15591040 1.16760167
v -2.83288569 -0.15568349 1.18686660
v -2.51643826 -0.21190175 1.13868655
v -2.96364076 -0.24415242 1.14870927
v -2.51643826 -0.15817102 1.20353269
v -2.51643826 -0.17767852 1.13179482
v -2.96364076 -0.15852886 1.20352383
v -2.96364076 -0.15595406 1.17020935
v -2.96364076 -0.15627700 1.18685773
v -2.51643826 -0.21202395 1.13874863
v -2.94363572 -0.24418732 1.16019549
v -2.96364076 -0.24415242 1.22120995
v -2.51643826 -0.23601773 1.15371177
v -2.55859333 -0.24418732 1.16383206
v -2.51643826 -0.16485680 1.21504553
v -2.96364076 -0.16496153 1.21533823
v -2.61633215 -0.16507502 1.21554223
v -2.94363572 -0.24418732 1.22122770
v -2.96364076 -0.24154268 1.22120995
v -2.83288569 -0.24418732 1.22178648
v -2.51643826 -0.23601773 1.22120995
v -2.55859333 -0.24418732 1.22124543
v -2.51643826 -0.16498773 1.21508987
v -2.64968849 -0.17768725 1.22039394
v -2.63296657 -0.17768725 1.22027863
v -2.96364076 -0.17768725 1.21971985
v -2.81620753 -0.17768725 1.22021655
v -2.93286713 -0.16502263 1.21539145
v -2.81620753 -0.22765613 1.22183082
v -2.96364076 -0.22765613 1.22118333
v -2.81620753 -0.24418732 1.22183082
v -2.51643826 -0.22766487 1.22114785
v -2.66632291 -0.19434936 1.22178648
v -2.66632291 -0.21099403 1.22185744
v -2.66632291 -0.22765613 1.22186630
v -2.64951340 -0.24418732 1.22177761
v -2.51643826 -0.17767852 1.21915219
v -2.68300105 -0.19434936 1.22179534
v -2.74958240 -0.19434936 1.22175100
v -2.64968849 -0.19434936 1.22167117
v -2.51643826 -0.19434936 1.22041167
v -2.51643826 -0.17784434 1.21916992
v -2.96364076 -0.19435809 1.22081082
v -2.81620753 -0.19434936 1.22159135
v -2.79952936 -0.19434936 1.22166231
v -2.79952936 -0.22765613 1.22185744
v -2.79952936 -0.21099403 1.22178648
v -2.81620753 -0.21099403 1.22175100
v -2.96364076 -0.21099403 1.22108578
v -2.69963544 -0.24418732 1.22185744
v -2.69963544 -0.22765613 1.22190178
v -2.51643826 -0.21100273 1.22090838
v -2.68300105 -0.21099403 1.22186630
v -2.68300105 -0.22765613 1.22189292
v -2.68282596 -0.24418732 1.22185744
v -2.66619157 -0.24418732 1.22183082
v -2.69963544 -0.21099403 1.22186630
v -2.51643826 -0.19451518 1.22042055
f 1 2 3
f 1 3 4
f 1 4 5
f 1 5 6
f 1 6 2
f 2 7 8
f 2 8 9
f 2 9 3
f 2 6 10
f 2 10 11
f 2 11 12
f 2 12 7
f 3 13 4
f 3 9 13
f 4 14 28
f 4 28 46
f 4 46 54
f 4 54 61
f 4 61 72
f 4 72 91
f 4 91 85
f 4 85 68
f 4 68 58
f 4 58 49
f 4 49 51
f 4 51 50
f 4 50 43
f 4 43 42
f 4 42 30
f 4 30 15
f 4 15 5
f 4 13 14
f 5 15 6
f 6 15 11
f 6 11 10
f 7 12 16
f 7 16 17
f 7 17 18
f 7 18 8
f 8 18 19
f 8 19 20
f 8 20 21
f 8 21 9
f 9 22 13
f 9 21 22
f 11 23 24
f 11 24 12
f 11 15 25
f 11 25 26
f 11 26 23
f 12 24 16
f 13 22 14
f 14 27 28
f 14 22 29
f 14 29 27
f 15 30 31
f 15 31 25
f 16 24 32
f 16 32 17
f 17 33 47
f 17 47 57
f 17 57 65
f 17 65 79
f 17 79 84
f 17 84 83
f 17 83 100
f 17 100 94
f 17 94 74
f 17 74 63
f 17 63 55
f 17 55 52
f 17 52 45
f 17 45 29
f 17 29 38
f 17 38 48
f 17 48 36
f 17 36 35
f 17 35 34
f 17 34 18
f 17 32 33
f 18 34 35
f 18 35 19
f 19 35 36
f 19 36 20
f 20 36 37
f 20 37 21
f 21 37 22
f 22 37 38
f 22 38 29
f 23 39 40
f 23 40 24
f 23 26 41
f 23 41 39
f 24 40 32
f 25 31 26
f 26 31 42
f 26 42 43
f 26 43 44
f 26 44 41
f 27 29 45
f 27 45 28
f 28 45 46
f 30 42 31
f 32 40 47
f 32 47 33
f 36 48 37
f 37 48 38
f 39 41 49
f 39 49 47
f 39 47 40
f 41 44 49
f 43 50 44
f 44 50 51
f 44 51 49
f 45 52 46
f 46 53 60
f 46 60 54
f 46 52 55
f 46 55 56
f 46 56 53
f 47 49 58
f 47 58 59
f 47 59 57
f 53 56 64
f 53 64 78
f 53 78 98
f 53 98 97
f 53 97 92
f 53 92 73
f 53 73 62
f 53 62 60
f 54 60 62
f 54 62 61
f 55 63 64
f 55 64 56
f 57 59 66
f 57 66 67
f 57 67 65
f 58 68 69
f 58 69 66
f 58 66 70
f 58 70 59
f 59 70 66
f 61 62 71
f 61 71 72
f 62 73 71
f 63 74 75
f 63 75 76
f 63 76 77
f 63 77 78
f 63 78 64
f 65 67 79
f 66 80 75
f 66 75 67
f 66 69 81
f 66 81 80
f 67 75 82
f 67 82 83
f 67 83 84
f 67 84 79
f 68 85 86
f 68 86 87
f 68 87 69
f 69 87 81
f 71 73 88
f 71 88 89
f 71 89 90
f 71 90 72
f 72 90 91
f 73 92 93
f 73 93 88
f 74 94 82
f 74 82 75
f 75 80 95
f 75 95 76
f 76 95 93
f 76 93 96
f 76 96 77
f 77 96 97
f 77 97 98
f 77 98 78
f 80 99 95
f 80 81 99
f 81 87 89
f 81 89 99
f 82 94 100
f 82 100 83
f 85 91 86
f 86 90 87
f 86 91 90
f 87 90 89
f 88 93 99
f 88 99 89
f 92 97 93
f 93 97 96
f 93 95 99

