# https://github.com/mikedh/trimesh
v 1.14186712 -0.15549994 0.83687683
v 1.14186712 -0.15839779 0.82021576
v 1.12411899 -0.15838038 0.82021576
v 1.14077289 -0.15549994 0.83687683
v 1.14186712 -0.15573490 0.85352910
v 1.15744336 -0.15574360 0.85352910
v 1.17542361 -0.15576970 0.85223598
v 1.17542361 -0.15559566 0.83687683
v 1.14186712 -0.15885028 0.81953841
v 1.17410555 -0.15851092 0.82021576
v 1.12411899 -0.16531607 0.80999393
v 1.10745680 -0.16533347 0.81000273
v 1.09073658 -0.15857181 0.82021576
v 1.12411899 -0.15554345 0.83687683
v 1.12411899 -0.15580452 0.85352031
v 1.09073658 -0.15672694 0.87019897
v 1.10745680 -0.15666602 0.87019897
v 1.17542361 -0.15656159 0.87019017
v 1.17542361 -0.15578711 0.85352910
v 1.17542361 -0.15851959 0.82021576
v 1.17542361 -0.16540309 0.81002912
v 1.15744336 -0.16536828 0.81001152
v 1.14186712 -0.16534216 0.81000273
v 1.17542361 -0.15905914 0.81941527
v 1.14186712 -0.16615149 0.80989716
v 1.12411899 -0.17768195 0.80845450
v 1.09073658 -0.17765585 0.80848089
v 1.09078632 -0.16540309 0.81004671
v 1.09073658 -0.15575230 0.83687683
v 1.09073658 -0.16538568 0.81007310
v 1.09073658 -0.15597857 0.85352031
v 1.09073658 -0.16210493 0.88686003
v 1.17542361 -0.16170462 0.88686003
v 1.17542361 -0.16129564 0.88554931
v 1.17542361 -0.17768195 0.80851608
v 1.17542361 -0.17899598 0.80854246
v 1.17542361 -0.19435544 0.80894712
v 1.17410555 -0.19435544 0.80894712
v 1.09078632 -0.19434674 0.80895591
v 1.09078632 -0.17768195 0.80848089
v 1.09073658 -0.19431193 0.80895591
v 1.09073658 -0.16811818 0.89602625
v 1.17410555 -0.16779619 0.89629896
v 1.17542361 -0.16730887 0.89556003
v 1.17542361 -0.20831386 0.81046896
v 1.14950188 -0.24433243 0.81155976
v 1.14186712 -0.24439334 0.81085602
v 1.14080604 -0.24439334 0.81075925
v 1.14077289 -0.24433243 0.81075046
v 1.12978082 -0.24439334 0.81107593
v 1.09073658 -0.20831386 0.81052174
v 1.09073658 -0.17768195 0.89746013
v 1.15744336 -0.17768195 0.89771524
v 1.17410555 -0.17768195 0.89776802
v 1.17542361 -0.17690744 0.89765366
v 1.17542361 -0.16779619 0.89629896
v 1.17542361 -0.20896651 0.81070647
v 1.17542361 -0.21664189 0.81351263
v 1.17542361 -0.24433243 0.83495034
v 1.14186712 -0.24439334 0.89824304
v 1.12144143 -0.24439334 0.81563265
v 1.09073658 -0.21665928 0.81360061
v 1.09073658 -0.19434674 0.89804071
v 1.12411899 -0.19434674 0.89826943
v 1.17542361 -0.17768195 0.89776802
v 1.14186712 -0.19325897 0.89826943
v 1.17542361 -0.24433243 0.89822544
v 1.15744336 -0.24433243 0.89825183
v 1.14077289 -0.24439334 0.89824304
v 1.09083606 -0.24439334 0.83533741
v 1.09073658 -0.24429762 0.83533741
v 1.09073658 -0.24433243 0.89798793
v 1.14186712 -0.21100285 0.89832221
v 1.14186712 -0.19435544 0.89830461
v 1.12411899 -0.21100285 0.89825183
v 1.15744336 -0.19435544 0.89827822
v 1.17542361 -0.19304142 0.89818146
v 1.17542361 -0.24302711 0.89823424
v 1.15731902 -0.24433243 0.89825183
v 1.17542361 -0.22766763 0.89827822
v 1.15744336 -0.22766763 0.89829582
v 1.14186712 -0.24324466 0.89825183
v 1.12411899 -0.24439334 0.89818146
v 1.09073658 -0.24439334 0.89776802
v 1.09078632 -0.24439334 0.89798793
v 1.12411899 -0.22766763 0.89822544
v 1.14077289 -0.22766763 0.89829582
v 1.17542361 -0.21099415 0.89830461
v 1.17542361 -0.19435544 0.89821665
f 1 2 3
f 1 3 4
f 1 4 5
f 1 5 6
f 1 6 7
f 1 7 8
f 1 8 2
f 2 9 3
f 2 8 10
f 2 10 9
f 3 9 11
f 3 11 12
f 3 12 13
f 3 13 14
f 3 14 4
f 4 14 5
f 5 14 15
f 5 15 16
f 5 16 17
f 5 17 18
f 5 18 6
f 6 18 19
f 6 19 7
f 7 19 18
f 7 18 34
f 7 34 33
f 7 33 44
f 7 44 56
f 7 56 55
f 7 55 65
f 7 65 77
f 7 77 89
f 7 89 88
f 7 88 80
f 7 80 78
f 7 78 67
f 7 67 59
f 7 59 58
f 7 58 57
f 7 57 45
f 7 45 37
f 7 37 36
f 7 36 35
f 7 35 21
f 7 21 24
f 7 24 20
f 7 20 8
f 8 20 10
f 9 10 21
f 9 21 22
f 9 22 23
f 9 23 11
f 10 20 24
f 10 24 21
f 11 23 25
f 11 25 26
f 11 26 12
f 12 26 27
f 12 27 28
f 12 28 13
f 13 29 14
f 13 28 30
f 13 30 27
f 13 27 41
f 13 41 51
f 13 51 62
f 13 62 71
f 13 71 84
f 13 84 72
f 13 72 63
f 13 63 52
f 13 52 42
f 13 42 32
f 13 32 16
f 13 16 31
f 13 31 29
f 14 29 31
f 14 31 15
f 15 31 16
f 16 32 33
f 16 33 17
f 17 33 34
f 17 34 18
f 21 35 22
f 22 35 26
f 22 26 25
f 22 25 23
f 26 35 36
f 26 36 37
f 26 37 38
f 26 38 39
f 26 39 40
f 26 40 27
f 27 40 39
f 27 39 41
f 27 30 28
f 32 42 43
f 32 43 44
f 32 44 33
f 37 45 46
f 37 46 47
f 37 47 48
f 37 48 49
f 37 49 38
f 38 49 39
f 39 49 50
f 39 50 41
f 41 50 51
f 42 52 43
f 43 52 53
f 43 53 54
f 43 54 55
f 43 55 56
f 43 56 44
f 45 57 46
f 46 57 58
f 46 58 59
f 46 59 47
f 47 59 67
f 47 67 60
f 47 60 69
f 47 69 83
f 47 83 85
f 47 85 84
f 47 84 70
f 47 70 61
f 47 61 50
f 47 50 48
f 48 50 49
f 50 61 62
f 50 62 51
f 52 63 64
f 52 64 53
f 53 64 54
f 54 65 55
f 54 64 66
f 54 66 65
f 60 67 68
f 60 68 79
f 60 79 69
f 61 70 62
f 62 70 71
f 63 72 64
f 64 73 74
f 64 74 66
f 64 72 75
f 64 75 73
f 65 66 74
f 65 74 76
f 65 76 77
f 67 78 68
f 68 78 80
f 68 80 81
f 68 81 87
f 68 87 79
f 69 79 82
f 69 82 83
f 70 84 71
f 72 84 85
f 72 85 83
f 72 83 86
f 72 86 75
f 73 75 87
f 73 87 81
f 73 81 88
f 73 88 74
f 74 88 76
f 75 86 87
f 76 88 89
f 76 89 77
f 79 87 82
f 80 88 81
f 82 87 83
f 83 87 86

