# https://github.com/mikedh/trimesh
v 1.69079721 -0.76100608 0.09617155
v 1.67411678 -0.76100608 0.09618210
v 1.65746084 -0.74434716 0.09697079
v 1.88638224 -0.74434716 0.09694975
v 1.88638224 -0.76100608 0.09621363
v 1.88638224 -0.77326959 0.09711802
v 1.88638224 -0.77767337 0.09745449
v 1.65746084 -0.77767337 0.09773845
v 1.63615099 -0.76100608 0.09624516
v 1.64080484 -0.74434716 0.09701282
v 1.64080484 -0.73040603 0.10468936
v 1.88638224 -0.73035569 0.10465783
v 1.88638224 -0.78580151 0.10331183
v 1.63615099 -0.78860316 0.10574097
v 1.63615099 -0.77767337 0.09779102
v 1.63615099 -0.77304309 0.09735984
v 1.88638224 -0.78871221 0.10541499
v 1.63615099 -0.74434716 0.09703386
v 1.63615099 -0.73039762 0.10471040
v 1.63615099 -0.70670104 0.13039007
v 1.64031501 -0.70670104 0.13037952
v 1.80687455 -0.70670104 0.13023230
v 1.88599033 -0.70670104 0.13021126
v 1.88638224 -0.70670104 0.13021126
v 1.63615099 -0.79070859 0.11618319
v 1.79078194 -0.78873736 0.10566736
v 1.80743788 -0.78875414 0.10566736
v 1.80743788 -0.79178229 0.12020022
v 1.88638224 -0.79171517 0.12020022
v 1.63615099 -0.70670104 0.18032969
v 1.88638224 -0.70670104 0.17936218
v 1.63615099 -0.79150545 0.12020022
v 1.84077430 -0.79215136 0.13686778
v 1.82409387 -0.79215974 0.13686778
v 1.80743788 -0.79215136 0.13686778
v 1.79078194 -0.79213458 0.13686778
v 1.64080484 -0.79193327 0.13686778
v 1.63615099 -0.79181581 0.13224081
v 1.88638224 -0.79209265 0.13686778
v 1.85743024 -0.79213458 0.13686778
v 1.63615099 -0.73457493 0.20359065
v 1.67411678 -0.70670104 0.18046636
v 1.88638224 -0.73470076 0.20359065
v 1.72413364 -0.70670104 0.18042428
v 1.84077430 -0.79236105 0.15352485
v 1.80743788 -0.79239461 0.15352485
v 1.79078194 -0.79237783 0.15352485
v 1.63615099 -0.79213458 0.15352485
v 1.63615099 -0.79191649 0.13686778
v 1.88638224 -0.79230234 0.15352485
v 1.85743024 -0.79234427 0.15352485
v 1.67411678 -0.73454137 0.20359065
v 1.63615099 -0.78331022 0.20359065
v 1.70745320 -0.70670104 0.18048740
v 1.88638224 -0.78280692 0.20359065
v 1.87411072 -0.73461689 0.20359065
v 1.71176414 -0.70670104 0.18047691
v 1.80743788 -0.79098540 0.17019241
v 1.79078194 -0.79099377 0.17019241
v 1.77410151 -0.79099377 0.17019241
v 1.74078957 -0.79098540 0.17019241
v 1.69079721 -0.79093506 0.17019241
v 1.67411678 -0.79089313 0.17019241
v 1.63615099 -0.79061632 0.17019241
v 1.88638224 -0.79075893 0.17019241
v 1.75747007 -0.73450784 0.20359065
v 1.65753433 -0.78327667 0.20359065
v 1.85743024 -0.73460011 0.20359065
v 1.72420713 -0.78314246 0.20359065
f 1 2 3
f 1 3 4
f 1 4 5
f 1 5 6
f 1 6 7
f 1 7 2
f 2 7 8
f 2 8 9
f 2 9 3
f 3 9 10
f 3 10 11
f 3 11 12
f 3 12 4
f 4 12 24
f 4 24 31
f 4 31 43
f 4 43 55
f 4 55 65
f 4 65 50
f 4 50 39
f 4 39 29
f 4 29 17
f 4 17 13
f 4 13 7
f 4 7 6
f 4 6 5
f 7 13 8
f 8 14 15
f 8 15 16
f 8 16 9
f 8 13 17
f 8 17 14
f 9 16 15
f 9 15 14
f 9 14 25
f 9 25 32
f 9 32 38
f 9 38 49
f 9 49 48
f 9 48 64
f 9 64 53
f 9 53 41
f 9 41 30
f 9 30 20
f 9 20 19
f 9 19 18
f 9 18 10
f 10 18 19
f 10 19 11
f 11 19 20
f 11 20 21
f 11 21 22
f 11 22 12
f 12 22 23
f 12 23 24
f 14 17 26
f 14 26 27
f 14 27 28
f 14 28 25
f 17 29 28
f 17 28 27
f 17 27 26
f 20 30 42
f 20 42 54
f 20 54 57
f 20 57 44
f 20 44 31
f 20 31 24
f 20 24 23
f 20 23 22
f 20 22 21
f 25 28 32
f 28 29 33
f 28 33 34
f 28 34 35
f 28 35 36
f 28 36 37
f 28 37 38
f 28 38 32
f 29 39 40
f 29 40 33
f 30 41 42
f 31 44 43
f 33 40 51
f 33 51 45
f 33 45 46
f 33 46 34
f 34 46 35
f 35 46 47
f 35 47 36
f 36 47 37
f 37 48 49
f 37 49 38
f 37 47 48
f 39 50 51
f 39 51 40
f 41 52 42
f 41 53 67
f 41 67 69
f 41 69 55
f 41 55 43
f 41 43 56
f 41 56 68
f 41 68 66
f 41 66 52
f 42 52 54
f 43 44 56
f 44 57 56
f 45 51 58
f 45 58 46
f 46 58 59
f 46 59 60
f 46 60 61
f 46 61 62
f 46 62 47
f 47 62 48
f 48 62 63
f 48 63 64
f 50 65 58
f 50 58 51
f 52 66 54
f 53 64 63
f 53 63 62
f 53 62 61
f 53 61 60
f 53 60 59
f 53 59 58
f 53 58 67
f 54 66 68
f 54 68 56
f 54 56 57
f 55 58 65
f 55 69 58
f 58 69 67

