# https://github.com/mikedh/trimesh
v -1.94524168 1.62645967 1.38962200
v -1.94821492 1.62645967 1.39069063
v -1.95865549 1.65607412 1.39652092
v -1.94521592 1.65607412 1.39181907
v -1.92853680 1.65607412 1.39197294
v -1.92856257 1.62645967 1.39077609
v -1.96119043 1.62645967 1.39634140
v -1.96287470 1.62645967 1.40005157
v -1.96436991 1.65607412 1.40939546
v -1.91187480 1.65607412 1.39581990
v -1.87869699 1.62645967 1.39612768
v -1.88272713 1.62645967 1.39564038
v -1.96626895 1.62645967 1.40826701
v -1.96648378 1.62645967 1.41313130
v -1.96500574 1.65607412 1.42606569
v -1.90276620 1.65607412 1.40023112
v -1.87869699 1.63338275 1.39868376
v -1.87869699 1.62645967 1.47611052
v -1.96544399 1.62645967 1.44276153
v -1.96496280 1.65607412 1.44273588
v -1.87869699 1.65607412 1.42761302
v -1.87869699 1.65607412 1.47608487
v -1.94152949 1.62645967 1.47694830
v -1.96448162 1.62645967 1.45944032
v -1.96403472 1.65607412 1.45941467
v -1.89522145 1.65607412 1.47601649
v -1.92856257 1.65607412 1.47585406
v -1.94524168 1.65607412 1.47567454
v -1.94524168 1.62645967 1.47688848
v -1.95856096 1.62645967 1.47218662
v -1.95836331 1.65607412 1.47163095
f 1 2 3
f 1 3 4
f 1 4 5
f 1 5 6
f 1 6 12
f 1 12 11
f 1 11 18
f 1 18 23
f 1 23 29
f 1 29 30
f 1 30 24
f 1 24 19
f 1 19 14
f 1 14 13
f 1 13 8
f 1 8 7
f 1 7 2
f 2 7 3
f 3 7 8
f 3 8 9
f 3 9 15
f 3 15 20
f 3 20 25
f 3 25 31
f 3 31 28
f 3 28 27
f 3 27 26
f 3 26 22
f 3 22 21
f 3 21 16
f 3 16 10
f 3 10 5
f 3 5 4
f 5 10 11
f 5 11 12
f 5 12 6
f 8 13 9
f 9 13 14
f 9 14 15
f 10 16 17
f 10 17 11
f 11 17 21
f 11 21 22
f 11 22 18
f 14 19 20
f 14 20 15
f 16 21 17
f 18 22 23
f 19 24 25
f 19 25 20
f 22 26 23
f 23 26 27
f 23 27 28
f 23 28 29
f 24 30 31
f 24 31 25
f 28 31 29
f 29 31 30

