# https://github.com/mikedh/trimesh
v 1.63614353 -0.72351797 1.99779952
v 1.60745572 -0.72351797 1.99772716
v 1.63614353 -0.72351797 1.89218187
v 1.63614801 -0.70757789 1.93235709
v 1.63614801 -0.31831252 1.93235709
v 1.63614353 -0.24456633 1.99669325
v 1.63602255 -0.24456633 1.99669325
v 1.59091157 -0.24456633 1.99662089
v 1.59036937 -0.72351797 1.99766517
v 1.62626724 -0.72351797 1.89296759
v 1.63068559 -0.24456633 1.89468380
v 1.63614353 -0.24456633 1.89442529
v 1.63614801 -0.31831252 1.89428057
v 1.63614801 -0.70757789 1.89367063
v 1.59091157 -0.24456633 1.99599027
v 1.59036937 -0.31831252 1.99637282
v 1.59036937 -0.72351797 1.99533902
v 1.60929296 -0.72351797 1.90615945
v 1.63058254 -0.24456633 1.89469411
v 1.59094295 -0.24456633 1.93607896
v 1.59036937 -0.31831252 1.93670958
v 1.59036937 -0.72347106 1.92862492
v 1.59079060 -0.72351797 1.92853188
f 1 2 9
f 1 9 17
f 1 17 23
f 1 23 18
f 1 18 10
f 1 10 3
f 1 3 14
f 1 14 4
f 1 4 5
f 1 5 6
f 1 6 7
f 1 7 8
f 1 8 2
f 2 8 9
f 3 10 11
f 3 11 12
f 3 12 13
f 3 13 14
f 4 14 13
f 4 13 5
f 5 13 12
f 5 12 6
f 6 12 11
f 6 11 19
f 6 19 20
f 6 20 15
f 6 15 8
f 6 8 7
f 8 15 21
f 8 21 16
f 8 16 9
f 9 16 21
f 9 21 22
f 9 22 17
f 10 18 19
f 10 19 11
f 15 20 21
f 17 22 23
f 18 23 22
f 18 22 20
f 18 20 19
f 20 22 21

