# https://github.com/mikedh/trimesh
v -2.48754844 -0.72493948 1.99792420
v -2.46624557 -0.72493948 1.99797952
v -2.48292046 -0.70788884 1.99665175
v -2.48754844 -0.70788884 1.99663590
v -2.48754844 -0.72493948 1.93227757
v -2.44959440 -0.72493948 1.99801111
v -2.47979834 -0.70788884 1.99665962
v -2.48754844 -0.70788884 1.93227757
v -2.45674528 -0.72493948 1.91726882
v -2.43175268 -0.72493948 1.99798738
v -2.40702025 -0.70788884 1.99669121
v -2.44959440 -0.70788884 1.99669121
v -2.46624557 -0.70788884 1.99668334
v -2.46086865 -0.70788884 1.93227757
v -2.45674528 -0.72454725 1.91726882
v -2.45551533 -0.72493948 1.91726882
v -2.40702025 -0.72493948 1.99793994
v -2.40702025 -0.70788884 1.93675886
v -2.40702025 -0.72493948 1.92650803
f 1 2 3
f 1 3 4
f 1 4 8
f 1 8 5
f 1 5 9
f 1 9 16
f 1 16 19
f 1 19 17
f 1 17 10
f 1 10 6
f 1 6 2
f 2 6 7
f 2 7 3
f 3 7 13
f 3 13 12
f 3 12 11
f 3 11 18
f 3 18 14
f 3 14 8
f 3 8 4
f 5 8 15
f 5 15 9
f 6 10 11
f 6 11 12
f 6 12 13
f 6 13 7
f 8 14 15
f 9 15 16
f 10 17 11
f 11 17 19
f 11 19 18
f 14 18 15
f 15 19 16
f 15 18 19

