# https://github.com/mikedh/trimesh
v -1.08727291 1.93972100 1.22771749
v -1.08727291 1.93972100 1.17846195
v -1.02796405 1.93972100 1.22775915
v -1.08727291 2.02298599 1.22805081
v -1.08727291 1.97594930 1.14804701
v -0.82775780 1.96497511 1.15163014
v -0.81114510 1.96487148 1.15143848
v -0.79453240 1.96477821 1.15124683
v -0.75323355 1.96463314 1.15092186
v -0.69439046 1.96444661 1.15069687
v -0.67785538 1.96439480 1.15063854
v -0.94474531 1.93972100 1.17780366
v -1.02788643 1.93972100 1.22775915
v -0.42757815 1.93972100 1.22775082
v -1.01127372 2.02298599 1.22804246
v -1.01127372 2.03776332 1.22285944
v -1.08727291 2.03763898 1.22287609
v -1.08727291 1.98353486 1.14625544
v -0.64455238 1.97297518 1.14761372
v -0.82775780 1.97330679 1.14808035
v -0.66124270 1.96436371 1.15059687
v -0.92805498 1.93972100 1.17772866
v -0.29421084 1.93972100 1.22771749
v -0.29428843 1.97297518 1.22779249
v -0.29421084 1.97299591 1.22779249
v -0.32759149 2.02298599 1.22784248
v -0.54448804 2.03774260 1.22274276
v -0.99466102 2.03779439 1.22283443
v -0.89459671 2.04498618 1.20927687
v -0.91120941 2.04496546 1.20927687
v -1.08727291 2.04072708 1.21680978
v -1.08727291 1.98964891 1.14481387
v -0.62786205 1.97297518 1.14757204
v -0.52772012 1.96413573 1.15033855
v -0.89467434 1.93972100 1.17762034
v -0.29421084 1.93972100 1.17849528
v -0.29421084 2.02300672 1.22781748
v -0.31105641 2.02298599 1.22783415
v -0.49441705 2.03773223 1.22270944
v -0.77784207 2.04503799 1.20927687
v -0.77784207 2.03788767 1.22270944
v -0.91120941 2.03789804 1.22270944
v -0.81114510 2.04502763 1.20927687
v -0.79453240 2.04558722 1.19261114
v -0.81114510 2.04557687 1.19261114
v -0.84452574 2.04553541 1.19261114
v -1.08727291 2.04514161 1.19261114
v -1.08727291 2.04455095 1.20927687
v -1.08727291 1.99886141 1.14448055
v -0.29421084 2.02298599 1.14293065
v -0.29428843 1.98964890 1.14418890
v -0.52772012 1.97297518 1.14737205
v -0.36097209 1.97297518 1.14724707
v -0.36097209 1.96411500 1.15029689
v -0.71115841 1.93972100 1.17750368
v -0.29428843 1.93972100 1.17813697
v -0.29421084 1.96442588 1.15068852
v -0.29421084 2.03726590 1.22269277
v -0.29428843 2.03724517 1.22271777
v -0.31105641 2.03727627 1.22272611
v -0.34428182 2.03731771 1.22274276
v -0.49441705 2.04455095 1.20927687
v -0.54448804 2.04466494 1.20927687
v -0.74438379 2.04501726 1.20927687
v -0.76107412 2.04558722 1.19261114
v -0.76107412 2.04555613 1.17594543
v -0.81114510 2.04554577 1.17594543
v -0.82775780 2.04552504 1.17594543
v -1.08727291 2.04515199 1.17594543
v -1.08727291 2.01553515 1.14388059
v -0.56117836 2.03727627 1.14685542
v -0.51118503 2.03727627 1.14683875
v -0.29421084 2.03704829 1.14677209
v -0.29421084 1.98964890 1.14418890
v -1.08727291 2.02298599 1.14362226
v -1.08727291 2.03708973 1.14709707
v -0.29421084 1.97297518 1.14746372
v -0.69439046 1.93972100 1.17750368
v -0.29421084 2.04388772 1.20925186
v -0.29428843 2.04388772 1.20927687
v -0.29428843 2.04461311 1.19261114
v -0.52772012 2.04512088 1.19261114
v -0.74438379 2.04555613 1.19261114
v -0.52772012 2.04513126 1.17594543
v -0.76107412 2.04438513 1.15926304
v -0.51118503 2.04490328 1.17227063
v -0.51118503 2.04417788 1.15926304
v -0.79453240 2.04437477 1.15926304
v -1.08727291 2.04401208 1.15926304
v -1.08727291 2.04490329 1.17227063
v -0.29428843 2.03706902 1.14678042
v -0.29421084 2.04375302 1.15923805
v -0.29421084 2.04461311 1.19257782
v -0.29421084 2.04467529 1.17591209
v -0.29421084 2.04447840 1.17227063
v -0.29428843 2.04376336 1.15926304
f 1 2 12
f 1 12 22
f 1 22 35
f 1 35 55
f 1 55 78
f 1 78 56
f 1 56 36
f 1 36 23
f 1 23 14
f 1 14 13
f 1 13 3
f 1 3 4
f 1 4 17
f 1 17 31
f 1 31 48
f 1 48 47
f 1 47 69
f 1 69 90
f 1 90 89
f 1 89 76
f 1 76 75
f 1 75 70
f 1 70 49
f 1 49 32
f 1 32 18
f 1 18 5
f 1 5 2
f 2 5 6
f 2 6 7
f 2 7 8
f 2 8 9
f 2 9 10
f 2 10 11
f 2 11 12
f 3 13 4
f 4 13 14
f 4 14 15
f 4 15 16
f 4 16 17
f 5 18 19
f 5 19 20
f 5 20 11
f 5 11 10
f 5 10 9
f 5 9 8
f 5 8 7
f 5 7 6
f 11 19 21
f 11 21 22
f 11 22 12
f 11 20 19
f 14 23 24
f 14 24 15
f 15 24 25
f 15 25 26
f 15 26 27
f 15 27 16
f 16 28 29
f 16 29 30
f 16 30 17
f 16 27 28
f 17 30 31
f 18 32 19
f 19 33 34
f 19 34 21
f 19 32 33
f 21 34 22
f 22 34 35
f 23 36 57
f 23 57 77
f 23 77 74
f 23 74 50
f 23 50 73
f 23 73 92
f 23 92 95
f 23 95 94
f 23 94 93
f 23 93 79
f 23 79 58
f 23 58 37
f 23 37 25
f 23 25 24
f 25 37 38
f 25 38 26
f 26 38 27
f 27 38 37
f 27 37 39
f 27 39 40
f 27 40 41
f 27 41 28
f 28 42 43
f 28 43 29
f 28 41 42
f 29 43 44
f 29 44 45
f 29 45 46
f 29 46 30
f 30 47 48
f 30 48 31
f 30 46 47
f 32 49 50
f 32 50 51
f 32 51 52
f 32 52 33
f 33 52 34
f 34 52 53
f 34 53 54
f 34 54 55
f 34 55 35
f 36 56 57
f 37 58 59
f 37 59 60
f 37 60 61
f 37 61 39
f 39 61 60
f 39 60 59
f 39 59 58
f 39 58 62
f 39 62 63
f 39 63 64
f 39 64 40
f 40 44 43
f 40 43 42
f 40 42 41
f 40 64 65
f 40 65 44
f 44 65 66
f 44 66 67
f 44 67 45
f 45 67 46
f 46 68 69
f 46 69 47
f 46 67 68
f 49 70 50
f 50 71 72
f 50 72 73
f 50 74 51
f 50 70 75
f 50 75 76
f 50 76 71
f 51 74 53
f 51 53 52
f 53 74 77
f 53 77 54
f 54 77 57
f 54 57 56
f 54 56 78
f 54 78 55
f 58 79 80
f 58 80 62
f 62 80 81
f 62 81 63
f 63 81 82
f 63 82 83
f 63 83 65
f 63 65 64
f 65 83 84
f 65 84 66
f 66 85 67
f 66 84 86
f 66 86 87
f 66 87 85
f 67 85 88
f 67 88 89
f 67 89 68
f 68 89 90
f 68 90 69
f 71 76 88
f 71 88 85
f 71 85 72
f 72 91 73
f 72 85 91
f 73 91 92
f 76 89 88
f 79 93 81
f 79 81 80
f 81 93 82
f 82 93 94
f 82 94 83
f 83 94 84
f 84 94 86
f 85 87 91
f 86 94 95
f 86 95 96
f 86 96 87
f 87 96 92
f 87 92 91
f 92 96 95

