# https://github.com/mikedh/trimesh
v -0.92082472 -0.74481295 0.20818241
v -0.92082472 -0.79031643 0.20818241
v -1.03206872 -0.74474426 0.20818241
v -0.99876870 -0.74136815 0.42486898
v -0.98200893 -0.74140251 0.42486898
v -0.92082472 -0.74189321 0.42486898
v -0.92082472 -0.79016921 0.40818598
v -1.39866154 -0.79142541 0.42668700
v -1.41351845 -0.79144997 0.42668700
v -1.43196153 -0.79108194 0.20818241
v -1.04875532 -0.74473441 0.20818241
v -0.99876870 -0.74153990 0.42668700
v -0.98200893 -0.74155463 0.42668700
v -1.06536872 -0.74476386 0.20818241
v -1.08205532 -0.74483255 0.20818241
v -1.01538211 -0.74144176 0.42486898
v -1.05058499 -0.74174111 0.42668700
v -0.92082472 -0.74187358 0.42668700
v -0.92082472 -0.79015448 0.41935074
v -1.39683187 -0.79142053 0.42668700
v -1.46533475 -0.79149414 0.42668700
v -1.59860798 -0.79126350 0.20818241
v -1.66528116 -0.74766398 0.20818241
v -1.66850139 -0.74766887 0.20822521
v -1.04875532 -0.74164786 0.42486898
v -1.61529456 -0.74675616 0.42668700
v -0.92082472 -0.79010544 0.42668700
v -0.92082472 -0.79014469 0.42486898
v -1.54862132 -0.79148430 0.42668700
v -1.61529456 -0.79126350 0.20818241
v -1.66850139 -0.78292635 0.20818241
v -1.66850139 -0.74696717 0.39152437
v -1.63198114 -0.74697206 0.42668700
v -1.56347826 -0.79147451 0.42668700
v -1.63198114 -0.79124386 0.20818241
v -1.66528116 -0.79117024 0.20818241
v -1.66850139 -0.79116536 0.20822521
v -1.66850139 -0.74953355 0.40367303
v -1.64442288 -0.74958263 0.42668700
v -1.61346492 -0.79137144 0.42668700
v -1.66850139 -0.79120952 0.39152437
v -1.61529456 -0.79136652 0.42486898
v -1.66850139 -0.76019178 0.41207867
v -1.65335173 -0.75995622 0.42668700
v -1.61529456 -0.79136652 0.42668700
v -1.66850139 -0.78865783 0.40427189
v -1.63198114 -0.79129783 0.42668700
v -1.64859452 -0.78844683 0.42668700
v -1.66850139 -0.77703292 0.41423888
v -1.65942621 -0.77719486 0.42668700
v -1.66081679 -0.76556995 0.42181040
v -1.65349812 -0.76019178 0.42668700
v -1.66850139 -0.78790704 0.40780099
v -1.65723059 -0.78551239 0.42668700
v -1.65942621 -0.77743039 0.42668700
f 1 2 10
f 1 10 22
f 1 22 30
f 1 30 35
f 1 35 36
f 1 36 31
f 1 31 23
f 1 23 15
f 1 15 14
f 1 14 11
f 1 11 3
f 1 3 4
f 1 4 5
f 1 5 6
f 1 6 18
f 1 18 27
f 1 27 28
f 1 28 19
f 1 19 7
f 1 7 2
f 2 7 8
f 2 8 9
f 2 9 10
f 3 11 4
f 4 12 13
f 4 13 5
f 4 11 14
f 4 14 15
f 4 15 16
f 4 16 17
f 4 17 12
f 5 13 18
f 5 18 6
f 7 19 8
f 8 19 20
f 8 20 27
f 8 27 18
f 8 18 13
f 8 13 12
f 8 12 17
f 8 17 26
f 8 26 33
f 8 33 39
f 8 39 44
f 8 44 52
f 8 52 50
f 8 50 55
f 8 55 54
f 8 54 48
f 8 48 47
f 8 47 45
f 8 45 40
f 8 40 34
f 8 34 29
f 8 29 21
f 8 21 9
f 9 21 22
f 9 22 10
f 15 23 24
f 15 24 16
f 16 25 17
f 16 24 25
f 17 25 26
f 19 28 20
f 20 28 27
f 21 29 30
f 21 30 22
f 23 31 24
f 24 31 37
f 24 37 41
f 24 41 46
f 24 46 53
f 24 53 49
f 24 49 43
f 24 43 38
f 24 38 32
f 24 32 25
f 25 32 26
f 26 32 33
f 29 34 30
f 30 34 35
f 31 36 37
f 32 38 33
f 33 38 39
f 34 40 35
f 35 40 37
f 35 37 36
f 37 40 42
f 37 42 41
f 38 43 44
f 38 44 39
f 40 45 42
f 41 42 45
f 41 45 47
f 41 47 48
f 41 48 46
f 43 49 50
f 43 50 51
f 43 51 52
f 43 52 44
f 46 48 53
f 48 54 53
f 49 53 54
f 49 54 55
f 49 55 50
f 50 52 51

