# https://github.com/mikedh/trimesh
v 0.32413079 -0.72357497 1.16023735
v 0.30745745 -0.72357497 1.16028778
v 0.31308705 -0.69997495 1.16552516
v 0.32413079 -0.69997495 1.16549995
v 0.59028996 -0.69997495 1.16536760
v 0.59028996 -0.72351030 1.16051467
v 0.57915382 -0.72357497 1.16052727
v 0.29641358 -0.69997495 1.16557559
v 0.29078406 -0.72357497 1.16036971
v 0.28100148 -0.69997495 1.16564491
v 0.29078406 -0.69997495 1.16560079
v 0.59028996 -0.69997495 1.22104400
v 0.59028996 -0.72357497 1.22194526
v 0.27604865 -0.72357497 1.16064702
v 0.27604865 -0.69997495 1.16568903
v 0.27974024 -0.69997495 1.16565121
v 0.59028996 -0.72357497 1.22462382
v 0.29078406 -0.69997495 1.22104400
v 0.27604865 -0.72357497 1.22455450
v 0.27604865 -0.69997495 1.22103139
v 0.55743532 -0.72357497 1.22461752
v 0.29078406 -0.72357497 1.22456079
f 1 2 8
f 1 8 3
f 1 3 4
f 1 4 5
f 1 5 6
f 1 6 7
f 1 7 13
f 1 13 17
f 1 17 21
f 1 21 22
f 1 22 19
f 1 19 14
f 1 14 9
f 1 9 2
f 2 9 10
f 2 10 11
f 2 11 8
f 3 8 11
f 3 11 10
f 3 10 16
f 3 16 15
f 3 15 20
f 3 20 18
f 3 18 12
f 3 12 5
f 3 5 4
f 5 12 17
f 5 17 13
f 5 13 6
f 6 13 7
f 9 14 15
f 9 15 16
f 9 16 10
f 12 18 17
f 14 19 20
f 14 20 15
f 17 18 21
f 18 20 19
f 18 19 22
f 18 22 21

