# https://github.com/mikedh/trimesh
v -1.99795144 2.03966505 1.38780917
v -1.99784957 2.03966505 1.44275443
v -1.99781563 2.02299335 1.44275443
v -1.99780430 2.00633131 1.44275443
v -1.99795144 2.02299335 1.38780917
v -1.99842684 2.05634643 1.38780917
v -1.99786090 2.03966505 1.45943754
v -1.99781563 2.02299335 1.45943754
v -1.99837024 2.05634643 1.44275443
v -1.99784957 2.00633131 1.45943754
v -2.00148298 1.99364610 1.45943754
v -2.00146037 1.99365578 1.44275443
v -2.00149431 1.99367513 1.42609187
v -2.00155091 1.99367513 1.40941905
v -1.99787223 2.00633131 1.42609187
v -1.99800804 2.01124671 1.38780917
v -2.00201498 2.06763830 1.38780917
v -2.00200365 2.06764798 1.39273594
v -2.00198104 2.06769635 1.42609187
v -1.99838157 2.05634643 1.45943754
v -1.99841551 2.05634643 1.47611037
v -1.99846083 2.05634643 1.49288604
v -1.99799670 2.03966505 1.49288604
v -1.99792883 2.02299335 1.49288604
v -2.00198104 2.06771571 1.47611037
v -2.00199232 2.06773506 1.49279348
v -1.99790617 2.00633131 1.47611037
v -2.00158485 1.99372352 1.49288604
v -2.00153958 1.99367513 1.47611037
v -2.02801478 1.97300725 1.42609187
v -2.00163011 1.99372352 1.38780917
v -2.00056617 1.99745843 1.38780917
v -1.99805330 2.00633131 1.38780917
v -2.01004020 2.07009599 1.38780917
v -2.01341327 2.07121842 1.40941905
v -2.01341327 2.07127648 1.42609187
v -2.01341327 2.07131519 1.44275443
v -2.01341327 2.07140226 1.49279348
v -2.00204891 2.06775442 1.49288604
v -1.99798537 2.00633131 1.49288604
v -2.01334534 1.98836303 1.49288604
v -2.03377619 1.97300725 1.47223273
v -2.02869392 1.97300725 1.45943754
v -2.02813931 1.97300725 1.44275443
v -2.02832038 1.97300725 1.40941905
v -2.03352719 1.97300725 1.39600673
v -2.01341327 1.98809209 1.38780917
v -2.01341327 2.07111198 1.38780917
v -2.01341327 2.07114100 1.39273594
v -2.03008618 2.07164417 1.40941905
v -2.03008618 2.07171189 1.42609187
v -2.03008618 2.07175060 1.44275443
v -2.03008618 2.07185702 1.49288604
v -2.01341327 2.07140226 1.49288604
v -2.02999565 1.98710515 1.49288604
v -2.04675910 1.97300725 1.47692292
v -2.04675910 1.97300725 1.39082282
v -2.02980319 1.98500546 1.38780917
v -2.03008618 2.07152804 1.38780917
v -2.04675910 2.07123777 1.38780917
v -2.04675910 2.07125711 1.39273594
v -2.04675910 2.07131519 1.40941905
v -2.04675910 2.07134419 1.42609187
v -2.04675910 2.07140226 1.49279348
v -2.04675910 2.07140226 1.49288604
v -2.04667989 1.98764701 1.49288604
v -2.11343953 1.97300725 1.47634693
v -2.06342074 1.97300725 1.47678920
v -2.04675910 1.98289610 1.38780917
v -2.06342074 1.97300725 1.39109025
v -2.06342074 2.07083138 1.38780917
v -2.06342074 2.07087008 1.49279348
v -2.06342074 2.07087008 1.49288604
v -2.05965146 1.99311392 1.49288604
v -2.11343953 2.00635066 1.47638806
v -2.11343953 1.97300725 1.39552330
v -2.05977599 1.99319134 1.49288604
v -2.08638706 2.01845532 1.49288604
v -2.09012234 2.02671859 1.49288604
v -2.09014494 2.02683471 1.49288604
v -2.09068827 2.03973278 1.49288604
v -2.06362447 1.98944673 1.38780917
v -2.11343953 1.98964993 1.39175883
v -2.07869011 2.06764798 1.38780917
v -2.07881464 2.06763830 1.49279348
v -2.07881464 2.06763830 1.49288604
v -2.11343953 2.02300303 1.47627492
v -2.08899040 2.05211804 1.49288604
v -2.09528382 2.00784077 1.38780917
v -2.11343953 2.00632163 1.39116224
v -2.10068297 2.02299335 1.38780917
v -2.08703226 2.06214234 1.38780917
v -2.08694167 2.06236489 1.39273594
v -2.08665873 2.06293579 1.40941905
v -2.08697566 2.06326477 1.45943754
v -2.08710013 2.06049744 1.49288604
v -2.11343953 2.04124224 1.45940668
v -2.11343953 2.03587207 1.47193443
v -2.11343953 2.02298366 1.39087426
v -2.09691376 2.03993597 1.38780917
v -2.08991860 2.05625935 1.38780917
v -2.11343953 2.03642360 1.39596560
v -2.11343953 2.04172602 1.40939847
v -2.11343953 2.04191956 1.42607129
v -2.11343953 2.04199697 1.44273386
f 1 2 3
f 1 3 4
f 1 4 5
f 1 5 16
f 1 16 33
f 1 33 32
f 1 32 31
f 1 31 47
f 1 47 58
f 1 58 69
f 1 69 82
f 1 82 89
f 1 89 91
f 1 91 100
f 1 100 101
f 1 101 92
f 1 92 84
f 1 84 71
f 1 71 60
f 1 60 59
f 1 59 48
f 1 48 34
f 1 34 17
f 1 17 6
f 1 6 2
f 2 7 8
f 2 8 3
f 2 6 9
f 2 9 20
f 2 20 7
f 3 8 4
f 4 8 10
f 4 10 11
f 4 11 12
f 4 12 13
f 4 13 14
f 4 14 15
f 4 15 5
f 5 15 16
f 6 17 18
f 6 18 19
f 6 19 9
f 7 20 21
f 7 21 22
f 7 22 23
f 7 23 24
f 7 24 8
f 8 24 10
f 9 19 25
f 9 25 26
f 9 26 20
f 10 27 11
f 10 24 27
f 11 27 28
f 11 28 29
f 11 29 30
f 11 30 12
f 12 30 14
f 12 14 13
f 14 31 15
f 14 30 31
f 15 31 32
f 15 32 33
f 15 33 16
f 17 34 35
f 17 35 36
f 17 36 18
f 18 36 37
f 18 37 38
f 18 38 19
f 19 39 26
f 19 26 25
f 19 38 39
f 20 26 21
f 21 26 22
f 22 26 39
f 22 39 54
f 22 54 53
f 22 53 65
f 22 65 73
f 22 73 86
f 22 86 96
f 22 96 88
f 22 88 81
f 22 81 80
f 22 80 79
f 22 79 78
f 22 78 77
f 22 77 74
f 22 74 66
f 22 66 55
f 22 55 41
f 22 41 28
f 22 28 40
f 22 40 24
f 22 24 23
f 24 40 27
f 27 40 28
f 28 41 42
f 28 42 43
f 28 43 44
f 28 44 30
f 28 30 29
f 30 44 43
f 30 43 42
f 30 42 56
f 30 56 68
f 30 68 67
f 30 67 76
f 30 76 70
f 30 70 57
f 30 57 46
f 30 46 45
f 30 45 31
f 31 45 46
f 31 46 47
f 34 48 49
f 34 49 35
f 35 49 50
f 35 50 51
f 35 51 36
f 36 51 52
f 36 52 37
f 37 52 53
f 37 53 38
f 38 53 54
f 38 54 39
f 41 55 56
f 41 56 42
f 46 57 47
f 47 57 58
f 48 59 49
f 49 59 50
f 50 60 51
f 50 59 60
f 51 60 61
f 51 61 62
f 51 62 52
f 52 62 53
f 53 62 63
f 53 63 64
f 53 64 65
f 55 66 67
f 55 67 68
f 55 68 56
f 57 69 58
f 57 70 69
f 60 71 61
f 61 71 62
f 62 71 63
f 63 71 64
f 64 71 72
f 64 72 73
f 64 73 65
f 66 74 67
f 67 75 87
f 67 87 98
f 67 98 97
f 67 97 105
f 67 105 104
f 67 104 103
f 67 103 102
f 67 102 99
f 67 99 90
f 67 90 83
f 67 83 76
f 67 74 77
f 67 77 78
f 67 78 79
f 67 79 80
f 67 80 81
f 67 81 75
f 69 70 82
f 70 76 83
f 70 83 82
f 71 84 72
f 72 84 85
f 72 85 86
f 72 86 73
f 75 81 87
f 81 88 87
f 82 83 89
f 83 90 91
f 83 91 89
f 84 92 93
f 84 93 94
f 84 94 95
f 84 95 85
f 85 95 86
f 86 95 97
f 86 97 96
f 87 88 96
f 87 96 98
f 90 99 91
f 91 99 100
f 92 101 99
f 92 99 102
f 92 102 103
f 92 103 93
f 93 103 94
f 94 103 104
f 94 104 95
f 95 104 105
f 95 105 97
f 96 97 98
f 99 101 100

