# https://github.com/mikedh/trimesh
v -3.74942413 -0.23779406 0.13109861
v -3.91248467 -0.23779406 0.12627787
v -3.74942413 -0.23779406 0.18032303
v -3.74942413 -0.46119933 0.13249451
v -3.74944010 -0.46358633 0.13250017
v -3.91248467 -0.23779406 0.18386083
v -3.91248467 -0.46283487 0.12794509
v -3.91248467 -0.40720456 0.18401342
v -3.91248467 -0.42386934 0.18397950
v -3.74942413 -0.46358633 0.17941309
v -3.74942413 -0.46358633 0.13936668
v -3.91248467 -0.46358633 0.12795069
v -3.91248467 -0.42767085 0.18396257
v -3.91248467 -0.44053412 0.18389474
v -3.91248467 -0.45719890 0.18379866
v -3.91248467 -0.46358633 0.18375908
f 1 2 6
f 1 6 3
f 1 3 10
f 1 10 11
f 1 11 4
f 1 4 5
f 1 5 2
f 2 5 7
f 2 7 12
f 2 12 16
f 2 16 15
f 2 15 14
f 2 14 13
f 2 13 9
f 2 9 8
f 2 8 6
f 3 6 8
f 3 8 9
f 3 9 10
f 4 11 5
f 5 11 10
f 5 10 16
f 5 16 12
f 5 12 7
f 9 13 10
f 10 13 14
f 10 14 15
f 10 15 16

