# https://github.com/mikedh/trimesh
v -3.03295261 -0.24402687 0.50978595
v -3.09961763 -0.22077848 0.49325897
v -3.03289203 -0.22059270 0.49355127
v -3.03289203 -0.22892604 0.50236341
v -3.03289203 -0.22877564 0.50978595
v -3.23918804 -0.24241683 0.50978595
v -3.23918804 -0.22082270 0.49320771
v -3.11627884 -0.21100318 0.48793373
v -3.09961763 -0.21100318 0.48796961
v -3.23918804 -0.21100318 0.48772601
v -3.03289203 -0.21100318 0.48840288
v -3.03289203 -0.15427993 0.50978595
v -3.23918804 -0.15374915 0.50978595
v -3.14960124 -0.19434536 0.48415190
v -3.13294003 -0.19434536 0.48419297
v -3.03289203 -0.19434536 0.48476470
v -3.23918804 -0.19434536 0.48404426
v -3.18292365 -0.19434536 0.48410833
v -3.03289203 -0.15429761 0.50348131
v -3.03295261 -0.15427108 0.50353257
v -3.04961382 -0.15417378 0.50353257
v -3.04961382 -0.15419145 0.50978595
v -3.23292746 -0.15374030 0.50978595
v -3.23918804 -0.15369607 0.50353257
v -3.14960124 -0.17767870 0.48366737
v -3.13294003 -0.17767870 0.48373401
v -3.03289203 -0.17767870 0.48442114
v -3.23918804 -0.17767870 0.48359555
v -3.03289203 -0.16188784 0.48971050
v -3.13294003 -0.15375797 0.50353257
v -3.13294003 -0.16157822 0.48934899
v -3.13918042 -0.15378453 0.50978595
v -3.17250283 -0.15370492 0.50978595
v -3.23918804 -0.16155170 0.48927467
v -3.16626244 -0.15366067 0.50353257
v -3.14960124 -0.16154285 0.48929773
v -3.16626244 -0.16152515 0.48929517
v -3.14960124 -0.15368722 0.50353257
v -3.14960124 -0.15374030 0.50978595
v -3.16626244 -0.15371375 0.50978595
f 1 2 3
f 1 3 4
f 1 4 5
f 1 5 12
f 1 12 22
f 1 22 32
f 1 32 39
f 1 39 40
f 1 40 33
f 1 33 23
f 1 23 13
f 1 13 6
f 1 6 7
f 1 7 2
f 2 8 9
f 2 9 3
f 2 7 10
f 2 10 8
f 3 11 16
f 3 16 27
f 3 27 29
f 3 29 19
f 3 19 12
f 3 12 5
f 3 5 4
f 3 9 11
f 6 13 24
f 6 24 34
f 6 34 28
f 6 28 17
f 6 17 10
f 6 10 7
f 8 10 14
f 8 14 9
f 9 14 15
f 9 15 16
f 9 16 11
f 10 17 18
f 10 18 14
f 12 19 20
f 12 20 21
f 12 21 22
f 13 23 24
f 14 18 25
f 14 25 15
f 15 26 16
f 15 25 26
f 16 26 27
f 17 28 25
f 17 25 18
f 19 29 21
f 19 21 20
f 21 30 22
f 21 29 31
f 21 31 30
f 22 30 32
f 23 33 24
f 24 33 35
f 24 35 34
f 25 36 31
f 25 31 26
f 25 28 36
f 26 31 29
f 26 29 27
f 28 34 37
f 28 37 36
f 30 31 38
f 30 38 32
f 31 36 38
f 32 38 39
f 33 40 35
f 34 35 37
f 35 36 37
f 35 40 39
f 35 39 38
f 35 38 36

