# https://github.com/mikedh/trimesh
v 1.59072376 -0.25136136 1.55350760
v 1.39079137 -0.25136136 1.55380497
v 1.59072376 -0.25136136 1.60017185
v 1.59072376 -0.56097022 1.55616539
v 1.47412261 -0.67224815 1.55580859
v 1.46869932 -0.67224815 1.55575370
v 1.45745636 -0.67224815 1.55564390
v 1.45203307 -0.67224815 1.55559360
v 1.43536682 -0.67224815 1.55544262
v 1.42412386 -0.67224815 1.55535571
v 1.41870057 -0.67224815 1.55531912
v 1.40745762 -0.67224815 1.55525051
v 1.37765029 -0.67224815 1.55509494
v 1.37765029 -0.66339041 1.55504004
v 1.37765029 -0.66100087 1.55503092
v 1.37765029 -0.64785845 1.55498974
v 1.37765029 -0.25136136 1.55383697
v 1.37765029 -0.25136136 1.60003464
v 1.59072376 -0.26104308 1.60017644
v 1.59072376 -0.57761453 1.55631178
v 1.49076799 -0.67224815 1.55601441
v 1.37765029 -0.67224815 1.59969155
v 1.37765029 -0.41104785 1.60010783
v 1.59072376 -0.41104785 1.60023587
v 1.59072376 -0.59430003 1.55650848
v 1.59072376 -0.67220693 1.55745536
v 1.58534216 -0.67224815 1.55742335
v 1.45745636 -0.67224815 1.59981505
v 1.37765029 -0.62767105 1.59988825
v 1.37765029 -0.42414905 1.60011236
v 1.37765029 -0.44437766 1.60011236
v 1.59072376 -0.56097022 1.60021304
v 1.59072376 -0.67224815 1.59971438
v 1.59072376 -0.67224815 1.60001175
v 1.37765029 -0.62412795 1.59989737
v 1.37765029 -0.46102197 1.60010783
v 1.37765029 -0.52413851 1.60003917
v 1.37765029 -0.61098556 1.59992938
v 1.59072376 -0.62767106 1.60010783
f 1 2 17
f 1 17 18
f 1 18 3
f 1 3 19
f 1 19 24
f 1 24 32
f 1 32 39
f 1 39 34
f 1 34 33
f 1 33 26
f 1 26 25
f 1 25 20
f 1 20 4
f 1 4 5
f 1 5 6
f 1 6 7
f 1 7 8
f 1 8 9
f 1 9 10
f 1 10 11
f 1 11 12
f 1 12 13
f 1 13 14
f 1 14 15
f 1 15 16
f 1 16 2
f 2 16 17
f 3 18 19
f 4 20 5
f 5 21 27
f 5 27 33
f 5 33 34
f 5 34 28
f 5 28 22
f 5 22 13
f 5 13 12
f 5 12 11
f 5 11 10
f 5 10 9
f 5 9 8
f 5 8 7
f 5 7 6
f 5 20 21
f 13 22 29
f 13 29 35
f 13 35 38
f 13 38 37
f 13 37 36
f 13 36 31
f 13 31 30
f 13 30 23
f 13 23 18
f 13 18 17
f 13 17 16
f 13 16 15
f 13 15 14
f 18 23 19
f 19 23 24
f 20 25 21
f 21 26 27
f 21 25 26
f 22 28 29
f 23 30 24
f 24 30 31
f 24 31 32
f 26 33 27
f 28 34 29
f 29 34 35
f 31 36 32
f 32 36 37
f 32 37 38
f 32 38 39
f 34 39 38
f 34 38 35

