# https://github.com/mikedh/trimesh
v -3.76616554 -0.72514887 1.54985892
v -3.76628272 -0.72514887 1.54985892
v -3.90074890 -0.72438122 1.54998767
v -3.90074890 -0.70980193 1.55452457
v -3.78295183 -0.70980193 1.55475739
v -3.76628272 -0.70980193 1.55479703
v -3.75112228 -0.72514887 1.54989850
v -3.90074890 -0.72514887 1.54987376
v -3.90074890 -0.70980193 1.55526755
v -3.75112228 -0.70980193 1.55486140
v -3.75112228 -0.72514887 1.60045342
v -3.90074890 -0.72514887 1.60020576
v -3.90074890 -0.70988606 1.59961137
v -3.89960632 -0.70980193 1.59935877
v -3.75112228 -0.70980193 1.59975997
v -3.78041778 -0.72514887 1.60042862
v -3.81627539 -0.72514887 1.60037414
v -3.81375600 -0.72514887 1.60037909
v -3.81627539 -0.70980193 1.59959653
f 1 2 3
f 1 3 4
f 1 4 5
f 1 5 6
f 1 6 7
f 1 7 11
f 1 11 16
f 1 16 18
f 1 18 17
f 1 17 12
f 1 12 8
f 1 8 2
f 2 8 3
f 3 8 12
f 3 12 13
f 3 13 9
f 3 9 4
f 4 9 14
f 4 14 19
f 4 19 15
f 4 15 10
f 4 10 6
f 4 6 5
f 6 10 7
f 7 10 15
f 7 15 11
f 9 13 14
f 11 15 16
f 12 17 13
f 13 17 18
f 13 18 16
f 13 16 15
f 13 15 19
f 13 19 14

