# https://github.com/mikedh/trimesh
v -1.80851500 -0.74972724 1.89422886
v -1.80851500 -0.73508148 1.92597998
v -1.80851500 -0.79771486 1.89422886
v -1.83658986 -0.73508148 1.89422886
v -1.80851500 -0.73508148 2.00526835
v -1.80851500 -0.80798664 1.91577582
v -1.82040992 -0.80472588 1.89422886
v -1.91753763 -0.73508148 1.89422886
v -1.80851500 -0.76037799 2.00648525
v -1.85673079 -0.73508148 2.00646296
v -1.80851500 -0.81111318 1.92488587
v -1.82954417 -0.80963676 1.89422886
v -1.92693599 -0.74761921 1.89422886
v -1.92693599 -0.74782449 1.92488587
v -1.92693599 -0.74794290 1.94155409
v -1.92689987 -0.74806923 1.95821111
v -1.91658944 -0.73508148 1.96431795
v -1.80851500 -0.77021556 2.00679794
v -1.86534886 -0.73508148 2.00666395
v -1.87337887 -0.73508148 2.00683144
v -1.80851500 -0.81206063 1.93171835
v -1.84867683 -0.81405021 1.89422886
v -1.84601218 -0.81356861 1.89422886
v -1.83201677 -0.81042628 1.89422886
v -1.93050086 -0.76037799 1.89422886
v -1.93056082 -0.76037799 1.92488587
v -1.93057286 -0.76037799 1.94155409
v -1.93048882 -0.76037799 1.95821111
v -1.92674395 -0.74831397 1.97487933
v -1.91632533 -0.73508148 1.97487933
v -1.80851500 -0.77703709 2.00701001
v -1.88200898 -0.73508148 2.00695422
v -1.80851500 -0.81303964 1.94155409
v -1.86534886 -0.81493452 1.89422886
v -1.93100488 -0.77703709 1.89422886
v -1.93110096 -0.77703709 1.92488587
v -1.93113696 -0.77703709 1.94155409
v -1.93107700 -0.77703709 1.95821111
v -1.93094492 -0.77703709 1.97487933
v -1.93023669 -0.76037799 1.97487933
v -1.92944454 -0.76037799 1.99154755
v -1.92613168 -0.74911140 1.99154755
v -1.91556917 -0.73508148 1.98118716
v -1.80851500 -0.78687462 2.00685373
v -1.88200898 -0.77703709 2.00795893
v -1.88200898 -0.79370407 2.00827162
v -1.89005090 -0.73508148 2.00620618
v -1.91534113 -0.76037799 2.00627318
v -1.89866903 -0.76037799 2.00747887
v -1.89866903 -0.77703709 2.00804834
v -1.80851500 -0.81258169 1.97487933
v -1.86534886 -0.81511610 1.97487933
v -1.88200898 -0.81573191 1.90822880
v -1.88200898 -0.81569246 1.89422886
v -1.92952858 -0.79370407 1.89422886
v -1.92956458 -0.79370407 1.90822880
v -1.92972063 -0.79370407 1.97487933
v -1.93042874 -0.77703709 1.99154755
v -1.92625173 -0.76037799 2.00256669
v -1.92497952 -0.75049308 2.00121580
v -1.91426084 -0.73508148 1.99154755
v -1.80851500 -0.79370407 2.00670865
v -1.86534886 -0.79370407 2.00792555
v -1.89866903 -0.79370407 2.00814883
v -1.88200898 -0.80797085 2.00415195
v -1.86534886 -0.80760767 2.00392867
v -1.89866903 -0.73508148 2.00467671
v -1.91534113 -0.77703709 2.00719980
v -1.90571478 -0.73508148 2.00313604
v -1.80851500 -0.81195799 1.98171186
v -1.86534886 -0.81416076 1.99154755
v -1.88200898 -0.81476080 1.99154755
v -1.88200898 -0.81561351 1.97487933
v -1.88200898 -0.81572406 1.92488587
v -1.89866903 -0.81385286 1.97487933
v -1.89866903 -0.81375809 1.90822880
v -1.89600438 -0.81405021 1.89422886
v -1.92575963 -0.80388110 1.89422886
v -1.92592771 -0.80417323 1.97487933
v -1.92561562 -0.80388898 1.99154755
v -1.92906044 -0.79370407 1.99154755
v -1.92682787 -0.77703709 2.00312483
v -1.92602368 -0.79370407 2.00226521
v -1.91045589 -0.73508148 2.00120459
v -1.91328862 -0.73508148 1.99518710
v -1.80851500 -0.80581544 2.00306904
v -1.91534113 -0.79370407 2.00629547
v -1.89866903 -0.80729975 2.00399566
v -1.80851500 -0.81105793 1.99154755
v -1.80851500 -0.80891827 1.99625886
v -1.89866903 -0.81323702 1.99154755
v -1.91534113 -0.80871302 1.99154755
v -1.91534113 -0.80916305 1.97487933
v -1.89866903 -0.81373443 1.89422886
v -1.92409128 -0.80463905 1.89422886
v -1.92473943 -0.80302839 2.00097023
v -1.91534113 -0.80507326 2.00266718
v -1.91534113 -0.80860248 1.89422886
v -1.91267648 -0.80942357 1.89422886
f 1 2 5
f 1 5 9
f 1 9 18
f 1 18 31
f 1 31 44
f 1 44 62
f 1 62 86
f 1 86 90
f 1 90 89
f 1 89 70
f 1 70 51
f 1 51 33
f 1 33 21
f 1 21 11
f 1 11 6
f 1 6 3
f 1 3 7
f 1 7 12
f 1 12 24
f 1 24 23
f 1 23 22
f 1 22 34
f 1 34 54
f 1 54 77
f 1 77 94
f 1 94 99
f 1 99 98
f 1 98 95
f 1 95 78
f 1 78 55
f 1 55 35
f 1 35 25
f 1 25 13
f 1 13 8
f 1 8 4
f 1 4 2
f 2 4 8
f 2 8 17
f 2 17 30
f 2 30 43
f 2 43 61
f 2 61 85
f 2 85 84
f 2 84 69
f 2 69 67
f 2 67 47
f 2 47 32
f 2 32 20
f 2 20 19
f 2 19 10
f 2 10 5
f 3 6 7
f 5 10 9
f 6 11 12
f 6 12 7
f 8 13 14
f 8 14 15
f 8 15 16
f 8 16 17
f 9 10 19
f 9 19 20
f 9 20 18
f 11 21 22
f 11 22 23
f 11 23 24
f 11 24 12
f 13 25 26
f 13 26 27
f 13 27 14
f 14 27 15
f 15 27 16
f 16 27 28
f 16 28 29
f 16 29 17
f 17 29 30
f 18 20 31
f 20 32 31
f 21 33 22
f 22 33 34
f 25 35 36
f 25 36 37
f 25 37 26
f 26 37 27
f 27 37 38
f 27 38 28
f 28 38 39
f 28 39 40
f 28 40 29
f 29 40 41
f 29 41 42
f 29 42 30
f 30 42 43
f 31 32 45
f 31 45 46
f 31 46 44
f 32 47 48
f 32 48 49
f 32 49 50
f 32 50 45
f 33 51 52
f 33 52 53
f 33 53 54
f 33 54 34
f 35 55 36
f 36 55 56
f 36 56 57
f 36 57 37
f 37 57 38
f 38 57 39
f 39 58 40
f 39 57 58
f 40 58 41
f 41 58 59
f 41 59 60
f 41 60 42
f 42 60 61
f 42 61 43
f 44 46 63
f 44 63 62
f 45 50 46
f 46 50 64
f 46 64 65
f 46 65 66
f 46 66 63
f 47 67 48
f 48 68 49
f 48 67 69
f 48 69 60
f 48 60 59
f 48 59 68
f 49 68 50
f 50 68 64
f 51 70 71
f 51 71 52
f 52 71 72
f 52 72 73
f 52 73 74
f 52 74 53
f 53 74 75
f 53 75 76
f 53 76 77
f 53 77 54
f 55 78 79
f 55 79 56
f 56 79 57
f 57 79 80
f 57 80 81
f 57 81 58
f 58 82 59
f 58 81 83
f 58 83 82
f 59 82 68
f 60 69 84
f 60 84 85
f 60 85 61
f 62 66 86
f 62 63 66
f 64 68 87
f 64 87 88
f 64 88 65
f 65 88 72
f 65 72 66
f 66 71 86
f 66 72 71
f 68 82 87
f 70 89 71
f 71 89 90
f 71 90 86
f 72 88 91
f 72 91 73
f 73 91 75
f 73 75 74
f 75 91 92
f 75 92 93
f 75 93 76
f 76 93 94
f 76 94 77
f 78 95 93
f 78 93 79
f 79 93 80
f 80 96 81
f 80 93 92
f 80 92 96
f 81 96 83
f 82 83 87
f 83 96 87
f 87 97 88
f 87 96 97
f 88 97 91
f 91 97 92
f 92 97 96
f 93 98 99
f 93 99 94
f 93 95 98

