# https://github.com/mikedh/trimesh
v -3.37946933 -0.28805066 1.93771463
v -3.46187496 -0.28805066 1.93259353
v -3.37946933 -0.28805066 1.99739086
v -3.37946933 -0.71028482 1.93758725
v -3.46187496 -0.28821601 1.93259353
v -3.52063631 -0.28805066 1.93259353
v -3.38294416 -0.28805066 1.99740361
v -3.39961941 -0.71028482 1.99743544
v -3.38294416 -0.56099843 1.99737810
v -3.37946933 -0.57765470 1.99735903
v -3.37946933 -0.71028482 1.99732076
v -3.46263206 -0.71028482 1.93259353
v -3.57778642 -0.28805066 1.93796300
v -3.51978217 -0.71028482 1.93259353
v -3.39961941 -0.28805066 1.99744820
v -3.41555698 -0.71028482 1.99749278
v -3.57778642 -0.28805066 1.99763285
v -3.57778642 -0.71028482 1.93814140
v -3.44960632 -0.28805066 1.99757551
v -3.43223223 -0.71028482 1.99752461
v -3.54959963 -0.28805066 1.99764561
v -3.57778642 -0.43919694 1.99765836
v -3.57778642 -0.71028482 1.99755012
v -3.46628160 -0.28805066 1.99760734
v -3.44888808 -0.71028482 1.99755012
v -3.52663473 -0.28805066 1.99764561
v -3.57778642 -0.57765470 1.99765836
v -3.54959963 -0.57765470 1.99765836
v -3.49959326 -0.71028482 1.99758195
v -3.57778642 -0.58918595 1.99765193
v -3.48293741 -0.28805066 1.99762010
v -3.46628160 -0.57765470 1.99758195
v -3.46556333 -0.71028482 1.99756276
v -3.49330367 -0.28805066 1.99762654
v -3.49887502 -0.71028482 1.99758195
f 1 2 6
f 1 6 13
f 1 13 17
f 1 17 21
f 1 21 26
f 1 26 34
f 1 34 31
f 1 31 24
f 1 24 19
f 1 19 15
f 1 15 7
f 1 7 3
f 1 3 10
f 1 10 11
f 1 11 4
f 1 4 2
f 2 4 5
f 2 5 12
f 2 12 14
f 2 14 6
f 3 7 8
f 3 8 9
f 3 9 10
f 4 11 8
f 4 8 16
f 4 16 20
f 4 20 25
f 4 25 33
f 4 33 35
f 4 35 29
f 4 29 23
f 4 23 18
f 4 18 14
f 4 14 12
f 4 12 5
f 6 14 13
f 7 15 16
f 7 16 8
f 8 11 10
f 8 10 9
f 13 14 18
f 13 18 23
f 13 23 30
f 13 30 27
f 13 27 22
f 13 22 17
f 15 19 16
f 16 19 24
f 16 24 20
f 17 22 21
f 20 24 25
f 21 22 26
f 22 27 28
f 22 28 26
f 23 29 30
f 24 31 28
f 24 28 32
f 24 32 25
f 25 32 28
f 25 28 33
f 26 28 34
f 27 30 28
f 28 30 35
f 28 35 33
f 28 31 34
f 29 35 30

