# https://github.com/mikedh/trimesh
v -3.39098374 1.79763088 1.76952629
v -3.39098374 2.02298461 1.77011632
v -3.39098374 1.79763088 1.68665240
v -3.23936967 1.79763088 1.77043659
v -3.34754347 2.03346841 1.76928182
v -3.39098374 2.03317986 1.76907111
v -3.23078594 1.79763088 1.77048717
v -3.26412490 2.02298461 1.77077375
v -3.39098374 1.79960260 1.68664399
v -3.38899190 1.79763088 1.68665240
v -3.34754347 2.03914313 1.75962219
v -3.39098374 2.03883055 1.75962219
v -3.36418924 2.03337224 1.76919754
v -3.24747913 2.02298461 1.77084961
v -2.99736575 2.02298461 1.77194540
v -2.98067256 2.02298461 1.77199598
v -2.99736575 2.03452642 1.77000676
v -3.39098374 2.03541609 1.76535390
v -2.99736575 1.79763088 1.77166723
v -2.99736575 1.85622958 1.77175151
v -3.39098374 1.80621510 1.68662711
v -2.94733359 2.02298461 1.68588535
v -3.38088243 1.79763088 1.68666081
v -3.39098374 2.04260566 1.74294963
v -3.39098374 2.04034541 1.75302228
v -2.99736575 2.04034541 1.75962219
v -2.98067256 1.85622958 1.77181055
v -2.96402678 2.02298461 1.77198757
v -2.90654908 2.03455045 1.77000676
v -2.93064040 2.03455045 1.77001517
v -2.98067256 2.03455045 1.77003205
v -2.90654908 1.87291711 1.77183584
v -2.98925627 1.79763088 1.77170093
v -2.98067256 1.79763088 1.77173469
v -3.39098374 1.85622958 1.68650067
v -2.94733359 2.03733973 1.69347143
v -2.93064040 2.02298461 1.68596121
v -2.90654908 1.79763088 1.68774813
v -3.34754347 1.79763088 1.68671979
v -3.35565293 1.79763088 1.68670297
v -3.36418924 1.79763088 1.68668609
v -3.39098374 1.87291711 1.68645850
v -3.39098374 1.88299215 1.68644168
v -3.39098374 2.00629709 1.68624779
v -3.21409275 2.02298461 1.68623938
v -3.21409275 2.03721949 1.69374959
v -3.38088243 2.04262972 1.74294963
v -3.39098374 2.04277399 1.70960453
v -2.98067256 2.04036945 1.75962219
v -2.91034298 1.79763088 1.77174310
v -2.93064040 2.02298461 1.77196228
v -2.90654908 2.02815437 1.77107720
v -2.90654908 2.04036945 1.75962219
v -2.91399463 2.04039350 1.75962219
v -2.90654908 1.79763088 1.77174310
v -2.90654908 2.02298461 1.77193699
v -2.91399463 2.02298461 1.77194540
v -3.01405895 2.04320681 1.70960453
v -2.91399463 2.04327894 1.70960453
v -2.93064040 2.03733973 1.69354729
v -2.91399463 2.03733973 1.69369061
v -2.90654908 2.02298461 1.68618039
v -3.39098374 2.01637212 1.68645009
v -3.39098374 2.02298461 1.68661023
v -3.39098374 2.03712332 1.69422160
v -3.28081809 2.03721949 1.69396031
v -3.28081809 2.04296634 1.70960453
v -3.36418924 2.04265377 1.74294963
v -3.38088243 2.04279804 1.70960453
v -2.98067256 2.04299040 1.74294963
v -2.94733359 2.04301445 1.74294963
v -2.90654908 2.04157173 1.75217096
v -2.90654908 2.04301445 1.74294963
v -2.90654908 2.04323086 1.70960453
v -2.90654908 2.04060991 1.70254949
v -2.90654908 2.03731569 1.69374959
v -2.90654908 2.03091961 1.69036960
f 1 2 6
f 1 6 18
f 1 18 12
f 1 12 25
f 1 25 24
f 1 24 48
f 1 48 65
f 1 65 64
f 1 64 63
f 1 63 44
f 1 44 43
f 1 43 42
f 1 42 35
f 1 35 21
f 1 21 9
f 1 9 3
f 1 3 10
f 1 10 23
f 1 23 41
f 1 41 40
f 1 40 39
f 1 39 38
f 1 38 55
f 1 55 50
f 1 50 34
f 1 34 33
f 1 33 19
f 1 19 7
f 1 7 4
f 1 4 2
f 2 5 6
f 2 4 7
f 2 7 8
f 2 8 5
f 3 9 10
f 5 11 12
f 5 12 13
f 5 13 6
f 5 8 14
f 5 14 15
f 5 15 16
f 5 16 17
f 5 17 11
f 6 13 18
f 7 19 8
f 8 19 20
f 8 20 14
f 9 21 22
f 9 22 10
f 10 22 23
f 11 24 25
f 11 25 12
f 11 17 26
f 11 26 24
f 12 18 13
f 14 20 15
f 15 20 27
f 15 27 16
f 16 28 29
f 16 29 30
f 16 30 31
f 16 31 17
f 16 27 32
f 16 32 28
f 17 31 26
f 19 33 20
f 20 33 34
f 20 34 27
f 21 35 22
f 22 36 60
f 22 60 37
f 22 37 38
f 22 38 39
f 22 39 40
f 22 40 41
f 22 41 23
f 22 35 42
f 22 42 43
f 22 43 44
f 22 44 45
f 22 45 46
f 22 46 36
f 24 47 69
f 24 69 48
f 24 26 47
f 26 31 49
f 26 49 68
f 26 68 47
f 27 34 50
f 27 50 32
f 28 32 51
f 28 51 29
f 29 52 56
f 29 56 32
f 29 32 55
f 29 55 38
f 29 38 62
f 29 62 77
f 29 77 76
f 29 76 75
f 29 75 74
f 29 74 73
f 29 73 72
f 29 72 53
f 29 53 54
f 29 54 30
f 29 51 52
f 30 54 31
f 31 54 49
f 32 50 55
f 32 56 57
f 32 57 51
f 36 58 59
f 36 59 60
f 36 46 58
f 37 60 61
f 37 61 62
f 37 62 38
f 44 63 45
f 45 63 64
f 45 64 46
f 46 64 65
f 46 65 66
f 46 66 67
f 46 67 58
f 47 68 67
f 47 67 69
f 48 69 65
f 49 70 68
f 49 54 71
f 49 71 70
f 51 57 52
f 52 57 56
f 53 72 54
f 54 72 71
f 58 67 68
f 58 68 70
f 58 70 71
f 58 71 59
f 59 71 73
f 59 73 74
f 59 74 75
f 59 75 61
f 59 61 60
f 61 75 76
f 61 76 77
f 61 77 62
f 65 69 66
f 66 69 67
f 71 72 73

