# https://github.com/mikedh/trimesh
v -2.08658066 1.55604396 0.54221541
v -2.08452458 1.57271006 0.54221541
v -2.08446434 1.57271006 0.52553665
v -2.08651183 1.55604396 0.52553665
v -2.08475682 1.53936950 0.54221541
v -2.08476547 1.53936950 0.55889417
v -2.08475682 1.53936950 0.57556025
v -2.08656342 1.55604396 0.55889417
v -2.08650318 1.55604396 0.57556025
v -2.08444717 1.57271006 0.55889417
v -2.07711767 1.58617659 0.54221541
v -2.07708325 1.58625178 0.52553665
v -2.07671330 1.58631862 0.50887054
v -2.08399980 1.57271006 0.50887054
v -2.08562574 1.55973640 0.49587279
v -2.08614188 1.55604396 0.49587279
v -2.08631394 1.55604396 0.50887054
v -2.08449876 1.53936950 0.50887054
v -2.08467941 1.53936950 0.52553665
v -2.07723808 1.52745679 0.50887054
v -2.07731550 1.52749020 0.52553665
v -2.07734991 1.52749020 0.54221541
v -2.07736714 1.52746515 0.57556025
v -2.07729832 1.52744845 0.59223901
v -2.07711767 1.52734819 0.62553309
v -2.08460200 1.53936950 0.59223901
v -2.08429234 1.57271006 0.57556025
v -2.08631394 1.55604396 0.59223901
v -2.07694560 1.58606800 0.57556025
v -2.07705743 1.58612647 0.55889417
v -2.06941821 1.59465585 0.50887054
v -2.06938380 1.59463913 0.49587279
v -2.07100115 1.59279291 0.49587279
v -2.07629181 1.58630191 0.49587279
v -2.08352666 1.57271006 0.49587279
v -2.08430093 1.53936950 0.49587279
v -2.07876078 1.53007991 0.49587279
v -2.07715208 1.52744006 0.49587279
v -2.06342217 1.52340513 0.62553309
v -2.08403421 1.53936950 0.62553309
v -2.08399121 1.57271006 0.59223901
v -2.07673912 1.58599281 0.59223901
v -2.08569457 1.55604396 0.62553309
v -2.06913432 1.59417132 0.60891779
v -2.06916873 1.59433004 0.59223901
v -2.06108220 1.60282598 0.50887054
v -2.06754285 1.59645195 0.49587279
v -2.06079831 1.60280092 0.60891779
v -2.06342217 1.52362233 0.49587279
v -2.04675009 1.52304591 0.62553309
v -2.05973156 1.52353881 0.49587279
v -2.04675009 1.52325477 0.49587279
v -2.08347507 1.57271006 0.60891779
v -2.07640364 1.58583409 0.60891779
v -2.08276964 1.57271006 0.62553309
v -2.06897949 1.59374525 0.62553309
v -2.06064348 1.60280928 0.62553309
v -2.04675009 1.60803885 0.50887054
v -2.06104779 1.60269233 0.49587279
v -2.04675009 1.60810568 0.62553309
v -2.03007807 1.52287047 0.62553309
v -2.04305954 1.52319629 0.49587279
v -2.03007807 1.52302085 0.49587279
v -2.07575844 1.58540803 0.62553309
v -2.03007807 1.60808897 0.50887054
v -2.03376862 1.60794695 0.49587279
v -2.04675009 1.60783835 0.49587279
v -2.03007807 1.60820592 0.62553309
v -2.01340600 1.52392308 0.62553309
v -2.01340600 1.52388965 0.49587279
v -2.01340600 1.60672728 0.50887054
v -2.01340600 1.60664374 0.49587279
v -2.01709654 1.60694448 0.49587279
v -2.03007807 1.60795530 0.49587279
v -2.01340600 1.60677741 0.62553309
v -2.00227412 1.52804992 0.60891779
v -2.00227412 1.52807498 0.62553309
v -2.00217947 1.52794133 0.49587279
v -2.00205041 1.60156455 0.49587279
v -2.00456244 1.60270069 0.49587279
v -2.00202464 1.60158961 0.62553309
v -1.99907389 1.53936950 0.60891779
v -1.99908247 1.53941963 0.62553309
v -1.99965026 1.53684661 0.49587279
v -2.00136220 1.59886623 0.49587279
v -1.99889323 1.58942629 0.62553309
v -1.99894482 1.53936950 0.49587279
v -1.99874699 1.55609408 0.62553309
v -1.99896206 1.58939286 0.49587279
v -1.99880723 1.57276854 0.62553309
v -1.99870399 1.55604396 0.49587279
v -1.99892765 1.58570042 0.49587279
v -1.99875558 1.55235152 0.49587279
f 1 2 3
f 1 3 4
f 1 4 5
f 1 5 6
f 1 6 7
f 1 7 8
f 1 8 2
f 2 8 9
f 2 9 10
f 2 10 11
f 2 11 12
f 2 12 3
f 3 12 13
f 3 13 14
f 3 14 15
f 3 15 16
f 3 16 17
f 3 17 4
f 4 17 18
f 4 18 19
f 4 19 5
f 5 19 20
f 5 20 21
f 5 21 22
f 5 22 23
f 5 23 6
f 6 23 7
f 7 9 8
f 7 23 24
f 7 24 25
f 7 25 26
f 7 26 9
f 9 27 10
f 9 26 28
f 9 28 27
f 10 27 29
f 10 29 30
f 10 30 11
f 11 31 12
f 11 30 31
f 12 31 32
f 12 32 33
f 12 33 13
f 13 33 34
f 13 34 14
f 14 34 35
f 14 35 15
f 15 35 34
f 15 34 33
f 15 33 32
f 15 32 47
f 15 47 59
f 15 59 67
f 15 67 66
f 15 66 74
f 15 74 73
f 15 73 72
f 15 72 80
f 15 80 79
f 15 79 85
f 15 85 89
f 15 89 92
f 15 92 91
f 15 91 93
f 15 93 87
f 15 87 84
f 15 84 78
f 15 78 70
f 15 70 63
f 15 63 62
f 15 62 52
f 15 52 51
f 15 51 49
f 15 49 38
f 15 38 37
f 15 37 36
f 15 36 16
f 16 36 18
f 16 18 17
f 18 36 37
f 18 37 19
f 19 37 38
f 19 38 20
f 20 22 21
f 20 38 25
f 20 25 23
f 20 23 22
f 23 25 24
f 25 39 50
f 25 50 61
f 25 61 69
f 25 69 77
f 25 77 83
f 25 83 88
f 25 88 90
f 25 90 86
f 25 86 81
f 25 81 75
f 25 75 68
f 25 68 60
f 25 60 57
f 25 57 56
f 25 56 64
f 25 64 55
f 25 55 43
f 25 43 40
f 25 40 26
f 25 38 39
f 26 40 28
f 27 28 41
f 27 41 42
f 27 42 29
f 28 40 43
f 28 43 41
f 29 42 44
f 29 44 45
f 29 45 30
f 30 45 31
f 31 46 47
f 31 47 32
f 31 45 48
f 31 48 46
f 38 49 39
f 39 49 51
f 39 51 52
f 39 52 50
f 41 43 53
f 41 53 54
f 41 54 42
f 42 54 44
f 43 55 53
f 44 54 56
f 44 56 57
f 44 57 45
f 45 57 48
f 46 58 59
f 46 59 47
f 46 48 60
f 46 60 58
f 48 57 60
f 50 52 62
f 50 62 63
f 50 63 61
f 53 55 54
f 54 55 64
f 54 64 56
f 58 65 66
f 58 66 67
f 58 67 59
f 58 60 68
f 58 68 65
f 61 63 70
f 61 70 69
f 65 71 72
f 65 72 73
f 65 73 74
f 65 74 66
f 65 68 71
f 68 75 71
f 69 76 77
f 69 70 78
f 69 78 76
f 71 79 80
f 71 80 72
f 71 75 79
f 75 81 79
f 76 78 77
f 77 82 83
f 77 78 84
f 77 84 82
f 79 81 86
f 79 86 85
f 82 84 87
f 82 87 83
f 83 87 88
f 85 86 89
f 86 90 91
f 86 91 92
f 86 92 89
f 87 93 88
f 88 93 91
f 88 91 90

