# https://github.com/mikedh/trimesh
v -1.91022969 -0.46618535 0.72538029
v -1.91022969 -0.46618535 0.72486366
v -1.84377234 -0.46618535 0.72538029
v -1.91039694 -0.22087023 0.72538029
v -1.91040361 -0.22087023 0.72486366
v -1.91008914 -0.46618535 0.49156141
v -1.91039694 -0.22087023 0.70819082
v -1.91033000 -0.22087023 0.54155645
v -1.84510374 -0.46618535 0.48547936
v -1.84205285 -0.22087023 0.72538029
v -1.91008246 -0.46618535 0.48547936
v -1.91032333 -0.22087023 0.53108308
v -1.91028989 -0.22087023 0.48547936
v -1.84394626 -0.22087023 0.48547936
f 1 2 6
f 1 6 11
f 1 11 9
f 1 9 3
f 1 3 10
f 1 10 4
f 1 4 5
f 1 5 2
f 2 5 7
f 2 7 8
f 2 8 6
f 3 9 10
f 4 10 14
f 4 14 13
f 4 13 12
f 4 12 8
f 4 8 7
f 4 7 5
f 6 8 12
f 6 12 13
f 6 13 11
f 9 11 13
f 9 13 14
f 9 14 10

