# https://github.com/mikedh/trimesh
v -3.96868324 -0.71347262 0.20367578
v -3.92869696 -0.71347262 0.20367578
v -3.97029180 -0.71342371 0.20367578
v -3.97030020 -0.71347262 0.20352283
v -3.89961682 -0.71347262 0.18235037
v -3.89960835 -0.71344815 0.18235037
v -3.92869696 -0.67766493 0.20367578
v -3.98300015 -0.71347262 0.17018002
v -3.96943277 -0.61827895 0.20367578
v -3.96948332 -0.46360148 0.20357743
v -3.98256223 -0.46360148 0.17019093
v -3.98258744 -0.47768975 0.17019093
v -3.98270534 -0.54433999 0.17019093
v -3.89960835 -0.71347262 0.12728883
v -3.92889068 -0.61837679 0.20367578
v -3.89959995 -0.61827895 0.18102845
v -3.89959995 -0.46360148 0.18025281
v -3.92961494 -0.46365040 0.20357743
v -3.98551823 -0.71347262 0.15351956
v -3.98524875 -0.52768355 0.15351956
v -3.96863269 -0.61827895 0.20367578
v -3.96865796 -0.46360148 0.20357743
v -3.98501289 -0.46360148 0.15351956
v -3.98518980 -0.51102710 0.15351956
v -3.89959995 -0.61827895 0.13220506
v -3.93816297 -0.71347262 0.09667725
v -3.93440689 -0.46360148 0.10392047
v -3.89959995 -0.46360148 0.13217228
v -3.92961494 -0.46360148 0.20352283
v -3.98554350 -0.71347262 0.15105053
v -3.98510558 -0.46360148 0.13688091
v -3.98511398 -0.46360148 0.13429172
v -3.98529083 -0.52768355 0.13688091
v -3.98563612 -0.71347262 0.13441188
v -3.98502976 -0.46360148 0.15094128
v -3.94143058 -0.71347262 0.09423010
v -3.94959964 -0.46360148 0.09583605
v -3.98513079 -0.46360148 0.12020953
v -3.98525715 -0.52768355 0.12020953
v -3.98542560 -0.71347262 0.11776233
v -3.94959964 -0.71347262 0.09206698
v -3.97435943 -0.46360148 0.09520244
v -3.97987565 -0.46360148 0.10353810
v -3.98049047 -0.71347262 0.10197585
v -3.96428712 -0.71347262 0.09228549
v -3.97456155 -0.46360148 0.09520244
v -3.97906716 -0.46360148 0.10224896
v -3.97959777 -0.71347262 0.09916815
v -3.96626619 -0.71347262 0.09237287
v -3.97462050 -0.47768975 0.09519148
v -3.97617012 -0.71347262 0.09654618
v -3.97461210 -0.50557279 0.09520244
v -3.97075499 -0.71347262 0.09397881
f 1 2 7
f 1 7 15
f 1 15 21
f 1 21 9
f 1 9 3
f 1 3 4
f 1 4 8
f 1 8 19
f 1 19 30
f 1 30 34
f 1 34 40
f 1 40 44
f 1 44 48
f 1 48 51
f 1 51 53
f 1 53 49
f 1 49 45
f 1 45 41
f 1 41 36
f 1 36 26
f 1 26 14
f 1 14 5
f 1 5 2
f 2 5 6
f 2 6 7
f 3 8 4
f 3 9 10
f 3 10 11
f 3 11 12
f 3 12 13
f 3 13 8
f 5 14 6
f 6 15 7
f 6 14 16
f 6 16 17
f 6 17 18
f 6 18 15
f 8 13 20
f 8 20 19
f 9 21 22
f 9 22 10
f 10 22 29
f 10 29 17
f 10 17 28
f 10 28 27
f 10 27 37
f 10 37 42
f 10 42 46
f 10 46 47
f 10 47 43
f 10 43 38
f 10 38 32
f 10 32 31
f 10 31 35
f 10 35 23
f 10 23 11
f 11 23 24
f 11 24 20
f 11 20 12
f 12 20 13
f 14 25 16
f 14 26 27
f 14 27 28
f 14 28 25
f 15 18 21
f 16 25 28
f 16 28 17
f 17 29 18
f 18 29 22
f 18 22 21
f 19 20 30
f 20 24 31
f 20 31 32
f 20 32 33
f 20 33 34
f 20 34 30
f 23 35 24
f 24 35 31
f 26 36 27
f 27 36 37
f 32 38 33
f 33 38 39
f 33 39 34
f 34 39 40
f 36 41 37
f 37 41 42
f 38 43 44
f 38 44 40
f 38 40 39
f 41 45 46
f 41 46 42
f 43 47 48
f 43 48 44
f 45 49 46
f 46 49 50
f 46 50 48
f 46 48 47
f 48 50 52
f 48 52 51
f 49 53 52
f 49 52 50
f 51 52 53

