# https://github.com/mikedh/trimesh
v -2.61374868 1.96838080 0.11831628
v -2.59839751 1.96838080 0.11832081
v -2.86960122 1.94531963 0.12088742
v -2.88055604 1.94531963 0.12088742
v -2.86390762 1.96838080 0.11849705
v -2.58160493 1.96838080 0.11833888
v -2.23025811 1.94531963 0.12141608
v -2.58037972 1.94531963 0.12104559
v -2.89720447 1.94531963 0.12090549
v -2.90297018 1.94531963 0.12091903
v -2.88055604 1.96838080 0.11853773
v -2.17022285 1.96838080 0.11909806
v -2.17022285 1.94531963 0.12149290
v -2.21923120 1.94531963 0.12142968
v -2.90650166 1.94531963 0.12093263
v -2.90650166 1.96838080 0.11868683
v -2.17022285 1.96838080 0.16355256
v -2.17022285 1.94531963 0.16206594
v -2.90650166 1.94531963 0.15913785
v -2.90650166 1.96838080 0.16298322
v -2.17317778 1.96838080 0.16375140
v -2.17915968 1.96838080 0.16415350
v -2.23025811 1.96838080 0.16427553
v -2.29692393 1.96838080 0.16437042
v -2.31364444 1.96838080 0.16438849
v -2.68041448 1.96838080 0.16447437
v -2.17678137 1.94531963 0.16206594
v -2.74715235 1.94531963 0.16155982
v -2.74715235 1.96838080 0.16431621
v -2.73050392 1.94531963 0.16173606
v -2.69713499 1.96838080 0.16446984
v -2.69713499 1.94531963 0.16181288
v -2.73050392 1.96838080 0.16438849
v -2.71378341 1.94531963 0.16179934
f 1 2 3
f 1 3 4
f 1 4 5
f 1 5 11
f 1 11 16
f 1 16 20
f 1 20 29
f 1 29 33
f 1 33 31
f 1 31 26
f 1 26 25
f 1 25 24
f 1 24 23
f 1 23 22
f 1 22 21
f 1 21 17
f 1 17 12
f 1 12 6
f 1 6 2
f 2 6 7
f 2 7 8
f 2 8 3
f 3 8 7
f 3 7 14
f 3 14 13
f 3 13 18
f 3 18 27
f 3 27 32
f 3 32 34
f 3 34 30
f 3 30 28
f 3 28 19
f 3 19 15
f 3 15 10
f 3 10 9
f 3 9 4
f 4 9 5
f 5 9 10
f 5 10 11
f 6 12 13
f 6 13 14
f 6 14 7
f 10 15 11
f 11 15 16
f 12 17 18
f 12 18 13
f 15 19 20
f 15 20 16
f 17 21 18
f 18 21 22
f 18 22 23
f 18 23 24
f 18 24 25
f 18 25 26
f 18 26 27
f 19 28 20
f 20 28 30
f 20 30 29
f 26 31 27
f 27 31 32
f 29 30 33
f 30 34 33
f 31 33 34
f 31 34 32

