# https://github.com/mikedh/trimesh
v -2.55861008 -0.24423498 1.16383661
v -2.94367981 -0.24423498 1.16019336
v -2.55861008 -0.24423498 1.22126158
v -2.55861008 -0.56100764 1.16472772
v -2.94367981 -0.34410457 1.16051465
v -2.94367981 -0.24423498 1.22122522
v -2.64964712 -0.24423498 1.22178292
v -2.55861008 -0.26100965 1.22128584
v -2.55861008 -0.57762662 1.16479440
v -2.94367981 -0.39590755 1.16078138
v -2.83288981 -0.24423498 1.22179505
v -2.94367981 -0.64176734 1.22211632
v -2.66615819 -0.24423498 1.22183141
v -2.64964712 -0.24435175 1.22178292
v -2.55861008 -0.64176734 1.22137677
v -2.55861008 -0.27770648 1.22129796
v -2.55861008 -0.59428452 1.16490351
v -2.55861008 -0.60195182 1.16496413
v -2.64964712 -0.64176734 1.16469741
v -2.94367981 -0.56046275 1.16213320
v -2.81622795 -0.24423498 1.22183747
v -2.94367981 -0.64176734 1.16317585
v -2.89704925 -0.64176734 1.22210420
v -2.69948189 -0.24423498 1.22185567
v -2.69963269 -0.24423498 1.22185567
v -2.68282006 -0.24423498 1.22184960
v -2.88291306 -0.64176734 1.22209814
v -2.71373118 -0.64176734 1.22186778
v -2.69963269 -0.64176734 1.22184354
v -2.68297083 -0.64176734 1.22181323
v -2.66630896 -0.64176734 1.22177685
v -2.66378331 -0.64176734 1.22177079
v -2.64964712 -0.64176734 1.22172836
v -2.55861008 -0.64176734 1.16532179
v -2.94367981 -0.57762662 1.16230899
v -2.66630896 -0.64176734 1.16460042
v -2.94367981 -0.59428452 1.16252117
v -2.94367981 -0.57863855 1.16232112
f 1 2 6
f 1 6 11
f 1 11 21
f 1 21 25
f 1 25 24
f 1 24 26
f 1 26 13
f 1 13 7
f 1 7 3
f 1 3 8
f 1 8 16
f 1 16 15
f 1 15 34
f 1 34 18
f 1 18 17
f 1 17 9
f 1 9 4
f 1 4 2
f 2 4 5
f 2 5 10
f 2 10 20
f 2 20 35
f 2 35 38
f 2 38 37
f 2 37 22
f 2 22 12
f 2 12 6
f 3 7 8
f 4 9 5
f 5 9 10
f 6 12 11
f 7 13 14
f 7 14 15
f 7 15 16
f 7 16 8
f 9 17 10
f 10 17 18
f 10 18 19
f 10 19 20
f 11 12 21
f 12 22 36
f 12 36 19
f 12 19 34
f 12 34 15
f 12 15 33
f 12 33 32
f 12 32 31
f 12 31 30
f 12 30 29
f 12 29 28
f 12 28 27
f 12 27 23
f 12 23 24
f 12 24 25
f 12 25 21
f 13 26 27
f 13 27 28
f 13 28 29
f 13 29 30
f 13 30 31
f 13 31 32
f 13 32 14
f 14 32 33
f 14 33 15
f 18 34 19
f 19 35 20
f 19 36 35
f 22 37 36
f 23 27 26
f 23 26 24
f 35 36 38
f 36 37 38

