# https://github.com/mikedh/trimesh
v 0.35754734 -0.72515168 1.54985893
v 0.35743015 -0.72515168 1.54985893
v 0.22296403 -0.72438402 1.54998768
v 0.22296403 -0.70980473 1.55452458
v 0.34076104 -0.70980473 1.55475740
v 0.35743015 -0.70980473 1.55479703
v 0.37260520 -0.72515168 1.54989851
v 0.22296403 -0.72515168 1.54987377
v 0.22296403 -0.70980473 1.55526756
v 0.37260520 -0.70980473 1.55486141
v 0.37260520 -0.72515168 1.60045342
v 0.22296403 -0.72515168 1.60020577
v 0.22296403 -0.70988886 1.59961138
v 0.22410656 -0.70980473 1.59935878
v 0.37260520 -0.70980473 1.59975998
v 0.34329509 -0.72515168 1.60042863
v 0.30743749 -0.72515168 1.60037415
v 0.30995688 -0.72515168 1.60037910
v 0.30743749 -0.70980473 1.59959654
f 1 2 3
f 1 3 4
f 1 4 5
f 1 5 6
f 1 6 7
f 1 7 11
f 1 11 16
f 1 16 18
f 1 18 17
f 1 17 12
f 1 12 8
f 1 8 2
f 2 8 3
f 3 8 12
f 3 12 13
f 3 13 9
f 3 9 4
f 4 9 14
f 4 14 19
f 4 19 15
f 4 15 10
f 4 10 6
f 4 6 5
f 6 10 7
f 7 10 15
f 7 15 11
f 9 13 14
f 11 15 16
f 12 17 13
f 13 17 18
f 13 18 16
f 13 16 15
f 13 15 19
f 13 19 14

