# https://github.com/mikedh/trimesh
v 0.15634333 -0.70948700 1.25342174
v 0.14564677 -0.70948700 1.21622701
v 0.19632251 -0.70948700 1.25342174
v 0.15667665 -0.24444882 1.25342174
v 0.14562115 -0.24440330 1.21604442
v 0.14258969 -0.70948700 1.20467211
v 0.14211542 -0.24440330 1.20347229
v 0.20707040 -0.70948700 1.22527790
v 0.20707040 -0.69432717 1.22638643
v 0.19671346 -0.69432717 1.25342174
v 0.19532277 -0.24440330 1.25342174
v 0.15643948 -0.24440330 1.23681974
v 0.14228850 -0.70948700 1.20352444
v 0.14162839 -0.24440330 1.15349673
v 0.14159632 -0.70948700 1.15356194
v 0.20707040 -0.70948700 1.15836125
v 0.20707040 -0.67766501 1.22692115
v 0.19686731 -0.67766501 1.25342174
v 0.19557913 -0.24440330 1.25342174
v 0.14526865 -0.24440330 1.13968563
v 0.14522376 -0.70948700 1.14061159
v 0.19589956 -0.70948700 1.12021447
v 0.19645073 -0.69432717 1.12021447
v 0.19677760 -0.67761948 1.12021447
v 0.20707040 -0.69874309 1.15793089
v 0.20707040 -0.66510011 1.22685594
v 0.19686731 -0.67752844 1.25342174
v 0.20707040 -0.24440330 1.22368681
v 0.15471546 -0.24440330 1.12021447
v 0.15563195 -0.70948700 1.12021447
v 0.19634821 -0.51095236 1.12021447
v 0.20707040 -0.24440330 1.15730489
v 0.20707040 -0.67766501 1.15755268
v 0.20707040 -0.68176226 1.15759180
v 0.19564958 -0.24440330 1.12021447
f 1 2 6
f 1 6 13
f 1 13 15
f 1 15 21
f 1 21 30
f 1 30 22
f 1 22 16
f 1 16 8
f 1 8 3
f 1 3 10
f 1 10 18
f 1 18 27
f 1 27 19
f 1 19 11
f 1 11 4
f 1 4 5
f 1 5 2
f 2 5 7
f 2 7 6
f 3 8 9
f 3 9 10
f 4 11 12
f 4 12 5
f 5 12 11
f 5 11 19
f 5 19 28
f 5 28 32
f 5 32 35
f 5 35 29
f 5 29 20
f 5 20 14
f 5 14 7
f 6 7 13
f 7 14 15
f 7 15 13
f 8 16 25
f 8 25 34
f 8 34 33
f 8 33 32
f 8 32 28
f 8 28 26
f 8 26 17
f 8 17 9
f 9 17 10
f 10 17 18
f 14 20 15
f 15 20 21
f 16 22 23
f 16 23 24
f 16 24 25
f 17 26 27
f 17 27 18
f 19 27 28
f 20 29 21
f 21 29 30
f 22 30 29
f 22 29 35
f 22 35 31
f 22 31 24
f 22 24 23
f 24 31 32
f 24 32 33
f 24 33 34
f 24 34 25
f 26 28 27
f 31 35 32

