# https://github.com/mikedh/trimesh
v -3.74942288 -0.46360148 0.13937002
v -3.74942288 -0.46360148 0.17941023
v -3.74942288 -0.47768975 0.13253700
v -3.74945226 -0.46360148 0.13250458
v -3.89959995 -0.46360148 0.18026503
v -3.78294259 -0.71347262 0.18238584
v -3.74942288 -0.71347262 0.18210450
v -3.74942288 -0.71347262 0.12767335
v -3.89959995 -0.46360148 0.13216370
v -3.74962869 -0.71347262 0.12766250
v -3.76628564 -0.71347262 0.12730540
v -3.78294259 -0.71347262 0.12718643
v -3.89959995 -0.61827895 0.18103870
v -3.89958522 -0.71344815 0.18236420
v -3.81628588 -0.71347262 0.18243448
v -3.79961420 -0.71347262 0.18243448
v -3.78702960 -0.71347262 0.12718101
v -3.81628588 -0.71347262 0.12717016
v -3.83292810 -0.71347262 0.12719180
v -3.89958522 -0.71347262 0.12729461
v -3.89959995 -0.61827895 0.13219076
v -3.88554518 -0.71347262 0.18221811
v -3.81888806 -0.71347262 0.18242911
f 1 2 7
f 1 7 8
f 1 8 3
f 1 3 4
f 1 4 9
f 1 9 5
f 1 5 2
f 2 5 6
f 2 6 7
f 3 8 4
f 4 8 10
f 4 10 11
f 4 11 12
f 4 12 9
f 5 9 21
f 5 21 13
f 5 13 14
f 5 14 15
f 5 15 16
f 5 16 6
f 6 16 15
f 6 15 23
f 6 23 22
f 6 22 20
f 6 20 19
f 6 19 18
f 6 18 17
f 6 17 12
f 6 12 11
f 6 11 10
f 6 10 8
f 6 8 7
f 9 12 17
f 9 17 18
f 9 18 19
f 9 19 20
f 9 20 21
f 13 21 20
f 13 20 14
f 14 20 22
f 14 22 23
f 14 23 15

