# https://github.com/mikedh/trimesh
v 2.10679131 -0.71679511 0.08944320
v 2.09079007 -0.71679511 0.09060187
v 2.11950263 -0.71679511 0.09191509
v 2.10744208 -0.73118849 0.00354608
v 2.09079728 -0.73116325 0.00354608
v 2.08267740 -0.71679511 0.09342137
v 2.12666091 -0.71679511 0.10357915
v 2.13343593 -0.73514833 -0.00599378
v 2.12410850 -0.73203763 0.00354608
v 2.12410850 -0.73427398 -0.00699800
v 2.10744208 -0.73387043 -0.00738412
v 2.09079728 -0.73387883 -0.00730688
v 2.08034915 -0.73457663 -0.00645726
v 2.07691459 -0.71679511 0.09751541
v 2.08107217 -0.71679511 0.09407798
v 2.13138247 -0.71679511 0.12022555
v 2.13504837 -0.74435437 -0.00769312
v 2.12410850 -0.74435437 -0.01101467
v 2.13426026 -0.73446734 0.00354608
v 2.13812136 -0.74435437 0.00354608
v 2.10744208 -0.74435437 -0.01132367
v 2.09079728 -0.74435437 -0.01113054
v 2.07789074 -0.74435437 -0.00792486
v 2.07248229 -0.74435437 0.00354608
v 2.07896084 -0.73355935 0.00354608
v 2.06750765 -0.71679511 0.11508878
v 2.06950330 -0.71679511 0.11095612
v 2.13149817 -0.71679511 0.13691064
v 2.13907577 -0.74435437 0.03687757
v 2.13880826 -0.74435437 0.02023117
v 2.14065208 -0.76101773 0.00354608
v 2.13643656 -0.76101773 -0.00896771
v 2.12410850 -0.76101773 -0.01298450
v 2.09079728 -0.76101773 -0.01255964
v 2.07611201 -0.76101773 -0.00858147
v 2.06863563 -0.76101773 0.00354608
v 2.06760166 -0.76101773 0.02023117
v 2.06750765 -0.72903621 0.09415517
v 2.06750765 -0.71679511 0.19009426
v 2.13151259 -0.71679511 0.14417173
v 2.13898898 -0.74435437 0.05356259
v 2.14113643 -0.76101773 0.05356259
v 2.14117267 -0.76101773 0.03687757
v 2.14098467 -0.76101773 0.02023117
v 2.13148368 -0.71679511 0.15355710
v 2.14093402 -0.77766428 0.00354608
v 2.13662456 -0.77766428 -0.00900634
v 2.12410850 -0.77766428 -0.01302313
v 2.09079728 -0.77766428 -0.01283001
v 2.07642292 -0.77766428 -0.00873597
v 2.06918512 -0.77766428 0.00354608
v 2.06796316 -0.77766428 0.02023117
v 2.06750765 -0.79021646 0.08979082
v 2.06750765 -0.77767268 0.07739290
v 2.06750765 -0.76433022 0.07839706
v 2.06750765 -0.76100092 0.07897643
v 2.06750765 -0.74435437 0.08422913
v 2.06750765 -0.74243750 0.08523329
v 2.06750765 -0.73194515 0.09160609
v 2.06750765 -0.72743039 0.38150890
v 2.07319809 -0.71679511 0.38150890
v 2.13770925 -0.75614990 0.38150890
v 2.13881553 -0.76100092 0.38150890
v 2.14137508 -0.77766428 0.05356259
v 2.13945176 -0.77235084 0.38150890
v 2.13973381 -0.77767268 0.38150890
v 2.14124492 -0.77766428 0.03687757
v 2.14109316 -0.77766428 0.02023117
v 2.13116551 -0.71679511 0.16027745
v 2.13154877 -0.73767055 0.38150890
v 2.13532315 -0.74600221 0.38150890
v 2.13659571 -0.79264617 0.00354608
v 2.13517127 -0.79017441 -0.00750000
v 2.13671135 -0.79312540 0.02023117
v 2.12410850 -0.79287318 -0.00881322
v 2.10744208 -0.79354576 -0.00881322
v 2.09079728 -0.79320107 -0.00885184
v 2.07889581 -0.79052751 -0.00750000
v 2.07653139 -0.79319266 0.00354608
v 2.06750765 -0.79379798 0.10303842
v 2.06750765 -0.78533179 0.38150890
v 2.11776008 -0.71679511 0.38150890
v 2.13691389 -0.79324309 0.05356259
v 2.13681982 -0.79324309 0.03687757
v 2.13623414 -0.79328514 0.38150890
v 2.13691389 -0.79316742 0.07024767
v 2.12248164 -0.80096943 0.00516824
v 2.12410850 -0.80156635 0.03687757
v 2.10892434 -0.80198674 0.00516824
v 2.09079728 -0.80110396 0.00354608
v 2.06750765 -0.79540377 0.12022555
v 2.07548294 -0.79280591 0.38150890
v 2.06750765 -0.79522722 0.15355710
v 2.13628482 -0.79332716 0.33682228
v 2.12411570 -0.80161680 0.37015376
v 2.12411570 -0.80165045 0.33682228
v 2.12411570 -0.80165045 0.32017582
v 2.12411570 -0.80159999 0.38150890
v 2.13625584 -0.79331876 0.35350736
v 2.11582953 -0.80268454 0.01181135
v 2.12248164 -0.80170088 0.02142846
v 2.11546075 -0.80268454 0.01181135
v 2.09079728 -0.80196990 0.02023117
v 2.07412365 -0.79732065 0.12022555
v 2.09079007 -0.80087695 0.38150890
v 2.09079728 -0.80213805 0.03687757
v 2.08588773 -0.79830431 0.38150890
v 2.11582953 -0.80268454 0.01671649
v 2.10744208 -0.80239867 0.38150890
v 2.11546075 -0.80268454 0.01671649
v 2.10892434 -0.80256685 0.02142846
v 2.09079007 -0.80212124 0.10357915
v 2.09079007 -0.80210443 0.12022555
v 2.10744208 -0.80250799 0.13691064
f 1 2 6
f 1 6 15
f 1 15 14
f 1 14 27
f 1 27 26
f 1 26 39
f 1 39 61
f 1 61 82
f 1 82 69
f 1 69 45
f 1 45 40
f 1 40 28
f 1 28 16
f 1 16 7
f 1 7 3
f 1 3 4
f 1 4 5
f 1 5 2
f 2 5 6
f 3 7 8
f 3 8 9
f 3 9 4
f 4 9 10
f 4 10 11
f 4 11 5
f 5 11 12
f 5 12 13
f 5 13 14
f 5 14 15
f 5 15 6
f 7 16 8
f 8 17 18
f 8 18 10
f 8 10 9
f 8 16 19
f 8 19 20
f 8 20 17
f 10 18 11
f 11 18 21
f 11 21 12
f 12 21 22
f 12 22 13
f 13 22 23
f 13 23 24
f 13 24 25
f 13 25 26
f 13 26 27
f 13 27 14
f 16 28 29
f 16 29 30
f 16 30 19
f 17 20 31
f 17 31 32
f 17 32 33
f 17 33 18
f 18 33 21
f 19 30 20
f 20 30 31
f 21 33 22
f 22 33 34
f 22 34 23
f 23 35 36
f 23 36 24
f 23 34 35
f 24 36 26
f 24 26 25
f 26 36 37
f 26 37 38
f 26 38 59
f 26 59 58
f 26 58 57
f 26 57 56
f 26 56 55
f 26 55 54
f 26 54 53
f 26 53 80
f 26 80 91
f 26 91 93
f 26 93 81
f 26 81 60
f 26 60 39
f 28 40 29
f 29 41 42
f 29 42 43
f 29 43 44
f 29 44 30
f 29 40 45
f 29 45 41
f 30 44 31
f 31 46 32
f 31 44 46
f 32 47 33
f 32 46 47
f 33 48 49
f 33 49 34
f 33 47 48
f 34 49 35
f 35 49 50
f 35 50 36
f 36 50 51
f 36 51 52
f 36 52 37
f 37 52 53
f 37 53 54
f 37 54 55
f 37 55 56
f 37 56 57
f 37 57 58
f 37 58 59
f 37 59 38
f 39 60 61
f 41 45 62
f 41 62 63
f 41 63 42
f 42 64 43
f 42 63 65
f 42 65 66
f 42 66 64
f 43 64 67
f 43 67 68
f 43 68 46
f 43 46 44
f 45 69 70
f 45 70 71
f 45 71 62
f 46 72 73
f 46 73 47
f 46 68 74
f 46 74 72
f 47 73 48
f 48 73 75
f 48 75 76
f 48 76 77
f 48 77 49
f 49 77 78
f 49 78 50
f 50 78 51
f 51 78 79
f 51 79 80
f 51 80 52
f 52 80 53
f 60 81 92
f 60 92 107
f 60 107 105
f 60 105 109
f 60 109 98
f 60 98 85
f 60 85 66
f 60 66 65
f 60 65 63
f 60 63 62
f 60 62 71
f 60 71 70
f 60 70 82
f 60 82 61
f 64 83 84
f 64 84 67
f 64 66 85
f 64 85 86
f 64 86 83
f 67 84 74
f 67 74 68
f 69 82 70
f 72 87 73
f 72 74 88
f 72 88 87
f 73 87 75
f 74 84 88
f 75 87 89
f 75 89 76
f 76 89 90
f 76 90 77
f 77 90 78
f 78 90 79
f 79 90 91
f 79 91 80
f 81 93 92
f 83 88 84
f 83 86 85
f 83 85 94
f 83 94 95
f 83 95 96
f 83 96 97
f 83 97 88
f 85 98 99
f 85 99 94
f 87 100 89
f 87 88 101
f 87 101 100
f 88 100 101
f 88 97 100
f 89 100 102
f 89 102 90
f 90 102 103
f 90 103 91
f 91 104 105
f 91 105 93
f 91 103 106
f 91 106 104
f 92 93 107
f 93 105 107
f 94 99 98
f 94 98 95
f 95 98 108
f 95 108 96
f 96 108 100
f 96 100 97
f 98 109 108
f 100 108 110
f 100 110 102
f 102 110 111
f 102 111 106
f 102 106 103
f 104 106 112
f 104 112 113
f 104 113 105
f 105 113 109
f 106 111 114
f 106 114 112
f 108 109 110
f 109 113 112
f 109 112 114
f 109 114 110
f 110 114 111

