# https://github.com/mikedh/trimesh
v -2.48756179 -0.61468908 0.17985203
v -2.48756179 -0.41101831 0.17977424
v -2.48756179 -0.61468908 0.13290274
v -2.48285131 -0.61468908 0.17988606
v -2.48629512 -0.25219768 0.17942895
v -2.48756179 -0.25219768 0.17942406
v -2.46618656 -0.61468908 0.17998816
v -2.44952180 -0.61468908 0.18004169
v -2.46622613 -0.41101831 0.17979367
v -2.08733069 -0.25219768 0.17981799
v -2.47410331 -0.25219768 0.17944838
v -2.48289089 -0.25219768 0.17943866
v -2.48756179 -0.25219768 0.13151186
v -2.48649301 -0.61468908 0.13289785
v -2.43285704 -0.61468908 0.18003680
v -2.41987362 -0.61468908 0.18002226
v -2.41619228 -0.61468908 0.18001737
v -2.08317442 -0.61468908 0.17943866
v -2.08317442 -0.56096826 0.17923929
v -2.08317442 -0.54432687 0.17916633
v -2.08317442 -0.45980704 0.17869461
v -2.08733069 -0.25219768 0.13035927
v -2.31624344 -0.25219768 0.13097201
v -2.30836626 -0.25219768 0.13094769
v -2.08733069 -0.29002225 0.13049058
v -2.08317442 -0.61461812 0.13194465
v -2.09595996 -0.61468908 0.13212948
v -2.08317442 -0.61468908 0.13462432
v -2.08317442 -0.45980704 0.13153617
v -2.08733069 -0.27338086 0.13042734
v -2.29953910 -0.25219768 0.13092337
f 1 2 6
f 1 6 13
f 1 13 3
f 1 3 14
f 1 14 27
f 1 27 28
f 1 28 18
f 1 18 17
f 1 17 16
f 1 16 15
f 1 15 8
f 1 8 7
f 1 7 4
f 1 4 2
f 2 5 6
f 2 4 7
f 2 7 8
f 2 8 9
f 2 9 10
f 2 10 11
f 2 11 12
f 2 12 5
f 3 13 14
f 5 12 11
f 5 11 10
f 5 10 22
f 5 22 31
f 5 31 24
f 5 24 23
f 5 23 13
f 5 13 6
f 8 15 10
f 8 10 9
f 10 15 16
f 10 16 17
f 10 17 18
f 10 18 19
f 10 19 20
f 10 20 21
f 10 21 29
f 10 29 22
f 13 23 14
f 14 23 24
f 14 24 25
f 14 25 26
f 14 26 27
f 18 28 26
f 18 26 29
f 18 29 21
f 18 21 20
f 18 20 19
f 22 30 31
f 22 29 26
f 22 26 30
f 24 31 25
f 25 30 26
f 25 31 30
f 26 28 27

