# https://github.com/mikedh/trimesh
v 0.14471450 -0.24426798 1.55353436
v 0.14540073 -0.28512375 1.55353436
v 0.14570496 -0.28512375 1.56275915
v 0.14526477 -0.24426798 1.57020228
v 0.14472749 -0.24426798 1.53686650
v 0.14542660 -0.28512375 1.54609129
v 0.14597038 -0.28512375 1.57020228
v 0.14781528 -0.28512375 1.58114208
v 0.14744632 -0.24426798 1.58160831
v 0.14549133 -0.28512375 1.53686650
v 0.15654796 -0.24426798 1.43902392
v 0.15699465 -0.28512375 1.43902392
v 0.15594595 -0.28512375 1.60911619
v 0.15570640 -0.24431997 1.60911619
v 0.15551870 -0.24426798 1.60353799
v 0.19560863 -0.24426798 1.43902392
v 0.19530435 -0.28512375 1.43902392
v 0.19633367 -0.28512375 1.60911619
v 0.16851733 -0.24426798 1.60911619
v 0.21084060 -0.24426798 1.54567501
v 0.21084060 -0.25706538 1.54574159
v 0.21084060 -0.27767325 1.54587480
v 0.21084060 -0.28512375 1.54592475
v 0.19667676 -0.24427197 1.60911619
v 0.21084060 -0.28512375 1.60200608
v 0.21084060 -0.24434396 1.60218924
v 0.19668319 -0.24426798 1.60904956
v 0.21084060 -0.24426798 1.60218924
f 1 2 3
f 1 3 4
f 1 4 9
f 1 9 15
f 1 15 19
f 1 19 27
f 1 27 28
f 1 28 20
f 1 20 16
f 1 16 11
f 1 11 5
f 1 5 2
f 2 5 6
f 2 6 10
f 2 10 12
f 2 12 17
f 2 17 23
f 2 23 25
f 2 25 18
f 2 18 13
f 2 13 8
f 2 8 7
f 2 7 3
f 3 7 4
f 4 8 9
f 4 7 8
f 5 10 6
f 5 11 12
f 5 12 10
f 8 13 9
f 9 13 14
f 9 14 15
f 11 16 17
f 11 17 12
f 13 18 24
f 13 24 19
f 13 19 14
f 14 19 15
f 16 20 21
f 16 21 22
f 16 22 23
f 16 23 17
f 18 25 26
f 18 26 24
f 19 24 27
f 20 28 26
f 20 26 25
f 20 25 23
f 20 23 22
f 20 22 21
f 24 26 28
f 24 28 27

