# https://github.com/mikedh/trimesh
v -2.90650166 1.63969125 0.15925319
v -2.90650166 1.94528972 0.15913612
v -2.90650166 1.63969125 0.12094300
v -2.74693614 1.63969125 0.16166747
v -2.74715235 1.94528972 0.16155851
v -2.90650166 1.94528972 0.12093090
v -2.88077224 1.63969125 0.12084203
v -2.73021564 1.63969125 0.16181282
v -2.73050392 1.94528972 0.16173612
v -2.90297018 1.94528972 0.12091879
v -2.86412382 1.63969125 0.12082187
v -2.89720447 1.94528972 0.12090668
v -2.71356720 1.63969125 0.16186131
v -2.71378341 1.94528972 0.16179672
v -2.88055604 1.94528972 0.12088646
v -2.86390762 1.63969125 0.12082187
v -2.66354984 1.63969125 0.16185320
v -2.17447504 1.94528972 0.16206719
v -2.19126765 1.94528972 0.16205914
v -2.69713499 1.94528972 0.16181282
v -2.86390762 1.94528972 0.12089052
v -2.58030767 1.94528972 0.12104797
v -2.23025811 1.63969125 0.12138304
v -2.19667294 1.63969125 0.16158672
v -2.17022285 1.94528972 0.16205914
v -2.23025811 1.94528972 0.12141536
v -2.17022285 1.63969125 0.12143958
v -2.18009659 1.63969125 0.16155445
v -2.17022285 1.63969125 0.16151813
v -2.17022285 1.94528972 0.12149206
v -2.21923120 1.94528972 0.12142747
f 1 2 6
f 1 6 3
f 1 3 7
f 1 7 11
f 1 11 16
f 1 16 23
f 1 23 27
f 1 27 29
f 1 29 28
f 1 28 24
f 1 24 17
f 1 17 13
f 1 13 8
f 1 8 4
f 1 4 5
f 1 5 2
f 2 5 9
f 2 9 14
f 2 14 20
f 2 20 19
f 2 19 18
f 2 18 25
f 2 25 30
f 2 30 31
f 2 31 26
f 2 26 22
f 2 22 21
f 2 21 15
f 2 15 12
f 2 12 10
f 2 10 6
f 3 6 7
f 4 8 9
f 4 9 5
f 6 10 7
f 7 10 12
f 7 12 15
f 7 15 11
f 8 13 14
f 8 14 9
f 11 15 16
f 13 17 18
f 13 18 19
f 13 19 20
f 13 20 14
f 15 21 16
f 16 21 22
f 16 22 23
f 17 24 18
f 18 24 25
f 22 26 27
f 22 27 23
f 24 28 25
f 25 28 29
f 25 29 27
f 25 27 30
f 26 31 27
f 27 31 30

