# https://github.com/mikedh/trimesh
v 1.88639307 -0.74796135 1.02048438
v 1.88639307 -0.73630530 1.02048438
v 1.88639307 -0.78175212 1.02040213
v 1.89079433 -0.78174675 1.02048438
v 1.99341736 -0.73592534 1.02048438
v 1.99767691 -0.73585042 1.02036100
v 1.88639307 -0.73512258 0.91951481
v 1.89106672 -0.78174675 1.02048438
v 1.88639307 -0.78884313 0.85350415
v 1.89079433 -0.78888059 0.85350415
v 1.94078765 -0.78908396 0.85350415
v 1.95744483 -0.78908930 0.85350415
v 1.99078095 -0.78908396 0.85350415
v 1.99767691 -0.74972742 1.02048438
v 1.99767691 -0.73512258 0.92004947
v 1.88639307 -0.73512258 0.80838658
v 1.90773476 -0.78171999 1.02048438
v 1.99767691 -0.78907326 0.85350415
v 1.88639307 -0.78896088 0.84910343
v 1.88639307 -0.78969942 0.82019036
v 1.89079433 -0.78971011 0.82019036
v 1.99078095 -0.78979037 0.82019036
v 1.99767691 -0.78979574 0.82019036
v 1.99767691 -0.78149522 1.02048438
v 1.99767691 -0.73512258 0.80645355
v 1.90356228 -0.73512258 0.80657694
v 1.88639307 -0.73591464 0.60031933
v 1.92411955 -0.78168789 1.02048438
v 1.99106421 -0.78152734 1.02048438
v 1.97439611 -0.78158620 1.02048438
v 1.88639307 -0.78254951 0.60031933
v 1.89079433 -0.78255488 0.60031933
v 1.99767691 -0.78267260 0.60031933
v 1.99767691 -0.73607519 0.60031933
v 1.95830547 -0.73596280 0.60031933
v 1.99138012 -0.73512258 0.80563099
f 1 2 7
f 1 7 16
f 1 16 27
f 1 27 31
f 1 31 20
f 1 20 19
f 1 19 9
f 1 9 3
f 1 3 4
f 1 4 8
f 1 8 17
f 1 17 28
f 1 28 30
f 1 30 29
f 1 29 24
f 1 24 14
f 1 14 5
f 1 5 2
f 2 5 6
f 2 6 7
f 3 8 4
f 3 9 10
f 3 10 11
f 3 11 12
f 3 12 13
f 3 13 8
f 5 14 6
f 6 14 24
f 6 24 18
f 6 18 23
f 6 23 33
f 6 33 34
f 6 34 25
f 6 25 15
f 6 15 7
f 7 15 25
f 7 25 36
f 7 36 26
f 7 26 16
f 8 13 18
f 8 18 17
f 9 19 10
f 10 19 20
f 10 20 11
f 11 20 21
f 11 21 22
f 11 22 23
f 11 23 12
f 12 23 13
f 13 23 18
f 16 26 27
f 17 18 28
f 18 24 29
f 18 29 30
f 18 30 28
f 20 31 21
f 21 31 32
f 21 32 33
f 21 33 22
f 22 33 23
f 25 34 35
f 25 35 27
f 25 27 36
f 26 36 27
f 27 35 34
f 27 34 33
f 27 33 32
f 27 32 31

