# https://github.com/mikedh/trimesh
v -0.92082472 -0.74213271 1.00703998
v -0.92082472 -0.74079654 1.27492671
v -0.92082472 -0.79617330 1.00703998
v -0.99756673 -0.74203923 1.00703998
v -0.92082472 -0.79591487 1.27492671
v -1.01421049 -0.74202273 1.00703998
v -1.01534015 -0.74130793 1.15821138
v -1.01534015 -0.74076356 1.27487426
v -1.01534015 -0.74076356 1.27492671
v -0.92082472 -0.79620080 1.01939067
v -0.94868983 -0.79626678 1.02489735
v -0.94868983 -0.79622828 1.00821998
v -0.96540889 -0.79625579 1.00703998
v -0.92082472 -0.79604133 1.24154576
v -1.09863424 -0.79622828 1.27492671
v -1.01534015 -0.74202273 1.00703998
v -1.03205922 -0.74205573 1.00703998
v -1.03205922 -0.74079654 1.27487426
v -1.03205922 -0.74079654 1.27492671
v -0.92082472 -0.79621180 1.02489735
v -0.92082472 -0.79624479 1.04154849
v -1.08206580 -0.79652521 1.04154849
v -1.08206580 -0.79649773 1.02489735
v -1.23321522 -0.79672316 1.00703998
v -0.92082472 -0.79605784 1.23603908
v -0.92082472 -0.79609083 1.22486839
v -1.13199707 -0.79626127 1.27492671
v -1.16535989 -0.79640423 1.24154576
v -1.14871614 -0.79643723 1.22486839
v -1.13207238 -0.79641523 1.22486839
v -1.04870297 -0.74213822 1.00703998
v -1.04870297 -0.74090103 1.27487426
v -1.04870297 -0.74090103 1.27492671
v -0.92082472 -0.79626127 1.05822585
v -1.08206580 -0.79653620 1.05822585
v -1.24872931 -0.79681664 1.05822585
v -1.26537306 -0.79684412 1.05822585
v -1.26537306 -0.79682765 1.04154849
v -1.24872931 -0.79678366 1.02489735
v -1.24872931 -0.79675066 1.00821998
v -1.24872931 -0.79674515 1.00703998
v -0.92082472 -0.79620080 1.17486252
v -1.29866056 -0.79639875 1.27492671
v -1.24872931 -0.79647021 1.24154576
v -1.16535989 -0.79645374 1.22486839
v -1.23201024 -0.79664617 1.17486252
v -1.14871614 -0.79650872 1.19153989
v -1.26537306 -0.74350187 1.00703998
v -1.28201681 -0.74244614 1.27487426
v -1.28201681 -0.74244614 1.27492671
v -0.92082472 -0.79627227 1.07490322
v -1.24872931 -0.79682212 1.07490322
v -1.26537306 -0.79683863 1.07490322
v -1.49861159 -0.79692113 1.07490322
v -1.51533065 -0.79693209 1.05822585
v -1.28201681 -0.79681116 1.02489735
v -1.26537306 -0.79680013 1.02489735
v -1.49861159 -0.79688811 1.02489735
v -1.26537306 -0.79676715 1.00821998
v -1.26537306 -0.79676166 1.00703998
v -0.92082472 -0.79621180 1.16938207
v -1.31522900 -0.79640975 1.27492671
v -1.26537306 -0.79648122 1.24154576
v -1.24872931 -0.79656920 1.20819104
v -1.23201024 -0.79660218 1.19153989
v -1.26537306 -0.79666816 1.17486252
v -1.28201681 -0.79671768 1.15821138
v -1.24872931 -0.79669568 1.15821138
v -1.23201024 -0.79667917 1.15821138
v -1.14871614 -0.79654172 1.17486252
v -1.28088714 -0.74362284 1.00703998
v -1.29873587 -0.74261110 1.27487426
v -1.69020302 -0.74717494 1.00703998
v -1.29873587 -0.74261110 1.27492671
v -0.92082472 -0.79626678 1.09155437
v -1.24872931 -0.79680013 1.09155437
v -0.92082472 -0.79622828 1.15821138
v -1.26537306 -0.79681664 1.09155437
v -1.28201681 -0.79682765 1.09155437
v -1.51533065 -0.79692661 1.07490322
v -1.53197438 -0.79692661 1.07490322
v -1.53197438 -0.79692661 1.05822585
v -1.53197438 -0.79691010 1.04154849
v -1.51533065 -0.79691010 1.04154849
v -1.28201681 -0.79677813 1.00821998
v -1.49861159 -0.79686063 1.00703998
v -1.51533065 -0.79688811 1.02489735
v -1.28201681 -0.79677265 1.00703998
v -1.59862473 -0.79644274 1.27492671
v -1.49861159 -0.79654172 1.24154576
v -1.49861159 -0.79659670 1.22486839
v -1.28201681 -0.79667369 1.17486252
v -1.24872931 -0.79661319 1.19153989
v -1.29873587 -0.79683315 1.09155437
v -1.49861159 -0.79668467 1.19153989
v -1.48196781 -0.79676715 1.15821138
v -1.49861159 -0.79681116 1.14153401
v -1.51533065 -0.79689913 1.09155437
v -1.21536646 -0.79665717 1.15821138
v -1.69020302 -0.74648212 1.27492671
v -1.69020302 -0.79670116 1.00703998
v -1.53197438 -0.79689913 1.09155437
v -1.54861816 -0.79688262 1.09155437
v -1.59862473 -0.79685514 1.07490322
v -1.59862473 -0.79684964 1.05822585
v -1.69020302 -0.79670667 1.00821998
v -1.53197438 -0.79688262 1.02489735
v -1.51533065 -0.79686063 1.00821998
v -1.51646029 -0.79685514 1.00703998
v -1.66527502 -0.79637675 1.27492671
v -1.51533065 -0.79683863 1.12488287
v -1.51533065 -0.79664069 1.20819104
v -1.51533065 -0.79659670 1.22486839
v -1.69020302 -0.79631625 1.27492671
v -1.53310407 -0.79684412 1.00703998
v -1.58198100 -0.79684412 1.09155437
v -1.69020302 -0.79671215 1.07490322
v -1.69020302 -0.79671768 1.06669565
v -1.69020302 -0.79672316 1.05822585
v -1.69020302 -0.79672316 1.04154849
v -1.69020302 -0.79671768 1.02489735
v -1.53197438 -0.79684964 1.00821998
v -1.69020302 -0.79669568 1.08337302
f 1 2 5
f 1 5 14
f 1 14 25
f 1 25 26
f 1 26 42
f 1 42 61
f 1 61 77
f 1 77 75
f 1 75 51
f 1 51 34
f 1 34 21
f 1 21 20
f 1 20 10
f 1 10 3
f 1 3 13
f 1 13 24
f 1 24 41
f 1 41 60
f 1 60 88
f 1 88 86
f 1 86 109
f 1 109 115
f 1 115 101
f 1 101 73
f 1 73 71
f 1 71 48
f 1 48 31
f 1 31 17
f 1 17 16
f 1 16 6
f 1 6 4
f 1 4 2
f 2 4 6
f 2 6 7
f 2 7 8
f 2 8 9
f 2 9 19
f 2 19 33
f 2 33 50
f 2 50 74
f 2 74 100
f 2 100 114
f 2 114 110
f 2 110 89
f 2 89 62
f 2 62 43
f 2 43 27
f 2 27 15
f 2 15 5
f 3 10 11
f 3 11 12
f 3 12 13
f 5 15 14
f 6 16 7
f 7 16 17
f 7 17 18
f 7 18 8
f 8 18 19
f 8 19 9
f 10 20 11
f 11 13 12
f 11 20 21
f 11 21 22
f 11 22 23
f 11 23 24
f 11 24 13
f 14 15 25
f 15 26 25
f 15 27 28
f 15 28 29
f 15 29 30
f 15 30 26
f 17 31 18
f 18 31 32
f 18 32 33
f 18 33 19
f 21 34 22
f 22 34 51
f 22 51 35
f 22 35 36
f 22 36 37
f 22 37 38
f 22 38 39
f 22 39 23
f 23 39 24
f 24 39 40
f 24 40 41
f 26 30 42
f 27 43 28
f 28 43 44
f 28 44 64
f 28 64 45
f 28 45 29
f 29 45 46
f 29 46 47
f 29 47 30
f 30 47 42
f 31 48 32
f 32 48 49
f 32 49 50
f 32 50 33
f 35 51 36
f 36 52 37
f 36 51 52
f 37 52 53
f 37 53 54
f 37 54 55
f 37 55 38
f 38 56 57
f 38 57 39
f 38 55 58
f 38 58 56
f 39 57 59
f 39 59 40
f 40 59 60
f 40 60 41
f 42 47 61
f 43 62 44
f 44 62 63
f 44 63 64
f 45 64 65
f 45 65 46
f 46 65 66
f 46 66 67
f 46 67 68
f 46 68 69
f 46 69 47
f 47 69 70
f 47 70 61
f 48 71 49
f 49 72 74
f 49 74 50
f 49 71 73
f 49 73 72
f 51 75 52
f 52 76 78
f 52 78 53
f 52 75 77
f 52 77 76
f 53 78 79
f 53 79 54
f 54 80 55
f 54 79 94
f 54 94 80
f 55 80 81
f 55 81 82
f 55 82 83
f 55 83 84
f 55 84 58
f 56 85 59
f 56 59 57
f 56 58 86
f 56 86 85
f 58 84 83
f 58 83 87
f 58 87 86
f 59 85 88
f 59 88 60
f 61 70 77
f 62 89 90
f 62 90 91
f 62 91 92
f 62 92 66
f 62 66 64
f 62 64 63
f 64 66 93
f 64 93 65
f 65 93 66
f 66 92 67
f 67 94 79
f 67 79 78
f 67 78 68
f 67 92 91
f 67 91 95
f 67 95 96
f 67 96 97
f 67 97 98
f 67 98 94
f 68 78 69
f 69 78 76
f 69 76 99
f 69 99 70
f 70 99 76
f 70 76 77
f 72 73 100
f 72 100 74
f 73 101 106
f 73 106 121
f 73 121 120
f 73 120 119
f 73 119 118
f 73 118 117
f 73 117 123
f 73 123 114
f 73 114 100
f 80 98 102
f 80 102 81
f 80 94 98
f 81 102 103
f 81 103 104
f 81 104 82
f 82 104 105
f 82 105 106
f 82 106 83
f 83 106 107
f 83 107 108
f 83 108 87
f 85 86 88
f 86 87 108
f 86 108 109
f 89 110 102
f 89 102 111
f 89 111 97
f 89 97 112
f 89 112 113
f 89 113 91
f 89 91 90
f 91 113 95
f 95 113 112
f 95 112 97
f 95 97 96
f 97 111 102
f 97 102 98
f 101 115 106
f 102 110 103
f 103 116 104
f 103 110 116
f 104 116 110
f 104 110 117
f 104 117 118
f 104 118 119
f 104 119 120
f 104 120 105
f 105 120 121
f 105 121 106
f 106 115 122
f 106 122 107
f 107 122 108
f 108 122 115
f 108 115 109
f 110 114 123
f 110 123 117

