# https://github.com/mikedh/trimesh
v 0.22406191 -0.72311840 0.90404252
v 0.22406191 -0.61834228 0.89885230
v 0.22406191 -0.72311840 0.90366443
v 0.22769483 -0.72311840 0.90406315
v 0.22410607 -0.61831150 0.89883855
v 0.22406191 -0.61831150 0.83817133
v 0.26106739 -0.72311840 0.90424876
v 0.27770217 -0.72311840 0.90433125
v 0.29077763 -0.72311840 0.90438624
v 0.29077763 -0.61831150 0.89897604
v 0.28348243 -0.61831150 0.89896229
v 0.22406191 -0.72306709 0.83416351
v 0.22410607 -0.72311840 0.83417040
v 0.22406191 -0.61831150 0.83764201
v 0.29435166 -0.72311840 0.90438624
v 0.30014665 -0.61831150 0.89895541
v 0.35743451 -0.72311840 0.90429000
v 0.37430460 -0.72311840 0.90426250
v 0.37430460 -0.72311840 0.83555216
v 0.37421638 -0.61831150 0.83941562
v 0.37430460 -0.61831150 0.89875606
v 0.37430460 -0.62767989 0.83945686
v 0.37430460 -0.61831150 0.86526363
f 1 2 6
f 1 6 14
f 1 14 12
f 1 12 3
f 1 3 13
f 1 13 19
f 1 19 18
f 1 18 17
f 1 17 15
f 1 15 9
f 1 9 8
f 1 8 7
f 1 7 4
f 1 4 2
f 2 5 6
f 2 4 7
f 2 7 8
f 2 8 9
f 2 9 10
f 2 10 11
f 2 11 5
f 3 12 13
f 5 11 10
f 5 10 16
f 5 16 21
f 5 21 23
f 5 23 20
f 5 20 14
f 5 14 6
f 9 15 10
f 10 15 17
f 10 17 18
f 10 18 16
f 12 14 19
f 12 19 13
f 14 20 19
f 16 18 21
f 18 19 22
f 18 22 23
f 18 23 21
f 19 20 22
f 20 23 22

