# https://github.com/mikedh/trimesh
v 2.07527098 -0.45980714 0.43770776
v 2.07582072 -0.38200253 0.38253393
v 2.07577972 -0.39434238 0.38253393
v 2.07565663 -0.44433695 0.38253393
v 2.07564840 -0.44835194 0.38253393
v 2.07563201 -0.45980714 0.38253393
v 2.11529469 -0.45980714 0.43770776
v 2.07600532 -0.26103110 0.43770776
v 2.07632945 -0.26536366 0.38253393
v 2.11538500 -0.45980714 0.38253393
v 2.11718185 -0.22809456 0.38253393
v 2.11680854 -0.22813994 0.43770776
v 2.07601355 -0.26016912 0.43770776
v 2.07634995 -0.26103110 0.38253393
v 2.07720327 -0.22809456 0.38253393
v 2.11714496 -0.22809456 0.38687073
v 2.11657877 -0.22809456 0.43686525
v 2.08007909 -0.22809456 0.43770776
v 2.07626788 -0.24435869 0.43770776
v 2.07665764 -0.24869125 0.38253393
v 2.07657556 -0.22809456 0.43770776
v 2.07676839 -0.24435869 0.38253393
f 1 2 3
f 1 3 4
f 1 4 5
f 1 5 6
f 1 6 10
f 1 10 7
f 1 7 12
f 1 12 18
f 1 18 21
f 1 21 19
f 1 19 13
f 1 13 8
f 1 8 2
f 2 8 9
f 2 9 14
f 2 14 20
f 2 20 22
f 2 22 15
f 2 15 11
f 2 11 10
f 2 10 6
f 2 6 5
f 2 5 4
f 2 4 3
f 7 10 11
f 7 11 12
f 8 13 14
f 8 14 9
f 11 15 21
f 11 21 18
f 11 18 17
f 11 17 16
f 11 16 12
f 12 16 17
f 12 17 18
f 13 19 14
f 14 19 21
f 14 21 20
f 15 22 21
f 20 21 22

