# https://github.com/mikedh/trimesh
v 0.13281785 -0.17730993 0.79956132
v 0.13565726 -0.16139166 0.79956132
v 0.13389337 -0.19433705 0.79956132
v 0.13285225 -0.17767953 0.80354327
v 0.13301574 -0.17767953 0.83687194
v 0.13310181 -0.17767953 0.85354780
v 0.13593258 -0.16101383 0.80354327
v 0.14408942 -0.15082054 0.79956132
v 0.13366109 -0.17767953 0.91712086
v 0.13762763 -0.16101383 0.91712086
v 0.14021753 -0.23309780 0.80354327
v 0.14025192 -0.23309780 0.81477559
v 0.13391059 -0.19433705 0.80354327
v 0.14149958 -0.23309780 0.79956132
v 0.13450426 -0.19433705 0.90352929
v 0.13459033 -0.19433705 0.91712086
v 0.13382453 -0.18075149 0.91712086
v 0.14737629 -0.15040164 0.79956132
v 0.14408942 -0.15316967 0.91712086
v 0.14556077 -0.15138730 0.91712086
v 0.14113819 -0.23309780 0.85354780
v 0.19630875 -0.23309780 0.79956132
v 0.14130169 -0.21100280 0.91712086
v 0.15744329 -0.14920241 0.79956132
v 0.15744329 -0.15027844 0.91712086
v 0.15352831 -0.23309780 0.91712086
v 0.19657549 -0.23307316 0.79956132
v 0.19658407 -0.23309780 0.79964189
v 0.16141848 -0.14928458 0.79956132
v 0.17410972 -0.15059879 0.91712086
v 0.19584413 -0.23309780 0.91712086
v 0.20607463 -0.19507631 0.79956132
v 0.22071908 -0.19452597 0.80699583
v 0.22071908 -0.20375824 0.80853797
v 0.22071908 -0.20677268 0.80956223
v 0.22071908 -0.21338476 0.81483312
v 0.22071908 -0.23309780 0.83238363
v 0.17410972 -0.14955564 0.79956132
v 0.19098274 -0.15143657 0.91712086
v 0.20483556 -0.17767953 0.91712086
v 0.22071908 -0.23309780 0.89891437
v 0.20632414 -0.19403316 0.79956132
v 0.20937867 -0.17767953 0.79956132
v 0.22071908 -0.19034518 0.80673113
v 0.17807632 -0.14977740 0.79956132
v 0.19293588 -0.15163371 0.91712086
v 0.22071908 -0.15337501 0.83658424
v 0.20320942 -0.16091527 0.91712086
v 0.22071908 -0.19460811 0.89996165
v 0.22071908 -0.17767953 0.89989260
v 0.20929260 -0.17590536 0.79956132
v 0.22071908 -0.17767953 0.80594856
v 0.19188617 -0.15098482 0.79956132
v 0.19949232 -0.15235650 0.91712086
v 0.22071908 -0.15342431 0.84026696
v 0.22071908 -0.15541205 0.82044930
v 0.19954394 -0.15232367 0.79956132
v 0.22071908 -0.16994220 0.89860365
v 0.22071908 -0.16622135 0.89757938
v 0.20518837 -0.15971605 0.79956132
v 0.22071908 -0.16292763 0.80861853
v 0.22071908 -0.16037316 0.88970756
v 0.22071908 -0.15491920 0.87358413
v 0.22071908 -0.15431960 0.87020062
v 0.22071908 -0.15377750 0.85693130
v 0.22071908 -0.15369535 0.85354780
v 0.20415583 -0.15689872 0.79956132
f 1 2 8
f 1 8 18
f 1 18 24
f 1 24 29
f 1 29 38
f 1 38 45
f 1 45 53
f 1 53 57
f 1 57 67
f 1 67 60
f 1 60 51
f 1 51 43
f 1 43 42
f 1 42 32
f 1 32 27
f 1 27 22
f 1 22 14
f 1 14 3
f 1 3 4
f 1 4 5
f 1 5 6
f 1 6 2
f 2 7 8
f 2 6 9
f 2 9 10
f 2 10 7
f 3 11 12
f 3 12 13
f 3 13 4
f 3 14 11
f 4 13 5
f 5 13 6
f 6 15 16
f 6 16 17
f 6 17 9
f 6 13 15
f 7 10 8
f 8 10 19
f 8 19 20
f 8 20 18
f 9 17 16
f 9 16 23
f 9 23 26
f 9 26 31
f 9 31 40
f 9 40 48
f 9 48 54
f 9 54 46
f 9 46 39
f 9 39 30
f 9 30 25
f 9 25 20
f 9 20 19
f 9 19 10
f 11 14 22
f 11 22 28
f 11 28 37
f 11 37 41
f 11 41 31
f 11 31 26
f 11 26 21
f 11 21 12
f 12 21 16
f 12 16 15
f 12 15 13
f 16 21 23
f 18 20 24
f 20 25 24
f 21 26 23
f 22 27 28
f 24 25 30
f 24 30 29
f 27 32 33
f 27 33 34
f 27 34 35
f 27 35 36
f 27 36 37
f 27 37 28
f 29 30 38
f 30 39 38
f 31 41 40
f 32 42 33
f 33 42 43
f 33 43 44
f 33 44 52
f 33 52 61
f 33 61 56
f 33 56 47
f 33 47 55
f 33 55 66
f 33 66 65
f 33 65 64
f 33 64 63
f 33 63 62
f 33 62 59
f 33 59 58
f 33 58 50
f 33 50 49
f 33 49 41
f 33 41 37
f 33 37 36
f 33 36 35
f 33 35 34
f 38 39 45
f 39 46 47
f 39 47 45
f 40 41 49
f 40 49 50
f 40 50 48
f 43 51 52
f 43 52 44
f 45 47 53
f 46 54 55
f 46 55 47
f 47 56 57
f 47 57 53
f 48 50 58
f 48 58 59
f 48 59 54
f 51 60 52
f 52 60 61
f 54 59 62
f 54 62 63
f 54 63 64
f 54 64 65
f 54 65 66
f 54 66 55
f 56 61 57
f 57 61 67
f 60 67 61

