# https://github.com/mikedh/trimesh
v -2.46113222 -0.60584943 0.89679446
v -2.44959476 -0.59431617 0.89674988
v -2.46113222 -0.58920121 0.89679446
v -2.46113222 -0.61354648 0.89678810
v -2.44959476 -0.61098899 0.89673715
v -2.43271822 -0.59431617 0.89665437
v -2.43271822 -0.57769253 0.89666074
v -2.43271822 -0.45982701 0.89662889
v -2.46113222 -0.57255298 0.89678810
v -2.43086343 -0.61467767 0.89663526
v -2.46113222 -0.61467767 0.89678172
v -2.45904044 -0.67765568 0.89667347
v -2.45904044 -0.67045046 0.89669894
v -2.45904044 -0.66100745 0.89672441
v -2.43086343 -0.66100745 0.89659068
v -2.43271822 -0.45982701 0.84773626
v -2.44959476 -0.45982701 0.89666074
v -2.46113222 -0.45982701 0.89667984
v -2.43086343 -0.61467767 0.83708914
v -2.45904044 -0.71105050 0.88836338
v -2.45904044 -0.71100133 0.89630413
v -2.45904044 -0.70377151 0.89642512
v -2.45904044 -0.69432850 0.89655885
v -2.45904044 -0.68709869 0.89660979
v -2.46113222 -0.61467767 0.83219224
v -2.43086343 -0.69432850 0.89646970
v -2.43086343 -0.67765568 0.89655885
v -2.43293155 -0.45982701 0.83700000
v -2.43271822 -0.45985160 0.83700000
v -2.46113222 -0.45982701 0.84867234
v -2.46113222 -0.51095207 0.83174012
v -2.43086343 -0.64433463 0.83708914
v -2.44959178 -0.71105050 0.89625956
v -2.45904044 -0.71105050 0.87048235
v -2.43086343 -0.71105050 0.89621498
v -2.46113222 -0.59446372 0.83196936
v -2.45904044 -0.71100133 0.83301370
v -2.45041254 -0.45982701 0.83573278
v -2.46113222 -0.45985160 0.83188022
v -2.46113222 -0.57766794 0.83183564
v -2.43086343 -0.66100745 0.83710188
v -2.44954141 -0.71105050 0.83644599
v -2.43086343 -0.71105050 0.83724835
f 1 2 3
f 1 3 9
f 1 9 18
f 1 18 30
f 1 30 39
f 1 39 31
f 1 31 40
f 1 40 36
f 1 36 25
f 1 25 11
f 1 11 4
f 1 4 5
f 1 5 2
f 2 6 7
f 2 7 8
f 2 8 9
f 2 9 3
f 2 5 10
f 2 10 6
f 4 11 12
f 4 12 13
f 4 13 14
f 4 14 5
f 5 14 15
f 5 15 10
f 6 10 7
f 7 10 8
f 8 16 28
f 8 28 38
f 8 38 30
f 8 30 18
f 8 18 17
f 8 17 9
f 8 10 19
f 8 19 16
f 9 17 18
f 10 15 27
f 10 27 26
f 10 26 35
f 10 35 43
f 10 43 41
f 10 41 32
f 10 32 19
f 11 20 21
f 11 21 22
f 11 22 23
f 11 23 24
f 11 24 12
f 11 25 34
f 11 34 20
f 12 24 26
f 12 26 27
f 12 27 13
f 13 27 14
f 14 27 15
f 16 19 29
f 16 29 28
f 19 31 29
f 19 32 31
f 20 33 21
f 20 34 42
f 20 42 43
f 20 43 35
f 20 35 33
f 21 33 35
f 21 35 22
f 22 26 23
f 22 35 26
f 23 26 24
f 25 36 37
f 25 37 34
f 28 29 39
f 28 39 38
f 29 31 39
f 30 38 39
f 31 32 41
f 31 41 40
f 34 37 42
f 36 40 37
f 37 43 42
f 37 40 43
f 40 41 43

