# https://github.com/mikedh/trimesh
v -1.73100471 -0.73785997 0.08464133
v -0.96536393 -0.73785997 0.08599890
v -1.74859013 -0.73785997 0.08464133
v -0.09877616 -0.71009528 0.09734939
v -0.94862399 -0.73785997 0.08609075
v -0.08220534 -0.71009528 0.09738002
v -0.09877616 -0.73566379 0.08846906
v -1.64882686 -0.71010344 0.09808432
v -0.09911436 -0.71009528 0.09734939
v -1.78190095 -0.73785997 0.08471280
v -1.78680454 -0.71010344 0.09815573
v -0.93239132 -0.73785997 0.08624388
v -0.05937812 -0.71009528 0.09743105
v -0.08220534 -0.73566379 0.08871403
v -0.92089318 -0.73785997 0.08635617
v -0.18247585 -0.71009528 0.09740041
v -1.78680454 -0.73785997 0.08483529
v -1.78680454 -0.71010344 0.17928309
v -0.92089318 -0.71009528 0.09880900
v -0.74892836 -0.71009528 0.09813534
v -0.73235751 -0.71009528 0.09810470
v -0.19904679 -0.71009528 0.09742085
v -0.05937812 -0.71009528 0.18027320
v -0.05937812 -0.73566379 0.08944896
v -0.06546547 -0.73566379 0.08915297
v -0.92089318 -0.73785997 0.18699975
v -1.78680454 -0.73785997 0.18262086
v -1.09691617 -0.73785997 0.18891874
v -1.73185015 -0.71010344 0.17947705
v -0.92089318 -0.71009528 0.18056919
v -0.05937812 -0.73566379 0.18227384
v -0.19853944 -0.71009528 0.18058964
v -0.21527942 -0.71009528 0.18062022
v -0.56512722 -0.71009528 0.18095710
v -0.59843800 -0.71009528 0.18096730
v -0.59877620 -0.71009528 0.18096730
v -0.74875926 -0.71009528 0.18095710
v -1.26533011 -0.71010344 0.18084481
f 1 2 5
f 1 5 12
f 1 12 15
f 1 15 26
f 1 26 28
f 1 28 27
f 1 27 17
f 1 17 10
f 1 10 3
f 1 3 9
f 1 9 4
f 1 4 2
f 2 4 6
f 2 6 7
f 2 7 5
f 3 8 9
f 3 10 11
f 3 11 8
f 4 9 16
f 4 16 22
f 4 22 21
f 4 21 20
f 4 20 19
f 4 19 30
f 4 30 37
f 4 37 36
f 4 36 35
f 4 35 34
f 4 34 33
f 4 33 32
f 4 32 23
f 4 23 13
f 4 13 6
f 5 7 12
f 6 13 7
f 7 13 14
f 7 14 15
f 7 15 12
f 8 11 9
f 9 11 16
f 10 17 11
f 11 18 30
f 11 30 19
f 11 19 20
f 11 20 21
f 11 21 22
f 11 22 16
f 11 17 27
f 11 27 18
f 13 23 31
f 13 31 24
f 13 24 25
f 13 25 14
f 14 25 15
f 15 25 24
f 15 24 31
f 15 31 26
f 18 27 28
f 18 28 29
f 18 29 30
f 23 32 28
f 23 28 31
f 26 31 28
f 28 32 33
f 28 33 34
f 28 34 35
f 28 35 36
f 28 36 37
f 28 37 38
f 28 38 29
f 29 38 30
f 30 38 37

