# https://github.com/mikedh/trimesh
v -1.99835908 1.55604250 1.92554884
v -1.99784820 1.58939260 1.99309801
v -1.99792591 1.57272250 1.99309801
v -1.99808139 1.55604250 1.99309801
v -1.99898114 1.54021231 1.92554884
v -1.99848129 1.57272250 1.92554884
v -2.00146926 1.60303897 1.99309801
v -1.99792591 1.58939260 2.00977766
v -1.99788148 1.57272250 2.00977766
v -1.99871455 1.58939260 1.92554884
v -2.00198015 1.60226822 1.92554884
v -1.99817026 1.55604250 2.00977766
v -1.99893671 1.53937239 1.99309801
v -1.99901448 1.53937239 1.92554884
v -2.00156922 1.60282158 2.00977766
v -2.00186910 1.60252513 1.94307879
v -2.02888268 1.62613208 1.97303693
v -2.02854947 1.62613208 1.98970668
v -2.02853837 1.62613208 1.99309801
v -2.00284656 1.60095396 2.02049545
v -2.00163584 1.58939260 2.02176092
v -2.00154697 1.57272250 2.02184000
v -2.00171361 1.55604250 2.02176092
v -2.01282115 1.60814773 1.92554884
v -2.03403659 1.62613208 1.94667773
v -2.03007121 1.62613208 1.95729651
v -2.02938254 1.62613208 1.95975845
v -1.99913663 1.53937239 2.00977766
v -2.00223565 1.53937239 2.02126661
v -2.00250225 1.52853233 2.00977766
v -2.00240229 1.52840390 1.99309801
v -2.00241338 1.52841377 1.92554884
v -2.00223565 1.52897703 1.92554884
v -2.03192618 1.62613208 2.00977766
v -2.03686901 1.62613208 2.01885412
v -2.01339878 1.60297968 2.02196859
v -2.01339878 1.58939260 2.02594320
v -2.01339878 1.57272250 2.02612117
v -2.01339878 1.55604250 2.02608169
v -2.01339878 1.60845404 1.92554884
v -2.03639141 1.62613208 1.94573844
v -2.00343528 1.52945133 2.01995164
v -2.01339878 1.53937239 2.02510286
v -2.01339878 1.52544933 2.00977766
v -2.01339878 1.52521217 1.99309801
v -2.01339878 1.52519239 1.97641836
v -2.01339878 1.52523194 1.92554884
v -2.04675474 1.62613208 2.02037676
v -2.06342724 1.62613208 2.02114792
v -2.03008231 1.58939260 2.02605199
v -2.03008231 1.57272250 2.02641783
v -2.03008231 1.55604250 2.02654630
v -2.02922705 1.61021296 1.92554884
v -2.04675474 1.62613208 1.94173412
v -2.01339878 1.52836436 2.02116772
v -2.03008231 1.53937239 2.02540929
v -2.03008231 1.52832484 2.02117762
v -2.03008231 1.52542956 2.00977766
v -2.03008231 1.52526158 1.99309801
v -2.01425404 1.52523194 1.92554884
v -2.11131189 1.62613208 2.02103914
v -2.04675474 1.57272250 2.02574543
v -2.04675474 1.55604250 2.02614097
v -2.03008231 1.61029201 1.92554884
v -2.05015370 1.62613208 1.94161549
v -2.04675474 1.53937239 2.02445026
v -2.04675474 1.52906595 2.02038666
v -2.04675474 1.52687226 2.00977766
v -2.04675474 1.52674382 1.99309801
v -2.04675474 1.52682284 1.92554884
v -2.03092647 1.52542956 1.92554884
v -2.03008231 1.52536037 1.92554884
v -2.11131189 1.62613208 1.96543368
v -2.11131189 1.62274272 2.02103914
v -2.06342724 1.55604250 2.02480620
v -2.04675474 1.60915564 1.92554884
v -2.06342724 1.62613208 1.94224823
v -2.11131189 1.55604250 2.02049545
v -2.11131189 1.54763331 2.01931884
v -2.11131189 1.54622026 2.01912107
v -2.06019492 1.53002445 2.01928914
v -2.07131355 1.53125965 2.01640208
v -2.06482678 1.52959956 2.01042036
v -2.06342724 1.52900667 1.99309801
v -2.06342724 1.52853233 1.92554884
v -2.04761006 1.52690189 1.92554884
v -2.11131189 1.60139864 1.94795316
v -2.08791937 1.62613208 1.95174981
v -2.11131189 1.58939260 2.02097985
v -2.11131189 1.57272250 2.02093047
v -2.05992832 1.60277218 1.92554884
v -2.07957757 1.62613208 1.94720174
v -2.06667059 1.62613208 1.94319742
v -2.11131189 1.54185264 2.00977766
v -2.07250208 1.53083474 2.00527903
v -2.11131189 1.53901663 1.99309801
v -2.07293526 1.53072604 1.99309801
v -2.07387944 1.53026160 1.92554884
v -2.11131189 1.58939260 1.94381042
v -2.06827011 1.59276221 1.92554884
v -2.07496795 1.58442220 1.92554884
v -2.08462042 1.57185291 1.92554884
v -2.11131189 1.53918464 1.97641836
v -2.08178800 1.53658580 1.92554884
v -2.11131189 1.53987633 1.96189408
v -2.11131189 1.53999493 1.95975845
v -2.11131189 1.54413526 1.94741925
v -2.11131189 1.58726808 1.94331605
v -2.08909680 1.56458012 1.92554884
v -2.08221008 1.53703046 1.92554884
v -2.11131189 1.55604250 1.94313808
v -2.08986320 1.54537046 1.92554884
v -2.09057406 1.55672432 1.92554884
v -2.11131189 1.57027187 1.94254489
f 1 2 3
f 1 3 4
f 1 4 5
f 1 5 14
f 1 14 33
f 1 33 32
f 1 32 47
f 1 47 60
f 1 60 72
f 1 72 71
f 1 71 70
f 1 70 86
f 1 86 85
f 1 85 98
f 1 98 104
f 1 104 110
f 1 110 112
f 1 112 113
f 1 113 109
f 1 109 102
f 1 102 101
f 1 101 100
f 1 100 91
f 1 91 76
f 1 76 64
f 1 64 53
f 1 53 40
f 1 40 24
f 1 24 11
f 1 11 10
f 1 10 6
f 1 6 2
f 2 7 8
f 2 8 9
f 2 9 3
f 2 6 10
f 2 10 11
f 2 11 7
f 3 9 4
f 4 9 12
f 4 12 13
f 4 13 14
f 4 14 5
f 7 15 8
f 7 11 16
f 7 16 17
f 7 17 18
f 7 18 19
f 7 19 15
f 8 15 20
f 8 20 21
f 8 21 22
f 8 22 9
f 9 22 23
f 9 23 12
f 11 24 25
f 11 25 26
f 11 26 27
f 11 27 17
f 11 17 16
f 12 28 13
f 12 23 29
f 12 29 28
f 13 28 30
f 13 30 31
f 13 31 32
f 13 32 33
f 13 33 14
f 15 19 34
f 15 34 20
f 17 27 26
f 17 26 25
f 17 25 41
f 17 41 54
f 17 54 65
f 17 65 77
f 17 77 93
f 17 93 92
f 17 92 88
f 17 88 73
f 17 73 61
f 17 61 49
f 17 49 48
f 17 48 35
f 17 35 34
f 17 34 19
f 17 19 18
f 20 34 35
f 20 35 36
f 20 36 37
f 20 37 21
f 21 37 38
f 21 38 22
f 22 38 39
f 22 39 23
f 23 39 29
f 24 40 25
f 25 40 41
f 28 29 42
f 28 42 30
f 29 39 43
f 29 43 42
f 30 42 44
f 30 44 45
f 30 45 31
f 31 45 46
f 31 46 32
f 32 46 47
f 35 48 37
f 35 37 36
f 37 48 49
f 37 49 50
f 37 50 51
f 37 51 38
f 38 51 52
f 38 52 39
f 39 52 43
f 40 53 54
f 40 54 41
f 42 55 44
f 42 43 55
f 43 52 56
f 43 56 55
f 44 55 57
f 44 57 58
f 44 58 45
f 45 58 59
f 45 59 46
f 46 59 60
f 46 60 47
f 49 61 50
f 50 62 63
f 50 63 51
f 50 61 62
f 51 63 52
f 52 63 56
f 53 64 54
f 54 64 65
f 55 56 57
f 56 63 66
f 56 66 57
f 57 66 67
f 57 67 58
f 58 67 68
f 58 68 59
f 59 68 69
f 59 69 70
f 59 70 71
f 59 71 72
f 59 72 60
f 61 63 62
f 61 73 87
f 61 87 99
f 61 99 108
f 61 108 114
f 61 114 111
f 61 111 107
f 61 107 106
f 61 106 105
f 61 105 103
f 61 103 96
f 61 96 94
f 61 94 80
f 61 80 79
f 61 79 78
f 61 78 90
f 61 90 89
f 61 89 74
f 61 74 63
f 63 74 75
f 63 75 66
f 64 76 77
f 64 77 65
f 66 75 78
f 66 78 79
f 66 79 80
f 66 80 81
f 66 81 67
f 67 81 68
f 68 81 82
f 68 82 83
f 68 83 84
f 68 84 69
f 69 84 85
f 69 85 86
f 69 86 70
f 73 88 87
f 74 89 75
f 75 89 90
f 75 90 78
f 76 91 92
f 76 92 93
f 76 93 77
f 80 94 82
f 80 82 81
f 82 95 83
f 82 94 96
f 82 96 95
f 83 95 84
f 84 95 97
f 84 97 98
f 84 98 85
f 87 88 92
f 87 92 91
f 87 91 100
f 87 100 101
f 87 101 102
f 87 102 99
f 95 96 97
f 96 103 98
f 96 98 97
f 98 103 105
f 98 105 106
f 98 106 107
f 98 107 104
f 99 102 109
f 99 109 108
f 104 107 110
f 107 111 112
f 107 112 110
f 108 109 113
f 108 113 114
f 111 114 113
f 111 113 112

