# https://github.com/mikedh/trimesh
v 1.17544516 -0.72649543 0.82811076
v 1.17544516 -0.72649543 0.90014206
v 1.17544516 -0.71104503 0.83588233
v 1.59075952 -0.71105411 0.83679272
v 1.59075952 -0.72649242 0.82906556
v 1.57876679 -0.72649543 0.82920618
v 1.17544516 -0.72648637 0.90307305
v 1.18455151 -0.72649543 0.90259936
v 1.17544516 -0.71104503 0.89559014
v 1.39562356 -0.71104503 0.83674090
v 1.59075952 -0.71105411 0.89622667
v 1.59075952 -0.72649543 0.90355414
v 1.17544516 -0.72634874 0.90300644
v 1.19089342 -0.72649543 0.90300644
v 1.19199106 -0.72649543 0.90305824
v 1.20739867 -0.72649543 0.90310265
v 1.37411795 -0.72649543 0.90339871
v 1.54148769 -0.72649543 0.90369478
v 1.55742378 -0.71105411 0.89645612
v 1.30744651 -0.71104503 0.89576778
v 1.39562356 -0.71104503 0.89573078
v 1.59067819 -0.71105411 0.89644872
v 1.59075952 -0.72649543 0.90370217
v 1.55742378 -0.72649543 0.90371698
v 1.55819620 -0.72649543 0.90371698
v 1.37411795 -0.71104503 0.89579738
f 1 2 7
f 1 7 13
f 1 13 9
f 1 9 3
f 1 3 4
f 1 4 5
f 1 5 6
f 1 6 12
f 1 12 23
f 1 23 25
f 1 25 24
f 1 24 18
f 1 18 17
f 1 17 16
f 1 16 15
f 1 15 14
f 1 14 8
f 1 8 2
f 2 8 7
f 3 9 20
f 3 20 26
f 3 26 21
f 3 21 10
f 3 10 4
f 4 11 23
f 4 23 12
f 4 12 5
f 4 10 21
f 4 21 11
f 5 12 6
f 7 8 14
f 7 14 15
f 7 15 16
f 7 16 17
f 7 17 18
f 7 18 19
f 7 19 13
f 9 13 19
f 9 19 20
f 11 21 22
f 11 22 23
f 18 24 19
f 19 24 25
f 19 25 22
f 19 22 26
f 19 26 20
f 21 26 22
f 22 25 23

