# https://github.com/mikedh/trimesh
v 0.15586447 -0.70980473 1.60928756
v 0.14700435 -0.67767099 1.58213886
v 0.14713488 -0.70980473 1.58194597
v 0.19667859 -0.70980473 1.60928756
v 0.15590363 -0.40530314 1.60928756
v 0.14702389 -0.66100135 1.58209827
v 0.14475824 -0.70980473 1.57020931
v 0.14492151 -0.70980473 1.57105201
v 0.15591019 -0.37196386 1.60928756
v 0.15594935 -0.28512373 1.60928756
v 0.19673736 -0.67779572 1.60928756
v 0.21084697 -0.70980473 1.60227198
v 0.21084697 -0.60758365 1.60269839
v 0.21084697 -0.59091402 1.60273898
v 0.14482357 -0.67767099 1.57020931
v 0.14782046 -0.28512373 1.58113374
v 0.14428164 -0.70980473 1.55475668
v 0.19629337 -0.28512373 1.60928756
v 0.19673736 -0.67767099 1.60928756
v 0.21084697 -0.70980473 1.54842131
v 0.21084697 -0.57424436 1.60273898
v 0.14486928 -0.66100135 1.57020931
v 0.14540467 -0.28512373 1.55354849
v 0.14596621 -0.28512373 1.57020931
v 0.14424898 -0.70980473 1.55354849
v 0.21084698 -0.28512373 1.60201812
v 0.19667211 -0.41103983 1.60928756
v 0.21084698 -0.41103983 1.60255623
v 0.21084698 -0.40763108 1.60254610
v 0.21084698 -0.39096142 1.60247499
v 0.19673082 -0.61099241 1.60928756
v 0.20531026 -0.70980473 1.52021671
v 0.20537553 -0.67767099 1.52021671
v 0.21084698 -0.41103983 1.54625878
v 0.14570502 -0.28512373 1.56275712
v 0.14543077 -0.28512373 1.54609630
v 0.14415105 -0.70980473 1.53687753
v 0.14415105 -0.70980473 1.53808572
v 0.21084698 -0.28512373 1.54593387
v 0.20506862 -0.70980473 1.51919132
v 0.20202601 -0.67767099 1.50566769
v 0.20566282 -0.46104875 1.52021671
v 0.21084698 -0.39437018 1.54614708
v 0.14549610 -0.28512373 1.53687753
v 0.14663866 -0.70980473 1.52404437
v 0.14631877 -0.28512373 1.53110054
v 0.14735036 -0.28512373 1.52390221
v 0.20540163 -0.37770054 1.52021671
v 0.20183015 -0.29435232 1.50685562
v 0.20484665 -0.28512373 1.52021671
v 0.20548001 -0.39437018 1.52021671
v 0.20176488 -0.70980473 1.50628705
v 0.20198685 -0.67746314 1.50556618
v 0.20199341 -0.66806827 1.50556618
v 0.20227415 -0.46104875 1.50604338
v 0.15437582 -0.70980473 1.50556618
v 0.15386001 -0.28512373 1.50556618
v 0.20115763 -0.29435232 1.50556618
v 0.20113808 -0.29289737 1.50556618
v 0.20111847 -0.29169183 1.50556618
v 0.20100748 -0.28512373 1.50556618
v 0.20174528 -0.28512373 1.50699772
v 0.20196725 -0.34436124 1.50651039
v 0.20147759 -0.34436124 1.50556618
v 0.20148408 -0.70980473 1.50567788
v 0.20143843 -0.70955532 1.50556618
v 0.20201952 -0.47771841 1.50556618
v 0.20201952 -0.46104875 1.50556618
v 0.20143186 -0.70980473 1.50556618
f 1 2 3
f 1 3 8
f 1 8 7
f 1 7 17
f 1 17 25
f 1 25 38
f 1 38 37
f 1 37 45
f 1 45 56
f 1 56 69
f 1 69 65
f 1 65 52
f 1 52 40
f 1 40 32
f 1 32 20
f 1 20 12
f 1 12 4
f 1 4 11
f 1 11 19
f 1 19 31
f 1 31 27
f 1 27 18
f 1 18 10
f 1 10 9
f 1 9 5
f 1 5 2
f 2 6 7
f 2 7 8
f 2 8 3
f 2 5 9
f 2 9 10
f 2 10 6
f 4 12 13
f 4 13 14
f 4 14 11
f 6 15 7
f 6 10 16
f 6 16 15
f 7 15 17
f 10 18 26
f 10 26 39
f 10 39 50
f 10 50 62
f 10 62 61
f 10 61 57
f 10 57 47
f 10 47 46
f 10 46 44
f 10 44 36
f 10 36 23
f 10 23 35
f 10 35 24
f 10 24 16
f 11 14 21
f 11 21 19
f 12 20 34
f 12 34 43
f 12 43 39
f 12 39 26
f 12 26 30
f 12 30 29
f 12 29 28
f 12 28 21
f 12 21 14
f 12 14 13
f 15 16 22
f 15 22 23
f 15 23 17
f 16 24 22
f 17 23 25
f 18 27 28
f 18 28 29
f 18 29 30
f 18 30 26
f 19 21 31
f 20 32 33
f 20 33 34
f 21 28 27
f 21 27 31
f 22 24 35
f 22 35 23
f 23 36 37
f 23 37 38
f 23 38 25
f 32 40 41
f 32 41 33
f 33 41 42
f 33 42 34
f 34 42 43
f 36 44 37
f 37 44 46
f 37 46 47
f 37 47 45
f 39 48 49
f 39 49 50
f 39 43 42
f 39 42 51
f 39 51 48
f 40 52 41
f 41 52 53
f 41 53 54
f 41 54 55
f 41 55 42
f 42 55 51
f 45 47 57
f 45 57 56
f 48 51 49
f 49 58 59
f 49 59 60
f 49 60 61
f 49 61 62
f 49 62 50
f 49 51 63
f 49 63 64
f 49 64 58
f 51 55 63
f 52 65 66
f 52 66 53
f 53 66 69
f 53 69 56
f 53 56 57
f 53 57 61
f 53 61 60
f 53 60 59
f 53 59 58
f 53 58 64
f 53 64 68
f 53 68 67
f 53 67 54
f 54 67 55
f 55 67 68
f 55 68 64
f 55 64 63
f 65 69 66

