# https://github.com/mikedh/trimesh
v -1.81495158 -0.73718057 0.18173477
v -1.78680460 -0.73733324 0.18173477
v -1.81495158 -0.80217384 0.18173477
v -1.81495158 -0.74443314 0.40778507
v -1.78680460 -0.74734053 0.39151215
v -1.78680460 -0.80126408 0.18173477
v -1.81495158 -0.79530934 0.40817310
v -1.81495158 -0.74445221 0.40817310
v -1.78680460 -0.74762046 0.39631400
v -1.78680460 -0.79102141 0.40817310
v -1.81495158 -0.79204567 0.42466424
v -1.78680460 -0.74861927 0.40817310
v -1.81495158 -0.74669798 0.42400947
v -1.78680460 -0.78791679 0.41942590
v -1.81495158 -0.78844483 0.42944183
v -1.81495158 -0.74672343 0.42415497
v -1.78680460 -0.74932544 0.41118030
v -1.78680460 -0.77703159 0.42354867
v -1.81048543 -0.77703159 0.42944183
v -1.81495158 -0.75064873 0.42944183
v -1.78680460 -0.75096047 0.41789804
v -1.78680460 -0.76037608 0.42202081
v -1.81059564 -0.76037608 0.42944183
v -1.78680460 -0.75379150 0.41923188
f 1 2 6
f 1 6 3
f 1 3 7
f 1 7 11
f 1 11 15
f 1 15 20
f 1 20 16
f 1 16 13
f 1 13 8
f 1 8 4
f 1 4 2
f 2 5 9
f 2 9 12
f 2 12 17
f 2 17 21
f 2 21 24
f 2 24 22
f 2 22 18
f 2 18 14
f 2 14 10
f 2 10 6
f 2 4 5
f 3 6 7
f 4 8 5
f 5 8 9
f 6 10 7
f 7 10 11
f 8 12 9
f 8 13 12
f 10 14 11
f 11 14 15
f 12 13 16
f 12 16 17
f 14 18 15
f 15 18 19
f 15 19 23
f 15 23 20
f 16 20 21
f 16 21 17
f 18 22 23
f 18 23 19
f 20 23 22
f 20 22 24
f 20 24 21

