# https://github.com/mikedh/trimesh
v -3.53286287 -0.24433204 0.51551227
v -3.53286287 -0.24433204 0.56823959
v -3.53286287 -0.24437769 0.50996113
v -3.53294769 -0.24433204 0.50999549
v -3.53294769 -0.24433204 0.56848022
v -3.53286287 -0.26095582 0.56845155
v -3.74938706 -0.24437769 0.51134749
v -3.74938706 -0.24433204 0.51134749
v -3.53286287 -0.57762966 0.51042516
v -3.74938706 -0.24433204 0.56785576
v -3.53294769 -0.24437769 0.56848022
v -3.53286287 -0.41093518 0.56834271
v -3.74938706 -0.66120525 0.51216670
v -3.53286287 -0.66097690 0.51060275
v -3.74938706 -0.24437769 0.56785576
v -3.74938706 -0.61096856 0.56774120
v -3.74938706 -0.67764633 0.56768964
v -3.53294769 -0.41102652 0.56834271
v -3.53286287 -0.42760463 0.56831979
v -3.58303548 -0.71089389 0.51108394
v -3.74938706 -0.67782902 0.51225262
v -3.53286287 -0.67764633 0.51067147
v -3.74938706 -0.69431580 0.56763808
v -3.53294769 -0.67764633 0.56788440
v -3.53294769 -0.52766699 0.56817659
v -3.53294769 -0.42769597 0.56831979
v -3.53286287 -0.52757565 0.56817659
v -3.53307489 -0.71089389 0.51095218
v -3.74938706 -0.71089389 0.51244166
v -3.53286287 -0.69431580 0.51089490
v -3.53294769 -0.71089389 0.51095218
v -3.53286287 -0.69422446 0.56782712
v -3.74938706 -0.71080258 0.56745477
v -3.53286287 -0.67755502 0.56788440
v -3.74938706 -0.71089389 0.56744902
v -3.53286287 -0.71089389 0.56747766
v -3.53286287 -0.71089389 0.56761517
f 1 2 6
f 1 6 12
f 1 12 19
f 1 19 27
f 1 27 34
f 1 34 32
f 1 32 37
f 1 37 36
f 1 36 30
f 1 30 22
f 1 22 14
f 1 14 9
f 1 9 3
f 1 3 4
f 1 4 8
f 1 8 10
f 1 10 5
f 1 5 2
f 2 5 6
f 3 7 8
f 3 8 4
f 3 9 7
f 5 10 15
f 5 15 11
f 5 11 6
f 6 11 12
f 7 9 13
f 7 13 21
f 7 21 29
f 7 29 35
f 7 35 33
f 7 33 23
f 7 23 17
f 7 17 16
f 7 16 15
f 7 15 10
f 7 10 8
f 9 14 13
f 11 15 16
f 11 16 17
f 11 17 18
f 11 18 12
f 12 18 26
f 12 26 19
f 13 14 20
f 13 20 21
f 14 22 20
f 17 23 24
f 17 24 25
f 17 25 26
f 17 26 18
f 19 26 25
f 19 25 27
f 20 28 31
f 20 31 36
f 20 36 37
f 20 37 35
f 20 35 29
f 20 29 21
f 20 22 28
f 22 30 31
f 22 31 28
f 23 32 24
f 23 33 32
f 24 32 34
f 24 34 27
f 24 27 25
f 30 36 31
f 32 33 37
f 33 35 37

