# https://github.com/mikedh/trimesh
v -3.92698552 -0.61830869 0.80002589
v -3.92397099 -0.72311559 0.80002589
v -3.98160879 -0.61830869 0.80002589
v -3.89966569 -0.61830869 0.83764739
v -3.92034861 -0.72311559 0.80502409
v -3.98242198 -0.72311559 0.80002589
v -3.98280804 -0.61830869 0.80354514
v -3.89966569 -0.72306427 0.83417131
v -3.89966569 -0.61830869 0.83817636
v -3.90203136 -0.72311559 0.83316735
v -3.98328446 -0.72311559 0.80354514
v -3.98339944 -0.72311559 0.80808996
v -3.98358016 -0.72311559 0.82021303
v -3.98293124 -0.61830869 0.81291544
v -3.89966569 -0.72311559 0.90366043
v -3.90690223 -0.61830869 0.90104797
v -3.89966569 -0.61833948 0.89885653
v -3.98306267 -0.72311559 0.83688091
v -3.98301338 -0.61830869 0.82021303
v -3.89966569 -0.72311559 0.90403826
v -3.92568774 -0.61830869 0.91029951
v -3.98246305 -0.72311559 0.85353801
v -3.98265199 -0.61830869 0.82958332
v -3.91852511 -0.72311559 0.91029951
v -3.96733282 -0.61830869 0.91029951
v -3.97086484 -0.72311559 0.91029951
v -3.98165808 -0.61830869 0.85353801
v -3.98197846 -0.61830869 0.84625121
v -3.98236452 -0.61830869 0.83688091
f 1 2 6
f 1 6 3
f 1 3 7
f 1 7 14
f 1 14 19
f 1 19 23
f 1 23 29
f 1 29 28
f 1 28 27
f 1 27 25
f 1 25 21
f 1 21 16
f 1 16 9
f 1 9 4
f 1 4 2
f 2 4 5
f 2 5 10
f 2 10 15
f 2 15 20
f 2 20 24
f 2 24 26
f 2 26 22
f 2 22 18
f 2 18 13
f 2 13 12
f 2 12 11
f 2 11 6
f 3 6 7
f 4 8 5
f 4 9 17
f 4 17 20
f 4 20 15
f 4 15 8
f 5 8 10
f 6 11 7
f 7 11 12
f 7 12 13
f 7 13 14
f 8 15 10
f 9 16 17
f 13 18 19
f 13 19 14
f 16 21 17
f 17 21 20
f 18 22 19
f 19 22 23
f 20 21 24
f 21 25 26
f 21 26 24
f 22 26 27
f 22 27 28
f 22 28 29
f 22 29 23
f 25 27 26

