# https://github.com/mikedh/trimesh
v -3.78717380 1.98372316 1.70960614
v -3.78615256 1.98372316 1.69285128
v -3.78447300 1.96573244 1.70960614
v -3.78449835 1.96573244 1.72627648
v -3.78446460 1.96573244 1.74294677
v -3.78701349 1.98372316 1.74294677
v -3.77886887 1.96573244 1.69252379
v -3.78063282 1.98372316 1.67676196
v -3.78308044 1.96573244 1.75239121
v -3.78621167 1.98372316 1.75961712
v -3.78623702 1.98372316 1.75943754
v -3.77315493 1.96573244 1.68928055
v -3.78014328 1.98372316 1.67657182
v -3.76447014 1.96573244 1.68528733
v -3.78161183 1.96573244 1.75961712
v -3.78127426 1.98372316 1.77538951
v -3.76447014 1.98372316 1.67258915
v -3.76374430 1.96573244 1.68526615
v -3.77831182 1.96573244 1.76600846
v -3.78092822 1.98372316 1.77605504
v -3.70095898 1.96573244 1.68597398
v -3.74037391 1.96573244 1.68523448
v -3.74678833 1.96573244 1.68512886
v -3.70095898 1.98372316 1.68602682
v -3.70095898 1.97614719 1.68598453
v -3.77579668 1.96573244 1.77024473
v -3.76505254 1.98372316 1.78035465
v -3.70095898 1.96573244 1.76930454
v -3.70095898 1.98372316 1.76951579
v -3.76913749 1.96573244 1.77194558
v -3.76447014 1.98372316 1.78050256
v -3.76447014 1.96573244 1.77249488
f 1 2 3
f 1 3 4
f 1 4 5
f 1 5 6
f 1 6 11
f 1 11 10
f 1 10 16
f 1 16 20
f 1 20 27
f 1 27 31
f 1 31 29
f 1 29 24
f 1 24 17
f 1 17 13
f 1 13 8
f 1 8 2
f 2 7 3
f 2 8 7
f 3 7 12
f 3 12 14
f 3 14 18
f 3 18 23
f 3 23 22
f 3 22 21
f 3 21 28
f 3 28 32
f 3 32 30
f 3 30 26
f 3 26 19
f 3 19 15
f 3 15 9
f 3 9 5
f 3 5 4
f 5 9 10
f 5 10 11
f 5 11 6
f 7 8 12
f 8 13 14
f 8 14 12
f 9 15 10
f 10 15 16
f 13 17 14
f 14 17 18
f 15 19 16
f 16 19 20
f 17 21 22
f 17 22 23
f 17 23 18
f 17 24 25
f 17 25 21
f 19 26 20
f 20 26 27
f 21 25 24
f 21 24 29
f 21 29 28
f 26 30 27
f 27 30 31
f 28 29 31
f 28 31 32
f 30 32 31

