# https://github.com/mikedh/trimesh
v -2.51054016 -0.27768454 0.56918832
v -2.51054016 -0.26101977 0.56917500
v -2.53301206 -0.26101977 0.56914836
v -2.53301206 -0.27768454 0.56914836
v -2.51626428 -0.71101432 0.56902179
v -2.51176772 -0.71096867 0.56900182
v -2.51054016 -0.61098002 0.56884196
v -2.51054016 -0.24458327 0.56912172
v -2.53292847 -0.24458327 0.56910839
v -2.53301206 -0.24458327 0.56826909
v -2.53301206 -0.71096867 0.56896850
v -2.53292847 -0.71101432 0.56897518
v -2.51176772 -0.71101432 0.52687659
v -2.51054016 -0.64417259 0.56879532
v -2.51054016 -0.62759913 0.56882196
v -2.51054016 -0.24458327 0.50113781
v -2.53292847 -0.24458327 0.51104296
v -2.53301206 -0.26097411 0.51143597
v -2.53301206 -0.71101432 0.56869539
v -2.51176772 -0.71101432 0.50249669
v -2.51054016 -0.64417259 0.50256330
v -2.51054016 -0.44437794 0.50165072
v -2.53292847 -0.71101432 0.51125614
v -2.53301206 -0.40986131 0.51131607
v -2.53301206 -0.70507892 0.51214205
f 1 2 3
f 1 3 4
f 1 4 5
f 1 5 6
f 1 6 7
f 1 7 15
f 1 15 14
f 1 14 21
f 1 21 22
f 1 22 16
f 1 16 8
f 1 8 2
f 2 8 9
f 2 9 3
f 3 9 10
f 3 10 18
f 3 18 24
f 3 24 25
f 3 25 19
f 3 19 11
f 3 11 4
f 4 11 12
f 4 12 5
f 5 12 19
f 5 19 23
f 5 23 20
f 5 20 13
f 5 13 6
f 6 13 14
f 6 14 15
f 6 15 7
f 8 16 17
f 8 17 10
f 8 10 9
f 10 17 18
f 11 19 12
f 13 20 21
f 13 21 14
f 16 22 20
f 16 20 23
f 16 23 17
f 17 23 24
f 17 24 18
f 19 25 23
f 20 22 21
f 23 25 24

