# https://github.com/mikedh/trimesh
v 1.17441980 -0.41099382 1.22132107
v 1.16090591 -0.41099382 1.22130733
v 1.16090591 -0.46872278 1.22123862
v 1.17441980 -0.46872278 1.22122488
v 1.17441980 -0.24436056 1.22122488
v 1.17440128 -0.24405267 1.22122488
v 1.16090591 -0.24405267 1.22123175
v 1.16090591 -0.46872278 1.15193283
v 1.17441980 -0.46872278 1.16036330
v 1.17441980 -0.24405267 1.21761771
v 1.16090591 -0.24405267 1.15235195
v 1.16090591 -0.41099382 1.15163052
v 1.17441980 -0.39568740 1.15951133
v 1.17441980 -0.24405267 1.15942200
v 1.16093369 -0.24405267 1.15112895
v 1.16090591 -0.24436056 1.15113582
f 1 2 3
f 1 3 4
f 1 4 9
f 1 9 13
f 1 13 14
f 1 14 10
f 1 10 5
f 1 5 6
f 1 6 7
f 1 7 2
f 2 7 11
f 2 11 16
f 2 16 12
f 2 12 8
f 2 8 3
f 3 8 9
f 3 9 4
f 5 10 6
f 6 10 14
f 6 14 15
f 6 15 11
f 6 11 7
f 8 12 13
f 8 13 9
f 11 15 16
f 12 16 15
f 12 15 13
f 13 15 14

