# https://github.com/mikedh/trimesh
v -0.03347771 -0.74237011 0.20179471
v -0.03347771 -0.79677146 0.20179471
v -0.05937812 -0.74501524 0.20179471
v -0.03347771 -0.74286981 0.44151521
v -0.03840676 -0.79634236 0.20179471
v -0.03347771 -0.79785774 0.43809941
v -0.05937812 -0.79440877 0.20179471
v -0.05937812 -0.74566699 0.43556423
v -0.05937812 -0.74574848 0.44151521
v -0.03347771 -0.74597658 0.45755352
v -0.03347771 -0.79784685 0.44084805
v -0.05937812 -0.79343655 0.44151521
v -0.05937812 -0.74776354 0.44920081
v -0.05937812 -0.74896387 0.45341722
v -0.03347771 -0.75439533 0.46740065
v -0.03347771 -0.79361036 0.45739342
v -0.05937812 -0.78939553 0.45421778
v -0.05937812 -0.76037534 0.45808722
v -0.03347771 -0.76037534 0.47407219
v -0.03347771 -0.79338766 0.45803388
v -0.03347771 -0.77703357 0.47441909
v -0.05937812 -0.78497978 0.45589900
v -0.05937812 -0.77703357 0.45891448
v -0.03347771 -0.76140732 0.47412554
f 1 2 5
f 1 5 7
f 1 7 3
f 1 3 4
f 1 4 10
f 1 10 15
f 1 15 19
f 1 19 24
f 1 24 21
f 1 21 20
f 1 20 16
f 1 16 11
f 1 11 6
f 1 6 2
f 2 6 5
f 3 7 12
f 3 12 17
f 3 17 22
f 3 22 23
f 3 23 18
f 3 18 14
f 3 14 13
f 3 13 9
f 3 9 8
f 3 8 4
f 4 8 9
f 4 9 10
f 5 6 7
f 6 11 7
f 7 11 12
f 9 13 10
f 10 13 14
f 10 14 15
f 11 16 12
f 12 16 17
f 14 18 19
f 14 19 15
f 16 20 17
f 17 20 21
f 17 21 22
f 18 23 24
f 18 24 19
f 21 24 23
f 21 23 22

