# https://github.com/mikedh/trimesh
v -0.05937812 -0.74612634 0.85807762
v -0.05937812 -0.74628067 1.04942462
v -0.05937812 -0.79542541 0.85807762
v -0.54862178 -0.74335912 0.85807762
v -0.05937812 -0.79605334 1.04942462
v -0.79864029 -0.74209791 0.95819996
v -0.81525198 -0.74202872 0.97487141
v -0.81525198 -0.74235864 1.04942462
v -0.05937812 -0.79563826 0.89155164
v -0.16537251 -0.79578726 0.90822309
v -0.18206851 -0.79579256 0.90822309
v -0.71532889 -0.79556907 0.85807762
v -0.79847164 -0.74220966 0.85807762
v -0.83194797 -0.74193294 0.95819996
v -0.81525198 -0.74201275 0.95819996
v -0.05937812 -0.79605334 1.04153846
v -0.92082472 -0.79625555 1.04942462
v -0.83194797 -0.74194888 0.97487141
v -0.82317836 -0.74232672 1.04942462
v -0.05937812 -0.79567550 0.89750841
v -0.16537251 -0.79586707 0.92489454
v -0.18206851 -0.79587240 0.92489454
v -0.92082472 -0.79591496 0.90822309
v -0.92082472 -0.79571275 0.87488019
v -0.71541321 -0.79556907 0.85807762
v -0.81508332 -0.74213515 0.85807762
v -0.83177935 -0.74208192 0.85807762
v -0.84864400 -0.74190099 0.95819996
v -0.05937812 -0.79604271 1.02486702
v -0.92082472 -0.74227350 1.04942462
v -0.92082472 -0.79624491 1.04153846
v -0.16537251 -0.79604800 1.00819557
v -0.84864400 -0.74193294 0.97487141
v -0.84864400 -0.74226819 1.04942462
v -0.83987438 -0.74228413 1.04942462
v -0.83194797 -0.74230011 1.04942462
v -0.05937812 -0.79572340 0.90822309
v -0.16537251 -0.79592030 0.94154725
v -0.18206851 -0.79592560 0.94154725
v -0.92082472 -0.79598947 0.92489454
v -0.92082472 -0.79550521 0.85807762
v -0.91542801 -0.79551051 0.85807762
v -0.84847535 -0.74206065 0.85807762
v -0.91525939 -0.74189035 0.95819996
v -0.16537251 -0.79595755 0.95819996
v -0.05937812 -0.79601075 1.00819557
v -0.88195168 -0.74226285 1.04942462
v -0.92082472 -0.74192227 0.97487141
v -0.92082472 -0.79621297 1.02486702
v -0.18206851 -0.79596286 0.95819996
v -0.91525939 -0.74192227 0.97487141
v -0.86525568 -0.74226285 1.04942462
v -0.05937812 -0.79577659 0.92489454
v -0.92082472 -0.79603204 0.94154725
v -0.92082472 -0.74212981 0.85807762
v -0.86525568 -0.74206065 0.85807762
v -0.92082472 -0.74189569 0.95819996
v -0.92082472 -0.74190099 0.96368843
v -0.92082472 -0.79620232 1.01937855
f 1 2 5
f 1 5 16
f 1 16 29
f 1 29 46
f 1 46 53
f 1 53 37
f 1 37 20
f 1 20 9
f 1 9 3
f 1 3 12
f 1 12 25
f 1 25 42
f 1 42 41
f 1 41 55
f 1 55 56
f 1 56 43
f 1 43 27
f 1 27 26
f 1 26 13
f 1 13 4
f 1 4 2
f 2 4 6
f 2 6 7
f 2 7 8
f 2 8 19
f 2 19 36
f 2 36 35
f 2 35 34
f 2 34 52
f 2 52 47
f 2 47 30
f 2 30 17
f 2 17 5
f 3 9 10
f 3 10 11
f 3 11 12
f 4 13 14
f 4 14 15
f 4 15 6
f 5 17 16
f 6 15 7
f 7 15 14
f 7 14 18
f 7 18 8
f 8 18 19
f 9 20 10
f 10 21 22
f 10 22 11
f 10 20 21
f 11 22 23
f 11 23 24
f 11 24 12
f 12 24 25
f 13 26 14
f 14 26 27
f 14 27 28
f 14 28 18
f 16 17 29
f 17 30 48
f 17 48 58
f 17 58 57
f 17 57 55
f 17 55 41
f 17 41 24
f 17 24 23
f 17 23 40
f 17 40 54
f 17 54 59
f 17 59 49
f 17 49 31
f 17 31 32
f 17 32 29
f 18 28 33
f 18 33 34
f 18 34 35
f 18 35 36
f 18 36 19
f 20 37 21
f 21 38 39
f 21 39 22
f 21 37 38
f 22 39 40
f 22 40 23
f 24 41 42
f 24 42 25
f 27 43 28
f 28 43 44
f 28 44 51
f 28 51 33
f 29 32 45
f 29 45 46
f 30 47 48
f 31 49 50
f 31 50 32
f 32 50 45
f 33 51 52
f 33 52 34
f 37 53 38
f 38 45 50
f 38 50 39
f 38 53 46
f 38 46 45
f 39 50 54
f 39 54 40
f 43 56 44
f 44 57 58
f 44 58 48
f 44 48 51
f 44 56 57
f 47 52 51
f 47 51 48
f 49 59 50
f 50 59 54
f 55 57 56

