# https://github.com/mikedh/trimesh
v -3.96627275 -0.13837330 0.07020215
v -3.94960888 -0.13865293 0.07020215
v -3.94960888 -0.13865293 0.07014987
v -3.96627275 -0.13838206 0.07014987
v -3.98293655 -0.14376482 0.07014987
v -3.98293655 -0.14376482 0.07020215
v -3.96627275 -0.13840825 0.10354048
v -3.94960888 -0.13874031 0.18686034
v -3.93294502 -0.13985880 0.18686034
v -3.93294502 -0.14109090 0.07014987
v -3.93294502 -0.13991126 0.17019111
v -3.99200732 -0.15097391 0.07014987
v -3.99200732 -0.15097391 0.07020215
v -3.99178725 -0.15146324 0.20360789
v -3.98293655 -0.14443767 0.20360789
v -3.96627275 -0.13867916 0.20360789
v -3.96627275 -0.13862671 0.18686034
v -3.94960888 -0.13879274 0.20360789
v -3.93294502 -0.13995495 0.20360789
v -3.91746807 -0.14684944 0.17019111
v -3.91663491 -0.14713781 0.15352194
v -3.91713798 -0.14769706 0.12020971
v -3.92102882 -0.14802909 0.07014987
v -3.99278552 -0.16100545 0.07014987
v -3.99218816 -0.16097049 0.20360789
v -3.92032137 -0.14691933 0.20360789
v -3.92033711 -0.14685817 0.20352950
v -3.91248467 -0.14998646 0.15352194
v -3.91248467 -0.15073796 0.12020971
v -3.91684717 -0.16097049 0.07014987
v -3.91248467 -0.15116613 0.11399141
v -3.91248467 -0.15409346 0.10003946
v -3.91248467 -0.16177441 0.08789027
v -3.99277765 -0.17767807 0.07014987
v -3.99277765 -0.17767807 0.07020215
v -3.99218816 -0.16100545 0.20352950
v -3.99193662 -0.17767807 0.20352950
v -3.99193662 -0.17759943 0.20360789
v -3.91672140 -0.16100545 0.20360789
v -3.91248467 -0.16078697 0.18691255
v -3.91248467 -0.15143704 0.17019111
v -3.91248467 -0.17767807 0.08483342
v -3.91713011 -0.17762562 0.07014987
v -3.99200732 -0.19568764 0.07014987
v -3.99153572 -0.19179912 0.20352950
v -3.99153572 -0.19173794 0.20360789
v -3.91895367 -0.17767807 0.20360789
v -3.91248467 -0.22763478 0.18411695
v -3.91248467 -0.19457788 0.18742206
v -3.91248467 -0.17767807 0.18881985
v -3.91248467 -0.19567018 0.08875245
v -3.92130390 -0.19152822 0.07014987
v -3.99184233 -0.19769744 0.07014987
v -3.99107199 -0.20013544 0.20352950
v -3.99107199 -0.20012670 0.20360789
v -3.93059479 -0.22763478 0.20360789
v -3.91248467 -0.22763478 0.12381523
v -3.91248467 -0.19833533 0.09084269
v -3.92687686 -0.19989949 0.07014987
v -3.99138635 -0.20274817 0.07014987
v -3.98666235 -0.22763478 0.15352194
v -3.96973914 -0.22759109 0.20360789
v -3.98380905 -0.22763478 0.17019111
v -3.96955049 -0.22763478 0.20360789
v -3.94005859 -0.22763478 0.09417390
v -3.93519309 -0.20675903 0.07014987
v -3.91248467 -0.20881254 0.10239088
v -3.91248467 -0.20631339 0.09956917
v -3.98641081 -0.20540462 0.07014987
v -3.97571294 -0.22763478 0.09413468
v -3.98149810 -0.22763478 0.10354048
v -3.98637153 -0.22763478 0.12020971
v -3.98660733 -0.22763478 0.13686583
v -3.96972340 -0.22763478 0.20352950
v -3.94960888 -0.22763478 0.09259317
v -3.94960888 -0.21108448 0.07014987
v -3.98506672 -0.20607744 0.07014987
v -3.96627275 -0.22763478 0.09255401
v -3.98445362 -0.20636581 0.07014987
v -3.96627275 -0.21130293 0.07014987
f 1 2 3
f 1 3 4
f 1 4 5
f 1 5 6
f 1 6 7
f 1 7 8
f 1 8 2
f 2 8 9
f 2 9 3
f 3 10 23
f 3 23 30
f 3 30 43
f 3 43 52
f 3 52 59
f 3 59 66
f 3 66 76
f 3 76 80
f 3 80 79
f 3 79 77
f 3 77 69
f 3 69 60
f 3 60 53
f 3 53 44
f 3 44 34
f 3 34 24
f 3 24 12
f 3 12 5
f 3 5 4
f 3 9 11
f 3 11 10
f 5 12 13
f 5 13 6
f 6 13 14
f 6 14 15
f 6 15 16
f 6 16 17
f 6 17 7
f 7 17 8
f 8 17 16
f 8 16 18
f 8 18 9
f 9 18 19
f 9 19 20
f 9 20 21
f 9 21 11
f 10 22 23
f 10 11 21
f 10 21 22
f 12 24 13
f 13 24 14
f 14 25 38
f 14 38 46
f 14 46 55
f 14 55 62
f 14 62 64
f 14 64 56
f 14 56 47
f 14 47 39
f 14 39 26
f 14 26 19
f 14 19 18
f 14 18 16
f 14 16 15
f 14 24 25
f 19 26 27
f 19 27 20
f 20 28 21
f 20 27 28
f 21 28 29
f 21 29 22
f 22 29 23
f 23 29 31
f 23 31 32
f 23 32 33
f 23 33 30
f 24 34 35
f 24 35 25
f 25 36 37
f 25 37 38
f 25 35 36
f 26 39 40
f 26 40 41
f 26 41 27
f 27 41 28
f 28 41 40
f 28 40 50
f 28 50 49
f 28 49 48
f 28 48 57
f 28 57 67
f 28 67 68
f 28 68 58
f 28 58 51
f 28 51 42
f 28 42 33
f 28 33 32
f 28 32 31
f 28 31 29
f 30 42 43
f 30 33 42
f 34 44 35
f 35 44 45
f 35 45 37
f 35 37 36
f 37 45 46
f 37 46 38
f 39 47 48
f 39 48 49
f 39 49 50
f 39 50 40
f 42 51 43
f 43 51 52
f 44 53 54
f 44 54 45
f 45 54 55
f 45 55 46
f 47 56 48
f 48 56 64
f 48 64 74
f 48 74 63
f 48 63 61
f 48 61 73
f 48 73 72
f 48 72 71
f 48 71 70
f 48 70 78
f 48 78 75
f 48 75 65
f 48 65 57
f 51 58 52
f 52 58 59
f 53 60 54
f 54 61 55
f 54 60 61
f 55 61 63
f 55 63 62
f 57 65 66
f 57 66 59
f 57 59 67
f 58 68 59
f 59 68 67
f 60 69 70
f 60 70 71
f 60 71 72
f 60 72 73
f 60 73 61
f 62 63 74
f 62 74 64
f 65 75 76
f 65 76 66
f 69 77 70
f 70 77 79
f 70 79 80
f 70 80 78
f 75 78 80
f 75 80 76

