# https://github.com/mikedh/trimesh
v -1.76757309 1.66923813 1.96927422
v -1.88171067 1.66923813 1.96895687
v -1.76757309 1.66923813 2.02136621
v -1.76757309 1.63043944 1.96833779
v -1.88171067 1.66923813 2.01898342
v -1.77825497 1.63027568 1.96833779
v -1.88171067 1.62853731 1.96833779
v -1.87853739 1.66923813 2.02148585
v -1.76757309 1.66699587 2.02136621
v -1.76757309 1.55829657 1.96833779
v -1.88163248 1.66923813 2.02148060
v -1.88171067 1.65609948 2.02148060
v -1.88171067 1.54121507 1.96833779
v -1.87853739 1.65609948 2.02148060
v -1.76757309 1.63942108 2.02135583
v -1.76757309 1.55832178 1.97642760
v -1.88171067 1.54054745 1.99310660
v -1.88171067 1.54058523 1.98992270
v -1.88171067 1.54088757 1.97642760
v -1.88171067 1.63942108 2.02147022
v -1.87853739 1.63942108 2.02147022
v -1.88171067 1.58622407 2.02138183
v -1.76757309 1.63365169 2.02134533
v -1.76757309 1.55869969 1.99310660
v -1.88171067 1.54311721 2.00711151
v -1.76757309 1.56184893 2.01078965
v -1.88171067 1.63623405 2.02146509
v -1.88171067 1.57272012 2.02126219
v -1.76757309 1.58939851 2.02117369
v -1.76757309 1.60030749 2.02124657
v -1.76757309 1.60606431 2.02128295
v -1.76757309 1.61697329 2.02131420
v -1.88171067 1.54373447 2.01044630
v -1.76757309 1.56390223 2.01710018
v -1.88171067 1.56954568 2.02118931
v -1.76757309 1.58362909 2.02068988
v -1.88171067 1.54605231 2.01561750
v -1.76757309 1.56428015 2.01820307
v -1.82850231 1.57272012 2.02066387
v -1.88171067 1.55556304 2.01993028
v -1.76757309 1.57173754 2.01951411
v -1.88171067 1.54738759 2.01831758
v -1.76757309 1.56850012 2.01894704
v -1.88171067 1.55014633 2.01904067
v -1.88171067 1.55344675 2.01958699
f 1 2 5
f 1 5 11
f 1 11 8
f 1 8 3
f 1 3 9
f 1 9 15
f 1 15 23
f 1 23 32
f 1 32 31
f 1 31 30
f 1 30 29
f 1 29 36
f 1 36 41
f 1 41 43
f 1 43 38
f 1 38 34
f 1 34 26
f 1 26 24
f 1 24 16
f 1 16 10
f 1 10 4
f 1 4 2
f 2 4 6
f 2 6 7
f 2 7 13
f 2 13 19
f 2 19 18
f 2 18 17
f 2 17 25
f 2 25 33
f 2 33 37
f 2 37 42
f 2 42 44
f 2 44 45
f 2 45 40
f 2 40 35
f 2 35 28
f 2 28 22
f 2 22 27
f 2 27 20
f 2 20 12
f 2 12 5
f 3 8 9
f 4 10 13
f 4 13 7
f 4 7 6
f 5 12 11
f 8 11 12
f 8 12 14
f 8 14 15
f 8 15 9
f 10 16 17
f 10 17 18
f 10 18 19
f 10 19 13
f 12 20 21
f 12 21 14
f 14 21 15
f 15 21 22
f 15 22 23
f 16 24 17
f 17 24 26
f 17 26 25
f 20 27 21
f 21 27 22
f 22 28 29
f 22 29 30
f 22 30 31
f 22 31 32
f 22 32 23
f 25 26 33
f 26 34 33
f 28 35 29
f 29 35 36
f 33 34 38
f 33 38 37
f 35 39 36
f 35 40 39
f 36 39 40
f 36 40 41
f 37 38 42
f 38 43 44
f 38 44 42
f 40 45 41
f 41 45 44
f 41 44 43

