# https://github.com/mikedh/trimesh
v 0.13056234 -0.17767134 0.02020363
v 0.13077894 -0.16100799 0.02020363
v 0.13093582 -0.16100799 0.00353482
v 0.13083128 -0.17767134 0.00353482
v 0.13104788 -0.19433470 0.02020363
v 0.13079396 -0.17767134 0.05352504
v 0.13092843 -0.16100799 0.07020184
v 0.13086120 -0.16100799 0.05352504
v 0.13171272 -0.15095572 0.02020363
v 0.13175015 -0.15117705 0.00353482
v 0.13170532 -0.15097713 0.07020184
v 0.13169781 -0.15096285 0.05352504
v 0.13204889 -0.15189812 -0.00531916
v 0.13183228 -0.16100799 -0.00562530
v 0.13182477 -0.17767134 -0.00563340
v 0.13204889 -0.19068648 -0.00532727
v 0.13160066 -0.19547702 0.00247140
v 0.13210873 -0.20310905 0.00732135
v 0.13198916 -0.20327323 0.02020363
v 0.13203399 -0.20321612 0.03686433
v 0.13209371 -0.20314472 0.05352504
v 0.13127951 -0.19433470 0.05352504
v 0.13093582 -0.17767134 0.07019379
v 0.13093582 -0.17766422 0.07020184
v 0.14077436 -0.14371636 0.02020363
v 0.14077436 -0.14456597 0.00353482
v 0.14077436 -0.14376634 0.07020184
v 0.14077436 -0.14374494 0.05352504
v 0.14077436 -0.14910663 -0.00704330
v 0.14077436 -0.16100799 -0.00932320
v 0.14077436 -0.17767134 -0.00935550
v 0.13265406 -0.20179538 -0.00378845
v 0.13923542 -0.19547702 -0.00778443
v 0.14077436 -0.20700714 0.02020363
v 0.13923542 -0.20552216 0.00247140
v 0.14077436 -0.20719990 0.03686433
v 0.14077436 -0.20727843 0.05352504
v 0.13866023 -0.20608618 0.07020184
v 0.13737532 -0.20544359 0.07020184
v 0.13224320 -0.20294484 0.06667309
v 0.13186221 -0.19762598 0.07020184
v 0.13170532 -0.19569119 0.07020184
v 0.15744073 -0.13841180 0.02020363
v 0.15744073 -0.13837610 0.07020184
v 0.15744073 -0.13837610 0.07019379
v 0.15744073 -0.13838324 0.05352504
v 0.15744073 -0.13966834 0.00353482
v 0.15744073 -0.14679345 -0.00844510
v 0.15744073 -0.16100799 -0.01207850
v 0.15744073 -0.17767134 -0.01210270
v 0.15744073 -0.19433470 -0.01135347
v 0.14376249 -0.20460830 -0.00675326
v 0.15744073 -0.20912756 0.00353482
v 0.15744073 -0.20999857 0.02020363
v 0.15744073 -0.21053400 0.03686433
v 0.15744818 -0.21131221 0.07020184
v 0.13925038 -0.20636458 0.07020184
v 0.13232534 -0.20274492 0.07020184
v 0.17409965 -0.13884731 0.02020363
v 0.17409965 -0.13866167 0.07019379
v 0.17409965 -0.13868309 0.05352504
v 0.17409965 -0.13874735 0.03686433
v 0.17409965 -0.13866167 0.07020184
v 0.17409965 -0.14020377 0.00353482
v 0.17409965 -0.14709332 -0.00836451
v 0.17409965 -0.16100799 -0.01189325
v 0.17409965 -0.17767134 -0.01182077
v 0.17409965 -0.19433470 -0.01091835
v 0.17409965 -0.20546503 -0.00742191
v 0.15744073 -0.20562209 -0.00767977
v 0.17409965 -0.20887765 0.00353482
v 0.17409965 -0.20973440 0.02020363
v 0.17409965 -0.21026986 0.03686433
v 0.17409965 -0.21071249 0.05352504
v 0.17409965 -0.21109089 0.07019379
v 0.17410716 -0.21109089 0.07020184
v 0.19076607 -0.14159597 0.02020363
v 0.19076607 -0.14109620 0.07019379
v 0.19076607 -0.14122472 0.05352504
v 0.19076607 -0.14138178 0.03686433
v 0.19076607 -0.14109620 0.07020184
v 0.19076607 -0.14308809 0.00353482
v 0.19076607 -0.14855689 -0.00779254
v 0.19076607 -0.16100799 -0.01106343
v 0.19076607 -0.17767134 -0.01085398
v 0.19089309 -0.19432041 -0.00799388
v 0.18541729 -0.20440841 -0.00640684
v 0.18741185 -0.20566495 0.00353482
v 0.18798710 -0.20614328 0.02020363
v 0.18817385 -0.20638602 0.03686433
v 0.18837555 -0.20661449 0.05352504
v 0.18850257 -0.20678582 0.07019379
v 0.18850257 -0.20678582 0.07020184
v 0.20244224 -0.14840696 0.02020363
v 0.20197911 -0.14916372 0.00353482
v 0.20268877 -0.14803571 0.07019379
v 0.20262904 -0.14814279 0.05352504
v 0.20253189 -0.14825701 0.03686433
v 0.20268877 -0.14803571 0.07020184
v 0.20072406 -0.15076296 -0.00643092
v 0.20189691 -0.16100799 -0.00754279
v 0.20179982 -0.17767134 -0.00740582
v 0.20059710 -0.18875885 -0.00624567
v 0.19574882 -0.19908955 0.00353482
v 0.19631656 -0.19978922 0.02020363
v 0.19651075 -0.19994628 0.03686433
v 0.19670501 -0.20002480 0.05352504
v 0.19683203 -0.19990346 0.07020184
v 0.20620732 -0.16100799 0.02020363
v 0.20687966 -0.16101513 0.07020184
v 0.20665555 -0.16100799 0.05352504
v 0.20540050 -0.16100799 0.00353482
v 0.20527354 -0.17767134 0.00353482
v 0.20184464 -0.19075789 0.00353482
v 0.20245720 -0.19145753 0.02020363
v 0.20262153 -0.19161459 0.03686433
v 0.20262904 -0.19169312 0.05352504
v 0.19683203 -0.19990346 0.07019379
v 0.20239742 -0.19157176 0.07020184
v 0.20651363 -0.17767134 0.03686433
v 0.20622228 -0.17767134 0.02020363
v 0.20658831 -0.17767134 0.07020184
v 0.20665555 -0.17767134 0.05352504
f 1 2 3
f 1 3 4
f 1 4 5
f 1 5 22
f 1 22 6
f 1 6 7
f 1 7 8
f 1 8 2
f 2 9 10
f 2 10 3
f 2 8 11
f 2 11 12
f 2 12 9
f 3 10 13
f 3 13 14
f 3 14 4
f 4 14 15
f 4 15 16
f 4 16 17
f 4 17 5
f 5 17 18
f 5 18 19
f 5 19 20
f 5 20 21
f 5 21 22
f 6 22 23
f 6 23 24
f 6 24 7
f 7 24 42
f 7 42 41
f 7 41 58
f 7 58 39
f 7 39 38
f 7 38 57
f 7 57 56
f 7 56 76
f 7 76 93
f 7 93 108
f 7 108 119
f 7 119 122
f 7 122 110
f 7 110 99
f 7 99 81
f 7 81 63
f 7 63 44
f 7 44 27
f 7 27 11
f 7 11 8
f 9 25 10
f 9 12 25
f 10 26 13
f 10 25 26
f 11 27 28
f 11 28 12
f 12 28 25
f 13 29 30
f 13 30 14
f 13 26 29
f 14 30 31
f 14 31 15
f 15 31 16
f 16 32 17
f 16 31 33
f 16 33 32
f 17 32 18
f 18 34 19
f 18 32 35
f 18 35 34
f 19 34 36
f 19 36 37
f 19 37 20
f 20 37 21
f 21 37 38
f 21 38 39
f 21 39 40
f 21 40 22
f 22 40 41
f 22 41 42
f 22 42 23
f 23 42 24
f 25 43 26
f 25 28 44
f 25 44 45
f 25 45 46
f 25 46 43
f 26 47 29
f 26 43 47
f 27 44 28
f 29 48 49
f 29 49 30
f 29 47 48
f 30 49 31
f 31 49 50
f 31 50 51
f 31 51 33
f 32 33 52
f 32 52 35
f 33 51 52
f 34 35 53
f 34 53 54
f 34 54 55
f 34 55 56
f 34 56 36
f 35 52 53
f 36 56 37
f 37 56 57
f 37 57 38
f 39 58 40
f 40 58 41
f 43 59 47
f 43 46 60
f 43 60 61
f 43 61 62
f 43 62 59
f 44 63 60
f 44 60 45
f 45 60 46
f 47 64 65
f 47 65 48
f 47 59 64
f 48 65 49
f 49 66 50
f 49 65 66
f 50 66 67
f 50 67 51
f 51 67 68
f 51 68 69
f 51 69 70
f 51 70 52
f 52 70 53
f 53 71 54
f 53 70 69
f 53 69 71
f 54 71 72
f 54 72 73
f 54 73 55
f 55 73 74
f 55 74 56
f 56 75 76
f 56 74 75
f 59 77 64
f 59 62 78
f 59 78 79
f 59 79 80
f 59 80 77
f 60 63 81
f 60 81 78
f 60 78 61
f 61 78 62
f 64 82 83
f 64 83 65
f 64 77 82
f 65 83 84
f 65 84 66
f 66 84 67
f 67 84 85
f 67 85 68
f 68 85 86
f 68 86 87
f 68 87 69
f 69 87 71
f 71 87 88
f 71 88 72
f 72 88 89
f 72 89 73
f 73 89 74
f 74 76 75
f 74 89 76
f 76 89 90
f 76 90 91
f 76 91 92
f 76 92 93
f 77 94 95
f 77 95 82
f 77 80 94
f 78 81 99
f 78 99 96
f 78 96 79
f 79 96 97
f 79 97 80
f 80 97 98
f 80 98 94
f 82 95 100
f 82 100 83
f 83 100 84
f 84 101 102
f 84 102 85
f 84 100 101
f 85 102 103
f 85 103 86
f 86 103 87
f 87 103 104
f 87 104 88
f 88 104 105
f 88 105 89
f 89 105 90
f 90 105 91
f 91 105 106
f 91 106 92
f 92 106 107
f 92 107 93
f 93 107 108
f 94 109 95
f 94 98 110
f 94 110 111
f 94 111 109
f 95 112 100
f 95 109 112
f 96 99 110
f 96 110 97
f 97 110 98
f 100 112 101
f 101 112 113
f 101 113 102
f 102 113 103
f 103 113 114
f 103 114 104
f 104 115 105
f 104 114 115
f 105 115 106
f 106 115 116
f 106 116 107
f 107 117 118
f 107 118 108
f 107 116 117
f 108 118 117
f 108 117 119
f 109 120 121
f 109 121 112
f 109 111 120
f 110 122 123
f 110 123 120
f 110 120 111
f 112 121 113
f 113 121 114
f 114 121 115
f 115 121 120
f 115 120 116
f 116 120 123
f 116 123 117
f 117 123 122
f 117 122 119

