# https://github.com/mikedh/trimesh
v 1.63610266 -0.73654801 1.46002054
v 1.63610266 -0.72694699 1.50055953
v 1.63610266 -0.78316547 1.46002054
v 1.53421804 -0.73650834 1.46002054
v 1.63610266 -0.72693376 1.50680490
v 1.52405862 -0.73650834 1.46002054
v 1.14187040 -0.72694699 1.50154480
v 1.14530526 -0.72693376 1.50680490
v 1.63610266 -0.79188105 1.53687145
v 1.62405646 -0.79199338 1.53687145
v 1.21506669 -0.78613893 1.46002054
v 1.63610266 -0.72693376 1.60083442
v 1.14187040 -0.73742021 1.46002054
v 1.14187040 -0.72693376 1.59682979
v 1.63610266 -0.79176211 1.55354157
v 1.59072385 -0.79210570 1.55354157
v 1.45739339 -0.79291186 1.55354157
v 1.60731758 -0.79209250 1.53687145
v 1.14187040 -0.78660808 1.46002054
v 1.59072385 -0.74922822 1.62235145
v 1.60736595 -0.74928106 1.62235145
v 1.63610266 -0.74944626 1.62235145
v 1.20751969 -0.72693376 1.60145419
v 1.14187040 -0.72693376 1.60137474
v 1.63610266 -0.79132601 1.57019578
v 1.62405646 -0.79141852 1.57019578
v 1.59072385 -0.79164978 1.57019578
v 1.44070288 -0.79254842 1.57019578
v 1.44070288 -0.79300437 1.55354157
v 1.14187040 -0.79443823 1.55354157
v 1.47403549 -0.79272023 1.53687145
v 1.14187040 -0.79369817 1.53687145
v 1.44070288 -0.79286561 1.53687145
v 1.20751969 -0.79364530 1.53687145
v 1.54070072 -0.74921499 1.62235145
v 1.63610266 -0.78502885 1.62235145
v 1.14187040 -0.75043082 1.62235145
v 1.45526474 -0.74941324 1.62235145
v 1.47190685 -0.74936698 1.62235145
v 1.63610266 -0.79071148 1.58222558
v 1.42406077 -0.79166960 1.58684999
v 1.42406077 -0.79262773 1.57019578
v 1.14187040 -0.79439859 1.55462221
v 1.19082919 -0.79365854 1.57019578
v 1.63610266 -0.79044057 1.58684999
v 1.37418277 -0.78639664 1.62235145
v 1.14187040 -0.78714993 1.62235145
v 1.40737027 -0.79174229 1.58684999
v 1.14187040 -0.79377086 1.57019578
v 1.17418707 -0.79370479 1.57019578
v 1.17418707 -0.79269380 1.58684999
v 1.17418707 -0.78706400 1.62235145
v 1.14187040 -0.79264754 1.58684999
v 1.15749658 -0.79267398 1.58684999
v 1.14395066 -0.78714993 1.62235145
v 1.14187040 -0.79370479 1.57127642
v 1.15749658 -0.78711687 1.62235145
f 1 2 5
f 1 5 12
f 1 12 22
f 1 22 36
f 1 36 45
f 1 45 40
f 1 40 25
f 1 25 15
f 1 15 9
f 1 9 3
f 1 3 11
f 1 11 19
f 1 19 13
f 1 13 6
f 1 6 4
f 1 4 2
f 2 4 6
f 2 6 7
f 2 7 8
f 2 8 5
f 3 9 10
f 3 10 11
f 5 8 14
f 5 14 24
f 5 24 23
f 5 23 12
f 6 13 7
f 7 13 19
f 7 19 32
f 7 32 30
f 7 30 43
f 7 43 49
f 7 49 56
f 7 56 53
f 7 53 47
f 7 47 37
f 7 37 24
f 7 24 14
f 7 14 8
f 9 15 10
f 10 15 16
f 10 16 17
f 10 17 18
f 10 18 19
f 10 19 11
f 12 20 21
f 12 21 22
f 12 23 20
f 15 25 26
f 15 26 16
f 16 27 17
f 16 26 27
f 17 28 29
f 17 29 18
f 17 27 28
f 18 29 30
f 18 30 31
f 18 31 19
f 19 31 33
f 19 33 34
f 19 34 32
f 20 23 35
f 20 35 39
f 20 39 38
f 20 38 37
f 20 37 47
f 20 47 55
f 20 55 57
f 20 57 52
f 20 52 46
f 20 46 36
f 20 36 22
f 20 22 21
f 23 24 35
f 24 37 38
f 24 38 39
f 24 39 35
f 25 40 26
f 26 40 27
f 27 40 28
f 28 40 41
f 28 41 42
f 28 42 30
f 28 30 29
f 30 32 34
f 30 34 33
f 30 33 31
f 30 42 44
f 30 44 43
f 36 46 41
f 36 41 45
f 40 45 41
f 41 46 48
f 41 48 44
f 41 44 42
f 43 44 50
f 43 50 49
f 44 48 51
f 44 51 50
f 46 52 51
f 46 51 48
f 47 53 54
f 47 54 51
f 47 51 55
f 49 50 51
f 49 51 56
f 51 52 57
f 51 57 55
f 51 54 56
f 53 56 54

