# https://github.com/mikedh/trimesh
v -2.07691982 -0.76088593 0.09295372
v -2.07691982 -0.74434423 0.09571761
v -2.07691982 -0.77287297 0.09411346
v -2.23733055 -0.77766569 0.09746267
v -2.23733055 -0.77326630 0.09712667
v -2.23733055 -0.76099977 0.09621621
v -2.23733055 -0.74433385 0.09695322
v -2.07691982 -0.72967615 0.10336983
v -2.07691982 -0.78104030 0.09567428
v -2.23733055 -0.78579163 0.10331559
v -2.23733055 -0.73035934 0.10465963
v -2.07691982 -0.68678988 0.13130145
v -2.07691982 -0.78905236 0.10343486
v -2.23733055 -0.78870039 0.10541834
v -2.23733055 -0.69431541 0.13207095
v -2.12604022 -0.68678988 0.13196259
v -2.07691982 -0.68678988 0.18072637
v -2.07691982 -0.79217850 0.12021335
v -2.23733055 -0.79171268 0.12020250
v -2.23733055 -0.69431541 0.17918731
v -2.12604022 -0.68678988 0.17959918
v -2.07691982 -0.73417905 0.20349875
v -2.23733055 -0.73470697 0.20368299
v -2.07691982 -0.79238554 0.13688341
v -2.23733055 -0.79229237 0.15352099
v -2.23733055 -0.79208534 0.13687256
v -2.07691982 -0.78326586 0.20349875
v -2.13293403 -0.73496575 0.20368299
v -2.12605589 -0.73498646 0.20368299
v -2.23733055 -0.78281039 0.20368299
v -2.07691982 -0.79254081 0.15351014
v -2.19957941 -0.79085351 0.17019105
v -2.23733055 -0.79075000 0.17019105
v -2.07691982 -0.79102949 0.17018026
v -2.12605589 -0.78289321 0.20368299
f 1 2 8
f 1 8 12
f 1 12 17
f 1 17 22
f 1 22 27
f 1 27 34
f 1 34 31
f 1 31 24
f 1 24 18
f 1 18 13
f 1 13 9
f 1 9 3
f 1 3 4
f 1 4 5
f 1 5 6
f 1 6 7
f 1 7 2
f 2 7 8
f 3 9 4
f 4 10 14
f 4 14 19
f 4 19 26
f 4 26 25
f 4 25 33
f 4 33 30
f 4 30 23
f 4 23 20
f 4 20 15
f 4 15 11
f 4 11 7
f 4 7 6
f 4 6 5
f 4 9 10
f 7 11 8
f 8 11 12
f 9 13 14
f 9 14 10
f 11 15 16
f 11 16 12
f 12 16 21
f 12 21 17
f 13 18 19
f 13 19 14
f 15 20 21
f 15 21 16
f 17 21 23
f 17 23 22
f 18 24 25
f 18 25 26
f 18 26 19
f 20 23 21
f 22 23 28
f 22 28 29
f 22 29 35
f 22 35 27
f 23 30 35
f 23 35 29
f 23 29 28
f 24 31 25
f 25 32 33
f 25 31 32
f 27 35 30
f 27 30 32
f 27 32 34
f 30 33 32
f 31 34 32

