# https://github.com/mikedh/trimesh
v 0.21084710 -0.15608603 1.53689320
v 0.27959791 -0.15669919 1.53688283
v 0.21084710 -0.15773552 1.52022702
v 0.21084710 -0.15621558 1.56679090
v 0.27959791 -0.15674238 1.54805569
v 0.27959791 -0.15759735 1.53138951
v 0.27959791 -0.15943682 1.52021665
v 0.21084710 -0.16298628 1.50512296
v 0.21084710 -0.15625013 1.57019447
v 0.27959791 -0.15676827 1.55353865
v 0.27959791 -0.16578435 1.50961278
v 0.21084710 -0.17767626 1.50065383
v 0.21084710 -0.15749373 1.58345708
v 0.27959791 -0.15722598 1.57019447
v 0.27959791 -0.15707053 1.56471151
v 0.27959791 -0.17767626 1.50716098
v 0.21084710 -0.17780580 1.50065383
v 0.27959791 -0.19434390 1.50705750
v 0.21084710 -0.15821051 1.58686066
v 0.27959791 -0.15958366 1.58136733
v 0.21084710 -0.19434390 1.50121245
v 0.27959791 -0.19984510 1.50746097
v 0.21084710 -0.21184928 1.50249527
v 0.21084710 -0.16198450 1.59967844
v 0.27959791 -0.16074954 1.58687103
v 0.27959791 -0.21099430 1.50835070
v 0.21084710 -0.21418103 1.50318842
v 0.27959791 -0.21411192 1.50911620
v 0.27959791 -0.22040765 1.51073007
v 0.21084710 -0.16326261 1.60188192
v 0.27959791 -0.16662207 1.59722658
v 0.21084710 -0.22496750 1.50753339
v 0.27959791 -0.24430370 1.55220415
v 0.21084710 -0.17763308 1.60634074
v 0.27959791 -0.17767626 1.59954391
v 0.21084710 -0.24431234 1.54572800
v 0.27959791 -0.24430370 1.59955428
v 0.22477091 -0.24431234 1.55205931
v 0.21084710 -0.21117565 1.60497519
v 0.27959791 -0.19434390 1.59977154
v 0.27959791 -0.18886000 1.59969912
v 0.21084710 -0.24431234 1.60217160
v 0.22477091 -0.24431234 1.59940944
f 1 2 3
f 1 3 8
f 1 8 12
f 1 12 17
f 1 17 21
f 1 21 23
f 1 23 27
f 1 27 32
f 1 32 36
f 1 36 42
f 1 42 39
f 1 39 34
f 1 34 30
f 1 30 24
f 1 24 19
f 1 19 13
f 1 13 9
f 1 9 4
f 1 4 5
f 1 5 2
f 2 6 3
f 2 5 10
f 2 10 15
f 2 15 14
f 2 14 20
f 2 20 25
f 2 25 31
f 2 31 35
f 2 35 41
f 2 41 40
f 2 40 37
f 2 37 33
f 2 33 29
f 2 29 28
f 2 28 26
f 2 26 22
f 2 22 18
f 2 18 16
f 2 16 11
f 2 11 7
f 2 7 6
f 3 6 7
f 3 7 8
f 4 9 10
f 4 10 5
f 7 11 8
f 8 11 12
f 9 13 14
f 9 14 15
f 9 15 10
f 11 16 12
f 12 16 18
f 12 18 17
f 13 19 14
f 14 19 20
f 17 18 21
f 18 22 23
f 18 23 21
f 19 24 25
f 19 25 20
f 22 26 23
f 23 26 28
f 23 28 29
f 23 29 27
f 24 30 31
f 24 31 25
f 27 29 32
f 29 33 32
f 30 34 31
f 31 34 35
f 32 33 36
f 33 37 43
f 33 43 38
f 33 38 36
f 34 39 37
f 34 37 40
f 34 40 41
f 34 41 35
f 36 38 43
f 36 43 42
f 37 39 42
f 37 42 43

