# https://github.com/mikedh/trimesh
v 1.08473817 -0.28805353 1.93648874
v 0.74424356 -0.28805353 1.93771708
v 1.08473817 -0.28805353 1.99683821
v 1.08473817 -0.71028760 1.93647682
v 0.74424356 -0.71028760 1.93758589
v 0.74424356 -0.28805353 1.99739278
v 0.99074885 -0.28805353 1.99708867
v 1.08473817 -0.58369176 1.99675477
v 1.08473817 -0.71028760 1.99658775
v 0.74424356 -0.71028760 1.99732125
v 0.97408410 -0.28805353 1.99712444
v 0.74424356 -0.56100123 1.99736298
v 0.98038337 -0.28805353 1.99711252
v 0.95741932 -0.57765750 1.99708867
v 0.95741932 -0.71028760 1.99705291
v 1.08473817 -0.59431375 1.99674284
v 0.92482303 -0.71028760 1.99710656
v 0.92408978 -0.59431375 1.99713040
v 0.94075455 -0.57765750 1.99711252
v 0.94148780 -0.71028760 1.99708271
f 1 2 6
f 1 6 11
f 1 11 13
f 1 13 7
f 1 7 3
f 1 3 8
f 1 8 16
f 1 16 9
f 1 9 4
f 1 4 5
f 1 5 2
f 2 5 10
f 2 10 12
f 2 12 6
f 3 7 8
f 4 9 15
f 4 15 20
f 4 20 17
f 4 17 10
f 4 10 5
f 6 12 11
f 7 13 14
f 7 14 15
f 7 15 8
f 8 15 16
f 9 16 15
f 10 17 12
f 11 12 18
f 11 18 19
f 11 19 14
f 11 14 13
f 12 17 18
f 14 19 17
f 14 17 20
f 14 20 15
f 17 19 18

