# https://github.com/mikedh/trimesh
v -1.87891194 1.71860067 0.71682816
v -1.87891194 1.71860067 0.68330025
v -1.87867945 1.71860067 0.72744646
v -1.87891194 1.72245402 0.72746459
v -1.87891194 1.93254580 0.68248415
v -1.71168827 1.93254580 0.68208971
v -1.69495041 1.93254580 0.68205795
v -1.67829001 1.93254580 0.68203529
v -1.63791767 1.93254580 0.68198996
v -1.11144983 1.93254580 0.68164992
v -1.08727291 1.71860066 0.68296927
v -1.76166943 1.71860067 0.72711548
v -1.76166943 1.72283100 0.72712908
v -1.76166943 1.77286181 0.72728323
v -1.87891194 1.73912398 0.72750539
v -1.87891194 1.93254580 0.72796785
v -1.10439823 1.93254580 0.68166351
v -1.09478944 1.93254580 0.68169524
v -1.08727291 1.93254580 0.68173153
v -1.08727291 1.71860066 0.72342944
v -1.26154818 1.71860066 0.72486668
v -1.26154818 1.72283100 0.72490750
v -1.26154818 1.73950096 0.72505711
v -1.26154818 1.75619185 0.72516140
v -1.26154818 1.77286181 0.72522939
v -1.74508652 1.77286181 0.72723337
v -1.74508652 1.78951083 0.72726963
v -1.86891575 1.93254580 0.72793159
v -1.08727291 1.93254580 0.72418209
v -1.08727291 1.76362631 0.72382844
v -1.24488781 1.73950096 0.72496643
v -1.24488781 1.72283100 0.72481229
v -1.24488781 1.71860066 0.72476693
v -1.24907227 1.71860066 0.72479415
v -1.24488781 1.75619185 0.72507524
v -1.24488781 1.77286181 0.72514780
v -1.24488781 1.78951083 0.72518859
v -1.26154818 1.78951083 0.72526115
v -1.76166943 1.93254580 0.72753259
v -1.77840729 1.93254580 0.72760061
v -1.26154818 1.93254580 0.72531101
v -1.24488781 1.80620173 0.72520219
v -1.08727291 1.80620173 0.72402338
v -1.08727291 1.77286181 0.72390550
v -1.08727291 1.78029628 0.72395086
v -1.08727291 1.78951083 0.72399618
v -1.08727291 1.79696624 0.72400978
f 1 2 11
f 1 11 20
f 1 20 33
f 1 33 34
f 1 34 21
f 1 21 12
f 1 12 3
f 1 3 4
f 1 4 15
f 1 15 16
f 1 16 5
f 1 5 2
f 2 5 6
f 2 6 7
f 2 7 8
f 2 8 9
f 2 9 10
f 2 10 11
f 3 12 4
f 4 12 13
f 4 13 14
f 4 14 15
f 5 16 28
f 5 28 40
f 5 40 39
f 5 39 41
f 5 41 29
f 5 29 19
f 5 19 18
f 5 18 17
f 5 17 10
f 5 10 9
f 5 9 8
f 5 8 7
f 5 7 6
f 10 17 11
f 11 17 18
f 11 18 19
f 11 19 29
f 11 29 43
f 11 43 47
f 11 47 46
f 11 46 45
f 11 45 44
f 11 44 30
f 11 30 20
f 12 21 22
f 12 22 23
f 12 23 24
f 12 24 25
f 12 25 26
f 12 26 13
f 13 26 14
f 14 16 15
f 14 26 27
f 14 27 16
f 16 27 28
f 20 30 31
f 20 31 32
f 20 32 33
f 21 34 32
f 21 32 22
f 22 32 31
f 22 31 23
f 23 31 35
f 23 35 24
f 24 35 36
f 24 36 25
f 25 36 37
f 25 37 38
f 25 38 27
f 25 27 26
f 27 38 39
f 27 39 40
f 27 40 28
f 29 41 42
f 29 42 37
f 29 37 43
f 30 44 31
f 31 44 35
f 32 34 33
f 35 44 45
f 35 45 46
f 35 46 36
f 36 46 37
f 37 46 47
f 37 47 43
f 37 42 38
f 38 42 39
f 39 42 41

