# https://github.com/mikedh/trimesh
v 1.37411535 -0.19434468 1.89466442
v 1.27416414 -0.20433343 1.89502885
v 1.29080907 -0.19434468 1.89474769
v 1.35747041 -0.18009363 1.89493509
v 1.54072787 -0.16904800 1.89507045
v 1.45742161 -0.19434468 1.89468523
v 1.44077667 -0.20499183 1.89495595
v 1.38888365 -0.20370966 1.89492472
v 1.27416414 -0.21266748 1.89765249
v 1.25747840 -0.20375296 1.89510169
v 1.27416414 -0.19434468 1.89478936
v 1.38888365 -0.20487053 1.89496632
v 1.39076029 -0.20488788 1.89496632
v 1.42413173 -0.21329989 1.89723603
v 1.27416414 -0.18296117 1.89499762
v 1.29080907 -0.18244139 1.89496632
v 1.52408294 -0.16907399 1.89508089
v 1.54072787 -0.16220402 1.90355572
v 1.55741361 -0.16217803 1.90355572
v 1.55741361 -0.16906532 1.89508089
v 1.49075229 -0.19434468 1.89469566
v 1.49075229 -0.20467994 1.89498719
v 1.44077667 -0.21332587 1.89727769
v 1.27416414 -0.22133072 1.90598159
v 1.17413134 -0.22138270 1.90724134
v 1.17413134 -0.21099546 1.89907884
v 1.39076029 -0.21322192 1.89737139
v 1.24581063 -0.20304259 1.89518502
v 1.25747840 -0.19434468 1.89494552
v 1.24434196 -0.18504034 1.89516415
v 1.25747840 -0.18399211 1.89507045
v 1.42413173 -0.22144335 1.90556513
v 1.19081706 -0.17767659 1.89624694
v 1.25747840 -0.17564939 1.89578888
v 1.27416414 -0.17462712 1.89572635
v 1.35747041 -0.17176826 1.89538279
v 1.51331271 -0.16916927 1.89513292
v 1.17413134 -0.16354684 1.90444068
v 1.30745401 -0.16300970 1.90390972
v 1.55741361 -0.15570659 1.92022429
v 1.57409932 -0.15568924 1.92022429
v 1.59090746 -0.15573258 1.92022429
v 1.59074428 -0.16246393 1.90362862
v 1.56924456 -0.16917794 1.89513292
v 1.59090746 -0.18055280 1.89510169
v 1.54072787 -0.17768526 1.89496632
v 1.50739720 -0.20434207 1.89502885
v 1.59090746 -0.19198828 1.89510169
v 1.59090746 -0.20030502 1.89526828
v 1.49075229 -0.21302266 1.89740262
v 1.44077667 -0.22145201 1.90560673
v 1.49075229 -0.22141734 1.90574210
v 1.47410735 -0.22144335 1.90569006
v 1.17413134 -0.24418437 1.93573718
v 1.17413134 -0.19434468 1.89575764
v 1.17413134 -0.17767659 1.89645520
v 1.17413134 -0.15781175 1.92020349
v 1.29080907 -0.15684147 1.92021386
v 1.30745401 -0.15672884 1.92021386
v 1.55741361 -0.15633900 1.97020921
v 1.29080907 -0.15712736 1.97019878
v 1.30745401 -0.15707539 1.97019878
v 1.57409932 -0.15633033 1.97020921
v 1.59090746 -0.15633033 1.97020921
v 1.59090746 -0.16248125 1.90361819
v 1.59074428 -0.17224474 1.89529952
v 1.59090746 -0.17227073 1.89529952
v 1.59074428 -0.20032233 1.89526828
v 1.52408294 -0.20374432 1.89509132
v 1.59090746 -0.21099546 1.89886021
v 1.54072787 -0.20306858 1.89516415
v 1.50739720 -0.21268478 1.89759002
v 1.59090746 -0.22116611 1.90715802
v 1.50739720 -0.22133072 1.90592949
v 1.38888365 -0.24418437 1.93658053
v 1.17413134 -0.24418437 1.99703920
v 1.17413134 -0.15792437 1.97017797
v 1.29080907 -0.15693678 1.93688243
v 1.59074428 -0.15958772 1.98687778
v 1.30745401 -0.16000355 1.98686735
v 1.29080907 -0.16006420 1.98686735
v 1.17413134 -0.16082657 1.98684655
v 1.59090746 -0.15958772 1.98687778
v 1.59090746 -0.21110809 1.89892267
v 1.59090746 -0.23178727 1.93219735
v 1.59082589 -0.23719314 1.93388400
v 1.38888365 -0.24418437 1.99654996
v 1.59090746 -0.23719314 1.96247354
v 1.34078467 -0.19434468 2.00101641
v 1.32413973 -0.19434468 2.00095395
v 1.17413134 -0.19432737 2.00012102
v 1.17429453 -0.24418437 1.99703920
v 1.40744599 -0.21099546 1.99980869
v 1.45742161 -0.16607651 1.99744523
v 1.30745401 -0.16610250 1.99741400
v 1.17413134 -0.16654432 1.99710167
v 1.59090746 -0.16601586 1.99719537
v 1.19098025 -0.24418437 1.99700797
v 1.59090746 -0.23719314 1.99709130
v 1.40744599 -0.19434468 2.00102678
v 1.38888365 -0.17954786 2.00029793
v 1.32413973 -0.17767659 2.00018349
v 1.30745401 -0.17767659 2.00015226
v 1.17413134 -0.17766792 1.99954834
v 1.59090746 -0.21099546 1.99969413
v 1.42413173 -0.21099546 1.99980869
v 1.39076029 -0.17768526 2.00020423
v 1.45742161 -0.17768526 2.00012102
v 1.59074428 -0.16606784 1.99726832
v 1.38888365 -0.17768526 2.00020423
v 1.29080907 -0.16616311 1.99738277
v 1.59090746 -0.17759862 1.99982944
v 1.59090746 -0.21087417 1.99970450
v 1.42413173 -0.19434468 2.00099555
v 1.59074428 -0.17768526 1.99985030
v 1.59090746 -0.19434468 2.00049582
f 1 2 3
f 1 3 4
f 1 4 5
f 1 5 6
f 1 6 7
f 1 7 8
f 1 8 2
f 2 9 10
f 2 10 11
f 2 11 3
f 2 8 12
f 2 12 13
f 2 13 14
f 2 14 9
f 3 11 15
f 3 15 16
f 3 16 4
f 4 16 17
f 4 17 5
f 5 17 18
f 5 18 19
f 5 19 20
f 5 20 21
f 5 21 6
f 6 21 7
f 7 21 22
f 7 22 23
f 7 23 14
f 7 14 13
f 7 13 8
f 8 13 12
f 9 24 25
f 9 25 26
f 9 26 10
f 9 14 27
f 9 27 24
f 10 26 28
f 10 28 11
f 11 28 29
f 11 29 30
f 11 30 31
f 11 31 15
f 14 23 32
f 14 32 24
f 14 24 27
f 15 31 33
f 15 33 34
f 15 34 35
f 15 35 36
f 15 36 16
f 16 36 17
f 17 37 38
f 17 38 39
f 17 39 18
f 17 36 37
f 18 40 19
f 18 39 40
f 19 40 41
f 19 41 42
f 19 42 43
f 19 43 20
f 20 43 44
f 20 44 45
f 20 45 46
f 20 46 21
f 21 47 22
f 21 46 45
f 21 45 48
f 21 48 49
f 21 49 47
f 22 47 50
f 22 50 23
f 23 51 32
f 23 50 52
f 23 52 53
f 23 53 51
f 24 54 25
f 24 32 54
f 25 54 76
f 25 76 91
f 25 91 104
f 25 104 96
f 25 96 82
f 25 82 77
f 25 77 57
f 25 57 38
f 25 38 56
f 25 56 55
f 25 55 26
f 26 55 28
f 28 55 29
f 29 55 30
f 30 55 56
f 30 56 33
f 30 33 31
f 32 51 54
f 33 56 35
f 33 35 34
f 35 56 38
f 35 38 36
f 36 38 37
f 38 57 58
f 38 58 59
f 38 59 39
f 39 59 40
f 40 60 41
f 40 59 61
f 40 61 62
f 40 62 60
f 41 60 63
f 41 63 64
f 41 64 42
f 42 64 83
f 42 83 97
f 42 97 112
f 42 112 116
f 42 116 113
f 42 113 105
f 42 105 99
f 42 99 88
f 42 88 85
f 42 85 73
f 42 73 84
f 42 84 70
f 42 70 49
f 42 49 48
f 42 48 45
f 42 45 67
f 42 67 65
f 42 65 43
f 43 65 44
f 44 65 66
f 44 66 67
f 44 67 45
f 47 49 68
f 47 68 69
f 47 69 50
f 49 70 68
f 50 69 71
f 50 71 72
f 50 72 73
f 50 73 74
f 50 74 52
f 51 53 54
f 52 74 73
f 52 73 75
f 52 75 53
f 53 75 54
f 54 75 87
f 54 87 98
f 54 98 92
f 54 92 76
f 57 77 58
f 58 78 59
f 58 77 78
f 59 78 61
f 60 79 63
f 60 62 80
f 60 80 79
f 61 81 80
f 61 80 62
f 61 78 77
f 61 77 82
f 61 82 81
f 63 79 83
f 63 83 64
f 65 67 66
f 68 70 72
f 68 72 71
f 68 71 69
f 70 84 72
f 72 84 73
f 73 85 86
f 73 86 75
f 75 86 88
f 75 88 99
f 75 99 87
f 76 89 90
f 76 90 91
f 76 92 106
f 76 106 93
f 76 93 89
f 79 94 83
f 79 80 95
f 79 95 94
f 80 81 95
f 81 82 96
f 81 96 95
f 83 94 97
f 85 88 86
f 87 99 98
f 89 100 101
f 89 101 102
f 89 102 103
f 89 103 90
f 89 93 100
f 90 103 104
f 90 104 91
f 92 98 99
f 92 99 105
f 92 105 106
f 93 106 100
f 94 107 108
f 94 108 109
f 94 109 97
f 94 95 110
f 94 110 107
f 95 96 111
f 95 111 103
f 95 103 102
f 95 102 110
f 96 104 103
f 96 103 111
f 97 109 112
f 100 106 113
f 100 113 114
f 100 114 108
f 100 108 107
f 100 107 101
f 101 110 102
f 101 107 110
f 105 113 106
f 108 114 115
f 108 115 109
f 109 115 112
f 112 115 116
f 113 116 114
f 114 116 115

