# https://github.com/mikedh/trimesh
v 2.11530232 -0.61470188 0.43685708
v 2.11572199 -0.71677675 0.43681297
v 2.11529410 -0.68678588 0.43681297
v 2.11489093 -0.61470188 0.43685708
v 2.12862395 -0.61470188 0.47021425
v 2.07299246 -0.71677675 0.43681297
v 2.12872271 -0.64435297 0.47021425
v 2.12876383 -0.66101233 0.47021425
v 2.12868981 -0.67767169 0.47021425
v 2.12806444 -0.71677675 0.47022897
v 2.07509890 -0.68678588 0.43681297
v 2.07537041 -0.61473186 0.43685708
v 2.07537041 -0.61470188 0.43688647
v 2.12899422 -0.61470188 0.47388795
v 2.13087851 -0.71677675 0.48687817
v 2.07479444 -0.68681586 0.43681297
v 2.04681823 -0.71677675 0.51213856
v 2.04681823 -0.68678588 0.51200632
v 2.06416351 -0.61470188 0.47363815
v 2.13028610 -0.61470188 0.48687817
v 2.13023667 -0.61470188 0.49056660
v 2.13011330 -0.62769359 0.50354210
v 2.13032722 -0.71677675 0.52017664
v 2.04681823 -0.71677675 0.57096190
v 2.04681823 -0.68678588 0.56927197
v 2.05559784 -0.61470188 0.50308657
v 2.13002276 -0.61470188 0.50354210
v 2.12973475 -0.61470188 0.52019133
v 2.12980061 -0.71677675 0.52596638
v 2.07336272 -0.71677675 0.58686168
v 2.07577364 -0.61470188 0.58693515
v 2.05559784 -0.61470188 0.56897809
v 2.12930690 -0.61470188 0.52386503
v 2.12858282 -0.71677675 0.53685522
v 2.11809994 -0.71677675 0.58686168
v 2.11517894 -0.68677588 0.58693515
v 2.07529638 -0.68674590 0.58693515
v 2.07535396 -0.67760175 0.58693515
v 2.07648949 -0.61470188 0.58693515
v 2.12771062 -0.61470188 0.53685522
v 2.12783406 -0.62769359 0.53685522
v 2.12778465 -0.71677675 0.54263030
v 2.12027226 -0.71677675 0.57748639
v 2.11551631 -0.61475186 0.58693515
v 2.11553276 -0.68677588 0.58693515
v 2.11551631 -0.61470188 0.58686168
f 1 2 3
f 1 3 11
f 1 11 4
f 1 4 13
f 1 13 19
f 1 19 26
f 1 26 32
f 1 32 31
f 1 31 39
f 1 39 46
f 1 46 40
f 1 40 33
f 1 33 28
f 1 28 27
f 1 27 21
f 1 21 20
f 1 20 14
f 1 14 5
f 1 5 2
f 2 6 16
f 2 16 11
f 2 11 3
f 2 5 7
f 2 7 8
f 2 8 9
f 2 9 10
f 2 10 15
f 2 15 23
f 2 23 29
f 2 29 34
f 2 34 42
f 2 42 43
f 2 43 35
f 2 35 30
f 2 30 24
f 2 24 17
f 2 17 6
f 4 12 13
f 4 11 12
f 5 14 15
f 5 15 7
f 6 12 16
f 6 17 18
f 6 18 12
f 7 15 8
f 8 15 9
f 9 15 10
f 11 16 12
f 12 18 19
f 12 19 13
f 14 20 15
f 15 20 21
f 15 21 22
f 15 22 23
f 17 24 25
f 17 25 18
f 18 25 32
f 18 32 26
f 18 26 19
f 21 27 22
f 22 27 28
f 22 28 23
f 23 28 29
f 24 30 31
f 24 31 25
f 25 31 32
f 28 33 34
f 28 34 29
f 30 35 45
f 30 45 36
f 30 36 37
f 30 37 38
f 30 38 31
f 31 38 37
f 31 37 36
f 31 36 45
f 31 45 44
f 31 44 39
f 33 40 41
f 33 41 34
f 34 41 42
f 35 43 40
f 35 40 44
f 35 44 45
f 39 44 46
f 40 42 41
f 40 46 44
f 40 43 42

