# https://github.com/mikedh/trimesh
v -3.81435719 1.55604471 0.62549403
v -3.81271121 1.53937096 0.62549403
v -3.81425210 1.57271022 0.62549403
v -3.81426963 1.57271022 0.50255446
v -3.81433094 1.55604471 0.50255446
v -3.80859619 1.52898797 0.62549403
v -3.81264989 1.53937096 0.50255446
v -3.81110017 1.53545160 0.50255446
v -3.80855242 1.52901266 0.50255446
v -3.81404198 1.58939220 0.62549403
v -3.81407699 1.58939220 0.50255446
v -3.81415584 1.58308500 0.50255446
v -3.79782712 1.52648485 0.62549403
v -3.79782712 1.52655896 0.50255446
v -3.81002329 1.60267356 0.62549403
v -3.81004082 1.60264063 0.52553946
v -3.81156424 1.59762615 0.50255446
v -3.78114818 1.52601551 0.62549403
v -3.78745203 1.52629546 0.50255446
v -3.79782712 1.60879961 0.62549403
v -3.81003206 1.60263240 0.50886028
v -3.81003206 1.60262415 0.50255446
v -3.76447801 1.52602374 0.62549403
v -3.78114818 1.52613902 0.50255446
v -3.78114818 1.61013352 0.62549403
v -3.79782712 1.60870904 0.52553946
v -3.79782712 1.60867611 0.50886028
v -3.79782712 1.60864317 0.50255446
v -3.74779907 1.52616372 0.62549403
v -3.76447801 1.52623782 0.50255446
v -3.76447801 1.60976300 0.62549403
v -3.78114818 1.60989473 0.52553946
v -3.78114818 1.60982887 0.50886028
v -3.78114818 1.60976300 0.50255446
v -3.73509505 1.52865860 0.62549403
v -3.74779907 1.52652601 0.50255446
v -3.74000682 1.52797517 0.50255446
v -3.73528770 1.52887268 0.50255446
v -3.75123990 1.60348873 0.62549403
v -3.75129245 1.60335698 0.50886028
v -3.76447801 1.60940893 0.50886028
v -3.76447801 1.60932660 0.50255446
v -3.73509505 1.52869978 0.60891114
v -3.73497249 1.52873271 0.62549403
v -3.72809078 1.53937096 0.50255446
v -3.72804700 1.53937096 0.50886028
v -3.73515637 1.58471532 0.62549403
v -3.73490247 1.58465768 0.60891114
v -3.73467482 1.58478120 0.55889774
v -3.73462228 1.58478943 0.54221860
v -3.73468359 1.58475649 0.52553946
v -3.73485870 1.58478943 0.50255446
v -3.75130121 1.60330757 0.50255446
v -3.75950494 1.60707049 0.50255446
v -3.72779311 1.53937096 0.62549403
v -3.72687380 1.54566995 0.50255446
v -3.72802953 1.57278433 0.62549403
v -3.72775810 1.57271022 0.60891114
v -3.72739035 1.57271022 0.55889774
v -3.72732033 1.57271022 0.54221860
v -3.72737287 1.57271022 0.52553946
v -3.72751297 1.57271022 0.50255446
v -3.72777563 1.53946979 0.62549403
v -3.72493014 1.55604471 0.50255446
v -3.72508772 1.55615176 0.62549403
v -3.72507018 1.55604471 0.62549403
v -3.72493885 1.55604471 0.55889774
v -3.72491261 1.55604471 0.54221860
f 1 2 6
f 1 6 13
f 1 13 18
f 1 18 23
f 1 23 29
f 1 29 35
f 1 35 44
f 1 44 55
f 1 55 63
f 1 63 66
f 1 66 65
f 1 65 57
f 1 57 47
f 1 47 39
f 1 39 31
f 1 31 25
f 1 25 20
f 1 20 15
f 1 15 10
f 1 10 3
f 1 3 4
f 1 4 5
f 1 5 2
f 2 5 7
f 2 7 8
f 2 8 9
f 2 9 6
f 3 10 11
f 3 11 12
f 3 12 4
f 4 12 11
f 4 11 17
f 4 17 22
f 4 22 28
f 4 28 34
f 4 34 42
f 4 42 54
f 4 54 53
f 4 53 52
f 4 52 62
f 4 62 64
f 4 64 56
f 4 56 45
f 4 45 38
f 4 38 37
f 4 37 36
f 4 36 30
f 4 30 24
f 4 24 19
f 4 19 14
f 4 14 9
f 4 9 8
f 4 8 7
f 4 7 5
f 6 9 13
f 9 14 13
f 10 15 11
f 11 16 17
f 11 15 16
f 13 14 18
f 14 19 18
f 15 20 16
f 16 21 22
f 16 22 17
f 16 20 21
f 18 19 24
f 18 24 23
f 20 25 26
f 20 26 21
f 21 26 22
f 22 26 27
f 22 27 28
f 23 24 30
f 23 30 29
f 25 31 32
f 25 32 27
f 25 27 26
f 27 33 28
f 27 32 33
f 28 33 34
f 29 30 36
f 29 36 37
f 29 37 38
f 29 38 35
f 31 39 40
f 31 40 41
f 31 41 32
f 32 41 33
f 33 41 34
f 34 41 42
f 35 38 43
f 35 43 44
f 38 45 46
f 38 46 44
f 38 44 43
f 39 47 48
f 39 48 49
f 39 49 50
f 39 50 40
f 40 50 51
f 40 51 52
f 40 52 53
f 40 53 41
f 41 53 54
f 41 54 42
f 44 46 55
f 45 56 46
f 46 56 55
f 47 57 58
f 47 58 48
f 48 58 59
f 48 59 49
f 49 59 60
f 49 60 50
f 50 60 61
f 50 61 51
f 51 61 62
f 51 62 52
f 55 56 64
f 55 64 63
f 57 65 58
f 58 65 59
f 59 65 66
f 59 66 60
f 60 66 67
f 60 67 68
f 60 68 64
f 60 64 61
f 61 64 62
f 63 64 68
f 63 68 67
f 63 67 66

