# https://github.com/mikedh/trimesh
v -2.10196657 2.02317142 0.47432688
v -2.10196657 2.03687450 0.47238991
v -2.10196657 2.01775110 0.47399951
v -2.09004313 2.03965861 0.49549728
v -2.08987852 2.04256452 0.49549728
v -2.08919951 2.05413603 0.49549728
v -2.10196657 2.04311267 0.45880373
v -2.08777980 2.06247097 0.49549728
v -2.10196657 2.00506596 0.46968899
v -2.08893202 2.02524211 0.49549728
v -2.08929213 2.02688647 0.49549728
v -2.10196657 2.04587066 0.44235298
v -2.07943646 2.06779560 0.49549728
v -2.08718315 2.06348893 0.45880373
v -2.10196657 2.04587938 0.44212110
v -2.10196657 1.99932372 0.46623790
v -2.08690534 2.01856021 0.49549728
v -2.06341853 2.07095382 0.49549728
v -2.07898384 2.06765640 0.35614353
v -2.08682304 2.06321049 0.39212777
v -2.10196657 2.04573147 0.40879674
v -2.10196657 2.04587066 0.42571126
v -2.10196657 1.98223620 0.44397624
v -2.10186369 1.98223620 0.44411264
v -2.05987953 1.99298985 0.49549728
v -2.08021836 2.01196535 0.49549728
v -2.04675242 2.07104954 0.49549728
v -2.04675242 2.07100602 0.44213470
v -2.04675242 2.07097993 0.42547938
v -2.06341853 2.07071021 0.35614353
v -2.08029035 2.06669066 0.35614353
v -2.08417914 2.06379343 0.35614353
v -2.08732713 2.06144434 0.35614353
v -2.08714200 2.06231434 0.37545879
v -2.10196657 2.04387829 0.39308263
v -2.08416882 1.98222750 0.44626784
v -2.10196657 1.98223620 0.38195182
v -2.06086719 1.98222750 0.47225345
v -2.04675242 1.98768263 0.49549728
v -2.05725621 1.99191102 0.49549728
v -2.03339896 2.07110173 0.49549728
v -2.03008636 2.07111044 0.49216894
v -2.03008636 2.07104954 0.42547938
v -2.03008636 2.07095382 0.35878982
v -2.04675242 2.07084073 0.35614353
v -2.08891144 2.05441443 0.35614353
v -2.10196657 2.03752703 0.37806416
v -2.10196657 2.03922360 0.38091508
v -2.10196657 2.04367818 0.39212777
v -2.08416882 1.98222750 0.38148799
v -2.10196657 2.02333673 0.37584074
v -2.08929213 2.02819154 0.35614353
v -2.08577371 2.01986527 0.35614353
v -2.07743036 2.01109532 0.35614353
v -2.05967377 1.99314646 0.35614353
v -2.04675242 1.98747381 0.35614353
v -2.04675242 1.98222750 0.37236239
v -2.06357282 1.98222750 0.37620908
v -2.04903632 1.98222750 0.47713688
v -2.04675242 1.98222750 0.47764156
v -2.04343982 1.98762173 0.49549728
v -2.03008636 2.07111044 0.49549728
v -2.01672259 2.07073631 0.49549728
v -2.01339967 2.07064061 0.45880373
v -2.01339967 2.07051012 0.35878982
v -2.01339967 2.07062323 0.44213470
v -2.02746298 2.07087551 0.35614353
v -2.03008636 2.07094514 0.35614353
v -2.08918925 2.05310066 0.35614353
v -2.10196657 2.02719969 0.37641365
v -2.09004313 2.03965861 0.35614353
v -2.08992993 2.03778804 0.35614353
v -2.03008636 1.98685610 0.35614353
v -2.04451998 1.98222750 0.37289433
v -2.03145459 1.98222750 0.47393128
v -2.03008636 1.98745642 0.49549728
v -2.01339967 2.07064061 0.49549728
v -2.00205231 2.06744759 0.45880373
v -2.00206263 2.06734319 0.35614353
v -2.01339967 2.07050140 0.35614353
v -2.00205231 2.06743018 0.44213470
v -2.01339967 1.98821336 0.35614353
v -2.03098140 1.98222750 0.37645456
v -2.02476761 1.98222750 0.45880373
v -2.01339967 1.98850046 0.49549728
v -2.00208321 2.06741279 0.49549728
v -2.00206263 2.06743889 0.47549996
v -1.99794756 2.05633722 0.35878982
v -1.99794756 2.05633722 0.35614353
v -2.00132189 1.99367718 0.35614353
v -2.02053934 1.98222750 0.40879674
v -2.02395488 1.98222750 0.39317811
v -2.02419147 1.98222750 0.39212777
v -2.02952055 1.98222750 0.37874622
v -2.02168129 1.98222750 0.44322601
v -2.02149610 1.98222750 0.44213470
v -2.00136304 1.99372068 0.49549728
v -1.99821505 2.05633722 0.49549728
v -1.99820473 2.05633722 0.49216894
v -1.99686734 2.03965861 0.35878982
v -1.99686734 2.03965861 0.35614353
v -2.00067376 1.99566086 0.35614353
v -2.00127048 1.99369459 0.39212777
v -2.01339967 1.98562065 0.40879674
v -2.02050850 1.98222750 0.42547938
v -2.02062164 1.98222750 0.42805749
v -2.01339967 1.98602956 0.44213470
v -2.01339967 1.98566416 0.42547938
v -1.99726854 2.00632752 0.39212777
v -1.99747431 2.00632752 0.49549728
v -1.99802986 2.05302239 0.49549728
v -1.99730970 2.02300611 0.49549728
v -1.99689823 2.02562491 0.35614353
v -1.99733027 2.03965861 0.49549728
v -1.99732001 2.03634378 0.49549728
v -1.99724797 2.00632752 0.35614353
v -1.99724797 2.00632752 0.35878982
v -1.99718624 2.00895502 0.35614353
v -1.99690849 2.02300611 0.35614353
v -1.99733027 2.01969128 0.49549728
f 1 2 7
f 1 7 12
f 1 12 15
f 1 15 22
f 1 22 21
f 1 21 35
f 1 35 49
f 1 49 48
f 1 48 47
f 1 47 70
f 1 70 51
f 1 51 37
f 1 37 23
f 1 23 16
f 1 16 9
f 1 9 3
f 1 3 4
f 1 4 5
f 1 5 6
f 1 6 2
f 2 6 8
f 2 8 7
f 3 9 10
f 3 10 11
f 3 11 4
f 4 11 10
f 4 10 17
f 4 17 26
f 4 26 25
f 4 25 40
f 4 40 39
f 4 39 61
f 4 61 76
f 4 76 85
f 4 85 97
f 4 97 110
f 4 110 120
f 4 120 112
f 4 112 115
f 4 115 114
f 4 114 111
f 4 111 98
f 4 98 86
f 4 86 77
f 4 77 63
f 4 63 62
f 4 62 41
f 4 41 27
f 4 27 18
f 4 18 13
f 4 13 8
f 4 8 6
f 4 6 5
f 7 8 12
f 8 13 14
f 8 14 15
f 8 15 12
f 9 16 17
f 9 17 10
f 13 18 19
f 13 19 14
f 14 19 20
f 14 20 21
f 14 21 22
f 14 22 15
f 16 23 24
f 16 24 25
f 16 25 26
f 16 26 17
f 18 27 28
f 18 28 29
f 18 29 30
f 18 30 19
f 19 30 45
f 19 45 68
f 19 68 67
f 19 67 80
f 19 80 79
f 19 79 89
f 19 89 101
f 19 101 113
f 19 113 119
f 19 119 118
f 19 118 116
f 19 116 102
f 19 102 90
f 19 90 82
f 19 82 73
f 19 73 56
f 19 56 55
f 19 55 54
f 19 54 53
f 19 53 52
f 19 52 72
f 19 72 71
f 19 71 69
f 19 69 46
f 19 46 33
f 19 33 32
f 19 32 31
f 19 31 20
f 20 31 32
f 20 32 33
f 20 33 34
f 20 34 21
f 21 34 33
f 21 33 35
f 23 36 24
f 23 37 50
f 23 50 36
f 24 36 38
f 24 38 39
f 24 39 40
f 24 40 25
f 27 41 28
f 28 41 42
f 28 42 43
f 28 43 44
f 28 44 29
f 29 44 45
f 29 45 30
f 33 46 47
f 33 47 48
f 33 48 49
f 33 49 35
f 36 50 58
f 36 58 57
f 36 57 74
f 36 74 83
f 36 83 94
f 36 94 93
f 36 93 92
f 36 92 91
f 36 91 105
f 36 105 106
f 36 106 96
f 36 96 95
f 36 95 84
f 36 84 75
f 36 75 60
f 36 60 59
f 36 59 38
f 37 51 52
f 37 52 53
f 37 53 54
f 37 54 55
f 37 55 56
f 37 56 57
f 37 57 58
f 37 58 50
f 38 59 39
f 39 59 60
f 39 60 61
f 41 62 42
f 42 62 63
f 42 63 64
f 42 64 43
f 43 65 44
f 43 64 66
f 43 66 65
f 44 65 67
f 44 67 68
f 44 68 45
f 46 69 47
f 47 69 70
f 51 70 69
f 51 69 71
f 51 71 72
f 51 72 52
f 56 73 57
f 57 73 74
f 60 75 76
f 60 76 61
f 63 77 64
f 64 78 81
f 64 81 66
f 64 77 78
f 65 66 79
f 65 79 80
f 65 80 67
f 66 81 79
f 73 82 83
f 73 83 74
f 75 84 85
f 75 85 76
f 77 86 87
f 77 87 78
f 78 87 88
f 78 88 89
f 78 89 81
f 79 81 89
f 82 90 91
f 82 91 92
f 82 92 93
f 82 93 94
f 82 94 83
f 84 95 85
f 85 95 96
f 85 96 97
f 86 98 99
f 86 99 88
f 86 88 87
f 88 100 101
f 88 101 89
f 88 99 100
f 90 102 103
f 90 103 104
f 90 104 91
f 91 104 105
f 96 106 107
f 96 107 97
f 97 107 108
f 97 108 104
f 97 104 103
f 97 103 109
f 97 109 110
f 98 111 99
f 99 111 100
f 100 112 113
f 100 113 101
f 100 111 114
f 100 114 115
f 100 115 112
f 102 116 103
f 103 116 117
f 103 117 109
f 104 108 105
f 105 108 106
f 106 108 107
f 109 117 118
f 109 118 119
f 109 119 110
f 110 119 120
f 112 120 119
f 112 119 113
f 116 118 117

