# https://github.com/mikedh/trimesh
v 1.39199831 -0.26287892 0.51419765
v 1.39199831 -0.26287892 0.56981560
v 1.39199831 -0.27769509 0.51171518
v 1.39195576 -0.26287892 0.51161424
v 1.38889286 -0.26287892 0.56982153
v 1.39199831 -0.71069515 0.56921577
v 1.39199831 -0.41104052 0.51150138
v 1.17472428 -0.44496864 0.50923865
v 1.17472428 -0.26287892 0.50951185
v 1.39199831 -0.44435496 0.51145387
v 1.39199831 -0.71069515 0.51116288
v 1.32223240 -0.26287892 0.56989875
v 1.32410416 -0.36102502 0.56979778
v 1.34077992 -0.36102502 0.56977403
v 1.39078592 -0.71069515 0.56921577
v 1.30742841 -0.36102502 0.56981560
v 1.17472428 -0.46162587 0.50924461
v 1.34071611 -0.71069515 0.51068777
v 1.17472428 -0.26287892 0.56977403
v 1.30742841 -0.26287892 0.56990468
v 1.17472428 -0.71069515 0.56918608
v 1.29077392 -0.36102502 0.56981560
v 1.17472428 -0.57827024 0.50943466
v 1.17472428 -0.71069515 0.50971379
v 1.17472428 -0.59492746 0.50946434
v 1.29077392 -0.26287892 0.56989875
v 1.17472428 -0.36102502 0.56975028
v 1.30555664 -0.26287892 0.56990468
v 1.17472428 -0.37768223 0.56973841
f 1 2 6
f 1 6 11
f 1 11 10
f 1 10 7
f 1 7 3
f 1 3 4
f 1 4 9
f 1 9 19
f 1 19 26
f 1 26 28
f 1 28 20
f 1 20 12
f 1 12 5
f 1 5 2
f 2 5 6
f 3 7 4
f 4 8 9
f 4 7 10
f 4 10 11
f 4 11 8
f 5 12 13
f 5 13 14
f 5 14 6
f 6 15 21
f 6 21 24
f 6 24 18
f 6 18 11
f 6 14 13
f 6 13 16
f 6 16 22
f 6 22 15
f 8 17 23
f 8 23 25
f 8 25 24
f 8 24 21
f 8 21 29
f 8 29 27
f 8 27 19
f 8 19 9
f 8 11 18
f 8 18 17
f 12 20 16
f 12 16 13
f 15 22 21
f 16 20 28
f 16 28 22
f 17 18 23
f 18 24 25
f 18 25 23
f 19 27 26
f 21 22 29
f 22 28 26
f 22 26 29
f 26 27 29

