# https://github.com/mikedh/trimesh
v -3.81451285 1.57270951 0.74974979
v -3.81448601 1.58938375 0.74974979
v -3.81444128 1.55604368 0.74974979
v -3.81441450 1.55605209 0.85031734
v -3.81441450 1.56398580 0.85031734
v -3.81440556 1.57270951 0.85031734
v -3.81263522 1.59542647 0.74974979
v -3.81437872 1.58064322 0.85031734
v -3.81433399 1.58939214 0.85031734
v -3.81020323 1.60288954 0.85031734
v -3.81359187 1.54678208 0.74974979
v -3.81357404 1.54731158 0.85031734
v -3.81288554 1.53936944 0.74974979
v -3.81029263 1.60298199 0.74974979
v -3.79781978 1.60922642 0.85031734
v -3.81280508 1.53937785 0.85031734
v -3.81058768 1.53349480 0.74974979
v -3.80335438 1.60650340 0.74974979
v -3.78147549 1.61124346 0.85031734
v -3.78858366 1.61069719 0.74974979
v -3.79781978 1.60928524 0.74974979
v -3.81065030 1.53388142 0.85031734
v -3.80875478 1.52882199 0.74974979
v -3.76448743 1.61162166 0.85031734
v -3.78082278 1.61118464 0.74974979
v -3.80868321 1.52888083 0.85031734
v -3.79781978 1.52617463 0.74974979
v -3.74994920 1.60516712 0.85031734
v -3.76486294 1.61088208 0.74974979
v -3.79781978 1.52626707 0.85031734
v -3.79040767 1.52598133 0.74974979
v -3.78114466 1.52581323 0.85031734
v -3.78988015 1.52604855 0.85031734
v -3.73248724 1.58650945 0.85031734
v -3.73230843 1.58811468 0.74974979
v -3.73650181 1.59192186 0.74974979
v -3.74902828 1.60322571 0.74974979
v -3.78114466 1.52576281 0.74974979
v -3.77320497 1.52585525 0.85031734
v -3.72493205 1.57270951 0.85031734
v -3.72864258 1.58228206 0.74974979
v -3.77373250 1.52581323 0.74974979
v -3.76448743 1.52590568 0.85031734
v -3.72331369 1.55605209 0.85031734
v -3.72412731 1.57256664 0.74974979
v -3.72414520 1.57270951 0.74974979
v -3.76448743 1.52588048 0.74974979
v -3.75653880 1.52598971 0.85031734
v -3.72450287 1.54898402 0.85031734
v -3.72317961 1.55605209 0.79236917
v -3.72319744 1.55604368 0.74974979
v -3.74780337 1.52611579 0.74974979
v -3.74780337 1.52609898 0.85031734
v -3.72606756 1.53995777 0.85031734
v -3.72602283 1.54001658 0.74974979
v -3.74185755 1.52724197 0.74974979
v -3.73438276 1.52862869 0.85031734
v -3.73025200 1.53424279 0.85031734
v -3.72622848 1.53937785 0.80903690
v -3.72616591 1.53937785 0.79236917
v -3.72621058 1.53937785 0.78127376
v -3.72623742 1.53936944 0.77569159
v -3.73447216 1.52865389 0.74974979
v -3.73431125 1.52867071 0.82571447
v -3.73427546 1.52873796 0.79236917
v -3.73431125 1.52870435 0.78127376
v -3.73432914 1.52869594 0.77569159
f 1 2 7
f 1 7 14
f 1 14 18
f 1 18 21
f 1 21 20
f 1 20 25
f 1 25 29
f 1 29 37
f 1 37 36
f 1 36 35
f 1 35 41
f 1 41 46
f 1 46 45
f 1 45 51
f 1 51 55
f 1 55 63
f 1 63 56
f 1 56 52
f 1 52 47
f 1 47 42
f 1 42 38
f 1 38 31
f 1 31 27
f 1 27 23
f 1 23 17
f 1 17 13
f 1 13 11
f 1 11 3
f 1 3 4
f 1 4 5
f 1 5 6
f 1 6 2
f 2 6 8
f 2 8 9
f 2 9 10
f 2 10 7
f 3 11 4
f 4 12 16
f 4 16 22
f 4 22 26
f 4 26 30
f 4 30 33
f 4 33 32
f 4 32 39
f 4 39 43
f 4 43 48
f 4 48 53
f 4 53 57
f 4 57 58
f 4 58 54
f 4 54 49
f 4 49 44
f 4 44 40
f 4 40 34
f 4 34 28
f 4 28 24
f 4 24 19
f 4 19 15
f 4 15 10
f 4 10 9
f 4 9 8
f 4 8 6
f 4 6 5
f 4 11 13
f 4 13 12
f 7 10 14
f 10 15 14
f 12 13 16
f 13 17 16
f 14 15 18
f 15 19 20
f 15 20 21
f 15 21 18
f 16 17 22
f 17 23 22
f 19 24 25
f 19 25 20
f 22 23 26
f 23 27 26
f 24 28 29
f 24 29 25
f 26 27 30
f 27 31 32
f 27 32 33
f 27 33 30
f 28 34 35
f 28 35 36
f 28 36 37
f 28 37 29
f 31 38 32
f 32 38 39
f 34 40 41
f 34 41 35
f 38 42 43
f 38 43 39
f 40 44 45
f 40 45 46
f 40 46 41
f 42 47 43
f 43 47 48
f 44 49 50
f 44 50 45
f 45 50 51
f 47 52 53
f 47 53 48
f 49 54 50
f 50 54 55
f 50 55 51
f 52 56 57
f 52 57 53
f 54 58 59
f 54 59 60
f 54 60 55
f 55 61 62
f 55 62 63
f 55 60 61
f 56 63 57
f 57 63 64
f 57 64 60
f 57 60 59
f 57 59 58
f 60 64 65
f 60 65 66
f 60 66 67
f 60 67 62
f 60 62 61
f 62 67 63
f 63 67 64
f 64 67 66
f 64 66 65

