# https://github.com/mikedh/trimesh
v 2.10743808 -0.13750494 1.12144148
v 2.12410522 -0.13832988 1.12144148
v 2.10621212 -0.13767562 1.12144148
v 2.09079901 -0.13964789 1.15355979
v 2.09079901 -0.13960996 1.17021081
v 2.09079901 -0.13954359 1.20353539
v 2.10743808 -0.13756183 1.20353539
v 2.12410522 -0.13818766 1.20353539
v 2.12410522 -0.13816867 1.15355979
v 2.13486729 -0.14553620 1.12144148
v 2.13581250 -0.14595340 1.15355979
v 2.13578437 -0.14603873 1.13688623
v 2.09079901 -0.13986596 1.12144148
v 2.07413181 -0.14347860 1.12144148
v 2.07413181 -0.14326998 1.23661196
v 2.07438454 -0.14321312 1.23661196
v 2.09079901 -0.13958149 1.22019769
v 2.10743808 -0.13761873 1.22019769
v 2.12410522 -0.13821609 1.22019769
v 2.13587795 -0.14594392 1.22019769
v 2.13587795 -0.14593445 1.20353539
v 2.13583122 -0.14592494 1.17021081
v 2.13572822 -0.14611457 1.12144148
v 2.13925637 -0.16102026 1.18687311
v 2.13919080 -0.16102026 1.17021081
v 2.07315858 -0.14388633 1.12144148
v 2.04366120 -0.15492335 1.16572395
v 2.04366120 -0.15484750 1.17021081
v 2.04366120 -0.15478113 1.18686183
v 2.06231230 -0.14900658 1.23661196
v 2.09079901 -0.13968580 1.23661196
v 2.09106104 -0.13964789 1.23661196
v 2.10743808 -0.13771356 1.23661196
v 2.12410522 -0.13827298 1.23661196
v 2.12430174 -0.13839625 1.23661196
v 2.13584994 -0.14597236 1.23661196
v 2.13922824 -0.16102026 1.20353539
v 2.13596223 -0.14722397 1.12144148
v 2.13890077 -0.17768958 1.18687311
v 2.13887263 -0.17768958 1.17021081
v 2.13879777 -0.16102026 1.12144148
v 2.06215321 -0.14891178 1.12144148
v 2.04366120 -0.15533108 1.15354853
v 2.04366120 -0.15651632 1.20353539
v 2.06220000 -0.14918674 1.23661196
v 2.04366120 -0.16349507 1.21637596
v 2.13902236 -0.16102026 1.23661196
v 2.13884462 -0.17768958 1.20353539
v 2.13777769 -0.19433047 1.23661196
v 2.13714134 -0.19433047 1.12144148
v 2.13830173 -0.17768958 1.12144148
v 2.05631358 -0.16094442 1.12144148
v 2.04366120 -0.16216757 1.13787831
v 2.04366120 -0.15683870 1.14917439
v 2.05844732 -0.16101079 1.23661196
v 2.04366120 -0.17398211 1.21955509
v 2.13856388 -0.17742407 1.23661196
v 2.13855446 -0.17768958 1.23661196
v 2.13488600 -0.20554765 1.23661196
v 2.12865339 -0.23436337 1.18687311
v 2.12887799 -0.23436337 1.15355979
v 2.13435254 -0.20522524 1.12144148
v 2.05562109 -0.17768958 1.12144148
v 2.04366120 -0.17768010 1.13120437
v 2.05841925 -0.16136162 1.23661196
v 2.04366120 -0.17768010 1.22041188
v 2.13483927 -0.20572780 1.23661196
v 2.12812928 -0.23436337 1.20353539
v 2.12405843 -0.23436337 1.13688623
v 2.12019346 -0.23436337 1.12672877
v 2.11753567 -0.23434440 1.12144148
v 2.07430968 -0.23436337 1.12144148
v 2.04366120 -0.19445373 1.13168912
v 2.04366120 -0.19080316 1.22095301
v 2.04366120 -0.20814568 1.22087409
v 2.04366120 -0.23436337 1.22055844
v 2.05943926 -0.17768958 1.23661196
v 2.11509317 -0.23436337 1.23661196
v 2.12135391 -0.23436337 1.22096429
v 2.11760123 -0.23436337 1.12166695
v 2.11096617 -0.23436337 1.12144148
v 2.04366120 -0.23436337 1.16092141
v 2.04366120 -0.22236866 1.14509336
v 2.04366120 -0.22064294 1.14294013
v 2.04366120 -0.21277289 1.13761901
v 2.04366120 -0.21099979 1.13648039
v 2.07407567 -0.23436337 1.23661196
v 2.05951413 -0.17800248 1.23661196
f 1 2 10
f 1 10 23
f 1 23 38
f 1 38 41
f 1 41 51
f 1 51 50
f 1 50 62
f 1 62 71
f 1 71 81
f 1 81 72
f 1 72 63
f 1 63 52
f 1 52 42
f 1 42 26
f 1 26 14
f 1 14 13
f 1 13 3
f 1 3 4
f 1 4 5
f 1 5 6
f 1 6 7
f 1 7 8
f 1 8 9
f 1 9 2
f 2 9 11
f 2 11 12
f 2 12 10
f 3 13 4
f 4 13 14
f 4 14 5
f 5 14 6
f 6 15 16
f 6 16 17
f 6 17 7
f 6 14 15
f 7 17 18
f 7 18 19
f 7 19 8
f 8 19 20
f 8 20 21
f 8 21 9
f 9 22 11
f 9 21 22
f 10 12 23
f 11 22 24
f 11 24 12
f 12 24 25
f 12 25 23
f 14 26 27
f 14 27 28
f 14 28 29
f 14 29 15
f 15 29 30
f 15 30 45
f 15 45 55
f 15 55 65
f 15 65 77
f 15 77 88
f 15 88 87
f 15 87 78
f 15 78 67
f 15 67 59
f 15 59 49
f 15 49 58
f 15 58 57
f 15 57 47
f 15 47 36
f 15 36 35
f 15 35 34
f 15 34 33
f 15 33 32
f 15 32 31
f 15 31 16
f 16 31 17
f 17 31 32
f 17 32 33
f 17 33 18
f 18 33 34
f 18 34 19
f 19 34 35
f 19 35 36
f 19 36 20
f 20 37 24
f 20 24 21
f 20 36 37
f 21 24 22
f 23 25 38
f 24 37 39
f 24 39 40
f 24 40 25
f 25 40 41
f 25 41 38
f 26 42 43
f 26 43 27
f 27 43 54
f 27 54 53
f 27 53 64
f 27 64 73
f 27 73 86
f 27 86 85
f 27 85 84
f 27 84 83
f 27 83 82
f 27 82 76
f 27 76 75
f 27 75 74
f 27 74 66
f 27 66 56
f 27 56 46
f 27 46 44
f 27 44 29
f 27 29 28
f 29 44 30
f 30 44 46
f 30 46 45
f 36 47 37
f 37 47 48
f 37 48 39
f 39 48 49
f 39 49 40
f 40 50 51
f 40 51 41
f 40 49 50
f 42 52 53
f 42 53 54
f 42 54 43
f 45 46 55
f 46 56 55
f 47 57 48
f 48 57 58
f 48 58 49
f 49 59 60
f 49 60 61
f 49 61 50
f 50 61 62
f 52 63 64
f 52 64 53
f 55 56 66
f 55 66 65
f 59 67 60
f 60 67 68
f 60 68 79
f 60 79 78
f 60 78 87
f 60 87 76
f 60 76 82
f 60 82 72
f 60 72 81
f 60 81 80
f 60 80 70
f 60 70 69
f 60 69 61
f 61 69 62
f 62 69 70
f 62 70 71
f 63 72 73
f 63 73 64
f 65 66 74
f 65 74 75
f 65 75 76
f 65 76 77
f 67 78 79
f 67 79 68
f 70 80 71
f 71 80 81
f 72 82 83
f 72 83 84
f 72 84 85
f 72 85 86
f 72 86 73
f 76 87 88
f 76 88 77

