# https://github.com/mikedh/trimesh
v -3.74940327 -0.73462901 0.92022331
v -3.74940327 -0.78677076 0.92022331
v -3.90446140 -0.73251982 0.92022331
v -3.50882377 -0.73455349 0.92044279
v -3.90446140 -0.78753675 0.92022331
v -3.50882377 -0.78700811 0.92044279
v -3.90446140 -0.73356631 1.01362328
v -2.99975980 -0.73647927 1.01363243
v -2.99316735 -0.73650085 1.01363243
v -2.99813425 -0.73563237 0.92151278
v -2.98196919 -0.73585354 0.92151278
v -3.90446140 -0.78761766 0.98686442
v -3.06640682 -0.78660354 0.92151278
v -3.41625848 -0.78708903 0.92151278
v -3.41625848 -0.78724546 0.98685527
v -3.41625848 -0.78728322 1.00351783
v -2.98196919 -0.78625288 0.92151278
v -2.98305290 -0.78626367 0.92151278
v -2.99975980 -0.78636077 0.92151278
v -3.01511208 -0.78643090 0.92151278
v -3.04843560 -0.78656039 0.92151278
v -3.90446140 -0.78762845 1.01362328
v -3.74940327 -0.73618259 1.01363243
v -3.74299143 -0.73615022 1.01363243
v -3.73287691 -0.73610167 1.01363243
v -3.71553790 -0.73603694 1.01363243
v -3.70208205 -0.73602076 1.01363243
v -3.51622899 -0.73582117 1.01363243
v -3.49952209 -0.73581578 1.01363243
v -2.98260136 -0.73653861 1.01363243
v -2.98196919 -0.73654400 1.01363243
v -3.90446140 -0.78762845 0.99857028
v -3.06640682 -0.78660354 1.00351783
v -3.40614402 -0.78726704 1.01363243
v -2.99975980 -0.78645247 1.00351783
v -3.41625848 -0.78728322 1.01363243
v -2.98196919 -0.78628525 0.93687672
v -2.98305290 -0.78629604 0.93687672
v -2.99975980 -0.78639314 0.93687672
v -3.64952303 -0.78716454 1.01363243
v -3.66622992 -0.78715376 1.01363243
v -3.67273213 -0.78714836 1.01363243
v -3.74940327 -0.78706745 1.01363243
v -2.98196919 -0.78637156 1.01363243
v -3.06640682 -0.78659275 1.01363243
v -2.99975980 -0.78645247 1.01363243
v -2.98305290 -0.78637695 1.00351783
v -2.98260136 -0.78637695 1.01363243
v -2.98196919 -0.78634998 0.98685527
v -2.98196919 -0.78637156 1.00351783
f 1 2 5
f 1 5 3
f 1 3 4
f 1 4 6
f 1 6 2
f 2 6 5
f 3 5 12
f 3 12 32
f 3 32 22
f 3 22 7
f 3 7 8
f 3 8 9
f 3 9 10
f 3 10 4
f 4 10 11
f 4 11 17
f 4 17 6
f 5 6 13
f 5 13 14
f 5 14 15
f 5 15 16
f 5 16 12
f 6 17 18
f 6 18 19
f 6 19 20
f 6 20 21
f 6 21 13
f 7 22 43
f 7 43 23
f 7 23 24
f 7 24 25
f 7 25 26
f 7 26 27
f 7 27 28
f 7 28 29
f 7 29 8
f 8 29 28
f 8 28 27
f 8 27 26
f 8 26 25
f 8 25 24
f 8 24 23
f 8 23 43
f 8 43 42
f 8 42 41
f 8 41 40
f 8 40 36
f 8 36 34
f 8 34 45
f 8 45 46
f 8 46 48
f 8 48 44
f 8 44 31
f 8 31 30
f 8 30 9
f 9 30 10
f 10 30 31
f 10 31 11
f 11 31 44
f 11 44 50
f 11 50 49
f 11 49 37
f 11 37 17
f 12 16 32
f 13 33 34
f 13 34 16
f 13 16 15
f 13 15 14
f 13 21 35
f 13 35 46
f 13 46 33
f 16 34 36
f 16 36 22
f 16 22 32
f 17 37 38
f 17 38 18
f 18 38 39
f 18 39 19
f 19 39 20
f 20 39 21
f 21 39 35
f 22 40 41
f 22 41 42
f 22 42 43
f 22 36 40
f 33 45 34
f 33 46 45
f 35 39 47
f 35 47 48
f 35 48 46
f 37 49 38
f 38 49 50
f 38 50 39
f 39 50 47
f 44 48 50
f 47 50 48

