# https://github.com/mikedh/trimesh
v 2.04385325 -0.19470407 0.89666446
v 2.05450533 -0.17470062 0.90501964
v 2.04385325 -0.18221552 0.89572581
v 2.04385325 -0.22808550 0.89481032
v 2.05474720 -0.17728728 0.90501964
v 2.05667300 -0.16101407 0.90501964
v 2.04385325 -0.17462802 0.89448586
v 2.07030207 -0.22808550 0.90501964
v 2.05791958 -0.19119166 0.90501964
v 2.04385325 -0.22808550 0.82769078
v 2.05702651 -0.15989772 0.90501964
v 2.04385325 -0.16329211 0.88638562
v 2.11644561 -0.22808550 0.90501964
v 2.04385325 -0.21981729 0.81457281
v 2.07635842 -0.22808550 0.78663338
v 2.06240367 -0.14872519 0.90501964
v 2.04385325 -0.15679373 0.87019675
v 2.13494954 -0.20587661 0.90501964
v 2.12993514 -0.22808550 0.85353273
v 2.04385325 -0.21765720 0.81305475
v 2.06000349 -0.17767754 0.78663338
v 2.12396253 -0.22808550 0.78663338
v 2.04385325 -0.20969759 0.81006495
v 2.07306512 -0.14334314 0.90501964
v 2.04385325 -0.15518728 0.85353273
v 2.13776839 -0.19434105 0.90501964
v 2.13008404 -0.22808550 0.83729751
v 2.05880339 -0.16125004 0.78663338
v 2.04385325 -0.19421397 0.80709835
v 2.04385325 -0.17767754 0.80547598
v 2.13417742 -0.20624872 0.78663338
v 2.12421377 -0.22808550 0.78729390
v 2.07412567 -0.14282580 0.90501964
v 2.04385325 -0.15485146 0.83688033
v 2.13020497 -0.22808550 0.82063351
v 2.13777769 -0.19434105 0.90353633
v 2.13880111 -0.17767754 0.85353273
v 2.13865221 -0.17767754 0.87019675
v 2.13828004 -0.17767754 0.90501964
v 2.05879410 -0.16101407 0.78663338
v 2.04385325 -0.16743077 0.80722581
v 2.13421461 -0.20610349 0.78663338
v 2.13002819 -0.22808550 0.80354073
v 2.08930835 -0.13958567 0.90501964
v 2.09836034 -0.13580098 0.82020474
v 2.09782073 -0.13564669 0.80354073
v 2.09768120 -0.13558318 0.78687673
v 2.09756026 -0.13561948 0.78663338
v 2.08935490 -0.13824244 0.78687673
v 2.07412567 -0.14346113 0.78663338
v 2.04385325 -0.15516004 0.83240723
v 2.13020497 -0.22808550 0.82020474
v 2.13786149 -0.19434105 0.88686074
v 2.13882900 -0.16101407 0.87019675
v 2.13868011 -0.16101407 0.90501964
v 2.13884760 -0.17767754 0.83688033
v 2.06254327 -0.14972354 0.78663338
v 2.04385325 -0.16364608 0.80793270
v 2.13705205 -0.19434105 0.78663338
v 2.13003747 -0.22808550 0.80395792
v 2.09078757 -0.13928618 0.90501964
v 2.09891848 -0.13595530 0.82983463
v 2.10744947 -0.13564669 0.82020474
v 2.10744947 -0.13543796 0.80354073
v 2.09782073 -0.13557409 0.78663338
v 2.09768120 -0.13558318 0.78663338
v 2.08935490 -0.13825153 0.78663338
v 2.06259906 -0.14956017 0.78663338
v 2.04385325 -0.15669389 0.82020474
v 2.13879181 -0.17767754 0.82020474
v 2.13566588 -0.14612944 0.90353633
v 2.13889409 -0.16101407 0.82020474
v 2.13567517 -0.14533986 0.80354073
v 2.13565658 -0.14537616 0.82020474
v 2.13592635 -0.14744547 0.90501964
v 2.13888479 -0.16101407 0.80354073
v 2.04385325 -0.15810975 0.81655442
v 2.13847542 -0.17767754 0.78663338
v 2.10744947 -0.13730762 0.90501964
v 2.11670608 -0.13594621 0.83276647
v 2.11849233 -0.13580098 0.80354073
v 2.10744947 -0.13537442 0.78663338
v 2.11786898 -0.13585546 0.82020474
v 2.13881970 -0.16101407 0.78663338
v 2.13565658 -0.14612944 0.90501964
v 2.13567517 -0.14538522 0.78687673
v 2.12682793 -0.13700810 0.80354073
v 2.12263220 -0.13816075 0.90501964
v 2.12411142 -0.13825153 0.90501964
v 2.11833414 -0.13581007 0.78663338
v 2.12620464 -0.13704440 0.82020474
v 2.13566588 -0.14538522 0.78663338
v 2.13463328 -0.14543060 0.90501964
v 2.12679073 -0.13717148 0.78663338
v 2.12666050 -0.13705349 0.78663338
v 2.12654880 -0.13703534 0.78663338
f 1 2 3
f 1 3 7
f 1 7 12
f 1 12 17
f 1 17 25
f 1 25 34
f 1 34 51
f 1 51 69
f 1 69 77
f 1 77 58
f 1 58 41
f 1 41 30
f 1 30 29
f 1 29 23
f 1 23 20
f 1 20 14
f 1 14 10
f 1 10 4
f 1 4 2
f 2 5 9
f 2 9 8
f 2 8 13
f 2 13 18
f 2 18 26
f 2 26 39
f 2 39 55
f 2 55 75
f 2 75 85
f 2 85 93
f 2 93 89
f 2 89 88
f 2 88 79
f 2 79 61
f 2 61 44
f 2 44 33
f 2 33 24
f 2 24 16
f 2 16 11
f 2 11 6
f 2 6 3
f 2 4 5
f 3 6 7
f 4 8 9
f 4 9 5
f 4 10 15
f 4 15 22
f 4 22 32
f 4 32 43
f 4 43 60
f 4 60 52
f 4 52 35
f 4 35 27
f 4 27 19
f 4 19 13
f 4 13 8
f 6 11 7
f 7 11 12
f 10 14 15
f 11 16 12
f 12 16 17
f 13 19 18
f 14 20 15
f 15 21 28
f 15 28 40
f 15 40 57
f 15 57 68
f 15 68 50
f 15 50 67
f 15 67 48
f 15 48 66
f 15 66 65
f 15 65 82
f 15 82 90
f 15 90 96
f 15 96 95
f 15 95 94
f 15 94 92
f 15 92 84
f 15 84 78
f 15 78 59
f 15 59 42
f 15 42 31
f 15 31 22
f 15 20 23
f 15 23 21
f 16 24 25
f 16 25 17
f 18 19 27
f 18 27 26
f 21 23 29
f 21 29 30
f 21 30 28
f 22 31 32
f 24 33 25
f 25 33 34
f 26 27 35
f 26 35 36
f 26 36 37
f 26 37 38
f 26 38 39
f 28 30 40
f 30 41 40
f 31 42 43
f 31 43 32
f 33 44 45
f 33 45 46
f 33 46 47
f 33 47 48
f 33 48 49
f 33 49 50
f 33 50 34
f 34 50 51
f 35 52 53
f 35 53 36
f 36 53 37
f 37 54 55
f 37 55 38
f 37 53 56
f 37 56 54
f 38 55 39
f 40 41 58
f 40 58 57
f 42 59 43
f 43 59 60
f 44 61 45
f 45 62 63
f 45 63 64
f 45 64 46
f 45 61 62
f 46 64 65
f 46 65 47
f 47 65 66
f 47 66 48
f 48 67 49
f 49 67 50
f 50 68 51
f 51 68 69
f 52 60 59
f 52 59 53
f 53 59 70
f 53 70 56
f 54 71 55
f 54 56 72
f 54 72 73
f 54 73 74
f 54 74 71
f 55 71 75
f 56 70 76
f 56 76 72
f 57 58 68
f 58 77 68
f 59 78 70
f 61 79 62
f 62 79 63
f 63 80 64
f 63 79 80
f 64 81 82
f 64 82 65
f 64 80 83
f 64 83 81
f 68 77 69
f 70 78 84
f 70 84 76
f 71 85 75
f 71 74 85
f 72 76 86
f 72 86 73
f 73 87 74
f 73 86 87
f 74 87 85
f 76 84 86
f 79 88 80
f 80 88 89
f 80 89 83
f 81 87 90
f 81 90 82
f 81 83 91
f 81 91 87
f 83 89 91
f 84 92 86
f 85 87 91
f 85 91 93
f 86 92 94
f 86 94 87
f 87 94 95
f 87 95 96
f 87 96 90
f 89 93 91

