# https://github.com/mikedh/trimesh
v 2.06674882 -0.72640909 1.13289160
v 2.06674883 -0.70921691 1.15575952
v 2.06674882 -0.78417906 1.13289160
v 2.04364343 -0.73373080 1.13289160
v 1.67529803 -0.73223722 1.13375931
v 2.06674883 -0.70921691 1.22446211
v 1.67529803 -0.71105140 1.16500773
v 2.04364343 -0.70921691 1.16504069
v 2.06674882 -0.78827011 1.13632949
v 1.67805685 -0.78524241 1.13375931
v 1.67529803 -0.78524241 1.13375931
v 2.04364343 -0.78320499 1.13289160
v 2.06674882 -0.72641722 1.23643426
v 2.04364343 -0.70921691 1.22119998
v 1.67529803 -0.71105140 1.22171621
v 1.67529803 -0.73611724 1.24507839
v 1.70717812 -0.73611724 1.24508936
v 1.74085913 -0.73611724 1.24508936
v 2.04364343 -0.73632017 1.24508936
v 2.06674882 -0.78986106 1.13989916
v 1.67529803 -0.78783988 1.14061310
v 2.06674882 -0.78322934 1.23643426
v 1.67529803 -0.74287074 1.24508936
v 1.69051003 -0.73613348 1.24508936
v 2.04364343 -0.78104582 1.24508936
v 2.06674882 -0.79187414 1.15355181
v 1.67529803 -0.79064845 1.15356280
v 2.06674882 -0.79012082 1.21763029
v 1.67529803 -0.78322123 1.24508936
v 2.02410154 -0.78124875 1.24508936
v 2.06674882 -0.79214200 1.17021397
v 1.67529803 -0.79129782 1.17022495
v 1.67529803 -0.79069715 1.15473804
v 2.06674882 -0.79078643 1.21291831
v 1.67529803 -0.78798601 1.21699325
v 1.67529803 -0.79019387 1.20352732
v 2.06674882 -0.79209331 1.19616829
v 2.06674882 -0.79194718 1.20352732
f 1 2 6
f 1 6 13
f 1 13 22
f 1 22 28
f 1 28 34
f 1 34 38
f 1 38 37
f 1 37 31
f 1 31 26
f 1 26 20
f 1 20 9
f 1 9 3
f 1 3 12
f 1 12 4
f 1 4 5
f 1 5 2
f 2 5 7
f 2 7 8
f 2 8 14
f 2 14 6
f 3 9 10
f 3 10 11
f 3 11 12
f 4 12 11
f 4 11 5
f 5 11 21
f 5 21 27
f 5 27 33
f 5 33 32
f 5 32 36
f 5 36 35
f 5 35 29
f 5 29 23
f 5 23 16
f 5 16 15
f 5 15 7
f 6 14 15
f 6 15 16
f 6 16 17
f 6 17 18
f 6 18 19
f 6 19 13
f 7 15 14
f 7 14 8
f 9 20 11
f 9 11 10
f 11 20 21
f 13 19 25
f 13 25 22
f 16 23 24
f 16 24 17
f 17 24 23
f 17 23 29
f 17 29 30
f 17 30 25
f 17 25 19
f 17 19 18
f 20 26 27
f 20 27 21
f 22 25 28
f 25 30 28
f 26 31 32
f 26 32 33
f 26 33 27
f 28 30 29
f 28 29 35
f 28 35 36
f 28 36 34
f 31 37 32
f 32 37 38
f 32 38 36
f 34 36 38

