# https://github.com/mikedh/trimesh
v -2.00801916 -0.45982700 0.20380273
v -2.00792260 -0.56099669 0.20380273
v -2.04875503 -0.45982700 0.20380273
v -2.00816406 -0.45982700 0.30355292
v -2.00818421 -0.56099669 0.38685751
v -2.00816007 -0.56099669 0.37019663
v -2.00814397 -0.57767135 0.37019663
v -2.00787831 -0.61468908 0.20380273
v -2.04875908 -0.46075169 0.20380273
v -2.04894022 -0.46100938 0.23687005
v -2.04893217 -0.45982700 0.23687005
v -2.00829692 -0.45982700 0.37019663
v -2.00833715 -0.45982700 0.38685751
v -2.00842167 -0.45985732 0.40381213
v -2.00827677 -0.56128471 0.40381213
v -2.00826068 -0.57767135 0.40351845
v -2.00817211 -0.57767135 0.38685751
v -2.00813992 -0.59433085 0.37019663
v -2.04733023 -0.61468908 0.20380273
v -2.00814397 -0.61468908 0.37019663
v -2.04880736 -0.47768404 0.20380273
v -2.04899655 -0.47768404 0.23687005
v -2.04892812 -0.46100938 0.25355054
v -2.04893217 -0.45982700 0.23806429
v -2.00842167 -0.45982700 0.40351845
v -2.01773926 -0.45982700 0.40381213
v -2.00826473 -0.57767135 0.40381213
v -2.00826068 -0.59433085 0.40381213
v -2.00817211 -0.59433085 0.38685751
v -2.04882751 -0.61462845 0.20380273
v -2.04877517 -0.61468908 0.21652849
v -2.00818820 -0.61468908 0.38685751
v -2.04881946 -0.49408584 0.20380273
v -2.04883150 -0.51074534 0.20380273
v -2.04883555 -0.52740484 0.20380273
v -2.04883555 -0.61100550 0.20380273
v -2.04888383 -0.57767135 0.23687005
v -2.04897640 -0.47768404 0.25355054
v -2.04892007 -0.45982700 0.25472524
v -2.04884765 -0.46100938 0.32019425
v -2.04884360 -0.45982700 0.32019425
v -2.04799435 -0.45982700 0.40381213
v -2.00826068 -0.59461886 0.40381213
v -2.04877923 -0.61468908 0.23318937
v -2.04877923 -0.61468908 0.23687005
v -2.04885165 -0.59433085 0.23687005
v -2.00820835 -0.61468908 0.39053819
v -2.04852966 -0.61468908 0.33685519
v -2.04874698 -0.46100938 0.33685519
v -2.04874299 -0.45982700 0.33685519
v -2.04799840 -0.46073653 0.40381213
v -2.00828482 -0.61468908 0.40381213
v -2.00828083 -0.61468908 0.40351845
v -2.04794201 -0.61468908 0.40351845
v -2.04794201 -0.61461329 0.40381213
v -2.04799840 -0.46099423 0.40381213
v -2.04494751 -0.61468908 0.40381213
f 1 2 8
f 1 8 19
f 1 19 30
f 1 30 36
f 1 36 35
f 1 35 34
f 1 34 33
f 1 33 21
f 1 21 9
f 1 9 3
f 1 3 11
f 1 11 24
f 1 24 39
f 1 39 41
f 1 41 50
f 1 50 42
f 1 42 26
f 1 26 25
f 1 25 13
f 1 13 12
f 1 12 4
f 1 4 5
f 1 5 6
f 1 6 7
f 1 7 2
f 2 7 8
f 3 9 10
f 3 10 11
f 4 12 5
f 5 12 13
f 5 13 14
f 5 14 15
f 5 15 16
f 5 16 17
f 5 17 7
f 5 7 6
f 7 17 18
f 7 18 8
f 8 18 20
f 8 20 32
f 8 32 47
f 8 47 53
f 8 53 52
f 8 52 57
f 8 57 54
f 8 54 48
f 8 48 45
f 8 45 44
f 8 44 31
f 8 31 19
f 9 21 22
f 9 22 10
f 10 22 23
f 10 23 24
f 10 24 11
f 13 25 14
f 14 26 42
f 14 42 51
f 14 51 56
f 14 56 55
f 14 55 57
f 14 57 52
f 14 52 43
f 14 43 28
f 14 28 27
f 14 27 15
f 14 25 26
f 15 27 16
f 16 27 28
f 16 28 17
f 17 29 18
f 17 28 43
f 17 43 29
f 18 29 20
f 19 31 30
f 20 29 32
f 21 33 22
f 22 33 34
f 22 34 35
f 22 35 36
f 22 36 37
f 22 37 38
f 22 38 23
f 23 39 24
f 23 38 40
f 23 40 41
f 23 41 39
f 29 43 32
f 30 31 44
f 30 44 45
f 30 45 46
f 30 46 36
f 32 43 47
f 36 46 37
f 37 46 48
f 37 48 40
f 37 40 38
f 40 48 49
f 40 49 50
f 40 50 41
f 42 50 51
f 43 52 53
f 43 53 47
f 45 48 46
f 48 54 55
f 48 55 49
f 49 55 56
f 49 56 51
f 49 51 50
f 54 57 55

