# https://github.com/mikedh/trimesh
v -3.69789264 1.65636470 1.47608415
v -3.69773769 1.90665031 1.47604375
v -3.69789264 1.90665031 1.47603868
v -3.69789264 1.65636470 1.42762519
v -2.98067663 1.65636470 1.47716530
v -2.93071395 1.90623382 1.47728652
v -2.93071395 1.90665031 1.47728652
v -3.69789264 1.90665031 1.42775148
v -3.69789264 1.88974574 1.42766056
v -3.24753149 1.65636470 1.42582160
v -2.96402241 1.65636470 1.47717538
v -2.91405974 1.90623382 1.47730674
v -2.91405974 1.90665031 1.47730674
v -3.69789264 1.90623382 1.42774644
v -3.23126459 1.90665031 1.42656426
v -3.06448997 1.90665031 1.42618536
v -3.23110967 1.65636470 1.42578624
v -2.93071395 1.65636470 1.47718549
v -2.90654598 1.90623382 1.47730674
v -2.90654598 1.90665031 1.47730674
v -3.06410266 1.65636470 1.42570035
v -3.06410266 1.90665031 1.42618536
v -2.91374990 1.65636470 1.47718549
v -2.90654598 1.65636470 1.47718045
v -2.90654598 1.90665031 1.42651374
v -3.04744843 1.90665031 1.42619547
v -3.01437240 1.65636470 1.42573068
v -2.90654598 1.65636470 1.42613484
v -2.94736820 1.65636470 1.42594286
v -2.99764071 1.65636470 1.42578120
f 1 2 3
f 1 3 8
f 1 8 14
f 1 14 9
f 1 9 4
f 1 4 10
f 1 10 17
f 1 17 21
f 1 21 27
f 1 27 30
f 1 30 29
f 1 29 28
f 1 28 24
f 1 24 23
f 1 23 18
f 1 18 11
f 1 11 5
f 1 5 6
f 1 6 7
f 1 7 2
f 2 7 13
f 2 13 20
f 2 20 25
f 2 25 26
f 2 26 22
f 2 22 16
f 2 16 15
f 2 15 8
f 2 8 3
f 4 9 10
f 5 11 12
f 5 12 6
f 6 12 13
f 6 13 7
f 8 15 14
f 9 14 15
f 9 15 10
f 10 15 16
f 10 16 17
f 11 18 12
f 12 18 23
f 12 23 19
f 12 19 20
f 12 20 13
f 16 21 17
f 16 22 21
f 19 23 24
f 19 24 28
f 19 28 25
f 19 25 20
f 21 22 26
f 21 26 27
f 25 28 29
f 25 29 30
f 25 30 27
f 25 27 26

