# https://github.com/mikedh/trimesh
v -1.99404475 2.02299919 0.97593731
v -1.99404475 2.02312659 0.97593731
v -1.99400902 2.00633407 0.97593731
v -1.99399119 2.02300768 1.12439481
v -1.99398229 2.03966431 0.97593731
v -1.99395553 2.03966431 1.12439481
v -1.99045697 1.99344028 0.97593731
v -1.99039446 1.99321943 1.12439481
v -1.99393763 2.00632557 1.12439481
v -1.99337539 2.05633791 0.99250363
v -1.99335756 2.05642284 0.97593731
v -1.99334861 2.05633791 1.12439481
v -1.99034096 1.99330437 0.97593731
v -1.97859586 1.98712927 1.12439481
v -1.98985900 2.06772830 0.97593731
v -1.98985900 2.06774526 0.99250363
v -1.99015350 2.06668353 1.12439481
v -1.97858691 1.98751150 0.97593731
v -1.97858691 1.98733313 1.04252230
v -1.96191531 1.98569379 1.12439481
v -1.97858691 2.07166946 0.97593731
v -1.97858691 2.07166946 0.99250363
v -1.98983221 2.06771130 1.12439481
v -1.98882368 2.06806804 1.12439481
v -1.97859586 2.07166099 1.12439481
v -1.96191531 1.98627988 0.97593731
v -1.94526154 1.98641578 1.09254097
v -1.94676987 1.98635632 1.12439481
v -1.96179036 1.98627988 0.97593731
v -1.94526154 1.98660264 0.97593731
v -1.94526154 1.98655168 0.99250363
v -1.94526154 1.98650921 1.00918621
v -1.96191531 2.07239993 0.97593731
v -1.96191531 2.07246789 1.12439481
v -1.96191531 2.07244241 1.05917581
v -1.94526154 1.98642428 1.12439481
v -1.93158871 1.99248894 0.97593731
v -1.93162437 1.99246348 0.99250363
v -1.94526154 2.07212816 0.99250363
v -1.94526154 2.07210266 0.97593731
v -1.94526154 2.07224705 1.12439481
v -1.94526154 2.07220459 1.05917581
v -1.92857211 2.07192430 1.05917581
v -1.93167793 1.99245498 1.02585426
v -1.93176721 1.99248894 1.09254097
v -1.93199922 1.99262485 1.12439481
v -1.91275726 2.00999497 0.97593731
v -1.91262342 2.01000345 0.99250363
v -1.92857211 2.07189881 1.04252230
v -1.92869706 2.07173742 0.97593731
v -1.94374432 2.07222158 1.12439481
v -1.91299827 2.06820394 1.04252230
v -1.92858099 2.07194977 1.12439481
v -1.92716194 2.07161851 1.12439481
v -1.91284653 2.06821243 1.09254097
v -1.91274837 2.01005441 1.07587292
v -1.91281080 2.01007990 1.09254097
v -1.91333739 2.01027527 1.12439481
v -1.90448393 2.01947419 0.97593731
v -1.90427865 2.01936378 0.99250363
v -1.91306966 2.06811901 0.99250363
v -1.92857211 2.07172892 0.97593731
v -1.91297148 2.06816147 1.02585426
v -1.91314105 2.06821243 1.12439481
v -1.91289115 2.06821243 1.10922355
v -1.90463565 2.05980343 1.02585426
v -1.90447503 2.02019619 1.09254097
v -1.90474276 2.02275286 1.12439481
v -1.90441254 2.01961010 0.97593731
v -1.90321660 2.02788321 0.97593731
v -1.90327016 2.02779825 1.00918621
v -1.90333262 2.02852875 1.09254097
v -1.91315888 2.06809351 0.97593731
v -1.91299827 2.06812751 1.00918621
v -1.90465348 2.05588772 1.12439481
v -1.90450176 2.05803670 1.09254097
v -1.90465348 2.05947217 1.04252230
v -1.90319877 2.05146237 1.02585426
v -1.90465348 2.05957410 1.00918621
v -1.90302026 2.03294559 1.12439481
v -1.90297566 2.03966431 0.97593731
v -1.90291316 2.03966431 1.02585426
v -1.90482311 2.05863976 0.97593731
v -1.90472487 2.05918336 0.99250363
v -1.90458209 2.05577731 1.12439481
v -1.90435898 2.05542055 1.11012452
v -1.90348433 2.04925394 1.10518368
v -1.90329695 2.05067245 1.05917581
v -1.90323444 2.05113962 1.04252230
v -1.90286855 2.03966431 1.12439481
v -1.90322556 2.05124154 1.00918621
v -1.90327016 2.05085081 0.99250363
v -1.90331478 2.05022225 0.97593731
v -1.90333262 2.05036667 0.97593731
f 1 2 5
f 1 5 11
f 1 11 15
f 1 15 21
f 1 21 33
f 1 33 40
f 1 40 50
f 1 50 62
f 1 62 73
f 1 73 83
f 1 83 94
f 1 94 93
f 1 93 81
f 1 81 70
f 1 70 69
f 1 69 59
f 1 59 47
f 1 47 37
f 1 37 30
f 1 30 29
f 1 29 26
f 1 26 18
f 1 18 13
f 1 13 7
f 1 7 3
f 1 3 4
f 1 4 2
f 2 4 6
f 2 6 5
f 3 7 8
f 3 8 9
f 3 9 4
f 4 9 8
f 4 8 14
f 4 14 20
f 4 20 28
f 4 28 36
f 4 36 46
f 4 46 58
f 4 58 68
f 4 68 80
f 4 80 90
f 4 90 85
f 4 85 75
f 4 75 64
f 4 64 54
f 4 54 53
f 4 53 51
f 4 51 41
f 4 41 34
f 4 34 25
f 4 25 24
f 4 24 23
f 4 23 17
f 4 17 12
f 4 12 6
f 5 6 10
f 5 10 11
f 6 12 10
f 7 13 8
f 8 13 14
f 10 12 11
f 11 12 16
f 11 16 15
f 12 17 16
f 13 18 19
f 13 19 14
f 14 19 20
f 15 16 21
f 16 22 21
f 16 17 23
f 16 23 24
f 16 24 25
f 16 25 22
f 18 26 20
f 18 20 19
f 20 27 28
f 20 26 29
f 20 29 30
f 20 30 31
f 20 31 32
f 20 32 27
f 21 22 34
f 21 34 35
f 21 35 33
f 22 25 34
f 27 36 28
f 27 32 37
f 27 37 38
f 27 38 36
f 30 37 31
f 31 37 32
f 33 39 40
f 33 35 41
f 33 41 42
f 33 42 43
f 33 43 39
f 34 41 35
f 36 38 44
f 36 44 45
f 36 45 46
f 37 47 48
f 37 48 38
f 38 48 44
f 39 43 49
f 39 49 40
f 40 49 50
f 41 51 43
f 41 43 42
f 43 52 49
f 43 51 53
f 43 53 54
f 43 54 55
f 43 55 52
f 44 48 45
f 45 56 57
f 45 57 46
f 45 48 56
f 46 57 58
f 47 59 60
f 47 60 48
f 48 60 56
f 49 52 61
f 49 61 62
f 49 62 50
f 52 63 61
f 52 55 63
f 54 64 65
f 54 65 55
f 55 65 66
f 55 66 63
f 56 60 57
f 57 60 67
f 57 67 58
f 58 67 68
f 59 69 60
f 60 69 70
f 60 70 71
f 60 71 72
f 60 72 67
f 61 73 62
f 61 63 74
f 61 74 66
f 61 66 73
f 63 66 74
f 64 75 76
f 64 76 77
f 64 77 66
f 64 66 65
f 66 77 76
f 66 76 78
f 66 78 79
f 66 79 73
f 67 72 80
f 67 80 68
f 70 81 82
f 70 82 80
f 70 80 71
f 71 80 72
f 73 79 84
f 73 84 83
f 75 85 76
f 76 85 86
f 76 86 87
f 76 87 88
f 76 88 89
f 76 89 78
f 78 89 90
f 78 90 82
f 78 82 81
f 78 81 91
f 78 91 79
f 79 91 92
f 79 92 84
f 80 82 90
f 81 93 92
f 81 92 91
f 83 84 94
f 84 92 94
f 85 90 87
f 85 87 86
f 87 90 88
f 88 90 89
f 92 93 94

