# https://github.com/mikedh/trimesh
v -3.40821220 -0.29071531 1.16424900
v -3.46130666 -0.29071531 1.15875193
v -3.40821220 -0.29071531 1.21987135
v -3.40821220 -0.72356609 1.15957132
v -3.52098280 -0.29071531 1.15875193
v -3.45500690 -0.72356609 1.15875837
v -3.46124538 -0.39439444 1.15875193
v -3.46265486 -0.29071531 1.21998104
v -3.40821220 -0.72356609 1.22462000
v -3.52099501 -0.30135018 1.15875193
v -3.52968479 -0.72356609 1.15875837
v -3.53339842 -0.29071531 1.16370703
v -3.46294901 -0.66136710 1.15875193
v -3.46199301 -0.57027184 1.15875193
v -3.46190724 -0.56095046 1.15875193
v -3.46185821 -0.55370522 1.15875193
v -3.46180919 -0.54429910 1.15875193
v -3.46126991 -0.41104580 1.15875193
v -3.46125763 -0.40413951 1.15875193
v -3.47929897 -0.29071531 1.22001330
v -3.49959546 -0.72356609 1.22465872
v -3.48292683 -0.29071531 1.22001975
v -3.52101957 -0.35134663 1.15875193
v -3.51904628 -0.66136710 1.15875193
v -3.53292045 -0.72356609 1.16042943
v -3.53339842 -0.72348136 1.16051331
v -3.52103179 -0.37770071 1.15875193
v -3.52100729 -0.39439444 1.15875193
v -3.52011256 -0.56840757 1.15875193
v -3.52003907 -0.57764420 1.15875193
v -3.53339842 -0.29071531 1.21993587
v -3.51625182 -0.72356609 1.22464581
v -3.49959546 -0.29071531 1.22000040
v -3.53339842 -0.72356609 1.22194244
v -3.53339842 -0.72356609 1.22462000
f 1 2 5
f 1 5 12
f 1 12 31
f 1 31 33
f 1 33 22
f 1 22 20
f 1 20 8
f 1 8 3
f 1 3 9
f 1 9 4
f 1 4 2
f 2 4 6
f 2 6 7
f 2 7 19
f 2 19 18
f 2 18 17
f 2 17 16
f 2 16 15
f 2 15 14
f 2 14 13
f 2 13 24
f 2 24 30
f 2 30 29
f 2 29 28
f 2 28 27
f 2 27 23
f 2 23 10
f 2 10 5
f 3 8 9
f 4 9 21
f 4 21 32
f 4 32 35
f 4 35 34
f 4 34 25
f 4 25 11
f 4 11 6
f 5 10 11
f 5 11 12
f 6 11 24
f 6 24 13
f 6 13 14
f 6 14 15
f 6 15 16
f 6 16 17
f 6 17 18
f 6 18 19
f 6 19 7
f 8 20 9
f 9 20 22
f 9 22 21
f 10 23 11
f 11 25 26
f 11 26 12
f 11 23 27
f 11 27 28
f 11 28 29
f 11 29 30
f 11 30 24
f 12 26 34
f 12 34 35
f 12 35 31
f 21 22 32
f 22 33 32
f 25 34 26
f 31 35 33
f 32 33 35

