# https://github.com/mikedh/trimesh
v -0.03204451 -0.23485358 1.97059205
v -0.03204451 -0.22697750 1.93132197
v -0.03198860 -0.23485358 1.93133181
v -0.03198860 -0.23485358 2.00548126
v -0.03204451 -0.22703297 2.00548126
v -0.03204451 -0.16034140 1.92572040
v -0.02001410 -0.16037469 1.90742913
v -0.00730098 -0.23485358 1.90742913
v -0.03204451 -0.16037469 2.00593414
v 0.01801332 -0.23485358 2.00645593
v 0.05132926 -0.16037469 2.00799171
v 0.03466569 -0.14370179 2.00774554
v -0.03204451 -0.14836088 1.92904786
v -0.01411635 -0.14546559 1.90742913
v 0.06209514 -0.23485358 1.90742913
v 0.01801332 -0.14370179 2.00689891
v -0.03204451 -0.14730704 2.00297093
v 0.02684311 -0.23485358 2.00652483
v 0.06800404 -0.16037469 2.00633779
v 0.05132926 -0.14370179 2.00780467
v 0.03466569 -0.23485358 2.00658396
v 0.03466569 -0.12974670 2.00385690
v -0.03204451 -0.14183814 1.94156035
v -0.00431298 -0.13713470 1.90742913
v -0.01366872 -0.14506624 1.90742913
v 0.07951975 -0.17417447 1.90742913
v 0.06259874 -0.23485358 1.95821742
v 0.01801332 -0.13085601 2.00328600
v -0.03204451 -0.14095071 1.99155118
v 0.00656484 -0.13298589 2.00177978
v 0.05132926 -0.23485358 2.00426055
v 0.06051721 -0.23485358 2.00087402
v 0.07762836 -0.17076890 2.00143515
v 0.07832228 -0.16037469 2.00217353
v 0.07767318 -0.14853836 2.00137614
v 0.06886575 -0.14326914 2.00392581
v 0.05132926 -0.12987980 2.00371910
v 0.06388574 -0.13192095 2.00234091
v 0.03466569 -0.12290228 1.99155118
v -0.03204451 -0.13907598 1.95821742
v 0.01801332 -0.12467717 1.90742913
v 0.00470707 -0.13115553 1.90742913
v 0.00402441 -0.13149939 1.90742913
v 0.00362154 -0.13175456 1.90742913
v 0.07965398 -0.17350889 1.90742913
v 0.07949734 -0.17413009 1.92489344
v 0.06268827 -0.23485358 1.97488427
v 0.06264351 -0.23485358 1.96603398
v 0.01801332 -0.12527620 1.99155118
v -0.03204451 -0.13924237 1.97488427
v 0.06132295 -0.23485358 1.99594188
v 0.07857966 -0.17226644 1.99155118
v 0.08082904 -0.16037469 1.99155118
v 0.06203917 -0.23485358 1.99155118
v 0.07857966 -0.14664145 1.99155118
v 0.07456203 -0.13829945 1.99155118
v 0.05132926 -0.12332380 1.99155118
v 0.06622464 -0.12969124 1.99155118
v 0.03466569 -0.12161549 1.97488427
v 0.01801332 -0.12408922 1.97488427
v 0.01801332 -0.12401159 1.95821742
v 0.03466569 -0.12153782 1.90742913
v 0.08227267 -0.16037469 1.90742913
v 0.08227267 -0.16037469 1.90822653
v 0.07945251 -0.17410792 1.94156035
v 0.06240848 -0.23485358 1.98270089
v 0.07931828 -0.17375293 1.95821742
v 0.07903850 -0.17306516 1.97488427
v 0.08159007 -0.16037469 1.97488427
v 0.08195939 -0.16037469 1.95821742
v 0.07888185 -0.14637523 1.97488427
v 0.06647087 -0.12920314 1.97488427
v 0.07479705 -0.13804434 1.97488427
v 0.05132926 -0.12226994 1.97488427
v 0.03466569 -0.12153782 1.95821742
v 0.05132926 -0.12230324 1.95821742
v 0.05132926 -0.12253621 1.90742913
v 0.08212724 -0.15967582 1.90742913
v 0.08213844 -0.16037469 1.94156035
v 0.07897138 -0.14617555 1.95821742
v 0.07487538 -0.13783354 1.95821742
v 0.07489779 -0.13773370 1.94156035
v 0.06653799 -0.12925860 1.95821742
v 0.06657160 -0.12934735 1.94156035
v 0.05205668 -0.12286899 1.90742913
v 0.07909441 -0.14605351 1.90742913
v 0.07901609 -0.14607571 1.94156035
v 0.07499846 -0.13812197 1.90742913
v 0.07478585 -0.13772262 1.90742913
v 0.06644846 -0.12954703 1.90742913
f 1 2 3
f 1 3 8
f 1 8 15
f 1 15 27
f 1 27 48
f 1 48 47
f 1 47 66
f 1 66 54
f 1 54 51
f 1 51 32
f 1 32 31
f 1 31 21
f 1 21 18
f 1 18 10
f 1 10 4
f 1 4 5
f 1 5 9
f 1 9 17
f 1 17 29
f 1 29 50
f 1 50 40
f 1 40 23
f 1 23 13
f 1 13 6
f 1 6 2
f 2 6 3
f 3 6 7
f 3 7 8
f 4 9 5
f 4 10 11
f 4 11 12
f 4 12 9
f 6 13 7
f 7 13 14
f 7 14 25
f 7 25 24
f 7 24 44
f 7 44 43
f 7 43 42
f 7 42 41
f 7 41 62
f 7 62 77
f 7 77 85
f 7 85 90
f 7 90 89
f 7 89 88
f 7 88 86
f 7 86 78
f 7 78 63
f 7 63 45
f 7 45 26
f 7 26 15
f 7 15 8
f 9 16 17
f 9 12 16
f 10 18 11
f 11 19 20
f 11 20 12
f 11 18 21
f 11 21 19
f 12 20 22
f 12 22 16
f 13 23 24
f 13 24 25
f 13 25 14
f 15 26 27
f 16 28 17
f 16 22 28
f 17 28 30
f 17 30 29
f 19 31 32
f 19 32 33
f 19 33 34
f 19 34 35
f 19 35 36
f 19 36 20
f 19 21 31
f 20 37 22
f 20 36 38
f 20 38 37
f 22 39 28
f 22 37 39
f 23 40 41
f 23 41 42
f 23 42 43
f 23 43 44
f 23 44 24
f 26 45 46
f 26 46 47
f 26 47 48
f 26 48 27
f 28 49 30
f 28 39 49
f 29 30 49
f 29 49 50
f 32 51 33
f 33 52 53
f 33 53 34
f 33 51 54
f 33 54 52
f 34 53 35
f 35 53 55
f 35 55 56
f 35 56 38
f 35 38 36
f 37 57 39
f 37 38 57
f 38 56 58
f 38 58 57
f 39 59 49
f 39 57 59
f 40 50 60
f 40 60 61
f 40 61 41
f 41 61 62
f 45 63 64
f 45 64 46
f 46 64 65
f 46 65 47
f 47 65 67
f 47 67 68
f 47 68 66
f 49 60 50
f 49 59 60
f 52 68 69
f 52 69 53
f 52 54 66
f 52 66 68
f 53 69 55
f 55 69 70
f 55 70 71
f 55 71 56
f 56 72 58
f 56 71 73
f 56 73 72
f 57 74 59
f 57 58 74
f 58 72 74
f 59 75 61
f 59 61 60
f 59 74 75
f 61 75 62
f 62 75 74
f 62 74 76
f 62 76 77
f 63 78 64
f 64 78 79
f 64 79 65
f 65 79 70
f 65 70 67
f 67 70 69
f 67 69 68
f 70 79 71
f 71 80 73
f 71 79 80
f 72 73 81
f 72 81 82
f 72 82 83
f 72 83 74
f 73 80 81
f 74 83 76
f 76 83 84
f 76 84 77
f 77 84 85
f 78 86 87
f 78 87 80
f 78 80 79
f 80 87 81
f 81 87 82
f 82 87 86
f 82 86 88
f 82 88 89
f 82 89 83
f 83 89 84
f 84 90 85
f 84 89 90

