# https://github.com/mikedh/trimesh
v -2.06687659 -0.21691493 0.18148324
v -2.06687659 -0.24349685 0.18133911
v -2.04738047 -0.21691493 0.20350942
v -2.06687659 -0.21691493 0.11978830
v -2.04698654 -0.24349685 0.20350942
v -2.06687659 -0.24349685 0.12847146
v -1.99962491 -0.21691493 0.20350942
v -2.04633989 -0.21691493 0.09021993
v -2.04645135 -0.24349685 0.20350942
v -2.04092881 -0.24349685 0.09515601
v -2.00743676 -0.24348384 0.20350942
v -1.99405034 -0.24349685 0.17019391
v -1.99240768 -0.21691493 0.17036206
v -2.03292373 -0.21691493 0.08315810
v -2.00717664 -0.24349685 0.20268073
v -2.03360758 -0.24349685 0.09391897
v -1.99396117 -0.24349685 0.16935324
v -1.99102526 -0.21691493 0.15645457
v -2.01626690 -0.21691493 0.08082813
v -2.01626690 -0.24349685 0.09287409
v -1.99240029 -0.24349685 0.15352415
v -1.99095087 -0.21691493 0.15352415
v -1.99940193 -0.21691493 0.08710932
v -2.00490962 -0.24349685 0.09400301
v -2.00555628 -0.24349685 0.09383492
v -1.99232596 -0.24349685 0.13686642
v -1.99238539 -0.24349685 0.12020864
v -1.99106985 -0.21691493 0.13686642
v -1.99855458 -0.21691493 0.08835840
v -1.99717955 -0.24349685 0.10353887
v -1.99757348 -0.24349685 0.10296243
v -1.99255634 -0.24349685 0.11936797
v -1.99248946 -0.21691493 0.10353887
v -1.99124079 -0.21691493 0.12020864
f 1 2 3
f 1 3 7
f 1 7 13
f 1 13 18
f 1 18 22
f 1 22 28
f 1 28 34
f 1 34 33
f 1 33 29
f 1 29 23
f 1 23 19
f 1 19 14
f 1 14 8
f 1 8 4
f 1 4 6
f 1 6 2
f 2 5 3
f 2 6 10
f 2 10 16
f 2 16 20
f 2 20 25
f 2 25 24
f 2 24 31
f 2 31 30
f 2 30 32
f 2 32 27
f 2 27 26
f 2 26 21
f 2 21 17
f 2 17 12
f 2 12 15
f 2 15 9
f 2 9 5
f 3 5 9
f 3 9 11
f 3 11 7
f 4 8 6
f 6 8 10
f 7 11 12
f 7 12 13
f 8 14 10
f 9 15 11
f 10 14 16
f 11 15 12
f 12 17 13
f 13 17 18
f 14 19 16
f 16 19 20
f 17 21 18
f 18 21 22
f 19 23 24
f 19 24 25
f 19 25 20
f 21 26 22
f 22 26 27
f 22 27 28
f 23 29 30
f 23 30 31
f 23 31 24
f 27 32 33
f 27 33 34
f 27 34 28
f 29 33 30
f 30 33 32

