# https://github.com/mikedh/trimesh
v 1.63615099 -0.67225727 1.50667567
v 1.63615099 -0.72693376 1.50053748
v 1.62809956 -0.67225727 1.50860062
v 1.63615099 -0.67225727 1.60012381
v 1.62435797 -0.72693376 1.50410258
v 1.63615099 -0.72693376 1.60084074
v 1.62264027 -0.67225727 1.52021903
v 1.62421525 -0.72693376 1.50428914
v 1.61282182 -0.72693376 1.52021903
v 1.61288411 -0.67225727 1.60009430
v 1.60964329 -0.72693376 1.60087018
v 1.60964329 -0.67225727 1.55420998
v 1.60964329 -0.72693376 1.53888902
v 1.60964329 -0.67225727 1.60008447
f 1 2 3
f 1 3 7
f 1 7 12
f 1 12 14
f 1 14 10
f 1 10 4
f 1 4 6
f 1 6 2
f 2 5 3
f 2 6 11
f 2 11 13
f 2 13 9
f 2 9 8
f 2 8 5
f 3 5 8
f 3 8 9
f 3 9 7
f 4 10 11
f 4 11 6
f 7 9 12
f 9 13 12
f 10 14 11
f 11 14 12
f 11 12 13

