# https://github.com/mikedh/trimesh
v -0.57787853 1.64296992 0.67264733
v -0.59447984 1.65606301 0.67979796
v -0.41096822 1.65606301 0.67976012
v -0.37806470 1.64296992 0.67308545
v -1.12796484 1.64287543 0.67390761
v -1.62824725 1.64287544 0.67332345
v -1.12796484 1.65609926 0.68050113
v -0.36101467 1.65606301 0.67988993
v -0.35099408 1.65606301 0.67996564
v -0.36011731 1.64296992 0.67324771
v -1.08728418 1.64287543 0.67419970
v -1.71185198 1.64287544 0.67359929
v -1.71155282 1.65609926 0.68149637
v -1.39478213 1.65609926 0.68085272
v -1.08728418 1.65609926 0.68062012
v -0.35099408 1.65606301 0.72652056
v -0.35099408 1.64296992 0.67335050
v -1.08728418 1.64287543 0.72476266
v -1.87891188 1.64287544 0.67445392
v -1.87891188 1.65609926 0.68218872
v -1.08728418 1.65609926 0.72390264
v -0.35099408 1.64296992 0.72660170
v -1.76165595 1.65609926 0.72703440
v -1.87891188 1.65609926 0.72750500
v -1.87846325 1.64287544 0.72790525
v -1.86171239 1.64287544 0.72785116
v -1.87891188 1.64287544 0.72790525
f 1 2 3
f 1 3 4
f 1 4 5
f 1 5 6
f 1 6 2
f 2 6 7
f 2 7 3
f 3 8 4
f 3 7 8
f 4 8 9
f 4 9 10
f 4 10 11
f 4 11 5
f 5 11 18
f 5 18 26
f 5 26 25
f 5 25 27
f 5 27 19
f 5 19 12
f 5 12 6
f 6 12 13
f 6 13 14
f 6 14 7
f 7 14 13
f 7 13 20
f 7 20 24
f 7 24 23
f 7 23 21
f 7 21 15
f 7 15 8
f 8 15 9
f 9 16 22
f 9 22 17
f 9 17 10
f 9 15 21
f 9 21 16
f 10 17 11
f 11 17 22
f 11 22 18
f 12 19 20
f 12 20 13
f 16 21 23
f 16 23 24
f 16 24 25
f 16 25 22
f 18 22 26
f 19 27 24
f 19 24 20
f 22 25 26
f 24 27 25

