# https://github.com/mikedh/trimesh
v -2.00015087 -0.72601255 1.48800642
v -2.05401446 -0.72601255 1.48800642
v -2.00019307 -0.72601255 1.47138902
v -2.00993660 -0.30553165 1.48800642
v -2.05033426 -0.32627582 1.48800642
v -2.05264361 -0.72601255 1.44283703
v -2.00019831 -0.72601255 1.47020839
v -2.01001569 -0.30553165 1.47020839
v -2.05012863 -0.30553165 1.48800642
v -2.05019193 -0.31104698 1.48800642
v -2.00070972 -0.72601255 1.44283703
v -2.04832021 -0.30553165 1.44283703
v -2.01014217 -0.30553165 1.44283703
v -2.05017607 -0.30960641 1.48800642
v -2.05018662 -0.31055306 1.48800642
f 1 2 6
f 1 6 11
f 1 11 7
f 1 7 3
f 1 3 4
f 1 4 9
f 1 9 14
f 1 14 15
f 1 15 10
f 1 10 5
f 1 5 2
f 2 5 6
f 3 7 8
f 3 8 4
f 4 8 13
f 4 13 12
f 4 12 9
f 5 10 6
f 6 10 12
f 6 12 13
f 6 13 11
f 7 11 13
f 7 13 8
f 9 12 14
f 10 15 12
f 12 15 14

