# https://github.com/mikedh/trimesh
v -0.27680325 1.62275352 1.22727029
v -0.27680325 1.62287023 1.22727029
v -0.27680325 1.61196879 1.22725192
v -0.22753189 1.61196879 1.23108187
v -0.27403471 1.65610188 1.22736213
v -0.27403471 1.65612783 1.18469082
v -0.27680325 1.62287023 1.16416341
v -0.27680325 1.61196879 1.14531675
v -0.26087366 1.65612783 1.22733458
v -0.21066073 1.61196879 1.22616814
v -0.22752485 1.65612783 1.22693965
v -0.24419221 1.65612783 1.22724273
v -0.26896144 1.65612783 1.16789232
v -0.27403471 1.65611053 1.17112528
v -0.27680325 1.62286590 1.14728224
v -0.27680325 1.62274920 1.14724550
v -0.25802083 1.65612783 1.14773228
v -0.24419221 1.65612783 1.14384723
v -0.24999627 1.61196879 1.14090818
v -0.21036563 1.61196879 1.22546095
v -0.21436380 1.65612783 1.22217288
v -0.26611560 1.65612783 1.15927723
v -0.27403471 1.63381489 1.14987227
v -0.22752485 1.65612783 1.14307573
v -0.22753189 1.61196879 1.13725273
v -0.22791132 1.61196879 1.13728029
v -0.20537663 1.61196879 1.20928699
v -0.20912187 1.65612783 1.20927781
v -0.21106121 1.61196879 1.14211136
v -0.21462378 1.65612783 1.14695159
v -0.20502528 1.61196879 1.19259869
v -0.20871434 1.65612783 1.19260788
v -0.21056238 1.61196879 1.14228585
v -0.20939591 1.65612783 1.15926805
v -0.20502528 1.61196879 1.17593796
v -0.20871434 1.65612783 1.17594715
v -0.20527828 1.61196879 1.15921294
f 1 2 7
f 1 7 15
f 1 15 16
f 1 16 8
f 1 8 3
f 1 3 4
f 1 4 2
f 2 4 5
f 2 5 6
f 2 6 7
f 3 8 19
f 3 19 26
f 3 26 25
f 3 25 29
f 3 29 33
f 3 33 37
f 3 37 35
f 3 35 31
f 3 31 27
f 3 27 20
f 3 20 10
f 3 10 4
f 4 9 5
f 4 10 11
f 4 11 12
f 4 12 9
f 5 9 6
f 6 9 12
f 6 12 11
f 6 11 21
f 6 21 28
f 6 28 32
f 6 32 36
f 6 36 34
f 6 34 30
f 6 30 24
f 6 24 18
f 6 18 17
f 6 17 22
f 6 22 13
f 6 13 14
f 6 14 15
f 6 15 7
f 8 16 17
f 8 17 18
f 8 18 19
f 10 20 21
f 10 21 11
f 13 22 14
f 14 22 23
f 14 23 15
f 15 23 17
f 15 17 16
f 17 23 22
f 18 24 25
f 18 25 26
f 18 26 19
f 20 27 28
f 20 28 21
f 24 29 25
f 24 30 29
f 27 31 32
f 27 32 28
f 29 30 33
f 30 34 33
f 31 35 36
f 31 36 32
f 33 34 37
f 34 36 37
f 35 37 36

