# https://github.com/mikedh/trimesh
v 2.10744076 -0.39434108 2.00406843
v 2.12411434 -0.39434108 2.00274794
v 2.12411434 -0.37766465 2.00272350
v 2.12411434 -0.34440340 2.00263791
v 2.12411434 -0.24443641 2.00235669
v 2.10744076 -0.37766465 2.00401956
v 2.09079490 -0.36103403 2.00384837
v 2.09079490 -0.39434108 2.00393396
v 2.09079490 -0.41101752 2.00393396
v 2.10745000 -0.54433738 2.00394612
v 2.12411434 -0.56101381 2.00274794
v 2.13538073 -0.24443641 1.99827279
v 2.13528845 -0.57769024 1.99840726
v 2.10744076 -0.24443641 2.00345712
v 2.10744076 -0.36103403 2.00395840
v 2.09079490 -0.34440340 2.00379950
v 2.04445585 -0.24443641 1.99714792
v 2.04445585 -0.47918932 1.99709904
v 2.09079490 -0.54433738 2.00381165
v 2.10745000 -0.56101381 2.00392169
v 2.12411434 -0.57769024 2.00272350
v 2.13546381 -0.71247615 1.99832167
v 2.13837958 -0.24443641 1.98686491
v 2.13868404 -0.71247615 1.98686491
v 2.09079490 -0.24443641 2.00255232
v 2.09079490 -0.29437409 2.00354272
v 2.09079490 -0.32768116 2.00371390
v 2.04445585 -0.24443641 1.93678271
v 2.04445585 -0.47918932 1.93644034
v 2.05337856 -0.71247615 1.99719680
v 2.08932778 -0.71247615 2.00301688
v 2.09079490 -0.56101381 2.00377494
v 2.09079490 -0.71247615 2.00322478
v 2.10745000 -0.57769024 2.00384837
v 2.12411434 -0.71247615 2.00231998
v 2.13813042 -0.24443641 1.97021159
v 2.13872099 -0.71247615 1.97019937
v 2.04445585 -0.46100101 1.93644034
v 2.06547542 -0.24443641 1.89473369
v 2.06455272 -0.37766465 1.89346207
v 2.06448812 -0.39434108 1.89336426
v 2.06314092 -0.71247615 1.89239830
v 2.06022515 -0.71247615 1.90356168
v 2.05337856 -0.71243035 1.93277218
v 2.05337856 -0.71247615 1.98102032
v 2.10745000 -0.71247615 2.00321250
v 2.13699554 -0.32768116 1.92022721
v 2.13694011 -0.31105053 1.92022721
v 2.13670026 -0.24443641 1.92022721
v 2.13836110 -0.71247615 1.95353384
v 2.13752150 -0.64430434 1.92022721
v 2.07395526 -0.24443641 1.87915636
v 2.07252503 -0.69428786 1.87915636
v 2.07257117 -0.71247615 1.87915636
v 2.07328167 -0.39434108 1.87915636
v 2.07325395 -0.40098417 1.87915636
v 2.07312478 -0.44437039 1.87915636
v 2.05371997 -0.71247615 1.93152507
v 2.05348007 -0.71247615 1.93273553
v 2.13462410 -0.32768116 1.90386734
v 2.13449499 -0.24443641 1.90436862
v 2.13794589 -0.71247615 1.93689275
v 2.13752150 -0.66098078 1.92022721
v 2.13507625 -0.64430434 1.90356168
v 2.11803361 -0.24443641 1.87915636
v 2.11994365 -0.71247615 1.87915636
v 2.13232656 -0.32768116 1.89554068
v 2.13216968 -0.24443641 1.89594415
v 2.13749373 -0.71247615 1.92169445
v 2.13748454 -0.69428786 1.92022721
v 2.13744759 -0.71247615 1.92022721
v 2.13503931 -0.66098078 1.90356168
v 2.13259419 -0.66098078 1.89506384
v 2.13262184 -0.64430434 1.89503934
v 2.13253875 -0.67761142 1.89512493
v 2.13248344 -0.69108083 1.89517387
v 2.13244648 -0.70216792 1.89523502
v 2.13232656 -0.71247615 1.89549174
v 2.13482711 -0.71247615 1.90365949
v 2.13496552 -0.67761142 1.90356168
v 2.13259419 -0.71247615 1.89611533
f 1 2 3
f 1 3 4
f 1 4 5
f 1 5 6
f 1 6 7
f 1 7 8
f 1 8 9
f 1 9 10
f 1 10 11
f 1 11 2
f 2 12 3
f 2 11 13
f 2 13 12
f 3 12 4
f 4 12 5
f 5 12 23
f 5 23 36
f 5 36 49
f 5 49 61
f 5 61 68
f 5 68 65
f 5 65 52
f 5 52 39
f 5 39 28
f 5 28 17
f 5 17 25
f 5 25 14
f 5 14 15
f 5 15 6
f 6 15 16
f 6 16 7
f 7 16 17
f 7 17 8
f 8 17 9
f 9 17 18
f 9 18 19
f 9 19 10
f 10 19 20
f 10 20 21
f 10 21 11
f 11 21 22
f 11 22 13
f 12 13 22
f 12 22 24
f 12 24 23
f 14 25 26
f 14 26 27
f 14 27 16
f 14 16 15
f 16 27 17
f 17 27 26
f 17 26 25
f 17 28 38
f 17 38 29
f 17 29 18
f 18 29 45
f 18 45 30
f 18 30 31
f 18 31 32
f 18 32 19
f 19 32 20
f 20 32 33
f 20 33 34
f 20 34 35
f 20 35 21
f 21 35 22
f 22 35 46
f 22 46 33
f 22 33 31
f 22 31 30
f 22 30 45
f 22 45 59
f 22 59 58
f 22 58 43
f 22 43 42
f 22 42 54
f 22 54 66
f 22 66 78
f 22 78 81
f 22 81 79
f 22 79 71
f 22 71 69
f 22 69 62
f 22 62 50
f 22 50 37
f 22 37 24
f 23 24 37
f 23 37 36
f 28 39 40
f 28 40 41
f 28 41 42
f 28 42 38
f 29 38 42
f 29 42 43
f 29 43 44
f 29 44 45
f 31 33 32
f 33 46 34
f 34 46 35
f 36 47 48
f 36 48 49
f 36 37 50
f 36 50 51
f 36 51 47
f 39 52 40
f 40 52 41
f 41 52 42
f 42 53 54
f 42 52 55
f 42 55 56
f 42 56 57
f 42 57 53
f 43 58 44
f 44 58 59
f 44 59 45
f 47 60 61
f 47 61 48
f 47 51 60
f 48 61 49
f 50 62 51
f 51 62 63
f 51 63 64
f 51 64 60
f 52 65 66
f 52 66 54
f 52 54 53
f 52 53 57
f 52 57 56
f 52 56 55
f 60 67 61
f 60 64 67
f 61 67 68
f 62 69 70
f 62 70 63
f 63 70 64
f 64 70 71
f 64 71 72
f 64 72 73
f 64 73 74
f 64 74 67
f 65 68 67
f 65 67 66
f 66 74 73
f 66 73 75
f 66 75 76
f 66 76 77
f 66 77 78
f 66 67 74
f 69 71 70
f 71 79 72
f 72 80 75
f 72 75 73
f 72 79 80
f 75 80 79
f 75 79 77
f 75 77 76
f 77 79 81
f 77 81 78

