# https://github.com/mikedh/trimesh
v -2.09603321 1.57233839 1.23052998
v -2.11343595 1.58941597 1.22744351
v -2.11343595 1.57274058 1.22730932
v -2.09606476 1.57229715 1.23052104
v -2.09603321 1.57159589 1.23036000
v -2.09327611 1.62285956 1.22725564
v -2.09327611 1.62625238 1.22728248
v -2.09327611 1.64292777 1.22733616
v -2.09327611 1.65609690 1.22737194
v -2.09678511 1.65612783 1.22737194
v -2.11343595 1.65612783 1.22737194
v -2.11343595 1.55956114 1.22237994
v -2.09603321 1.55532269 1.22639681
v -2.09327611 1.62285956 1.14697180
v -2.09603321 1.55512675 1.22587793
v -2.09603321 1.55077486 1.20863845
v -2.09327611 1.65612783 1.18470718
v -2.11343595 1.65612783 1.17886526
v -2.11343595 1.55469362 1.20927363
v -2.09603321 1.60530761 1.14403743
v -2.11343595 1.60606041 1.14453841
v -2.11343595 1.62273580 1.14781275
v -2.09327611 1.63380116 1.14987039
v -2.09603321 1.55077486 1.20836112
v -2.09603321 1.55124923 1.15853934
v -2.09603321 1.55692114 1.14395691
v -2.09603321 1.57157525 1.13913487
v -2.09603321 1.57216307 1.13915276
v -2.11343595 1.55462144 1.19259778
v -2.11343595 1.55460082 1.17593983
v -2.09327611 1.65610721 1.17112674
v -2.09678314 1.65612783 1.17335436
v -2.11343595 1.63121273 1.15077396
v -2.11343595 1.58939535 1.14370640
v -2.11343595 1.55538456 1.15926398
v -2.11343595 1.56028303 1.14734754
v -2.11343595 1.57271996 1.14354537
f 1 2 3
f 1 3 4
f 1 4 5
f 1 5 6
f 1 6 7
f 1 7 8
f 1 8 9
f 1 9 10
f 1 10 11
f 1 11 2
f 2 11 18
f 2 18 33
f 2 33 22
f 2 22 21
f 2 21 34
f 2 34 37
f 2 37 36
f 2 36 35
f 2 35 30
f 2 30 29
f 2 29 19
f 2 19 12
f 2 12 3
f 3 5 4
f 3 12 13
f 3 13 5
f 5 13 6
f 6 14 23
f 6 23 31
f 6 31 17
f 6 17 9
f 6 9 8
f 6 8 7
f 6 13 15
f 6 15 16
f 6 16 24
f 6 24 14
f 9 17 10
f 10 17 32
f 10 32 18
f 10 18 11
f 12 19 15
f 12 15 13
f 14 20 21
f 14 21 22
f 14 22 23
f 14 24 25
f 14 25 26
f 14 26 27
f 14 27 28
f 14 28 20
f 15 19 16
f 16 19 29
f 16 29 30
f 16 30 24
f 17 31 32
f 18 32 31
f 18 31 33
f 20 28 21
f 21 28 34
f 22 33 23
f 23 33 31
f 24 30 25
f 25 30 35
f 25 35 26
f 26 35 36
f 26 36 27
f 27 36 37
f 27 37 34
f 27 34 28

