# https://github.com/mikedh/trimesh
v 1.03187635 -0.35640395 1.55117912
v 1.03187635 -0.35660343 1.55125834
v 1.03187635 -0.42240937 1.55124606
v 1.03187416 -0.31515450 1.55095691
v 1.03187416 -0.31515450 1.55125834
v 1.03187635 -0.41827289 1.55125834
v 1.03080817 -0.42240937 1.55125834
v 1.03126127 -0.42240937 1.55125309
v 1.02825374 -0.31515450 1.55100132
v 1.00951465 -0.31515450 1.55125834
v 1.01159191 -0.31515450 1.55122895
v 1.02410798 -0.31515450 1.55105550
f 1 2 6
f 1 6 3
f 1 3 4
f 1 4 5
f 1 5 2
f 2 5 10
f 2 10 7
f 2 7 6
f 3 6 7
f 3 7 8
f 3 8 4
f 4 9 12
f 4 12 11
f 4 11 10
f 4 10 5
f 4 8 7
f 4 7 9
f 7 10 11
f 7 11 12
f 7 12 9

