# https://github.com/mikedh/trimesh
v 0.19581260 -0.72311840 0.58689330
v 0.19694432 -0.72311840 0.58689330
v 0.15214850 -0.72309298 0.58689330
v 0.15214118 -0.72311840 0.58686225
v 0.21276709 -0.72311840 0.57290148
v 0.21364329 -0.46360429 0.56855328
v 0.19308906 -0.46360429 0.58645848
v 0.19385569 -0.61830681 0.58689330
v 0.15547077 -0.61830681 0.58689330
v 0.15546345 -0.46360429 0.58645848
v 0.14210867 -0.72311840 0.53684262
v 0.14456203 -0.46360429 0.53685814
v 0.21276709 -0.72311840 0.49606288
v 0.21364328 -0.61828142 0.56906577
v 0.21364328 -0.60479257 0.56903469
v 0.21364328 -0.52149708 0.56880175
v 0.21364328 -0.50483290 0.56873964
v 0.21364329 -0.46360429 0.50225904
v 0.14010803 -0.72311840 0.52017976
v 0.14411666 -0.46360429 0.53428028
v 0.14173627 -0.46360429 0.52017976
v 0.14126897 -0.52769533 0.52017976
v 0.20926958 -0.72311840 0.47022224
v 0.21364328 -0.56102369 0.50219693
v 0.21364328 -0.61828142 0.50288021
v 0.19314014 -0.46360429 0.43666360
v 0.21364329 -0.47770281 0.50224351
v 0.19701733 -0.72311840 0.42824676
v 0.13953118 -0.72311840 0.50354797
v 0.14051693 -0.46360429 0.50354797
v 0.14039277 -0.46360429 0.50097011
v 0.13972102 -0.46360429 0.48688509
v 0.15454344 -0.46360429 0.43666360
v 0.19439601 -0.61904350 0.42824676
v 0.19437414 -0.61830681 0.42824676
v 0.15191485 -0.72311840 0.42824676
v 0.13927565 -0.62765501 0.48688509
v 0.13904926 -0.72311840 0.48688509
v 0.14169246 -0.46360429 0.47022224
v 0.14033435 -0.72311840 0.47477231
v 0.15458725 -0.61830681 0.42824676
v 0.14113753 -0.72311840 0.47022224
f 1 2 8
f 1 8 9
f 1 9 3
f 1 3 4
f 1 4 11
f 1 11 19
f 1 19 29
f 1 29 38
f 1 38 40
f 1 40 42
f 1 42 36
f 1 36 28
f 1 28 23
f 1 23 13
f 1 13 5
f 1 5 2
f 2 5 6
f 2 6 7
f 2 7 8
f 3 9 10
f 3 10 4
f 4 10 12
f 4 12 11
f 5 13 25
f 5 25 14
f 5 14 15
f 5 15 16
f 5 16 17
f 5 17 6
f 6 17 16
f 6 16 15
f 6 15 14
f 6 14 25
f 6 25 24
f 6 24 27
f 6 27 18
f 6 18 26
f 6 26 33
f 6 33 39
f 6 39 32
f 6 32 31
f 6 31 30
f 6 30 21
f 6 21 20
f 6 20 12
f 6 12 10
f 6 10 7
f 7 10 9
f 7 9 8
f 11 12 20
f 11 20 21
f 11 21 22
f 11 22 19
f 13 23 24
f 13 24 25
f 18 27 23
f 18 23 28
f 18 28 26
f 19 22 30
f 19 30 31
f 19 31 32
f 19 32 29
f 21 30 22
f 23 27 24
f 26 28 34
f 26 34 35
f 26 35 41
f 26 41 33
f 28 36 41
f 28 41 35
f 28 35 34
f 29 32 37
f 29 37 38
f 32 39 40
f 32 40 37
f 33 41 36
f 33 36 39
f 36 42 39
f 37 40 38
f 39 42 40

