# https://github.com/mikedh/trimesh
v -2.04735890 -0.70788884 1.87019132
v -2.04635270 -0.70788884 1.73634981
v -2.00816179 -0.70788884 1.87019132
v -2.04747459 -0.69431330 1.87019132
v -2.04663410 -0.69431330 1.73634981
v -2.00853576 -0.70788884 1.73634981
v -2.00809241 -0.23625364 1.87019132
v -2.04669579 -0.67764398 1.73634981
v -2.04695412 -0.23620747 1.87019132
v -2.04710444 -0.23616128 1.82838548
v -2.04712763 -0.23616128 1.82021040
v -2.04713532 -0.23616128 1.81172085
v -2.04713144 -0.23616128 1.80353259
v -2.04711601 -0.23616128 1.78688101
v -2.04708132 -0.23616128 1.77021631
v -2.04704275 -0.23616128 1.75355167
v -2.04699650 -0.23616128 1.73661184
v -2.00857045 -0.23616128 1.73634981
v -2.00856657 -0.23616128 1.73688697
v -2.00815023 -0.23616128 1.86768898
v -2.04662641 -0.23616128 1.87019132
v -2.04699268 -0.23616128 1.73634981
v -2.04697724 -0.23616128 1.86171488
f 1 2 6
f 1 6 3
f 1 3 7
f 1 7 21
f 1 21 9
f 1 9 4
f 1 4 5
f 1 5 2
f 2 5 8
f 2 8 22
f 2 22 18
f 2 18 6
f 3 6 7
f 4 8 5
f 4 9 10
f 4 10 11
f 4 11 12
f 4 12 13
f 4 13 14
f 4 14 15
f 4 15 16
f 4 16 17
f 4 17 8
f 6 18 19
f 6 19 7
f 7 19 20
f 7 20 21
f 8 17 22
f 9 21 23
f 9 23 10
f 10 23 21
f 10 21 20
f 10 20 19
f 10 19 18
f 10 18 22
f 10 22 17
f 10 17 16
f 10 16 15
f 10 15 14
f 10 14 13
f 10 13 12
f 10 12 11

