# https://github.com/mikedh/trimesh
v -0.86525568 -0.77703620 0.70531973
v -0.84864400 -0.79085148 0.71086721
v -0.88195168 -0.79085148 0.71086721
v -0.89864771 -0.79084317 0.71086721
v -0.88195168 -0.77703620 0.70533469
v -0.83186366 -0.76039277 0.70570851
v -0.54862178 -0.76039277 0.70576832
v -0.21546050 -0.76039277 0.70593280
v -0.08206109 -0.77703620 0.70593280
v -0.08206109 -0.79059288 0.71121113
v -0.84864400 -0.79918571 0.72457896
v -0.86525568 -0.79918571 0.72456400
v -0.92082472 -0.79915236 0.72448925
v -0.91525939 -0.77703620 0.70539451
v -0.89864771 -0.77703620 0.70536458
v -0.92082472 -0.79081813 0.71091209
v -0.86525568 -0.76039277 0.70575336
v -0.64862920 -0.74413309 0.71124105
v -0.63193317 -0.74407467 0.71124105
v -0.53184144 -0.74412474 0.71121113
v -0.51522976 -0.74410805 0.71122609
v -0.44886733 -0.74418315 0.71125602
v -0.09875709 -0.74484221 0.71136068
v -0.08206109 -0.76039277 0.70608232
v -0.05937812 -0.76039277 0.70638139
v -0.05937812 -0.77703620 0.70629168
v -0.05937812 -0.79037598 0.71155505
v -0.05937812 -0.79327919 0.71628013
v -0.05937812 -0.79844323 0.72489296
v -0.08206109 -0.79857672 0.72489296
v -0.41539099 -0.80646880 0.74192420
v -0.43200268 -0.80646880 0.74189431
v -0.92082472 -0.80580137 0.74155039
v -0.49861807 -0.80643543 0.74187935
v -0.61532148 -0.80633531 0.74178964
v -0.73194057 -0.80621852 0.74180461
v -0.74863658 -0.80616845 0.74174479
v -0.91525939 -0.76039277 0.70584309
v -0.92082472 -0.77703620 0.70542440
v -0.74863658 -0.74441676 0.71128591
v -0.73194057 -0.74430826 0.71131580
v -0.73194057 -0.73668317 0.72489296
v -0.63193317 -0.73657470 0.72489296
v -0.49861807 -0.74411639 0.71124105
v -0.44886733 -0.73689172 0.72489296
v -0.51522976 -0.73676660 0.72489296
v -0.09875709 -0.73785112 0.72489296
v -0.08206109 -0.73792622 0.72489296
v -0.08206109 -0.74491729 0.71137561
v -0.05937812 -0.75069034 0.70976073
v -0.05937812 -0.80591817 0.74207375
v -0.26537987 -0.80622686 0.74180461
v -0.43200268 -0.81157447 0.75823773
v -0.46539470 -0.81157447 0.75823773
v -0.92082472 -0.80655222 0.74464562
v -0.73194057 -0.81111562 0.75823773
v -0.74863658 -0.81102382 0.75823773
v -0.48209070 -0.81155777 0.75823773
v -0.92082472 -0.76039277 0.70587299
v -0.74863658 -0.73689172 0.72489296
v -0.92082472 -0.74665253 0.71134572
v -0.73101302 -0.72710589 0.75451448
v -0.71532889 -0.72710589 0.75443972
v -0.92074038 -0.72710589 0.75807325
v -0.76541692 -0.72710589 0.75473877
v -0.68193688 -0.72710589 0.75442476
v -0.61591175 -0.72710589 0.75451448
v -0.05937812 -0.72710589 0.75645835
v -0.05937812 -0.73832665 0.72489296
v -0.05937812 -0.74538446 0.71162983
v -0.05937812 -0.80666901 0.74464562
v -0.11545308 -0.81084865 0.75823773
v -0.41539099 -0.81154942 0.75823773
v -0.44886733 -0.81227523 0.77488020
v -0.46539470 -0.81228356 0.77488020
v -0.92074038 -0.80974741 0.75823773
v -0.92074038 -0.81042318 0.77488020
v -0.92074038 -0.81065677 0.79152269
v -0.92074038 -0.81035642 0.80818012
v -0.92082472 -0.79892711 0.83068408
v -0.73194057 -0.81188313 0.77488020
v -0.74863658 -0.81180805 0.77488020
v -0.49861807 -0.81225020 0.77488020
v -0.92082472 -0.74112142 0.72489296
v -0.92082472 -0.72711424 0.83068408
v -0.92074038 -0.72710589 0.83068408
v -0.05937812 -0.72710589 0.83068408
v -0.05937812 -0.81059002 0.75823773
v -0.05937812 -0.81143264 0.77488020
v -0.11545308 -0.81166622 0.77488020
v -0.31538358 -0.81204164 0.77488020
v -0.11545308 -0.81179136 0.79152269
v -0.31538358 -0.81211671 0.79152269
v -0.44886733 -0.81227523 0.79152269
v -0.49861807 -0.81233362 0.79152269
v -0.74863658 -0.81190816 0.79152269
v -0.92082472 -0.79549829 0.85806268
v -0.73194057 -0.81166622 0.80818012
v -0.73194057 -0.81194151 0.79152269
v -0.92082472 -0.72711424 0.84062770
v -0.05937812 -0.72711424 0.83875860
v -0.89864771 -0.72711424 0.84062770
v -0.83186366 -0.72711424 0.84061275
v -0.58184515 -0.72711424 0.84005950
v -0.05937812 -0.81163284 0.79152269
v -0.09875709 -0.81175798 0.79152269
v -0.28216021 -0.81187479 0.80818012
v -0.05937812 -0.81148266 0.80818012
v -0.43200268 -0.81199992 0.80818012
v -0.44886733 -0.81199992 0.80818012
v -0.64862920 -0.81186643 0.80818012
v -0.71532889 -0.81171626 0.80818012
v -0.92082472 -0.74213087 0.85806268
v -0.91542801 -0.79550664 0.85806268
v -0.86525568 -0.74206413 0.85806268
v -0.05937812 -0.74613532 0.85806268
v -0.83177935 -0.74208916 0.85806268
v -0.81508332 -0.74213920 0.85806268
v -0.54845313 -0.74336558 0.85806268
v -0.84847535 -0.74206413 0.85806268
v -0.05937812 -0.81158281 0.79747390
v -0.05937812 -0.79542322 0.85806268
v -0.69863289 -0.79556505 0.85806268
v -0.71541321 -0.79556505 0.85806268
f 1 2 3
f 1 3 4
f 1 4 5
f 1 5 6
f 1 6 7
f 1 7 8
f 1 8 9
f 1 9 10
f 1 10 2
f 2 11 12
f 2 12 13
f 2 13 3
f 2 10 11
f 3 13 4
f 4 14 15
f 4 15 5
f 4 13 16
f 4 16 14
f 5 17 6
f 5 15 17
f 6 17 18
f 6 18 19
f 6 19 20
f 6 20 7
f 7 20 8
f 8 20 21
f 8 21 22
f 8 22 23
f 8 23 24
f 8 24 9
f 9 24 25
f 9 25 26
f 9 26 10
f 10 26 27
f 10 27 28
f 10 28 29
f 10 29 30
f 10 30 11
f 11 30 31
f 11 31 32
f 11 32 12
f 12 32 13
f 13 33 55
f 13 55 80
f 13 80 97
f 13 97 113
f 13 113 100
f 13 100 85
f 13 85 84
f 13 84 61
f 13 61 59
f 13 59 39
f 13 39 16
f 13 32 34
f 13 34 35
f 13 35 36
f 13 36 37
f 13 37 33
f 14 38 15
f 14 16 39
f 14 39 59
f 14 59 38
f 15 38 17
f 17 38 40
f 17 40 18
f 18 41 19
f 18 40 41
f 19 41 42
f 19 42 43
f 19 43 21
f 19 21 20
f 21 44 22
f 21 43 44
f 22 45 23
f 22 44 43
f 22 43 46
f 22 46 45
f 23 47 48
f 23 48 49
f 23 49 24
f 23 45 47
f 24 49 25
f 25 49 50
f 25 50 70
f 25 70 69
f 25 69 68
f 25 68 87
f 25 87 101
f 25 101 116
f 25 116 122
f 25 122 108
f 25 108 121
f 25 121 105
f 25 105 89
f 25 89 88
f 25 88 71
f 25 71 51
f 25 51 29
f 25 29 28
f 25 28 27
f 25 27 26
f 29 51 30
f 30 51 52
f 30 52 31
f 31 53 32
f 31 52 53
f 32 53 54
f 32 54 34
f 33 37 36
f 33 36 56
f 33 56 57
f 33 57 55
f 34 54 35
f 35 54 58
f 35 58 36
f 36 58 56
f 38 59 40
f 40 60 42
f 40 42 41
f 40 59 61
f 40 61 60
f 42 62 63
f 42 63 43
f 42 60 64
f 42 64 65
f 42 65 62
f 43 66 67
f 43 67 68
f 43 68 46
f 43 63 66
f 45 46 68
f 45 68 47
f 47 68 48
f 48 68 69
f 48 69 49
f 49 69 70
f 49 70 50
f 51 71 72
f 51 72 73
f 51 73 52
f 52 73 53
f 53 73 74
f 53 74 75
f 53 75 54
f 54 75 58
f 55 76 77
f 55 77 78
f 55 78 79
f 55 79 80
f 55 57 76
f 56 81 82
f 56 82 57
f 56 58 81
f 57 82 76
f 58 75 83
f 58 83 81
f 60 61 64
f 61 84 64
f 62 65 64
f 62 64 86
f 62 86 87
f 62 87 68
f 62 68 67
f 62 67 66
f 62 66 63
f 64 84 85
f 64 85 100
f 64 100 86
f 71 88 72
f 72 88 89
f 72 89 90
f 72 90 73
f 73 91 74
f 73 90 91
f 74 91 92
f 74 92 93
f 74 93 94
f 74 94 95
f 74 95 75
f 75 95 83
f 76 82 77
f 77 82 78
f 78 82 96
f 78 96 79
f 79 97 80
f 79 96 98
f 79 98 97
f 81 99 96
f 81 96 82
f 81 83 95
f 81 95 99
f 86 100 102
f 86 102 87
f 87 102 103
f 87 103 104
f 87 104 101
f 89 105 90
f 90 105 106
f 90 106 92
f 90 92 91
f 92 107 93
f 92 106 108
f 92 108 107
f 93 107 94
f 94 107 95
f 95 107 109
f 95 109 110
f 95 110 111
f 95 111 99
f 96 99 111
f 96 111 112
f 96 112 98
f 97 98 112
f 97 112 111
f 97 111 114
f 97 114 124
f 97 124 123
f 97 123 122
f 97 122 116
f 97 116 119
f 97 119 118
f 97 118 117
f 97 117 120
f 97 120 115
f 97 115 113
f 100 113 115
f 100 115 120
f 100 120 102
f 101 104 117
f 101 117 118
f 101 118 119
f 101 119 116
f 102 120 103
f 103 120 117
f 103 117 104
f 105 121 106
f 106 121 108
f 107 108 122
f 107 122 109
f 109 122 123
f 109 123 124
f 109 124 110
f 110 124 114
f 110 114 111

