# https://github.com/mikedh/trimesh
v 2.05683620 -0.14989521 0.15355912
v 2.03645822 -0.15321187 0.13687297
v 2.03645822 -0.15316726 0.15354857
v 2.05683620 -0.15035628 0.16835848
v 2.05683620 -0.15007369 0.12020791
v 2.03645822 -0.15329368 0.12020791
v 2.03645822 -0.15327136 0.12452964
v 2.03645822 -0.15840995 0.16910688
v 2.05683620 -0.15296648 0.18006933
v 2.05683620 -0.15129328 0.10353230
v 2.03645822 -0.15703420 0.10353230
v 2.03645822 -0.16730396 0.17932093
v 2.05683620 -0.15912387 0.18933471
v 2.05683620 -0.15891564 0.08747862
v 2.05683620 -0.16088630 0.08383150
v 2.03645822 -0.16502096 0.09312853
v 2.03645822 -0.17767781 0.17997444
v 2.05683620 -0.16136222 0.19087372
v 2.05683620 -0.17767781 0.08319903
v 2.03645822 -0.17767781 0.09168442
v 2.03645822 -0.18200583 0.18000609
v 2.05683620 -0.17979719 0.18842824
v 2.03645822 -0.22585860 0.17985851
v 2.05683620 -0.19290766 0.08776323
v 2.03645822 -0.20319229 0.09482561
v 2.03645822 -0.20092417 0.09444610
v 2.03645822 -0.19433547 0.09339204
v 2.05683620 -0.22585860 0.18135531
v 2.03645822 -0.22585860 0.12782896
v 2.05683620 -0.20380208 0.09399286
v 2.05508070 -0.22585860 0.12559431
v 2.05683620 -0.22585860 0.12555211
f 1 2 3
f 1 3 4
f 1 4 9
f 1 9 13
f 1 13 18
f 1 18 22
f 1 22 28
f 1 28 32
f 1 32 30
f 1 30 24
f 1 24 19
f 1 19 15
f 1 15 14
f 1 14 10
f 1 10 5
f 1 5 6
f 1 6 7
f 1 7 2
f 2 7 6
f 2 6 11
f 2 11 16
f 2 16 20
f 2 20 27
f 2 27 26
f 2 26 25
f 2 25 29
f 2 29 23
f 2 23 21
f 2 21 17
f 2 17 12
f 2 12 8
f 2 8 3
f 3 8 9
f 3 9 4
f 5 10 6
f 6 10 11
f 8 12 13
f 8 13 9
f 10 14 11
f 11 14 15
f 11 15 16
f 12 17 18
f 12 18 13
f 15 19 20
f 15 20 16
f 17 21 18
f 18 21 23
f 18 23 22
f 19 24 25
f 19 25 26
f 19 26 27
f 19 27 20
f 22 23 28
f 23 29 31
f 23 31 32
f 23 32 28
f 24 30 25
f 25 30 31
f 25 31 29
f 30 32 31

