# https://github.com/mikedh/trimesh
v -2.46626100 -0.27767392 0.56924507
v -2.44959917 -0.27767392 0.56923523
v -2.46626100 -0.26101679 0.56924507
v -2.48292731 -0.27767392 0.56923523
v -2.48756185 -0.45980592 0.56887137
v -2.48174844 -0.45980592 0.56887137
v -2.44159450 -0.27767392 0.56920573
v -2.44159450 -0.26968272 0.56921556
v -2.44959917 -0.26101679 0.56923523
v -2.46508213 -0.45980592 0.56884187
v -2.44959917 -0.24442292 0.56918606
v -2.46626100 -0.24442292 0.56918606
v -2.48292731 -0.26101679 0.56922540
v -2.48756185 -0.27767392 0.56922540
v -2.48756185 -0.45980592 0.47032858
v -2.44959917 -0.45980592 0.56877303
v -2.44159450 -0.45980592 0.56872388
v -2.44159450 -0.26101679 0.56921556
v -2.44159450 -0.24442292 0.56917622
v -2.48292731 -0.24442292 0.56916639
v -2.48756185 -0.24897727 0.56917622
v -2.48756185 -0.26101679 0.56921556
v -2.48756185 -0.45558892 0.47032858
v -2.48393970 -0.45980592 0.46912891
v -2.44159450 -0.45980592 0.51226901
v -2.44159450 -0.24442292 0.50982043
v -2.48756185 -0.24442292 0.56915655
v -2.48325579 -0.45980592 0.46890271
v -2.48756185 -0.43891071 0.47035809
v -2.47016663 -0.45980592 0.47381953
v -2.44159450 -0.45972158 0.51193466
v -2.47073353 -0.27767392 0.47449802
v -2.47112502 -0.26101679 0.47519623
v -2.47211041 -0.24442292 0.47636646
v -2.47053558 -0.36100174 0.47402601
v -2.48756185 -0.24442292 0.47379987
v -2.48292731 -0.45980592 0.46879453
v -2.48756185 -0.37765886 0.47049577
v -2.47106202 -0.45980592 0.47346554
v -2.48292731 -0.37765886 0.46901089
v -2.48292731 -0.36100174 0.46907974
v -2.48292731 -0.34434461 0.46922720
v -2.48292731 -0.32768747 0.46945340
v -2.48292731 -0.29435213 0.46993525
v -2.48292731 -0.27767392 0.47021056
v -2.48292731 -0.26101679 0.47113492
v -2.48286884 -0.24442292 0.47301314
v -2.48756185 -0.25496541 0.47261980
v -2.48292731 -0.44432955 0.46883386
v -2.48756185 -0.36100174 0.47055478
v -2.48756185 -0.35547747 0.47059412
v -2.48756185 -0.33875708 0.47073175
v -2.48756185 -0.32201561 0.47094812
v -2.48756185 -0.28861703 0.47142013
v -2.48756185 -0.27193880 0.47168561
v -2.48756185 -0.26101679 0.47228548
f 1 2 9
f 1 9 3
f 1 3 4
f 1 4 5
f 1 5 6
f 1 6 2
f 2 7 8
f 2 8 18
f 2 18 9
f 2 6 10
f 2 10 7
f 3 9 11
f 3 11 12
f 3 12 20
f 3 20 13
f 3 13 4
f 4 13 22
f 4 22 14
f 4 14 5
f 5 15 24
f 5 24 28
f 5 28 37
f 5 37 39
f 5 39 30
f 5 30 25
f 5 25 17
f 5 17 16
f 5 16 10
f 5 10 6
f 5 14 22
f 5 22 21
f 5 21 27
f 5 27 36
f 5 36 48
f 5 48 56
f 5 56 55
f 5 55 54
f 5 54 53
f 5 53 52
f 5 52 51
f 5 51 50
f 5 50 38
f 5 38 29
f 5 29 23
f 5 23 15
f 7 10 16
f 7 16 17
f 7 17 25
f 7 25 31
f 7 31 26
f 7 26 19
f 7 19 18
f 7 18 8
f 9 18 19
f 9 19 11
f 11 19 26
f 11 26 34
f 11 34 47
f 11 47 36
f 11 36 27
f 11 27 20
f 11 20 12
f 13 20 21
f 13 21 22
f 15 23 24
f 20 27 21
f 23 28 24
f 23 29 28
f 25 30 31
f 26 32 33
f 26 33 34
f 26 31 30
f 26 30 35
f 26 35 32
f 28 29 37
f 29 38 37
f 30 39 40
f 30 40 35
f 32 41 42
f 32 42 43
f 32 43 44
f 32 44 45
f 32 45 33
f 32 35 41
f 33 46 34
f 33 45 46
f 34 46 47
f 35 40 41
f 36 47 46
f 36 46 48
f 37 38 49
f 37 49 39
f 38 40 49
f 38 50 40
f 39 49 40
f 40 50 41
f 41 50 51
f 41 51 52
f 41 52 42
f 42 52 53
f 42 53 43
f 43 53 54
f 43 54 44
f 44 54 55
f 44 55 45
f 45 55 56
f 45 56 48
f 45 48 46

