# https://github.com/mikedh/trimesh
v 1.50743359 -0.17767784 0.80802276
v 1.50743359 -0.16470589 0.80975951
v 1.55744589 -0.16490405 0.80981214
v 1.54078149 -0.17767784 0.80811047
v 1.59088934 -0.19433863 0.80881219
v 1.50743359 -0.19433863 0.80859290
v 1.49078832 -0.19433863 0.80857536
v 1.45745952 -0.19433863 0.80856658
v 1.40746635 -0.19433863 0.80857536
v 1.42413075 -0.17767784 0.80806660
v 1.42413075 -0.16466780 0.80979460
v 1.59088934 -0.16499551 0.80989108
v 1.49078832 -0.16462968 0.80978582
v 1.47412392 -0.15736629 0.82020639
v 1.49078832 -0.15743490 0.82020639
v 1.55744589 -0.17767784 0.80815433
v 1.59088934 -0.17780739 0.80825081
v 1.59088934 -0.19445296 0.80882096
v 1.49078832 -0.20932268 0.81032090
v 1.47412392 -0.20951319 0.81031212
v 1.59088934 -0.20861385 0.81044368
v 1.42413075 -0.20970376 0.81031212
v 1.40746635 -0.20977997 0.81032090
v 1.39569425 -0.19887348 0.80910164
v 1.39569425 -0.19433863 0.80859290
v 1.40746635 -0.17767784 0.80809292
v 1.40746635 -0.16472115 0.80983845
v 1.39569425 -0.15964517 0.81716267
v 1.39569425 -0.15751873 0.82020639
v 1.40746635 -0.15747301 0.82020639
v 1.42413075 -0.15742727 0.82020639
v 1.45745952 -0.15738155 0.82020639
v 1.47412392 -0.16460682 0.80981214
v 1.45745952 -0.16462968 0.80980338
v 1.59088934 -0.15805226 0.82012745
v 1.59088934 -0.17767784 0.80825081
v 1.39569425 -0.15506458 0.83687227
v 1.40746635 -0.15506458 0.83687227
v 1.47412392 -0.15509507 0.83687227
v 1.59088934 -0.15549901 0.83687227
v 1.59077469 -0.15799891 0.82020639
v 1.40746635 -0.21811035 0.81265411
v 1.59088934 -0.21695189 0.81359267
v 1.47412392 -0.21785122 0.81284708
v 1.39569425 -0.21207408 0.81101384
v 1.39569425 -0.20962753 0.81032966
v 1.39569425 -0.17767784 0.80815433
v 1.39569425 -0.16476686 0.80988232
v 1.39569425 -0.15576578 0.83197776
v 1.39569425 -0.15542281 0.84864365
v 1.39569425 -0.15557522 0.85352938
v 1.40746635 -0.15558285 0.85352938
v 1.47412392 -0.15565145 0.85352938
v 1.49078832 -0.15567431 0.85352938
v 1.59088934 -0.15596393 0.85340658
v 1.45745952 -0.23291911 0.83272335
v 1.42413075 -0.23291911 0.83272335
v 1.40746635 -0.23291911 0.83273211
v 1.39726133 -0.23291911 0.83274966
v 1.39569425 -0.23291911 0.83275843
v 1.39569425 -0.21795794 0.81276813
v 1.59087024 -0.23291911 0.83300403
v 1.59088934 -0.23078506 0.83237248
v 1.39569425 -0.15616209 0.86530953
v 1.39569425 -0.15642884 0.87020403
v 1.50743359 -0.15661178 0.87020403
v 1.57411029 -0.15682517 0.87020403
v 1.59088934 -0.15690140 0.87007245
v 1.39569425 -0.23291911 0.89744836
v 1.59088934 -0.23291911 0.87832645
v 1.39569425 -0.16216027 0.88686992
v 1.42413075 -0.16215267 0.88686992
v 1.52409799 -0.16224414 0.88686992
v 1.57411029 -0.16238132 0.88686992
v 1.59088934 -0.15690900 0.87020403
v 1.39569425 -0.22766784 0.89745713
v 1.56885487 -0.23291911 0.89760625
v 1.57411029 -0.22766784 0.89762379
v 1.59088934 -0.23291911 0.89760625
v 1.39569425 -0.16834901 0.89584318
v 1.40746635 -0.16829567 0.89587826
v 1.42413075 -0.16824995 0.89590458
v 1.44079515 -0.16825755 0.89591335
v 1.52409799 -0.16828041 0.89589581
v 1.54078149 -0.16829567 0.89586949
v 1.59077469 -0.16837187 0.89579932
v 1.59077469 -0.16246515 0.88686992
v 1.59088934 -0.16242703 0.88673834
v 1.39569425 -0.19433863 0.89736942
v 1.59088934 -0.22754588 0.89760625
v 1.57411029 -0.21100703 0.89752730
v 1.39569425 -0.17491881 0.89662384
v 1.39569425 -0.17767784 0.89693084
v 1.52409799 -0.17767784 0.89694839
v 1.59077469 -0.17767784 0.89681681
v 1.59088934 -0.17760923 0.89680804
v 1.59088934 -0.16833378 0.89573791
v 1.59088934 -0.16247278 0.88686992
v 1.39569425 -0.18945319 0.89725538
v 1.57411029 -0.19433863 0.89736065
v 1.59088934 -0.21087748 0.89750099
v 1.59088934 -0.19433863 0.89732556
f 1 2 3
f 1 3 4
f 1 4 5
f 1 5 6
f 1 6 7
f 1 7 8
f 1 8 9
f 1 9 10
f 1 10 11
f 1 11 2
f 2 12 3
f 2 11 13
f 2 13 14
f 2 14 15
f 2 15 12
f 3 12 16
f 3 16 4
f 4 16 5
f 5 16 17
f 5 17 36
f 5 36 12
f 5 12 35
f 5 35 40
f 5 40 55
f 5 55 68
f 5 68 75
f 5 75 88
f 5 88 98
f 5 98 97
f 5 97 96
f 5 96 102
f 5 102 101
f 5 101 90
f 5 90 79
f 5 79 70
f 5 70 63
f 5 63 43
f 5 43 21
f 5 21 18
f 5 18 6
f 6 19 20
f 6 20 7
f 6 18 21
f 6 21 19
f 7 20 22
f 7 22 8
f 8 22 23
f 8 23 9
f 9 23 24
f 9 24 25
f 9 25 10
f 10 25 26
f 10 26 11
f 11 26 27
f 11 27 28
f 11 28 29
f 11 29 30
f 11 30 31
f 11 31 32
f 11 32 33
f 11 33 34
f 11 34 13
f 12 36 16
f 12 15 35
f 13 34 33
f 13 33 14
f 14 33 32
f 14 32 37
f 14 37 38
f 14 38 39
f 14 39 40
f 14 40 15
f 15 40 41
f 15 41 35
f 16 36 17
f 19 21 20
f 20 42 22
f 20 21 42
f 21 43 44
f 21 44 42
f 22 42 23
f 23 42 45
f 23 45 46
f 23 46 24
f 24 46 45
f 24 45 61
f 24 61 60
f 24 60 69
f 24 69 76
f 24 76 89
f 24 89 99
f 24 99 93
f 24 93 92
f 24 92 80
f 24 80 71
f 24 71 65
f 24 65 64
f 24 64 51
f 24 51 50
f 24 50 37
f 24 37 49
f 24 49 29
f 24 29 28
f 24 28 48
f 24 48 47
f 24 47 25
f 25 47 26
f 26 47 48
f 26 48 27
f 27 48 28
f 29 49 30
f 30 49 31
f 31 49 32
f 32 49 37
f 35 41 40
f 37 50 38
f 38 50 39
f 39 50 51
f 39 51 52
f 39 52 53
f 39 53 54
f 39 54 55
f 39 55 40
f 42 56 57
f 42 57 58
f 42 58 59
f 42 59 60
f 42 60 61
f 42 61 45
f 42 44 62
f 42 62 56
f 43 63 62
f 43 62 44
f 51 64 52
f 52 64 53
f 53 64 54
f 54 64 65
f 54 65 66
f 54 66 55
f 55 66 67
f 55 67 68
f 56 62 70
f 56 70 79
f 56 79 77
f 56 77 69
f 56 69 60
f 56 60 59
f 56 59 58
f 56 58 57
f 62 63 70
f 65 71 72
f 65 72 73
f 65 73 66
f 66 73 74
f 66 74 67
f 67 74 75
f 67 75 68
f 69 77 78
f 69 78 76
f 71 80 81
f 71 81 82
f 71 82 72
f 72 82 83
f 72 83 84
f 72 84 73
f 73 84 85
f 73 85 86
f 73 86 74
f 74 86 87
f 74 87 75
f 75 87 88
f 76 78 89
f 77 79 78
f 78 79 90
f 78 90 91
f 78 91 89
f 80 92 81
f 81 92 82
f 82 92 93
f 82 93 83
f 83 93 94
f 83 94 84
f 84 94 86
f 84 86 85
f 86 95 96
f 86 96 97
f 86 97 87
f 86 94 95
f 87 97 98
f 87 98 88
f 89 91 100
f 89 100 99
f 90 101 91
f 91 101 100
f 93 99 94
f 94 100 95
f 94 99 100
f 95 100 102
f 95 102 96
f 100 101 102

