# https://github.com/mikedh/trimesh
v -0.29421084 1.97298113 1.22779332
v -0.29421084 1.97300724 1.22779332
v -0.29421084 1.95630937 1.22775927
v -0.27754717 1.95628979 1.22776778
v -0.22753100 1.97300724 1.22760601
v -0.29421084 1.97300724 1.14744890
v -0.29421084 1.93967351 1.22772521
v -0.27754717 1.93967351 1.22772521
v -0.26087509 1.93967351 1.22770819
v -0.24420307 1.93967351 1.22764006
v -0.22753100 1.93967351 1.22736759
v -0.21424046 1.93967351 1.22238651
v -0.21418995 1.97300724 1.22259086
v -0.24420307 1.97300724 1.14196545
v -0.24420307 1.93967351 1.14298722
v -0.29421084 1.97296156 1.14745741
v -0.29421084 1.93967351 1.17814429
v -0.20906723 1.93967351 1.20928243
v -0.20902519 1.97300724 1.20928243
v -0.22753100 1.97300724 1.14081598
v -0.22753100 1.93967351 1.14253593
v -0.25885629 1.93967351 1.14721048
v -0.29421084 1.96441519 1.15069300
v -0.20880642 1.93967351 1.19261071
v -0.20827651 1.97300724 1.17593899
v -0.21402170 1.97300724 1.14582260
v -0.21456849 1.93967351 1.14675920
v -0.20878960 1.93967351 1.17593899
v -0.20844476 1.97300724 1.15925874
v -0.20937844 1.93967351 1.15925874
f 1 2 6
f 1 6 16
f 1 16 23
f 1 23 17
f 1 17 7
f 1 7 3
f 1 3 4
f 1 4 2
f 2 4 5
f 2 5 13
f 2 13 19
f 2 19 25
f 2 25 29
f 2 29 26
f 2 26 20
f 2 20 14
f 2 14 6
f 3 7 4
f 4 7 8
f 4 8 9
f 4 9 5
f 5 9 10
f 5 10 11
f 5 11 12
f 5 12 13
f 6 14 15
f 6 15 16
f 7 17 22
f 7 22 15
f 7 15 21
f 7 21 27
f 7 27 30
f 7 30 28
f 7 28 24
f 7 24 18
f 7 18 12
f 7 12 11
f 7 11 10
f 7 10 9
f 7 9 8
f 12 18 13
f 13 18 19
f 14 20 15
f 15 20 21
f 15 22 16
f 16 22 23
f 17 23 22
f 18 24 25
f 18 25 19
f 20 26 27
f 20 27 21
f 24 28 25
f 25 28 29
f 26 29 30
f 26 30 27
f 28 30 29

