# https://github.com/mikedh/trimesh
v 0.67402577 -0.23107267 1.93137891
v 0.66111897 -0.28805349 1.93137891
v 0.59094687 -0.23107267 1.93137891
v 0.79174806 -0.23107267 1.93273499
v 0.60401679 -0.28805349 1.93137891
v 0.79174806 -0.28805349 1.93771393
v 0.55374076 -0.23107267 1.93289223
v 0.79174806 -0.23107267 1.99793900
v 0.55374076 -0.28805349 1.93793011
v 0.79174806 -0.28805349 1.99721837
v 0.55374076 -0.23107267 1.99813558
v 0.67409566 -0.28805349 1.99757219
v 0.72409211 -0.28805349 1.99744773
v 0.74077311 -0.28805349 1.99740184
v 0.74706345 -0.28805349 1.99738217
v 0.76372117 -0.28805349 1.99732328
v 0.62412255 -0.23107267 1.99830593
v 0.55374076 -0.28805349 1.99763120
v 0.60406340 -0.23107267 1.99826003
v 0.65746124 -0.28805349 1.99760497
v 0.62072106 -0.23107267 1.99829937
v 0.57412607 -0.28805349 1.99764431
v 0.59707410 -0.28805349 1.99764431
v 0.61373182 -0.28805349 1.99763776
v 0.64078024 -0.28805349 1.99761809
f 1 2 5
f 1 5 3
f 1 3 7
f 1 7 11
f 1 11 19
f 1 19 21
f 1 21 17
f 1 17 8
f 1 8 4
f 1 4 2
f 2 4 6
f 2 6 10
f 2 10 16
f 2 16 15
f 2 15 14
f 2 14 13
f 2 13 12
f 2 12 20
f 2 20 25
f 2 25 24
f 2 24 23
f 2 23 22
f 2 22 18
f 2 18 9
f 2 9 5
f 3 5 7
f 4 8 10
f 4 10 6
f 5 9 7
f 7 9 18
f 7 18 11
f 8 12 13
f 8 13 14
f 8 14 15
f 8 15 16
f 8 16 10
f 8 17 12
f 11 18 19
f 12 17 20
f 17 21 18
f 17 18 22
f 17 22 23
f 17 23 24
f 17 24 25
f 17 25 20
f 18 21 19

