# https://github.com/mikedh/trimesh
v -2.98015458 -0.29158911 0.89809963
v -2.96349636 -0.29158911 0.89809105
v -2.98184324 -0.29142697 0.89808247
v -2.98294454 -0.29142697 0.89808247
v -2.99669043 -0.29142697 0.89805670
v -2.98184324 -0.29329150 0.89809105
v -2.98184324 -0.54427345 0.89707803
v -2.94963626 -0.29162964 0.89806529
v -2.98184324 -0.29142697 0.81130674
v -2.94963626 -0.29158911 0.83541302
v -2.99959461 -0.29142697 0.89804812
v -2.99959461 -0.54427345 0.89704370
v -2.98184324 -0.55987876 0.89700077
v -2.96627001 -0.56097315 0.89695784
v -2.96627001 -0.54427345 0.89703512
v -2.94963626 -0.54427345 0.89695784
v -2.98224297 -0.29142697 0.81129816
v -2.94963626 -0.29158911 0.83524132
v -2.97455833 -0.29158911 0.81183901
v -2.98127220 -0.29158911 0.81131532
v -3.03292736 -0.29142697 0.89793652
v -3.03297631 -0.29146750 0.89793652
v -3.03297631 -0.29434537 0.89792793
v -3.03297631 -0.54427345 0.89693209
v -3.03297631 -0.56093262 0.89685482
v -2.99959461 -0.56093262 0.89695784
v -2.98294454 -0.56093262 0.89699218
v -2.98184324 -0.65987431 0.89633115
v -2.96627001 -0.66096872 0.89631398
v -2.94963626 -0.56097315 0.89687200
v -2.94963626 -0.66096872 0.89623672
v -2.99290521 -0.29142697 0.81123806
v -2.98294454 -0.31104507 0.81105778
v -2.94963626 -0.32766371 0.83526707
v -2.97392202 -0.46101814 0.81130674
v -2.97395465 -0.44439950 0.81134109
v -2.97399544 -0.42769979 0.81137542
v -2.97407702 -0.39438145 0.81144410
v -2.97412596 -0.37772228 0.81147843
v -2.97418307 -0.36106311 0.81152136
v -2.97424833 -0.34436341 0.81158146
v -2.97432991 -0.32770424 0.81164156
v -2.97441965 -0.31104507 0.81171882
v -2.97451754 -0.29718269 0.81179608
v -2.98127220 -0.29272403 0.81130674
v -2.98184324 -0.29900670 0.81122089
v -3.03297631 -0.29142697 0.89704370
v -3.03297631 -0.57763232 0.89674323
v -3.03297631 -0.69428706 0.89595342
v -2.98294454 -0.66092817 0.89632257
v -2.98184324 -0.67657402 0.89621096
v -2.96627001 -0.67766842 0.89618521
v -2.94963626 -0.67766842 0.89611653
v -3.03297631 -0.29142697 0.83575642
v -2.98294454 -0.34436341 0.81085174
v -2.98294454 -0.46101814 0.81040533
v -2.99351705 -0.34436341 0.81115221
v -3.00203379 -0.36102258 0.81590822
v -2.98184324 -0.31104507 0.81113505
v -2.94963626 -0.66092817 0.83555038
v -2.97401175 -0.47771784 0.81136684
v -2.98294454 -0.47767730 0.81039675
v -2.98184324 -0.46101814 0.81050836
v -2.94963626 -0.67758736 0.83566197
v -2.94963626 -0.70539316 0.83585943
v -3.03297631 -0.70551477 0.87623400
v -3.03292736 -0.70551477 0.89581606
v -2.98184324 -0.69428706 0.89603926
v -2.98184324 -0.67766842 0.89620238
v -2.96627001 -0.69428706 0.89602210
v -2.94963626 -0.69428706 0.89594483
v -3.00205826 -0.37768175 0.81585673
v -3.00256404 -0.47767730 0.81607133
v -3.03292736 -0.70551477 0.83638311
v -3.03297631 -0.69424652 0.83644320
v -2.99422678 -0.47767730 0.81091184
v -2.99370468 -0.36102258 0.81115221
v -2.97451754 -0.57053901 0.81180467
v -2.99311732 -0.56093262 0.81113505
v -2.99394125 -0.49437701 0.81091184
v -2.98184324 -0.56178382 0.81125524
v -2.98210429 -0.56145955 0.81124666
v -2.99060471 -0.62760983 0.81175315
v -2.94963626 -0.70539316 0.89571304
v -2.98184324 -0.70551477 0.81698133
v -2.97074864 -0.70539316 0.82329978
v -3.02742901 -0.70551477 0.89582465
v -3.01076263 -0.70551477 0.89583323
v -2.99410441 -0.70551477 0.89582465
v -2.98184324 -0.70539316 0.89580747
v -2.96627001 -0.70539316 0.89578172
v -2.96069823 -0.70539316 0.89576455
v -2.99959461 -0.70551477 0.81984009
v -2.99135523 -0.63701355 0.81184760
v -2.97486832 -0.70539316 0.82088744
v -2.98294454 -0.70551477 0.81637180
v -2.98294454 -0.69428706 0.81561634
v -2.98294454 -0.67766842 0.81470635
v -2.99105339 -0.63701355 0.81184760
v -2.98184324 -0.70551477 0.89579889
f 1 2 3
f 1 3 4
f 1 4 5
f 1 5 6
f 1 6 7
f 1 7 2
f 2 8 3
f 2 7 8
f 3 9 17
f 3 17 32
f 3 32 54
f 3 54 47
f 3 47 21
f 3 21 11
f 3 11 5
f 3 5 4
f 3 8 10
f 3 10 18
f 3 18 9
f 5 11 12
f 5 12 6
f 6 12 7
f 7 13 14
f 7 14 15
f 7 15 8
f 7 12 13
f 8 15 16
f 8 16 30
f 8 30 31
f 8 31 53
f 8 53 71
f 8 71 84
f 8 84 65
f 8 65 64
f 8 64 60
f 8 60 34
f 8 34 18
f 8 18 10
f 9 18 19
f 9 19 20
f 9 20 17
f 11 21 22
f 11 22 23
f 11 23 12
f 12 23 24
f 12 24 25
f 12 25 26
f 12 26 13
f 13 26 27
f 13 27 50
f 13 50 28
f 13 28 29
f 13 29 14
f 14 30 16
f 14 16 15
f 14 29 31
f 14 31 30
f 17 20 33
f 17 33 32
f 18 34 35
f 18 35 36
f 18 36 37
f 18 37 38
f 18 38 39
f 18 39 40
f 18 40 41
f 18 41 42
f 18 42 43
f 18 43 44
f 18 44 19
f 19 44 20
f 20 44 45
f 20 45 46
f 20 46 33
f 21 47 22
f 22 47 54
f 22 54 75
f 22 75 66
f 22 66 49
f 22 49 48
f 22 48 25
f 22 25 24
f 22 24 23
f 25 48 26
f 26 48 49
f 26 49 50
f 26 50 27
f 28 50 51
f 28 51 29
f 29 51 52
f 29 52 53
f 29 53 31
f 32 33 55
f 32 55 56
f 32 56 57
f 32 57 58
f 32 58 54
f 33 46 59
f 33 59 55
f 34 60 35
f 35 61 62
f 35 62 63
f 35 63 36
f 35 60 64
f 35 64 65
f 35 65 61
f 36 63 37
f 37 63 38
f 38 63 39
f 39 63 40
f 40 63 56
f 40 56 55
f 40 55 41
f 41 55 42
f 42 55 43
f 43 59 44
f 43 55 59
f 44 59 45
f 45 59 46
f 49 66 67
f 49 67 68
f 49 68 69
f 49 69 51
f 49 51 50
f 51 69 52
f 52 69 68
f 52 68 70
f 52 70 53
f 53 70 71
f 54 58 72
f 54 72 73
f 54 73 74
f 54 74 75
f 56 63 62
f 56 62 76
f 56 76 57
f 57 76 77
f 57 77 58
f 58 77 76
f 58 76 72
f 61 65 78
f 61 78 62
f 62 79 80
f 62 80 76
f 62 78 81
f 62 81 82
f 62 82 83
f 62 83 79
f 65 84 100
f 65 100 85
f 65 85 86
f 65 86 78
f 66 74 93
f 66 93 96
f 66 96 85
f 66 85 100
f 66 100 89
f 66 89 88
f 66 88 87
f 66 87 67
f 66 75 74
f 67 87 68
f 68 87 88
f 68 88 89
f 68 89 70
f 70 89 90
f 70 90 91
f 70 91 92
f 70 92 71
f 71 92 84
f 72 76 73
f 73 76 74
f 74 76 80
f 74 80 79
f 74 79 94
f 74 94 93
f 78 86 95
f 78 95 85
f 78 85 96
f 78 96 97
f 78 97 98
f 78 98 99
f 78 99 81
f 79 83 94
f 81 99 83
f 81 83 82
f 83 99 94
f 84 92 100
f 85 95 86
f 89 100 91
f 89 91 90
f 91 100 92
f 93 94 96
f 94 97 96
f 94 99 97
f 97 99 98

