# https://github.com/mikedh/trimesh
v -2.08257467 -0.77767171 2.00300840
v -2.01627214 -0.77766233 2.00312570
v -2.01627214 -0.74435814 2.00323001
v -2.03291377 -0.72768728 2.00323001
v -2.08257467 -0.77730541 2.00300840
v -2.08257467 -0.79339400 1.99916292
v -2.01627214 -0.79433319 1.99972344
v -1.99960119 -0.77766233 2.00268248
v -1.99960119 -0.79433319 1.99952794
v -2.02980447 -0.70789824 2.00324301
v -2.01627214 -0.70789824 2.00323001
v -2.03291377 -0.70789824 2.00323001
v -2.08257467 -0.76100085 2.00285200
v -2.08257467 -0.80137724 1.98713121
v -2.02868980 -0.80287055 1.99548695
v -2.01627214 -0.80308656 1.99576066
v -1.99960119 -0.80309598 1.99576066
v -1.98913900 -0.79433319 1.99720763
v -1.98761370 -0.77766233 1.99871969
v -1.99960119 -0.70789824 2.00230446
v -1.99095767 -0.80287055 1.99548695
v -2.08257467 -0.76065332 2.00282589
v -2.08257467 -0.70789824 1.99702512
v -2.08257467 -0.74434876 2.00113132
v -2.08257467 -0.80153689 1.98687049
v -2.01627214 -0.80365010 1.98687049
v -1.99960119 -0.80368768 1.98687049
v -1.98655774 -0.79433319 1.98687049
v -1.98347770 -0.77766233 1.98687049
v -1.98827866 -0.70789824 1.99832868
v -1.99060564 -0.80311476 1.98687049
v -2.08257467 -0.70789824 1.93870449
v -2.08257467 -0.80217556 1.97055013
v -2.08257467 -0.80218495 1.97019817
v -2.01627214 -0.80374401 1.97019817
v -1.99960119 -0.80383794 1.97019817
v -1.98609818 -0.79433319 1.97019817
v -1.98294972 -0.77766233 1.97019817
v -1.98506177 -0.70789824 1.98687049
v -1.99040036 -0.80324624 1.97019817
v -2.08257467 -0.70798276 1.93734883
v -2.06006647 -0.70789824 1.89249383
v -2.08257467 -0.80196891 1.93721847
v -2.01637973 -0.80358435 1.87007289
v -2.01627214 -0.80369707 1.93687956
v -1.99960119 -0.80383794 1.90354790
v -1.99036126 -0.80326502 1.90354790
v -1.98592223 -0.79433319 1.92022023
v -1.98269557 -0.77766233 1.93687956
v -1.98504222 -0.70789824 1.98374200
v -2.08257467 -0.73423353 1.89328902
v -2.04735544 -0.70789824 1.87022929
v -2.04733589 -0.70792642 1.87007289
v -2.08257467 -0.80180925 1.92058525
v -2.03091915 -0.80302082 1.87007289
v -1.99973804 -0.80371584 1.87007289
v -1.99960119 -0.80380036 1.88690168
v -1.99042969 -0.80322747 1.88690168
v -1.98594178 -0.79433319 1.90354790
v -1.98269557 -0.77766233 1.92022023
v -1.98503244 -0.70789824 1.97019817
v -2.08257467 -0.75041602 1.87022929
v -2.04668077 -0.70789824 1.87007289
v -2.06644148 -0.74890390 1.87007289
v -2.08257467 -0.75130825 1.87019019
v -2.08257467 -0.80179987 1.92023328
v -2.03917154 -0.80248547 1.87007289
v -1.99960119 -0.80371584 1.87007289
v -1.99051766 -0.80316172 1.87022929
v -1.98620571 -0.79433319 1.87007289
v -1.98309647 -0.77766233 1.87007289
v -1.98509110 -0.70789824 1.96706961
v -2.00816644 -0.70789824 1.87007289
v -2.06644148 -0.75017182 1.87007289
v -2.06636327 -0.78588035 1.87007289
v -2.08257467 -0.78494115 1.87020324
v -2.08257467 -0.79965849 1.90391292
v -2.03934749 -0.80240095 1.87007289
v -2.08257467 -0.79961152 1.90356095
v -1.99060564 -0.80316172 1.87007289
v -1.99048834 -0.80308656 1.87007289
v -1.98407423 -0.76100085 1.87007289
v -1.98406446 -0.76100085 1.87022929
v -1.98538435 -0.70789824 1.95352584
v -1.98955945 -0.73420534 1.87007289
v -1.99133902 -0.70789824 1.89538772
v -1.98624481 -0.74427362 1.87007289
v -1.98627414 -0.70789824 1.92022023
v -1.98587323 -0.70789824 1.93376406
v -1.98545290 -0.70789824 1.95042339
v -1.98975508 -0.70789824 1.90078443
v -1.98899237 -0.70789824 1.90341754
f 1 2 3
f 1 3 4
f 1 4 12
f 1 12 5
f 1 5 13
f 1 13 22
f 1 22 24
f 1 24 23
f 1 23 32
f 1 32 41
f 1 41 51
f 1 51 62
f 1 62 65
f 1 65 76
f 1 76 79
f 1 79 77
f 1 77 66
f 1 66 54
f 1 54 43
f 1 43 34
f 1 34 33
f 1 33 25
f 1 25 14
f 1 14 6
f 1 6 7
f 1 7 2
f 2 8 3
f 2 7 9
f 2 9 8
f 3 10 4
f 3 8 11
f 3 11 10
f 4 10 12
f 5 12 13
f 6 14 15
f 6 15 16
f 6 16 7
f 7 16 17
f 7 17 9
f 8 9 18
f 8 18 19
f 8 19 20
f 8 20 11
f 9 17 21
f 9 21 18
f 10 11 20
f 10 20 30
f 10 30 39
f 10 39 50
f 10 50 61
f 10 61 72
f 10 72 84
f 10 84 90
f 10 90 89
f 10 89 88
f 10 88 92
f 10 92 91
f 10 91 86
f 10 86 73
f 10 73 63
f 10 63 52
f 10 52 42
f 10 42 32
f 10 32 23
f 10 23 12
f 12 22 13
f 12 23 24
f 12 24 22
f 14 25 15
f 15 25 26
f 15 26 16
f 16 26 27
f 16 27 17
f 17 27 21
f 18 21 28
f 18 28 29
f 18 29 19
f 19 29 30
f 19 30 20
f 21 27 31
f 21 31 28
f 25 33 26
f 26 33 34
f 26 34 35
f 26 35 36
f 26 36 27
f 27 36 31
f 28 31 37
f 28 37 38
f 28 38 29
f 29 38 39
f 29 39 30
f 31 36 40
f 31 40 37
f 32 42 41
f 34 43 44
f 34 44 45
f 34 45 35
f 35 45 46
f 35 46 36
f 36 46 47
f 36 47 40
f 37 40 48
f 37 48 49
f 37 49 38
f 38 49 39
f 39 49 50
f 40 47 48
f 41 42 51
f 42 52 53
f 42 53 51
f 43 54 44
f 44 55 67
f 44 67 78
f 44 78 75
f 44 75 74
f 44 74 64
f 44 64 53
f 44 53 63
f 44 63 73
f 44 73 85
f 44 85 87
f 44 87 82
f 44 82 71
f 44 71 70
f 44 70 81
f 44 81 80
f 44 80 68
f 44 68 56
f 44 56 57
f 44 57 46
f 44 46 45
f 44 54 55
f 46 57 47
f 47 57 58
f 47 58 59
f 47 59 48
f 48 59 60
f 48 60 49
f 49 60 61
f 49 61 50
f 51 53 62
f 52 63 53
f 53 64 65
f 53 65 62
f 54 66 55
f 55 66 67
f 56 68 57
f 57 68 69
f 57 69 58
f 58 69 59
f 59 69 70
f 59 70 60
f 60 70 71
f 60 71 61
f 61 71 72
f 64 74 65
f 65 74 75
f 65 75 76
f 66 77 67
f 67 76 78
f 67 77 79
f 67 79 76
f 68 80 69
f 69 80 81
f 69 81 70
f 71 82 83
f 71 83 72
f 72 83 84
f 73 86 85
f 75 78 76
f 82 87 88
f 82 88 83
f 83 88 89
f 83 89 90
f 83 90 84
f 85 86 91
f 85 91 92
f 85 92 87
f 87 92 88

