# https://github.com/mikedh/trimesh
v -1.76196268 1.95639370 2.02133054
v -1.76196268 1.95639370 1.97499484
v -1.76176456 1.95639370 2.02133054
v -1.76196268 1.98965218 2.02136156
v -1.76196268 1.95648605 1.96876447
v -1.76176456 1.95639370 1.96876447
v -1.41160743 1.95639370 2.02127627
v -1.76176456 1.98965218 2.02136156
v -1.76196268 2.00614713 2.02133054
v -1.76196268 1.99164166 1.94684580
v -1.74505585 1.99143180 1.94684580
v -1.74525399 1.95639370 1.96874896
v -1.39496472 1.95639370 2.02126840
v -1.39496472 1.98965218 2.02124514
v -1.64500151 2.02298623 2.02071755
v -1.76176456 2.02298623 2.02076407
v -1.76196268 2.02298623 2.02076407
v -1.08727291 2.00630663 2.02096590
v -1.76196268 1.99178437 1.94679922
v -1.72841312 1.99139821 1.94685355
v -1.76196268 2.00630663 1.94215173
v -1.74505585 1.95639370 1.96874896
v -1.08727291 1.95639370 2.02104343
v -1.08727291 1.97297259 2.02105118
v -1.08727291 1.98965218 2.02105894
v -1.64500151 2.03288319 2.01921232
v -1.08727291 2.02298623 2.02001152
v -1.76196268 2.03283282 2.01917355
v -1.31155311 2.00630663 1.94209740
v -1.31155311 1.99214533 1.94681479
v -1.76196268 2.00647450 1.94215173
v -1.49495302 1.95639370 1.96916019
v -1.08727291 1.95639370 1.97251972
v -1.64500151 2.03805411 2.00977766
v -1.76196268 2.03800374 2.00977766
v -1.08727291 2.03201017 2.01863046
v -1.17814733 2.02298623 1.94250862
v -1.22814148 2.00630663 1.94216724
v -1.76196268 2.02298623 1.94218274
v -1.76176456 2.02298623 1.94218274
v -1.26149292 1.99226284 1.94685355
v -1.27820166 1.95639370 1.96982745
v -1.08727291 1.99319462 1.94710959
v -1.26149292 1.95639370 1.96993606
v -1.66164418 2.04180640 1.99310391
v -1.76196268 2.04182319 1.99310391
v -1.08727291 2.03401641 2.01468119
v -1.08727291 2.03649275 2.00977766
v -1.08727291 2.04027022 1.99310391
v -1.16143860 2.02298623 1.94252413
v -1.76196268 2.02312052 1.94222932
v -1.67835293 2.03617377 1.94688457
v -1.11144443 2.02298623 1.94259397
v -1.12808714 2.00630663 1.94241552
v -1.21149877 1.99255665 1.94686906
v -1.19479003 1.99259861 1.94690013
v -1.12808714 1.99296798 1.94700099
v -1.08727291 2.00044735 1.94457245
v -1.66164418 2.04194071 1.97643023
v -1.76196268 2.04214217 1.97659311
v -1.08727291 2.04030380 1.97643023
v -1.12808714 2.03543508 1.94715617
v -1.76196268 2.03625771 1.94687681
v -1.76196268 2.03631648 1.94700099
v -1.76196268 2.04173924 1.95975648
v -1.11144443 2.03542667 1.94717943
v -1.08727291 2.03540149 1.94722595
v -1.08727291 2.02298623 1.94265606
v -1.08727291 2.01554043 1.94259397
v -1.11144443 2.00630663 1.94246204
v -1.08727291 2.00630663 1.94253964
v -1.76196268 2.04174764 1.95991942
v -1.76196268 2.04194911 1.96829897
v -1.76196268 2.04214217 1.97643023
v -1.08727291 2.04011912 1.96829897
v -1.08727291 2.03991765 1.95975648
v -1.08727291 2.03790302 1.95416236
f 1 2 6
f 1 6 12
f 1 12 22
f 1 22 32
f 1 32 42
f 1 42 44
f 1 44 33
f 1 33 23
f 1 23 13
f 1 13 7
f 1 7 3
f 1 3 8
f 1 8 4
f 1 4 9
f 1 9 17
f 1 17 28
f 1 28 35
f 1 35 46
f 1 46 60
f 1 60 74
f 1 74 73
f 1 73 72
f 1 72 65
f 1 65 64
f 1 64 63
f 1 63 51
f 1 51 39
f 1 39 31
f 1 31 21
f 1 21 19
f 1 19 10
f 1 10 5
f 1 5 2
f 2 5 6
f 3 7 8
f 4 8 9
f 5 10 6
f 6 10 11
f 6 11 12
f 7 13 14
f 7 14 8
f 8 14 9
f 9 15 16
f 9 16 17
f 9 14 18
f 9 18 15
f 10 19 11
f 11 20 12
f 11 19 21
f 11 21 20
f 12 20 22
f 13 23 24
f 13 24 25
f 13 25 14
f 14 25 18
f 15 26 16
f 15 18 27
f 15 27 26
f 16 26 17
f 17 26 28
f 18 25 24
f 18 24 23
f 18 23 33
f 18 33 43
f 18 43 58
f 18 58 71
f 18 71 69
f 18 69 68
f 18 68 67
f 18 67 77
f 18 77 76
f 18 76 75
f 18 75 61
f 18 61 49
f 18 49 48
f 18 48 47
f 18 47 36
f 18 36 27
f 20 21 29
f 20 29 30
f 20 30 22
f 21 31 29
f 22 30 32
f 26 34 35
f 26 35 28
f 26 27 36
f 26 36 34
f 29 37 38
f 29 38 30
f 29 31 39
f 29 39 40
f 29 40 37
f 30 38 41
f 30 41 32
f 32 41 42
f 33 44 43
f 34 45 46
f 34 46 35
f 34 36 47
f 34 47 48
f 34 48 49
f 34 49 45
f 37 50 38
f 37 40 51
f 37 51 52
f 37 52 50
f 38 50 53
f 38 53 54
f 38 54 55
f 38 55 41
f 39 51 40
f 41 55 56
f 41 56 42
f 42 56 57
f 42 57 43
f 42 43 44
f 43 57 58
f 45 59 60
f 45 60 46
f 45 49 59
f 49 61 59
f 50 52 62
f 50 62 53
f 51 63 52
f 52 63 64
f 52 64 65
f 52 65 66
f 52 66 62
f 53 66 67
f 53 67 68
f 53 68 69
f 53 69 54
f 53 62 66
f 54 56 55
f 54 69 70
f 54 70 56
f 56 70 71
f 56 71 57
f 57 71 58
f 59 72 73
f 59 73 74
f 59 74 60
f 59 61 75
f 59 75 76
f 59 76 72
f 65 72 76
f 65 76 77
f 65 77 67
f 65 67 66
f 69 71 70

