# https://github.com/mikedh/trimesh
v 1.14179512 -0.73409281 1.49550800
v 1.14179512 -0.73409281 1.60385682
v 1.14179512 -0.78664811 1.49550800
v 0.60473252 -0.73409280 1.49550800
v 1.05731675 -0.73409281 1.60393001
v 1.12402605 -0.75011729 1.62015792
v 1.14179512 -0.75015523 1.62015792
v 1.14179512 -0.79369636 1.53688307
v 1.04067705 -0.79569387 1.53688307
v 1.02403739 -0.79599097 1.53688307
v 1.00732241 -0.79627544 1.53688307
v 0.99068274 -0.79654092 1.53688307
v 0.94068840 -0.79719202 1.53688307
v 0.92404872 -0.79735638 1.53688307
v 1.13260940 -0.78670500 1.49550800
v 0.37260520 -0.73648857 1.49550800
v 0.37260520 -0.73409280 1.53128263
v 0.80734509 -0.73409281 1.60379578
v 0.80734509 -0.74990239 1.62015792
v 1.14179512 -0.78717907 1.62015792
v 1.14179512 -0.79443594 1.55355027
v 1.10731108 -0.79500487 1.55355027
v 1.09067139 -0.79521977 1.55355027
v 1.05731675 -0.79556745 1.55355027
v 1.04067705 -0.79573181 1.55355027
v 1.05731675 -0.79500487 1.57019304
v 0.72422196 -0.79836147 1.53688307
v 1.10731108 -0.78679349 1.49550800
v 0.72422196 -0.79442330 1.52022815
v 0.37260520 -0.78731815 1.49550800
v 0.37260520 -0.73409280 1.60316129
v 0.40754102 -0.75040807 1.62015792
v 1.12402605 -0.78722333 1.62015792
v 1.02403739 -0.79345615 1.58686018
v 1.04067705 -0.79341189 1.58686018
v 1.05731675 -0.79334236 1.58686018
v 1.07403172 -0.79323489 1.58686018
v 1.09067139 -0.79312111 1.58686018
v 1.10731108 -0.79300100 1.58686018
v 1.14179512 -0.79264701 1.58686018
v 1.14179512 -0.79377852 1.57019304
v 1.10731108 -0.79443594 1.57019304
v 1.09067139 -0.79468878 1.57019304
v 1.07403172 -0.79485314 1.57019304
v 1.04067705 -0.79508703 1.57019304
v 0.67422763 -0.79636392 1.57019304
v 0.70750701 -0.79841836 1.53688307
v 0.72422196 -0.78779858 1.49550800
v 0.65751268 -0.79853215 1.53688307
v 0.64087299 -0.79855742 1.53688307
v 0.67422763 -0.79448019 1.52022815
v 0.37260520 -0.79405034 1.52022815
v 0.37350869 -0.78732447 1.49550800
v 0.37260520 -0.75059138 1.62015792
v 0.39090129 -0.75044601 1.62015792
v 0.92404872 -0.78740664 1.62015792
v 0.64087299 -0.79401873 1.58686018
v 0.65751268 -0.79640818 1.57019304
v 1.14179512 -0.79371531 1.57129114
v 0.64087299 -0.79753969 1.55355027
v 0.55752402 -0.79459397 1.52022815
v 0.71616567 -0.78780490 1.49550800
v 0.49088996 -0.79867120 1.53688307
v 0.37260520 -0.79849420 1.53688307
v 0.49088996 -0.79448650 1.52022815
v 0.39948467 -0.78740663 1.49550800
v 0.37260520 -0.78664811 1.62015792
v 0.57416368 -0.78710953 1.62015792
v 0.54088435 -0.79405667 1.58686018
v 0.55752402 -0.79406929 1.58686018
v 0.64087299 -0.79642713 1.57019304
v 0.50752968 -0.79759658 1.55355027
v 0.69086732 -0.78781121 1.49550800
v 0.54088435 -0.79458765 1.52022815
v 0.37260520 -0.79747648 1.55355027
v 0.48283367 -0.78762789 1.49550800
v 0.37260520 -0.79375957 1.58686018
v 0.42418068 -0.78683142 1.62015792
v 0.55752402 -0.78708427 1.62015792
v 0.50752968 -0.79400608 1.58686018
v 0.37260520 -0.79630702 1.57019304
v 0.52416935 -0.79645875 1.57019304
v 0.53282800 -0.78769742 1.49550800
v 0.37260520 -0.79641449 1.56869224
v 0.44089569 -0.78688831 1.62015792
f 1 2 7
f 1 7 20
f 1 20 40
f 1 40 59
f 1 59 41
f 1 41 21
f 1 21 8
f 1 8 3
f 1 3 15
f 1 15 28
f 1 28 48
f 1 48 62
f 1 62 73
f 1 73 83
f 1 83 76
f 1 76 66
f 1 66 53
f 1 53 30
f 1 30 16
f 1 16 4
f 1 4 17
f 1 17 31
f 1 31 18
f 1 18 5
f 1 5 2
f 2 5 6
f 2 6 7
f 3 8 9
f 3 9 10
f 3 10 11
f 3 11 12
f 3 12 13
f 3 13 14
f 3 14 15
f 4 16 17
f 5 18 19
f 5 19 6
f 6 19 32
f 6 32 55
f 6 55 54
f 6 54 67
f 6 67 78
f 6 78 85
f 6 85 79
f 6 79 68
f 6 68 56
f 6 56 33
f 6 33 20
f 6 20 7
f 8 21 9
f 9 21 10
f 10 21 11
f 11 21 22
f 11 22 12
f 12 22 13
f 13 22 23
f 13 23 24
f 13 24 25
f 13 25 14
f 14 25 26
f 14 26 27
f 14 27 15
f 15 27 29
f 15 29 28
f 16 30 52
f 16 52 64
f 16 64 75
f 16 75 84
f 16 84 81
f 16 81 77
f 16 77 67
f 16 67 54
f 16 54 31
f 16 31 17
f 18 31 32
f 18 32 19
f 20 33 34
f 20 34 35
f 20 35 36
f 20 36 37
f 20 37 38
f 20 38 39
f 20 39 40
f 21 41 42
f 21 42 22
f 22 42 43
f 22 43 23
f 23 43 24
f 24 43 44
f 24 44 25
f 25 44 26
f 26 44 39
f 26 39 38
f 26 38 37
f 26 37 36
f 26 36 45
f 26 45 27
f 27 45 46
f 27 46 47
f 27 47 29
f 28 29 48
f 29 47 49
f 29 49 50
f 29 50 51
f 29 51 48
f 30 53 52
f 31 54 55
f 31 55 32
f 33 56 57
f 33 57 34
f 34 57 58
f 34 58 46
f 34 46 35
f 35 46 45
f 35 45 36
f 39 44 43
f 39 43 40
f 40 43 42
f 40 42 59
f 41 59 42
f 46 58 60
f 46 60 47
f 47 60 49
f 48 51 61
f 48 61 62
f 49 60 50
f 50 61 51
f 50 60 63
f 50 63 61
f 52 53 65
f 52 65 64
f 53 66 65
f 56 68 69
f 56 69 70
f 56 70 57
f 57 70 71
f 57 71 58
f 58 71 60
f 60 71 72
f 60 72 63
f 61 73 62
f 61 63 74
f 61 74 73
f 63 72 75
f 63 75 64
f 63 64 74
f 64 65 74
f 65 76 74
f 65 66 76
f 67 77 78
f 68 79 80
f 68 80 69
f 69 80 81
f 69 81 82
f 69 82 70
f 70 82 71
f 71 82 72
f 72 82 75
f 73 74 83
f 74 76 83
f 75 82 84
f 77 85 78
f 77 81 80
f 77 80 85
f 79 85 80
f 81 84 82

