# https://github.com/mikedh/trimesh
v -2.04676333 1.62275981 0.47157437
v -2.05789264 1.62275981 0.46928349
v -2.03562686 1.62275981 0.46943009
v -2.03571978 1.96564551 0.46898105
v -2.04675617 1.96564551 0.47081377
v -2.05143808 1.96564551 0.47032811
v -2.09681302 1.62275981 0.44226000
v -2.05771390 1.96564551 0.46898105
v -2.02886497 1.62275981 0.45881864
v -2.02882209 1.96564551 0.45881864
v -2.09726331 1.79819672 0.43973085
v -2.09681302 1.62275981 0.44126119
v -2.09726331 1.96564551 0.44056476
v -2.02471918 1.62275981 0.44214090
v -2.02446183 1.96564551 0.44214090
v -2.09726331 1.79819672 0.39290490
v -2.09681302 1.62279337 0.38260502
v -2.09677724 1.62275981 0.38259583
v -2.09726331 1.96564551 0.38580310
v -2.02446898 1.62275981 0.42546316
v -2.02426883 1.96564551 0.43278484
v -2.06341793 1.96564551 0.38083647
v -2.04675617 1.96564551 0.37887541
v -2.06342509 1.62275981 0.37938862
v -2.02441895 1.62275981 0.40880372
v -2.02424026 1.96564551 0.42546316
v -2.04676333 1.62275981 0.37795908
v -2.04160251 1.96564551 0.37957190
v -2.02777848 1.62275981 0.39213516
v -2.02435465 1.96564551 0.40880372
v -2.03476916 1.62275981 0.38098307
v -2.03481204 1.96564551 0.38119384
v -2.02786425 1.96564551 0.39212598
v -2.03190996 1.96564551 0.38569313
f 1 2 7
f 1 7 12
f 1 12 18
f 1 18 24
f 1 24 27
f 1 27 31
f 1 31 29
f 1 29 25
f 1 25 20
f 1 20 14
f 1 14 9
f 1 9 3
f 1 3 4
f 1 4 5
f 1 5 6
f 1 6 2
f 2 6 8
f 2 8 7
f 3 9 10
f 3 10 4
f 4 10 15
f 4 15 21
f 4 21 26
f 4 26 30
f 4 30 33
f 4 33 34
f 4 34 32
f 4 32 28
f 4 28 23
f 4 23 22
f 4 22 19
f 4 19 13
f 4 13 8
f 4 8 6
f 4 6 5
f 7 11 16
f 7 16 12
f 7 8 13
f 7 13 11
f 9 14 15
f 9 15 10
f 11 13 19
f 11 19 16
f 12 17 18
f 12 16 17
f 14 20 21
f 14 21 15
f 16 19 17
f 17 19 18
f 18 19 22
f 18 22 23
f 18 23 24
f 20 25 26
f 20 26 21
f 23 27 24
f 23 28 27
f 25 29 30
f 25 30 26
f 27 28 32
f 27 32 31
f 29 31 33
f 29 33 30
f 31 32 34
f 31 34 33

