# https://github.com/mikedh/trimesh
v 2.11813994 -0.13579502 0.07011124
v 2.12647173 -0.13701800 0.07020261
v 2.12642273 -0.13701800 0.07011124
v 2.11233226 -0.13579502 0.07011124
v 2.11698825 -0.13591101 0.20350833
v 2.13633095 -0.14535729 0.07020261
v 2.13633095 -0.14535729 0.07011124
v 2.12652889 -0.13707072 0.07011124
v 2.12531181 -0.13723940 0.20350833
v 2.13605319 -0.14556814 0.20350833
v 2.10400053 -0.13631162 0.07011124
v 2.10476014 -0.13624838 0.20350833
v 2.11309192 -0.13591101 0.20350833
v 2.14023544 -0.16092892 0.07011124
v 2.13962282 -0.16100274 0.20350833
v 2.09079228 -0.13747132 0.07011124
v 2.09079228 -0.13747132 0.08687887
v 2.09079228 -0.13770328 0.20350833
v 2.09079228 -0.13753460 0.12021834
v 2.09079228 -0.13756622 0.13685544
v 2.14025178 -0.16102381 0.07020261
v 2.14028444 -0.17757592 0.07011124
v 2.13950027 -0.17766026 0.20350833
v 2.14028444 -0.17768136 0.07020261
v 2.07412877 -0.14342799 0.07011124
v 2.07412877 -0.14272161 0.10354208
v 2.07412877 -0.14265837 0.12021834
v 2.07412877 -0.14264782 0.15351865
v 2.07412877 -0.14294301 0.20350833
v 2.07412877 -0.14267944 0.17018186
v 2.07412877 -0.14280595 0.18684507
v 2.14028444 -0.17768136 0.07011124
v 2.13804627 -0.19431777 0.20350833
v 2.13969626 -0.19432832 0.08687887
v 2.13992502 -0.19432832 0.07020261
v 2.06423689 -0.15059706 0.07011124
v 2.05683631 -0.15129286 0.10354208
v 2.05683631 -0.15008046 0.12021834
v 2.05683631 -0.14990123 0.15265676
v 2.05683631 -0.14990123 0.15354482
v 2.06337917 -0.14981689 0.20350833
v 2.05683631 -0.15036510 0.16834060
v 2.13992502 -0.19432832 0.07011124
v 2.13455841 -0.20499758 0.20350833
v 2.12965738 -0.24348914 0.17018186
v 2.12974721 -0.24348914 0.16934613
v 2.13130737 -0.24348914 0.15351865
v 2.13138092 -0.24348914 0.13685544
v 2.06162296 -0.16102381 0.07011124
v 2.05683631 -0.16089730 0.08384920
v 2.05683631 -0.15892580 0.08749269
v 2.06094501 -0.16102381 0.20350833
v 2.05683631 -0.15297971 0.18005443
v 2.05683631 -0.15912613 0.18932631
v 2.05683631 -0.16136118 0.19085417
v 2.13602874 -0.20656844 0.07011124
v 2.13132376 -0.24348914 0.12021834
v 2.11626942 -0.24347859 0.20350833
v 2.11653078 -0.24348914 0.20267255
v 2.06162296 -0.16111870 0.07011124
v 2.05683631 -0.17768136 0.08320934
v 2.06336284 -0.17652165 0.20350833
v 2.05683631 -0.24348914 0.18133421
v 2.13593886 -0.20667388 0.07011124
v 2.13115222 -0.24348914 0.11936950
v 2.12652889 -0.24348914 0.10354208
v 2.07726543 -0.24348914 0.20350833
v 2.06264400 -0.17768136 0.07011124
v 2.05683631 -0.19289452 0.08777998
v 2.07673447 -0.24348914 0.20350833
v 2.05683631 -0.24348914 0.12847162
v 2.12411107 -0.21256728 0.07011124
v 2.12613681 -0.24348914 0.10296749
v 2.11880162 -0.24348914 0.09400908
v 2.06525792 -0.18682189 0.07011124
v 2.05683631 -0.20380625 0.09400908
v 2.08278725 -0.24348914 0.09515826
v 2.12401302 -0.21258835 0.07011124
v 2.11815634 -0.24348914 0.09383932
v 2.07030594 -0.19508739 0.07011124
v 2.07867039 -0.20701125 0.07011124
v 2.09079228 -0.21301006 0.07011124
v 2.09010611 -0.24348914 0.09393069
v 2.10744756 -0.21460202 0.07011124
v 2.10743939 -0.24348914 0.09288600
f 1 2 3
f 1 3 8
f 1 8 7
f 1 7 14
f 1 14 22
f 1 22 32
f 1 32 43
f 1 43 56
f 1 56 64
f 1 64 72
f 1 72 78
f 1 78 84
f 1 84 82
f 1 82 81
f 1 81 80
f 1 80 75
f 1 75 68
f 1 68 60
f 1 60 49
f 1 49 36
f 1 36 25
f 1 25 16
f 1 16 11
f 1 11 4
f 1 4 13
f 1 13 5
f 1 5 2
f 2 6 7
f 2 7 8
f 2 8 3
f 2 5 9
f 2 9 10
f 2 10 6
f 4 11 12
f 4 12 13
f 5 13 12
f 5 12 18
f 5 18 29
f 5 29 41
f 5 41 52
f 5 52 62
f 5 62 70
f 5 70 67
f 5 67 58
f 5 58 44
f 5 44 33
f 5 33 23
f 5 23 15
f 5 15 10
f 5 10 9
f 6 14 7
f 6 10 14
f 10 15 14
f 11 16 17
f 11 17 12
f 12 17 19
f 12 19 20
f 12 20 18
f 14 15 21
f 14 21 22
f 15 23 24
f 15 24 21
f 16 25 26
f 16 26 27
f 16 27 28
f 16 28 17
f 17 28 19
f 18 20 30
f 18 30 31
f 18 31 29
f 19 28 30
f 19 30 20
f 21 24 22
f 22 24 32
f 23 33 34
f 23 34 35
f 23 35 24
f 24 35 43
f 24 43 32
f 25 36 37
f 25 37 38
f 25 38 26
f 26 38 39
f 26 39 27
f 27 39 28
f 28 39 40
f 28 40 30
f 29 31 40
f 29 40 42
f 29 42 41
f 30 40 31
f 33 44 45
f 33 45 46
f 33 46 47
f 33 47 34
f 34 47 35
f 35 47 48
f 35 48 43
f 36 49 50
f 36 50 51
f 36 51 37
f 37 51 50
f 37 50 61
f 37 61 69
f 37 69 76
f 37 76 71
f 37 71 63
f 37 63 55
f 37 55 54
f 37 54 53
f 37 53 42
f 37 42 40
f 37 40 39
f 37 39 38
f 41 42 53
f 41 53 54
f 41 54 55
f 41 55 52
f 43 48 57
f 43 57 56
f 44 58 45
f 45 58 59
f 45 59 67
f 45 67 70
f 45 70 63
f 45 63 71
f 45 71 77
f 45 77 83
f 45 83 85
f 45 85 79
f 45 79 74
f 45 74 73
f 45 73 66
f 45 66 65
f 45 65 57
f 45 57 48
f 45 48 47
f 45 47 46
f 49 60 61
f 49 61 50
f 52 55 63
f 52 63 62
f 56 57 65
f 56 65 66
f 56 66 64
f 58 67 59
f 60 68 61
f 61 68 69
f 62 63 70
f 64 66 73
f 64 73 74
f 64 74 72
f 68 75 69
f 69 75 76
f 71 76 77
f 72 74 79
f 72 79 78
f 75 80 76
f 76 80 77
f 77 80 81
f 77 81 82
f 77 82 83
f 78 79 84
f 79 85 84
f 82 84 83
f 83 84 85

