# https://github.com/mikedh/trimesh
v -0.03125665 -0.15882656 1.37904551
v -0.03125665 -0.14585359 1.37486478
v -0.03125665 -0.15964044 1.37903422
v -0.02083695 -0.15891480 1.39185895
v -0.03125665 -0.13646950 1.35820958
v -0.01620969 -0.14570652 1.39185895
v -0.00629413 -0.13615575 1.39185895
v -0.00613731 -0.13600864 1.39185895
v -0.00598043 -0.13588118 1.39185895
v 0.00219847 -0.12938979 1.39185895
v -0.03125665 -0.22015154 1.37542975
v -0.01088778 -0.22015154 1.39185895
v -0.03125665 -0.13611653 1.34154306
v 0.01800730 -0.12205511 1.39185895
v -0.03125665 -0.22015154 1.30509145
v 0.06200537 -0.22015154 1.39185895
v 0.01800730 -0.12127067 1.32488786
v 0.01800730 -0.12158444 1.27642507
v -0.03125665 -0.13612632 1.34070692
v 0.03466765 -0.12075095 1.39185895
v -0.03125665 -0.15960122 1.30321576
v -0.02004146 -0.16029741 1.27642507
v -0.01750932 -0.17544725 1.27642507
v -0.00889345 -0.22015154 1.27642507
v 0.06200537 -0.22015154 1.39154257
v 0.07992053 -0.17530998 1.30822137
v 0.07988692 -0.17506485 1.35820958
v 0.07981980 -0.17496677 1.39185895
v 0.03466765 -0.12012339 1.32488786
v 0.03466765 -0.11998612 1.27642507
v 0.03312150 -0.12012339 1.27642507
v 0.03466765 -0.12024106 1.34154306
v 0.01656200 -0.12229046 1.27642507
v -0.03125665 -0.13644012 1.32488786
v 0.05132801 -0.12226104 1.39185895
v -0.03125665 -0.15949337 1.30324965
v -0.01961570 -0.15901289 1.27642507
v -0.03125665 -0.14526526 1.30789369
v 0.06178132 -0.22015154 1.27642507
v 0.07983101 -0.17544725 1.29155485
v 0.07983101 -0.17524134 1.27642507
v 0.08281126 -0.16176829 1.27642507
v 0.08320335 -0.16037588 1.30822137
v 0.08318094 -0.16037588 1.32488786
v 0.08290079 -0.16037588 1.39185895
v 0.08313611 -0.16037588 1.34154306
v 0.08306888 -0.16037588 1.35820958
v 0.08299044 -0.16037588 1.37487607
v 0.05132801 -0.12209433 1.34154306
v 0.05132801 -0.12198647 1.29155485
v 0.05132801 -0.12196686 1.27642507
v 0.00244493 -0.12923291 1.27642507
v -0.03125665 -0.13655777 1.32427769
v 0.06719287 -0.12955650 1.39185895
v -0.01423777 -0.14460826 1.27642507
v -0.00683195 -0.13702846 1.27642507
v 0.08311370 -0.16037588 1.27642507
v 0.07959569 -0.14469651 1.32488786
v 0.07995415 -0.14605953 1.27642507
v 0.07962930 -0.14460826 1.27642507
v 0.07956207 -0.14464748 1.34154306
v 0.07951725 -0.14464748 1.35820958
v 0.07947242 -0.14517702 1.39185895
v 0.07946122 -0.14473576 1.37487607
v 0.06732728 -0.12971339 1.27642507
v 0.06719287 -0.12955650 1.39154257
v 0.06733848 -0.12963494 1.35820958
v 0.06732728 -0.12964475 1.34154306
v -0.00511771 -0.13554778 1.27642507
v -0.00587958 -0.13618516 1.27642507
v 0.07551738 -0.13655777 1.39185895
v 0.07551738 -0.13654798 1.39154257
v 0.07560703 -0.13640087 1.37487607
v 0.07567426 -0.13631263 1.35820958
v 0.07566306 -0.13627341 1.27642507
v 0.07940519 -0.14488283 1.39185895
v 0.07933795 -0.14473576 1.39185895
f 1 2 5
f 1 5 13
f 1 13 19
f 1 19 34
f 1 34 53
f 1 53 38
f 1 38 36
f 1 36 21
f 1 21 15
f 1 15 11
f 1 11 3
f 1 3 4
f 1 4 2
f 2 4 6
f 2 6 7
f 2 7 8
f 2 8 9
f 2 9 10
f 2 10 5
f 3 11 4
f 4 12 16
f 4 16 28
f 4 28 45
f 4 45 63
f 4 63 76
f 4 76 77
f 4 77 71
f 4 71 54
f 4 54 35
f 4 35 20
f 4 20 14
f 4 14 10
f 4 10 9
f 4 9 8
f 4 8 7
f 4 7 6
f 4 11 12
f 5 10 14
f 5 14 13
f 11 15 24
f 11 24 39
f 11 39 25
f 11 25 16
f 11 16 12
f 13 14 17
f 13 17 18
f 13 18 19
f 14 20 17
f 15 21 22
f 15 22 23
f 15 23 24
f 16 25 26
f 16 26 27
f 16 27 28
f 17 29 30
f 17 30 31
f 17 31 18
f 17 20 32
f 17 32 29
f 18 31 30
f 18 30 51
f 18 51 65
f 18 65 75
f 18 75 60
f 18 60 59
f 18 59 57
f 18 57 42
f 18 42 41
f 18 41 39
f 18 39 24
f 18 24 23
f 18 23 22
f 18 22 37
f 18 37 55
f 18 55 56
f 18 56 70
f 18 70 69
f 18 69 52
f 18 52 33
f 18 33 34
f 18 34 19
f 20 35 32
f 21 36 22
f 22 36 38
f 22 38 37
f 25 39 26
f 26 39 40
f 26 40 41
f 26 41 42
f 26 42 43
f 26 43 44
f 26 44 27
f 27 44 28
f 28 44 46
f 28 46 47
f 28 47 48
f 28 48 45
f 29 32 35
f 29 35 49
f 29 49 30
f 30 50 51
f 30 49 50
f 33 52 53
f 33 53 34
f 35 54 49
f 37 38 55
f 38 53 56
f 38 56 55
f 39 41 40
f 42 57 43
f 43 58 44
f 43 57 59
f 43 59 60
f 43 60 58
f 44 58 61
f 44 61 62
f 44 62 46
f 45 48 63
f 46 62 47
f 47 62 64
f 47 64 48
f 48 64 63
f 49 54 50
f 50 54 51
f 51 54 66
f 51 66 67
f 51 67 68
f 51 68 65
f 52 69 53
f 53 69 70
f 53 70 56
f 54 71 72
f 54 72 73
f 54 73 74
f 54 74 67
f 54 67 66
f 58 60 61
f 60 75 74
f 60 74 61
f 61 74 62
f 62 74 64
f 63 64 76
f 64 74 73
f 64 73 77
f 64 77 76
f 65 68 67
f 65 67 75
f 67 74 75
f 71 77 72
f 72 77 73

