# https://github.com/mikedh/trimesh
v -1.94523888 1.62930072 0.86935732
v -1.94523888 1.64658600 0.87109284
v -1.92856430 1.64658600 0.87124375
v -1.92806349 1.62930072 0.87022926
v -1.96079083 1.62930072 0.87590531
v -1.95143030 1.64658600 0.87389312
v -1.91726083 1.64658600 0.87486569
v -1.87891194 1.62930072 0.87847924
v -1.91845253 1.62930072 0.87169649
v -1.96301873 1.62930072 0.88137176
v -1.95967691 1.64658600 0.87764921
v -1.91113847 1.64658600 0.87733899
v -1.87891194 1.63314866 0.88080163
v -1.87891194 1.62930072 0.95225098
v -1.96688731 1.62930072 0.89243038
v -1.96567838 1.64658600 0.89243038
v -1.87891194 1.64658600 0.90182058
v -1.87891194 1.63336018 0.88106153
v -1.87891194 1.64658600 0.95211684
v -1.93869342 1.62930072 0.95500935
v -1.96712909 1.62930072 0.90823443
v -1.96695637 1.62930072 0.92577397
v -1.96560067 1.64658600 0.89959041
v -1.94523888 1.64658600 0.95181501
v -1.94523888 1.62930072 0.95497582
v -1.96317416 1.62930072 0.94213137
v -1.96528982 1.64658600 0.92577397
v -1.96541071 1.64658600 0.91625801
v -1.96549707 1.64658600 0.90910637
v -1.95446128 1.64658600 0.95127003
v -1.95600694 1.62930072 0.95280433
v -1.96070453 1.62930072 0.94588744
v -1.96026414 1.64658600 0.94244996
v -1.96313098 1.64658600 0.93294238
v -1.95777716 1.64658600 0.94623119
f 1 2 3
f 1 3 4
f 1 4 9
f 1 9 8
f 1 8 14
f 1 14 20
f 1 20 25
f 1 25 31
f 1 31 32
f 1 32 26
f 1 26 22
f 1 22 21
f 1 21 15
f 1 15 10
f 1 10 5
f 1 5 2
f 2 5 6
f 2 6 11
f 2 11 16
f 2 16 23
f 2 23 29
f 2 29 28
f 2 28 27
f 2 27 34
f 2 34 33
f 2 33 35
f 2 35 30
f 2 30 24
f 2 24 19
f 2 19 17
f 2 17 12
f 2 12 7
f 2 7 3
f 3 7 8
f 3 8 9
f 3 9 4
f 5 10 11
f 5 11 6
f 7 12 13
f 7 13 8
f 8 13 18
f 8 18 17
f 8 17 19
f 8 19 14
f 10 15 16
f 10 16 11
f 12 17 18
f 12 18 13
f 14 19 20
f 15 21 16
f 16 21 22
f 16 22 23
f 19 24 20
f 20 24 25
f 22 26 27
f 22 27 28
f 22 28 29
f 22 29 23
f 24 30 25
f 25 30 31
f 26 32 33
f 26 33 34
f 26 34 27
f 30 35 32
f 30 32 31
f 32 35 33

