# https://github.com/mikedh/trimesh
v -3.24759799 1.55216871 1.17594624
v -3.24759799 1.55222979 1.19260952
v -3.29756556 1.55220943 1.19260952
v -3.31406646 1.55220943 1.19260952
v -3.36418898 1.55220943 1.17594624
v -3.23094214 1.55307484 1.15925792
v -3.21420884 1.55307484 1.15925792
v -3.19747551 1.55308502 1.15925792
v -3.23094214 1.55217889 1.17594624
v -3.23094214 1.55252505 1.20928115
v -3.08072961 1.55237232 1.19260952
v -3.08072961 1.55260650 1.20928115
v -3.09746294 1.55259632 1.20928115
v -3.31406646 1.55249451 1.20928115
v -3.48093485 1.55260650 1.20928115
v -3.68103753 1.55247415 1.19260952
v -3.69792574 1.55248433 1.19240103
v -3.68103753 1.55241306 1.17594624
v -3.46420158 1.55226035 1.17594624
v -3.44746825 1.55225015 1.17594624
v -3.21420884 1.55921418 1.14718996
v -3.45382071 1.55261669 1.16965788
v -3.46420158 1.55324792 1.15925792
v -3.19747551 1.55921418 1.14718996
v -3.04741790 1.55926510 1.14709824
v -3.01402874 1.55934654 1.14697314
v -2.90650166 1.55941781 1.14704820
v -3.06407377 1.55323775 1.15925792
v -3.08072961 1.55266759 1.16965788
v -3.08072961 1.55234179 1.17594624
v -3.08072961 1.55861349 1.22273355
v -3.06407377 1.55242324 1.19260952
v -3.06407377 1.55264722 1.20928115
v -3.06407377 1.55863386 1.22275022
v -2.90650166 1.55885784 1.22284196
v -3.23094214 1.55860331 1.22270018
v -3.48093485 1.55862367 1.22268351
v -3.69792574 1.55872548 1.22265014
v -3.64772582 1.55274905 1.20928115
v -3.68103753 1.55278977 1.20928115
v -3.69792574 1.55282032 1.20928115
v -3.69792574 1.55243342 1.17594624
v -3.69792574 1.55244359 1.17572940
v -3.69792574 1.55952980 1.14728171
v -2.99737289 1.55938728 1.14693143
v -3.69792574 1.55285085 1.16965788
v -3.69792574 1.55356354 1.15925792
v -3.69792574 1.55360427 1.15909947
v -2.90650166 1.57272481 1.14310337
v -2.90650166 1.55371627 1.15925792
v -2.96398371 1.55943818 1.14692310
v -2.94732785 1.55944835 1.14693977
v -2.94732785 1.57272481 1.14299496
v -3.06407377 1.55270831 1.16965788
v -3.06407377 1.55239269 1.17594624
v -2.90650166 1.55304430 1.17594624
v -2.90650166 1.55308502 1.19260952
v -2.90650166 1.55319701 1.20928115
v -2.90650166 1.55572199 1.21533598
v -3.04741790 1.55868476 1.22278359
v -2.93067203 1.55884766 1.22286698
v -2.90650166 1.57273499 1.22814619
v -2.94732785 1.55884766 1.22286698
v -2.94732785 1.57273499 1.22817121
v -3.69792574 1.57256191 1.22763745
v -3.69792574 1.57272481 1.14388734
v -2.98071703 1.57272481 1.14297827
v -2.96398371 1.57272481 1.14296994
v -2.98071703 1.55941781 1.14692310
v -2.90650166 1.58194910 1.14325350
v -2.90650166 1.58940183 1.14339528
v -2.91401617 1.57273499 1.22815453
v -2.90650166 1.58940183 1.22814619
v -2.98071703 1.58940183 1.22814619
v -3.69792574 1.57273499 1.22767081
v -3.69792574 1.58940183 1.14432936
v -2.98071703 1.58940183 1.14336191
v -2.90650166 1.59862613 1.14382062
v -2.90650166 1.65618119 1.22772920
v -2.96398371 1.65618119 1.22776255
v -2.98071703 1.65618119 1.22776255
v -3.58094745 1.65618119 1.22751235
v -3.69792574 1.65618119 1.22743730
v -3.69792574 1.58924911 1.22766247
v -3.69792574 1.60606868 1.14482141
v -2.98071703 1.60606868 1.14413754
v -2.90650166 1.60606868 1.14417924
v -2.91401617 1.60606868 1.14417089
v -2.90650166 1.65618119 1.17889859
v -3.69792574 1.65618119 1.17927388
v -3.69792574 1.61982365 1.14800729
v -2.93067203 1.61996620 1.14775709
v -2.91401617 1.62001710 1.14776543
v -2.90650166 1.61378612 1.14616415
v -2.90650166 1.61991529 1.14776543
v -2.96398371 1.65618119 1.17879851
v -3.23094214 1.65618119 1.17875681
f 1 2 3
f 1 3 4
f 1 4 5
f 1 5 6
f 1 6 7
f 1 7 8
f 1 8 9
f 1 9 2
f 2 10 3
f 2 9 11
f 2 11 12
f 2 12 13
f 2 13 10
f 3 10 14
f 3 14 4
f 4 14 15
f 4 15 16
f 4 16 17
f 4 17 18
f 4 18 19
f 4 19 20
f 4 20 5
f 5 20 6
f 6 21 24
f 6 24 7
f 6 20 19
f 6 19 22
f 6 22 23
f 6 23 21
f 7 24 25
f 7 25 26
f 7 26 8
f 8 26 27
f 8 27 28
f 8 28 29
f 8 29 9
f 9 29 30
f 9 30 11
f 10 13 31
f 10 31 14
f 11 30 55
f 11 55 32
f 11 32 33
f 11 33 12
f 12 34 31
f 12 31 13
f 12 33 35
f 12 35 34
f 14 31 36
f 14 36 37
f 14 37 38
f 14 38 15
f 15 38 39
f 15 39 17
f 15 17 16
f 17 39 40
f 17 40 41
f 17 41 38
f 17 38 65
f 17 65 75
f 17 75 84
f 17 84 83
f 17 83 90
f 17 90 91
f 17 91 85
f 17 85 76
f 17 76 66
f 17 66 44
f 17 44 48
f 17 48 47
f 17 47 46
f 17 46 43
f 17 43 42
f 17 42 18
f 18 23 22
f 18 22 19
f 18 42 43
f 18 43 23
f 21 23 44
f 21 44 45
f 21 45 26
f 21 26 25
f 21 25 24
f 23 43 46
f 23 46 47
f 23 47 48
f 23 48 44
f 26 45 27
f 27 49 70
f 27 70 71
f 27 71 78
f 27 78 87
f 27 87 94
f 27 94 95
f 27 95 89
f 27 89 79
f 27 79 73
f 27 73 62
f 27 62 35
f 27 35 59
f 27 59 58
f 27 58 57
f 27 57 56
f 27 56 50
f 27 50 28
f 27 45 51
f 27 51 52
f 27 52 53
f 27 53 49
f 28 50 54
f 28 54 30
f 28 30 29
f 30 54 55
f 31 34 37
f 31 37 36
f 32 55 56
f 32 56 57
f 32 57 58
f 32 58 33
f 33 58 59
f 33 59 35
f 34 60 37
f 34 35 61
f 34 61 60
f 35 62 61
f 37 60 63
f 37 63 64
f 37 64 38
f 38 41 40
f 38 40 39
f 38 64 65
f 44 66 67
f 44 67 45
f 45 67 68
f 45 68 69
f 45 69 51
f 49 53 70
f 50 56 55
f 50 55 54
f 51 69 68
f 51 68 52
f 52 68 53
f 53 71 70
f 53 68 71
f 60 61 63
f 61 62 72
f 61 72 64
f 61 64 63
f 62 73 72
f 64 72 73
f 64 73 74
f 64 74 75
f 64 75 65
f 66 76 77
f 66 77 67
f 67 77 68
f 68 77 71
f 71 77 78
f 73 79 80
f 73 80 81
f 73 81 74
f 74 81 82
f 74 82 83
f 74 83 84
f 74 84 75
f 76 85 77
f 77 86 78
f 77 85 86
f 78 86 88
f 78 88 87
f 79 89 96
f 79 96 97
f 79 97 90
f 79 90 83
f 79 83 82
f 79 82 81
f 79 81 80
f 85 91 86
f 86 92 93
f 86 93 88
f 86 91 92
f 87 88 94
f 88 93 94
f 89 95 93
f 89 93 96
f 90 97 91
f 91 97 93
f 91 93 92
f 93 95 94
f 93 97 96

