# https://github.com/mikedh/trimesh
v 0.20707678 -0.15374387 1.17052515
v 0.20707678 -0.15379717 1.18727892
v 0.27601797 -0.15468502 1.15354963
v 0.20707678 -0.15378829 1.15354963
v 0.27601797 -0.15508455 1.18686865
v 0.27601797 -0.15477380 1.17021469
v 0.20707678 -0.15432989 1.20407703
v 0.27601797 -0.15552849 1.15184211
v 0.20707678 -0.16041170 1.13240507
v 0.27601797 -0.15678037 1.20162660
v 0.27601797 -0.15700234 1.20353371
v 0.20707678 -0.15994114 1.22060903
v 0.27601797 -0.16203650 1.13869189
v 0.20707678 -0.16747908 1.12406700
v 0.20707678 -0.16019861 1.22131864
v 0.27601797 -0.16404305 1.21546426
v 0.27601797 -0.16382995 1.13797118
v 0.20707678 -0.17768055 1.12036366
v 0.27601797 -0.17768055 1.13243834
v 0.20707678 -0.17768055 1.23363726
v 0.27601797 -0.17611794 1.21897911
v 0.20707678 -0.17794693 1.12038583
v 0.27601797 -0.17958947 1.13248269
v 0.27601797 -0.19434567 1.13285968
v 0.20707678 -0.24443868 1.22369145
v 0.27601797 -0.24443868 1.22034292
v 0.27601797 -0.24242323 1.22034292
v 0.27601797 -0.22766701 1.22029856
v 0.27601797 -0.22575812 1.22028747
v 0.27601797 -0.21100190 1.22016551
v 0.27601797 -0.19434567 1.21994375
v 0.27601797 -0.17768055 1.21943370
v 0.20707678 -0.19479849 1.12339065
v 0.27601797 -0.19625457 1.13332537
v 0.20707678 -0.24443868 1.15729733
v 0.27601797 -0.24443868 1.16398331
v 0.20707678 -0.20275368 1.12553060
v 0.27601797 -0.21100190 1.13697328
v 0.20707678 -0.22287257 1.13774943
v 0.27601797 -0.22057302 1.14308269
v 0.20707678 -0.21100190 1.12887913
f 1 2 3
f 1 3 4
f 1 4 9
f 1 9 14
f 1 14 18
f 1 18 22
f 1 22 33
f 1 33 37
f 1 37 41
f 1 41 39
f 1 39 35
f 1 35 25
f 1 25 20
f 1 20 15
f 1 15 12
f 1 12 7
f 1 7 2
f 2 5 6
f 2 6 3
f 2 7 5
f 3 8 9
f 3 9 4
f 3 6 5
f 3 5 10
f 3 10 11
f 3 11 16
f 3 16 21
f 3 21 32
f 3 32 31
f 3 31 30
f 3 30 29
f 3 29 28
f 3 28 27
f 3 27 26
f 3 26 36
f 3 36 40
f 3 40 38
f 3 38 34
f 3 34 24
f 3 24 23
f 3 23 19
f 3 19 17
f 3 17 13
f 3 13 8
f 5 7 10
f 7 11 10
f 7 12 11
f 8 13 9
f 9 13 14
f 11 12 15
f 11 15 16
f 13 17 14
f 14 17 19
f 14 19 18
f 15 20 16
f 16 20 21
f 18 19 23
f 18 23 24
f 18 24 22
f 20 25 26
f 20 26 27
f 20 27 28
f 20 28 29
f 20 29 30
f 20 30 31
f 20 31 32
f 20 32 21
f 22 24 33
f 24 34 33
f 25 35 36
f 25 36 26
f 33 34 38
f 33 38 37
f 35 39 36
f 36 39 40
f 37 38 41
f 38 40 41
f 39 41 40

