# https://github.com/mikedh/trimesh
v -3.99315066 -0.17766735 0.02019929
v -3.99293406 -0.16101165 0.02019929
v -3.99277718 -0.16101165 0.00353305
v -3.99288172 -0.17766735 0.00353305
v -3.99266512 -0.19433735 0.02019929
v -3.99291915 -0.17766735 0.05352386
v -3.99278469 -0.16101165 0.07014987
v -3.99285192 -0.16101165 0.05352386
v -3.99200791 -0.15097397 0.07014987
v -3.99201530 -0.15095969 0.05352386
v -3.99200040 -0.15095257 0.02019929
v -3.99196309 -0.15117388 0.00353305
v -3.99166435 -0.15189493 -0.00531545
v -3.99188095 -0.16101165 -0.00562135
v -3.99188834 -0.17766735 -0.00562945
v -3.99166435 -0.19068209 -0.00533155
v -3.99211246 -0.19547962 0.00247827
v -3.99167925 -0.20321133 0.03685755
v -3.99161952 -0.20313995 0.05352386
v -3.99243361 -0.19433735 0.05352386
v -3.99160450 -0.20310425 0.00732524
v -3.99172407 -0.20326846 0.02019929
v -3.99277718 -0.17766735 0.07014987
v -3.98294042 -0.14376342 0.07014987
v -3.98294042 -0.14374199 0.05352386
v -3.98294042 -0.14371344 0.02019929
v -3.98294042 -0.14456299 0.00353305
v -3.98294042 -0.14910350 -0.00703840
v -3.98294042 -0.16101165 -0.00932497
v -3.98294042 -0.17766735 -0.00934917
v -3.99105930 -0.20179779 -0.00378563
v -3.98447901 -0.19547962 -0.00778716
v -3.98294042 -0.20727354 0.05352386
v -3.98445666 -0.20636685 0.07014987
v -3.98506910 -0.20607413 0.07014987
v -3.98641355 -0.20540307 0.07014987
v -3.99147015 -0.20294004 0.06667168
v -3.99184352 -0.19769988 0.07014987
v -3.99200791 -0.19568666 0.07014987
v -3.98294042 -0.20700937 0.02019929
v -3.98447901 -0.20552442 0.00247827
v -3.98294042 -0.20719501 0.03685755
v -3.96626935 -0.13837332 0.07014987
v -3.96626935 -0.13840903 0.02019929
v -3.96626935 -0.13838048 0.05352386
v -3.96626935 -0.13839475 0.03685755
v -3.96626935 -0.13966550 0.00353305
v -3.96626935 -0.14679040 -0.00844735
v -3.96626935 -0.16101165 -0.01207849
v -3.96626935 -0.17766735 -0.01210269
v -3.96626935 -0.19433735 -0.01135393
v -3.97994527 -0.20461062 -0.00674860
v -3.96626935 -0.21130716 0.07014987
v -3.99138790 -0.20274730 0.07014987
v -3.96626935 -0.20912258 0.00353305
v -3.96626935 -0.20999356 0.02019929
v -3.96626935 -0.21052899 0.03685755
v -3.94961329 -0.13865889 0.07014987
v -3.94961329 -0.13868032 0.05352386
v -3.94961329 -0.13874458 0.03685755
v -3.94961329 -0.13884450 0.02019929
v -3.94961329 -0.14020097 0.00353305
v -3.94961329 -0.14709025 -0.00836688
v -3.94961329 -0.16101165 -0.01189336
v -3.94961329 -0.17766735 -0.01182088
v -3.94961329 -0.19433735 -0.01091917
v -3.94961329 -0.20546732 -0.00742488
v -3.96626935 -0.20561723 -0.00768249
v -3.94961329 -0.21108585 0.07014987
v -3.94961329 -0.21070748 0.05352386
v -3.94961329 -0.20887271 0.00353305
v -3.94961329 -0.20973654 0.02019929
v -3.94961329 -0.21026485 0.03685755
v -3.93294222 -0.14109334 0.07014987
v -3.93294222 -0.14159310 0.02019929
v -3.93294222 -0.14122185 0.05352386
v -3.93294222 -0.14137891 0.03685755
v -3.93294222 -0.14308520 0.00353305
v -3.93294222 -0.14855379 -0.00779527
v -3.93294222 -0.16101165 -0.01106401
v -3.93294222 -0.17766735 -0.01085468
v -3.93282271 -0.19431592 -0.00798851
v -3.93829762 -0.20440358 -0.00641040
v -3.93533983 -0.20661672 0.05352386
v -3.93519046 -0.20675950 0.07014987
v -3.93572822 -0.20614554 0.02019929
v -3.93630335 -0.20566009 0.00353305
v -3.92102900 -0.14803263 0.07014987
v -3.92126802 -0.14840388 0.02019929
v -3.92173860 -0.14916063 0.00353305
v -3.92108133 -0.14813971 0.05352386
v -3.92118588 -0.14825395 0.03685755
v -3.92298596 -0.15075981 -0.00642649
v -3.92182074 -0.16101165 -0.00754564
v -3.92191783 -0.17766735 -0.00740879
v -3.92312037 -0.18875449 -0.00624136
v -3.92796781 -0.19909202 0.00353305
v -3.92720600 -0.19994160 0.03685755
v -3.92739268 -0.19979166 0.02019929
v -3.92687734 -0.19989874 0.07014987
v -3.92700430 -0.20002013 0.05352386
v -3.91684633 -0.16096882 0.07014987
v -3.91750360 -0.16101165 0.02019929
v -3.91705549 -0.16101165 0.05352386
v -3.91831029 -0.16101165 0.00353305
v -3.91843725 -0.17766735 0.00353305
v -3.92186556 -0.19075347 0.00353305
v -3.92125312 -0.19145312 0.02019929
v -3.92108879 -0.19161018 0.03685755
v -3.92130539 -0.19152449 0.07014987
v -3.92108879 -0.19168870 0.05352386
v -3.91712266 -0.17761740 0.07014987
v -3.91705549 -0.17766735 0.05352386
v -3.91719741 -0.17766735 0.03685755
v -3.91748870 -0.17766735 0.02019929
f 1 2 3
f 1 3 4
f 1 4 5
f 1 5 20
f 1 20 6
f 1 6 7
f 1 7 8
f 1 8 2
f 2 8 9
f 2 9 10
f 2 10 11
f 2 11 12
f 2 12 3
f 3 12 13
f 3 13 14
f 3 14 4
f 4 14 15
f 4 15 16
f 4 16 17
f 4 17 5
f 5 18 19
f 5 19 20
f 5 17 21
f 5 21 22
f 5 22 18
f 6 20 23
f 6 23 7
f 7 23 39
f 7 39 38
f 7 38 54
f 7 54 36
f 7 36 35
f 7 35 34
f 7 34 53
f 7 53 69
f 7 69 85
f 7 85 100
f 7 100 110
f 7 110 112
f 7 112 102
f 7 102 88
f 7 88 74
f 7 74 58
f 7 58 43
f 7 43 24
f 7 24 9
f 7 9 8
f 9 24 25
f 9 25 10
f 10 25 26
f 10 26 11
f 11 26 12
f 12 27 13
f 12 26 27
f 13 28 29
f 13 29 14
f 13 27 28
f 14 29 30
f 14 30 15
f 15 30 16
f 16 31 17
f 16 30 32
f 16 32 31
f 17 31 21
f 18 33 19
f 18 22 33
f 19 33 34
f 19 34 35
f 19 35 36
f 19 36 37
f 19 37 20
f 20 37 38
f 20 38 39
f 20 39 23
f 21 40 22
f 21 31 41
f 21 41 40
f 22 40 42
f 22 42 33
f 24 43 25
f 25 43 26
f 26 44 27
f 26 43 45
f 26 45 46
f 26 46 44
f 27 47 28
f 27 44 47
f 28 47 48
f 28 48 49
f 28 49 29
f 29 49 50
f 29 50 30
f 30 50 51
f 30 51 32
f 31 32 52
f 31 52 41
f 32 51 52
f 33 53 34
f 33 42 53
f 36 54 37
f 37 54 38
f 40 41 55
f 40 55 56
f 40 56 57
f 40 57 53
f 40 53 42
f 41 52 55
f 43 58 45
f 44 46 58
f 44 58 59
f 44 59 60
f 44 60 61
f 44 61 47
f 45 58 46
f 47 62 63
f 47 63 48
f 47 61 62
f 48 63 49
f 49 64 50
f 49 63 64
f 50 64 65
f 50 65 51
f 51 65 66
f 51 66 67
f 51 67 68
f 51 68 52
f 52 68 55
f 53 57 70
f 53 70 69
f 55 71 56
f 55 68 67
f 55 67 71
f 56 71 72
f 56 72 57
f 57 73 70
f 57 72 73
f 58 74 59
f 59 74 60
f 60 74 61
f 61 75 62
f 61 74 76
f 61 76 77
f 61 77 75
f 62 78 79
f 62 79 63
f 62 75 78
f 63 79 80
f 63 80 64
f 64 80 65
f 65 80 81
f 65 81 66
f 66 81 82
f 66 82 83
f 66 83 67
f 67 83 71
f 69 84 85
f 69 70 86
f 69 86 84
f 70 73 86
f 71 83 87
f 71 87 72
f 72 87 86
f 72 86 73
f 74 88 76
f 75 77 89
f 75 89 90
f 75 90 78
f 76 88 91
f 76 91 77
f 77 91 92
f 77 92 89
f 78 90 93
f 78 93 79
f 79 93 80
f 80 94 95
f 80 95 81
f 80 93 94
f 81 95 96
f 81 96 82
f 82 96 83
f 83 96 97
f 83 97 87
f 84 98 85
f 84 86 99
f 84 99 98
f 85 98 101
f 85 101 100
f 86 87 99
f 87 97 99
f 88 102 91
f 89 103 90
f 89 92 91
f 89 91 102
f 89 102 104
f 89 104 103
f 90 105 93
f 90 103 105
f 93 105 94
f 94 105 106
f 94 106 95
f 95 106 96
f 96 106 107
f 96 107 97
f 97 107 108
f 97 108 99
f 98 109 101
f 98 99 108
f 98 108 109
f 100 101 111
f 100 111 110
f 101 109 111
f 102 112 113
f 102 113 114
f 102 114 104
f 103 115 105
f 103 104 114
f 103 114 115
f 105 115 106
f 106 115 107
f 107 115 108
f 108 115 114
f 108 114 109
f 109 114 113
f 109 113 111
f 110 111 112
f 111 113 112

