# https://github.com/mikedh/trimesh
v -0.58175282 -0.47694201 2.00436021
v -0.58175282 -0.17705996 2.00561168
v -0.58175282 -0.47694201 1.93165499
v -0.15591723 -0.47694201 2.00547101
v -0.58175282 -0.16038512 2.00565614
v -0.58175282 -0.16061674 1.93023317
v -0.56532964 -0.16038512 1.93016647
v -0.54865635 -0.16038512 1.93013690
v -0.15591723 -0.46036645 1.93126988
v -0.15591723 -0.47694201 1.93135136
v -0.15591723 -0.17705996 2.00578203
v -0.56532964 -0.16038512 2.00567093
v -0.58175282 -0.16018663 2.00561168
v -0.58175282 -0.16038512 1.93023317
v -0.58175282 -0.14926858 1.93165499
v -0.58175282 -0.14910318 1.93167716
v -0.56532964 -0.14913626 1.93166238
v -0.51530981 -0.14907010 1.93166977
v -0.18201093 -0.14930166 1.93171418
v -0.15591723 -0.14930166 1.93172902
v -0.15591723 -0.15555472 1.93098109
v -0.15591723 -0.16038512 1.93040346
v -0.15591723 -0.44369163 1.93121063
v -0.15591723 -0.16038512 2.00575986
v -0.58175282 -0.14804444 2.00273847
v -0.58175282 -0.14251925 1.94155588
v -0.56532964 -0.14251925 1.94155588
v -0.51530981 -0.14255233 1.94155588
v -0.19868416 -0.14926858 1.93172163
v -0.15591723 -0.14288320 1.94155588
v -0.15591723 -0.14787901 2.00279033
v -0.58175282 -0.14794517 2.00257551
v -0.58175282 -0.13897918 1.95822517
v -0.56532964 -0.13894607 1.95822517
v -0.41531178 -0.13907843 1.95822517
v -0.15591723 -0.13930999 1.95822517
v -0.15591723 -0.14437202 1.99642915
v -0.58175282 -0.14169211 1.99154904
v -0.58175282 -0.13921075 1.97487974
v -0.56532964 -0.13921075 1.97487974
v -0.33202873 -0.13937617 1.97487974
v -0.15591723 -0.13957470 1.97487974
v -0.15591723 -0.14169211 1.99154904
f 1 2 5
f 1 5 13
f 1 13 25
f 1 25 32
f 1 32 38
f 1 38 39
f 1 39 33
f 1 33 26
f 1 26 16
f 1 16 15
f 1 15 14
f 1 14 6
f 1 6 3
f 1 3 10
f 1 10 4
f 1 4 2
f 2 4 5
f 3 6 7
f 3 7 8
f 3 8 9
f 3 9 10
f 4 10 9
f 4 9 23
f 4 23 22
f 4 22 21
f 4 21 20
f 4 20 30
f 4 30 36
f 4 36 42
f 4 42 43
f 4 43 37
f 4 37 31
f 4 31 24
f 4 24 11
f 4 11 12
f 4 12 5
f 5 12 13
f 6 14 7
f 7 14 15
f 7 15 8
f 8 15 16
f 8 16 17
f 8 17 18
f 8 18 19
f 8 19 20
f 8 20 21
f 8 21 22
f 8 22 23
f 8 23 9
f 11 24 12
f 12 25 13
f 12 24 25
f 16 26 18
f 16 18 17
f 18 26 27
f 18 27 28
f 18 28 29
f 18 29 19
f 19 29 20
f 20 29 28
f 20 28 30
f 24 31 25
f 25 31 32
f 26 33 34
f 26 34 27
f 27 34 28
f 28 34 35
f 28 35 36
f 28 36 30
f 31 37 38
f 31 38 32
f 33 39 34
f 34 39 40
f 34 40 41
f 34 41 35
f 35 41 36
f 36 41 42
f 37 43 38
f 38 43 40
f 38 40 39
f 40 43 41
f 41 43 42

