# https://github.com/mikedh/trimesh
v 0.20707684 -0.67766803 1.22693009
v 0.20707684 -0.66510433 1.22686192
v 0.20707684 -0.69432859 1.22640521
v 0.22364425 -0.70948700 1.22147001
v 0.22364425 -0.69432859 1.22157907
v 0.22364425 -0.67766803 1.22163361
v 0.22364425 -0.66100746 1.22160634
v 0.22364426 -0.24444756 1.22036572
v 0.20707684 -0.24444756 1.22368540
v 0.20707684 -0.70948700 1.22528047
v 0.20794611 -0.70948700 1.22508279
v 0.22364425 -0.70948700 1.16560816
v 0.22364426 -0.24444756 1.16402672
v 0.20707684 -0.24444756 1.15729876
v 0.20707684 -0.70948700 1.15835532
v 0.20707684 -0.69874411 1.15792588
v 0.20707684 -0.68176490 1.15757824
v 0.20707684 -0.67766803 1.15754416
v 0.22364425 -0.54433791 1.16500831
f 1 2 9
f 1 9 14
f 1 14 18
f 1 18 17
f 1 17 16
f 1 16 15
f 1 15 10
f 1 10 3
f 1 3 4
f 1 4 5
f 1 5 6
f 1 6 7
f 1 7 8
f 1 8 2
f 2 8 9
f 3 10 11
f 3 11 4
f 4 11 10
f 4 10 15
f 4 15 12
f 4 12 19
f 4 19 13
f 4 13 8
f 4 8 7
f 4 7 6
f 4 6 5
f 8 13 14
f 8 14 9
f 12 15 16
f 12 16 17
f 12 17 18
f 12 18 19
f 13 19 18
f 13 18 14

