# https://github.com/mikedh/trimesh
v 1.14178564 -0.73727799 1.25343658
v 1.14178564 -0.73751519 1.43900729
v 1.14178564 -0.78768175 1.25343658
v 1.14093811 -0.73727296 1.25343658
v 1.14178564 -0.78668256 1.43900729
v 1.12424147 -0.73720736 1.25343658
v 0.70538450 -0.73659674 1.43900729
v 1.14178564 -0.78768175 1.25354557
v 1.14076860 -0.78769689 1.25343658
v 1.14178564 -0.78702574 1.38687456
v 1.14076860 -0.78669266 1.43900729
v 0.64080152 -0.73620814 1.25343658
v 0.69080670 -0.73657149 1.43900729
v 1.14178564 -0.78764140 1.27022078
v 1.14076860 -0.78769689 1.25354557
v 1.12407195 -0.78775745 1.25343658
v 1.14178564 -0.78712665 1.37128923
v 1.14076860 -0.78703581 1.38687456
v 1.12619082 -0.78672798 1.43900729
v 0.40747222 -0.73658159 1.25343658
v 0.54079113 -0.73649075 1.43900729
v 1.14178564 -0.78759598 1.28687782
v 1.14076860 -0.78765654 1.27022078
v 1.12407195 -0.78775745 1.25354557
v 1.12398719 -0.78775745 1.25343658
v 1.14178564 -0.78742944 1.32021005
v 1.14076860 -0.78714179 1.37019935
v 1.14076860 -0.78734364 1.33688527
v 1.12407195 -0.78673302 1.43900729
v 1.12407195 -0.78706609 1.38687456
v 1.12407195 -0.78738402 1.33688527
v 0.27610272 -0.73703575 1.25343658
v 0.52417930 -0.73653617 1.43900729
v 0.53867229 -0.73649579 1.43900729
v 1.14178564 -0.78759091 1.28796770
v 1.14076860 -0.78761112 1.28687782
v 1.12407195 -0.78771710 1.27022078
v 0.47417406 -0.78728814 1.37019935
v 0.47417406 -0.78732346 1.35352416
v 0.47417406 -0.78736887 1.32021005
v 0.47417406 -0.78738906 1.30355301
v 0.47417406 -0.78736381 1.28687782
v 0.47417406 -0.78726290 1.27022078
v 0.47400454 -0.78706608 1.25343658
v 1.14178564 -0.78751018 1.30464292
v 1.14076860 -0.78743952 1.32021005
v 1.14076860 -0.78753035 1.30355301
v 0.75742380 -0.78712665 1.43900729
v 1.12407195 -0.78747486 1.32021005
v 0.74284600 -0.78714179 1.43900729
v 0.27610272 -0.78681377 1.25343658
v 0.27610272 -0.73767665 1.43900729
v 1.12407195 -0.78764140 1.28687782
v 0.72403051 -0.78715693 1.43900729
v 0.70750335 -0.78715693 1.43900729
v 0.57418442 -0.78710140 1.43686386
v 0.55748784 -0.78708122 1.43900729
v 0.34085516 -0.78690461 1.43686386
v 0.27610272 -0.78683899 1.43711817
v 0.45747748 -0.78726793 1.37019935
v 0.29085005 -0.78702066 1.37019935
v 0.29085005 -0.78705095 1.35352416
v 0.27610272 -0.78704591 1.33879257
v 0.27610272 -0.78706104 1.32213553
v 0.27610272 -0.78706608 1.30546032
v 0.27610272 -0.78706608 1.30355301
v 0.27610272 -0.78705599 1.28880328
v 0.27610272 -0.78705095 1.28687782
v 0.27610272 -0.78698535 1.27212806
v 0.27610272 -0.78697525 1.27022078
v 0.27610272 -0.78682891 1.43900729
v 0.59079637 -0.78710140 1.43900729
v 0.35746711 -0.78690965 1.43900729
v 0.34085516 -0.78689451 1.43900729
v 0.27610272 -0.78688947 1.42020682
v 0.32415857 -0.78700049 1.40353160
v 0.32415857 -0.78703580 1.38687456
v 0.30746187 -0.78701059 1.38687456
v 0.30746187 -0.78697525 1.40353160
v 0.27610272 -0.78696010 1.38687456
v 0.27610272 -0.78699545 1.37019935
v 0.27610272 -0.78702574 1.35352416
f 1 2 5
f 1 5 10
f 1 10 17
f 1 17 26
f 1 26 45
f 1 45 35
f 1 35 22
f 1 22 14
f 1 14 8
f 1 8 3
f 1 3 9
f 1 9 16
f 1 16 25
f 1 25 44
f 1 44 51
f 1 51 32
f 1 32 20
f 1 20 12
f 1 12 6
f 1 6 4
f 1 4 2
f 2 4 6
f 2 6 7
f 2 7 13
f 2 13 21
f 2 21 34
f 2 34 33
f 2 33 52
f 2 52 71
f 2 71 74
f 2 74 73
f 2 73 57
f 2 57 72
f 2 72 55
f 2 55 54
f 2 54 50
f 2 50 48
f 2 48 29
f 2 29 19
f 2 19 11
f 2 11 5
f 3 8 15
f 3 15 9
f 5 11 18
f 5 18 10
f 6 12 7
f 7 12 13
f 8 14 23
f 8 23 15
f 9 15 24
f 9 24 16
f 10 18 17
f 11 19 18
f 12 20 21
f 12 21 13
f 14 22 36
f 14 36 23
f 15 23 37
f 15 37 24
f 16 24 25
f 17 18 27
f 17 27 28
f 17 28 26
f 18 19 29
f 18 29 30
f 18 30 31
f 18 31 27
f 20 32 33
f 20 33 34
f 20 34 21
f 22 35 36
f 23 36 37
f 24 37 38
f 24 38 39
f 24 39 40
f 24 40 41
f 24 41 25
f 25 41 42
f 25 42 43
f 25 43 44
f 26 28 46
f 26 46 47
f 26 47 45
f 27 31 28
f 28 31 46
f 29 48 30
f 30 48 31
f 31 49 47
f 31 47 46
f 31 48 50
f 31 50 49
f 32 51 70
f 32 70 69
f 32 69 68
f 32 68 67
f 32 67 66
f 32 66 65
f 32 65 64
f 32 64 63
f 32 63 82
f 32 82 81
f 32 81 80
f 32 80 75
f 32 75 59
f 32 59 71
f 32 71 52
f 32 52 33
f 35 45 47
f 35 47 36
f 36 47 53
f 36 53 37
f 37 53 54
f 37 54 55
f 37 55 38
f 38 55 56
f 38 56 57
f 38 57 58
f 38 58 59
f 38 59 60
f 38 60 39
f 39 60 61
f 39 61 62
f 39 62 40
f 40 62 41
f 41 62 63
f 41 63 64
f 41 64 65
f 41 65 66
f 41 66 67
f 41 67 42
f 42 67 68
f 42 68 69
f 42 69 70
f 42 70 43
f 43 70 51
f 43 51 44
f 47 49 53
f 49 50 54
f 49 54 53
f 55 72 56
f 56 72 57
f 57 73 58
f 58 73 74
f 58 74 59
f 59 74 71
f 59 75 76
f 59 76 60
f 60 76 77
f 60 77 61
f 61 77 78
f 61 78 79
f 61 79 75
f 61 75 80
f 61 80 81
f 61 81 82
f 61 82 62
f 62 82 63
f 75 79 76
f 76 79 78
f 76 78 77

