# https://github.com/mikedh/trimesh
v -2.98189662 -0.72357923 1.13439609
v -3.04492207 -0.72357220 1.15816435
v -2.98189662 -0.72357923 1.22566622
v -2.98189662 -0.78883233 1.13439609
v -3.51563854 -0.72357923 1.13439609
v -3.28290412 -0.72357220 1.15793944
v -3.04492207 -0.72357220 1.18691116
v -2.98297860 -0.72357923 1.22566622
v -3.49957109 -0.73350706 1.23883332
v -2.99964112 -0.73367616 1.23883332
v -2.98952458 -0.73370435 1.23883332
v -2.98189662 -0.73373255 1.23883332
v -3.04952051 -0.72357220 1.22552309
v -2.98189662 -0.79341223 1.15354359
v -2.99964112 -0.79366588 1.15354359
v -3.01630364 -0.79382089 1.15354359
v -2.99964112 -0.78898733 1.13439609
v -3.53451912 -0.73436669 1.13439609
v -3.53451912 -0.72357923 1.16045428
v -3.42015358 -0.72357220 1.15960578
v -3.34955424 -0.72357220 1.15820523
v -3.33283759 -0.72357220 1.15804168
v -2.99964112 -0.72357923 1.22565600
v -3.04962870 -0.72357220 1.22552309
v -3.53284201 -0.72357923 1.22460303
v -3.51623364 -0.73353525 1.23883332
v -2.98189662 -0.78026436 1.23883332
v -2.98189662 -0.79349675 1.15464767
v -2.98189662 -0.79461709 1.17021716
v -3.01630364 -0.78905075 1.13439609
v -3.01630364 -0.79492007 1.17021716
v -3.03296617 -0.79501168 1.17021716
v -3.09967039 -0.79413796 1.15354359
v -3.53451912 -0.78963556 1.13439609
v -3.53451912 -0.72357923 1.21589311
v -3.42015358 -0.72357220 1.22460303
v -3.06634533 -0.72357220 1.22549243
v -3.53284201 -0.73359867 1.23883332
v -3.52039920 -0.73354935 1.23883332
v -3.53451912 -0.72366381 1.22462347
v -3.53451912 -0.73360571 1.23883332
v -2.98195071 -0.78779654 1.23883332
v -2.98189662 -0.78780360 1.23795414
v -2.98189662 -0.79460300 1.17131101
v -3.01630364 -0.79453254 1.20353362
v -3.01630364 -0.79473687 1.18686005
v -3.06634533 -0.78917053 1.13439609
v -3.03296617 -0.79487074 1.18686005
v -3.04486798 -0.79505394 1.17021716
v -3.08300785 -0.79511029 1.18684983
v -3.06634533 -0.79511029 1.17021716
v -3.08300785 -0.79515258 1.17021716
v -3.36621676 -0.79430002 1.15354359
v -3.41620432 -0.78989625 1.13439609
v -3.40203035 -0.78986808 1.13439609
v -3.53451912 -0.79419431 1.15354359
v -3.53451912 -0.78752879 1.23883332
v -2.98297860 -0.79398999 1.20353362
v -2.98189662 -0.79396886 1.20353362
v -2.98297860 -0.78781063 1.23883332
v -2.99964112 -0.79427183 1.20353362
v -2.98189662 -0.79435638 1.18686005
v -3.03296617 -0.79466642 1.20353362
v -2.99769355 -0.78795157 1.23883332
v -3.06634533 -0.79483552 1.20353362
v -3.08300785 -0.79490597 1.20353362
v -3.09967039 -0.79495529 1.20353362
v -3.09967039 -0.79515258 1.18684983
v -3.53284201 -0.79555420 1.20353362
v -3.53451912 -0.79555420 1.20195930
v -3.53284201 -0.79550488 1.18684983
v -3.53284201 -0.79533578 1.17021716
v -3.53451912 -0.79533578 1.17021716
v -3.53451912 -0.79523007 1.16865306
v -3.53451912 -0.79186208 1.22020718
v -3.01435608 -0.78801499 1.23883332
v -3.11633291 -0.79499758 1.20353362
v -3.53451912 -0.79555420 1.20353362
v -3.53451912 -0.79550488 1.18684983
f 1 2 7
f 1 7 3
f 1 3 12
f 1 12 27
f 1 27 43
f 1 43 59
f 1 59 62
f 1 62 44
f 1 44 29
f 1 29 28
f 1 28 14
f 1 14 4
f 1 4 17
f 1 17 30
f 1 30 47
f 1 47 55
f 1 55 54
f 1 54 34
f 1 34 18
f 1 18 5
f 1 5 6
f 1 6 2
f 2 6 22
f 2 22 21
f 2 21 20
f 2 20 36
f 2 36 37
f 2 37 24
f 2 24 13
f 2 13 7
f 3 8 9
f 3 9 10
f 3 10 11
f 3 11 12
f 3 7 13
f 3 13 24
f 3 24 8
f 4 14 15
f 4 15 16
f 4 16 17
f 5 18 19
f 5 19 20
f 5 20 21
f 5 21 22
f 5 22 6
f 8 23 9
f 8 24 23
f 9 23 25
f 9 25 26
f 9 26 39
f 9 39 38
f 9 38 41
f 9 41 57
f 9 57 76
f 9 76 64
f 9 64 60
f 9 60 42
f 9 42 27
f 9 27 12
f 9 12 11
f 9 11 10
f 14 28 15
f 15 28 29
f 15 29 16
f 16 30 17
f 16 29 31
f 16 31 32
f 16 32 33
f 16 33 30
f 18 34 56
f 18 56 74
f 18 74 73
f 18 73 79
f 18 79 70
f 18 70 78
f 18 78 75
f 18 75 57
f 18 57 41
f 18 41 40
f 18 40 35
f 18 35 19
f 19 35 36
f 19 36 20
f 23 24 37
f 23 37 25
f 25 38 39
f 25 39 26
f 25 37 36
f 25 36 35
f 25 35 40
f 25 40 41
f 25 41 38
f 27 42 43
f 29 44 45
f 29 45 46
f 29 46 31
f 30 33 47
f 31 46 48
f 31 48 32
f 32 49 33
f 32 48 50
f 32 50 49
f 33 51 52
f 33 52 53
f 33 53 54
f 33 54 55
f 33 55 47
f 33 49 51
f 34 54 56
f 42 58 59
f 42 59 43
f 42 60 45
f 42 45 61
f 42 61 58
f 44 62 45
f 45 63 48
f 45 48 46
f 45 62 61
f 45 60 64
f 45 64 63
f 48 63 65
f 48 65 50
f 49 50 51
f 50 65 66
f 50 66 67
f 50 67 77
f 50 77 68
f 50 68 52
f 50 52 51
f 52 68 69
f 52 69 70
f 52 70 71
f 52 71 72
f 52 72 53
f 53 72 73
f 53 73 74
f 53 74 56
f 53 56 54
f 57 75 76
f 58 62 59
f 58 61 62
f 63 64 65
f 64 76 66
f 64 66 65
f 66 76 67
f 67 76 77
f 68 77 69
f 69 78 70
f 69 77 76
f 69 76 78
f 70 79 71
f 71 79 73
f 71 73 72
f 75 78 76

