# https://github.com/mikedh/trimesh
v -2.51386324 1.55676607 0.44540877
v -2.49382500 1.55677415 0.44540877
v -2.64725193 1.55885909 0.45882669
v -2.73054510 1.55682264 0.44540877
v -2.47722620 1.55678223 0.44540877
v -2.74729346 1.55683072 0.44540877
v -2.34697780 1.55910152 0.45882669
v -2.63050357 1.56288352 0.46831032
v -2.64725193 1.56287544 0.46831974
v -2.79723945 1.56291585 0.46831032
v -2.93077770 1.56294818 0.46826320
v -2.94722698 1.55910153 0.45882431
v -2.33037902 1.55690345 0.44540877
v -3.48078175 1.55763075 0.44542761
v -3.69791232 1.55793784 0.44542761
v -2.90655240 1.55715398 0.44540877
v -2.18024188 1.55932781 0.45882669
v -2.18024188 1.56317444 0.46809138
v -2.18024188 1.57272640 0.46918854
v -2.84733499 1.57272640 0.46946164
v -2.81398782 1.56292393 0.46830799
v -2.94722698 1.56296434 0.46825617
v -3.46418297 1.56354618 0.46781118
v -3.48078175 1.55993389 0.45882431
v -2.17022285 1.55717821 0.44540877
v -2.17022285 1.55934397 0.45882669
v -3.68101439 1.56039453 0.45882431
v -3.69791232 1.56045918 0.45882431
v -3.69791232 1.61525766 0.44542761
v -2.90655240 1.63754555 0.44540877
v -2.17022285 1.56319060 0.46807724
v -2.17022285 1.57272640 0.46916969
v -2.18024188 1.58940596 0.46909908
v -2.84733499 1.58940596 0.46930627
v -2.86393381 1.58940596 0.46930627
v -2.93077770 1.57271832 0.46940748
v -3.48078175 1.56357043 0.46779705
v -3.63091889 1.56375630 0.46765111
v -3.68101439 1.56382902 0.46760166
v -2.17022285 1.62438130 0.44540877
v -3.69791232 1.56398257 0.46749335
v -3.69791232 1.59860234 0.46766518
v -3.66426603 1.61821536 0.44542761
v -2.74729346 1.63762637 0.44540877
v -3.64766725 1.61966999 0.44542761
v -3.63091889 1.62062356 0.44542761
v -3.54747614 1.62498740 0.44542761
v -3.53087736 1.62581975 0.44542761
v -3.51427846 1.62638544 0.44542761
v -3.26409994 1.63399792 0.44542761
v -3.01422041 1.63932341 0.44542761
v -2.17022285 1.58940596 0.46908023
v -2.33037902 1.60358035 0.46800192
v -2.84733499 1.60513194 0.46808667
v -2.86393381 1.60519659 0.46808667
v -3.68101439 1.59889326 0.46780176
v -3.64766725 1.58939788 0.46849163
v -3.68101439 1.58939788 0.46845394
v -3.68101439 1.57271832 0.46825855
v -3.69791232 1.57271832 0.46821615
v -2.31378012 1.61137869 0.46617957
v -2.29703176 1.61079685 0.46581463
v -2.17022285 1.60798460 0.46074553
v -2.63439159 1.63723039 0.44540877
v -2.33037902 1.61192821 0.46645738
v -3.69791232 1.58925242 0.46841392
v -3.49753011 1.60970589 0.46561447
v -3.49753011 1.61821536 0.45727984
v -3.51427846 1.61804567 0.45660171
v -2.66385074 1.63758596 0.44540877
v -3.01392133 1.63932341 0.44542761
v -2.88068217 1.61342323 0.46698950
v -2.86393381 1.61352829 0.46699893
v -2.61375522 1.61369798 0.46706012
v -2.17022285 1.59964481 0.46799249
v -3.48078175 1.60144692 0.46778530
v -3.49753011 1.60136611 0.46776878
v -3.48078175 1.60978670 0.46566392
v -2.65069133 1.63749706 0.44540877
v -2.99762159 1.63927493 0.44542761
f 1 2 3
f 1 3 4
f 1 4 6
f 1 6 16
f 1 16 30
f 1 30 44
f 1 44 70
f 1 70 79
f 1 79 64
f 1 64 40
f 1 40 25
f 1 25 13
f 1 13 5
f 1 5 2
f 2 5 3
f 3 6 4
f 3 5 7
f 3 7 8
f 3 8 9
f 3 9 10
f 3 10 11
f 3 11 12
f 3 12 6
f 5 13 7
f 6 12 14
f 6 14 15
f 6 15 16
f 7 13 17
f 7 17 18
f 7 18 8
f 8 18 9
f 9 18 19
f 9 19 20
f 9 20 10
f 10 20 21
f 10 21 11
f 11 22 12
f 11 21 20
f 11 20 22
f 12 22 23
f 12 23 24
f 12 24 15
f 12 15 14
f 13 25 26
f 13 26 17
f 15 27 28
f 15 28 41
f 15 41 60
f 15 60 66
f 15 66 42
f 15 42 29
f 15 29 30
f 15 30 16
f 15 24 27
f 17 26 18
f 18 26 31
f 18 31 19
f 19 31 32
f 19 32 52
f 19 52 33
f 19 33 20
f 20 33 34
f 20 34 35
f 20 35 36
f 20 36 22
f 22 36 23
f 23 36 37
f 23 37 38
f 23 38 24
f 24 38 39
f 24 39 27
f 25 40 63
f 25 63 75
f 25 75 52
f 25 52 32
f 25 32 31
f 25 31 26
f 27 39 28
f 28 39 41
f 29 42 43
f 29 43 30
f 30 43 45
f 30 45 46
f 30 46 47
f 30 47 48
f 30 48 49
f 30 49 50
f 30 50 51
f 30 51 44
f 33 52 53
f 33 53 54
f 33 54 34
f 34 54 55
f 34 55 35
f 35 55 56
f 35 56 57
f 35 57 36
f 36 57 58
f 36 58 59
f 36 59 39
f 36 39 38
f 36 38 37
f 39 59 60
f 39 60 41
f 40 61 62
f 40 62 63
f 40 64 65
f 40 65 61
f 42 66 56
f 42 56 67
f 42 67 68
f 42 68 69
f 42 69 46
f 42 46 45
f 42 45 43
f 44 51 71
f 44 71 70
f 46 69 47
f 47 69 48
f 48 69 68
f 48 68 49
f 49 68 50
f 50 68 51
f 51 68 67
f 51 67 72
f 51 72 73
f 51 73 74
f 51 74 71
f 52 75 53
f 53 65 74
f 53 74 54
f 53 75 65
f 54 74 55
f 55 74 73
f 55 73 76
f 55 76 56
f 56 76 77
f 56 77 72
f 56 72 78
f 56 78 67
f 56 66 58
f 56 58 57
f 58 66 59
f 59 66 60
f 61 75 62
f 61 65 75
f 62 75 63
f 64 79 65
f 65 79 74
f 67 78 72
f 70 71 80
f 70 80 74
f 70 74 79
f 71 74 80
f 72 77 76
f 72 76 73

