# https://github.com/mikedh/trimesh
v 0.61481628 -0.15466397 0.50353870
v 0.60744062 -0.15467277 0.50353870
v 0.59085234 -0.15471670 0.52012874
v 0.61481628 -0.15471670 0.51282697
v 0.61481628 -0.15793239 0.49726598
v 0.59085234 -0.15472549 0.50347606
v 0.59085234 -0.15540201 0.53679040
v 0.61481628 -0.15545473 0.53686199
v 0.61481628 -0.15477821 0.52020927
v 0.61481628 -0.16205304 0.48938254
v 0.59085234 -0.16208821 0.48942731
v 0.59085234 -0.15870556 0.55345203
v 0.61481628 -0.15742280 0.54615922
v 0.60744062 -0.16207063 0.48939148
v 0.61481628 -0.16897644 0.48697551
v 0.61481628 -0.17768341 0.48400467
v 0.59085234 -0.17768341 0.48416572
v 0.59085234 -0.16539173 0.56468208
v 0.61481628 -0.15910095 0.55353256
v 0.61481628 -0.24433430 0.47709662
v 0.61481396 -0.24441336 0.47709662
v 0.59085234 -0.19434173 0.48517687
v 0.60744062 -0.17768341 0.56758133
v 0.60744062 -0.16569926 0.56452103
v 0.61481628 -0.16581347 0.56441365
v 0.61481628 -0.16283500 0.55965317
v 0.59085234 -0.17762190 0.56777818
v 0.61481628 -0.24441336 0.48090854
v 0.59091570 -0.24441336 0.50992774
v 0.59085234 -0.22040991 0.49391933
v 0.59085234 -0.21100008 0.48916779
v 0.61481628 -0.17768341 0.56746498
v 0.61481628 -0.19434173 0.56807346
v 0.59085234 -0.19427145 0.56810032
v 0.60744062 -0.19434173 0.56810032
v 0.61481628 -0.24441336 0.56849404
v 0.59085234 -0.24433430 0.50996354
v 0.59085234 -0.24441336 0.56796609
v 0.61481628 -0.20362860 0.56820769
v 0.59085234 -0.21092978 0.56832401
v 0.60744062 -0.21100008 0.56832401
v 0.61481628 -0.24433430 0.56850298
v 0.60744062 -0.24441336 0.56849404
v 0.59085234 -0.24441336 0.56847616
v 0.61481628 -0.21100008 0.56830613
v 0.59085234 -0.22759691 0.56846722
v 0.60744062 -0.22766719 0.56846722
v 0.61481628 -0.22766719 0.56845824
v 0.59085234 -0.24426402 0.56847616
f 1 2 3
f 1 3 4
f 1 4 9
f 1 9 8
f 1 8 13
f 1 13 19
f 1 19 26
f 1 26 25
f 1 25 32
f 1 32 33
f 1 33 39
f 1 39 45
f 1 45 48
f 1 48 42
f 1 42 36
f 1 36 28
f 1 28 20
f 1 20 16
f 1 16 15
f 1 15 10
f 1 10 5
f 1 5 2
f 2 5 6
f 2 6 3
f 3 6 11
f 3 11 17
f 3 17 22
f 3 22 31
f 3 31 30
f 3 30 37
f 3 37 38
f 3 38 44
f 3 44 49
f 3 49 46
f 3 46 40
f 3 40 34
f 3 34 27
f 3 27 18
f 3 18 12
f 3 12 7
f 3 7 8
f 3 8 9
f 3 9 4
f 5 10 6
f 6 10 11
f 7 12 8
f 8 12 13
f 10 14 11
f 10 15 14
f 11 14 15
f 11 15 16
f 11 16 17
f 12 18 19
f 12 19 13
f 16 20 17
f 17 20 21
f 17 21 22
f 18 23 24
f 18 24 25
f 18 25 26
f 18 26 19
f 18 27 23
f 20 28 21
f 21 28 36
f 21 36 43
f 21 43 44
f 21 44 38
f 21 38 29
f 21 29 30
f 21 30 31
f 21 31 22
f 23 32 24
f 23 27 33
f 23 33 32
f 24 32 25
f 27 34 35
f 27 35 33
f 29 37 30
f 29 38 37
f 33 35 39
f 34 40 41
f 34 41 35
f 35 41 39
f 36 42 43
f 39 41 45
f 40 46 47
f 40 47 41
f 41 47 48
f 41 48 45
f 42 44 43
f 42 48 47
f 42 47 46
f 42 46 49
f 42 49 44

