# https://github.com/mikedh/trimesh
v 0.15453850 -0.46358875 0.43676761
v 0.15453443 -0.51121953 0.43665341
v 0.15453849 -0.57781749 0.43665341
v 0.15454659 -0.59451428 0.43665341
v 0.15456287 -0.61825872 0.43665341
v 0.19314187 -0.46358875 0.43676761
v 0.15453850 -0.44429048 0.43676761
v 0.15453443 -0.51098303 0.43665341
v 0.15424989 -0.22779982 0.33673585
v 0.15451816 -0.71091881 0.42822995
v 0.19310932 -0.61825872 0.43665341
v 0.19313776 -0.46089267 0.43676761
v 0.19423121 -0.61816413 0.43665341
v 0.15467267 -0.26105149 0.43676761
v 0.15442471 -0.22779982 0.37944680
v 0.15431492 -0.22779982 0.35340019
v 0.15420519 -0.22779982 0.32014000
v 0.15391252 -0.71091881 0.20358093
v 0.19423121 -0.71091881 0.42822995
v 0.19247525 -0.23314466 0.43676761
v 0.19478810 -0.69431661 0.42822995
v 0.19499946 -0.67766711 0.42822995
v 0.15499781 -0.23319196 0.43676761
v 0.19182484 -0.23314466 0.43676761
v 0.19216632 -0.22779982 0.37944680
v 0.15398161 -0.22779982 0.20360370
v 0.19452387 -0.71091881 0.20358093
v 0.15427426 -0.61830602 0.20358093
v 0.19432062 -0.71091881 0.42017170
v 0.19513357 -0.61825872 0.33682717
v 0.19311338 -0.22784711 0.20360370
v 0.19508076 -0.67766711 0.42017170
v 0.19519049 -0.62767136 0.33685000
v 0.19447916 -0.71091881 0.40353019
v 0.19486123 -0.69431661 0.42017170
v 0.19257276 -0.22779982 0.22024527
v 0.15421740 -0.22779982 0.20360370
v 0.19477183 -0.71091881 0.22022244
v 0.19478810 -0.69431661 0.20358093
v 0.19508481 -0.69431661 0.22022244
v 0.19482058 -0.61830602 0.20358093
v 0.19407267 -0.41103879 0.20360370
v 0.19528806 -0.69431661 0.35351434
v 0.19539375 -0.67766711 0.35351434
v 0.19543846 -0.67766711 0.33685000
v 0.19491411 -0.71091881 0.35351434
v 0.19489379 -0.71091881 0.23688678
v 0.19501978 -0.67766711 0.20358093
v 0.19518645 -0.69431661 0.23688678
v 0.19524337 -0.67766711 0.22022244
v 0.19481248 -0.61092726 0.20364936
v 0.19510514 -0.62767136 0.23688678
v 0.19503606 -0.61830602 0.22752735
v 0.19531651 -0.69431661 0.33685000
v 0.19495882 -0.71091881 0.33685000
v 0.19541812 -0.67766711 0.32016283
v 0.19530434 -0.67766711 0.23688678
v 0.19539780 -0.67766711 0.30354415
f 1 2 3
f 1 3 4
f 1 4 5
f 1 5 11
f 1 11 6
f 1 6 12
f 1 12 20
f 1 20 24
f 1 24 23
f 1 23 14
f 1 14 7
f 1 7 8
f 1 8 2
f 2 8 9
f 2 9 10
f 2 10 3
f 3 10 4
f 4 10 5
f 5 10 19
f 5 19 11
f 6 11 13
f 6 13 12
f 7 14 15
f 7 15 16
f 7 16 9
f 7 9 8
f 9 16 15
f 9 15 25
f 9 25 36
f 9 36 37
f 9 37 26
f 9 26 17
f 9 17 18
f 9 18 10
f 10 18 27
f 10 27 38
f 10 38 47
f 10 47 55
f 10 55 46
f 10 46 34
f 10 34 29
f 10 29 19
f 11 19 13
f 12 13 20
f 13 19 21
f 13 21 22
f 13 22 20
f 14 23 15
f 15 23 24
f 15 24 20
f 15 20 25
f 17 26 18
f 18 26 28
f 18 28 41
f 18 41 48
f 18 48 39
f 18 39 27
f 19 29 21
f 20 30 31
f 20 31 25
f 20 22 32
f 20 32 33
f 20 33 30
f 21 29 34
f 21 34 35
f 21 35 32
f 21 32 22
f 25 31 36
f 26 37 41
f 26 41 28
f 27 39 40
f 27 40 38
f 30 33 31
f 31 37 36
f 31 33 42
f 31 42 41
f 31 41 37
f 32 35 43
f 32 43 44
f 32 44 33
f 33 44 45
f 33 45 42
f 34 46 35
f 35 46 43
f 38 40 47
f 39 48 40
f 40 49 47
f 40 48 50
f 40 50 49
f 41 42 51
f 41 51 48
f 42 45 52
f 42 52 53
f 42 53 50
f 42 50 51
f 43 54 45
f 43 45 44
f 43 46 55
f 43 55 54
f 45 54 56
f 45 56 52
f 47 49 54
f 47 54 55
f 48 51 50
f 49 50 57
f 49 57 58
f 49 58 54
f 50 53 57
f 52 56 58
f 52 58 57
f 52 57 53
f 54 58 56

