# https://github.com/mikedh/trimesh
v 1.66258360 -0.60585225 0.89679446
v 1.67411916 -0.59431898 0.89674988
v 1.66258360 -0.58920402 0.89679446
v 1.66258360 -0.61354929 0.89678809
v 1.67411916 -0.61099180 0.89673715
v 1.69099426 -0.59431898 0.89665436
v 1.69099426 -0.57769534 0.89666073
v 1.69099426 -0.45982982 0.89662889
v 1.66258360 -0.57255579 0.89678809
v 1.69285216 -0.61468048 0.89663526
v 1.66258360 -0.61468048 0.89678172
v 1.66467562 -0.67765849 0.89667347
v 1.66467562 -0.67045327 0.89669894
v 1.66467562 -0.66101026 0.89672441
v 1.69285216 -0.66101026 0.89659068
v 1.69099426 -0.45982982 0.84773614
v 1.67411916 -0.45982982 0.89666073
v 1.66258360 -0.45982982 0.89667984
v 1.69285216 -0.61468048 0.83708901
v 1.66467562 -0.71105332 0.88836336
v 1.66467562 -0.71100414 0.89630413
v 1.66467562 -0.70377433 0.89642512
v 1.66467562 -0.69433131 0.89655885
v 1.66467562 -0.68710151 0.89660979
v 1.66258360 -0.61468048 0.83219209
v 1.69285216 -0.69433131 0.89646970
v 1.69285216 -0.67765849 0.89655885
v 1.69078088 -0.45982982 0.83699985
v 1.69099426 -0.45985441 0.83699985
v 1.66258360 -0.45982982 0.84867222
v 1.66258360 -0.51095488 0.83173997
v 1.69285216 -0.64433744 0.83708901
v 1.67411916 -0.71105332 0.89625955
v 1.66467562 -0.71105332 0.87048228
v 1.69285216 -0.71105332 0.89621498
v 1.66258360 -0.59446653 0.83196921
v 1.66467562 -0.71100414 0.83301355
v 1.67329834 -0.45982982 0.83573265
v 1.66258360 -0.45985441 0.83188007
v 1.66258360 -0.57767075 0.83183549
v 1.69285216 -0.66101026 0.83710175
v 1.67416953 -0.71105332 0.83644585
v 1.69285216 -0.71105332 0.83724820
f 1 2 3
f 1 3 9
f 1 9 18
f 1 18 30
f 1 30 39
f 1 39 31
f 1 31 40
f 1 40 36
f 1 36 25
f 1 25 11
f 1 11 4
f 1 4 5
f 1 5 2
f 2 6 7
f 2 7 8
f 2 8 9
f 2 9 3
f 2 5 10
f 2 10 6
f 4 11 12
f 4 12 13
f 4 13 14
f 4 14 5
f 5 14 15
f 5 15 10
f 6 10 7
f 7 10 8
f 8 16 28
f 8 28 38
f 8 38 30
f 8 30 18
f 8 18 17
f 8 17 9
f 8 10 19
f 8 19 16
f 9 17 18
f 10 15 27
f 10 27 26
f 10 26 35
f 10 35 43
f 10 43 41
f 10 41 32
f 10 32 19
f 11 20 21
f 11 21 22
f 11 22 23
f 11 23 24
f 11 24 12
f 11 25 34
f 11 34 20
f 12 24 26
f 12 26 27
f 12 27 13
f 13 27 14
f 14 27 15
f 16 19 29
f 16 29 28
f 19 31 29
f 19 32 31
f 20 33 21
f 20 34 42
f 20 42 43
f 20 43 35
f 20 35 33
f 21 33 35
f 21 35 22
f 22 26 23
f 22 35 26
f 23 26 24
f 25 36 37
f 25 37 34
f 28 29 39
f 28 39 38
f 29 31 39
f 30 38 39
f 31 32 41
f 31 41 40
f 34 37 42
f 36 40 37
f 37 43 42
f 37 40 43
f 40 41 43

