# https://github.com/mikedh/trimesh
v 1.07876607 -0.73488607 1.13439609
v 1.07876607 -0.72358205 1.15816435
v 1.07876607 -0.78905467 1.13439609
v 0.65739210 -0.72358205 1.13439609
v 1.07876607 -0.72358205 1.18692139
v 1.07876607 -0.79389925 1.15354359
v 1.05739090 -0.78917507 1.13439609
v 0.60804061 -0.72358204 1.13439609
v 1.07420812 -0.72358205 1.22552310
v 1.07876607 -0.72363870 1.22555376
v 1.07876607 -0.79423212 1.15831770
v 1.02407074 -0.79414712 1.15354359
v 0.72159623 -0.78987626 1.13439609
v 0.27601802 -0.73434067 1.13439609
v 0.27601802 -0.72358204 1.16066897
v 1.07876607 -0.73382367 1.23883332
v 1.07405094 -0.72358205 1.22552310
v 0.62415056 -0.73350492 1.23883332
v 1.07876607 -0.79505371 1.17021716
v 1.07405094 -0.79506790 1.17021716
v 1.05739090 -0.79511746 1.17021716
v 1.04073082 -0.79515996 1.17021716
v 0.75743110 -0.79431005 1.15354359
v 0.70737231 -0.78990458 1.13439609
v 0.27601802 -0.78940880 1.13439609
v 0.27601802 -0.72358204 1.22455192
v 1.07876607 -0.78789311 1.23883332
v 0.60741189 -0.73353326 1.23883332
v 1.07876607 -0.79492622 1.18686006
v 1.04073082 -0.79511746 1.18686006
v 1.02407074 -0.79515996 1.18686006
v 0.34085088 -0.79593198 1.20353362
v 0.49079143 -0.79564865 1.18684983
v 0.47413138 -0.79544325 1.17021716
v 0.40749106 -0.79542910 1.17021716
v 0.57409180 -0.79426755 1.15354359
v 0.37417096 -0.78978416 1.13439609
v 0.27601802 -0.79389924 1.15354359
v 0.27601802 -0.73423446 1.23883332
v 0.28450519 -0.73421321 1.23883332
v 0.40749106 -0.73391572 1.23883332
v 1.00733210 -0.79500415 1.20353362
v 1.02407074 -0.79496165 1.20353362
v 1.04073082 -0.79491206 1.20353362
v 1.05739090 -0.79484125 1.20353362
v 1.07876607 -0.79380010 1.20830772
v 0.52411159 -0.78760272 1.23883332
v 0.29087066 -0.79214271 1.22020718
v 0.30745209 -0.79214980 1.22020718
v 0.35751091 -0.79215689 1.22020718
v 0.49079143 -0.79574075 1.20353362
v 1.07876607 -0.79486956 1.19163416
v 0.30745209 -0.79593198 1.20353362
v 0.32419076 -0.79567699 1.18684983
v 0.30745209 -0.79566990 1.18684983
v 0.29087066 -0.79535120 1.17021716
v 0.37417096 -0.79417545 1.15354359
v 0.27601802 -0.79406921 1.15545528
v 0.27601802 -0.78692276 1.23883332
v 1.07405094 -0.79474916 1.20353362
v 1.07876607 -0.79472082 1.20353362
v 0.30745209 -0.78741857 1.23883332
v 0.29087066 -0.79591071 1.20353362
v 0.29087066 -0.78740437 1.23883332
v 0.27782548 -0.78738313 1.23883332
v 0.27601802 -0.79210021 1.22020718
v 0.29087066 -0.79565574 1.18684983
v 0.27601802 -0.79537244 1.17212884
v 0.27601802 -0.79533701 1.17021716
v 0.27601802 -0.78737606 1.23878221
v 0.27617520 -0.78737606 1.23883332
v 0.27601802 -0.79586824 1.20353362
v 0.27601802 -0.79562034 1.18684983
f 1 2 5
f 1 5 10
f 1 10 16
f 1 16 27
f 1 27 46
f 1 46 61
f 1 61 52
f 1 52 29
f 1 29 19
f 1 19 11
f 1 11 6
f 1 6 3
f 1 3 7
f 1 7 13
f 1 13 24
f 1 24 37
f 1 37 25
f 1 25 14
f 1 14 8
f 1 8 4
f 1 4 2
f 2 4 8
f 2 8 15
f 2 15 26
f 2 26 17
f 2 17 9
f 2 9 5
f 3 6 7
f 5 9 10
f 6 11 12
f 6 12 7
f 7 12 13
f 8 14 15
f 9 16 10
f 9 17 18
f 9 18 16
f 11 19 12
f 12 19 20
f 12 20 21
f 12 21 22
f 12 22 23
f 12 23 24
f 12 24 13
f 14 25 38
f 14 38 58
f 14 58 69
f 14 69 68
f 14 68 73
f 14 73 72
f 14 72 66
f 14 66 70
f 14 70 59
f 14 59 39
f 14 39 26
f 14 26 15
f 16 18 28
f 16 28 41
f 16 41 40
f 16 40 39
f 16 39 59
f 16 59 71
f 16 71 65
f 16 65 64
f 16 64 62
f 16 62 47
f 16 47 27
f 17 26 18
f 18 26 28
f 19 29 30
f 19 30 20
f 20 30 21
f 21 30 31
f 21 31 22
f 22 31 32
f 22 32 33
f 22 33 34
f 22 34 23
f 23 34 35
f 23 35 36
f 23 36 24
f 24 36 37
f 25 37 38
f 26 39 40
f 26 40 41
f 26 41 28
f 27 42 43
f 27 43 44
f 27 44 45
f 27 45 46
f 27 47 48
f 27 48 49
f 27 49 50
f 27 50 32
f 27 32 51
f 27 51 42
f 29 52 45
f 29 45 30
f 30 45 44
f 30 44 43
f 30 43 31
f 31 43 42
f 31 42 51
f 31 51 32
f 32 50 53
f 32 53 34
f 32 34 33
f 34 53 54
f 34 54 35
f 35 54 55
f 35 55 56
f 35 56 57
f 35 57 36
f 36 57 37
f 37 57 38
f 38 57 58
f 45 52 60
f 45 60 46
f 46 60 61
f 47 62 48
f 48 63 53
f 48 53 49
f 48 62 64
f 48 64 65
f 48 65 66
f 48 66 72
f 48 72 63
f 49 53 50
f 52 61 60
f 53 55 54
f 53 63 67
f 53 67 55
f 55 67 56
f 56 67 68
f 56 68 69
f 56 69 57
f 57 69 58
f 59 70 71
f 63 72 73
f 63 73 67
f 65 71 66
f 66 71 70
f 67 73 68

