# https://github.com/mikedh/trimesh
v -3.70095057 1.66923813 2.01898211
v -3.70095057 1.66923813 1.96896122
v -3.70079503 1.66923813 2.02148132
v -3.70095057 1.66960353 2.02148132
v -3.70095057 1.68947561 1.96891452
v -3.54759769 1.66923813 1.96914265
v -3.69776221 1.66923813 2.02148132
v -3.70095057 1.68947561 2.02149682
v -3.70095057 1.95627291 1.96855674
v -3.53095591 1.66923813 1.96916341
v -3.69776221 1.68947561 2.02149682
v -3.18435659 1.66923813 2.02126351
v -3.18085717 1.73950712 2.02135690
v -3.19749892 1.75617493 2.02138279
v -3.29758267 1.75617493 2.02141905
v -3.70095057 1.70614340 2.02150720
v -3.70095057 1.95638533 1.96855674
v -3.56431718 1.95638533 1.96873822
v -3.32728898 1.66923813 1.96946418
v -3.69776221 1.70614340 2.02150720
v -3.06405388 1.66923813 2.02116498
v -2.90650166 1.72281121 2.02113909
v -3.08077340 1.72281121 2.02126351
v -3.04741214 1.75617493 2.02128426
v -3.19749892 1.83954206 2.02139317
v -3.29758267 1.77284273 2.02142430
v -3.70095057 1.73950712 2.02152283
v -3.70095057 1.95638533 2.02143468
v -3.31414665 1.95638533 1.96915822
v -3.31414665 1.66923813 1.96950044
v -2.90650166 1.66923813 2.02101981
v -2.90650166 1.70614340 2.02110283
v -2.90650166 1.73950712 2.02115460
v -3.04741214 1.77284273 2.02128426
v -3.19749892 1.85620986 2.02138804
v -3.21414064 1.83954206 2.02139830
v -3.04741214 1.83954206 2.02127913
v -3.70095057 1.93960510 2.02144505
v -3.21414064 1.85620986 2.02139317
v -3.29758267 1.85620986 2.02140867
v -3.23086016 1.87287766 2.02138279
v -3.21414064 1.87287766 2.02137766
v -3.21414064 1.93960510 2.02129989
v -3.21414064 1.95638533 2.02127388
v -3.09741513 1.95638533 1.96982191
v -3.22728296 1.66923813 1.96977008
v -2.90650166 1.66923813 1.97271523
v -2.90650166 1.86365837 2.02115460
v -3.18085717 1.87287766 2.02135690
v -3.04741214 1.85620986 2.02127388
v -3.04741214 1.87287766 2.02125838
v -2.90650166 1.95638533 2.02104582
v -3.08077340 1.95638533 1.96993081
v -3.09741513 1.66923813 1.97035599
v -3.11055744 1.66923813 1.97027303
v -3.12727697 1.66923813 1.97019007
v -3.13077639 1.66923813 1.97017451
v -2.90650166 1.68202708 1.97267378
v -3.08077340 1.66923813 1.97049078
v -2.90650166 1.87287766 2.02114947
v -2.90650166 1.95638533 1.97251298
v -3.09391571 1.66923813 1.97038194
v -2.90650166 1.92290918 1.97250267
v -2.90650166 1.90624138 1.97250267
v -2.90650166 1.68947561 1.97265821
f 1 2 6
f 1 6 10
f 1 10 19
f 1 19 30
f 1 30 46
f 1 46 57
f 1 57 56
f 1 56 55
f 1 55 54
f 1 54 62
f 1 62 59
f 1 59 47
f 1 47 31
f 1 31 21
f 1 21 12
f 1 12 7
f 1 7 3
f 1 3 4
f 1 4 8
f 1 8 16
f 1 16 27
f 1 27 38
f 1 38 28
f 1 28 17
f 1 17 9
f 1 9 5
f 1 5 2
f 2 5 6
f 3 7 11
f 3 11 8
f 3 8 4
f 5 9 10
f 5 10 6
f 7 12 13
f 7 13 14
f 7 14 15
f 7 15 11
f 8 11 20
f 8 20 16
f 9 17 18
f 9 18 10
f 10 18 19
f 11 15 20
f 12 21 22
f 12 22 23
f 12 23 13
f 13 23 24
f 13 24 14
f 14 25 26
f 14 26 15
f 14 24 25
f 15 26 27
f 15 27 20
f 16 20 27
f 17 28 44
f 17 44 52
f 17 52 61
f 17 61 53
f 17 53 45
f 17 45 29
f 17 29 18
f 18 29 19
f 19 29 30
f 21 31 32
f 21 32 22
f 22 32 31
f 22 31 47
f 22 47 58
f 22 58 65
f 22 65 64
f 22 64 63
f 22 63 61
f 22 61 52
f 22 52 60
f 22 60 48
f 22 48 33
f 22 33 24
f 22 24 23
f 24 33 48
f 24 48 34
f 24 34 25
f 25 35 39
f 25 39 36
f 25 36 26
f 25 34 37
f 25 37 50
f 25 50 35
f 26 36 27
f 27 36 39
f 27 39 40
f 27 40 38
f 28 38 39
f 28 39 41
f 28 41 42
f 28 42 43
f 28 43 44
f 29 45 30
f 30 45 46
f 34 48 37
f 35 49 43
f 35 43 42
f 35 42 39
f 35 50 51
f 35 51 49
f 37 48 50
f 38 40 39
f 39 42 41
f 43 49 51
f 43 51 52
f 43 52 44
f 45 53 54
f 45 54 55
f 45 55 56
f 45 56 57
f 45 57 46
f 47 59 58
f 48 60 50
f 50 60 51
f 51 60 52
f 53 59 62
f 53 62 54
f 53 61 63
f 53 63 64
f 53 64 65
f 53 65 59
f 58 59 65

