# https://github.com/mikedh/trimesh
v -3.72420789 1.62618673 0.11292315
v -3.69791226 1.62618673 0.11758687
v -3.72420789 1.62296061 0.10986976
v -3.72420789 1.62618673 0.16398353
v -3.69791226 1.60970350 0.10388845
v -3.69791226 1.62618673 0.16329342
v -3.72420789 1.62027468 0.10777837
v -3.72420789 1.60992857 0.17880082
v -3.69791226 1.60143562 0.09863917
v -3.69791226 1.60958345 0.17828838
v -3.72420789 1.60379894 0.09775034
v -3.72420789 1.60505188 0.18307758
v -3.69791226 1.58939393 0.09658966
v -3.72420789 1.58921387 0.09188408
v -3.69791226 1.60124055 0.18539900
v -3.72420789 1.60159318 0.18598462
v -3.72420789 1.57255808 0.08912352
v -3.69791226 1.57464380 0.09827322
v -3.69791226 1.60113552 0.18543037
v -3.72420789 1.59426312 0.19057509
v -3.72420789 1.55675009 0.09296114
v -3.69791226 1.56638343 0.10578116
v -3.72420789 1.57537905 0.19582442
v -3.69791226 1.58939393 0.18726034
v -3.72420789 1.55623240 0.09379767
v -3.69791226 1.56402761 0.11415701
v -3.72420789 1.55082302 0.10863584
v -3.72420789 1.57258809 0.19593947
v -3.69791226 1.58922887 0.18726034
v -3.69791226 1.56359247 0.12529348
v -3.72420789 1.54982518 0.12529348
v -3.72420789 1.55078551 0.10913778
v -3.72420789 1.55620240 0.19242594
v -3.69791226 1.57466631 0.18552448
v -3.72420789 1.54981768 0.12555489
v -3.69791226 1.56306728 0.15849372
v -3.72420789 1.54954008 0.14197206
v -3.72420789 1.55581226 0.19219590
v -3.69791226 1.56633841 0.17983601
v -3.69791226 1.56306728 0.15864014
v -3.72420789 1.54957759 0.15864014
v -3.72420789 1.55005776 0.17531866
v -3.69791226 1.56364498 0.17151241
v -3.69791226 1.56362998 0.17136605
f 1 2 3
f 1 3 7
f 1 7 11
f 1 11 14
f 1 14 17
f 1 17 21
f 1 21 25
f 1 25 27
f 1 27 32
f 1 32 31
f 1 31 35
f 1 35 37
f 1 37 41
f 1 41 42
f 1 42 38
f 1 38 33
f 1 33 28
f 1 28 23
f 1 23 20
f 1 20 16
f 1 16 12
f 1 12 8
f 1 8 4
f 1 4 6
f 1 6 2
f 2 5 3
f 2 6 10
f 2 10 15
f 2 15 19
f 2 19 24
f 2 24 29
f 2 29 34
f 2 34 39
f 2 39 43
f 2 43 44
f 2 44 40
f 2 40 36
f 2 36 30
f 2 30 26
f 2 26 22
f 2 22 18
f 2 18 13
f 2 13 9
f 2 9 5
f 3 5 7
f 4 8 6
f 5 9 7
f 6 8 10
f 7 9 11
f 8 12 10
f 9 13 14
f 9 14 11
f 10 12 15
f 12 16 15
f 13 17 14
f 13 18 17
f 15 16 20
f 15 20 19
f 17 18 21
f 18 22 21
f 19 20 23
f 19 23 24
f 21 22 25
f 22 26 27
f 22 27 25
f 23 28 24
f 24 28 29
f 26 30 31
f 26 31 32
f 26 32 27
f 28 33 34
f 28 34 29
f 30 35 31
f 30 36 37
f 30 37 35
f 33 38 34
f 34 38 39
f 36 40 37
f 37 40 41
f 38 42 39
f 39 42 43
f 40 44 42
f 40 42 41
f 42 44 43

