# https://github.com/mikedh/trimesh
v -3.44952824 -0.24447065 0.56851976
v -3.44952824 -0.24425723 0.56851976
v -3.44952824 -0.24447065 0.50985247
v -3.33309580 -0.24447065 0.56929493
v -3.31627434 -0.22767202 0.56943816
v -3.44952824 -0.22759198 0.56846922
v -3.31627434 -0.21099790 0.56942973
v -3.44952824 -0.22093123 0.49320354
v -3.26628353 -0.22092233 0.49311926
v -3.24960622 -0.22090454 0.49316140
v -3.23920862 -0.24447065 0.51082984
v -3.31627434 -0.24447065 0.56940445
v -3.29961760 -0.22767202 0.56950557
v -3.44952824 -0.21092673 0.56829228
v -3.31627434 -0.19434155 0.56937918
v -3.33295168 -0.19434155 0.56923595
v -3.29961760 -0.21099790 0.56949714
v -3.44952824 -0.21099790 0.48827455
v -3.29961760 -0.21099790 0.48765108
v -3.28294027 -0.21099790 0.48759213
v -3.26628353 -0.21099790 0.48760894
v -3.24960622 -0.21099790 0.48765949
v -3.23920862 -0.21099790 0.48772690
v -3.23920862 -0.22081563 0.49321194
v -3.23920862 -0.24447065 0.56957299
v -3.29976173 -0.24447065 0.56945503
v -3.28294027 -0.22767202 0.56953085
v -3.44952824 -0.19427041 0.56800582
v -3.29961760 -0.19434155 0.56943816
v -3.31627434 -0.17767632 0.56906745
v -3.33295168 -0.17767632 0.56889894
v -3.23920862 -0.22767202 0.56958982
v -3.28294027 -0.21099790 0.56951401
v -3.28294027 -0.19434155 0.56946343
v -3.44952824 -0.19434155 0.48485381
v -3.33295168 -0.19434155 0.48412079
v -3.31627434 -0.19434155 0.48404491
v -3.29961760 -0.19434155 0.48397756
v -3.28294027 -0.19434155 0.48394382
v -3.26628353 -0.19434155 0.48395229
v -3.24960622 -0.19434155 0.48400283
v -3.23920862 -0.19434155 0.48404491
v -3.44952824 -0.17762294 0.56731494
v -3.29961760 -0.17767632 0.56909272
v -3.31627434 -0.16479052 0.56531804
v -3.33295168 -0.16486169 0.56522539
v -3.36626513 -0.16505732 0.56501474
v -3.38292187 -0.16514625 0.56486308
v -3.43293328 -0.16563537 0.56444179
v -3.44952824 -0.16578652 0.56427329
v -3.23920862 -0.21099790 0.56952241
v -3.23920862 -0.19434155 0.56942132
v -3.23920862 -0.18392800 0.56921068
v -3.44952824 -0.17767632 0.48396069
v -3.29961760 -0.17767632 0.48353940
v -3.28294027 -0.17767632 0.48351413
v -3.26628353 -0.17767632 0.48352253
v -3.24960622 -0.17767632 0.48356467
v -3.23920862 -0.17767632 0.48359841
v -3.29961760 -0.16479943 0.56532648
v -3.23920862 -0.17767632 0.56906745
v -3.23920862 -0.16480832 0.56530964
v -3.31627434 -0.15737389 0.55353068
v -3.33295168 -0.15747170 0.55353068
v -3.24960622 -0.16478164 0.56528437
v -3.38292187 -0.15805863 0.55353068
v -3.43293328 -0.15872558 0.55353068
v -3.44952824 -0.15897458 0.55345484
v -3.44952824 -0.16192703 0.48936991
v -3.33295168 -0.16155352 0.48929410
v -3.31627434 -0.16151796 0.48927723
v -3.29961760 -0.16150905 0.48926036
v -3.28294027 -0.16150905 0.48925196
v -3.24960622 -0.16154464 0.48926882
v -3.23920862 -0.16155352 0.48927723
v -3.23920862 -0.15746282 0.55353068
v -3.24960622 -0.15740056 0.55353068
v -3.31627434 -0.15427916 0.53686488
v -3.33295168 -0.15433251 0.53686488
v -3.44952824 -0.15523958 0.53678907
v -3.44952824 -0.15449258 0.50347433
v -3.33295168 -0.15371890 0.50354172
v -3.31627434 -0.15364776 0.50354172
v -3.29961760 -0.15362997 0.50354172
v -3.23920862 -0.15369223 0.50354172
v -3.23920862 -0.15860110 0.49462744
v -3.23920862 -0.15549749 0.54311666
v -3.23920862 -0.15433251 0.53686488
v -3.24960622 -0.15430583 0.53686488
v -3.31627434 -0.15381674 0.52020752
v -3.23920862 -0.15400349 0.52645929
v -3.23920862 -0.15382562 0.52020752
v -3.33295168 -0.15388788 0.52020752
v -3.44952824 -0.15460818 0.52013170
v -3.43293328 -0.15437697 0.50354172
f 1 2 6
f 1 6 14
f 1 14 28
f 1 28 43
f 1 43 50
f 1 50 68
f 1 68 80
f 1 80 94
f 1 94 81
f 1 81 69
f 1 69 54
f 1 54 35
f 1 35 18
f 1 18 8
f 1 8 3
f 1 3 11
f 1 11 25
f 1 25 26
f 1 26 12
f 1 12 4
f 1 4 5
f 1 5 2
f 2 5 7
f 2 7 6
f 3 8 9
f 3 9 10
f 3 10 11
f 4 12 5
f 5 12 13
f 5 13 17
f 5 17 7
f 6 7 15
f 6 15 16
f 6 16 14
f 7 17 15
f 8 18 19
f 8 19 20
f 8 20 9
f 9 20 21
f 9 21 22
f 9 22 10
f 10 22 23
f 10 23 24
f 10 24 11
f 11 24 23
f 11 23 42
f 11 42 59
f 11 59 75
f 11 75 86
f 11 86 85
f 11 85 92
f 11 92 91
f 11 91 88
f 11 88 87
f 11 87 76
f 11 76 62
f 11 62 61
f 11 61 53
f 11 53 52
f 11 52 51
f 11 51 32
f 11 32 25
f 12 26 13
f 13 27 17
f 13 26 25
f 13 25 27
f 14 16 28
f 15 17 29
f 15 29 30
f 15 30 16
f 16 30 31
f 16 31 28
f 17 27 32
f 17 32 33
f 17 33 34
f 17 34 29
f 18 35 36
f 18 36 37
f 18 37 19
f 19 37 38
f 19 38 20
f 20 38 39
f 20 39 40
f 20 40 21
f 21 40 41
f 21 41 22
f 22 41 42
f 22 42 23
f 25 32 27
f 28 31 43
f 29 44 30
f 29 34 44
f 30 45 46
f 30 46 47
f 30 47 31
f 30 44 45
f 31 47 48
f 31 48 49
f 31 49 50
f 31 50 43
f 32 51 34
f 32 34 33
f 34 51 52
f 34 52 53
f 34 53 44
f 35 54 36
f 36 54 37
f 37 54 38
f 38 55 39
f 38 54 55
f 39 55 56
f 39 56 57
f 39 57 40
f 40 57 58
f 40 58 41
f 41 58 59
f 41 59 42
f 44 60 45
f 44 53 61
f 44 61 62
f 44 62 60
f 45 63 64
f 45 64 46
f 45 60 65
f 45 65 63
f 46 64 47
f 47 64 48
f 48 64 66
f 48 66 67
f 48 67 49
f 49 67 50
f 50 67 68
f 54 69 55
f 55 70 71
f 55 71 56
f 55 69 70
f 56 71 72
f 56 72 73
f 56 73 57
f 57 74 75
f 57 75 58
f 57 73 74
f 58 75 59
f 60 62 65
f 62 76 77
f 62 77 65
f 63 78 79
f 63 79 64
f 63 65 77
f 63 77 89
f 63 89 78
f 64 79 80
f 64 80 66
f 66 80 67
f 67 80 68
f 69 81 82
f 69 82 83
f 69 83 70
f 70 83 71
f 71 83 72
f 72 84 73
f 72 83 84
f 73 84 85
f 73 85 86
f 73 86 75
f 73 75 74
f 76 87 77
f 77 87 88
f 77 88 89
f 78 90 79
f 78 89 91
f 78 91 92
f 78 92 90
f 79 93 94
f 79 94 80
f 79 90 93
f 81 94 95
f 81 95 82
f 82 95 94
f 82 94 93
f 82 93 90
f 82 90 83
f 83 90 84
f 84 90 92
f 84 92 85
f 88 91 89

