# https://github.com/mikedh/trimesh
v -0.26829710 1.55605510 1.00917443
v -0.26675889 1.57271504 1.00917443
v -0.26828833 1.55605510 0.97506090
v -0.26629565 1.53936970 1.00917443
v -0.26613832 1.53936970 1.06377896
v -0.26737940 1.55144902 1.12124537
v -0.26796495 1.55650468 1.12124537
v -0.25868315 1.58591406 1.05918566
v -0.25881424 1.58605827 1.00917443
v -0.26675012 1.57271504 0.99250402
v -0.26646170 1.57271504 1.05918566
v -0.25858701 1.58592254 1.07587038
v -0.26651418 1.57271504 0.97506090
v -0.26599852 1.53942060 0.97506090
v -0.26620828 1.53936970 0.99250402
v -0.25842097 1.52740067 0.99250402
v -0.25848216 1.52737523 1.00917443
v -0.25846469 1.52737523 1.02584484
v -0.25842097 1.52738370 1.05918566
v -0.26053603 1.53068348 1.06379327
v -0.26609466 1.53936970 1.07587038
v -0.26593733 1.53936970 1.09254079
v -0.26566638 1.53936970 1.10922551
v -0.26546539 1.53936970 1.12124537
v -0.26584989 1.57187527 1.12124537
v -0.26613832 1.57270656 1.09254079
v -0.26633937 1.57270656 1.07587038
v -0.24169277 1.60351559 0.97506090
v -0.25878806 1.58601585 0.99250402
v -0.24150918 1.60337137 1.09254079
v -0.24155291 1.60340531 1.07587038
v -0.26642675 1.57271504 1.06377896
v -0.25842973 1.58584620 1.09254079
v -0.25854335 1.58598193 0.97506090
v -0.25828111 1.52740067 0.97506090
v -0.25828988 1.52740067 0.97581930
v -0.24482167 1.52369375 0.97506090
v -0.24419240 1.52352410 0.97506090
v -0.24419240 1.52352410 0.97581930
v -0.24419240 1.52354954 1.02584484
v -0.24419240 1.52354107 1.00917443
v -0.24419240 1.52358347 1.07587038
v -0.25837725 1.52741764 1.07587038
v -0.25828988 1.52746007 1.09254079
v -0.25817626 1.52751094 1.10922551
v -0.25804517 1.52754488 1.12124537
v -0.25744208 1.58509973 1.12124537
v -0.25808012 1.58553234 1.10922551
v -0.22751656 1.60936014 1.00917443
v -0.22751656 1.60937711 0.97506090
v -0.22751656 1.60929227 1.07587038
v -0.24081879 1.60290483 1.12124537
v -0.22751656 1.60885117 1.12124537
v -0.22751656 1.60924986 1.09254079
v -0.22751656 1.52316783 0.97506090
v -0.22751656 1.52316783 0.97581930
v -0.22751656 1.52325264 1.09254079
v -0.24419240 1.52364288 1.09254079
v -0.24419240 1.52379556 1.12124537
v -0.21085826 1.60957219 1.12124537
v -0.21085826 1.60962310 1.00917443
v -0.21085826 1.60961461 0.97506090
v -0.21085826 1.52296425 0.97506090
v -0.21085826 1.52304059 1.07587038
v -0.21085826 1.52308299 1.09254079
v -0.21551666 1.52327811 1.12124537
v -0.22751656 1.52334598 1.10922551
v -0.22751656 1.52341382 1.12124537
v -0.19418249 1.60809622 1.12124537
v -0.19418249 1.60817256 0.99250402
v -0.19418249 1.60813862 0.97506090
v -0.19418249 1.52375312 0.97506090
v -0.19418249 1.52372769 0.99250402
v -0.19418249 1.52388037 1.07587038
v -0.19418249 1.52403305 1.12124537
v -0.19884089 1.52380403 1.12124537
v -0.21085826 1.52323570 1.12124537
v -0.19418249 1.52393127 1.09254079
v -0.18271573 1.60220076 1.12124537
v -0.18267201 1.60223470 0.97581930
v -0.18267201 1.60223470 0.97506090
v -0.19365812 1.60788415 0.97506090
v -0.18277686 1.52782481 0.97506090
v -0.18275939 1.52779087 0.99250402
v -0.18282934 1.52793508 1.10922551
v -0.18282934 1.52796055 1.12124537
v -0.18600191 1.52685778 1.12124537
v -0.18032095 1.59294619 1.12124537
v -0.17940325 1.58938347 1.12124537
v -0.17942072 1.58939195 0.97506090
v -0.17935959 1.53936970 0.97506090
v -0.17935082 1.53936970 0.97581930
v -0.17935082 1.53936970 1.12124537
v -0.17917602 1.57270656 1.12124537
v -0.17909735 1.55605510 0.97506090
v -0.17905369 1.56071208 1.12124537
v -0.17934212 1.54012467 0.97506090
v -0.17900997 1.55604662 1.12124537
v -0.17925468 1.54403517 1.12124537
f 1 2 3
f 1 3 4
f 1 4 5
f 1 5 6
f 1 6 7
f 1 7 2
f 2 8 9
f 2 9 10
f 2 10 3
f 2 7 11
f 2 11 12
f 2 12 8
f 3 13 34
f 3 34 28
f 3 28 50
f 3 50 62
f 3 62 71
f 3 71 82
f 3 82 81
f 3 81 90
f 3 90 95
f 3 95 97
f 3 97 91
f 3 91 83
f 3 83 72
f 3 72 63
f 3 63 55
f 3 55 38
f 3 38 37
f 3 37 35
f 3 35 14
f 3 14 15
f 3 15 4
f 3 10 13
f 4 15 16
f 4 16 17
f 4 17 18
f 4 18 19
f 4 19 20
f 4 20 5
f 5 20 21
f 5 21 6
f 6 21 22
f 6 22 23
f 6 23 24
f 6 24 46
f 6 46 59
f 6 59 68
f 6 68 66
f 6 66 77
f 6 77 76
f 6 76 75
f 6 75 87
f 6 87 86
f 6 86 93
f 6 93 99
f 6 99 98
f 6 98 96
f 6 96 94
f 6 94 89
f 6 89 88
f 6 88 79
f 6 79 69
f 6 69 60
f 6 60 53
f 6 53 52
f 6 52 47
f 6 47 25
f 6 25 7
f 7 25 26
f 7 26 27
f 7 27 11
f 8 12 9
f 9 28 29
f 9 29 10
f 9 12 30
f 9 30 31
f 9 31 28
f 10 29 13
f 11 27 32
f 11 32 12
f 12 27 26
f 12 26 33
f 12 33 30
f 12 32 27
f 13 29 34
f 14 35 15
f 15 36 16
f 15 35 36
f 16 36 17
f 17 36 37
f 17 37 38
f 17 38 39
f 17 39 18
f 18 40 19
f 18 39 41
f 18 41 40
f 19 40 42
f 19 42 43
f 19 43 20
f 20 43 21
f 21 43 44
f 21 44 45
f 21 45 22
f 22 45 46
f 22 46 23
f 23 46 24
f 25 47 48
f 25 48 33
f 25 33 26
f 28 49 50
f 28 34 29
f 28 31 51
f 28 51 49
f 30 33 48
f 30 48 52
f 30 52 53
f 30 53 54
f 30 54 31
f 31 54 51
f 35 37 36
f 38 55 56
f 38 56 39
f 39 56 41
f 40 41 56
f 40 56 42
f 42 57 58
f 42 58 43
f 42 56 57
f 43 58 44
f 44 58 45
f 45 58 59
f 45 59 46
f 47 52 48
f 49 51 60
f 49 60 50
f 50 60 61
f 50 61 62
f 51 54 60
f 53 60 54
f 55 63 56
f 56 63 57
f 57 64 65
f 57 65 66
f 57 66 67
f 57 67 59
f 57 59 58
f 57 63 64
f 59 67 68
f 60 69 70
f 60 70 61
f 61 70 62
f 62 70 71
f 63 72 73
f 63 73 64
f 64 74 65
f 64 73 74
f 65 75 76
f 65 76 77
f 65 77 66
f 65 74 78
f 65 78 75
f 66 68 67
f 69 79 70
f 70 80 81
f 70 81 82
f 70 82 71
f 70 79 80
f 72 83 84
f 72 84 73
f 73 84 85
f 73 85 74
f 74 85 86
f 74 86 87
f 74 87 78
f 75 78 87
f 79 88 80
f 80 88 89
f 80 89 81
f 81 89 90
f 83 91 92
f 83 92 84
f 84 92 93
f 84 93 86
f 84 86 85
f 89 94 90
f 90 94 96
f 90 96 95
f 91 97 92
f 92 97 95
f 92 95 98
f 92 98 99
f 92 99 93
f 95 96 98

