# https://github.com/mikedh/trimesh
v -3.96740739 -0.70948420 1.43900728
v -3.96741138 -0.70948420 1.40353160
v -3.92777970 -0.70948420 1.43900728
v -3.96714530 -0.24440049 1.43900728
v -3.96717308 -0.24440049 1.42013416
v -3.96719692 -0.24440049 1.40347712
v -3.96738754 -0.70948420 1.27022078
v -3.92738654 -0.70948420 1.30355301
v -3.92725947 -0.69432437 1.43900728
v -3.92810926 -0.24440049 1.43900728
v -3.96704207 -0.24440049 1.25349105
v -3.96704207 -0.24444602 1.25343657
v -3.96737562 -0.70948420 1.25343657
v -3.92738255 -0.70948420 1.30202718
v -3.92717608 -0.69432437 1.38687456
v -3.92703308 -0.67766220 1.40353160
v -3.92709662 -0.67766220 1.43900728
v -3.92810926 -0.24440049 1.43686385
v -3.92685439 -0.67766220 1.27022078
v -3.92684646 -0.67752563 1.25343657
v -3.92838326 -0.24440049 1.25343657
v -3.92738654 -0.70948420 1.25343657
v -3.92738255 -0.70948420 1.26869495
v -3.92699339 -0.69432437 1.25343657
v -3.92699738 -0.69432437 1.27022078
v -3.92813310 -0.24440049 1.25343657
v -3.92684646 -0.67766220 1.25343657
v -3.92738255 -0.70934763 1.25343657
f 1 2 7
f 1 7 13
f 1 13 22
f 1 22 23
f 1 23 14
f 1 14 8
f 1 8 3
f 1 3 9
f 1 9 17
f 1 17 10
f 1 10 4
f 1 4 5
f 1 5 6
f 1 6 2
f 2 6 7
f 3 8 9
f 4 10 18
f 4 18 26
f 4 26 21
f 4 21 11
f 4 11 6
f 4 6 5
f 6 11 12
f 6 12 13
f 6 13 7
f 8 14 9
f 9 15 16
f 9 16 17
f 9 14 15
f 10 17 16
f 10 16 19
f 10 19 20
f 10 20 18
f 11 21 12
f 12 21 26
f 12 26 20
f 12 20 27
f 12 27 24
f 12 24 28
f 12 28 22
f 12 22 13
f 14 23 24
f 14 24 25
f 14 25 15
f 15 25 16
f 16 25 19
f 18 20 26
f 19 25 27
f 19 27 20
f 22 28 23
f 23 28 24
f 24 27 25

