# https://github.com/mikedh/trimesh
v -2.48756602 -0.64180628 1.11986566
v -2.48756602 -0.72387511 1.11698574
v -2.49735917 -0.72387511 1.11959038
v -2.49996421 -0.72387511 1.12028918
v -2.49675737 -0.64180628 1.12308441
v -2.48756602 -0.64180628 1.22153126
v -2.48756602 -0.72387511 1.22513118
v -2.53055565 -0.72387511 1.15947523
v -2.53055141 -0.64180628 1.16482215
v -2.49776738 -0.64180628 1.22152068
v -2.53055565 -0.72387511 1.22514177
v -2.49952653 -0.72387511 1.22514177
v -2.53055565 -0.71106994 1.16535155
v -2.53055141 -0.64180628 1.22141481
v -2.51172690 -0.64180628 1.22148892
v -2.53055565 -0.72213187 1.22468649
v -2.53055565 -0.71106994 1.22178539
f 1 2 3
f 1 3 4
f 1 4 5
f 1 5 9
f 1 9 14
f 1 14 15
f 1 15 10
f 1 10 6
f 1 6 7
f 1 7 2
f 2 7 12
f 2 12 11
f 2 11 8
f 2 8 4
f 2 4 3
f 4 8 9
f 4 9 5
f 6 10 11
f 6 11 12
f 6 12 7
f 8 11 16
f 8 16 17
f 8 17 13
f 8 13 9
f 9 13 17
f 9 17 14
f 10 15 11
f 11 15 14
f 11 14 16
f 14 17 16

