# https://github.com/mikedh/trimesh
v -1.87892876 1.93958172 0.68196801
v -1.91681770 1.88956578 0.64901904
v -1.91696960 1.90624702 0.64908393
v -1.91723119 1.92292824 0.64918941
v -1.91761934 1.93958172 0.64933547
v -1.87892876 1.93958172 0.72805275
v -1.87892876 1.65602852 0.68215460
v -1.91612574 1.72283674 0.64885676
v -1.91626918 1.80618737 0.64886487
v -1.91636204 1.82284085 0.64888109
v -1.92856412 1.88956578 0.64709612
v -1.92856412 1.90624702 0.64720973
v -1.92856412 1.92292824 0.64742880
v -1.92854724 1.93958172 0.64769653
v -1.94523864 1.93958172 0.72903447
v -1.87892876 1.93922089 0.72805275
v -1.87892876 1.65602852 0.72750104
v -1.91760246 1.65602852 0.64951395
v -1.91674177 1.67279305 0.64918941
v -1.91626077 1.68947427 0.64897034
v -1.91614262 1.70615549 0.64886487
v -1.92856412 1.70615549 0.64681216
v -1.92856412 1.80618737 0.64683650
v -1.94523864 1.85620332 0.64643893
v -1.94523864 1.90624702 0.64673102
v -1.94523864 1.80618737 0.64620364
v -1.94523864 1.82284085 0.64627667
v -1.94523864 1.92292824 0.64685272
v -1.94522176 1.93958172 0.64701500
v -1.95909463 1.93958172 0.72311972
v -1.95918749 1.65613955 0.72320087
v -1.94523864 1.65602852 0.72900203
v -1.92851348 1.65602852 0.64776956
v -1.91764468 1.65613955 0.64947339
v -1.92856412 1.65613955 0.64775333
v -1.92856412 1.67279305 0.64738010
v -1.92856412 1.68947427 0.64700689
v -1.94523864 1.68947427 0.64643082
v -1.94523864 1.70615549 0.64625231
v -1.94523864 1.78953391 0.64615498
v -1.95661373 1.93958172 0.64864581
v -1.95700188 1.82284085 0.64826449
v -1.95694283 1.85620332 0.64835371
v -1.96469782 1.93958172 0.70895354
v -1.96490877 1.65613955 0.70896976
v -1.95921278 1.65602852 0.72313598
v -1.94516266 1.65602852 0.64695008
v -1.94523864 1.65613955 0.64694197
v -1.95664749 1.65602852 0.64865392
v -1.95701876 1.72283674 0.64826449
v -1.95681627 1.67279305 0.64851600
v -1.95691749 1.68947427 0.64839430
v -1.95698500 1.70615549 0.64830505
v -1.95702723 1.80618737 0.64824013
v -1.95705251 1.77282491 0.64824013
v -1.95705251 1.78953391 0.64823201
v -1.95669812 1.92292824 0.64860525
v -1.96226755 1.93958172 0.65894998
v -1.96234347 1.92292824 0.65895809
v -1.95697659 1.83771796 0.64830505
v -1.96482437 1.93958172 0.69228027
v -1.96506914 1.65613955 0.69229649
v -1.96490877 1.65602852 0.70889676
v -1.96244475 1.65602852 0.65891750
v -1.95669812 1.65613955 0.64866203
v -1.96255443 1.67279305 0.65895809
v -1.96259665 1.68947427 0.65895809
v -1.96262194 1.70615549 0.65895809
v -1.96247003 1.65613955 0.65895809
v -1.96248691 1.85620332 0.65895809
v -1.96261353 1.75617143 0.65895809
v -1.96260506 1.77282491 0.65895809
v -1.96191310 1.83771796 0.65778975
v -1.96486660 1.93958172 0.67561511
v -1.96511978 1.65613955 0.67563947
v -1.96506914 1.65602852 0.69222349
v -1.96510290 1.65602852 0.67555833
v -1.96251226 1.83954984 0.65895809
f 1 2 3
f 1 3 4
f 1 4 5
f 1 5 14
f 1 14 29
f 1 29 41
f 1 41 58
f 1 58 74
f 1 74 61
f 1 61 44
f 1 44 30
f 1 30 15
f 1 15 6
f 1 6 16
f 1 16 17
f 1 17 7
f 1 7 8
f 1 8 9
f 1 9 10
f 1 10 2
f 2 11 3
f 2 10 11
f 3 11 12
f 3 12 4
f 4 12 5
f 5 12 13
f 5 13 14
f 6 15 16
f 7 17 32
f 7 32 46
f 7 46 63
f 7 63 76
f 7 76 77
f 7 77 64
f 7 64 49
f 7 49 47
f 7 47 33
f 7 33 18
f 7 18 19
f 7 19 20
f 7 20 21
f 7 21 8
f 8 21 22
f 8 22 23
f 8 23 9
f 9 23 10
f 10 23 11
f 11 24 25
f 11 25 12
f 11 23 26
f 11 26 27
f 11 27 24
f 12 25 28
f 12 28 29
f 12 29 13
f 13 29 14
f 15 30 31
f 15 31 32
f 15 32 16
f 16 32 17
f 18 33 34
f 18 34 19
f 19 34 35
f 19 35 36
f 19 36 37
f 19 37 20
f 20 37 22
f 20 22 21
f 22 37 38
f 22 38 39
f 22 39 40
f 22 40 23
f 23 40 26
f 24 41 25
f 24 27 41
f 25 41 28
f 26 40 42
f 26 42 43
f 26 43 41
f 26 41 27
f 28 41 29
f 30 44 45
f 30 45 31
f 31 45 46
f 31 46 32
f 33 47 35
f 33 35 34
f 35 48 36
f 35 47 48
f 36 48 37
f 37 48 38
f 38 48 49
f 38 49 39
f 39 50 40
f 39 49 51
f 39 51 52
f 39 52 53
f 39 53 50
f 40 54 42
f 40 50 55
f 40 55 56
f 40 56 54
f 41 43 57
f 41 57 58
f 42 54 59
f 42 59 60
f 42 60 43
f 43 60 59
f 43 59 58
f 43 58 57
f 44 61 62
f 44 62 45
f 45 62 76
f 45 76 63
f 45 63 46
f 47 49 48
f 49 64 65
f 49 65 51
f 50 53 66
f 50 66 67
f 50 67 68
f 50 68 55
f 51 65 69
f 51 69 52
f 52 69 53
f 53 69 66
f 54 56 70
f 54 70 59
f 55 68 56
f 56 68 71
f 56 71 72
f 56 72 73
f 56 73 70
f 58 59 74
f 59 70 74
f 61 74 75
f 61 75 62
f 62 75 76
f 64 77 69
f 64 69 65
f 66 69 75
f 66 75 67
f 67 75 68
f 68 75 71
f 69 77 75
f 70 73 78
f 70 78 74
f 71 75 72
f 72 75 74
f 72 74 78
f 72 78 73
f 75 77 76

