# https://github.com/mikedh/trimesh
v -1.83989919 -0.22827572 1.00704001
v -1.84046848 -0.38848273 1.00704001
v -1.90910547 -0.22827572 1.00704001
v -1.83952195 -0.22827572 1.12197947
v -1.83952195 -0.38848273 1.28532778
v -1.90958565 -0.38848273 1.00704001
v -1.90946901 -0.24370678 1.00704001
v -1.90947586 -0.22827572 1.00712391
v -1.83952195 -0.22827572 1.40664347
v -1.83952195 -0.38848273 1.40454602
v -1.90956503 -0.29487705 1.00704001
v -1.90862535 -0.38848273 1.77486932
v -1.90868025 -0.32702508 1.75817368
v -1.90862535 -0.22827572 1.84148391
v -1.90864598 -0.22827572 1.82361369
v -1.90947586 -0.22827572 1.00821456
v -1.83965225 -0.22827572 1.72612489
v -1.83967967 -0.22827572 1.74273655
v -1.83980317 -0.22827572 1.80943506
v -1.84013922 -0.38848273 1.69147529
v -1.90876942 -0.22827572 1.70817081
v -1.90861850 -0.38848273 1.78007094
v -1.90862535 -0.31035515 1.80817656
v -1.90852933 -0.31035515 1.85817943
v -1.90852248 -0.30445873 1.86413613
v -1.90859108 -0.22827572 1.85692099
v -1.83987857 -0.22827572 1.82487220
v -1.84023525 -0.38848273 1.72486645
v -1.84021468 -0.38848273 1.71958090
v -1.84018041 -0.38848273 1.70817081
v -1.84016664 -0.38848273 1.70296919
v -1.90858423 -0.38848273 1.79676652
v -1.90844016 -0.37703489 1.86413613
v -1.90852933 -0.29371658 1.86413613
v -1.90856366 -0.22827572 1.86363282
v -1.83988542 -0.22827572 1.82604677
v -1.84030385 -0.38848273 1.73820614
v -1.90842645 -0.38848273 1.86413613
v -1.90855681 -0.22827572 1.86413613
v -1.84000893 -0.22827572 1.84139999
v -1.84101029 -0.38848273 1.83628223
v -1.84092112 -0.38848273 1.82487220
v -1.84140124 -0.38848273 1.86413613
v -1.84052332 -0.22827572 1.86413613
v -1.84002264 -0.22827572 1.84265843
v -1.84105833 -0.38848273 1.84148391
v -1.84133955 -0.38848273 1.86103195
v -1.84020097 -0.22827572 1.85423631
v -1.84128466 -0.38848273 1.85817943
f 1 2 6
f 1 6 11
f 1 11 7
f 1 7 3
f 1 3 8
f 1 8 16
f 1 16 21
f 1 21 15
f 1 15 14
f 1 14 26
f 1 26 35
f 1 35 39
f 1 39 44
f 1 44 48
f 1 48 45
f 1 45 40
f 1 40 36
f 1 36 27
f 1 27 19
f 1 19 18
f 1 18 17
f 1 17 9
f 1 9 4
f 1 4 5
f 1 5 2
f 2 5 10
f 2 10 20
f 2 20 31
f 2 31 30
f 2 30 29
f 2 29 28
f 2 28 37
f 2 37 42
f 2 42 41
f 2 41 46
f 2 46 49
f 2 49 47
f 2 47 43
f 2 43 38
f 2 38 32
f 2 32 22
f 2 22 12
f 2 12 6
f 3 7 8
f 4 9 10
f 4 10 5
f 6 12 13
f 6 13 14
f 6 14 15
f 6 15 11
f 7 11 8
f 8 11 16
f 9 17 10
f 10 17 18
f 10 18 19
f 10 19 20
f 11 15 21
f 11 21 16
f 12 22 23
f 12 23 13
f 13 23 14
f 14 23 22
f 14 22 24
f 14 24 25
f 14 25 26
f 19 27 28
f 19 28 29
f 19 29 30
f 19 30 31
f 19 31 20
f 22 32 24
f 24 32 25
f 25 33 38
f 25 38 43
f 25 43 44
f 25 44 39
f 25 39 34
f 25 34 26
f 25 32 33
f 26 34 35
f 27 36 37
f 27 37 28
f 32 38 33
f 34 39 35
f 36 40 41
f 36 41 42
f 36 42 37
f 40 45 46
f 40 46 41
f 43 47 48
f 43 48 44
f 45 48 49
f 45 49 46
f 47 49 48

