# https://github.com/mikedh/trimesh
v -0.02258315 -0.13880284 0.79154726
v -0.02258315 -0.13888006 0.78213277
v -0.05937454 -0.13914685 0.79154726
v -0.05937454 -0.13917493 0.80819962
v -0.02258315 -0.13881688 0.79878514
v -0.02258315 -0.13928022 0.77488446
v -0.05937454 -0.13956808 0.78560072
v -0.02258315 -0.13989102 0.82487282
v -0.02258315 -0.13883795 0.80819962
v -0.05937454 -0.14109150 0.82487282
v -0.02258315 -0.14056498 0.76546999
v -0.05937454 -0.14035436 0.77488446
v -0.02258315 -0.14557053 0.84053583
v -0.05937454 -0.14750817 0.83624517
v -0.02258315 -0.14606197 0.74808863
v -0.05937454 -0.14265003 0.77059380
v -0.02258315 -0.16036959 0.84734675
v -0.05937454 -0.15577120 0.83826553
v -0.02258315 -0.14955111 0.74476647
v -0.05937454 -0.14679208 0.76291851
v -0.02258315 -0.16140160 0.84728427
v -0.05937454 -0.16036959 0.83937985
v -0.05937454 -0.17108976 0.83947358
v -0.05937454 -0.17702905 0.83951524
v -0.05937454 -0.18774921 0.83956731
v -0.05937454 -0.21036200 0.83962979
v -0.05937454 -0.21051644 0.83962979
v -0.02258315 -0.16037660 0.74095487
v -0.05937454 -0.15165022 0.76164796
v -0.02258315 -0.21051644 0.84313940
v -0.05937454 -0.21051644 0.75991920
v -0.05937454 -0.16036959 0.75937766
v -0.02258315 -0.21051644 0.75642002
f 1 2 3
f 1 3 4
f 1 4 5
f 1 5 9
f 1 9 8
f 1 8 13
f 1 13 17
f 1 17 21
f 1 21 30
f 1 30 33
f 1 33 28
f 1 28 19
f 1 19 15
f 1 15 11
f 1 11 6
f 1 6 2
f 2 6 3
f 3 6 7
f 3 7 12
f 3 12 16
f 3 16 20
f 3 20 29
f 3 29 32
f 3 32 31
f 3 31 27
f 3 27 26
f 3 26 25
f 3 25 24
f 3 24 23
f 3 23 22
f 3 22 18
f 3 18 14
f 3 14 10
f 3 10 4
f 4 8 9
f 4 9 5
f 4 10 8
f 6 11 12
f 6 12 7
f 8 10 13
f 10 14 13
f 11 15 12
f 12 15 16
f 13 14 17
f 14 18 17
f 15 19 20
f 15 20 16
f 17 18 22
f 17 22 23
f 17 23 24
f 17 24 25
f 17 25 26
f 17 26 27
f 17 27 21
f 19 28 20
f 20 28 29
f 21 27 30
f 27 31 33
f 27 33 30
f 28 32 29
f 28 33 31
f 28 31 32

