# https://github.com/mikedh/trimesh
v -0.17845871 2.02299505 1.92643093
v -0.17802261 2.02299505 1.97642372
v -0.17786605 2.00632430 1.99309777
v -0.17803376 2.00632430 1.97642372
v -0.17878298 2.00632430 1.92643093
v -0.17849228 2.03966576 1.92643093
v -0.17827978 2.03966576 1.95975946
v -0.17820154 2.03966576 1.97642372
v -0.17795551 2.02299505 1.99309777
v -0.17826863 2.00632430 2.00977176
v -0.18205943 1.99328101 2.00977176
v -0.18185815 1.99303018 1.99309777
v -0.18198119 1.99313631 1.97642372
v -0.18213774 1.99327137 1.95975946
v -0.18248438 1.99366691 1.92643093
v -0.17900663 2.05634614 1.92643093
v -0.17819032 2.03966576 1.99309777
v -0.17885008 2.05634614 1.97642372
v -0.17838046 2.02299505 2.00977176
v -0.18232782 2.02299505 2.02171105
v -0.18229430 2.00632430 2.02160370
v -0.18349077 1.99504649 2.02036388
v -0.21331423 1.97281886 2.00977176
v -0.21016082 1.97281886 1.99325391
v -0.21013845 1.97281886 1.99309777
v -0.20992595 1.97281886 1.97657993
v -0.20992595 1.97281886 1.97642372
v -0.19414760 1.98808105 1.92643093
v -0.21059691 1.97281886 1.95975946
v -0.21518171 1.97281886 1.94715629
v -0.18270803 2.06785550 1.92643093
v -0.17886128 2.05634614 1.99309777
v -0.17861527 2.03966576 2.00977176
v -0.18266330 2.06784584 1.94307569
v -0.18261857 2.06784584 1.97642372
v -0.18243965 2.03966576 2.02166227
v -0.19416996 2.03966576 2.02580150
v -0.19416996 2.02299505 2.02577215
v -0.19416996 2.00632430 2.02548909
v -0.19416996 1.99337748 2.02168183
v -0.21769775 1.97281886 2.01892879
v -0.22742645 1.97281886 1.94232397
v -0.22752706 1.97281886 1.94228491
v -0.21082057 1.98674971 1.92643093
v -0.19416996 2.07136715 1.92643093
v -0.18262972 2.06784584 1.99309777
v -0.18302115 2.06746959 2.00977176
v -0.17946515 2.05634614 2.00977176
v -0.18294284 2.05634614 2.02122295
v -0.19416996 2.05634614 2.02497165
v -0.21085409 2.03966576 2.02616268
v -0.21085409 2.02299505 2.02600654
v -0.21085409 2.00632430 2.02552810
v -0.24420003 1.97281886 2.02145722
v -0.22768362 1.97281886 2.02063727
v -0.22752706 1.97281886 2.02062749
v -0.24420003 1.97281886 1.94211899
v -0.22749348 1.98742503 1.92643093
v -0.19416996 2.07126103 1.99309777
v -0.21085409 2.07086548 1.92643093
v -0.19416996 2.07073042 2.00977176
v -0.18419531 2.06631190 2.01991478
v -0.19416996 2.06744064 2.02111560
v -0.21085409 2.05634614 2.02508878
v -0.22752706 2.03966576 2.02565502
v -0.22752706 2.02299505 2.02542075
v -0.29209423 1.97281886 2.02128152
v -0.24434537 1.97281886 2.02145722
v -0.25903903 1.97281886 1.94699037
v -0.24102419 1.99309771 1.92643093
v -0.21085409 2.07072076 1.99309777
v -0.21085409 2.07041206 2.00977176
v -0.22752706 2.06903246 1.92643093
v -0.22752706 2.06889741 1.99309777
v -0.21085409 2.06735383 2.02104725
v -0.22752706 2.05634614 2.02394665
v -0.24420003 2.03966576 2.02462024
v -0.29209423 1.97510529 2.02129130
v -0.29209423 1.97281886 1.96369364
v -0.29209423 1.99387916 1.94737106
v -0.25826745 2.01026046 1.92643093
v -0.22752706 2.06862729 2.00977176
v -0.24036444 2.06555941 2.01911427
v -0.22752706 2.06647591 2.02014905
v -0.24420003 2.06696793 1.92643093
v -0.24420003 2.06643732 1.99309777
v -0.29209423 2.04945788 2.01915340
v -0.29209423 2.04107428 2.02055914
v -0.29209423 2.03966576 2.02079341
v -0.29209423 2.02512712 2.02141822
v -0.29209423 2.00845639 2.02142800
v -0.29209423 2.00632430 1.94260709
v -0.26657597 2.01921326 1.92643093
v -0.24522879 2.06592602 2.00929343
v -0.25147973 2.06418948 2.01452600
v -0.29209423 2.05015249 2.01786473
v -0.25448780 2.06527962 1.92643093
v -0.25294464 2.06479728 2.00340671
v -0.29209423 2.02294681 1.94144534
v -0.27344200 2.03969470 1.92643093
v -0.27127260 2.02757755 1.92643093
v -0.29209423 2.05611460 1.99309777
v -0.29209423 2.05392463 2.00764357
v -0.29209423 2.05356768 2.00977176
v -0.26280753 2.06007004 1.92643093
v -0.29209423 2.05102075 1.94759561
v -0.29209423 2.05411757 1.95767034
v -0.29209423 2.05466749 1.95975946
v -0.29209423 2.05565152 1.97429554
v -0.29209423 2.05574798 1.97642372
v -0.29209423 2.05608564 1.99095981
v -0.29209423 2.03966576 1.94259731
v -0.27141795 2.05172503 1.92643093
f 1 2 3
f 1 3 4
f 1 4 5
f 1 5 15
f 1 15 28
f 1 28 44
f 1 44 58
f 1 58 70
f 1 70 81
f 1 81 93
f 1 93 101
f 1 101 100
f 1 100 113
f 1 113 105
f 1 105 97
f 1 97 85
f 1 85 73
f 1 73 60
f 1 60 45
f 1 45 31
f 1 31 16
f 1 16 6
f 1 6 2
f 2 7 8
f 2 8 9
f 2 9 3
f 2 6 7
f 3 9 10
f 3 10 11
f 3 11 12
f 3 12 13
f 3 13 4
f 4 13 14
f 4 14 15
f 4 15 5
f 6 16 7
f 7 16 8
f 8 17 9
f 8 16 18
f 8 18 17
f 9 17 33
f 9 33 19
f 9 19 10
f 10 19 20
f 10 20 21
f 10 21 22
f 10 22 11
f 11 22 23
f 11 23 24
f 11 24 25
f 11 25 12
f 12 25 26
f 12 26 27
f 12 27 13
f 13 27 14
f 14 27 15
f 15 27 29
f 15 29 30
f 15 30 28
f 16 31 18
f 17 18 32
f 17 32 33
f 18 31 34
f 18 34 35
f 18 35 46
f 18 46 32
f 19 33 36
f 19 36 20
f 20 36 37
f 20 37 38
f 20 38 21
f 21 38 39
f 21 39 22
f 22 39 40
f 22 40 41
f 22 41 23
f 23 41 56
f 23 56 55
f 23 55 54
f 23 54 68
f 23 68 67
f 23 67 79
f 23 79 69
f 23 69 57
f 23 57 43
f 23 43 42
f 23 42 30
f 23 30 29
f 23 29 27
f 23 27 26
f 23 26 25
f 23 25 24
f 28 30 42
f 28 42 43
f 28 43 44
f 31 45 35
f 31 35 34
f 32 46 47
f 32 47 48
f 32 48 33
f 33 48 49
f 33 49 36
f 35 45 46
f 36 49 37
f 37 49 50
f 37 50 51
f 37 51 38
f 38 51 52
f 38 52 39
f 39 52 53
f 39 53 54
f 39 54 55
f 39 55 56
f 39 56 40
f 40 56 41
f 43 57 44
f 44 57 58
f 45 59 46
f 45 60 59
f 46 59 47
f 47 59 61
f 47 61 62
f 47 62 48
f 48 62 49
f 49 62 50
f 50 62 63
f 50 63 64
f 50 64 51
f 51 64 65
f 51 65 52
f 52 65 66
f 52 66 53
f 53 66 67
f 53 67 68
f 53 68 54
f 57 69 70
f 57 70 58
f 59 60 71
f 59 71 72
f 59 72 61
f 60 73 74
f 60 74 71
f 61 72 75
f 61 75 63
f 61 63 62
f 63 75 64
f 64 75 76
f 64 76 77
f 64 77 65
f 65 77 67
f 65 67 66
f 67 77 78
f 67 78 91
f 67 91 90
f 67 90 89
f 67 89 88
f 67 88 87
f 67 87 96
f 67 96 104
f 67 104 103
f 67 103 102
f 67 102 111
f 67 111 110
f 67 110 109
f 67 109 108
f 67 108 107
f 67 107 106
f 67 106 112
f 67 112 99
f 67 99 92
f 67 92 80
f 67 80 79
f 69 79 80
f 69 80 70
f 70 80 81
f 71 74 82
f 71 82 72
f 72 82 83
f 72 83 84
f 72 84 75
f 73 85 74
f 74 85 86
f 74 86 82
f 75 84 76
f 76 84 83
f 76 83 87
f 76 87 88
f 76 88 89
f 76 89 77
f 77 89 90
f 77 90 91
f 77 91 78
f 80 92 93
f 80 93 81
f 82 86 94
f 82 94 83
f 83 94 95
f 83 95 96
f 83 96 87
f 85 97 86
f 86 97 98
f 86 98 94
f 92 99 100
f 92 100 101
f 92 101 93
f 94 98 95
f 95 98 102
f 95 102 103
f 95 103 104
f 95 104 96
f 97 105 106
f 97 106 107
f 97 107 108
f 97 108 109
f 97 109 110
f 97 110 111
f 97 111 102
f 97 102 98
f 99 112 100
f 100 112 113
f 105 113 106
f 106 113 112

