# https://github.com/mikedh/trimesh
v -3.96626816 -0.15143313 1.32021863
v -3.94961669 -0.15178805 1.30355515
v -3.94961669 -0.15181535 1.28689171
v -3.96626816 -0.15157875 1.23680347
v -3.97629642 -0.15204284 1.23680347
v -3.97630333 -0.15202466 1.25356478
v -3.97639334 -0.15197006 1.32021863
v -3.96626816 -0.15143313 1.33688207
v -3.94961669 -0.15176984 1.33688207
v -3.93295134 -0.15222487 1.28689171
v -3.93295134 -0.15224305 1.27022826
v -3.94961669 -0.15187904 1.25356478
v -3.94961669 -0.15191546 1.23680347
v -3.98350101 -0.16101561 1.23680347
v -3.98358404 -0.16101561 1.33688207
v -3.97639334 -0.15197006 1.33688207
v -3.96626816 -0.15147864 1.35354552
v -3.97597807 -0.15215206 1.47018973
v -3.97591578 -0.15217936 1.48677977
v -3.94961669 -0.15181535 1.35354552
v -3.93295134 -0.15220666 1.33688207
v -3.92448026 -0.15258888 1.27022826
v -3.92451489 -0.15261618 1.25356478
v -3.93295134 -0.15228856 1.25356478
v -3.94805951 -0.15195185 1.23680347
v -3.98867777 -0.17768713 1.23680347
v -3.98354947 -0.16101561 1.35354552
v -3.98877469 -0.17767804 1.48677977
v -3.98316186 -0.16101561 1.48677977
v -3.96626816 -0.15186995 1.47018973
v -3.96626816 -0.15193364 1.48677977
v -3.93295134 -0.15227947 1.35354552
v -3.92455643 -0.15264348 1.35354552
v -3.92448723 -0.15259797 1.33688207
v -3.92140052 -0.15944129 1.23680347
v -3.92065999 -0.16101561 1.33688207
v -3.92457026 -0.15265257 1.24106109
v -3.92190573 -0.15835836 1.23680347
v -3.93041836 -0.15245235 1.23680347
v -3.93151873 -0.15241596 1.23680347
v -3.98766735 -0.19434954 1.23680347
v -3.98779884 -0.19434954 1.25356478
v -3.98793033 -0.19434954 1.33688207
v -3.98794415 -0.19434954 1.35354552
v -3.98795798 -0.19434045 1.48677977
v -3.96161741 -0.15207016 1.48677977
v -3.94961669 -0.15234316 1.47018973
v -3.92461181 -0.15267987 1.36215867
v -3.94092412 -0.15266166 1.48068697
v -3.92078456 -0.16200753 1.48677977
v -3.92063233 -0.16134323 1.38687244
v -3.92144206 -0.15943220 1.36871636
v -3.92066690 -0.16101561 1.35354552
v -3.91807855 -0.17760524 1.23680347
v -3.92073610 -0.16101561 1.27022826
v -3.92079147 -0.16101561 1.25356478
v -3.98372936 -0.21099376 1.23680347
v -3.98414463 -0.21099376 1.25356478
v -3.98442149 -0.21099376 1.32021863
v -3.98448378 -0.21099376 1.33688207
v -3.98479522 -0.21100285 1.48677977
v -3.94880695 -0.15246147 1.48677977
v -3.93208623 -0.15350799 1.47018973
v -3.94164391 -0.15268895 1.48677977
v -3.93439783 -0.15349887 1.48648616
v -3.93437703 -0.15350799 1.48677977
v -3.91834153 -0.17758703 1.48677977
v -3.91808546 -0.17768713 1.23690134
v -3.92716553 -0.24438228 1.23680347
v -3.96727858 -0.24432769 1.23680347
v -3.96726475 -0.24439139 1.23685240
v -3.96714018 -0.24439139 1.43896717
v -3.97835882 -0.22288768 1.48677977
v -3.96718864 -0.24439139 1.40346248
v -3.96716789 -0.24439139 1.42012596
v -3.92775383 -0.23823968 1.48677977
v -3.92811373 -0.24439139 1.43896717
v -3.92717942 -0.24439139 1.23690134
v -3.96715401 -0.24439139 1.23680347
v -3.96885657 -0.23830337 1.48677977
v -3.96819906 -0.23830337 1.48677977
f 1 2 3
f 1 3 4
f 1 4 5
f 1 5 6
f 1 6 7
f 1 7 16
f 1 16 8
f 1 8 9
f 1 9 2
f 2 9 10
f 2 10 11
f 2 11 3
f 3 11 12
f 3 12 4
f 4 13 25
f 4 25 40
f 4 40 39
f 4 39 38
f 4 38 35
f 4 35 54
f 4 54 69
f 4 69 79
f 4 79 70
f 4 70 57
f 4 57 41
f 4 41 26
f 4 26 14
f 4 14 5
f 4 12 13
f 5 14 7
f 5 7 6
f 7 14 15
f 7 15 16
f 8 17 20
f 8 20 9
f 8 16 18
f 8 18 19
f 8 19 17
f 9 20 21
f 9 21 10
f 10 22 11
f 10 21 22
f 11 22 23
f 11 23 24
f 11 24 25
f 11 25 12
f 12 25 13
f 14 26 15
f 15 27 16
f 15 26 28
f 15 28 27
f 16 27 29
f 16 29 18
f 17 19 30
f 17 30 20
f 18 29 19
f 19 29 28
f 19 28 45
f 19 45 61
f 19 61 73
f 19 73 80
f 19 80 81
f 19 81 76
f 19 76 67
f 19 67 50
f 19 50 66
f 19 66 64
f 19 64 62
f 19 62 46
f 19 46 31
f 19 31 30
f 20 30 31
f 20 31 21
f 21 31 32
f 21 32 33
f 21 33 34
f 21 34 22
f 22 35 23
f 22 34 36
f 22 36 35
f 23 37 24
f 23 35 38
f 23 38 37
f 24 37 39
f 24 39 40
f 24 40 25
f 26 41 42
f 26 42 43
f 26 43 44
f 26 44 28
f 27 28 29
f 28 44 45
f 31 46 47
f 31 47 32
f 32 48 33
f 32 47 49
f 32 49 48
f 33 48 50
f 33 50 34
f 34 50 51
f 34 51 52
f 34 52 53
f 34 53 36
f 35 36 55
f 35 55 56
f 35 56 54
f 36 53 54
f 36 54 55
f 37 38 39
f 41 57 58
f 41 58 42
f 42 58 59
f 42 59 60
f 42 60 61
f 42 61 43
f 43 61 44
f 44 61 45
f 46 62 49
f 46 49 47
f 48 49 63
f 48 63 50
f 49 62 64
f 49 64 65
f 49 65 63
f 50 63 66
f 50 67 51
f 51 54 53
f 51 53 52
f 51 67 54
f 54 68 69
f 54 56 55
f 54 67 68
f 57 70 71
f 57 71 58
f 58 71 59
f 59 71 60
f 60 71 61
f 61 72 73
f 61 71 74
f 61 74 75
f 61 75 72
f 63 65 66
f 64 66 65
f 67 76 77
f 67 77 69
f 67 69 68
f 69 78 79
f 69 77 78
f 70 79 71
f 71 79 78
f 71 78 77
f 71 77 72
f 71 72 75
f 71 75 74
f 72 77 81
f 72 81 80
f 72 80 73
f 76 81 77

