# https://github.com/mikedh/trimesh
v 1.14187040 -0.46198141 0.17910331
v 1.14187040 -0.46198141 0.13463348
v 1.32323975 -0.46198141 0.17953968
v 1.32419025 -0.41097253 0.18008388
v 1.14187040 -0.41097253 0.17957563
v 1.14187040 -0.22669808 0.13346296
v 1.55602159 -0.22669808 0.12978198
v 1.74076084 -0.22586603 0.12882705
v 1.39176094 -0.46198141 0.13353484
v 1.40748709 -0.41097253 0.18022765
v 1.47307037 -0.46198141 0.17966807
v 1.40748709 -0.39430856 0.18026359
v 1.32419025 -0.39430856 0.18011469
v 1.30759999 -0.39430856 0.18007875
v 1.14187040 -0.40988625 0.17957563
v 1.14187040 -0.22669808 0.17948324
v 1.63612131 -0.22586603 0.12975117
v 1.72408417 -0.22586603 0.12894513
v 2.02460949 -0.22586603 0.12783105
v 1.49173440 -0.46198141 0.13314467
v 1.45743064 -0.41097253 0.18026871
v 1.47410726 -0.46198141 0.17966807
v 1.39081041 -0.22669808 0.17964751
v 1.42407734 -0.39430856 0.18027384
v 1.65746400 -0.22586603 0.17954487
v 1.64260187 -0.22586603 0.17951405
v 1.64078732 -0.22586603 0.17950893
v 1.63612131 -0.22586603 0.17948836
v 2.02460949 -0.22586603 0.17978615
v 2.02460949 -0.45978574 0.13172773
v 1.52508770 -0.46198141 0.13304197
v 1.45743064 -0.39430856 0.18027384
v 1.48983341 -0.46198141 0.17964238
v 1.72408417 -0.45978574 0.17925733
v 1.67405425 -0.41099565 0.17979128
v 2.02460949 -0.29437093 0.17953968
v 2.02460949 -0.24387052 0.17975533
v 2.02460949 -0.22764568 0.17979128
v 1.40748709 -0.22669808 0.17965263
v 2.02409105 -0.22586603 0.17978615
v 2.02460949 -0.22720654 0.17979128
v 2.02460949 -0.45978574 0.17854887
v 1.63603494 -0.46198141 0.13277499
v 1.62402427 -0.46198141 0.13279556
v 1.63603494 -0.46198141 0.17920089
v 1.99186101 -0.45978574 0.17863613
v 1.97406113 -0.45978574 0.17868232
v 1.72408417 -0.41099565 0.17965782
v 2.02460949 -0.31103490 0.17945242
f 1 2 9
f 1 9 20
f 1 20 31
f 1 31 44
f 1 44 43
f 1 43 45
f 1 45 33
f 1 33 22
f 1 22 11
f 1 11 3
f 1 3 4
f 1 4 5
f 1 5 15
f 1 15 16
f 1 16 6
f 1 6 2
f 2 6 7
f 2 7 8
f 2 8 9
f 3 10 4
f 3 11 10
f 4 10 12
f 4 12 13
f 4 13 14
f 4 14 5
f 5 14 15
f 6 16 28
f 6 28 17
f 6 17 18
f 6 18 7
f 7 18 8
f 8 18 17
f 8 17 28
f 8 28 27
f 8 27 26
f 8 26 25
f 8 25 40
f 8 40 29
f 8 29 19
f 8 19 20
f 8 20 9
f 10 11 21
f 10 21 12
f 11 22 21
f 12 23 16
f 12 16 13
f 12 21 24
f 12 24 23
f 13 16 14
f 14 16 15
f 16 23 25
f 16 25 26
f 16 26 27
f 16 27 28
f 19 29 41
f 19 41 38
f 19 38 37
f 19 37 36
f 19 36 49
f 19 49 42
f 19 42 30
f 19 30 31
f 19 31 20
f 21 32 24
f 21 22 33
f 21 33 34
f 21 34 35
f 21 35 36
f 21 36 37
f 21 37 38
f 21 38 32
f 23 24 39
f 23 39 40
f 23 40 25
f 24 32 41
f 24 41 39
f 29 40 41
f 30 42 45
f 30 45 43
f 30 43 44
f 30 44 31
f 32 38 41
f 33 45 42
f 33 42 46
f 33 46 47
f 33 47 34
f 34 47 35
f 35 47 46
f 35 46 42
f 35 42 48
f 35 48 49
f 35 49 36
f 39 41 40
f 42 49 48

