# https://github.com/mikedh/trimesh
v -0.28008938 2.02252730 0.73716317
v -0.27579532 2.02199694 0.74245204
v -0.27463691 2.03966990 0.74245204
v -0.28008938 2.02980691 0.73654499
v -0.28008938 1.98382815 0.72862313
v -0.27507628 2.02010646 0.74245204
v -0.27462695 2.03977255 0.74245204
v -0.26852540 2.06333935 0.74245204
v -0.28008938 2.04175714 0.72841707
v -0.22780195 1.98382815 0.73134769
v -0.21085545 1.98676223 0.74245204
v -0.22753231 1.98723271 0.74245204
v -0.24092376 1.99292126 0.74245204
v -0.27184081 2.01265577 0.74245204
v -0.28008938 1.98382815 0.64927854
v -0.26023693 2.06774475 0.74245204
v -0.26857532 2.06331370 0.74232611
v -0.28008938 2.04719759 0.71240161
v -0.22753231 1.98382815 0.73134769
v -0.21073564 1.98677079 0.74245204
v -0.21147465 1.98382815 0.72632211
v -0.28008938 2.02285236 0.64125362
v -0.27012320 2.02659909 0.62550148
v -0.26771655 2.01822454 0.62550148
v -0.24023472 1.99323776 0.62550148
v -0.22753231 1.98762621 0.62550148
v -0.22753231 1.98382815 0.63804826
v -0.24419920 2.07087559 0.74245204
v -0.24419920 2.07096111 0.69229929
v -0.24419920 2.07096967 0.67563133
v -0.24419920 2.07098679 0.62560451
v -0.26023693 2.06774475 0.74232611
v -0.26808603 2.06364730 0.70897874
v -0.26829573 2.06353610 0.72565815
v -0.28008938 2.04750554 0.69619155
v -0.28008938 2.04753976 0.70897874
v -0.19417866 1.98811379 0.74232611
v -0.19408878 1.98814801 0.74245204
v -0.21068572 1.98382815 0.72596724
v -0.28008938 2.02510212 0.64156271
v -0.26991349 2.05283480 0.62550148
v -0.27083221 2.03966990 0.62550148
v -0.21085545 1.98695899 0.62550148
v -0.21112510 1.98382815 0.64255866
v -0.22764217 2.07101245 0.74245204
v -0.22753231 2.07113220 0.69229929
v -0.24419920 2.07098679 0.62550148
v -0.25972765 2.06778752 0.62550148
v -0.26792624 2.06332222 0.65895192
v -0.28008938 2.04726602 0.67563133
v -0.20561275 1.98382815 0.70897874
v -0.19417866 1.98781439 0.69229929
v -0.18222524 1.99360558 0.74245204
v -0.28008938 2.03830123 0.64396677
v -0.26806605 2.06117514 0.62550148
v -0.19417866 1.98829343 0.62550148
v -0.21078556 1.98382815 0.64332568
v -0.21096532 2.07113220 0.74245204
v -0.21085545 2.07121776 0.69229929
v -0.22753231 2.07113220 0.62550148
v -0.26802609 2.06227006 0.64228393
v -0.28008938 2.04538411 0.65895192
v -0.20536309 1.98382815 0.69229929
v -0.19417866 1.98781439 0.67563133
v -0.18217532 1.99349438 0.69229929
v -0.17857030 2.00632566 0.74245204
v -0.18216530 1.99355426 0.70897874
v -0.17826076 2.00632566 0.62560451
v -0.17848042 2.00632566 0.70897874
v -0.28008938 2.03899412 0.64524890
v -0.18222524 1.99367402 0.62550148
v -0.20537311 1.98382815 0.67563133
v -0.20602219 1.98382815 0.65919230
v -0.20605213 1.98382815 0.65895192
v -0.21085545 2.07113220 0.74245204
v -0.19417866 2.07073015 0.69229929
v -0.19417866 2.07074727 0.67563133
v -0.21085545 2.07120063 0.62550148
v -0.18219530 1.99352860 0.67563133
v -0.18215534 1.99370824 0.62560451
v -0.17862028 2.02299778 0.74245204
v -0.17808100 2.02299778 0.62560451
v -0.17811094 2.03966990 0.62560451
v -0.18213536 1.99377668 0.62550148
v -0.17826076 2.00641976 0.62550148
v -0.19417866 2.07064463 0.74245204
v -0.18302413 2.06742823 0.74245204
v -0.18292429 2.06745391 0.69229929
v -0.18290431 2.06746248 0.67563133
v -0.18288433 2.06747102 0.65895192
v -0.18284437 2.06746248 0.62560451
v -0.18284437 2.06746248 0.62550148
v -0.19417866 2.07073872 0.64228393
v -0.19417866 2.07073015 0.62550148
v -0.17871010 2.03966990 0.74245204
v -0.17808100 2.02309188 0.62550148
v -0.17812096 2.03976399 0.62550148
v -0.17898975 2.05634201 0.62560451
v -0.17937921 2.05623082 0.74245204
v -0.18292429 2.06732559 0.74245204
v -0.18294427 2.06740259 0.74232611
v -0.17900974 2.05641045 0.62550148
v -0.17938917 2.05634201 0.74245204
f 1 2 3
f 1 3 4
f 1 4 9
f 1 9 18
f 1 18 36
f 1 36 35
f 1 35 50
f 1 50 62
f 1 62 70
f 1 70 54
f 1 54 40
f 1 40 22
f 1 22 15
f 1 15 5
f 1 5 2
f 2 6 14
f 2 14 13
f 2 13 12
f 2 12 11
f 2 11 20
f 2 20 38
f 2 38 53
f 2 53 66
f 2 66 81
f 2 81 95
f 2 95 99
f 2 99 103
f 2 103 100
f 2 100 87
f 2 87 86
f 2 86 75
f 2 75 58
f 2 58 45
f 2 45 28
f 2 28 16
f 2 16 8
f 2 8 7
f 2 7 3
f 2 5 6
f 3 7 4
f 4 7 8
f 4 8 9
f 5 10 11
f 5 11 12
f 5 12 13
f 5 13 14
f 5 14 6
f 5 15 27
f 5 27 44
f 5 44 57
f 5 57 74
f 5 74 73
f 5 73 72
f 5 72 63
f 5 63 51
f 5 51 39
f 5 39 21
f 5 21 19
f 5 19 10
f 8 16 17
f 8 17 9
f 9 17 18
f 10 19 11
f 11 19 21
f 11 21 20
f 15 22 23
f 15 23 24
f 15 24 25
f 15 25 26
f 15 26 27
f 16 28 29
f 16 29 30
f 16 30 31
f 16 31 47
f 16 47 32
f 16 32 33
f 16 33 34
f 16 34 17
f 17 34 35
f 17 35 36
f 17 36 18
f 20 37 38
f 20 21 39
f 20 39 37
f 22 40 41
f 22 41 42
f 22 42 23
f 23 42 41
f 23 41 55
f 23 55 48
f 23 48 47
f 23 47 60
f 23 60 78
f 23 78 94
f 23 94 92
f 23 92 102
f 23 102 97
f 23 97 96
f 23 96 85
f 23 85 84
f 23 84 71
f 23 71 56
f 23 56 43
f 23 43 26
f 23 26 25
f 23 25 24
f 26 43 27
f 27 43 44
f 28 45 46
f 28 46 29
f 29 46 30
f 30 46 31
f 31 46 60
f 31 60 47
f 32 47 48
f 32 48 33
f 33 35 34
f 33 48 49
f 33 49 35
f 35 49 50
f 37 39 51
f 37 51 52
f 37 52 38
f 38 52 53
f 40 54 41
f 41 54 55
f 43 56 44
f 44 56 57
f 45 58 46
f 46 59 60
f 46 58 59
f 48 55 61
f 48 61 49
f 49 61 50
f 50 61 55
f 50 55 62
f 51 63 52
f 52 63 64
f 52 64 65
f 52 65 53
f 53 65 67
f 53 67 68
f 53 68 69
f 53 69 66
f 54 70 55
f 55 70 62
f 56 71 64
f 56 64 72
f 56 72 73
f 56 73 74
f 56 74 57
f 58 75 59
f 59 76 77
f 59 77 78
f 59 78 60
f 59 75 86
f 59 86 76
f 63 72 64
f 64 71 79
f 64 79 65
f 65 79 80
f 65 80 68
f 65 68 67
f 66 69 82
f 66 82 83
f 66 83 81
f 68 80 84
f 68 84 85
f 68 85 96
f 68 96 82
f 68 82 69
f 71 84 80
f 71 80 79
f 76 86 87
f 76 87 88
f 76 88 77
f 77 88 89
f 77 89 90
f 77 90 91
f 77 91 92
f 77 92 93
f 77 93 78
f 78 93 94
f 81 83 95
f 82 96 83
f 83 96 97
f 83 97 98
f 83 98 99
f 83 99 95
f 87 100 101
f 87 101 88
f 88 101 89
f 89 101 90
f 90 101 91
f 91 102 92
f 91 101 102
f 92 94 93
f 97 102 98
f 98 102 103
f 98 103 99
f 100 103 101
f 101 103 102

