# https://github.com/mikedh/trimesh
v -3.76447509 1.62618673 0.37745368
v -3.76693094 1.62618673 0.37776321
v -3.74780707 1.62618673 0.37967681
v -3.76448397 1.60939517 0.35881027
v -3.78114311 1.60983603 0.35881027
v -3.79781996 1.60848408 0.35881027
v -3.77702929 1.62618673 0.38057733
v -3.72386012 1.62618673 0.38339145
v -3.75155737 1.60318406 0.35881027
v -3.81012593 1.60253748 0.35881027
v -3.78505296 1.62618673 0.39260758
v -3.72386012 1.62219946 0.38250500
v -3.72652877 1.55605212 0.35881027
v -3.73057168 1.57271632 0.35881027
v -3.73691083 1.58357106 0.35881027
v -3.72386012 1.62618673 0.44222016
v -3.81420427 1.58942949 0.35881027
v -3.81017025 1.60264525 0.39212920
v -3.81017913 1.60273342 0.40881684
v -3.78774821 1.62618673 0.40880277
v -3.78572678 1.62618673 0.39639254
v -3.72386012 1.61175618 0.38128086
v -3.72386901 1.57271632 0.37252903
v -3.72386901 1.55606191 0.37561046
v -3.72916199 1.53936834 0.35881027
v -3.75468705 1.62618673 0.46875715
v -3.75130915 1.60330163 0.50255446
v -3.73486275 1.58477605 0.50255446
v -3.72752174 1.57271632 0.50255446
v -3.72386901 1.59896168 0.46826464
v -3.72386901 1.59321102 0.47309087
v -3.72386901 1.57474423 0.48036526
v -3.72386012 1.61175618 0.44753880
v -3.81437269 1.57276530 0.35881027
v -3.81423975 1.58938051 0.37546977
v -3.81426635 1.58938051 0.39212920
v -3.81017913 1.60277260 0.44214984
v -3.81017025 1.60276280 0.42547628
v -3.78774821 1.62618673 0.40902785
v -3.72386901 1.55058556 0.39342371
v -3.72386901 1.55069333 0.39212920
v -3.72386901 1.55554269 0.37686275
v -3.72386901 1.54930220 0.45880928
v -3.72811577 1.53936834 0.47549692
v -3.73572278 1.52885646 0.35881027
v -3.76216995 1.62618673 0.47062852
v -3.76448397 1.60931680 0.50255446
v -3.75951013 1.60706355 0.50255446
v -3.72493289 1.55605212 0.50255446
v -3.72386901 1.57271632 0.48075926
v -3.72386901 1.55496469 0.47656623
v -3.81443478 1.55610110 0.35881027
v -3.81437269 1.57271632 0.37546977
v -3.81425747 1.58938051 0.45880928
v -3.81017025 1.60276280 0.45880928
v -3.78772167 1.62618673 0.42547628
v -3.72687457 1.54567740 0.50255446
v -3.72809805 1.53936834 0.50255446
v -3.73529718 1.52887605 0.50255446
v -3.73532378 1.52885646 0.49215636
v -3.73537698 1.52882709 0.47549692
v -3.74777164 1.52656406 0.35881027
v -3.73550115 1.52879769 0.45880928
v -3.74780707 1.52642688 0.45880928
v -3.74780707 1.52644648 0.44214984
v -3.76420909 1.62618673 0.47103653
v -3.78114311 1.60976745 0.50255446
v -3.81257296 1.53941730 0.35881027
v -3.81258178 1.53936834 0.37546977
v -3.81266158 1.53936834 0.49215636
v -3.81434615 1.55605212 0.49215636
v -3.81431955 1.57271632 0.47549692
v -3.81429295 1.57271632 0.49215636
v -3.81426635 1.57271632 0.50255446
v -3.81418655 1.58938051 0.47549692
v -3.81156222 1.59762934 0.50255446
v -3.81002842 1.60262566 0.50255446
v -3.78757978 1.62618673 0.44213577
v -3.74001391 1.52797475 0.50255446
v -3.74780707 1.52644648 0.47549692
v -3.76448397 1.52616237 0.40881684
v -3.76448397 1.52622115 0.39212920
v -3.76443960 1.52639751 0.35881027
v -3.76448397 1.52622115 0.49215636
v -3.76448397 1.52617219 0.42547628
v -3.77542458 1.62618673 0.46931993
v -3.79781996 1.60864083 0.50255446
v -3.80844136 1.52916016 0.35881027
v -3.80845025 1.52911119 0.37546977
v -3.80852116 1.52904260 0.44214984
v -3.80855665 1.52901323 0.49215636
v -3.80854776 1.52901323 0.50255446
v -3.81264387 1.53936834 0.50255446
v -3.81431955 1.55605212 0.50255446
v -3.81429295 1.56641704 0.50255446
v -3.81414218 1.58309102 0.50255446
v -3.81406238 1.58938051 0.50255446
v -3.78351033 1.62618673 0.45800728
v -3.74780707 1.52652484 0.50255446
v -3.74780707 1.52648566 0.49215636
v -3.76448397 1.52624074 0.50255446
v -3.78114311 1.52610360 0.44214984
v -3.78114311 1.52611341 0.42547628
v -3.78114311 1.52614278 0.40881684
v -3.78114311 1.52618197 0.39212920
v -3.78109874 1.52631911 0.35881027
v -3.78114311 1.52615259 0.50255446
v -3.78114311 1.52614278 0.49215636
v -3.78114311 1.52611341 0.45880928
v -3.79777565 1.52675017 0.35881027
v -3.79781996 1.52670120 0.37546977
v -3.79781996 1.52661302 0.42547628
v -3.79781996 1.52658362 0.44214984
v -3.79781996 1.52655425 0.49215636
v -3.80188058 1.52749473 0.50255446
v -3.78114311 1.52625055 0.37546977
v -3.78744678 1.52629952 0.50255446
v -3.79781996 1.52657384 0.50255446
f 1 2 7
f 1 7 11
f 1 11 21
f 1 21 20
f 1 20 39
f 1 39 56
f 1 56 78
f 1 78 98
f 1 98 86
f 1 86 66
f 1 66 46
f 1 46 26
f 1 26 16
f 1 16 8
f 1 8 3
f 1 3 4
f 1 4 5
f 1 5 6
f 1 6 2
f 2 6 7
f 3 8 4
f 4 8 9
f 4 9 15
f 4 15 14
f 4 14 13
f 4 13 25
f 4 25 45
f 4 45 62
f 4 62 83
f 4 83 106
f 4 106 110
f 4 110 88
f 4 88 68
f 4 68 52
f 4 52 34
f 4 34 17
f 4 17 10
f 4 10 6
f 4 6 5
f 6 10 7
f 7 10 11
f 8 12 13
f 8 13 14
f 8 14 15
f 8 15 9
f 8 16 33
f 8 33 22
f 8 22 12
f 10 17 18
f 10 18 19
f 10 19 20
f 10 20 21
f 10 21 11
f 12 22 23
f 12 23 13
f 13 23 24
f 13 24 25
f 16 26 27
f 16 27 28
f 16 28 29
f 16 29 30
f 16 30 31
f 16 31 32
f 16 32 33
f 17 34 35
f 17 35 36
f 17 36 19
f 17 19 18
f 19 37 38
f 19 38 20
f 19 36 37
f 20 38 37
f 20 37 39
f 22 40 41
f 22 41 42
f 22 42 24
f 22 24 23
f 22 33 43
f 22 43 40
f 24 42 25
f 25 42 41
f 25 41 40
f 25 40 44
f 25 44 45
f 26 46 47
f 26 47 48
f 26 48 27
f 27 48 47
f 27 47 67
f 27 67 87
f 27 87 77
f 27 77 76
f 27 76 97
f 27 97 96
f 27 96 74
f 27 74 95
f 27 95 94
f 27 94 93
f 27 93 92
f 27 92 115
f 27 115 118
f 27 118 117
f 27 117 107
f 27 107 101
f 27 101 99
f 27 99 79
f 27 79 59
f 27 59 58
f 27 58 57
f 27 57 49
f 27 49 29
f 27 29 28
f 29 49 31
f 29 31 30
f 31 49 32
f 32 49 50
f 32 50 33
f 33 51 43
f 33 50 51
f 34 52 53
f 34 53 36
f 34 36 35
f 36 53 54
f 36 54 37
f 37 54 55
f 37 55 39
f 39 55 56
f 40 43 44
f 43 51 49
f 43 49 57
f 43 57 58
f 43 58 44
f 44 58 59
f 44 59 60
f 44 60 61
f 44 61 45
f 45 61 63
f 45 63 64
f 45 64 65
f 45 65 62
f 46 66 47
f 47 66 67
f 49 51 50
f 52 68 69
f 52 69 70
f 52 70 71
f 52 71 72
f 52 72 53
f 53 72 54
f 54 72 73
f 54 73 74
f 54 74 75
f 54 75 76
f 54 76 55
f 55 76 77
f 55 77 56
f 56 77 78
f 59 79 80
f 59 80 60
f 60 80 64
f 60 64 61
f 61 64 63
f 62 81 82
f 62 82 83
f 62 65 81
f 64 80 84
f 64 84 85
f 64 85 81
f 64 81 65
f 66 86 87
f 66 87 67
f 68 88 89
f 68 89 69
f 69 89 90
f 69 90 91
f 69 91 70
f 70 91 92
f 70 92 93
f 70 93 71
f 71 93 94
f 71 94 95
f 71 95 73
f 71 73 72
f 73 95 74
f 74 96 75
f 75 96 97
f 75 97 76
f 77 87 98
f 77 98 78
f 79 99 100
f 79 100 80
f 80 100 101
f 80 101 84
f 81 85 109
f 81 109 102
f 81 102 103
f 81 103 104
f 81 104 105
f 81 105 82
f 82 105 106
f 82 106 83
f 84 101 107
f 84 107 108
f 84 108 109
f 84 109 85
f 86 98 87
f 88 110 111
f 88 111 89
f 89 111 112
f 89 112 113
f 89 113 90
f 90 113 91
f 91 114 92
f 91 113 114
f 92 114 115
f 99 101 100
f 102 109 114
f 102 114 103
f 103 112 111
f 103 111 104
f 103 114 113
f 103 113 112
f 104 111 105
f 105 111 110
f 105 110 116
f 105 116 106
f 106 116 110
f 107 117 108
f 108 117 109
f 109 117 114
f 114 117 118
f 114 118 115

