# https://github.com/mikedh/trimesh
v -2.04675683 1.62275006 0.37795323
v -2.06342431 1.62275006 0.37937544
v -2.03476749 1.62275006 0.38097204
v -2.01340266 1.60674717 0.35880759
v -2.03007974 1.60800670 0.35880759
v -2.04675683 1.60790907 0.35880759
v -2.09667245 1.62275006 0.38258200
v -2.02778409 1.62275006 0.39212133
v -2.00184733 1.60161141 0.35880759
v -2.06050171 1.60275377 0.35880759
v -2.06881613 1.59343909 0.35880759
v -2.07524970 1.58508128 0.35880759
v -2.08189547 1.57276912 0.35880759
v -2.09667245 1.62178343 0.38239418
v -2.09667245 1.62275006 0.44183023
v -2.02441781 1.62275006 0.40879830
v -2.00183767 1.60165046 0.37544430
v -2.00179908 1.60170904 0.40879830
v -1.99844246 1.58938712 0.35880759
v -2.08508813 1.55610229 0.35880759
v -2.09667245 1.62165651 0.38238077
v -2.09667245 1.62274029 0.44228642
v -2.05788781 1.62275006 0.46929428
v -2.02446606 1.62275006 0.42547526
v -2.00183767 1.60169928 0.42547526
v -1.99851964 1.58938712 0.40879830
v -1.99846173 1.58938712 0.37544430
v -1.99822060 1.57272030 0.35880759
v -2.08340983 1.53940618 0.35880759
v -2.09667245 1.57254456 0.37764465
v -2.09667245 1.57272030 0.37761781
v -2.09667245 1.60595629 0.38082442
v -2.09667245 1.59888731 0.46783182
v -2.06105148 1.60269519 0.49587279
v -2.04675683 1.60784072 0.49587279
v -2.04675683 1.62275006 0.47156167
v -2.02471685 1.62275006 0.44213881
v -2.00204987 1.60156260 0.49587279
v -2.00136501 1.59886777 0.49587279
v -1.99896331 1.58938712 0.49587279
v -1.99893438 1.58569640 0.49587279
v -1.99870286 1.55604371 0.49587279
v -1.99821094 1.55604371 0.37544430
v -1.99814342 1.55604371 0.35880759
v -2.09667245 1.56102325 0.38040849
v -2.07675439 1.52759197 0.35880759
v -2.09667245 1.55623899 0.39212133
v -2.09667245 1.58946523 0.47068959
v -2.08352559 1.57272030 0.49587279
v -2.07629145 1.58630175 0.49587279
v -2.07100568 1.59279469 0.49587279
v -2.06938523 1.59464006 0.49587279
v -2.06754297 1.59644634 0.49587279
v -2.03377399 1.60794812 0.49587279
v -2.03562591 1.62275006 0.46942842
v -2.03007974 1.60795789 0.49587279
v -2.01709690 1.60694245 0.49587279
v -2.01340266 1.60663977 0.49587279
v -2.02886443 1.62275006 0.45881578
v -2.00455773 1.60270495 0.49587279
v -1.99875111 1.55235300 0.49587279
v -1.99873178 1.53936713 0.35880759
v -1.99894399 1.53936713 0.49587279
v -1.99893438 1.53936713 0.49216977
v -2.09667245 1.55419836 0.44213881
v -2.09667245 1.55441315 0.42566307
v -2.09667245 1.55465725 0.40897269
v -2.09667245 1.55466702 0.40879830
v -2.06338573 1.52383289 0.35880759
v -2.06342431 1.52378408 0.37544430
v -2.06342431 1.52368645 0.40879830
v -2.07713061 1.52743575 0.49216977
v -2.07714987 1.52743575 0.49587279
v -2.09667245 1.57272030 0.47381569
v -2.08613949 1.55604372 0.49587279
v -2.08562830 1.55973443 0.49587279
v -2.00220422 1.52807041 0.40879830
v -2.00223315 1.52814852 0.35880759
v -2.00217524 1.52794347 0.49587279
v -2.00217524 1.52794347 0.47549281
v -2.09667245 1.55419836 0.44232668
v -2.04671824 1.52348141 0.35880759
v -2.04675683 1.52343259 0.37544430
v -2.04675683 1.52339353 0.39212133
v -2.04675683 1.52332518 0.42547526
v -2.04675683 1.52329589 0.44213881
v -2.04675683 1.52326661 0.45881578
v -2.06342431 1.52360834 0.47549281
v -2.07876066 1.53008176 0.49587279
v -2.09667245 1.55528213 0.45881578
v -2.06342431 1.52360834 0.49216977
v -2.06342431 1.52361810 0.49587279
v -2.09667245 1.56039838 0.47101160
v -2.08429723 1.53936713 0.49587279
v -2.01337373 1.52424300 0.35880759
v -2.01340266 1.52392078 0.45881578
v -2.01340266 1.52396960 0.44213881
v -2.01340266 1.52389149 0.49587279
v -2.01340266 1.52389149 0.47549281
v -2.03004115 1.52329589 0.35880759
v -2.03007974 1.52303228 0.44213881
v -2.04675683 1.52324708 0.47549281
v -2.09667245 1.55534072 0.45901707
v -2.04675683 1.52324708 0.49216977
v -2.04675683 1.52325686 0.49587279
v -2.03007974 1.52302253 0.49587279
v -2.03007974 1.52301275 0.45881578
v -2.04306265 1.52319826 0.49587279
f 1 2 7
f 1 7 15
f 1 15 23
f 1 23 36
f 1 36 55
f 1 55 59
f 1 59 37
f 1 37 24
f 1 24 16
f 1 16 8
f 1 8 3
f 1 3 4
f 1 4 5
f 1 5 6
f 1 6 2
f 2 6 7
f 3 8 9
f 3 9 4
f 4 9 19
f 4 19 28
f 4 28 44
f 4 44 62
f 4 62 78
f 4 78 95
f 4 95 100
f 4 100 82
f 4 82 69
f 4 69 46
f 4 46 29
f 4 29 20
f 4 20 13
f 4 13 12
f 4 12 11
f 4 11 10
f 4 10 6
f 4 6 5
f 6 10 7
f 7 10 11
f 7 11 12
f 7 12 13
f 7 13 14
f 7 14 21
f 7 21 32
f 7 32 31
f 7 31 30
f 7 30 45
f 7 45 47
f 7 47 68
f 7 68 67
f 7 67 66
f 7 66 65
f 7 65 81
f 7 81 90
f 7 90 103
f 7 103 93
f 7 93 74
f 7 74 48
f 7 48 33
f 7 33 22
f 7 22 15
f 8 16 9
f 9 17 18
f 9 18 19
f 9 16 17
f 13 20 14
f 14 20 21
f 15 22 23
f 16 24 18
f 16 18 17
f 18 24 25
f 18 25 26
f 18 26 27
f 18 27 19
f 19 27 28
f 20 29 30
f 20 30 31
f 20 31 32
f 20 32 21
f 22 33 34
f 22 34 23
f 23 34 35
f 23 35 36
f 24 37 38
f 24 38 25
f 25 38 26
f 26 28 27
f 26 38 39
f 26 39 40
f 26 40 41
f 26 41 42
f 26 42 28
f 28 43 44
f 28 42 43
f 29 45 30
f 29 46 47
f 29 47 45
f 33 48 49
f 33 49 50
f 33 50 51
f 33 51 52
f 33 52 53
f 33 53 34
f 34 53 52
f 34 52 51
f 34 51 50
f 34 50 49
f 34 49 76
f 34 76 75
f 34 75 94
f 34 94 89
f 34 89 73
f 34 73 92
f 34 92 105
f 34 105 108
f 34 108 106
f 34 106 98
f 34 98 79
f 34 79 63
f 34 63 61
f 34 61 42
f 34 42 41
f 34 41 40
f 34 40 39
f 34 39 38
f 34 38 60
f 34 60 58
f 34 58 57
f 34 57 56
f 34 56 54
f 34 54 35
f 35 54 36
f 36 54 56
f 36 56 57
f 36 57 58
f 36 58 55
f 37 59 38
f 38 59 60
f 42 61 43
f 43 61 44
f 44 61 63
f 44 63 64
f 44 64 62
f 46 65 66
f 46 66 67
f 46 67 68
f 46 68 47
f 46 69 70
f 46 70 71
f 46 71 72
f 46 72 73
f 46 73 65
f 48 74 75
f 48 75 76
f 48 76 49
f 55 58 59
f 58 60 59
f 62 77 78
f 62 64 79
f 62 79 80
f 62 80 77
f 63 79 64
f 65 73 81
f 69 82 83
f 69 83 70
f 70 83 71
f 71 83 84
f 71 84 85
f 71 85 86
f 71 86 87
f 71 87 88
f 71 88 73
f 71 73 72
f 73 89 90
f 73 90 81
f 73 88 91
f 73 91 92
f 74 93 75
f 75 93 94
f 77 80 78
f 78 80 96
f 78 96 97
f 78 97 95
f 79 98 99
f 79 99 80
f 80 99 96
f 82 100 101
f 82 101 83
f 83 101 84
f 84 101 85
f 85 101 86
f 86 101 87
f 87 102 88
f 87 101 107
f 87 107 102
f 88 102 104
f 88 104 91
f 89 94 90
f 90 94 103
f 91 104 105
f 91 105 92
f 93 103 94
f 95 97 100
f 96 99 101
f 96 101 97
f 97 101 100
f 98 106 107
f 98 107 99
f 99 107 101
f 102 107 104
f 104 106 108
f 104 108 105
f 104 107 106

