# https://github.com/mikedh/trimesh
v -3.53311369 -0.73698109 1.09735258
v -3.53311369 -0.73552192 1.09742182
v -3.53311369 -0.78694034 1.09735258
v -3.54342937 -0.73553608 1.09735258
v -3.53453021 -0.72357220 1.16043448
v -3.53311369 -0.73431775 1.13439849
v -3.59962657 -0.73545818 1.09735258
v -3.61009621 -0.73544399 1.09735258
v -3.53311369 -0.78963911 1.13439849
v -3.53453021 -0.79420081 1.15355156
v -3.54964958 -0.79427165 1.15355156
v -3.64966518 -0.78712449 1.09735258
v -3.53453021 -0.72357220 1.21588563
v -3.79959626 -0.72357220 1.16024060
v -3.53453021 -0.72365723 1.22463815
v -3.53453021 -0.73359522 1.23883332
v -3.84766416 -0.73541568 1.09735258
v -3.53453021 -0.78753535 1.23883332
v -3.53453021 -0.79187037 1.22020650
v -3.53453021 -0.79556082 1.20353238
v -3.53453021 -0.79550417 1.18685827
v -3.53453021 -0.79549001 1.18529333
v -3.53453021 -0.79534123 1.17021184
v -3.53453021 -0.79524208 1.16861920
v -3.56630856 -0.79538376 1.17021184
v -3.64963443 -0.79544751 1.17021184
v -3.71623963 -0.79543332 1.17021184
v -3.74958846 -0.79417956 1.15355156
v -3.66629340 -0.78713868 1.09735258
v -3.65585458 -0.78713158 1.09735258
v -3.54860262 -0.72357220 1.22459661
v -3.81625530 -0.72357220 1.16029600
v -3.56529241 -0.72357220 1.22461046
v -3.56630856 -0.72357220 1.22461046
v -3.83291433 -0.72357220 1.22455506
v -3.84766416 -0.72357220 1.22454122
v -3.57074276 -0.73363065 1.23883332
v -3.84766416 -0.78691200 1.09735258
v -3.84766416 -0.72357220 1.16065606
v -3.83291433 -0.72357220 1.16037909
v -3.59768666 -0.78760619 1.23883332
v -3.59965738 -0.79205455 1.22020650
v -3.63297539 -0.79574500 1.20353238
v -3.63297539 -0.79565291 1.18685827
v -3.54964958 -0.79536251 1.17021184
v -3.64963443 -0.79566000 1.18685827
v -3.78290647 -0.79592918 1.20353238
v -3.81625530 -0.79592918 1.20353238
v -3.79959626 -0.79568125 1.18685827
v -3.81625530 -0.79567416 1.18685827
v -3.83291433 -0.79535542 1.17021184
v -3.67248280 -0.78713158 1.09735258
v -3.84766416 -0.79534123 1.17021184
v -3.84766416 -0.79407331 1.15546271
v -3.84766416 -0.79390332 1.15355156
v -3.84766416 -0.73422566 1.23883332
v -3.83925763 -0.73420441 1.23883332
v -3.71623963 -0.73390689 1.23883332
v -3.58296759 -0.73365190 1.23883332
v -3.59965738 -0.78760619 1.23883332
v -3.76621668 -0.79216080 1.22020650
v -3.61628560 -0.79206874 1.22020650
v -3.76621668 -0.79591499 1.20353238
v -3.81625530 -0.79215373 1.22020650
v -3.83291433 -0.79214664 1.22020650
v -3.83291433 -0.79591499 1.20353238
v -3.83291433 -0.79566000 1.18685827
v -3.84766416 -0.79537667 1.17212299
v -3.84766416 -0.78692618 1.23883332
v -3.81625530 -0.78742201 1.23883332
v -3.83291433 -0.78740785 1.23883332
v -3.84593972 -0.78738660 1.23883332
v -3.84766416 -0.79210414 1.22020650
v -3.84766416 -0.79586543 1.20353238
v -3.84766416 -0.79565291 1.18876941
v -3.84766416 -0.79562460 1.18685827
v -3.84766416 -0.78737951 1.23877792
v -3.84763334 -0.78737951 1.23883332
f 1 2 6
f 1 6 9
f 1 9 3
f 1 3 12
f 1 12 30
f 1 30 29
f 1 29 52
f 1 52 38
f 1 38 17
f 1 17 8
f 1 8 7
f 1 7 4
f 1 4 2
f 2 5 6
f 2 4 7
f 2 7 8
f 2 8 5
f 3 9 10
f 3 10 11
f 3 11 12
f 5 13 6
f 5 8 14
f 5 14 32
f 5 32 40
f 5 40 39
f 5 39 36
f 5 36 35
f 5 35 34
f 5 34 33
f 5 33 31
f 5 31 13
f 6 13 15
f 6 15 16
f 6 16 18
f 6 18 9
f 8 17 14
f 9 18 19
f 9 19 20
f 9 20 21
f 9 21 22
f 9 22 23
f 9 23 24
f 9 24 10
f 10 24 11
f 11 25 26
f 11 26 27
f 11 27 28
f 11 28 29
f 11 29 30
f 11 30 12
f 11 24 25
f 13 31 15
f 14 17 32
f 15 31 16
f 16 31 33
f 16 33 34
f 16 34 35
f 16 35 36
f 16 36 37
f 16 37 59
f 16 59 58
f 16 58 57
f 16 57 56
f 16 56 69
f 16 69 78
f 16 78 72
f 16 72 71
f 16 71 70
f 16 70 60
f 16 60 41
f 16 41 18
f 17 38 55
f 17 55 54
f 17 54 53
f 17 53 68
f 17 68 76
f 17 76 75
f 17 75 74
f 17 74 73
f 17 73 77
f 17 77 69
f 17 69 56
f 17 56 36
f 17 36 39
f 17 39 40
f 17 40 32
f 18 41 42
f 18 42 19
f 19 42 20
f 20 42 43
f 20 43 21
f 21 43 44
f 21 44 22
f 22 44 23
f 23 44 45
f 23 45 24
f 24 45 25
f 25 45 44
f 25 44 26
f 26 44 46
f 26 46 47
f 26 47 48
f 26 48 49
f 26 49 27
f 27 49 50
f 27 50 51
f 27 51 28
f 28 52 29
f 28 51 53
f 28 53 54
f 28 54 55
f 28 55 38
f 28 38 52
f 36 56 57
f 36 57 58
f 36 58 59
f 36 59 37
f 41 60 61
f 41 61 62
f 41 62 42
f 42 62 63
f 42 63 43
f 43 63 44
f 44 63 47
f 44 47 46
f 47 63 62
f 47 62 61
f 47 61 48
f 48 64 65
f 48 65 66
f 48 66 67
f 48 67 50
f 48 50 49
f 48 61 64
f 50 67 51
f 51 67 68
f 51 68 53
f 60 70 65
f 60 65 64
f 60 64 61
f 65 70 71
f 65 71 72
f 65 72 73
f 65 73 66
f 66 73 74
f 66 74 75
f 66 75 76
f 66 76 67
f 67 76 68
f 69 77 78
f 72 78 73
f 73 78 77

