# https://github.com/mikedh/trimesh
v -2.98184753 -0.15549695 0.83687683
v -2.98184753 -0.15568551 0.83578604
v -2.99960228 -0.15836798 0.82020698
v -2.98293843 -0.15549695 0.83687683
v -2.98184753 -0.15572837 0.85352910
v -2.98184753 -0.15838512 0.82020698
v -3.03296000 -0.15855654 0.82020698
v -2.99960228 -0.15553125 0.83687683
v -2.99960228 -0.16530128 0.80998514
v -3.01626613 -0.16531845 0.81000273
v -2.98293843 -0.15572837 0.85352910
v -2.99960228 -0.15666250 0.87019897
v -2.98184753 -0.15666250 0.86910816
v -2.98184753 -0.15883934 0.81953841
v -3.03296000 -0.16537841 0.81005551
v -3.03296000 -0.15574551 0.83687683
v -3.03296000 -0.15595976 0.85352910
v -2.99960228 -0.15578836 0.85352910
v -2.98184753 -0.16533558 0.80999394
v -2.99960228 -0.17767667 0.80845450
v -3.03296000 -0.17765098 0.80847210
v -3.03292997 -0.16539557 0.81003792
v -3.03296000 -0.15671394 0.87019897
v -3.01626613 -0.15666250 0.87019897
v -3.01626613 -0.16207032 0.88686882
v -2.98184753 -0.15673108 0.87019897
v -2.98184753 -0.17767667 0.80850728
v -3.03292997 -0.19434575 0.80894712
v -3.03292997 -0.17767667 0.80847210
v -2.98283835 -0.24304171 0.81071528
v -3.03296000 -0.19431148 0.80894712
v -3.03296000 -0.16208746 0.88686882
v -3.03296000 -0.16810376 0.89603505
v -2.98184753 -0.16811232 0.89605264
v -2.98184753 -0.16221600 0.88686882
v -2.98184753 -0.24304171 0.81081203
v -3.03296000 -0.20832378 0.81051295
v -2.99410771 -0.24304171 0.81104954
v -3.03296000 -0.17767667 0.89746892
v -3.01626613 -0.17767667 0.89751291
v -2.98184753 -0.17767667 0.89760087
v -2.98184753 -0.24304171 0.89825183
v -3.03296000 -0.21667115 0.81359182
v -2.99475825 -0.24304171 0.81126947
v -3.03296000 -0.19434575 0.89804951
v -2.99960228 -0.19434575 0.89826943
v -2.98184753 -0.19324875 0.89826943
v -2.98184753 -0.22766674 0.89829582
v -2.98285336 -0.24304171 0.89825183
v -3.00243964 -0.24304171 0.81549191
v -3.00337041 -0.24304171 0.81603731
v -3.03292997 -0.24304171 0.83499434
v -3.03296000 -0.24304171 0.84013164
v -3.03296000 -0.22766674 0.89800552
v -3.03292997 -0.24304171 0.89799672
v -2.99960228 -0.21099766 0.89826063
v -2.98184753 -0.21099766 0.89832221
v -2.98293843 -0.19434575 0.89830462
v -2.98184753 -0.19434575 0.89830462
v -2.98293843 -0.22766674 0.89829582
v -2.99960228 -0.24304171 0.89819026
v -3.03163390 -0.24304171 0.89800552
v -2.99960228 -0.22766674 0.89823424
f 1 2 3
f 1 3 4
f 1 4 11
f 1 11 5
f 1 5 13
f 1 13 26
f 1 26 35
f 1 35 34
f 1 34 41
f 1 41 47
f 1 47 59
f 1 59 57
f 1 57 48
f 1 48 42
f 1 42 36
f 1 36 27
f 1 27 19
f 1 19 14
f 1 14 6
f 1 6 2
f 2 6 3
f 3 7 8
f 3 8 4
f 3 6 9
f 3 9 10
f 3 10 7
f 4 8 11
f 5 11 24
f 5 24 12
f 5 12 13
f 6 14 9
f 7 10 15
f 7 15 21
f 7 21 31
f 7 31 37
f 7 37 43
f 7 43 53
f 7 53 54
f 7 54 45
f 7 45 39
f 7 39 33
f 7 33 32
f 7 32 23
f 7 23 17
f 7 17 16
f 7 16 8
f 8 16 17
f 8 17 18
f 8 18 11
f 9 19 20
f 9 20 21
f 9 21 10
f 9 14 19
f 10 22 15
f 10 21 22
f 11 18 23
f 11 23 24
f 12 24 25
f 12 25 26
f 12 26 13
f 15 22 21
f 17 23 18
f 19 27 20
f 20 28 29
f 20 29 21
f 20 27 30
f 20 30 28
f 21 29 28
f 21 28 31
f 23 32 24
f 24 32 25
f 25 32 33
f 25 33 34
f 25 34 35
f 25 35 26
f 27 36 30
f 28 37 31
f 28 30 38
f 28 38 37
f 30 36 42
f 30 42 49
f 30 49 61
f 30 61 62
f 30 62 55
f 30 55 53
f 30 53 52
f 30 52 51
f 30 51 50
f 30 50 44
f 30 44 38
f 33 39 40
f 33 40 41
f 33 41 34
f 37 38 43
f 38 44 43
f 39 45 46
f 39 46 47
f 39 47 40
f 40 47 41
f 42 48 60
f 42 60 49
f 43 44 50
f 43 50 51
f 43 51 52
f 43 52 53
f 45 54 55
f 45 55 56
f 45 56 46
f 46 56 57
f 46 57 58
f 46 58 47
f 47 58 59
f 48 57 60
f 49 60 61
f 53 55 54
f 55 62 56
f 56 63 60
f 56 60 57
f 56 62 63
f 57 59 58
f 60 63 61
f 61 63 62

