# https://github.com/mikedh/trimesh
v 0.06264374 -0.21051647 0.88556413
v -0.00902232 -0.21051647 0.88556413
v 0.06245045 -0.21051647 1.04944335
v 0.06279407 -0.21054160 0.84166910
v 0.06283704 -0.21054160 0.79172305
v 0.06283704 -0.21054160 0.77490722
v 0.06282274 -0.21054160 0.70791130
v -0.00905808 -0.21051647 0.89138114
v -0.00787689 -0.21054160 0.70791130
v -0.01028941 -0.21054160 0.74181045
v -0.00922277 -0.21051647 1.04944335
v 0.06199232 -0.46704473 1.04944335
v 0.06199947 -0.46704473 1.04820639
v 0.06206391 -0.46704473 1.03152428
v 0.06213549 -0.46704473 1.00818938
v 0.06235740 -0.46704473 0.92487910
v 0.06237886 -0.46704473 0.91488320
v 0.06239322 -0.46704473 0.90819698
v 0.06248627 -0.46704473 0.79155590
v 0.06249342 -0.46704473 0.77490722
v 0.06248627 -0.46704473 0.75825853
v 0.06241468 -0.46704473 0.70791130
v -0.00915119 -0.21051647 0.95807617
v -0.00468414 -0.46704473 0.70791130
v -0.01029656 -0.46704473 0.74959989
v -0.01029656 -0.25019097 0.74782803
v -0.01028941 -0.21054160 0.85838465
v -0.00917264 -0.21051647 0.97472485
v -0.00626618 -0.46704473 1.04944335
v -0.01029656 -0.46704473 0.85430606
v -0.01029656 -0.25019097 0.85574359
f 1 2 8
f 1 8 23
f 1 23 28
f 1 28 11
f 1 11 3
f 1 3 4
f 1 4 5
f 1 5 6
f 1 6 7
f 1 7 9
f 1 9 2
f 2 9 10
f 2 10 8
f 3 11 29
f 3 29 12
f 3 12 13
f 3 13 14
f 3 14 15
f 3 15 16
f 3 16 17
f 3 17 18
f 3 18 4
f 4 18 5
f 5 18 19
f 5 19 20
f 5 20 6
f 6 20 7
f 7 20 21
f 7 21 22
f 7 22 24
f 7 24 9
f 8 10 23
f 9 24 25
f 9 25 10
f 10 25 26
f 10 26 31
f 10 31 27
f 10 27 11
f 10 11 28
f 10 28 23
f 11 27 30
f 11 30 29
f 12 29 30
f 12 30 25
f 12 25 24
f 12 24 22
f 12 22 21
f 12 21 20
f 12 20 19
f 12 19 18
f 12 18 17
f 12 17 16
f 12 16 15
f 12 15 14
f 12 14 13
f 25 30 31
f 25 31 26
f 27 31 30

