# https://github.com/mikedh/trimesh
v -3.78260629 1.96573244 1.98585523
v -3.78255166 1.96573244 1.97641215
v -3.78254069 1.96573244 1.99309103
v -3.80945318 1.99304744 1.99308113
v -3.80937666 1.99313059 1.95976298
v -3.78240953 1.96573244 1.96920605
v -3.80934392 1.99324493 1.94308410
v -3.80924551 1.99344240 1.92551436
v -3.80936574 1.99326571 2.00976991
v -3.78073707 1.96573244 2.00252420
v -3.81220783 2.00507311 2.00976991
v -3.81232807 2.00507311 1.99308113
v -3.81261232 2.00633076 1.95976298
v -3.81230624 2.00507311 1.95976298
v -3.78212534 1.96573244 1.95977288
v -3.81222972 2.00507311 1.94308410
v -3.81221881 2.00507311 1.94147063
v -3.81241556 2.00633076 1.92641513
v -3.79843462 1.98752830 1.92551436
v -3.77726094 1.96573244 1.94694451
v -3.78027795 1.96573244 1.95433860
v -3.81222972 2.00563437 1.92549456
v -3.81179249 2.00507311 1.92549456
v -3.77927228 1.96573244 2.00976991
v -3.80820703 1.99500148 2.02031175
v -3.81250300 2.00633076 2.00976991
v -3.81261232 2.00633076 1.99309103
v -3.81254671 2.02299208 1.95976298
v -3.81245928 2.03966379 1.94308410
v -3.81252483 2.02299208 1.94308410
v -3.81253580 2.00633076 1.94308410
v -3.81243739 2.02208781 1.92549456
v -3.81239367 2.00633076 1.92549456
v -3.79781155 1.98719571 1.92551436
v -3.77197027 1.96573244 1.94476682
v -3.74012783 2.00507311 1.92549456
v -3.78114150 1.98565742 1.92551436
v -3.77441885 1.96573244 2.01900513
v -3.79897020 2.00507311 2.02508282
v -3.80913618 2.00507311 2.02136096
v -3.81242648 2.03966379 2.00976991
v -3.80924551 2.00633076 2.02148967
v -3.80925642 2.02299208 2.02159857
v -3.81245928 2.03966379 1.95976298
v -3.81206577 2.05634590 1.95976298
v -3.81205479 2.05634590 1.94308410
v -3.81242648 2.03966379 1.92549456
v -3.81243739 2.02299208 1.92549456
v -3.76446060 1.96573244 1.94186658
v -3.73472784 2.01060262 1.92549456
v -3.75120108 1.99295389 1.92551436
v -3.76446060 1.98686311 1.92551436
v -3.74781243 1.96573244 1.94184678
v -3.75722413 1.96573244 1.94172798
v -3.76446060 1.96573244 2.02077695
v -3.79781155 2.00633076 2.02567673
v -3.80921270 2.03966379 2.02157877
v -3.80868804 2.05634590 2.02107385
v -3.81155196 2.05634590 2.00976991
v -3.81189084 2.05634590 1.99309103
v -3.79781155 2.02299208 2.02593402
v -3.79781155 2.03966379 2.02592412
v -3.80889571 2.06767519 1.97642205
v -3.80892851 2.06773754 1.95976298
v -3.80890663 2.06770635 1.94308410
v -3.80887382 2.06766478 1.92641513
v -3.81200016 2.05634590 1.92549456
v -3.72576429 2.02329349 1.92549456
v -3.70096149 2.00633076 1.94242089
v -3.70096149 1.99609283 1.94611299
v -3.70096149 1.99348398 1.94712266
v -3.73288045 1.96573244 1.94692471
v -3.74128654 1.96573244 1.94402447
v -3.74781243 1.96573244 2.02159857
v -3.78114150 2.00633076 2.02602312
v -3.78114150 2.02299208 2.02651803
v -3.79781155 2.05634590 2.02507292
v -3.80752933 2.06618886 2.01977724
v -3.80844751 2.06716588 2.00976991
v -3.80876456 2.06749850 1.99309103
v -3.78114150 2.03966379 2.02661703
v -3.79781155 2.07154167 1.97642205
v -3.79781155 2.07165601 1.95976298
v -3.79781155 2.07165601 1.94308410
v -3.79781155 2.07160406 1.92641513
v -3.80827264 2.06787266 1.92549456
v -3.80887382 2.06765440 1.92549456
v -3.72194933 2.03201394 1.92549456
v -3.70096149 2.00944891 1.94183688
v -3.70096149 1.96686537 1.96691952
v -3.70096149 1.96573244 1.96800839
v -3.70096149 1.96573244 2.02143026
v -3.76446060 2.02299208 2.02577561
v -3.76446060 2.03966379 2.02613203
v -3.79781155 2.06756085 2.02118275
v -3.78114150 2.05634590 2.02575581
v -3.79781155 2.07079332 2.00976991
v -3.79781155 2.07130263 1.99309103
v -3.78114150 2.07164563 1.99309103
v -3.78114150 2.07174955 1.97642205
v -3.78114150 2.07183272 1.95976298
v -3.78114150 2.07187429 1.94308410
v -3.78114150 2.07191586 1.92549456
v -3.79691514 2.07162484 1.92549456
v -3.79781155 2.07159365 1.92549456
v -3.72062666 2.04073436 1.92549456
v -3.70096149 2.02676504 1.94155973
v -3.70096149 2.00633076 2.02154907
v -3.70096149 2.02299208 2.02147977
v -3.74781243 2.03966379 2.02472640
v -3.76446060 2.05634590 2.02482541
v -3.78114150 2.06783109 2.02148967
v -3.78114150 2.07129222 2.00976991
v -3.76446060 2.07021128 1.99309103
v -3.76446060 2.07052309 1.92549456
v -3.78023424 2.07184310 1.92549456
v -3.72150113 2.05052535 1.92549456
v -3.70096149 2.03966379 1.94287625
v -3.70096149 2.03966379 2.02056904
v -3.70096149 2.04920534 2.01892592
v -3.74781243 2.05634590 2.02288527
v -3.74781243 2.06579389 2.01940103
v -3.76446060 2.06703076 2.02075715
v -3.76446060 2.06977474 2.00976991
v -3.74781243 2.06816368 1.99309103
v -3.74781243 2.06902639 1.92549456
v -3.72646388 2.05886121 1.92549456
v -3.70096149 2.05108661 1.94759776
v -3.70096149 2.04225186 1.94388586
v -3.70096149 2.05329012 2.00976991
v -3.73884888 2.06491042 2.01838152
v -3.74781243 2.06748809 2.00976991
v -3.73735129 2.06537813 2.00976991
v -3.73618166 2.06579389 1.99309103
v -3.73481528 2.06646951 1.92641513
v -3.73479345 2.06646951 1.92549456
v -3.72691209 2.05938090 1.92549456
v -3.70096149 2.05468289 1.95976298
v -3.70096149 2.05609645 1.99309103
v -3.70096149 2.05584700 1.97959945
v -3.70096149 2.05575345 1.97642205
f 1 2 6
f 1 6 15
f 1 15 21
f 1 21 20
f 1 20 35
f 1 35 49
f 1 49 54
f 1 54 53
f 1 53 73
f 1 73 72
f 1 72 91
f 1 91 92
f 1 92 74
f 1 74 55
f 1 55 38
f 1 38 24
f 1 24 10
f 1 10 3
f 1 3 4
f 1 4 5
f 1 5 2
f 2 5 7
f 2 7 8
f 2 8 6
f 3 9 4
f 3 10 9
f 4 9 11
f 4 11 12
f 4 12 13
f 4 13 14
f 4 14 5
f 5 14 7
f 6 8 15
f 7 14 16
f 7 16 17
f 7 17 18
f 7 18 8
f 8 19 20
f 8 20 21
f 8 21 15
f 8 18 22
f 8 22 23
f 8 23 19
f 9 10 24
f 9 24 25
f 9 25 11
f 11 25 26
f 11 26 12
f 12 26 27
f 12 27 13
f 13 27 28
f 13 28 29
f 13 29 30
f 13 30 31
f 13 31 16
f 13 16 14
f 16 31 17
f 17 31 18
f 18 31 32
f 18 32 33
f 18 33 22
f 19 23 34
f 19 34 20
f 20 34 35
f 22 33 32
f 22 32 48
f 22 48 47
f 22 47 67
f 22 67 87
f 22 87 86
f 22 86 105
f 22 105 104
f 22 104 103
f 22 103 116
f 22 116 115
f 22 115 126
f 22 126 136
f 22 136 137
f 22 137 127
f 22 127 117
f 22 117 106
f 22 106 88
f 22 88 68
f 22 68 50
f 22 50 36
f 22 36 23
f 23 36 37
f 23 37 34
f 24 38 25
f 25 39 40
f 25 40 26
f 25 38 39
f 26 41 27
f 26 40 42
f 26 42 43
f 26 43 41
f 27 44 28
f 27 41 44
f 28 44 29
f 29 44 45
f 29 45 46
f 29 46 47
f 29 47 30
f 30 47 31
f 31 47 48
f 31 48 32
f 34 37 49
f 34 49 35
f 36 50 51
f 36 51 52
f 36 52 37
f 37 52 53
f 37 53 54
f 37 54 49
f 38 55 56
f 38 56 39
f 39 56 40
f 40 56 42
f 41 43 57
f 41 57 58
f 41 58 59
f 41 59 60
f 41 60 45
f 41 45 44
f 42 56 61
f 42 61 43
f 43 61 62
f 43 62 57
f 45 60 63
f 45 63 64
f 45 64 46
f 46 64 65
f 46 65 66
f 46 66 67
f 46 67 47
f 50 68 69
f 50 69 70
f 50 70 71
f 50 71 51
f 51 53 52
f 51 71 72
f 51 72 73
f 51 73 53
f 55 74 56
f 56 74 75
f 56 75 76
f 56 76 61
f 57 62 58
f 58 62 77
f 58 77 78
f 58 78 59
f 59 78 79
f 59 79 80
f 59 80 60
f 60 80 63
f 61 76 81
f 61 81 62
f 62 81 77
f 63 80 82
f 63 82 83
f 63 83 64
f 64 83 84
f 64 84 65
f 65 84 85
f 65 85 66
f 66 86 87
f 66 87 67
f 66 85 86
f 68 88 69
f 69 89 107
f 69 107 118
f 69 118 129
f 69 129 128
f 69 128 138
f 69 138 141
f 69 141 140
f 69 140 139
f 69 139 130
f 69 130 120
f 69 120 119
f 69 119 109
f 69 109 108
f 69 108 92
f 69 92 91
f 69 91 90
f 69 90 71
f 69 71 70
f 69 88 89
f 71 90 72
f 72 90 91
f 74 92 75
f 75 92 76
f 76 92 93
f 76 93 94
f 76 94 81
f 77 95 78
f 77 81 96
f 77 96 95
f 78 95 97
f 78 97 79
f 79 97 98
f 79 98 80
f 80 98 82
f 81 94 96
f 82 98 99
f 82 99 83
f 83 99 100
f 83 100 101
f 83 101 102
f 83 102 103
f 83 103 84
f 84 103 104
f 84 104 85
f 85 104 105
f 85 105 86
f 88 106 89
f 89 106 107
f 92 108 94
f 92 94 93
f 94 108 109
f 94 109 110
f 94 110 111
f 94 111 96
f 95 96 112
f 95 112 113
f 95 113 97
f 96 111 112
f 97 113 98
f 98 113 99
f 99 113 114
f 99 114 100
f 100 114 101
f 101 114 115
f 101 115 116
f 101 116 102
f 102 116 103
f 106 117 107
f 107 117 118
f 109 119 110
f 110 119 111
f 111 119 120
f 111 120 121
f 111 121 122
f 111 122 123
f 111 123 112
f 112 123 113
f 113 123 124
f 113 124 114
f 114 124 125
f 114 125 126
f 114 126 115
f 117 127 128
f 117 128 129
f 117 129 118
f 120 130 131
f 120 131 122
f 120 122 121
f 122 124 123
f 122 131 124
f 124 131 132
f 124 132 125
f 125 133 134
f 125 134 135
f 125 135 126
f 125 132 133
f 126 135 136
f 127 137 128
f 128 137 136
f 128 136 138
f 130 139 131
f 131 139 133
f 131 133 132
f 133 139 134
f 134 139 135
f 135 139 136
f 136 139 140
f 136 140 141
f 136 141 138

