# https://github.com/mikedh/trimesh
v -3.93069695 -0.46360148 0.58676581
v -3.93029587 -0.51087673 0.58676581
v -3.93222797 -0.46360148 0.58676581
v -3.93063520 -0.46360148 0.60354746
v -3.93013386 -0.52768503 0.60354746
v -3.92949364 -0.61829844 0.61083305
v -3.92952839 -0.61829844 0.60354746
v -3.93020330 -0.52754875 0.58676581
v -3.93017243 -0.46360148 0.76740255
v -3.96824466 -0.46367720 0.58676581
v -3.96824466 -0.46360148 0.58688961
v -3.92947052 -0.61829844 0.62022294
v -3.92986004 -0.61829844 0.58688961
v -3.92983691 -0.61820757 0.58676581
v -3.96846067 -0.46360148 0.76740255
v -3.92939339 -0.61829844 0.76740255
v -3.96824854 -0.61829844 0.58676581
v -3.96846836 -0.46360148 0.60096566
v -3.93040381 -0.61829844 0.58676581
v -3.96846449 -0.46381348 0.76740255
v -3.96866893 -0.46360148 0.73686319
v -3.96874987 -0.61829844 0.76740255
v -3.96846449 -0.61829844 0.60354746
v -3.96850692 -0.46360148 0.60354746
v -3.96878850 -0.49435614 0.76740255
v -3.96860718 -0.46360148 0.63688079
v -3.96860337 -0.46360148 0.63429902
v -3.96858024 -0.46360148 0.62022294
f 1 2 8
f 1 8 14
f 1 14 19
f 1 19 17
f 1 17 10
f 1 10 3
f 1 3 11
f 1 11 18
f 1 18 24
f 1 24 28
f 1 28 27
f 1 27 26
f 1 26 21
f 1 21 15
f 1 15 9
f 1 9 4
f 1 4 2
f 2 5 6
f 2 6 7
f 2 7 8
f 2 4 9
f 2 9 5
f 3 10 11
f 5 12 6
f 5 9 12
f 6 12 16
f 6 16 22
f 6 22 23
f 6 23 17
f 6 17 19
f 6 19 13
f 6 13 7
f 7 13 14
f 7 14 8
f 9 15 20
f 9 20 25
f 9 25 22
f 9 22 16
f 9 16 12
f 10 17 18
f 10 18 11
f 13 19 14
f 15 21 20
f 17 23 24
f 17 24 18
f 20 21 25
f 21 26 25
f 22 25 26
f 22 26 27
f 22 27 28
f 22 28 23
f 23 28 24

