# https://github.com/mikedh/trimesh
v 1.99625581 -0.19434486 1.50597251
v 1.99625581 -0.18317769 1.50606585
v 1.99625581 -0.21100774 1.50727858
v 1.99076660 -0.21100774 1.50725056
v 1.97410959 -0.21100774 1.50717594
v 1.90745014 -0.21100774 1.50712933
v 1.67399989 -0.21100774 1.50727858
v 1.67399989 -0.19434486 1.50625242
v 1.67399989 -0.19422503 1.50625242
v 1.99625581 -0.17768195 1.50611246
v 1.99625581 -0.22082496 1.51022641
v 1.99076660 -0.22087288 1.51018910
v 1.97410959 -0.22097673 1.51009582
v 1.90745014 -0.22129624 1.50989059
v 1.67399989 -0.22142405 1.51008652
v 1.67399989 -0.17759409 1.50667222
v 1.67412613 -0.17768195 1.50665356
v 1.82413362 -0.17768195 1.50636436
v 1.99625581 -0.16975790 1.50808080
v 1.82413362 -0.16548433 1.50906965
v 1.99625581 -0.23927716 1.55245747
v 1.97410959 -0.23927716 1.55224295
v 1.95742105 -0.23927716 1.55215897
v 1.67412613 -0.23927716 1.55173917
v 1.67399989 -0.23921324 1.55170186
v 1.67399989 -0.16585978 1.50954542
v 1.67412613 -0.16589972 1.50947080
v 1.72412863 -0.16566008 1.50922826
v 1.74078558 -0.16561215 1.50919095
v 1.75747412 -0.16559618 1.50916294
v 1.99625581 -0.16584381 1.50906965
v 1.72412863 -0.15989277 1.52021748
v 1.82413362 -0.15967709 1.52021748
v 1.99625581 -0.23927716 1.60100412
v 1.67399989 -0.23927716 1.55222430
v 1.67399989 -0.16003654 1.52021748
v 1.99625581 -0.16030015 1.52021748
v 1.67399989 -0.16002057 1.52032942
v 1.67399989 -0.15768011 1.53687854
v 1.84075904 -0.15783187 1.53687854
v 1.85744759 -0.15787180 1.53687854
v 1.99625581 -0.15832713 1.53687854
v 1.99625581 -0.19434486 1.60126531
v 1.99581414 -0.23927716 1.60100412
v 1.67399989 -0.23927716 1.60029511
v 1.67399989 -0.15783985 1.55354896
v 1.67412613 -0.15783985 1.55354896
v 1.84075904 -0.15811943 1.55354896
v 1.85744759 -0.15815138 1.55354896
v 1.99625581 -0.15848687 1.55354896
v 1.99625581 -0.15843096 1.54804503
v 1.99625581 -0.17768195 1.59945552
v 1.99076660 -0.17768195 1.59945552
v 1.85744759 -0.19434486 1.60123729
v 1.84075904 -0.23927716 1.60085486
v 1.80747662 -0.19434486 1.60107874
v 1.67399989 -0.22767064 1.60025780
v 1.81252422 -0.23927716 1.60079890
v 1.82413362 -0.19434486 1.60115337
v 1.67399989 -0.15845492 1.57021002
v 1.67412613 -0.15845492 1.57021002
v 1.99625581 -0.15924573 1.57021002
v 1.99625581 -0.16823219 1.59638639
v 1.99076660 -0.16821621 1.59640504
v 1.74078558 -0.16791267 1.59642370
v 1.85744759 -0.17768195 1.59931562
v 1.72412863 -0.16785676 1.59639575
v 1.84075904 -0.19434486 1.60120934
v 1.82918123 -0.23927716 1.60083621
v 1.75747412 -0.17768195 1.59897045
v 1.67399989 -0.17768195 1.59854129
v 1.67399989 -0.19434486 1.59996860
v 1.67399989 -0.21100774 1.60013650
v 1.82413362 -0.23927716 1.60082685
v 1.67399989 -0.16300807 1.58687109
v 1.69081461 -0.16291222 1.58687109
v 1.75747412 -0.16290423 1.58687109
v 1.99625581 -0.16207349 1.58136715
v 1.99625581 -0.16664261 1.59326129
v 1.70747162 -0.16793663 1.59636773
v 1.67399989 -0.16819225 1.59620912
v 1.99625581 -0.16351930 1.58687109
f 1 2 10
f 1 10 19
f 1 19 31
f 1 31 37
f 1 37 42
f 1 42 51
f 1 51 50
f 1 50 62
f 1 62 78
f 1 78 82
f 1 82 79
f 1 79 63
f 1 63 52
f 1 52 43
f 1 43 34
f 1 34 21
f 1 21 11
f 1 11 3
f 1 3 4
f 1 4 5
f 1 5 6
f 1 6 7
f 1 7 8
f 1 8 9
f 1 9 2
f 2 9 10
f 3 11 12
f 3 12 13
f 3 13 4
f 4 13 14
f 4 14 5
f 5 14 6
f 6 14 7
f 7 15 25
f 7 25 35
f 7 35 45
f 7 45 57
f 7 57 73
f 7 73 72
f 7 72 71
f 7 71 81
f 7 81 75
f 7 75 60
f 7 60 46
f 7 46 39
f 7 39 38
f 7 38 36
f 7 36 26
f 7 26 16
f 7 16 9
f 7 9 8
f 7 14 15
f 9 16 17
f 9 17 18
f 9 18 10
f 10 18 20
f 10 20 19
f 11 21 12
f 12 21 13
f 13 21 14
f 14 21 22
f 14 22 23
f 14 23 24
f 14 24 15
f 15 24 25
f 16 26 27
f 16 27 28
f 16 28 29
f 16 29 18
f 16 18 17
f 18 29 30
f 18 30 20
f 19 20 31
f 20 30 29
f 20 29 32
f 20 32 33
f 20 33 31
f 21 34 44
f 21 44 55
f 21 55 69
f 21 69 74
f 21 74 58
f 21 58 45
f 21 45 35
f 21 35 24
f 21 24 23
f 21 23 22
f 24 35 25
f 26 36 28
f 26 28 27
f 28 36 29
f 29 36 32
f 31 33 37
f 32 36 38
f 32 38 39
f 32 39 33
f 33 39 40
f 33 40 41
f 33 41 42
f 33 42 37
f 34 43 44
f 39 46 47
f 39 47 40
f 40 48 49
f 40 49 41
f 40 47 48
f 41 49 50
f 41 50 51
f 41 51 42
f 43 52 53
f 43 53 54
f 43 54 44
f 44 54 55
f 45 56 57
f 45 58 59
f 45 59 56
f 46 60 61
f 46 61 47
f 47 61 48
f 48 61 49
f 49 61 50
f 50 61 62
f 52 63 64
f 52 64 65
f 52 65 53
f 53 66 54
f 53 65 67
f 53 67 66
f 54 66 68
f 54 68 69
f 54 69 55
f 56 59 70
f 56 70 71
f 56 71 72
f 56 72 73
f 56 73 57
f 58 74 68
f 58 68 59
f 59 68 66
f 59 66 70
f 60 75 76
f 60 76 77
f 60 77 61
f 61 77 78
f 61 78 62
f 63 79 64
f 64 79 77
f 64 77 67
f 64 67 65
f 66 67 80
f 66 80 70
f 67 77 76
f 67 76 75
f 67 75 80
f 68 74 69
f 70 80 71
f 71 80 81
f 75 81 80
f 77 79 82
f 77 82 78

