# https://github.com/mikedh/trimesh
v 0.22478731 -0.17718690 1.89376129
v 0.22478731 -0.19434646 1.89395345
v 0.22478731 -0.16970187 1.89481850
v 0.51645341 -0.16933694 1.89521363
v 0.55370857 -0.18052208 1.89505341
v 0.55370857 -0.19034089 1.89505341
v 0.22478731 -0.19476231 1.89396418
v 0.22478731 -0.16383773 1.90157838
v 0.51510096 -0.16933694 1.89521363
v 0.22478731 -0.16349829 1.90200551
v 0.55370857 -0.16318429 1.90366080
v 0.55370857 -0.17218839 1.89533111
v 0.55370857 -0.19682452 1.89529904
v 0.35745060 -0.20352030 1.89512821
v 0.22478731 -0.20629536 1.89493599
v 0.55370857 -0.19867455 1.89537379
v 0.22478731 -0.15622541 1.91954068
v 0.55370857 -0.15708254 1.92021344
v 0.22478731 -0.15595383 1.92021344
v 0.22478731 -0.21462905 1.89597186
v 0.55370857 -0.21100533 1.89912217
v 0.52408477 -0.21100533 1.89833193
v 0.50743742 -0.21100533 1.89797954
v 0.55370857 -0.15715893 1.97021308
v 0.22478731 -0.15566531 1.93620007
v 0.22478731 -0.15565682 1.93688357
v 0.22478731 -0.15550405 1.95354302
v 0.22478731 -0.22441390 1.90431223
v 0.50743742 -0.22142669 1.90623449
v 0.55370857 -0.22096841 1.90730238
v 0.52408477 -0.22120603 1.90654414
v 0.55370857 -0.15764265 1.97390806
v 0.22478731 -0.15561438 1.96952965
v 0.22478731 -0.15562286 1.97021308
v 0.22478731 -0.15697220 1.98618910
v 0.22478731 -0.15703161 1.98687253
v 0.22478731 -0.24219298 1.93329540
v 0.55370857 -0.24219298 1.93672335
v 0.55370857 -0.15939933 1.98687253
v 0.52408477 -0.15915322 1.98687253
v 0.22478731 -0.16383773 1.99901475
v 0.22478731 -0.24219298 1.99887587
v 0.55370857 -0.24219298 1.99773324
v 0.55370857 -0.16075717 1.98928601
v 0.52408477 -0.16532286 1.99785067
v 0.22478731 -0.17711900 2.00266700
v 0.22478731 -0.21100533 2.00248544
v 0.55370857 -0.21100533 1.99992242
v 0.55370857 -0.16550108 1.99771190
v 0.22478731 -0.17767912 2.00281649
v 0.22478731 -0.21031793 2.00250678
v 0.55370857 -0.19804655 2.00069133
v 0.55370857 -0.19434646 2.00090495
v 0.55370857 -0.17767912 2.00054184
v 0.22478731 -0.19366757 2.00284855
v 0.22478731 -0.19434646 2.00284855
f 1 2 7
f 1 7 15
f 1 15 20
f 1 20 28
f 1 28 37
f 1 37 42
f 1 42 47
f 1 47 51
f 1 51 56
f 1 56 55
f 1 55 50
f 1 50 46
f 1 46 41
f 1 41 36
f 1 36 35
f 1 35 34
f 1 34 33
f 1 33 27
f 1 27 26
f 1 26 25
f 1 25 19
f 1 19 17
f 1 17 10
f 1 10 8
f 1 8 3
f 1 3 4
f 1 4 5
f 1 5 6
f 1 6 2
f 2 6 7
f 3 8 9
f 3 9 4
f 4 9 8
f 4 8 10
f 4 10 11
f 4 11 12
f 4 12 5
f 5 12 11
f 5 11 18
f 5 18 24
f 5 24 32
f 5 32 39
f 5 39 44
f 5 44 49
f 5 49 54
f 5 54 53
f 5 53 52
f 5 52 48
f 5 48 43
f 5 43 38
f 5 38 30
f 5 30 21
f 5 21 16
f 5 16 13
f 5 13 6
f 6 13 7
f 7 14 15
f 7 13 16
f 7 16 14
f 10 17 11
f 11 17 19
f 11 19 18
f 14 20 15
f 14 16 20
f 16 21 22
f 16 22 23
f 16 23 20
f 18 19 25
f 18 25 26
f 18 26 27
f 18 27 24
f 20 23 29
f 20 29 28
f 21 30 31
f 21 31 29
f 21 29 22
f 22 29 23
f 24 27 33
f 24 33 34
f 24 34 35
f 24 35 36
f 24 36 32
f 28 29 38
f 28 38 37
f 29 31 30
f 29 30 38
f 32 36 40
f 32 40 39
f 36 41 40
f 37 38 43
f 37 43 42
f 39 40 45
f 39 45 44
f 40 41 45
f 41 46 45
f 42 43 47
f 43 48 47
f 44 45 49
f 45 46 50
f 45 50 49
f 47 48 52
f 47 52 53
f 47 53 51
f 49 50 54
f 50 55 53
f 50 53 54
f 51 53 56
f 53 55 56

