# https://github.com/mikedh/trimesh
v -3.76446382 1.61272854 1.67214405
v -3.76446382 1.62590766 1.68209693
v -3.70095057 1.62590766 1.68577173
v -3.71772977 1.57271586 1.67694374
v -3.71983833 1.55605134 1.67694374
v -3.72594083 1.54019875 1.67694374
v -3.73475438 1.52872272 1.67694374
v -3.74781852 1.52600966 1.67694374
v -3.76446382 1.52532644 1.67694374
v -3.78113142 1.52481156 1.67694374
v -3.79781018 1.52491056 1.67694374
v -3.80892195 1.52799989 1.67694374
v -3.80941286 1.52813853 1.67694374
v -3.81369690 1.53937692 1.67694374
v -3.81375266 1.54007995 1.67694374
v -3.81471211 1.55605134 1.67694374
v -3.81471211 1.55676427 1.67694374
v -3.81466750 1.57341888 1.67694374
v -3.81453361 1.58938039 1.67694374
v -3.81028303 1.60289618 1.67694374
v -3.79781018 1.60918374 1.67694374
v -3.77953607 1.62590766 1.69168559
v -3.70095057 1.62590766 1.76995893
v -3.70095057 1.58962793 1.68542885
v -3.70095057 1.57272578 1.68565388
v -3.70095057 1.55768513 1.69330336
v -3.73470977 1.52866331 1.69292839
v -3.70095057 1.55318977 1.70522757
v -3.70095057 1.55186294 1.70962009
v -3.74781852 1.52595026 1.69292839
v -3.76446382 1.52531654 1.69292839
v -3.78113142 1.52476206 1.70960942
v -3.79781018 1.52484126 1.70960942
v -3.79781018 1.52482146 1.72629044
v -3.80944632 1.52809893 1.72629044
v -3.80944632 1.52811873 1.70960942
v -3.81373036 1.53937692 1.69292839
v -3.81479018 1.55605134 1.72629044
v -3.81476788 1.55605134 1.70960942
v -3.81491292 1.57271586 1.72629044
v -3.81489062 1.58938039 1.72629044
v -3.81480134 1.58938039 1.70960942
v -3.81045038 1.60307440 1.70960942
v -3.81036110 1.60299520 1.69292839
v -3.78500268 1.62590766 1.70960942
v -3.78023889 1.62590766 1.69362477
v -3.73199877 1.58785553 1.78159388
v -3.71870037 1.57111179 1.78159388
v -3.70095057 1.58620196 1.77184455
v -3.76130652 1.62590766 1.77380514
v -3.76446382 1.61164926 1.78159388
v -3.75132161 1.60688655 1.78159388
v -3.74874445 1.60559933 1.78159388
v -3.73495520 1.52914850 1.78159388
v -3.74781852 1.52604926 1.70960942
v -3.70095057 1.55191244 1.72191927
v -3.72671062 1.53434686 1.74293932
v -3.76446382 1.52550468 1.74293932
v -3.76446382 1.52541555 1.72629044
v -3.76446382 1.52534624 1.70960942
v -3.78113142 1.52477196 1.72629044
v -3.79781018 1.52486106 1.74293932
v -3.80944632 1.52809893 1.74293932
v -3.81376382 1.53937692 1.72629044
v -3.81480134 1.55605134 1.74293932
v -3.81491292 1.57271586 1.74293932
v -3.81492408 1.58938039 1.74293932
v -3.81047269 1.60308431 1.72629044
v -3.78518119 1.62590766 1.72627970
v -3.70095057 1.57243862 1.77212307
v -3.72117709 1.55414033 1.78159388
v -3.76446382 1.62590766 1.77385869
v -3.76457535 1.61165916 1.78159388
v -3.70095057 1.55209068 1.74293932
v -3.70095057 1.55517010 1.75962034
v -3.70095057 1.56125963 1.77064462
v -3.72843986 1.53654503 1.78159388
v -3.74372408 1.52746521 1.78159388
v -3.74781852 1.52670278 1.78159388
v -3.75917566 1.52605916 1.78159388
v -3.76446382 1.52578192 1.78159388
v -3.76446382 1.52561358 1.75962034
v -3.70095057 1.55193224 1.72629044
v -3.78113142 1.52485116 1.74293932
v -3.79781018 1.52496009 1.75962034
v -3.80932358 1.52823753 1.78159388
v -3.80939050 1.52814843 1.75962034
v -3.81369690 1.53937692 1.75962034
v -3.81376382 1.53937692 1.74293932
v -3.81477903 1.55605134 1.75962034
v -3.81489062 1.57271586 1.75962034
v -3.81484601 1.57271586 1.77629069
v -3.81486831 1.58938039 1.75962034
v -3.81047269 1.60301500 1.75962034
v -3.81049499 1.60305460 1.74293932
v -3.78515888 1.62590766 1.72941881
v -3.81039462 1.60297539 1.78159388
v -3.72630899 1.53931752 1.78159388
v -3.77636763 1.62590766 1.77086959
v -3.79781018 1.60926296 1.78159388
v -3.78651995 1.61108486 1.78159388
v -3.78148843 1.61135221 1.78159388
v -3.78113142 1.52511850 1.78159388
v -3.78113142 1.52496009 1.75962034
v -3.79781018 1.52511850 1.78159388
v -3.81067350 1.53176255 1.78159388
v -3.81357416 1.53937692 1.78159388
v -3.81394232 1.54466443 1.78159388
v -3.81472327 1.55605134 1.78159388
v -3.81481249 1.57271586 1.78159388
v -3.81475672 1.58938039 1.78159388
v -3.78492461 1.62590766 1.74293932
v -3.80178187 1.60729252 1.78159388
v -3.78236975 1.62590766 1.75962034
f 1 2 3
f 1 3 4
f 1 4 5
f 1 5 6
f 1 6 7
f 1 7 8
f 1 8 9
f 1 9 10
f 1 10 11
f 1 11 12
f 1 12 13
f 1 13 14
f 1 14 15
f 1 15 16
f 1 16 17
f 1 17 18
f 1 18 19
f 1 19 20
f 1 20 21
f 1 21 2
f 2 22 46
f 2 46 45
f 2 45 69
f 2 69 96
f 2 96 112
f 2 112 114
f 2 114 99
f 2 99 72
f 2 72 50
f 2 50 23
f 2 23 3
f 2 21 22
f 3 23 49
f 3 49 70
f 3 70 76
f 3 76 75
f 3 75 74
f 3 74 83
f 3 83 56
f 3 56 29
f 3 29 28
f 3 28 26
f 3 26 25
f 3 25 24
f 3 24 4
f 4 24 25
f 4 25 5
f 5 25 6
f 6 25 26
f 6 26 7
f 7 27 8
f 7 26 28
f 7 28 29
f 7 29 27
f 8 27 30
f 8 30 9
f 9 30 31
f 9 31 32
f 9 32 10
f 10 32 33
f 10 33 11
f 11 33 12
f 12 33 34
f 12 34 35
f 12 35 13
f 13 35 36
f 13 36 37
f 13 37 14
f 14 37 15
f 15 37 38
f 15 38 39
f 15 39 16
f 16 39 40
f 16 40 17
f 17 40 41
f 17 41 42
f 17 42 18
f 18 42 19
f 19 42 20
f 20 42 43
f 20 43 44
f 20 44 45
f 20 45 46
f 20 46 22
f 20 22 21
f 23 47 48
f 23 48 49
f 23 50 51
f 23 51 52
f 23 52 53
f 23 53 47
f 27 54 55
f 27 55 30
f 27 29 56
f 27 56 57
f 27 57 54
f 30 55 58
f 30 58 59
f 30 59 60
f 30 60 31
f 31 60 61
f 31 61 32
f 32 61 34
f 32 34 33
f 34 62 63
f 34 63 35
f 34 61 62
f 35 63 89
f 35 89 64
f 35 64 36
f 36 64 37
f 37 64 38
f 38 65 40
f 38 40 39
f 38 64 65
f 40 65 66
f 40 66 67
f 40 67 41
f 41 67 43
f 41 43 42
f 43 67 68
f 43 68 69
f 43 69 44
f 44 69 45
f 47 53 52
f 47 52 51
f 47 51 73
f 47 73 102
f 47 102 101
f 47 101 100
f 47 100 113
f 47 113 97
f 47 97 111
f 47 111 110
f 47 110 109
f 47 109 108
f 47 108 107
f 47 107 106
f 47 106 86
f 47 86 105
f 47 105 103
f 47 103 81
f 47 81 80
f 47 80 79
f 47 79 78
f 47 78 54
f 47 54 77
f 47 77 98
f 47 98 71
f 47 71 48
f 48 70 49
f 48 71 70
f 50 72 73
f 50 73 51
f 54 57 74
f 54 74 75
f 54 75 76
f 54 76 77
f 54 78 55
f 55 78 79
f 55 79 80
f 55 80 81
f 55 81 82
f 55 82 58
f 56 83 57
f 57 83 74
f 58 82 104
f 58 104 84
f 58 84 59
f 59 84 61
f 59 61 60
f 61 84 62
f 62 85 86
f 62 86 87
f 62 87 63
f 62 84 85
f 63 88 89
f 63 87 88
f 64 89 65
f 65 90 91
f 65 91 66
f 65 89 90
f 66 91 67
f 67 91 92
f 67 92 93
f 67 93 94
f 67 94 95
f 67 95 68
f 68 95 69
f 69 95 94
f 69 94 97
f 69 97 96
f 70 71 76
f 71 98 76
f 72 99 100
f 72 100 101
f 72 101 102
f 72 102 73
f 76 98 77
f 81 103 82
f 82 103 104
f 84 104 85
f 85 105 86
f 85 104 103
f 85 103 105
f 86 106 88
f 86 88 87
f 88 106 107
f 88 107 108
f 88 108 109
f 88 109 89
f 89 109 90
f 90 109 91
f 91 109 92
f 92 110 111
f 92 111 93
f 92 109 110
f 93 111 97
f 93 97 94
f 96 97 112
f 97 113 99
f 97 99 114
f 97 114 112
f 99 113 100

