# https://github.com/mikedh/trimesh
v -2.07690414 -0.72196355 0.83160175
v -2.12603587 -0.72196355 0.83360516
v -2.07690414 -0.72196355 0.90220705
v -2.07690414 -0.73606779 0.61001157
v -2.12603587 -0.72196355 0.90129640
v -2.12603587 -0.73636659 0.61001157
v -2.07690414 -0.73365730 0.92011639
v -2.07690414 -0.78268346 0.61001157
v -2.12603587 -0.73515139 0.92011639
v -2.12603587 -0.78261706 0.61001157
v -2.07690414 -0.78104992 0.92011639
v -2.07715424 -0.78268346 0.61001157
v -2.07690414 -0.78974884 0.82018833
v -2.09959659 -0.78980198 0.82018833
v -2.12603587 -0.78137531 0.92011639
v -2.11625276 -0.78265026 0.61001157
v -2.12603587 -0.78978207 0.82018833
v -2.09959659 -0.78124912 0.92011639
v -2.07690414 -0.78899851 0.85351792
v -2.07690414 -0.78966254 0.82622894
v -2.07690414 -0.78943014 0.83685314
v -2.12603587 -0.78907155 0.85351792
v -2.11625276 -0.78134211 0.92011639
v -2.11625276 -0.78906491 0.85351792
v -2.07690414 -0.78927740 0.84289373
f 1 2 5
f 1 5 3
f 1 3 7
f 1 7 11
f 1 11 19
f 1 19 25
f 1 25 21
f 1 21 20
f 1 20 13
f 1 13 8
f 1 8 4
f 1 4 2
f 2 4 6
f 2 6 10
f 2 10 17
f 2 17 22
f 2 22 15
f 2 15 9
f 2 9 5
f 3 5 7
f 4 8 12
f 4 12 16
f 4 16 10
f 4 10 6
f 5 9 7
f 7 9 15
f 7 15 23
f 7 23 18
f 7 18 11
f 8 13 14
f 8 14 12
f 10 16 17
f 11 18 19
f 12 14 17
f 12 17 16
f 13 20 14
f 14 20 21
f 14 21 22
f 14 22 17
f 15 22 24
f 15 24 19
f 15 19 23
f 18 23 19
f 19 24 25
f 21 25 24
f 21 24 22

