# https://github.com/mikedh/trimesh
v -2.08782728 1.55509234 0.74947573
v -2.08699999 1.57280814 0.74947573
v -2.08557182 1.53937725 0.74947573
v -2.08587659 1.53937725 0.77569420
v -2.08587659 1.53937725 0.77631980
v -2.08583305 1.53937725 0.79237695
v -2.08774891 1.55604994 0.79237695
v -2.07963274 1.58745445 0.74947573
v -2.08766183 1.55604994 0.80904075
v -2.08687809 1.56231717 0.84630206
v -2.08539767 1.57271409 0.84630206
v -2.08378664 1.57681814 0.84630206
v -2.07768211 1.52718481 0.74947573
v -2.07780402 1.52719336 0.75902094
v -2.07795205 1.52721047 0.77569420
v -2.07824817 1.52766364 0.77631980
v -2.07789980 1.52726176 0.79237695
v -2.07783014 1.52732161 0.80904075
v -2.08571985 1.53937725 0.80904075
v -2.07795205 1.52721047 0.77631980
v -2.06090119 1.60280187 0.74947573
v -2.07784756 1.58677044 0.84630206
v -2.06145854 1.60412714 0.84630206
v -2.06099697 1.60328923 0.77569420
v -2.08732218 1.55568229 0.84630206
v -2.06341787 1.52314061 0.74947573
v -2.07740341 1.52705658 0.77631980
v -2.07750796 1.52730451 0.84630206
v -2.07769953 1.52733018 0.82570454
v -2.07932797 1.53014315 0.84630206
v -2.08549345 1.53937725 0.82570454
v -2.08581564 1.54326757 0.84630206
v -2.06341787 1.52329452 0.84630206
v -2.07420747 1.52636401 0.84630206
v -2.04674144 1.60855609 0.74947573
v -2.05056439 1.60862449 0.84630206
v -2.04674144 1.60899214 0.77569420
v -2.05627708 1.52300382 0.74947573
v -2.04675015 1.52287557 0.82570454
v -2.04675015 1.52289266 0.84238729
v -2.08515380 1.53937725 0.84630206
v -2.04675015 1.52290122 0.84630206
v -2.03721457 1.60896649 0.74947573
v -2.04675015 1.60983005 0.84630206
v -2.03008249 1.60921444 0.74947573
v -2.04674144 1.52282428 0.74947573
v -2.03008249 1.52268746 0.80904075
v -2.03008249 1.52270458 0.82570454
v -2.03008249 1.52273878 0.84238729
v -2.04284012 1.52286701 0.84630206
v -2.03457598 1.61000961 0.84630206
v -2.01340605 1.60749588 0.74947573
v -2.03027405 1.60981295 0.84630206
v -2.01732479 1.60850479 0.84630206
v -2.03008249 1.52266181 0.74947573
v -2.01340605 1.52385028 0.82570454
v -2.01340605 1.52379897 0.74947573
v -2.01340605 1.52389302 0.84238729
v -2.03008249 1.52275587 0.84630206
v -2.00702288 1.60422974 0.74947573
v -2.01340605 1.60770108 0.84630206
v -2.00231163 1.52803128 0.82570454
v -2.00232905 1.52804838 0.84238729
v -2.00865133 1.52558594 0.74947573
v -2.01340605 1.52391013 0.84630206
v -2.00225939 1.60175877 0.74947573
v -2.00216360 1.60187846 0.84630206
v -1.99920277 1.53937725 0.84238729
v -2.00227680 1.52799708 0.74947573
v -1.99921148 1.53937725 0.84630206
v -2.00233782 1.52806547 0.84630206
v -1.99933345 1.58938676 0.74947573
v -2.00144081 1.59892013 0.84630206
v -1.99913311 1.58938676 0.84630206
v -1.99886317 1.55604994 0.84630206
v -2.00050033 1.53451225 0.74947573
v -1.99918536 1.53937725 0.74947573
v -1.99923760 1.58224743 0.74947573
v -1.99896766 1.57271409 0.84630206
v -1.99912440 1.57270554 0.74947573
v -1.99896766 1.55604994 0.74947573
f 1 2 8
f 1 8 21
f 1 21 35
f 1 35 43
f 1 43 45
f 1 45 52
f 1 52 60
f 1 60 66
f 1 66 72
f 1 72 78
f 1 78 80
f 1 80 81
f 1 81 77
f 1 77 76
f 1 76 69
f 1 69 64
f 1 64 57
f 1 57 55
f 1 55 46
f 1 46 38
f 1 38 26
f 1 26 13
f 1 13 3
f 1 3 4
f 1 4 5
f 1 5 6
f 1 6 7
f 1 7 2
f 2 7 9
f 2 9 10
f 2 10 11
f 2 11 12
f 2 12 8
f 3 13 14
f 3 14 4
f 4 14 15
f 4 15 16
f 4 16 5
f 5 16 6
f 6 17 18
f 6 18 19
f 6 19 9
f 6 9 7
f 6 16 20
f 6 20 17
f 8 12 22
f 8 22 23
f 8 23 24
f 8 24 21
f 9 19 25
f 9 25 10
f 10 25 32
f 10 32 41
f 10 41 30
f 10 30 28
f 10 28 34
f 10 34 33
f 10 33 42
f 10 42 50
f 10 50 59
f 10 59 65
f 10 65 71
f 10 71 70
f 10 70 75
f 10 75 79
f 10 79 74
f 10 74 73
f 10 73 67
f 10 67 61
f 10 61 54
f 10 54 53
f 10 53 51
f 10 51 44
f 10 44 36
f 10 36 23
f 10 23 22
f 10 22 12
f 10 12 11
f 13 26 14
f 14 26 15
f 15 26 27
f 15 27 20
f 15 20 16
f 17 20 28
f 17 28 18
f 18 29 19
f 18 28 29
f 19 29 28
f 19 28 30
f 19 30 31
f 19 31 32
f 19 32 25
f 20 27 33
f 20 33 34
f 20 34 28
f 21 24 35
f 23 36 24
f 24 37 35
f 24 36 37
f 26 38 39
f 26 39 40
f 26 40 33
f 26 33 27
f 30 41 31
f 31 41 32
f 33 40 42
f 35 37 43
f 36 44 37
f 37 45 43
f 37 44 45
f 38 46 39
f 39 47 40
f 39 46 47
f 40 47 48
f 40 48 49
f 40 49 42
f 42 49 50
f 44 51 45
f 45 51 53
f 45 53 54
f 45 54 52
f 46 55 47
f 47 56 48
f 47 55 57
f 47 57 56
f 48 56 49
f 49 58 65
f 49 65 59
f 49 59 50
f 49 56 58
f 52 54 61
f 52 61 60
f 56 62 63
f 56 63 58
f 56 57 64
f 56 64 62
f 58 63 65
f 60 61 67
f 60 67 66
f 62 68 63
f 62 64 69
f 62 69 68
f 63 68 70
f 63 70 71
f 63 71 65
f 66 67 73
f 66 73 74
f 66 74 72
f 68 75 70
f 68 69 76
f 68 76 77
f 68 77 75
f 72 74 78
f 74 79 80
f 74 80 78
f 75 77 81
f 75 81 79
f 79 81 80

