# https://github.com/mikedh/trimesh
v -1.69020302 -0.72694010 2.00513007
v -1.69020302 -0.50571946 2.00467254
v -1.69020302 -0.72694010 1.92985664
v -1.68191880 -0.72694010 2.00512256
v -0.99869640 -0.72691846 2.00640526
v -1.01541546 -0.50574111 2.00601521
v -1.69020302 -0.50571946 1.93053924
v -0.99869640 -0.50574111 2.00602272
v -1.24820213 -0.50571946 2.00449253
v -1.68191880 -0.72694010 1.92981915
v -1.46532408 -0.72694010 2.00489749
v -0.98205265 -0.72691846 2.00638273
v -1.68658809 -0.50571946 1.93053173
v -1.66527502 -0.72694010 1.92977415
v -0.99410242 -0.50574111 2.00601521
v -1.24820213 -0.50571946 1.93008171
v -0.98205265 -0.50574111 2.00597765
v -0.96540889 -0.50574111 2.00590267
v -0.96073961 -0.50574111 2.00588014
v -0.92895832 -0.50574111 2.00571515
v -0.92082472 -0.50574111 2.00567021
v -1.44868030 -0.72694010 2.00487508
v -1.24820213 -0.72694010 2.00450743
v -0.92082472 -0.72691846 2.00623276
v -1.66994437 -0.50571946 1.93050175
v -1.24820213 -0.72694010 1.93030672
v -1.65322524 -0.50571946 1.93047177
v -1.64855602 -0.50571946 1.93046426
v -1.59862473 -0.50571946 1.93039672
v -1.54854282 -0.50571946 1.93032925
v -1.31537963 -0.50571946 1.93008171
v -1.29881119 -0.50571946 1.93006669
v -1.28209212 -0.50571946 1.93005918
v -1.24812682 -0.50574111 1.93007420
v -1.23667953 -0.50574111 1.93008171
v -1.21536646 -0.50574111 1.93010418
v -1.23201024 -0.72691846 1.93030672
v -1.25339859 -0.50571946 1.93007420
v -0.92082472 -0.50574111 1.93098181
v -0.92255688 -0.50574111 1.93097430
v -1.09870955 -0.50574111 1.93033670
v -1.10330353 -0.50574111 1.93032174
v -1.11535332 -0.50574111 1.93028425
v -1.13199707 -0.50574111 1.93024670
v -1.19864740 -0.50574111 1.93012671
v -1.20331668 -0.50574111 1.93011920
v -0.92082472 -0.72691846 1.93107932
v -1.08206580 -0.72691846 1.93054675
v -1.26544837 -0.50571946 1.93006669
f 1 2 7
f 1 7 3
f 1 3 10
f 1 10 14
f 1 14 26
f 1 26 23
f 1 23 22
f 1 22 11
f 1 11 4
f 1 4 5
f 1 5 6
f 1 6 2
f 2 6 8
f 2 8 9
f 2 9 16
f 2 16 38
f 2 38 49
f 2 49 33
f 2 33 32
f 2 32 31
f 2 31 30
f 2 30 29
f 2 29 28
f 2 28 27
f 2 27 25
f 2 25 13
f 2 13 7
f 3 7 10
f 4 11 5
f 5 12 8
f 5 8 6
f 5 11 22
f 5 22 12
f 7 13 14
f 7 14 10
f 8 12 15
f 8 15 9
f 9 15 17
f 9 17 18
f 9 18 19
f 9 19 20
f 9 20 21
f 9 21 39
f 9 39 16
f 12 22 23
f 12 23 24
f 12 24 15
f 13 25 14
f 14 25 27
f 14 27 28
f 14 28 29
f 14 29 30
f 14 30 31
f 14 31 32
f 14 32 33
f 14 33 34
f 14 34 35
f 14 35 36
f 14 36 37
f 14 37 26
f 15 24 17
f 16 39 40
f 16 40 41
f 16 41 42
f 16 42 43
f 16 43 44
f 16 44 45
f 16 45 46
f 16 46 38
f 17 24 18
f 18 24 19
f 19 24 20
f 20 24 21
f 21 24 47
f 21 47 39
f 23 26 47
f 23 47 24
f 26 37 48
f 26 48 47
f 33 49 34
f 34 49 38
f 34 38 35
f 35 38 36
f 36 46 37
f 36 38 46
f 37 46 48
f 39 47 40
f 40 47 41
f 41 48 42
f 41 47 48
f 42 48 43
f 43 48 44
f 44 48 45
f 45 48 46

