# https://github.com/mikedh/trimesh
v -3.70095057 1.79631902 1.96895347
v -3.70095862 1.96573244 1.96800088
v -3.70095057 1.79631902 2.02142525
v -3.70095057 1.62590766 1.96758017
v -3.73227480 1.88955794 1.94634535
v -3.73232322 1.90622320 1.94642473
v -3.73238782 1.92288844 1.94655177
v -3.73254127 1.93958696 1.94671053
v -3.73288039 1.96573244 1.94691689
v -3.70095862 1.96573244 2.02144112
v -3.70095057 1.78633983 2.02144899
v -3.70095057 1.62590766 2.02144112
v -3.73289656 1.62590766 1.94679785
v -3.73242819 1.67280988 1.94650412
v -3.73222631 1.68947513 1.94654384
v -3.73216977 1.73950415 1.94640887
v -3.73212939 1.75616940 1.94638507
v -3.73212939 1.77283465 1.94637714
v -3.73220209 1.82286367 1.94633742
v -3.73225863 1.87289269 1.94633742
v -3.74778750 1.88955794 1.94095527
v -3.74778750 1.87289269 1.94093147
v -3.74778750 1.90622320 1.94106644
v -3.74128684 1.96573244 1.94401946
v -3.74778750 1.96573244 2.02160776
v -3.70095057 1.73950415 2.02151257
v -3.70095057 1.75616940 2.02149670
v -3.70095057 1.63625278 2.02145698
v -3.74463003 1.62590766 2.02160776
v -3.74779556 1.62590766 1.94130458
v -3.74779556 1.67280988 1.94116168
v -3.74779556 1.75616940 1.94097119
v -3.74778750 1.82286367 1.94092354
v -3.73218593 1.80619842 1.94634535
v -3.74778750 1.85622744 1.94092354
v -3.76446304 1.96573244 1.94186026
v -3.76446304 1.62590766 1.94052662
v -3.74778750 1.92288844 1.94127280
v -3.75723559 1.96573244 1.94171736
v -3.74778750 1.96573244 1.94183641
v -3.76446304 1.96573244 2.02078220
v -3.76131368 1.62590766 2.02110772
v -3.74779556 1.62590766 2.02159988
v -3.70095057 1.71964556 2.02151257
v -3.70095057 1.65611137 2.02147285
v -3.77197308 1.96573244 1.94474977
v -3.77765004 1.62590766 1.94601196
v -3.77726243 1.96573244 1.94693276
v -3.77442797 1.96573244 2.01901992
v -3.77290175 1.62590766 2.01945649
v -3.76446304 1.62590766 2.02092510
v -3.78297976 1.62590766 1.95976101
v -3.78028260 1.96573244 1.95432327
v -3.77928934 1.96573244 2.00977187
v -3.77922475 1.62590766 2.01147863
v -3.77464602 1.62590766 2.01914695
v -3.78344813 1.62590766 1.97643923
v -3.78241448 1.96573244 1.96919955
v -3.78213184 1.96573244 1.95976101
v -3.78074292 1.96573244 2.00254812
v -3.78283442 1.62590766 1.99625309
v -3.77995959 1.62590766 2.00977187
v -3.78261637 1.96573244 1.98586191
v -3.78255983 1.96573244 1.97643923
v -3.78342391 1.62590766 1.99309365
v -3.78255983 1.96573244 1.99309365
f 1 2 10
f 1 10 3
f 1 3 11
f 1 11 27
f 1 27 26
f 1 26 44
f 1 44 45
f 1 45 28
f 1 28 12
f 1 12 4
f 1 4 2
f 2 5 6
f 2 6 7
f 2 7 8
f 2 8 9
f 2 9 24
f 2 24 40
f 2 40 39
f 2 39 36
f 2 36 46
f 2 46 48
f 2 48 53
f 2 53 59
f 2 59 58
f 2 58 64
f 2 64 63
f 2 63 66
f 2 66 60
f 2 60 54
f 2 54 49
f 2 49 41
f 2 41 25
f 2 25 10
f 2 4 5
f 3 10 11
f 4 12 29
f 4 29 43
f 4 43 42
f 4 42 51
f 4 51 50
f 4 50 56
f 4 56 55
f 4 55 62
f 4 62 61
f 4 61 65
f 4 65 57
f 4 57 52
f 4 52 47
f 4 47 37
f 4 37 30
f 4 30 13
f 4 13 14
f 4 14 15
f 4 15 16
f 4 16 17
f 4 17 18
f 4 18 19
f 4 19 20
f 4 20 5
f 5 21 6
f 5 20 22
f 5 22 21
f 6 21 23
f 6 23 7
f 7 23 24
f 7 24 9
f 7 9 8
f 10 25 26
f 10 26 27
f 10 27 11
f 12 28 29
f 13 30 14
f 14 31 16
f 14 16 15
f 14 30 31
f 16 32 17
f 16 31 32
f 17 32 33
f 17 33 18
f 18 33 34
f 18 34 19
f 19 34 33
f 19 33 35
f 19 35 20
f 20 35 22
f 21 36 23
f 21 22 37
f 21 37 36
f 22 35 37
f 23 38 24
f 23 36 39
f 23 39 38
f 24 38 40
f 25 41 42
f 25 42 43
f 25 43 29
f 25 29 26
f 26 29 44
f 28 45 29
f 29 45 44
f 30 37 31
f 31 37 32
f 32 37 33
f 33 37 35
f 36 37 46
f 37 47 48
f 37 48 46
f 38 39 40
f 41 49 50
f 41 50 51
f 41 51 42
f 47 52 53
f 47 53 48
f 49 54 55
f 49 55 56
f 49 56 50
f 52 57 58
f 52 58 59
f 52 59 53
f 54 60 61
f 54 61 62
f 54 62 55
f 57 63 64
f 57 64 58
f 57 65 63
f 60 66 61
f 61 66 65
f 63 65 66

