# https://github.com/mikedh/trimesh
v -0.09875709 -0.76037835 0.07395765
v -0.09875709 -0.74689289 0.07859844
v -0.08206109 -0.76037835 0.07397136
v -0.08206109 -0.77703283 0.07398513
v -0.09875709 -0.77703283 0.07398513
v -0.84855966 -0.76037835 0.07431462
v -0.86525568 -0.74664088 0.07877696
v -0.73185626 -0.74651873 0.07877696
v -0.09875709 -0.73567535 0.08848426
v -0.08206109 -0.74699979 0.07861221
v -0.73185626 -0.73567535 0.08768787
v -0.71516025 -0.73567535 0.08770164
v -0.06544938 -0.76037835 0.07404002
v -0.05946246 -0.76633457 0.07404002
v -0.05946246 -0.77703283 0.07402631
v -0.11545308 -0.79053357 0.07861221
v -0.05946246 -0.78188180 0.07566021
v -0.05946246 -0.79057175 0.07862592
v -0.76524827 -0.79015178 0.07877696
v -0.74855227 -0.77703283 0.07432839
v -0.89856337 -0.76037835 0.07434210
v -0.89856337 -0.74661799 0.07880444
v -0.91525939 -0.74657982 0.07883186
v -0.92065607 -0.74656454 0.07884563
v -0.74855227 -0.73567535 0.08768787
v -0.08206109 -0.73567535 0.08871767
v -0.06544938 -0.74716779 0.07865340
v -0.05946246 -0.76037835 0.07413616
v -0.05937812 -0.74237230 0.19284773
v -0.05937812 -0.79668071 0.19284773
v -0.05946246 -0.79354223 0.08148184
v -0.78185995 -0.79845992 0.08730342
v -0.78185995 -0.79012123 0.07879067
v -0.89856337 -0.77703283 0.07442447
v -0.88186737 -0.77703283 0.07441077
v -0.05946246 -0.79891045 0.08671303
v -0.24876821 -0.79878063 0.08678169
v -0.74855227 -0.79849047 0.08724852
v -0.91525939 -0.76037835 0.07439700
v -0.92065607 -0.75582720 0.07586614
v -0.92082472 -0.74069995 0.19284773
v -0.92065607 -0.73567535 0.08788010
v -0.06544938 -0.73567535 0.08915702
v -0.05946246 -0.74732050 0.07873577
v -0.05946246 -0.75188694 0.07710188
v -0.05946246 -0.73567535 0.08945910
v -0.05946246 -0.73567535 0.18227545
v -0.05937812 -0.74688526 0.21422572
v -0.05937812 -0.79272516 0.21414334
v -0.05946246 -0.81270901 0.15819265
v -0.05946246 -0.81325881 0.14745562
v -0.05946246 -0.81352608 0.14152413
v -0.05946246 -0.81354137 0.13084199
v -0.05946246 -0.81354137 0.12488309
v -0.05946246 -0.81270138 0.11415977
v -0.05946246 -0.81222031 0.10822834
v -0.05946246 -0.80643971 0.09504726
v -0.89856337 -0.78985395 0.07888681
v -0.88186737 -0.78988450 0.07885934
v -0.92065607 -0.80614192 0.09580246
v -0.92065607 -0.79813922 0.08746823
v -0.92065607 -0.78980815 0.07894171
v -0.92065607 -0.77703283 0.07453433
v -0.92065607 -0.77155771 0.07449314
v -0.24876821 -0.80651607 0.09511592
v -0.49853376 -0.80653898 0.09530815
v -0.92065607 -0.76037835 0.07442447
v -0.92082472 -0.79540546 0.19284773
v -0.92082472 -0.74482349 0.21422572
v -0.92065607 -0.73567535 0.18298940
v -0.06502779 -0.73567535 0.18228916
v -0.89864771 -0.74483875 0.21422572
v -0.88195168 -0.74486167 0.21422572
v -0.05937812 -0.79204556 0.21422572
v -0.05946246 -0.79272516 0.21422572
v -0.28207592 -0.81310610 0.15819265
v -0.11545308 -0.81357955 0.14152413
v -0.06544938 -0.81354901 0.12488309
v -0.06544938 -0.81223557 0.10822834
v -0.06544938 -0.80646263 0.09508851
v -0.92065607 -0.81167049 0.10821457
v -0.73185626 -0.81195305 0.10821457
v -0.49853376 -0.81226611 0.10821457
v -0.92082472 -0.79022050 0.21422572
v -0.92065607 -0.81268609 0.11939101
v -0.92065607 -0.81317482 0.12488309
v -0.92065607 -0.81327411 0.13604576
v -0.92065607 -0.81331990 0.14152413
v -0.92065607 -0.81277774 0.15817888
v -0.92048742 -0.74482349 0.21422572
v -0.74897389 -0.73567535 0.18326406
v -0.91542801 -0.73567535 0.18305807
v -0.21546050 -0.73567535 0.18256382
v -0.21546050 -0.79267936 0.21422572
v -0.68193688 -0.80765387 0.17486111
v -0.56523346 -0.81335808 0.15817888
v -0.33207963 -0.81368645 0.14152413
v -0.34877563 -0.81358717 0.12488309
v -0.74855227 -0.81346498 0.12488309
v -0.38208328 -0.81358717 0.12488309
v -0.48209070 -0.81355662 0.12488309
v -0.92065607 -0.80896730 0.16899835
v -0.92065607 -0.80711171 0.17424330
v -0.74863658 -0.79128957 0.21422572
v -0.74855227 -0.81361010 0.14152413
v -0.73185626 -0.81338863 0.15817888
v -0.74855227 -0.81335045 0.15817888
v -0.73185626 -0.80761569 0.17486111
v -0.56523346 -0.73567535 0.18315421
v -0.74855227 -0.73567535 0.18326406
v -0.71516025 -0.80763096 0.17486111
v -0.73194057 -0.79135065 0.21422572
v -0.71516025 -0.81340392 0.15817888
v -0.68193688 -0.81340392 0.15817888
v -0.34877563 -0.81368645 0.14152413
v -0.71516025 -0.81365591 0.14152413
v -0.74256532 -0.79131246 0.21422572
f 1 2 3
f 1 3 4
f 1 4 5
f 1 5 6
f 1 6 7
f 1 7 8
f 1 8 2
f 2 9 10
f 2 10 3
f 2 8 11
f 2 11 12
f 2 12 9
f 3 10 13
f 3 13 14
f 3 14 15
f 3 15 4
f 4 16 5
f 4 15 17
f 4 17 18
f 4 18 16
f 5 16 19
f 5 19 20
f 5 20 6
f 6 20 21
f 6 21 7
f 7 21 22
f 7 22 23
f 7 23 8
f 8 23 24
f 8 24 25
f 8 25 11
f 9 26 27
f 9 27 10
f 9 12 11
f 9 11 25
f 9 25 42
f 9 42 70
f 9 70 92
f 9 92 91
f 9 91 110
f 9 110 109
f 9 109 93
f 9 93 71
f 9 71 47
f 9 47 46
f 9 46 43
f 9 43 26
f 10 27 13
f 13 27 28
f 13 28 14
f 14 28 29
f 14 29 15
f 15 29 30
f 15 30 17
f 16 18 31
f 16 31 19
f 17 30 18
f 18 30 31
f 19 32 33
f 19 33 34
f 19 34 35
f 19 35 20
f 19 31 36
f 19 36 37
f 19 37 38
f 19 38 32
f 20 35 21
f 21 35 34
f 21 34 39
f 21 39 40
f 21 40 24
f 21 24 23
f 21 23 22
f 24 40 41
f 24 41 42
f 24 42 25
f 26 43 27
f 27 43 44
f 27 44 45
f 27 45 28
f 28 45 29
f 29 45 44
f 29 44 46
f 29 46 47
f 29 47 48
f 29 48 74
f 29 74 49
f 29 49 30
f 30 49 50
f 30 50 51
f 30 51 52
f 30 52 53
f 30 53 54
f 30 54 55
f 30 55 56
f 30 56 57
f 30 57 36
f 30 36 31
f 32 58 59
f 32 59 33
f 32 38 60
f 32 60 61
f 32 61 58
f 33 59 34
f 34 59 58
f 34 58 62
f 34 62 63
f 34 63 64
f 34 64 39
f 36 57 65
f 36 65 66
f 36 66 37
f 37 66 38
f 38 66 60
f 39 64 67
f 39 67 40
f 40 67 41
f 41 68 84
f 41 84 69
f 41 69 70
f 41 70 42
f 41 67 68
f 43 46 44
f 47 71 72
f 47 72 73
f 47 73 48
f 48 73 72
f 48 72 90
f 48 90 69
f 48 69 84
f 48 84 104
f 48 104 117
f 48 117 112
f 48 112 94
f 48 94 75
f 48 75 74
f 49 74 75
f 49 75 50
f 50 75 76
f 50 76 51
f 51 76 52
f 52 76 77
f 52 77 53
f 53 77 78
f 53 78 54
f 54 78 55
f 55 78 79
f 55 79 56
f 56 79 57
f 57 79 80
f 57 80 65
f 58 61 62
f 60 81 68
f 60 68 61
f 60 66 82
f 60 82 81
f 61 68 62
f 62 68 63
f 63 68 64
f 64 68 67
f 65 83 66
f 65 80 79
f 65 79 83
f 66 83 82
f 68 81 85
f 68 85 86
f 68 86 87
f 68 87 88
f 68 88 89
f 68 89 84
f 69 90 110
f 69 110 91
f 69 91 92
f 69 92 70
f 71 93 90
f 71 90 72
f 75 94 95
f 75 95 76
f 76 95 96
f 76 96 77
f 77 96 97
f 77 97 78
f 78 97 98
f 78 98 79
f 79 98 83
f 81 82 99
f 81 99 85
f 82 83 99
f 83 98 100
f 83 100 101
f 83 101 99
f 84 89 102
f 84 102 103
f 84 103 104
f 85 99 86
f 86 99 87
f 87 99 105
f 87 105 88
f 88 105 106
f 88 106 107
f 88 107 89
f 89 107 108
f 89 108 102
f 90 93 109
f 90 109 110
f 94 111 95
f 94 112 108
f 94 108 111
f 95 111 113
f 95 113 114
f 95 114 96
f 96 114 97
f 97 114 113
f 97 113 115
f 97 115 100
f 97 100 98
f 99 101 116
f 99 116 105
f 100 115 116
f 100 116 101
f 102 108 103
f 103 108 104
f 104 108 117
f 105 116 106
f 106 108 107
f 106 116 113
f 106 113 111
f 106 111 108
f 108 112 117
f 113 116 115

