# https://github.com/mikedh/trimesh
v -1.80850344 -0.79699791 1.89166989
v -1.69020308 -0.79408191 1.89166989
v -1.80850344 -0.74981688 1.89166989
v -1.80850344 -0.79709634 1.85820017
v -1.69020308 -0.75055293 1.89166989
v -1.80850344 -0.79713854 1.84151055
v -1.69020308 -0.79428348 1.79153212
v -1.80850344 -0.74978875 1.87484455
v -1.80850344 -0.74977472 1.85820017
v -1.69020308 -0.75160304 1.56642579
v -1.80850344 -0.74979814 1.57488364
v -1.80850344 -0.74978407 1.59157325
v -1.80850344 -0.79716667 1.82486612
v -1.69020308 -0.79493043 1.42965228
v -1.69020308 -0.75163117 1.55823926
v -1.80850344 -0.75035133 1.42965228
v -1.80850344 -0.79742920 1.55823926
v -1.80848031 -0.79766360 1.42965228
v -1.69020308 -0.75220314 1.42965228
v -1.69020308 -0.75166869 1.54978135
v -1.80850344 -0.79729325 1.42965228
v -1.80850344 -0.79751357 1.44159283
f 1 2 5
f 1 5 3
f 1 3 8
f 1 8 9
f 1 9 12
f 1 12 11
f 1 11 16
f 1 16 21
f 1 21 22
f 1 22 17
f 1 17 13
f 1 13 6
f 1 6 4
f 1 4 2
f 2 4 6
f 2 6 7
f 2 7 14
f 2 14 19
f 2 19 20
f 2 20 15
f 2 15 10
f 2 10 5
f 3 5 8
f 5 9 8
f 5 10 11
f 5 11 12
f 5 12 9
f 6 13 14
f 6 14 7
f 10 15 11
f 11 15 16
f 13 17 18
f 13 18 14
f 14 18 21
f 14 21 16
f 14 16 19
f 15 20 16
f 16 20 19
f 17 22 18
f 18 22 21

