# https://github.com/mikedh/trimesh
v -2.98184252 -0.26101730 0.56976572
v -2.98184252 -0.24493250 0.56972668
v -2.98352792 -0.24493250 0.56972668
v -3.00019380 -0.24493250 0.56971693
v -2.99960024 -0.26101730 0.56974620
v -2.98293437 -0.37769879 0.56974620
v -2.98184252 -0.37769879 0.56974620
v -2.98184252 -0.24493250 0.47427361
v -3.00679615 -0.24493250 0.56970719
v -3.00679615 -0.26101730 0.56973645
v -2.99960024 -0.37769879 0.56972668
v -2.98293437 -0.39436123 0.56972668
v -2.98184252 -0.39436123 0.56972668
v -2.98194511 -0.24493250 0.47427361
v -2.98184252 -0.24746518 0.47390280
v -2.98293437 -0.26101730 0.47187313
v -3.00679615 -0.24493250 0.49649264
v -3.00679615 -0.37769879 0.56971693
v -2.99960024 -0.39436123 0.56970719
v -2.99960024 -0.51099828 0.56951201
v -2.98293437 -0.52766071 0.56949249
v -2.98184252 -0.51099828 0.56952176
v -2.99617572 -0.24493250 0.47437118
v -2.98184252 -0.26101730 0.47240004
v -2.98293437 -0.27767973 0.47153159
v -2.99711856 -0.26101730 0.47385399
v -2.99667889 -0.24493250 0.47443949
v -3.00669112 -0.24493250 0.49613161
v -3.00422165 -0.26101730 0.48687121
v -3.00454896 -0.36103635 0.48687121
v -3.00456606 -0.37769879 0.48687121
v -3.00458071 -0.41102366 0.48687121
v -3.00679615 -0.42768610 0.49721472
v -3.00679615 -0.39436123 0.56969741
v -3.00679615 -0.51099828 0.56948274
v -3.00679615 -0.69886167 0.56906315
v -2.99960024 -0.69432951 0.56908264
v -2.98293437 -0.69432951 0.56910217
v -2.98214052 -0.69886167 0.56909242
v -2.98184252 -0.69886167 0.56909242
v -2.98184252 -0.52654988 0.56949249
v -2.98184252 -0.27767973 0.47206828
v -2.98184252 -0.27954594 0.47203901
v -2.98293437 -0.29434219 0.47131689
v -3.00386014 -0.24493250 0.48687121
v -3.00360611 -0.24493250 0.48641261
v -2.98293437 -0.34437392 0.47077043
v -2.99711123 -0.27767973 0.47368811
v -2.99764372 -0.36103635 0.47352222
v -2.99772921 -0.37769879 0.47350273
v -2.99773898 -0.39436123 0.47349296
v -2.99772433 -0.41102366 0.47345392
v -2.99764860 -0.46101097 0.47341488
v -3.00454651 -0.42768610 0.48687121
v -3.00679615 -0.69886167 0.49841496
v -2.98184252 -0.69886167 0.47188290
v -2.98184252 -0.29434219 0.47185358
v -2.98184252 -0.34610682 0.47128763
v -2.98293437 -0.36103635 0.47061433
v -2.98184252 -0.36276924 0.47112175
v -2.98293437 -0.37769879 0.47048749
v -2.98293437 -0.44434853 0.47010691
v -2.98293437 -0.46101097 0.47007764
v -2.99768036 -0.42768610 0.47341488
v -2.99766082 -0.44434853 0.47340516
v -2.99754846 -0.49433584 0.47340516
v -2.99726756 -0.66100464 0.47352222
v -3.00448789 -0.44434853 0.48687121
v -3.00332033 -0.69886167 0.48687121
v -2.98204282 -0.69886167 0.47178527
v -2.98184252 -0.67948882 0.47156086
v -2.98184252 -0.37769879 0.47101440
v -2.98184252 -0.42768610 0.47072168
v -2.98184252 -0.42937456 0.47071190
v -2.98184252 -0.44603699 0.47062410
v -2.98293437 -0.49433584 0.47014595
v -2.99744343 -0.51099828 0.47339538
v -2.98184252 -0.46101097 0.47060455
v -2.98184252 -0.46269943 0.47060455
v -2.98293437 -0.57764802 0.47037037
v -2.98293437 -0.59431046 0.47041918
v -2.99713077 -0.67766708 0.47356127
v -2.99705994 -0.69886167 0.47374664
v -2.98293437 -0.69886167 0.47137549
v -2.98293437 -0.67766708 0.47100468
v -2.98184252 -0.67766708 0.47153159
v -2.98184252 -0.49433584 0.47067286
v -2.98184252 -0.57938091 0.47088756
v -2.98293437 -0.66100464 0.47082903
v -2.98184252 -0.59431046 0.47093638
v -2.98184252 -0.66100464 0.47136571
f 1 2 3
f 1 3 4
f 1 4 5
f 1 5 6
f 1 6 7
f 1 7 13
f 1 13 22
f 1 22 41
f 1 41 40
f 1 40 56
f 1 56 71
f 1 71 86
f 1 86 91
f 1 91 90
f 1 90 88
f 1 88 87
f 1 87 79
f 1 79 78
f 1 78 75
f 1 75 74
f 1 74 73
f 1 73 72
f 1 72 60
f 1 60 58
f 1 58 57
f 1 57 43
f 1 43 42
f 1 42 24
f 1 24 15
f 1 15 8
f 1 8 2
f 2 8 14
f 2 14 23
f 2 23 27
f 2 27 46
f 2 46 45
f 2 45 28
f 2 28 17
f 2 17 9
f 2 9 4
f 2 4 3
f 4 9 10
f 4 10 5
f 5 10 18
f 5 18 11
f 5 11 6
f 6 11 19
f 6 19 12
f 6 12 13
f 6 13 7
f 8 15 16
f 8 16 14
f 9 17 33
f 9 33 55
f 9 55 36
f 9 36 35
f 9 35 34
f 9 34 18
f 9 18 10
f 11 18 34
f 11 34 19
f 12 19 20
f 12 20 21
f 12 21 22
f 12 22 13
f 14 16 23
f 15 24 16
f 16 25 26
f 16 26 27
f 16 27 23
f 16 24 25
f 17 28 29
f 17 29 30
f 17 30 31
f 17 31 32
f 17 32 33
f 19 34 20
f 20 35 36
f 20 36 37
f 20 37 38
f 20 38 21
f 20 34 35
f 21 38 39
f 21 39 40
f 21 40 41
f 21 41 22
f 24 42 25
f 25 42 43
f 25 43 44
f 25 44 26
f 26 29 45
f 26 45 46
f 26 46 27
f 26 44 47
f 26 47 48
f 26 48 49
f 26 49 29
f 28 45 29
f 29 49 50
f 29 50 30
f 30 50 31
f 31 50 51
f 31 51 32
f 32 51 52
f 32 52 53
f 32 53 54
f 32 54 55
f 32 55 33
f 36 55 69
f 36 69 83
f 36 83 84
f 36 84 70
f 36 70 56
f 36 56 40
f 36 40 39
f 36 39 37
f 37 39 38
f 43 57 44
f 44 57 58
f 44 58 47
f 47 59 48
f 47 58 60
f 47 60 59
f 48 59 61
f 48 61 62
f 48 62 49
f 49 62 50
f 50 52 51
f 50 62 63
f 50 63 64
f 50 64 52
f 52 64 65
f 52 65 53
f 53 65 66
f 53 66 67
f 53 67 54
f 54 67 68
f 54 68 55
f 55 68 69
f 56 70 71
f 59 60 61
f 60 72 61
f 61 72 73
f 61 73 74
f 61 74 62
f 62 74 75
f 62 75 63
f 63 76 67
f 63 67 77
f 63 77 66
f 63 66 65
f 63 65 64
f 63 75 78
f 63 78 79
f 63 79 76
f 66 77 67
f 67 76 80
f 67 80 81
f 67 81 82
f 67 82 83
f 67 83 69
f 67 69 68
f 70 84 85
f 70 85 71
f 71 85 86
f 76 87 88
f 76 88 80
f 76 79 87
f 80 88 81
f 81 89 82
f 81 88 90
f 81 90 89
f 82 89 83
f 83 89 85
f 83 85 84
f 85 89 86
f 86 89 91
f 89 90 91

