# https://github.com/mikedh/trimesh
v -1.91151436 -0.71431899 1.00703998
v -1.91028768 -0.64915779 1.00822988
v -1.91028768 -0.64915779 1.00703998
v -1.84038968 -0.71431899 1.00703998
v -1.91147949 -0.71431899 1.22487183
v -1.91009951 -0.64915779 1.22487183
v -1.84038271 -0.64915779 1.00703998
v -1.84037574 -0.69370013 1.00703998
v -1.84033395 -0.67704301 1.02740340
v -1.84031303 -0.67704301 1.04154693
v -1.84033395 -0.69132054 1.04154693
v -1.84038968 -0.71431899 1.04154693
v -1.91146560 -0.71431899 1.23758207
v -1.91008562 -0.64915779 1.23609469
v -1.84037574 -0.66037312 1.00703998
v -1.84037574 -0.64915779 1.00744562
v -1.84036876 -0.67704301 1.00822988
v -1.84034790 -0.64915779 1.02275199
v -1.84040363 -0.71428709 1.28331188
v -1.84033395 -0.64915779 1.03259567
v -1.84032001 -0.66037312 1.04154693
v -1.84032698 -0.64915779 1.04700963
v -1.84032698 -0.66037312 1.05823249
v -1.84041061 -0.69352789 1.28331188
v -1.84045942 -0.71431899 1.27879568
v -1.91145862 -0.71431899 1.24153034
v -1.91007865 -0.64915779 1.24153034
v -1.87672218 -0.71431899 1.28331188
v -1.84032698 -0.64915779 1.04154693
v -1.84048028 -0.64915779 1.28331188
v -1.84045245 -0.65998396 1.28331188
v -1.91142376 -0.71431899 1.25424057
v -1.91000193 -0.64915779 1.28331188
v -1.91131921 -0.71431899 1.28331188
f 1 2 3
f 1 3 7
f 1 7 15
f 1 15 8
f 1 8 4
f 1 4 12
f 1 12 25
f 1 25 28
f 1 28 34
f 1 34 32
f 1 32 26
f 1 26 13
f 1 13 5
f 1 5 2
f 2 5 6
f 2 6 14
f 2 14 27
f 2 27 33
f 2 33 30
f 2 30 22
f 2 22 29
f 2 29 20
f 2 20 18
f 2 18 16
f 2 16 7
f 2 7 3
f 4 8 9
f 4 9 10
f 4 10 11
f 4 11 12
f 5 13 6
f 6 13 14
f 7 16 15
f 8 15 17
f 8 17 9
f 9 18 10
f 9 17 18
f 10 19 11
f 10 18 20
f 10 20 21
f 10 21 22
f 10 22 23
f 10 23 24
f 10 24 19
f 11 19 12
f 12 19 25
f 13 26 27
f 13 27 14
f 15 16 17
f 16 18 17
f 19 24 31
f 19 31 30
f 19 30 33
f 19 33 34
f 19 34 28
f 19 28 25
f 20 29 21
f 21 29 22
f 22 30 31
f 22 31 24
f 22 24 23
f 26 32 33
f 26 33 27
f 32 34 33

