# https://github.com/mikedh/trimesh
v 0.12370524 -0.77767938 0.02019815
v 0.12458108 -0.76101873 0.02019815
v 0.12478671 -0.76101873 0.00353184
v 0.12425360 -0.77767938 0.00353184
v 0.12835873 -0.79272816 0.00353184
v 0.12793982 -0.79304319 0.02019815
v 0.12807691 -0.79290398 0.03686445
v 0.12844254 -0.79264023 0.07019707
v 0.12848068 -0.79261827 0.07286499
v 0.12397942 -0.77767938 0.03686445
v 0.12509141 -0.76101873 0.07019707
v 0.12488578 -0.76101873 0.05353076
v 0.12797797 -0.74435079 0.02019815
v 0.12793231 -0.74435079 0.03686445
v 0.12931837 -0.74271695 0.00206448
v 0.13014093 -0.74718617 -0.00711495
v 0.12876237 -0.76101873 -0.00835724
v 0.12867870 -0.77767938 -0.00832386
v 0.13003434 -0.79022980 -0.00706488
v 0.14077316 -0.79974701 0.00353184
v 0.14077316 -0.80060423 0.02019815
v 0.14077316 -0.80019394 0.07019707
v 0.14077316 -0.80016464 0.07286499
v 0.13041510 -0.79382716 0.07286499
v 0.12464962 -0.77767938 0.07286499
v 0.12458108 -0.77767938 0.07019707
v 0.12426886 -0.77767938 0.05353076
v 0.12472579 -0.77501249 0.07286499
v 0.12515996 -0.76101873 0.07286499
v 0.12840450 -0.74435079 0.07019707
v 0.12809217 -0.74435079 0.05353076
v 0.13152710 -0.73510463 0.03686445
v 0.13160327 -0.73519988 0.02019815
v 0.13251721 -0.73607908 -0.00447200
v 0.13197641 -0.73557355 0.00664168
v 0.13915853 -0.74271695 -0.00875743
v 0.14077316 -0.76101873 -0.01200066
v 0.14077316 -0.77767938 -0.01195894
v 0.14077316 -0.79239847 -0.00831551
v 0.15744501 -0.80002544 0.00353184
v 0.15744501 -0.80116838 0.02019815
v 0.15744501 -0.80119768 0.07286499
v 0.14343883 -0.80035513 0.07286499
v 0.12848820 -0.74435079 0.07286499
v 0.13188508 -0.73547829 0.07019707
v 0.13166419 -0.73524385 0.05353076
v 0.12901380 -0.74298070 0.07286499
v 0.14097117 -0.73100177 0.07286499
v 0.14077316 -0.73157324 0.03686445
v 0.14077316 -0.73182967 0.02019815
v 0.13915853 -0.73339025 0.00206448
v 0.14362920 -0.73429138 -0.00665635
v 0.15744501 -0.74435079 -0.01131699
v 0.15744501 -0.76101873 -0.01210902
v 0.17410160 -0.77767938 -0.01230071
v 0.15744501 -0.77767938 -0.01218401
v 0.15744501 -0.79243510 -0.00849063
v 0.17410160 -0.80083868 0.02019815
v 0.17410160 -0.79214202 -0.00859900
v 0.17410160 -0.79958584 0.00353184
v 0.17410160 -0.80086797 0.07019707
v 0.17410160 -0.80086797 0.07286499
v 0.13193837 -0.73552958 0.07286499
v 0.15744501 -0.72691355 0.07286499
v 0.15744501 -0.72890635 0.02019815
v 0.15744501 -0.72973427 0.00353184
v 0.15744501 -0.73319975 -0.00769860
v 0.17410160 -0.73293599 -0.00777358
v 0.17410160 -0.74435079 -0.01128361
v 0.17410160 -0.76101873 -0.01200889
v 0.19076582 -0.76101873 -0.00926598
v 0.19189302 -0.77814096 -0.00842388
v 0.18708723 -0.78992209 -0.00737340
v 0.18996616 -0.79258165 0.00353184
v 0.19062873 -0.79324102 0.02019815
v 0.17732327 -0.79951255 0.07286499
v 0.17109321 -0.72643730 0.07286499
v 0.17410160 -0.72823964 0.02019815
v 0.17410160 -0.72913348 0.00353184
v 0.18572395 -0.73393971 -0.00675648
v 0.19107810 -0.74564758 -0.00746507
v 0.19927314 -0.75206566 -0.00501387
v 0.19995097 -0.76101873 -0.00572257
v 0.20005761 -0.77289512 -0.00582259
v 0.19829824 -0.78405349 0.00353184
v 0.19896088 -0.78549683 0.02019815
v 0.19907515 -0.78590712 0.03686445
v 0.19095627 -0.79321903 0.07286499
v 0.17410160 -0.72634939 0.07286499
v 0.18851145 -0.73197620 0.02019815
v 0.18786407 -0.73246707 0.00353184
v 0.19620384 -0.74322249 0.00353184
v 0.19684358 -0.74306129 0.02019815
v 0.19939499 -0.75155281 0.00353184
v 0.20104772 -0.76101873 0.00353184
v 0.20075070 -0.77571583 0.00353184
v 0.20092587 -0.77716651 0.02019815
v 0.20031653 -0.78414874 0.07286499
v 0.19781842 -0.78668374 0.07286499
v 0.18615043 -0.72997603 0.07286499
v 0.18920454 -0.73097978 0.07286499
v 0.19707968 -0.74331042 0.03686445
v 0.19939499 -0.75139161 0.02019815
v 0.20150471 -0.76167814 0.07286499
v 0.20122289 -0.76101873 0.02019815
v 0.20144378 -0.77714454 0.07286499
v 0.19735386 -0.74435079 0.07286499
f 1 2 3
f 1 3 4
f 1 4 5
f 1 5 6
f 1 6 7
f 1 7 8
f 1 8 9
f 1 9 10
f 1 10 11
f 1 11 12
f 1 12 2
f 2 13 3
f 2 12 14
f 2 14 13
f 3 13 15
f 3 15 16
f 3 16 17
f 3 17 4
f 4 17 18
f 4 18 19
f 4 19 5
f 5 19 20
f 5 20 21
f 5 21 6
f 6 21 22
f 6 22 23
f 6 23 7
f 7 23 24
f 7 24 8
f 8 24 9
f 9 25 26
f 9 26 27
f 9 27 10
f 9 24 23
f 9 23 43
f 9 43 42
f 9 42 62
f 9 62 76
f 9 76 88
f 9 88 99
f 9 99 98
f 9 98 106
f 9 106 104
f 9 104 107
f 9 107 101
f 9 101 100
f 9 100 89
f 9 89 77
f 9 77 64
f 9 64 48
f 9 48 63
f 9 63 47
f 9 47 44
f 9 44 29
f 9 29 28
f 9 28 25
f 10 27 11
f 11 26 28
f 11 28 29
f 11 29 30
f 11 30 31
f 11 31 12
f 11 27 26
f 12 31 14
f 13 14 32
f 13 32 33
f 13 33 15
f 14 31 32
f 15 34 16
f 15 33 35
f 15 35 34
f 16 34 36
f 16 36 37
f 16 37 17
f 17 37 18
f 18 37 38
f 18 38 19
f 19 38 39
f 19 39 20
f 20 39 40
f 20 40 41
f 20 41 21
f 21 41 42
f 21 42 43
f 21 43 22
f 22 43 23
f 25 28 26
f 29 44 30
f 30 45 46
f 30 46 31
f 30 44 47
f 30 47 45
f 31 46 32
f 32 46 48
f 32 48 33
f 33 48 49
f 33 49 50
f 33 50 35
f 34 35 51
f 34 51 52
f 34 52 36
f 35 50 51
f 36 53 37
f 36 52 53
f 37 54 55
f 37 55 56
f 37 56 38
f 37 53 54
f 38 56 39
f 39 56 57
f 39 57 40
f 40 58 41
f 40 57 59
f 40 59 60
f 40 60 58
f 41 58 61
f 41 61 42
f 42 61 62
f 45 47 63
f 45 63 48
f 45 48 46
f 48 64 49
f 49 64 50
f 50 65 66
f 50 66 51
f 50 64 65
f 51 66 52
f 52 67 53
f 52 66 67
f 53 67 68
f 53 68 69
f 53 69 54
f 54 69 70
f 54 70 55
f 55 70 71
f 55 71 72
f 55 72 73
f 55 73 59
f 55 59 57
f 55 57 56
f 58 60 74
f 58 74 75
f 58 75 76
f 58 76 61
f 59 73 60
f 60 73 74
f 61 76 62
f 64 77 78
f 64 78 65
f 65 78 66
f 66 78 79
f 66 79 67
f 67 79 68
f 68 79 80
f 68 80 69
f 69 71 70
f 69 80 81
f 69 81 71
f 71 81 82
f 71 82 83
f 71 83 84
f 71 84 72
f 72 84 73
f 73 84 85
f 73 85 74
f 74 85 86
f 74 86 75
f 75 86 87
f 75 87 88
f 75 88 76
f 77 89 78
f 78 90 91
f 78 91 79
f 78 89 90
f 79 91 80
f 80 91 92
f 80 92 82
f 80 82 81
f 82 92 93
f 82 93 94
f 82 94 95
f 82 95 83
f 83 95 84
f 84 95 96
f 84 96 85
f 85 96 86
f 86 97 98
f 86 98 87
f 86 96 97
f 87 98 99
f 87 99 88
f 89 100 90
f 90 93 92
f 90 92 91
f 90 100 101
f 90 101 93
f 93 102 94
f 93 101 102
f 94 102 103
f 94 103 104
f 94 104 105
f 94 105 95
f 95 105 97
f 95 97 96
f 97 105 106
f 97 106 98
f 101 107 102
f 102 107 103
f 103 107 104
f 104 106 105

