# https://github.com/mikedh/trimesh
v -2.48761025 -0.73542980 1.09364918
v -2.48761025 -0.78298113 1.09364918
v -2.48765859 -0.73518903 1.09364918
v -2.48761025 -0.72388718 1.11699664
v -2.48756185 -0.72409964 1.22533005
v -2.48756185 -0.78499930 1.22533005
v -2.48761025 -0.79094765 1.15358617
v -2.49970597 -0.79103262 1.15358617
v -2.88285089 -0.78567203 1.09364918
v -2.49970597 -0.73516072 1.09364918
v -2.48761025 -0.72388718 1.22510811
v -2.98184248 -0.72388012 1.11612370
v -2.98184248 -0.72227972 1.22533005
v -2.93292729 -0.72238594 1.22533005
v -2.48756185 -0.73601048 1.24480106
v -2.48756185 -0.78358305 1.24480106
v -2.48761025 -0.79025367 1.20349174
v -2.48761025 -0.79045195 1.19889030
v -2.48761025 -0.79152833 1.17017204
v -2.48761025 -0.79137961 1.16558541
v -2.64964486 -0.79269673 1.17017204
v -2.98184248 -0.79462287 1.17018683
v -2.91618677 -0.79320660 1.15358617
v -2.90941316 -0.78582784 1.09364918
v -2.89954302 -0.78577119 1.09364918
v -2.98184248 -0.73621585 1.09364918
v -2.64964486 -0.72341276 1.22533005
v -2.98184248 -0.73663365 1.24480106
v -2.61630900 -0.73613085 1.24480106
v -2.76203856 -0.78614649 1.24480106
v -2.64964486 -0.79153539 1.20349174
v -2.64964486 -0.79217272 1.18684669
v -2.98184248 -0.79396430 1.20352132
v -2.98184248 -0.79435379 1.18686148
v -2.98184248 -0.79341197 1.15357137
v -2.93287890 -0.79328450 1.15358617
v -2.98184248 -0.78616774 1.09364918
v -2.98184248 -0.78774689 1.24480106
v -2.84162857 -0.78672716 1.24480106
v -2.66633701 -0.79166285 1.20349174
f 1 2 9
f 1 9 25
f 1 25 24
f 1 24 37
f 1 37 26
f 1 26 10
f 1 10 3
f 1 3 4
f 1 4 5
f 1 5 6
f 1 6 2
f 2 6 7
f 2 7 8
f 2 8 9
f 3 10 4
f 4 11 5
f 4 10 12
f 4 12 13
f 4 13 14
f 4 14 11
f 5 11 15
f 5 15 16
f 5 16 6
f 6 16 17
f 6 17 18
f 6 18 19
f 6 19 20
f 6 20 7
f 7 20 21
f 7 21 8
f 8 21 22
f 8 22 23
f 8 23 24
f 8 24 25
f 8 25 9
f 10 26 12
f 11 14 27
f 11 27 15
f 12 26 37
f 12 37 35
f 12 35 22
f 12 22 34
f 12 34 33
f 12 33 38
f 12 38 28
f 12 28 13
f 13 28 29
f 13 29 15
f 13 15 14
f 14 15 27
f 15 29 28
f 15 28 38
f 15 38 39
f 15 39 30
f 15 30 16
f 16 30 17
f 17 30 31
f 17 31 18
f 18 31 32
f 18 32 19
f 19 32 21
f 19 21 20
f 21 32 33
f 21 33 34
f 21 34 22
f 22 35 36
f 22 36 23
f 23 36 37
f 23 37 24
f 30 39 33
f 30 33 40
f 30 40 31
f 31 40 32
f 32 40 33
f 33 39 38
f 35 37 36

