# https://github.com/mikedh/trimesh
v -3.96732478 -0.61829844 0.92017969
v -3.98171953 -0.59434047 0.85353764
v -3.98168353 -0.61099899 0.85353764
v -3.98166195 -0.61829844 0.85353764
v -3.92742964 -0.61829844 0.92017969
v -3.96732478 -0.57766682 0.92017969
v -3.98174832 -0.56100831 0.85353764
v -3.98174111 -0.57766682 0.85353764
v -3.98236732 -0.61829844 0.83688085
v -3.98197863 -0.61829844 0.84624094
v -3.91006953 -0.61829844 0.90201274
v -3.92728569 -0.61826816 0.92017969
v -3.96731756 -0.56100831 0.92017969
v -3.96730314 -0.54433466 0.92017969
v -3.96713762 -0.46361662 0.92017969
v -3.98169795 -0.54433466 0.85353764
v -3.98282795 -0.46360148 0.82020912
v -3.98303663 -0.54433466 0.82020912
v -3.98307263 -0.56100831 0.82020912
v -3.98307263 -0.57766682 0.82020912
v -3.98237447 -0.61099899 0.83688085
v -3.98305105 -0.59434047 0.82020912
v -3.98301505 -0.61829844 0.82020912
v -3.91006953 -0.61829844 0.83284375
v -3.91006953 -0.61557250 0.90199779
v -3.92765995 -0.51097221 0.92017969
v -3.92832932 -0.46360148 0.92017969
v -3.96713762 -0.46360148 0.91762287
v -3.98131648 -0.46360148 0.85353764
v -3.98314463 -0.46360148 0.80355235
v -3.98359805 -0.56100831 0.80355235
v -3.98292868 -0.61829844 0.81292739
v -3.92938731 -0.61829844 0.76742777
v -3.91006953 -0.56241672 0.83241014
v -3.91006953 -0.46360148 0.90108570
v -3.92775353 -0.49431370 0.92017969
v -3.92794063 -0.46360148 0.92017969
v -3.97883339 -0.46360148 0.79036448
v -3.97918608 -0.56100831 0.79000563
v -3.98281352 -0.61829844 0.80355235
v -3.96874981 -0.61829844 0.76742777
v -3.93017183 -0.46360148 0.76742777
v -3.91006953 -0.46360148 0.83190177
v -3.91006953 -0.47768549 0.83188681
v -3.91006953 -0.47859413 0.83188681
v -3.96846192 -0.46360148 0.76742777
v -3.96849071 -0.46593367 0.76742777
v -3.96878582 -0.49434400 0.76742777
v -3.97843749 -0.61829844 0.79072333
v -3.96878582 -0.49713051 0.76742777
f 1 2 3
f 1 3 4
f 1 4 10
f 1 10 9
f 1 9 23
f 1 23 32
f 1 32 40
f 1 40 49
f 1 49 41
f 1 41 33
f 1 33 24
f 1 24 11
f 1 11 5
f 1 5 12
f 1 12 26
f 1 26 36
f 1 36 37
f 1 37 27
f 1 27 15
f 1 15 14
f 1 14 13
f 1 13 6
f 1 6 7
f 1 7 8
f 1 8 2
f 2 9 10
f 2 10 3
f 2 8 9
f 3 10 4
f 5 11 12
f 6 13 7
f 7 13 14
f 7 14 15
f 7 15 16
f 7 16 17
f 7 17 18
f 7 18 19
f 7 19 20
f 7 20 8
f 8 20 21
f 8 21 9
f 9 21 20
f 9 20 22
f 9 22 23
f 11 24 34
f 11 34 45
f 11 45 44
f 11 44 43
f 11 43 35
f 11 35 25
f 11 25 26
f 11 26 12
f 15 27 28
f 15 28 29
f 15 29 16
f 16 29 17
f 17 29 28
f 17 28 27
f 17 27 37
f 17 37 35
f 17 35 43
f 17 43 42
f 17 42 46
f 17 46 38
f 17 38 30
f 17 30 31
f 17 31 18
f 18 31 19
f 19 31 20
f 20 31 22
f 22 31 23
f 23 31 32
f 24 33 34
f 25 35 26
f 26 35 36
f 30 38 39
f 30 39 31
f 31 39 40
f 31 40 32
f 33 41 50
f 33 50 48
f 33 48 47
f 33 47 46
f 33 46 42
f 33 42 43
f 33 43 44
f 33 44 45
f 33 45 34
f 35 37 36
f 38 46 47
f 38 47 48
f 38 48 39
f 39 41 49
f 39 49 40
f 39 48 50
f 39 50 41

