# https://github.com/mikedh/trimesh
v 2.11585576 -0.61469896 0.20309879
v 2.11980197 -0.71667681 0.20367076
v 2.11587417 -0.62769976 0.20309879
v 2.07473639 -0.61469896 0.20309879
v 2.11556107 -0.61469896 0.37018357
v 2.11975131 -0.71678673 0.30372028
v 2.11981114 -0.71678673 0.21076323
v 2.11743516 -0.71678673 0.20367076
v 2.11585117 -0.68677797 0.20309879
v 2.11975131 -0.71678673 0.20396819
v 2.07456598 -0.67766441 0.20309879
v 2.07286686 -0.71673677 0.20367076
v 2.07280244 -0.71678673 0.21337143
v 2.07277018 -0.71678673 0.23005014
v 2.07299121 -0.71678673 0.43678412
v 2.07537642 -0.61473892 0.43682990
v 2.07544086 -0.61469896 0.43314636
v 2.11551964 -0.61469896 0.38686233
v 2.11530321 -0.61469896 0.43682990
v 2.11970064 -0.71678673 0.31053821
v 2.07353457 -0.71678673 0.20367076
v 2.07454756 -0.68677797 0.20309879
v 2.11572224 -0.71678673 0.43678412
v 2.07479623 -0.68677797 0.43682990
v 2.07486072 -0.67766441 0.43682990
v 2.07512316 -0.64435797 0.43682990
v 2.07526133 -0.62769976 0.43682990
v 2.11488878 -0.61469896 0.43682990
v 2.11529398 -0.68675797 0.43682990
v 2.11749502 -0.71678673 0.39033993
v 2.11807062 -0.71678673 0.37475939
v 2.11913887 -0.71678673 0.33671171
v 2.07499883 -0.68677797 0.43682990
f 1 2 3
f 1 3 9
f 1 9 22
f 1 22 11
f 1 11 4
f 1 4 17
f 1 17 28
f 1 28 19
f 1 19 18
f 1 18 5
f 1 5 6
f 1 6 7
f 1 7 2
f 2 8 9
f 2 9 3
f 2 7 10
f 2 10 8
f 4 11 12
f 4 12 13
f 4 13 14
f 4 14 15
f 4 15 16
f 4 16 17
f 5 18 6
f 6 18 19
f 6 19 20
f 6 20 32
f 6 32 31
f 6 31 30
f 6 30 23
f 6 23 15
f 6 15 14
f 6 14 13
f 6 13 21
f 6 21 8
f 6 8 10
f 6 10 7
f 8 21 22
f 8 22 9
f 11 22 12
f 12 22 21
f 12 21 13
f 15 23 33
f 15 33 24
f 15 24 25
f 15 25 26
f 15 26 27
f 15 27 16
f 16 27 26
f 16 26 25
f 16 25 24
f 16 24 33
f 16 33 29
f 16 29 19
f 16 19 28
f 16 28 17
f 19 29 23
f 19 23 30
f 19 30 31
f 19 31 32
f 19 32 20
f 23 29 33

