# https://github.com/mikedh/trimesh
v -2.04934875 -0.70919529 1.12137161
v -2.01013872 -0.70919529 1.12137161
v -2.04936985 -0.70812631 1.12137161
v -2.04966555 -0.69432240 1.10352674
v -2.04938678 -0.70919529 1.08865437
v -2.00879128 -0.70919529 1.11864599
v -2.00866039 -0.70914882 1.12137161
v -2.04959373 -0.69432240 1.12137161
v -2.04975002 -0.67763687 1.10352674
v -2.04966555 -0.69432240 1.08685704
v -2.04938678 -0.70919529 1.08685704
v -2.00950094 -0.70919529 1.02048438
v -2.00659913 -0.23437807 1.12018656
v -2.00888004 -0.51705606 1.12137161
v -2.04966132 -0.67763687 1.12137161
v -2.04968242 -0.67763687 1.08685704
v -2.04970352 -0.47764289 1.10352674
v -2.04928963 -0.69432240 1.02048438
v -2.04914180 -0.70919529 1.02048438
v -2.00897296 -0.23437807 1.02048438
v -2.04902349 -0.23437807 1.12018656
v -2.04947124 -0.51705606 1.12137161
v -2.04964863 -0.66095134 1.12137161
v -2.04959373 -0.47764289 1.12018656
v -2.04928963 -0.69404354 1.02048438
v -2.04919247 -0.23437807 1.11349102
v -2.04937409 -0.36103008 1.08686691
v -2.04865179 -0.26077746 1.02048438
v -2.04855046 -0.23437807 1.02048438
v -2.04912911 -0.23442455 1.12018656
v -2.04862223 -0.24409193 1.02048438
f 1 2 7
f 1 7 14
f 1 14 22
f 1 22 23
f 1 23 15
f 1 15 8
f 1 8 3
f 1 3 4
f 1 4 5
f 1 5 11
f 1 11 19
f 1 19 12
f 1 12 6
f 1 6 2
f 2 6 7
f 3 8 4
f 4 8 9
f 4 9 10
f 4 10 11
f 4 11 5
f 6 12 7
f 7 12 13
f 7 13 14
f 8 15 9
f 9 16 10
f 9 15 17
f 9 17 16
f 10 16 18
f 10 18 19
f 10 19 11
f 12 19 18
f 12 18 25
f 12 25 28
f 12 28 31
f 12 31 29
f 12 29 20
f 12 20 13
f 13 20 29
f 13 29 26
f 13 26 21
f 13 21 22
f 13 22 14
f 15 23 24
f 15 24 17
f 16 25 18
f 16 17 25
f 17 24 26
f 17 26 27
f 17 27 28
f 17 28 25
f 21 30 22
f 21 26 30
f 22 30 24
f 22 24 23
f 24 30 26
f 26 29 31
f 26 31 27
f 27 31 28

