# https://github.com/mikedh/trimesh
v 0.12867226 -0.77767592 0.47023458
v 0.12970843 -0.76102366 0.43688408
v 0.12919475 -0.76964255 0.42823127
v 0.12873424 -0.77767592 0.42823127
v 0.13042571 -0.79085408 0.42823127
v 0.13040808 -0.79096336 0.47023458
v 0.13041689 -0.79104145 0.48690983
v 0.13085083 -0.79051054 0.82018568
v 0.12869883 -0.77767592 0.48690983
v 0.13000061 -0.76102366 0.55355354
v 0.13231210 -0.75230327 1.01364154
v 0.13148847 -0.75078093 0.55355354
v 0.13139990 -0.75028906 0.43688408
v 0.13054970 -0.75585544 0.42823127
v 0.12974383 -0.76102366 0.42823127
v 0.14078736 -0.79897331 0.42823127
v 0.14078736 -0.79920752 0.48690983
v 0.13976893 -0.79773201 1.01364154
v 0.13138226 -0.78979233 0.97014835
v 0.13139990 -0.78962058 0.98682361
v 0.13145308 -0.78939417 1.01364154
v 0.12967302 -0.77767592 0.82018568
v 0.13161245 -0.76101584 1.01364154
v 0.13202874 -0.75574615 1.01364154
v 0.13747521 -0.74398105 1.01364154
v 0.14125674 -0.72312865 0.85353619
v 0.14066337 -0.72312865 0.83686094
v 0.14014087 -0.72312865 0.82018568
v 0.13906047 -0.72313646 0.48690983
v 0.13155047 -0.75067161 0.57022878
v 0.13143531 -0.75037497 0.42823127
v 0.14881097 -0.80051908 0.42823127
v 0.14906781 -0.80267380 0.59446807
v 0.14810250 -0.80288459 1.01364154
v 0.14078736 -0.79872347 0.82018568
v 0.13643903 -0.79442964 1.01364154
v 0.13074460 -0.77767592 1.01364154
v 0.13126711 -0.76755807 1.01364154
v 0.15293791 -0.72312865 1.01364154
v 0.14031803 -0.72312865 0.80803738
v 0.14034461 -0.72313646 0.47481881
v 0.14044199 -0.72312865 0.80351042
v 0.14115046 -0.72313646 0.47023458
v 0.13679328 -0.74203712 0.42823127
v 0.15744567 -0.80218197 0.42823127
v 0.14983828 -0.80267380 0.59446807
v 0.15351358 -0.80288459 1.01364154
v 0.19931725 -0.72312865 1.01364154
v 0.15242429 -0.72312865 0.73686670
v 0.15191062 -0.72313646 0.42823127
v 0.17410399 -0.80150277 0.42823127
v 0.15622352 -0.80260356 0.60277706
v 0.15786189 -0.80264257 0.67005109
v 0.15780878 -0.80287679 1.01364154
v 0.21914604 -0.73356655 1.01364154
v 0.21914604 -0.72312865 0.90499453
v 0.19540286 -0.72312865 0.73612176
v 0.19702354 -0.72313646 0.42823127
v 0.18212761 -0.79876251 0.42823127
v 0.21914604 -0.79724017 0.48690983
v 0.21914604 -0.79739630 0.50358507
v 0.21914604 -0.79885622 0.82018568
v 0.17410399 -0.80189312 0.63692981
v 0.16620434 -0.80271285 0.95347310
v 0.16634602 -0.80272846 0.97014835
v 0.16636374 -0.80274408 0.98682361
v 0.16615124 -0.80272065 1.00006066
v 0.16327296 -0.80272846 1.01364154
v 0.21914604 -0.78762980 1.01364154
v 0.21914604 -0.72312865 0.83262048
v 0.19636817 -0.72312865 0.73612176
v 0.21914604 -0.73418331 0.42823127
v 0.21914604 -0.72313646 0.50100644
v 0.19077113 -0.79579588 0.42823127
v 0.21914604 -0.78532674 0.42823127
v 0.21914604 -0.79873909 0.83187554
v 0.17410399 -0.80190871 0.65360506
v 0.16548699 -0.80265038 1.01364154
v 0.17350174 -0.80167452 1.01364154
v 0.21914604 -0.79776323 0.85353619
v 0.21914604 -0.79868446 0.83686094
v 0.16783389 -0.80238495 1.01364154
f 1 2 3
f 1 3 4
f 1 4 5
f 1 5 6
f 1 6 7
f 1 7 8
f 1 8 9
f 1 9 2
f 2 9 10
f 2 10 11
f 2 11 12
f 2 12 13
f 2 13 14
f 2 14 15
f 2 15 3
f 3 15 14
f 3 14 31
f 3 31 44
f 3 44 50
f 3 50 58
f 3 58 72
f 3 72 75
f 3 75 74
f 3 74 59
f 3 59 51
f 3 51 45
f 3 45 32
f 3 32 16
f 3 16 5
f 3 5 4
f 5 16 17
f 5 17 7
f 5 7 6
f 7 17 18
f 7 18 8
f 8 18 19
f 8 19 20
f 8 20 21
f 8 21 22
f 8 22 9
f 9 22 10
f 10 22 23
f 10 23 24
f 10 24 11
f 11 24 23
f 11 23 38
f 11 38 37
f 11 37 21
f 11 21 36
f 11 36 18
f 11 18 34
f 11 34 47
f 11 47 54
f 11 54 68
f 11 68 78
f 11 78 82
f 11 82 79
f 11 79 69
f 11 69 55
f 11 55 48
f 11 48 39
f 11 39 25
f 11 25 26
f 11 26 27
f 11 27 28
f 11 28 29
f 11 29 30
f 11 30 12
f 12 30 13
f 13 29 31
f 13 31 14
f 13 30 29
f 16 32 33
f 16 33 17
f 17 33 34
f 17 34 35
f 17 35 18
f 18 35 34
f 18 36 19
f 19 36 21
f 19 21 20
f 21 37 22
f 22 37 38
f 22 38 23
f 25 39 26
f 26 39 48
f 26 48 56
f 26 56 70
f 26 70 71
f 26 71 57
f 26 57 49
f 26 49 42
f 26 42 40
f 26 40 28
f 26 28 27
f 28 40 29
f 29 41 31
f 29 40 42
f 29 42 41
f 31 41 43
f 31 43 44
f 32 45 33
f 33 46 47
f 33 47 34
f 33 45 46
f 41 42 43
f 42 49 43
f 43 49 50
f 43 50 44
f 45 51 52
f 45 52 46
f 46 52 53
f 46 53 54
f 46 54 47
f 48 55 56
f 49 57 50
f 50 57 71
f 50 71 58
f 51 59 60
f 51 60 61
f 51 61 62
f 51 62 63
f 51 63 52
f 52 63 53
f 53 63 64
f 53 64 65
f 53 65 66
f 53 66 54
f 54 66 67
f 54 67 68
f 55 69 80
f 55 80 81
f 55 81 76
f 55 76 62
f 55 62 61
f 55 61 60
f 55 60 75
f 55 75 72
f 55 72 73
f 55 73 70
f 55 70 56
f 58 71 73
f 58 73 72
f 59 74 60
f 60 74 75
f 62 76 67
f 62 67 66
f 62 66 77
f 62 77 63
f 63 77 66
f 63 66 65
f 63 65 64
f 67 76 78
f 67 78 68
f 69 79 80
f 70 73 71
f 76 81 78
f 78 81 82
f 79 82 81
f 79 81 80

