# https://github.com/mikedh/trimesh
v 2.10803831 -0.61469191 0.90544698
v 2.11379497 -0.61469191 0.90544698
v 2.07010042 -0.61465406 0.90544698
v 2.07006662 -0.61469191 0.90534139
v 2.12397260 -0.61469191 0.87019216
v 2.12428535 -0.59433272 0.87019216
v 2.12444599 -0.57764426 0.87019216
v 2.11643238 -0.22809455 0.90509501
v 2.11386256 -0.57764426 0.90544698
v 2.05327854 -0.61469191 0.89600268
v 2.07010889 -0.45980320 0.90544698
v 2.04385325 -0.22809455 0.89480600
v 2.04385325 -0.24436676 0.89480600
v 2.04385325 -0.26105523 0.89479427
v 2.04385325 -0.45632171 0.89455963
v 2.04385325 -0.45980320 0.89454790
v 2.12861340 -0.61469191 0.85352092
v 2.12993210 -0.22809455 0.85353264
v 2.07033711 -0.22809455 0.90509501
v 2.11355827 -0.45980320 0.90544698
v 2.11384569 -0.56099362 0.90544698
v 2.05327854 -0.61469191 0.83245015
v 2.07022720 -0.24432891 0.90509501
v 2.04385325 -0.22809455 0.82768694
v 2.04385325 -0.45980320 0.83531277
v 2.12911210 -0.61469191 0.82021362
v 2.13008427 -0.22809455 0.83729549
v 2.05327854 -0.61465406 0.83228591
v 2.05328701 -0.61469191 0.83228591
v 2.07630508 -0.22809455 0.78702365
v 2.07439461 -0.45991673 0.78559234
v 2.07438615 -0.46097632 0.78559234
v 2.07437774 -0.47766479 0.78559234
v 2.07457212 -0.61469191 0.78559234
v 2.12897687 -0.61469191 0.80723797
v 2.13021105 -0.22809455 0.82021362
v 2.12409092 -0.22809455 0.78702365
v 2.07846904 -0.45980320 0.78559234
v 2.12188464 -0.61469191 0.78559234
v 2.12893460 -0.61469191 0.80355411
v 2.13003355 -0.22809455 0.80354238
v 2.12182551 -0.45980320 0.78559234
v 2.12420929 -0.22809455 0.78730521
v 2.12252712 -0.61469191 0.78688287
v 2.12194382 -0.56099362 0.78559234
v 2.12192690 -0.54430515 0.78559234
f 1 2 9
f 1 9 21
f 1 21 20
f 1 20 11
f 1 11 3
f 1 3 4
f 1 4 10
f 1 10 22
f 1 22 29
f 1 29 34
f 1 34 39
f 1 39 44
f 1 44 40
f 1 40 35
f 1 35 26
f 1 26 17
f 1 17 5
f 1 5 2
f 2 5 6
f 2 6 7
f 2 7 8
f 2 8 9
f 3 10 4
f 3 11 12
f 3 12 13
f 3 13 14
f 3 14 15
f 3 15 16
f 3 16 10
f 5 17 6
f 6 17 7
f 7 17 18
f 7 18 8
f 8 18 27
f 8 27 36
f 8 36 41
f 8 41 43
f 8 43 37
f 8 37 30
f 8 30 24
f 8 24 12
f 8 12 19
f 8 19 11
f 8 11 20
f 8 20 21
f 8 21 9
f 10 16 25
f 10 25 22
f 11 19 23
f 11 23 12
f 12 23 19
f 12 24 25
f 12 25 16
f 12 16 15
f 12 15 14
f 12 14 13
f 17 26 18
f 18 26 27
f 22 28 29
f 22 25 28
f 24 30 31
f 24 31 32
f 24 32 33
f 24 33 34
f 24 34 25
f 25 34 28
f 26 35 36
f 26 36 27
f 28 34 29
f 30 37 42
f 30 42 38
f 30 38 31
f 31 38 42
f 31 42 46
f 31 46 45
f 31 45 39
f 31 39 34
f 31 34 33
f 31 33 32
f 35 40 41
f 35 41 36
f 37 43 44
f 37 44 39
f 37 39 45
f 37 45 46
f 37 46 42
f 40 44 43
f 40 43 41

