# https://github.com/mikedh/trimesh
v -3.91094197 -0.72311559 0.57291573
v -3.91094197 -0.61830869 0.56918406
v -3.91094197 -0.72311559 0.49606318
v -3.74942294 -0.72311559 0.57034270
v -3.74942294 -0.61830869 0.56772451
v -3.91094197 -0.61830869 0.50232273
v -3.74950197 -0.61830869 0.51218604
v -3.74942294 -0.72311559 0.50822117
v -3.74942294 -0.61830869 0.53638161
v -3.74942294 -0.62768550 0.51220860
f 1 2 6
f 1 6 3
f 1 3 8
f 1 8 4
f 1 4 5
f 1 5 2
f 2 5 9
f 2 9 7
f 2 7 6
f 3 6 7
f 3 7 8
f 4 8 10
f 4 10 9
f 4 9 5
f 7 9 10
f 7 10 8

