# https://github.com/mikedh/trimesh
v -0.02183141 -0.13595434 0.12487337
v -0.02183141 -0.13782296 0.11084113
v -0.05937448 -0.13669887 0.12487337
v -0.05937448 -0.13664049 0.13559187
v -0.05937448 -0.13662588 0.14153408
v -0.02183141 -0.13595434 0.12580405
v -0.02183141 -0.13852371 0.10821260
v -0.05937448 -0.13837771 0.11892091
v -0.05937448 -0.13711494 0.15225258
v -0.02183141 -0.13660398 0.15819479
v -0.02183141 -0.13598355 0.14153408
v -0.02183141 -0.14292516 0.09796457
v -0.05937448 -0.14151640 0.10821260
v -0.05937448 -0.13746530 0.15819479
v -0.02183141 -0.14334851 0.17540781
v -0.02183141 -0.14565508 0.09434404
v -0.05937448 -0.14425364 0.10470454
v -0.05937448 -0.14242880 0.16769621
v -0.05937448 -0.14517335 0.17283048
v -0.02183141 -0.15156022 0.18409102
v -0.02183141 -0.15765511 0.09095870
v -0.05937448 -0.14915146 0.09843504
v -0.05937448 -0.16037043 0.17963178
v -0.02183141 -0.15941424 0.19138330
v -0.02183141 -0.16037043 0.09040640
v -0.05937448 -0.15318794 0.09792368
v -0.05937448 -0.17702738 0.18013294
v -0.05937448 -0.21036317 0.18026592
v -0.02183141 -0.15953101 0.19138330
v -0.02183141 -0.17410038 0.08899501
v -0.05937448 -0.16037043 0.09704409
v -0.05937448 -0.21051644 0.18026592
v -0.02183141 -0.17761863 0.18985937
v -0.02183141 -0.19182302 0.08756312
v -0.02183141 -0.19369891 0.08746083
v -0.02183141 -0.21050187 0.08689834
v -0.05937448 -0.21051644 0.09738163
v -0.02189387 -0.21051644 0.18171826
v -0.02183141 -0.21050917 0.18177960
v -0.03189800 -0.21051644 0.09325988
v -0.02183141 -0.21051644 0.17644082
f 1 2 3
f 1 3 4
f 1 4 5
f 1 5 6
f 1 6 11
f 1 11 10
f 1 10 15
f 1 15 20
f 1 20 24
f 1 24 29
f 1 29 33
f 1 33 39
f 1 39 41
f 1 41 36
f 1 36 35
f 1 35 34
f 1 34 30
f 1 30 25
f 1 25 21
f 1 21 16
f 1 16 12
f 1 12 7
f 1 7 2
f 2 7 3
f 3 7 8
f 3 8 13
f 3 13 17
f 3 17 22
f 3 22 26
f 3 26 31
f 3 31 37
f 3 37 32
f 3 32 28
f 3 28 27
f 3 27 23
f 3 23 19
f 3 19 18
f 3 18 14
f 3 14 9
f 3 9 5
f 3 5 4
f 5 9 10
f 5 10 11
f 5 11 6
f 7 12 13
f 7 13 8
f 9 14 10
f 10 14 15
f 12 16 13
f 13 16 17
f 14 18 15
f 15 18 19
f 15 19 20
f 16 21 22
f 16 22 17
f 19 23 24
f 19 24 20
f 21 25 22
f 22 25 26
f 23 27 24
f 24 28 32
f 24 32 29
f 24 27 28
f 25 30 31
f 25 31 26
f 29 32 33
f 30 34 31
f 31 34 35
f 31 35 36
f 31 36 37
f 32 38 39
f 32 39 33
f 32 37 40
f 32 40 41
f 32 41 38
f 36 40 37
f 36 41 40
f 38 41 39

