# https://github.com/mikedh/trimesh
v -1.96191889 1.52714719 0.07525787
v -1.97854713 1.52731368 0.07530379
v -1.97859770 1.52731368 0.07525787
v -1.97859770 1.52733746 0.05857839
v -1.96191889 1.52721856 0.05857839
v -1.94524848 1.52755150 0.04189892
v -1.94519790 1.52744052 0.07530379
v -1.96186831 1.52715513 0.07530379
v -1.98898615 1.52935106 0.07530379
v -1.98897774 1.52931937 0.07525787
v -1.98898615 1.52931937 0.05857839
v -1.97859770 1.52746431 0.04189892
v -1.96191889 1.52732161 0.04189892
v -1.98894398 1.52935106 0.04189892
v -1.94524848 1.52778140 0.02523251
v -1.92856966 1.52789238 0.05857839
v -1.92856966 1.52774177 0.07525787
v -1.92853591 1.52774970 0.07530379
v -1.99289868 1.53941915 0.07530379
v -1.99289027 1.53937159 0.07525787
v -1.99285651 1.53937159 0.05857839
v -1.99280594 1.53937159 0.04189892
v -1.98847180 1.52974747 0.02523251
v -1.97859770 1.52801132 0.02523251
v -1.96191889 1.52755944 0.02523251
v -1.94524848 1.52950169 0.01494808
v -1.92856966 1.53000906 0.01553841
v -1.92856966 1.52869308 0.02523251
v -1.92856966 1.52820157 0.04189892
v -1.91797039 1.52958892 0.05857839
v -1.91763311 1.52946205 0.07525787
v -1.91763311 1.52946205 0.07530379
v -1.99477905 1.55609886 0.07530379
v -1.99477905 1.55604337 0.07525787
v -1.99468631 1.55604337 0.04189892
v -1.99209764 1.53937159 0.02523251
v -1.99426471 1.55604337 0.02523251
v -1.98767070 1.53041337 0.01604345
v -1.97859770 1.52973161 0.01522350
v -1.96191889 1.52937485 0.01483655
v -1.94524848 1.53937159 0.01061907
v -1.92856966 1.53937159 0.01153087
v -1.91958094 1.53061156 0.01631887
v -1.91894850 1.53020725 0.02523251
v -1.91841728 1.52985843 0.04189892
v -1.91227869 1.53937159 0.05857839
v -1.91172218 1.53937159 0.07525787
v -1.91172218 1.53937159 0.07530379
v -1.99472848 1.57276271 0.07530379
v -1.99469472 1.57271514 0.04189892
v -1.99439115 1.57271514 0.02523251
v -1.98918851 1.53937159 0.01445616
v -1.99048708 1.57271514 0.01314429
v -1.99038587 1.55604337 0.01324925
v -1.97859770 1.53937159 0.01124876
v -1.96191889 1.53937159 0.01049454
v -1.94524848 1.55604337 0.00833660
v -1.92856966 1.55604337 0.00899909
v -1.91758254 1.53937159 0.01461349
v -1.91406632 1.53937159 0.02523251
v -1.91288578 1.53937159 0.04189892
v -1.90927683 1.55604337 0.04189892
v -1.90863598 1.55604337 0.07530379
v -1.99440802 1.58943448 0.07530379
v -1.99442490 1.58939486 0.07525787
v -1.99433216 1.58939486 0.04189892
v -1.99381781 1.58939486 0.02523251
v -1.99011606 1.58939486 0.01347231
v -1.97859770 1.55604337 0.00895317
v -1.97859770 1.58939486 0.00934668
v -1.97859770 1.57271514 0.00895317
v -1.96191889 1.55604337 0.00831036
v -1.94524848 1.57271514 0.00855954
v -1.96191889 1.58939486 0.00868419
v -1.94524848 1.58939486 0.00932044
v -1.92856966 1.57271514 0.01000262
v -1.91587924 1.55604337 0.01326238
v -1.91047419 1.55604337 0.02523251
v -1.91310503 1.57271514 0.02523251
v -1.91120778 1.57271514 0.07530379
v -1.99055454 1.60193633 0.07530379
v -1.99055454 1.60193633 0.07525787
v -1.99046180 1.60176192 0.04189892
v -1.99005701 1.60135761 0.02523251
v -1.98877538 1.59989100 0.01486935
v -1.97859770 1.60155581 0.01331486
v -1.96191889 1.60203940 0.01282950
v -1.94524848 1.60134176 0.01343295
v -1.93484316 1.59974039 0.01494808
v -1.92899968 1.58866551 0.01332142
v -1.91855225 1.58262466 0.01559733
v -1.91678144 1.57271514 0.01413469
v -1.91798726 1.58318753 0.02523251
v -1.91685736 1.58407542 0.07530379
v -1.97859770 1.60704172 0.07530379
v -1.97859770 1.60704172 0.07525787
v -1.97859770 1.60659778 0.04189892
v -1.97859770 1.60594771 0.02523251
v -1.96191889 1.60679597 0.02523251
v -1.94524848 1.60577331 0.02523251
v -1.93337598 1.60130213 0.02523251
v -1.92503657 1.59151946 0.02523251
v -1.93303024 1.60181743 0.04189892
v -1.93243156 1.60225345 0.07530379
v -1.96191889 1.60813574 0.07530379
v -1.96191889 1.60734296 0.04189892
v -1.94524848 1.60658193 0.04189892
v -1.93247373 1.60229307 0.07525787
v -1.94524848 1.60759666 0.07530379
f 1 2 3
f 1 3 4
f 1 4 5
f 1 5 6
f 1 6 7
f 1 7 8
f 1 8 2
f 2 9 10
f 2 10 3
f 2 8 7
f 2 7 18
f 2 18 32
f 2 32 48
f 2 48 63
f 2 63 80
f 2 80 94
f 2 94 104
f 2 104 109
f 2 109 105
f 2 105 95
f 2 95 81
f 2 81 64
f 2 64 49
f 2 49 33
f 2 33 19
f 2 19 9
f 3 10 11
f 3 11 4
f 4 12 13
f 4 13 5
f 4 11 14
f 4 14 12
f 5 13 6
f 6 15 16
f 6 16 17
f 6 17 7
f 6 13 15
f 7 17 18
f 9 19 20
f 9 20 10
f 10 20 11
f 11 20 21
f 11 21 22
f 11 22 14
f 12 14 23
f 12 23 24
f 12 24 25
f 12 25 13
f 13 25 15
f 14 22 23
f 15 26 27
f 15 27 28
f 15 28 29
f 15 29 16
f 15 25 26
f 16 29 30
f 16 30 31
f 16 31 17
f 17 31 32
f 17 32 18
f 19 33 34
f 19 34 21
f 19 21 20
f 21 34 35
f 21 35 22
f 22 36 23
f 22 35 37
f 22 37 36
f 23 38 24
f 23 36 38
f 24 39 25
f 24 38 39
f 25 40 26
f 25 39 40
f 26 41 27
f 26 40 41
f 27 41 42
f 27 42 43
f 27 43 28
f 28 43 44
f 28 44 29
f 29 44 45
f 29 45 30
f 30 45 46
f 30 46 47
f 30 47 31
f 31 47 48
f 31 48 32
f 33 49 50
f 33 50 34
f 34 50 35
f 35 50 51
f 35 51 37
f 36 37 52
f 36 52 38
f 37 51 53
f 37 53 54
f 37 54 52
f 38 55 39
f 38 52 55
f 39 55 56
f 39 56 40
f 40 56 41
f 41 57 58
f 41 58 42
f 41 56 57
f 42 58 59
f 42 59 43
f 43 59 60
f 43 60 44
f 44 60 61
f 44 61 45
f 45 61 46
f 46 61 62
f 46 62 47
f 47 62 63
f 47 63 48
f 49 64 65
f 49 65 50
f 50 65 66
f 50 66 51
f 51 66 67
f 51 67 68
f 51 68 53
f 52 54 69
f 52 69 55
f 53 68 70
f 53 70 71
f 53 71 69
f 53 69 54
f 55 69 56
f 56 72 57
f 56 69 72
f 57 73 58
f 57 72 74
f 57 74 73
f 58 73 75
f 58 75 76
f 58 76 77
f 58 77 59
f 59 77 78
f 59 78 60
f 60 78 62
f 60 62 61
f 62 78 79
f 62 79 80
f 62 80 63
f 64 81 65
f 65 81 82
f 65 82 66
f 66 82 83
f 66 83 67
f 67 83 84
f 67 84 85
f 67 85 68
f 68 85 70
f 69 71 72
f 70 85 86
f 70 86 74
f 70 74 71
f 71 74 72
f 73 74 75
f 74 87 75
f 74 86 87
f 75 88 89
f 75 89 90
f 75 90 76
f 75 87 88
f 76 90 91
f 76 91 92
f 76 92 77
f 77 92 78
f 78 92 79
f 79 92 91
f 79 91 93
f 79 93 80
f 80 93 94
f 81 95 96
f 81 96 82
f 82 96 83
f 83 96 97
f 83 97 84
f 84 97 98
f 84 98 85
f 85 98 86
f 86 98 99
f 86 99 87
f 87 99 88
f 88 100 89
f 88 99 100
f 89 100 101
f 89 101 91
f 89 91 90
f 91 101 102
f 91 102 93
f 93 102 103
f 93 103 94
f 94 103 104
f 95 105 96
f 96 105 97
f 97 105 106
f 97 106 99
f 97 99 98
f 99 106 107
f 99 107 100
f 100 107 101
f 101 107 103
f 101 103 102
f 103 108 104
f 103 107 109
f 103 109 108
f 104 108 109
f 105 109 106
f 106 109 107

