# https://github.com/mikedh/trimesh
v -2.44959607 -0.24435893 1.99676500
v -2.44837619 -0.24435893 1.99675857
v -2.46626386 -0.24435893 1.99675857
v -2.44959988 -0.70784347 1.99670111
v -2.44837619 -0.70784347 1.99670111
v -2.44837619 -0.24435893 1.93536273
v -2.48292785 -0.24435893 1.99672030
v -2.48412853 -0.70784347 1.99665640
v -2.46314515 -0.70784347 1.99669467
v -2.44837619 -0.70784347 1.93610362
v -2.46117335 -0.47764403 1.93152434
v -2.46085500 -0.24435893 1.93152434
v -2.46161067 -0.70784347 1.93152434
v -2.48756179 -0.24435893 1.99670754
v -2.48756179 -0.70784347 1.99664365
v -2.48756179 -0.24435893 1.93152434
v -2.48756179 -0.70784347 1.93152434
f 1 2 6
f 1 6 12
f 1 12 16
f 1 16 14
f 1 14 7
f 1 7 3
f 1 3 4
f 1 4 5
f 1 5 2
f 2 5 10
f 2 10 6
f 3 7 8
f 3 8 9
f 3 9 4
f 4 9 8
f 4 8 15
f 4 15 17
f 4 17 13
f 4 13 10
f 4 10 5
f 6 11 12
f 6 10 13
f 6 13 11
f 7 14 8
f 8 14 15
f 11 13 17
f 11 17 16
f 11 16 12
f 14 16 17
f 14 17 15

