# https://github.com/mikedh/trimesh
v -2.09006126 2.03966454 0.62550148
v -2.08936173 2.02660143 0.62550148
v -2.08913462 2.05283487 0.62550148
v -2.08919819 2.05425331 0.50885909
v -2.08987954 2.04256744 0.49549728
v -2.09004307 2.03966454 0.49549728
v -2.08748112 2.01755457 0.57555372
v -2.08738122 2.01777724 0.59223689
v -2.08727220 2.01808238 0.60890736
v -2.08694512 2.01822258 0.62550148
v -2.08925271 2.02590869 0.50885909
v -2.08923452 2.02556232 0.52554232
v -2.08762653 2.01722468 0.52554232
v -2.08729945 2.06117249 0.62550148
v -2.08780819 2.06259097 0.50885909
v -2.08919819 2.05413789 0.49549728
v -2.08928903 2.02689832 0.49549728
v -2.05946318 1.99324267 0.62550148
v -2.08892563 2.02524068 0.49549728
v -2.08743573 2.01757107 0.50885909
v -2.05988108 1.99298702 0.49549728
v -2.05989927 1.99293753 0.50885909
v -2.05988108 1.99296229 0.52554232
v -2.05960852 1.99311896 0.59223689
v -2.07895945 2.06778650 0.62550148
v -2.07947731 2.06781126 0.50885909
v -2.07944099 2.06780302 0.49549728
v -2.08778094 2.06247551 0.49549728
v -2.07901396 2.06781126 0.60890736
v -2.04674425 1.98762653 0.62550148
v -2.05951769 1.99316845 0.60890736
v -2.08689968 2.01856070 0.49549728
v -2.08022229 2.01196316 0.49549728
v -2.05726462 1.99189843 0.49549728
v -2.04674425 1.98748633 0.52554232
v -2.04674425 1.98748633 0.50885909
v -2.06342420 2.07098631 0.62550148
v -2.06342420 2.07098631 0.52554232
v -2.06342420 2.07097806 0.50885909
v -2.06661304 2.07033479 0.49549728
v -2.06342420 2.07101931 0.60890736
v -2.03008243 1.98696677 0.62550148
v -2.04674425 1.98766776 0.49549728
v -2.03008243 1.98721419 0.50885909
v -2.04674425 2.07113477 0.62550148
v -2.04674425 2.07113477 0.60890736
v -2.04674425 2.07110179 0.54221278
v -2.04674425 2.07108527 0.52554232
v -2.06342420 2.07096157 0.49549728
v -2.01340248 1.98829453 0.62550148
v -2.01340248 1.98833576 0.52554232
v -2.01340248 1.98832750 0.54221278
v -2.04343731 1.98761827 0.49549728
v -2.03008243 1.98745334 0.49549728
v -2.01340248 1.98849245 0.49549728
v -2.01340248 1.98837700 0.50885909
v -2.03008243 2.07120899 0.62550148
v -2.03008243 2.07115126 0.52554232
v -2.03008243 2.07113477 0.50885909
v -2.03008243 2.07117598 0.55889596
v -2.03008243 2.07111827 0.49549728
v -2.04674425 2.07104406 0.49549728
v -2.00145578 1.99367976 0.62550148
v -2.00133769 1.99367151 0.52554232
v -2.00132863 1.99368800 0.50885909
v -2.00135582 1.99371275 0.49549728
v -2.01340248 2.07073067 0.62550148
v -2.01671847 2.07074716 0.49549728
v -2.01340248 2.07072241 0.60890736
v -2.00136495 1.99377873 0.62550148
v -2.00136495 1.99367976 0.55889596
v -2.00139220 1.99371275 0.60890736
v -1.99742206 2.00632227 0.50885909
v -1.99743118 2.00632227 0.52554232
v -1.99744932 2.00632227 0.55889596
v -1.99747657 2.00632227 0.60890736
v -1.99823974 2.00380696 0.49549728
v -2.00206448 2.06746489 0.62550148
v -2.00204629 2.06746489 0.60890736
v -2.01340248 2.07064819 0.49549728
v -2.00208267 2.06741542 0.49549728
v -1.99748564 2.00642125 0.62550148
v -1.99728578 2.02299754 0.50885909
v -1.99724946 2.02299754 0.55889596
v -1.99725852 2.02299754 0.60890736
v -1.99746751 2.00632227 0.49549728
v -1.99733123 2.01968227 0.49549728
v -1.99730397 2.02299754 0.49549728
v -1.99823974 2.05640577 0.62550148
v -1.99814885 2.05634805 0.60890736
v -1.99813978 2.05634805 0.59223689
v -1.99821249 2.05634805 0.49549728
v -1.99730397 2.02309649 0.62550148
v -1.99731304 2.03634929 0.49549728
v -1.99725852 2.03966454 0.57555372
v -1.99725852 2.03966454 0.59223689
v -1.99727671 2.03966454 0.60890736
v -1.99734942 2.03976350 0.62550148
v -1.99803076 2.05303279 0.49549728
v -1.99732216 2.03966454 0.49549728
f 1 2 10
f 1 10 18
f 1 18 30
f 1 30 42
f 1 42 50
f 1 50 63
f 1 63 70
f 1 70 82
f 1 82 93
f 1 93 98
f 1 98 89
f 1 89 78
f 1 78 67
f 1 67 57
f 1 57 45
f 1 45 37
f 1 37 25
f 1 25 14
f 1 14 3
f 1 3 4
f 1 4 5
f 1 5 6
f 1 6 2
f 2 7 8
f 2 8 9
f 2 9 10
f 2 6 11
f 2 11 12
f 2 12 13
f 2 13 7
f 3 14 15
f 3 15 4
f 4 15 16
f 4 16 5
f 5 16 28
f 5 28 27
f 5 27 40
f 5 40 49
f 5 49 62
f 5 62 61
f 5 61 68
f 5 68 80
f 5 80 81
f 5 81 92
f 5 92 99
f 5 99 100
f 5 100 94
f 5 94 88
f 5 88 87
f 5 87 86
f 5 86 77
f 5 77 66
f 5 66 55
f 5 55 54
f 5 54 53
f 5 53 43
f 5 43 34
f 5 34 21
f 5 21 33
f 5 33 32
f 5 32 19
f 5 19 17
f 5 17 6
f 6 17 11
f 7 18 8
f 7 13 18
f 8 18 9
f 9 18 10
f 11 13 12
f 11 17 13
f 13 17 19
f 13 19 20
f 13 20 21
f 13 21 22
f 13 22 23
f 13 23 24
f 13 24 18
f 14 25 15
f 15 26 27
f 15 27 28
f 15 28 16
f 15 25 29
f 15 29 26
f 18 24 31
f 18 31 30
f 19 32 20
f 20 32 33
f 20 33 21
f 21 34 22
f 22 35 30
f 22 30 23
f 22 34 36
f 22 36 35
f 23 30 24
f 24 30 31
f 25 37 29
f 26 38 39
f 26 39 40
f 26 40 27
f 26 29 41
f 26 41 38
f 29 37 41
f 30 35 42
f 34 43 36
f 35 36 42
f 36 43 44
f 36 44 42
f 37 45 41
f 38 41 46
f 38 46 39
f 39 46 47
f 39 47 48
f 39 48 49
f 39 49 40
f 41 45 46
f 42 44 51
f 42 51 52
f 42 52 50
f 43 53 44
f 44 53 54
f 44 54 55
f 44 55 56
f 44 56 51
f 45 57 46
f 46 57 47
f 47 58 59
f 47 59 48
f 47 57 60
f 47 60 58
f 48 59 61
f 48 61 62
f 48 62 49
f 50 52 64
f 50 64 63
f 51 56 65
f 51 65 64
f 51 64 52
f 55 66 56
f 56 66 65
f 57 67 60
f 58 68 59
f 58 60 68
f 59 68 61
f 60 67 69
f 60 69 68
f 63 64 71
f 63 71 72
f 63 72 70
f 64 65 73
f 64 73 74
f 64 74 75
f 64 75 76
f 64 76 70
f 64 70 72
f 64 72 71
f 65 66 73
f 66 77 73
f 67 78 79
f 67 79 69
f 68 69 80
f 69 79 81
f 69 81 80
f 70 76 82
f 73 83 84
f 73 84 85
f 73 85 74
f 73 77 86
f 73 86 87
f 73 87 88
f 73 88 83
f 74 85 75
f 75 85 76
f 76 85 82
f 78 89 90
f 78 90 79
f 79 90 91
f 79 91 81
f 81 91 92
f 82 85 93
f 83 88 94
f 83 94 95
f 83 95 84
f 84 95 96
f 84 96 85
f 85 96 97
f 85 97 93
f 89 98 90
f 90 98 97
f 90 97 96
f 90 96 91
f 91 96 95
f 91 95 99
f 91 99 92
f 93 97 98
f 94 100 95
f 95 100 99

