# https://github.com/mikedh/trimesh
v -3.98210530 -0.46358633 0.80040344
v -3.92720916 -0.46358633 0.80040344
v -3.98216544 -0.46160097 0.80040344
v -3.96862876 -0.46358633 0.74239201
v -3.93072050 -0.46358633 0.74239201
v -3.92688097 -0.46354121 0.80040344
v -3.98218189 -0.46099182 0.80040344
v -3.98249362 -0.44431924 0.80040344
v -3.97081102 -0.23310321 0.74239201
v -3.92685910 -0.46099182 0.80040344
v -3.93040876 -0.23321601 0.74239201
v -3.98253737 -0.24436115 0.80040344
v -3.98248814 -0.23310321 0.80040344
v -3.93104320 -0.23310321 0.74239201
v -3.92666222 -0.23310321 0.80040344
f 1 2 6
f 1 6 10
f 1 10 15
f 1 15 13
f 1 13 12
f 1 12 8
f 1 8 7
f 1 7 3
f 1 3 4
f 1 4 5
f 1 5 2
f 2 5 6
f 3 7 4
f 4 7 8
f 4 8 9
f 4 9 14
f 4 14 11
f 4 11 5
f 5 10 6
f 5 11 10
f 8 12 9
f 9 12 13
f 9 13 15
f 9 15 14
f 10 11 15
f 11 14 15

