# https://github.com/mikedh/trimesh
v -3.45499736 -0.72357217 1.15874137
v -3.46184933 -0.55370891 1.15874548
v -3.46266836 -0.70806457 1.15874548
v -3.52970368 -0.72357217 1.15874137
v -3.46873056 -0.72357217 1.12234308
v -3.47270137 -0.29071534 1.12577379
v -3.46130090 -0.29071534 1.15874548
v -3.46123507 -0.39439591 1.15874548
v -3.46125700 -0.41104751 1.15874548
v -3.46180546 -0.54430267 1.15874548
v -3.51928310 -0.70806457 1.15874548
v -3.52098697 -0.29071534 1.15874548
v -3.50933053 -0.29071534 1.12635720
v -3.51349145 -0.72357217 1.12274162
v -3.52012406 -0.56841147 1.15874548
v -3.52098697 -0.40138704 1.15874548
v -3.52101623 -0.39439591 1.15874548
v -3.52103084 -0.38469307 1.15874548
v -3.52103817 -0.37770194 1.15874548
v -3.52100890 -0.30139270 1.15874548
v -3.47107063 -0.72357217 1.12107762
v -3.48294641 -0.29071534 1.12049832
v -3.50171806 -0.29071534 1.12222805
v -3.49960470 -0.72357217 1.11713746
v -3.49959737 -0.29071534 1.12108585
v -3.48294641 -0.72357217 1.11677179
f 1 2 3
f 1 3 11
f 1 11 4
f 1 4 14
f 1 14 24
f 1 24 26
f 1 26 21
f 1 21 5
f 1 5 6
f 1 6 7
f 1 7 8
f 1 8 9
f 1 9 10
f 1 10 2
f 2 10 9
f 2 9 8
f 2 8 7
f 2 7 12
f 2 12 20
f 2 20 19
f 2 19 18
f 2 18 17
f 2 17 16
f 2 16 15
f 2 15 11
f 2 11 3
f 4 12 13
f 4 13 14
f 4 11 15
f 4 15 16
f 4 16 17
f 4 17 18
f 4 18 19
f 4 19 20
f 4 20 12
f 5 21 6
f 6 22 25
f 6 25 23
f 6 23 13
f 6 13 12
f 6 12 7
f 6 21 22
f 13 23 14
f 14 23 25
f 14 25 24
f 21 26 22
f 22 26 24
f 22 24 25

