# https://github.com/mikedh/trimesh
v 2.07563112 -0.45980863 0.38253393
v 2.11538470 -0.45980863 0.38253393
v 2.07564733 -0.44835263 0.38253393
v 2.07498476 -0.45980863 0.33804377
v 2.11541724 -0.45980863 0.37019304
v 2.11629928 -0.24349966 0.20345129
v 2.11554730 -0.24349966 0.38253393
v 2.07565550 -0.44432926 0.38253393
v 2.07496854 -0.45980863 0.33685173
v 2.07536283 -0.39433361 0.35352238
v 2.07513115 -0.39433361 0.33685173
v 2.11554730 -0.45980863 0.30352793
v 2.08057388 -0.24349966 0.20345129
v 2.11557579 -0.45980863 0.28570028
v 2.11570180 -0.45980863 0.20345129
v 2.07678955 -0.24349966 0.38253393
v 2.07578150 -0.39433361 0.38253393
v 2.07490351 -0.44432926 0.32019859
v 2.07487503 -0.45980863 0.32137305
v 2.07502136 -0.39433361 0.32019859
v 2.07582216 -0.38200940 0.38253393
v 2.07583837 -0.37766840 0.38253393
v 2.07632618 -0.26535289 0.38253393
v 2.07634650 -0.26101191 0.38253393
v 2.07521651 -0.37766840 0.33685173
v 2.07670014 -0.24352085 0.20345129
v 2.07673262 -0.24349966 0.20353897
v 2.07493195 -0.45980863 0.20345129
v 2.07665543 -0.24868769 0.38253393
v 2.07478968 -0.45980863 0.25353342
v 2.07487098 -0.45980863 0.32019859
v 2.07513521 -0.37766840 0.32019859
v 2.07501731 -0.39433361 0.30352793
v 2.07477745 -0.45980863 0.23688029
v 2.07646440 -0.26101191 0.20345129
v 2.07498476 -0.44432926 0.20345129
v 2.07506201 -0.39433361 0.23688029
v 2.07504985 -0.42766404 0.20345129
v 2.07532219 -0.37766840 0.20345129
v 2.07520834 -0.39433361 0.20345129
f 1 2 7
f 1 7 16
f 1 16 29
f 1 29 24
f 1 24 23
f 1 23 22
f 1 22 21
f 1 21 17
f 1 17 8
f 1 8 3
f 1 3 4
f 1 4 9
f 1 9 19
f 1 19 31
f 1 31 30
f 1 30 34
f 1 34 28
f 1 28 15
f 1 15 14
f 1 14 12
f 1 12 5
f 1 5 2
f 2 5 6
f 2 6 7
f 3 8 4
f 4 8 10
f 4 10 11
f 4 11 9
f 5 12 6
f 6 13 27
f 6 27 16
f 6 16 7
f 6 12 14
f 6 14 15
f 6 15 28
f 6 28 36
f 6 36 38
f 6 38 40
f 6 40 39
f 6 39 35
f 6 35 26
f 6 26 13
f 8 17 10
f 9 18 19
f 9 11 20
f 9 20 18
f 10 17 21
f 10 21 22
f 10 22 11
f 11 22 23
f 11 23 24
f 11 24 25
f 11 25 20
f 13 26 27
f 16 27 26
f 16 26 29
f 18 30 31
f 18 31 19
f 18 20 30
f 20 25 32
f 20 32 33
f 20 33 34
f 20 34 30
f 24 29 26
f 24 26 35
f 24 35 32
f 24 32 25
f 28 34 36
f 32 37 33
f 32 35 37
f 33 37 34
f 34 38 36
f 34 37 38
f 35 39 37
f 37 39 40
f 37 40 38

