# https://github.com/mikedh/trimesh
v -1.83951510 -0.64915141 1.37959951
v -1.83951510 -0.64915141 1.28555231
v -1.82887099 -0.64915141 1.37959951
v -1.83951510 -0.28852742 1.37959951
v -1.81070972 -0.64830421 1.30609475
v -1.81070972 -0.64915141 1.30610402
v -1.83951510 -0.58059896 1.28507091
v -1.81070972 -0.64915141 1.37563729
v -1.81070972 -0.39372118 1.37572062
v -1.82879201 -0.46040273 1.37959951
v -1.83431288 -0.28852742 1.37959951
v -1.83951510 -0.28852742 1.28510796
v -1.83951510 -0.56390210 1.28502463
v -1.81070972 -0.63164265 1.30608551
v -1.81070972 -0.37705962 1.37572062
v -1.82879768 -0.44370587 1.37959951
v -1.82895557 -0.28852742 1.37943289
v -1.82906554 -0.28859802 1.37959951
v -1.81070972 -0.28852742 1.30598368
v -1.82883153 -0.37705962 1.37959951
v -1.82882021 -0.39372118 1.37959951
v -1.81070972 -0.28852742 1.37556323
f 1 2 6
f 1 6 8
f 1 8 3
f 1 3 10
f 1 10 16
f 1 16 21
f 1 21 20
f 1 20 18
f 1 18 11
f 1 11 4
f 1 4 12
f 1 12 13
f 1 13 7
f 1 7 2
f 2 5 6
f 2 7 5
f 3 8 9
f 3 9 10
f 4 11 17
f 4 17 22
f 4 22 19
f 4 19 12
f 5 7 13
f 5 13 14
f 5 14 19
f 5 19 22
f 5 22 15
f 5 15 9
f 5 9 8
f 5 8 6
f 9 15 10
f 10 15 16
f 11 18 17
f 12 19 13
f 13 19 14
f 15 20 21
f 15 21 16
f 15 22 18
f 15 18 20
f 17 18 22

