# https://github.com/mikedh/trimesh
v -0.02083201 -0.15890974 1.39185898
v -0.01621106 -0.14570410 1.39185898
v -0.01155959 -0.21005292 1.39185898
v -0.02073044 -0.16036920 1.80820326
v -0.00613630 -0.13600653 1.39185898
v -0.01455564 -0.14521176 1.82485700
v -0.01445408 -0.14511505 1.84151073
v -0.01436264 -0.14504472 1.85821501
v -0.01151900 -0.21026392 1.39185898
v -0.01685086 -0.17703009 1.90736887
v -0.02066952 -0.16036920 1.82485700
v -0.00598401 -0.13588341 1.39185898
v -0.00471448 -0.13667470 1.87486875
v -0.02001953 -0.16036920 1.90736887
v -0.01411892 -0.14546673 1.90736887
v -0.01406813 -0.14503593 1.89152255
v -0.01419003 -0.14500956 1.87486875
v 0.06218294 -0.21026392 1.39185898
v -0.00914248 -0.21026392 1.90736887
v 0.00219155 -0.12938612 1.39185898
v -0.00457232 -0.13670107 1.89152255
v 0.00358292 -0.13085438 1.85821501
v 0.00363370 -0.13069612 1.84151073
v 0.00334938 -0.12992242 1.70817969
v 0.00324782 -0.12989605 1.69152589
v -0.01366192 -0.14506231 1.90736887
v 0.07982385 -0.17496397 1.39185898
v 0.06226418 -0.21026392 1.40815950
v 0.06239620 -0.21026392 1.90736887
v 0.01801457 -0.12205359 1.39185898
v 0.00245566 -0.12948283 1.45822174
v 0.01801457 -0.12270418 1.70817969
v 0.00362357 -0.13109178 1.87486875
v -0.00430827 -0.13713190 1.90736887
v 0.00362357 -0.13175117 1.90736887
v 0.00401964 -0.13149620 1.90736887
v 0.01801457 -0.12361855 1.85821501
v 0.01801457 -0.12337238 1.84151073
v 0.01801457 -0.12324051 1.82485700
v 0.08290115 -0.16036920 1.39185898
v 0.07983399 -0.17503430 1.45822174
v 0.07980347 -0.17513981 1.44156797
v 0.06231496 -0.21026392 1.42481326
v 0.07966137 -0.17467381 1.85821501
v 0.07961059 -0.17457710 1.87486875
v 0.07951915 -0.17416389 1.90736887
v 0.06250790 -0.21026392 1.74153771
v 0.07983399 -0.17499035 1.72488391
v 0.03467040 -0.12075235 1.39185898
v 0.03467040 -0.12044464 1.82485700
v 0.00470010 -0.13115333 1.90736887
v 0.01801457 -0.12392626 1.87486875
v 0.03467040 -0.12154364 1.90736887
v 0.03467040 -0.12095459 1.87486875
v 0.03467040 -0.12053255 1.84151073
v 0.03467040 -0.12074356 1.85821501
v 0.08291128 -0.16036920 1.72488391
v 0.07947850 -0.14517660 1.39185898
v 0.06233523 -0.21026392 1.44146703
v 0.06254850 -0.21026392 1.67487216
v 0.06254850 -0.21026392 1.65806696
v 0.07970202 -0.17462985 1.84151073
v 0.08276906 -0.16036920 1.84151073
v 0.08269801 -0.16036920 1.85821501
v 0.08228161 -0.16036920 1.90736887
v 0.08256593 -0.16036920 1.87486875
v 0.06251804 -0.21026392 1.72488391
v 0.08278933 -0.16036920 1.82485700
v 0.05133635 -0.12226459 1.39185898
v 0.05133635 -0.12185135 1.82485700
v 0.05133635 -0.12189531 1.84151073
v 0.01801457 -0.12468238 1.90736887
v 0.01880673 -0.12453292 1.90736887
v 0.05133635 -0.12252834 1.90736887
v 0.07941759 -0.14535243 1.74153771
v 0.07939732 -0.14553706 1.84151073
v 0.07940745 -0.14488644 1.39185898
v 0.07937694 -0.14556344 1.85821501
v 0.07928562 -0.14570410 1.87486875
v 0.08212926 -0.15967463 1.90736887
v 0.07909262 -0.14605580 1.90736887
v 0.06718983 -0.12955317 1.39185898
v 0.06672264 -0.12941250 1.84151073
v 0.06672264 -0.12939491 1.82485700
v 0.06674297 -0.12939491 1.80820326
v 0.06713905 -0.12952679 1.40826044
v 0.06671245 -0.12947404 1.85821501
v 0.06644840 -0.12954437 1.90736887
v 0.07933640 -0.14472819 1.39185898
v 0.07551768 -0.13655162 1.39185898
v 0.07504036 -0.13722861 1.85821501
v 0.07518258 -0.13700002 1.72488391
v 0.07516226 -0.13701761 1.74153771
v 0.07495912 -0.13736928 1.87486875
v 0.07478645 -0.13772095 1.90736887
f 1 2 5
f 1 5 12
f 1 12 20
f 1 20 30
f 1 30 49
f 1 49 69
f 1 69 82
f 1 82 90
f 1 90 89
f 1 89 77
f 1 77 58
f 1 58 40
f 1 40 27
f 1 27 18
f 1 18 9
f 1 9 3
f 1 3 4
f 1 4 2
f 2 4 6
f 2 6 7
f 2 7 8
f 2 8 5
f 3 9 4
f 4 10 11
f 4 11 6
f 4 9 10
f 5 8 13
f 5 13 12
f 6 11 7
f 7 11 8
f 8 11 14
f 8 14 15
f 8 15 16
f 8 16 17
f 8 17 13
f 9 18 28
f 9 28 43
f 9 43 59
f 9 59 61
f 9 61 60
f 9 60 67
f 9 67 47
f 9 47 29
f 9 29 19
f 9 19 10
f 10 19 29
f 10 29 46
f 10 46 65
f 10 65 80
f 10 80 81
f 10 81 95
f 10 95 88
f 10 88 74
f 10 74 53
f 10 53 73
f 10 73 72
f 10 72 51
f 10 51 36
f 10 36 35
f 10 35 34
f 10 34 26
f 10 26 15
f 10 15 14
f 10 14 11
f 12 13 20
f 13 17 16
f 13 16 21
f 13 21 22
f 13 22 23
f 13 23 24
f 13 24 25
f 13 25 20
f 15 26 16
f 16 26 21
f 18 27 28
f 20 25 31
f 20 31 32
f 20 32 30
f 21 33 22
f 21 26 34
f 21 34 35
f 21 35 36
f 21 36 33
f 22 37 38
f 22 38 23
f 22 33 37
f 23 38 39
f 23 39 24
f 24 32 25
f 24 39 32
f 25 32 31
f 27 40 41
f 27 41 42
f 27 42 43
f 27 43 28
f 29 44 45
f 29 45 46
f 29 47 48
f 29 48 44
f 30 32 50
f 30 50 49
f 32 39 50
f 33 36 51
f 33 51 37
f 37 51 52
f 37 52 53
f 37 53 54
f 37 54 38
f 38 55 39
f 38 54 56
f 38 56 55
f 39 55 50
f 40 57 41
f 40 58 57
f 41 57 48
f 41 48 42
f 42 59 43
f 42 48 60
f 42 60 61
f 42 61 59
f 44 62 63
f 44 63 64
f 44 64 45
f 44 48 62
f 45 64 46
f 46 64 66
f 46 66 65
f 47 67 48
f 48 57 68
f 48 68 63
f 48 63 62
f 48 67 60
f 49 50 70
f 49 70 69
f 50 55 71
f 50 71 70
f 51 72 52
f 52 72 73
f 52 73 53
f 53 74 54
f 54 74 56
f 55 56 74
f 55 74 71
f 57 75 76
f 57 76 68
f 57 58 75
f 58 77 75
f 63 76 78
f 63 78 64
f 63 68 76
f 64 78 79
f 64 79 66
f 65 66 80
f 66 79 81
f 66 81 80
f 69 70 82
f 70 71 83
f 70 83 84
f 70 84 85
f 70 85 86
f 70 86 82
f 71 87 83
f 71 74 88
f 71 88 87
f 75 77 89
f 75 89 90
f 75 90 76
f 76 91 78
f 76 90 92
f 76 92 93
f 76 93 91
f 78 91 94
f 78 94 79
f 79 94 95
f 79 95 81
f 82 86 85
f 82 85 90
f 83 87 91
f 83 91 93
f 83 93 90
f 83 90 85
f 83 85 84
f 87 88 91
f 88 95 94
f 88 94 91
f 90 93 92

