# https://github.com/mikedh/trimesh
v -2.00841726 -0.61469906 0.43685709
v -2.00799764 -0.71677394 0.43682770
v -2.00841726 -0.68678307 0.43682770
v -2.00882860 -0.61469906 0.43685709
v -1.99508872 -0.61469906 0.47022570
v -2.05072295 -0.71677394 0.43682770
v -1.99499002 -0.64435015 0.47022570
v -1.99494883 -0.66100952 0.47022570
v -1.99502292 -0.67766888 0.47022570
v -1.99565640 -0.71677394 0.47022570
v -2.04861668 -0.68678307 0.43682770
v -2.04833696 -0.61472905 0.43685709
v -2.04833696 -0.61469906 0.43688647
v -1.99471851 -0.61469906 0.47389905
v -1.99284262 -0.71677394 0.48688802
v -2.04891286 -0.68681305 0.43682770
v -2.07689454 -0.71677394 0.51214590
v -2.07689454 -0.68678307 0.51199897
v -2.05955100 -0.61469906 0.47364930
v -1.99342675 -0.61469906 0.48688802
v -1.99347616 -0.61469906 0.49057602
v -1.99359955 -0.62769078 0.50355030
v -1.99339385 -0.71677394 0.52018317
v -2.07689454 -0.71677394 0.57096345
v -2.07689454 -0.68678307 0.56927374
v -2.06811584 -0.61469906 0.50309480
v -1.99369003 -0.61469906 0.50355030
v -1.99397804 -0.61469906 0.52019786
v -1.99392040 -0.71677394 0.52597238
v -2.05035268 -0.71677394 0.58687638
v -2.04793385 -0.61469906 0.58693515
v -2.06811584 -0.61469906 0.56897986
v -1.99440583 -0.61469906 0.52387121
v -1.99513807 -0.71677394 0.53686015
v -2.00561165 -0.71677394 0.58687638
v -2.00853242 -0.68677307 0.58693515
v -2.04841921 -0.68674309 0.58693515
v -2.04836163 -0.67759893 0.58693515
v -2.04722627 -0.61469906 0.58693515
v -1.99600199 -0.61469906 0.53686015
v -1.99587855 -0.62769078 0.53686015
v -1.99592790 -0.71677394 0.54261997
v -2.00344786 -0.71677394 0.57748732
v -2.00819511 -0.61474904 0.58693515
v -2.00817866 -0.68677307 0.58693515
v -2.00819511 -0.61469906 0.58686169
f 1 2 3
f 1 3 11
f 1 11 4
f 1 4 13
f 1 13 19
f 1 19 26
f 1 26 32
f 1 32 31
f 1 31 39
f 1 39 46
f 1 46 40
f 1 40 33
f 1 33 28
f 1 28 27
f 1 27 21
f 1 21 20
f 1 20 14
f 1 14 5
f 1 5 2
f 2 6 16
f 2 16 11
f 2 11 3
f 2 5 7
f 2 7 8
f 2 8 9
f 2 9 10
f 2 10 15
f 2 15 23
f 2 23 29
f 2 29 34
f 2 34 42
f 2 42 43
f 2 43 35
f 2 35 30
f 2 30 24
f 2 24 17
f 2 17 6
f 4 12 13
f 4 11 12
f 5 14 15
f 5 15 7
f 6 12 16
f 6 17 18
f 6 18 12
f 7 15 8
f 8 15 9
f 9 15 10
f 11 16 12
f 12 18 19
f 12 19 13
f 14 20 15
f 15 20 21
f 15 21 22
f 15 22 23
f 17 24 25
f 17 25 18
f 18 25 32
f 18 32 26
f 18 26 19
f 21 27 22
f 22 27 28
f 22 28 23
f 23 28 29
f 24 30 31
f 24 31 25
f 25 31 32
f 28 33 34
f 28 34 29
f 30 35 45
f 30 45 36
f 30 36 37
f 30 37 38
f 30 38 31
f 31 38 37
f 31 37 36
f 31 36 45
f 31 45 44
f 31 44 39
f 33 40 41
f 33 41 34
f 34 41 42
f 35 43 40
f 35 40 44
f 35 44 45
f 39 44 46
f 40 42 41
f 40 46 44
f 40 43 42

