# https://github.com/mikedh/trimesh
v -3.81290522 2.00632548 1.74293979
v -3.81281755 2.02301187 1.74293979
v -3.81271890 2.03966347 1.66263770
v -3.81289424 2.00632548 1.72626318
v -3.80952958 1.99349314 1.72626318
v -3.80952958 1.99353663 1.74293979
v -3.80936521 1.99367583 1.78752896
v -3.81264214 2.00632548 1.78752896
v -3.81265311 2.01756573 1.78752896
v -3.81265311 2.02301187 1.78752896
v -3.81257642 2.03966347 1.78752896
v -3.81276274 2.02301187 1.75961640
v -3.81269695 2.03966347 1.74293979
v -3.81266409 2.03966347 1.75961640
v -3.81262025 2.04274323 1.66263770
v -3.81275176 2.02608293 1.66263770
v -3.81275176 2.02301187 1.66263770
v -3.81267506 2.00632548 1.66263770
v -3.80936521 1.99362363 1.66263770
v -3.80948574 1.99349314 1.70961103
v -3.79782449 1.98753370 1.70961103
v -3.79782449 1.98767290 1.74293979
v -3.79782449 1.98792520 1.78752896
v -3.81197362 2.05633245 1.78752896
v -3.81208324 2.05633245 1.75961640
v -3.81212708 2.05633245 1.74293979
v -3.81214897 2.05633245 1.70961103
v -3.81213799 2.05633245 1.66263770
v -3.80724991 1.99253615 1.66263770
v -3.80941996 1.99350183 1.69292213
v -3.79782449 1.98756850 1.69292213
v -3.78717154 1.98372316 1.70961103
v -3.78700716 1.98372316 1.74293979
v -3.78623994 1.98372316 1.75943301
v -3.78620708 1.98372316 1.75961640
v -3.78126418 1.98372316 1.77537603
v -3.78092446 1.98372316 1.77606071
v -3.78116554 1.98579373 1.78752896
v -3.80982552 2.06390138 1.78752896
v -3.80885009 2.06765103 1.75961640
v -3.80880625 2.06760752 1.77629301
v -3.80888295 2.06771192 1.72626318
v -3.80889392 2.06771192 1.70961103
v -3.81154617 2.05842914 1.66263770
v -3.79782449 1.98780340 1.66263770
v -3.78615227 1.98372316 1.69287323
v -3.76447372 1.98372316 1.78051109
v -3.76447372 1.98593293 1.78752896
v -3.80877333 2.06757272 1.78752896
v -3.79782449 2.07173998 1.75961640
v -3.80886106 2.06769454 1.74293979
v -3.79782449 2.07185306 1.70961103
v -3.80888295 2.06768583 1.69292213
v -3.80886106 2.06760752 1.66263770
v -3.79474479 1.98716831 1.66263770
v -3.78062852 1.98372316 1.67677126
v -3.70095057 1.98372316 1.76950744
v -3.75002871 1.99164876 1.78752896
v -3.80518948 2.06889512 1.78752896
v -3.79782449 2.07164429 1.77629301
v -3.78114365 2.07245338 1.75961640
v -3.78114365 2.07260126 1.70961103
v -3.78114365 2.07258388 1.69292213
v -3.79782449 2.07181826 1.69292213
v -3.80886106 2.06765103 1.67624552
v -3.79782449 2.07174866 1.67624552
v -3.79782449 2.07167909 1.66263770
v -3.78112170 1.98595902 1.66263770
v -3.78013535 1.98372316 1.67656341
v -3.70095057 2.02315107 1.77222166
v -3.72057967 2.04078576 1.78752896
v -3.72249761 2.03005879 1.78752896
v -3.72425119 2.02085430 1.78752896
v -3.73197784 2.00895284 1.78752896
v -3.70095057 1.98372316 1.68602658
v -3.79782449 2.07157469 1.78752896
v -3.76447372 2.07161816 1.74293979
v -3.76447372 2.07169647 1.72626318
v -3.78114365 2.07234898 1.77629301
v -3.75088355 2.07104400 1.66263770
v -3.76447372 2.07174866 1.66263770
v -3.76753153 2.07190528 1.66263770
v -3.78114365 2.07254037 1.67624552
v -3.78421237 2.07234027 1.66263770
v -3.77708851 1.98582853 1.66263770
v -3.76447372 1.98372316 1.67260209
v -3.70095057 2.03202495 1.77115796
v -3.72487587 2.05659347 1.78752896
v -3.70095057 2.03488723 1.77080345
v -3.76365174 1.98372316 1.67277326
v -3.76447372 1.98635922 1.66263770
v -3.76119678 1.98723791 1.66263770
v -3.75044518 1.99201415 1.66263770
v -3.73323824 2.00970973 1.66263770
v -3.72698020 2.01969721 1.66263770
v -3.72579649 2.02301186 1.66263770
v -3.72424021 2.03443484 1.66263770
v -3.72382374 2.03966347 1.66263770
v -3.70095057 1.99279714 1.68595322
v -3.78114365 2.07227067 1.78752896
v -3.76447372 2.07133108 1.78752896
v -3.74781482 2.07026100 1.78752896
v -3.74781482 2.07050460 1.74293979
v -3.74781482 2.07059159 1.72626318
v -3.74781482 2.07086999 1.66263770
v -3.78114365 2.07247947 1.66263770
v -3.73333689 2.06718124 1.78752896
v -3.70095057 2.03955036 1.76261183
v -3.70095057 2.01198911 1.68592877
v -3.72522662 2.05136483 1.66263770
v -3.70095057 2.02299447 1.68618552
v -3.73377525 2.06752054 1.66263770
v -3.73333689 2.06722474 1.77629301
v -3.70095057 2.04046386 1.75961640
v -3.70095057 2.04286503 1.74706000
v -3.70095057 2.04330003 1.74293979
v -3.72511700 2.06236150 1.75961640
v -3.72585130 2.05626288 1.66263770
v -3.70095057 2.02715302 1.68776268
v -3.70095057 2.04326523 1.70961103
v -3.70095057 2.03776689 1.69350900
v -3.73213130 2.06534557 1.66263770
v -3.72529235 2.06238759 1.74293979
f 1 2 3
f 1 3 4
f 1 4 5
f 1 5 6
f 1 6 7
f 1 7 8
f 1 8 9
f 1 9 10
f 1 10 11
f 1 11 12
f 1 12 2
f 2 13 3
f 2 12 11
f 2 11 14
f 2 14 13
f 3 15 28
f 3 28 44
f 3 44 54
f 3 54 67
f 3 67 84
f 3 84 106
f 3 106 82
f 3 82 81
f 3 81 80
f 3 80 105
f 3 105 112
f 3 112 122
f 3 122 118
f 3 118 110
f 3 110 98
f 3 98 97
f 3 97 96
f 3 96 95
f 3 95 94
f 3 94 93
f 3 93 92
f 3 92 91
f 3 91 85
f 3 85 68
f 3 68 55
f 3 55 45
f 3 45 29
f 3 29 19
f 3 19 18
f 3 18 17
f 3 17 16
f 3 16 4
f 3 13 15
f 4 16 17
f 4 17 18
f 4 18 19
f 4 19 20
f 4 20 5
f 5 20 21
f 5 21 6
f 6 21 22
f 6 22 7
f 7 23 38
f 7 38 48
f 7 48 58
f 7 58 74
f 7 74 73
f 7 73 72
f 7 72 71
f 7 71 88
f 7 88 107
f 7 107 102
f 7 102 101
f 7 101 100
f 7 100 76
f 7 76 59
f 7 59 49
f 7 49 39
f 7 39 24
f 7 24 11
f 7 11 10
f 7 10 9
f 7 9 8
f 7 22 23
f 11 24 25
f 11 25 14
f 13 26 27
f 13 27 15
f 13 14 26
f 14 25 26
f 15 27 28
f 19 29 30
f 19 30 20
f 20 30 31
f 20 31 21
f 21 32 33
f 21 33 22
f 21 31 32
f 22 33 23
f 23 33 34
f 23 34 35
f 23 35 36
f 23 36 37
f 23 37 38
f 24 39 25
f 25 40 26
f 25 39 41
f 25 41 40
f 26 40 42
f 26 42 43
f 26 43 27
f 27 43 44
f 27 44 28
f 29 45 31
f 29 31 30
f 31 45 32
f 32 45 46
f 32 46 56
f 32 56 69
f 32 69 86
f 32 86 90
f 32 90 75
f 32 75 57
f 32 57 47
f 32 47 37
f 32 37 36
f 32 36 35
f 32 35 34
f 32 34 33
f 37 47 38
f 38 47 48
f 39 49 41
f 40 50 51
f 40 51 42
f 40 41 50
f 41 49 50
f 42 52 43
f 42 51 52
f 43 52 53
f 43 53 44
f 44 53 54
f 45 55 46
f 46 55 56
f 47 57 48
f 48 57 58
f 49 59 50
f 50 59 60
f 50 60 61
f 50 61 62
f 50 62 52
f 50 52 51
f 52 62 63
f 52 63 64
f 52 64 53
f 53 64 65
f 53 65 54
f 54 65 64
f 54 64 66
f 54 66 67
f 55 68 56
f 56 68 69
f 57 70 71
f 57 71 72
f 57 72 73
f 57 73 74
f 57 74 58
f 57 75 99
f 57 99 109
f 57 109 111
f 57 111 119
f 57 119 121
f 57 121 120
f 57 120 116
f 57 116 115
f 57 115 114
f 57 114 108
f 57 108 89
f 57 89 87
f 57 87 70
f 59 76 60
f 60 76 61
f 61 77 78
f 61 78 62
f 61 76 79
f 61 79 77
f 62 78 80
f 62 80 81
f 62 81 82
f 62 82 63
f 63 82 83
f 63 83 64
f 64 83 84
f 64 84 66
f 66 84 67
f 68 85 86
f 68 86 69
f 70 87 71
f 71 87 89
f 71 89 88
f 75 90 91
f 75 91 92
f 75 92 93
f 75 93 94
f 75 94 95
f 75 95 96
f 75 96 97
f 75 97 98
f 75 98 99
f 76 100 79
f 77 79 101
f 77 101 102
f 77 102 103
f 77 103 104
f 77 104 78
f 78 104 105
f 78 105 80
f 79 100 101
f 82 106 83
f 83 106 84
f 85 91 86
f 86 91 90
f 88 89 108
f 88 108 107
f 98 109 99
f 98 110 111
f 98 111 109
f 102 107 103
f 103 107 104
f 104 107 105
f 105 107 113
f 105 113 112
f 107 108 114
f 107 114 115
f 107 115 116
f 107 116 117
f 107 117 113
f 110 118 111
f 111 118 119
f 112 120 121
f 112 121 122
f 112 113 117
f 112 117 123
f 112 123 120
f 116 120 117
f 117 120 123
f 118 122 121
f 118 121 119

