# https://github.com/mikedh/trimesh
v -1.90997470 -0.46618536 0.85637061
v -1.90999818 -0.46618536 0.85238293
v -1.83732073 -0.46618536 0.85637061
v -1.90996689 -0.21816756 0.85637061
v -1.91006857 -0.21816756 0.84153547
v -1.91017026 -0.21816756 0.82486677
v -1.91005290 -0.46618536 0.84153547
v -1.83308150 -0.46618536 0.84960055
v -1.83731293 -0.46535993 0.85637061
v -1.83624915 -0.21816756 0.85637061
v -1.91022498 -0.21816756 0.80819807
v -1.91012329 -0.46618536 0.82486677
v -1.83052384 -0.46618536 0.84551031
v -1.83052384 -0.46106283 0.84556160
v -1.83685927 -0.36028739 0.85637061
v -1.83052384 -0.21816756 0.84647197
v -1.83052384 -0.44450565 0.84565135
v -1.91039706 -0.21816756 0.74154893
v -1.91026408 -0.46618536 0.75821763
v -1.83052384 -0.46618536 0.75578143
v -1.83052384 -0.21816756 0.75481978
v -1.91042835 -0.21816756 0.72538029
v -1.91027195 -0.46618536 0.75239641
v -1.83052384 -0.44368022 0.75561474
v -1.84377347 -0.46618536 0.72538029
v -1.84182593 -0.21816756 0.72538029
v -1.83052384 -0.24501835 0.75473001
v -1.91022498 -0.46618536 0.72538029
v -1.91025627 -0.46618536 0.73572771
v -1.91027195 -0.46618536 0.74154893
v -1.83052384 -0.24776169 0.75473001
f 1 2 7
f 1 7 12
f 1 12 19
f 1 19 23
f 1 23 30
f 1 30 29
f 1 29 28
f 1 28 25
f 1 25 20
f 1 20 13
f 1 13 8
f 1 8 3
f 1 3 9
f 1 9 15
f 1 15 10
f 1 10 4
f 1 4 5
f 1 5 6
f 1 6 2
f 2 6 7
f 3 8 9
f 4 10 16
f 4 16 21
f 4 21 26
f 4 26 22
f 4 22 18
f 4 18 11
f 4 11 6
f 4 6 5
f 6 11 12
f 6 12 7
f 8 13 14
f 8 14 9
f 9 14 15
f 10 15 14
f 10 14 17
f 10 17 16
f 11 18 12
f 12 18 19
f 13 20 24
f 13 24 31
f 13 31 27
f 13 27 21
f 13 21 16
f 13 16 17
f 13 17 14
f 18 22 19
f 19 22 23
f 20 25 26
f 20 26 24
f 21 27 26
f 22 28 29
f 22 29 30
f 22 30 23
f 22 26 25
f 22 25 28
f 24 26 31
f 26 27 31

