# https://github.com/mikedh/trimesh
v -1.81501846 -0.13599373 0.12487975
v -1.81501846 -0.13600100 0.14152860
v -1.78680460 -0.13659065 0.14152860
v -1.78680460 -0.13662704 0.12487975
v -1.81501846 -0.13990997 0.10821225
v -1.81501846 -0.13680901 0.15819611
v -1.78680460 -0.13682355 0.14632795
v -1.78680460 -0.14158419 0.10821225
v -1.81501846 -0.14791708 0.09648362
v -1.81501846 -0.14383345 0.17469618
v -1.78680460 -0.13741320 0.15819611
v -1.78680460 -0.14702176 0.10140391
v -1.81501846 -0.16037185 0.09291202
v -1.78680460 -0.14926374 0.09862285
v -1.81501846 -0.14429932 0.17571000
v -1.81499915 -0.14423381 0.17563556
v -1.78680460 -0.14512917 0.17258485
v -1.78680460 -0.16037185 0.09747885
v -1.81501846 -0.17702669 0.09268880
v -1.81501846 -0.16021899 0.18747582
v -1.78680460 -0.16037185 0.17911417
v -1.81501846 -0.21034370 0.09245628
v -1.78680460 -0.21034370 0.09817641
v -1.81501846 -0.21034370 0.17966296
v -1.78680460 -0.21034370 0.17965366
v -1.78680460 -0.17702669 0.17958851
f 1 2 3
f 1 3 4
f 1 4 5
f 1 5 9
f 1 9 13
f 1 13 19
f 1 19 22
f 1 22 24
f 1 24 20
f 1 20 15
f 1 15 10
f 1 10 6
f 1 6 2
f 2 6 3
f 3 6 7
f 3 7 11
f 3 11 17
f 3 17 21
f 3 21 26
f 3 26 25
f 3 25 23
f 3 23 18
f 3 18 14
f 3 14 12
f 3 12 8
f 3 8 4
f 4 8 5
f 5 8 9
f 6 10 11
f 6 11 7
f 8 12 9
f 9 12 14
f 9 14 13
f 10 15 16
f 10 16 11
f 11 16 17
f 13 18 19
f 13 14 18
f 15 17 16
f 15 20 17
f 17 20 21
f 18 22 19
f 18 23 22
f 20 24 25
f 20 25 26
f 20 26 21
f 22 23 25
f 22 25 24

