# https://github.com/mikedh/trimesh
v -1.82001927 -0.16036779 0.74170271
v -1.82212470 -0.17423272 0.74170271
v -1.82148329 -0.14779966 0.74170271
v -1.78682099 -0.16037757 0.75921269
v -1.78682099 -0.17224367 0.75932494
v -1.78682099 -0.21815781 0.75981880
v -1.82425797 -0.18247174 0.74170271
v -1.82153908 -0.14761441 0.74170271
v -1.78682099 -0.14565462 0.76286060
v -1.78682099 -0.21815781 0.84029735
v -1.81251796 -0.21816756 0.75967289
v -1.84022273 -0.21816756 0.74170271
v -1.82654460 -0.13928766 0.74170271
v -1.78682099 -0.14347054 0.76634014
v -1.83479890 -0.13202370 0.74170271
v -1.84870007 -0.12382370 0.74170271
v -1.78682099 -0.19369431 0.84049938
v -1.81841583 -0.16036779 0.85637061
v -1.82001927 -0.17799634 0.85637061
v -1.83626292 -0.21816756 0.85637061
v -1.81251796 -0.21816756 0.84035347
v -1.89935497 -0.21816756 0.74170271
v -1.78682099 -0.13811764 0.77489309
v -1.86534797 -0.11917280 0.74170271
v -1.78682099 -0.17703107 0.84062285
v -1.78682099 -0.16037757 0.84051060
v -1.82070252 -0.14653213 0.85637061
v -1.90996558 -0.21816756 0.85637061
v -1.91035599 -0.21816756 0.75042403
v -1.91038388 -0.21808956 0.74170271
v -1.78682099 -0.13778612 0.77967467
v -1.88199592 -0.12030384 0.74170271
v -1.86695146 -0.11885105 0.79155001
v -1.86534797 -0.11903631 0.75822494
v -1.86388401 -0.11886080 0.77588084
v -1.85735867 -0.11869504 0.78209913
v -1.85701010 -0.11869504 0.78209913
v -1.78682099 -0.13697686 0.79155001
v -1.78682099 -0.14672716 0.83678412
v -1.82475990 -0.13911215 0.85637061
v -1.92658564 -0.17393047 0.85637061
v -1.91016078 -0.21816756 0.82487510
v -1.91021657 -0.21816756 0.80819572
v -1.92665537 -0.17404747 0.74170271
v -1.88199592 -0.12022585 0.75822494
v -1.86845727 -0.11884131 0.80819572
v -1.89865782 -0.12334594 0.74170271
v -1.86071891 -0.11858778 0.82487510
v -1.86013329 -0.11862679 0.80819572
v -1.85862749 -0.11867555 0.79155001
v -1.85687063 -0.11862679 0.80819572
v -1.78682099 -0.13698660 0.80819572
v -1.85678700 -0.11858778 0.82487510
v -1.85673121 -0.11856829 0.84153203
v -1.85673121 -0.11855854 0.85637061
v -1.78682099 -0.14138397 0.82833220
v -1.84680379 -0.12407720 0.85637061
v -1.83418538 -0.13148743 0.85637061
v -1.92878864 -0.16187911 0.85637061
v -1.92924879 -0.16036779 0.74170271
v -1.88199592 -0.12015760 0.77488187
v -1.88199592 -0.12010884 0.79155001
v -1.86907079 -0.11885105 0.82487510
v -1.86087228 -0.11856829 0.84153203
v -1.91307488 -0.13036614 0.74170271
v -1.89865782 -0.12328743 0.77488187
v -1.78682099 -0.13758137 0.81298852
v -1.84931353 -0.12264391 0.85637061
v -1.78682099 -0.13919992 0.82486387
v -1.86052371 -0.11855854 0.85637061
v -1.84839328 -0.12316068 0.85637061
v -1.92905353 -0.16036779 0.85637061
v -1.92646023 -0.14825794 0.85637061
v -1.92613943 -0.14676614 0.85637061
v -1.92625101 -0.14667840 0.74170271
v -1.86921020 -0.11886080 0.84153203
v -1.89865782 -0.12326794 0.79155001
v -1.88199592 -0.12010884 0.80819572
v -1.92132912 -0.13825414 0.74170271
v -1.91301909 -0.13033690 0.79155001
v -1.86884768 -0.11890956 0.85637061
v -1.92135701 -0.13843939 0.85637061
v -1.92145465 -0.13841990 0.74170271
v -1.88199592 -0.12012833 0.82487510
v -1.88199592 -0.12018683 0.84153203
v -1.89865782 -0.12328743 0.80819572
v -1.91299125 -0.13034665 0.80819572
v -1.88199592 -0.12029409 0.85637061
v -1.91303304 -0.13052216 0.85637061
v -1.89865782 -0.12334594 0.82487510
v -1.89865782 -0.12357020 0.85637061
v -1.91144354 -0.12975188 0.85637061
f 1 2 7
f 1 7 12
f 1 12 22
f 1 22 30
f 1 30 44
f 1 44 60
f 1 60 75
f 1 75 83
f 1 83 79
f 1 79 65
f 1 65 47
f 1 47 32
f 1 32 24
f 1 24 16
f 1 16 15
f 1 15 13
f 1 13 8
f 1 8 3
f 1 3 4
f 1 4 5
f 1 5 6
f 1 6 2
f 2 6 7
f 3 8 4
f 4 9 14
f 4 14 23
f 4 23 31
f 4 31 38
f 4 38 52
f 4 52 67
f 4 67 69
f 4 69 56
f 4 56 39
f 4 39 26
f 4 26 25
f 4 25 17
f 4 17 10
f 4 10 6
f 4 6 5
f 4 8 9
f 6 10 21
f 6 21 11
f 6 11 12
f 6 12 7
f 8 13 9
f 9 13 15
f 9 15 16
f 9 16 14
f 10 17 18
f 10 18 19
f 10 19 20
f 10 20 21
f 11 21 20
f 11 20 28
f 11 28 42
f 11 42 43
f 11 43 29
f 11 29 22
f 11 22 12
f 14 16 23
f 16 24 23
f 17 25 18
f 18 25 26
f 18 26 27
f 18 27 40
f 18 40 58
f 18 58 57
f 18 57 71
f 18 71 68
f 18 68 55
f 18 55 70
f 18 70 81
f 18 81 88
f 18 88 91
f 18 91 92
f 18 92 89
f 18 89 82
f 18 82 74
f 18 74 73
f 18 73 72
f 18 72 59
f 18 59 41
f 18 41 28
f 18 28 20
f 18 20 19
f 22 29 30
f 23 24 31
f 24 32 33
f 24 33 34
f 24 34 35
f 24 35 36
f 24 36 37
f 24 37 38
f 24 38 31
f 26 39 27
f 27 39 40
f 28 41 42
f 29 43 41
f 29 41 44
f 29 44 30
f 32 45 46
f 32 46 33
f 32 47 45
f 33 48 49
f 33 49 35
f 33 35 34
f 33 46 48
f 35 49 50
f 35 50 36
f 36 50 49
f 36 49 51
f 36 51 37
f 37 51 38
f 38 51 53
f 38 53 54
f 38 54 55
f 38 55 52
f 39 56 57
f 39 57 58
f 39 58 40
f 41 59 60
f 41 60 44
f 41 43 42
f 45 47 61
f 45 61 46
f 46 61 62
f 46 62 63
f 46 63 64
f 46 64 48
f 47 65 66
f 47 66 62
f 47 62 61
f 48 64 54
f 48 54 53
f 48 53 51
f 48 51 49
f 52 55 67
f 54 64 70
f 54 70 55
f 55 68 69
f 55 69 67
f 56 69 57
f 57 69 71
f 59 72 60
f 60 72 73
f 60 73 74
f 60 74 75
f 62 76 63
f 62 66 77
f 62 77 78
f 62 78 76
f 63 76 70
f 63 70 64
f 65 79 80
f 65 80 77
f 65 77 66
f 68 71 69
f 70 76 81
f 74 82 75
f 75 82 83
f 76 78 84
f 76 84 85
f 76 85 81
f 77 86 84
f 77 84 78
f 77 80 86
f 79 82 80
f 79 83 82
f 80 82 87
f 80 87 86
f 81 85 88
f 82 89 87
f 84 86 90
f 84 90 85
f 85 90 91
f 85 91 88
f 86 87 89
f 86 89 90
f 89 92 90
f 90 92 91

