# https://github.com/mikedh/trimesh
v -2.96361228 -0.27771755 0.56977365
v -2.96361228 -0.36100864 0.56975362
v -2.94960238 -0.27771755 0.56977365
v -2.96361228 -0.26104108 0.56977365
v -2.96379384 -0.47687597 0.56952664
v -2.94960238 -0.36100864 0.56974694
v -2.96361228 -0.37768512 0.56974694
v -2.93838799 -0.26647805 0.56976697
v -2.94960238 -0.26104108 0.56977365
v -2.93838799 -0.24984727 0.56974694
v -2.94956010 -0.24427321 0.56973359
v -2.96361228 -0.24436458 0.56973359
v -2.96379384 -0.47687597 0.50157639
v -2.96379384 -0.50853846 0.56947991
v -2.96361228 -0.24427321 0.56005408
v -2.94960238 -0.37768512 0.56974027
v -2.93838799 -0.36644563 0.56973359
v -2.96379384 -0.71098649 0.56914615
v -2.94960238 -0.71103218 0.56919288
v -2.93838799 -0.26104108 0.56976697
v -2.93838799 -0.24427321 0.56973359
v -2.96379384 -0.47765268 0.50157639
v -2.96361228 -0.24427321 0.53279117
v -2.96361228 -0.24431889 0.50168988
v -2.93838799 -0.24427321 0.50966045
v -2.93838799 -0.37768512 0.56972692
v -2.96379384 -0.71103218 0.56505405
v -2.93839048 -0.71103218 0.56917953
v -2.93839048 -0.71103218 0.51004097
v -2.96379384 -0.57780300 0.50189683
v -2.94960238 -0.24427321 0.50892615
v -2.93838799 -0.47221569 0.51000759
v -2.93838799 -0.47687597 0.56940648
v -2.96379384 -0.71103218 0.56034778
v -2.93838799 -0.47687597 0.51002094
v -2.94957751 -0.71103218 0.50968048
v -2.96379384 -0.71098649 0.50253767
v -2.96379384 -0.59452518 0.50197693
f 1 2 3
f 1 3 9
f 1 9 4
f 1 4 5
f 1 5 2
f 2 6 3
f 2 5 7
f 2 7 16
f 2 16 6
f 3 8 20
f 3 20 9
f 3 6 8
f 4 9 10
f 4 10 11
f 4 11 12
f 4 12 5
f 5 13 22
f 5 22 30
f 5 30 38
f 5 38 37
f 5 37 34
f 5 34 27
f 5 27 18
f 5 18 14
f 5 14 7
f 5 12 15
f 5 15 23
f 5 23 13
f 6 16 17
f 6 17 8
f 7 14 18
f 7 18 19
f 7 19 16
f 8 17 26
f 8 26 33
f 8 33 35
f 8 35 32
f 8 32 25
f 8 25 21
f 8 21 10
f 8 10 20
f 9 20 10
f 10 21 11
f 11 21 25
f 11 25 31
f 11 31 23
f 11 23 15
f 11 15 12
f 13 23 24
f 13 24 25
f 13 25 22
f 16 26 17
f 16 19 26
f 18 27 19
f 19 27 34
f 19 34 36
f 19 36 29
f 19 29 28
f 19 28 26
f 22 29 30
f 22 25 29
f 23 31 24
f 24 31 25
f 25 32 29
f 26 28 33
f 28 29 35
f 28 35 33
f 29 36 37
f 29 37 38
f 29 38 30
f 29 32 35
f 34 37 36

