# https://github.com/mikedh/trimesh
v -2.40957194 -0.73576729 1.08978532
v -2.08008401 -0.73459357 1.08981575
v -2.40957194 -0.78269446 1.08978532
v -2.48754665 -0.73586337 1.08978532
v -2.08008401 -0.72144272 1.16295324
v -2.08008401 -0.78086187 1.08981575
v -2.48292004 -0.72144272 1.11641120
v -2.09966740 -0.78107463 1.08981575
v -2.11633925 -0.78122564 1.08981575
v -2.41627263 -0.78273565 1.08978532
v -2.48754665 -0.78297588 1.08978532
v -2.48754665 -0.72144272 1.11776532
v -2.08008401 -0.72144272 1.22405585
v -2.08008401 -0.78897475 1.15356572
v -2.11633925 -0.78929048 1.15356572
v -2.13301110 -0.78942090 1.15356572
v -2.13301110 -0.78132172 1.08981575
v -2.43290455 -0.78281117 1.08978532
v -2.48670908 -0.78297588 1.08978532
v -2.48754665 -0.79095838 1.15356572
v -2.48754665 -0.72144272 1.13153470
v -2.08008401 -0.73632322 1.24520441
v -2.39952097 -0.72144272 1.22443622
v -2.08008401 -0.78907772 1.15642611
v -2.11633925 -0.78986704 1.17019549
v -2.13301110 -0.79000431 1.17019549
v -2.14964301 -0.79012102 1.17019549
v -2.39952097 -0.79125352 1.17019549
v -2.44957640 -0.78287980 1.08978532
v -2.47996857 -0.78296215 1.08978532
v -2.48754665 -0.79155553 1.17019549
v -2.46333660 -0.78292096 1.08978532
v -2.48754665 -0.72144957 1.22448187
v -2.40957194 -0.72144272 1.22443622
v -2.08008401 -0.78104718 1.24520441
v -2.38288906 -0.73611046 1.24520441
v -2.48292004 -0.72144957 1.22448187
v -2.46624819 -0.73606928 1.24520441
v -2.08008401 -0.78952386 1.17019549
v -2.08008401 -0.78948953 1.17307108
v -2.08008401 -0.78916009 1.18973128
v -2.13301110 -0.78960624 1.18685569
v -2.14964301 -0.78969547 1.18685569
v -2.39952097 -0.79069069 1.18685569
v -2.44957640 -0.79021025 1.20351588
v -2.48754665 -0.79046419 1.19887537
v -2.48754665 -0.73610361 1.24520441
v -2.48331886 -0.73608987 1.24520441
v -2.46656725 -0.73606928 1.24520441
v -2.09966740 -0.78125309 1.24520441
v -2.08008401 -0.78723825 1.21460746
v -2.08008401 -0.78873454 1.20351588
v -2.48292004 -0.78356615 1.24520441
v -2.48292004 -0.79026514 1.20351588
v -2.48754665 -0.79027200 1.20351588
v -2.48754665 -0.78357304 1.24520441
f 1 2 6
f 1 6 3
f 1 3 10
f 1 10 18
f 1 18 29
f 1 29 32
f 1 32 30
f 1 30 19
f 1 19 11
f 1 11 4
f 1 4 2
f 2 5 13
f 2 13 22
f 2 22 35
f 2 35 51
f 2 51 52
f 2 52 41
f 2 41 40
f 2 40 39
f 2 39 24
f 2 24 14
f 2 14 6
f 2 4 7
f 2 7 5
f 3 6 8
f 3 8 9
f 3 9 10
f 4 11 20
f 4 20 31
f 4 31 46
f 4 46 55
f 4 55 56
f 4 56 47
f 4 47 33
f 4 33 21
f 4 21 12
f 4 12 7
f 5 7 12
f 5 12 21
f 5 21 34
f 5 34 23
f 5 23 13
f 6 14 8
f 8 14 9
f 9 15 16
f 9 16 17
f 9 17 10
f 9 14 15
f 10 17 16
f 10 16 18
f 11 19 20
f 13 23 22
f 14 24 15
f 15 25 26
f 15 26 16
f 15 24 25
f 16 26 27
f 16 27 28
f 16 28 20
f 16 20 18
f 18 20 29
f 19 30 20
f 20 30 32
f 20 32 29
f 20 28 31
f 21 33 34
f 22 23 36
f 22 36 38
f 22 38 49
f 22 49 48
f 22 48 47
f 22 47 56
f 22 56 53
f 22 53 50
f 22 50 35
f 23 34 33
f 23 33 37
f 23 37 38
f 23 38 36
f 24 39 25
f 25 39 40
f 25 40 41
f 25 41 26
f 26 41 42
f 26 42 27
f 27 42 43
f 27 43 28
f 28 43 44
f 28 44 31
f 31 45 46
f 31 44 45
f 33 47 48
f 33 48 49
f 33 49 38
f 33 38 37
f 35 50 51
f 41 52 42
f 42 52 43
f 43 52 45
f 43 45 44
f 45 53 54
f 45 54 46
f 45 52 51
f 45 51 53
f 46 54 55
f 50 53 51
f 53 56 55
f 53 55 54

