# https://github.com/mikedh/trimesh
v 1.14187038 -0.69421815 0.18026728
v 1.14187038 -0.69324066 0.18026728
v 1.14187038 -0.69421815 0.13401788
v 1.29079323 -0.69421815 0.18074263
v 1.14187038 -0.67766879 0.18026251
v 1.14187038 -0.46198143 0.13462633
v 1.30734021 -0.69421815 0.13274388
v 1.32412911 -0.69421815 0.18079968
v 1.29079323 -0.66100576 0.18068082
v 1.14187038 -0.66100576 0.18022449
v 1.14187038 -0.46198143 0.17910731
v 1.39172014 -0.46198143 0.13353299
v 1.32412911 -0.69421815 0.13268207
v 1.40744462 -0.46198143 0.13346641
v 1.49172778 -0.46198143 0.13313841
v 1.30748536 -0.66100576 0.18070937
v 1.34082124 -0.69421815 0.18081869
v 1.30748536 -0.64434273 0.18063803
v 1.29079323 -0.64434273 0.18060000
v 1.14187038 -0.65991458 0.18021972
v 1.32316145 -0.46198143 0.17954469
v 1.50837153 -0.46198143 0.13308613
v 1.52409599 -0.46198143 0.13303857
v 1.44063535 -0.69421815 0.13234929
v 1.32412911 -0.66100576 0.18070461
v 1.47421315 -0.69421815 0.18075688
v 1.47406798 -0.67766879 0.18071885
v 1.32412911 -0.64434273 0.18063332
v 1.47406798 -0.46198143 0.17967779
v 1.47310035 -0.46198143 0.17967779
v 1.62507130 -0.46198143 0.13279139
v 1.45727909 -0.69421815 0.13230650
v 1.45742426 -0.66100576 0.18066181
v 1.49076012 -0.69421815 0.18070461
v 1.49076012 -0.67766879 0.18066658
v 1.63610266 -0.66100576 0.18014843
v 1.47406798 -0.66100576 0.18065233
v 1.49076012 -0.46198143 0.17964453
v 1.63610266 -0.46198143 0.13276760
v 1.47397124 -0.69421815 0.13228748
v 1.63610266 -0.69421815 0.18014843
v 1.63610266 -0.68230624 0.18017692
v 1.63610266 -0.67766879 0.18018169
v 1.63610266 -0.66564322 0.18016268
v 1.63610266 -0.46198143 0.17921191
v 1.63610266 -0.69421815 0.13228272
v 1.54073977 -0.69421815 0.13225422
v 1.52395085 -0.69421815 0.13225899
f 1 2 5
f 1 5 10
f 1 10 20
f 1 20 11
f 1 11 6
f 1 6 3
f 1 3 7
f 1 7 13
f 1 13 24
f 1 24 32
f 1 32 40
f 1 40 48
f 1 48 47
f 1 47 46
f 1 46 41
f 1 41 34
f 1 34 26
f 1 26 17
f 1 17 8
f 1 8 4
f 1 4 2
f 2 4 5
f 3 6 7
f 4 8 9
f 4 9 5
f 5 9 10
f 6 11 21
f 6 21 30
f 6 30 29
f 6 29 38
f 6 38 45
f 6 45 39
f 6 39 31
f 6 31 23
f 6 23 22
f 6 22 15
f 6 15 14
f 6 14 12
f 6 12 7
f 7 12 14
f 7 14 15
f 7 15 13
f 8 16 9
f 8 17 16
f 9 16 18
f 9 18 19
f 9 19 20
f 9 20 10
f 11 20 19
f 11 19 21
f 13 15 22
f 13 22 23
f 13 23 24
f 16 17 25
f 16 25 28
f 16 28 18
f 17 26 27
f 17 27 25
f 18 21 19
f 18 28 29
f 18 29 30
f 18 30 21
f 23 31 32
f 23 32 24
f 25 27 33
f 25 33 28
f 26 34 35
f 26 35 27
f 27 35 36
f 27 36 37
f 27 37 33
f 28 33 29
f 29 33 37
f 29 37 38
f 31 39 32
f 32 39 40
f 34 41 42
f 34 42 43
f 34 43 44
f 34 44 35
f 35 44 36
f 36 44 43
f 36 43 42
f 36 42 41
f 36 41 46
f 36 46 39
f 36 39 45
f 36 45 37
f 37 45 38
f 39 46 47
f 39 47 48
f 39 48 40

