# https://github.com/mikedh/trimesh
v -2.53280228 -0.24436944 0.89759803
v -2.49960286 -0.26104951 0.89757208
v -2.49960286 -0.24436944 0.89759803
v -2.53280228 -0.23783642 0.89759803
v -2.53295335 -0.26443185 0.89749425
v -2.53295335 -0.69431421 0.89662939
v -2.49959842 -0.67758782 0.89678506
v -2.48756632 -0.26104951 0.89757208
v -2.48756632 -0.24436944 0.89758073
v -2.49960286 -0.23783642 0.89758073
v -2.51625590 -0.23783642 0.89759803
v -2.53280228 -0.23783642 0.83443758
v -2.53295335 -0.26438552 0.83694567
v -2.53295335 -0.71099428 0.89642182
v -2.53292224 -0.71117961 0.89649967
v -2.51643361 -0.71117961 0.89657750
v -2.49959842 -0.69431421 0.89672453
v -2.48756185 -0.67758782 0.89678506
v -2.48756185 -0.26438552 0.89755478
v -2.48756632 -0.23783642 0.89755478
v -2.49490642 -0.23783642 0.89757208
v -2.53295335 -0.26438552 0.83653054
v -2.49846097 -0.23783642 0.81224537
v -2.49511525 -0.51097249 0.81025620
v -2.49436434 -0.71117961 0.81046377
v -2.53292224 -0.71117961 0.83676406
v -2.53295335 -0.71094794 0.83681594
v -2.53295335 -0.66095408 0.83667757
v -2.53295335 -0.64427401 0.83665161
v -2.53295335 -0.46102496 0.83652190
v -2.53295335 -0.39439737 0.83651324
v -2.53295335 -0.71117961 0.89560886
v -2.49977169 -0.71117961 0.89660345
v -2.48756185 -0.69431421 0.89670723
v -2.48756185 -0.68226750 0.89676777
v -2.49959842 -0.71117961 0.89660345
v -2.48756185 -0.26438552 0.80997945
v -2.48756632 -0.23783642 0.80994485
v -2.49521300 -0.23783642 0.81066269
v -2.49511969 -0.47770503 0.81025620
v -2.49512413 -0.49429243 0.81025620
v -2.48756185 -0.47770503 0.80925297
v -2.48756185 -0.49429243 0.80926163
v -2.48756185 -0.51097249 0.80927891
v -2.49503082 -0.52765255 0.81026486
v -2.49419107 -0.71117961 0.81043783
v -2.48756185 -0.71117961 0.89656020
v -2.48756185 -0.38786434 0.80953837
v -2.48756185 -0.47135734 0.80927027
v -2.48825941 -0.23783642 0.80999675
v -2.48756185 -0.57115973 0.80935676
v -2.48756185 -0.57764642 0.80936540
v -2.48756185 -0.71117961 0.80965946
v -2.48756185 -0.58779346 0.80938270
f 1 2 8
f 1 8 3
f 1 3 11
f 1 11 4
f 1 4 5
f 1 5 6
f 1 6 7
f 1 7 2
f 2 7 18
f 2 18 8
f 3 8 9
f 3 9 10
f 3 10 11
f 4 11 10
f 4 10 21
f 4 21 20
f 4 20 38
f 4 38 50
f 4 50 39
f 4 39 23
f 4 23 12
f 4 12 22
f 4 22 13
f 4 13 5
f 5 13 22
f 5 22 31
f 5 31 30
f 5 30 29
f 5 29 28
f 5 28 27
f 5 27 32
f 5 32 14
f 5 14 6
f 6 14 15
f 6 15 16
f 6 16 17
f 6 17 7
f 7 17 18
f 8 18 19
f 8 19 9
f 9 20 21
f 9 21 10
f 9 19 20
f 12 23 24
f 12 24 25
f 12 25 26
f 12 26 27
f 12 27 28
f 12 28 29
f 12 29 30
f 12 30 31
f 12 31 22
f 14 32 15
f 15 32 26
f 15 26 25
f 15 25 46
f 15 46 53
f 15 53 47
f 15 47 36
f 15 36 33
f 15 33 16
f 16 33 17
f 17 34 35
f 17 35 18
f 17 33 36
f 17 36 34
f 18 35 34
f 18 34 47
f 18 47 53
f 18 53 54
f 18 54 52
f 18 52 51
f 18 51 44
f 18 44 43
f 18 43 42
f 18 42 49
f 18 49 48
f 18 48 37
f 18 37 19
f 19 37 38
f 19 38 20
f 23 39 40
f 23 40 41
f 23 41 24
f 24 41 42
f 24 42 43
f 24 43 44
f 24 44 45
f 24 45 25
f 25 45 46
f 26 32 27
f 34 36 47
f 37 48 38
f 38 48 49
f 38 49 50
f 39 50 49
f 39 49 42
f 39 42 40
f 40 42 41
f 44 51 45
f 45 51 52
f 45 52 46
f 46 52 54
f 46 54 53

