# https://github.com/mikedh/trimesh
v -2.07989578 -0.17767858 0.80547487
v -2.07989578 -0.16742912 0.80722231
v -2.07989578 -0.19421784 0.80710520
v -2.36625434 -0.19434048 0.80871755
v -2.38290104 -0.19434048 0.80881663
v -2.39958385 -0.19434048 0.80892471
v -2.44955995 -0.19434048 0.80930302
v -2.44955995 -0.17767858 0.80835724
v -2.44955995 -0.16493247 0.80985248
v -2.07989578 -0.16363597 0.80792489
v -2.07989578 -0.20969711 0.81005965
v -2.33292488 -0.20855830 0.81036590
v -2.34957152 -0.20834804 0.81037492
v -2.36625434 -0.20818159 0.81040193
v -2.38290104 -0.20786625 0.81044697
v -2.39958385 -0.20746326 0.81049201
v -2.44955995 -0.20635073 0.81080728
v -2.44955995 -0.15796812 0.82018401
v -2.07989578 -0.15810828 0.81655402
v -2.07989578 -0.21766015 0.81305913
v -2.09961846 -0.21794047 0.81295104
v -2.11626516 -0.21804558 0.81296905
v -2.31624201 -0.21696807 0.81380676
v -2.33292488 -0.21688924 0.81396888
v -2.36625434 -0.21651257 0.81421209
v -2.44955995 -0.21469044 0.81511282
v -2.44955995 -0.15548899 0.83683879
v -2.07989578 -0.15669788 0.82021104
v -2.07989578 -0.21981515 0.81456337
v -2.07989578 -0.24432620 0.83540659
v -2.44955995 -0.24432620 0.83580292
v -2.44955995 -0.15588319 0.85349354
v -2.07989578 -0.15518239 0.85352958
v -2.07989578 -0.15484949 0.83687480
v -2.07989578 -0.15515610 0.83240712
v -2.07989578 -0.24432620 0.89481969
v -2.44955995 -0.24432620 0.89748589
v -2.44955995 -0.15696070 0.87016632
v -2.07989578 -0.15679426 0.87020235
v -2.07989578 -0.19471718 0.89666622
v -2.11626516 -0.24432620 0.89556731
v -2.44955995 -0.24429992 0.89748589
v -2.43291331 -0.24432620 0.89744085
v -2.44955995 -0.16273367 0.88683009
v -2.07989578 -0.16328555 0.88638872
v -2.16627743 -0.24432620 0.89620684
v -2.14959461 -0.24432620 0.89610775
v -2.13294798 -0.24432620 0.89588257
v -2.07989578 -0.18222511 0.89572044
v -2.14959461 -0.16904102 0.89540517
v -2.16627743 -0.16890962 0.89549525
v -2.16627743 -0.17767858 0.89605371
v -2.19960694 -0.17767858 0.89617081
v -2.44955995 -0.17766106 0.89660316
v -2.44955995 -0.19430543 0.89704453
v -2.44955995 -0.21096736 0.89724269
v -2.44955995 -0.22762925 0.89741383
v -2.41623049 -0.24432620 0.89738682
v -2.44955995 -0.16853292 0.89570242
v -2.19960694 -0.16883077 0.89554029
v -2.13819525 -0.16921623 0.89527907
v -2.07989578 -0.17462126 0.89448642
f 1 2 10
f 1 10 19
f 1 19 28
f 1 28 35
f 1 35 34
f 1 34 33
f 1 33 39
f 1 39 45
f 1 45 62
f 1 62 49
f 1 49 40
f 1 40 36
f 1 36 30
f 1 30 29
f 1 29 20
f 1 20 11
f 1 11 3
f 1 3 4
f 1 4 5
f 1 5 6
f 1 6 7
f 1 7 8
f 1 8 9
f 1 9 2
f 2 9 10
f 3 11 12
f 3 12 13
f 3 13 14
f 3 14 15
f 3 15 4
f 4 15 16
f 4 16 5
f 5 16 6
f 6 16 7
f 7 17 26
f 7 26 31
f 7 31 37
f 7 37 42
f 7 42 57
f 7 57 56
f 7 56 55
f 7 55 54
f 7 54 59
f 7 59 44
f 7 44 38
f 7 38 32
f 7 32 27
f 7 27 18
f 7 18 9
f 7 9 8
f 7 16 17
f 9 18 10
f 10 18 19
f 11 20 21
f 11 21 22
f 11 22 12
f 12 22 13
f 13 22 14
f 14 23 15
f 14 22 23
f 15 23 24
f 15 24 25
f 15 25 16
f 16 25 17
f 17 25 26
f 18 27 28
f 18 28 19
f 20 29 21
f 21 29 22
f 22 29 30
f 22 30 31
f 22 31 23
f 23 31 24
f 24 31 25
f 25 31 26
f 27 32 33
f 27 33 34
f 27 34 35
f 27 35 28
f 30 36 41
f 30 41 48
f 30 48 47
f 30 47 46
f 30 46 58
f 30 58 43
f 30 43 37
f 30 37 31
f 32 38 33
f 33 38 39
f 36 40 41
f 37 43 40
f 37 40 42
f 38 44 39
f 39 44 45
f 40 46 47
f 40 47 48
f 40 48 41
f 40 49 50
f 40 50 51
f 40 51 52
f 40 52 53
f 40 53 54
f 40 54 55
f 40 55 56
f 40 56 57
f 40 57 42
f 40 43 58
f 40 58 46
f 44 59 60
f 44 60 45
f 45 60 51
f 45 51 50
f 45 50 61
f 45 61 62
f 49 62 61
f 49 61 50
f 51 60 54
f 51 54 53
f 51 53 52
f 54 60 59

