# https://github.com/mikedh/trimesh
v 1.08473818 -0.28805353 1.99683976
v 1.14186478 -0.28805353 1.99680197
v 1.08473818 -0.28805353 1.93649876
v 1.08473818 -0.57765750 1.99675798
v 1.14186478 -0.28805353 1.93259343
v 1.09078918 -0.57765750 1.99675167
v 1.14081900 -0.71028760 1.99664485
v 1.14186478 -0.71028760 1.99663854
v 1.10305896 -0.28805353 1.93259343
v 1.08473818 -0.71028760 1.93648618
v 1.08473818 -0.58373310 1.99675167
v 1.14186478 -0.71028760 1.93259343
v 1.12410325 -0.71028760 1.99663222
v 1.10360702 -0.71016362 1.93259343
v 1.10455773 -0.71028760 1.93259343
v 1.08473818 -0.71028760 1.99658823
v 1.08473818 -0.59435507 1.99673915
f 1 2 5
f 1 5 9
f 1 9 3
f 1 3 10
f 1 10 16
f 1 16 17
f 1 17 11
f 1 11 4
f 1 4 2
f 2 4 6
f 2 6 7
f 2 7 8
f 2 8 12
f 2 12 5
f 3 9 10
f 4 11 7
f 4 7 6
f 5 12 15
f 5 15 14
f 5 14 9
f 7 11 13
f 7 13 16
f 7 16 10
f 7 10 15
f 7 15 12
f 7 12 8
f 9 14 10
f 10 14 15
f 11 17 13
f 13 17 16

