# https://github.com/mikedh/trimesh
v -1.90960204 -0.46618536 1.00702524
v -1.90997446 -0.46618536 0.85637061
v -1.84049370 -0.46618536 1.00702524
v -1.90956622 -0.31037919 1.00702524
v -1.90992433 -0.22614375 0.85637061
v -1.83732085 -0.46618536 0.85637061
v -1.83731370 -0.46536298 0.85637061
v -1.83686249 -0.36028604 0.85637061
v -1.83977033 -0.22614375 1.00702524
v -1.90955907 -0.29372007 1.00702524
v -1.90948027 -0.22614375 1.00702524
v -1.83696990 -0.22614375 0.85637061
v -1.83681230 -0.24035921 0.85637061
f 1 2 6
f 1 6 3
f 1 3 9
f 1 9 11
f 1 11 10
f 1 10 4
f 1 4 5
f 1 5 2
f 2 5 12
f 2 12 13
f 2 13 8
f 2 8 7
f 2 7 6
f 3 6 7
f 3 7 8
f 3 8 9
f 4 10 5
f 5 10 11
f 5 11 9
f 5 9 12
f 8 13 9
f 9 13 12

