# https://github.com/mikedh/trimesh
v -3.96627412 -0.15407436 1.87019222
v -3.94960757 -0.15445973 1.87019222
v -3.98175345 -0.16161515 1.87019222
v -3.98178003 -0.16162555 1.88688767
v -3.98179773 -0.16163598 1.90355690
v -3.98181544 -0.16166721 1.92021301
v -3.96627412 -0.15414728 1.90355690
v -3.89893440 -0.15550127 1.95353842
v -3.89893440 -0.15594915 1.92021301
v -3.93294985 -0.15595958 1.87019222
v -3.89893440 -0.15564710 1.93688230
v -3.98867348 -0.17767578 1.87019222
v -3.98944436 -0.17767578 1.97020770
v -3.96627412 -0.15422018 1.92021301
v -3.98205469 -0.16217758 1.97020770
v -3.98183314 -0.16175054 1.93688230
v -3.91628324 -0.15528255 1.97020770
v -3.89961664 -0.15560543 1.97020770
v -3.89893440 -0.15561586 1.96952677
v -3.89893440 -0.15621996 1.91954520
v -3.92054513 -0.16331285 1.87019222
v -3.98807982 -0.19434048 1.87019222
v -3.98852286 -0.26046813 1.92021301
v -3.98911647 -0.26046813 1.97020770
v -3.98901013 -0.26046813 1.98687693
v -3.98907218 -0.17767578 1.98687693
v -3.96627412 -0.15441807 1.93688230
v -3.98184202 -0.16289624 1.98687693
v -3.96627412 -0.15505343 1.97020770
v -3.93294985 -0.15515756 1.97020770
v -3.94960757 -0.15619913 1.98687693
v -3.93294985 -0.15636576 1.98687693
v -3.91628324 -0.15661574 1.98687693
v -3.89893440 -0.15696985 1.98619600
v -3.89893440 -0.15562627 1.97020770
v -3.89893440 -0.16350034 1.90199864
v -3.91807306 -0.17765495 1.87019222
v -3.89893440 -0.16383365 1.90157962
v -3.89893440 -0.16969754 1.89482290
v -3.98556341 -0.21100517 1.87019222
v -3.98533303 -0.26046813 1.90355690
v -3.98169140 -0.26046813 1.99957848
v -3.98159394 -0.17767578 1.99925113
v -3.97926362 -0.16545846 1.99788939
v -3.94960757 -0.15510550 1.97020770
v -3.96627412 -0.15628243 1.98687693
v -3.96627412 -0.16338578 1.99922503
v -3.94960757 -0.16332328 1.99915946
v -3.91628324 -0.16360450 1.99908090
v -3.89961664 -0.15701152 1.98687693
v -3.89893440 -0.16383365 1.99901545
v -3.89893440 -0.15703235 1.98687693
v -3.92983095 -0.26046813 1.87019222
v -3.89893440 -0.17718624 1.89376223
v -3.89893440 -0.19434048 1.89395869
v -3.89893440 -0.19475709 1.89397174
v -3.89893440 -0.20630781 1.89494074
v -3.89893440 -0.21462976 1.89597519
v -3.96831207 -0.24433460 1.87019222
v -3.96798419 -0.26046813 1.87021838
v -3.98120407 -0.26046813 1.99972261
v -3.96627412 -0.22766990 2.00383429
v -3.96627412 -0.21100517 2.00366406
v -3.96627412 -0.17767578 2.00328425
v -3.94960757 -0.17767578 2.00317947
v -3.89961664 -0.17767578 2.00282601
v -3.89893440 -0.17712375 2.00266877
v -3.93101822 -0.26046813 1.87019222
v -3.91357192 -0.26046813 1.90355690
v -3.89893440 -0.26046813 1.93380507
v -3.96627412 -0.26046813 2.00395207
v -3.96627412 -0.24433460 2.00389974
v -3.94960757 -0.22766990 2.00396518
v -3.94960757 -0.21100517 2.00376872
v -3.89893440 -0.17767578 2.00281290
v -3.89893440 -0.26046813 1.99859643
v -3.96574250 -0.26046813 2.00395207
v -3.94960757 -0.26046813 2.00392596
v -3.89893440 -0.19434048 2.00285212
v -3.89893440 -0.19366348 2.00285212
v -3.89893440 -0.21100517 2.00248554
v -3.89893440 -0.21031778 2.00251165
f 1 2 10
f 1 10 21
f 1 21 37
f 1 37 53
f 1 53 68
f 1 68 59
f 1 59 40
f 1 40 22
f 1 22 12
f 1 12 3
f 1 3 4
f 1 4 5
f 1 5 6
f 1 6 7
f 1 7 8
f 1 8 2
f 2 9 10
f 2 8 11
f 2 11 9
f 3 12 13
f 3 13 4
f 4 13 5
f 5 13 6
f 6 14 7
f 6 13 15
f 6 15 16
f 6 16 14
f 7 14 8
f 8 17 18
f 8 18 19
f 8 19 35
f 8 35 34
f 8 34 52
f 8 52 51
f 8 51 67
f 8 67 75
f 8 75 80
f 8 80 79
f 8 79 82
f 8 82 81
f 8 81 76
f 8 76 70
f 8 70 58
f 8 58 57
f 8 57 56
f 8 56 55
f 8 55 54
f 8 54 39
f 8 39 38
f 8 38 36
f 8 36 20
f 8 20 9
f 8 9 11
f 8 14 17
f 9 20 21
f 9 21 10
f 12 22 23
f 12 23 24
f 12 24 13
f 13 24 25
f 13 25 26
f 13 26 15
f 14 16 15
f 14 15 27
f 14 27 17
f 15 26 28
f 15 28 29
f 15 29 27
f 17 27 30
f 17 30 31
f 17 31 32
f 17 32 33
f 17 33 18
f 18 33 34
f 18 34 35
f 18 35 19
f 20 36 21
f 21 36 38
f 21 38 39
f 21 39 37
f 22 40 41
f 22 41 23
f 23 41 60
f 23 60 68
f 23 68 53
f 23 53 69
f 23 69 70
f 23 70 76
f 23 76 78
f 23 78 77
f 23 77 71
f 23 71 61
f 23 61 42
f 23 42 25
f 23 25 24
f 25 42 26
f 26 42 43
f 26 43 44
f 26 44 28
f 27 29 45
f 27 45 30
f 28 44 46
f 28 46 29
f 29 46 31
f 29 31 45
f 30 45 31
f 31 46 47
f 31 47 48
f 31 48 49
f 31 49 32
f 32 49 33
f 33 50 34
f 33 49 51
f 33 51 50
f 34 50 52
f 37 39 54
f 37 54 55
f 37 55 56
f 37 56 57
f 37 57 58
f 37 58 53
f 40 59 60
f 40 60 41
f 42 61 43
f 43 61 62
f 43 62 63
f 43 63 64
f 43 64 44
f 44 64 47
f 44 47 46
f 47 64 48
f 48 64 49
f 49 64 65
f 49 65 66
f 49 66 51
f 50 51 52
f 51 66 67
f 53 58 69
f 58 70 69
f 59 68 60
f 61 71 72
f 61 72 62
f 62 72 73
f 62 73 63
f 63 73 64
f 64 73 74
f 64 74 65
f 65 74 66
f 66 75 67
f 66 74 73
f 66 73 75
f 71 77 73
f 71 73 72
f 73 77 78
f 73 78 79
f 73 79 80
f 73 80 75
f 76 81 78
f 78 81 82
f 78 82 79

