# https://github.com/mikedh/trimesh
v -3.99504062 -0.77767311 0.47023458
v -3.99400444 -0.76102084 0.43688409
v -3.99451812 -0.76963975 0.42823127
v -3.99497863 -0.77767311 0.42823127
v -3.99328716 -0.79085127 0.42823127
v -3.99330480 -0.79096056 0.47023458
v -3.99329598 -0.79103864 0.48690983
v -3.99286205 -0.79050774 0.82018568
v -3.99501404 -0.77767311 0.48690983
v -3.99371226 -0.76102084 0.55355354
v -3.99140077 -0.75230047 1.01364154
v -3.99222440 -0.75077812 0.55355354
v -3.99231297 -0.75028626 0.43688409
v -3.99316318 -0.75585263 0.42823127
v -3.99396904 -0.76102084 0.42823127
v -3.98829231 -0.79477034 0.42823127
v -3.98292552 -0.79920472 0.48690983
v -3.98394393 -0.79772919 1.01364154
v -3.99233061 -0.78978952 0.97014835
v -3.99231297 -0.78961777 0.98682361
v -3.99225980 -0.78939136 1.01364154
v -3.99403985 -0.77767311 0.82018568
v -3.99210042 -0.76101304 1.01364154
v -3.99168414 -0.75574335 1.01364154
v -3.98623766 -0.74397825 1.01364154
v -3.98245613 -0.72312585 0.85353619
v -3.98304950 -0.72312585 0.83686094
v -3.98357200 -0.72312585 0.82018568
v -3.98465240 -0.72313365 0.48690983
v -3.99216241 -0.75066881 0.57022879
v -3.99227757 -0.75037215 0.42823127
v -3.98292552 -0.79897050 0.42823127
v -3.97464506 -0.80267100 0.59446808
v -3.97561036 -0.80288179 1.01364154
v -3.98292552 -0.79872067 0.82018568
v -3.98727383 -0.79442683 1.01364154
v -3.99296827 -0.77767311 1.01364154
v -3.99244577 -0.76755526 1.01364154
v -3.97077496 -0.72312585 1.01364154
v -3.98339485 -0.72312585 0.80803738
v -3.98336827 -0.72313365 0.47481881
v -3.98327087 -0.72312585 0.80351042
v -3.98691960 -0.74203432 0.42823127
v -3.98256241 -0.72313365 0.47023458
v -3.97490190 -0.80051627 0.42823127
v -3.97387460 -0.80267100 0.59446808
v -3.96626720 -0.80217916 0.42823127
v -3.97019929 -0.80288179 1.01364154
v -3.92439562 -0.72312585 1.01364154
v -3.97128858 -0.72312585 0.73686671
v -3.97180225 -0.72313365 0.42823127
v -3.96748935 -0.80260075 0.60277706
v -3.96585098 -0.80263976 0.67005110
v -3.96590409 -0.80287398 1.01364154
v -3.94960888 -0.80149996 0.42823127
v -3.90456684 -0.73356375 1.01364154
v -3.90456684 -0.72312585 0.90499453
v -3.92831001 -0.72312585 0.73612176
v -3.92668934 -0.72313365 0.42823127
v -3.94960888 -0.80189032 0.63692981
v -3.95750853 -0.80271004 0.95347310
v -3.95736685 -0.80272565 0.97014835
v -3.95734914 -0.80274127 0.98682361
v -3.95756164 -0.80271785 1.00006066
v -3.96043991 -0.80272565 1.01364154
v -3.94158526 -0.79875971 0.42823127
v -3.90456684 -0.79723736 0.48690983
v -3.90456684 -0.79739350 0.50358508
v -3.90456684 -0.79885341 0.82018568
v -3.90456684 -0.78762699 1.01364154
v -3.90456684 -0.72312585 0.83262049
v -3.92734470 -0.72312585 0.73612176
v -3.90456684 -0.73418051 0.42823127
v -3.90456684 -0.72313365 0.50100644
v -3.94960888 -0.80190590 0.65360506
v -3.90456684 -0.79873628 0.83187554
v -3.95822588 -0.80264757 1.01364154
v -3.93294174 -0.79579307 0.42823127
v -3.90456684 -0.78532394 0.42823127
v -3.95021113 -0.80167172 1.01364154
v -3.90456684 -0.79776043 0.85353619
v -3.90456684 -0.79868165 0.83686094
v -3.95587898 -0.80238215 1.01364154
f 1 2 3
f 1 3 4
f 1 4 5
f 1 5 6
f 1 6 7
f 1 7 8
f 1 8 9
f 1 9 2
f 2 9 10
f 2 10 11
f 2 11 12
f 2 12 13
f 2 13 14
f 2 14 15
f 2 15 3
f 3 15 14
f 3 14 31
f 3 31 43
f 3 43 51
f 3 51 59
f 3 59 73
f 3 73 79
f 3 79 78
f 3 78 66
f 3 66 55
f 3 55 47
f 3 47 45
f 3 45 32
f 3 32 16
f 3 16 5
f 3 5 4
f 5 16 17
f 5 17 7
f 5 7 6
f 7 17 18
f 7 18 8
f 8 18 19
f 8 19 20
f 8 20 21
f 8 21 22
f 8 22 9
f 9 22 10
f 10 22 23
f 10 23 24
f 10 24 11
f 11 24 23
f 11 23 38
f 11 38 37
f 11 37 21
f 11 21 36
f 11 36 18
f 11 18 34
f 11 34 48
f 11 48 54
f 11 54 65
f 11 65 77
f 11 77 83
f 11 83 80
f 11 80 70
f 11 70 56
f 11 56 49
f 11 49 39
f 11 39 25
f 11 25 26
f 11 26 27
f 11 27 28
f 11 28 29
f 11 29 30
f 11 30 12
f 12 30 13
f 13 29 31
f 13 31 14
f 13 30 29
f 16 32 17
f 17 32 33
f 17 33 34
f 17 34 35
f 17 35 18
f 18 35 34
f 18 36 19
f 19 36 21
f 19 21 20
f 21 37 22
f 22 37 38
f 22 38 23
f 25 39 26
f 26 39 49
f 26 49 57
f 26 57 71
f 26 71 72
f 26 72 58
f 26 58 50
f 26 50 42
f 26 42 40
f 26 40 28
f 26 28 27
f 28 40 29
f 29 41 31
f 29 40 42
f 29 42 41
f 31 41 44
f 31 44 43
f 32 45 33
f 33 46 48
f 33 48 34
f 33 45 47
f 33 47 46
f 41 42 44
f 42 50 44
f 43 44 51
f 44 50 51
f 46 52 53
f 46 53 54
f 46 54 48
f 46 47 52
f 47 55 52
f 49 56 57
f 50 58 51
f 51 58 72
f 51 72 59
f 52 60 53
f 52 55 60
f 53 60 61
f 53 61 62
f 53 62 63
f 53 63 54
f 54 63 64
f 54 64 65
f 55 66 67
f 55 67 68
f 55 68 69
f 55 69 60
f 56 70 81
f 56 81 82
f 56 82 76
f 56 76 69
f 56 69 68
f 56 68 67
f 56 67 79
f 56 79 73
f 56 73 74
f 56 74 71
f 56 71 57
f 59 72 74
f 59 74 73
f 60 69 75
f 60 75 63
f 60 63 62
f 60 62 61
f 63 75 69
f 63 69 64
f 64 69 76
f 64 76 77
f 64 77 65
f 66 78 67
f 67 78 79
f 70 80 81
f 71 74 72
f 76 82 77
f 77 82 83
f 80 83 82
f 80 82 81

