# https://github.com/mikedh/trimesh
v -1.78680460 -0.76037441 0.07400789
v -1.73196030 -0.77703480 0.07416549
v -1.78680460 -0.77703480 0.07415238
v -1.78680460 -0.74583538 0.07861782
v -1.78197289 -0.74577625 0.07861782
v -0.92082472 -0.76037441 0.07441506
v -0.92082472 -0.77155032 0.07448068
v -0.92082472 -0.77703480 0.07452008
v -1.73196030 -0.79007337 0.07872290
v -0.92082472 -0.78981464 0.07893307
v -1.78680460 -0.79002159 0.07876230
v -1.74865940 -0.79008075 0.07873607
v -1.78197289 -0.73786000 0.08469879
v -1.78680460 -0.73786000 0.08483010
v -1.74865940 -0.73786000 0.08464622
v -1.73196030 -0.73786000 0.08463311
v -1.73111265 -0.73786000 0.08463311
v -1.73196030 -0.74574668 0.07865727
v -0.92082472 -0.74655976 0.07882798
v -0.92082472 -0.75581387 0.07585977
v -1.73196030 -0.79841093 0.08737804
v -1.04873817 -0.78994030 0.07893307
v -1.28201699 -0.79002159 0.07889367
v -1.04873817 -0.79827790 0.08739122
v -1.28201699 -0.79835919 0.08739122
v -0.92082472 -0.79815221 0.08745684
v -1.78680460 -0.79835919 0.08747001
v -1.78680460 -0.73786000 0.18262408
v -0.96541217 -0.73786000 0.08598591
v -0.94871308 -0.73786000 0.08607782
v -0.92082472 -0.74381750 0.08117893
v -1.73196030 -0.80613501 0.09570488
v -1.78680460 -0.80387323 0.09340645
v -1.34872864 -0.80623109 0.09573111
v -0.92082472 -0.80614980 0.09578368
v -0.93201398 -0.80615718 0.09578368
v -1.78680460 -0.74744671 0.20818241
v -1.06535250 -0.74476363 0.20818241
v -1.09705538 -0.73786000 0.18892834
v -0.93099676 -0.73786000 0.08624859
v -0.92082472 -0.73786000 0.08635361
v -1.78680460 -0.81163427 0.10820819
v -1.78680460 -0.81003772 0.10460953
v -1.78680460 -0.80607588 0.09580997
v -1.34872864 -0.81177470 0.10820819
v -0.93201398 -0.81169340 0.10820819
v -0.92082472 -0.81168601 0.10820819
v -1.78680460 -0.79143337 0.20818241
v -1.04873817 -0.74473405 0.20818241
v -1.03203907 -0.74474144 0.20818241
v -0.92082472 -0.74481536 0.20818241
v -0.92082472 -0.73786000 0.18701078
v -1.78680460 -0.81272820 0.12008112
v -1.54860928 -0.81324562 0.12487498
v -0.92082472 -0.81319388 0.12487498
v -0.99872561 -0.81320127 0.12487498
v -0.92082472 -0.81269864 0.11938505
v -1.59862181 -0.79126338 0.20818241
v -1.78680460 -0.80658589 0.17353555
v -1.76527373 -0.80665241 0.17371943
v -1.74865940 -0.80668198 0.17379823
v -1.53199494 -0.80702199 0.17423162
v -1.24870356 -0.80731025 0.17486206
v -0.92082472 -0.79031726 0.20818241
v -1.76527373 -0.81316430 0.12487498
v -1.78197289 -0.81315691 0.12487498
v -1.78680460 -0.81314953 0.12487498
v -1.51529584 -0.81336386 0.14152854
v -0.98202651 -0.81336386 0.14152854
v -0.92082472 -0.81333430 0.14152854
v -0.96541217 -0.81335647 0.14152854
v -1.43196988 -0.79108599 0.20818241
v -1.78680460 -0.81215167 0.15819533
v -1.76527373 -0.81225515 0.15819533
v -1.73196030 -0.81232906 0.15819533
v -1.53199494 -0.81270603 0.15819533
v -0.99872561 -0.81289824 0.15819533
v -0.98202651 -0.81289824 0.15819533
v -0.96541217 -0.81288344 0.15819533
v -0.98202651 -0.80719199 0.17448118
v -1.51529584 -0.81273559 0.15819533
v -0.92082472 -0.80711808 0.17424479
v -1.53199494 -0.81335647 0.14152854
v -1.54860928 -0.81334909 0.14152854
v -1.74865940 -0.81324562 0.14152854
v -1.76527373 -0.81322343 0.14152854
v -1.78680460 -0.81316430 0.14152854
v -0.92082472 -0.81279472 0.15819533
v -0.94871308 -0.81285388 0.15819533
v -1.78680460 -0.81245473 0.15340147
v -0.92082472 -0.80898074 0.16900443
f 1 2 3
f 1 3 11
f 1 11 27
f 1 27 33
f 1 33 44
f 1 44 43
f 1 43 42
f 1 42 53
f 1 53 67
f 1 67 87
f 1 87 90
f 1 90 73
f 1 73 59
f 1 59 48
f 1 48 37
f 1 37 28
f 1 28 14
f 1 14 4
f 1 4 5
f 1 5 6
f 1 6 7
f 1 7 8
f 1 8 2
f 2 9 3
f 2 8 10
f 2 10 9
f 3 9 12
f 3 12 11
f 4 13 5
f 4 14 13
f 5 13 15
f 5 15 16
f 5 16 17
f 5 17 18
f 5 18 19
f 5 19 20
f 5 20 6
f 6 20 19
f 6 19 31
f 6 31 41
f 6 41 52
f 6 52 51
f 6 51 64
f 6 64 82
f 6 82 91
f 6 91 88
f 6 88 70
f 6 70 55
f 6 55 57
f 6 57 47
f 6 47 35
f 6 35 26
f 6 26 10
f 6 10 8
f 6 8 7
f 9 21 12
f 9 10 22
f 9 22 23
f 9 23 24
f 9 24 25
f 9 25 21
f 10 26 24
f 10 24 22
f 11 12 21
f 11 21 27
f 13 14 28
f 13 28 39
f 13 39 52
f 13 52 41
f 13 41 40
f 13 40 30
f 13 30 29
f 13 29 17
f 13 17 16
f 13 16 15
f 17 29 19
f 17 19 18
f 19 29 30
f 19 30 31
f 21 32 33
f 21 33 27
f 21 25 34
f 21 34 32
f 22 24 23
f 24 26 35
f 24 35 36
f 24 36 25
f 25 36 34
f 28 37 38
f 28 38 39
f 30 40 31
f 31 40 41
f 32 42 43
f 32 43 44
f 32 44 33
f 32 34 45
f 32 45 42
f 34 36 46
f 34 46 45
f 35 47 46
f 35 46 36
f 37 48 58
f 37 58 72
f 37 72 64
f 37 64 51
f 37 51 50
f 37 50 49
f 37 49 38
f 38 49 39
f 39 49 50
f 39 50 51
f 39 51 52
f 42 45 53
f 45 54 53
f 45 46 55
f 45 55 56
f 45 56 54
f 46 47 57
f 46 57 55
f 48 59 60
f 48 60 61
f 48 61 62
f 48 62 63
f 48 63 58
f 53 65 66
f 53 66 67
f 53 54 65
f 54 68 65
f 54 56 69
f 54 69 68
f 55 70 71
f 55 71 69
f 55 69 56
f 58 63 72
f 59 73 60
f 60 73 74
f 60 74 61
f 61 74 62
f 62 74 75
f 62 75 76
f 62 76 63
f 63 77 78
f 63 78 79
f 63 79 80
f 63 80 72
f 63 76 81
f 63 81 77
f 64 80 82
f 64 72 80
f 65 68 83
f 65 83 66
f 66 83 84
f 66 84 85
f 66 85 86
f 66 86 67
f 67 86 87
f 68 81 83
f 68 69 78
f 68 78 77
f 68 77 81
f 69 71 78
f 70 88 89
f 70 89 79
f 70 79 78
f 70 78 71
f 73 90 74
f 74 90 87
f 74 87 86
f 74 86 75
f 75 86 76
f 76 86 81
f 79 89 80
f 80 89 88
f 80 88 91
f 80 91 82
f 81 86 85
f 81 85 84
f 81 84 83

