# https://github.com/mikedh/trimesh
v 0.59077187 -0.73409042 1.52088935
v 0.54075757 -0.70980473 1.55355737
v 0.55743610 -0.70980473 1.55348489
v 0.58955462 -0.70980473 1.55368623
v 0.59077187 -0.70980473 1.55369428
v 0.59077187 -0.73409280 1.60269631
v 0.59004582 -0.73409280 1.52092958
v 0.54075757 -0.73409280 1.52295926
v 0.37260520 -0.70980473 1.55486212
v 0.57531060 -0.70980473 1.59975652
v 0.59077187 -0.70980712 1.59978871
v 0.59077187 -0.73409280 1.60299433
v 0.52410032 -0.73409280 1.52370831
v 0.37260520 -0.73409280 1.53127930
v 0.37260520 -0.70980473 1.59975652
v 0.39077862 -0.70980473 1.59978066
v 0.37260520 -0.73409280 1.60316343
v 0.45021072 -0.73409280 1.60316343
v 0.45745018 -0.73409280 1.60315538
v 0.37412143 -0.70980473 1.59976457
f 1 2 3
f 1 3 4
f 1 4 5
f 1 5 11
f 1 11 12
f 1 12 6
f 1 6 7
f 1 7 8
f 1 8 9
f 1 9 2
f 2 9 15
f 2 15 20
f 2 20 16
f 2 16 10
f 2 10 5
f 2 5 4
f 2 4 3
f 5 10 11
f 6 12 19
f 6 19 18
f 6 18 17
f 6 17 14
f 6 14 13
f 6 13 8
f 6 8 7
f 8 13 9
f 9 14 17
f 9 17 15
f 9 13 14
f 10 16 11
f 11 16 17
f 11 17 18
f 11 18 19
f 11 19 12
f 15 17 20
f 16 20 17

