# https://github.com/mikedh/trimesh
v -2.07985966 -0.24439394 0.50761683
v -2.07985966 -0.24439394 0.56778945
v -2.07985966 -0.26099489 0.50767712
v -2.44155915 -0.24439394 0.50982377
v -2.11469838 -0.24439394 0.56811507
v -2.08067399 -0.61468908 0.56880247
v -2.07985966 -0.45977117 0.56753619
v -2.07985966 -0.41304932 0.50985995
v -2.08067399 -0.56097164 0.51143376
v -2.44145293 -0.61468908 0.51209708
v -2.44155915 -0.24439394 0.56916427
v -2.44155915 -0.45969868 0.51193427
v -2.11632703 -0.24439394 0.56812711
v -2.44145293 -0.61099195 0.56878438
v -2.44145293 -0.61468908 0.56877836
v -2.08067399 -0.61468908 0.51222368
v -2.13300287 -0.24439394 0.56823566
v -2.14967872 -0.24439394 0.56831407
v -2.43288488 -0.26103113 0.56920045
v -2.44155915 -0.26103113 0.56921854
v -2.44155915 -0.26973032 0.56921854
v -2.07985966 -0.45977117 0.51064990
v -2.44155915 -0.45977117 0.51227795
v -2.44155915 -0.25305689 0.56920045
v -2.43288488 -0.24439394 0.56915825
v -2.44155915 -0.27774080 0.56920647
v -2.44155915 -0.45977117 0.56872409
f 1 2 7
f 1 7 22
f 1 22 8
f 1 8 3
f 1 3 4
f 1 4 11
f 1 11 25
f 1 25 18
f 1 18 17
f 1 17 13
f 1 13 5
f 1 5 2
f 2 5 6
f 2 6 7
f 3 8 9
f 3 9 10
f 3 10 4
f 4 10 12
f 4 12 23
f 4 23 27
f 4 27 26
f 4 26 21
f 4 21 20
f 4 20 24
f 4 24 11
f 5 13 6
f 6 14 15
f 6 15 10
f 6 10 16
f 6 16 22
f 6 22 7
f 6 13 17
f 6 17 18
f 6 18 19
f 6 19 20
f 6 20 21
f 6 21 14
f 8 22 16
f 8 16 9
f 9 16 10
f 10 15 27
f 10 27 23
f 10 23 12
f 11 24 25
f 14 21 26
f 14 26 15
f 15 26 27
f 18 25 19
f 19 25 24
f 19 24 20

