# https://github.com/mikedh/trimesh
v -0.03001829 -0.73596259 0.74806216
v -0.05937239 -0.73682546 0.74806216
v -0.03001829 -0.80821755 0.74806216
v -0.03001543 -0.75150845 0.69119596
v -0.03001829 -0.73712251 0.72118182
v -0.05937239 -0.80765882 0.74806216
v -0.05937239 -0.73831780 0.72486596
v -0.03001829 -0.80142775 0.71623057
v -0.03001543 -0.78943947 0.67324403
v -0.03001543 -0.78996285 0.67862008
v -0.03001543 -0.79005480 0.69119596
v -0.03001543 -0.75343224 0.67324403
v -0.03001829 -0.74165613 0.70398428
v -0.05937239 -0.80593307 0.74205620
v -0.05937239 -0.74538345 0.71162357
v -0.03283469 -0.77703390 0.67324403
v -0.05937239 -0.79844306 0.72486596
v -0.05937239 -0.79327997 0.71625254
v -0.05937239 -0.79038015 0.71153565
v -0.05937239 -0.77702684 0.70629144
v -0.03209327 -0.76037763 0.67324403
v -0.05937239 -0.75068092 0.70974854
v -0.05937239 -0.76037763 0.70637933
f 1 2 6
f 1 6 3
f 1 3 11
f 1 11 4
f 1 4 5
f 1 5 2
f 2 5 7
f 2 7 15
f 2 15 22
f 2 22 23
f 2 23 20
f 2 20 19
f 2 19 18
f 2 18 17
f 2 17 14
f 2 14 6
f 3 8 9
f 3 9 10
f 3 10 11
f 3 6 8
f 4 11 10
f 4 10 9
f 4 9 12
f 4 12 5
f 5 12 13
f 5 13 7
f 6 14 9
f 6 9 8
f 7 13 12
f 7 12 15
f 9 16 21
f 9 21 12
f 9 14 17
f 9 17 18
f 9 18 19
f 9 19 20
f 9 20 16
f 12 21 15
f 15 21 22
f 16 20 23
f 16 23 21
f 21 23 22

