# https://github.com/mikedh/trimesh
v -2.09931814 2.02251769 0.73716827
v -2.09931814 2.02980840 0.73653920
v -2.17022285 2.02299318 0.73139400
v -2.17022285 2.01625189 0.73107477
v -2.17022285 2.00631962 0.73057716
v -2.17022285 1.93959367 0.72702808
v -2.10927090 1.93961480 0.72728159
v -2.09931814 1.96556555 0.72787308
v -2.17022285 2.03665536 0.72437097
v -2.17022285 2.03113976 0.72721586
v -2.09931814 2.04175885 0.72841766
v -2.17022285 1.93959367 0.68067424
v -2.11346995 1.93959367 0.72720647
v -2.10927090 1.93959367 0.69225098
v -2.09931814 1.96556555 0.65578383
v -2.17022285 2.03983581 0.71518847
v -2.09931814 2.04720048 0.71239991
v -2.17022285 2.04199132 0.70896353
v -2.10927090 1.93961480 0.67886216
v -2.11344913 1.93959367 0.68044892
v -2.17022285 1.96974979 0.65300466
v -2.09931814 1.96913695 0.65256338
v -2.09931814 2.04753859 0.70896353
v -2.17022285 2.04197019 0.67563231
v -2.17022285 1.97809713 0.65007529
v -2.09931814 1.97040489 0.65205637
v -2.09931814 2.04749634 0.69617559
v -2.17022285 2.03912786 0.65895734
v -2.09931814 2.04730615 0.67935978
v -2.09931814 2.04726388 0.67563231
v -2.09931814 2.04537252 0.65895734
v -2.17022285 1.98964605 0.64905187
v -2.09931814 2.02283469 0.64124957
v -2.09931814 1.97747372 0.64995323
v -2.09931814 2.03899050 0.64525869
v -2.09931814 2.03829312 0.64396301
v -2.17022285 2.03378133 0.64903309
v -2.17022285 2.00631962 0.64823503
v -2.17022285 2.01303976 0.64799091
v -2.17022285 2.02299318 0.64766229
v -2.09931814 2.02509586 0.64155940
f 1 2 3
f 1 3 4
f 1 4 5
f 1 5 6
f 1 6 7
f 1 7 8
f 1 8 15
f 1 15 22
f 1 22 26
f 1 26 34
f 1 34 33
f 1 33 41
f 1 41 36
f 1 36 35
f 1 35 31
f 1 31 30
f 1 30 29
f 1 29 27
f 1 27 23
f 1 23 17
f 1 17 11
f 1 11 2
f 2 9 10
f 2 10 3
f 2 11 9
f 3 10 9
f 3 9 16
f 3 16 18
f 3 18 24
f 3 24 28
f 3 28 37
f 3 37 40
f 3 40 39
f 3 39 38
f 3 38 32
f 3 32 25
f 3 25 21
f 3 21 12
f 3 12 6
f 3 6 5
f 3 5 4
f 6 12 20
f 6 20 14
f 6 14 13
f 6 13 7
f 7 13 14
f 7 14 8
f 8 14 15
f 9 11 16
f 11 17 18
f 11 18 16
f 12 19 20
f 12 21 19
f 14 20 19
f 14 19 15
f 15 19 22
f 17 23 18
f 18 23 24
f 19 21 22
f 21 25 26
f 21 26 22
f 23 27 24
f 24 27 29
f 24 29 30
f 24 30 31
f 24 31 28
f 25 32 33
f 25 33 34
f 25 34 26
f 28 31 35
f 28 35 36
f 28 36 37
f 32 38 33
f 33 38 39
f 33 39 40
f 33 40 37
f 33 37 41
f 36 41 37

