# https://github.com/mikedh/trimesh
v -2.90650166 1.81318592 0.72401342
v -2.88055604 1.93960425 0.72447868
v -2.90650166 1.93960425 0.72435430
v -2.90650166 1.81318592 0.68337865
v -2.21353760 1.81318592 0.72709983
v -2.88055604 1.93966615 0.72447868
v -2.90650166 1.93966615 0.72435430
v -2.90650166 1.93966615 0.68131029
v -2.76380079 1.93966615 0.68085883
v -2.74715235 1.81318592 0.68301472
v -2.20654668 1.81318592 0.72711367
v -2.19688920 1.87290994 0.72713209
v -2.21353760 1.87290994 0.72707681
v -2.86390762 1.93966615 0.72454318
v -2.34694130 1.93966615 0.68010336
v -2.73050392 1.81318592 0.68298707
v -2.19688920 1.81318592 0.72713209
v -2.21353760 1.93966615 0.72700771
v -2.23025811 1.93966615 0.72696164
v -2.18016864 1.87290994 0.72715052
v -2.17022285 1.88283919 0.72715052
v -2.18016864 1.88957423 0.72713209
v -2.19688920 1.93966615 0.72703536
v -2.18009659 1.93966615 0.68052717
v -2.17022285 1.81318592 0.68232834
v -2.64711762 1.81318592 0.68286269
v -2.17317778 1.81318592 0.72714131
v -2.17022285 1.87290994 0.72715971
v -2.17022285 1.88957423 0.72714131
v -2.17022285 1.89951586 0.72712288
v -2.17022285 1.93966615 0.72703073
v -2.17022285 1.93966615 0.68063312
v -2.17022285 1.81318592 0.72714131
f 1 2 3
f 1 3 7
f 1 7 8
f 1 8 4
f 1 4 10
f 1 10 16
f 1 16 26
f 1 26 25
f 1 25 33
f 1 33 27
f 1 27 17
f 1 17 11
f 1 11 5
f 1 5 2
f 2 6 7
f 2 7 3
f 2 5 6
f 4 8 9
f 4 9 10
f 5 11 12
f 5 12 13
f 5 13 14
f 5 14 6
f 6 14 19
f 6 19 18
f 6 18 23
f 6 23 31
f 6 31 32
f 6 32 24
f 6 24 15
f 6 15 9
f 6 9 8
f 6 8 7
f 9 15 10
f 10 15 16
f 11 17 12
f 12 18 19
f 12 19 13
f 12 17 20
f 12 20 21
f 12 21 22
f 12 22 23
f 12 23 18
f 13 19 14
f 15 24 25
f 15 25 26
f 15 26 16
f 17 27 28
f 17 28 20
f 20 28 21
f 21 28 33
f 21 33 25
f 21 25 32
f 21 32 31
f 21 31 30
f 21 30 29
f 21 29 22
f 22 29 23
f 23 29 30
f 23 30 31
f 24 32 25
f 27 33 28

