# https://github.com/mikedh/trimesh
v -2.11132447 2.04378525 1.70959826
v -2.11132447 2.04364130 1.74293938
v -2.11132447 2.04277760 1.70628328
v -2.40794847 2.04296954 1.70959826
v -2.40794847 2.04282558 1.74293938
v -2.11132447 2.04057035 1.75962738
v -2.11132447 2.03701960 1.69129195
v -2.26355622 2.03764338 1.69292774
v -2.34688738 2.03754741 1.69292774
v -2.40794847 2.03740347 1.69292774
v -2.40794847 2.04052238 1.75392841
v -2.40794847 2.03932280 1.75961867
v -2.11132447 2.03457246 1.77041626
v -2.11132447 2.03011001 1.68461851
v -2.11977374 2.03130958 1.68456632
v -2.12659701 2.03145355 1.68451414
v -2.13016833 2.03150153 1.68448801
v -2.14683456 2.03164546 1.68442712
v -2.23022375 2.03174142 1.68436622
v -2.24688999 2.03174142 1.68437493
v -2.36358260 2.03159748 1.68445324
v -2.40794847 2.03150153 1.68448801
v -2.40794847 2.03553212 1.76601365
v -2.40794847 2.03356480 1.76931993
v -2.11132447 2.02291250 1.77219118
v -2.11132447 2.02382419 1.68330473
v -2.34688738 2.03159748 1.68443583
v -2.40794847 2.02291250 1.68447060
v -2.40794847 2.02291250 1.77050327
v -2.40794847 1.57278102 1.77018133
v -2.11132447 1.57263707 1.77167785
v -2.11132447 1.58967114 1.68472294
v -2.23022375 1.62277964 1.68477513
v -2.40794847 1.58943124 1.68516667
v -2.40794847 1.56615932 1.76945048
v -2.40794847 1.56280049 1.76905894
v -2.11132447 1.56169687 1.77022481
v -2.11132447 1.58540063 1.68484473
v -2.24688999 1.58943124 1.68492304
v -2.29688868 1.57278102 1.68550603
v -2.36358260 1.57278102 1.68570613
v -2.40794847 1.58376920 1.68541031
v -2.40794847 1.55958561 1.76282922
v -2.11132447 1.55713846 1.76156763
v -2.11132447 1.57278102 1.68551468
v -2.14683456 1.57278102 1.68533200
v -2.11132447 1.57018992 1.68655882
v -2.34688738 1.55934569 1.69373689
v -2.38024883 1.57278102 1.68577573
v -2.38024883 1.55939366 1.69384126
v -2.39694411 1.57278102 1.68588887
v -2.40794847 1.57278102 1.68597582
v -2.40794847 1.55795418 1.75961867
v -2.11132447 1.55651468 1.75962738
v -2.11132447 1.55867394 1.69358898
v -2.40794847 1.56817462 1.68871658
v -2.11132447 1.55358769 1.70959826
v -2.40794847 1.55454737 1.70959826
v -2.40794847 1.55944167 1.69403271
v -2.40794847 1.55473929 1.74293938
v -2.11132447 1.55392358 1.74548869
v -2.11132447 1.55358769 1.71199095
v -2.11132447 1.55363567 1.74293938
f 1 2 6
f 1 6 13
f 1 13 25
f 1 25 31
f 1 31 37
f 1 37 44
f 1 44 54
f 1 54 61
f 1 61 63
f 1 63 62
f 1 62 57
f 1 57 55
f 1 55 47
f 1 47 45
f 1 45 38
f 1 38 32
f 1 32 26
f 1 26 14
f 1 14 7
f 1 7 3
f 1 3 4
f 1 4 5
f 1 5 2
f 2 5 6
f 3 7 8
f 3 8 9
f 3 9 10
f 3 10 4
f 4 10 22
f 4 22 28
f 4 28 34
f 4 34 42
f 4 42 52
f 4 52 56
f 4 56 59
f 4 59 58
f 4 58 60
f 4 60 53
f 4 53 43
f 4 43 36
f 4 36 35
f 4 35 30
f 4 30 29
f 4 29 24
f 4 24 23
f 4 23 12
f 4 12 11
f 4 11 5
f 5 11 6
f 6 11 12
f 6 12 13
f 7 10 9
f 7 9 8
f 7 14 15
f 7 15 16
f 7 16 17
f 7 17 18
f 7 18 19
f 7 19 20
f 7 20 21
f 7 21 10
f 10 21 22
f 12 23 13
f 13 23 24
f 13 24 25
f 14 26 15
f 15 26 16
f 16 26 17
f 17 26 18
f 18 26 19
f 19 26 20
f 20 26 27
f 20 27 21
f 21 27 22
f 22 27 26
f 22 26 28
f 24 29 25
f 25 29 30
f 25 30 31
f 26 32 33
f 26 33 34
f 26 34 28
f 30 35 31
f 31 35 36
f 31 36 37
f 32 38 39
f 32 39 33
f 33 39 34
f 34 39 40
f 34 40 41
f 34 41 42
f 36 43 44
f 36 44 37
f 38 45 46
f 38 46 40
f 38 40 39
f 40 47 48
f 40 48 41
f 40 46 47
f 41 49 42
f 41 48 50
f 41 50 49
f 42 49 51
f 42 51 52
f 43 53 44
f 44 53 54
f 45 47 46
f 47 55 48
f 48 55 50
f 49 50 56
f 49 56 51
f 50 55 57
f 50 57 58
f 50 58 59
f 50 59 56
f 51 56 52
f 53 60 54
f 54 60 61
f 57 62 58
f 58 62 63
f 58 63 60
f 60 63 61

