# https://github.com/mikedh/trimesh
v -2.90650166 1.76367388 1.22753629
v -2.90650166 1.76367388 1.18019613
v -2.89726376 1.76367388 1.22754613
v -2.90650166 1.93960038 1.22772329
v -2.90650166 1.93972101 1.17845902
v -2.87141318 1.76367388 1.18002882
v -2.88057346 1.76367388 1.22755105
v -2.84719281 1.93972101 1.22776757
v -2.90650166 1.93972101 1.22772329
v -2.76397407 1.93972100 1.17779959
v -2.83050248 1.76367388 1.17984674
v -2.11343959 1.76367388 1.22757565
v -2.24688456 1.93960038 1.22775773
v -2.24680691 1.93972100 1.22775773
v -2.74728374 1.93972100 1.17773071
v -2.82134220 1.76367388 1.17980737
v -2.11343959 1.76367388 1.20581493
v -2.11343959 1.93961761 1.22772329
v -2.11343959 1.93972100 1.22772329
v -2.73059341 1.93972100 1.17766673
v -2.80465187 1.76367388 1.17974339
v -2.11343959 1.77285880 1.17919225
v -2.11351719 1.76367388 1.17918733
v -2.11343959 1.93972100 1.17848854
v -2.79719945 1.76367388 1.17971879
v -2.71390310 1.93972100 1.17761260
v -2.11343959 1.93960038 1.17816376
v -2.55452992 1.76367388 1.17940878
v -2.53038717 1.93972100 1.17749942
v -2.51361922 1.93972100 1.17749450
v -2.11351719 1.93972100 1.17812931
v -2.78050912 1.76367388 1.17966467
v -2.57122024 1.76367388 1.17942354
v -2.69713515 1.76367388 1.17954656
v -2.74712848 1.76367388 1.17960561
v -2.75465854 1.76367388 1.17961546
v -2.76381882 1.76367388 1.17963022
f 1 2 6
f 1 6 11
f 1 11 16
f 1 16 21
f 1 21 25
f 1 25 32
f 1 32 37
f 1 37 36
f 1 36 35
f 1 35 34
f 1 34 33
f 1 33 28
f 1 28 23
f 1 23 17
f 1 17 12
f 1 12 7
f 1 7 3
f 1 3 4
f 1 4 9
f 1 9 5
f 1 5 2
f 2 5 6
f 3 7 8
f 3 8 4
f 4 8 9
f 5 9 8
f 5 8 14
f 5 14 19
f 5 19 24
f 5 24 31
f 5 31 30
f 5 30 29
f 5 29 26
f 5 26 20
f 5 20 15
f 5 15 10
f 5 10 6
f 6 10 11
f 7 12 8
f 8 12 13
f 8 13 14
f 10 15 16
f 10 16 11
f 12 17 22
f 12 22 27
f 12 27 24
f 12 24 19
f 12 19 18
f 12 18 13
f 13 18 14
f 14 18 19
f 15 20 21
f 15 21 16
f 17 23 22
f 20 25 21
f 20 26 32
f 20 32 25
f 22 23 27
f 23 28 29
f 23 29 30
f 23 30 31
f 23 31 27
f 24 27 31
f 26 29 28
f 26 28 33
f 26 33 34
f 26 34 35
f 26 35 36
f 26 36 37
f 26 37 32

