# https://github.com/mikedh/trimesh
v -2.11132173 1.57257472 1.77167767
v -2.09326538 1.55638395 1.78087037
v -2.09359955 1.56980316 1.78087037
v -2.11132173 1.62613195 1.77002203
v -2.11132173 1.56161803 1.77023041
v -2.08504477 1.53944542 1.78087037
v -2.07969811 1.58859605 1.78087037
v -2.06321235 1.60600315 1.78087037
v -2.04677114 1.61181547 1.78087037
v -2.04676005 1.62614194 1.77327534
v -2.09836704 1.62614194 1.77005674
v -2.11132173 1.62613195 1.68474041
v -2.11132173 1.55709180 1.76155868
v -2.07617814 1.52912679 1.78087037
v -2.03001807 1.61081849 1.78087037
v -2.01340981 1.60798712 1.78087037
v -2.04468817 1.62614194 1.77299753
v -2.09836704 1.62614194 1.68474041
v -2.05014631 1.62614194 1.68086188
v -2.04677114 1.60959224 1.66259219
v -2.05019086 1.60843574 1.66259219
v -2.06088431 1.60375996 1.66259219
v -2.07703584 1.58574472 1.66259219
v -2.08354104 1.57589464 1.66259219
v -2.08457695 1.57271431 1.66259219
v -2.08698300 1.56088028 1.66259219
v -2.08755108 1.55604498 1.66259219
v -2.11132173 1.58961295 1.68472884
v -2.11132173 1.55643379 1.75961366
v -2.06341286 1.52667425 1.78087037
v -2.11132173 1.55387158 1.74548880
v -2.11132173 1.55364228 1.74294170
v -2.07643435 1.52865821 1.66259219
v -2.07623384 1.52872800 1.69293746
v -2.06341286 1.52593647 1.69293746
v -2.06341286 1.52602620 1.70960936
v -2.00499985 1.60378986 1.78087037
v -2.03554307 1.62614194 1.77047357
v -2.04676005 1.62614194 1.68085031
v -2.03419523 1.60992124 1.66259219
v -2.08437643 1.53956506 1.66259219
v -2.11132173 1.57273426 1.68552768
v -2.11132173 1.58534592 1.68484461
v -2.04677114 1.52560746 1.78087037
v -2.11132173 1.55354258 1.70960936
v -2.07799380 1.53073191 1.66259219
v -2.06341286 1.52581684 1.66259219
v -2.11132173 1.55863711 1.69358582
v -2.04677114 1.52515884 1.70960936
v -2.04677114 1.52522863 1.72626974
v -2.03008493 1.52467032 1.78087037
v -2.04218186 1.52534827 1.78087037
v -2.00184751 1.60219471 1.78087037
v -2.03448485 1.62614194 1.76852849
v -2.03660122 1.62614194 1.68280690
v -2.01642850 1.60862517 1.66259219
v -2.03007378 1.60973180 1.66259219
v -2.11132173 1.57014213 1.68655810
v -2.04677114 1.52499933 1.66259219
v -2.03008493 1.52436127 1.70960936
v -2.03008493 1.52448091 1.74294170
v -2.03008493 1.52454073 1.75960209
v -2.01340981 1.52487970 1.78087037
v -2.01340981 1.52473014 1.75960209
v -1.99836099 1.58938366 1.78087037
v -1.99804913 1.58938366 1.75960209
v -1.99783746 1.58938366 1.74294170
v -2.00163590 1.60239412 1.75960209
v -2.02736702 1.62614194 1.74294170
v -2.02930518 1.62614194 1.75622138
v -2.03002923 1.62614194 1.75960209
v -2.00175840 1.60224455 1.66259219
v -2.01340981 1.60801703 1.66259219
v -2.03146616 1.62614194 1.69293746
v -2.04376361 1.52485975 1.66259219
v -2.03008493 1.52429149 1.66259219
v -2.01340981 1.52467032 1.74294170
v -2.00225969 1.52828933 1.78087037
v -2.00218168 1.52819960 1.75960209
v -1.99824964 1.58479759 1.78087037
v -1.99803798 1.57271431 1.78087037
v -2.00150224 1.60253369 1.74294170
v -1.99798227 1.56814820 1.78087037
v -1.99787092 1.55604498 1.78087037
v -1.99761470 1.57271431 1.72626974
v -1.99773726 1.58938366 1.72626974
v -2.00145769 1.60259350 1.72626974
v -2.02736702 1.62614194 1.73953785
v -2.02790170 1.62614194 1.70960936
v -2.02752298 1.62614194 1.72287747
v -2.00149109 1.60256360 1.70960936
v -1.99813823 1.58938366 1.66259219
v -2.01340981 1.52464041 1.66259219
v -2.01340981 1.52464041 1.69293746
v -2.00213712 1.52816968 1.74294170
v -1.99860606 1.53938560 1.78087037
v -1.99848356 1.53938560 1.75960209
v -1.99840560 1.53938560 1.74294170
v -1.99754784 1.55604498 1.72626974
v -1.99752560 1.55604498 1.70960936
v -1.99761470 1.57271431 1.70960936
v -1.99779291 1.58938366 1.70960936
v -1.99779291 1.57271431 1.66259219
v -2.00213712 1.52816968 1.66259219
v -1.99834990 1.53938560 1.70960936
v -1.99837215 1.53938560 1.66259219
v -1.99764810 1.55604498 1.66259219
v -1.99775951 1.56972340 1.66259219
f 1 2 3
f 1 3 4
f 1 4 12
f 1 12 28
f 1 28 43
f 1 43 42
f 1 42 58
f 1 58 48
f 1 48 45
f 1 45 32
f 1 32 31
f 1 31 29
f 1 29 13
f 1 13 5
f 1 5 2
f 2 5 6
f 2 6 14
f 2 14 30
f 2 30 44
f 2 44 52
f 2 52 51
f 2 51 63
f 2 63 78
f 2 78 96
f 2 96 84
f 2 84 83
f 2 83 81
f 2 81 80
f 2 80 65
f 2 65 53
f 2 53 37
f 2 37 16
f 2 16 15
f 2 15 9
f 2 9 8
f 2 8 7
f 2 7 3
f 3 7 4
f 4 7 8
f 4 8 9
f 4 9 10
f 4 10 11
f 4 11 18
f 4 18 12
f 5 13 14
f 5 14 6
f 9 15 10
f 10 15 16
f 10 16 17
f 10 17 38
f 10 38 54
f 10 54 71
f 10 71 70
f 10 70 69
f 10 69 88
f 10 88 90
f 10 90 89
f 10 89 74
f 10 74 55
f 10 55 39
f 10 39 19
f 10 19 18
f 10 18 11
f 12 18 19
f 12 19 20
f 12 20 21
f 12 21 22
f 12 22 23
f 12 23 24
f 12 24 25
f 12 25 26
f 12 26 27
f 12 27 28
f 13 29 14
f 14 29 31
f 14 31 32
f 14 32 33
f 14 33 34
f 14 34 35
f 14 35 36
f 14 36 30
f 16 37 38
f 16 38 17
f 19 39 40
f 19 40 20
f 20 40 57
f 20 57 56
f 20 56 73
f 20 73 72
f 20 72 92
f 20 92 103
f 20 103 108
f 20 108 107
f 20 107 106
f 20 106 104
f 20 104 93
f 20 93 76
f 20 76 75
f 20 75 59
f 20 59 47
f 20 47 33
f 20 33 46
f 20 46 41
f 20 41 27
f 20 27 26
f 20 26 25
f 20 25 24
f 20 24 23
f 20 23 22
f 20 22 21
f 27 41 42
f 27 42 43
f 27 43 28
f 30 36 44
f 32 45 33
f 33 47 34
f 33 45 48
f 33 48 46
f 34 47 35
f 35 49 50
f 35 50 36
f 35 47 49
f 36 50 51
f 36 51 52
f 36 52 44
f 37 53 38
f 38 53 54
f 39 55 56
f 39 56 57
f 39 57 40
f 41 46 48
f 41 48 58
f 41 58 42
f 47 59 49
f 49 59 60
f 49 60 61
f 49 61 62
f 49 62 50
f 50 62 51
f 51 62 64
f 51 64 63
f 53 65 66
f 53 66 67
f 53 67 68
f 53 68 69
f 53 69 70
f 53 70 71
f 53 71 54
f 55 72 73
f 55 73 56
f 55 74 72
f 59 75 60
f 60 75 76
f 60 76 77
f 60 77 61
f 61 77 64
f 61 64 62
f 63 64 78
f 64 77 79
f 64 79 78
f 65 80 66
f 66 80 81
f 66 81 67
f 67 82 68
f 67 81 83
f 67 83 84
f 67 84 85
f 67 85 86
f 67 86 82
f 68 82 69
f 69 82 87
f 69 87 88
f 72 74 89
f 72 89 90
f 72 90 91
f 72 91 92
f 76 93 94
f 76 94 77
f 77 95 79
f 77 94 95
f 78 79 97
f 78 97 96
f 79 95 98
f 79 98 97
f 82 86 87
f 84 96 99
f 84 99 85
f 85 99 100
f 85 100 101
f 85 101 86
f 86 101 102
f 86 102 91
f 86 91 87
f 87 91 88
f 88 91 90
f 91 102 92
f 92 102 103
f 93 104 95
f 93 95 94
f 95 104 105
f 95 105 98
f 96 97 99
f 97 98 99
f 98 105 99
f 99 105 100
f 100 105 106
f 100 106 107
f 100 107 101
f 101 107 108
f 101 108 102
f 102 108 103
f 104 106 105

