# https://github.com/mikedh/trimesh
v -0.17674156 0.05683926 0.01293029
v -0.17538901 0.05173257 0.00865057
v -0.17569606 0.05288452 0.01702312
v -0.17674156 0.05683926 0.01702312
v -0.17642944 0.06315394 0.01293029
v -0.17662483 0.05918239 0.00865057
v -0.17673902 0.05683926 0.00865057
v -0.17538901 0.05173257 0.01702312
v -0.16928348 0.03551283 0.00864976
v -0.16931647 0.03551283 0.01121054
v -0.16931647 0.03551283 0.01702394
v -0.17184140 0.04516284 0.01702394
v -0.17637868 0.06414333 0.01702312
v -0.17637868 0.06414333 0.01293029
v -0.17636852 0.06414333 0.00865057
v -0.17175767 0.04516284 0.00864976
v -0.15081718 0.03551283 0.00864976
v -0.15371515 0.03551283 0.01702394
v -0.15509308 0.04516284 0.01702394
v -0.16267550 0.06414333 0.01702312
v -0.16351546 0.06414333 0.00865057
v -0.15152771 0.04516284 0.00864976
v -0.15085778 0.03940030 0.00864976
v -0.15373291 0.03935265 0.01702394
v -0.15578585 0.04836362 0.01702312
v -0.15912029 0.06414333 0.00865303
v -0.15392324 0.05557800 0.00865057
v -0.15420491 0.05611334 0.00865057
v -0.15750890 0.06025306 0.00865057
v -0.15185760 0.04810296 0.00865057
v -0.15184746 0.04805532 0.00865057
f 1 2 3
f 1 3 4
f 1 4 5
f 1 5 6
f 1 6 7
f 1 7 2
f 2 8 3
f 2 7 9
f 2 9 10
f 2 10 11
f 2 11 8
f 3 8 11
f 3 11 4
f 4 11 12
f 4 12 13
f 4 13 5
f 5 13 14
f 5 14 6
f 6 14 15
f 6 15 16
f 6 16 7
f 7 16 9
f 9 16 22
f 9 22 23
f 9 23 17
f 9 17 18
f 9 18 11
f 9 11 10
f 11 18 24
f 11 24 19
f 11 19 12
f 12 19 20
f 12 20 13
f 13 20 26
f 13 26 21
f 13 21 15
f 13 15 14
f 15 21 22
f 15 22 16
f 17 23 24
f 17 24 18
f 19 24 25
f 19 25 20
f 20 25 27
f 20 27 28
f 20 28 26
f 21 26 29
f 21 29 22
f 22 29 28
f 22 28 27
f 22 27 30
f 22 30 31
f 22 31 23
f 23 31 24
f 24 31 30
f 24 30 25
f 25 30 27
f 26 28 29

