# https://github.com/mikedh/trimesh
v -0.17497333 0.07457875 0.08838177
v -0.17490215 0.08760832 0.08838177
v -0.16385979 0.07457875 0.08838177
v -0.17529531 0.07457875 0.11998741
v -0.17525635 0.08307630 0.11998741
v -0.17477674 0.09029176 0.08838177
v -0.17507331 0.08965478 0.11998741
v -0.15798441 0.08798779 0.08838177
v -0.15798272 0.08799050 0.09375559
v -0.15798441 0.08799592 0.11124141
v -0.16386148 0.07457875 0.09375559
v -0.17522584 0.07457875 0.11998741
v -0.17469710 0.09197772 0.08838177
v -0.17479031 0.09402688 0.11998741
v -0.15798441 0.10226150 0.08838177
v -0.15798441 0.10226692 0.11618830
v -0.15798441 0.10226692 0.11998741
v -0.15799289 0.08799864 0.11998741
v -0.16386995 0.07458147 0.11998741
v -0.16386486 0.07457875 0.10250159
v -0.16387165 0.07457875 0.11973991
v -0.17032489 0.09865106 0.08838177
v -0.17041810 0.09866462 0.11998741
v -0.16178214 0.10212598 0.08838177
v -0.16178214 0.10213953 0.11998741
v -0.16386826 0.07457875 0.11124141
v -0.16507654 0.10078697 0.08838177
f 1 2 6
f 1 6 13
f 1 13 22
f 1 22 27
f 1 27 24
f 1 24 15
f 1 15 8
f 1 8 3
f 1 3 11
f 1 11 20
f 1 20 26
f 1 26 21
f 1 21 12
f 1 12 4
f 1 4 5
f 1 5 2
f 2 5 7
f 2 7 6
f 3 8 9
f 3 9 10
f 3 10 11
f 4 12 19
f 4 19 18
f 4 18 17
f 4 17 25
f 4 25 23
f 4 23 14
f 4 14 7
f 4 7 5
f 6 7 13
f 7 14 13
f 8 15 9
f 9 15 16
f 9 16 17
f 9 17 10
f 10 17 18
f 10 18 19
f 10 19 11
f 11 19 20
f 12 21 19
f 13 14 22
f 14 23 22
f 15 24 25
f 15 25 16
f 16 25 17
f 19 21 26
f 19 26 20
f 22 23 27
f 23 25 24
f 23 24 27

