# https://github.com/mikedh/trimesh
v -0.15415530 -0.03935525 0.08500874
v -0.15502292 -0.04362659 0.08093659
v -0.15415530 -0.03935525 0.08093659
v -0.15416636 -0.03935525 0.11124269
v -0.15477282 -0.04233695 0.11450961
v -0.15578875 -0.04733827 0.11450961
v -0.15578211 -0.04735324 0.08093659
v -0.15578211 -0.04735137 0.08501202
v -0.16959776 -0.03935525 0.08093659
v -0.15416858 -0.03935525 0.11450961
v -0.15780288 -0.05170881 0.11450961
v -0.15779624 -0.05172378 0.08093659
v -0.15779624 -0.05172191 0.08501202
v -0.17539228 -0.05173127 0.08093659
v -0.17001166 -0.03935525 0.11450961
v -0.16155892 -0.05847519 0.11450961
v -0.16155671 -0.05847519 0.11287615
v -0.16154563 -0.05847519 0.08093659
v -0.16154563 -0.05847519 0.08501202
v -0.17602309 -0.05411214 0.08093659
v -0.17540999 -0.05164142 0.11450961
v -0.17668266 -0.05847519 0.11450961
v -0.17666275 -0.05847519 0.08093659
v -0.17674463 -0.05684115 0.08093659
v -0.17625548 -0.05484212 0.11450961
v -0.17676456 -0.05684115 0.11450961
f 1 2 3
f 1 3 9
f 1 9 15
f 1 15 10
f 1 10 4
f 1 4 5
f 1 5 6
f 1 6 2
f 2 7 12
f 2 12 18
f 2 18 23
f 2 23 24
f 2 24 20
f 2 20 14
f 2 14 9
f 2 9 3
f 2 6 8
f 2 8 7
f 4 10 5
f 5 10 15
f 5 15 21
f 5 21 25
f 5 25 26
f 5 26 22
f 5 22 16
f 5 16 11
f 5 11 6
f 6 11 13
f 6 13 8
f 7 8 13
f 7 13 12
f 9 14 15
f 11 16 17
f 11 17 13
f 12 13 19
f 12 19 18
f 13 17 19
f 14 20 21
f 14 21 15
f 16 22 23
f 16 23 18
f 16 18 19
f 16 19 17
f 20 24 21
f 21 24 25
f 22 26 24
f 22 24 23
f 24 26 25

