# https://github.com/mikedh/trimesh
v 0.11805436 0.08951718 0.06714512
v 0.11805436 0.08950940 0.08500685
v 0.11805436 0.10047637 0.06714512
v 0.15348484 0.08861027 0.06714512
v 0.11805436 0.08950629 0.09375082
v 0.11805436 0.10096483 0.06752154
v 0.11805940 0.10096483 0.06714512
v 0.16119126 0.08961363 0.06714512
v 0.15303240 0.08955296 0.08500685
v 0.14429041 0.08911739 0.09385015
v 0.13554842 0.08911739 0.09385015
v 0.12680642 0.08930562 0.09385015
v 0.11805436 0.08950629 0.09385015
v 0.11805436 0.10096483 0.09375343
v 0.11843140 0.10101150 0.06714512
v 0.16177943 0.09213836 0.08500685
v 0.15303240 0.09014408 0.09385015
v 0.15303240 0.09013631 0.09375343
v 0.16940542 0.09393663 0.06714512
v 0.11805436 0.08963541 0.09385015
v 0.11805940 0.10096483 0.09385015
v 0.12670588 0.10201797 0.09385015
v 0.12680642 0.10202885 0.06714512
v 0.16654504 0.09579868 0.09099039
v 0.16230726 0.09394597 0.09385015
v 0.16938029 0.10035659 0.06714512
v 0.16654504 0.09771052 0.09099039
v 0.12680642 0.10202885 0.09385015
v 0.12717842 0.10206775 0.06714512
v 0.16230726 0.10044681 0.09385015
v 0.16797273 0.10021970 0.07626551
v 0.16717343 0.09932212 0.08500685
v 0.16221678 0.10432959 0.06714512
v 0.16177943 0.10446804 0.07626551
v 0.16177943 0.10355179 0.08500685
v 0.16230726 0.10044993 0.09384492
v 0.13554842 0.10292644 0.09385015
v 0.13554842 0.10292644 0.09375343
v 0.13554842 0.10292333 0.06714512
v 0.15303240 0.10415070 0.09385015
v 0.16177943 0.10449137 0.06714512
v 0.16177943 0.10450071 0.06752154
f 1 2 5
f 1 5 13
f 1 13 20
f 1 20 14
f 1 14 6
f 1 6 3
f 1 3 7
f 1 7 15
f 1 15 23
f 1 23 29
f 1 29 39
f 1 39 41
f 1 41 33
f 1 33 26
f 1 26 19
f 1 19 8
f 1 8 4
f 1 4 2
f 2 4 5
f 3 6 7
f 4 8 9
f 4 9 10
f 4 10 11
f 4 11 12
f 4 12 13
f 4 13 5
f 6 14 15
f 6 15 7
f 8 16 17
f 8 17 18
f 8 18 9
f 8 19 16
f 9 18 10
f 10 18 17
f 10 17 25
f 10 25 30
f 10 30 40
f 10 40 37
f 10 37 28
f 10 28 22
f 10 22 21
f 10 21 20
f 10 20 13
f 10 13 12
f 10 12 11
f 14 20 21
f 14 21 22
f 14 22 15
f 15 22 23
f 16 19 24
f 16 24 25
f 16 25 17
f 19 26 27
f 19 27 24
f 22 28 23
f 23 28 29
f 24 27 30
f 24 30 25
f 26 31 32
f 26 32 27
f 26 33 34
f 26 34 35
f 26 35 31
f 27 32 36
f 27 36 30
f 28 37 29
f 29 37 38
f 29 38 39
f 30 36 40
f 31 35 32
f 32 35 36
f 33 41 42
f 33 42 34
f 34 42 40
f 34 40 35
f 35 40 36
f 37 40 38
f 38 40 39
f 39 40 42
f 39 42 41

