# https://github.com/mikedh/trimesh
v -0.17715301 -0.08853879 0.12783916
v -0.16486475 -0.08853879 0.12783916
v -0.17551234 -0.08853879 0.12147755
v -0.17535236 -0.08894660 0.12093407
v -0.17532348 -0.08952995 0.12093407
v -0.17694972 -0.09264250 0.12783916
v -0.16486475 -0.08853879 0.12093407
v -0.16486475 -0.10233261 0.12783916
v -0.17536318 -0.08853879 0.12093407
v -0.17529821 -0.09001742 0.12093407
v -0.17481227 -0.09448168 0.12093407
v -0.17694011 -0.09267625 0.12783916
v -0.16486475 -0.10104032 0.12093407
v -0.17139139 -0.10049883 0.12783916
v -0.17138296 -0.09811681 0.12093407
v -0.17488805 -0.09611830 0.12437140
v -0.17141905 -0.10047317 0.12783916
v -0.17053616 -0.09888652 0.12093407
f 1 2 7
f 1 7 9
f 1 9 3
f 1 3 4
f 1 4 5
f 1 5 6
f 1 6 12
f 1 12 17
f 1 17 14
f 1 14 8
f 1 8 2
f 2 8 13
f 2 13 7
f 3 9 4
f 4 9 7
f 4 7 13
f 4 13 18
f 4 18 15
f 4 15 11
f 4 11 10
f 4 10 5
f 5 10 6
f 6 11 12
f 6 10 11
f 8 14 13
f 11 15 16
f 11 16 12
f 12 16 17
f 13 14 18
f 14 17 16
f 14 16 15
f 14 15 18

