# https://github.com/mikedh/trimesh
v -0.17634930 -0.06469584 0.01214756
v -0.17630518 -0.06558752 0.01214756
v -0.17631254 -0.06558752 0.01505041
v -0.17635518 -0.06469584 0.01505041
v -0.16133305 -0.06469584 0.01214756
v -0.17496841 -0.07433520 0.01214756
v -0.17497577 -0.07434464 0.01505041
v -0.17631254 -0.06558752 0.02408982
v -0.17635666 -0.06469584 0.01594243
v -0.16358306 -0.06469584 0.02408982
v -0.16148746 -0.07433803 0.01214756
v -0.16693749 -0.07434464 0.01214756
v -0.17497577 -0.07434464 0.02408982
v -0.17635518 -0.06469584 0.02408982
v -0.16389483 -0.07434464 0.02408982
v -0.16295218 -0.07434464 0.01504924
f 1 2 3
f 1 3 4
f 1 4 9
f 1 9 14
f 1 14 10
f 1 10 5
f 1 5 11
f 1 11 12
f 1 12 6
f 1 6 2
f 2 6 7
f 2 7 3
f 3 7 13
f 3 13 8
f 3 8 9
f 3 9 4
f 5 10 11
f 6 12 7
f 7 12 16
f 7 16 15
f 7 15 13
f 8 14 9
f 8 13 15
f 8 15 10
f 8 10 14
f 10 15 11
f 11 15 16
f 11 16 12

