# https://github.com/mikedh/trimesh
v -0.16154393 -0.05847519 0.08093659
v -0.16393136 -0.07162162 0.09375448
v -0.16392692 -0.07162162 0.08093659
v -0.17666294 -0.05847519 0.08093659
v -0.16155578 -0.05847519 0.11124269
v -0.16393877 -0.07162162 0.11450961
v -0.17538845 -0.07162162 0.08093659
v -0.17668220 -0.05847519 0.11450961
v -0.17654291 -0.06091529 0.08093659
v -0.17637100 -0.06558572 0.11450961
v -0.16155726 -0.05847519 0.11450961
v -0.17545811 -0.07162162 0.11450961
v -0.17568929 -0.06965899 0.08093659
v -0.17631171 -0.06558572 0.08093659
f 1 2 3
f 1 3 7
f 1 7 13
f 1 13 14
f 1 14 9
f 1 9 4
f 1 4 8
f 1 8 11
f 1 11 5
f 1 5 6
f 1 6 2
f 2 6 12
f 2 12 7
f 2 7 3
f 4 9 10
f 4 10 8
f 5 11 6
f 6 11 8
f 6 8 10
f 6 10 12
f 7 12 13
f 9 14 10
f 10 14 12
f 12 14 13

