# https://github.com/mikedh/trimesh
v 0.16177313 -0.10096345 0.04127632
v 0.16177478 -0.10095615 0.03947823
v 0.16177478 -0.10096223 0.04127632
v 0.15334688 -0.10095493 0.04127632
v 0.15334688 -0.10094399 0.03284951
v 0.16177478 -0.10093061 0.03253275
v 0.16177478 -0.08853745 0.04127632
v 0.15334688 -0.08853745 0.04127632
v 0.15334688 -0.10094278 0.03253741
v 0.16177478 -0.09856242 0.02535669
v 0.15334688 -0.09904895 0.02345379
v 0.15334688 -0.09904166 0.02342351
v 0.16177478 -0.08853745 0.02344681
v 0.15334688 -0.08853745 0.01748189
v 0.15334688 -0.09902706 0.02338392
v 0.15334688 -0.09182275 0.01748655
v 0.16177478 -0.09182275 0.02320225
f 1 2 3
f 1 3 7
f 1 7 8
f 1 8 4
f 1 4 5
f 1 5 6
f 1 6 2
f 2 6 10
f 2 10 17
f 2 17 13
f 2 13 7
f 2 7 3
f 4 8 14
f 4 14 16
f 4 16 15
f 4 15 12
f 4 12 11
f 4 11 9
f 4 9 5
f 5 9 6
f 6 9 11
f 6 11 12
f 6 12 10
f 7 13 14
f 7 14 8
f 10 12 15
f 10 15 16
f 10 16 17
f 13 17 14
f 14 17 16

