# https://github.com/mikedh/trimesh
v -0.15126915 -0.07434465 0.00649248
v -0.15126915 -0.08405010 0.00920173
v -0.15126915 -0.07434465 -0.00409750
v -0.15999887 -0.07434465 0.00920173
v -0.15126915 -0.08853606 0.00920173
v -0.15126915 -0.08307622 -0.00437256
v -0.16178238 -0.07434465 -0.00421233
v -0.17496276 -0.07434465 0.00920173
v -0.15126915 -0.08853606 -0.00442864
v -0.17485839 -0.08853606 0.00920173
v -0.15303643 -0.08853606 -0.00443799
v -0.15303643 -0.08307622 -0.00437256
v -0.16178238 -0.08307622 -0.00434853
v -0.17052601 -0.07434465 -0.00124137
v -0.17495580 -0.07434465 0.00630421
v -0.17490015 -0.08755385 0.00192588
v -0.17490247 -0.08760664 0.00630421
v -0.17490247 -0.08760664 0.00920173
v -0.17486535 -0.08839713 0.00920173
v -0.17485839 -0.08853606 0.00630421
v -0.15632051 -0.08853606 -0.00442997
v -0.16178238 -0.08853606 -0.00437790
v -0.16506414 -0.08853606 -0.00320154
v -0.17052601 -0.08307622 -0.00121733
v -0.17491637 -0.07434465 0.00188983
v -0.17490710 -0.08307622 0.00191119
v -0.17388199 -0.08853606 0.00122220
v -0.17485608 -0.08853606 0.00289795
v -0.17107103 -0.08853606 -0.00075800
f 1 2 5
f 1 5 9
f 1 9 6
f 1 6 3
f 1 3 7
f 1 7 14
f 1 14 25
f 1 25 15
f 1 15 8
f 1 8 4
f 1 4 2
f 2 4 8
f 2 8 18
f 2 18 19
f 2 19 10
f 2 10 5
f 3 6 7
f 5 10 20
f 5 20 28
f 5 28 27
f 5 27 29
f 5 29 23
f 5 23 22
f 5 22 21
f 5 21 11
f 5 11 9
f 6 9 11
f 6 11 12
f 6 12 7
f 7 13 14
f 7 12 13
f 8 15 16
f 8 16 17
f 8 17 18
f 10 19 20
f 11 21 12
f 12 21 13
f 13 22 14
f 13 21 22
f 14 22 23
f 14 23 24
f 14 24 25
f 15 25 26
f 15 26 16
f 16 27 28
f 16 28 17
f 16 26 24
f 16 24 29
f 16 29 27
f 17 28 20
f 17 20 19
f 17 19 18
f 23 29 24
f 24 26 25

