# https://github.com/mikedh/trimesh
v 0.14428941 0.10419878 0.12848225
v 0.14454096 0.10417515 0.12848225
v 0.15303443 0.10299229 0.11995780
v 0.14432086 0.10379120 0.11995780
v 0.13579986 0.10388423 0.12848225
v 0.15303443 0.10298786 0.11998951
v 0.15324666 0.10012151 0.12848225
v 0.15305408 0.10297752 0.11995780
v 0.14428941 0.10378972 0.11995780
v 0.12705484 0.10337476 0.12848225
v 0.15331742 0.10007573 0.12848225
v 0.15334886 0.10008311 0.12838129
v 0.15820284 0.09875553 0.11998951
v 0.15820677 0.09875996 0.11995780
v 0.13557977 0.10300262 0.11995780
v 0.11830983 0.10285051 0.12848225
v 0.15331742 0.09413630 0.12848225
v 0.15762508 0.09711192 0.12523135
v 0.15820677 0.09545650 0.11995780
v 0.13554833 0.10299967 0.11995780
v 0.11808974 0.10100903 0.11995780
v 0.11805828 0.10281951 0.12848225
v 0.12680330 0.10204865 0.11995780
v 0.15334886 0.09412596 0.12838129
v 0.15762508 0.09596450 0.12523135
v 0.15075482 0.09302136 0.12848225
v 0.15820284 0.09545797 0.11998951
v 0.15303443 0.09221802 0.11998951
v 0.15303443 0.09221507 0.11995780
v 0.11805828 0.10100460 0.11995780
v 0.11805828 0.08930146 0.12848225
v 0.14428941 0.09023919 0.12848225
v 0.14428941 0.08942255 0.11998951
v 0.14428941 0.08942107 0.11995780
v 0.11805828 0.08949639 0.11995780
v 0.12680330 0.08919809 0.12848225
v 0.12677186 0.08929703 0.11995780
v 0.13554833 0.08911244 0.11995780
v 0.13554833 0.08912573 0.12848225
f 1 2 3
f 1 3 4
f 1 4 5
f 1 5 10
f 1 10 16
f 1 16 22
f 1 22 31
f 1 31 36
f 1 36 39
f 1 39 32
f 1 32 26
f 1 26 17
f 1 17 11
f 1 11 7
f 1 7 2
f 2 6 3
f 2 7 6
f 3 8 14
f 3 14 19
f 3 19 29
f 3 29 34
f 3 34 38
f 3 38 37
f 3 37 35
f 3 35 30
f 3 30 21
f 3 21 23
f 3 23 20
f 3 20 15
f 3 15 9
f 3 9 4
f 3 6 8
f 4 9 5
f 5 9 10
f 6 7 11
f 6 11 12
f 6 12 13
f 6 13 14
f 6 14 8
f 9 15 16
f 9 16 10
f 11 17 25
f 11 25 18
f 11 18 13
f 11 13 12
f 13 18 14
f 14 18 25
f 14 25 19
f 15 20 16
f 16 21 22
f 16 20 23
f 16 23 21
f 17 24 25
f 17 26 24
f 19 25 27
f 19 27 28
f 19 28 29
f 21 30 22
f 22 30 35
f 22 35 31
f 24 26 28
f 24 28 25
f 25 28 27
f 26 32 28
f 28 32 33
f 28 33 29
f 29 33 34
f 31 35 37
f 31 37 38
f 31 38 36
f 32 39 33
f 33 39 34
f 34 39 38
f 36 38 39

