# https://github.com/mikedh/trimesh
v -0.13549629 0.08949279 0.10614814
v -0.13549629 0.10095152 0.10614814
v 0.10574755 0.08950179 0.10614814
v 0.10574755 0.08949954 0.11124382
v 0.10577117 0.08949729 0.11993685
v -0.13547267 0.08949391 0.11993685
v -0.13549629 0.08949391 0.11125192
v -0.13549629 0.10095264 0.11125192
v -0.13547267 0.10099318 0.11993685
v 0.10574755 0.10094928 0.10614814
v 0.10577117 0.08950067 0.11125327
v 0.10577117 0.08949841 0.11641645
v 0.10577117 0.10098867 0.11993685
v 0.10577117 0.10096615 0.11476423
v 0.10577117 0.10094928 0.11125327
f 1 2 10
f 1 10 3
f 1 3 4
f 1 4 5
f 1 5 6
f 1 6 7
f 1 7 8
f 1 8 2
f 2 8 9
f 2 9 10
f 3 10 15
f 3 15 11
f 3 11 4
f 4 11 12
f 4 12 5
f 5 12 11
f 5 11 15
f 5 15 14
f 5 14 13
f 5 13 9
f 5 9 6
f 6 9 8
f 6 8 7
f 9 13 10
f 10 13 14
f 10 14 15

