# https://github.com/mikedh/trimesh
v -0.17674417 -0.05683999 0.02408982
v -0.17584024 -0.05342717 0.01214756
v -0.17674177 -0.05683999 0.01214756
v -0.17635541 -0.06469242 0.01505041
v -0.17635541 -0.06469242 0.02408982
v -0.17539185 -0.05173317 0.02408982
v -0.17539185 -0.05173317 0.01214756
v -0.17634826 -0.06469242 0.01214756
v -0.16358351 -0.06469242 0.02408982
v -0.16965343 -0.03935678 0.02408982
v -0.16966059 -0.03935678 0.01505041
v -0.16962243 -0.03935678 0.01214756
v -0.16133441 -0.06469242 0.01214756
v -0.15576773 -0.04737539 0.02408982
v -0.15412682 -0.03935678 0.02408982
v -0.15238097 -0.03935678 0.01214756
v -0.15409343 -0.04843445 0.01214756
f 1 2 3
f 1 3 4
f 1 4 5
f 1 5 9
f 1 9 14
f 1 14 15
f 1 15 10
f 1 10 6
f 1 6 7
f 1 7 2
f 2 7 12
f 2 12 16
f 2 16 17
f 2 17 13
f 2 13 8
f 2 8 3
f 3 8 4
f 4 8 13
f 4 13 9
f 4 9 5
f 6 10 11
f 6 11 7
f 7 11 12
f 9 13 14
f 10 15 16
f 10 16 12
f 10 12 11
f 13 17 14
f 14 17 15
f 15 17 16

