# https://github.com/mikedh/trimesh
v -0.15843328 -0.06557024 0.00824356
v -0.15384069 -0.05604810 0.00824356
v -0.15409174 -0.04843245 0.01214639
v -0.15843328 -0.05521675 0.01214639
v -0.15843328 -0.03935678 0.00824356
v -0.15126915 -0.04980265 0.00824356
v -0.15237926 -0.03935678 0.01214639
v -0.15843328 -0.03935678 0.01214639
v -0.15126915 -0.03935678 0.00824356
v -0.15126915 -0.03935678 0.00954705
f 1 2 3
f 1 3 4
f 1 4 8
f 1 8 5
f 1 5 9
f 1 9 6
f 1 6 2
f 2 6 3
f 3 6 7
f 3 7 8
f 3 8 4
f 5 8 7
f 5 7 10
f 5 10 9
f 6 9 10
f 6 10 7

