# https://github.com/mikedh/trimesh
v -0.17970820 -0.00011941 0.13747668
v -0.17730329 -0.00011941 0.13031093
v -0.17730329 -0.00011941 0.14493346
v -0.17970820 0.03551283 0.13747668
v -0.17730329 0.03551283 0.13030359
v -0.17030858 -0.00011941 0.11995360
v -0.17059107 0.03551283 0.11995360
v -0.17197350 -0.00011941 0.14493346
v -0.17730329 0.03551283 0.14493346
v -0.15417172 -0.00011941 0.11995360
v -0.15416922 0.03551283 0.11995360
v -0.15579665 -0.00011941 0.13511907
v -0.17197350 0.03551283 0.14493346
v -0.15417172 -0.00011941 0.11999029
v -0.15416922 0.02186124 0.11995360
v -0.15417671 0.03551283 0.12873593
v -0.15417671 -0.00011941 0.12873593
v -0.15579665 0.03551283 0.13511907
v -0.15417422 -0.00011941 0.12448294
f 1 2 6
f 1 6 10
f 1 10 14
f 1 14 19
f 1 19 17
f 1 17 12
f 1 12 8
f 1 8 3
f 1 3 9
f 1 9 4
f 1 4 5
f 1 5 2
f 2 5 7
f 2 7 6
f 3 8 13
f 3 13 9
f 4 9 13
f 4 13 18
f 4 18 16
f 4 16 11
f 4 11 7
f 4 7 5
f 6 7 11
f 6 11 15
f 6 15 10
f 8 12 18
f 8 18 13
f 10 15 14
f 11 16 17
f 11 17 15
f 12 17 16
f 12 16 18
f 14 15 19
f 15 17 19

