# https://github.com/mikedh/trimesh
v -0.15448715 -0.04092327 0.11711564
v -0.15579067 -0.04733736 0.11998939
v -0.15579067 -0.04734113 0.11451289
v -0.15448715 -0.04092327 0.11451289
v -0.15448962 -0.04092327 0.12241347
v -0.15780519 -0.05170649 0.11998939
v -0.15704975 -0.05007844 0.11451289
v -0.15579067 -0.04733170 0.12241347
v -0.17061075 -0.04092327 0.11451289
v -0.15449950 -0.04092327 0.12873869
v -0.15579561 -0.04731661 0.12873869
v -0.15783729 -0.05170083 0.12241347
v -0.16220949 -0.06019384 0.12873869
v -0.16213790 -0.06019384 0.12334260
v -0.16213543 -0.06019195 0.12241347
v -0.16213297 -0.06019195 0.11998939
v -0.16213050 -0.06019195 0.11459926
v -0.15780519 -0.05170838 0.11451289
v -0.15724972 -0.05049347 0.12241644
v -0.15652636 -0.04882203 0.12873869
v -0.15648439 -0.04882203 0.12573987
v -0.17541005 -0.05164046 0.11451289
v -0.17725671 -0.04092327 0.12998646
v -0.15467972 -0.04092327 0.13006091
v -0.15633627 -0.04610736 0.13444152
v -0.15792370 -0.05168574 0.12873869
v -0.16263906 -0.06019384 0.13119254
v -0.16213790 -0.06019384 0.12241644
v -0.16213050 -0.06019195 0.11451289
v -0.15710653 -0.04882203 0.13166902
v -0.17625437 -0.05484185 0.11451289
v -0.17924901 -0.04092327 0.13593051
v -0.15592398 -0.04092327 0.13495969
v -0.17198586 -0.06019384 0.14493591
v -0.16928748 -0.06019384 0.14182988
v -0.16520906 -0.06019384 0.13705916
v -0.16422155 -0.06019384 0.13538554
v -0.17707895 -0.06019384 0.12241644
v -0.17659753 -0.06019195 0.11451289
v -0.17676047 -0.05683965 0.11451289
v -0.17970820 -0.04092327 0.13747310
v -0.17197104 -0.04092327 0.14493591
v -0.17197351 -0.04809762 0.14493591
v -0.17730114 -0.06019384 0.14493591
v -0.17823435 -0.06019384 0.12873869
v -0.17970820 -0.06019384 0.13747310
v -0.17730114 -0.04882203 0.14493591
v -0.17729866 -0.04092327 0.14493591
f 1 2 3
f 1 3 4
f 1 4 9
f 1 9 23
f 1 23 32
f 1 32 41
f 1 41 48
f 1 48 42
f 1 42 33
f 1 33 24
f 1 24 10
f 1 10 5
f 1 5 2
f 2 6 7
f 2 7 3
f 2 5 8
f 2 8 6
f 3 7 18
f 3 18 29
f 3 29 39
f 3 39 40
f 3 40 31
f 3 31 22
f 3 22 9
f 3 9 4
f 5 10 11
f 5 11 8
f 6 12 13
f 6 13 14
f 6 14 15
f 6 15 16
f 6 16 17
f 6 17 18
f 6 18 7
f 6 8 19
f 6 19 20
f 6 20 12
f 8 11 21
f 8 21 19
f 9 22 23
f 10 24 11
f 11 24 25
f 11 25 20
f 11 20 21
f 12 20 26
f 12 26 13
f 13 26 27
f 13 27 37
f 13 37 36
f 13 36 35
f 13 35 34
f 13 34 44
f 13 44 46
f 13 46 45
f 13 45 38
f 13 38 28
f 13 28 14
f 14 28 29
f 14 29 17
f 14 17 16
f 14 16 15
f 17 29 18
f 19 21 20
f 20 25 30
f 20 30 26
f 22 31 32
f 22 32 23
f 24 33 25
f 25 33 34
f 25 34 35
f 25 35 36
f 25 36 37
f 25 37 27
f 25 27 30
f 26 30 27
f 28 38 39
f 28 39 29
f 31 40 32
f 32 40 41
f 33 42 43
f 33 43 34
f 34 43 42
f 34 42 48
f 34 48 47
f 34 47 44
f 38 45 39
f 39 45 46
f 39 46 40
f 40 46 41
f 41 46 44
f 41 44 47
f 41 47 48

