# https://github.com/mikedh/trimesh
v -0.16122467 -0.08305971 0.12002027
v -0.16394582 -0.07162290 0.12602539
v -0.16394763 -0.07162290 0.12873525
v -0.16146712 -0.08305971 0.12871818
v -0.17526462 -0.08305971 0.12002027
v -0.16394220 -0.07163298 0.12002027
v -0.16407247 -0.07162290 0.12002027
v -0.16470933 -0.07162290 0.13315982
v -0.16505309 -0.07162290 0.13514771
v -0.16392592 -0.08305971 0.13546723
v -0.17566448 -0.07162290 0.12002027
v -0.17765287 -0.08305971 0.12873525
v -0.16682257 -0.07162290 0.13816490
v -0.16761864 -0.07162290 0.13952105
v -0.17063470 -0.07162290 0.14325779
v -0.17198985 -0.07162290 0.14493591
v -0.16760779 -0.08305971 0.13984301
v -0.17781932 -0.07162290 0.12873525
v -0.17970641 -0.08305971 0.13747707
v -0.17198985 -0.07433209 0.14493591
v -0.17197537 -0.08305971 0.14492371
v -0.17730187 -0.07162290 0.14493591
v -0.17970641 -0.07162290 0.13747707
v -0.17730187 -0.08305971 0.14493591
v -0.17896279 -0.07162290 0.13978692
f 1 2 3
f 1 3 4
f 1 4 10
f 1 10 17
f 1 17 21
f 1 21 24
f 1 24 19
f 1 19 12
f 1 12 5
f 1 5 11
f 1 11 7
f 1 7 6
f 1 6 2
f 2 6 7
f 2 7 11
f 2 11 18
f 2 18 23
f 2 23 25
f 2 25 22
f 2 22 16
f 2 16 15
f 2 15 14
f 2 14 13
f 2 13 9
f 2 9 8
f 2 8 3
f 3 8 4
f 4 8 9
f 4 9 10
f 5 12 11
f 9 13 10
f 10 13 14
f 10 14 15
f 10 15 16
f 10 16 17
f 11 12 18
f 12 19 18
f 16 20 21
f 16 21 17
f 16 22 24
f 16 24 20
f 18 19 23
f 19 24 25
f 19 25 23
f 20 24 21
f 22 25 24

