# https://github.com/mikedh/trimesh
v -0.17674219 -0.05684386 0.00824356
v -0.17674219 -0.05684386 0.01214639
v -0.17644466 -0.05571025 0.00824356
v -0.17669380 -0.05780281 0.00824356
v -0.17630485 -0.06558398 0.01214639
v -0.17584063 -0.05342933 0.01214639
v -0.17539253 -0.05173405 0.01214639
v -0.17554132 -0.05229571 0.00824356
v -0.17629588 -0.06558398 0.00824356
v -0.17614891 -0.06654978 0.00824356
v -0.17586215 -0.06848822 0.01214639
v -0.17539253 -0.05173405 0.00824356
v -0.16962295 -0.03935678 0.01214639
v -0.17496954 -0.07433437 0.01214639
v -0.17495880 -0.07434122 0.00824356
v -0.16957276 -0.03935678 0.00824356
v -0.15843507 -0.03935678 0.01214639
v -0.17229357 -0.07434465 0.00824356
v -0.16693801 -0.07434465 0.01214639
v -0.15843507 -0.03935678 0.00824356
v -0.15843507 -0.05522050 0.01214639
v -0.15978472 -0.07434465 0.00824356
v -0.15971840 -0.07434465 0.00864699
v -0.16148745 -0.07433780 0.01214639
v -0.15843507 -0.06556686 0.00824356
v -0.15845837 -0.07434122 0.00824356
f 1 2 3
f 1 3 8
f 1 8 12
f 1 12 16
f 1 16 20
f 1 20 25
f 1 25 26
f 1 26 22
f 1 22 18
f 1 18 15
f 1 15 10
f 1 10 9
f 1 9 4
f 1 4 5
f 1 5 2
f 2 5 11
f 2 11 14
f 2 14 19
f 2 19 24
f 2 24 21
f 2 21 17
f 2 17 13
f 2 13 7
f 2 7 6
f 2 6 3
f 3 6 7
f 3 7 8
f 4 9 5
f 5 9 10
f 5 10 11
f 7 12 8
f 7 13 12
f 10 14 11
f 10 15 14
f 12 13 16
f 13 17 20
f 13 20 16
f 14 15 18
f 14 18 19
f 17 21 25
f 17 25 20
f 18 22 23
f 18 23 19
f 19 23 24
f 21 24 26
f 21 26 25
f 22 26 23
f 23 26 24

