# https://github.com/mikedh/trimesh
v -0.16931801 0.03551283 0.01121054
v -0.16931801 0.03551283 0.01702394
v -0.16928351 0.03551283 0.00864976
v -0.16886587 -0.00011941 0.00864976
v -0.15371295 0.03551283 0.01702394
v -0.16886587 -0.00011941 0.01702394
v -0.15081855 0.03551283 0.00864976
v -0.15077134 -0.00011941 0.00864976
v -0.15077134 0.03065071 0.00864976
v -0.15366574 0.03060537 0.01702394
v -0.15366574 -0.00011941 0.01702394
f 1 2 5
f 1 5 7
f 1 7 3
f 1 3 4
f 1 4 6
f 1 6 2
f 2 6 11
f 2 11 10
f 2 10 5
f 3 7 9
f 3 9 8
f 3 8 4
f 4 8 11
f 4 11 6
f 5 9 7
f 5 10 9
f 8 9 10
f 8 10 11

