# https://github.com/mikedh/trimesh
v -0.13537370 -0.10095271 0.02552624
v -0.13545605 -0.10099334 0.11997809
v -0.13545605 -0.10095159 0.10953070
v -0.13537370 -0.08946418 0.02552624
v 0.07486961 -0.10094933 0.02552624
v 0.07486961 -0.10099109 0.11997809
v -0.13545605 -0.08949465 0.11997809
v -0.13545605 -0.08949239 0.10953070
v -0.12773561 -0.08949465 0.11997809
v 0.07486961 -0.08949577 0.11997809
v 0.07486961 -0.08953076 0.02552624
f 1 2 3
f 1 3 8
f 1 8 4
f 1 4 11
f 1 11 5
f 1 5 6
f 1 6 2
f 2 7 8
f 2 8 3
f 2 6 10
f 2 10 9
f 2 9 7
f 4 9 10
f 4 10 11
f 4 8 7
f 4 7 9
f 5 11 10
f 5 10 6

