# https://github.com/mikedh/trimesh
v 0.11802955 0.10096484 0.02395501
v 0.11802955 0.10096484 0.01232695
v 0.11788064 0.10096484 0.02395501
v 0.11802955 0.08953316 0.02395501
v 0.11802955 0.08791694 0.01232695
v -0.13547147 0.10095186 0.01232695
v -0.13547147 0.10095186 0.02395501
v -0.13537219 0.08946305 0.02395501
v -0.13276620 0.08770404 0.01232695
v -0.13547147 0.08794679 0.01232695
v -0.13547147 0.08946305 0.02395501
v -0.13547147 0.08770793 0.01234403
f 1 2 3
f 1 3 7
f 1 7 11
f 1 11 8
f 1 8 4
f 1 4 5
f 1 5 2
f 2 5 9
f 2 9 10
f 2 10 6
f 2 6 3
f 3 6 7
f 4 8 9
f 4 9 5
f 6 10 12
f 6 12 11
f 6 11 7
f 8 11 9
f 9 11 12
f 9 12 10

