# https://github.com/mikedh/trimesh
v -0.16957873 0.03933704 0.00864976
v -0.15085652 0.03933704 0.00864976
v -0.16954537 0.03933704 0.00630434
v -0.16886395 -0.00011941 0.00630434
v -0.16886395 -0.00011941 0.00864976
v -0.14523843 0.03933704 0.00681593
v -0.15077075 0.03065090 0.00864976
v -0.16779180 0.03933704 -0.00052068
v -0.16750828 -0.00011941 -0.00039342
v -0.16816825 -0.00011941 0.00286319
v -0.15077075 -0.00011941 0.00864976
v -0.14523843 0.03933704 -0.00411962
v -0.14523843 0.03807796 0.00681974
v -0.16178059 0.03933704 -0.00379256
v -0.16178059 -0.00011941 -0.00365893
v -0.14523843 -0.00011941 0.00681974
v -0.14523843 -0.00011941 -0.00411962
v -0.15303657 0.03933704 -0.00435124
v -0.15303657 -0.00011941 -0.00434360
v -0.14854543 -0.00011941 -0.00421507
f 1 2 6
f 1 6 12
f 1 12 18
f 1 18 14
f 1 14 8
f 1 8 3
f 1 3 4
f 1 4 5
f 1 5 11
f 1 11 7
f 1 7 2
f 2 7 6
f 3 8 9
f 3 9 10
f 3 10 4
f 4 10 9
f 4 9 15
f 4 15 19
f 4 19 20
f 4 20 17
f 4 17 16
f 4 16 11
f 4 11 5
f 6 7 13
f 6 13 16
f 6 16 17
f 6 17 12
f 7 11 16
f 7 16 13
f 8 14 15
f 8 15 9
f 12 17 18
f 14 18 19
f 14 19 15
f 17 20 18
f 18 20 19

