# https://github.com/mikedh/trimesh
v 0.15606478 -0.07432730 0.02071969
v 0.15606478 -0.08307638 0.02071969
v 0.14795397 -0.07433212 0.01049827
v 0.14832365 -0.07432730 0.01113573
v 0.13750678 -0.07432730 0.02071969
v 0.15605985 -0.08664935 0.02071969
v 0.14795397 -0.08307638 0.01049827
v 0.14009701 -0.07432730 0.01049827
v 0.13419690 -0.07432730 0.01505057
v 0.13134297 -0.07433212 0.01049827
v 0.13248651 -0.08664935 0.02071969
v 0.14792440 -0.08664935 0.01049827
v 0.13088949 -0.07908603 0.01049827
v 0.13088949 -0.08372535 0.01578611
v 0.13088949 -0.08664935 0.01802273
v 0.13088949 -0.08664935 0.01049827
f 1 2 7
f 1 7 3
f 1 3 4
f 1 4 8
f 1 8 9
f 1 9 5
f 1 5 11
f 1 11 6
f 1 6 2
f 2 6 7
f 3 7 12
f 3 12 16
f 3 16 13
f 3 13 10
f 3 10 8
f 3 8 4
f 5 9 10
f 5 10 11
f 6 12 7
f 6 11 15
f 6 15 16
f 6 16 12
f 8 10 9
f 10 13 14
f 10 14 15
f 10 15 11
f 13 16 15
f 13 15 14

