# https://github.com/mikedh/trimesh
v -0.17496022 -0.07434465 0.00920174
v -0.17490247 -0.08760534 0.00920174
v -0.17497625 -0.07434465 0.01504966
v -0.15999884 -0.07434465 0.00920174
v -0.17490247 -0.08760395 0.02408894
v -0.17497625 -0.07434465 0.01507735
v -0.17485754 -0.08853606 0.00920174
v -0.17485754 -0.08853606 0.02408894
v -0.16389560 -0.07434465 0.02408894
v -0.15858709 -0.08701079 0.02408894
v -0.15973092 -0.07527398 0.00920174
v -0.17497304 -0.07434465 0.02408894
v -0.15858709 -0.08853606 0.00920174
v -0.15858709 -0.08853606 0.02407874
v -0.15858709 -0.08762479 0.02408894
v -0.15858709 -0.08129033 0.00920174
f 1 2 3
f 1 3 6
f 1 6 12
f 1 12 9
f 1 9 4
f 1 4 11
f 1 11 16
f 1 16 13
f 1 13 7
f 1 7 2
f 2 5 6
f 2 6 3
f 2 7 8
f 2 8 5
f 4 9 10
f 4 10 11
f 5 12 6
f 5 8 15
f 5 15 10
f 5 10 9
f 5 9 12
f 7 13 14
f 7 14 8
f 8 14 15
f 10 15 14
f 10 14 13
f 10 13 16
f 10 16 11

