# https://github.com/mikedh/trimesh
v 0.14833809 0.08843869 0.05745192
v 0.14291810 0.08843869 0.05063201
v 0.14748417 0.08450891 0.04890591
v 0.14833809 0.08450891 0.04989570
v 0.14833809 0.08843869 0.01119723
v 0.14472003 0.08450891 0.04444581
v 0.13363506 0.08843869 0.03314769
v 0.14833809 0.08450891 0.01114894
v 0.14488158 0.08450891 0.00518605
v 0.14336548 0.08843869 0.00263311
v 0.13581158 0.08450891 0.02726928
v 0.13020163 0.08843869 0.02481894
v 0.13020163 0.08450891 0.01522279
v 0.14306367 0.08843869 0.00211407
v 0.14150142 0.08450891 -0.00052940
v 0.13020163 0.08843869 -0.00415059
v 0.13020163 0.08450891 -0.00420491
v 0.14149964 0.08843869 -0.00052940
v 0.13554705 0.08450891 -0.00377640
v 0.13554705 0.08843869 -0.00371001
v 0.13411439 0.08450891 -0.00389711
f 1 2 3
f 1 3 4
f 1 4 8
f 1 8 5
f 1 5 10
f 1 10 14
f 1 14 18
f 1 18 20
f 1 20 16
f 1 16 12
f 1 12 7
f 1 7 2
f 2 6 3
f 2 7 6
f 3 6 11
f 3 11 13
f 3 13 17
f 3 17 21
f 3 21 19
f 3 19 15
f 3 15 9
f 3 9 8
f 3 8 4
f 5 8 9
f 5 9 10
f 6 7 11
f 7 12 13
f 7 13 11
f 9 14 10
f 9 15 14
f 12 16 17
f 12 17 13
f 14 15 18
f 15 19 18
f 16 20 21
f 16 21 17
f 18 19 20
f 19 21 20

