# https://github.com/mikedh/trimesh
v -0.15793338 -0.08799401 0.08093659
v -0.16346529 -0.07583329 0.08093659
v -0.15793338 -0.08853745 0.08093659
v -0.15793338 -0.08798904 0.06751505
v -0.16343028 -0.07583329 0.02408982
v -0.17496424 -0.07583329 0.08093659
v -0.17485755 -0.08853745 0.08093659
v -0.15793338 -0.08853745 0.02408982
v -0.15793338 -0.08797411 0.02408982
v -0.17496424 -0.07583329 0.02408982
v -0.17490257 -0.08760603 0.08093659
v -0.17485921 -0.08853745 0.06751505
v -0.17485921 -0.08853745 0.02408982
v -0.17490257 -0.08760603 0.02408982
f 1 2 6
f 1 6 11
f 1 11 7
f 1 7 3
f 1 3 8
f 1 8 9
f 1 9 4
f 1 4 5
f 1 5 2
f 2 5 10
f 2 10 6
f 3 7 12
f 3 12 13
f 3 13 8
f 4 9 5
f 5 9 8
f 5 8 13
f 5 13 14
f 5 14 10
f 6 10 14
f 6 14 11
f 7 11 12
f 11 14 13
f 11 13 12

