# https://github.com/mikedh/trimesh
v 0.14503105 -0.08923597 0.07343351
v 0.13554387 -0.08912612 0.07343351
v 0.14503105 -0.10210785 0.07343351
v 0.14503105 -0.08853745 0.05435568
v 0.11652485 -0.08951481 0.07343351
v 0.14187796 -0.08853745 0.05254165
v 0.13554387 -0.10292325 0.07343351
v 0.13554387 -0.10292466 0.02379915
v 0.14503105 -0.10177830 0.02453849
v 0.14503105 -0.08853745 0.00552164
v 0.11652485 -0.10096290 0.07343351
v 0.11652485 -0.08854167 0.01498052
v 0.11805675 -0.08853745 0.01496528
v 0.13271446 -0.10263455 0.07343351
v 0.12680171 -0.10202898 0.01505674
v 0.13554387 -0.10281200 0.01505674
v 0.12680171 -0.10202898 0.07343351
v 0.13554387 -0.10231627 0.00630670
v 0.14503105 -0.10162621 0.02376866
v 0.14503105 -0.09182302 0.00555213
v 0.14149848 -0.09182302 -0.00053021
v 0.14149848 -0.08853745 -0.00053021
v 0.11652485 -0.10096290 0.00630670
v 0.11652485 -0.08853745 0.00593322
v 0.12680171 -0.10187125 0.00630670
v 0.11652485 -0.09857864 -0.00113998
v 0.12680171 -0.09895325 -0.00108662
v 0.13554387 -0.09906310 -0.00078174
v 0.14097110 -0.09793505 0.00029296
v 0.14265925 -0.09903212 0.00630670
v 0.14503105 -0.09967712 0.01443174
v 0.14503105 -0.09294543 0.00630670
v 0.13554387 -0.09182302 -0.00365523
v 0.13926341 -0.08853745 -0.00175735
v 0.11652485 -0.10054604 0.00500335
v 0.11652485 -0.08853745 -0.00440218
v 0.11652485 -0.09182302 -0.00443267
v 0.11805675 -0.09182302 -0.00443267
v 0.12680171 -0.09182302 -0.00437170
v 0.14503105 -0.09966304 0.01439363
v 0.13554387 -0.08853745 -0.00370858
v 0.12680171 -0.08853745 -0.00440980
f 1 2 5
f 1 5 11
f 1 11 17
f 1 17 14
f 1 14 7
f 1 7 3
f 1 3 9
f 1 9 19
f 1 19 31
f 1 31 40
f 1 40 32
f 1 32 20
f 1 20 10
f 1 10 4
f 1 4 2
f 2 4 6
f 2 6 5
f 3 7 8
f 3 8 9
f 4 10 22
f 4 22 34
f 4 34 41
f 4 41 42
f 4 42 36
f 4 36 24
f 4 24 13
f 4 13 6
f 5 6 12
f 5 12 24
f 5 24 36
f 5 36 37
f 5 37 26
f 5 26 35
f 5 35 23
f 5 23 11
f 6 13 12
f 7 14 8
f 8 15 16
f 8 16 9
f 8 14 17
f 8 17 15
f 9 16 18
f 9 18 19
f 10 20 21
f 10 21 22
f 11 23 15
f 11 15 17
f 12 13 24
f 15 23 16
f 16 23 25
f 16 25 18
f 18 25 26
f 18 26 27
f 18 27 28
f 18 28 29
f 18 29 30
f 18 30 31
f 18 31 19
f 20 29 21
f 20 32 29
f 21 29 33
f 21 33 34
f 21 34 22
f 23 35 25
f 25 35 26
f 26 37 27
f 27 37 38
f 27 38 39
f 27 39 28
f 28 39 33
f 28 33 29
f 29 32 30
f 30 32 40
f 30 40 31
f 33 39 41
f 33 41 34
f 36 42 37
f 37 42 38
f 38 42 39
f 39 42 41

