# https://github.com/mikedh/trimesh
v -0.15126915 -0.08354404 0.00891688
v 0.01244191 -0.08632912 0.01183709
v 0.01267902 -0.08372684 0.00891688
v -0.15126915 -0.08853745 0.00891688
v -0.15126915 -0.08749145 0.01183709
v 0.11787668 -0.08780134 0.01183709
v 0.11787668 -0.08392822 0.00891688
v -0.15126915 -0.08853745 0.01183709
v 0.11787668 -0.08853745 0.00891688
v 0.11787668 -0.08853745 0.01183709
f 1 2 3
f 1 3 7
f 1 7 9
f 1 9 4
f 1 4 8
f 1 8 5
f 1 5 2
f 2 5 8
f 2 8 10
f 2 10 6
f 2 6 7
f 2 7 3
f 4 9 10
f 4 10 8
f 6 10 9
f 6 9 7

