# https://github.com/mikedh/trimesh
v -0.11152650 0.10027225 0.14398707
v -0.13032618 0.10027225 0.14398707
v -0.11152650 0.09487700 0.14398707
v -0.11152650 0.10345005 0.13912543
v -0.12679997 0.10452821 0.13747731
v -0.13032618 0.09487700 0.14398707
v -0.13032618 0.10452821 0.13747731
v -0.13032618 0.09344542 0.14136201
v -0.11152650 0.09132788 0.13747731
v -0.11152650 0.10452671 0.13747731
v -0.11152650 0.10286698 0.12873482
v -0.13032618 0.10286848 0.12873482
v -0.13032618 0.09132788 0.13747731
v -0.13032618 0.09050770 0.13395224
v -0.11152650 0.08929534 0.12873482
v -0.11152650 0.10216313 0.12545398
v -0.11152650 0.10192452 0.12434241
v -0.13032618 0.10192452 0.12434241
v -0.13032618 0.08929534 0.12873482
v -0.11152650 0.08939525 0.12434241
v -0.13032618 0.08939525 0.12434241
f 1 2 6
f 1 6 3
f 1 3 9
f 1 9 15
f 1 15 20
f 1 20 17
f 1 17 16
f 1 16 11
f 1 11 10
f 1 10 4
f 1 4 5
f 1 5 7
f 1 7 2
f 2 7 12
f 2 12 18
f 2 18 21
f 2 21 19
f 2 19 14
f 2 14 13
f 2 13 8
f 2 8 6
f 3 6 8
f 3 8 9
f 4 10 5
f 5 10 11
f 5 11 12
f 5 12 7
f 8 13 9
f 9 13 14
f 9 14 15
f 11 16 12
f 12 16 17
f 12 17 18
f 14 19 15
f 15 19 21
f 15 21 20
f 17 20 21
f 17 21 18

