# https://github.com/mikedh/trimesh
v 0.13020107 0.08843830 0.02481220
v 0.13020107 0.08450891 0.01521497
v 0.13020107 0.08843830 -0.00414580
v 0.12444161 0.08843907 0.01791894
v 0.11805436 0.08843907 0.01454113
v 0.11805436 0.08450891 0.00919341
v 0.13020107 0.08450891 -0.00420028
v 0.13020107 0.08842137 -0.00414866
v 0.13018323 0.08843830 -0.00414866
v 0.12444161 0.08843907 0.01340563
v 0.11805436 0.08843907 0.01340563
v 0.11805436 0.08450891 0.00917333
v 0.12680175 0.08450891 -0.00446981
v 0.12680175 0.08843830 -0.00441533
v 0.12444161 0.08843830 -0.00442967
v 0.11805436 0.08843791 -0.00440673
v 0.11805436 0.08451084 -0.00437805
v 0.11805793 0.08450891 -0.00437805
v 0.12536902 0.08450891 -0.00447841
v 0.12444161 0.08623778 -0.00446408
v 0.12143941 0.08843791 -0.00445261
v 0.12444161 0.08450891 -0.00446695
v 0.12444161 0.08543567 -0.00447268
f 1 2 7
f 1 7 8
f 1 8 3
f 1 3 10
f 1 10 4
f 1 4 5
f 1 5 6
f 1 6 2
f 2 6 12
f 2 12 18
f 2 18 22
f 2 22 19
f 2 19 13
f 2 13 7
f 3 8 9
f 3 9 10
f 4 10 11
f 4 11 5
f 5 11 16
f 5 16 17
f 5 17 12
f 5 12 6
f 7 13 8
f 8 13 14
f 8 14 9
f 9 14 10
f 10 14 15
f 10 15 11
f 11 15 16
f 12 17 18
f 13 19 20
f 13 20 14
f 14 20 21
f 14 21 15
f 15 21 16
f 16 21 22
f 16 22 17
f 17 22 18
f 19 23 20
f 19 22 23
f 20 23 21
f 21 23 22

