# https://github.com/mikedh/trimesh
v 0.11800392 -0.10096512 0.07343351
v 0.11800392 -0.10096512 0.09385285
v 0.11800392 -0.08951433 0.07343351
v 0.12680563 -0.10202996 0.07343351
v 0.11800392 -0.08950679 0.09385285
v 0.12680563 -0.10202996 0.09385285
v 0.11800392 -0.08951283 0.07626575
v 0.12680563 -0.08931374 0.07343351
v 0.13271620 -0.10263478 0.07343351
v 0.13554814 -0.10292587 0.09375291
v 0.11800392 -0.08950679 0.09375291
v 0.12670696 -0.08930770 0.09385285
v 0.13554814 -0.10292587 0.09385285
v 0.11800392 -0.08950981 0.08500833
v 0.12680563 -0.08931223 0.07626575
v 0.13554814 -0.08912671 0.07343351
v 0.13554814 -0.10292286 0.07343351
v 0.13554814 -0.10292436 0.07626575
v 0.13564681 -0.10293341 0.09385285
v 0.13544947 -0.08911917 0.09385285
v 0.13554814 -0.08912521 0.07626575
v 0.14711765 -0.08907090 0.07343351
v 0.16178059 -0.10447939 0.07343351
v 0.15303315 -0.10415058 0.09385285
v 0.13554814 -0.08911766 0.09385285
v 0.13554814 -0.08911766 0.09375291
v 0.14429065 -0.08911766 0.09385285
v 0.15317129 -0.08911012 0.07343351
v 0.16839668 -0.10025624 0.07343351
v 0.16178059 -0.10446883 0.07626575
v 0.16178059 -0.10355181 0.08500833
v 0.16230356 -0.10045080 0.09385285
v 0.15293447 -0.09012368 0.09385285
v 0.15303315 -0.08955355 0.08500833
v 0.15553947 -0.08941630 0.07343351
v 0.16839668 -0.09464396 0.07343351
v 0.16654655 -0.09771028 0.09099062
v 0.16717312 -0.09932110 0.08500833
v 0.16797238 -0.10022003 0.07626575
v 0.16230850 -0.10045080 0.09384485
v 0.16230356 -0.09395166 0.09385285
v 0.15303315 -0.09014329 0.09385285
v 0.15303315 -0.09013574 0.09375291
v 0.16159312 -0.09087027 0.07343351
v 0.16717312 -0.09529252 0.08500833
v 0.16654655 -0.09579929 0.09099062
v 0.16420797 -0.09229558 0.07343351
v 0.16178059 -0.09213721 0.08500833
v 0.16230850 -0.09394564 0.09384485
f 1 2 5
f 1 5 11
f 1 11 14
f 1 14 7
f 1 7 3
f 1 3 8
f 1 8 16
f 1 16 22
f 1 22 28
f 1 28 35
f 1 35 44
f 1 44 47
f 1 47 36
f 1 36 29
f 1 29 23
f 1 23 17
f 1 17 9
f 1 9 4
f 1 4 6
f 1 6 2
f 2 6 13
f 2 13 19
f 2 19 24
f 2 24 32
f 2 32 41
f 2 41 42
f 2 42 33
f 2 33 27
f 2 27 25
f 2 25 20
f 2 20 12
f 2 12 5
f 3 7 15
f 3 15 8
f 4 9 10
f 4 10 13
f 4 13 6
f 5 12 11
f 7 14 12
f 7 12 15
f 8 15 21
f 8 21 16
f 9 17 18
f 9 18 10
f 10 18 19
f 10 19 13
f 11 12 14
f 12 20 15
f 15 20 21
f 16 21 22
f 17 23 24
f 17 24 18
f 18 24 19
f 20 25 26
f 20 26 21
f 21 26 22
f 22 26 25
f 22 25 27
f 22 27 28
f 23 29 30
f 23 30 24
f 24 30 31
f 24 31 32
f 27 33 34
f 27 34 28
f 28 34 35
f 29 36 46
f 29 46 37
f 29 37 38
f 29 38 39
f 29 39 31
f 29 31 30
f 31 39 38
f 31 38 40
f 31 40 32
f 32 40 37
f 32 37 46
f 32 46 41
f 33 42 43
f 33 43 34
f 34 43 44
f 34 44 35
f 36 45 46
f 36 47 48
f 36 48 45
f 37 40 38
f 41 46 49
f 41 49 42
f 42 49 48
f 42 48 44
f 42 44 43
f 44 48 47
f 45 48 46
f 46 48 49

