# https://github.com/mikedh/trimesh
v -0.16212911 -0.06019384 0.11451289
v -0.16393933 -0.07162290 0.11451289
v -0.17659710 -0.06019384 0.11451289
v -0.16213427 -0.06019384 0.12334260
v -0.16394105 -0.07162290 0.11998939
v -0.17545796 -0.07162290 0.11451289
v -0.17970820 -0.06019384 0.13747608
v -0.17636996 -0.06558729 0.11451289
v -0.17970820 -0.07162290 0.13747608
v -0.16220826 -0.06019384 0.12873571
v -0.16394793 -0.07162290 0.12873571
v -0.17822492 -0.06019384 0.14207705
v -0.17896312 -0.07162290 0.13978699
v -0.16263500 -0.06019384 0.13119255
v -0.16505265 -0.07162290 0.13514729
v -0.16470850 -0.07162290 0.13316099
v -0.17730260 -0.07162290 0.14493293
v -0.17730260 -0.06019384 0.14493293
v -0.16421809 -0.06019384 0.13538554
v -0.16682157 -0.07162290 0.13816399
v -0.17198895 -0.07162290 0.14493293
v -0.17198723 -0.06019384 0.14493293
v -0.16520407 -0.06019384 0.13705916
v -0.16761827 -0.07162290 0.13951897
v -0.16929256 -0.06019384 0.14183286
f 1 2 6
f 1 6 8
f 1 8 3
f 1 3 7
f 1 7 12
f 1 12 18
f 1 18 22
f 1 22 25
f 1 25 23
f 1 23 19
f 1 19 14
f 1 14 10
f 1 10 4
f 1 4 5
f 1 5 2
f 2 5 11
f 2 11 16
f 2 16 15
f 2 15 20
f 2 20 24
f 2 24 21
f 2 21 17
f 2 17 13
f 2 13 9
f 2 9 6
f 3 8 9
f 3 9 7
f 4 10 11
f 4 11 5
f 6 9 8
f 7 9 12
f 9 13 12
f 10 14 15
f 10 15 16
f 10 16 11
f 12 13 17
f 12 17 18
f 14 19 15
f 15 19 20
f 17 21 22
f 17 22 18
f 19 23 24
f 19 24 20
f 21 25 22
f 21 24 23
f 21 23 25

