# https://github.com/mikedh/trimesh
v -0.16046746 0.08422756 0.11998986
v -0.16387075 0.07457875 0.11998986
v -0.17522384 0.08422756 0.11998986
v -0.16065015 0.08422756 0.12668794
v -0.16387640 0.07457875 0.12848911
v -0.17529352 0.07457875 0.11998986
v -0.17525774 0.08307612 0.11998986
v -0.17765342 0.08307612 0.12873383
v -0.17792275 0.08422756 0.12988648
v -0.16071795 0.08422756 0.12873383
v -0.16388393 0.07457875 0.12873383
v -0.17536132 0.07457875 0.12023703
v -0.17766096 0.07457875 0.12873383
v -0.17771934 0.07457875 0.12898101
v -0.17970632 0.08422756 0.13747781
v -0.16261453 0.08422756 0.13392687
v -0.16502527 0.07457875 0.13515783
v -0.16495559 0.07457875 0.13496695
v -0.17970632 0.07457875 0.13747781
v -0.17963852 0.07457875 0.13768827
v -0.17730310 0.08307612 0.14493454
v -0.17938991 0.08422756 0.13845915
v -0.16347147 0.08422756 0.13586508
v -0.16751511 0.07457875 0.13940624
v -0.17730310 0.07457875 0.14493454
v -0.17635389 0.08422756 0.14498839
v -0.17730123 0.08422756 0.14493454
v -0.16651504 0.08422756 0.13947231
v -0.17186575 0.07457875 0.14479016
v -0.17198817 0.07457875 0.14493454
v -0.17174899 0.08422756 0.14498839
f 1 2 6
f 1 6 7
f 1 7 3
f 1 3 9
f 1 9 15
f 1 15 22
f 1 22 27
f 1 27 26
f 1 26 31
f 1 31 28
f 1 28 23
f 1 23 16
f 1 16 10
f 1 10 4
f 1 4 5
f 1 5 2
f 2 5 11
f 2 11 18
f 2 18 17
f 2 17 24
f 2 24 29
f 2 29 30
f 2 30 25
f 2 25 20
f 2 20 19
f 2 19 14
f 2 14 13
f 2 13 12
f 2 12 6
f 3 7 8
f 3 8 9
f 4 10 11
f 4 11 5
f 6 12 7
f 7 12 8
f 8 13 14
f 8 14 15
f 8 15 9
f 8 12 13
f 10 16 17
f 10 17 18
f 10 18 11
f 14 19 15
f 15 19 20
f 15 20 21
f 15 21 22
f 16 23 17
f 17 23 24
f 20 25 21
f 21 25 26
f 21 26 27
f 21 27 22
f 23 28 29
f 23 29 24
f 25 30 31
f 25 31 26
f 28 31 30
f 28 30 29

