# https://github.com/mikedh/trimesh
v -0.16886475 -0.00011941 0.01702394
v -0.16887668 0.03060526 0.01702394
v -0.15366621 -0.00011941 0.01702394
v -0.16886624 -0.00011941 0.04554783
v -0.16890951 0.03061429 0.11006357
v -0.16887668 0.03061429 0.01702394
v -0.15366621 0.03061429 0.01702394
v -0.15416607 -0.00011941 0.11006357
v -0.16886624 -0.00011941 0.05429079
v -0.16886176 -0.00011941 0.06303375
v -0.16882147 -0.00011941 0.11006357
v -0.15416607 0.03061429 0.11006357
f 1 2 6
f 1 6 7
f 1 7 3
f 1 3 8
f 1 8 11
f 1 11 10
f 1 10 9
f 1 9 4
f 1 4 5
f 1 5 2
f 2 5 6
f 3 7 12
f 3 12 8
f 4 9 5
f 5 9 10
f 5 10 11
f 5 11 8
f 5 8 12
f 5 12 7
f 5 7 6

