# https://github.com/mikedh/trimesh
v -0.15503761 -0.08853745 0.08094196
v -0.15507258 -0.08853745 0.09735420
v -0.16119442 -0.08853745 0.08094196
v -0.16119442 -0.08309136 0.08094196
v -0.16119442 -0.08310149 0.09380314
v -0.16119442 -0.08310842 0.10255992
v -0.16119442 -0.08311535 0.11131132
v -0.16119442 -0.08312228 0.11998752
v -0.15511054 -0.08853745 0.11489999
v -0.16119442 -0.08853745 0.13581955
v -0.16119442 -0.08348905 0.12873355
v -0.15512380 -0.08853745 0.11998752
v -0.15553848 -0.08853745 0.12873355
f 1 2 9
f 1 9 12
f 1 12 13
f 1 13 10
f 1 10 3
f 1 3 4
f 1 4 5
f 1 5 6
f 1 6 7
f 1 7 8
f 1 8 2
f 2 8 9
f 3 10 11
f 3 11 8
f 3 8 7
f 3 7 6
f 3 6 5
f 3 5 4
f 8 11 12
f 8 12 9
f 10 13 11
f 11 13 12

