# https://github.com/mikedh/trimesh
v -0.14523843 0.08450890 -0.00438615
v -0.14523843 0.08402390 -0.00438345
v -0.14523843 0.08450890 0.00940233
v -0.14516114 0.08450890 -0.00438615
v -0.14523843 0.08307584 -0.00437130
v 0.09911537 0.08450890 -0.00438075
v 0.11797524 0.08307584 -0.00436995
v 0.03060665 0.08307584 -0.00437130
v -0.14523843 0.07431475 0.00641891
v 0.11797524 0.07431475 0.00642701
v 0.11797524 0.08449494 0.00918633
v 0.11212663 0.08450890 0.00918363
v -0.14523843 0.07431475 -0.00409726
v 0.11797524 0.08450890 -0.00437940
v 0.11797524 0.07431475 -0.00409186
v -0.03931915 0.07431475 -0.00409726
v 0.11797524 0.08450890 0.00842226
f 1 2 5
f 1 5 13
f 1 13 9
f 1 9 3
f 1 3 12
f 1 12 17
f 1 17 14
f 1 14 6
f 1 6 4
f 1 4 2
f 2 4 6
f 2 6 7
f 2 7 8
f 2 8 5
f 3 9 10
f 3 10 11
f 3 11 12
f 5 8 16
f 5 16 13
f 6 14 7
f 7 14 17
f 7 17 11
f 7 11 10
f 7 10 15
f 7 15 16
f 7 16 8
f 9 13 16
f 9 16 15
f 9 15 10
f 11 17 12

