# https://github.com/mikedh/trimesh
v 0.13923546 -0.07435496 0.02384152
v 0.14779636 -0.07436950 0.02384152
v 0.14071040 -0.07436950 0.02662552
v 0.14380465 -0.07436950 0.03254848
v 0.13925887 -0.00013186 0.02384152
v 0.15253333 -0.07436950 0.02384152
v 0.14736714 -0.07436950 0.03932753
v 0.15303668 -0.00013186 0.05002506
v 0.16194485 -0.00012460 0.05892342
v 0.16194485 -0.00012460 0.02386936
v 0.16174585 -0.00013186 0.02384152
v 0.16177707 -0.07436950 0.02386240
v 0.16174585 -0.07435496 0.02384152
v 0.15300157 -0.07436950 0.05002854
v 0.15637285 -0.00013186 0.05587494
v 0.15634164 -0.07436950 0.05588538
v 0.16177707 -0.00013186 0.05891646
v 0.16603411 -0.00012460 0.05911134
v 0.17052135 -0.00012460 0.02436352
v 0.16194095 -0.07436950 0.02389024
v 0.17054477 -0.07436223 0.02533792
v 0.17052135 -0.03061181 0.02436352
v 0.16175366 -0.07436950 0.05891646
v 0.16177707 -0.07436950 0.05892342
v 0.16194095 -0.07435496 0.05893386
v 0.17052135 -0.03934009 0.05939322
v 0.17052135 -0.00012460 0.05931666
v 0.17729906 -0.00012460 0.02560588
v 0.16194095 -0.07436950 0.05882598
v 0.17599970 -0.07436223 0.02658028
v 0.17600750 -0.07436223 0.02660464
v 0.17710785 -0.07436223 0.03254152
v 0.17729906 -0.03061181 0.02560588
v 0.17598018 -0.07436223 0.05628210
v 0.17052135 -0.07436223 0.05931318
v 0.17048624 -0.07436223 0.05931666
v 0.17642501 -0.03934009 0.05634822
v 0.17318639 -0.00012460 0.05783766
v 0.17893398 -0.00012460 0.03254152
v 0.17909786 -0.03061181 0.03254152
v 0.17710785 -0.07436223 0.05002854
v 0.17600360 -0.07436223 0.05626818
v 0.17873497 -0.03934009 0.03254152
v 0.17834087 -0.03934009 0.05002854
v 0.17600750 -0.00012460 0.05627166
v 0.17712347 -0.00012460 0.05002854
v 0.17872327 -0.03934009 0.04129025
f 1 2 3
f 1 3 4
f 1 4 5
f 1 5 11
f 1 11 13
f 1 13 6
f 1 6 2
f 2 6 12
f 2 12 20
f 2 20 29
f 2 29 24
f 2 24 23
f 2 23 16
f 2 16 14
f 2 14 7
f 2 7 4
f 2 4 3
f 4 7 5
f 5 8 9
f 5 9 10
f 5 10 11
f 5 7 8
f 6 13 12
f 7 14 8
f 8 15 9
f 8 14 16
f 8 16 15
f 9 17 18
f 9 18 27
f 9 27 38
f 9 38 45
f 9 45 46
f 9 46 39
f 9 39 28
f 9 28 19
f 9 19 10
f 9 15 17
f 10 19 11
f 11 19 22
f 11 22 13
f 12 13 21
f 12 21 20
f 13 22 21
f 15 16 17
f 16 23 17
f 17 23 24
f 17 24 25
f 17 25 26
f 17 26 18
f 18 26 27
f 19 28 33
f 19 33 22
f 20 21 30
f 20 30 31
f 20 31 32
f 20 32 41
f 20 41 29
f 21 22 33
f 21 33 30
f 24 29 42
f 24 42 34
f 24 34 35
f 24 35 36
f 24 36 25
f 25 36 26
f 26 36 35
f 26 35 37
f 26 37 27
f 27 37 38
f 28 39 40
f 28 40 33
f 29 41 42
f 30 33 31
f 31 33 40
f 31 40 43
f 31 43 32
f 32 43 41
f 34 42 37
f 34 37 35
f 37 44 45
f 37 45 38
f 37 42 44
f 39 46 44
f 39 44 40
f 40 44 47
f 40 47 43
f 41 43 47
f 41 47 44
f 41 44 42
f 44 46 45

