# https://github.com/mikedh/trimesh
v 0.13304913 0.08450891 0.02062339
v 0.13745298 0.07428236 0.02062339
v 0.13581394 0.08450891 0.02727397
v 0.15602164 0.08450891 0.02062339
v 0.14472517 0.08450891 0.04444762
v 0.15603027 0.07428236 0.02062339
v 0.15301098 0.07428236 0.05002785
v 0.15603027 0.08321758 0.02062339
v 0.17510359 0.08450891 0.02626375
v 0.15632357 0.07428236 0.05584060
v 0.15634514 0.07428236 0.05587668
v 0.14748999 0.08450891 0.04890539
v 0.17600506 0.07428236 0.02657644
v 0.17600074 0.08450891 0.02658045
v 0.17600074 0.08307643 0.02657644
v 0.17600506 0.07433241 0.02657644
v 0.16174967 0.07428236 0.05889930
v 0.15481824 0.08450891 0.05982132
v 0.17710925 0.07428236 0.03254152
v 0.17710495 0.08450891 0.03254152
v 0.17710925 0.08307643 0.03254152
v 0.16177986 0.07428236 0.05891534
v 0.16044275 0.08450891 0.06157717
v 0.17710925 0.07428236 0.05002785
v 0.17710925 0.08450891 0.04859672
v 0.17052288 0.07428236 0.05931622
v 0.17065228 0.08450891 0.05966498
v 0.17710495 0.07428236 0.05006393
v 0.17710925 0.08450891 0.05002785
v 0.17600506 0.07428236 0.05627355
v 0.17600506 0.08450891 0.05643390
f 1 2 3
f 1 3 5
f 1 5 12
f 1 12 18
f 1 18 23
f 1 23 27
f 1 27 31
f 1 31 29
f 1 29 25
f 1 25 20
f 1 20 14
f 1 14 9
f 1 9 4
f 1 4 8
f 1 8 6
f 1 6 2
f 2 5 3
f 2 6 13
f 2 13 19
f 2 19 24
f 2 24 28
f 2 28 30
f 2 30 26
f 2 26 22
f 2 22 17
f 2 17 11
f 2 11 10
f 2 10 7
f 2 7 5
f 4 9 8
f 5 7 10
f 5 10 11
f 5 11 12
f 6 8 9
f 6 9 13
f 9 14 15
f 9 15 16
f 9 16 13
f 11 17 18
f 11 18 12
f 13 16 21
f 13 21 19
f 14 20 21
f 14 21 15
f 15 21 16
f 17 22 18
f 18 22 23
f 19 21 25
f 19 25 29
f 19 29 24
f 20 25 21
f 22 26 23
f 23 26 27
f 24 29 28
f 26 30 27
f 27 30 31
f 28 31 30
f 28 29 31

