# https://github.com/mikedh/trimesh
v 0.11805436 0.08930201 0.12848225
v 0.11805436 0.08929599 0.12873268
v 0.11805436 0.08962918 0.12848225
v 0.12680479 0.08919798 0.12848225
v 0.12680479 0.08919497 0.12873419
v 0.11805781 0.08929599 0.12873419
v 0.11805436 0.09132834 0.13747615
v 0.11805436 0.10287417 0.12873419
v 0.11805781 0.10281990 0.12848225
v 0.13554829 0.08912561 0.12848225
v 0.13554829 0.08912713 0.12873419
v 0.11805781 0.09132834 0.13747767
v 0.11805436 0.09487743 0.14398405
v 0.11805436 0.10452810 0.13747767
v 0.11830980 0.10285004 0.12848225
v 0.14428836 0.09023979 0.12848225
v 0.14428836 0.09026392 0.12873419
v 0.13554829 0.09136302 0.13747767
v 0.12680479 0.09132834 0.13747767
v 0.11805781 0.09487743 0.14398556
v 0.11805436 0.10027191 0.14398556
v 0.12680479 0.10452810 0.13747767
v 0.14428836 0.10420998 0.12873419
v 0.14428836 0.10419791 0.12848225
v 0.13579683 0.10388432 0.12848225
v 0.12705331 0.10337472 0.12848225
v 0.15075711 0.09302146 0.12848225
v 0.15331838 0.09413564 0.12848225
v 0.15054655 0.09499050 0.13747767
v 0.14428836 0.09259178 0.13747767
v 0.14428836 0.09524529 0.14321306
v 0.13554829 0.09488949 0.14391879
v 0.12680479 0.09487743 0.14398556
v 0.12680479 0.10027191 0.14398556
v 0.13554829 0.10452508 0.13747767
v 0.14428836 0.10359032 0.13747767
v 0.14454034 0.10417530 0.12848225
v 0.14919342 0.09578957 0.14233279
v 0.15331838 0.10007440 0.12848225
v 0.14428836 0.09940198 0.14321306
v 0.13554829 0.10027191 0.14391879
v 0.14919342 0.09775258 0.14233279
v 0.15054655 0.09942610 0.13747767
v 0.15324588 0.10012114 0.12848225
f 1 2 7
f 1 7 13
f 1 13 21
f 1 21 14
f 1 14 8
f 1 8 3
f 1 3 9
f 1 9 15
f 1 15 26
f 1 26 25
f 1 25 24
f 1 24 37
f 1 37 44
f 1 44 39
f 1 39 28
f 1 28 27
f 1 27 16
f 1 16 10
f 1 10 4
f 1 4 2
f 2 4 5
f 2 5 6
f 2 6 12
f 2 12 7
f 3 8 9
f 4 10 5
f 5 10 11
f 5 11 12
f 5 12 6
f 7 12 20
f 7 20 13
f 8 14 15
f 8 15 9
f 10 16 11
f 11 16 17
f 11 17 18
f 11 18 19
f 11 19 12
f 12 19 33
f 12 33 20
f 13 20 21
f 14 21 34
f 14 34 22
f 14 22 23
f 14 23 24
f 14 24 25
f 14 25 26
f 14 26 15
f 16 27 17
f 17 27 28
f 17 28 29
f 17 29 30
f 17 30 18
f 18 30 31
f 18 31 32
f 18 32 33
f 18 33 19
f 20 33 34
f 20 34 21
f 22 34 35
f 22 35 23
f 23 35 36
f 23 36 37
f 23 37 24
f 28 38 29
f 28 39 42
f 28 42 38
f 29 38 30
f 30 38 31
f 31 38 42
f 31 42 40
f 31 40 41
f 31 41 32
f 32 41 34
f 32 34 33
f 34 41 35
f 35 41 36
f 36 40 42
f 36 42 43
f 36 43 39
f 36 39 44
f 36 44 37
f 36 41 40
f 39 43 42

