# https://github.com/mikedh/trimesh
v -0.15510133 -0.08853881 0.10953534
v -0.17485599 -0.08853881 0.10953534
v -0.15511305 -0.08853881 0.11490443
v -0.13545995 -0.08947339 0.12093295
v -0.13545995 -0.08949261 0.10953534
v -0.17469583 -0.09197932 0.10953534
v -0.17535211 -0.08894640 0.12093295
v -0.17536382 -0.08853881 0.12093295
v -0.15512476 -0.08853881 0.11998789
v -0.13545995 -0.09984292 0.12093295
v -0.15519899 -0.08853881 0.12093295
v -0.13545995 -0.10095179 0.10953534
v -0.17480911 -0.09448113 0.12093295
v -0.17529742 -0.09001685 0.12093295
v -0.17032457 -0.09865308 0.10953534
v -0.13546777 -0.10119607 0.12093295
v -0.13545995 -0.10101217 0.12007827
v -0.15303875 -0.10243530 0.10953534
v -0.17137929 -0.09811650 0.12093295
v -0.16344930 -0.10144858 0.10953534
v -0.17053551 -0.09888639 0.12093295
v -0.15209340 -0.10249980 0.12093295
v -0.15303875 -0.10255745 0.12093295
v -0.16177737 -0.10228160 0.12093295
v -0.16177737 -0.10212790 0.10953534
f 1 2 8
f 1 8 11
f 1 11 9
f 1 9 3
f 1 3 4
f 1 4 5
f 1 5 12
f 1 12 18
f 1 18 25
f 1 25 20
f 1 20 15
f 1 15 6
f 1 6 2
f 2 6 7
f 2 7 8
f 3 9 4
f 4 10 17
f 4 17 12
f 4 12 5
f 4 9 11
f 4 11 8
f 4 8 7
f 4 7 14
f 4 14 13
f 4 13 19
f 4 19 21
f 4 21 24
f 4 24 23
f 4 23 22
f 4 22 16
f 4 16 10
f 6 13 14
f 6 14 7
f 6 15 13
f 10 16 17
f 12 17 16
f 12 16 18
f 13 15 19
f 15 20 21
f 15 21 19
f 16 22 18
f 18 23 24
f 18 24 25
f 18 22 23
f 20 25 21
f 21 25 24

