# https://github.com/mikedh/trimesh
v -0.15710029 0.08781625 0.01659695
v -0.16304556 0.07458088 0.01659695
v -0.17489062 0.08781625 0.01659695
v -0.15809583 0.08781625 0.08838177
v -0.16385914 0.07458088 0.08838177
v -0.17497461 0.07458088 0.01659695
v -0.17490111 0.08760504 0.01659695
v -0.17489062 0.08781625 0.08838177
v -0.17497285 0.07458088 0.08838177
v -0.17490111 0.08760504 0.08838177
f 1 2 6
f 1 6 7
f 1 7 3
f 1 3 8
f 1 8 4
f 1 4 5
f 1 5 2
f 2 5 9
f 2 9 6
f 3 7 10
f 3 10 8
f 4 8 10
f 4 10 9
f 4 9 5
f 6 9 10
f 6 10 7

