# https://github.com/mikedh/trimesh
v -0.16959775 -0.03935338 0.08092967
v -0.16964907 -0.03933034 0.02408982
v -0.15415520 -0.03935338 0.08092967
v -0.17001298 -0.03935338 0.11450961
v -0.16886528 -0.00011941 0.02408982
v -0.15412721 -0.03933034 0.02408982
v -0.16938003 -0.00011941 0.11450961
v -0.15415986 -0.03935338 0.09375448
v -0.15416920 -0.03935338 0.11450961
v -0.15412721 -0.00011941 0.02408982
v -0.15416297 -0.03934954 0.10249022
v -0.15416920 -0.00011941 0.11450961
v -0.15416763 -0.03935338 0.11123481
v -0.15416297 -0.00011941 0.10249022
f 1 2 6
f 1 6 3
f 1 3 8
f 1 8 13
f 1 13 9
f 1 9 4
f 1 4 2
f 2 5 10
f 2 10 6
f 2 4 7
f 2 7 5
f 3 6 8
f 4 9 12
f 4 12 7
f 5 7 12
f 5 12 14
f 5 14 10
f 6 10 14
f 6 14 11
f 6 11 8
f 8 11 13
f 9 13 11
f 9 11 14
f 9 14 12

