# https://github.com/mikedh/trimesh
v -0.16284564 0.06466699 0.01702393
v -0.17635751 0.06466699 0.01702393
v -0.16309031 0.07457778 0.01702393
v -0.16362111 0.06466699 0.11995116
v -0.17650459 0.06466699 0.11995116
v -0.17647116 0.06554990 0.11995116
v -0.17631206 0.06558774 0.01702393
v -0.17497371 0.07457778 0.01702393
v -0.16387114 0.07457778 0.11995116
v -0.17646850 0.06558774 0.11995116
v -0.17529325 0.07457681 0.11995116
v -0.17498307 0.07457778 0.11148808
v -0.17354845 0.07457778 0.11995116
f 1 2 7
f 1 7 8
f 1 8 3
f 1 3 4
f 1 4 5
f 1 5 2
f 2 5 6
f 2 6 7
f 3 8 12
f 3 12 13
f 3 13 9
f 3 9 4
f 4 9 13
f 4 13 11
f 4 11 10
f 4 10 6
f 4 6 5
f 6 10 7
f 7 10 11
f 7 11 8
f 8 11 12
f 11 13 12

