# https://github.com/mikedh/trimesh
v -0.15798487 0.10029624 0.14409702
v -0.15798487 0.09450612 0.14409702
v -0.15798487 0.10214361 0.14126935
v -0.17052476 0.10028435 0.14465264
v -0.17023140 0.09166674 0.14532483
v -0.17069270 0.08940802 0.14522313
v -0.15798487 0.09176031 0.14022758
v -0.15798487 0.10455678 0.13747680
v -0.17729745 0.09182268 0.14493292
v -0.16178148 0.10457905 0.13747680
v -0.17052476 0.10443055 0.13747680
v -0.17649178 0.09887358 0.14390355
v -0.17237842 0.08940802 0.14520825
v -0.17209145 0.08940802 0.14522313
v -0.16157104 0.08940802 0.13776949
v -0.15798487 0.09030795 0.13760083
v -0.15798487 0.10413948 0.13367929
v -0.17796280 0.08940802 0.14287418
v -0.17729745 0.08940802 0.14493292
v -0.17969531 0.09182268 0.13747680
v -0.17969957 0.08940802 0.13747680
v -0.15798487 0.10300195 0.12493584
v -0.16178148 0.10343855 0.12873583
v -0.17729107 0.10021308 0.13747680
v -0.16178148 0.10214064 0.11998742
v -0.17041847 0.09866568 0.11998989
v -0.17649178 0.09887210 0.13020175
v -0.15798487 0.08940802 0.13393726
v -0.17479117 0.09402942 0.11998742
v -0.17507176 0.08965751 0.11998742
v -0.17913198 0.08940802 0.13506336
v -0.15798487 0.10226835 0.11998742
v -0.17041847 0.09866419 0.11998742
v -0.15798487 0.08940802 0.12045373
v -0.17508027 0.08940802 0.11998742
v -0.15799125 0.08940802 0.11998742
f 1 2 7
f 1 7 16
f 1 16 28
f 1 28 34
f 1 34 32
f 1 32 22
f 1 22 17
f 1 17 8
f 1 8 3
f 1 3 4
f 1 4 5
f 1 5 2
f 2 5 6
f 2 6 7
f 3 8 4
f 4 9 5
f 4 8 10
f 4 10 11
f 4 11 12
f 4 12 9
f 5 9 13
f 5 13 14
f 5 14 6
f 6 14 13
f 6 13 19
f 6 19 18
f 6 18 21
f 6 21 31
f 6 31 35
f 6 35 36
f 6 36 34
f 6 34 28
f 6 28 15
f 6 15 16
f 6 16 7
f 8 17 10
f 9 18 19
f 9 19 13
f 9 12 20
f 9 20 21
f 9 21 18
f 10 17 22
f 10 22 23
f 10 23 11
f 11 24 12
f 11 23 25
f 11 25 26
f 11 26 27
f 11 27 24
f 12 24 20
f 15 28 16
f 20 24 27
f 20 27 29
f 20 29 30
f 20 30 31
f 20 31 21
f 22 32 23
f 23 32 25
f 25 32 36
f 25 36 35
f 25 35 30
f 25 30 29
f 25 29 33
f 25 33 26
f 26 33 27
f 27 33 29
f 30 35 31
f 32 34 36

